<svg width="222" height="250" fill="none" xmlns="http://www.w3.org/2000/svg"><path style="mix-blend-mode:multiply" d="M180.456 176.181c47.385 14.386 54.691 40.447 16.318 58.208-38.373 17.761-107.887 20.502-155.268 6.117-47.38-14.386-54.691-40.443-16.322-58.204 38.37-17.761 107.891-20.491 155.272-6.121Z" fill="url(#a)"/><path d="M110.926 209.306c-22.787 0-44.29-2.868-62.174-8.296-25.13-7.63-39.555-19.413-40.618-33.175-.52-6.778 2.098-19.766 25.514-30.61 19.172-8.873 47.38-13.966 77.389-13.966 22.79 0 44.285 2.872 62.17 8.299 25.133 7.626 39.559 19.409 40.618 33.175.523 6.779-2.094 19.767-25.51 30.607-19.177 8.877-47.385 13.966-77.389 13.966Z" fill="#001C63" style="mix-blend-mode:multiply" opacity=".2"/><path d="M170.798 138.591c40.798 12.384 47.087 34.822 14.05 50.116-33.038 15.294-92.89 17.65-133.683 5.266-40.794-12.384-47.087-34.822-14.054-50.112 33.034-15.29 92.889-17.654 133.687-5.27Z" fill="#001C63" style="mix-blend-mode:multiply"/><g style="mix-blend-mode:multiply"><path d="M158.622 144.227c32.494 9.866 37.503 27.716 11.191 39.915-26.311 12.198-73.982 14.058-106.472 4.195-32.49-9.862-37.506-27.735-11.19-39.914 26.315-12.18 73.982-14.059 106.471-4.196Z" fill="url(#b)"/><path d="M158.622 144.227c32.494 9.866 37.503 27.716 11.191 39.915-26.311 12.198-73.982 14.058-106.472 4.195-32.49-9.862-37.506-27.735-11.19-39.914 26.315-12.18 73.982-14.059 106.471-4.196Z" fill="url(#c)"/><path d="M158.622 144.227c32.494 9.866 37.503 27.716 11.191 39.915-26.311 12.198-73.982 14.058-106.472 4.195-32.49-9.862-37.506-27.735-11.19-39.914 26.315-12.18 73.982-14.059 106.471-4.196Z" fill="url(#d)"/></g><path d="M110.926 223.953c-22.787 0-44.29-2.872-62.174-8.3-25.13-7.629-39.555-19.409-40.618-33.174-.52-6.779 2.098-19.767 25.514-30.607 19.172-8.877 47.38-13.97 77.389-13.97 22.79 0 44.285 2.872 62.17 8.299 25.133 7.63 39.559 19.409 40.618 33.175.523 6.779-2.094 19.767-25.51 30.611-19.177 8.873-47.385 13.966-77.389 13.966Z" fill="#001C63" style="mix-blend-mode:multiply" opacity=".2"/><path d="M178.758 140.874h-13.419a74.656 74.656 0 0 0-11.706-4.561c-29.088-8.831-71.767-7.149-95.326 3.757-.573.265-1.112.535-1.636.804H43.338v13.677c-1.227 7.895 7.36 15.895 24.99 21.253 29.088 8.831 71.767 7.148 95.322-3.757 10.173-4.708 15.104-10.367 15.096-15.987l.012-15.186Z" fill="#E6E6E8"/><path d="M153.634 121.13c29.092 8.831 33.577 24.829 10.018 35.735-23.56 10.905-66.239 12.588-95.322 3.757-29.084-8.831-33.578-24.829-10.022-35.735 23.556-10.905 66.238-12.587 95.326-3.757Z" fill="#FDFDFF"/><path style="mix-blend-mode:multiply" d="M110.979 166.357c37.434 0 67.78-11.409 67.78-25.483s-30.346-25.483-67.78-25.483-67.78 11.409-67.78 25.483 30.346 25.483 67.78 25.483Z" fill="url(#e)"/><path d="M178.758 115.729h-13.419a74.754 74.754 0 0 0-11.706-4.561c-29.088-8.831-71.767-7.149-95.326 3.757-.573.265-1.112.535-1.636.804H43.338v13.677c-1.227 7.896 7.36 15.895 24.99 21.253 29.088 8.831 71.767 7.149 95.322-3.757 10.173-4.708 15.104-10.366 15.096-15.99l.012-15.183Z" fill="#E6E6E8"/><path d="M153.634 95.986c29.092 8.83 33.577 24.829 10.018 35.734-23.56 10.906-66.239 12.584-95.322 3.753-29.084-8.83-33.578-24.829-10.022-35.73 23.556-10.902 66.238-12.588 95.326-3.757Z" fill="#FDFDFF"/><path style="mix-blend-mode:multiply" opacity=".25" d="M110.979 128.944c19.409 0 35.143-5.916 35.143-13.215 0-7.298-15.734-13.215-35.143-13.215s-35.143 5.917-35.143 13.215c0 7.299 15.734 13.215 35.143 13.215Z" fill="url(#f)"/><path d="M108.881 21.746c0 4.683-1.155 8.22-3.467 10.613-2.311 2.391-5.423 3.586-9.335 3.584-3.95 0-7.084-1.195-9.404-3.584-2.32-2.39-3.475-5.927-3.467-10.613v-7.291c0-4.686 1.147-8.223 3.442-10.61C88.947 1.46 92.066.264 96.01.259c3.928 0 7.053 1.2 9.375 3.6 2.323 2.399 3.483 5.931 3.48 10.597l.016 7.29Zm-8.529-7.838c0-2.65-.37-4.556-1.112-5.716a3.437 3.437 0 0 0-1.346-1.298 3.716 3.716 0 0 0-1.868-.442 3.647 3.647 0 0 0-1.864.437 3.37 3.37 0 0 0-1.333 1.303c-.72 1.16-1.078 3.065-1.076 5.716v8.338c0 2.697.363 4.622 1.088 5.774.316.543.786.992 1.358 1.297a3.705 3.705 0 0 0 1.88.428c.65.02 1.291-.13 1.854-.435a3.38 3.38 0 0 0 1.331-1.29c.728-1.154 1.091-3.08 1.088-5.774v-8.338ZM113.984 20.198 116.11.758h21.605v6.194h-14.65l-.936 7.268a7.97 7.97 0 0 1 2.404-1.12 12.098 12.098 0 0 1 3.165-.478c3.609-.061 6.384.927 8.325 2.964 1.94 2.038 2.91 4.933 2.907 8.685.079 3.059-1.109 6.027-3.312 8.276-2.211 2.264-5.374 3.395-9.49 3.395-3.284.069-6.498-.895-9.134-2.74a8.483 8.483 0 0 1-2.865-3.166 7.916 7.916 0 0 1-.881-4.075l.053-.143 8.35-.477c0 1.38.408 2.461 1.226 3.241.429.392.939.696 1.498.895a4.622 4.622 0 0 0 1.753.26c1.554 0 2.655-.513 3.304-1.54a7.188 7.188 0 0 0 .973-3.895c0-1.905-.363-3.405-1.088-4.5-.725-1.096-1.873-1.644-3.443-1.644a4.987 4.987 0 0 0-2.768.689 3.62 3.62 0 0 0-1.455 1.74l-7.667-.389Z" fill="#001C63"/><g clip-path="url(#g)" fill="#001C63"><path d="M119.596 107.129h-5.806v-4.68h-4.198v4.68h-5.805c-1.16 0-2.099.872-2.099 1.947 0 1.075.939 1.947 2.099 1.947h15.809c1.159 0 2.099-.872 2.099-1.947 0-1.075-.94-1.947-2.099-1.947ZM115.609 95.992H84.191v2.326c0 .846.743 1.535 1.655 1.535h51.69c.913 0 1.655-.689 1.655-1.535v-2.326h-23.582ZM137.536 65.183h-51.69c-.912 0-1.655.689-1.655 1.535v26.678h3.87c.248-11.893 10.752-21.497 23.63-21.497 4.446 0 8.609 1.145 12.165 3.134l1.388-1.76c.457-.578 1.332-.703 1.956-.28.623.423.759 1.236.302 1.814l-1.338 1.696c5.458 3.933 9.014 10.032 9.157 16.893h3.87V66.718c0-.846-.742-1.535-1.655-1.535Z"/><path d="M123.536 92c-.493-2.766-2.045-5.141-4.233-6.802l-4.168 5.282a4.974 4.974 0 0 1 1.545 2.047h7.085a1.243 1.243 0 0 1-.229-.526ZM111.691 82.688c-3.438 0-6.563 1.331-8.764 3.51l-.03.042a1.335 1.335 0 0 1-.247.241c-1.428 1.515-2.426 3.402-2.803 5.52a1.241 1.241 0 0 1-.23.526h7.086c.75-1.881 2.703-3.226 4.988-3.226.291 0 .577.023.855.065l4.393-5.568a12.81 12.81 0 0 0-5.248-1.11ZM132.482 92.527c-.405-5.648-3.437-10.64-7.97-13.93l-3.566 4.52c.123.09.246.182.366.277 2.649 2.106 4.419 5.012 4.985 8.183a1.22 1.22 0 0 1-.23.95h6.415ZM97.086 91.577c.379-2.125 1.301-4.13 2.664-5.855l-4.865-3.282-.015-.011c-2.266 2.87-3.7 6.338-3.97 10.098h6.415a1.22 1.22 0 0 1-.23-.95ZM96.675 80.437l4.942 3.334c.149-.128.3-.254.454-.377 2.323-1.846 5.201-2.972 8.221-3.239V74.54c-5.335.33-10.126 2.53-13.617 5.898ZM113.091 74.54v5.615c1.933.17 3.807.693 5.515 1.531l3.59-4.55a21.865 21.865 0 0 0-9.105-2.597Z"/></g><defs><radialGradient id="a" cx="0" cy="0" r="1" gradientUnits="userSpaceOnUse" gradientTransform="matrix(107.502 0 0 39.4718 110.979 196.938)"><stop stop-color="#2A48D0"/><stop offset="1" stop-color="#fff"/></radialGradient><radialGradient id="b" cx="0" cy="0" r="1" gradientUnits="userSpaceOnUse" gradientTransform="matrix(53.75846 -19.9596 13.0257 35.08293 117.01 166.37)"><stop stop-color="#8EDBDC"/><stop offset=".44" stop-color="#90DCDD"/><stop offset=".6" stop-color="#97DEDF"/><stop offset=".71" stop-color="#A2E2E2"/><stop offset=".8" stop-color="#B3E7E8"/><stop offset=".88" stop-color="#C9EEEE"/><stop offset=".95" stop-color="#E4F6F7"/><stop offset="1" stop-color="#fff"/></radialGradient><radialGradient id="c" cx="0" cy="0" r="1" gradientUnits="userSpaceOnUse" gradientTransform="matrix(53.75846 -19.9596 13.0257 35.08293 117.01 166.37)"><stop stop-color="#80E3C8"/><stop offset=".43" stop-color="#82E3C9"/><stop offset=".58" stop-color="#89E5CC"/><stop offset=".69" stop-color="#94E8D1"/><stop offset=".78" stop-color="#A5EBD8"/><stop offset=".86" stop-color="#BBF0E2"/><stop offset=".93" stop-color="#D7F6ED"/><stop offset=".99" stop-color="#F6FDFB"/><stop offset="1" stop-color="#fff"/></radialGradient><radialGradient id="d" cx="0" cy="0" r="1" gradientUnits="userSpaceOnUse" gradientTransform="matrix(53.75846 -19.9596 13.0257 35.08293 117.01 166.37)"><stop stop-color="#2A48D0"/><stop offset=".39" stop-color="#2C4AD0"/><stop offset=".53" stop-color="#334FD2"/><stop offset=".62" stop-color="#3E5AD5"/><stop offset=".71" stop-color="#4F68D8"/><stop offset=".77" stop-color="#657BDD"/><stop offset=".83" stop-color="#8192E3"/><stop offset=".89" stop-color="#A1AEEA"/><stop offset=".94" stop-color="#C7CFF3"/><stop offset=".99" stop-color="#F0F2FC"/><stop offset="1" stop-color="#fff"/></radialGradient><radialGradient id="e" cx="0" cy="0" r="1" gradientUnits="userSpaceOnUse" gradientTransform="matrix(67.5713 0 0 23.5379 110.979 143.889)"><stop stop-color="#2A48D0"/><stop offset="1" stop-color="#fff"/></radialGradient><radialGradient id="f" cx="0" cy="0" r="1" gradientUnits="userSpaceOnUse" gradientTransform="matrix(35.0369 0 0 12.2048 110.979 118.71)"><stop stop-color="#2A48D0"/><stop offset="1" stop-color="#fff"/></radialGradient><clipPath id="g"><path fill="#fff" transform="translate(84.191 62.592)" d="M0 0h55v51.023H0z"/></clipPath></defs></svg>