<svg width="222" height="244" fill="none" xmlns="http://www.w3.org/2000/svg"><path style="mix-blend-mode:multiply" d="M180.562 169.658c47.381 14.385 54.687 40.446 16.318 58.208-38.369 17.761-107.887 20.502-155.272 6.116-47.384-14.385-54.687-40.442-16.318-58.207 38.37-17.765 107.887-20.499 155.272-6.117Z" fill="url(#a)"/><path d="M108.485 203.441c-22.787 0-44.286-2.868-62.15-8.295-25.13-7.63-39.555-19.413-40.618-33.179-.523-6.779 2.098-19.767 25.51-30.607 19.177-8.877 47.385-13.966 77.389-13.966 22.79 0 44.289 2.872 62.174 8.3 25.129 7.625 39.555 19.409 40.618 33.174.519 6.775-2.098 19.767-25.514 30.607-19.205 8.877-47.414 13.966-77.409 13.966Z" fill="#001C63" style="mix-blend-mode:multiply" opacity=".2"/><path d="M108.485 218.088c-22.787 0-44.286-2.871-62.15-8.299-25.13-7.63-39.555-19.409-40.618-33.175-.523-6.779 2.098-19.767 25.51-30.611 19.177-8.853 47.385-13.965 77.389-13.965 22.79 0 44.289 2.871 62.174 8.299 25.129 7.63 39.555 19.409 40.618 33.175.519 6.778-2.098 19.767-25.514 30.607-19.205 8.876-47.414 13.969-77.409 13.969Z" fill="#001C63" style="mix-blend-mode:multiply" opacity=".2"/><path d="M168.345 132.727c40.798 12.383 47.091 34.822 14.053 50.116-33.037 15.294-92.889 17.649-133.703 5.266-40.815-12.384-47.087-34.822-14.05-50.116 33.038-15.294 92.906-17.65 133.7-5.266Z" fill="#001C63" style="mix-blend-mode:multiply"/><g style="mix-blend-mode:multiply"><path d="M156.172 138.362c32.489 9.866 37.502 27.736 11.191 39.915-26.311 12.18-73.983 14.058-106.476 4.196-32.494-9.862-37.503-27.716-11.191-39.915 26.311-12.199 73.982-14.058 106.476-4.196Z" fill="url(#b)"/><path d="M156.172 138.362c32.489 9.866 37.502 27.736 11.191 39.915-26.311 12.18-73.983 14.058-106.476 4.196-32.494-9.862-37.503-27.716-11.191-39.915 26.311-12.199 73.982-14.058 106.476-4.196Z" fill="url(#c)"/><path d="M156.172 138.362c32.489 9.866 37.502 27.736 11.191 39.915-26.311 12.18-73.983 14.058-106.476 4.196-32.494-9.862-37.503-27.716-11.191-39.915 26.311-12.199 73.982-14.058 106.476-4.196Z" fill="url(#d)"/></g><path d="M176.305 135.009h-13.419a74.52 74.52 0 0 0-11.706-4.561c-29.088-8.831-71.767-7.149-95.322 3.757a63.17 63.17 0 0 0-1.656.804H40.885v13.677c-1.227 7.895 7.34 15.895 24.99 21.253 29.092 8.831 71.771 7.148 95.326-3.757 10.173-4.708 15.104-10.367 15.096-15.991l.008-15.182Z" fill="#E6E6ED"/><path d="M151.18 115.265c29.091 8.831 33.577 24.829 10.021 35.735-23.555 10.905-66.238 12.584-95.326 3.757-29.087-8.827-33.573-24.833-10.017-35.735 23.555-10.901 66.234-12.587 95.322-3.757Z" fill="#FAFAFF"/><path style="mix-blend-mode:multiply" d="M108.456 160.52c37.474 0 67.853-11.422 67.853-25.511 0-14.089-30.379-25.51-67.853-25.51-37.474 0-67.853 11.421-67.853 25.51 0 14.089 30.379 25.511 67.853 25.511Z" fill="url(#e)"/><path d="M176.305 109.865h-13.419a74.194 74.194 0 0 0-11.706-4.562c-29.088-8.83-71.767-7.148-95.322 3.757-.572.266-1.116.535-1.656.805H40.885v13.677c-1.227 7.895 7.34 15.894 24.99 21.253 29.092 8.83 71.771 7.148 95.326-3.757 10.173-4.708 15.104-10.367 15.096-15.991l.008-15.182Z" fill="#E6E6ED"/><path d="M151.18 90.105c29.091 8.831 33.577 24.829 10.021 35.735-23.555 10.905-66.238 12.584-95.326 3.753-29.087-8.831-33.573-24.829-10.017-35.73 23.555-10.902 66.234-12.573 95.322-3.758Z" fill="#FAFAFF"/><path style="mix-blend-mode:multiply" opacity=".25" d="M108.456 123.08c19.409 0 35.143-5.917 35.143-13.215 0-7.299-15.734-13.215-35.143-13.215s-35.143 5.916-35.143 13.215c0 7.298 15.734 13.215 35.143 13.215Z" fill="url(#f)"/><path d="M106.35 21.932c0 4.684-1.155 8.221-3.463 10.613-2.309 2.392-5.422 3.588-9.34 3.588-3.944 0-7.071-1.196-9.383-3.588-2.311-2.392-3.473-5.93-3.484-10.613v-7.275c0-4.687 1.147-8.224 3.44-10.613C86.41 1.654 89.532.46 93.481.46c3.931 0 7.056 1.198 9.376 3.595 2.32 2.397 3.478 5.93 3.475 10.601l.017 7.276Zm-8.525-7.834c0-2.65-.371-4.557-1.112-5.72a3.442 3.442 0 0 0-1.347-1.295 3.72 3.72 0 0 0-1.867-.441 3.648 3.648 0 0 0-1.866.434 3.37 3.37 0 0 0-1.336 1.302c-.714 1.163-1.072 3.07-1.075 5.72v8.334c0 2.703.363 4.627 1.088 5.774a3.44 3.44 0 0 0 1.358 1.298 3.717 3.717 0 0 0 1.88.43c.65.02 1.293-.13 1.856-.436a3.388 3.388 0 0 0 1.333-1.292c.725-1.152 1.088-3.076 1.088-5.774v-8.334ZM125.935.448a19.78 19.78 0 0 1 3.872.343 25.72 25.72 0 0 1 3.746 1.109l-1.419 5.858a36.696 36.696 0 0 0-3.099-.746 16.366 16.366 0 0 0-3.051-.25 6.422 6.422 0 0 0-2.68.48 6.072 6.072 0 0 0-2.189 1.533c-1.222 1.34-1.808 3.296-1.758 5.87l.077.12a7.442 7.442 0 0 1 2.96-1.86 12.36 12.36 0 0 1 4.2-.666c3.287 0 5.847 1.115 7.678 3.345 1.832 2.23 2.747 5.085 2.744 8.565 0 3.429-1.21 6.284-3.631 8.565-2.42 2.282-5.51 3.421-9.269 3.419-4.034 0-7.29-1.248-9.768-3.742-2.478-2.494-3.718-5.909-3.721-10.243v-6.98c0-4.573 1.43-8.165 4.289-10.778 2.86-2.612 6.533-3.926 11.019-3.942Zm-1.696 17.985a9.195 9.195 0 0 0-3.047.45 4.812 4.812 0 0 0-2.011 1.255v2.04c0 2.503.435 4.427 1.304 5.775a3.93 3.93 0 0 0 1.517 1.481 4.25 4.25 0 0 0 2.114.524c1.281 0 2.326-.57 3.136-1.709a6.821 6.821 0 0 0 1.227-4.057c0-1.756-.393-3.152-1.178-4.189a3.515 3.515 0 0 0-1.315-1.158 3.768 3.768 0 0 0-1.747-.412Z" fill="#001C63"/><g clip-path="url(#g)"><path fill-rule="evenodd" clip-rule="evenodd" d="M96.955 97.523v-18.32h8.882c3.766.626 7.532 2.52 11.299 4.72h6.898c3.124.174 4.759 3.11 1.725 5.04-2.42 1.645-5.611 1.553-8.882 1.28-2.256-.103-2.355 2.71 0 2.72.816.058 1.705-.119 2.482-.12 4.084-.003 7.448-.728 9.505-3.72l1.036-2.24 10.263-4.72c5.136-1.57 8.785 3.414 5.002 6.88-7.434 5.016-15.058 9.146-22.855 12.48-5.663 3.195-11.326 3.087-16.989 0l-8.366-4Zm38.635-29.358a.656.656 0 0 0-.884.143l-.564.737a3.985 3.985 0 0 0-.63-.194 7.236 7.236 0 0 0-.651-.123l-.177-.963a.59.59 0 0 0-.254-.38.638.638 0 0 0-.475-.092l-1.304.215a.66.66 0 0 0-.408.236.53.53 0 0 0-.111.44l.166.882a3.91 3.91 0 0 0-.596.287 4.686 4.686 0 0 0-.541.349l-.884-.564a.64.64 0 0 0-.872.144l-.751.994a.538.538 0 0 0-.111.44.57.57 0 0 0 .265.38l.795.522c-.088.185-.155.38-.21.584-.056.205-.1.4-.133.604l-1.037.165a.652.652 0 0 0-.41.235c-.099.134-.131.277-.099.44l.232 1.21a.603.603 0 0 0 .255.38.642.642 0 0 0 .475.102l.949-.154c.089.194.188.379.309.553.111.174.243.348.376.512l-.608.81a.516.516 0 0 0-.11.43.592.592 0 0 0 .265.379l1.082.707a.65.65 0 0 0 .475.092.685.685 0 0 0 .42-.236l.563-.748c.199.082.409.144.63.195.221.051.431.092.651.123l.178.963a.583.583 0 0 0 .254.379c.143.093.298.123.474.093l1.304-.216a.66.66 0 0 0 .409-.236.538.538 0 0 0 .111-.44l-.167-.881c.211-.082.409-.174.597-.287a6.26 6.26 0 0 0 .552-.349l.873.564a.637.637 0 0 0 .474.102.622.622 0 0 0 .41-.245l.761-1.004c.1-.133.133-.287.1-.441a.618.618 0 0 0-.254-.39l-.807-.512a3.31 3.31 0 0 0 .21-.584c.056-.205.1-.4.133-.605l1.038-.164a.65.65 0 0 0 .409-.236c.099-.133.133-.276.099-.44l-.232-1.21a.596.596 0 0 0-.254-.378.642.642 0 0 0-.475-.103l-.95.154a4.483 4.483 0 0 0-.309-.554 3.69 3.69 0 0 0-.375-.501l.607-.82a.513.513 0 0 0 .111-.43.593.593 0 0 0-.265-.38l-1.071-.696-.033.01Zm-3.788 2.848a2.858 2.858 0 0 1 1.027.02c.331.072.63.195.905.37.266.173.497.4.684.665.188.266.31.564.365.881.056.318.056.635-.022.953a2.38 2.38 0 0 1-.398.84c-.187.246-.43.461-.718.635a2.553 2.553 0 0 1-.949.339 2.88 2.88 0 0 1-1.027-.021 2.77 2.77 0 0 1-.905-.369 2.559 2.559 0 0 1-.686-.666 2.168 2.168 0 0 1-.364-.881 2.302 2.302 0 0 1 .023-.953c.077-.307.21-.584.397-.84a2.596 2.596 0 0 1 1.668-.973Zm-10.029-14.365a.47.47 0 0 0-.155-.103.395.395 0 0 0-.166-.03.394.394 0 0 0-.165.03.61.61 0 0 0-.145.092l-.01.01-1.249 1.159a.746.746 0 0 1-.905.071c-.144-.082-.288-.164-.453-.246-.176-.082-.343-.164-.497-.235a7.807 7.807 0 0 0-.52-.205c-.154-.051-.331-.113-.541-.175a.664.664 0 0 1-.486-.625V54.62a.369.369 0 0 0-.033-.164.37.37 0 0 0-.1-.123.526.526 0 0 0-.132-.092.445.445 0 0 0-.177-.031h-2.406a.704.704 0 0 0-.166.02.57.57 0 0 0-.155.103.299.299 0 0 0-.089.123.383.383 0 0 0-.033.164v1.63c0 .327-.254.593-.585.655-.188.041-.364.082-.519.123-.177.051-.342.103-.519.164-.166.061-.342.123-.508.205-.177.072-.332.153-.486.225a.741.741 0 0 1-.84-.113l-1.38-1.27c-.01-.01-.01-.01-.01-.02a.528.528 0 0 0-.133-.093c-.044-.02-.088-.02-.154-.02a.442.442 0 0 0-.321.134l-1.679 1.567a.422.422 0 0 0-.111.143.323.323 0 0 0-.033.154c0 .062.012.113.033.154a.528.528 0 0 0 .1.134v.01l1.248 1.157a.619.619 0 0 1 .077.84c-.088.134-.176.267-.264.42-.089.165-.177.318-.254.462a5.801 5.801 0 0 0-.221.482c-.055.143-.122.307-.188.502a.708.708 0 0 1-.674.45h-1.911a.447.447 0 0 0-.176.031c-.045.02-.088.051-.133.082a.286.286 0 0 0-.088.123.369.369 0 0 0-.033.164v2.234c0 .061.011.112.022.153a.523.523 0 0 0 .111.144.303.303 0 0 0 .133.082c.044.02.11.03.177.03h1.756c.353 0 .64.236.707.544.044.174.088.338.132.471.056.164.111.328.177.492.066.154.133.318.221.482.089.174.166.328.243.471a.616.616 0 0 1-.132.769l-1.37 1.26-.012.01a.486.486 0 0 0-.099.123c-.022.042-.022.083-.022.144 0 .061.011.112.033.154a.34.34 0 0 0 .11.143l1.668 1.568a.48.48 0 0 0 .332.123c.066 0 .132-.01.188-.03.043-.021.099-.052.143-.082l1.238-1.168a.746.746 0 0 1 .905-.082c.144.082.287.164.453.246.177.082.342.163.497.235.165.072.342.144.519.205.154.051.331.113.541.175a.663.663 0 0 1 .486.625v1.772c0 .062.012.123.034.164a.486.486 0 0 0 .088.123.434.434 0 0 0 .32.113h2.408c.066 0 .122-.01.165-.02.044-.021.1-.052.155-.103a.293.293 0 0 0 .089-.123.368.368 0 0 0 .034-.164v-1.63c0-.327.254-.594.585-.655.187-.041.364-.082.519-.123.177-.052.342-.103.519-.165.166-.061.342-.123.519-.204.188-.082.354-.154.508-.226a.74.74 0 0 1 .829.123l1.358 1.271.011.01a.507.507 0 0 0 .132.093c.045.02.1.02.166.02.067 0 .121-.01.166-.03a.555.555 0 0 0 .133-.093c.011-.01.022-.02.033-.02l1.679-1.537a.417.417 0 0 0 .099-.143.431.431 0 0 0 0-.338.852.852 0 0 0-.088-.134l-1.259-1.147a.618.618 0 0 1-.088-.84c.088-.134.176-.267.265-.42.088-.165.176-.318.254-.462a6.53 6.53 0 0 0 .22-.482c.056-.143.123-.307.189-.502a.705.705 0 0 1 .673-.45h1.911a.44.44 0 0 0 .309-.113.37.37 0 0 0 .122-.298V63.67a.582.582 0 0 0-.022-.154.552.552 0 0 0-.111-.143.31.31 0 0 0-.132-.082.45.45 0 0 0-.176-.03h-1.757c-.353 0-.651-.247-.706-.554a25.985 25.985 0 0 1-.133-.45c-.055-.154-.111-.319-.188-.492 0-.01-.011-.021-.011-.032a9.85 9.85 0 0 0-.199-.45c-.078-.154-.155-.308-.243-.451a.616.616 0 0 1 .122-.779l1.37-1.28c0-.01.011-.01.022-.01a.5.5 0 0 0 .099-.124c.022-.041.022-.082.022-.143a.32.32 0 0 0-.033-.154.413.413 0 0 0-.11-.144l-1.691-1.557.008.008Zm.398-1.322c.232.093.43.216.607.38l1.69 1.557h.011c.176.164.309.349.408.553.101.216.145.43.145.666 0 .236-.056.462-.145.667a1.581 1.581 0 0 1-.418.542l-.995.933c.012.03.034.061.044.092.089.174.167.359.244.533 0 .01.011.02.011.03.077.175.143.37.21.574l.022.072h1.215c.254 0 .496.042.717.134.221.082.419.215.597.379l.011.01a1.68 1.68 0 0 1 .541 1.21v2.233c0 .482-.177.891-.541 1.23a1.855 1.855 0 0 1-.608.379 2.06 2.06 0 0 1-.717.123h-1.415c-.011.03-.033.072-.044.102-.078.185-.166.369-.254.554-.1.194-.188.379-.287.543l-.034.061.862.789.033.03c.177.165.298.36.387.564.088.205.133.42.133.656 0 .226-.045.441-.133.646-.089.205-.21.39-.387.564l-.022.02-1.69 1.558a1.843 1.843 0 0 1-.596.389c-.22.092-.464.133-.729.133-.254 0-.497-.051-.729-.133a1.748 1.748 0 0 1-.595-.39l-.984-.922a.35.35 0 0 1-.11.042c-.189.072-.387.154-.597.225-.198.072-.408.133-.618.195-.034.01-.056.02-.089.02v1.117c0 .236-.044.461-.143.666-.089.205-.232.39-.409.553l-.011.01a1.782 1.782 0 0 1-.596.37 2.044 2.044 0 0 1-.706.133h-2.408c-.52 0-.961-.164-1.326-.502a1.713 1.713 0 0 1-.408-.564 1.665 1.665 0 0 1-.133-.666v-1.314c-.033-.01-.078-.03-.111-.041-.199-.072-.397-.154-.596-.236-.21-.092-.409-.174-.586-.267l-.066-.03-.851.8-.033.03a1.803 1.803 0 0 1-.607.359 2.004 2.004 0 0 1-.707.123 1.987 1.987 0 0 1-1.304-.482l-.022-.02-1.69-1.589a1.844 1.844 0 0 1-.408-.553c-.1-.215-.144-.43-.144-.666 0-.236.055-.46.144-.666.099-.205.243-.39.42-.553l.993-.912a.294.294 0 0 1-.044-.103c-.077-.174-.165-.359-.243-.553-.077-.195-.154-.38-.21-.574l-.022-.082h-1.203c-.255 0-.498-.04-.719-.133a1.811 1.811 0 0 1-.596-.38l-.011-.01a1.679 1.679 0 0 1-.542-1.209v-2.233c0-.235.045-.45.133-.666a1.86 1.86 0 0 1 1.016-.943c.221-.082.464-.122.719-.122h1.413c.011-.031.033-.072.045-.102.077-.185.165-.37.254-.554.099-.195.187-.379.287-.543l.033-.062-.85-.799a1.599 1.599 0 0 1-.409-.563c-.1-.215-.144-.44-.144-.666 0-.236.044-.451.144-.666.099-.215.232-.4.409-.564l1.679-1.567v-.01c.177-.164.375-.287.596-.38.232-.091.464-.133.718-.133.254 0 .497.051.718.134.22.092.419.215.585.389l1.005.922c.033-.01.067-.031.089-.04.187-.083.386-.155.596-.237.199-.072.409-.133.618-.194.033-.01.055-.02.088-.02v-1.117c0-.236.045-.461.144-.666.089-.205.232-.39.409-.553l.011-.01c.177-.165.376-.288.597-.37a2.05 2.05 0 0 1 .706-.133h2.407c.254 0 .486.041.718.123.232.082.432.215.608.38.177.163.32.358.409.563.087.205.132.43.132.666V55.9c.033.01.078.03.11.041.2.072.398.154.596.236.211.092.409.174.587.266l.065.031.862-.789c.177-.164.375-.297.607-.379a1.94 1.94 0 0 1 .718-.133c.255 0 .487.04.719.133v.02Zm-7.633 4.15c.365 0 .729.03 1.082.102a5.5 5.5 0 0 1 1.027.298c.321.133.63.286.918.46.287.175.552.38.794.605.244.226.464.471.652.748.199.267.365.553.498.85.01.021.01.041.022.051.132.297.232.605.298.902.066.328.11.666.11 1.004 0 .338-.033.676-.11 1.004a4.623 4.623 0 0 1-.32.953 6.064 6.064 0 0 1-.498.85 5.985 5.985 0 0 1-.652.748c-.242.226-.507.43-.806.605a5.037 5.037 0 0 1-.916.46c-.022.011-.044.011-.056.021a5.8 5.8 0 0 1-.971.277 6.366 6.366 0 0 1-1.083.103c-.364 0-.729-.031-1.082-.103a5.591 5.591 0 0 1-1.028-.297 6.917 6.917 0 0 1-.916-.461 4.882 4.882 0 0 1-.795-.605 4.387 4.387 0 0 1-.652-.748 4.477 4.477 0 0 1-.497-.85c-.011-.02-.011-.042-.023-.052a4.728 4.728 0 0 1-.408-1.905c0-.339.033-.677.111-1.004.066-.318.176-.635.32-.953.143-.297.309-.584.497-.85s.409-.512.652-.748c.243-.225.508-.43.795-.604.287-.185.596-.339.916-.461.023-.01.045-.01.056-.021.32-.123.652-.215.972-.277a6.325 6.325 0 0 1 1.082-.102h.011Zm.807 1.393a4.149 4.149 0 0 0-.807-.072 4.217 4.217 0 0 0-1.512.267c-.012.01-.023.01-.045.02a4.33 4.33 0 0 0-.696.349 4.085 4.085 0 0 0-.585.44 3.261 3.261 0 0 0-.475.544c-.144.194-.265.41-.375.645a3.44 3.44 0 0 0-.31 1.445c0 .256.022.501.078.747.055.236.122.45.209.656.011.01.011.02.023.041a3.8 3.8 0 0 0 .85 1.188c.177.165.376.318.585.441a4.241 4.241 0 0 0 1.447.564c.255.051.531.072.806.072.276 0 .541-.02.807-.072.254-.052.485-.113.707-.195.011-.01.022-.01.044-.02.254-.103.485-.216.696-.349.21-.133.408-.276.585-.44.176-.165.343-.349.475-.543a3.672 3.672 0 0 0 .607-1.343 3.27 3.27 0 0 0 .078-.747c0-.257-.022-.503-.078-.748a3.795 3.795 0 0 0-.21-.656c-.011-.01-.011-.02-.022-.041a3.72 3.72 0 0 0-.375-.646 3.921 3.921 0 0 0-.475-.543 3.425 3.425 0 0 0-.585-.44 4.269 4.269 0 0 0-1.447-.563ZM81 77.442h13.281v21.921H81V77.442Z" fill="#001C63"/></g><defs><radialGradient id="a" cx="0" cy="0" r="1" gradientUnits="userSpaceOnUse" gradientTransform="matrix(107.502 0 0 39.4718 111.085 189.703)"><stop stop-color="#1628B1"/><stop offset="1" stop-color="#fff"/></radialGradient><radialGradient id="b" cx="0" cy="0" r="1" gradientUnits="userSpaceOnUse" gradientTransform="matrix(53.75846 -19.9596 13.0257 35.08293 115.532 159.758)"><stop stop-color="#80E3C8"/><stop offset=".43" stop-color="#82E3C9"/><stop offset=".58" stop-color="#89E5CC"/><stop offset=".69" stop-color="#94E8D1"/><stop offset=".78" stop-color="#A5EBD8"/><stop offset=".86" stop-color="#BBF0E2"/><stop offset=".93" stop-color="#D7F6ED"/><stop offset=".99" stop-color="#F6FDFB"/><stop offset="1" stop-color="#fff"/></radialGradient><radialGradient id="c" cx="0" cy="0" r="1" gradientUnits="userSpaceOnUse" gradientTransform="matrix(53.75846 -19.9596 13.0257 35.08293 115.532 159.758)"><stop stop-color="#80E3C8"/><stop offset=".43" stop-color="#82E3C9"/><stop offset=".58" stop-color="#89E5CC"/><stop offset=".69" stop-color="#94E8D1"/><stop offset=".78" stop-color="#A5EBD8"/><stop offset=".86" stop-color="#BBF0E2"/><stop offset=".93" stop-color="#D7F6ED"/><stop offset=".99" stop-color="#F6FDFB"/><stop offset="1" stop-color="#fff"/></radialGradient><radialGradient id="d" cx="0" cy="0" r="1" gradientUnits="userSpaceOnUse" gradientTransform="matrix(53.75846 -19.9596 13.0257 35.08293 115.532 159.758)"><stop stop-color="#1628B1"/><stop offset=".38" stop-color="#182AB2"/><stop offset=".52" stop-color="#1F30B4"/><stop offset=".61" stop-color="#2A3BB8"/><stop offset=".69" stop-color="#3B4BBE"/><stop offset=".76" stop-color="#515FC5"/><stop offset=".82" stop-color="#6D78CE"/><stop offset=".87" stop-color="#8D96D9"/><stop offset=".92" stop-color="#B3B9E5"/><stop offset=".97" stop-color="#DCDFF3"/><stop offset="1" stop-color="#fff"/></radialGradient><radialGradient id="e" cx="0" cy="0" r="1" gradientUnits="userSpaceOnUse" gradientTransform="matrix(67.6449 0 0 23.5636 108.456 138.214)"><stop stop-color="#1628B1"/><stop offset="1" stop-color="#fff"/></radialGradient><radialGradient id="f" cx="0" cy="0" r="1" gradientUnits="userSpaceOnUse" gradientTransform="matrix(35.0368 0 0 12.2048 108.456 113.035)"><stop stop-color="#1628B1"/><stop offset="1" stop-color="#fff"/></radialGradient><clipPath id="g"><path fill="#fff" transform="translate(81 52.857)" d="M0 0h65.725v51.023H0z"/></clipPath></defs></svg>