<svg width="221" height="246" fill="none" xmlns="http://www.w3.org/2000/svg"><path style="mix-blend-mode:multiply" d="M180.024 171.493c47.385 14.386 54.712 40.443 16.318 58.193-38.393 17.749-107.886 20.498-155.267 6.116-47.381-14.381-54.692-40.442-16.323-58.207 38.37-17.765 107.891-20.483 155.272-6.102Z" fill="url(#a)"/><path d="M110.479 204.618c-22.787 0-44.286-2.872-62.15-8.299-25.13-7.626-39.555-19.409-40.618-33.175-.523-6.775 2.097-19.767 25.514-30.607 19.172-8.877 47.38-13.966 77.388-13.966 22.787 0 44.286 2.868 62.15 8.296 25.13 7.629 39.555 19.413 40.618 33.178.523 6.779-2.097 19.767-25.514 30.607-19.172 8.877-47.381 13.966-77.388 13.966Z" fill="#8EDBDC" style="mix-blend-mode:multiply" opacity=".2"/><path d="M170.354 133.904c40.794 12.384 47.087 34.822 14.049 50.112-33.037 15.29-92.889 17.654-133.703 5.27-40.814-12.384-47.09-34.822-14.053-50.116 33.037-15.294 92.909-17.654 133.707-5.266Z" fill="#029894" style="mix-blend-mode:multiply"/><g style="mix-blend-mode:multiply"><path d="M158.178 139.539c32.493 9.863 37.502 27.716 11.191 39.915-26.312 12.199-73.983 14.059-106.476 4.196-32.494-9.862-37.503-27.735-11.191-39.915 26.311-12.179 73.982-14.058 106.476-4.196Z" fill="url(#b)"/><path d="M158.178 139.539c32.493 9.863 37.502 27.716 11.191 39.915-26.312 12.199-73.983 14.059-106.476 4.196-32.494-9.862-37.503-27.735-11.191-39.915 26.311-12.179 73.982-14.058 106.476-4.196Z" fill="url(#c)"/><path d="M158.178 139.539c32.493 9.863 37.502 27.716 11.191 39.915-26.312 12.199-73.983 14.059-106.476 4.196-32.494-9.862-37.503-27.735-11.191-39.915 26.311-12.179 73.982-14.058 106.476-4.196Z" fill="url(#d)"/></g><path d="M110.479 219.261c-22.787 0-44.286-2.868-62.15-8.295-25.13-7.63-39.555-19.413-40.618-33.175-.523-6.779 2.097-19.767 25.514-30.607 19.172-8.877 47.38-13.97 77.388-13.97 22.787 0 44.286 2.872 62.15 8.3 25.13 7.626 39.555 19.409 40.618 33.174.523 6.779-2.097 19.767-25.514 30.607-19.172 8.877-47.381 13.966-77.388 13.966Z" fill="#8EDBDC" style="mix-blend-mode:multiply" opacity=".2"/><path d="M178.311 136.187h-13.423a74.053 74.053 0 0 0-11.702-4.562c-29.092-8.831-71.77-7.148-95.326 3.757-.573.262-1.112.535-1.636.805h-13.33v13.677c-1.226 7.895 7.36 15.894 24.987 21.253 29.092 8.826 71.771 7.148 95.326-3.758 10.173-4.707 15.104-10.366 15.096-15.99l.008-15.182Z" fill="#E6EDEB"/><path d="M153.19 116.442c29.087 8.831 33.573 24.829 10.017 35.735-23.555 10.905-66.238 12.584-95.326 3.753-29.087-8.831-33.573-24.829-10.017-35.735 23.555-10.905 66.234-12.583 95.326-3.753Z" fill="#FAFFFE"/><path style="mix-blend-mode:multiply" d="M110.536 161.669c37.433 0 67.78-11.409 67.78-25.483s-30.347-25.483-67.78-25.483c-37.434 0-67.78 11.409-67.78 25.483s30.346 25.483 67.78 25.483Z" fill="url(#e)"/><path d="M178.311 111.042h-13.423a73.69 73.69 0 0 0-11.702-4.562c-29.092-8.83-71.77-7.148-95.326 3.757-.573.262-1.112.535-1.636.805h-13.33v13.677c-1.226 7.895 7.36 15.89 24.987 21.249 29.092 8.83 71.771 7.152 95.326-3.753 10.173-4.712 15.104-10.371 15.096-15.991l.008-15.182Z" fill="#E6EDEB"/><path d="M153.19 91.298c29.087 8.831 33.573 24.829 10.017 35.734-23.555 10.906-66.238 12.584-95.326 3.754-29.087-8.831-33.573-24.829-10.017-35.735 23.555-10.905 66.234-12.584 95.326-3.753Z" fill="#FAFFFE"/><path style="mix-blend-mode:multiply" opacity=".25" d="M110.536 124.257c19.409 0 35.143-5.917 35.143-13.215 0-7.299-15.734-13.215-35.143-13.215-19.41 0-35.143 5.916-35.143 13.215 0 7.298 15.734 13.215 35.143 13.215Z" fill="url(#f)"/><path d="M108.43 22.231c0 4.686-1.156 8.224-3.468 10.613-2.311 2.39-5.424 3.584-9.338 3.584-3.947 0-7.082-1.194-9.405-3.584-2.322-2.389-3.478-5.927-3.467-10.613v-7.29c0-4.687 1.148-8.224 3.443-10.614C88.49 1.938 91.61.744 95.554.744c3.928 0 7.053 1.2 9.376 3.599 2.322 2.4 3.482 5.932 3.479 10.597l.021 7.291Zm-8.53-7.837c0-2.654-.37-4.56-1.112-5.717a3.441 3.441 0 0 0-1.346-1.297 3.72 3.72 0 0 0-1.867-.443 3.66 3.66 0 0 0-1.866.438 3.382 3.382 0 0 0-1.336 1.302c-.714 1.16-1.073 3.066-1.075 5.717v8.338c0 2.697.362 4.622 1.087 5.774.316.543.786.993 1.358 1.298a3.71 3.71 0 0 0 1.88.43c.65.021 1.294-.13 1.857-.435a3.38 3.38 0 0 0 1.333-1.293c.728-1.152 1.09-3.077 1.087-5.774v-8.338ZM138.65 35.928h-25.76v-5.24l11.858-11.72a23.624 23.624 0 0 0 3.312-4.335 7.046 7.046 0 0 0 1.063-3.31 4.58 4.58 0 0 0-1.076-3.196c-.714-.793-1.789-1.19-3.226-1.19a3.629 3.629 0 0 0-1.728.392c-.53.27-.976.666-1.293 1.148a6.545 6.545 0 0 0-1.1 3.92h-8.354l-.049-.143a10.275 10.275 0 0 1 .758-4.41 10.79 10.79 0 0 1 2.583-3.747c2.311-2.233 5.373-3.35 9.183-3.35 4.048 0 7.207.937 9.478 2.81 2.271 1.874 3.405 4.44 3.402 7.7a9.751 9.751 0 0 1-1.807 5.813c-1.205 1.68-3.428 4.181-6.669 7.502l-4.984 5.027.073.143h14.336v6.186Z" fill="#029894"/><path fill-rule="evenodd" clip-rule="evenodd" d="M86.292 84.934c0-12.915 11.286-23.385 25.208-23.385 13.922 0 25.208 10.47 25.208 23.385 0 12.916-11.286 23.386-25.208 23.386-13.922 0-25.208-10.47-25.208-23.386Zm31.625-5.527a2.332 2.332 0 0 0-1.509-.829 2.43 2.43 0 0 0-1.7.404 2.103 2.103 0 0 0-.893 1.4 2.01 2.01 0 0 0 .435 1.576l2.406 2.976-2.406 2.977a2.01 2.01 0 0 0-.435 1.576c.086.558.407 1.062.893 1.4a2.43 2.43 0 0 0 1.7.404 2.333 2.333 0 0 0 1.509-.83l1.604-1.983 1.604 1.984c.365.45.908.75 1.509.829.298.04.602.024.893-.045.292-.07.566-.191.806-.359.241-.168.444-.377.597-.618.154-.24.254-.506.297-.782a1.964 1.964 0 0 0-.049-.828 2.061 2.061 0 0 0-.386-.748l-2.407-2.977 2.407-2.976a2.015 2.015 0 0 0 .435-1.576 2.101 2.101 0 0 0-.894-1.4 2.36 2.36 0 0 0-.806-.359 2.465 2.465 0 0 0-.893-.045 2.332 2.332 0 0 0-1.509.829l-1.604 1.984-1.604-1.984Zm-15.584 1.276a2.05 2.05 0 0 0-.671-1.504 2.384 2.384 0 0 0-1.62-.622c-.608 0-1.19.224-1.62.622a2.05 2.05 0 0 0-.672 1.504v4.251c0 1.049.32 2.575 1.348 3.9 1.113 1.436 2.947 2.478 5.527 2.478s4.414-1.046 5.528-2.479a6.538 6.538 0 0 0 1.347-3.899v-4.251a2.05 2.05 0 0 0-.671-1.504 2.387 2.387 0 0 0-1.621-.622c-.607 0-1.19.224-1.62.622a2.05 2.05 0 0 0-.671 1.504v4.251c0 .368-.138.97-.486 1.416-.261.338-.72.71-1.806.71s-1.545-.372-1.806-.71a2.512 2.512 0 0 1-.486-1.416v-4.251Z" fill="#029894"/><defs><radialGradient id="a" cx="0" cy="0" r="1" gradientUnits="userSpaceOnUse" gradientTransform="matrix(107.502 0 0 39.4718 110.547 191.533)"><stop stop-color="#8EDBDC"/><stop offset="1" stop-color="#fff"/></radialGradient><radialGradient id="b" cx="0" cy="0" r="1" gradientUnits="userSpaceOnUse" gradientTransform="matrix(53.75846 -19.9596 13.0257 35.08293 113.601 160.935)"><stop stop-color="#8EDBDC"/><stop offset=".44" stop-color="#90DCDD"/><stop offset=".6" stop-color="#97DEDF"/><stop offset=".71" stop-color="#A2E2E2"/><stop offset=".8" stop-color="#B3E7E8"/><stop offset=".88" stop-color="#C9EEEE"/><stop offset=".95" stop-color="#E4F6F7"/><stop offset="1" stop-color="#fff"/></radialGradient><radialGradient id="c" cx="0" cy="0" r="1" gradientUnits="userSpaceOnUse" gradientTransform="matrix(53.75846 -19.9596 13.0257 35.08293 113.601 160.935)"><stop stop-color="#80E3C8"/><stop offset=".43" stop-color="#82E3C9"/><stop offset=".58" stop-color="#89E5CC"/><stop offset=".69" stop-color="#94E8D1"/><stop offset=".78" stop-color="#A5EBD8"/><stop offset=".86" stop-color="#BBF0E2"/><stop offset=".93" stop-color="#D7F6ED"/><stop offset=".99" stop-color="#F6FDFB"/><stop offset="1" stop-color="#fff"/></radialGradient><radialGradient id="d" cx="0" cy="0" r="1" gradientUnits="userSpaceOnUse" gradientTransform="matrix(53.75846 -19.9596 13.0257 35.08293 113.601 160.935)"><stop stop-color="#80E3C8"/><stop offset=".43" stop-color="#82E3C9"/><stop offset=".58" stop-color="#89E5CC"/><stop offset=".69" stop-color="#94E8D1"/><stop offset=".78" stop-color="#A5EBD8"/><stop offset=".86" stop-color="#BBF0E2"/><stop offset=".93" stop-color="#D7F6ED"/><stop offset=".99" stop-color="#F6FDFB"/><stop offset="1" stop-color="#fff"/></radialGradient><radialGradient id="e" cx="0" cy="0" r="1" gradientUnits="userSpaceOnUse" gradientTransform="matrix(67.5713 0 0 23.5379 110.536 139.39)"><stop stop-color="#8EDBDC"/><stop offset="1" stop-color="#fff"/></radialGradient><radialGradient id="f" cx="0" cy="0" r="1" gradientUnits="userSpaceOnUse" gradientTransform="matrix(35.0368 0 0 12.2048 110.536 114.212)"><stop stop-color="#8EDBDC"/><stop offset="1" stop-color="#fff"/></radialGradient></defs></svg>