<svg width="222" height="245" fill="none" xmlns="http://www.w3.org/2000/svg"><path style="mix-blend-mode:multiply" d="M180.708 170.658c47.38 14.385 54.687 40.446 16.318 58.207-38.369 17.762-107.887 20.503-155.272 6.117-47.385-14.385-54.687-40.442-16.318-58.203 38.37-17.762 107.887-20.503 155.272-6.121Z" fill="url(#a)"/><path d="M108.619 204.441c-22.787 0-44.286-2.868-62.17-8.295-25.13-7.63-39.555-19.413-40.618-33.175-.523-6.779 2.098-19.767 25.51-30.611 19.176-8.877 47.385-13.966 77.388-13.966 22.791 0 44.29 2.872 62.175 8.3 25.129 7.625 39.555 19.409 40.618 33.174.523 6.779-2.098 19.767-25.514 30.607-19.173 8.877-47.381 13.966-77.389 13.966Z" fill="#001C63" style="mix-blend-mode:multiply" opacity=".2"/><path d="M168.494 133.727c40.794 12.383 47.087 34.822 14.05 50.116-33.038 15.293-92.89 17.649-133.704 5.266-40.814-12.384-47.086-34.822-14.049-50.112 33.038-15.291 92.906-17.654 133.703-5.27Z" fill="#001C63" style="mix-blend-mode:multiply"/><g style="mix-blend-mode:multiply"><path d="M156.318 139.362c32.49 9.866 37.503 27.735 11.191 39.915-26.311 12.18-73.994 14.058-106.476 4.215-32.481-9.843-37.502-27.716-11.19-39.915 26.31-12.199 73.982-14.077 106.475-4.215Z" fill="url(#b)"/><path d="M156.318 139.362c32.49 9.866 37.503 27.735 11.191 39.915-26.311 12.18-73.994 14.058-106.476 4.215-32.481-9.843-37.502-27.716-11.19-39.915 26.31-12.199 73.982-14.077 106.475-4.215Z" fill="url(#c)"/><path d="M156.318 139.362c32.49 9.866 37.503 27.735 11.191 39.915-26.311 12.18-73.994 14.058-106.476 4.215-32.481-9.843-37.502-27.716-11.19-39.915 26.31-12.199 73.982-14.077 106.475-4.215Z" fill="url(#d)"/></g><path d="M108.619 219.088c-22.787 0-44.286-2.871-62.17-8.299-25.13-7.63-39.555-19.409-40.618-33.175-.523-6.778 2.098-19.766 25.51-30.61 19.176-8.854 47.385-13.966 77.388-13.966 22.791 0 44.29 2.872 62.175 8.299 25.129 7.63 39.555 19.409 40.618 33.175.523 6.779-2.098 19.767-25.514 30.607-19.173 8.877-47.381 13.969-77.389 13.969Z" fill="#001C63" style="mix-blend-mode:multiply" opacity=".2"/><path d="M176.452 136.009h-13.427a74.584 74.584 0 0 0-11.703-4.561c-29.091-8.831-71.77-7.149-95.326 3.757-.572.265-1.116.535-1.656.804H41.023v13.677c-1.226 7.895 7.36 15.895 24.991 21.253 29.092 8.831 71.77 7.148 95.326-3.757 10.173-4.708 15.104-10.367 15.096-15.991l.016-15.182Z" fill="#E5E7EA"/><path d="M151.33 116.265c29.088 8.831 33.573 24.829 10.018 35.735-23.556 10.905-66.239 12.588-95.326 3.757-29.088-8.831-33.573-24.829-10.018-35.735 23.556-10.905 66.235-12.587 95.326-3.757Z" fill="#FDFEFF"/><path style="mix-blend-mode:multiply" d="M108.602 161.52c37.475 0 67.854-11.422 67.854-25.511 0-14.089-30.379-25.51-67.854-25.51-37.474 0-67.853 11.421-67.853 25.51 0 14.089 30.379 25.511 67.853 25.511Z" fill="url(#e)"/><path d="M176.452 110.865h-13.427a74.589 74.589 0 0 0-11.703-4.562c-29.091-8.83-71.77-7.148-95.326 3.757-.572.266-1.116.535-1.656.805H41.023v13.677c-1.226 7.895 7.36 15.894 24.991 21.253 29.092 8.83 71.77 7.148 95.326-3.757 10.173-4.708 15.104-10.367 15.096-15.991l.016-15.182Z" fill="#E5E7EA"/><path d="M151.33 91.105c29.088 8.831 33.573 24.829 10.018 35.735-23.556 10.905-66.239 12.584-95.326 3.753-29.088-8.831-33.573-24.829-10.018-35.73C79.56 83.96 122.24 82.29 151.33 91.105Z" fill="#FDFEFF"/><path style="mix-blend-mode:multiply" opacity=".25" d="M108.602 124.08c19.409 0 35.144-5.917 35.144-13.215 0-7.299-15.735-13.215-35.144-13.215s-35.143 5.916-35.143 13.215c0 7.298 15.734 13.215 35.143 13.215Z" fill="url(#f)"/><path d="M106.5 22.447c0 4.683-1.156 8.221-3.467 10.613-2.312 2.392-5.425 3.586-9.34 3.584-3.943 0-7.078-1.195-9.403-3.584-2.326-2.39-3.481-5.927-3.468-10.613v-7.291c0-4.686 1.147-8.224 3.44-10.613C86.553 2.153 89.674.96 93.623.96c3.928 0 7.054 1.199 9.376 3.596 2.322 2.397 3.482 5.93 3.48 10.601l.02 7.29Zm-8.53-7.838c0-2.65-.37-4.556-1.111-5.716-.314-.54-.78-.99-1.347-1.296a3.724 3.724 0 0 0-1.867-.444c-.653-.022-1.3.13-1.866.437a3.378 3.378 0 0 0-1.336 1.303c-.714 1.16-1.072 3.065-1.075 5.716v8.338c0 2.698.363 4.622 1.088 5.774.315.544.785.994 1.357 1.299a3.708 3.708 0 0 0 1.88.43c.65.02 1.294-.13 1.858-.435a3.381 3.381 0 0 0 1.332-1.294c.728-1.152 1.09-3.076 1.088-5.774V14.61ZM133.47 22.636h3.721v6.193h-3.721v7.314h-8.55V28.83h-14.274l-.502-4.915L124.92 1.533V1.46h8.55v21.176Zm-15.689 0h7.139V11.919l-.155-.05-.658.981-6.326 9.786Z" fill="#001C63"/><g clip-path="url(#g)"><path d="m112.273 93.862 6.236 5.786c1.508.04 2.72 1.189 2.72 2.602 0 1.438-1.254 2.601-2.805 2.601-1.551 0-2.805-1.167-2.805-2.601 0-.158.015-.315.043-.468l-5.426-5.03v3.7h-3.884v-3.599l-5.51 5.117c.009.092.014.188.014.284 0 1.439-1.254 2.602-2.81 2.602-1.55 0-2.804-1.168-2.804-2.602 0-1.439 1.258-2.602 2.805-2.602.047 0 .094 0 .136.004l6.237-5.785-24.922-.009V57.117c0-.38.34-.686.759-.686h26.095v-2.602h3.884v2.602h26.426c.419 0 .759.31.759.686v36.741h-25.148v.004Zm-20.1-12.61 10.964-9.945c2.716 2.519 5.402 5.011 8.146 7.526l7.264-6.822-3.371-3.126 9.484-.08v8.873l-3.238-3.004c-3.375 3.17-6.736 6.332-10.12 9.476l-8.221-7.53-8.032 7.298-2.876-2.667Zm40.963-17.92H83.703v26.516h49.433V63.331Z" fill="#001C63"/></g><defs><radialGradient id="a" cx="0" cy="0" r="1" gradientUnits="userSpaceOnUse" gradientTransform="matrix(107.502 0 0 39.4718 111.231 190.703)"><stop stop-color="#5A9BFB"/><stop offset="1" stop-color="#fff"/></radialGradient><radialGradient id="b" cx="0" cy="0" r="1" gradientUnits="userSpaceOnUse" gradientTransform="matrix(53.75846 -19.9596 13.0257 35.08293 113.704 160.758)"><stop stop-color="#7FD4F9"/><stop offset=".43" stop-color="#81D5F9"/><stop offset=".58" stop-color="#88D7F9"/><stop offset=".69" stop-color="#93DBFA"/><stop offset=".78" stop-color="#A4E1FB"/><stop offset=".86" stop-color="#BAE8FC"/><stop offset=".92" stop-color="#D6F1FD"/><stop offset=".98" stop-color="#F5FCFF"/><stop offset="1" stop-color="#fff"/></radialGradient><radialGradient id="c" cx="0" cy="0" r="1" gradientUnits="userSpaceOnUse" gradientTransform="matrix(53.75846 -19.9596 13.0257 35.08293 113.704 160.758)"><stop stop-color="#80E3C8"/><stop offset=".43" stop-color="#82E3C9"/><stop offset=".58" stop-color="#89E5CC"/><stop offset=".69" stop-color="#94E8D1"/><stop offset=".78" stop-color="#A5EBD8"/><stop offset=".86" stop-color="#BBF0E2"/><stop offset=".93" stop-color="#D7F6ED"/><stop offset=".99" stop-color="#F6FDFB"/><stop offset="1" stop-color="#fff"/></radialGradient><radialGradient id="d" cx="0" cy="0" r="1" gradientUnits="userSpaceOnUse" gradientTransform="matrix(53.75846 -19.9596 13.0257 35.08293 113.704 160.758)"><stop stop-color="#5A9BFB"/><stop offset=".41" stop-color="#5C9CFB"/><stop offset=".55" stop-color="#63A0FB"/><stop offset=".66" stop-color="#6EA7FB"/><stop offset=".74" stop-color="#7FB2FC"/><stop offset=".81" stop-color="#95BFFC"/><stop offset=".88" stop-color="#B1CFFD"/><stop offset=".94" stop-color="#D1E3FE"/><stop offset=".99" stop-color="#F5F9FF"/><stop offset="1" stop-color="#fff"/></radialGradient><radialGradient id="e" cx="0" cy="0" r="1" gradientUnits="userSpaceOnUse" gradientTransform="matrix(67.6449 0 0 23.5636 108.602 139.214)"><stop stop-color="#5A9BFB"/><stop offset="1" stop-color="#fff"/></radialGradient><radialGradient id="f" cx="0" cy="0" r="1" gradientUnits="userSpaceOnUse" gradientTransform="matrix(35.0369 0 0 12.2048 108.602 114.035)"><stop stop-color="#5A9BFB"/><stop offset="1" stop-color="#fff"/></radialGradient><clipPath id="g"><path fill="#fff" transform="translate(79.498 53.829)" d="M0 0h57.922v51.023H0z"/></clipPath></defs></svg>