<svg width="222" height="250" fill="none" xmlns="http://www.w3.org/2000/svg"><path style="mix-blend-mode:multiply" d="M180.142 175.6c47.405 14.381 54.691 40.442 16.33 58.196-38.361 17.754-107.887 20.502-155.272 6.121-47.384-14.382-54.687-40.447-16.318-58.208 38.37-17.761 107.875-20.494 155.26-6.109Z" fill="url(#a)"/><path d="M110.607 209.383c-22.786 0-44.285-2.872-62.15-8.3-25.129-7.629-39.554-19.409-40.617-33.174-.524-6.779 2.097-19.767 25.514-30.607 19.172-8.877 47.38-13.966 77.388-13.966 22.787 0 44.286 2.868 62.17 8.295 25.13 7.63 39.555 19.413 40.618 33.179.524 6.775-2.097 19.763-25.514 30.603-19.192 8.877-47.401 13.97-77.409 13.97Z" fill="#029894" style="mix-blend-mode:multiply" opacity=".2"/><path d="M170.484 138.668c40.794 12.384 47.087 34.819 14.049 50.112-33.037 15.294-92.889 17.654-133.703 5.27-40.815-12.383-47.087-34.822-14.05-50.116 33.038-15.293 92.906-17.649 133.704-5.266Z" fill="#029894" style="mix-blend-mode:multiply"/><g style="mix-blend-mode:multiply"><path d="M158.307 144.304c32.494 9.862 37.503 27.716 11.191 39.914-26.311 12.199-73.982 14.059-106.476 4.192-32.493-9.866-37.502-27.716-11.19-39.911 26.31-12.195 73.982-14.058 106.475-4.195Z" fill="url(#b)"/><path d="M158.307 144.304c32.494 9.862 37.503 27.716 11.191 39.914-26.311 12.199-73.982 14.059-106.476 4.192-32.493-9.866-37.502-27.716-11.19-39.911 26.31-12.195 73.982-14.058 106.475-4.195Z" fill="url(#c)"/><path d="M158.307 144.304c32.494 9.862 37.503 27.716 11.191 39.914-26.311 12.199-73.982 14.059-106.476 4.192-32.493-9.866-37.502-27.716-11.19-39.911 26.31-12.195 73.982-14.058 106.475-4.195Z" fill="url(#d)"/></g><path d="M110.607 224.026c-22.786 0-44.285-2.868-62.15-8.299-25.129-7.626-39.554-19.409-40.617-33.175-.524-6.779 2.097-19.767 25.514-30.607 19.172-8.877 47.38-13.966 77.388-13.966 22.787 0 44.286 2.868 62.17 8.3 25.13 7.625 39.555 19.409 40.618 33.174.524 6.775-2.097 19.767-25.514 30.607-19.192 8.873-47.401 13.966-77.409 13.966Z" fill="#029894" style="mix-blend-mode:multiply" opacity=".2"/><path d="M178.445 140.951h-13.424a73.758 73.758 0 0 0-11.702-4.546c-29.092-8.831-71.77-7.149-95.326 3.753-.572.266-1.112.535-1.635.808H43.024v13.674c-1.227 7.899 7.36 15.894 24.987 21.253 29.091 8.83 71.77 7.148 95.326-3.754 10.173-4.711 15.104-10.37 15.096-15.99l.012-15.198Z" fill="#E6EFEC"/><path d="M153.319 121.207c29.087 8.831 33.573 24.829 10.017 35.731-23.555 10.901-66.238 12.587-95.326 3.757-29.088-8.831-33.573-24.829-10.017-35.735 23.555-10.905 66.234-12.584 95.326-3.753Z" fill="#F8FFFD"/><path style="mix-blend-mode:multiply" d="M110.592 166.461c37.474 0 67.853-11.421 67.853-25.51 0-14.089-30.379-25.511-67.853-25.511-37.475 0-67.854 11.422-67.854 25.511 0 14.089 30.38 25.51 67.854 25.51Z" fill="url(#e)"/><path d="M178.445 115.807h-13.424a73.69 73.69 0 0 0-11.702-4.562c-29.092-8.831-71.77-7.152-95.326 3.753-.572.266-1.112.535-1.635.809H43.024v13.669c-1.227 7.899 7.36 15.894 24.987 21.253 29.091 8.83 71.77 7.148 95.326-3.757 10.173-4.708 15.104-10.367 15.096-15.987l.012-15.178Z" fill="#E6EFEC"/><path d="M153.319 96.059c29.087 8.83 33.573 24.829 10.017 35.734-23.555 10.906-66.238 12.588-95.326 3.757-29.088-8.83-33.573-24.829-10.017-35.734 23.555-10.906 66.234-12.584 95.326-3.757Z" fill="#F8FFFD"/><path style="mix-blend-mode:multiply" opacity=".25" d="M110.591 129.021c19.409 0 35.143-5.916 35.143-13.215 0-7.298-15.734-13.215-35.143-13.215s-35.143 5.917-35.143 13.215c0 7.299 15.734 13.215 35.143 13.215Z" fill="url(#f)"/><path d="M108.489 21.746c0 4.683-1.156 8.22-3.467 10.613-2.312 2.391-5.423 3.584-9.335 3.576-3.95 0-7.084-1.195-9.404-3.584-2.32-2.39-3.476-5.927-3.468-10.613v-7.283c0-4.686 1.148-8.224 3.443-10.613 2.295-2.39 5.415-3.584 9.36-3.584 3.93 0 7.055 1.2 9.375 3.6 2.32 2.399 3.48 5.931 3.48 10.597l.016 7.29Zm-8.513-7.838c0-2.65-.37-4.556-1.112-5.716a3.438 3.438 0 0 0-1.346-1.298 3.716 3.716 0 0 0-1.868-.442 3.66 3.66 0 0 0-1.866.438 3.382 3.382 0 0 0-1.335 1.302c-.715 1.16-1.073 3.065-1.076 5.716v8.338c0 2.697.364 4.622 1.092 5.774.315.544.785.994 1.357 1.3a3.701 3.701 0 0 0 1.881.429 3.65 3.65 0 0 0 1.855-.436 3.376 3.376 0 0 0 1.33-1.293c.728-1.152 1.09-3.077 1.088-5.774v-8.338ZM131.051 35.441h-8.521V8.834h-8.222v-5.67l16.764-2.43-.021 34.708Z" fill="#029894"/><g clip-path="url(#g)" fill="#029894"><path d="M119.938 94.496H94.31V60.398h25.621v2.551h3.443v-3.247c.002-3.059-2.705-5.564-6-5.564H96.871c-3.3 0-6 2.505-6 5.564v39.893c0 3.063 2.7 5.566 6 5.566h20.503c3.295 0 6.002-2.503 6.002-5.566v-5.158h-3.438v.059Zm-12.819 7.88c-1.52 0-2.747-1.141-2.747-2.549 0-1.412 1.227-2.55 2.747-2.55 1.523 0 2.752 1.14 2.752 2.55 0 1.408-1.229 2.549-2.752 2.549Z"/><path d="M104.934 63.82h-7.687v4.349h7.687v-4.348ZM104.934 74.954h-7.687v4.349h7.687v-4.349ZM104.934 86.607h-7.687v4.346h7.687v-4.346ZM132.218 76.866a9.271 9.271 0 0 0-1.601-3.604l2.757-2.56-2.816-2.603-2.752 2.555c-1.144-.727-2.466-1.23-3.882-1.484v-3.624h-3.984v3.624c-1.419.254-2.729.76-3.885 1.484l-2.747-2.555-2.816 2.605 2.752 2.56a9.295 9.295 0 0 0-1.595 3.602h-3.902v3.694h3.901a9.374 9.374 0 0 0 1.598 3.601l-2.754 2.555 2.816 2.602 2.754-2.553a10.883 10.883 0 0 0 3.885 1.488v3.618h3.984v-3.62a10.896 10.896 0 0 0 3.882-1.484l2.752 2.553 2.816-2.603-2.757-2.556a9.315 9.315 0 0 0 1.601-3.604h3.903v-3.691h-3.91Zm-10.281 5.866c-2.396 0-4.341-1.796-4.341-4.02 0-2.223 1.945-4.03 4.341-4.03 2.398 0 4.333 1.805 4.333 4.03 0 2.226-1.94 4.02-4.333 4.02Z"/></g><defs><radialGradient id="a" cx="0" cy="0" r="1" gradientUnits="userSpaceOnUse" gradientTransform="matrix(107.502 0 0 39.4718 110.665 196.358)"><stop stop-color="#80E3C8"/><stop offset="1" stop-color="#fff"/></radialGradient><radialGradient id="b" cx="0" cy="0" r="1" gradientUnits="userSpaceOnUse" gradientTransform="matrix(53.7585 -19.9595 13.02563 35.08296 112.743 166.444)"><stop stop-color="#80E3C8"/><stop offset=".43" stop-color="#82E3C9"/><stop offset=".58" stop-color="#89E5CC"/><stop offset=".69" stop-color="#94E8D1"/><stop offset=".78" stop-color="#A5EBD8"/><stop offset=".86" stop-color="#BBF0E2"/><stop offset=".93" stop-color="#D7F6ED"/><stop offset=".99" stop-color="#F6FDFB"/><stop offset="1" stop-color="#fff"/></radialGradient><radialGradient id="c" cx="0" cy="0" r="1" gradientUnits="userSpaceOnUse" gradientTransform="matrix(53.7585 -19.9595 13.02563 35.08296 112.743 166.444)"><stop stop-color="#80E3C8"/><stop offset=".43" stop-color="#82E3C9"/><stop offset=".58" stop-color="#89E5CC"/><stop offset=".69" stop-color="#94E8D1"/><stop offset=".78" stop-color="#A5EBD8"/><stop offset=".86" stop-color="#BBF0E2"/><stop offset=".93" stop-color="#D7F6ED"/><stop offset=".99" stop-color="#F6FDFB"/><stop offset="1" stop-color="#fff"/></radialGradient><radialGradient id="d" cx="0" cy="0" r="1" gradientUnits="userSpaceOnUse" gradientTransform="matrix(53.7585 -19.9595 13.02563 35.08296 112.743 166.444)"><stop stop-color="#80E3C8"/><stop offset=".43" stop-color="#82E3C9"/><stop offset=".58" stop-color="#89E5CC"/><stop offset=".69" stop-color="#94E8D1"/><stop offset=".78" stop-color="#A5EBD8"/><stop offset=".86" stop-color="#BBF0E2"/><stop offset=".93" stop-color="#D7F6ED"/><stop offset=".99" stop-color="#F6FDFB"/><stop offset="1" stop-color="#fff"/></radialGradient><radialGradient id="e" cx="0" cy="0" r="1" gradientUnits="userSpaceOnUse" gradientTransform="matrix(67.6449 0 0 23.5636 110.592 143.965)"><stop stop-color="#80E3C8"/><stop offset="1" stop-color="#fff"/></radialGradient><radialGradient id="f" cx="0" cy="0" r="1" gradientUnits="userSpaceOnUse" gradientTransform="matrix(35.0368 0 0 12.2048 110.591 118.786)"><stop stop-color="#80E3C8"/><stop offset="1" stop-color="#fff"/></radialGradient><clipPath id="g"><path fill="#fff" transform="translate(86 54.138)" d="M0 0h55v51.023H0z"/></clipPath></defs></svg>