<svg width="36" height="36" viewBox="0 0 36 36" fill="none" xmlns="http://www.w3.org/2000/svg">
<path d="M28.5444 26.6839L35.9583 25.3107L17.3848 14.5567L16.9467 14.8403L21.0819 34.8049L25.1184 28.8698L29.0328 34.1692C29.7761 35.167 31.1408 35.4891 32.087 34.8867C33.0279 34.2827 33.1967 32.9812 32.4587 31.9817L28.5444 26.6839ZM17.7529 31.7815C14.774 31.7815 11.9981 30.9872 9.6297 29.634C11.7611 29.6541 8.04421 26.6205 10.6047 26.155C13.2909 25.6644 14.4221 22.8095 13.562 22.8529C12.7037 22.8946 11.0698 22.4407 9.92059 21.0992C8.76962 19.7476 7.7623 20.0563 6.57542 20.2682C5.53757 20.4584 4.25912 23.2483 3.9413 23.9808C3.13329 22.5425 2.58564 20.9624 2.33785 19.2921C3.6558 18.6514 5.80691 17.5735 6.5844 16.9778C7.72998 16.0951 6.20194 15.738 6.0134 15.2057C5.82666 14.6735 6.0134 13.4337 6.0134 12.2023C6.0134 10.9592 8.68164 10.9592 9.62791 9.72276C10.3084 8.84007 9.0623 6.89283 8.28481 5.83828C10.9117 3.95946 14.1905 2.82982 17.7529 2.82982C18.6974 2.82982 19.6185 2.92159 20.5181 3.07177C20.7821 4.59686 21.3315 6.69427 22.3927 7.24157C24.1111 8.12592 26.1904 10.0732 26.9589 10.4236C27.7238 10.7773 28.6701 13.7908 28.4833 15.0289C28.3487 15.9032 27.1815 16.866 26.7039 17.792L34.6404 22.3873C35.2006 20.7855 35.5094 19.0819 35.5094 17.3082C35.5094 8.21102 27.5406 0.8125 17.7547 0.8125C7.9634 0.8125 0 8.21102 0 17.3082C0 26.407 7.9634 33.8088 17.7547 33.8088C18.1264 33.8088 18.4891 33.7771 18.8554 33.7571L18.4406 31.7481C18.2108 31.7581 17.9845 31.7815 17.7529 31.7815ZM33.1393 19.4439C32.8035 18.2059 32.1535 17.0111 30.7709 16.0884C29.8246 15.4677 29.0525 12.7279 29.6271 11.8402C29.9701 11.3113 30.8625 10.8457 31.5196 10.5554C32.6706 12.5727 33.3278 14.8687 33.3278 17.3082C33.3278 18.0357 33.2506 18.7448 33.1393 19.4439ZM25.1112 32.3071C25.1489 32.2887 25.1884 32.272 25.2261 32.2553C25.2118 32.2353 25.1974 32.2186 25.1848 32.1986C25.1633 32.2303 25.1346 32.2737 25.1112 32.3071Z" fill="#029894"/>
</svg>
