<svg width="44" height="45" viewBox="0 0 44 45" fill="none" xmlns="http://www.w3.org/2000/svg">
<g clip-path="url(#clip0_155_64774)">
<path d="M22.3905 44.0372C34.3089 44.0372 43.9705 34.3755 43.9705 22.4572C43.9705 10.5389 34.3089 0.877197 22.3905 0.877197C10.4722 0.877197 0.810547 10.5389 0.810547 22.4572C0.810547 34.3755 10.4722 44.0372 22.3905 44.0372Z" fill="#029894"/>
<path d="M28.8559 12.5101L20.7297 14.626L19.5285 16.6913L17.0881 16.6744L11.1367 22.4572L17.0839 28.2399L19.5243 28.2231L20.7297 30.2841L28.8559 32.4042L31.0308 24.5056L29.7958 22.4572L31.0308 20.413L28.8559 12.5101ZM19.7224 17.0242L25.9392 15.469L22.3693 21.4793H15.2293L19.7224 17.0242ZM19.7224 27.8901L15.2293 23.435H22.3651L25.935 29.4454L19.7224 27.8901ZM27.6758 28.4675L24.1058 22.4572L27.6758 16.4468L29.3996 22.4572L27.6758 28.4675Z" fill="white"/>
</g>
<defs>
<clipPath id="clip0_155_64774">
<rect width="43.16" height="43.16" fill="white" transform="translate(0.810547 0.877197)"/>
</clipPath>
</defs>
</svg>
