<svg width="44" height="44" viewBox="0 0 44 44" fill="none" xmlns="http://www.w3.org/2000/svg">
<g clip-path="url(#clip0_155_64803)">
<path d="M42.0715 2.5602C40.8084 1.29993 39.0575 0.662598 36.8693 0.662598C32.9216 0.662598 27.7194 2.83067 22.392 6.51797C17.066 2.83067 11.8624 0.662598 7.91756 0.662598C5.72647 0.662598 3.97418 1.30137 2.71534 2.56308C1.45075 3.82479 0.811986 5.57708 0.810548 7.76817C0.809109 11.7116 2.97862 16.9138 6.66448 22.2426C2.97718 27.57 0.810548 32.7722 0.811986 36.717C0.813425 38.9067 1.45363 40.659 2.7139 41.9178C3.97705 43.1824 5.73079 43.8226 7.92332 43.8226C11.8653 43.8226 17.066 41.6545 22.392 37.9672C27.7165 41.6545 32.9187 43.8226 36.8664 43.8226C39.0546 43.8226 40.8055 43.1853 42.0701 41.9236C45.7113 38.2737 43.9576 30.5782 38.1598 22.2412C43.9562 13.9055 45.7113 6.21154 42.0715 2.5602ZM36.8693 3.86075C38.1814 3.86075 39.1726 4.18733 39.8114 4.82322C41.8989 6.9136 40.6156 12.7042 36.1241 19.5106C34.5919 17.5712 32.8712 15.6204 30.9405 13.6926C29.0473 11.7979 27.0849 10.0686 25.1211 8.52923C29.5537 5.59722 33.7733 3.86075 36.8693 3.86075ZM4.00726 7.76961C4.00726 6.45467 4.33384 5.46631 4.97693 4.82466C5.61569 4.18589 6.60406 3.85931 7.91756 3.85931C11.0093 3.85931 15.2274 5.59579 19.66 8.52779C17.6962 10.0672 15.7338 11.795 13.8406 13.6912C11.9444 15.5844 10.2151 17.5468 8.6743 19.5106C5.74374 15.078 4.00583 10.8613 4.00726 7.76961ZM7.92188 40.6244C6.60837 40.6244 5.61569 40.295 4.97405 39.6519C4.33384 39.016 4.0087 38.0219 4.00726 36.7127C4.00583 33.6225 5.7423 29.4043 8.67286 24.9703C10.2137 26.9341 11.9415 28.8964 13.8391 30.7912C15.7338 32.6859 17.6962 34.4166 19.66 35.956C15.2317 38.888 11.0136 40.6244 7.92188 40.6244ZM18.2098 30.8861C17.0891 30.8861 16.1798 29.915 16.1798 28.7252V15.76C16.1798 14.5702 17.0891 13.6005 18.2098 13.6005H26.5699C27.6906 13.6005 28.6013 14.5702 28.6013 15.76V28.7252C28.6013 29.915 27.6906 30.8861 26.5699 30.8861H18.2098ZM39.8056 39.6577C39.1683 40.2979 38.1756 40.6244 36.8635 40.6244C33.7718 40.6244 29.5522 38.888 25.1211 35.956C27.0849 34.4166 29.0458 32.6888 30.9377 30.7926C32.8684 28.8648 34.5876 26.9139 36.1226 24.9732C40.6127 31.781 41.8974 37.5702 39.8056 39.6577Z" fill="#029894"/>
<path d="M22.389 30.243C22.7807 30.243 23.0982 29.9254 23.0982 29.5337C23.0982 29.142 22.7807 28.8245 22.389 28.8245C21.9972 28.8245 21.6797 29.142 21.6797 29.5337C21.6797 29.9254 21.9972 30.243 22.389 30.243Z" fill="#029894"/>
<path d="M27.5207 27.1024V15.7599C27.5207 15.1643 27.0963 14.6824 26.5683 14.6824H18.2083C17.6817 14.6824 17.2559 15.1643 17.2559 15.7599V27.1024C17.2559 27.698 17.6817 28.1843 18.2083 28.1843H26.5683C27.0963 28.1843 27.5207 27.698 27.5207 27.1024Z" fill="#029894"/>
</g>
<defs>
<clipPath id="clip0_155_64803">
<rect width="43.16" height="43.16" fill="white" transform="translate(0.810547 0.662598)"/>
</clipPath>
</defs>
</svg>
