<svg width="39" height="47" viewBox="0 0 39 47" fill="none" xmlns="http://www.w3.org/2000/svg">
<path d="M24.4933 36.871H3.05974V6.12999H24.4875V8.4297H27.3675V5.50222C27.3695 2.74458 25.1053 0.486328 22.3495 0.486328H5.20149C2.44185 0.486328 0.183594 2.74458 0.183594 5.50222V41.4684C0.183594 44.2301 2.44185 46.4863 5.20149 46.4863H22.3495C25.1053 46.4863 27.3695 44.2301 27.3695 41.4684V36.8177H24.4933V36.871ZM13.7725 43.9754C12.5013 43.9754 11.4749 42.947 11.4749 41.6777C11.4749 40.4045 12.5013 39.378 13.7725 39.378C15.0458 39.378 16.0743 40.4064 16.0743 41.6777C16.0743 42.947 15.0459 43.9754 13.7725 43.9754Z" fill="#029894"/>
<path d="M11.9449 9.21533H5.51562V13.1357H11.9449V9.21533Z" fill="#029894"/>
<path d="M11.9449 19.2531H5.51562V23.1734H11.9449V19.2531Z" fill="#029894"/>
<path d="M11.9449 29.7587H5.51562V33.677H11.9449V29.7587Z" fill="#029894"/>
<path d="M34.7632 20.9764C34.5361 19.788 34.0762 18.6885 33.4248 17.7272L35.7305 15.4196L33.3755 13.0725L31.0738 15.3761C30.1164 14.7208 29.011 14.2667 27.8265 14.0377V10.7708H24.4945V14.0377C23.3081 14.2667 22.2125 14.7227 21.2453 15.3761L18.9476 13.0725L16.5926 15.4215L18.8944 17.7291C18.2449 18.6904 17.787 19.7899 17.5599 20.9763H14.2969V24.3064H17.5598C17.7869 25.4889 18.2468 26.5884 18.8962 27.5537L16.5926 29.8573L18.9475 32.2024L21.2512 29.9007C22.2145 30.556 23.314 31.012 24.5003 31.243V34.504H27.8324V31.2411C29.0167 31.014 30.1143 30.5541 31.0796 29.9027L33.3813 32.2044L35.7363 29.8573L33.4307 27.5537C34.082 26.5923 34.5401 25.4909 34.769 24.3045H38.034V20.9764H34.7632ZM26.1645 26.2647C24.1609 26.2647 22.5343 24.646 22.5343 22.6405C22.5343 20.6369 24.1608 19.0083 26.1645 19.0083C28.1701 19.0083 29.7887 20.6349 29.7887 22.6405C29.7887 24.648 28.166 26.2647 26.1645 26.2647Z" fill="#029894"/>
</svg>
