<svg width="47" height="34" viewBox="0 0 47 34" fill="none" xmlns="http://www.w3.org/2000/svg">
<path d="M46.509 29.6523L42.3531 24.4783V2.71879C42.3531 1.66623 41.4909 0.8125 40.4276 0.8125H6.2484C5.18523 0.8125 4.32381 1.66614 4.32381 2.71879V24.4783L0.167198 29.6523C0.058346 29.7872 0 29.9542 0 30.1275V32.4175C0 33.2579 0.687298 33.9382 1.53532 33.9382H45.1408C45.9888 33.9382 46.6768 33.2579 46.6768 32.4175V30.1275C46.6768 29.9542 46.6177 29.7872 46.509 29.6523ZM7.03972 3.50221H39.6364V21.7886H7.03972V3.50221ZM27.7252 32.1297H18.9516V29.8302H27.7252V32.1297Z" fill="#029894"/>
<path d="M15.2672 16.4111H12.0391V19.6071H15.2672V16.4111Z" fill="#029894"/>
<path d="M20.111 13.215H16.8828V19.607H20.111V13.215Z" fill="#029894"/>
<path d="M24.9528 11.6171H21.7246V19.607H24.9528V11.6171Z" fill="#029894"/>
<path d="M29.7946 6.82312H26.5664V19.6071H29.7946V6.82312Z" fill="#029894"/>
<path d="M34.6364 10.019H31.4082V19.607H34.6364V10.019Z" fill="#029894"/>
</svg>
