<svg width="221" height="262" fill="none" xmlns="http://www.w3.org/2000/svg"><path style="mix-blend-mode:multiply" d="M180.062 182.721c47.381 15.507 54.687 43.599 16.318 62.745s-107.887 22.1-155.272 6.593c-47.384-15.506-54.687-43.594-16.318-62.745 38.37-19.15 107.887-22.096 155.272-6.593Z" fill="url(#a)"/><path d="M107.985 219.137c-22.787 0-44.286-3.091-62.15-8.942-25.13-8.224-39.555-20.926-40.618-35.765-.523-7.307 2.098-21.308 25.51-32.993 19.177-9.568 47.385-15.054 77.389-15.054 22.79 0 44.289 3.095 62.174 8.946 25.129 8.22 39.555 20.922 40.618 35.761.519 7.303-2.098 21.308-25.514 32.993-19.205 9.569-47.414 15.054-77.409 15.054Z" fill="#001C63" style="mix-blend-mode:multiply" opacity=".2"/><path d="M107.985 234.925c-22.787 0-44.286-3.096-62.15-8.947-25.13-8.224-39.555-20.922-40.618-35.76-.523-7.308 2.098-21.308 25.51-32.998 19.177-9.543 47.385-15.054 77.389-15.054 22.79 0 44.289 3.096 62.174 8.946 25.129 8.225 39.555 20.922 40.618 35.761.519 7.307-2.098 21.308-25.514 32.993-19.205 9.569-47.414 15.059-77.409 15.059Z" fill="#001C63" style="mix-blend-mode:multiply" opacity=".2"/><path d="M167.845 142.909c40.798 13.349 47.091 37.537 14.053 54.023-33.037 16.486-92.889 19.025-133.703 5.676-40.815-13.349-47.087-37.536-14.05-54.022 33.038-16.486 92.906-19.026 133.7-5.677Z" fill="#001C63" style="mix-blend-mode:multiply"/><path d="M155.672 148.984c32.489 10.635 37.502 29.897 11.191 43.027-26.311 13.129-73.983 15.154-106.476 4.522-32.494-10.631-37.503-29.876-11.191-43.026 26.311-13.15 73.982-15.154 106.476-4.523Z" fill="url(#b)"/><path d="M155.672 148.984c32.489 10.635 37.502 29.897 11.191 43.027-26.311 13.129-73.983 15.154-106.476 4.522-32.494-10.631-37.503-29.876-11.191-43.026 26.311-13.15 73.982-15.154 106.476-4.523Z" fill="url(#c)"/><path d="M155.672 148.984c32.489 10.635 37.502 29.897 11.191 43.027-26.311 13.129-73.983 15.154-106.476 4.522-32.494-10.631-37.503-29.876-11.191-43.026 26.311-13.15 73.982-15.154 106.476-4.523Z" fill="url(#d)"/><path d="M175.805 145.371h-13.419a71.331 71.331 0 0 0-11.706-4.917c-29.088-9.519-71.767-7.706-95.322 4.05-.572.286-1.116.576-1.656.867H40.385v14.743c-1.227 8.511 7.34 17.134 24.99 22.91 29.092 9.519 71.771 7.705 95.326-4.05 10.173-5.075 15.104-11.175 15.096-17.237l.008-16.366Z" fill="#E6E6ED"/><path d="M150.68 124.087c29.091 9.519 33.577 26.765 10.021 38.52-23.555 11.756-66.238 13.565-95.326 4.05-29.087-9.515-33.573-26.768-10.017-38.52 23.555-11.751 66.234-13.569 95.322-4.05Z" fill="#FAFAFF"/><path style="mix-blend-mode:multiply" d="M107.956 172.869c37.474 0 67.853-12.312 67.853-27.499s-30.379-27.499-67.853-27.499c-37.474 0-67.853 12.312-67.853 27.499s30.379 27.499 67.853 27.499Z" fill="url(#e)"/><path d="M175.805 118.265h-13.419a71.122 71.122 0 0 0-11.706-4.917c-29.088-9.519-71.767-7.706-95.322 4.05-.572.286-1.116.577-1.656.867H40.385v14.744c-1.227 8.51 7.34 17.133 24.99 22.909 29.092 9.519 71.771 7.706 95.326-4.05 10.173-5.075 15.104-11.174 15.096-17.237l.008-16.366Z" fill="#E6E6ED"/><path d="M150.68 96.965c29.091 9.519 33.577 26.764 10.021 38.52-23.555 11.756-66.238 13.565-95.326 4.046-29.087-9.519-33.573-26.765-10.017-38.516 23.555-11.752 66.234-13.552 95.322-4.05Z" fill="#FAFAFF"/><path style="mix-blend-mode:multiply" opacity=".25" d="M107.956 132.51c19.409 0 35.143-6.378 35.143-14.245 0-7.868-15.734-14.245-35.143-14.245s-35.143 6.377-35.143 14.245c0 7.867 15.734 14.245 35.143 14.245Z" fill="url(#f)"/><path d="M105.85 23.478c0 5.049-1.155 8.862-3.463 11.44-2.309 2.579-5.422 3.868-9.34 3.868-3.944 0-7.071-1.29-9.383-3.868-2.311-2.578-3.473-6.391-3.484-11.44v-7.843c0-5.05 1.147-8.864 3.44-11.44C85.91 1.62 89.032.332 92.981.332c3.931 0 7.056 1.292 9.376 3.876 2.32 2.583 3.478 6.393 3.475 11.428l.017 7.842Zm-8.525-8.444c0-2.858-.371-4.913-1.112-6.166a3.573 3.573 0 0 0-1.347-1.396 3.504 3.504 0 0 0-1.867-.476 3.435 3.435 0 0 0-1.866.468 3.504 3.504 0 0 0-1.336 1.404c-.714 1.253-1.072 3.308-1.075 6.166v8.983c0 2.913.363 4.988 1.088 6.225.316.585.786 1.07 1.358 1.398a3.5 3.5 0 0 0 1.88.465 3.452 3.452 0 0 0 1.856-.47 3.52 3.52 0 0 0 1.333-1.393c.725-1.242 1.088-3.317 1.088-6.225v-8.983ZM125.435.32c1.3-.015 2.598.11 3.872.369 1.278.296 2.531.696 3.746 1.195l-1.419 6.315c-1.182-.356-2.212-.626-3.099-.805a15.212 15.212 0 0 0-3.051-.27 6.012 6.012 0 0 0-2.68.518 6.093 6.093 0 0 0-2.189 1.653c-1.222 1.444-1.808 3.553-1.758 6.328l.077.129a7.39 7.39 0 0 1 2.96-2.005 11.546 11.546 0 0 1 4.2-.717c3.287 0 5.847 1.202 7.678 3.605 1.832 2.404 2.747 5.482 2.744 9.233 0 3.696-1.21 6.774-3.631 9.233-2.42 2.46-5.51 3.687-9.269 3.685-4.034 0-7.29-1.345-9.768-4.034-2.478-2.689-3.718-6.37-3.721-11.042v-7.523c0-4.93 1.43-8.802 4.289-11.618 2.86-2.817 6.533-4.233 11.019-4.25Zm-1.696 19.386a8.58 8.58 0 0 0-3.047.486 4.775 4.775 0 0 0-2.011 1.352v2.2c0 2.697.435 4.771 1.304 6.224a4.088 4.088 0 0 0 1.517 1.597c.64.381 1.372.576 2.114.565 1.281 0 2.326-.614 3.136-1.843a7.765 7.765 0 0 0 1.227-4.373c0-1.892-.393-3.397-1.178-4.515a3.613 3.613 0 0 0-1.315-1.25 3.548 3.548 0 0 0-1.747-.443Z" fill="#001C63"/><path fill-rule="evenodd" clip-rule="evenodd" d="M100.156 116.545c2.906 0 5.269-2.113 5.269-4.715a4.33 4.33 0 0 0-.827-2.53h.142c-2.314-2.529-2.069-4.598.382-5.322h8.105c.915 0 1.664-.748 1.664-1.663v-7.196c.567-4.912 2.666-3.454 5.136-1.933 5.968 3.674 9.936-5.029 5.112-8.008-3.786-2.338-5.425 1.683-8.199 1.267-1.071-.161-1.814-1.32-2.049-3.082v-7.112c0-.915-.749-1.664-1.664-1.664h-7.098c-3.36-.425-3.996-2.685-1.394-5.528h-.142c.524-.733.827-1.6.827-2.529.005-2.602-2.353-4.715-5.264-4.715-2.906 0-5.264 2.113-5.264 4.715 0 .93.304 1.796.827 2.53h-.034c2.602 2.842 1.971 5.107-1.394 5.527h-7.128c-.914 0-1.663.749-1.663 1.663v7.417c.533 3.052 2.735 3.551 5.474 1.042v.034a4.331 4.331 0 0 1 2.53-.827c2.602 0 4.715 2.358 4.715 5.264s-2.113 5.264-4.716 5.264c-.93 0-1.795-.304-2.529-.827v.142c-2.74-2.51-4.94-2.006-5.474 1.047v7.514c0 .914.749 1.663 1.663 1.663H95.3c2.45.724 2.7 2.793.381 5.322h.034c-.518.734-.826 1.6-.826 2.529.004 2.603 2.362 4.716 5.268 4.711Zm30.8.269h-.01c-2.906 0-5.269-2.113-5.269-4.715 0-.93.304-1.796.827-2.529h-.034c2.314-2.53 2.069-4.599-.382-5.323h-8.135a1.667 1.667 0 0 1-1.663-1.663v-7.5c.391-1.134.89-1.536 1.477-1.55.269-.005.553.068.856.195.851.353 1.849 1.091 2.935 1.512 4.188 1.614 7.784-2.46 7.544-6.648-.054-.934-.431-1.854-.988-2.705-2.138-3.268-5.303-3.576-8.356-1.713-1.555.954-2.793 1.674-3.502-.572l.039-7.088a1.671 1.671 0 0 1 1.663-1.663h7.123c3.36-.426 3.996-2.686 1.394-5.528h.034a4.335 4.335 0 0 1-.827-2.53c0-2.602 2.358-4.715 5.269-4.715h.01c2.906 0 5.268 2.113 5.268 4.715 0 .93-.303 1.796-.826 2.53h.034c-2.603 2.842-1.972 5.107 1.394 5.528h7.123c.914 0 1.663.748 1.663 1.663v7.416c-.533 3.052-2.735 3.551-5.474 1.042v.034a4.333 4.333 0 0 0-2.529-.827c-2.603 0-4.716 2.358-4.716 5.264s2.113 5.269 4.716 5.269c.929 0 1.795-.304 2.529-.827v.142c2.744-2.51 4.941-2.006 5.474 1.047v7.499c0 .915-.749 1.663-1.663 1.663h-8.136c-2.45.724-2.695 2.794-.381 5.323h-.039c.523.734.826 1.599.826 2.529-.004 2.612-2.362 4.725-5.268 4.725Z" fill="#001C63"/><defs><radialGradient id="a" cx="0" cy="0" r="1" gradientUnits="userSpaceOnUse" gradientTransform="matrix(107.502 0 0 42.5488 110.585 204.328)"><stop stop-color="#1628B1"/><stop offset="1" stop-color="#fff"/></radialGradient><radialGradient id="b" cx="0" cy="0" r="1" gradientUnits="userSpaceOnUse" gradientTransform="matrix(53.75844 -21.51545 14.84431 37.08996 115.032 172.048)"><stop stop-color="#80E3C8"/><stop offset=".43" stop-color="#82E3C9"/><stop offset=".58" stop-color="#89E5CC"/><stop offset=".69" stop-color="#94E8D1"/><stop offset=".78" stop-color="#A5EBD8"/><stop offset=".86" stop-color="#BBF0E2"/><stop offset=".93" stop-color="#D7F6ED"/><stop offset=".99" stop-color="#F6FDFB"/><stop offset="1" stop-color="#fff"/></radialGradient><radialGradient id="c" cx="0" cy="0" r="1" gradientUnits="userSpaceOnUse" gradientTransform="matrix(53.75844 -21.51545 14.84431 37.08996 115.032 172.048)"><stop stop-color="#80E3C8"/><stop offset=".43" stop-color="#82E3C9"/><stop offset=".58" stop-color="#89E5CC"/><stop offset=".69" stop-color="#94E8D1"/><stop offset=".78" stop-color="#A5EBD8"/><stop offset=".86" stop-color="#BBF0E2"/><stop offset=".93" stop-color="#D7F6ED"/><stop offset=".99" stop-color="#F6FDFB"/><stop offset="1" stop-color="#fff"/></radialGradient><radialGradient id="d" cx="0" cy="0" r="1" gradientUnits="userSpaceOnUse" gradientTransform="matrix(53.75844 -21.51545 14.84431 37.08996 115.032 172.048)"><stop stop-color="#1628B1"/><stop offset=".38" stop-color="#182AB2"/><stop offset=".52" stop-color="#1F30B4"/><stop offset=".61" stop-color="#2A3BB8"/><stop offset=".69" stop-color="#3B4BBE"/><stop offset=".76" stop-color="#515FC5"/><stop offset=".82" stop-color="#6D78CE"/><stop offset=".87" stop-color="#8D96D9"/><stop offset=".92" stop-color="#B3B9E5"/><stop offset=".97" stop-color="#DCDFF3"/><stop offset="1" stop-color="#fff"/></radialGradient><radialGradient id="e" cx="0" cy="0" r="1" gradientUnits="userSpaceOnUse" gradientTransform="matrix(67.6449 0 0 25.4005 107.956 148.824)"><stop stop-color="#1628B1"/><stop offset="1" stop-color="#fff"/></radialGradient><radialGradient id="f" cx="0" cy="0" r="1" gradientUnits="userSpaceOnUse" gradientTransform="matrix(35.0368 0 0 13.1562 107.956 121.682)"><stop stop-color="#1628B1"/><stop offset="1" stop-color="#fff"/></radialGradient></defs></svg>