<svg width="222" height="263" fill="none" xmlns="http://www.w3.org/2000/svg"><path style="mix-blend-mode:multiply" d="M180.208 183.72c47.38 15.507 54.687 43.599 16.318 62.745s-107.887 22.1-155.272 6.593c-47.385-15.506-54.687-43.595-16.318-62.74 38.37-19.146 107.887-22.101 155.272-6.598Z" fill="url(#a)"/><path d="M108.119 220.137c-22.787 0-44.286-3.091-62.17-8.942-25.13-8.224-39.555-20.926-40.618-35.761-.523-7.307 2.098-21.307 25.51-32.997 19.176-9.568 47.385-15.054 77.388-15.054 22.791 0 44.29 3.095 62.175 8.946 25.129 8.22 39.555 20.922 40.618 35.761.523 7.307-2.098 21.308-25.514 32.993-19.173 9.569-47.381 15.054-77.389 15.054Z" fill="#001C63" style="mix-blend-mode:multiply" opacity=".2"/><path d="M167.994 143.91c40.794 13.349 47.087 37.537 14.05 54.023-33.038 16.486-92.89 19.025-133.704 5.676-40.814-13.349-47.086-37.536-14.049-54.018 33.038-16.482 92.906-19.03 133.703-5.681Z" fill="#001C63" style="mix-blend-mode:multiply"/><path d="M155.818 149.984c32.49 10.635 37.503 29.897 11.191 43.026-26.311 13.129-73.994 15.154-106.476 4.544-32.481-10.611-37.502-29.877-11.19-43.027 26.31-13.15 73.982-15.175 106.475-4.543Z" fill="url(#b)"/><path d="M155.818 149.984c32.49 10.635 37.503 29.897 11.191 43.026-26.311 13.129-73.994 15.154-106.476 4.544-32.481-10.611-37.502-29.877-11.19-43.027 26.31-13.15 73.982-15.175 106.475-4.543Z" fill="url(#c)"/><path d="M155.818 149.984c32.49 10.635 37.503 29.897 11.191 43.026-26.311 13.129-73.994 15.154-106.476 4.544-32.481-10.611-37.502-29.877-11.19-43.027 26.31-13.15 73.982-15.175 106.475-4.543Z" fill="url(#d)"/><path d="M108.119 235.927c-22.787 0-44.286-3.096-62.17-8.947-25.13-8.224-39.555-20.922-40.618-35.76-.523-7.308 2.098-21.308 25.51-32.998 19.176-9.543 47.385-15.054 77.388-15.054 22.791 0 44.29 3.095 62.175 8.946 25.129 8.225 39.555 20.922 40.618 35.761.523 7.307-2.098 21.308-25.514 32.993-19.173 9.569-47.381 15.059-77.389 15.059Z" fill="#001C63" style="mix-blend-mode:multiply" opacity=".2"/><path d="M175.952 146.369h-13.427a71.474 71.474 0 0 0-11.703-4.917c-29.091-9.519-71.77-7.706-95.326 4.05-.572.286-1.116.576-1.656.867H40.523v14.743c-1.226 8.511 7.36 17.134 24.991 22.91 29.092 9.519 71.77 7.705 95.326-4.05 10.173-5.075 15.104-11.175 15.096-17.237l.016-16.366Z" fill="#E5E7EA"/><path d="M150.83 125.086c29.088 9.52 33.573 26.765 10.018 38.521-23.556 11.755-66.239 13.569-95.326 4.05-29.088-9.519-33.573-26.765-10.018-38.521 23.556-11.755 66.234-13.569 95.326-4.05Z" fill="#FDFEFF"/><path style="mix-blend-mode:multiply" d="M108.102 173.869c37.475 0 67.854-12.312 67.854-27.499s-30.379-27.499-67.854-27.499c-37.474 0-67.853 12.312-67.853 27.499s30.379 27.499 67.853 27.499Z" fill="url(#e)"/><path d="M175.952 119.265h-13.427a71.561 71.561 0 0 0-11.703-4.917c-29.091-9.519-71.77-7.705-95.326 4.05-.572.286-1.116.577-1.656.867H40.523v14.744c-1.226 8.51 7.36 17.133 24.991 22.909 29.092 9.519 71.77 7.706 95.326-4.05 10.173-5.075 15.104-11.174 15.096-17.237l.016-16.366Z" fill="#E5E7EA"/><path d="M150.83 97.965c29.088 9.519 33.573 26.764 10.018 38.52-23.556 11.756-66.239 13.565-95.326 4.046-29.088-9.519-33.573-26.765-10.018-38.516 23.556-11.752 66.234-13.552 95.326-4.05Z" fill="#FDFEFF"/><path style="mix-blend-mode:multiply" opacity=".25" d="M108.102 133.51c19.409 0 35.144-6.378 35.144-14.245 0-7.868-15.735-14.245-35.144-14.245s-35.143 6.377-35.143 14.245c0 7.867 15.734 14.245 35.143 14.245Z" fill="url(#f)"/><path d="M106 23.956c0 5.048-1.156 8.862-3.467 11.44-2.312 2.578-5.425 3.866-9.34 3.863-3.943 0-7.078-1.288-9.403-3.863-2.326-2.575-3.481-6.389-3.468-11.44v-7.86c0-5.05 1.147-8.864 3.44-11.44C86.053 2.081 89.174.793 93.123.793c3.928 0 7.054 1.292 9.376 3.876 2.322 2.584 3.482 6.393 3.48 11.428l.02 7.859Zm-8.53-8.449c0-2.857-.37-4.911-1.111-6.162a3.578 3.578 0 0 0-1.347-1.397 3.508 3.508 0 0 0-1.867-.478c-.653-.024-1.3.14-1.866.471a3.513 3.513 0 0 0-1.336 1.404c-.714 1.25-1.072 3.305-1.075 6.162v8.988c0 2.908.363 4.982 1.088 6.224.315.586.785 1.07 1.357 1.4.572.33 1.224.49 1.88.464.65.022 1.294-.14 1.858-.47a3.514 3.514 0 0 0 1.332-1.393c.728-1.243 1.09-3.317 1.088-6.225v-8.988ZM132.97 24.159h3.721v6.676h-3.721v7.884h-8.55v-7.884h-14.274l-.502-5.299L124.42 1.411v-.079h8.55v22.827Zm-15.689 0h7.139V12.606l-.155-.054-.658 1.059-6.326 10.548Z" fill="#001C63"/><path fill-rule="evenodd" clip-rule="evenodd" d="M71.909 82.005h14.196v25.634H71.909V82.005ZM120.71 68.99c5.151 0 9.331 4.236 9.331 9.47 0 5.227-4.174 9.469-9.331 9.469-5.151 0-9.33-4.236-9.33-9.47 0-5.227 4.173-9.469 9.33-9.469Zm-16.374-11.888c4.442 0 8.05 3.655 8.05 8.17 0 4.507-3.602 8.168-8.05 8.168-4.442 0-8.05-3.655-8.05-8.169 0-4.508 3.602-8.17 8.05-8.17Zm.818 9.904c0-.267-.063-.47-.195-.62-.131-.152-.354-.291-.674-.424a14.742 14.742 0 0 1-.887-.4 3.233 3.233 0 0 1-.703-.477c-.2-.18-.349-.388-.452-.62-.108-.238-.154-.523-.154-.86 0-.562.189-1.026.56-1.386.372-.36.869-.58 1.493-.638v-.754h.783v.771c.6.087 1.075.337 1.418.749.343.412.514.934.514 1.56h-1.675c0-.348-.068-.614-.2-.8a.647.647 0 0 0-.56-.279c-.218 0-.389.07-.503.203-.12.14-.178.331-.178.569 0 .244.069.441.206.586.143.145.36.284.663.418.303.133.595.267.864.406.268.145.503.302.697.481.2.18.355.395.463.633.109.238.172.522.172.865 0 .568-.177 1.032-.538 1.392-.36.36-.84.569-1.452.627v.708h-.777v-.708c-.715-.082-1.264-.325-1.647-.743-.383-.424-.577-.975-.577-1.665h1.663c0 .383.08.667.246.87.166.197.4.302.703.302a.7.7 0 0 0 .526-.203c.126-.14.195-.325.201-.563Zm16.5 13.461c0-.308-.075-.545-.223-.72-.149-.174-.406-.336-.784-.493-.371-.15-.714-.313-1.029-.464a3.56 3.56 0 0 1-.817-.551 2.2 2.2 0 0 1-.526-.72c-.126-.272-.178-.603-.178-.992 0-.655.218-1.19.652-1.607.429-.418 1.006-.667 1.727-.737v-.876h.909v.9c.692.104 1.24.394 1.641.87.4.475.6 1.079.6 1.81h-1.932c0-.406-.08-.708-.229-.928a.753.753 0 0 0-.652-.325c-.251 0-.446.081-.583.238-.137.156-.206.383-.206.661 0 .284.08.51.24.679.16.168.412.33.766.482.355.15.686.313 1.001.47.314.162.583.353.812.556.228.21.406.453.537.732.132.278.195.609.195.998 0 .661-.206 1.2-.624 1.613-.411.412-.972.661-1.686.725v.818h-.909v-.824c-.829-.093-1.464-.377-1.91-.864-.44-.488-.663-1.132-.663-1.933h1.927c0 .441.097.772.286 1.004.188.227.463.348.817.348a.837.837 0 0 0 .612-.232c.148-.15.223-.365.229-.638Zm-.944-9.614c4.134 0 7.49 3.4 7.49 7.6 0 4.196-3.351 7.602-7.49 7.602-4.133 0-7.489-3.4-7.489-7.601 0-4.201 3.356-7.601 7.489-7.601Zm-31.748 34.633V84.064h9.497c4.025.731 8.05 2.948 12.074 5.518h7.376c3.339.203 5.088 3.638 1.841 5.895-2.585 1.927-5.998 1.816-9.497 1.497-2.412-.122-2.515 3.168 0 3.18.875.069 1.824-.139 2.653-.139 4.368-.006 7.959-.853 10.16-4.352l1.103-2.617 10.972-5.518c5.488-1.833 9.387 3.992 5.345 8.048-7.947 5.866-16.094 10.693-24.43 14.592-6.054 3.737-12.109 3.609-18.158 0l-8.936-4.682Z" fill="#001C63"/><defs><radialGradient id="a" cx="0" cy="0" r="1" gradientUnits="userSpaceOnUse" gradientTransform="matrix(107.502 0 0 42.5488 110.731 205.327)"><stop stop-color="#5A9BFB"/><stop offset="1" stop-color="#fff"/></radialGradient><radialGradient id="b" cx="0" cy="0" r="1" gradientUnits="userSpaceOnUse" gradientTransform="rotate(-21.812 505.648 -207.234) scale(57.9042 39.9502)"><stop stop-color="#7FD4F9"/><stop offset=".43" stop-color="#81D5F9"/><stop offset=".58" stop-color="#88D7F9"/><stop offset=".69" stop-color="#93DBFA"/><stop offset=".78" stop-color="#A4E1FB"/><stop offset=".86" stop-color="#BAE8FC"/><stop offset=".92" stop-color="#D6F1FD"/><stop offset=".98" stop-color="#F5FCFF"/><stop offset="1" stop-color="#fff"/></radialGradient><radialGradient id="c" cx="0" cy="0" r="1" gradientUnits="userSpaceOnUse" gradientTransform="rotate(-21.812 505.648 -207.234) scale(57.9042 39.9502)"><stop stop-color="#80E3C8"/><stop offset=".43" stop-color="#82E3C9"/><stop offset=".58" stop-color="#89E5CC"/><stop offset=".69" stop-color="#94E8D1"/><stop offset=".78" stop-color="#A5EBD8"/><stop offset=".86" stop-color="#BBF0E2"/><stop offset=".93" stop-color="#D7F6ED"/><stop offset=".99" stop-color="#F6FDFB"/><stop offset="1" stop-color="#fff"/></radialGradient><radialGradient id="d" cx="0" cy="0" r="1" gradientUnits="userSpaceOnUse" gradientTransform="rotate(-21.812 505.648 -207.234) scale(57.9042 39.9502)"><stop stop-color="#5A9BFB"/><stop offset=".41" stop-color="#5C9CFB"/><stop offset=".55" stop-color="#63A0FB"/><stop offset=".66" stop-color="#6EA7FB"/><stop offset=".74" stop-color="#7FB2FC"/><stop offset=".81" stop-color="#95BFFC"/><stop offset=".88" stop-color="#B1CFFD"/><stop offset=".94" stop-color="#D1E3FE"/><stop offset=".99" stop-color="#F5F9FF"/><stop offset="1" stop-color="#fff"/></radialGradient><radialGradient id="e" cx="0" cy="0" r="1" gradientUnits="userSpaceOnUse" gradientTransform="matrix(67.6449 0 0 25.4005 108.102 149.824)"><stop stop-color="#5A9BFB"/><stop offset="1" stop-color="#fff"/></radialGradient><radialGradient id="f" cx="0" cy="0" r="1" gradientUnits="userSpaceOnUse" gradientTransform="matrix(35.0369 0 0 13.1562 108.102 122.682)"><stop stop-color="#5A9BFB"/><stop offset="1" stop-color="#fff"/></radialGradient></defs></svg>