<svg width="222" height="264" fill="none" xmlns="http://www.w3.org/2000/svg"><path style="mix-blend-mode:multiply" d="M180.524 184.62c47.385 15.507 54.712 43.595 16.318 62.728-38.393 19.134-107.886 22.097-155.267 6.594s-54.692-43.595-16.323-62.745c38.37-19.15 107.891-22.08 155.272-6.577Z" fill="url(#a)"/><path d="M110.979 220.327c-22.787 0-44.286-3.096-62.15-8.947-25.13-8.22-39.555-20.922-40.618-35.76-.523-7.303 2.098-21.308 25.514-32.993 19.172-9.569 47.38-15.055 77.388-15.055 22.787 0 44.286 3.092 62.15 8.943 25.13 8.224 39.555 20.926 40.618 35.764.523 7.308-2.097 21.308-25.514 32.993-19.172 9.569-47.381 15.055-77.388 15.055Z" fill="#8EDBDC" style="mix-blend-mode:multiply" opacity=".2"/><path d="M170.854 144.1c40.794 13.349 47.087 37.537 14.049 54.019-33.037 16.482-92.889 19.03-133.703 5.681-40.814-13.349-47.09-37.537-14.053-54.023 33.037-16.486 92.909-19.03 133.707-5.677Z" fill="#029894" style="mix-blend-mode:multiply"/><path d="M158.678 150.175c32.493 10.631 37.502 29.876 11.191 43.026-26.311 13.15-73.983 15.154-106.476 4.523-32.494-10.631-37.503-29.897-11.191-43.026 26.311-13.129 73.982-15.154 106.476-4.523Z" fill="url(#b)"/><path d="M158.678 150.175c32.493 10.631 37.502 29.876 11.191 43.026-26.311 13.15-73.983 15.154-106.476 4.523-32.494-10.631-37.503-29.897-11.191-43.026 26.311-13.129 73.982-15.154 106.476-4.523Z" fill="url(#c)"/><path d="M158.678 150.175c32.493 10.631 37.502 29.876 11.191 43.026-26.311 13.15-73.983 15.154-106.476 4.523-32.494-10.631-37.503-29.897-11.191-43.026 26.311-13.129 73.982-15.154 106.476-4.523Z" fill="url(#d)"/><path d="M110.979 236.112c-22.787 0-44.286-3.091-62.15-8.942-25.13-8.225-39.555-20.926-40.618-35.761-.523-7.307 2.098-21.308 25.514-32.993 19.172-9.569 47.38-15.059 77.388-15.059 22.787 0 44.286 3.096 62.15 8.947 25.13 8.22 39.555 20.922 40.618 35.76.523 7.308-2.097 21.308-25.514 32.993-19.172 9.569-47.381 15.055-77.388 15.055Z" fill="#8EDBDC" style="mix-blend-mode:multiply" opacity=".2"/><path d="M178.811 146.56h-13.423a70.994 70.994 0 0 0-11.702-4.917c-29.092-9.519-71.77-7.706-95.326 4.05a38.05 38.05 0 0 0-1.636.867h-13.33v14.744c-1.226 8.51 7.36 17.133 24.987 22.909 29.092 9.515 71.771 7.706 95.326-4.05 10.173-5.075 15.104-11.174 15.096-17.237l.008-16.366Z" fill="#E6EDEB"/><path d="M153.69 125.278c29.087 9.519 33.573 26.764 10.017 38.52-23.555 11.756-66.238 13.565-95.326 4.046-29.087-9.519-33.573-26.765-10.017-38.52 23.555-11.756 66.234-13.565 95.326-4.046Z" fill="#FAFFFE"/><path style="mix-blend-mode:multiply" d="M111.036 174.03c37.433 0 67.78-12.299 67.78-27.47s-30.347-27.47-67.78-27.47c-37.434 0-67.78 12.299-67.78 27.47s30.346 27.47 67.78 27.47Z" fill="url(#e)"/><path d="M178.811 119.457h-13.423a70.616 70.616 0 0 0-11.702-4.917c-29.092-9.519-71.77-7.706-95.326 4.05-.573.282-1.113.576-1.636.867h-13.33V134.2c-1.226 8.511 7.36 17.129 24.987 22.906 29.092 9.519 71.771 7.709 95.326-4.046 10.173-5.079 15.104-11.179 15.096-17.237l.008-16.366Z" fill="#E6EDEB"/><path d="M153.69 98.174c29.087 9.519 33.573 26.765 10.017 38.52-23.555 11.756-66.238 13.565-95.326 4.046-29.087-9.519-33.573-26.765-10.017-38.52 23.555-11.756 66.234-13.565 95.326-4.046Z" fill="#FAFFFE"/><path style="mix-blend-mode:multiply" opacity=".25" d="M111.036 133.702c19.409 0 35.143-6.378 35.143-14.246 0-7.867-15.734-14.245-35.143-14.245-19.41 0-35.143 6.378-35.143 14.245 0 7.868 15.734 14.246 35.143 14.246Z" fill="url(#f)"/><path d="M108.93 23.723c0 5.052-1.156 8.865-3.468 11.44-2.311 2.576-5.424 3.864-9.338 3.864-3.947 0-7.082-1.288-9.405-3.863-2.322-2.576-3.478-6.39-3.467-11.44v-7.86c0-5.051 1.148-8.865 3.443-11.44C88.99 1.848 92.11.56 96.054.56c3.928 0 7.053 1.293 9.376 3.88 2.322 2.586 3.482 6.394 3.479 11.423l.021 7.86Zm-8.53-8.448c0-2.86-.37-4.915-1.112-6.162a3.573 3.573 0 0 0-1.346-1.398 3.504 3.504 0 0 0-1.867-.478c-.654-.023-1.3.14-1.866.472a3.517 3.517 0 0 0-1.336 1.404c-.714 1.25-1.073 3.304-1.075 6.162v8.988c0 2.907.362 4.982 1.087 6.224.316.586.786 1.07 1.358 1.4.572.329 1.223.49 1.88.463.65.023 1.294-.14 1.857-.47a3.512 3.512 0 0 0 1.333-1.393c.728-1.242 1.09-3.317 1.087-6.224v-8.988ZM139.15 38.487h-25.76v-5.648l11.858-12.635a25.359 25.359 0 0 0 3.312-4.672 8.012 8.012 0 0 0 1.063-3.569 5.188 5.188 0 0 0-1.076-3.444c-.714-.855-1.789-1.282-3.226-1.282a3.414 3.414 0 0 0-1.728.422c-.53.29-.976.718-1.293 1.238a7.467 7.467 0 0 0-1.1 4.224h-8.354l-.049-.154a11.85 11.85 0 0 1 .758-4.753 11.696 11.696 0 0 1 2.583-4.04c2.311-2.406 5.373-3.61 9.183-3.61 4.048 0 7.207 1.01 9.478 3.03 2.271 2.019 3.405 4.785 3.402 8.299a11.09 11.09 0 0 1-1.807 6.265c-1.205 1.812-3.428 4.508-6.669 8.088l-4.984 5.42.073.153h14.336v6.668ZM117.613 88.61c.132 1.289.207 2.537.207 3.705 0 2.186-.264 4.656-.668 7.152-2.496.404-4.966.668-7.152.668-2.177 0-4.645-.263-7.152-.669-.404-2.496-.668-4.965-.668-7.151 0-1.168.075-2.416.207-3.706 2.631.422 5.256.698 7.613.698s4.982-.276 7.613-.698ZM121.172 87.959c.163 1.509.258 2.978.258 4.355 0 2.01-.202 4.215-.522 6.452 4.544-.948 8.743-2.159 10.993-2.849.727-.222 1.012-.311 1.396-.464.191-.077.367-.155.596-.264.112-.943.169-1.902.169-2.874 0-2.572-.403-5.049-1.149-7.372l-.195.061c-2.352.716-6.756 1.981-11.546 2.955ZM131.546 81.588c-2.365.717-6.469 1.882-10.867 2.788-1.013-6.157-2.789-12.298-3.643-15.08a24.133 24.133 0 0 1 14.51 12.292ZM117.131 85.032c-2.49.402-4.951.665-7.131.665-2.18 0-4.641-.263-7.131-.665.954-5.826 2.657-11.777 3.528-14.618.223-.727.311-1.013.465-1.396.076-.192.154-.367.264-.596a24.292 24.292 0 0 1 5.874.015l.06.219c.056.2.144.48.292.95l.016.05c.742 2.36 2.709 8.94 3.763 15.376ZM99.321 84.376c1.008-6.13 2.772-12.238 3.625-15.02l.018-.06a24.129 24.129 0 0 0-14.51 12.292c2.365.717 6.469 1.881 10.867 2.788ZM87.088 84.943a24.045 24.045 0 0 0-1.15 7.371c0 1.006.061 1.998.181 2.971l.38.127h.002l.004.002h.003a126.863 126.863 0 0 0 12.584 3.352c-.32-2.238-.522-4.442-.522-6.452 0-1.377.095-2.846.258-4.355-4.791-.974-9.196-2.24-11.548-2.955l-.016-.005-.176-.056ZM110 103.744c2.01 0 4.214-.201 6.452-.521-.948 4.543-2.159 8.742-2.849 10.992-.223.727-.311 1.013-.465 1.396a8.773 8.773 0 0 1-.264.596 24.334 24.334 0 0 1-5.748 0 8.773 8.773 0 0 1-.264-.596c-.154-.383-.242-.669-.465-1.396-.69-2.249-1.901-6.449-2.849-10.992 2.231.32 4.436.521 6.452.521ZM94.047 101.311a139.368 139.368 0 0 1-7.065-1.961 24.115 24.115 0 0 0 15.982 15.981l-.018-.059c-.744-2.429-2.184-7.394-3.208-12.695-1.993-.385-3.93-.828-5.691-1.266ZM132.958 99.368c-2.429.744-7.394 2.184-12.696 3.208-1.024 5.302-2.463 10.267-3.208 12.696l-.018.059a24.116 24.116 0 0 0 15.982-15.981l-.06.018Z" fill="#029894"/><path d="M86.19 95.346c.084.01.151.022.174.027l.062.016.025.007.013.004.014.005.012.003a3.906 3.906 0 0 0-.3-.062Z" fill="#029894"/><defs><radialGradient id="a" cx="0" cy="0" r="1" gradientUnits="userSpaceOnUse" gradientTransform="matrix(107.502 0 0 42.5488 111.047 206.222)"><stop stop-color="#8EDBDC"/><stop offset="1" stop-color="#fff"/></radialGradient><radialGradient id="b" cx="0" cy="0" r="1" gradientUnits="userSpaceOnUse" gradientTransform="rotate(-21.812 506.592 -209.466) scale(57.9042 39.9502)"><stop stop-color="#8EDBDC"/><stop offset=".44" stop-color="#90DCDD"/><stop offset=".6" stop-color="#97DEDF"/><stop offset=".71" stop-color="#A2E2E2"/><stop offset=".8" stop-color="#B3E7E8"/><stop offset=".88" stop-color="#C9EEEE"/><stop offset=".95" stop-color="#E4F6F7"/><stop offset="1" stop-color="#fff"/></radialGradient><radialGradient id="c" cx="0" cy="0" r="1" gradientUnits="userSpaceOnUse" gradientTransform="rotate(-21.812 506.592 -209.466) scale(57.9042 39.9502)"><stop stop-color="#80E3C8"/><stop offset=".43" stop-color="#82E3C9"/><stop offset=".58" stop-color="#89E5CC"/><stop offset=".69" stop-color="#94E8D1"/><stop offset=".78" stop-color="#A5EBD8"/><stop offset=".86" stop-color="#BBF0E2"/><stop offset=".93" stop-color="#D7F6ED"/><stop offset=".99" stop-color="#F6FDFB"/><stop offset="1" stop-color="#fff"/></radialGradient><radialGradient id="d" cx="0" cy="0" r="1" gradientUnits="userSpaceOnUse" gradientTransform="rotate(-21.812 506.592 -209.466) scale(57.9042 39.9502)"><stop stop-color="#80E3C8"/><stop offset=".43" stop-color="#82E3C9"/><stop offset=".58" stop-color="#89E5CC"/><stop offset=".69" stop-color="#94E8D1"/><stop offset=".78" stop-color="#A5EBD8"/><stop offset=".86" stop-color="#BBF0E2"/><stop offset=".93" stop-color="#D7F6ED"/><stop offset=".99" stop-color="#F6FDFB"/><stop offset="1" stop-color="#fff"/></radialGradient><radialGradient id="e" cx="0" cy="0" r="1" gradientUnits="userSpaceOnUse" gradientTransform="matrix(67.5713 0 0 25.3728 111.036 150.014)"><stop stop-color="#8EDBDC"/><stop offset="1" stop-color="#fff"/></radialGradient><radialGradient id="f" cx="0" cy="0" r="1" gradientUnits="userSpaceOnUse" gradientTransform="matrix(35.0368 0 0 13.1562 111.036 122.873)"><stop stop-color="#8EDBDC"/><stop offset="1" stop-color="#fff"/></radialGradient></defs></svg>