<svg width="221" height="270" fill="none" xmlns="http://www.w3.org/2000/svg"><path style="mix-blend-mode:multiply" d="M179.956 190.371c47.385 15.507 54.691 43.599 16.318 62.745-38.373 19.146-107.887 22.1-155.268 6.594-47.38-15.507-54.691-43.595-16.322-62.741 38.37-19.146 107.891-22.088 155.272-6.598Z" fill="url(#a)"/><path d="M110.426 226.077c-22.787 0-44.29-3.092-62.174-8.943-25.13-8.224-39.555-20.926-40.618-35.76-.52-7.308 2.097-21.308 25.514-32.997 19.172-9.565 47.38-15.055 77.388-15.055 22.791 0 44.286 3.096 62.17 8.947 25.134 8.22 39.559 20.921 40.618 35.76.524 7.308-2.093 21.308-25.509 32.993-19.177 9.569-47.385 15.055-77.389 15.055Z" fill="#001C63" style="mix-blend-mode:multiply" opacity=".2"/><path d="M170.298 149.849c40.798 13.349 47.087 37.537 14.05 54.023-33.038 16.486-92.89 19.026-133.683 5.677C9.87 196.2 3.578 172.012 36.61 155.53c33.034-16.482 92.889-19.03 133.687-5.681Z" fill="#001C63" style="mix-blend-mode:multiply"/><path d="M158.122 155.925c32.494 10.635 37.503 29.876 11.191 43.026-26.311 13.15-73.982 15.154-106.472 4.523-32.49-10.631-37.506-29.897-11.19-43.026 26.315-13.129 73.982-15.154 106.471-4.523Z" fill="url(#b)"/><path d="M158.122 155.925c32.494 10.635 37.503 29.876 11.191 43.026-26.311 13.15-73.982 15.154-106.472 4.523-32.49-10.631-37.506-29.897-11.19-43.026 26.315-13.129 73.982-15.154 106.471-4.523Z" fill="url(#c)"/><path d="M158.122 155.925c32.494 10.635 37.503 29.876 11.191 43.026-26.311 13.15-73.982 15.154-106.472 4.523-32.49-10.631-37.506-29.897-11.19-43.026 26.315-13.129 73.982-15.154 106.471-4.523Z" fill="url(#d)"/><path d="M110.426 241.866c-22.787 0-44.29-3.095-62.174-8.946-25.13-8.225-39.555-20.922-40.618-35.761-.52-7.307 2.097-21.308 25.514-32.993 19.172-9.569 47.38-15.059 77.388-15.059 22.791 0 44.286 3.096 62.17 8.947 25.134 8.224 39.559 20.922 40.618 35.76.524 7.308-2.093 21.308-25.509 32.998-19.177 9.564-47.385 15.054-77.389 15.054Z" fill="#001C63" style="mix-blend-mode:multiply" opacity=".2"/><path d="M178.258 152.31h-13.419a71.63 71.63 0 0 0-11.706-4.917c-29.088-9.519-71.767-7.706-95.326 4.05a43.12 43.12 0 0 0-1.636.867H42.838v14.744c-1.227 8.51 7.36 17.133 24.99 22.909 29.088 9.519 71.767 7.706 95.322-4.05 10.173-5.075 15.104-11.174 15.096-17.233l.012-16.37Z" fill="#E6E6E8"/><path d="M153.134 131.028c29.092 9.519 33.577 26.764 10.018 38.52-23.56 11.756-66.239 13.569-95.322 4.05-29.084-9.519-33.578-26.765-10.022-38.52 23.556-11.756 66.238-13.569 95.326-4.05Z" fill="#FDFDFF"/><path style="mix-blend-mode:multiply" d="M110.479 179.78c37.434 0 67.78-12.299 67.78-27.47s-30.346-27.47-67.78-27.47-67.78 12.299-67.78 27.47 30.346 27.47 67.78 27.47Z" fill="url(#e)"/><path d="M178.258 125.205h-13.419a71.542 71.542 0 0 0-11.706-4.917c-29.088-9.519-71.767-7.706-95.326 4.05-.573.286-1.112.576-1.636.867H42.838v14.743c-1.227 8.511 7.36 17.134 24.99 22.91 29.088 9.519 71.767 7.705 95.322-4.05 10.173-5.075 15.104-11.175 15.096-17.237l.012-16.366Z" fill="#E6E6E8"/><path d="M153.134 103.923c29.092 9.519 33.577 26.765 10.018 38.52-23.56 11.756-66.239 13.565-95.322 4.046-29.084-9.519-33.578-26.765-10.022-38.516 23.556-11.751 66.238-13.569 95.326-4.05Z" fill="#FDFDFF"/><path style="mix-blend-mode:multiply" opacity=".25" d="M110.479 139.452c19.409 0 35.143-6.378 35.143-14.246 0-7.867-15.734-14.245-35.143-14.245s-35.143 6.378-35.143 14.245c0 7.868 15.734 14.246 35.143 14.246Z" fill="url(#f)"/><path d="M108.381 23.897c0 5.049-1.155 8.862-3.467 11.44-2.311 2.579-5.423 3.866-9.335 3.864-3.95 0-7.084-1.288-9.404-3.864-2.32-2.575-3.475-6.389-3.467-11.44v-7.86c0-5.05 1.147-8.863 3.442-11.435C88.447 2.029 91.566.74 95.51.734c3.928 0 7.053 1.294 9.375 3.88 2.323 2.587 3.483 6.395 3.48 11.424l.016 7.86Zm-8.529-8.448c0-2.858-.37-4.912-1.112-6.162a3.57 3.57 0 0 0-1.346-1.4 3.5 3.5 0 0 0-1.868-.476 3.435 3.435 0 0 0-1.864.471 3.505 3.505 0 0 0-1.333 1.405c-.72 1.25-1.078 3.304-1.076 6.162v8.987c0 2.908.363 4.983 1.088 6.225.316.585.786 1.07 1.358 1.398a3.486 3.486 0 0 0 1.88.46c.65.023 1.291-.14 1.854-.468a3.512 3.512 0 0 0 1.331-1.39c.728-1.245 1.09-3.32 1.088-6.225V15.45ZM113.484 22.229l2.126-20.956h21.605V7.95h-14.65l-.936 7.834c.726-.54 1.54-.95 2.404-1.207a11.29 11.29 0 0 1 3.165-.515c3.609-.066 6.384.999 8.325 3.195 1.94 2.197 2.91 5.317 2.907 9.362a12.815 12.815 0 0 1-3.312 8.921c-2.211 2.44-5.374 3.66-9.49 3.66a14.614 14.614 0 0 1-9.134-2.954 8.941 8.941 0 0 1-2.865-3.413 9.092 9.092 0 0 1-.881-4.393l.053-.153 8.35-.515c0 1.489.408 2.653 1.226 3.494.429.422.939.75 1.498.965.559.214 1.156.31 1.753.28 1.554 0 2.655-.553 3.304-1.66a8.23 8.23 0 0 0 .973-4.199c0-2.053-.363-3.67-1.088-4.85-.725-1.182-1.873-1.773-3.443-1.773a4.706 4.706 0 0 0-2.768.743 3.848 3.848 0 0 0-1.455 1.876l-7.667-.42ZM104.523 99.396c.445.408.687.954.725 1.516a2.302 2.302 0 0 1-.533 1.627c.38-.302.84-.458 1.307-.472a2.304 2.304 0 0 1 1.633.617l-.374.401.377-.402c.016.015.03.031.044.047.424.419.642.962.66 1.517a2.359 2.359 0 0 1-.436 1.443 2.137 2.137 0 0 1 2.388.313c.432.386.661.906.69 1.44a2.203 2.203 0 0 1-.513 1.531l-.995 1.194c.193.117.387.237.583.358 2.029 1.25 4.301 2.65 6 .62l-4.092-3.084.994-1.318 4.4 3.316.395-.093.078-.013c.558-.075.984-.286 1.292-.621.25-.274.439-.643.57-1.098l-5.563-3.751.924-1.37 5.814 3.92c.686-.177 1.222-.43 1.611-.761.29-.247.503-.545.638-.897l-6.991-5.001.956-1.344 7.291 5.217a2.056 2.056 0 0 0 1.162-.364c.281-.196.508-.462.672-.767a2.51 2.51 0 0 0 .293-1.013 2.211 2.211 0 0 0-.358-1.398.823.823 0 0 1-.276-.168c-2.36-1.955-4.67-3.712-7.08-5.234-2.374-1.496-4.857-2.775-7.604-3.804-.428.014-.799.011-1.12.008-1.058-.01-1.305-.012-2.093 1.532-.586 1.148-1.355 2.007-2.336 2.48-.931.447-2.014.531-3.267.167-1.856-.539-2.29-.983-1.964-2.106.09-.309.258-.61.48-1.006.057-.104.119-.216.273-.504.961-1.81 1.8-3.267 2.621-4.434a12.141 12.141 0 0 1-2.221-.444c-.749-.227-1.441-.523-2.297-.93l-5.888 10.6 2.326 2.405.885-1.021a2.31 2.31 0 0 1 1.526-.789 2.213 2.213 0 0 1 1.63.499c.01.007.005.004.04.034.451.392.714.933.769 1.491.038.389-.024.787-.192 1.148l.899-1.053-.001-.001.016-.019a.494.494 0 0 1 .04-.041c.404-.44.948-.68 1.505-.715a2.275 2.275 0 0 1 1.625.54l.001-.002.019.017a.317.317 0 0 1 .042.04Zm3.905 12.053-1.029 1.235-.047.053a2.022 2.022 0 0 1-1.419.669 2.141 2.141 0 0 1-1.476-.493l-.057-.049a2.075 2.075 0 0 1-.691-1.441 2.19 2.19 0 0 1 .28-1.192l-.109.125-.053.056c-.413.44-.97.667-1.535.682a2.308 2.308 0 0 1-1.609-.593l-.026-.024-.001.001a.49.49 0 0 1-.044-.047 2.22 2.22 0 0 1-.66-1.516c-.013-.383.07-.771.245-1.124a2.236 2.236 0 0 1-1.317.533 2.277 2.277 0 0 1-1.625-.54l-.001.001a.293.293 0 0 1-.02-.017l-.041-.039a2.252 2.252 0 0 1-.724-1.516 2.295 2.295 0 0 1 .548-1.647l.314-.368a2.305 2.305 0 0 1-1.193.474 2.22 2.22 0 0 1-1.63-.498h-.001l-.037-.033-.002-.002a2.272 2.272 0 0 1-.768-1.491 2.18 2.18 0 0 1 .517-1.647V101l.417-.48-2.495-2.583-1.015 1.744-.003.006-.014.024-.007.007a2.329 2.329 0 0 1-1.45 1.055 2.39 2.39 0 0 1-1.763-.254l-.006-.007-.025-.014-.007-.004-3.21-1.947a2.356 2.356 0 0 1-1.07-1.461 2.411 2.411 0 0 1 .259-1.79l10.174-17.474.004-.008.014-.023.006-.006a2.323 2.323 0 0 1 1.45-1.055 2.388 2.388 0 0 1 1.763.254l.006.003.025.014.006.007 3.211 1.947c.56.34.926.872 1.07 1.461.143.588.066 1.23-.26 1.79L99.846 84.7c.872.419 1.543.714 2.21.917.801.245 1.663.38 2.951.472l-.003.032c3.077-3.339 6.592-3.078 15.858-2.39l.444.034-.603-1.037a2.416 2.416 0 0 1-.26-1.79 2.356 2.356 0 0 1 1.07-1.46l3.211-1.948.006-.007.025-.014.006-.003a2.387 2.387 0 0 1 1.763-.255 2.328 2.328 0 0 1 1.45 1.056l.006.007.015.023.003.006 10.174 17.475c.326.56.403 1.203.259 1.79a2.354 2.354 0 0 1-1.07 1.461l-3.21 1.948-.008.003-.024.014-.006.006a2.386 2.386 0 0 1-1.763.255 2.324 2.324 0 0 1-1.451-1.056l-.006-.006-.014-.023-.003-.007-1.045-1.796-2.147 1.624a3.86 3.86 0 0 1 .486 2.184 4.159 4.159 0 0 1-.486 1.684 3.864 3.864 0 0 1-1.182 1.335 3.665 3.665 0 0 1-1.792.65c-.23.642-.61 1.19-1.141 1.642-.581.495-1.331.862-2.251 1.102-.201.726-.518 1.335-.959 1.816-.562.615-1.3 1-2.228 1.137l-.387.091c-2.565 3.931-5.725 1.984-8.53.255a70.201 70.201 0 0 0-.786-.478ZM89.7 98.848l10.17-17.469a.779.779 0 0 0 .084-.575.708.708 0 0 0-.32-.44L96.43 78.42v.002l-.025-.014h.001a.743.743 0 0 0-.543-.076.685.685 0 0 0-.424.299h.002l-.014.024-10.171 17.467a.778.778 0 0 0-.085.576c.043.179.153.339.32.44l3.212 1.948h-.001l.011.006.001-.002c.17.1.369.124.548.08a.685.685 0 0 0 .424-.298l.013-.024Zm33.729-14.716c.063.065.114.14.152.222l.81 1.43 7.909 13.585h.001l.013.024h-.001a.687.687 0 0 0 .425.3c.179.043.377.02.548-.08l.001.002.011-.007h-.001l3.211-1.948a.702.702 0 0 0 .321-.44.773.773 0 0 0-.085-.575l-10.171-17.468-.014-.024h.002a.682.682 0 0 0-.424-.3.748.748 0 0 0-.543.077h.001l-.024.015-.001-.002-3.205 1.943a.713.713 0 0 0-.32.44.78.78 0 0 0 .086.576l1.298 2.23Z" fill="#001C63"/><defs><radialGradient id="a" cx="0" cy="0" r="1" gradientUnits="userSpaceOnUse" gradientTransform="matrix(107.502 0 0 42.5488 110.479 212.745)"><stop stop-color="#2A48D0"/><stop offset="1" stop-color="#fff"/></radialGradient><radialGradient id="b" cx="0" cy="0" r="1" gradientUnits="userSpaceOnUse" gradientTransform="matrix(53.75844 -21.51545 14.84431 37.08996 116.51 179.794)"><stop stop-color="#8EDBDC"/><stop offset=".44" stop-color="#90DCDD"/><stop offset=".6" stop-color="#97DEDF"/><stop offset=".71" stop-color="#A2E2E2"/><stop offset=".8" stop-color="#B3E7E8"/><stop offset=".88" stop-color="#C9EEEE"/><stop offset=".95" stop-color="#E4F6F7"/><stop offset="1" stop-color="#fff"/></radialGradient><radialGradient id="c" cx="0" cy="0" r="1" gradientUnits="userSpaceOnUse" gradientTransform="matrix(53.75844 -21.51545 14.84431 37.08996 116.51 179.794)"><stop stop-color="#80E3C8"/><stop offset=".43" stop-color="#82E3C9"/><stop offset=".58" stop-color="#89E5CC"/><stop offset=".69" stop-color="#94E8D1"/><stop offset=".78" stop-color="#A5EBD8"/><stop offset=".86" stop-color="#BBF0E2"/><stop offset=".93" stop-color="#D7F6ED"/><stop offset=".99" stop-color="#F6FDFB"/><stop offset="1" stop-color="#fff"/></radialGradient><radialGradient id="d" cx="0" cy="0" r="1" gradientUnits="userSpaceOnUse" gradientTransform="matrix(53.75844 -21.51545 14.84431 37.08996 116.51 179.794)"><stop stop-color="#2A48D0"/><stop offset=".39" stop-color="#2C4AD0"/><stop offset=".53" stop-color="#334FD2"/><stop offset=".62" stop-color="#3E5AD5"/><stop offset=".71" stop-color="#4F68D8"/><stop offset=".77" stop-color="#657BDD"/><stop offset=".83" stop-color="#8192E3"/><stop offset=".89" stop-color="#A1AEEA"/><stop offset=".94" stop-color="#C7CFF3"/><stop offset=".99" stop-color="#F0F2FC"/><stop offset="1" stop-color="#fff"/></radialGradient><radialGradient id="e" cx="0" cy="0" r="1" gradientUnits="userSpaceOnUse" gradientTransform="matrix(67.5713 0 0 25.3728 110.479 155.56)"><stop stop-color="#2A48D0"/><stop offset="1" stop-color="#fff"/></radialGradient><radialGradient id="f" cx="0" cy="0" r="1" gradientUnits="userSpaceOnUse" gradientTransform="matrix(35.0369 0 0 13.1562 110.479 128.42)"><stop stop-color="#2A48D0"/><stop offset="1" stop-color="#fff"/></radialGradient></defs></svg>