<svg width="222" height="270" fill="none" xmlns="http://www.w3.org/2000/svg"><path style="mix-blend-mode:multiply" d="M180.642 189.744c47.405 15.503 54.691 43.595 16.33 62.733-38.361 19.137-107.887 22.1-155.272 6.597-47.384-15.502-54.687-43.599-16.318-62.745 38.37-19.146 107.875-22.092 155.26-6.585Z" fill="url(#a)"/><path d="M111.108 226.161c-22.787 0-44.286-3.096-62.15-8.947-25.13-8.224-39.555-20.922-40.618-35.76-.523-7.308 2.098-21.308 25.514-32.993 19.172-9.569 47.38-15.055 77.389-15.055 22.786 0 44.285 3.092 62.17 8.942 25.129 8.225 39.554 20.927 40.618 35.765.523 7.303-2.098 21.304-25.514 32.989-19.193 9.569-47.402 15.059-77.409 15.059Z" fill="#029894" style="mix-blend-mode:multiply" opacity=".2"/><path d="M170.984 149.932c40.794 13.35 47.086 37.533 14.049 54.019-33.037 16.486-92.89 19.03-133.703 5.681-40.815-13.349-47.087-37.537-14.05-54.023 33.038-16.486 92.906-19.026 133.704-5.677Z" fill="#029894" style="mix-blend-mode:multiply"/><path d="M158.807 156.008c32.494 10.631 37.503 29.877 11.191 43.027-26.311 13.149-73.982 15.154-106.476 4.518-32.493-10.635-37.502-29.876-11.19-43.022 26.31-13.146 73.982-15.154 106.475-4.523Z" fill="url(#b)"/><path d="M158.807 156.008c32.494 10.631 37.503 29.877 11.191 43.027-26.311 13.149-73.982 15.154-106.476 4.518-32.493-10.635-37.502-29.876-11.19-43.022 26.31-13.146 73.982-15.154 106.475-4.523Z" fill="url(#c)"/><path d="M158.807 156.008c32.494 10.631 37.503 29.877 11.191 43.027-26.311 13.149-73.982 15.154-106.476 4.518-32.493-10.635-37.502-29.876-11.19-43.022 26.31-13.146 73.982-15.154 106.475-4.523Z" fill="url(#d)"/><path d="M111.108 241.944c-22.787 0-44.286-3.091-62.15-8.946-25.13-8.221-39.555-20.922-40.618-35.761-.523-7.307 2.098-21.308 25.514-32.993 19.172-9.569 47.38-15.055 77.389-15.055 22.786 0 44.285 3.092 62.17 8.947 25.129 8.22 39.554 20.922 40.618 35.761.523 7.303-2.098 21.307-25.514 32.992-19.193 9.565-47.402 15.055-77.409 15.055Z" fill="#029894" style="mix-blend-mode:multiply" opacity=".2"/><path d="M178.945 152.394h-13.424a70.632 70.632 0 0 0-11.702-4.901c-29.092-9.519-71.77-7.706-95.326 4.046-.572.286-1.112.577-1.635.871H43.524v14.739c-1.227 8.515 7.36 17.134 24.987 22.91 29.091 9.519 71.77 7.706 95.326-4.046 10.173-5.079 15.104-11.179 15.096-17.237l.012-16.382Z" fill="#E6EFEC"/><path d="M153.819 131.11c29.087 9.519 33.573 26.764 10.017 38.516-23.555 11.751-66.238 13.569-95.326 4.05-29.088-9.52-33.573-26.765-10.017-38.521 23.555-11.755 66.234-13.564 95.326-4.045Z" fill="#F8FFFD"/><path style="mix-blend-mode:multiply" d="M111.092 179.892c37.474 0 67.853-12.311 67.853-27.499 0-15.187-30.379-27.498-67.853-27.498-37.475 0-67.854 12.311-67.854 27.498 0 15.188 30.38 27.499 67.854 27.499Z" fill="url(#e)"/><path d="M178.945 125.289h-13.424a70.585 70.585 0 0 0-11.702-4.918c-29.092-9.519-71.77-7.709-95.326 4.046-.572.286-1.112.577-1.635.872H43.524v14.735c-1.227 8.514 7.36 17.133 24.987 22.909 29.091 9.519 71.77 7.706 95.326-4.05 10.173-5.075 15.104-11.175 15.096-17.233l.012-16.361Z" fill="#E6EFEC"/><path d="M153.819 104.001c29.087 9.519 33.573 26.764 10.017 38.52-23.555 11.756-66.238 13.569-95.326 4.05-29.088-9.519-33.573-26.765-10.017-38.52 23.555-11.756 66.234-13.565 95.326-4.05Z" fill="#F8FFFD"/><path style="mix-blend-mode:multiply" opacity=".25" d="M111.091 139.534c19.409 0 35.143-6.378 35.143-14.246 0-7.867-15.734-14.245-35.143-14.245s-35.143 6.378-35.143 14.245c0 7.868 15.734 14.246 35.143 14.246Z" fill="url(#f)"/><path d="M108.989 23.897c0 5.049-1.156 8.862-3.467 11.44-2.312 2.579-5.423 3.864-9.335 3.855-3.95 0-7.084-1.288-9.404-3.863-2.32-2.575-3.476-6.389-3.468-11.44v-7.851c0-5.052 1.148-8.865 3.443-11.44 2.295-2.576 5.415-3.864 9.36-3.864 3.93 0 7.055 1.294 9.375 3.88 2.32 2.587 3.48 6.395 3.48 11.424l.016 7.86Zm-8.513-8.448c0-2.858-.371-4.912-1.112-6.162a3.57 3.57 0 0 0-1.346-1.4 3.5 3.5 0 0 0-1.868-.476c-.653-.023-1.3.14-1.866.472a3.516 3.516 0 0 0-1.335 1.404c-.715 1.25-1.073 3.304-1.076 6.162v8.987c0 2.908.364 4.983 1.092 6.225a3.553 3.553 0 0 0 1.357 1.4c.572.33 1.224.49 1.881.463a3.44 3.44 0 0 0 1.855-.47 3.509 3.509 0 0 0 1.33-1.393c.728-1.242 1.091-3.317 1.088-6.225V15.45ZM131.551 38.66h-8.521V9.98h-8.222V3.866l16.764-2.618-.021 37.412Z" fill="#029894"/><path fill-rule="evenodd" clip-rule="evenodd" d="M120.356 70.9a15.836 15.836 0 0 1 3.84 3.164 14.556 14.556 0 0 1 2.587 4.15c.349.86.626 1.747.828 2.654.458 2.06.494 4.191.108 6.266a17.146 17.146 0 0 1-.967 3.267l-.049.112c-.895 2.238-2.498 4.404-4.029 6.544-.778 1.083-1.553 2.153-2.202 3.191a2.106 2.106 0 0 1-1.938.976l-12.318 1.831a2.105 2.105 0 0 1-2.332-1.527 17.334 17.334 0 0 0-1.132-2.596 10.81 10.81 0 0 0-1.343-2.005c-.635-.725-1.284-1.468-1.929-2.305a18.152 18.152 0 0 1-1.853-3.097 18.433 18.433 0 0 1-1.253-3.581 15.932 15.932 0 0 1-.425-3.769c.013-1.319.189-2.631.523-3.907.358-1.37.87-2.694 1.527-3.948l.09-.161a15.701 15.701 0 0 1 3.182-3.876 14.982 14.982 0 0 1 4.22-2.6l.13-.05a15.736 15.736 0 0 1 3.581-.953 16.832 16.832 0 0 1 3.916-.09c1.274.116 2.53.373 3.747.766 1.218.38 2.389.899 3.491 1.544Zm-1.737 39.097a7.769 7.769 0 0 1-2.802 2.811 7.329 7.329 0 0 1-3.218.98 6.64 6.64 0 0 1-3.308-.645 6.747 6.747 0 0 1-1.96-1.459l11.288-1.687Zm1.074-6.316v.994c.034.484.034.97 0 1.455l-.223 1.065-13.679 2.032-.237-.546-.533-2.184v-.636l14.637-2.18h.035Zm-8.056-43.197a1.721 1.721 0 0 1 1.75-1.67h.116a1.727 1.727 0 0 1 1.58 1.737c.003.03.003.06 0 .09l-.094 3.666a1.13 1.13 0 0 1 0 .116A1.705 1.705 0 0 1 113.262 66h-.121a1.686 1.686 0 0 1-1.101-.524 1.72 1.72 0 0 1-.475-1.209.668.668 0 0 1 0-.09l.09-3.678-.018-.014Zm-18.87 6.432a1.746 1.746 0 0 1-.444-1.86 1.715 1.715 0 0 1 1.549-1.125c.453-.02.896.142 1.23.447l2.749 2.565a1.723 1.723 0 0 1 .094 2.426 1.75 1.75 0 0 1-1.2.546 1.71 1.71 0 0 1-1.226-.448l-2.753-2.55ZM88.29 85.814a1.729 1.729 0 0 1-1.79-1.666 1.692 1.692 0 0 1 .448-1.23 1.706 1.706 0 0 1 1.2-.538l3.75-.125a1.713 1.713 0 0 1 1.79 1.66v.09a1.728 1.728 0 0 1-.447 1.142 1.705 1.705 0 0 1-1.218.523h-.067l-3.706.126.04.017Zm47.266-5.322h.058c.429-.026.852.11 1.186.38.352.29.577.706.627 1.16v.053a1.718 1.718 0 0 1-1.54 1.79l-3.733.452a1.718 1.718 0 0 1-1.507-2.79 1.72 1.72 0 0 1 1.158-.625c1.245-.134 2.498-.277 3.747-.398l.004-.022Zm-7.394-14.941a1.701 1.701 0 0 1 1.759-.729 1.711 1.711 0 0 1 1.338 1.351c.087.447-.004.91-.255 1.29l-2.09 3.132a1.721 1.721 0 0 1-2.847-1.933l2.095-3.133v.022Zm-14.243 17.841h2.637a.693.693 0 0 1 .637.425.701.701 0 0 1-.064.65l-6.267 10.71a.673.673 0 0 1-.423.313.686.686 0 0 1-.797-.394.69.69 0 0 1-.046-.416l.926-6.57-3.133.053a.684.684 0 0 1-.698-.676.67.67 0 0 1 .094-.362l6.172-10.707a.694.694 0 0 1 .945-.241.678.678 0 0 1 .349.69l-.314 6.525h-.018Z" fill="#029894"/><defs><radialGradient id="a" cx="0" cy="0" r="1" gradientUnits="userSpaceOnUse" gradientTransform="matrix(107.502 0 0 42.5488 111.165 212.121)"><stop stop-color="#80E3C8"/><stop offset="1" stop-color="#fff"/></radialGradient><radialGradient id="b" cx="0" cy="0" r="1" gradientUnits="userSpaceOnUse" gradientTransform="rotate(-21.812 523.386 -203.921) scale(57.9042 39.9502)"><stop stop-color="#80E3C8"/><stop offset=".43" stop-color="#82E3C9"/><stop offset=".58" stop-color="#89E5CC"/><stop offset=".69" stop-color="#94E8D1"/><stop offset=".78" stop-color="#A5EBD8"/><stop offset=".86" stop-color="#BBF0E2"/><stop offset=".93" stop-color="#D7F6ED"/><stop offset=".99" stop-color="#F6FDFB"/><stop offset="1" stop-color="#fff"/></radialGradient><radialGradient id="c" cx="0" cy="0" r="1" gradientUnits="userSpaceOnUse" gradientTransform="rotate(-21.812 523.386 -203.921) scale(57.9042 39.9502)"><stop stop-color="#80E3C8"/><stop offset=".43" stop-color="#82E3C9"/><stop offset=".58" stop-color="#89E5CC"/><stop offset=".69" stop-color="#94E8D1"/><stop offset=".78" stop-color="#A5EBD8"/><stop offset=".86" stop-color="#BBF0E2"/><stop offset=".93" stop-color="#D7F6ED"/><stop offset=".99" stop-color="#F6FDFB"/><stop offset="1" stop-color="#fff"/></radialGradient><radialGradient id="d" cx="0" cy="0" r="1" gradientUnits="userSpaceOnUse" gradientTransform="rotate(-21.812 523.386 -203.921) scale(57.9042 39.9502)"><stop stop-color="#80E3C8"/><stop offset=".43" stop-color="#82E3C9"/><stop offset=".58" stop-color="#89E5CC"/><stop offset=".69" stop-color="#94E8D1"/><stop offset=".78" stop-color="#A5EBD8"/><stop offset=".86" stop-color="#BBF0E2"/><stop offset=".93" stop-color="#D7F6ED"/><stop offset=".99" stop-color="#F6FDFB"/><stop offset="1" stop-color="#fff"/></radialGradient><radialGradient id="e" cx="0" cy="0" r="1" gradientUnits="userSpaceOnUse" gradientTransform="matrix(67.6449 0 0 25.4004 111.092 155.642)"><stop stop-color="#80E3C8"/><stop offset="1" stop-color="#fff"/></radialGradient><radialGradient id="f" cx="0" cy="0" r="1" gradientUnits="userSpaceOnUse" gradientTransform="matrix(35.0368 0 0 13.1562 111.091 128.5)"><stop stop-color="#80E3C8"/><stop offset="1" stop-color="#fff"/></radialGradient></defs></svg>