<svg xmlns="http://www.w3.org/2000/svg" width="222" height="263" fill="none"><path fill="url(#a)" d="M180.562 182.908c47.381 15.507 54.688 43.6 16.318 62.746-38.369 19.146-107.886 22.1-155.271 6.593-47.385-15.507-54.688-43.595-16.319-62.745 38.37-19.15 107.887-22.096 155.272-6.594Z" style="mix-blend-mode:multiply"/><path fill="#001C63" d="M108.485 219.325c-22.786 0-44.285-3.091-62.15-8.942-25.129-8.225-39.554-20.926-40.617-35.765-.524-7.307 2.097-21.308 25.51-32.993 19.176-9.569 47.385-15.055 77.388-15.055 22.791 0 44.29 3.096 62.174 8.947 25.13 8.22 39.555 20.922 40.618 35.76.52 7.304-2.097 21.308-25.514 32.993-19.205 9.569-47.413 15.055-77.409 15.055Z" opacity=".2" style="mix-blend-mode:multiply"/><path fill="#001C63" d="M108.485 235.112c-22.786 0-44.285-3.095-62.15-8.946-25.129-8.224-39.554-20.922-40.617-35.761-.524-7.307 2.097-21.308 25.51-32.997 19.176-9.544 47.385-15.054 77.388-15.054 22.791 0 44.29 3.095 62.174 8.946 25.13 8.224 39.555 20.922 40.618 35.761.52 7.307-2.097 21.308-25.514 32.993-19.205 9.568-47.413 15.058-77.409 15.058Z" opacity=".2" style="mix-blend-mode:multiply"/><path fill="#001C63" d="M168.345 143.097c40.798 13.349 47.091 37.536 14.053 54.022-33.037 16.487-92.889 19.026-133.703 5.677-40.815-13.349-47.087-37.537-14.05-54.023 33.038-16.486 92.906-19.025 133.7-5.676Z" style="mix-blend-mode:multiply"/><g style="mix-blend-mode:multiply"><path fill="url(#b)" d="M156.172 149.172c32.489 10.635 37.502 29.897 11.191 43.026-26.311 13.129-73.983 15.154-106.476 4.523-32.494-10.631-37.503-29.877-11.191-43.026 26.311-13.15 73.982-15.154 106.476-4.523Z"/><path fill="url(#c)" d="M156.172 149.172c32.489 10.635 37.502 29.897 11.191 43.026-26.311 13.129-73.983 15.154-106.476 4.523-32.494-10.631-37.503-29.877-11.191-43.026 26.311-13.15 73.982-15.154 106.476-4.523Z"/><path fill="url(#d)" d="M156.172 149.172c32.489 10.635 37.502 29.897 11.191 43.026-26.311 13.129-73.983 15.154-106.476 4.523-32.494-10.631-37.503-29.877-11.191-43.026 26.311-13.15 73.982-15.154 106.476-4.523Z"/></g><path fill="#E6E6ED" d="M176.306 145.558h-13.42a71.418 71.418 0 0 0-11.706-4.917c-29.088-9.519-71.766-7.705-95.322 4.05-.572.287-1.116.577-1.656.867H40.885v14.744c-1.227 8.51 7.34 17.133 24.99 22.909 29.092 9.519 71.771 7.706 95.327-4.05 10.173-5.074 15.104-11.174 15.095-17.237l.009-16.366Z"/><path fill="#FAFAFF" d="M151.18 124.275c29.091 9.519 33.577 26.764 10.021 38.52-23.555 11.755-66.238 13.565-95.326 4.05-29.087-9.515-33.573-26.769-10.017-38.52 23.555-11.752 66.234-13.569 95.322-4.05Z"/><path fill="url(#e)" d="M108.457 173.057c37.474 0 67.853-12.312 67.853-27.499s-30.379-27.499-67.853-27.499c-37.474 0-67.853 12.312-67.853 27.499s30.379 27.499 67.853 27.499Z" style="mix-blend-mode:multiply"/><path fill="#E6E6ED" d="M176.306 118.453h-13.42a71 71 0 0 0-11.706-4.917c-29.088-9.519-71.766-7.706-95.322 4.05-.572.286-1.116.576-1.656.867H40.885v14.743c-1.227 8.511 7.34 17.134 24.99 22.91 29.092 9.519 71.771 7.705 95.327-4.05 10.173-5.075 15.104-11.175 15.095-17.237l.009-16.366Z"/><path fill="#FAFAFF" d="M151.18 97.153c29.091 9.519 33.577 26.764 10.021 38.52-23.555 11.755-66.238 13.564-95.326 4.045-29.087-9.519-33.573-26.764-10.017-38.515 23.555-11.752 66.234-13.553 95.322-4.05Z"/><path fill="url(#f)" d="M108.456 132.698c19.409 0 35.143-6.378 35.143-14.246 0-7.867-15.734-14.245-35.143-14.245-19.41 0-35.144 6.378-35.144 14.245 0 7.868 15.735 14.246 35.144 14.246Z" opacity=".25" style="mix-blend-mode:multiply"/><path fill="#001C63" d="M106.349 23.666c0 5.048-1.154 8.862-3.463 11.44-2.309 2.578-5.422 3.867-9.339 3.867-3.944 0-7.072-1.289-9.384-3.867-2.311-2.578-3.472-6.392-3.483-11.44v-7.843c0-5.051 1.146-8.865 3.438-11.44C86.411 1.807 89.532.52 93.482.52c3.93 0 7.056 1.292 9.375 3.875 2.32 2.584 3.478 6.393 3.476 11.428l.016 7.843Zm-8.525-8.444c0-2.858-.37-4.914-1.112-6.167a3.573 3.573 0 0 0-1.347-1.395 3.504 3.504 0 0 0-1.867-.476 3.435 3.435 0 0 0-1.866.468 3.504 3.504 0 0 0-1.336 1.403c-.714 1.253-1.072 3.309-1.075 6.167v8.983c0 2.913.363 4.988 1.088 6.225a3.57 3.57 0 0 0 1.358 1.398 3.5 3.5 0 0 0 1.88.465 3.45 3.45 0 0 0 1.856-.471 3.52 3.52 0 0 0 1.333-1.392c.725-1.243 1.088-3.317 1.088-6.225v-8.983ZM125.935.507c1.3-.014 2.598.11 3.872.37 1.278.296 2.531.695 3.746 1.194l-1.419 6.316c-1.182-.357-2.212-.627-3.099-.805a15.212 15.212 0 0 0-3.051-.27 6.012 6.012 0 0 0-2.68.518 6.093 6.093 0 0 0-2.189 1.653c-1.222 1.444-1.808 3.553-1.758 6.327l.077.13a7.39 7.39 0 0 1 2.96-2.005 11.546 11.546 0 0 1 4.2-.718c3.287 0 5.847 1.202 7.678 3.606 1.832 2.404 2.747 5.482 2.744 9.233 0 3.696-1.21 6.773-3.631 9.232-2.42 2.46-5.51 3.688-9.269 3.685-4.034 0-7.29-1.344-9.768-4.033-2.478-2.689-3.718-6.37-3.721-11.042v-7.523c0-4.93 1.43-8.803 4.289-11.619 2.86-2.816 6.533-4.232 11.019-4.249Zm-1.696 19.387a8.58 8.58 0 0 0-3.047.485 4.776 4.776 0 0 0-2.011 1.353v2.2c0 2.696.435 4.771 1.304 6.224a4.088 4.088 0 0 0 1.517 1.597c.64.38 1.372.576 2.114.564 1.281 0 2.326-.614 3.136-1.842a7.765 7.765 0 0 0 1.227-4.374c0-1.892-.393-3.397-1.178-4.514a3.614 3.614 0 0 0-1.315-1.25 3.548 3.548 0 0 0-1.747-.443Z"/><path fill="#001C63" fill-rule="evenodd" d="M80.408 86.194h14.196v25.634H80.408V86.194Zm48.803-13.014c5.151 0 9.33 4.235 9.33 9.469 0 5.228-4.173 9.47-9.33 9.47-5.152 0-9.331-4.236-9.331-9.47 0-5.228 4.174-9.47 9.331-9.47ZM112.836 61.29c4.443 0 8.05 3.656 8.05 8.17 0 4.508-3.601 8.17-8.05 8.17-4.442 0-8.049-3.656-8.049-8.17 0-4.509 3.601-8.17 8.049-8.17Zm.818 9.904c0-.266-.063-.47-.194-.62-.132-.151-.355-.29-.675-.424-.32-.133-.617-.267-.886-.4a3.185 3.185 0 0 1-.703-.476c-.2-.18-.349-.389-.452-.62-.109-.239-.154-.523-.154-.86 0-.562.188-1.027.56-1.386.372-.36.869-.58 1.492-.639v-.754h.783v.772c.601.087 1.075.336 1.418.748.343.412.515.934.515 1.561h-1.675c0-.348-.069-.615-.2-.8a.65.65 0 0 0-.561-.28c-.217 0-.389.07-.503.204-.12.14-.177.33-.177.569 0 .243.068.44.206.586.143.145.36.284.663.417.303.134.595.267.863.406a3.4 3.4 0 0 1 .698.482c.2.18.354.395.463.633.108.237.171.522.171.864 0 .569-.177 1.033-.537 1.393-.36.36-.841.568-1.452.626v.708h-.778v-.708c-.714-.081-1.263-.325-1.646-.742-.383-.424-.578-.975-.578-1.666h1.664c0 .383.08.668.246.87.166.198.4.302.703.302.223 0 .394-.07.526-.203.126-.139.194-.325.2-.563Zm16.5 13.462c0-.308-.074-.546-.223-.72-.149-.174-.406-.336-.783-.493-.372-.15-.715-.313-1.029-.464a3.56 3.56 0 0 1-.818-.552 2.213 2.213 0 0 1-.526-.719c-.126-.273-.177-.603-.177-.992 0-.656.217-1.19.652-1.607.428-.418 1.006-.668 1.726-.737v-.876h.909v.899c.692.104 1.241.395 1.641.87.4.476.601 1.08.601 1.81h-1.933c0-.405-.08-.707-.229-.928-.148-.214-.371-.325-.651-.325-.252 0-.446.082-.584.238-.137.157-.205.383-.205.662 0 .284.08.51.24.678.16.169.411.331.766.482.354.151.686.313 1 .47.315.163.584.354.812.557.229.209.406.453.538.731.131.279.194.61.194.998 0 .662-.206 1.201-.623 1.613-.412.412-.972.662-1.687.726v.818h-.909v-.824c-.829-.093-1.463-.377-1.909-.865-.441-.487-.664-1.131-.664-1.932h1.927c0 .441.097.772.286 1.004.189.226.463.348.818.348a.833.833 0 0 0 .611-.232c.149-.151.223-.366.229-.638Zm-.943-9.615c4.133 0 7.489 3.4 7.489 7.601 0 4.195-3.35 7.601-7.489 7.601-4.134 0-7.49-3.4-7.49-7.6 0-4.202 3.356-7.602 7.49-7.602Zm-31.748 34.634V88.254h9.496c4.025.731 8.05 2.947 12.075 5.518h7.375c3.339.203 5.089 3.638 1.841 5.895-2.584 1.926-5.997 1.816-9.496 1.497-2.413-.122-2.516 3.168 0 3.179.875.07 1.824-.139 2.653-.139 4.368-.006 7.958-.853 10.159-4.351l1.104-2.617 10.971-5.518c5.489-1.834 9.388 3.992 5.346 8.047-7.947 5.867-16.094 10.694-24.43 14.593-6.055 3.737-12.109 3.609-18.158 0l-8.936-4.682Z" clip-rule="evenodd"/><defs><radialGradient id="a" cx="0" cy="0" r="1" gradientTransform="matrix(107.502 0 0 42.5488 111.085 204.516)" gradientUnits="userSpaceOnUse"><stop stop-color="#1628B1"/><stop offset="1" stop-color="#fff"/></radialGradient><radialGradient id="b" cx="0" cy="0" r="1" gradientTransform="matrix(53.75844 -21.51545 14.84431 37.08996 115.532 172.235)" gradientUnits="userSpaceOnUse"><stop stop-color="#80E3C8"/><stop offset=".43" stop-color="#82E3C9"/><stop offset=".58" stop-color="#89E5CC"/><stop offset=".69" stop-color="#94E8D1"/><stop offset=".78" stop-color="#A5EBD8"/><stop offset=".86" stop-color="#BBF0E2"/><stop offset=".93" stop-color="#D7F6ED"/><stop offset=".99" stop-color="#F6FDFB"/><stop offset="1" stop-color="#fff"/></radialGradient><radialGradient id="c" cx="0" cy="0" r="1" gradientTransform="matrix(53.75844 -21.51545 14.84431 37.08996 115.532 172.235)" gradientUnits="userSpaceOnUse"><stop stop-color="#80E3C8"/><stop offset=".43" stop-color="#82E3C9"/><stop offset=".58" stop-color="#89E5CC"/><stop offset=".69" stop-color="#94E8D1"/><stop offset=".78" stop-color="#A5EBD8"/><stop offset=".86" stop-color="#BBF0E2"/><stop offset=".93" stop-color="#D7F6ED"/><stop offset=".99" stop-color="#F6FDFB"/><stop offset="1" stop-color="#fff"/></radialGradient><radialGradient id="d" cx="0" cy="0" r="1" gradientTransform="matrix(53.75844 -21.51545 14.84431 37.08996 115.532 172.235)" gradientUnits="userSpaceOnUse"><stop stop-color="#1628B1"/><stop offset=".38" stop-color="#182AB2"/><stop offset=".52" stop-color="#1F30B4"/><stop offset=".61" stop-color="#2A3BB8"/><stop offset=".69" stop-color="#3B4BBE"/><stop offset=".76" stop-color="#515FC5"/><stop offset=".82" stop-color="#6D78CE"/><stop offset=".87" stop-color="#8D96D9"/><stop offset=".92" stop-color="#B3B9E5"/><stop offset=".97" stop-color="#DCDFF3"/><stop offset="1" stop-color="#fff"/></radialGradient><radialGradient id="e" cx="0" cy="0" r="1" gradientTransform="matrix(67.6449 0 0 25.4005 108.457 149.012)" gradientUnits="userSpaceOnUse"><stop stop-color="#1628B1"/><stop offset="1" stop-color="#fff"/></radialGradient><radialGradient id="f" cx="0" cy="0" r="1" gradientTransform="matrix(35.0368 0 0 13.1562 108.456 121.87)" gradientUnits="userSpaceOnUse"><stop stop-color="#1628B1"/><stop offset="1" stop-color="#fff"/></radialGradient></defs></svg>