<svg width="41" height="40" viewBox="0 0 41 40" fill="none" xmlns="http://www.w3.org/2000/svg">
<path d="M20.697 0.537109C9.81886 0.537109 0.96875 9.38722 0.96875 20.2654C0.96875 31.1436 9.81886 39.9937 20.697 39.9937C31.5752 39.9937 40.4253 31.1436 40.4253 20.2654C40.4253 9.38722 31.5752 0.537109 20.697 0.537109ZM27.5881 14.3469C27.9815 14.3369 28.3729 14.4057 28.7392 14.5493C29.1055 14.6929 29.4394 14.9084 29.7211 15.1831C30.0028 15.4578 30.2267 15.7862 30.3795 16.1488C30.5323 16.5114 30.6109 16.9009 30.6108 17.2943C30.6107 17.6878 30.5318 18.0773 30.3787 18.4398C30.2257 18.8023 30.0016 19.1304 29.7197 19.405C29.4378 19.6795 29.1038 19.8948 28.7374 20.0381C28.3709 20.1815 27.9795 20.2501 27.5862 20.2398C26.8179 20.2196 26.0879 19.9002 25.5518 19.3497C25.0156 18.7991 24.7157 18.0609 24.716 17.2924C24.7162 16.5239 25.0166 15.7859 25.5532 15.2357C26.0897 14.6854 26.8199 14.3665 27.5881 14.3469ZM13.7921 14.3469C14.1809 14.347 14.5658 14.4237 14.9249 14.5726C15.284 14.7215 15.6103 14.9397 15.885 15.2146C16.1598 15.4896 16.3778 15.816 16.5264 16.1752C16.6751 16.5344 16.7515 16.9194 16.7514 17.3081C16.7513 17.6969 16.6746 18.0818 16.5257 18.4409C16.3768 18.8 16.1586 19.1263 15.8837 19.401C15.6087 19.6758 15.2823 19.8938 14.9231 20.0424C14.5639 20.1911 14.1789 20.2675 13.7902 20.2674C13.0051 20.2671 12.2522 19.955 11.6973 19.3996C11.1423 18.8443 10.8307 18.0913 10.8309 17.3062C10.8312 16.5211 11.1433 15.7682 11.6987 15.2132C12.254 14.6583 13.007 14.3467 13.7921 14.3469ZM20.697 32.1024C12.8057 32.1024 10.8329 24.2111 10.8329 24.2111H30.5612C30.5612 24.2111 28.5884 32.1024 20.697 32.1024Z" fill="#029894"/>
</svg>
