<svg width="48" height="49" viewBox="0 0 48 49" fill="none" xmlns="http://www.w3.org/2000/svg">
<path d="M24.197 4.82739C13.3189 4.82739 4.46875 13.6775 4.46875 24.5557C4.46875 35.4339 13.3189 44.284 24.197 44.284C35.0752 44.284 43.9253 35.4339 43.9253 24.5557C43.9253 13.6775 35.0752 4.82739 24.197 4.82739ZM31.0881 18.6372C31.4815 18.6272 31.8729 18.696 32.2392 18.8396C32.6055 18.9832 32.9394 19.1987 33.2211 19.4734C33.5028 19.7481 33.7267 20.0764 33.8795 20.439C34.0323 20.8016 34.1109 21.1912 34.1108 21.5846C34.1107 21.9781 34.0317 22.3676 33.8787 22.7301C33.7257 23.0926 33.5016 23.4207 33.2197 23.6952C32.9378 23.9698 32.6038 24.185 32.2374 24.3284C31.8709 24.4718 31.4795 24.5403 31.0862 24.53C30.3179 24.5099 29.5879 24.1905 29.0518 23.6399C28.5156 23.0894 28.2157 22.3512 28.216 21.5827C28.2162 20.8142 28.5166 20.0762 29.0532 19.5259C29.5897 18.9757 30.3199 18.6568 31.0881 18.6372ZM17.2921 18.6372C17.6809 18.6373 18.0658 18.714 18.4249 18.8629C18.784 19.0118 19.1103 19.23 19.385 19.5049C19.6598 19.7799 19.8778 20.1063 20.0264 20.4655C20.1751 20.8247 20.2515 21.2097 20.2514 21.5984C20.2513 21.9872 20.1746 22.3721 20.0257 22.7312C19.8768 23.0903 19.6586 23.4165 19.3837 23.6913C19.1087 23.9661 18.7823 24.1841 18.4231 24.3327C18.0639 24.4813 17.6789 24.5578 17.2902 24.5577C16.5051 24.5574 15.7522 24.2453 15.1973 23.6899C14.6423 23.1346 14.3307 22.3815 14.3309 21.5964C14.3312 20.8113 14.6433 20.0585 15.1987 19.5035C15.754 18.9486 16.507 18.6369 17.2921 18.6372ZM24.197 36.3927C16.3057 36.3927 14.3329 28.5013 14.3329 28.5013H34.0612C34.0612 28.5013 32.0884 36.3927 24.197 36.3927Z" fill="#029894"/>
</svg>
