<svg width="61" height="39" viewBox="0 0 61 39" fill="none" xmlns="http://www.w3.org/2000/svg">
<g clip-path="url(#clip0_4077_241)">
<path d="M0.67945 36.3242C0.906791 36.1057 1.13327 35.8871 1.41552 35.615C3.42213 35.615 5.46476 35.615 7.46794 35.615C7.37957 34.9741 7.23287 34.4014 7.23116 33.8286C7.21572 25.8969 7.22001 17.9652 7.22172 10.0335C7.22172 8.48896 7.45507 8.24795 9.00528 8.23845C10.9759 8.22636 12.9464 8.23586 15.0603 8.23586C14.9033 8.9131 14.7806 9.44523 14.6348 10.0732C12.8255 10.0732 11.0736 10.0732 9.26093 10.0732C9.26093 18.1345 9.26093 26.0835 9.26093 34.118C23.4624 34.118 37.6408 34.118 51.9127 34.118C51.9127 26.1388 51.9127 18.1673 51.9127 10.0974C50.1814 10.0974 48.4983 10.0974 46.743 10.0974C46.5508 9.50656 46.3793 8.98221 46.1725 8.3447C46.5097 8.28596 46.767 8.20303 47.0244 8.20131C48.7908 8.19008 50.5572 8.17971 52.3227 8.20044C53.4869 8.21426 53.8652 8.57707 53.8669 9.73807C53.8789 17.8477 53.8764 25.9574 53.8644 34.0662C53.8635 34.5154 53.7365 34.9637 53.6482 35.539C55.388 35.539 57.1158 35.4708 58.8324 35.5753C59.4604 35.6133 60.0643 36.0625 60.6786 36.3242C60.6786 36.751 60.6786 37.1786 60.6786 37.6053C60.3955 37.8904 60.1132 38.1746 59.8301 38.4596C40.3955 38.4596 20.9608 38.4596 1.52619 38.4596C1.24308 38.1746 0.960838 37.8904 0.677734 37.6053C0.67945 37.1777 0.67945 36.751 0.67945 36.3242ZM28.5463 37.4628C30.0313 37.4628 31.3799 37.4628 32.8649 37.4628C32.8426 36.9816 32.8255 36.6007 32.8066 36.1895C31.3156 36.1895 29.9635 36.1895 28.4734 36.1895C28.5008 36.6689 28.5231 37.0507 28.5463 37.4628Z" fill="#029894"/>
<path d="M33.3297 0.458801C33.4678 1.03066 33.6059 1.60338 33.7724 2.29013C35.8124 2.29013 37.9469 2.29013 40.1302 2.29013C41.5569 0.678215 42.86 0.432023 44.0087 1.60511C44.9181 2.53373 44.8658 4.06185 43.8929 4.93864C42.7356 5.98215 41.4222 5.66253 40.0453 3.98065C39.1539 3.98065 38.2394 3.98065 37.0632 3.98065C40.3378 6.23525 42.3367 9.15328 43.0402 12.9524C43.3421 12.993 43.6192 13.0034 43.88 13.0734C44.1074 13.1338 44.3167 13.2617 44.5689 13.3766C44.5689 14.6818 44.5689 15.9473 44.5689 17.3942C43.1577 17.3942 41.8039 17.3942 40.3172 17.3942C40.3172 16.0277 40.3172 14.706 40.3172 13.3031C40.7196 13.1701 41.1065 13.0414 41.4908 12.9144C40.6741 8.68594 37.0212 4.65098 33.708 4.3711C33.6454 4.80647 33.5819 5.24616 33.5004 5.80679C31.8095 5.80679 30.1478 5.80679 28.3968 5.80679C28.3093 5.28935 28.2295 4.81511 28.1498 4.34259C24.7671 4.76414 20.7788 9.23275 20.4897 12.9109C20.8414 13.0405 21.194 13.1701 21.6924 13.3532C21.6924 14.5229 21.7387 15.6873 21.6564 16.8423C21.6384 17.1005 21.182 17.5117 20.904 17.5333C19.8222 17.6145 18.7301 17.5661 17.7238 17.5661C17.1147 16.685 17.0315 14.4037 17.5282 13.1934C17.8877 13.1286 18.296 13.0552 18.8399 12.9567C19.6 9.31395 21.5003 6.30349 24.8194 4.02384C23.5266 4.02384 22.4517 4.02384 21.3261 4.02384C19.6978 5.65476 18.3561 5.89404 17.282 4.70454C16.413 3.74137 16.5391 2.22361 17.5591 1.38051C18.7293 0.413018 20.0804 0.757687 21.2661 2.38947C22.3719 2.38947 23.5352 2.38947 24.6976 2.38947C25.8223 2.38947 26.9479 2.38947 27.9945 2.38947C28.2433 1.67249 28.4543 1.06521 28.6654 0.458801C30.2199 0.458801 31.7752 0.458801 33.3297 0.458801Z" fill="#029894"/>
<path d="M26.94 25.9851C26.1688 24.0855 25.4507 22.3172 24.7979 20.7088C26.4879 16.838 28.1145 13.1114 29.8148 9.21722C29.8817 9.22413 30.2086 9.25782 30.5817 9.2967C30.5817 12.5819 30.5817 15.7729 30.5817 19.0761C30.2111 19.5582 29.4879 20.1672 30.3381 20.8496C30.5989 21.0586 31.3667 21.0224 31.6069 20.7891C32.3155 20.1024 31.7485 19.5288 31.2106 19.0571C31.2106 15.8618 31.2106 12.7019 31.2106 9.44009C31.6026 9.3969 31.9681 9.35716 32.1766 9.33384C33.7903 13.1252 35.3653 16.8267 37.0485 20.7805C36.4514 22.3095 35.7299 24.1563 35.0162 25.9851C32.3164 25.9851 29.6801 25.9851 26.94 25.9851Z" fill="#029894"/>
<path d="M27.041 26.9223C29.6542 26.9223 32.1738 26.9223 34.7612 26.9223C34.7612 27.4181 34.7612 27.8587 34.7612 28.3848C32.2064 28.3848 29.6619 28.3848 27.041 28.3848C27.041 27.9019 27.041 27.4112 27.041 26.9223Z" fill="#029894"/>
</g>
<defs>
<clipPath id="clip0_4077_241">
<rect width="60" height="38" fill="white" transform="translate(0.679688 0.458801)"/>
</clipPath>
</defs>
</svg>
