<svg width="37" height="43" viewBox="0 0 37 43" fill="none" xmlns="http://www.w3.org/2000/svg">
<g clip-path="url(#clip0_4077_236)">
<path d="M27.6464 22.0394C32.0378 22.4307 35.9238 26.1877 36.1495 30.56C36.3517 34.4634 36.1922 38.3851 36.1922 42.4131C24.3905 42.4131 12.5878 42.4131 0.786946 42.4131C0.786946 38.2047 0.474952 33.9989 0.874096 29.861C1.27585 25.6988 5.19322 22.3854 9.20383 22.0551C15.055 26.9075 22.6065 26.3132 27.6464 22.0394ZM19.2748 27.7747C18.1619 31.6641 17.103 35.3662 16.0128 39.179C16.7457 39.403 17.3819 39.5973 18.1471 39.8318C19.2513 35.9719 20.3189 32.2376 21.4108 28.4204C20.6474 28.1895 20.0443 28.0074 19.2748 27.7747ZM12.1181 30.1312C10.8353 31.4498 9.66136 32.6576 8.53626 33.8141C9.67269 34.9924 10.8666 36.229 11.997 37.4012C12.5286 36.982 13.0611 36.5628 13.6676 36.0844C12.9007 35.273 12.2497 34.5845 11.5647 33.8594C12.2549 33.1204 12.8972 32.4328 13.6145 31.665C13.068 31.1055 12.5992 30.6244 12.1181 30.1312ZM28.2956 34.0573C27.0651 32.7291 25.9234 31.4968 24.7373 30.2175C24.2606 30.7168 23.7979 31.2014 23.3098 31.7129C24.0427 32.4851 24.6685 33.1439 25.3369 33.8481C24.6449 34.5871 23.9966 35.2808 23.2715 36.0556C23.8214 36.6142 24.2946 37.0953 24.7408 37.5485C26.0533 36.2595 27.2577 35.076 28.2956 34.0573Z" fill="#029894"/>
<path d="M8.21829 11.1622C8.23224 5.55766 12.8372 0.984065 18.4618 0.987551C24.0838 0.991037 28.6958 5.58991 28.6844 11.1814C28.6731 16.7677 24.0315 21.384 18.4357 21.3753C12.8276 21.3666 8.20435 16.7459 8.21829 11.1622Z" fill="#029894"/>
</g>
<defs>
<clipPath id="clip0_4077_236">
<rect width="35.5813" height="41.4256" fill="white" transform="translate(0.670898 0.987549)"/>
</clipPath>
</defs>
</svg>
