<svg width="33" height="63" viewBox="0 0 33 63" fill="none" xmlns="http://www.w3.org/2000/svg">
<path d="M17.2354 0.831055V40.6465" stroke="#001C63" stroke-dasharray="2 2"/>
<path d="M16.6008 62.6465C7.87864 62.6465 0.807896 55.5757 0.807896 46.8535C0.807896 38.1313 7.87864 31.0605 16.6008 31.0605C25.3231 31.0605 32.3938 38.1313 32.3938 46.8535C32.3938 55.5757 25.3231 62.6465 16.6008 62.6465Z" fill="#111534" fill-opacity="0.35"/>
<path d="M16.601 62.2956C8.07259 62.2956 1.15897 55.382 1.15897 46.8536C1.15897 38.3252 8.07259 31.4116 16.601 31.4116C25.1294 31.4116 32.043 38.3252 32.043 46.8536C32.043 55.382 25.1294 62.2956 16.601 62.2956Z" stroke="#383E80" stroke-width="0.986978"/>
<path opacity="0.8" d="M16.8938 53.6465C13.3039 53.6465 10.3938 50.7363 10.3938 47.1465C10.3938 43.5566 13.3039 40.6465 16.8938 40.6465C20.4836 40.6465 23.3938 43.5566 23.3938 47.1465C23.3938 50.7363 20.4836 53.6465 16.8938 53.6465Z" fill="#029894"/>
</svg>
