<svg width="41" height="41" viewBox="0 0 41 41" fill="none" xmlns="http://www.w3.org/2000/svg">
<path d="M20.4714 16.3675C22.6373 16.3675 24.7145 15.5071 26.2461 13.9756C27.7776 12.444 28.638 10.3668 28.638 8.20085C28.638 6.03491 27.7776 3.95769 26.2461 2.42614C24.7145 0.894594 22.6373 0.0341797 20.4714 0.0341797C18.3054 0.0341797 16.2282 0.894594 14.6966 2.42614C13.1651 3.95769 12.3047 6.03491 12.3047 8.20085C12.3047 10.3668 13.1651 12.444 14.6966 13.9756C16.2282 15.5071 18.3054 16.3675 20.4714 16.3675ZM7.20052 22.4925C8.55423 22.4925 9.85249 21.9548 10.8097 20.9975C11.7669 20.0403 12.3047 18.7421 12.3047 17.3883C12.3047 16.0346 11.7669 14.7364 10.8097 13.7792C9.85249 12.8219 8.55423 12.2842 7.20052 12.2842C5.84681 12.2842 4.54855 12.8219 3.59133 13.7792C2.63411 14.7364 2.09635 16.0346 2.09635 17.3883C2.09635 18.7421 2.63411 20.0403 3.59133 20.9975C4.54855 21.9548 5.84681 22.4925 7.20052 22.4925ZM38.8464 17.3883C38.8464 18.7421 38.3086 20.0403 37.3514 20.9975C36.3942 21.9548 35.0959 22.4925 33.7422 22.4925C32.3885 22.4925 31.0902 21.9548 30.133 20.9975C29.1758 20.0403 28.638 18.7421 28.638 17.3883C28.638 16.0346 29.1758 14.7364 30.133 13.7792C31.0902 12.8219 32.3885 12.2842 33.7422 12.2842C35.0959 12.2842 36.3942 12.8219 37.3514 13.7792C38.3086 14.7364 38.8464 16.0346 38.8464 17.3883ZM20.4714 18.4092C23.1788 18.4092 25.7753 19.4847 27.6897 21.3991C29.6042 23.3136 30.6797 25.9101 30.6797 28.6175V40.8675H10.263V28.6175C10.263 25.9101 11.3385 23.3136 13.253 21.3991C15.1674 19.4847 17.7639 18.4092 20.4714 18.4092ZM6.17969 28.6175C6.17969 27.2026 6.38385 25.8368 6.76769 24.5464L6.4206 24.575C4.67065 24.7672 3.05321 25.5985 1.87843 26.9097C0.703655 28.2209 0.0542307 29.9195 0.0546877 31.68V40.8675H6.17969V28.6175ZM40.888 40.8675V31.68C40.8882 29.8596 40.1937 28.1077 38.9461 26.782C37.6986 25.4563 35.9921 24.6567 34.175 24.5464C34.5568 25.8368 34.763 27.2026 34.763 28.6175V40.8675H40.888Z" fill="#029894"/>
</svg>
