<svg width="42" height="48" viewBox="0 0 42 48" fill="none" xmlns="http://www.w3.org/2000/svg">
<path d="M30.4019 42.9046C24.4844 46.1474 19.6035 46.1441 13.1245 43.9844C6.56345 41.7967 2.32617 34.2659 2.32617 28.8667C2.32617 25.9037 6.76862 24.1457 8.29658 23.6295C8.44389 23.5808 8.5722 23.487 8.66343 23.3615C8.75467 23.236 8.80425 23.085 8.80519 22.9298V14.8289C8.80519 14.3326 8.90294 13.8411 9.09288 13.3826C9.28281 12.924 9.5612 12.5074 9.91215 12.1564C10.2631 11.8055 10.6797 11.5271 11.1383 11.3371C11.5968 11.1472 12.0883 11.0495 12.5846 11.0495C13.0809 11.0495 13.5724 11.1472 14.0309 11.3371C14.4895 11.5271 14.9061 11.8055 15.2571 12.1564C15.608 12.5074 15.8864 12.924 16.0763 13.3826C16.2663 13.8411 16.364 14.3326 16.364 14.8289V12.1293C16.364 11.1269 16.7622 10.1656 17.471 9.45683C18.1798 8.74805 19.1411 8.34986 20.1435 8.34986C21.1458 8.34986 22.1071 8.74805 22.8159 9.45683C23.5247 10.1656 23.9229 11.1269 23.9229 12.1293V14.8289C23.9229 13.8265 24.3211 12.8652 25.0299 12.1564C25.7386 11.4476 26.6999 11.0495 27.7023 11.0495C28.7047 11.0495 29.666 11.4476 30.3748 12.1564C31.0835 12.8652 31.4817 13.8265 31.4817 14.8289V6.73011C31.4817 5.72774 31.8799 4.76643 32.5887 4.05765C33.2975 3.34887 34.2588 2.95068 35.2612 2.95068C36.2635 2.95068 37.2248 3.34887 37.9336 4.05765C38.6424 4.76643 39.0406 5.72774 39.0406 6.73011V29.1173C39.0406 31.7866 38.4013 34.4387 36.8399 36.6048C35.2525 38.8066 32.9471 41.5095 30.4019 42.9046Z" fill="#029894" stroke="#046D6B" stroke-width="4" stroke-linecap="round" stroke-linejoin="round"/>
</svg>
