<svg width="44" height="39" viewBox="0 0 44 39" fill="none" xmlns="http://www.w3.org/2000/svg">
<path d="M21.7407 8.53583V0.027832H0.470703V38.3138H43.0107V8.53583H21.7407ZM8.9787 34.0598H4.7247V29.8058H8.9787V34.0598ZM8.9787 25.5518H4.7247V21.2978H8.9787V25.5518ZM8.9787 17.0438H4.7247V12.7898H8.9787V17.0438ZM8.9787 8.53583H4.7247V4.28183H8.9787V8.53583ZM17.4867 34.0598H13.2327V29.8058H17.4867V34.0598ZM17.4867 25.5518H13.2327V21.2978H17.4867V25.5518ZM17.4867 17.0438H13.2327V12.7898H17.4867V17.0438ZM17.4867 8.53583H13.2327V4.28183H17.4867V8.53583ZM38.7567 34.0598H21.7407V29.8058H25.9947V25.5518H21.7407V21.2978H25.9947V17.0438H21.7407V12.7898H38.7567V34.0598ZM34.5027 17.0438H30.2487V21.2978H34.5027V17.0438ZM34.5027 25.5518H30.2487V29.8058H34.5027V25.5518Z" fill="#029894"/>
</svg>
