<svg width="40" height="42" viewBox="0 0 40 42" fill="none" xmlns="http://www.w3.org/2000/svg">
<g clip-path="url(#clip0_4077_247)">
<path d="M39.6913 28.6778C38.7202 28.6778 37.8794 28.6778 36.9766 28.6778C36.9766 21.1661 36.9766 13.6886 36.9766 6.11833C37.3283 6.11833 37.6528 6.1122 37.9774 6.1192C39.1935 6.14545 39.6869 6.631 39.6887 7.84532C39.6948 12.2171 39.6913 16.5888 39.6913 20.9605C39.6913 23.5064 39.6913 26.0505 39.6913 28.6778Z" fill="#029894"/>
<path d="M5.41783 0.458801C15.0782 0.458801 24.7376 0.458801 34.398 0.458801C35.2667 0.854243 35.4723 1.55939 35.4706 2.46138C35.4504 10.9004 35.4592 19.3385 35.4574 27.7775C35.4574 28.0706 35.4329 28.3628 35.4207 28.6472C25.0316 28.6472 14.7265 28.6472 4.40035 28.6472C4.38286 28.4678 4.36186 28.3506 4.36186 28.2333C4.35836 19.552 4.36273 10.8698 4.34961 2.18842C4.34874 1.35904 4.69256 0.807875 5.41783 0.458801ZM14.1044 19.8976C14.541 19.8976 14.8883 19.8626 15.2269 19.9028C18.2067 20.2633 21.1821 20.6692 24.1672 20.985C24.91 21.0638 25.2459 21.2536 25.4244 22.0331C25.7901 23.628 27.4742 24.2824 28.7603 23.4076C29.7541 22.7313 29.8819 21.7593 29.6334 20.664C28.3631 15.0517 27.1085 9.43498 25.833 3.82356C25.4953 2.33978 24.4787 1.64688 23.1392 1.91809C21.8952 2.16918 21.2049 3.35813 21.5496 4.82091C21.6808 5.37908 21.5277 5.63367 21.0772 5.91013C19.1402 7.1017 17.1857 8.27228 15.31 9.55572C13.7335 10.6344 12.0791 11.4393 10.1806 11.7149C9.8823 11.7586 9.5866 11.8321 9.29439 11.9109C7.16932 12.4874 5.82027 14.112 5.7879 16.1251C5.75378 18.2467 6.99697 19.9256 9.14041 20.5406C9.63996 20.6841 9.80006 20.9369 9.89543 21.3936C10.1981 22.8459 10.5577 24.2868 10.8578 25.74C11.0161 26.5046 11.3985 26.7531 12.1561 26.5431C12.8551 26.3489 13.5699 26.2045 14.2847 26.0777C15.1254 25.9289 15.3879 25.5046 15.1753 24.6612C14.793 23.1407 14.4833 21.6009 14.1044 19.8976ZM29.0866 11.323C29.2082 11.8208 29.3053 12.2197 29.4243 12.7061C30.6614 12.4288 31.8512 12.1628 33.0822 11.8872C32.9483 11.3702 32.8381 10.9468 32.7217 10.4997C31.4838 10.7797 30.3429 11.0377 29.0866 11.323ZM30.8285 17.4943C30.5879 17.9807 30.4051 18.3499 30.1977 18.7681C31.1679 19.2528 32.0769 19.7077 33.0314 20.1845C33.2571 19.72 33.447 19.3298 33.6543 18.9028C32.6841 18.4199 31.7961 17.9772 30.8285 17.4943ZM30.0875 3.83668C29.8434 3.5261 29.5722 3.18053 29.4173 2.98281C28.6851 3.65733 27.9825 4.30386 27.2835 4.94777C27.5652 5.26447 27.8399 5.5733 28.1461 5.918C28.853 5.15949 29.4891 4.47796 30.0875 3.83668ZM5.81502 1.91109C5.81502 2.39752 5.81502 2.80521 5.81502 3.23564C6.29795 3.23564 6.72926 3.23564 7.14308 3.23564C7.14308 2.75009 7.14308 2.34327 7.14308 1.91109C6.68552 1.91109 6.29533 1.91109 5.81502 1.91109ZM8.61461 3.24002C9.09229 3.24002 9.51661 3.24002 9.93392 3.24002C9.93392 2.75971 9.93392 2.35377 9.93392 1.87522C9.44399 1.89884 9.01793 1.91896 8.61461 1.93821C8.61461 2.43864 8.61461 2.81833 8.61461 3.24002ZM11.4929 1.92771C11.4929 2.43426 11.4929 2.84108 11.4929 3.25139C11.9706 3.25139 12.3783 3.25139 12.8114 3.25139C12.8114 2.78333 12.8114 2.37652 12.8114 1.92771C12.3486 1.92771 11.9383 1.92771 11.4929 1.92771Z" fill="#029894"/>
<path d="M12.1611 41.4588C12.1611 41.0126 12.1611 40.5664 12.1611 40.0336C12.994 40.0336 13.749 39.9951 14.4979 40.0459C15.0596 40.0844 15.2958 39.8595 15.4402 39.3451C15.8312 37.9479 16.2643 36.5621 16.686 35.1728C16.763 34.9174 16.861 34.6689 16.9502 34.4135C18.9388 34.4135 20.8775 34.4135 22.9019 34.4135C23.3884 36.0232 23.9011 37.6321 24.3525 39.2567C24.5161 39.8473 24.7628 40.108 25.4093 40.0485C26.125 39.9829 26.852 40.0336 27.6543 40.0336C27.6543 40.5656 27.6543 41.0117 27.6543 41.4579C22.489 41.4588 17.3255 41.4588 12.1611 41.4588Z" fill="#029894"/>
<path d="M39.6847 30.2202C39.6847 30.7198 39.7232 31.1747 39.676 31.6209C39.5929 32.4161 39.1563 32.8938 38.3217 32.9271C37.9883 32.9402 37.6541 32.9367 37.3199 32.9367C25.7498 32.9367 14.1796 32.9367 2.60941 32.9367C0.266503 32.9367 -0.00383192 32.6427 0.171142 30.2202C13.2977 30.2202 26.4304 30.2202 39.6847 30.2202Z" fill="#029894"/>
<path d="M2.8615 6.16473C2.8615 13.6781 2.8615 21.1347 2.8615 28.6524C1.97175 28.6524 1.10825 28.6524 0.124023 28.6524C0.124023 28.3296 0.124023 28.0076 0.124023 27.6857C0.124023 21.3105 0.124023 14.9344 0.124023 8.55925C0.124023 6.32221 0.470473 6.00638 2.8615 6.16473Z" fill="#029894"/>
<path d="M24.8456 19.622C21.5884 19.2187 18.5001 18.8364 15.3226 18.4436C14.8781 16.4847 14.4162 14.5198 14.0085 12.5426C13.9656 12.3352 14.1774 11.9625 14.3786 11.8339C16.8772 10.2303 19.396 8.65725 22.0224 7.00549C22.962 11.204 23.8841 15.3255 24.8456 19.622Z" fill="#029894"/>
<path d="M12.5301 12.6423C12.971 14.6011 13.3988 16.5066 13.8739 18.615C12.4907 18.8381 11.1705 19.1889 9.8416 19.2266C8.40856 19.2677 7.2861 18.0096 7.13474 16.5285C6.99389 15.1523 7.88276 13.7989 9.26244 13.4078C10.3044 13.1121 11.3735 12.9091 12.5301 12.6423Z" fill="#029894"/>
<path d="M28.3315 21.643C28.1811 21.8031 27.8792 22.3087 27.7086 22.2676C27.3517 22.181 26.8626 21.859 26.7821 21.5432C26.2406 19.4348 25.7874 17.3036 25.3141 15.1785C24.5372 11.6957 23.7621 8.21279 23.0001 4.72642C22.9309 4.40972 22.8627 4.03265 22.9738 3.75531C23.0587 3.54447 23.504 3.27413 23.6571 3.33887C23.9633 3.46923 24.3316 3.77368 24.4068 4.07377C24.8942 6.00898 25.3115 7.9617 25.7472 9.90916C26.5599 13.5381 27.3709 17.168 28.1811 20.7978C28.2274 21.0052 28.2563 21.2151 28.3315 21.643Z" fill="#029894"/>
<path d="M11.1992 20.6447C11.7294 20.5153 12.1625 20.4094 12.6944 20.2791C13.0268 21.7348 13.3479 23.1416 13.6944 24.6587C13.2105 24.7978 12.7635 24.9272 12.2009 25.0891C11.865 23.5983 11.5369 22.1443 11.1992 20.6447Z" fill="#029894"/>
</g>
<defs>
<clipPath id="clip0_4077_247">
<rect width="39.5757" height="41" fill="white" transform="translate(0.124023 0.458801)"/>
</clipPath>
</defs>
</svg>
