<svg width="33" height="56" viewBox="0 0 33 56" fill="none" xmlns="http://www.w3.org/2000/svg">
<path d="M16.793 16.1465V55.9619" stroke="#001C63" stroke-dasharray="2 2"/>
<path d="M16.793 31.9394C8.07078 31.9394 1.00003 24.8687 1.00003 16.1465C1.00003 7.42426 8.07078 0.353516 16.793 0.353516C25.5152 0.353516 32.5859 7.42426 32.5859 16.1465C32.5859 24.8687 25.5152 31.9394 16.793 31.9394Z" fill="#111534" fill-opacity="0.35"/>
<path d="M16.7931 31.5886C8.26473 31.5886 1.35111 24.675 1.35111 16.1466C1.35111 7.61821 8.26473 0.70459 16.7931 0.70459C25.3215 0.70459 32.2351 7.61821 32.2351 16.1466C32.2351 24.675 25.3215 31.5886 16.7931 31.5886Z" stroke="#383E80" stroke-width="0.986978"/>
<path opacity="0.8" d="M17.0859 22.9395C13.4961 22.9395 10.5859 20.0293 10.5859 16.4395C10.5859 12.8496 13.4961 9.93945 17.0859 9.93945C20.6758 9.93945 23.5859 12.8496 23.5859 16.4395C23.5859 20.0293 20.6758 22.9395 17.0859 22.9395Z" fill="#029894"/>
</svg>
