<svg width="45" height="45" viewBox="0 0 45 45" fill="none" xmlns="http://www.w3.org/2000/svg">
<path d="M22.2663 0.749023C19.404 0.749023 16.5698 1.31278 13.9255 2.40811C11.2811 3.50344 8.87839 5.10889 6.85448 7.1328C2.76702 11.2203 0.470703 16.7641 0.470703 22.5446C0.470703 28.3252 2.76702 33.8689 6.85448 37.9564C8.87839 39.9803 11.2811 41.5858 13.9255 42.6811C16.5698 43.7764 19.404 44.3402 22.2663 44.3402C28.0468 44.3402 33.5906 42.0439 37.6781 37.9564C41.7656 33.8689 44.0619 28.3252 44.0619 22.5446C44.0619 19.6824 43.4981 16.8482 42.4028 14.2038C41.3074 11.5594 39.702 9.15671 37.6781 7.1328C35.6542 5.10889 33.2515 3.50344 30.6071 2.40811C27.9627 1.31278 25.1285 0.749023 22.2663 0.749023ZM31.4204 31.6987L20.0867 24.7242V11.6468H23.3561V22.9805L33.1641 28.8653L31.4204 31.6987Z" fill="#E0DDDD" fill-opacity="0.68"/>
<path d="M22.2663 0.749023C19.404 0.749023 16.5698 1.31278 13.9255 2.40811C11.2811 3.50344 8.87839 5.10889 6.85448 7.1328C2.76702 11.2203 0.470703 16.7641 0.470703 22.5446C0.470703 28.3252 2.76702 33.8689 6.85448 37.9564C8.87839 39.9803 11.2811 41.5858 13.9255 42.6811C16.5698 43.7764 19.404 44.3402 22.2663 44.3402C28.0468 44.3402 33.5906 42.0439 37.6781 37.9564C41.7656 33.8689 44.0619 28.3252 44.0619 22.5446C44.0619 19.6824 43.4981 16.8482 42.4028 14.2038C41.3074 11.5594 39.702 9.15671 37.6781 7.1328C35.6542 5.10889 33.2515 3.50344 30.6071 2.40811C27.9627 1.31278 25.1285 0.749023 22.2663 0.749023ZM31.4204 31.6987L20.0867 24.7242V11.6468H23.3561V22.9805L33.1641 28.8653L31.4204 31.6987Z" fill="#029894"/>
</svg>
