<svg width="43" height="43" viewBox="0 0 43 43" fill="none" xmlns="http://www.w3.org/2000/svg">
<path d="M0.378906 40.4411H5.10497V26.2629H0.378906V40.4411ZM22.7332 42.8041L15.8095 41.2917L8.88582 39.6613C8.48508 39.5832 8.12504 39.3655 7.86971 39.0469C7.60563 38.7376 7.46287 38.3429 7.468 37.9362V28.4841C7.47469 28.0795 7.61604 27.6887 7.86971 27.3735C8.13364 27.0649 8.48992 26.8495 8.88582 26.7591L20.1811 25.3649L31.5 23.9471L31.8545 25.2704L32.2089 26.5701C32.2152 27.0057 32.0918 27.4334 31.8545 27.7988C31.6373 28.1809 31.3071 28.4864 30.9093 28.6732L26.1832 29.8547L21.4571 31.0362L25.2853 32.5958L29.137 34.1318L34.5011 32.6194L39.7234 30.9889C40.1874 30.8716 40.679 30.9394 41.0939 31.178C41.3029 31.2908 41.4864 31.4456 41.6327 31.6327C41.7791 31.8197 41.8853 32.035 41.9446 32.265L42.3936 34.0845L42.8662 35.8804C42.9734 36.3295 42.9058 36.8026 42.6772 37.2037C42.4341 37.6084 42.045 37.9045 41.5902 38.0308L33.0124 40.3938L24.4346 42.7568C24.1521 42.7929 23.8663 42.7929 23.5839 42.7568C23.3048 42.8193 23.0174 42.8352 22.7332 42.8041ZM14.5571 0.269531L9.83103 4.99559L5.10497 9.72165L9.83103 14.4477L14.5571 19.1738L16.2112 17.5197L17.8653 15.8655L14.7934 12.7936L11.7215 9.72165L14.7934 6.64971L17.8653 3.57777L16.2112 1.92365L14.5571 0.269531ZM28.7353 0.269531L27.0812 1.92365L25.427 3.57777L28.499 6.64971L31.5709 9.72165L28.499 12.7936L25.427 15.8655L27.0812 17.5197L28.7353 19.1738L33.4613 14.4477L38.1874 9.72165L33.4613 4.99559L28.7353 0.269531Z" fill="#029894"/>
</svg>
