<svg width="44" height="34" viewBox="0 0 44 34" fill="none" xmlns="http://www.w3.org/2000/svg">
<path fill-rule="evenodd" clip-rule="evenodd" d="M39.301 27.4857L36.9864 29.8003C36.3787 30.408 35.3777 30.408 34.7701 29.8003L32.905 27.9353C31.9426 28.4481 30.91 28.8415 29.8211 29.0943V31.5109C29.8211 32.3714 29.1151 33.0774 28.2546 33.0774H24.9811C24.1205 33.0774 23.4146 32.3714 23.4146 31.5109V28.8731C22.3468 28.5499 21.3387 28.0898 20.415 27.5068L18.7045 29.2173C18.0968 29.8249 17.0958 29.8249 16.4882 29.2173L15.4415 28.1741L15.4696 28.1425L20.0602 22.888C21.7392 24.8549 24.24 26.1053 27.0288 26.1053C32.0866 26.1053 36.189 22.0029 36.189 16.9486C36.189 11.8908 32.0866 7.78831 27.0288 7.78831C24.4964 7.78831 22.2028 8.81744 20.545 10.4788L18.8555 10.4156L14.5809 6.60815C14.6336 6.53439 14.6898 6.46766 14.7531 6.40092L17.0677 4.08627C17.6753 3.47863 18.6764 3.47863 19.284 4.08627L21.1491 5.95134C22.1115 5.43502 23.1441 5.04164 24.2329 4.79226V2.37575C24.24 1.51873 24.946 0.812744 25.8065 0.812744H29.0765C29.937 0.812744 30.643 1.51873 30.643 2.37926V5.01705C31.7108 5.34019 32.7188 5.80382 33.6426 6.38336L35.3531 4.67284C35.9607 4.0652 36.9618 4.0652 37.5694 4.67284L39.8841 6.98749C40.4917 7.59513 40.4917 8.59616 39.8841 9.2038L38.019 11.0689C38.5353 12.0313 38.9287 13.0639 39.1781 14.1527H41.5946C42.4516 14.1527 43.1611 14.8587 43.1611 15.7192V18.9928C43.1611 19.8533 42.4551 20.5593 41.5946 20.5593H38.9603C38.6372 21.627 38.177 22.6351 37.594 23.5589L39.3045 25.2694C39.9122 25.877 39.9122 26.8745 39.301 27.4857ZM27.0569 13.9701C28.7007 13.9701 30.0319 15.3013 30.0319 16.9451C30.0319 18.5888 28.7007 19.92 27.0569 19.92C25.4131 19.92 24.0819 18.5888 24.0819 16.9451C24.0819 15.3013 25.4166 13.9701 27.0569 13.9701ZM21.1245 16.7624L13.0425 26.0175L12.7721 21.6762C7.24712 20.8859 3.01471 22.4033 0.00109863 26.7586C0.0362223 18.1884 5.60684 13.7067 12.2312 13.0182L11.9537 8.58913L21.1245 16.7624Z" fill="#029894"/>
</svg>
