<svg width="40" height="44" viewBox="0 0 40 44" fill="none" xmlns="http://www.w3.org/2000/svg">
<path fill-rule="evenodd" clip-rule="evenodd" d="M19.5677 0.8125C26.8903 5.4541 33.5055 7.65003 39.1829 7.1309C40.1745 27.1858 32.7683 39.0295 19.6436 43.9725C6.96922 39.346 -0.527585 28.0119 0.0284234 6.82673C6.69315 7.17551 13.2318 5.73474 19.5677 0.8125ZM11.8655 24.2664C11.451 23.9116 11.4025 23.2878 11.7569 22.873C12.112 22.4582 12.7358 22.4101 13.1503 22.7645L17.1874 26.2329L26.0316 16.5093C26.3993 16.1054 27.0249 16.0759 27.4291 16.4432C27.8327 16.8106 27.8622 17.4362 27.4948 17.8405L18.0044 28.275L18.0037 28.2743C17.6454 28.6681 17.0374 28.7084 16.6303 28.36L11.8655 24.2664Z" fill="#029894"/>
</svg>
