<svg width="381" height="381" viewBox="0 0 381 381" fill="none" xmlns="http://www.w3.org/2000/svg">
<path d="M280.433 18.9411L258.192 30.097C256.53 30.8056 255.451 32.4381 255.451 34.2454V44.6493C255.451 53.9438 258.045 63.1547 263.382 71.2866C267.388 77.3907 272.701 85.1927 281.542 89.6536H285.532C295.374 86.6525 302.719 78.6521 307.21 71.809C312.547 63.677 315.14 54.4669 315.14 45.1716V34.2462C315.14 32.4388 314.061 30.8056 312.399 30.0977L287.063 19.3023C285.934 18.821 281.563 18.4598 280.433 18.9411Z" fill="#0E4342"/>
<path d="M279.537 19.3024L254.202 30.0971C252.539 30.8057 251.46 32.4382 251.46 34.2455V44.6494C251.46 53.9439 254.055 63.1548 259.391 71.2867C263.881 78.1291 270.836 85.1753 281.541 89.6537C291.383 86.6526 298.728 78.6522 303.219 71.8091C308.556 63.6772 311.149 54.467 311.149 45.1718V34.2463C311.149 32.4389 310.07 30.8057 308.408 30.0978L283.073 19.3024C281.944 18.8211 280.667 18.8211 279.537 19.3024Z" fill="#029894"/>
<path d="M311.069 42.3538C311.082 42.353 311.098 42.518 311.117 42.8328C311.133 43.1901 311.154 43.6464 311.179 44.2105C311.203 44.8097 311.238 45.5427 311.196 46.3935C311.153 47.2436 311.189 48.2176 311.065 49.2836C310.962 50.3511 310.892 51.5259 310.672 52.769C310.571 53.3918 310.492 54.0403 310.363 54.6996C310.222 55.3573 310.077 56.034 309.928 56.7274C309.266 59.4844 308.347 62.4817 307.007 65.4752C305.661 68.4665 304.072 71.1665 302.462 73.5038C301.618 74.6451 300.84 75.7476 300.004 76.695C299.594 77.174 299.221 77.6568 298.82 78.0841C298.419 78.5092 298.033 78.9175 297.664 79.3083C296.945 80.1059 296.208 80.7393 295.593 81.3278C294.98 81.9208 294.416 82.3892 293.948 82.7626C293.508 83.1169 293.152 83.4035 292.874 83.6278C292.626 83.8217 292.491 83.919 292.483 83.9084C292.474 83.8978 292.592 83.7799 292.823 83.5662C293.089 83.3283 293.428 83.0234 293.848 82.6462C294.299 82.2554 294.847 81.7718 295.441 81.1666C296.04 80.5659 296.76 79.9211 297.462 79.1159C297.823 78.722 298.2 78.3099 298.592 77.8819C298.985 77.4523 299.349 76.9672 299.752 76.4866C300.571 75.5362 301.334 74.4337 302.164 73.2954C303.746 70.9642 305.312 68.2809 306.647 65.3148C307.976 62.3456 308.897 59.3765 309.575 56.6445C309.727 55.9572 309.877 55.2873 310.022 54.6349C310.157 53.981 310.241 53.3378 310.349 52.7204C310.581 51.4871 310.668 50.3207 310.787 49.2608C310.93 48.2024 310.912 47.2337 310.977 46.3882C311.039 45.5411 311.027 44.8112 311.027 44.2136C311.032 43.6494 311.037 43.1932 311.04 42.8366C311.044 42.5203 311.055 42.3545 311.069 42.3538Z" fill="#029894"/>
<path d="M279.418 64.9697L264.885 53.4146L268.917 48.3439L278.663 56.0918L292.894 40.1655L297.725 44.4828L279.418 64.9697Z" fill="white"/>
<path d="M348.058 75.861H345.308V60.8943C345.308 57.3716 342.442 54.5058 338.92 54.5058C335.397 54.5058 332.531 57.3716 332.531 60.8943V75.861H329.782V60.8943C329.782 55.8554 333.882 51.7556 338.92 51.7556C343.959 51.7556 348.059 55.8554 348.059 60.8943V75.861H348.058Z" fill="#EBEBEB"/>
<path d="M348.895 85.0057H328.943C327.651 85.0057 326.603 83.9579 326.603 82.6661V68.0415C326.603 66.7497 327.651 65.7019 328.943 65.7019H348.895C350.186 65.7019 351.234 66.7497 351.234 68.0415V82.6661C351.234 83.9579 350.187 85.0057 348.895 85.0057Z" fill="#EBEBEB"/>
<path d="M340.81 75.8565C341.292 75.3714 341.59 74.7045 341.59 73.9655C341.59 72.4691 340.377 71.2563 338.881 71.2563C337.385 71.2563 336.172 72.4691 336.172 73.9655C336.172 75.2033 337.007 76.2359 338.142 76.559L337.559 79.1328H340.138L339.62 76.559C340.076 76.429 340.485 76.1842 340.81 75.8565Z" fill="#029894"/>
<path d="M35.4739 294.374C32.5351 292.529 29.169 291.37 25.717 291.016C24.1226 290.852 22.3806 290.898 21.1017 291.864C20.8303 292.069 20.5657 292.372 20.6265 292.707C20.6714 292.953 20.8789 293.132 21.0781 293.283C25.0479 296.312 31.0524 296.695 35.4739 294.374Z" fill="#E0E0E0"/>
<path d="M35.2237 294.098C33.0149 292.374 30.7931 290.638 28.9219 288.554C27.0507 286.468 25.53 283.992 24.9711 281.247C24.8016 280.414 24.7491 279.463 25.2836 278.801C30.3065 282.725 34.2527 287.799 35.2237 294.098Z" fill="#E0E0E0"/>
<path d="M35.4222 294.337C35.0443 291.589 34.9082 288.764 35.5392 286.063C36.1703 283.362 37.6393 280.776 39.9462 279.235C40.8146 281.264 40.4412 283.601 39.8299 285.722C38.8848 288.999 37.4021 292.12 35.4602 294.922" fill="#E0E0E0"/>
<path d="M40.3462 303.16C37.3572 303.523 34.7538 305.099 32.5214 307.12C30.289 309.141 28.7029 311.864 28.046 314.803C30.9779 314.622 33.4658 312.554 35.2693 310.236C37.0736 307.917 38.3236 305.373 40.3051 303.205" fill="#E0E0E0"/>
<path d="M41.416 304.571C39.008 298.64 39.8808 291.494 43.6446 286.317C45.347 292.374 44.722 299.217 41.416 304.571Z" fill="#E0E0E0"/>
<path d="M47.9223 312.318C45.2094 312.15 42.4516 312.796 40.096 314.152C37.7405 315.508 35.7962 317.568 34.5797 319.999C34.4139 320.33 34.2687 320.75 34.49 321.046C34.6823 321.303 35.0541 321.327 35.375 321.306C38.0043 321.135 40.3355 319.553 42.2585 317.752C44.1814 315.95 45.8572 313.869 47.9824 312.311" fill="#E0E0E0"/>
<path d="M47.7147 311.897C46.3157 307.419 46.2282 302.54 47.4668 298.015C47.9557 296.228 48.7769 294.347 50.4292 293.509C50.5698 293.438 50.7341 293.374 50.8823 293.43C51.023 293.483 51.1043 293.627 51.169 293.761C51.7567 294.989 51.9278 296.384 51.8677 297.744C51.8077 299.104 51.5248 300.443 51.2435 301.775C50.7234 304.24 50.4459 306.887 49.0947 309.012C48.7739 309.517 48.491 310.062 48.2355 310.602C47.9793 311.142 47.9778 311.332 47.7436 311.762" fill="#E0E0E0"/>
<path d="M64.9374 314.463C63.6615 309.609 65.0157 303.725 68.0746 299.746C68.2997 299.453 68.5985 299.139 68.9665 299.173C69.5299 299.224 69.6759 299.976 69.6508 300.541C69.4288 305.501 67.7743 310.389 64.9374 314.463Z" fill="#E0E0E0"/>
<path d="M66.4901 315.524C72.3866 317.058 79.1522 315.566 84.0564 311.951C81.1496 310.478 77.7235 310.058 74.5467 310.784C71.37 311.511 68.467 312.934 66.4901 315.524Z" fill="#E0E0E0"/>
<path d="M67.7994 312.292C71.1023 306.908 77.4338 303.393 83.7424 303.074C83.0155 305.64 80.907 307.634 78.5279 308.839C76.1488 310.044 73.4929 310.569 70.875 311.077C69.8561 311.275 68.4594 311.493 67.7994 312.292Z" fill="#E0E0E0"/>
<path d="M65.2651 296.611C66.1593 293.547 67.0588 290.456 67.3044 287.274C67.55 284.092 67.096 280.77 65.4446 278.038C62.3598 284.007 62.0473 290.982 65.1724 296.93" fill="#E0E0E0"/>
<path d="M75.6515 291.362C79.2593 284.805 86.6195 279.568 94.0672 278.833C91.1938 285.987 83.3584 291.515 75.6515 291.362Z" fill="#E0E0E0"/>
<path d="M73.3819 292.646C78.7621 293.466 83.3462 296.902 88.3737 298.985C89.4488 299.431 90.6091 299.786 91.7626 299.635C92.9168 299.484 94.055 298.709 94.3143 297.574C94.5295 296.632 94.0999 295.632 93.4239 294.941C92.748 294.251 91.8546 293.82 90.9619 293.448C85.4859 291.168 79.6129 291.111 73.8442 292.494" fill="#E0E0E0"/>
<path d="M70.2682 296.42C71.4863 296.769 71.9022 297.399 72.8671 298.221C76.1396 301.008 80.0646 303.024 84.2358 304.061C84.67 304.169 85.2403 304.211 85.4554 303.819C85.6433 303.476 85.4053 303.061 85.1612 302.756C83.4131 300.569 80.9207 299.074 78.2968 298.096C75.6728 297.119 73.4001 295.941 70.2682 296.194" fill="#E0E0E0"/>
<path d="M66.7546 273.629C71.1297 277.713 77.2923 279.809 83.2497 279.241C83.5211 279.215 83.8161 279.172 84.0009 278.972C84.416 278.52 83.918 277.823 83.4344 277.446C78.5849 273.664 72.7105 272.097 66.7546 273.629Z" fill="#E0E0E0"/>
<path d="M70.9206 272.104C76.7038 267.769 84.6343 266.46 91.5033 268.708C88.9112 271.262 85.3148 272.636 81.6947 273.013C78.0755 273.391 74.4509 272.989 70.9206 272.104Z" fill="#E0E0E0"/>
<path d="M69.2646 261.631C68.7886 256.791 69.0973 252.969 68.7612 248.106C68.7346 247.717 68.651 247.25 68.2875 247.11C67.7811 246.915 67.3599 247.537 67.1934 248.053C65.7517 252.537 66.5402 257.678 69.2577 261.525" fill="#E0E0E0"/>
<path d="M68.9163 262.166C72.1972 260.137 74.6585 257.487 76.935 254.373C78.5188 252.206 79.8539 249.61 79.4943 246.95C77.2703 246.905 75.1565 248.133 73.7103 249.822C72.2634 251.512 71.4034 253.625 70.7617 255.754C70.1192 257.884 69.6698 260.073 68.9163 262.166Z" fill="#E0E0E0"/>
<path d="M76.7943 259.977C83.9948 257.315 90.7125 253.353 96.5277 248.342C94.1706 247.392 91.4721 247.961 89.115 248.912C83.731 251.085 79.3316 254.754 76.6917 259.925" fill="#E0E0E0"/>
<path d="M71.132 264.814C74.7748 265.212 78.4747 265.472 82.0894 264.867C85.6417 264.273 88.9987 262.865 92.3184 261.468C92.5936 261.353 92.8932 261.214 93.0133 260.941C93.1441 260.644 93.005 260.283 92.7639 260.066C92.5237 259.848 92.2036 259.744 91.8918 259.656C88.2832 258.647 84.3887 259.12 80.8371 260.317C77.2863 261.515 74.3749 262.937 71.132 264.814Z" fill="#E0E0E0"/>
<path d="M50.3319 273.794C47.8463 268.777 48.0082 262.923 50.1547 257.753C51.6663 260.055 51.8503 262.988 51.5743 265.729C51.2983 268.469 50.4634 271.29 50.4094 274.044" fill="#E0E0E0"/>
<path d="M40.4032 268.787C34.198 268.668 27.9912 271.313 23.7774 275.869C26.8743 276.356 30.064 275.557 32.8811 274.181C35.6982 272.806 38.2012 270.876 40.6822 268.96" fill="#E0E0E0"/>
<path d="M33.7281 266.554C30.6928 266.308 27.7715 265.932 24.8533 266.827C21.9343 267.721 19.2784 269.751 18.0885 272.562C20.9276 272.882 23.8063 272.17 26.409 270.991C29.0116 269.812 31.3778 268.178 33.7281 266.554Z" fill="#E0E0E0"/>
<path d="M43.6111 266.656C40.8807 264.866 38.0765 263.045 34.8967 262.303C31.717 261.562 28.0323 262.11 25.8151 264.506C28.3889 266.017 31.5117 266.195 34.496 266.192C37.4804 266.19 41.1392 266.156 43.9525 267.152" fill="#E0E0E0"/>
<path d="M43.6278 266.801C38.9593 262.217 37.1892 253.981 39.068 247.714C42.7367 253.289 44.3806 260.168 43.6278 266.801Z" fill="#E0E0E0"/>
<path d="M56.4648 253.812C57.3453 251.765 57.9643 249.616 58.7543 247.533C59.5443 245.449 60.5259 243.399 62.0184 241.744C63.511 240.09 65.5754 238.858 67.8001 238.748C66.4072 245.055 62.2169 250.692 56.5781 253.844" fill="#E0E0E0"/>
<path d="M54.142 256.518C52.6851 254.512 51.0017 251.79 49.0256 250.293C47.0494 248.796 44.4772 247.89 42.0653 248.465C44.5175 252.849 49.1518 255.94 54.142 256.518Z" fill="#E0E0E0"/>
<path d="M54.6065 253.978C53.6515 251.551 52.6897 249.099 52.3034 246.52C51.9172 243.941 52.1521 241.186 53.4713 238.936C56.0345 243.78 56.8595 248.98 54.7373 254.034" fill="#E0E0E0"/>
<path d="M56.4884 238.936C57.9399 234.134 62.337 230.598 67.0846 228.976C67.683 228.771 68.3172 228.601 68.9422 228.697C69.5672 228.794 70.18 229.221 70.3116 229.84C70.4849 230.657 69.8097 231.389 69.1748 231.932C65.4788 235.093 61.1334 237.492 56.4884 238.936Z" fill="#E0E0E0"/>
<path d="M56.5409 235.008C56.7256 231.912 56.9188 228.771 57.9255 225.837C58.9329 222.903 60.8734 220.151 63.6973 218.867C64.1778 221.994 62.7978 225.105 61.1342 227.796C59.4705 230.487 57.4647 233.027 56.4648 236.029" fill="#E0E0E0"/>
<path d="M56.4648 237.14C55.265 233.64 55.1411 229.195 53.0455 226.146C51.5803 224.015 49.2347 222.563 47.9725 220.306C47.1338 222.414 47.3908 224.844 48.2675 226.936C49.1442 229.029 50.5934 230.83 52.1445 232.487C53.6949 234.142 55.0232 235.388 56.4648 237.14Z" fill="#E0E0E0"/>
<path d="M56.4884 340.207C56.3949 340.207 56.3143 316.86 56.3082 288.066C56.3021 259.263 56.3721 235.921 56.4648 235.921C56.5584 235.921 56.639 259.263 56.645 288.066C56.6519 316.86 56.5812 340.207 56.4884 340.207Z" fill="#E0E0E0"/>
<path d="M76.8909 270.271C76.8977 270.293 76.5845 270.409 76.0134 270.601C75.3831 270.814 74.5711 271.088 73.5978 271.416C71.5608 272.11 68.7627 273.115 65.7259 274.359C62.7187 275.649 59.8826 276.697 58.2676 278.096C57.4609 278.786 56.9978 279.534 56.769 280.078C56.5371 280.626 56.496 280.961 56.4648 280.955C56.4534 280.954 56.4572 280.87 56.4747 280.711C56.5013 280.553 56.5424 280.318 56.6466 280.03C56.8435 279.454 57.2936 278.655 58.1095 277.916C58.9215 277.176 60.0514 276.511 61.3455 275.906C62.6396 275.302 64.0744 274.672 65.5982 274.046C68.6441 272.798 71.4643 271.825 73.524 271.188C74.5536 270.867 75.3937 270.63 75.9762 270.474C76.5586 270.322 76.8848 270.249 76.8909 270.271Z" fill="#E0E0E0"/>
<path d="M83.5789 253.844C83.5865 253.853 83.5014 253.943 83.3333 254.107C83.1341 254.294 82.887 254.526 82.5844 254.811C81.8887 255.443 80.942 256.303 79.7878 257.351C77.3729 259.501 74.0981 262.417 70.4789 265.64C66.8451 268.874 63.7049 271.965 61.5288 274.292C60.4392 275.453 59.5808 276.416 58.9953 277.088C58.7223 277.401 58.4988 277.655 58.3186 277.861C58.1619 278.036 58.0753 278.125 58.0661 278.117C58.057 278.109 58.1262 278.007 58.2661 277.818C58.4075 277.63 58.6128 277.35 58.8942 277.004C59.45 276.304 60.2826 275.315 61.3524 274.13C63.4897 271.755 66.6125 268.629 70.2538 265.387C73.9004 262.16 77.2186 259.261 79.6297 257.172C80.8128 256.156 81.7837 255.323 82.4977 254.711C82.817 254.446 83.0786 254.229 83.2885 254.055C83.4709 253.908 83.5706 253.835 83.5789 253.844Z" fill="#E0E0E0"/>
<path d="M66.5547 268.929C66.4596 268.886 67.2184 267.134 67.975 264.917C68.7384 262.701 69.098 260.83 69.1946 260.846C69.2828 260.856 69.0676 262.781 68.2951 265.025C67.9149 266.146 67.4952 267.131 67.1652 267.831C66.8337 268.531 66.5965 268.947 66.5547 268.929Z" fill="#E0E0E0"/>
<path d="M56.5097 283.06C56.4907 283.074 56.2922 282.842 55.9493 282.41C55.5691 281.923 55.0886 281.306 54.5153 280.571C53.3101 279.013 51.6442 276.863 49.7776 274.511C47.9094 272.157 46.1933 270.047 44.9501 268.52C44.3639 267.794 43.8727 267.186 43.4841 266.706C43.142 266.274 42.961 266.028 42.9785 266.013C42.996 265.998 43.2112 266.215 43.5845 266.62C43.9586 267.026 44.4878 267.622 45.1333 268.367C46.4244 269.856 48.1717 271.945 50.0422 274.302C51.9111 276.657 53.5497 278.833 54.7062 280.428C55.2848 281.226 55.7455 281.877 56.0558 282.333C56.366 282.788 56.5287 283.046 56.5097 283.06Z" fill="#E0E0E0"/>
<path d="M52.0358 277.317C51.9811 277.376 50.7873 275.96 50.1615 273.809C49.7 272.293 49.6795 270.906 49.7365 270.272L49.8855 270.284C49.8186 270.555 49.77 270.697 49.7433 270.692C49.7167 270.688 49.7152 270.537 49.7373 270.26L49.8863 270.272C49.941 270.9 50.0361 272.239 50.4847 273.713C51.0892 275.797 52.1263 277.26 52.0358 277.317Z" fill="#E0E0E0"/>
<path d="M46.2609 270.052C46.2176 270.099 45.8336 269.615 44.9524 269.292C44.078 268.953 42.7626 268.879 41.3194 269.003C39.8748 269.109 38.5845 269.366 37.6614 269.593C36.7376 269.822 36.1734 270.002 36.1559 269.955C36.1407 269.915 36.6783 269.655 37.5975 269.364C38.5153 269.075 39.8238 268.775 41.2943 268.667C42.7542 268.54 44.1388 268.653 45.0421 269.07C45.9576 269.476 46.2906 270.044 46.2609 270.052Z" fill="#E0E0E0"/>
<path d="M44.8916 268.291C44.8657 268.343 44.1297 267.985 42.8873 267.561C41.6471 267.134 39.8801 266.687 37.8857 266.532C35.8898 266.383 34.0756 266.557 32.7853 266.791C31.4927 267.022 30.711 267.265 30.6935 267.208C30.6867 267.186 30.8753 267.107 31.225 266.982C31.5733 266.852 32.0911 266.703 32.7389 266.557C34.0338 266.259 35.8799 266.043 37.9123 266.195C39.9432 266.353 41.7353 266.847 42.9701 267.337C43.5883 267.58 44.078 267.805 44.4019 267.986C44.7273 268.163 44.9022 268.27 44.8916 268.291Z" fill="#E0E0E0"/>
<path d="M56.4648 260.846C56.3744 260.868 55.7197 258.595 55.0027 255.767C54.2857 252.939 53.777 250.629 53.8675 250.606C53.958 250.583 54.6119 252.857 55.3296 255.684C56.0466 258.512 56.5553 260.823 56.4648 260.846Z" fill="#E0E0E0"/>
<path d="M56.5576 260.846C56.4572 260.878 56.036 259.359 54.9373 257.805C53.8675 256.218 52.5027 255.422 52.5521 255.344C52.5696 255.308 52.9467 255.446 53.4729 255.818C53.9998 256.185 54.6514 256.807 55.2133 257.611C56.3546 259.228 56.6397 260.84 56.5576 260.846Z" fill="#E0E0E0"/>
<path d="M56.4884 327.761C56.4519 327.766 56.3835 327.2 56.1204 326.208C55.8603 325.217 55.3707 323.811 54.5602 322.166C52.9474 318.87 50.0117 314.691 46.2822 310.504C44.4338 308.393 42.6409 306.4 41.1194 304.493C39.5949 302.589 38.3427 300.774 37.4279 299.169C36.5102 297.564 35.9126 296.188 35.5643 295.217C35.3933 294.73 35.267 294.35 35.1986 294.087C35.1249 293.826 35.0914 293.687 35.1028 293.684C35.1332 293.674 35.3028 294.219 35.6875 295.17C36.0715 296.121 36.698 297.472 37.6348 299.049C38.5692 300.626 39.8322 302.414 41.3628 304.299C42.8903 306.186 44.6862 308.167 46.5377 310.282C50.2771 314.479 53.2052 318.712 54.7761 322.062C55.5661 323.734 56.0261 325.167 56.2489 326.176C56.3569 326.682 56.4299 327.076 56.4557 327.347C56.4876 327.617 56.4998 327.759 56.4884 327.761Z" fill="#E0E0E0"/>
<path d="M74.9246 306.937C74.9352 306.962 74.5824 307.14 73.9582 307.479C73.3385 307.827 72.4588 308.363 71.4521 309.136C70.4446 309.907 69.3178 310.92 68.1605 312.137C67.0056 313.358 65.8156 314.775 64.6006 316.293C62.172 319.34 59.9008 322.036 58.5413 324.188C57.8509 325.256 57.3491 326.156 57.0199 326.787C56.6884 327.417 56.5127 327.771 56.4876 327.76C56.477 327.756 56.5082 327.661 56.5774 327.486C56.6496 327.312 56.7469 327.051 56.902 326.729C57.1963 326.077 57.67 325.153 58.3398 324.061C59.6606 321.857 61.9135 319.124 64.3375 316.082C65.5548 314.561 66.7592 313.14 67.9362 311.922C69.1155 310.706 70.272 309.7 71.3091 308.944C72.3462 308.187 73.2541 307.676 73.8974 307.362C74.2175 307.201 74.479 307.102 74.6516 307.028C74.8265 306.958 74.92 306.926 74.9246 306.937Z" fill="#E0E0E0"/>
<path d="M75.2858 313.692C75.2896 313.742 74.5057 313.836 73.2435 313.989C71.9859 314.152 70.234 314.361 68.4 314.943C66.5722 315.538 65.053 316.446 64.063 317.219C63.0631 317.991 62.5917 318.631 62.5454 318.593C62.5294 318.581 62.6267 318.406 62.848 318.123C63.0662 317.837 63.4243 317.454 63.9117 317.034C64.8857 316.195 66.4193 315.233 68.2959 314.622C70.1755 314.028 71.9501 313.855 73.2191 313.752C74.4935 313.66 75.282 313.649 75.2858 313.692Z" fill="#E0E0E0"/>
<path d="M63.1415 317.851C63.035 317.791 63.955 316.385 64.669 314.494C65.3389 312.586 65.4955 310.913 65.6156 310.932C65.659 310.937 65.6575 311.356 65.5814 312.028C65.5016 312.698 65.3404 313.628 64.9853 314.609C64.6287 315.589 64.1603 316.407 63.8007 316.977C63.438 317.546 63.1795 317.874 63.1415 317.851Z" fill="#E0E0E0"/>
<path d="M80.8956 288.8C80.9002 288.811 80.7869 288.871 80.5687 288.974C80.3155 289.089 79.9977 289.233 79.6091 289.411C79.1886 289.591 78.6785 289.82 78.1036 290.122C77.5265 290.419 76.8536 290.727 76.1526 291.148C75.7967 291.35 75.4249 291.562 75.0387 291.781C74.6524 292.003 74.2699 292.267 73.8632 292.522C73.042 293.02 72.2193 293.633 71.3411 294.26C69.6227 295.564 67.8153 297.108 66.0757 298.891C64.3527 300.691 62.8708 302.55 61.6261 304.313C61.03 305.212 60.4445 306.055 59.9746 306.893C59.7343 307.308 59.4834 307.699 59.2743 308.093C59.0683 308.487 58.8691 308.866 58.679 309.228C58.2821 309.943 57.9985 310.627 57.7209 311.214C57.4373 311.798 57.2267 312.316 57.0609 312.743C56.8975 313.137 56.7644 313.46 56.658 313.717C56.5622 313.939 56.5067 314.053 56.4952 314.049C56.4846 314.045 56.5181 313.923 56.5933 313.694C56.6846 313.43 56.7986 313.1 56.9378 312.695C57.0853 312.261 57.2792 311.734 57.5476 311.138C57.8099 310.541 58.0798 309.847 58.4653 309.121C58.6501 308.753 58.844 308.368 59.0447 307.969C59.2485 307.57 59.4956 307.173 59.7321 306.752C60.1951 305.902 60.7753 305.047 61.3691 304.136C62.6092 302.351 64.0949 300.471 65.8316 298.656C67.5849 296.86 69.4128 295.31 71.154 294.01C72.0436 293.386 72.8785 292.777 73.7118 292.285C74.1247 292.034 74.5125 291.774 74.9048 291.557C75.2972 291.343 75.6751 291.136 76.037 290.939C76.7494 290.529 77.4338 290.235 78.0215 289.953C78.607 289.664 79.1271 289.452 79.5567 289.29C79.9566 289.137 80.2828 289.011 80.5428 288.912C80.7709 288.828 80.8918 288.789 80.8956 288.8Z" fill="#E0E0E0"/>
<path d="M66.3045 298.576C66.2749 298.572 66.4368 298.005 67.1067 297.382C67.7598 296.76 68.9521 296.184 70.3397 296.142C71.7228 296.105 72.9226 296.492 73.7415 296.806C74.565 297.129 75.044 297.392 75.0273 297.431C75.0082 297.478 74.495 297.294 73.6624 297.031C72.8329 296.777 71.6604 296.443 70.3496 296.479C69.0433 296.519 67.9157 297.022 67.2618 297.562C66.5942 298.101 66.3585 298.609 66.3045 298.576Z" fill="#E0E0E0"/>
<path d="M64.1238 300.826C64.0311 300.775 64.8545 299.569 65.0416 297.84C65.2575 296.114 64.7336 294.75 64.8355 294.722C64.8728 294.707 65.056 295.024 65.2149 295.592C65.3746 296.157 65.4795 296.98 65.3769 297.879C65.2704 298.777 64.9785 299.554 64.6933 300.067C64.4074 300.584 64.1558 300.85 64.1238 300.826Z" fill="#E0E0E0"/>
<path d="M40.3637 331.106C40.867 340.029 43.5556 349.103 47.6912 358.277H65.6742C69.6181 349.194 72.1212 340.133 72.566 331.106H40.3637Z" fill="#E0E0E0"/>
<path d="M69.6516 345.544C69.6516 345.638 63.7307 345.713 56.4276 345.713C49.1229 345.713 43.2028 345.638 43.2028 345.544C43.2028 345.451 49.1229 345.375 56.4276 345.375C63.7307 345.375 69.6516 345.451 69.6516 345.544Z" fill="#FAFAFA"/>
<path d="M69.2501 348.776C69.2501 348.87 63.6988 348.945 56.8534 348.945C50.0049 348.945 44.4551 348.87 44.4551 348.776C44.4551 348.683 50.0049 348.607 56.8534 348.607C63.6988 348.607 69.2501 348.683 69.2501 348.776Z" fill="#FAFAFA"/>
<path d="M47.9808 336.964C48.0744 336.964 48.1496 338.819 48.1496 341.107C48.1496 343.395 48.0744 345.249 47.9808 345.249C47.8873 345.249 47.812 343.395 47.812 341.107C47.812 338.819 47.8873 336.964 47.9808 336.964Z" fill="#FAFAFA"/>
<path d="M57.6168 336.964C57.7103 336.964 57.7856 338.885 57.7856 341.254C57.7856 343.624 57.7103 345.544 57.6168 345.544C57.5232 345.544 57.448 343.623 57.448 341.254C57.448 338.885 57.5232 336.964 57.6168 336.964Z" fill="#FAFAFA"/>
<path d="M66.6619 336.892C66.7554 336.892 66.8307 338.851 66.8307 341.267C66.8307 343.684 66.7554 345.643 66.6619 345.643C66.5691 345.643 66.4931 343.684 66.4931 341.267C66.4931 338.851 66.5691 336.892 66.6619 336.892Z" fill="#FAFAFA"/>
<path d="M71.995 336.964C71.995 337.058 65.0499 337.133 56.4854 337.133C47.9177 337.133 40.9742 337.058 40.9742 336.964C40.9742 336.871 47.9177 336.795 56.4854 336.795C65.0507 336.795 71.995 336.871 71.995 336.964Z" fill="#FAFAFA"/>
<path d="M350.989 253.761C354.18 252.423 356.449 249.132 356.468 245.255C356.488 240.177 352.645 236.042 347.883 236.019C343.122 235.997 339.244 240.096 339.223 245.176C339.207 249.088 341.492 252.418 344.717 253.761C331.448 255.76 332.05 270.181 332.05 270.181L363.427 270.326C363.427 270.326 364.143 255.747 350.989 253.761Z" fill="#EBEBEB"/>
<path d="M209.931 44.1147C212.165 43.7322 214.099 41.9682 214.685 39.4971C215.449 36.2595 213.608 33.0516 210.572 32.3338C207.537 31.6161 204.456 33.6584 203.691 36.8959C203.103 39.3906 204.069 41.8534 205.928 43.1871C197.165 42.5005 195.416 51.7919 195.416 51.7919L215.417 56.5244C215.417 56.5244 218.031 47.3272 209.931 44.1147Z" fill="#EBEBEB"/>
<path d="M351.845 121.523C353.708 120.404 354.823 118.155 354.486 115.743C354.043 112.583 351.281 110.358 348.318 110.772C345.357 111.187 343.314 114.084 343.758 117.243C344.099 119.677 345.819 121.542 347.945 122.087C339.875 124.522 341.545 133.435 341.545 133.435L361.066 130.704C361.066 130.704 360.201 121.576 351.845 121.523Z" fill="#F5F5F5"/>
<path d="M38.5502 124.28L28.0042 115.896L30.93 112.216L38.002 117.838L48.3283 106.281L51.8335 109.414L38.5502 124.28Z" fill="#F5F5F5"/>
<path d="M358.035 358.548C358.035 358.658 281.891 358.746 187.985 358.746C94.0459 358.746 17.9181 358.657 17.9181 358.548C17.9181 358.439 94.0459 358.351 187.985 358.351C281.891 358.351 358.035 358.44 358.035 358.548Z" fill="#263238"/>
<path d="M52.9406 136.427L29.6169 148.126C27.8734 148.869 26.7412 150.581 26.7412 152.477V163.387C26.7412 173.134 29.4618 182.793 35.0579 191.321C39.2589 197.722 44.8307 205.904 54.1017 210.581H58.2866C68.6068 207.434 76.31 199.043 81.0196 191.868C86.6165 183.341 89.3363 173.682 89.3363 163.934V152.477C89.3363 150.581 88.2049 148.869 86.4606 148.126L59.8925 136.805C58.7086 136.301 54.1245 135.922 52.9406 136.427Z" fill="#0E4342"/>
<path d="M52.0008 136.806L25.4319 148.126C23.6884 148.869 22.5563 150.581 22.5563 152.477V163.387C22.5563 173.134 25.2768 182.793 30.873 191.321C35.5826 198.497 42.8751 205.885 54.1017 210.581C64.4219 207.434 72.125 199.043 76.8346 191.868C82.4315 183.341 85.1513 173.682 85.1513 163.934V152.477C85.1513 150.581 84.0199 148.869 82.2757 148.126L55.7075 136.805C54.5236 136.301 53.1847 136.301 52.0008 136.806Z" fill="#029894"/>
<path opacity="0.3" d="M60.1551 186.285C69.1228 182.807 73.5729 172.717 70.0947 163.749C66.6165 154.782 56.5271 150.332 47.5594 153.81C38.5917 157.288 34.1416 167.377 37.6198 176.345C41.098 185.313 51.1874 189.763 60.1551 186.285Z" fill="black"/>
<path d="M53.8546 171.018C57.8477 171.018 61.0847 167.781 61.0847 163.788C61.0847 159.794 57.8477 156.557 53.8546 156.557C49.8614 156.557 46.6244 159.794 46.6244 163.788C46.6244 167.781 49.8614 171.018 53.8546 171.018Z" fill="white"/>
<path d="M40.6496 181.409C40.6496 181.409 44.0156 173.378 53.5884 173.378C63.1612 173.378 67.0603 181.409 67.0603 181.409C67.0603 181.409 62.7902 187.717 53.3436 187.473C44.7904 187.252 40.6496 181.409 40.6496 181.409Z" fill="white"/>
<path d="M71.2704 170.057C71.2635 170.057 71.2521 169.961 71.2361 169.775C71.2209 169.569 71.2004 169.296 71.1746 168.949C71.1624 168.766 71.1487 168.563 71.1343 168.341C71.1092 168.119 71.0605 167.878 71.0202 167.615C70.935 167.091 70.8537 166.483 70.6507 165.823C70.3397 164.482 69.7071 162.897 68.7133 161.219C67.7112 159.549 66.2688 157.804 64.3063 156.324C62.3507 154.858 59.8841 153.612 57.0381 153.11C54.2112 152.626 51.0215 152.715 47.9839 153.87C47.2106 154.118 46.4845 154.501 45.7371 154.86C45.0292 155.288 44.284 155.682 43.6256 156.218C42.9253 156.699 42.3132 157.301 41.6722 157.88C41.0928 158.521 40.4846 159.149 39.985 159.876C38.9601 161.3 38.0651 162.881 37.5245 164.621C36.9634 166.349 36.6608 168.185 36.6364 170.054C36.6615 171.923 36.9626 173.759 37.5238 175.489C38.0651 177.228 38.9601 178.811 39.9842 180.235C40.4838 180.963 41.0921 181.591 41.6715 182.232C42.3124 182.812 42.9245 183.413 43.6248 183.894C44.2833 184.43 45.0292 184.825 45.7371 185.253C46.4845 185.612 47.2106 185.994 47.9839 186.242C51.0222 187.398 54.2127 187.487 57.0397 187.003C59.8856 186.5 62.3522 185.254 64.3086 183.788C66.2703 182.308 67.7134 180.563 68.7148 178.893C69.7086 177.215 70.3412 175.631 70.6522 174.29C70.8552 173.629 70.9358 173.021 71.021 172.497C71.0613 172.235 71.1107 171.994 71.135 171.771C71.1495 171.549 71.1632 171.347 71.1753 171.164C71.2012 170.817 71.2217 170.544 71.2369 170.338C71.2521 170.152 71.2635 170.057 71.2704 170.057C71.2772 170.057 71.2795 170.152 71.2764 170.339C71.2711 170.546 71.2635 170.82 71.2544 171.169C71.2483 171.354 71.2407 171.558 71.2331 171.781C71.2141 172.005 71.1715 172.249 71.1373 172.514C71.0635 173.043 70.9936 173.658 70.8012 174.328C70.5108 175.686 69.8934 177.296 68.9049 179.007C67.9081 180.71 66.4612 182.493 64.4782 184.011C62.502 185.515 59.9982 186.8 57.1005 187.326C54.2226 187.834 50.9675 187.755 47.86 186.586C47.0699 186.334 46.3256 185.947 45.5622 185.581C44.8376 185.147 44.0749 184.744 43.4005 184.198C42.6842 183.708 42.0562 183.095 41.4008 182.504C40.8069 181.85 40.1842 181.208 39.6725 180.464C38.6225 179.01 37.7062 177.392 37.1504 175.613C36.5748 173.844 36.2661 171.964 36.241 170.054C36.2661 168.143 36.5756 166.265 37.1512 164.496C37.707 162.718 38.6232 161.1 39.6733 159.646C40.185 158.903 40.8077 158.261 41.4015 157.607C42.0577 157.016 42.685 156.403 43.4013 155.913C44.0757 155.367 44.8383 154.964 45.5622 154.53C46.3263 154.165 47.0699 153.778 47.86 153.526C50.9667 152.356 54.221 152.277 57.099 152.786C59.9967 153.312 62.5005 154.596 64.4766 156.1C66.4596 157.618 67.9073 159.401 68.9042 161.104C69.8926 162.814 70.51 164.425 70.8012 165.784C70.9944 166.453 71.0635 167.068 71.1373 167.597C71.1715 167.862 71.2149 168.105 71.2331 168.33C71.2407 168.553 71.2483 168.757 71.2544 168.942C71.2635 169.291 71.2711 169.565 71.2764 169.772C71.2795 169.962 71.2772 170.057 71.2704 170.057Z" fill="#263238"/>
<path d="M85.0662 160.98C85.0798 160.979 85.0958 161.152 85.1148 161.482C85.1308 161.853 85.1513 162.332 85.1772 162.926C85.2015 163.554 85.2372 164.323 85.1939 165.215C85.181 165.663 85.1665 166.14 85.1521 166.644C85.1467 167.151 85.1148 167.685 85.054 168.245C84.946 169.364 84.8715 170.596 84.6404 171.899C84.5347 172.552 84.4518 173.232 84.3164 173.923C84.1682 174.613 84.0161 175.322 83.8595 176.049C83.1645 178.94 82.2019 182.082 80.796 185.22C79.3848 188.357 77.7189 191.188 76.0317 193.638C75.1466 194.835 74.3308 195.991 73.4548 196.985C73.0253 197.488 72.6337 197.994 72.214 198.442C71.7935 198.888 71.389 199.316 71.002 199.726C70.2492 200.562 69.4759 201.227 68.8312 201.844C68.1902 202.466 67.5986 202.957 67.1074 203.35C66.6444 203.724 66.2711 204.025 65.9821 204.259C65.7221 204.463 65.5814 204.565 65.5731 204.554C65.5647 204.543 65.6886 204.421 65.9312 204.196C66.2072 203.949 66.5638 203.629 67.0063 203.233C67.4808 202.824 68.0548 202.318 68.6791 201.683C69.3071 201.053 70.0629 200.378 70.7989 199.533C71.1776 199.12 71.5737 198.689 71.9858 198.239C72.398 197.789 72.7804 197.28 73.2024 196.776C74.0624 195.78 74.8623 194.624 75.7336 193.43C77.3927 190.985 79.0358 188.171 80.4356 185.059C81.8309 181.945 82.7957 178.831 83.5059 175.965C83.6663 175.244 83.823 174.541 83.9758 173.857C84.1165 173.171 84.2047 172.497 84.3172 171.849C84.5605 170.556 84.651 169.332 84.7765 168.221C84.8464 167.665 84.8867 167.134 84.9019 166.63C84.9278 166.128 84.9513 165.654 84.9741 165.207C85.0388 164.319 85.0251 163.553 85.0251 162.927C85.0304 162.333 85.0342 161.854 85.0373 161.483C85.0426 161.154 85.0525 160.98 85.0662 160.98Z" fill="#263238"/>
<path d="M269.946 358.548H90.1582C85.2927 358.548 81.348 354.468 81.348 349.435V74.6177C81.348 69.5849 85.2927 65.5042 90.1582 65.5042H269.947C274.813 65.5042 278.757 69.5842 278.757 74.6177V349.434C278.757 354.468 274.812 358.548 269.946 358.548Z" fill="#263238"/>
<path d="M183.496 345.217C183.496 349.757 179.747 353.437 175.123 353.437C170.499 353.437 166.751 349.756 166.751 345.217C166.751 340.677 170.499 336.996 175.123 336.996C179.747 336.997 183.496 340.677 183.496 345.217Z" fill="#455A64"/>
<path d="M200.279 80.991H159.962C158.409 80.991 157.15 79.6893 157.15 78.0827C157.15 76.4768 158.409 75.1743 159.962 75.1743H200.279C201.832 75.1743 203.091 76.4768 203.091 78.0827C203.091 79.6885 201.832 80.991 200.279 80.991Z" fill="#455A64"/>
<path d="M272.362 86.4114H87.4019V331.138H272.362V86.4114Z" fill="white"/>
<path d="M272.362 86.4114H264.471V331.138H272.362V86.4114Z" fill="#F5F5F5"/>
<path d="M268.416 174.335C267.057 174.335 265.956 173.234 265.956 171.875V117.74C265.956 116.382 267.057 115.281 268.416 115.281C269.774 115.281 270.876 116.382 270.876 117.74V171.875C270.876 173.234 269.775 174.335 268.416 174.335Z" fill="#E0E0E0"/>
<path d="M248.242 142.106H111.863C109.697 142.106 107.94 140.349 107.94 138.183C107.94 136.017 109.697 134.26 111.863 134.26H248.242C250.408 134.26 252.164 136.017 252.164 138.183C252.164 140.349 250.408 142.106 248.242 142.106Z" fill="#E0E0E0"/>
<path d="M227.267 113.481H141.476C139.31 113.481 137.554 111.724 137.554 109.558C137.554 107.392 139.31 105.635 141.476 105.635H227.267C229.433 105.635 231.189 107.392 231.189 109.558C231.189 111.725 229.433 113.481 227.267 113.481Z" fill="#029894"/>
<path d="M228.877 157.895H131.228C129.062 157.895 127.306 156.139 127.306 153.972C127.306 151.806 129.062 150.05 131.228 150.05H228.877C231.043 150.05 232.8 151.806 232.8 153.972C232.799 156.139 231.043 157.895 228.877 157.895Z" fill="#E0E0E0"/>
<path d="M184.791 226.73H109.661C107.495 226.73 105.739 224.974 105.739 222.808C105.739 220.641 107.495 218.885 109.661 218.885H184.791C186.957 218.885 188.713 220.641 188.713 222.808C188.713 224.974 186.957 226.73 184.791 226.73Z" fill="#E0E0E0"/>
<path d="M246.04 210.302H109.661C107.495 210.302 105.739 208.546 105.739 206.379C105.739 204.213 107.495 202.457 109.661 202.457H246.04C248.206 202.457 249.962 204.213 249.962 206.379C249.962 208.546 248.207 210.302 246.04 210.302Z" fill="#E0E0E0"/>
<path d="M246.04 263.219H126.668C124.502 263.219 122.745 261.463 122.745 259.297C122.745 257.131 124.502 255.374 126.668 255.374H246.04C248.206 255.374 249.962 257.131 249.962 259.297C249.962 261.463 248.207 263.219 246.04 263.219Z" fill="#E0E0E0"/>
<path d="M246.04 279.986H109.661C107.495 279.986 105.739 278.23 105.739 276.063C105.739 273.897 107.495 272.141 109.661 272.141H246.04C248.206 272.141 249.962 273.897 249.962 276.063C249.962 278.23 248.207 279.986 246.04 279.986Z" fill="#E0E0E0"/>
<path d="M246.04 297.014H109.661C107.495 297.014 105.739 295.258 105.739 293.091C105.739 290.925 107.495 289.169 109.661 289.169H246.04C248.206 289.169 249.962 290.925 249.962 293.091C249.962 295.258 248.207 297.014 246.04 297.014Z" fill="#E0E0E0"/>
<path d="M115.799 259.297C115.799 261.547 113.975 263.371 111.725 263.371C109.474 263.371 107.65 261.547 107.65 259.297C107.65 257.046 109.474 255.222 111.725 255.222C113.975 255.222 115.799 257.046 115.799 259.297Z" fill="#263238"/>
<path d="M246.04 194.981H126.668C124.502 194.981 122.745 193.225 122.745 191.058C122.745 188.892 124.502 187.136 126.668 187.136H246.04C248.206 187.136 249.962 188.892 249.962 191.058C249.962 193.225 248.207 194.981 246.04 194.981Z" fill="#E0E0E0"/>
<path d="M111.725 195.133C113.975 195.133 115.799 193.309 115.799 191.058C115.799 188.808 113.975 186.984 111.725 186.984C109.474 186.984 107.65 188.808 107.65 191.058C107.65 193.309 109.474 195.133 111.725 195.133Z" fill="#263238"/>
<path d="M242.228 321.964H211.626C208.174 321.964 205.375 319.165 205.375 315.713C205.375 312.26 208.174 309.461 211.626 309.461H242.228C245.681 309.461 248.48 312.26 248.48 315.713C248.48 319.165 245.681 321.964 242.228 321.964Z" fill="#029894"/>
<path d="M84.5681 27.0418L52.8448 42.9544C50.4733 43.9649 48.9336 46.2938 48.9336 48.8722V63.7119C48.9336 76.9694 52.6334 90.1075 60.246 101.706C65.9601 110.413 73.5385 121.541 86.1481 127.904H91.8401C105.877 123.623 116.355 112.211 122.76 102.451C130.373 90.8526 134.073 77.7153 134.073 64.4571V48.8722C134.073 46.2938 132.534 43.9649 130.162 42.9544L94.0246 27.5565C92.4142 26.8707 86.1793 26.356 84.5681 27.0418Z" fill="#0E4342"/>
<path d="M83.29 27.5566L47.1528 42.9545C44.7813 43.965 43.2416 46.2939 43.2416 48.8723V63.712C43.2416 76.9695 46.9414 90.1075 54.5541 101.706C60.96 111.467 70.8788 121.516 86.1489 127.904C100.186 123.623 110.663 112.211 117.069 102.451C124.682 90.8527 128.382 77.7154 128.382 64.4571V48.8723C128.382 46.2939 126.843 43.965 124.471 42.9545L88.3326 27.5566C86.7222 26.8708 84.9011 26.8708 83.29 27.5566Z" fill="#029894"/>
<path d="M128.265 60.4363C128.271 60.4363 128.279 60.4948 128.288 60.6096C128.296 60.748 128.306 60.9161 128.317 61.1198C128.335 61.6034 128.359 62.2588 128.389 63.0853C128.417 63.9392 128.462 64.9839 128.399 66.1974C128.379 66.8057 128.359 67.4543 128.337 68.1409C128.325 68.4853 128.313 68.8389 128.301 69.2024C128.268 69.5643 128.233 69.9361 128.198 70.3163C128.049 71.837 127.944 73.5105 127.627 75.2821C127.482 76.1687 127.368 77.0933 127.183 78.0331C126.981 78.9698 126.774 79.9332 126.56 80.9216C125.612 84.8488 124.302 89.1182 122.392 93.3822C120.475 97.6432 118.213 101.491 115.923 104.823C114.721 106.45 113.614 108.023 112.426 109.375C111.843 110.059 111.312 110.749 110.742 111.358C110.171 111.965 109.622 112.548 109.098 113.106C108.077 114.245 107.028 115.151 106.154 115.993C105.708 116.405 105.307 116.803 104.913 117.141C104.515 117.471 104.15 117.774 103.819 118.049C103.178 118.573 102.671 118.988 102.297 119.294C102.137 119.42 102.004 119.525 101.896 119.611C101.804 119.68 101.755 119.713 101.75 119.708C101.746 119.703 101.787 119.659 101.871 119.579C101.973 119.485 102.096 119.372 102.247 119.233C102.609 118.913 103.099 118.48 103.718 117.933C104.042 117.651 104.399 117.34 104.787 117.001C105.173 116.655 105.566 116.25 106.002 115.832C106.859 114.978 107.891 114.061 108.895 112.913C109.411 112.353 109.951 111.766 110.514 111.155C111.075 110.543 111.597 109.852 112.173 109.167C113.345 107.812 114.436 106.24 115.623 104.616C117.885 101.288 120.124 97.4585 122.03 93.2218C123.929 88.9821 125.242 84.7409 126.205 80.838C126.422 79.8564 126.635 78.8983 126.841 77.9677C127.031 77.034 127.151 76.1147 127.303 75.2334C127.632 73.4725 127.752 71.8073 127.919 70.2935C127.958 69.9148 127.997 69.5453 128.035 69.1849C128.052 68.8237 128.068 68.4709 128.084 68.128C128.117 67.4444 128.148 66.7981 128.177 66.1921C128.262 64.9832 128.239 63.9407 128.234 63.0884C128.236 62.2626 128.237 61.6072 128.237 61.1244C128.242 60.9199 128.245 60.7518 128.248 60.6127C128.252 60.4963 128.258 60.437 128.265 60.4363Z" fill="#263238"/>
<path d="M100.126 80.3803H96.2729V59.4045C96.2729 54.4676 92.256 50.4506 87.319 50.4506C82.3821 50.4506 78.3652 54.4676 78.3652 59.4045V80.3803H74.5117V59.4045C74.5117 52.3424 80.2577 46.5972 87.319 46.5972C94.3804 46.5972 100.126 52.3431 100.126 59.4045V80.3803Z" fill="#F5F5F5"/>
<path d="M100.161 93.1969H74.4767C72.0368 93.1969 70.0583 91.2185 70.0583 88.7785V70.5597C70.0583 68.1198 72.0368 66.1414 74.4767 66.1414H100.161C102.601 66.1414 104.579 68.1198 104.579 70.5597V88.7785C104.579 91.2185 102.601 93.1969 100.161 93.1969Z" fill="white"/>
<path d="M100.161 93.1968C100.158 93.1679 100.572 93.2006 101.309 92.9991C102.025 92.7999 103.129 92.2715 103.874 91.0184C104.249 90.4056 104.485 89.6163 104.485 88.7427C104.479 87.8516 104.474 86.8859 104.469 85.8488C104.46 83.7685 104.451 81.4046 104.439 78.7935C104.427 76.181 104.414 73.3228 104.4 70.2548C104.309 68.7782 103.349 67.3168 101.892 66.688C101.163 66.3519 100.381 66.2903 99.5265 66.3207C98.6848 66.3223 97.8309 66.323 96.9671 66.3245C90.0525 66.3291 82.4551 66.3344 74.479 66.3397C73.5263 66.3489 72.582 66.6659 71.8482 67.2605C71.119 67.8513 70.5746 68.6748 70.3732 69.5826C70.2644 70.0389 70.2462 70.4875 70.2538 70.9786C70.2538 71.4607 70.253 71.9412 70.253 72.4195C70.2523 73.376 70.2515 74.3249 70.2515 75.2655C70.2477 79.0269 70.2439 82.6553 70.2401 86.1126C70.3123 87.828 69.9534 89.6011 70.8392 90.9584C71.6437 92.3285 73.1895 93.1079 74.6866 93.0333C77.7592 93.0417 80.6219 93.0501 83.2375 93.0577C88.4489 93.0843 92.6742 93.1056 95.6198 93.1208C97.0645 93.1368 98.1944 93.1489 98.9866 93.158C99.3554 93.1664 99.6459 93.1725 99.8618 93.1778C100.059 93.1831 100.161 93.19 100.161 93.1968C100.161 93.2037 100.059 93.2105 99.8626 93.2174C99.6459 93.2219 99.3562 93.2288 98.9874 93.2371C98.1959 93.2455 97.0652 93.2584 95.6206 93.2744C92.675 93.2896 88.4505 93.3109 83.2383 93.3375C80.6227 93.3451 77.7592 93.3527 74.6874 93.3618C73.1089 93.4493 71.4095 92.6167 70.5419 91.1378C70.0911 90.4162 69.8736 89.5373 69.8804 88.6727C69.8789 87.831 69.8782 86.9772 69.8766 86.1134C69.8728 82.6561 69.869 79.0277 69.8652 75.2663C69.8645 74.3257 69.8645 73.3768 69.8637 72.4203C69.8637 71.942 69.863 71.4622 69.863 70.9794C69.8538 70.508 69.8721 69.9818 69.9915 69.4922C70.2127 68.4984 70.8058 67.5974 71.6034 66.9518C72.404 66.3017 73.4404 65.9527 74.4806 65.9436C82.4559 65.9489 90.054 65.9543 96.9687 65.9596C97.8324 65.9611 98.6855 65.9619 99.528 65.9634C100.349 65.933 101.27 66.0029 102.036 66.3702C103.61 67.0575 104.638 68.6398 104.728 70.2312C104.754 73.3274 104.722 76.1741 104.72 78.7935C104.71 81.4046 104.7 83.7685 104.691 85.8488C104.685 86.8859 104.679 87.8523 104.675 88.7427C104.665 89.6506 104.406 90.471 104.007 91.0983C103.214 92.3825 102.066 92.898 101.332 93.0767C100.573 93.2561 100.161 93.1968 100.161 93.1968Z" fill="#263238"/>
<path d="M89.9681 80.3743C90.6433 79.6937 91.0607 78.76 91.0607 77.7237C91.0607 75.6274 89.3606 73.9272 87.2643 73.9272C85.168 73.9272 83.4679 75.6274 83.4679 77.7237C83.4679 79.4588 84.6388 80.9057 86.2287 81.3589L85.4129 84.966H89.0268L88.3007 81.3589C88.9409 81.1764 89.5127 80.8327 89.9681 80.3743Z" fill="#0E4342"/>
<path d="M325.467 107.5V138.313C325.533 143.641 326.316 152.004 317.886 151.724C310.59 150.93 308.655 144.023 308.598 139.05C308.572 136.692 308.544 134.724 308.525 134.482C308.525 134.482 300.539 133.831 299.864 125.943C299.539 122.131 299.507 114.224 299.561 107.072C299.619 99.3891 305.576 93.0432 313.238 92.4843L314 92.4288C322.25 92.3072 325.575 99.2499 325.467 107.5Z" fill="#FFBF9D"/>
<path d="M308.525 134.482C308.525 134.482 313.522 134.411 318.583 130.692C318.583 130.692 316.496 136.642 308.566 136.506L308.525 134.482Z" fill="#FF9A6C"/>
<path d="M313.048 110.303C313.205 110.463 314.115 109.73 315.438 109.694C316.758 109.639 317.746 110.307 317.885 110.137C317.954 110.061 317.79 109.769 317.36 109.467C316.936 109.166 316.218 108.881 315.395 108.909C314.572 108.938 313.888 109.269 313.499 109.599C313.1 109.931 312.97 110.232 313.048 110.303Z" fill="#263238"/>
<path d="M313.027 114.042C313.049 114.607 313.544 115.054 314.135 115.043C314.723 115.032 315.185 114.566 315.163 114.001C315.142 113.437 314.646 112.989 314.057 112.999C313.467 113.011 313.006 113.477 313.027 114.042Z" fill="#263238"/>
<path d="M309.737 119.497C309.737 119.427 308.974 119.352 307.74 119.285C307.427 119.276 307.13 119.236 307.062 119.028C306.974 118.81 307.078 118.466 307.202 118.094C307.439 117.323 307.686 116.515 307.946 115.668C308.973 112.216 309.693 109.387 309.553 109.347C309.413 109.306 308.468 112.072 307.441 115.524C307.196 116.375 306.96 117.185 306.736 117.961C306.645 118.321 306.472 118.735 306.665 119.189C306.765 119.414 307.005 119.565 307.207 119.604C307.41 119.65 307.585 119.64 307.738 119.639C308.974 119.617 309.737 119.566 309.737 119.497Z" fill="#263238"/>
<path d="M313.61 104.68C313.738 104.973 314.795 104.752 316.063 104.817C317.331 104.855 318.371 105.162 318.518 104.88C318.583 104.745 318.386 104.475 317.955 104.214C317.528 103.952 316.86 103.723 316.101 103.691C315.341 103.661 314.66 103.835 314.217 104.061C313.769 104.287 313.554 104.541 313.61 104.68Z" fill="#263238"/>
<path d="M301.058 106.659C301.197 106.898 302.228 106.632 303.478 106.594C304.728 106.533 305.765 106.716 305.897 106.466C305.955 106.346 305.749 106.133 305.313 105.943C304.881 105.753 304.213 105.608 303.464 105.637C302.716 105.667 302.053 105.866 301.627 106.09C301.196 106.314 300.996 106.545 301.058 106.659Z" fill="#263238"/>
<path d="M289.086 99.9898C289.171 99.672 289.403 99.4112 289.685 99.2439C290.303 98.8797 291.015 98.9276 291.702 98.917C293.796 98.8835 295.873 98.2441 297.634 97.1134C298.459 95.9242 299.387 94.8065 300.395 93.7679C302.786 91.3021 304.753 89.624 306.789 88.8051C309.421 87.7452 313.823 87.3156 316.568 88.0356C319.313 88.7557 321.778 90.9827 322.16 93.7945C323.7 92.4928 326.01 92.5042 327.885 93.2577L327.932 93.2372C330.02 93.9815 331.206 96.1873 331.822 98.3163C332.438 100.445 332.701 102.723 333.828 104.63C334.064 105.029 334.344 105.508 334.139 105.923C333.979 106.244 333.571 106.376 333.217 106.324C332.863 106.272 332.548 106.076 332.245 105.884C332.478 106.441 332.711 106.999 332.944 107.557C332.188 107.688 331.407 107.628 330.673 107.406C330.23 109.397 329.7 111.67 329.188 113.02C328.315 113.018 327.516 113.08 326.978 113.564C326.247 114.221 325.92 115.458 324.705 114.988C324.087 114.75 323.523 113.452 323.315 112.822C321.942 108.641 321.486 104.163 321.982 99.7906C321.118 98.8691 320.074 98.1156 318.926 97.5848L319.02 97.6692C316.815 96.9036 314.322 96.1501 312.23 97.1857C310.607 97.9886 309.654 99.672 308.44 101.016C306.141 103.562 303.04 104.946 299.613 105.093C299.496 107.314 299.682 110.454 299.566 112.676L297.698 109.117L297.696 109.135C297.544 108.874 297.417 108.611 297.294 108.348L297.252 108.269V108.259C297.058 107.836 296.873 107.413 296.627 106.995C296.621 107.001 296.613 107.008 296.606 107.014C295.403 108.075 293.629 106.452 294.578 105.158C294.766 104.901 294.992 104.672 295.249 104.483C294.699 105 293.879 105.248 293.157 105.026C292.436 104.804 291.876 104.074 291.939 103.322C291.982 102.809 292.349 102.351 292.812 102.148C291.839 102.222 290.846 102.011 289.998 101.527C289.442 101.21 288.897 100.688 289.086 99.9898Z" fill="#263238"/>
<path d="M319.677 94.7002C319.661 94.7207 320.007 94.9085 320.468 95.4241C320.925 95.9365 321.438 96.8292 321.679 98.0442C321.803 98.6479 321.882 99.3231 321.881 100.05C321.884 100.777 321.825 101.555 321.77 102.375C321.717 103.195 321.658 104.062 321.711 104.963C321.737 105.413 321.791 105.87 321.889 106.327C321.988 106.777 322.106 107.265 322.445 107.652C322.716 107.967 323.167 108.107 323.559 108.026C323.954 107.956 324.304 107.746 324.561 107.46C325.069 106.867 325.195 106.116 325.322 105.454L325.156 105.474C325.426 106.069 325.704 106.657 326.116 107.127C326.521 107.599 327.082 107.912 327.651 107.963C327.935 107.989 328.221 107.943 328.465 107.82C328.713 107.699 328.894 107.493 329.018 107.276C329.135 107.054 329.197 106.811 329.185 106.576C329.171 106.342 329.08 106.12 328.932 105.963L328.848 106.037C329.456 106.73 330.099 107.102 330.543 107.309C330.767 107.412 330.947 107.474 331.068 107.514C331.191 107.55 331.255 107.565 331.257 107.56C331.258 107.555 331.198 107.53 331.079 107.484C330.961 107.436 330.787 107.365 330.569 107.255C330.138 107.035 329.516 106.652 328.933 105.965L328.85 106.039C329.115 106.321 329.13 106.815 328.902 107.212C328.787 107.407 328.621 107.591 328.402 107.694C328.185 107.8 327.924 107.841 327.665 107.814C327.142 107.761 326.619 107.469 326.24 107.019C325.851 106.571 325.582 105.998 325.315 105.401L325.202 105.148L325.15 105.421C325.023 106.083 324.889 106.804 324.426 107.338C324.196 107.594 323.875 107.784 323.529 107.844C323.183 107.911 322.818 107.797 322.583 107.527C322.286 107.193 322.165 106.73 322.069 106.289C321.973 105.842 321.919 105.395 321.892 104.951C321.838 104.065 321.892 103.205 321.94 102.385C321.991 101.565 322.044 100.784 322.035 100.048C322.028 99.3117 321.942 98.6274 321.807 98.0161C321.545 96.7858 321.003 95.8825 320.522 95.3754C320.036 94.8667 319.677 94.7002 319.677 94.7002Z" fill="#455A64"/>
<path d="M295.265 102.378C295.263 102.38 295.285 102.399 295.328 102.432C295.381 102.471 295.446 102.518 295.525 102.576C295.611 102.64 295.72 102.716 295.859 102.79C295.996 102.869 296.151 102.964 296.34 103.043C297.073 103.391 298.248 103.737 299.717 103.65C301.173 103.568 302.92 103.053 304.48 101.892C306.057 100.758 307.44 99.0881 308.572 97.1758C309.146 96.2201 309.613 95.2407 310.129 94.3359C310.641 93.4311 311.207 92.5939 311.892 91.934C312.57 91.2702 313.356 90.779 314.166 90.5539C314.569 90.4338 314.976 90.4064 315.365 90.4155C315.754 90.4361 316.123 90.5151 316.463 90.6262C317.143 90.8543 317.691 91.2299 318.108 91.6169C318.526 92.007 318.806 92.4191 318.998 92.7719C319.357 93.4972 319.377 93.9626 319.406 93.955C319.409 93.955 319.407 93.9268 319.4 93.8721C319.39 93.8067 319.378 93.7276 319.363 93.6303C319.324 93.4189 319.233 93.1125 319.063 92.7392C318.878 92.3742 318.6 91.9476 318.18 91.5416C317.761 91.1394 317.203 90.7455 316.505 90.5022C316.156 90.3828 315.776 90.2977 315.372 90.2726C314.971 90.2589 314.544 90.2848 314.125 90.4057C313.283 90.633 312.469 91.1348 311.774 91.8108C311.069 92.4837 310.489 93.3353 309.972 94.2462C309.449 95.1571 308.982 96.1341 308.413 97.0808C307.29 98.9786 305.927 100.63 304.38 101.753C302.849 102.904 301.143 103.421 299.709 103.519C298.264 103.621 297.103 103.3 296.37 102.977C295.631 102.648 295.279 102.356 295.265 102.378Z" fill="#455A64"/>
<path d="M294.547 98.9109C294.54 98.9224 294.641 98.9915 294.83 99.1079C295.017 99.228 295.303 99.3763 295.668 99.5337C296.031 99.6941 296.483 99.8439 296.995 99.9694C297.508 100.086 298.083 100.172 298.691 100.194C299.3 100.21 299.879 100.162 300.399 100.078C300.917 99.9861 301.377 99.8652 301.751 99.7283C302.125 99.5945 302.42 99.4652 302.614 99.3573C302.81 99.2531 302.915 99.19 302.909 99.1786C302.894 99.1474 302.459 99.3717 301.71 99.6044C301.337 99.7238 300.882 99.8287 300.372 99.91C299.86 99.9823 299.293 100.025 298.697 100.01C298.101 99.9868 297.538 99.9078 297.032 99.8036C296.528 99.6895 296.081 99.5557 295.717 99.4128C294.985 99.1322 294.564 98.8805 294.547 98.9109Z" fill="#455A64"/>
<path d="M300.999 110.303C301.155 110.463 302.066 109.73 303.388 109.694C304.708 109.639 305.697 110.307 305.836 110.137C305.904 110.061 305.741 109.769 305.311 109.467C304.886 109.166 304.169 108.881 303.346 108.909C302.523 108.938 301.839 109.269 301.45 109.599C301.051 109.931 300.922 110.232 300.999 110.303Z" fill="#263238"/>
<path d="M302.346 114.043C302.367 114.608 302.863 115.055 303.453 115.043C304.042 115.032 304.503 114.566 304.482 114.002C304.461 113.437 303.965 112.989 303.376 113C302.786 113.011 302.325 113.478 302.346 114.043Z" fill="#263238"/>
<path d="M325.26 113.395C325.39 113.326 330.562 111.396 330.783 116.8C331.004 122.204 325.534 121.312 325.518 121.157C325.502 121.003 325.26 113.395 325.26 113.395Z" fill="#FFBF9D"/>
<path d="M327.085 119.042C327.108 119.024 327.181 119.105 327.344 119.171C327.502 119.236 327.771 119.274 328.048 119.157C328.61 118.923 329.054 117.998 329.04 117.022C329.034 116.53 328.912 116.066 328.722 115.686C328.541 115.297 328.274 115.031 327.984 114.992C327.695 114.938 327.499 115.118 327.439 115.273C327.373 115.427 327.412 115.533 327.384 115.543C327.369 115.558 327.264 115.457 327.298 115.232C327.316 115.124 327.374 114.994 327.497 114.885C327.622 114.775 327.811 114.712 328.012 114.726C328.43 114.738 328.821 115.106 329.03 115.524C329.262 115.943 329.411 116.463 329.418 117.016C329.428 118.106 328.913 119.148 328.14 119.407C327.765 119.522 327.442 119.42 327.273 119.299C327.099 119.173 327.067 119.052 327.085 119.042Z" fill="#FF9A6C"/>
<path d="M313.589 120.618C313.634 120.626 313.635 120.935 313.448 121.393C313.26 121.843 312.85 122.428 312.205 122.835C311.565 123.249 310.854 123.38 310.362 123.33C309.865 123.286 309.597 123.122 309.613 123.08C309.632 123.019 309.918 123.08 310.365 123.05C310.81 123.025 311.419 122.869 311.991 122.501C312.567 122.138 312.964 121.648 313.199 121.266C313.432 120.879 313.528 120.603 313.589 120.618Z" fill="#263238"/>
<path d="M340.814 334.401L342.429 352.677L348.14 366.786C348.552 367.803 347.962 368.935 346.855 369.252C346.235 369.429 345.567 369.317 345.054 368.944C341.792 366.57 330.033 357.846 329.903 356.709C329.732 355.238 326.736 337.267 326.736 337.267L340.814 334.401Z" fill="#455A64"/>
<path d="M346.855 369.253L329.579 354.628L329.748 355.982C329.865 356.723 329.878 357.125 330.395 357.587C331.781 358.825 335.83 362.615 344.87 369.255C345.397 369.64 346.222 369.451 346.855 369.253Z" fill="#263238"/>
<path d="M332.979 348.928C333.501 349.196 333.737 349.871 333.475 350.372C333.212 350.873 332.483 351.105 331.957 350.847C331.43 350.588 331.12 349.785 331.44 349.315C331.761 348.846 332.632 348.617 333.077 348.986" fill="white"/>
<path d="M341.521 361.727C341.636 361.766 341.966 360.767 343.062 360.138C344.137 359.479 345.238 359.629 345.25 359.514C345.262 359.468 345 359.351 344.539 359.335C344.082 359.318 343.433 359.443 342.833 359.798C342.235 360.154 341.835 360.651 341.655 361.046C341.471 361.445 341.471 361.717 341.521 361.727Z" fill="#263238"/>
<path d="M343.178 364.031C343.279 364.1 343.835 363.446 344.808 363.075C345.773 362.685 346.658 362.774 346.677 362.657C346.722 362.558 345.744 362.264 344.643 362.704C343.536 363.132 343.072 363.992 343.178 364.031Z" fill="#263238"/>
<path d="M338.595 358.853C338.695 358.931 339.545 357.92 341.004 357.218C342.452 356.496 343.821 356.422 343.811 356.301C343.831 356.2 342.362 356.091 340.807 356.861C339.244 357.617 338.496 358.811 338.595 358.853Z" fill="#263238"/>
<path d="M337.61 353.336C337.675 353.44 338.698 352.913 340.088 352.726C341.475 352.521 342.619 352.744 342.648 352.627C342.691 352.532 341.516 352.111 340.025 352.327C338.532 352.532 337.54 353.258 337.61 353.336Z" fill="#263238"/>
<path d="M336.992 347.982C337.064 348.082 338.073 347.367 339.553 347.283C341.031 347.168 342.137 347.741 342.194 347.634C342.221 347.592 341.984 347.384 341.509 347.186C341.038 346.987 340.319 346.83 339.522 346.882C338.726 346.936 338.038 347.189 337.602 347.449C337.162 347.708 336.959 347.945 336.992 347.982Z" fill="#263238"/>
<path d="M339.403 346.267C339.428 346.265 339.444 346.015 339.351 345.574C339.259 345.137 339.049 344.501 338.564 343.826C338.317 343.508 338.049 343.094 337.48 342.908C337.197 342.814 336.801 342.9 336.598 343.165C336.397 343.423 336.359 343.729 336.385 344.019C336.536 345.174 337.719 346.189 339.123 346.217C340.529 346.221 341.705 345.349 342.143 344.295C342.235 344.024 342.282 343.698 342.096 343.405C341.913 343.109 341.505 343.025 341.232 343.097C340.665 343.236 340.337 343.584 340.024 343.849C339.413 344.421 339.059 344.994 338.86 345.398C338.661 345.806 338.61 346.05 338.634 346.058C338.707 346.099 339.023 345.113 340.233 344.056C340.54 343.81 340.892 343.502 341.303 343.425C341.502 343.386 341.685 343.444 341.775 343.59C341.866 343.73 341.851 343.962 341.769 344.176C341.395 345.041 340.319 345.835 339.129 345.814C337.946 345.802 336.907 344.908 336.776 343.98C336.748 343.756 336.786 343.524 336.899 343.378C337.01 343.234 337.196 343.179 337.383 343.229C337.777 343.334 338.073 343.693 338.316 343.991C339.287 345.249 339.32 346.294 339.403 346.267Z" fill="#263238"/>
<path d="M294.773 335.345L295.493 350.822C295.493 350.822 278.999 356.708 278.837 359.579L310.809 359.345L310.74 335.187L294.773 335.345Z" fill="#455A64"/>
<path d="M305.368 349.447C305.989 349.601 306.422 350.252 306.283 350.841C306.145 351.429 305.444 351.849 304.821 351.704C304.198 351.561 303.653 350.794 303.861 350.223C304.068 349.653 304.92 349.202 305.488 349.483" fill="#E0E0E0"/>
<path d="M310.809 359.345L310.702 356.911L280.087 358.046C280.087 358.046 278.668 358.638 278.837 359.58L310.809 359.345Z" fill="#263238"/>
<path d="M294.973 350.672C294.979 350.819 295.761 350.88 296.532 351.346C297.318 351.793 297.719 352.426 297.862 352.367C298.006 352.337 297.766 351.462 296.821 350.912C295.881 350.356 294.938 350.538 294.973 350.672Z" fill="#263238"/>
<path d="M291.63 352.001C291.596 352.143 292.274 352.388 292.81 353.005C293.364 353.607 293.504 354.277 293.659 354.269C293.806 354.291 293.907 353.43 293.226 352.675C292.552 351.915 291.633 351.86 291.63 352.001Z" fill="#263238"/>
<path d="M289.757 355.788C289.899 355.818 290.11 355.083 289.703 354.282C289.301 353.478 288.562 353.167 288.498 353.29C288.41 353.411 288.888 353.839 289.212 354.501C289.552 355.156 289.602 355.774 289.757 355.788Z" fill="#263238"/>
<path d="M295.225 347.128C295.292 347.261 296.006 347.053 296.889 347.104C297.773 347.137 298.462 347.41 298.542 347.284C298.632 347.177 297.957 346.639 296.916 346.593C295.876 346.541 295.148 347.013 295.225 347.128Z" fill="#263238"/>
<path d="M289.207 224.219C289.225 225.115 292.921 348.802 292.921 348.802H312.684L316.688 242.996C316.688 242.996 321.363 298.317 321.363 299.512C321.363 300.708 325.488 349.398 325.488 349.398L343.811 347.992L342.61 236.594L340.37 220.262L289.207 224.219Z" fill="#263238"/>
<path d="M318.744 239.082C318.753 239.107 318.466 239.219 317.942 239.399C317.417 239.58 316.654 239.829 315.71 240.128L315.53 240.185L315.518 240.011C315.408 238.523 315.283 236.533 315.167 234.352C315.042 231.988 314.95 229.847 314.902 228.297C314.879 227.521 314.867 226.894 314.867 226.46C314.867 226.025 314.88 225.785 314.908 225.784C314.934 225.782 314.973 226.021 315.02 226.453C315.066 226.885 315.121 227.511 315.179 228.284C315.297 229.832 315.432 231.971 315.559 234.335C315.675 236.516 315.762 238.507 315.81 239.998L315.618 239.881C316.573 239.611 317.35 239.399 317.891 239.261C318.43 239.123 318.735 239.057 318.744 239.082Z" fill="#455A64"/>
<path d="M317.244 226.219C317.231 226.203 317.307 226.12 317.506 226.057C317.7 225.995 318.03 225.977 318.379 226.129C318.719 226.261 319.096 226.653 319.04 227.145C319 227.61 318.621 228.116 317.989 228.24C317.355 228.343 316.789 228.018 316.532 227.619C316.252 227.202 316.353 226.725 316.548 226.445C316.742 226.151 317.01 225.995 317.201 225.931C317.396 225.866 317.512 225.877 317.516 225.897C317.545 225.949 317.07 226.038 316.793 226.559C316.662 226.809 316.622 227.16 316.84 227.453C317.043 227.744 317.488 227.972 317.912 227.897C318.332 227.821 318.641 227.45 318.681 227.113C318.738 226.768 318.507 226.485 318.245 226.344C317.691 226.047 317.256 226.273 317.244 226.219Z" fill="#455A64"/>
<path d="M326.315 227.488C326.208 227.497 326.058 226.961 325.981 226.29C325.903 225.619 325.928 225.067 326.035 225.057C326.143 225.047 326.292 225.583 326.37 226.254C326.448 226.926 326.423 227.478 326.315 227.488Z" fill="#455A64"/>
<path d="M327.686 227.364C327.578 227.364 327.488 226.793 327.484 226.088C327.48 225.383 327.565 224.811 327.673 224.81C327.78 224.81 327.871 225.381 327.875 226.086C327.879 226.791 327.794 227.363 327.686 227.364Z" fill="#455A64"/>
<path d="M303.864 228.218C303.756 228.228 303.589 227.585 303.49 226.782C303.391 225.978 303.398 225.319 303.506 225.308C303.614 225.298 303.781 225.94 303.88 226.744C303.978 227.547 303.971 228.206 303.864 228.218Z" fill="#455A64"/>
<path d="M305.524 228.336C305.428 228.37 305.079 227.713 305.041 226.831C304.998 225.95 305.287 225.27 305.386 225.296C305.496 225.32 305.39 225.994 305.432 226.817C305.466 227.64 305.631 228.304 305.524 228.336Z" fill="#455A64"/>
<path d="M299.273 226.683C299.297 226.687 299.273 226.881 299.207 227.228C299.148 227.577 299.015 228.075 298.81 228.678C298.404 229.886 297.615 231.508 296.362 233.086C295.103 234.661 293.646 235.858 292.502 236.597C291.931 236.968 291.448 237.244 291.098 237.408C290.752 237.577 290.555 237.661 290.543 237.642C290.511 237.594 291.26 237.198 292.35 236.421C293.44 235.648 294.839 234.449 296.075 232.904C297.303 231.355 298.112 229.782 298.572 228.608C299.039 227.434 299.213 226.672 299.273 226.683Z" fill="#455A64"/>
<path d="M342.005 235.018C342.007 235.037 341.795 235.077 341.406 235.106C341.017 235.137 340.449 235.143 339.751 235.077C338.365 234.956 336.429 234.465 334.689 233.317C332.949 232.169 331.854 230.661 331.315 229.512C331.041 228.936 330.88 228.449 330.798 228.108C330.715 227.767 330.694 227.574 330.715 227.571C330.778 227.556 330.946 228.315 331.541 229.42C332.125 230.519 333.217 231.955 334.897 233.064C336.578 234.172 338.435 234.682 339.783 234.857C341.141 235.04 342.002 234.96 342.005 235.018Z" fill="#455A64"/>
<path d="M309.808 297.653C309.783 297.737 306.507 297.029 302.493 296.072C298.477 295.115 295.242 294.271 295.267 294.187C295.292 294.103 298.567 294.811 302.583 295.769C306.598 296.726 309.833 297.57 309.808 297.653Z" fill="#455A64"/>
<path d="M341.652 293.152C341.699 293.228 338.848 294.717 335.285 296.477C331.721 298.238 328.795 299.604 328.748 299.528C328.701 299.452 331.551 297.963 335.115 296.202C338.677 294.442 341.604 293.076 341.652 293.152Z" fill="#455A64"/>
<path d="M279.612 182.337L282.315 185.715V179.902H290.827C290.827 179.902 291.773 193.214 291.57 196.052C291.499 197.045 291.064 198.683 290.528 200.394C289.418 203.94 284.942 205.049 282.277 202.46C281.382 201.59 280.471 200.601 279.612 199.497C275.828 194.633 269.543 182.784 269.543 182.784L276.099 178.824L279.612 182.337Z" fill="#FFBF9D"/>
<path d="M279.074 181.712C279.032 181.75 279.471 182.305 280.186 183.197C280.903 184.088 281.899 185.314 283.036 186.641C284.175 187.966 285.247 189.135 286.081 189.927C286.91 190.725 287.496 191.139 287.528 191.099C287.566 191.052 287.052 190.57 286.284 189.729C285.509 188.894 284.476 187.702 283.34 186.38C281.088 183.72 279.171 181.623 279.074 181.712Z" fill="#FF9A6C"/>
<path d="M299.032 141.432L308.009 137.911L324.547 136.975L332.319 139.93L321.667 145.845L312.485 145.508L299.032 141.432Z" fill="#FFBF9D"/>
<path d="M288.444 225.911C289.256 226.051 343.439 228.352 343.439 228.352L341.536 179.634L341.379 170.068L338.301 141.09C338.301 141.09 330.203 138.306 326.07 136.976C326.07 136.976 321.721 141.508 313.452 141.386C305.367 141.266 303.678 139.443 303.678 139.443L292.376 143.776C292.376 143.776 284.339 146.658 282.956 150.214C281.61 153.675 279.142 173.445 279.142 173.445H290.858L290.637 208.368L288.444 225.911Z" fill="#3B5998"/>
<g opacity="0.2">
<path d="M322.511 160.889L324.191 173.171L332.319 176.8L338.327 171.68V160.279L322.511 160.889Z" fill="black"/>
</g>
<path d="M338.114 164.373C338.114 164.474 334.736 164.557 330.57 164.557C326.403 164.557 323.025 164.474 323.025 164.373C323.025 164.271 326.403 164.188 330.57 164.188C334.736 164.188 338.114 164.271 338.114 164.373Z" fill="#263238"/>
<path d="M284.793 155.289C284.802 155.288 284.832 155.399 284.88 155.612C284.936 155.854 285.007 156.166 285.097 156.554C285.3 157.371 285.629 158.559 286.175 160.01C286.715 161.466 287.477 163.172 288.41 165.09C289.292 167.044 290.09 169.293 290.924 171.73L290.932 171.755V171.783C290.913 174.701 290.891 177.896 290.869 181.232C290.79 188.683 290.72 195.425 290.667 200.348C290.624 202.766 290.59 204.736 290.566 206.138C290.547 206.796 290.532 207.32 290.52 207.712C290.506 208.072 290.493 208.261 290.481 208.261C290.469 208.261 290.458 208.071 290.45 207.71C290.444 207.317 290.437 206.792 290.429 206.134C290.427 204.73 290.423 202.76 290.418 200.34C290.444 195.418 290.478 188.676 290.517 181.227C290.548 177.891 290.577 174.697 290.602 171.78L290.611 171.832C289.792 169.401 289.009 167.144 288.156 165.206C287.246 163.284 286.499 161.55 285.984 160.079C285.461 158.609 285.162 157.405 284.99 156.577C284.91 156.161 284.852 155.841 284.825 155.622C284.795 155.405 284.783 155.292 284.793 155.289Z" fill="#263238"/>
<path d="M342.237 149.59C342.262 149.592 342.253 149.962 342.227 150.63C342.2 151.361 342.165 152.313 342.121 153.459C342.025 155.909 341.896 159.177 341.753 162.79C341.589 166.403 341.441 169.672 341.331 172.122C341.265 173.267 341.21 174.218 341.168 174.949C341.122 175.617 341.086 175.985 341.061 175.984C341.037 175.983 341.027 175.613 341.032 174.944C341.045 174.212 341.062 173.26 341.083 172.113C341.142 169.723 341.251 166.422 341.402 162.776C341.553 159.131 341.72 155.832 341.874 153.446C341.952 152.253 342.027 151.288 342.091 150.622C342.159 149.954 342.214 149.588 342.237 149.59Z" fill="#263238"/>
<g opacity="0.3">
<path d="M284.823 157.06C284.56 162.406 286.575 167.584 290.143 171.574C289.041 166.548 286.288 161.87 284.823 157.06Z" fill="black"/>
</g>
<g opacity="0.3">
<path d="M308.621 205.291C311.154 205.076 313.437 203.575 315.124 201.672C316.809 199.771 318.336 197.613 319.491 195.349C321.062 192.27 321.841 188.917 322.052 185.408C318.895 193.867 314.268 200.564 308.621 205.291Z" fill="black"/>
</g>
<path d="M323.05 181.718C323.062 181.721 323.046 181.828 323.005 182.029C322.951 182.271 322.887 182.561 322.809 182.909C322.726 183.292 322.609 183.756 322.444 184.288C322.286 184.821 322.118 185.432 321.875 186.089C321.436 187.419 320.794 188.962 320.005 190.639C319.189 192.302 318.201 194.088 317.024 195.875C315.832 197.654 314.569 199.258 313.348 200.653C312.102 202.025 310.924 203.21 309.856 204.118C309.34 204.593 308.836 204.977 308.401 205.324C307.97 205.676 307.583 205.959 307.258 206.177C306.964 206.378 306.718 206.545 306.513 206.684C306.341 206.797 306.247 206.852 306.241 206.842C306.234 206.832 306.314 206.758 306.472 206.627C306.666 206.473 306.897 206.288 307.176 206.067C307.488 205.833 307.86 205.536 308.277 205.171C308.698 204.812 309.188 204.417 309.69 203.933C310.73 203.007 311.882 201.812 313.106 200.439C314.304 199.043 315.549 197.446 316.731 195.681C317.899 193.908 318.887 192.14 319.714 190.497C320.513 188.841 321.175 187.318 321.641 186.006C321.898 185.358 322.081 184.755 322.257 184.231C322.438 183.707 322.574 183.25 322.677 182.874C322.78 182.533 322.865 182.249 322.936 182.013C322.999 181.816 323.037 181.715 323.05 181.718Z" fill="#263238"/>
<path d="M321.484 166.47C321.496 166.472 321.474 166.643 321.421 166.967C321.358 167.324 321.275 167.794 321.172 168.382C321.067 168.997 320.922 169.748 320.702 170.606C320.488 171.467 320.282 172.457 319.945 173.521C319.787 174.057 319.621 174.618 319.449 175.202C319.273 175.786 319.046 176.379 318.836 177.001C318.428 178.25 317.882 179.543 317.329 180.913C316.155 183.622 314.703 186.534 312.935 189.45C311.142 192.352 309.21 194.971 307.332 197.249C306.363 198.365 305.46 199.44 304.533 200.371C304.075 200.841 303.65 201.313 303.211 201.735C302.769 202.154 302.345 202.557 301.939 202.941C301.144 203.726 300.356 204.36 299.688 204.941C299.023 205.528 298.421 205.998 297.921 206.371C297.445 206.73 297.064 207.018 296.774 207.237C296.51 207.431 296.367 207.529 296.361 207.519C296.354 207.509 296.481 207.393 296.732 207.18C297.011 206.949 297.377 206.644 297.836 206.264C298.321 205.875 298.909 205.391 299.559 204.791C300.214 204.198 300.987 203.553 301.768 202.76C302.167 202.371 302.584 201.964 303.018 201.542C303.451 201.117 303.869 200.642 304.32 200.169C305.234 199.233 306.124 198.157 307.081 197.041C308.937 194.762 310.851 192.152 312.635 189.265C314.394 186.364 315.847 183.473 317.031 180.783C317.589 179.424 318.143 178.141 318.56 176.901C318.776 176.284 319.008 175.696 319.19 175.117C319.369 174.539 319.541 173.982 319.706 173.45C320.057 172.394 320.28 171.411 320.511 170.558C320.749 169.706 320.912 168.963 321.038 168.353C321.168 167.772 321.272 167.307 321.351 166.953C321.427 166.635 321.473 166.467 321.484 166.47Z" fill="#263238"/>
<path d="M278.673 151.314C282.013 156.39 295.536 176.953 299.534 183.033C299.975 183.704 299.426 184.58 298.629 184.48L274.606 181.458C274.35 181.426 274.117 181.289 273.964 181.08L251.019 149.741C250.545 149.094 251.047 148.189 251.847 148.248L276.564 150.077C277.422 150.14 278.2 150.596 278.673 151.314Z" fill="#E0E0E0"/>
<path d="M278.673 151.314C278.673 151.314 278.624 151.206 278.482 151.026C278.338 150.85 278.098 150.594 277.705 150.372C277.321 150.134 276.748 150.006 276.104 149.983C275.453 149.93 274.707 149.868 273.869 149.799C270.484 149.534 265.621 149.152 259.62 148.681C258.115 148.566 256.54 148.445 254.897 148.319C254.076 148.256 253.238 148.192 252.385 148.128C252.163 148.115 251.977 148.087 251.723 148.087C251.47 148.092 251.219 148.201 251.032 148.373C250.646 148.711 250.548 149.347 250.849 149.785C252.942 152.655 255.177 155.72 257.529 158.945C262.239 165.387 267.416 172.467 272.851 179.897C273.2 180.368 273.51 180.811 273.888 181.3C274.006 181.427 274.152 181.528 274.315 181.589C274.485 181.656 274.651 181.663 274.781 181.681L275.629 181.788C276.757 181.929 277.877 182.07 278.99 182.21C281.214 182.489 283.406 182.763 285.561 183.033C289.869 183.571 294.026 184.09 297.985 184.584C298.243 184.612 298.457 184.653 298.748 184.669C299.042 184.673 299.342 184.549 299.544 184.338C299.752 184.13 299.87 183.841 299.873 183.548C299.884 183.26 299.716 182.952 299.584 182.778C299.048 181.967 298.52 181.167 298 180.378C296.959 178.801 295.948 177.27 294.97 175.789C293.013 172.831 291.191 170.074 289.526 167.556C286.195 162.541 283.497 158.478 281.619 155.65C280.687 154.261 279.959 153.178 279.453 152.424C279.209 152.069 279.02 151.793 278.881 151.59C278.749 151.404 278.679 151.311 278.673 151.314C278.667 151.318 278.726 151.419 278.845 151.613C278.976 151.821 279.155 152.104 279.383 152.469C279.875 153.232 280.582 154.33 281.487 155.736C283.34 158.58 286.002 162.667 289.288 167.712C290.94 170.239 292.75 173.004 294.691 175.973C295.663 177.457 296.669 178.992 297.704 180.573C298.223 181.363 298.748 182.165 299.281 182.978C299.435 183.193 299.502 183.339 299.508 183.549C299.505 183.744 299.426 183.942 299.283 184.082C299.145 184.226 298.949 184.306 298.749 184.304C298.545 184.292 298.268 184.247 298.03 184.22C294.072 183.718 289.917 183.191 285.609 182.645C283.455 182.373 281.263 182.096 279.038 181.816C277.926 181.676 276.805 181.534 275.678 181.392L274.83 181.286C274.678 181.265 274.554 181.258 274.457 181.217C274.352 181.178 274.257 181.112 274.18 181.03C273.846 180.576 273.51 180.119 273.173 179.662C267.73 172.238 262.544 165.165 257.826 158.729C255.467 155.516 253.226 152.463 251.127 149.605C250.914 149.3 250.981 148.858 251.253 148.614C251.385 148.492 251.556 148.414 251.736 148.411C251.914 148.408 252.156 148.436 252.361 148.448C253.215 148.509 254.052 148.569 254.874 148.628C256.516 148.745 258.092 148.857 259.598 148.965C265.603 149.382 270.47 149.721 273.856 149.956C274.696 150.011 275.443 150.06 276.094 150.103C276.749 150.116 277.277 150.224 277.665 150.444C278.441 150.873 278.649 151.344 278.673 151.314Z" fill="#263238"/>
<path d="M251.018 149.741C251.017 149.753 251.19 149.778 251.521 149.816C251.888 149.853 252.371 149.902 252.98 149.963C254.29 150.08 256.128 150.243 258.408 150.445C263.066 150.825 269.516 151.352 276.87 151.952L276.723 151.867C277.879 153.584 279.071 155.366 280.268 157.208C285.139 164.696 289.395 171.58 292.609 176.477C294.206 178.932 295.535 180.896 296.46 182.247C296.915 182.894 297.276 183.409 297.544 183.79C297.796 184.141 297.934 184.321 297.945 184.313C297.957 184.305 297.841 184.11 297.611 183.745C297.359 183.352 297.018 182.824 296.59 182.159C295.685 180.748 294.412 178.763 292.847 176.323C289.695 171.389 285.479 164.484 280.603 156.988C279.406 155.145 278.209 153.362 277.048 151.646L276.994 151.568L276.9 151.561C269.542 151.015 263.088 150.536 258.428 150.19C256.144 150.036 254.303 149.913 252.99 149.825C252.38 149.791 251.895 149.765 251.527 149.744C251.193 149.731 251.019 149.729 251.018 149.741Z" fill="#263238"/>
<path d="M265.913 154.223H265.912C265.908 154.222 265.906 154.22 265.902 154.219L265.913 154.223Z" fill="white"/>
<path d="M265.318 154.581C265.378 154.296 265.647 154.176 265.912 154.223C266.196 154.307 266.342 154.374 266.556 154.585C266.772 154.798 266.864 155.171 266.673 155.407C266.433 155.704 265.94 155.595 265.65 155.346C265.43 155.155 265.258 154.867 265.318 154.581Z" fill="white"/>
<path d="M276.539 172.358C276.539 172.358 277.487 170.097 275.081 169.806C272.675 169.515 266.358 169.806 266.358 169.806C266.358 169.806 262.904 170.17 263.634 172.65C263.634 172.65 261.592 174.472 262.685 176.441C263.779 178.409 264.217 177.826 264.217 177.826C264.217 177.826 263.925 180.232 265.748 180.597C265.748 180.597 267.724 182.93 269.544 182.784C271.363 182.638 279.091 178.92 279.602 178.191C280.112 177.462 280.841 177.048 280.404 176.234C280.404 176.234 281.352 174.1 279.31 173.776C279.31 173.776 279.164 171.993 276.539 172.358Z" fill="#FFBF9D"/>
<path d="M265.576 173.174C265.577 173.229 266.198 173.269 267.202 173.291C268.206 173.311 269.591 173.313 271.121 173.29C272.649 173.239 274.038 173.298 275.059 173.056C276.096 172.815 276.503 172.206 276.455 172.194C276.412 172.142 275.975 172.628 275 172.779C274.045 172.939 272.644 172.841 271.115 172.89C269.585 172.914 268.2 172.957 267.197 173.009C266.195 173.059 265.576 173.119 265.576 173.174Z" fill="#FF9A6C"/>
<path d="M267.299 176.819C267.293 176.84 267.473 176.925 267.822 176.999C268.17 177.074 268.688 177.132 269.326 177.092C269.963 177.054 270.713 176.92 271.518 176.694C272.326 176.471 273.184 176.161 274.09 175.883C274.995 175.603 275.871 175.401 276.677 175.349C277.465 175.313 278.317 175.335 278.882 174.903C279.161 174.705 279.352 174.432 279.408 174.152C279.461 173.878 279.406 173.637 279.317 173.469C279.126 173.122 278.868 173.102 278.875 173.121C278.855 173.152 279.061 173.225 279.174 173.533C279.3 173.828 279.234 174.367 278.723 174.668C278.232 175.004 277.503 174.966 276.657 174.98C275.807 175.014 274.892 175.215 273.972 175.5C273.073 175.795 272.216 176.076 271.414 176.339C270.63 176.58 269.911 176.737 269.3 176.809C268.073 176.962 267.313 176.75 267.299 176.819Z" fill="#FF9A6C"/>
<path d="M269.883 179.902C269.897 179.955 270.518 179.837 271.506 179.588C272.494 179.339 273.848 178.952 275.325 178.469C276.804 177.984 278.124 177.496 279.068 177.112C280.012 176.729 280.582 176.456 280.563 176.406C280.522 176.3 278.147 177.126 275.201 178.088C272.257 179.054 269.853 179.792 269.883 179.902Z" fill="#FF9A6C"/>
<path d="M269.263 182.762C269.27 182.811 269.791 182.791 270.61 182.607C271.429 182.429 272.531 182.053 273.688 181.524C274.846 180.997 275.858 180.459 276.59 180.07C277.321 179.679 277.767 179.424 277.743 179.372C277.692 179.253 275.801 180.085 273.523 181.159C271.248 182.25 269.249 182.658 269.263 182.762Z" fill="#FF9A6C"/>
<path d="M346.077 161.021C346.077 161.021 341.165 180.7 335.027 187.964C329.084 194.999 319.769 191.765 316.543 182.664C313.318 173.562 307.57 152.773 307.57 152.773L314.629 147.376L326.824 171.01L332.319 154.899L346.077 161.021Z" fill="#FFBF9D"/>
<path d="M307.897 153.319L302.722 145.818C302.722 145.818 301.003 145.419 300.517 145.133C299.93 144.791 299.353 141.811 299.365 141.229C299.377 140.647 298.361 139.288 298.772 138.905C299.184 138.522 300.571 138.493 300.496 137.934C300.48 137.815 299.467 136.572 300.27 135.66C300.561 135.33 301.729 135.04 301.729 135.04L301.646 132.177C301.646 132.177 303.192 128.797 304.772 130.021C304.772 130.021 310.729 134.597 311.329 135.328C311.929 136.059 314.221 145.589 314.627 147.377" fill="#FFBF9D"/>
<path d="M314.628 147.377C314.64 147.374 314.613 147.201 314.548 146.872C314.471 146.51 314.369 146.034 314.242 145.438C313.963 144.196 313.546 142.4 312.982 140.187C312.696 139.08 312.382 137.869 311.985 136.578C311.879 136.256 311.778 135.929 311.641 135.596C311.512 135.219 311.196 134.968 310.938 134.733C310.396 134.255 309.825 133.787 309.236 133.309C308.057 132.355 306.805 131.37 305.5 130.356C305.164 130.118 304.886 129.81 304.41 129.636C303.928 129.479 303.417 129.681 303.066 129.955C302.348 130.527 301.883 131.294 301.479 132.1L301.461 132.135L301.463 132.182C301.47 132.458 301.479 132.757 301.488 133.058C301.507 133.727 301.527 134.391 301.546 135.044L301.685 134.862C301.325 134.957 300.98 135.063 300.636 135.215C300.466 135.298 300.292 135.372 300.127 135.547C300.004 135.704 299.888 135.878 299.839 136.076C299.719 136.47 299.802 136.874 299.93 137.215C299.994 137.389 300.076 137.551 300.164 137.707L300.295 137.932L300.322 137.979C300.315 137.97 300.32 137.95 300.317 137.969C300.317 137.986 300.319 138.004 300.308 138.017C300.293 138.083 300.154 138.17 300.014 138.226C299.87 138.286 299.711 138.334 299.552 138.383C299.391 138.432 299.228 138.48 299.062 138.545C298.898 138.623 298.724 138.661 298.566 138.894C298.447 139.139 298.514 139.335 298.552 139.503C298.6 139.674 298.661 139.832 298.727 139.984C298.856 140.287 299 140.574 299.106 140.857C299.158 141.002 299.196 141.128 299.196 141.259C299.199 141.438 299.223 141.589 299.242 141.748C299.287 142.061 299.345 142.365 299.407 142.665C299.539 143.263 299.683 143.843 299.893 144.395C300.009 144.67 300.097 144.943 300.348 145.193C300.634 145.409 300.89 145.447 301.155 145.547C301.68 145.711 302.19 145.838 302.688 145.954L302.605 145.898C304.203 148.168 305.508 150.022 306.438 151.345C306.882 151.962 307.237 152.453 307.501 152.821C307.748 153.156 307.884 153.328 307.895 153.32C307.906 153.312 307.793 153.125 307.568 152.775C307.319 152.397 306.985 151.891 306.567 151.257C305.66 149.918 304.39 148.039 302.834 145.74L302.805 145.697L302.751 145.684C302.263 145.564 301.755 145.431 301.247 145.266C301.008 145.181 300.704 145.095 300.549 144.964C300.397 144.818 300.282 144.538 300.186 144.285C299.99 143.759 299.852 143.185 299.727 142.599C299.669 142.305 299.614 142.005 299.573 141.703C299.554 141.555 299.533 141.396 299.533 141.261C299.534 141.076 299.48 140.896 299.426 140.742C299.311 140.431 299.167 140.143 299.045 139.851C298.982 139.705 298.927 139.558 298.887 139.415C298.846 139.276 298.832 139.118 298.872 139.063C298.896 139.013 299.054 138.922 299.191 138.873C299.335 138.817 299.493 138.772 299.654 138.723C299.816 138.673 299.981 138.626 300.151 138.556C300.311 138.479 300.518 138.413 300.64 138.154C300.67 138.09 300.676 138.023 300.674 137.953C300.679 137.928 300.665 137.868 300.641 137.82L300.605 137.755L300.477 137.534C300.397 137.39 300.323 137.243 300.267 137.091C300.155 136.791 300.098 136.465 300.188 136.181C300.222 136.035 300.311 135.91 300.403 135.789C300.481 135.702 300.636 135.619 300.787 135.551C301.095 135.415 301.437 135.309 301.774 135.221L301.917 135.183L301.913 135.038C301.894 134.385 301.875 133.721 301.856 133.051C301.846 132.751 301.838 132.453 301.83 132.176L301.813 132.257C302.188 131.501 302.659 130.745 303.285 130.251C303.598 130.01 303.97 129.876 304.305 129.986C304.624 130.09 304.953 130.403 305.281 130.643C306.588 131.652 307.843 132.629 309.025 133.575C309.615 134.047 310.189 134.511 310.727 134.977C310.997 135.219 311.257 135.423 311.355 135.723C311.487 136.033 311.592 136.358 311.698 136.673C312.104 137.948 312.434 139.156 312.734 140.255C313.306 142.433 313.771 144.205 314.105 145.474C314.259 146.063 314.383 146.533 314.477 146.891C314.566 147.211 314.616 147.379 314.628 147.377Z" fill="#FF9A6C"/>
<path d="M301.73 135.04C301.732 135.103 302.335 135.055 303.274 135.145C303.75 135.181 304.261 135.358 304.903 135.518C305.563 135.663 306.289 135.589 307.01 135.536C308.458 135.339 309.68 135.951 310.328 136.612C310.994 137.274 311.061 137.909 311.128 137.886C311.16 137.902 311.19 137.209 310.517 136.436C310.188 136.06 309.705 135.688 309.093 135.435C308.487 135.16 307.715 135.106 306.984 135.17C306.247 135.225 305.564 135.301 304.969 135.186C304.376 135.058 303.786 134.888 303.293 134.887C302.313 134.861 301.727 135.003 301.73 135.04Z" fill="#FF9A6C"/>
<path d="M303.838 134.884C303.926 134.929 304.166 134.581 304.135 134.086C304.107 133.591 303.826 133.274 303.744 133.33C303.654 133.381 303.749 133.709 303.768 134.108C303.797 134.506 303.742 134.843 303.838 134.884Z" fill="#FF9A6C"/>
<path d="M300.312 138.043C300.307 138.137 302.351 138.225 304.799 137.692C305.411 137.56 305.971 137.388 306.449 137.483C306.924 137.569 307.288 137.887 307.517 138.188C307.968 138.819 308.041 139.347 308.106 139.326C308.136 139.327 308.17 138.784 307.731 138.039C307.504 137.685 307.108 137.283 306.517 137.151C305.924 137.02 305.311 137.21 304.722 137.333C302.317 137.857 300.308 137.934 300.312 138.043Z" fill="#FF9A6C"/>
<path d="M299.521 140.75C299.521 140.797 299.946 140.84 300.624 140.755C301.302 140.68 302.211 140.447 303.203 140.252C303.701 140.161 304.175 140.084 304.591 140.114C305.01 140.137 305.358 140.273 305.591 140.475C306.082 140.888 306.024 141.357 306.079 141.35C306.1 141.354 306.151 141.25 306.14 141.047C306.127 140.846 306.026 140.548 305.768 140.285C305.517 140.016 305.09 139.819 304.62 139.777C304.147 139.725 303.644 139.8 303.135 139.892C302.114 140.092 301.231 140.362 300.579 140.5C299.93 140.647 299.519 140.696 299.521 140.75Z" fill="#FF9A6C"/>
<path d="M301.295 142.897C301.233 142.944 301.738 143.474 302.667 143.471L302.484 143.313C302.503 143.477 302.52 143.632 302.538 143.793C302.673 144.852 302.863 145.699 302.963 145.684C303.064 145.669 303.036 144.803 302.903 143.751C302.881 143.591 302.86 143.437 302.837 143.275L302.814 143.107L302.653 143.117C301.875 143.164 301.342 142.817 301.295 142.897Z" fill="#FF9A6C"/>
<path d="M338.302 141.09C338.302 141.09 348.363 143.528 348.342 156.869C348.321 170.158 345.303 176.8 345.303 176.8L326.758 166.707L330.896 156.317L338.302 141.09Z" fill="#3B5998"/>
<path d="M345.303 176.8C345.297 176.811 345.164 176.753 344.917 176.632C344.637 176.49 344.281 176.309 343.841 176.086C342.87 175.573 341.533 174.869 339.888 174.002C336.512 172.183 331.881 169.688 326.664 166.878L326.515 166.797L326.575 166.639C326.892 165.808 327.228 164.929 327.569 164.039C328.755 160.96 329.883 158.029 330.912 155.356C331.429 154.025 331.921 152.758 332.381 151.571C332.826 150.377 333.315 149.28 333.85 148.333C334.893 146.423 336.127 145.074 337.197 144.46C337.723 144.142 338.186 143.999 338.501 143.937C338.66 143.909 338.78 143.892 338.863 143.891C338.945 143.886 338.988 143.888 338.988 143.895C339.004 143.944 338.287 143.933 337.277 144.59C336.264 145.226 335.093 146.564 334.093 148.466C333.58 149.412 333.116 150.49 332.686 151.685C332.235 152.877 331.756 154.147 331.251 155.483C330.23 158.16 329.112 161.094 327.936 164.176C327.595 165.067 327.258 165.945 326.939 166.776L326.85 166.537C332.043 169.392 336.652 171.926 340.013 173.774C341.634 174.684 342.952 175.424 343.909 175.963C344.335 176.21 344.68 176.411 344.952 176.569C345.189 176.71 345.309 176.789 345.303 176.8Z" fill="#263238"/>
</svg>
