<svg width="500" height="501" viewBox="0 0 500 501" fill="none" xmlns="http://www.w3.org/2000/svg">
<path d="M249.999 422.203C357.082 422.203 443.889 417.134 443.889 410.883C443.889 404.631 357.082 399.562 249.999 399.562C142.917 399.562 56.1094 404.631 56.1094 410.883C56.1094 417.134 142.917 422.203 249.999 422.203Z" fill="#F5F5F5"/>
<path d="M238.395 342.342H45.3055C42.1555 342.337 39.6055 339.782 39.6055 336.632V65.2025C39.6325 62.0725 42.1755 59.5475 45.3055 59.5425H238.395C241.548 59.5425 244.105 62.0985 244.105 65.2525V336.632C244.105 339.786 241.548 342.342 238.395 342.342ZM45.3055 59.7425C42.2935 59.7485 39.8555 62.1905 39.8555 65.2025V336.632C39.8555 339.644 42.2935 342.086 45.3055 342.092H238.395C241.408 342.087 243.849 339.645 243.855 336.632V65.2025C243.849 62.1895 241.408 59.7475 238.395 59.7425H45.3055Z" fill="#E6E6E6"/>
<path d="M454.705 342.342H261.605C258.454 342.337 255.9 339.783 255.895 336.632V65.2025C255.928 62.0705 258.473 59.5475 261.605 59.5425H454.705C457.831 59.5535 460.368 62.0765 460.395 65.2025V336.632C460.395 339.778 457.851 342.331 454.705 342.342ZM261.605 59.7425C258.592 59.7485 256.15 62.1895 256.145 65.2025V336.632C256.15 339.645 258.592 342.086 261.605 342.092H454.705C457.718 342.087 460.159 339.645 460.165 336.632V65.2025C460.159 62.1895 457.718 59.7475 454.705 59.7425H261.605Z" fill="#E6E6E6"/>
<path d="M95.001 393.022H53.791V393.272H95.001V393.022Z" fill="#E0E0E0"/>
<path d="M179.002 391.022H137.672V391.272H179.002V391.022Z" fill="#E0E0E0"/>
<path d="M232.781 391.022H222.781V391.272H232.781V391.022Z" fill="#E0E0E0"/>
<path d="M132.83 399.562H86.5801V399.812H132.83V399.562Z" fill="#E0E0E0"/>
<path d="M292.801 392.893H271.201V393.143H292.801V392.893Z" fill="#E0E0E0"/>
<path d="M329.631 392.893H301.701V393.143H329.631V392.893Z" fill="#E0E0E0"/>
<path d="M464.331 397.123H401.891V397.373H464.331V397.123Z" fill="#E0E0E0"/>
<path d="M412.44 115.038H364.83V148.308H412.44V115.038Z" fill="#E6E6E6"/>
<path d="M386.3 115.038H364.83V148.308H386.3V115.038Z" fill="#F0F0F0"/>
<path opacity="0.4" d="M375.549 119.548C379.465 119.548 382.639 122.722 382.639 126.638C382.639 130.554 379.465 133.728 375.549 133.728C371.633 133.728 368.459 130.554 368.459 126.638C368.459 122.722 371.633 119.548 375.549 119.548Z" fill="#E0E0E0"/>
<path d="M379.008 140.468C379.008 142.379 377.459 143.928 375.548 143.928C373.637 143.928 372.088 142.379 372.088 140.468C372.088 138.557 373.637 137.008 375.548 137.008C377.459 137.008 379.008 138.558 379.008 140.468Z" fill="#E0E0E0"/>
<path d="M375.497 129.137C376.611 129.137 377.514 128.233 377.514 127.12C377.514 126.006 376.611 125.103 375.497 125.103C374.384 125.103 373.48 126.006 373.48 127.12C373.48 128.233 374.384 129.137 375.497 129.137Z" fill="#FAFAFA"/>
<path d="M310.797 103.125H290.209V148.321H310.797V103.125Z" fill="#F0F0F0"/>
<path d="M337.553 103.125H310.236V148.321H337.553V103.125Z" fill="#E6E6E6"/>
<path d="M300.428 117.476C302.003 117.476 303.28 118.753 303.28 120.328C303.28 121.903 302.003 123.179 300.428 123.179C298.853 123.179 297.576 121.902 297.576 120.328C297.577 118.753 298.854 117.476 300.428 117.476Z" fill="white"/>
<path d="M300.428 113.025C301.215 113.025 301.854 113.663 301.854 114.451C301.854 115.239 301.216 115.877 300.428 115.877C299.641 115.877 299.002 115.239 299.002 114.451C299.002 113.663 299.641 113.025 300.428 113.025Z" fill="white"/>
<path d="M300.428 108.703C301.215 108.703 301.854 109.341 301.854 110.129C301.854 110.917 301.216 111.555 300.428 111.555C299.641 111.555 299.002 110.917 299.002 110.129C299.002 109.341 299.641 108.703 300.428 108.703Z" fill="white"/>
<path d="M337.074 128.475H290.67V129.188H337.074V128.475Z" fill="#E0E0E0"/>
<path d="M337.074 132.485H290.67V133.198H337.074V132.485Z" fill="#E0E0E0"/>
<path d="M337.074 136.495H290.67V137.208H337.074V136.495Z" fill="#E0E0E0"/>
<path d="M337.074 140.505H290.67V141.218H337.074V140.505Z" fill="#E0E0E0"/>
<path d="M337.074 144.515H290.67V145.228H337.074V144.515Z" fill="#E0E0E0"/>
<path d="M300.917 129.693H298.957V131.653H300.917V129.693Z" fill="#E0E0E0"/>
<path d="M300.917 133.911H298.957V135.871H300.917V133.911Z" fill="#E0E0E0"/>
<path d="M300.917 137.712H298.957V139.672H300.917V137.712Z" fill="#E0E0E0"/>
<path d="M300.917 141.812H298.957V143.772H300.917V141.812Z" fill="#E0E0E0"/>
<path d="M300.917 145.793H298.957V147.753H300.917V145.793Z" fill="#E0E0E0"/>
<path d="M250.869 192.829H249.869V154.525C249.869 150.226 253.366 146.729 257.665 146.729H290.669V147.729H257.665C253.918 147.729 250.869 150.778 250.869 154.525V192.829Z" fill="#229894"/>
<path d="M248.869 192.885H247.869V154.243C247.869 149.027 252.112 144.783 257.328 144.783H290.669V145.783H257.328C252.664 145.783 248.869 149.578 248.869 154.243V192.885Z" fill="#229894"/>
<path d="M139.373 96.8145H108.062V130.144H139.373V96.8145Z" fill="#E6E6E6"/>
<path d="M147.391 96.8145H139.371V130.144H147.391V96.8145Z" fill="#F5F5F5"/>
<path d="M123.372 91.6746H99.8516V130.145H123.372V91.6746Z" fill="#E6E6E6"/>
<path d="M130.161 91.6746H123.361V130.145H130.161V91.6746Z" fill="#F5F5F5"/>
<path d="M116.441 96.8145H96.6113V130.144H116.441V96.8145Z" fill="#EBEBEB"/>
<path d="M120.971 96.8145H116.441V130.144H120.971V96.8145Z" fill="#F5F5F5"/>
<path d="M100.211 102.455H74.2012V130.145H100.211V102.455Z" fill="#E6E6E6"/>
<path d="M106.871 102.455H100.211V130.145H106.871V102.455Z" fill="#F5F5F5"/>
<path d="M86.9209 98.1846H67.3809V130.145H86.9209V98.1846Z" fill="#E6E6E6"/>
<path d="M92.5621 98.1846H86.9121V130.145H92.5621V98.1846Z" fill="#F5F5F5"/>
<path d="M81.1616 102.455H62.1816V130.145H81.1616V102.455Z" fill="#E6E6E6"/>
<path d="M84.9319 102.455H81.1719V130.145H84.9319V102.455Z" fill="#F0F0F0"/>
<path d="M39.998 139.773L243.998 139.773V130.127L39.998 130.127V139.773Z" fill="#E6E6E6"/>
<path d="M76.6074 140H87.8924L79.6724 152.412H76.6074V140Z" fill="#E0E0E0"/>
<path d="M76.6055 140H74.9805V152.412H76.6055V140Z" fill="#E0E0E0"/>
<path d="M203.314 140H214.6L206.379 152.412H203.314V140Z" fill="#E0E0E0"/>
<path d="M203.313 140H201.688V152.412H203.313V140Z" fill="#E0E0E0"/>
<path d="M460.234 148.321H256.234V157.967H460.234V148.321Z" fill="#E6E6E6"/>
<path d="M423.628 170.607H420.563L412.342 158.195H423.628V170.607Z" fill="#E0E0E0"/>
<path d="M425.252 158.195H423.627V170.607H425.252V158.195Z" fill="#E0E0E0"/>
<path d="M296.918 170.607H293.853L285.633 158.195H296.918V170.607Z" fill="#E0E0E0"/>
<path d="M298.544 158.195H296.918V170.607H298.544V158.195Z" fill="#E0E0E0"/>
<path d="M197.45 110.703C197.45 109.233 197.234 107.811 196.825 106.475L200.535 103.212L198.199 99.1656L193.517 100.749C191.58 98.6806 189.048 97.1796 186.194 96.5166L185.222 91.6736H180.551L179.582 96.5166C176.728 97.1796 174.193 98.6806 172.256 100.749L167.574 99.1656L165.238 103.212L168.947 106.475C168.542 107.811 168.322 109.233 168.322 110.703C168.322 112.177 168.542 113.595 168.947 114.935L165.238 118.195L167.574 122.241L172.256 120.658C174.193 122.726 176.728 124.227 179.582 124.893L180.551 129.736H185.222L186.194 124.893C189.048 124.227 191.58 122.726 193.517 120.658L198.199 122.241L200.535 118.195L196.825 114.935C197.234 113.595 197.45 112.177 197.45 110.703ZM182.887 118.565C178.707 118.565 175.32 115.175 175.32 110.995C175.32 106.815 178.707 103.425 182.887 103.425C187.067 103.425 190.457 106.815 190.457 110.995C190.457 115.175 187.067 118.565 182.887 118.565Z" fill="#F0F0F0"/>
<path d="M222.714 113.15C222.209 112.324 221.598 111.6 220.909 110.991L221.87 107.883L219.168 106.414L217.083 108.912C215.284 108.417 213.347 108.444 211.516 109.053L209.305 106.668L206.682 108.274L207.803 111.326C206.428 112.68 205.521 114.394 205.144 116.221L201.971 116.941L202.05 120.016L205.255 120.573C205.487 121.463 205.852 122.337 206.358 123.162C206.865 123.989 207.476 124.711 208.164 125.323L207.202 128.429L209.904 129.898L211.989 127.399C213.788 127.894 215.727 127.866 217.559 127.259L219.768 129.645L222.391 128.039L221.272 124.985C222.646 123.63 223.551 121.917 223.928 120.089L227.101 119.369L227.021 116.294L223.817 115.739C223.587 114.848 223.221 113.977 222.714 113.15ZM217.239 122.571C214.892 124.008 211.825 123.269 210.388 120.921C208.951 118.574 209.687 115.506 212.034 114.069C214.381 112.632 217.45 113.37 218.887 115.717C220.325 118.065 219.586 121.134 217.239 122.571Z" fill="#F0F0F0"/>
<path d="M454.178 273.933H46.5586V279.062H454.178V273.933Z" fill="#229894"/>
<path d="M70.8379 277.613V399.953H74.0179L78.0179 277.613H70.8379Z" fill="#1B817D"/>
<path d="M108.379 281.613V394.953H111.559L115.559 281.613H108.379Z" fill="#1B817D"/>
<path d="M431.344 277.613V399.953H428.174L424.164 277.613H431.344Z" fill="#1B817D"/>
<path d="M393.815 281.613V394.953H390.635L386.635 281.613H393.815Z" fill="#1B817D"/>
<path d="M438.596 284.552H63.3391L55.0391 279.062H446.896L438.596 284.552Z" fill="#1B817D"/>
<path d="M73.3516 258.207V262.164C73.3516 262.831 73.6116 263.457 74.0816 263.93L77.2556 267.103C77.5456 267.394 77.8996 267.593 78.2826 267.711C79.5776 270.494 82.3906 272.428 85.6626 272.428H86.8506C91.3486 272.428 94.9946 268.782 94.9946 264.285V254.953H77.5186V255.71H75.8486C74.4716 255.709 73.3516 256.83 73.3516 258.207ZM75.3516 258.207C75.3516 257.933 75.5746 257.709 75.8486 257.709H77.5186V264.284C77.5186 264.374 77.5286 264.461 77.5316 264.55L75.4966 262.515C75.4046 262.422 75.3516 262.294 75.3516 262.163V258.207Z" fill="#1B817D"/>
<path d="M99.142 273.764H74.003C72.368 273.764 71.043 272.284 71.043 272.284H102.102C102.102 272.284 100.777 273.764 99.142 273.764Z" fill="#1B817D"/>
<path d="M437.365 261.573C437.234 257.604 434.213 256.631 430.267 256.183V254.733C430.26 254.385 429.973 254.108 429.625 254.115C429.621 254.115 429.616 254.115 429.612 254.115H415.996C415.641 254.101 415.342 254.377 415.328 254.732V273.644H430.267V271.576C434.22 271.133 437.245 265.549 437.365 261.573ZM430.267 269.131V258.629C433.167 259.056 435.171 259.453 434.744 262.353C434.402 264.67 432.583 268.789 430.267 269.131Z" fill="#1B817D"/>
<path d="M255.895 249.543H244.105V273.495H255.895V249.543Z" fill="#1B817D"/>
<path d="M261.218 273.924H238.881L244.329 269.128H255.77L261.218 273.924Z" fill="#229894"/>
<path d="M310.33 266.169H254.49L264.58 273.953H320.41L310.33 266.169Z" fill="#229894"/>
<path d="M255.78 273.953L254.49 266.169L264.58 273.953H255.78Z" fill="#1B817D"/>
<path d="M198.897 192.856H300.532C301.597 192.856 302.46 193.719 302.46 194.784V257.109C302.46 258.174 301.597 259.037 300.532 259.037H198.897C197.832 259.037 196.969 258.174 196.969 257.109V194.784C196.969 193.719 197.832 192.856 198.897 192.856Z" fill="#1B837F"/>
<path opacity="0.5" d="M298.522 196.991H200.801V254.665H298.522V196.991Z" fill="black" fill-opacity="0.1"/>
<path opacity="0.4" d="M295.416 208.854H246.105V242.802H295.416V208.854Z" fill="black"/>
<path d="M295.416 208.854H246.105V211.964H295.416V208.854Z" fill="#1B918D"/>
<path d="M255.141 227.63L263.203 232.098C263.607 232.325 263.877 232.528 264.01 232.705C264.143 232.883 264.21 233.11 264.21 233.385C264.21 233.733 264.084 234.035 263.834 234.29C263.583 234.545 263.291 234.672 262.96 234.672C262.741 234.672 262.414 234.551 261.977 234.308L251.577 228.524C250.876 228.134 250.876 227.126 251.577 226.736L261.977 220.952C262.414 220.717 262.737 220.6 262.948 220.6C263.288 220.6 263.583 220.726 263.835 220.977C264.086 221.228 264.211 221.527 264.211 221.875C264.211 222.15 264.144 222.377 264.011 222.555C263.877 222.733 263.608 222.935 263.204 223.162L255.141 227.63Z" fill="white"/>
<path d="M275.883 219.301L267.906 236.493C267.703 236.922 267.521 237.201 267.359 237.331C267.148 237.501 266.894 237.586 266.594 237.586C266.254 237.586 265.961 237.465 265.714 237.221C265.467 236.978 265.344 236.703 265.344 236.396C265.344 236.178 265.441 235.858 265.635 235.437L273.636 218.258C273.838 217.829 274.016 217.55 274.17 217.42C274.389 217.25 274.644 217.165 274.935 217.165C275.275 217.165 275.566 217.285 275.809 217.523C276.052 217.762 276.174 218.035 276.174 218.343C276.175 218.561 276.078 218.881 275.883 219.301Z" fill="white"/>
<path d="M285.915 227.63L277.853 223.162C277.448 222.936 277.179 222.733 277.046 222.555C276.912 222.377 276.846 222.15 276.846 221.875C276.846 221.527 276.971 221.227 277.222 220.977C277.473 220.726 277.768 220.6 278.108 220.6C278.319 220.6 278.643 220.717 279.079 220.952L289.479 226.736C290.18 227.126 290.18 228.134 289.479 228.524L279.079 234.308C278.642 234.551 278.318 234.672 278.108 234.672C277.764 234.672 277.465 234.543 277.213 234.287C276.975 234.045 276.846 233.725 276.846 233.385C276.846 233.11 276.913 232.884 277.046 232.706C277.18 232.528 277.448 232.325 277.853 232.099L285.915 227.63Z" fill="white"/>
<path d="M208.145 202.315H204.807V205.653H208.145V202.315Z" fill="white"/>
<path d="M208.145 210.958H204.807V214.296H208.145V210.958Z" fill="white"/>
<path d="M208.145 219.599H204.807V222.937H208.145V219.599Z" fill="white"/>
<path d="M208.145 228.241H204.807V231.579H208.145V228.241Z" fill="white"/>
<path d="M208.145 236.883H204.807V240.221H208.145V236.883Z" fill="white"/>
<path d="M208.145 245.525H204.807V248.863H208.145V245.525Z" fill="white"/>
<path d="M224.624 203.067H211.316V204.067H224.624V203.067Z" fill="white"/>
<path d="M219.158 211.732H214.418V212.732H219.158V211.732Z" fill="white"/>
<path d="M239.789 221.452H235.049V222.452H239.789V221.452Z" fill="white"/>
<path d="M219.158 229.167H214.418V230.167H219.158V229.167Z" fill="white"/>
<path d="M225.994 229.167H221.254V230.167H225.994V229.167Z" fill="white"/>
<path d="M233.366 221.452H221.254V222.452H233.366V221.452Z" fill="white"/>
<path d="M236.286 229.167H228.311V230.167H236.286V229.167Z" fill="white"/>
<path d="M233.023 247.694H228.283V248.694H233.023V247.694Z" fill="white"/>
<path d="M239.857 247.694H235.117V248.694H239.857V247.694Z" fill="white"/>
<path d="M244.822 247.694H242.174V248.694H244.822V247.694Z" fill="white"/>
<path d="M236.285 211.732H221.535V212.732H236.285V211.732Z" fill="white"/>
<path d="M225.994 238.192H221.254V239.192H225.994V238.192Z" fill="white"/>
<path d="M230.318 238.192H227.578V239.192H230.318V238.192Z" fill="white"/>
<path d="M240.154 238.192H232.414V239.192H240.154V238.192Z" fill="white"/>
<path d="M241.437 165.316C241.193 177.416 228.617 187.56 213.349 187.964C208.665 188.121 204.033 187.263 199.668 185.43C198.134 189.231 194.891 192.491 185.598 193.951C195.295 186.462 189.991 180.128 187.78 174.553C186.655 172.223 186.08 169.536 186.113 166.774C186.357 154.667 198.933 144.53 214.201 144.126C229.479 143.689 241.681 153.216 241.437 165.316Z" fill="#229894"/>
<path d="M214.099 152.646H200.791V153.646H214.099V152.646Z" fill="white"/>
<path d="M208.633 161.312H203.893V162.312H208.633V161.312Z" fill="white"/>
<path d="M229.263 171.031H224.523V172.031H229.263V171.031Z" fill="white"/>
<path d="M208.633 178.746H203.893V179.746H208.633V178.746Z" fill="white"/>
<path d="M215.469 178.746H210.729V179.746H215.469V178.746Z" fill="white"/>
<path d="M222.841 171.031H210.729V172.031H222.841V171.031Z" fill="white"/>
<path d="M225.758 178.746H217.783V179.746H225.758V178.746Z" fill="white"/>
<path d="M225.758 161.312H211.008V162.312H225.758V161.312Z" fill="white"/>
<path d="M299.167 394.562L291.877 392.382L293.577 374.512L300.867 376.692L299.167 394.562Z" fill="#FFA8A7"/>
<path opacity="0.2" d="M301.469 372.655L294.179 370.485L293.229 380.495L300.599 381.865L301.469 372.655Z" fill="black"/>
<path d="M342.317 284.192C342.317 284.192 292.187 288.422 293.417 310.192C294.426 328.015 297.067 323.17 291.877 376.158L304.488 376.854C304.488 376.854 317.317 333.512 315.587 316.292C329.717 316.292 362.067 317.532 366.767 304.782C369.101 298.308 370.236 291.463 370.117 284.582L342.317 284.192Z" fill="#263238"/>
<path d="M306.494 379.294L290.014 376.474L290.284 369.184L307.344 372.974L306.494 379.294Z" fill="#229894"/>
<path d="M291.127 389.383L299.547 391.048C299.843 391.091 300.056 391.406 300.027 391.757L299.327 399.718C299.199 400.576 298.516 401.157 297.787 401.029C294.867 400.391 293.487 399.919 289.787 399.187C287.507 398.738 282.297 397.64 279.127 397.286C275.957 396.932 276.337 393.223 277.707 393.034C283.867 392.219 287.367 391.227 289.757 389.68C290.173 389.403 290.655 389.3 291.127 389.383Z" fill="#263238"/>
<path d="M287.35 390.826C288.013 390.916 288.683 390.936 289.35 390.886C289.418 390.885 289.479 390.841 289.5 390.776C289.534 390.717 289.534 390.645 289.5 390.586C289.29 390.376 287.4 388.586 286.43 388.786C286.202 388.825 286.014 388.987 285.94 389.206C285.78 389.526 285.803 389.907 286 390.206C286.359 390.571 286.84 390.792 287.35 390.826ZM288.96 390.556C287.57 390.556 286.59 390.396 286.3 389.986C286.184 389.789 286.184 389.543 286.3 389.346C286.332 389.237 286.42 389.153 286.53 389.126C287.04 389.016 288.18 389.856 288.96 390.556Z" fill="#229894"/>
<path d="M289.36 390.886C289.36 390.886 289.41 390.886 289.44 390.886C289.498 390.864 289.542 390.816 289.56 390.756C289.56 390.666 290.11 388.536 289.47 387.686C289.312 387.455 289.05 387.316 288.77 387.316C288.462 387.272 288.163 387.446 288.05 387.736C287.74 388.526 288.6 390.276 289.27 390.846C289.294 390.871 289.326 390.885 289.36 390.886ZM288.84 387.676C288.982 387.699 289.108 387.778 289.19 387.896C289.483 388.685 289.515 389.548 289.28 390.356C288.674 389.671 288.352 388.78 288.38 387.866C288.38 387.766 288.49 387.656 288.75 387.666L288.84 387.676Z" fill="#229894"/>
<path d="M266.667 397.342L259.727 394.222L264.527 377.102L271.467 380.222L266.667 397.342Z" fill="#FFA8A7"/>
<path opacity="0.2" d="M272.639 375.816L265.699 372.696L263.229 381.526L270.169 384.646L272.639 375.816Z" fill="black"/>
<path d="M327.397 284.192C327.067 284.192 271.197 289.942 271.127 308.892C271.007 340.232 262.057 376.158 262.057 376.158L273.099 381.628C273.099 381.628 292.327 342.682 292.037 318.252C307.407 313.842 347.167 321.252 351.867 308.512C355.717 298.092 353.637 284.192 353.637 284.192H327.397Z" fill="#263238"/>
<path d="M274.864 383.214L260.064 376.554L261.254 370.494L276.864 375.884L274.864 383.214Z" fill="#229894"/>
<path d="M260.417 388.468L268.857 390.221C269.149 390.275 269.357 390.619 269.327 391L268.667 399.752C268.554 400.702 267.87 401.353 267.138 401.207H267.137C264.217 400.532 262.837 400.012 259.137 399.246C256.857 398.779 250.647 397.272 247.517 396.454C244.387 395.636 245.087 391.649 246.517 391.623C252.707 391.532 256.717 390.519 259.097 388.792C259.497 388.499 259.961 388.385 260.417 388.468Z" fill="#263238"/>
<path d="M256.95 390.358C257.538 390.039 258.089 389.658 258.597 389.222C258.653 389.176 258.677 389.101 258.656 389.031C258.635 388.967 258.577 388.921 258.51 388.915C258.217 388.869 255.635 388.533 254.966 389.279C254.816 389.452 254.765 389.69 254.831 389.909C254.889 390.262 255.132 390.557 255.468 390.682C255.984 390.764 256.514 390.648 256.95 390.358ZM258.079 389.191C256.992 390.043 256.082 390.458 255.604 390.311C255.39 390.218 255.244 390.017 255.222 389.785C255.184 389.68 255.208 389.562 255.284 389.48C255.642 389.121 257.042 389.091 258.079 389.191Z" fill="#229894"/>
<path d="M258.596 389.222L258.669 389.169C258.706 389.123 258.714 389.06 258.687 389.007C258.634 388.934 257.812 386.886 256.794 386.575C256.53 386.489 256.241 386.534 256.016 386.696C255.742 386.847 255.606 387.165 255.687 387.467C255.901 388.288 257.628 389.184 258.513 389.244C258.542 389.243 258.57 389.236 258.596 389.222ZM256.271 386.944C256.397 386.873 256.547 386.858 256.686 386.902C257.391 387.367 257.931 388.044 258.228 388.835C257.33 388.646 256.539 388.119 256.019 387.363C255.96 387.282 255.984 387.128 256.201 386.984L256.271 386.944Z" fill="#229894"/>
<path d="M346.377 223.729C347.847 226.889 349.057 229.929 350.267 233.089C351.477 236.249 352.547 239.409 353.537 242.649C354.527 245.889 355.387 249.209 356.077 252.649C356.83 256.223 357.205 259.866 357.197 263.519C357.185 265.664 356.865 267.795 356.247 269.849C355.858 271.107 355.296 272.305 354.577 273.409C354.159 274.035 353.68 274.618 353.147 275.149L352.717 275.569C352.477 275.769 352.217 275.989 351.967 276.159C351.545 276.448 351.097 276.696 350.627 276.899C349.934 277.206 349.21 277.437 348.467 277.589C347.883 277.713 347.292 277.8 346.697 277.849C345.681 277.913 344.663 277.913 343.647 277.849C341.843 277.763 340.046 277.563 338.267 277.249C331.629 276.043 325.127 274.18 318.857 271.689L320.307 266.179C326.657 266.939 333.137 267.749 339.247 268.029C340.767 268.029 342.247 268.099 343.627 268.029C344.242 267.996 344.853 267.919 345.457 267.799C345.957 267.709 346.387 267.529 346.237 267.539C346.138 267.573 346.043 267.62 345.957 267.679C345.857 267.739 345.763 267.809 345.677 267.889C345.677 267.889 345.727 267.809 345.767 267.719C345.897 267.433 345.997 267.135 346.067 266.829C346.29 265.73 346.381 264.609 346.337 263.489C346.19 260.625 345.765 257.781 345.067 254.999C344.387 251.999 343.507 249.079 342.547 246.109C341.587 243.139 340.547 240.169 339.407 237.209C338.267 234.249 337.067 231.279 335.887 228.489L346.377 223.729Z" fill="#FFA8A7"/>
<path d="M323.067 267.678L316.437 263.948L313.107 271.129C313.107 271.129 320.857 274.359 322.487 272.339L323.067 267.678Z" fill="#FFA8A7"/>
<path d="M311.067 265.308L308.037 270.108L313.107 271.078L316.437 263.898L311.067 265.308Z" fill="#FFA8A7"/>
<path d="M330.917 229.432C329.647 232.622 328.317 235.672 326.917 238.762C325.517 241.852 324.117 244.892 322.637 247.932C319.658 254.122 316.319 260.131 312.637 265.931C311.637 267.411 310.637 268.882 309.517 270.352C308.957 271.092 308.337 271.822 307.677 272.572C307.317 272.952 307.027 273.301 306.607 273.691L306.007 274.272L305.667 274.591C304.715 275.406 303.595 276.001 302.387 276.332C301.75 276.513 301.102 276.649 300.447 276.741C299.379 276.87 298.302 276.914 297.227 276.871C295.37 276.812 293.519 276.629 291.687 276.322C284.907 275.125 278.266 273.242 271.867 270.702L273.327 265.181C279.797 265.961 286.407 266.792 292.627 267.052C294.094 267.109 295.562 267.087 297.027 266.991C297.617 266.945 298.202 266.851 298.777 266.711C298.965 266.667 299.146 266.601 299.317 266.512C299.377 266.512 299.317 266.442 299.047 266.612C298.949 266.667 298.858 266.733 298.777 266.811C298.777 266.811 298.847 266.721 298.877 266.691L299.157 266.382C299.337 266.201 299.557 265.902 299.767 265.661C300.177 265.141 300.597 264.581 301.017 263.971C301.847 262.781 302.657 261.461 303.457 260.121C305.057 257.441 306.547 254.592 308.007 251.712C309.467 248.832 310.867 245.892 312.247 242.932C314.997 237.032 317.687 230.981 320.247 225.031L330.917 229.432Z" fill="#FFA8A7"/>
<path d="M276.167 266.622L269.527 262.842L266.197 270.022C266.197 270.022 273.947 273.262 275.587 271.242L276.167 266.622Z" fill="#FFA8A7"/>
<path d="M264.167 264.262L261.127 269.052L266.197 270.022L269.527 262.842L264.167 264.262Z" fill="#FFA8A7"/>
<path d="M348.085 193.952L343.845 198.862L337.374 205.556C337.507 205.885 337.686 206.314 337.869 206.768C338.367 208.002 338.662 209.312 338.732 210.64C338.873 213.323 338.616 215.592 334.385 217.411C334.385 217.411 329.945 223.211 340.505 221.601C351.065 219.991 352.655 214.511 352.655 214.511C347.975 211.182 347.715 200.112 348.085 193.952Z" fill="#FFA8A7"/>
<path d="M326.557 188.412C326.557 189.072 326.227 189.632 325.787 189.652C325.347 189.672 324.997 189.152 324.987 188.492C324.977 187.832 325.327 187.272 325.757 187.252C326.187 187.232 326.547 187.752 326.557 188.412Z" fill="#263238"/>
<path d="M328.766 185.952C328.635 185.951 328.515 185.883 328.446 185.772C327.922 184.911 327.028 184.342 326.026 184.232C325.813 184.221 325.646 184.045 325.646 183.832C325.651 183.617 325.83 183.447 326.046 183.452C327.31 183.564 328.445 184.269 329.106 185.352C329.217 185.535 329.164 185.773 328.986 185.892C328.919 185.931 328.843 185.952 328.766 185.952Z" fill="#263238"/>
<path d="M326.316 188.781C325.78 190.582 325.006 192.305 324.016 193.902C324.847 194.371 325.845 194.444 326.736 194.102L326.316 188.781Z" fill="#F28F8F"/>
<path d="M348.685 185.082C348.295 193.242 348.475 198.082 344.425 202.402C340.48 206.75 333.757 207.076 329.41 203.131C327.816 201.684 326.698 199.788 326.205 197.692C324.365 190.462 325.325 178.332 333.205 174.692C338.52 172.059 344.963 174.233 347.596 179.549C348.446 181.263 348.821 183.173 348.685 185.082Z" fill="#FFA8A7"/>
<path d="M352.391 187.803C351.211 191.263 349.421 194.483 347.091 197.303L336.471 199.303C336.471 199.303 328.081 195.793 330.321 190.013C328.901 188.813 329.431 185.103 330.431 183.063C332.031 184.343 334.661 184.453 336.101 182.913C337.261 185.043 340.741 185.343 342.251 183.423C343.981 185.343 347.671 184.753 348.711 182.383C349.991 183.223 351.831 183.103 352.991 182.103C353.041 182.053 353.091 182.013 353.141 181.963C353.311 183.423 353.141 185.333 352.391 187.803Z" fill="#263238"/>
<path opacity="0.1" d="M352.391 187.803C351.211 191.263 349.421 194.483 347.091 197.303L336.471 199.303C336.471 199.303 328.081 195.793 330.321 190.013C328.901 188.813 329.431 185.103 330.431 183.063C332.031 184.343 334.661 184.453 336.101 182.913C337.261 185.043 340.741 185.343 342.251 183.423C343.981 185.343 347.671 184.753 348.711 182.383C349.991 183.223 351.831 183.103 352.991 182.103C353.041 182.053 353.091 182.013 353.141 181.963C353.311 183.423 353.141 185.333 352.391 187.803Z" fill="white"/>
<path d="M353.92 177.913C354.52 179.253 354.19 180.943 353.14 181.963C353.09 182.013 353.04 182.053 352.99 182.103C351.83 183.103 349.99 183.223 348.71 182.383C347.67 184.753 343.98 185.343 342.25 183.423C340.74 185.343 337.26 185.043 336.1 182.913C334.66 184.453 332.03 184.343 330.43 183.063C330.01 182.733 329.66 182.313 329.43 181.823C329.37 181.713 329.33 181.603 329.29 181.493C329.2 181.593 329.11 181.683 329.01 181.763C328.04 182.563 326.51 182.683 325.45 181.973C324.58 181.393 324.1 180.313 324.17 179.283C324.18 179.063 324.22 178.853 324.28 178.643C324.2 178.793 324.1 178.933 323.98 179.053C323.11 179.983 321.27 180.023 320.42 178.963C319.36 177.653 319.96 175.473 321.41 174.603C321.99 174.263 322.63 174.103 323.29 174.103C324.31 174.103 325.35 174.473 326.16 175.093C325.29 173.843 325.6 171.933 326.82 171.023C328.04 170.123 329.96 170.373 330.9 171.563C330.77 170.143 331.24 169.293 331.97 168.853C333.35 168.053 335.65 168.743 336.77 170.083C336.77 170.083 338.31 166.363 340.97 166.783C341.55 166.863 344.28 168.073 344.21 169.053C344.21 169.123 344.19 169.183 344.16 169.243C344.2 169.163 344.24 169.093 344.29 169.023C344.81 168.203 345.86 167.793 346.85 167.813C347.92 167.823 348.94 168.233 349.93 168.633C352 169.483 354.2 170.433 355.4 172.323C356.59 174.223 356.07 177.313 353.92 177.913Z" fill="#263238"/>
<path d="M335.008 190.772C334.718 192.787 333.793 194.658 332.368 196.112C330.558 197.842 329.018 196.112 328.998 193.482C328.998 191.102 329.888 187.332 331.998 186.632C334.108 185.931 335.398 188.182 335.008 190.772Z" fill="#FFA8A7"/>
<path d="M366.987 217.352C366.237 215.352 362.737 213.352 360.587 213.352H359.167C356.687 213.352 353.597 213.552 350.597 213.902C344.881 214.534 339.205 215.489 333.597 216.762C331.017 217.442 328.527 218.302 326.547 219.042C324.027 220.042 322.547 220.712 322.547 220.712C322.547 220.712 325.309 239.097 326.737 257.358C327.532 267.52 327.203 277.612 327.457 284.552H370.117C371.587 276.212 371.355 268.939 371.475 253.879C371.545 244.838 370.077 225.582 366.987 217.352Z" fill="#229894"/>
<path opacity="0.2" d="M325.814 247.151C326.134 250.981 326.464 255.001 326.814 259.021C331.814 251.721 334.584 231.75 334.584 231.75L325.814 247.151Z" fill="black"/>
<path d="M320.136 222.056C314.026 225.496 308.037 243.1 308.037 243.1L322.026 253.656C327.366 248.606 335.176 236.076 336.026 231.066C337.396 223.376 329.926 216.576 320.136 222.056Z" fill="#229894"/>
<path d="M308.063 401.247C308.063 403.649 306.115 405.597 303.713 405.597C301.311 405.597 299.363 403.649 299.363 401.247C299.363 398.845 301.311 396.897 303.713 396.897C306.115 396.898 308.063 398.845 308.063 401.247Z" fill="#263238"/>
<path d="M372.953 401.247C372.953 403.649 374.901 405.597 377.303 405.597C379.705 405.597 381.653 403.649 381.653 401.247C381.653 398.845 379.705 396.897 377.303 396.897C374.901 396.898 372.953 398.845 372.953 401.247Z" fill="#263238"/>
<path d="M336.273 399.858C336.273 402.26 338.22 404.208 340.623 404.208C343.025 404.208 344.973 402.26 344.973 399.858C344.973 397.456 343.025 395.508 340.623 395.508C338.221 395.508 336.273 397.455 336.273 399.858Z" fill="#263238"/>
<path d="M339.273 394.489V386.079H326.813C324.367 386.081 321.927 386.308 319.523 386.759L296.322 391.268C295.178 391.491 294.432 392.599 294.654 393.743C294.852 394.759 295.757 395.481 296.792 395.448L339.273 394.489Z" fill="#263238"/>
<path d="M339.273 394.489V386.079H351.743C354.189 386.08 356.629 386.307 359.033 386.759L385.108 390.928C386.252 391.151 386.998 392.259 386.775 393.403C386.577 394.419 385.672 395.141 384.638 395.108L339.273 394.489Z" fill="#263238"/>
<path d="M346.983 347.578H331.553V386.088H346.983V347.578Z" fill="#263238"/>
<path d="M344.773 329.658H333.773V347.568H344.773V329.658Z" fill="#263238"/>
<path opacity="0.5" d="M333.773 334.918L344.773 337.688V329.658H333.773V334.918Z" fill="black"/>
<path d="M303.713 289.139H298.123V312.989H303.713V289.139Z" fill="#263238"/>
<path d="M331.738 329.658V225.976C331.738 222.05 333.432 218.316 336.386 215.73L343.776 209.261C346.259 207.088 349.446 205.889 352.746 205.889H379.442L392.487 219.769V329.659H331.738V329.658Z" fill="#1B817D"/>
<path d="M291.993 309.598H352.893V329.658H282.073C278.096 329.661 274.87 326.44 274.867 322.464C274.866 321.171 275.213 319.901 275.873 318.788C279.243 313.09 285.373 309.596 291.993 309.598Z" fill="#1B817D"/>
<path d="M340.625 329.658V225.976C340.625 222.05 342.319 218.316 345.273 215.73L352.663 209.261C355.146 207.088 358.333 205.889 361.633 205.889H382.44C386.198 205.889 389.789 207.442 392.363 210.181L397.68 215.838C400.053 218.363 401.375 221.698 401.375 225.164V319.278C401.375 325.011 396.727 329.659 390.994 329.659H340.625V329.658Z" fill="#229894"/>
<path d="M319.902 296.418C307.599 292.123 294.205 292.123 281.902 296.418C279.348 297.381 276.477 296.287 275.212 293.868C274.072 291.458 275.602 288.338 278.702 287.248C293.069 282.228 308.715 282.228 323.082 287.248C326.182 288.328 327.712 291.458 326.572 293.868C325.305 296.274 322.45 297.365 319.902 296.418Z" fill="#229894"/>
<path d="M164.492 197.207C164.282 197.797 164.432 198.387 164.822 198.517C165.212 198.647 165.692 198.287 165.892 197.697C166.092 197.107 165.952 196.507 165.572 196.377C165.192 196.247 164.702 196.607 164.492 197.207Z" fill="#263238"/>
<path d="M164.383 197.817C164.461 199.877 164.821 201.916 165.453 203.877C164.434 204.169 163.338 204.001 162.453 203.417L164.383 197.817Z" fill="#F28F8F"/>
<path d="M163.533 193.187C163.608 193.212 163.688 193.212 163.763 193.187C164.653 192.89 165.631 193.039 166.393 193.587C166.558 193.707 166.79 193.67 166.91 193.505C167.016 193.358 167.001 193.156 166.873 193.027C165.921 192.317 164.684 192.112 163.553 192.477C163.36 192.543 163.257 192.754 163.323 192.947C163.36 193.055 163.445 193.14 163.553 193.177L163.533 193.187Z" fill="#263238"/>
<path d="M142.562 199.387C143.682 205.077 144.793 215.507 140.812 219.307C140.812 219.307 142.372 225.077 152.952 225.077C164.583 225.077 158.512 219.307 158.512 219.307C152.162 217.787 153.185 213.077 154.295 208.657L142.562 199.387Z" fill="#FFA8A7"/>
<path d="M145.153 189.067C143.073 196.507 141.473 200.757 143.853 205.767C147.423 213.317 159.898 214.296 163.303 205.654C165.893 197.697 168.453 189.287 162.333 183.917C157.981 180.051 151.319 180.445 147.453 184.797C146.365 186.022 145.577 187.484 145.153 189.067Z" fill="#FFA8A7"/>
<path d="M137.088 191.54C136.547 188.799 136.408 185.801 137.776 183.364C139.144 180.928 142.46 179.435 144.866 180.856C146.943 176.476 151.965 173.69 156.781 174.246C161.597 174.802 165.851 178.66 166.874 183.399C167.897 188.138 165.614 193.407 161.457 195.901C162.012 193.856 162.567 191.812 163.122 189.767C162.645 192.592 161.098 195.224 158.861 197.015C159.182 194.971 159.504 192.927 159.825 190.883C159.532 193.77 157.791 196.474 155.284 197.935C155.673 196.503 156.062 195.071 156.45 193.64C156.279 194.269 154.723 198.771 154.194 199.387C153.212 200.531 152.555 208.05 149.108 208.287C137.327 210.646 138.353 197.942 137.088 191.54Z" fill="#263238"/>
<path d="M152.999 195.105C152.799 197.013 153.227 198.933 154.219 200.575C155.549 202.715 157.499 201.895 158.219 199.705C158.859 197.705 158.929 194.255 157.079 192.865C155.229 191.475 153.279 192.805 152.999 195.105Z" fill="#FFA8A7"/>
<path d="M124.812 267.184C123.538 266.762 117.59 263.703 116.643 264.249C119.389 257.241 121.102 256.166 122.351 251.705C123.049 249.213 122.569 247.272 121.021 245.198C119.264 242.843 118.648 241.65 115.724 241.941C111.704 248.663 106.642 256.957 104.661 264.534C103.994 267.086 103.511 269.021 105.029 271.178C106.367 273.079 108.841 273.845 111.156 274.052C116.73 274.552 124.998 273.527 124.893 270.218C124.826 268.132 124.812 267.184 124.812 267.184Z" fill="#FFA8A7"/>
<path d="M123.866 266.934L128.591 265.399L128.171 273.931C128.171 273.931 124.388 274.066 122.373 271.536L123.866 266.934Z" fill="#FFA8A7"/>
<path d="M134.492 265.267L133.816 272.303L128.172 273.932L128.592 265.4L134.492 265.267Z" fill="#FFA8A7"/>
<path d="M188.612 272.99C188.612 272.99 182.028 267.83 173.384 250.775C172.102 248.39 170.876 245.986 169.704 243.563C168.527 241.116 167.397 238.723 166.32 236.153L176.536 231.75C178.642 236.334 181.918 241.062 184.237 245.612C186.556 250.162 192.033 260.938 192.718 261.943C193.059 262.461 193.428 262.89 193.782 263.368L194.31 264.07L187.719 271.689L188.612 272.99Z" fill="#FFA8A7"/>
<path d="M197.259 239.836L195.212 237.396L194.266 233.743L200.437 228.01C200.437 228.01 201.931 229.848 202.974 231.828C203.133 232.131 203.202 232.473 203.188 232.815L202.937 239.239L197.259 239.836Z" fill="#FFA8A7"/>
<path d="M194.356 229.787L198.974 225.589L200.434 228.04L194.266 233.743L194.356 229.787Z" fill="#B55B52"/>
<path d="M197.35 238.05C197.511 237.363 197.654 238.71 198.107 238.168C199.472 236.535 201.453 236.357 202.632 238.129C203.811 239.902 202.803 257.747 200.918 263.337C199.666 267.05 198.999 270.014 195.798 272.273C194.474 273.207 192.92 273.912 191.3 273.887C189.68 273.862 188.01 272.976 187.397 271.475C186.446 269.143 189.976 260.745 191.239 258.035C195.193 249.543 195.455 246.11 197.35 238.05Z" fill="#FFA8A7"/>
<path d="M184.115 237.282C186.84 237.256 189.565 237.229 192.29 237.203C193.454 237.192 194.663 237.17 195.71 236.661C197.082 235.994 197.949 234.593 198.503 233.172C199.659 230.208 199.756 226.956 200.215 223.808C200.674 220.659 201.621 217.374 204.003 215.264C199.662 215.84 191.987 214.479 188.654 218.036C186.886 219.922 183.781 237.285 184.115 237.282Z" fill="#229894"/>
<path d="M198.095 225.145C197.625 225.269 197.316 226.947 197.418 227.421L197.876 228.24L198.81 232.293L201.929 230.567L199.117 225.577C198.914 225.217 198.494 225.04 198.095 225.145Z" fill="#FFA8A7"/>
<path d="M127.626 220.735C120.326 222.405 109.531 245.149 109.531 245.149L124.181 255.149C127.825 249.924 132.786 242.025 135.579 236.3C139.91 227.24 135.086 219.026 127.626 220.735Z" fill="#1B817D"/>
<path d="M138.292 221.287C137.452 219.457 136.542 217.367 138.432 216.717C140.522 215.997 151.962 215.257 155.902 216.607C158.066 217.196 159.342 219.427 158.754 221.591C158.747 221.617 158.74 221.642 158.732 221.668L138.292 221.287Z" fill="#1B817D"/>
<path opacity="0.2" d="M132.139 233.87L121.725 253.473L124.18 255.149C124.18 255.149 128.898 248.58 132.138 242.9L132.139 233.87Z" fill="black"/>
<path d="M172.011 230.744C173.589 238.727 169.903 257.71 169.941 288.718H128.311C128.036 282.451 132.595 267.612 126.932 238.052C126.748 237.094 126.665 220.906 127.625 220.737C131.656 220.029 135.724 219.548 139.81 219.298C145.705 218.953 151.615 218.953 157.51 219.298C159.915 219.54 163.712 221.035 166.104 221.896C169.84 223.24 171.241 226.849 172.011 230.744Z" fill="#229894"/>
<path opacity="0.2" d="M160.994 238.692C162.08 245.264 166.389 253.945 170.683 259.037C170.853 255.307 171.226 251.412 171.216 248.422L160.994 238.692Z" fill="black"/>
<path d="M158.034 228.817C157.034 236.187 171.534 255.007 171.534 255.007L186.124 245.007C186.124 245.007 182.074 234.637 175.264 227.837C167.504 220.037 159.174 220.797 158.034 228.817Z" fill="#1B817D"/>
<path d="M205.721 391.937H213.501L215.271 373.907H207.491L205.721 391.937Z" fill="#FFA8A7"/>
<path d="M175.031 391.937H182.811L186.721 373.907H178.941L175.031 391.937Z" fill="#FFA8A7"/>
<path d="M213.942 388.441H205.452C205.13 388.443 204.852 388.733 204.782 389.14L203.242 398.045C203.098 398.831 203.474 399.619 204.082 399.805C204.174 399.833 204.268 399.846 204.362 399.844C207.422 399.779 211.852 399.546 215.702 399.546C220.212 399.546 224.102 399.857 229.382 399.857C232.582 399.857 233.472 395.676 232.132 395.301C226.042 393.58 221.072 393.398 215.812 389.192C215.254 388.723 214.607 388.464 213.942 388.441Z" fill="#263238"/>
<path d="M220.122 391.337C221.122 391.337 222.122 391.197 222.412 390.747C222.581 390.504 222.581 390.181 222.412 389.937C222.279 389.726 222.072 389.573 221.832 389.507C220.532 389.157 217.832 390.707 217.702 390.777C217.632 390.812 217.595 390.89 217.612 390.967C217.625 391.04 217.68 391.099 217.752 391.117C218.534 391.259 219.327 391.333 220.122 391.337ZM221.362 389.827C221.478 389.811 221.596 389.811 221.712 389.827C221.865 389.856 221.997 389.951 222.072 390.087C222.202 390.317 222.162 390.427 222.072 390.487C221.712 390.997 219.742 391.007 218.292 390.797C219.242 390.277 220.285 389.948 221.362 389.827Z" fill="#229894"/>
<path d="M217.772 391.117H217.852C218.792 390.697 220.652 389.017 220.502 388.117C220.502 387.907 220.322 387.657 219.822 387.597C219.459 387.566 219.099 387.682 218.822 387.918C217.822 388.728 217.622 390.828 217.612 390.918C217.605 390.983 217.631 391.046 217.682 391.087C217.709 391.103 217.74 391.113 217.772 391.117ZM219.672 387.967H219.782C220.112 387.967 220.132 388.137 220.142 388.177C220.232 388.707 218.962 390.027 218.002 390.597C218.082 389.717 218.431 388.882 219.002 388.207C219.188 388.047 219.427 387.962 219.672 387.967Z" fill="#229894"/>
<path d="M183.362 388.441H174.622C174.302 388.444 174.028 388.736 173.962 389.141L172.422 398.045C172.289 398.849 172.685 399.64 173.307 399.811C173.391 399.834 173.477 399.846 173.562 399.845C176.612 399.78 178.102 399.547 181.942 399.547C184.312 399.547 187.342 399.858 190.612 399.858C193.882 399.858 194.302 395.677 192.962 395.302C186.962 393.607 186.552 391.264 184.632 389.025C184.278 388.636 183.826 388.428 183.362 388.441Z" fill="#263238"/>
<path d="M187.931 392.327C188.598 392.414 189.271 392.231 189.801 391.817C189.99 391.558 189.99 391.206 189.801 390.947C189.681 390.725 189.469 390.567 189.221 390.517C188.081 390.247 185.931 391.717 185.841 391.777C185.783 391.822 185.753 391.894 185.761 391.967C185.775 392.037 185.831 392.093 185.901 392.107C186.568 392.252 187.248 392.326 187.931 392.327ZM188.931 390.847C189.004 390.837 189.078 390.837 189.151 390.847C189.296 390.868 189.422 390.957 189.491 391.087C189.661 391.397 189.561 391.517 189.491 391.567C189.161 391.997 187.571 392.007 186.401 391.817C187.154 391.308 188.012 390.976 188.911 390.847H188.931Z" fill="#229894"/>
<path d="M185.952 392.117H186.032C186.842 391.677 188.402 389.977 188.232 389.117C188.179 388.833 187.931 388.627 187.642 388.627C187.36 388.593 187.076 388.68 186.862 388.867C185.962 389.607 185.772 391.867 185.762 391.947C185.761 392.015 185.795 392.079 185.852 392.117C185.884 392.127 185.919 392.127 185.952 392.117ZM187.522 388.967H187.602C187.842 388.967 187.862 389.107 187.872 389.157C187.972 389.667 186.972 390.957 186.172 391.567C186.226 390.679 186.546 389.829 187.092 389.127C187.211 389.024 187.364 388.967 187.522 388.967Z" fill="#229894"/>
<path d="M157.461 288.728C157.461 288.728 194.31 303.941 201.93 315.638C197.399 345.377 189.27 379.258 189.27 379.258H175.412C175.412 379.258 175.032 360.418 179 335.497C181 299.147 115.582 336.758 128.292 288.728H157.461Z" fill="#263238"/>
<path opacity="0.3" d="M182.936 313.798C180.354 313.898 177.794 314.291 175.241 314.684C172.549 315.098 169.857 315.512 167.164 315.926C171.328 319.422 175.727 322.638 180.322 325.545C183.11 327.309 186.144 329.01 189.442 329.025C193.137 329.042 203.178 324.279 201.513 319.356C199.825 314.365 187.137 313.635 182.936 313.798Z" fill="black"/>
<path d="M169.942 288.728C169.942 288.728 204.003 293.12 222.78 303.813C228.561 307.105 227.752 317.677 227.602 324.638C227.189 343.316 223.597 361.786 216.982 379.258H205.422C205.422 379.258 206.012 360.388 205.622 329.938C205.502 320.808 187.072 317.798 169.062 316.738C153.505 315.76 139.848 306.044 133.822 291.668L132.592 288.728H169.942Z" fill="#263238"/>
<path d="M219.811 376.157C219.871 376.157 219.061 381.627 219.061 381.627H203.061L202.621 376.747L219.811 376.157Z" fill="#229894"/>
<path d="M190.611 376.157C190.671 376.157 189.141 381.627 189.141 381.627H173.141L173.431 376.747L190.611 376.157Z" fill="#229894"/>
<path d="M147.613 316.321L136.149 400.828L134.078 400.545L142.927 315.681L147.613 316.321Z" fill="#1B817D"/>
<path d="M187.939 319.348H122.939C122.939 315.25 126.261 311.927 130.359 311.927H180.519C184.617 311.927 187.939 315.25 187.939 319.348Z" fill="#229894"/>
<path d="M125.95 319.337L116.15 401.497H118.25L130.68 319.337H125.95Z" fill="#1B817D"/>
<path d="M184.931 319.337L194.731 401.497H192.631L180.211 319.337H184.931Z" fill="#1B817D"/>
<path d="M171.82 319.337L172.01 401.497H169.92L167.09 319.337H171.82Z" fill="#1B817D"/>
</svg>
