<svg width="222" height="250" fill="none" xmlns="http://www.w3.org/2000/svg"><path style="mix-blend-mode:multiply" d="M180.456 176.181c47.385 14.386 54.691 40.447 16.318 58.208-38.373 17.761-107.887 20.502-155.268 6.117-47.38-14.386-54.691-40.443-16.322-58.204 38.37-17.761 107.891-20.491 155.272-6.121Z" fill="url(#a)"/><path d="M110.925 209.306c-22.787 0-44.29-2.868-62.174-8.296-25.13-7.63-39.555-19.413-40.618-33.175-.52-6.778 2.098-19.766 25.514-30.61 19.172-8.873 47.38-13.966 77.389-13.966 22.79 0 44.285 2.872 62.17 8.299 25.133 7.626 39.559 19.409 40.618 33.175.523 6.779-2.094 19.767-25.51 30.607-19.177 8.877-47.385 13.966-77.389 13.966Z" fill="#001C63" style="mix-blend-mode:multiply" opacity=".2"/><path d="M170.799 138.591c40.798 12.384 47.087 34.822 14.049 50.116-33.037 15.294-92.889 17.65-133.682 5.266-40.794-12.383-47.087-34.822-14.054-50.112 33.034-15.29 92.889-17.653 133.687-5.27Z" fill="#001C63" style="mix-blend-mode:multiply"/><g style="mix-blend-mode:multiply"><path d="M158.623 144.227c32.494 9.866 37.503 27.716 11.191 39.915-26.311 12.199-73.982 14.058-106.472 4.196-32.49-9.863-37.506-27.736-11.19-39.915 26.315-12.18 73.982-14.059 106.471-4.196Z" fill="url(#b)"/><path d="M158.623 144.227c32.494 9.866 37.503 27.716 11.191 39.915-26.311 12.199-73.982 14.058-106.472 4.196-32.49-9.863-37.506-27.736-11.19-39.915 26.315-12.18 73.982-14.059 106.471-4.196Z" fill="url(#c)"/><path d="M158.623 144.227c32.494 9.866 37.503 27.716 11.191 39.915-26.311 12.199-73.982 14.058-106.472 4.196-32.49-9.863-37.506-27.736-11.19-39.915 26.315-12.18 73.982-14.059 106.471-4.196Z" fill="url(#d)"/></g><path d="M110.925 223.953c-22.787 0-44.29-2.872-62.174-8.3-25.13-7.629-39.555-19.409-40.618-33.174-.52-6.779 2.098-19.767 25.514-30.607 19.172-8.877 47.38-13.97 77.389-13.97 22.79 0 44.285 2.872 62.17 8.3 25.133 7.629 39.559 19.409 40.618 33.174.523 6.779-2.094 19.767-25.51 30.611-19.177 8.873-47.385 13.966-77.389 13.966Z" fill="#001C63" style="mix-blend-mode:multiply" opacity=".2"/><path d="M178.758 140.874h-13.419a74.656 74.656 0 0 0-11.706-4.561c-29.088-8.831-71.767-7.149-95.326 3.757-.573.265-1.112.535-1.636.804H43.338v13.677c-1.227 7.896 7.36 15.895 24.99 21.253 29.088 8.831 71.767 7.149 95.322-3.757 10.173-4.708 15.104-10.366 15.096-15.987l.012-15.186Z" fill="#E6E6E8"/><path d="M153.634 121.13c29.092 8.831 33.577 24.829 10.018 35.735-23.56 10.905-66.239 12.588-95.322 3.757-29.084-8.831-33.578-24.829-10.022-35.735 23.556-10.905 66.238-12.587 95.326-3.757Z" fill="#FDFDFF"/><path style="mix-blend-mode:multiply" d="M110.979 166.357c37.434 0 67.78-11.409 67.78-25.483s-30.346-25.483-67.78-25.483-67.78 11.409-67.78 25.483 30.346 25.483 67.78 25.483Z" fill="url(#e)"/><path d="M178.758 115.729h-13.419a74.754 74.754 0 0 0-11.706-4.561c-29.088-8.831-71.767-7.149-95.326 3.757-.573.265-1.112.535-1.636.804H43.338v13.677c-1.227 7.896 7.36 15.895 24.99 21.253 29.088 8.831 71.767 7.149 95.322-3.757 10.173-4.708 15.104-10.366 15.096-15.99l.012-15.183Z" fill="#E6E6E8"/><path d="M153.634 95.986c29.092 8.83 33.577 24.829 10.018 35.734-23.56 10.906-66.239 12.584-95.322 3.753-29.084-8.83-33.578-24.829-10.022-35.73 23.556-10.902 66.238-12.588 95.326-3.757Z" fill="#FDFDFF"/><path style="mix-blend-mode:multiply" opacity=".25" d="M110.979 128.944c19.409 0 35.143-5.916 35.143-13.215 0-7.298-15.734-13.215-35.143-13.215s-35.143 5.917-35.143 13.215c0 7.299 15.734 13.215 35.143 13.215Z" fill="url(#f)"/><path d="M108.881 21.746c0 4.683-1.156 8.22-3.468 10.613-2.311 2.391-5.423 3.586-9.334 3.584-3.95 0-7.085-1.195-9.405-3.584-2.32-2.39-3.475-5.927-3.467-10.613v-7.291c0-4.686 1.148-8.223 3.443-10.61C88.945 1.46 92.065.264 96.01.259c3.927 0 7.052 1.2 9.375 3.6 2.322 2.399 3.482 5.931 3.479 10.597l.017 7.29Zm-8.53-7.838c0-2.65-.37-4.556-1.112-5.716a3.437 3.437 0 0 0-1.345-1.298 3.716 3.716 0 0 0-1.869-.442 3.647 3.647 0 0 0-1.864.437 3.37 3.37 0 0 0-1.333 1.303c-.72 1.16-1.078 3.065-1.075 5.716v8.338c0 2.697.362 4.622 1.087 5.774.316.543.786.992 1.358 1.297a3.705 3.705 0 0 0 1.88.428c.65.02 1.291-.13 1.854-.435a3.38 3.38 0 0 0 1.332-1.29c.728-1.154 1.09-3.08 1.087-5.774v-8.338ZM113.984 20.198 116.11.758h21.605v6.194h-14.65l-.936 7.268a7.97 7.97 0 0 1 2.404-1.12 12.098 12.098 0 0 1 3.165-.478c3.609-.061 6.384.927 8.325 2.964 1.94 2.038 2.91 4.933 2.907 8.685.079 3.059-1.109 6.027-3.312 8.276-2.211 2.264-5.374 3.395-9.49 3.395-3.284.069-6.498-.895-9.134-2.74a8.483 8.483 0 0 1-2.865-3.166 7.916 7.916 0 0 1-.881-4.075l.053-.143 8.35-.477c0 1.38.408 2.461 1.226 3.241.429.392.939.696 1.498.895a4.622 4.622 0 0 0 1.753.26c1.554 0 2.655-.513 3.304-1.54a7.188 7.188 0 0 0 .973-3.895c0-1.905-.363-3.405-1.088-4.5-.725-1.096-1.873-1.644-3.443-1.644a4.987 4.987 0 0 0-2.768.689 3.62 3.62 0 0 0-1.455 1.74l-7.667-.389Z" fill="#001C63"/><path fill-rule="evenodd" clip-rule="evenodd" d="M132.523 93.972a1.162 1.162 0 0 0-.821-.178 1.157 1.157 0 0 0-.401.149 1.079 1.079 0 0 0-.308.28l-.983 1.278a6.396 6.396 0 0 0-1.092-.338c-.372-.09-.747-.16-1.127-.215l-.309-1.665a.97.97 0 0 0-.148-.37 1.036 1.036 0 0 0-.29-.287 1.11 1.11 0 0 0-.792-.15l-2.258.374a1.12 1.12 0 0 0-.703.406.887.887 0 0 0-.192.762l.285 1.528a7.1 7.1 0 0 0-1.067.493 8.01 8.01 0 0 0-.935.607l-1.524-.977a1.096 1.096 0 0 0-.802-.178c-.287.05-.541.203-.708.425l-1.289 1.706a.944.944 0 0 0-.183.362.9.9 0 0 0-.009.4c.024.133.077.26.156.373.079.112.181.21.302.284l1.377.913a5.624 5.624 0 0 0-.364 1.013 9.84 9.84 0 0 0-.231 1.045l-1.796.283a1.13 1.13 0 0 0-.708.41.937.937 0 0 0-.172.767l.398 2.094c.053.262.212.495.443.653a1.097 1.097 0 0 0 .821.178l1.643-.265c.151.332.331.653.536.958.2.306.417.601.65.886l-1.048 1.4a.907.907 0 0 0-.179.354.87.87 0 0 0-.008.39.99.99 0 0 0 .158.371c.079.113.18.21.3.286l1.874 1.223c.117.078.251.132.392.16.142.027.288.027.429 0 .284-.046.541-.185.723-.393l.984-1.296c.353.141.718.254 1.092.338.378.087.742.16 1.126.215l.305 1.665c.048.262.205.496.438.653a1.106 1.106 0 0 0 .821.164l2.258-.374c.283-.048.536-.193.708-.406a.945.945 0 0 0 .183-.365.91.91 0 0 0 .009-.402l-.285-1.524a6.73 6.73 0 0 0 1.018-.493c.34-.183.668-.384.983-.602l1.51.976a1.097 1.097 0 0 0 .822.178c.142-.023.279-.073.4-.146.122-.072.227-.167.308-.278l1.318-1.739a.925.925 0 0 0 .173-.762 1.076 1.076 0 0 0-.443-.675l-1.392-.885a6.28 6.28 0 0 0 .364-1.013c.093-.356.172-.694.226-1.045l1.8-.287a1.16 1.16 0 0 0 .396-.138c.12-.07.225-.161.308-.269a.928.928 0 0 0 .173-.364.891.891 0 0 0-.001-.398l-.399-2.094a1.046 1.046 0 0 0-.442-.657 1.134 1.134 0 0 0-.822-.178l-1.642.27a7.883 7.883 0 0 0-.537-.959 6.107 6.107 0 0 0-.649-.867l1.053-1.419a.927.927 0 0 0 .181-.355.884.884 0 0 0 .011-.393 1.037 1.037 0 0 0-.458-.653l-1.879-1.218h-.059ZM101.26 83.377a5.931 5.931 0 0 0-1.136-.278 6.382 6.382 0 0 0-1.175-.078 7.01 7.01 0 0 0-1.063.128h-.069a6.314 6.314 0 0 0-1.077.374 5.763 5.763 0 0 0-.95.502c-.299.196-.574.423-.82.675a5.262 5.262 0 0 0-1.18 1.793c-.14.34-.241.694-.301 1.054-.065.36-.092.726-.079 1.09.02.332.066.662.138.987v.063c.091.347.218.685.379 1.009.149.309.33.604.54.88.212.278.456.532.729.758.559.489 1.216.871 1.933 1.127.368.127.748.22 1.136.278.388.061.782.084 1.175.069a7.024 7.024 0 0 0 1.063-.124h.069a6.586 6.586 0 0 0 1.087-.37c.333-.137.651-.306.949-.501a5.53 5.53 0 0 0 2.002-2.469c.139-.34.24-.694.3-1.054.065-.36.092-.725.079-1.09a6.08 6.08 0 0 0-.138-.986v-.064a5.504 5.504 0 0 0-.374-1.008 5.475 5.475 0 0 0-.546-.88 4.8 4.8 0 0 0-.728-.763 5.955 5.955 0 0 0-.91-.648 6.04 6.04 0 0 0-1.023-.456l-.01-.018Zm11.19-6.461c.303.177.567.406.777.675l2.027 2.6c.207.266.358.565.447.882.087.322.101.658.04.985-.062.324-.19.634-.379.913-.189.275-.441.509-.738.684l-1.652 1.14c0 .046.029.097.039.142.084.27.148.553.212.817v.046c.068.269.113.561.157.871v.105l1.746.265c.35.051.685.169.984.347.312.172.583.402.797.675.212.266.364.568.447.89.079.322.094.654.044.98l-.565 3.195c-.05.329-.172.645-.359.928a2.51 2.51 0 0 1-.728.719 2.763 2.763 0 0 1-.984.41 3.031 3.031 0 0 1-1.057 0l-2.022-.3c0 .04-.064.095-.089.136-.157.251-.329.493-.491.74a7.896 7.896 0 0 1-.551.716l-.064.082 1.008 1.337.039.05c.203.275.344.586.414.913.113.477.076.975-.106 1.433a2.576 2.576 0 0 1-.922 1.154l-.035.027-2.818 1.867a2.84 2.84 0 0 1-.954.429c-.353.079-.72.09-1.078.031-.357-.06-.7-.179-1.013-.351a2.442 2.442 0 0 1-.757-.689l-1.132-1.551a.625.625 0 0 1-.167.032c-.29.064-.595.137-.915.196-.319.059-.619.1-.934.141a.424.424 0 0 1-.133 0l-.31 1.616a2.261 2.261 0 0 1-.374.912 2.56 2.56 0 0 1-.728.703 2.722 2.722 0 0 1-.949.401 3.07 3.07 0 0 1-1.043.037l-3.443-.525a2.732 2.732 0 0 1-1-.333 2.537 2.537 0 0 1-.775-.675 2.39 2.39 0 0 1-.443-.913 2.433 2.433 0 0 1 0-.981l.33-1.884-.148-.087c-.266-.146-.531-.306-.797-.456a7.528 7.528 0 0 1-.772-.511l-.089-.06-1.465.99-.055.037a2.694 2.694 0 0 1-.959.383 2.968 2.968 0 0 1-2.011-.305 2.636 2.636 0 0 1-.782-.648l-.03-.032-2.016-2.647a2.562 2.562 0 0 1-.448-.88 2.223 2.223 0 0 1-.04-.986 2.52 2.52 0 0 1 .374-.913c.201-.277.453-.519.743-.716l1.672-1.09a.384.384 0 0 1-.039-.156c-.064-.269-.148-.552-.207-.848a7.827 7.827 0 0 1-.157-.867v-.124l-1.726-.26a2.747 2.747 0 0 1-.992-.343 2.542 2.542 0 0 1-.764-.679 2.26 2.26 0 0 1-.428-.876 2.485 2.485 0 0 1-.044-.972l.565-3.194c.057-.322.18-.632.36-.912.193-.28.44-.524.727-.721.294-.198.63-.338.984-.41a3.062 3.062 0 0 1 1.062 0l2.027.305.088-.137c.158-.246.33-.493.492-.74a7.73 7.73 0 0 1 .546-.716l.064-.077-1.057-1.374a2.29 2.29 0 0 1-.443-.912 2.303 2.303 0 0 1 .34-1.898c.189-.282.436-.528.727-.721l2.794-1.899c.286-.19.608-.33.95-.41.348-.08.712-.093 1.067-.037.348.057.682.175.983.347.297.178.55.41.743.684l1.205 1.543a.688.688 0 0 0 .138-.041c.29-.073.595-.133.915-.206.32-.073.62-.105.94-.146a.313.313 0 0 1 .127 0l.31-1.624c.052-.326.18-.637.374-.913.185-.28.431-.52.723-.707.283-.192.606-.327.95-.397a2.993 2.993 0 0 1 1.047-.036l3.443.52c.346.057.679.17.984.333.308.172.573.404.777.68.213.272.364.583.442.912.069.326.069.66 0 .986l-.334 1.88.147.082c.271.146.532.306.797.456.266.15.541.338.772.507l.089.06 1.436-.945a2.6 2.6 0 0 1 .984-.411c.348-.078.709-.09 1.062-.037.35.055.685.175.984.352v.027l.049-.027ZM99.2 79.183a10.49 10.49 0 0 1 5.521 1.547c1.635 1.01 2.911 2.449 3.664 4.132a8.594 8.594 0 0 1 .571 5.325c-.382 1.788-1.327 3.43-2.716 4.72-1.389 1.29-3.159 2.168-5.086 2.524a10.65 10.65 0 0 1-5.74-.524c-1.815-.697-3.367-1.879-4.458-3.395a8.745 8.745 0 0 1-1.672-5.12c-.001-1.21.255-2.406.753-3.523a9.189 9.189 0 0 1 2.149-2.987 10.002 10.002 0 0 1 3.217-1.996 10.597 10.597 0 0 1 3.796-.703Zm28.291 7.032 10.821-9.938v4.166c0 .386.166.756.46 1.03.294.272.693.425 1.109.425.417 0 .816-.153 1.11-.426.294-.273.459-.643.459-1.03V72.76a1.36 1.36 0 0 0-.127-.577 1.455 1.455 0 0 0-.365-.481 1.582 1.582 0 0 0-.542-.307 1.668 1.668 0 0 0-.628-.082h-7.771a1.678 1.678 0 0 0-.627.087 1.588 1.588 0 0 0-.539.31c-.155.135-.279.3-.363.481a1.357 1.357 0 0 0 0 1.152c.084.181.208.345.363.481.155.137.338.242.539.31.2.068.413.097.627.086h4.112l-10.861 9.96 2.214 2.054.009-.018Zm-12.217-13.027 6.059-5.713v4.166c0 .386.166.756.46 1.03.294.272.693.426 1.109.426.416 0 .816-.154 1.11-.427.294-.273.459-.643.459-1.029v-7.702a1.336 1.336 0 0 0-.126-.578 1.443 1.443 0 0 0-.364-.483 1.59 1.59 0 0 0-.542-.309 1.672 1.672 0 0 0-.63-.081h-7.767c-.416 0-.815.153-1.109.426-.294.273-.46.643-.46 1.03 0 .385.166.756.46 1.029.294.273.693.426 1.109.426h4.112l-6.094 5.758 2.214 2.054v-.023Zm10.693 25.726a4.777 4.777 0 0 1 3.344.67 4.51 4.51 0 0 1 1.186 1.155c.324.461.538.98.629 1.524a3.9 3.9 0 0 1-.039 1.652 4.134 4.134 0 0 1-.689 1.451c-.332.437-.753.81-1.239 1.099-.498.3-1.057.501-1.643.589a4.806 4.806 0 0 1-1.745-.029 4.678 4.678 0 0 1-1.6-.646 4.39 4.39 0 0 1-1.185-1.155 3.8 3.8 0 0 1-.635-1.524 3.831 3.831 0 0 1 .294-2.379 4.202 4.202 0 0 1 1.674-1.823 4.35 4.35 0 0 1 1.643-.584h.005Z" fill="#001C63"/><defs><radialGradient id="a" cx="0" cy="0" r="1" gradientUnits="userSpaceOnUse" gradientTransform="matrix(107.502 0 0 39.4718 110.979 196.938)"><stop stop-color="#2A48D0"/><stop offset="1" stop-color="#fff"/></radialGradient><radialGradient id="b" cx="0" cy="0" r="1" gradientUnits="userSpaceOnUse" gradientTransform="matrix(53.75846 -19.9596 13.0257 35.08293 117.011 166.37)"><stop stop-color="#8EDBDC"/><stop offset=".44" stop-color="#90DCDD"/><stop offset=".6" stop-color="#97DEDF"/><stop offset=".71" stop-color="#A2E2E2"/><stop offset=".8" stop-color="#B3E7E8"/><stop offset=".88" stop-color="#C9EEEE"/><stop offset=".95" stop-color="#E4F6F7"/><stop offset="1" stop-color="#fff"/></radialGradient><radialGradient id="c" cx="0" cy="0" r="1" gradientUnits="userSpaceOnUse" gradientTransform="matrix(53.75846 -19.9596 13.0257 35.08293 117.011 166.37)"><stop stop-color="#80E3C8"/><stop offset=".43" stop-color="#82E3C9"/><stop offset=".58" stop-color="#89E5CC"/><stop offset=".69" stop-color="#94E8D1"/><stop offset=".78" stop-color="#A5EBD8"/><stop offset=".86" stop-color="#BBF0E2"/><stop offset=".93" stop-color="#D7F6ED"/><stop offset=".99" stop-color="#F6FDFB"/><stop offset="1" stop-color="#fff"/></radialGradient><radialGradient id="d" cx="0" cy="0" r="1" gradientUnits="userSpaceOnUse" gradientTransform="matrix(53.75846 -19.9596 13.0257 35.08293 117.011 166.37)"><stop stop-color="#2A48D0"/><stop offset=".39" stop-color="#2C4AD0"/><stop offset=".53" stop-color="#334FD2"/><stop offset=".62" stop-color="#3E5AD5"/><stop offset=".71" stop-color="#4F68D8"/><stop offset=".77" stop-color="#657BDD"/><stop offset=".83" stop-color="#8192E3"/><stop offset=".89" stop-color="#A1AEEA"/><stop offset=".94" stop-color="#C7CFF3"/><stop offset=".99" stop-color="#F0F2FC"/><stop offset="1" stop-color="#fff"/></radialGradient><radialGradient id="e" cx="0" cy="0" r="1" gradientUnits="userSpaceOnUse" gradientTransform="matrix(67.5713 0 0 23.5379 110.979 143.889)"><stop stop-color="#2A48D0"/><stop offset="1" stop-color="#fff"/></radialGradient><radialGradient id="f" cx="0" cy="0" r="1" gradientUnits="userSpaceOnUse" gradientTransform="matrix(35.0369 0 0 12.2048 110.979 118.71)"><stop stop-color="#2A48D0"/><stop offset="1" stop-color="#fff"/></radialGradient></defs></svg>