<svg width="222" height="245" fill="none" xmlns="http://www.w3.org/2000/svg"><path style="mix-blend-mode:multiply" d="M180.707 170.658c47.381 14.385 54.687 40.446 16.318 58.208-38.369 17.761-107.887 20.502-155.272 6.116-47.385-14.385-54.687-40.442-16.318-58.203 38.37-17.762 107.887-20.503 155.272-6.121Z" fill="url(#a)"/><path d="M108.619 204.441c-22.787 0-44.286-2.868-62.17-8.295-25.13-7.63-39.555-19.413-40.618-33.175-.523-6.779 2.098-19.767 25.51-30.611 19.176-8.877 47.385-13.966 77.388-13.966 22.791 0 44.29 2.872 62.175 8.3 25.129 7.625 39.555 19.409 40.618 33.174.523 6.779-2.098 19.767-25.514 30.607-19.173 8.877-47.381 13.966-77.389 13.966Z" fill="#001C63" style="mix-blend-mode:multiply" opacity=".2"/><path d="M168.494 133.727c40.793 12.383 47.086 34.822 14.049 50.116-33.038 15.294-92.89 17.649-133.704 5.266-40.814-12.384-47.086-34.822-14.049-50.112 33.038-15.29 92.906-17.654 133.704-5.27Z" fill="#001C63" style="mix-blend-mode:multiply"/><g style="mix-blend-mode:multiply"><path d="M156.318 139.362c32.49 9.866 37.503 27.735 11.191 39.915-26.311 12.18-73.994 14.058-106.476 4.215-32.481-9.843-37.502-27.716-11.19-39.915 26.31-12.199 73.982-14.077 106.475-4.215Z" fill="url(#b)"/><path d="M156.318 139.362c32.49 9.866 37.503 27.735 11.191 39.915-26.311 12.18-73.994 14.058-106.476 4.215-32.481-9.843-37.502-27.716-11.19-39.915 26.31-12.199 73.982-14.077 106.475-4.215Z" fill="url(#c)"/><path d="M156.318 139.362c32.49 9.866 37.503 27.735 11.191 39.915-26.311 12.18-73.994 14.058-106.476 4.215-32.481-9.843-37.502-27.716-11.19-39.915 26.31-12.199 73.982-14.077 106.475-4.215Z" fill="url(#d)"/></g><path d="M108.619 219.089c-22.787 0-44.286-2.872-62.17-8.3-25.13-7.629-39.555-19.409-40.618-33.174-.523-6.779 2.098-19.767 25.51-30.611 19.176-8.854 47.385-13.966 77.388-13.966 22.791 0 44.29 2.872 62.175 8.299 25.129 7.63 39.555 19.409 40.618 33.175.523 6.779-2.098 19.767-25.514 30.607-19.173 8.877-47.381 13.97-77.389 13.97Z" fill="#001C63" style="mix-blend-mode:multiply" opacity=".2"/><path d="M176.452 136.009h-13.427a74.584 74.584 0 0 0-11.703-4.561c-29.091-8.831-71.77-7.149-95.326 3.757-.572.265-1.116.535-1.656.804H41.023v13.677c-1.226 7.895 7.36 15.895 24.991 21.253 29.092 8.831 71.77 7.148 95.326-3.757 10.173-4.708 15.104-10.367 15.096-15.991l.016-15.182Z" fill="#E5E7EA"/><path d="M151.33 116.266c29.088 8.83 33.573 24.828 10.018 35.734-23.556 10.905-66.239 12.588-95.326 3.757-29.088-8.831-33.573-24.829-10.018-35.734 23.556-10.906 66.235-12.588 95.326-3.757Z" fill="#FDFEFF"/><path style="mix-blend-mode:multiply" d="M108.603 161.52c37.475 0 67.854-11.422 67.854-25.511 0-14.089-30.379-25.51-67.854-25.51-37.474 0-67.853 11.421-67.853 25.51 0 14.089 30.379 25.511 67.853 25.511Z" fill="url(#e)"/><path d="M176.452 110.865h-13.427a74.687 74.687 0 0 0-11.703-4.562c-29.091-8.83-71.77-7.148-95.326 3.757-.572.266-1.116.535-1.656.805H41.023v13.677c-1.226 7.895 7.36 15.894 24.991 21.253 29.092 8.83 71.77 7.148 95.326-3.757 10.173-4.708 15.104-10.367 15.096-15.991l.016-15.182Z" fill="#E5E7EA"/><path d="M151.33 91.106c29.088 8.83 33.573 24.828 10.018 35.734-23.556 10.905-66.239 12.584-95.326 3.753-29.088-8.83-33.573-24.829-10.018-35.73C79.56 83.96 122.24 82.29 151.33 91.106Z" fill="#FDFEFF"/><path style="mix-blend-mode:multiply" opacity=".25" d="M108.602 124.08c19.409 0 35.143-5.917 35.143-13.215 0-7.299-15.734-13.215-35.143-13.215s-35.143 5.916-35.143 13.215c0 7.298 15.734 13.215 35.143 13.215Z" fill="url(#f)"/><path d="M106.5 22.447c0 4.684-1.156 8.221-3.467 10.613-2.312 2.392-5.425 3.586-9.34 3.584-3.943 0-7.078-1.195-9.403-3.584-2.326-2.39-3.481-5.927-3.468-10.613v-7.29c0-4.687 1.147-8.225 3.44-10.614C86.553 2.154 89.674.96 93.623.96c3.928 0 7.054 1.199 9.376 3.596 2.322 2.397 3.482 5.93 3.48 10.601l.02 7.291Zm-8.53-7.837c0-2.651-.37-4.557-1.111-5.717-.314-.54-.78-.99-1.347-1.296a3.724 3.724 0 0 0-1.867-.444c-.653-.022-1.3.13-1.866.437a3.378 3.378 0 0 0-1.336 1.303c-.714 1.16-1.072 3.066-1.075 5.716v8.338c0 2.698.363 4.622 1.088 5.775.315.543.785.993 1.357 1.298a3.708 3.708 0 0 0 1.88.43c.65.02 1.294-.13 1.858-.435a3.38 3.38 0 0 0 1.332-1.293c.728-1.153 1.09-3.077 1.088-5.775V14.61ZM133.471 22.636h3.721v6.193h-3.721v7.314h-8.55V28.83h-14.274l-.502-4.915 14.776-22.381V1.46h8.55v21.176Zm-15.689 0h7.139V11.919l-.155-.05-.658.981-6.326 9.786Z" fill="#001C63"/><path fill-rule="evenodd" clip-rule="evenodd" d="M107.936 53.857c9.332 5.487 17.762 8.083 24.997 7.47 1.263 23.708-8.175 37.71-24.9 43.553-16.151-5.47-25.705-18.868-24.996-43.913 8.493.412 16.825-1.29 24.899-7.11Zm-9.815 27.727a1.111 1.111 0 0 1-.138-1.648c.452-.49 1.247-.547 1.775-.128l5.145 4.1 11.27-11.495a1.332 1.332 0 0 1 1.781-.078c.515.435.552 1.174.084 1.652l-12.094 12.336-.001-.001a1.33 1.33 0 0 1-1.75.101l-6.072-4.84Z" fill="#001C63"/><defs><radialGradient id="a" cx="0" cy="0" r="1" gradientUnits="userSpaceOnUse" gradientTransform="matrix(107.502 0 0 39.4718 111.23 190.703)"><stop stop-color="#5A9BFB"/><stop offset="1" stop-color="#fff"/></radialGradient><radialGradient id="b" cx="0" cy="0" r="1" gradientUnits="userSpaceOnUse" gradientTransform="matrix(53.75846 -19.9596 13.0257 35.08293 113.704 160.758)"><stop stop-color="#7FD4F9"/><stop offset=".43" stop-color="#81D5F9"/><stop offset=".58" stop-color="#88D7F9"/><stop offset=".69" stop-color="#93DBFA"/><stop offset=".78" stop-color="#A4E1FB"/><stop offset=".86" stop-color="#BAE8FC"/><stop offset=".92" stop-color="#D6F1FD"/><stop offset=".98" stop-color="#F5FCFF"/><stop offset="1" stop-color="#fff"/></radialGradient><radialGradient id="c" cx="0" cy="0" r="1" gradientUnits="userSpaceOnUse" gradientTransform="matrix(53.75846 -19.9596 13.0257 35.08293 113.704 160.758)"><stop stop-color="#80E3C8"/><stop offset=".43" stop-color="#82E3C9"/><stop offset=".58" stop-color="#89E5CC"/><stop offset=".69" stop-color="#94E8D1"/><stop offset=".78" stop-color="#A5EBD8"/><stop offset=".86" stop-color="#BBF0E2"/><stop offset=".93" stop-color="#D7F6ED"/><stop offset=".99" stop-color="#F6FDFB"/><stop offset="1" stop-color="#fff"/></radialGradient><radialGradient id="d" cx="0" cy="0" r="1" gradientUnits="userSpaceOnUse" gradientTransform="matrix(53.75846 -19.9596 13.0257 35.08293 113.704 160.758)"><stop stop-color="#5A9BFB"/><stop offset=".41" stop-color="#5C9CFB"/><stop offset=".55" stop-color="#63A0FB"/><stop offset=".66" stop-color="#6EA7FB"/><stop offset=".74" stop-color="#7FB2FC"/><stop offset=".81" stop-color="#95BFFC"/><stop offset=".88" stop-color="#B1CFFD"/><stop offset=".94" stop-color="#D1E3FE"/><stop offset=".99" stop-color="#F5F9FF"/><stop offset="1" stop-color="#fff"/></radialGradient><radialGradient id="e" cx="0" cy="0" r="1" gradientUnits="userSpaceOnUse" gradientTransform="matrix(67.6449 0 0 23.5636 108.603 139.214)"><stop stop-color="#5A9BFB"/><stop offset="1" stop-color="#fff"/></radialGradient><radialGradient id="f" cx="0" cy="0" r="1" gradientUnits="userSpaceOnUse" gradientTransform="matrix(35.0369 0 0 12.2048 108.602 114.035)"><stop stop-color="#5A9BFB"/><stop offset="1" stop-color="#fff"/></radialGradient></defs></svg>