<svg width="222" height="250" fill="none" xmlns="http://www.w3.org/2000/svg"><path style="mix-blend-mode:multiply" d="M180.142 175.6c47.405 14.382 54.691 40.442 16.33 58.196-38.361 17.754-107.887 20.502-155.272 6.121-47.384-14.382-54.687-40.447-16.318-58.208 38.37-17.761 107.875-20.494 155.26-6.109Z" fill="url(#a)"/><path d="M110.608 209.383c-22.786 0-44.285-2.872-62.15-8.3-25.129-7.629-39.554-19.409-40.617-33.174-.524-6.779 2.097-19.767 25.514-30.607 19.172-8.877 47.38-13.966 77.388-13.966 22.787 0 44.286 2.868 62.17 8.296 25.13 7.629 39.555 19.412 40.618 33.178.524 6.775-2.097 19.763-25.514 30.603-19.192 8.877-47.401 13.97-77.409 13.97Z" fill="#029894" style="mix-blend-mode:multiply" opacity=".2"/><path d="M170.484 138.669c40.794 12.383 47.086 34.818 14.049 50.112-33.038 15.294-92.89 17.653-133.703 5.27-40.815-12.384-47.087-34.822-14.05-50.116 33.038-15.294 92.906-17.65 133.704-5.266Z" fill="#029894" style="mix-blend-mode:multiply"/><g style="mix-blend-mode:multiply"><path d="M158.307 144.304c32.493 9.862 37.502 27.716 11.191 39.915-26.312 12.199-73.983 14.058-106.476 4.192-32.494-9.866-37.503-27.716-11.191-39.911 26.31-12.195 73.982-14.059 106.476-4.196Z" fill="url(#b)"/><path d="M158.307 144.304c32.493 9.862 37.502 27.716 11.191 39.915-26.312 12.199-73.983 14.058-106.476 4.192-32.494-9.866-37.503-27.716-11.191-39.911 26.31-12.195 73.982-14.059 106.476-4.196Z" fill="url(#c)"/><path d="M158.307 144.304c32.493 9.862 37.502 27.716 11.191 39.915-26.312 12.199-73.983 14.058-106.476 4.192-32.494-9.866-37.503-27.716-11.191-39.911 26.31-12.195 73.982-14.059 106.476-4.196Z" fill="url(#d)"/></g><path d="M110.608 224.026c-22.786 0-44.285-2.868-62.15-8.299-25.129-7.626-39.554-19.409-40.617-33.175-.524-6.779 2.097-19.767 25.514-30.607 19.172-8.877 47.38-13.966 77.388-13.966 22.787 0 44.286 2.868 62.17 8.3 25.13 7.626 39.555 19.409 40.618 33.174.524 6.775-2.097 19.767-25.514 30.607-19.192 8.873-47.401 13.966-77.409 13.966Z" fill="#029894" style="mix-blend-mode:multiply" opacity=".2"/><path d="M178.444 140.951h-13.423a73.77 73.77 0 0 0-11.703-4.546c-29.091-8.831-71.77-7.149-95.326 3.753-.572.266-1.112.535-1.635.808H43.023v13.674c-1.226 7.899 7.36 15.894 24.987 21.253 29.092 8.83 71.77 7.148 95.326-3.754 10.173-4.711 15.104-10.37 15.096-15.99l.012-15.198Z" fill="#E6EFEC"/><path d="M153.319 121.207c29.087 8.831 33.573 24.829 10.017 35.731-23.555 10.901-66.238 12.587-95.326 3.757-29.088-8.831-33.573-24.829-10.017-35.735 23.555-10.905 66.234-12.584 95.326-3.753Z" fill="#F8FFFD"/><path style="mix-blend-mode:multiply" d="M110.592 166.461c37.474 0 67.853-11.421 67.853-25.51 0-14.089-30.379-25.51-67.853-25.51-37.475 0-67.854 11.421-67.854 25.51 0 14.089 30.38 25.51 67.854 25.51Z" fill="url(#e)"/><path d="M178.444 115.807h-13.423a73.7 73.7 0 0 0-11.703-4.562c-29.091-8.831-71.77-7.152-95.326 3.753a38.4 38.4 0 0 0-1.635.809H43.023v13.669c-1.226 7.899 7.36 15.894 24.987 21.253 29.092 8.83 71.77 7.148 95.326-3.757 10.173-4.708 15.104-10.367 15.096-15.987l.012-15.178Z" fill="#E6EFEC"/><path d="M153.319 96.059c29.087 8.83 33.573 24.829 10.017 35.734-23.555 10.906-66.238 12.588-95.326 3.757-29.088-8.83-33.573-24.829-10.017-35.734 23.555-10.906 66.234-12.584 95.326-3.757Z" fill="#F8FFFD"/><path style="mix-blend-mode:multiply" opacity=".25" d="M110.59 129.022c19.409 0 35.144-5.917 35.144-13.216 0-7.298-15.735-13.215-35.144-13.215s-35.143 5.917-35.143 13.215c0 7.299 15.734 13.216 35.143 13.216Z" fill="url(#f)"/><path d="M108.49 21.746c0 4.684-1.156 8.221-3.467 10.613-2.312 2.392-5.423 3.584-9.335 3.576-3.95 0-7.085-1.195-9.404-3.584-2.32-2.39-3.476-5.927-3.468-10.613v-7.283c0-4.686 1.148-8.224 3.443-10.613 2.295-2.39 5.415-3.584 9.36-3.584 3.93 0 7.055 1.2 9.375 3.6 2.32 2.4 3.48 5.932 3.48 10.597l.016 7.291Zm-8.513-7.837c0-2.652-.37-4.557-1.112-5.717a3.438 3.438 0 0 0-1.346-1.298 3.716 3.716 0 0 0-1.868-.442 3.66 3.66 0 0 0-1.866.438 3.383 3.383 0 0 0-1.335 1.302c-.715 1.16-1.073 3.066-1.076 5.716v8.338c0 2.698.364 4.622 1.092 5.774.315.544.785.995 1.357 1.3a3.701 3.701 0 0 0 1.881.429c.65.02 1.292-.13 1.855-.436a3.376 3.376 0 0 0 1.33-1.293c.728-1.152 1.09-3.076 1.088-5.774V13.91ZM131.052 35.442h-8.521V8.834h-8.222v-5.67L131.073.735l-.021 34.707ZM131.494 60.271a2.67 2.67 0 0 0-.871-.555 2.83 2.83 0 0 0-2.072 0 2.68 2.68 0 0 0-.871.555l-2.904 2.687a19.476 19.476 0 0 0-2.467-1.246 27.087 27.087 0 0 0-2.632-.93V56.63a2.242 2.242 0 0 0-.191-.96 2.4 2.4 0 0 0-.587-.809 2.608 2.608 0 0 0-.873-.545 2.755 2.755 0 0 0-1.034-.177h-5.591a2.782 2.782 0 0 0-1.018.184 2.627 2.627 0 0 0-.861.538 2.377 2.377 0 0 0-.599.807 2.227 2.227 0 0 0-.198.962v3.783c-.923.203-1.829.465-2.713.784a21.84 21.84 0 0 0-2.502 1.072l-3.218-2.944a2.484 2.484 0 0 0-.844-.559 2.649 2.649 0 0 0-1.018-.189 2.83 2.83 0 0 0-1.035.194 2.666 2.666 0 0 0-.871.554l-3.912 3.641c-.256.23-.46.504-.6.808a2.305 2.305 0 0 0 0 1.922c.14.304.344.579.6.808l2.895 2.695c-.508.73-.956 1.495-1.342 2.288a22.95 22.95 0 0 0-1.003 2.433h-4.476a2.76 2.76 0 0 0-1.034.177 2.6 2.6 0 0 0-.873.545 2.39 2.39 0 0 0-.588.81 2.24 2.24 0 0 0-.19.96v5.185a2.27 2.27 0 0 0 .198.946c.134.3.331.57.58.798.246.24.542.428.87.556.328.127.681.19 1.037.183h4.078c.219.856.501 1.697.846 2.517.337.81.723 1.603 1.154 2.375l-3.182 2.952a2.312 2.312 0 0 0-.602.784c-.139.297-.208.619-.204.943 0 .33.071.657.21.96.138.304.34.58.596.809l3.925 3.683a2.915 2.915 0 0 0 1.907.698c.708 0 1.39-.25 1.907-.698l2.905-2.74a19.45 19.45 0 0 0 2.466 1.245c.858.363 1.737.682 2.632.955v4.132a2.3 2.3 0 0 0 .197.957c.134.304.331.58.582.812.25.232.547.415.875.539.327.124.678.186 1.031.183h5.591c.349.003.696-.06 1.019-.184.323-.124.616-.307.861-.538a2.39 2.39 0 0 0 .599-.807c.137-.305.204-.632.197-.962v-3.783c.923-.2 1.829-.46 2.713-.776.874-.313 1.729-.671 2.56-1.072l3.182 2.92c.244.236.536.424.86.552a2.775 2.775 0 0 0 2.05 0c.324-.128.616-.316.859-.553l3.97-3.641a2.49 2.49 0 0 0 .752-1.769 2.49 2.49 0 0 0-.752-1.769l-2.954-2.695c.508-.73.957-1.495 1.343-2.288a22.75 22.75 0 0 0 1.029-2.441h4.454c.354.003.705-.059 1.032-.183.327-.124.625-.307.875-.54.25-.231.448-.507.581-.811.134-.304.201-.63.198-.957v-5.186a2.277 2.277 0 0 0-.199-.946 2.424 2.424 0 0 0-.58-.799 2.583 2.583 0 0 0-.87-.555 2.739 2.739 0 0 0-1.037-.184h-4.078a20.175 20.175 0 0 0-.837-2.49 18.128 18.128 0 0 0-1.154-2.347l3.173-2.985c.258-.22.463-.486.602-.784.139-.298.208-.62.204-.944 0-.33-.071-.656-.209-.96a2.475 2.475 0 0 0-.597-.809l-3.925-3.629h-.027ZM117.081 72.16l-4.108 2.164 4.977.577 3.746-2.193-4.615-.548Zm-4.959 3.322-.197 5.369-2.202-1.383-2.238 1.167.448-5.63-4.078-.486V86.46l13.558 1.399V76.112l-5.273-.623-.018-.008Zm-3.419-1.66 3.983-2.193-1.969-.237-5.08 2.076 3.066.361v-.008Zm10.048 2.109v11.522l4.4-2.442-.09-11.626-4.323 2.529.013.017Zm-.278 13.141a.72.72 0 0 1-.402.12h-.103l-14.851-1.54a.704.704 0 0 1-.453-.199.609.609 0 0 1-.183-.432V73.795a.594.594 0 0 1 .106-.351.665.665 0 0 1 .297-.238l7.457-3.04a.738.738 0 0 1 .358-.05l12.899 1.57c.101-.01.204 0 .301.027a.78.78 0 0 1 .265.133c.078.06.142.135.189.218a.663.663 0 0 1 .082.27l.103 13a.59.59 0 0 1-.08.327.653.653 0 0 1-.251.242l-5.734 3.164v.004Zm-4.972-24.386c3.187 0 6.302.877 8.952 2.52 2.65 1.642 4.715 3.977 5.934 6.708a13.942 13.942 0 0 1 .917 8.636c-.621 2.9-2.156 5.564-4.409 7.654-2.254 2.09-5.125 3.514-8.251 4.091-3.125.577-6.365.28-9.31-.85-2.944-1.132-5.46-3.048-7.231-5.506-1.77-2.458-2.716-5.348-2.716-8.305 0-3.964 1.698-7.766 4.72-10.57 3.022-2.803 7.12-4.378 11.394-4.378Z" fill="#029894"/><defs><radialGradient id="a" cx="0" cy="0" r="1" gradientUnits="userSpaceOnUse" gradientTransform="matrix(107.502 0 0 39.4718 110.665 196.358)"><stop stop-color="#80E3C8"/><stop offset="1" stop-color="#fff"/></radialGradient><radialGradient id="b" cx="0" cy="0" r="1" gradientUnits="userSpaceOnUse" gradientTransform="matrix(53.7585 -19.9595 13.02563 35.08296 112.742 166.444)"><stop stop-color="#80E3C8"/><stop offset=".43" stop-color="#82E3C9"/><stop offset=".58" stop-color="#89E5CC"/><stop offset=".69" stop-color="#94E8D1"/><stop offset=".78" stop-color="#A5EBD8"/><stop offset=".86" stop-color="#BBF0E2"/><stop offset=".93" stop-color="#D7F6ED"/><stop offset=".99" stop-color="#F6FDFB"/><stop offset="1" stop-color="#fff"/></radialGradient><radialGradient id="c" cx="0" cy="0" r="1" gradientUnits="userSpaceOnUse" gradientTransform="matrix(53.7585 -19.9595 13.02563 35.08296 112.742 166.444)"><stop stop-color="#80E3C8"/><stop offset=".43" stop-color="#82E3C9"/><stop offset=".58" stop-color="#89E5CC"/><stop offset=".69" stop-color="#94E8D1"/><stop offset=".78" stop-color="#A5EBD8"/><stop offset=".86" stop-color="#BBF0E2"/><stop offset=".93" stop-color="#D7F6ED"/><stop offset=".99" stop-color="#F6FDFB"/><stop offset="1" stop-color="#fff"/></radialGradient><radialGradient id="d" cx="0" cy="0" r="1" gradientUnits="userSpaceOnUse" gradientTransform="matrix(53.7585 -19.9595 13.02563 35.08296 112.742 166.444)"><stop stop-color="#80E3C8"/><stop offset=".43" stop-color="#82E3C9"/><stop offset=".58" stop-color="#89E5CC"/><stop offset=".69" stop-color="#94E8D1"/><stop offset=".78" stop-color="#A5EBD8"/><stop offset=".86" stop-color="#BBF0E2"/><stop offset=".93" stop-color="#D7F6ED"/><stop offset=".99" stop-color="#F6FDFB"/><stop offset="1" stop-color="#fff"/></radialGradient><radialGradient id="e" cx="0" cy="0" r="1" gradientUnits="userSpaceOnUse" gradientTransform="matrix(67.6449 0 0 23.5636 110.592 143.965)"><stop stop-color="#80E3C8"/><stop offset="1" stop-color="#fff"/></radialGradient><radialGradient id="f" cx="0" cy="0" r="1" gradientUnits="userSpaceOnUse" gradientTransform="matrix(35.0368 0 0 12.2048 110.59 118.786)"><stop stop-color="#80E3C8"/><stop offset="1" stop-color="#fff"/></radialGradient></defs></svg>