<svg width="222" height="244" fill="none" xmlns="http://www.w3.org/2000/svg"><path style="mix-blend-mode:multiply" d="M180.562 169.658c47.381 14.386 54.688 40.446 16.318 58.208-38.369 17.761-107.886 20.502-155.271 6.117-47.385-14.386-54.688-40.443-16.319-58.208 38.37-17.765 107.887-20.498 155.272-6.117Z" fill="url(#a)"/><path d="M108.485 203.441c-22.786 0-44.285-2.868-62.15-8.295-25.129-7.63-39.554-19.413-40.617-33.179-.524-6.779 2.097-19.767 25.51-30.607 19.176-8.876 47.385-13.965 77.388-13.965 22.791 0 44.29 2.871 62.174 8.299 25.13 7.626 39.555 19.409 40.618 33.175.52 6.775-2.097 19.766-25.514 30.607-19.205 8.876-47.413 13.965-77.409 13.965Z" fill="#001C63" style="mix-blend-mode:multiply" opacity=".2"/><path d="M108.485 218.088c-22.786 0-44.285-2.871-62.15-8.299-25.129-7.63-39.554-19.409-40.617-33.175-.524-6.778 2.097-19.766 25.51-30.61 19.176-8.854 47.385-13.966 77.388-13.966 22.791 0 44.29 2.872 62.174 8.299 25.13 7.63 39.555 19.409 40.618 33.175.52 6.779-2.097 19.767-25.514 30.607-19.205 8.877-47.413 13.969-77.409 13.969Z" fill="#001C63" style="mix-blend-mode:multiply" opacity=".2"/><path d="M168.345 132.727c40.798 12.383 47.091 34.822 14.053 50.116-33.037 15.294-92.889 17.65-133.703 5.266-40.815-12.384-47.087-34.822-14.05-50.116 33.038-15.294 92.906-17.65 133.7-5.266Z" fill="#001C63" style="mix-blend-mode:multiply"/><g style="mix-blend-mode:multiply"><path d="M156.172 138.362c32.489 9.866 37.502 27.736 11.191 39.915-26.311 12.18-73.983 14.058-106.476 4.196-32.494-9.862-37.503-27.716-11.191-39.915 26.311-12.199 73.982-14.058 106.476-4.196Z" fill="url(#b)"/><path d="M156.172 138.362c32.489 9.866 37.502 27.736 11.191 39.915-26.311 12.18-73.983 14.058-106.476 4.196-32.494-9.862-37.503-27.716-11.191-39.915 26.311-12.199 73.982-14.058 106.476-4.196Z" fill="url(#c)"/><path d="M156.172 138.362c32.489 9.866 37.502 27.736 11.191 39.915-26.311 12.18-73.983 14.058-106.476 4.196-32.494-9.862-37.503-27.716-11.191-39.915 26.311-12.199 73.982-14.058 106.476-4.196Z" fill="url(#d)"/></g><path d="M176.306 135.009h-13.42a74.52 74.52 0 0 0-11.706-4.561c-29.088-8.831-71.766-7.149-95.322 3.757-.572.265-1.116.535-1.656.804H40.885v13.677c-1.227 7.896 7.34 15.895 24.99 21.253 29.092 8.831 71.771 7.149 95.327-3.757 10.173-4.708 15.104-10.366 15.095-15.99l.009-15.183Z" fill="#E6E6ED"/><path d="M151.18 115.266c29.091 8.83 33.577 24.828 10.021 35.734-23.555 10.905-66.238 12.584-95.326 3.757-29.087-8.827-33.573-24.833-10.017-35.734 23.555-10.902 66.234-12.588 95.322-3.757Z" fill="#FAFAFF"/><path style="mix-blend-mode:multiply" d="M108.457 160.52c37.474 0 67.853-11.422 67.853-25.511 0-14.088-30.379-25.51-67.853-25.51-37.474 0-67.853 11.422-67.853 25.51 0 14.089 30.379 25.511 67.853 25.511Z" fill="url(#e)"/><path d="M176.306 109.865h-13.42a74.156 74.156 0 0 0-11.706-4.562c-29.088-8.83-71.766-7.148-95.322 3.757-.572.266-1.116.535-1.656.805H40.885v13.677c-1.227 7.895 7.34 15.894 24.99 21.253 29.092 8.83 71.771 7.148 95.327-3.757 10.173-4.708 15.104-10.367 15.095-15.991l.009-15.182Z" fill="#E6E6ED"/><path d="M151.18 90.106c29.091 8.83 33.577 24.828 10.021 35.734-23.555 10.905-66.238 12.584-95.326 3.753-29.087-8.83-33.573-24.829-10.017-35.73 23.555-10.902 66.234-12.573 95.322-3.757Z" fill="#FAFAFF"/><path style="mix-blend-mode:multiply" opacity=".25" d="M108.456 123.08c19.409 0 35.143-5.917 35.143-13.215 0-7.299-15.734-13.215-35.143-13.215-19.41 0-35.144 5.916-35.144 13.215 0 7.298 15.735 13.215 35.144 13.215Z" fill="url(#f)"/><path d="M106.349 21.932c0 4.684-1.154 8.221-3.463 10.613-2.309 2.392-5.422 3.588-9.339 3.588-3.944 0-7.072-1.196-9.384-3.588-2.311-2.392-3.472-5.93-3.483-10.613v-7.275c0-4.687 1.146-8.224 3.438-10.613C86.411 1.654 89.532.46 93.482.46c3.93 0 7.056 1.198 9.375 3.595 2.32 2.397 3.478 5.93 3.476 10.601l.016 7.276Zm-8.525-7.834c0-2.65-.37-4.557-1.112-5.72a3.442 3.442 0 0 0-1.347-1.295 3.72 3.72 0 0 0-1.867-.441 3.648 3.648 0 0 0-1.866.434 3.37 3.37 0 0 0-1.336 1.302c-.714 1.163-1.072 3.07-1.075 5.72v8.334c0 2.703.363 4.627 1.088 5.774a3.44 3.44 0 0 0 1.358 1.298 3.717 3.717 0 0 0 1.88.43c.65.02 1.293-.13 1.856-.436a3.388 3.388 0 0 0 1.333-1.292c.725-1.152 1.088-3.076 1.088-5.774v-8.334ZM125.935.448a19.78 19.78 0 0 1 3.872.343 25.72 25.72 0 0 1 3.746 1.109l-1.419 5.858a36.696 36.696 0 0 0-3.099-.746 16.366 16.366 0 0 0-3.051-.25 6.422 6.422 0 0 0-2.68.48 6.072 6.072 0 0 0-2.189 1.533c-1.222 1.34-1.808 3.296-1.758 5.87l.077.12a7.442 7.442 0 0 1 2.96-1.86 12.36 12.36 0 0 1 4.2-.666c3.287 0 5.847 1.115 7.678 3.345 1.832 2.23 2.747 5.085 2.744 8.565 0 3.429-1.21 6.284-3.631 8.565-2.42 2.282-5.51 3.421-9.269 3.419-4.034 0-7.29-1.248-9.768-3.742-2.478-2.494-3.718-5.909-3.721-10.243v-6.98c0-4.573 1.43-8.165 4.289-10.778 2.86-2.612 6.533-3.926 11.019-3.942Zm-1.696 17.985a9.195 9.195 0 0 0-3.047.45 4.812 4.812 0 0 0-2.011 1.255v2.04c0 2.503.435 4.427 1.304 5.775a3.93 3.93 0 0 0 1.517 1.481 4.25 4.25 0 0 0 2.114.524c1.281 0 2.326-.57 3.136-1.709a6.821 6.821 0 0 0 1.227-4.057c0-1.756-.393-3.152-1.178-4.189a3.515 3.515 0 0 0-1.315-1.158 3.768 3.768 0 0 0-1.747-.412ZM121.404 97.395h-5.806v-4.68h-4.197v4.68h-5.806c-1.159 0-2.099.871-2.099 1.947 0 1.075.94 1.947 2.099 1.947h15.809c1.159 0 2.099-.872 2.099-1.947 0-1.076-.94-1.947-2.099-1.947ZM117.418 86.257H86v2.326c0 .847.742 1.535 1.655 1.535h51.69c.913 0 1.655-.688 1.655-1.535v-2.326h-23.582ZM139.345 55.448h-51.69c-.913 0-1.655.689-1.655 1.535v26.678h3.87c.248-11.893 10.752-21.497 23.63-21.497 4.446 0 8.609 1.146 12.165 3.134l1.388-1.76c.456-.577 1.332-.703 1.955-.28.624.424.76 1.236.303 1.815l-1.338 1.695c5.457 3.933 9.014 10.032 9.156 16.893H141V56.983c0-.846-.743-1.535-1.655-1.535Z" fill="#001C63"/><path d="M125.344 82.266c-.493-2.767-2.044-5.142-4.233-6.802l-4.168 5.282a4.966 4.966 0 0 1 1.545 2.046h7.086a1.232 1.232 0 0 1-.23-.526ZM113.5 72.953c-3.439 0-6.563 1.332-8.764 3.51l-.03.042a1.362 1.362 0 0 1-.247.242c-1.428 1.514-2.427 3.402-2.804 5.519a1.244 1.244 0 0 1-.229.526h7.085c.751-1.88 2.703-3.225 4.989-3.225.291 0 .576.022.854.064l4.394-5.568a12.812 12.812 0 0 0-5.248-1.11ZM134.29 82.792c-.405-5.648-3.437-10.639-7.97-13.93l-3.566 4.52c.123.091.246.182.366.278 2.649 2.105 4.419 5.011 4.985 8.182.062.346-.03.683-.23.95h6.415ZM98.894 81.842c.38-2.125 1.301-4.13 2.664-5.855l-4.865-3.282-.015-.011c-2.265 2.87-3.7 6.338-3.969 10.098h6.415a1.221 1.221 0 0 1-.23-.95ZM98.484 70.703l4.943 3.334c.148-.129.299-.255.453-.378 2.324-1.846 5.201-2.971 8.222-3.239v-5.616c-5.335.33-10.127 2.53-13.618 5.899ZM114.898 64.805v5.616c1.934.17 3.808.692 5.516 1.53l3.59-4.55a21.866 21.866 0 0 0-9.106-2.596Z" fill="#001C63"/><defs><radialGradient id="a" cx="0" cy="0" r="1" gradientUnits="userSpaceOnUse" gradientTransform="matrix(107.502 0 0 39.4718 111.085 189.703)"><stop stop-color="#1628B1"/><stop offset="1" stop-color="#fff"/></radialGradient><radialGradient id="b" cx="0" cy="0" r="1" gradientUnits="userSpaceOnUse" gradientTransform="matrix(53.75846 -19.9596 13.0257 35.08293 115.532 159.758)"><stop stop-color="#80E3C8"/><stop offset=".43" stop-color="#82E3C9"/><stop offset=".58" stop-color="#89E5CC"/><stop offset=".69" stop-color="#94E8D1"/><stop offset=".78" stop-color="#A5EBD8"/><stop offset=".86" stop-color="#BBF0E2"/><stop offset=".93" stop-color="#D7F6ED"/><stop offset=".99" stop-color="#F6FDFB"/><stop offset="1" stop-color="#fff"/></radialGradient><radialGradient id="c" cx="0" cy="0" r="1" gradientUnits="userSpaceOnUse" gradientTransform="matrix(53.75846 -19.9596 13.0257 35.08293 115.532 159.758)"><stop stop-color="#80E3C8"/><stop offset=".43" stop-color="#82E3C9"/><stop offset=".58" stop-color="#89E5CC"/><stop offset=".69" stop-color="#94E8D1"/><stop offset=".78" stop-color="#A5EBD8"/><stop offset=".86" stop-color="#BBF0E2"/><stop offset=".93" stop-color="#D7F6ED"/><stop offset=".99" stop-color="#F6FDFB"/><stop offset="1" stop-color="#fff"/></radialGradient><radialGradient id="d" cx="0" cy="0" r="1" gradientUnits="userSpaceOnUse" gradientTransform="matrix(53.75846 -19.9596 13.0257 35.08293 115.532 159.758)"><stop stop-color="#1628B1"/><stop offset=".38" stop-color="#182AB2"/><stop offset=".52" stop-color="#1F30B4"/><stop offset=".61" stop-color="#2A3BB8"/><stop offset=".69" stop-color="#3B4BBE"/><stop offset=".76" stop-color="#515FC5"/><stop offset=".82" stop-color="#6D78CE"/><stop offset=".87" stop-color="#8D96D9"/><stop offset=".92" stop-color="#B3B9E5"/><stop offset=".97" stop-color="#DCDFF3"/><stop offset="1" stop-color="#fff"/></radialGradient><radialGradient id="e" cx="0" cy="0" r="1" gradientUnits="userSpaceOnUse" gradientTransform="matrix(67.6449 0 0 23.5636 108.457 138.214)"><stop stop-color="#1628B1"/><stop offset="1" stop-color="#fff"/></radialGradient><radialGradient id="f" cx="0" cy="0" r="1" gradientUnits="userSpaceOnUse" gradientTransform="matrix(35.0368 0 0 12.2048 108.456 113.035)"><stop stop-color="#1628B1"/><stop offset="1" stop-color="#fff"/></radialGradient></defs></svg>