<svg width="36" height="35" viewBox="0 0 36 35" fill="none" xmlns="http://www.w3.org/2000/svg">
<circle cx="17.9697" cy="17.4268" r="17.3184" fill="#DDE0F2"/>
<path d="M10.7891 26.0278C10.2793 26.0278 9.84306 25.8465 9.48033 25.4837C9.1176 25.121 8.93592 24.6844 8.9353 24.174V13.978C8.9353 13.4682 9.11698 13.0319 9.48033 12.6692C9.84368 12.3064 10.2799 12.1248 10.7891 12.1242H14.4968V10.2703C14.4968 9.76053 14.6784 9.32426 15.0418 8.96153C15.4051 8.5988 15.8414 8.41712 16.3506 8.4165H20.0582C20.568 8.4165 21.0046 8.59818 21.368 8.96153C21.7313 9.32488 21.9127 9.76114 21.9121 10.2703V12.1242H25.6197C26.1295 12.1242 26.5661 12.3058 26.9294 12.6692C27.2928 13.0325 27.4742 13.4688 27.4735 13.978V24.174C27.4735 24.6838 27.2922 25.1204 26.9294 25.4837C26.5667 25.8471 26.1301 26.0284 25.6197 26.0278H10.7891ZM16.3506 12.1242H20.0582V10.2703H16.3506V12.1242Z" fill="black"/>
</svg>
