<svg width="36" height="36" viewBox="0 0 36 36" fill="none" xmlns="http://www.w3.org/2000/svg">
<circle cx="17.9695" cy="18.1104" r="17.3184" fill="#DDE0F2"/>
<path d="M13.05 8.27161C12.3977 8.27161 11.772 8.53075 11.3108 8.99203C10.8495 9.45331 10.5903 10.0789 10.5903 10.7313V27.1291C10.5903 27.3466 10.6767 27.5551 10.8305 27.7089C10.9842 27.8626 11.1928 27.949 11.4102 27.949H13.8699V23.8496C13.8699 23.6321 13.9563 23.4236 14.11 23.2698C14.2638 23.116 14.4723 23.0297 14.6898 23.0297H21.2489C21.4664 23.0297 21.6749 23.116 21.8287 23.2698C21.9824 23.4236 22.0688 23.6321 22.0688 23.8496V27.949H24.5285C24.7459 27.949 24.9545 27.8626 25.1082 27.7089C25.262 27.5551 25.3484 27.3466 25.3484 27.1291V18.9302C25.3484 18.2779 25.0892 17.6522 24.628 17.1909C24.1667 16.7297 23.5411 16.4705 22.8887 16.4705H22.0688V10.7313C22.0688 10.0789 21.8097 9.45331 21.3484 8.99203C20.8871 8.53075 20.2615 8.27161 19.6091 8.27161H13.05ZM15.5097 12.3711C15.5097 12.5885 15.4233 12.7971 15.2695 12.9508C15.1158 13.1046 14.9072 13.191 14.6898 13.191C14.4723 13.191 14.2638 13.1046 14.11 12.9508C13.9563 12.7971 13.8699 12.5885 13.8699 12.3711C13.8699 12.1536 13.9563 11.9451 14.11 11.7913C14.2638 11.6376 14.4723 11.5512 14.6898 11.5512C14.9072 11.5512 15.1158 11.6376 15.2695 11.7913C15.4233 11.9451 15.5097 12.1536 15.5097 12.3711ZM15.5097 16.4705C15.5097 16.688 15.4233 16.8965 15.2695 17.0503C15.1158 17.204 14.9072 17.2904 14.6898 17.2904C14.4723 17.2904 14.2638 17.204 14.11 17.0503C13.9563 16.8965 13.8699 16.688 13.8699 16.4705C13.8699 16.2531 13.9563 16.0445 14.11 15.8908C14.2638 15.737 14.4723 15.6506 14.6898 15.6506C14.9072 15.6506 15.1158 15.737 15.2695 15.8908C15.4233 16.0445 15.5097 16.2531 15.5097 16.4705ZM15.5097 20.57C15.5097 20.7874 15.4233 20.996 15.2695 21.1497C15.1158 21.3035 14.9072 21.3899 14.6898 21.3899C14.4723 21.3899 14.2638 21.3035 14.11 21.1497C13.9563 20.996 13.8699 20.7874 13.8699 20.57C13.8699 20.3525 13.9563 20.144 14.11 19.9902C14.2638 19.8365 14.4723 19.7501 14.6898 19.7501C14.9072 19.7501 15.1158 19.8365 15.2695 19.9902C15.4233 20.144 15.5097 20.3525 15.5097 20.57ZM18.7893 12.3711C18.7893 12.5885 18.7029 12.7971 18.5491 12.9508C18.3954 13.1046 18.1868 13.191 17.9694 13.191C17.7519 13.191 17.5434 13.1046 17.3896 12.9508C17.2358 12.7971 17.1495 12.5885 17.1495 12.3711C17.1495 12.1536 17.2358 11.9451 17.3896 11.7913C17.5434 11.6376 17.7519 11.5512 17.9694 11.5512C18.1868 11.5512 18.3954 11.6376 18.5491 11.7913C18.7029 11.9451 18.7893 12.1536 18.7893 12.3711ZM18.7893 16.4705C18.7893 16.688 18.7029 16.8965 18.5491 17.0503C18.3954 17.204 18.1868 17.2904 17.9694 17.2904C17.7519 17.2904 17.5434 17.204 17.3896 17.0503C17.2358 16.8965 17.1495 16.688 17.1495 16.4705C17.1495 16.2531 17.2358 16.0445 17.3896 15.8908C17.5434 15.737 17.7519 15.6506 17.9694 15.6506C18.1868 15.6506 18.3954 15.737 18.5491 15.8908C18.7029 16.0445 18.7893 16.2531 18.7893 16.4705ZM18.7893 20.57C18.7893 20.7874 18.7029 20.996 18.5491 21.1497C18.3954 21.3035 18.1868 21.3899 17.9694 21.3899C17.7519 21.3899 17.5434 21.3035 17.3896 21.1497C17.2358 20.996 17.1495 20.7874 17.1495 20.57C17.1495 20.3525 17.2358 20.144 17.3896 19.9902C17.5434 19.8365 17.7519 19.7501 17.9694 19.7501C18.1868 19.7501 18.3954 19.8365 18.5491 19.9902C18.7029 20.144 18.7893 20.3525 18.7893 20.57ZM22.0688 20.57C22.0688 20.7874 21.9824 20.996 21.8287 21.1497C21.6749 21.3035 21.4664 21.3899 21.2489 21.3899C21.0315 21.3899 20.8229 21.3035 20.6692 21.1497C20.5154 20.996 20.429 20.7874 20.429 20.57C20.429 20.3525 20.5154 20.144 20.6692 19.9902C20.8229 19.8365 21.0315 19.7501 21.2489 19.7501C21.4664 19.7501 21.6749 19.8365 21.8287 19.9902C21.9824 20.144 22.0688 20.3525 22.0688 20.57ZM20.429 27.949V24.6694H18.7942V27.949H20.429ZM17.1544 27.949V24.6694H15.5097V27.949H17.1544Z" fill="black"/>
</svg>
