<svg width="36" height="35" viewBox="0 0 36 35" fill="none" xmlns="http://www.w3.org/2000/svg">
<circle cx="17.9697" cy="17.5049" r="17.3184" fill="#DDE0F2"/>
<path d="M13.6072 8.99229C15.0391 8.23741 16.6334 7.8427 18.2522 7.84229C19.873 7.84021 21.4698 8.23358 22.9042 8.98829C24.3401 9.74394 25.5705 10.8378 26.4892 12.1753L24.5572 13.2833C23.8375 12.2842 22.8909 11.4702 21.7952 10.9083C20.1432 10.0605 18.2417 9.83389 16.4367 10.2698C14.6317 10.7056 13.0432 11.775 11.9602 13.2833L10.0282 12.1753C10.9457 10.84 12.174 9.74771 13.6072 8.99229ZM13.4102 13.2863C13.9509 12.7109 14.589 12.2356 15.2952 11.8823C14.8762 12.2923 14.5092 12.7513 14.2022 13.2503C13.9392 13.2803 13.6742 13.2923 13.4102 13.2863ZM15.9702 11.6033L15.9222 11.6053V11.6223L15.9702 11.6033ZM15.9702 11.6033C16.5136 11.5809 17.0578 11.6205 17.5922 11.7213C17.7786 11.5472 17.9546 11.3622 18.1192 11.1673C17.3832 11.1918 16.6575 11.3392 15.9702 11.6033ZM14.7902 13.1473C15.0242 12.8153 15.2872 12.5043 15.5772 12.2203L15.8372 12.8233C15.4972 12.9633 15.1472 13.0713 14.7902 13.1473ZM15.9872 12.0473L15.9852 12.0423V12.0483L15.9872 12.0473ZM15.9872 12.0473L16.2422 12.6413C16.5542 12.4813 16.8522 12.2963 17.1342 12.0873C16.7537 12.0408 16.37 12.0274 15.9872 12.0473ZM18.1142 11.8403C18.3176 11.6364 18.5079 11.42 18.6842 11.1923V11.1983C19.7426 11.2647 20.7703 11.5807 21.6832 12.1203C21.4421 12.521 21.1717 12.9034 20.8742 13.2643C20.0688 12.5944 19.1269 12.1084 18.1142 11.8403ZM11.7232 16.5533C11.9328 15.515 12.384 14.5408 13.0402 13.7093V13.7153C13.3372 13.7353 13.6362 13.7353 13.9342 13.7153C13.4501 14.6462 13.174 15.6712 13.1252 16.7193C12.6545 16.6974 12.186 16.642 11.7232 16.5533ZM17.7252 12.2033L17.7332 12.1973L17.7222 12.2033H17.7252ZM17.7252 12.2033C17.3285 12.5353 16.8938 12.819 16.4302 13.0483L17.6202 15.8163C18.7445 15.2805 19.7518 14.5277 20.5842 13.6013C19.7563 12.9142 18.776 12.4342 17.7252 12.2033ZM14.4732 13.6633L14.4752 13.6593L14.4652 13.6653L14.4732 13.6633ZM14.4732 13.6633C13.9283 14.5992 13.6149 15.6518 13.5592 16.7333C14.8081 16.7266 16.0433 16.4734 17.1942 15.9883L16.0042 13.2363C15.5131 13.4405 14.999 13.5832 14.4732 13.6633ZM22.0502 12.3733L22.0552 12.3633L22.0452 12.3693L22.0502 12.3733ZM22.0502 12.3733C21.7987 12.7896 21.5162 13.1864 21.2052 13.5603C22.0434 14.3551 22.6747 15.3428 23.0442 16.4373C23.4922 15.9773 23.9062 15.4833 24.2812 14.9613C23.7769 13.9182 23.0076 13.0258 22.0502 12.3733ZM11.6612 16.9983L11.6622 16.9913L11.6522 16.9963L11.6612 16.9983ZM11.6612 16.9983C11.5092 18.15 11.6609 19.3213 12.1012 20.3963C12.7382 20.4663 13.3792 20.4903 14.0202 20.4683C13.9084 20.2669 13.8069 20.06 13.7162 19.8483C13.3465 19.0012 13.1477 18.0894 13.1312 17.1653C12.6377 17.1459 12.1464 17.0901 11.6612 16.9983ZM20.9082 13.9033L20.9152 13.8953L20.9052 13.9003L20.9082 13.9033ZM20.9082 13.9033C20.0328 14.8687 18.9761 15.6526 17.7982 16.2103L19.1082 19.2423C20.4302 18.6317 21.6424 17.8073 22.6962 16.8023C22.6181 16.55 22.526 16.3023 22.4202 16.0603C22.0659 15.2472 21.5517 14.5136 20.9082 13.9033ZM14.1112 19.6683C13.7683 18.881 13.5809 18.0348 13.5592 17.1763C14.8729 17.1654 16.1714 16.8935 17.3792 16.3763L18.6912 19.4223C17.3602 19.9893 15.9452 20.3323 14.5032 20.4383C14.3555 20.1906 14.2246 19.9334 14.1112 19.6683ZM23.1742 16.9423C23.6402 16.4763 24.0732 15.9773 24.4682 15.4493H24.4712C24.9327 16.6224 25.0496 17.903 24.8082 19.1403C24.2932 19.6273 23.7482 20.0803 23.1732 20.4943C23.4741 19.3294 23.4741 18.1072 23.1732 16.9423H23.1742ZM14.8092 23.5923C13.7314 22.9417 12.8608 21.998 12.2992 20.8713C12.9542 20.9313 13.6122 20.9443 14.2692 20.9093C14.9217 21.9109 15.8167 22.7313 16.8712 23.2943C16.1912 23.4383 15.5022 23.5383 14.8092 23.5933V23.5923ZM19.2762 19.6523C20.5684 19.057 21.7595 18.263 22.8062 17.2993C23.0647 18.4971 22.9903 19.7428 22.5912 20.9013C21.8772 21.3743 21.1282 21.7893 20.3492 22.1453L19.2762 19.6523ZM17.5392 23.1363C16.4299 22.647 15.4755 21.8638 14.7792 20.8713C16.1843 20.7396 17.56 20.3883 18.8562 19.8303L19.9302 22.3223C19.1552 22.6543 18.3562 22.9263 17.5402 23.1363H17.5392ZM22.9442 21.1983C23.5228 20.8108 24.0763 20.387 24.6012 19.9293C24.3289 20.7805 23.8883 21.5682 23.3054 22.2456C22.7225 22.923 22.0093 23.4762 21.2082 23.8723C21.9799 23.1219 22.5732 22.2078 22.9442 21.1973V21.1983ZM18.0382 24.5663C17.1648 24.5379 16.3056 24.337 15.5102 23.9753L15.5162 23.9663C16.1897 23.8876 16.858 23.7684 17.5172 23.6093C18.4926 24.0109 19.5446 24.1925 20.5982 24.1413C19.7812 24.4503 18.9112 24.5947 18.0382 24.5663ZM20.5212 22.5603C21.1312 22.2833 21.7242 21.9683 22.2962 21.6183L22.3012 21.6103C21.962 22.3235 21.5007 22.9719 20.9382 23.5263L20.5212 22.5603ZM20.5262 23.6983C19.7568 23.7315 18.9874 23.6313 18.2522 23.4023C18.8822 23.2133 19.5022 22.9903 20.1072 22.7323L20.5262 23.6983ZM8.97618 14.1443C8.40417 15.579 8.17014 17.1262 8.29222 18.6659C8.41431 20.2057 8.88922 21.6966 9.68018 23.0233C10.4705 24.3482 11.556 25.4727 12.8522 26.3093C14.1464 27.1448 15.6164 27.6695 17.1472 27.8423V25.5943C16.0081 25.4287 14.92 25.0121 13.9616 24.3747C13.0031 23.7372 12.1983 22.8948 11.6052 21.9083C11.0097 20.9211 10.6396 19.8145 10.5216 18.6677C10.4035 17.5209 10.5403 16.3621 10.9222 15.2743L8.97618 14.1443ZM25.5952 15.2743L27.5462 14.1443C28.1183 15.5792 28.3524 17.1265 28.2303 18.6664C28.1082 20.2063 27.6332 21.6975 26.8422 23.0243C26.0516 24.3493 24.9657 25.4738 23.6692 26.3103C22.3746 27.1456 20.9042 27.6699 19.3732 27.8423V25.5943C20.5126 25.4297 21.6012 25.0138 22.5601 24.3767C23.5189 23.7395 24.3241 22.897 24.9172 21.9103C25.5127 20.9227 25.8823 19.8155 25.9996 18.6682C26.1168 17.5209 25.9787 16.3619 25.5952 15.2743Z" fill="black"/>
</svg>
