<svg width="36" height="36" viewBox="0 0 36 36" fill="none" xmlns="http://www.w3.org/2000/svg">
<circle cx="17.9695" cy="18.1104" r="17.3184" fill="#DDE0F2"/>
<path d="M17.9693 16.7221C19.7155 16.7221 21.131 15.3244 21.131 13.6002C21.131 11.8761 19.7155 10.4784 17.9693 10.4784C16.2232 10.4784 14.8076 11.8761 14.8076 13.6002C14.8076 15.3244 16.2232 16.7221 17.9693 16.7221Z" fill="black"/>
<path d="M13.1737 13.9123H13.4925V13.6267C13.4944 12.7962 13.7287 11.9828 14.1689 11.2785C14.6091 10.5742 15.2376 10.0071 15.9833 9.6414C15.7626 9.13298 15.4082 8.69385 14.9579 8.37064C14.5076 8.04743 13.9782 7.85222 13.4259 7.80573C12.8735 7.75925 12.3189 7.86323 11.821 8.10663C11.323 8.35003 10.9002 8.72377 10.5976 9.18814C10.295 9.65251 10.1238 10.1902 10.1022 10.744C10.0806 11.2979 10.2094 11.8473 10.4749 12.3338C10.7405 12.8203 11.1328 13.2258 11.6103 13.5073C12.0879 13.7887 12.6327 13.9356 13.1869 13.9323L13.1737 13.9123ZM22.4595 13.6002V13.8858H22.7783C23.3252 13.8803 23.8605 13.7275 24.3278 13.4434C24.7952 13.1593 25.1773 12.7545 25.434 12.2716C25.6907 11.7886 25.8125 11.2454 25.7864 10.6991C25.7604 10.1528 25.5876 9.62366 25.2862 9.16729C24.9848 8.71092 24.566 8.34424 24.0737 8.10585C23.5815 7.86747 23.0341 7.76619 22.4892 7.81267C21.9442 7.85916 21.4219 8.05169 20.9772 8.37001C20.5324 8.68832 20.1817 9.12065 19.962 9.62147C20.7079 9.98573 21.3371 10.5514 21.7785 11.2544C22.2198 11.9575 22.4557 12.77 22.4595 13.6002ZM20.8188 17.0342C22.1395 17.2956 23.4164 17.7428 24.6115 18.3626C24.7799 18.4551 24.9324 18.5739 25.0632 18.7146H28.5969V16.443C28.5975 16.3559 28.5743 16.2702 28.5298 16.1953C28.4854 16.1204 28.4213 16.0591 28.3444 16.0179C26.6229 15.1174 24.7078 14.6501 22.765 14.6563H22.3266C22.0964 15.592 21.567 16.4269 20.8188 17.0342ZM10.3507 20.0032C10.3495 19.6687 10.4399 19.3402 10.612 19.0534C10.7841 18.7665 11.0314 18.5322 11.3271 18.3759C12.5223 17.7561 13.7992 17.3089 15.1198 17.0475C14.3753 16.4454 13.8462 15.6179 13.612 14.6895H13.1737C11.2308 14.6833 9.31577 15.1507 7.59421 16.0511C7.51741 16.0923 7.4533 16.1536 7.40882 16.2285C7.36434 16.3034 7.34117 16.3891 7.34181 16.4762V20.7206H10.3507V20.0032ZM20.2675 23.8358H24.2263V24.7657H20.2675V23.8358Z" fill="black"/>
<path d="M27.8065 20.2289H23.2433V19.5647C23.2433 19.3886 23.1733 19.2196 23.0487 19.0951C22.9242 18.9705 22.7552 18.9005 22.5791 18.9005C22.4029 18.9005 22.234 18.9705 22.1094 19.0951C21.9848 19.2196 21.9148 19.3886 21.9148 19.5647V20.2289H20.6263V18.3492C19.7524 18.1657 18.8623 18.07 17.9694 18.0636C15.8729 18.0549 13.8065 18.5612 11.9515 19.5382C11.8689 19.581 11.7998 19.6459 11.7517 19.7256C11.7036 19.8053 11.6786 19.8968 11.6792 19.9898V23.7161H16.4018V27.7612C16.4018 27.9374 16.4718 28.1063 16.5964 28.2309C16.7209 28.3554 16.8899 28.4254 17.066 28.4254H27.8065C27.9826 28.4254 28.1516 28.3554 28.2761 28.2309C28.4007 28.1063 28.4707 27.9374 28.4707 27.7612V20.8932C28.4707 20.717 28.4007 20.5481 28.2761 20.4235C28.1516 20.2989 27.9826 20.2289 27.8065 20.2289ZM27.1423 27.1103H17.7303V21.5574H21.9148V22.1618C21.9148 22.338 21.9848 22.5069 22.1094 22.6315C22.234 22.7561 22.4029 22.826 22.5791 22.826C22.7552 22.826 22.9242 22.7561 23.0487 22.6315C23.1733 22.5069 23.2433 22.338 23.2433 22.1618V21.5574H27.1423V27.1103Z" fill="black"/>
</svg>
