<svg width="36" height="35" viewBox="0 0 36 35" fill="none" xmlns="http://www.w3.org/2000/svg">
<circle cx="18.2942" cy="17.6572" r="17.3184" fill="#DDE0F2"/>
<path d="M17.7004 11.5958H20.7004L23.9904 8.2958C24.0834 8.20207 24.194 8.12768 24.3158 8.07691C24.4377 8.02614 24.5684 8 24.7004 8C24.8324 8 24.9631 8.02614 25.085 8.07691C25.2069 8.12768 25.3175 8.20207 25.4104 8.2958L27.9904 10.8858C28.1767 11.0732 28.2812 11.3266 28.2812 11.5908C28.2812 11.855 28.1767 12.1084 27.9904 12.2958L25.7004 14.5958H17.7004V16.5958C17.7004 16.861 17.5951 17.1154 17.4075 17.3029C17.22 17.4904 16.9656 17.5958 16.7004 17.5958C16.4352 17.5958 16.1809 17.4904 15.9933 17.3029C15.8058 17.1154 15.7004 16.861 15.7004 16.5958V13.5958C15.7004 13.0654 15.9111 12.5567 16.2862 12.1816C16.6613 11.8065 17.17 11.5958 17.7004 11.5958ZM11.7004 16.5958V20.5958L9.41042 22.8858C9.22417 23.0732 9.11963 23.3266 9.11963 23.5908C9.11963 23.855 9.22417 24.1084 9.41042 24.2958L11.9904 26.8858C12.0834 26.9795 12.194 27.0539 12.3158 27.1047C12.4377 27.1555 12.5684 27.1816 12.7004 27.1816C12.8324 27.1816 12.9631 27.1555 13.085 27.1047C13.2069 27.0539 13.3175 26.9795 13.4104 26.8858L17.7004 22.5958H21.7004C21.9656 22.5958 22.22 22.4904 22.4075 22.3029C22.5951 22.1154 22.7004 21.861 22.7004 21.5958V20.5958H23.7004C23.9656 20.5958 24.22 20.4904 24.4075 20.3029C24.5951 20.1154 24.7004 19.861 24.7004 19.5958V18.5958H25.7004C25.9656 18.5958 26.22 18.4904 26.4075 18.3029C26.5951 18.1154 26.7004 17.861 26.7004 17.5958V16.5958H19.7004V17.5958C19.7004 18.1262 19.4897 18.6349 19.1146 19.01C18.7396 19.3851 18.2309 19.5958 17.7004 19.5958H15.7004C15.17 19.5958 14.6613 19.3851 14.2862 19.01C13.9111 18.6349 13.7004 18.1262 13.7004 17.5958V14.5958L11.7004 16.5958Z" fill="black"/>
</svg>
