<svg width="36" height="35" viewBox="0 0 36 35" fill="none" xmlns="http://www.w3.org/2000/svg">
<circle cx="17.9695" cy="17.5835" r="17.3184" fill="#DDE0F2"/>
<path d="M17.0383 17.9335C17.8083 16.5435 19.2883 15.7235 20.1483 14.4935C21.0583 13.2035 20.5483 10.7935 17.9683 10.7935C16.2783 10.7935 15.4483 12.0735 15.0983 13.1335L12.5083 12.0435C13.2183 9.9135 15.1483 8.0835 17.9583 8.0835C20.3083 8.0835 21.9183 9.1535 22.7383 10.4935C23.4383 11.6435 23.8483 13.7935 22.7683 15.3935C21.5683 17.1635 20.4183 17.7035 19.7983 18.8435C19.5483 19.3035 19.4483 19.6035 19.4483 21.0835H16.5583C16.5483 20.3035 16.4283 19.0335 17.0383 17.9335ZM19.9683 25.0835C19.9683 26.1835 19.0683 27.0835 17.9683 27.0835C16.8683 27.0835 15.9683 26.1835 15.9683 25.0835C15.9683 23.9835 16.8683 23.0835 17.9683 23.0835C19.0683 23.0835 19.9683 23.9835 19.9683 25.0835Z" fill="black"/>
</svg>
