<svg width="222" height="270" fill="none" xmlns="http://www.w3.org/2000/svg"><path style="mix-blend-mode:multiply" d="M180.142 189.929c47.405 15.503 54.691 43.595 16.33 62.733-38.361 19.138-107.887 22.1-155.272 6.598-47.384-15.503-54.687-43.599-16.318-62.745 38.37-19.146 107.875-22.092 155.26-6.586Z" fill="url(#a)"/><path d="M110.608 226.346c-22.786 0-44.285-3.096-62.15-8.946-25.129-8.225-39.554-20.922-40.617-35.761-.524-7.307 2.097-21.308 25.514-32.993 19.172-9.569 47.38-15.054 77.388-15.054 22.787 0 44.286 3.091 62.17 8.942 25.13 8.224 39.555 20.926 40.618 35.765.524 7.303-2.097 21.303-25.514 32.988-19.192 9.569-47.401 15.059-77.409 15.059Z" fill="#029894" style="mix-blend-mode:multiply" opacity=".2"/><path d="M170.484 150.12c40.794 13.349 47.086 37.532 14.049 54.018-33.038 16.486-92.89 19.03-133.703 5.681-40.815-13.349-47.087-37.537-14.05-54.023 33.038-16.486 92.906-19.025 133.704-5.676Z" fill="#029894" style="mix-blend-mode:multiply"/><g style="mix-blend-mode:multiply"><path d="M158.307 156.194c32.493 10.631 37.502 29.877 11.191 43.027-26.312 13.15-73.983 15.154-106.476 4.519-32.494-10.636-37.503-29.877-11.191-43.023 26.31-13.145 73.982-15.154 106.476-4.523Z" fill="url(#b)"/><path d="M158.307 156.194c32.493 10.631 37.502 29.877 11.191 43.027-26.312 13.15-73.983 15.154-106.476 4.519-32.494-10.636-37.503-29.877-11.191-43.023 26.31-13.145 73.982-15.154 106.476-4.523Z" fill="url(#c)"/><path d="M158.307 156.194c32.493 10.631 37.502 29.877 11.191 43.027-26.312 13.15-73.983 15.154-106.476 4.519-32.494-10.636-37.503-29.877-11.191-43.023 26.31-13.145 73.982-15.154 106.476-4.523Z" fill="url(#d)"/></g><path d="M110.608 242.131c-22.786 0-44.285-3.091-62.15-8.946-25.129-8.22-39.554-20.922-40.617-35.761-.524-7.307 2.097-21.308 25.514-32.993 19.172-9.569 47.38-15.054 77.388-15.054 22.787 0 44.286 3.091 62.17 8.946 25.13 8.22 39.555 20.922 40.618 35.761.524 7.303-2.097 21.308-25.514 32.993-19.192 9.564-47.401 15.054-77.409 15.054Z" fill="#029894" style="mix-blend-mode:multiply" opacity=".2"/><path d="M178.444 152.58h-13.423a70.642 70.642 0 0 0-11.703-4.901c-29.091-9.519-71.77-7.705-95.326 4.046a36.94 36.94 0 0 0-1.635.872H43.023v14.739c-1.226 8.515 7.36 17.133 24.987 22.909 29.092 9.519 71.77 7.706 95.326-4.046 10.173-5.079 15.104-11.178 15.096-17.237l.012-16.382Z" fill="#E6EFEC"/><path d="M153.319 131.297c29.087 9.519 33.573 26.764 10.017 38.516-23.555 11.751-66.238 13.569-95.326 4.05-29.088-9.519-33.573-26.765-10.017-38.52 23.555-11.756 66.234-13.565 95.326-4.046Z" fill="#F8FFFD"/><path style="mix-blend-mode:multiply" d="M110.592 180.079c37.474 0 67.853-12.312 67.853-27.499s-30.379-27.499-67.853-27.499c-37.475 0-67.854 12.312-67.854 27.499s30.38 27.499 67.854 27.499Z" fill="url(#e)"/><path d="M178.444 125.476h-13.423a70.59 70.59 0 0 0-11.703-4.917c-29.091-9.519-71.77-7.71-95.326 4.045-.572.287-1.112.577-1.635.872H43.023v14.735c-1.226 8.515 7.36 17.133 24.987 22.909 29.092 9.519 71.77 7.706 95.326-4.05 10.173-5.074 15.104-11.174 15.096-17.233l.012-16.361Z" fill="#E6EFEC"/><path d="M153.319 104.188c29.087 9.519 33.573 26.765 10.017 38.52-23.555 11.756-66.238 13.569-95.326 4.05-29.088-9.519-33.573-26.764-10.017-38.52 23.555-11.756 66.234-13.565 95.326-4.05Z" fill="#F8FFFD"/><path style="mix-blend-mode:multiply" opacity=".25" d="M110.59 139.721c19.409 0 35.144-6.378 35.144-14.245 0-7.868-15.735-14.246-35.144-14.246s-35.143 6.378-35.143 14.246c0 7.867 15.734 14.245 35.143 14.245Z" fill="url(#f)"/><path d="M108.49 24.083c0 5.048-1.156 8.862-3.467 11.44-2.312 2.578-5.423 3.863-9.335 3.855-3.95 0-7.085-1.288-9.404-3.863-2.32-2.576-3.476-6.39-3.468-11.44v-7.852c0-5.051 1.148-8.864 3.443-11.44C88.554 2.208 91.674.92 95.62.92c3.93 0 7.055 1.293 9.375 3.88 2.32 2.586 3.48 6.394 3.48 11.423l.016 7.86Zm-8.513-8.449c0-2.857-.37-4.912-1.112-6.162a3.57 3.57 0 0 0-1.346-1.399 3.5 3.5 0 0 0-1.868-.476c-.653-.024-1.3.14-1.866.471a3.518 3.518 0 0 0-1.335 1.404c-.715 1.25-1.073 3.305-1.076 6.162v8.988c0 2.907.364 4.982 1.092 6.224a3.551 3.551 0 0 0 1.357 1.401c.572.33 1.224.49 1.881.462.65.023 1.292-.14 1.855-.47a3.509 3.509 0 0 0 1.33-1.393c.728-1.242 1.09-3.317 1.088-6.224v-8.988ZM131.052 38.846h-8.521V10.164h-8.222V4.052l16.764-2.618-.021 37.412Z" fill="#029894"/><g clip-path="url(#g)"><path fill-rule="evenodd" clip-rule="evenodd" d="M108.117 105.821c2.069 6.097 10.725 6.316 12.669 0 2.29 2.064 9.07 2.471 11.591 3.883.797.445 1.518 1.009 2.095 1.775.389.514.909 1.461 1.298 2.521H93.126c.395-1.06.91-2.007 1.299-2.521.577-.766 1.298-1.33 2.095-1.775 2.527-1.405 9.307-1.819 11.597-3.883ZM106.68 59h15.549c.671 0 1.217.546 1.217 1.217v10.92c0 .67-.546 1.216-1.217 1.216H106.68a1.217 1.217 0 0 1-1.216-1.216v-10.92c0-.671.545-1.217 1.216-1.217Zm16.044 3.406h-16.489v8.85c0 .094.038.175.1.238.063.063.145.1.239.1h15.812a.332.332 0 0 0 .238-.1.33.33 0 0 0 .1-.238v-8.85Zm-1.655-2.039a.602.602 0 1 1 0 1.205.602.602 0 0 1 0-1.205Zm-4.077 0a.602.602 0 1 1 0 1.205.602.602 0 0 1 0-1.205Zm2.038 0a.602.602 0 1 1 0 1.204.602.602 0 0 1 0-1.204Zm-6.799 5.77-1.982.747 1.982.753v1.743l-3.079-1.743v-1.5l3.079-1.743v1.744Zm7.527 0v1.5l-3.08 1.743v-1.743l1.982-.753-1.982-.746v-1.75l3.08 1.75Zm-5.338 3.733h-1.311l1.618-6.31h1.311l-1.618 6.31Zm35.776 24.028c.025 0 .05 0 .075.006.157-.276.301-.57.439-.878.007-.006.007-.012.013-.012.194-.47.351-.954.445-1.456a7.5 7.5 0 0 0 .145-1.198h-2.359c-.044 1.198-.401 2.378-1.066 3.538h2.308Zm-.408.753h-2.37c-.722 1.047-1.694 2.076-2.904 3.092.188-.025.382-.057.564-.094.508-.1.997-.251 1.474-.458a8.09 8.09 0 0 0 1.342-.728 7.505 7.505 0 0 0 1.894-1.812Zm-7.3 3.092c-1.217-1.016-2.189-2.045-2.904-3.092h-2.371c.226.307.477.595.753.871a7.19 7.19 0 0 0 1.154.947c.414.277.859.521 1.342.728.006.006.012.006.012.013a7.38 7.38 0 0 0 1.456.445c.181.031.37.056.558.088Zm-5.771-3.845h2.39c-.665-1.16-1.022-2.346-1.066-3.537h-2.358c.018.413.069.809.144 1.197.1.508.251.998.458 1.474.125.301.269.59.432.866Zm-1.034-4.29h2.37c.088-1.173.477-2.352 1.173-3.538h-2.509a8.678 8.678 0 0 0-.432.872c-.007.007-.007.013-.013.013-.194.47-.351.953-.445 1.455a6.706 6.706 0 0 0-.144 1.198Zm1.524-4.29h2.502c.715-1.029 1.656-2.064 2.829-3.105a6.32 6.32 0 0 0-.615.1c-.508.1-.997.251-1.474.458a8.138 8.138 0 0 0-1.342.728 7.559 7.559 0 0 0-1.9 1.819Zm7.244-3.105c1.179 1.041 2.12 2.076 2.829 3.105h2.502a7.688 7.688 0 0 0-1.907-1.82 8.278 8.278 0 0 0-1.342-.727c-.006-.006-.012-.006-.012-.012a7.392 7.392 0 0 0-1.455-.446c-.201-.037-.408-.069-.615-.1Zm5.827 3.857h-2.509c.696 1.186 1.085 2.365 1.173 3.538h2.371a8.153 8.153 0 0 0-.145-1.198 7.143 7.143 0 0 0-.458-1.474 9.295 9.295 0 0 0-.432-.866Zm-8.505-4.497a8.648 8.648 0 0 1 1.725-.17c.589 0 1.16.057 1.724.17.552.107 1.079.27 1.6.496.006 0 .012.006.019.012.514.22 1.003.49 1.461.79a8.05 8.05 0 0 1 1.267 1.042c.389.389.734.809 1.041 1.267.307.458.571.947.79 1.461.226.527.389 1.066.502 1.618.113.558.169 1.13.169 1.725 0 .59-.056 1.16-.169 1.725a7.624 7.624 0 0 1-.495 1.6c0 .006-.007.012-.013.018a9.042 9.042 0 0 1-.79 1.462 8.41 8.41 0 0 1-2.308 2.308c-.458.307-.947.57-1.462.79a8.322 8.322 0 0 1-1.618.502 8.648 8.648 0 0 1-1.725.17c-.589 0-1.16-.057-1.725-.17a7.621 7.621 0 0 1-1.599-.496c-.006 0-.012-.006-.019-.012a9.363 9.363 0 0 1-1.461-.79 8.05 8.05 0 0 1-1.267-1.042 8.384 8.384 0 0 1-1.041-1.267 8.85 8.85 0 0 1-.791-1.461 8.384 8.384 0 0 1-.501-1.618 8.642 8.642 0 0 1-.17-1.725c0-.59.057-1.16.17-1.725a7.564 7.564 0 0 1 .495-1.6c0-.006.006-.012.013-.018.219-.52.489-1.004.79-1.462a8.416 8.416 0 0 1 2.308-2.308 8.85 8.85 0 0 1 1.462-.79 8.923 8.923 0 0 1 1.618-.502Zm2.101 1.13v2.615h2.49c-.659-.866-1.487-1.738-2.49-2.616Zm0 3.367v3.538h4.315c-.1-1.16-.533-2.34-1.305-3.538h-3.01Zm0 4.29v3.538h3.142c.747-1.173 1.142-2.352 1.186-3.537h-4.328Zm0 4.29v2.647c1.066-.871 1.938-1.756 2.615-2.646h-2.615Zm-.753 2.641v-2.647h-2.615c.671.891 1.543 1.775 2.615 2.647Zm0-3.393V90.36h-4.334c.044 1.185.446 2.364 1.186 3.537h3.148Zm0-4.29V86.07h-3.017c-.771 1.198-1.204 2.378-1.298 3.538h4.315Zm0-4.29v-2.616c-1.01.878-1.838 1.75-2.49 2.616h2.49Zm-62.206 4.666-2.779-4.033c.49-.59.916-1.217 1.286-1.875a15.08 15.08 0 0 0 .978-2.145l4.892.47-4.377 7.583Zm.915.552 4.397-7.62 7.583 4.377-.602 1.042-6.034-3.481a.693.693 0 0 0-.94.25.693.693 0 0 0 .25.941l6.034 3.481-.564.973-6.034-3.482a.693.693 0 0 0-.941.251.693.693 0 0 0 .25.941l6.034 3.481-.564.972-6.034-3.48a.693.693 0 0 0-.94.25.693.693 0 0 0 .25.941l6.034 3.481-.602 1.041-7.577-4.359Zm-4.647-5.958L75 81.41l3.744.364a13.484 13.484 0 0 1-.72 1.518 9.633 9.633 0 0 1-.841 1.286Zm8.712 27.208c.32.715 0 1.555-.722 1.875-.715.32-1.555 0-1.875-.721a33.306 33.306 0 0 1-1.926-5.545 33.972 33.972 0 0 1-.928-5.807 1.427 1.427 0 1 1 2.848-.201 31.47 31.47 0 0 0 .846 5.312 30.417 30.417 0 0 0 1.757 5.087Zm5.983-33.97c-.583.52-1.48.47-2.007-.113-.52-.583-.47-1.48.113-2.007a38.55 38.55 0 0 1 4.49-3.45c1.443-.94 2.93-1.75 4.347-2.301a1.42 1.42 0 0 1 1.838.815 1.42 1.42 0 0 1-.815 1.838c-1.223.47-2.534 1.192-3.826 2.032a35.678 35.678 0 0 0-4.14 3.186Zm36.874-6.027a1.421 1.421 0 0 1 1.436-2.453 33.336 33.336 0 0 1 4.516 3.168 33.792 33.792 0 0 1 3.951 3.863 1.42 1.42 0 0 1-.144 2.007 1.421 1.421 0 0 1-2.007-.144 31.585 31.585 0 0 0-3.613-3.544 31.99 31.99 0 0 0-4.139-2.897Zm15.78 31.473a1.42 1.42 0 0 1 2.817.37 33.315 33.315 0 0 1-.96 4.673 33.626 33.626 0 0 1-1.612 4.484 1.42 1.42 0 0 1-1.875.728 1.42 1.42 0 0 1-.728-1.875 30.386 30.386 0 0 0 2.358-8.38ZM106.53 93.189c-.433.019-.765.107-.985.257a.834.834 0 0 0-.282.326c-.069.145-.1.32-.094.527.019.596.332 1.374.934 2.27l.007.013 1.956 3.118c.784 1.248 1.612 2.521 2.635 3.456.984.896 2.176 1.511 3.757 1.511 1.712.006 2.96-.627 3.976-1.58 1.054-.991 1.888-2.346 2.71-3.695l2.208-3.638c.414-.94.558-1.568.464-1.938-.057-.22-.301-.326-.709-.345a1.961 1.961 0 0 0-.27 0c-.1 0-.2.013-.307.02a.512.512 0 0 1-.169-.013c-.195.012-.402 0-.603-.032l.759-3.035c-5.607.884-9.803-3.28-15.73-.835l.426 3.632c-.25.025-.476.013-.683-.019Zm17.33-.702c.545.163.89.508 1.035 1.066.156.615-.013 1.487-.54 2.678-.012.019-.019.044-.031.063l-2.233 3.675c-.859 1.418-1.737 2.835-2.898 3.933-1.21 1.129-2.697 1.882-4.729 1.875-1.9-.006-3.33-.734-4.503-1.806-1.136-1.035-2.001-2.377-2.823-3.682l-1.957-3.117c-.715-1.066-1.091-2.045-1.11-2.848-.012-.376.05-.72.195-1.022.144-.314.37-.577.671-.784.144-.094.301-.175.476-.245a44.926 44.926 0 0 1-.094-5.287c.044-.42.126-.847.245-1.267.502-1.787 1.756-2.61 3.312-3.594.859-.546 1.793-.96 2.778-1.235.621-.176-.527-2.164.113-2.233 3.111-.32 8.141 2.521 10.318 4.867 1.085 1.179 1.768 2.114 1.919 4.177l-.144 4.786Z" fill="#029894"/></g><defs><radialGradient id="a" cx="0" cy="0" r="1" gradientUnits="userSpaceOnUse" gradientTransform="matrix(107.502 0 0 42.5488 110.665 212.306)"><stop stop-color="#80E3C8"/><stop offset="1" stop-color="#fff"/></radialGradient><radialGradient id="b" cx="0" cy="0" r="1" gradientUnits="userSpaceOnUse" gradientTransform="rotate(-21.812 523.618 -202.528) scale(57.9042 39.9502)"><stop stop-color="#80E3C8"/><stop offset=".43" stop-color="#82E3C9"/><stop offset=".58" stop-color="#89E5CC"/><stop offset=".69" stop-color="#94E8D1"/><stop offset=".78" stop-color="#A5EBD8"/><stop offset=".86" stop-color="#BBF0E2"/><stop offset=".93" stop-color="#D7F6ED"/><stop offset=".99" stop-color="#F6FDFB"/><stop offset="1" stop-color="#fff"/></radialGradient><radialGradient id="c" cx="0" cy="0" r="1" gradientUnits="userSpaceOnUse" gradientTransform="rotate(-21.812 523.618 -202.528) scale(57.9042 39.9502)"><stop stop-color="#80E3C8"/><stop offset=".43" stop-color="#82E3C9"/><stop offset=".58" stop-color="#89E5CC"/><stop offset=".69" stop-color="#94E8D1"/><stop offset=".78" stop-color="#A5EBD8"/><stop offset=".86" stop-color="#BBF0E2"/><stop offset=".93" stop-color="#D7F6ED"/><stop offset=".99" stop-color="#F6FDFB"/><stop offset="1" stop-color="#fff"/></radialGradient><radialGradient id="d" cx="0" cy="0" r="1" gradientUnits="userSpaceOnUse" gradientTransform="rotate(-21.812 523.618 -202.528) scale(57.9042 39.9502)"><stop stop-color="#80E3C8"/><stop offset=".43" stop-color="#82E3C9"/><stop offset=".58" stop-color="#89E5CC"/><stop offset=".69" stop-color="#94E8D1"/><stop offset=".78" stop-color="#A5EBD8"/><stop offset=".86" stop-color="#BBF0E2"/><stop offset=".93" stop-color="#D7F6ED"/><stop offset=".99" stop-color="#F6FDFB"/><stop offset="1" stop-color="#fff"/></radialGradient><radialGradient id="e" cx="0" cy="0" r="1" gradientUnits="userSpaceOnUse" gradientTransform="matrix(67.6449 0 0 25.4004 110.592 155.828)"><stop stop-color="#80E3C8"/><stop offset="1" stop-color="#fff"/></radialGradient><radialGradient id="f" cx="0" cy="0" r="1" gradientUnits="userSpaceOnUse" gradientTransform="matrix(35.0368 0 0 13.1562 110.59 128.688)"><stop stop-color="#80E3C8"/><stop offset="1" stop-color="#fff"/></radialGradient><clipPath id="g"><path fill="#fff" transform="translate(75 59)" d="M0 0h77.072v55H0z"/></clipPath></defs></svg>