<svg width="221" height="265" fill="none" xmlns="http://www.w3.org/2000/svg"><path style="mix-blend-mode:multiply" d="M180.024 184.807c47.385 15.507 54.712 43.595 16.318 62.729-38.393 19.133-107.886 22.096-155.267 6.593-47.381-15.502-54.692-43.595-16.323-62.745 38.37-19.15 107.891-22.079 155.272-6.577Z" fill="url(#a)"/><path d="M110.478 220.514c-22.787 0-44.286-3.096-62.15-8.946-25.13-8.221-39.555-20.922-40.618-35.761-.523-7.303 2.098-21.308 25.514-32.993 19.172-9.569 47.38-15.054 77.389-15.054 22.786 0 44.285 3.091 62.149 8.942 25.13 8.224 39.555 20.926 40.618 35.765.523 7.307-2.097 21.307-25.514 32.993-19.172 9.568-47.381 15.054-77.388 15.054Z" fill="#8EDBDC" style="mix-blend-mode:multiply" opacity=".2"/><path d="M170.353 144.287c40.794 13.349 47.087 37.536 14.05 54.018-33.038 16.482-92.89 19.03-133.704 5.681-40.814-13.349-47.09-37.537-14.053-54.023 33.037-16.486 92.91-19.03 133.707-5.676Z" fill="#029894" style="mix-blend-mode:multiply"/><g style="mix-blend-mode:multiply"><path d="M158.178 150.362c32.493 10.631 37.502 29.877 11.191 43.026-26.312 13.15-73.983 15.155-106.476 4.523-32.494-10.631-37.503-29.897-11.191-43.026 26.311-13.129 73.982-15.154 106.476-4.523Z" fill="url(#b)"/><path d="M158.178 150.362c32.493 10.631 37.502 29.877 11.191 43.026-26.312 13.15-73.983 15.155-106.476 4.523-32.494-10.631-37.503-29.897-11.191-43.026 26.311-13.129 73.982-15.154 106.476-4.523Z" fill="url(#c)"/><path d="M158.178 150.362c32.493 10.631 37.502 29.877 11.191 43.026-26.312 13.15-73.983 15.155-106.476 4.523-32.494-10.631-37.503-29.897-11.191-43.026 26.311-13.129 73.982-15.154 106.476-4.523Z" fill="url(#d)"/></g><path d="M110.478 236.298c-22.787 0-44.286-3.091-62.15-8.942-25.13-8.224-39.555-20.926-40.618-35.761-.523-7.307 2.098-21.308 25.514-32.993 19.172-9.568 47.38-15.058 77.389-15.058 22.786 0 44.285 3.095 62.149 8.946 25.13 8.22 39.555 20.922 40.618 35.761.523 7.307-2.097 21.308-25.514 32.993-19.172 9.569-47.381 15.054-77.388 15.054Z" fill="#8EDBDC" style="mix-blend-mode:multiply" opacity=".2"/><path d="M178.311 146.748h-13.423a70.999 70.999 0 0 0-11.702-4.918c-29.092-9.519-71.77-7.705-95.326 4.05-.573.282-1.113.577-1.636.868h-13.33v14.743c-1.226 8.511 7.36 17.133 24.987 22.909 29.092 9.515 71.771 7.706 95.326-4.05 10.173-5.074 15.104-11.174 15.096-17.237l.008-16.365Z" fill="#E6EDEB"/><path d="M153.19 125.464c29.087 9.519 33.573 26.765 10.017 38.52-23.555 11.756-66.238 13.565-95.326 4.046-29.087-9.519-33.573-26.765-10.017-38.52 23.555-11.756 66.234-13.565 95.326-4.046Z" fill="#FAFFFE"/><path style="mix-blend-mode:multiply" d="M110.536 174.217c37.433 0 67.78-12.299 67.78-27.47s-30.347-27.47-67.78-27.47c-37.434 0-67.78 12.299-67.78 27.47s30.346 27.47 67.78 27.47Z" fill="url(#e)"/><path d="M178.311 119.642h-13.423a70.702 70.702 0 0 0-11.702-4.917c-29.092-9.519-71.77-7.706-95.326 4.05-.573.282-1.113.577-1.636.867h-13.33v14.744c-1.226 8.51 7.36 17.129 24.987 22.905 29.092 9.519 71.771 7.71 95.326-4.046 10.173-5.079 15.104-11.179 15.096-17.237l.008-16.366Z" fill="#E6EDEB"/><path d="M153.19 98.36c29.087 9.518 33.573 26.764 10.017 38.519-23.555 11.756-66.238 13.565-95.326 4.046-29.087-9.519-33.573-26.764-10.017-38.52 23.555-11.755 66.234-13.565 95.326-4.046Z" fill="#FAFFFE"/><path style="mix-blend-mode:multiply" opacity=".25" d="M110.536 133.888c19.409 0 35.143-6.378 35.143-14.245 0-7.868-15.734-14.246-35.143-14.246-19.41 0-35.143 6.378-35.143 14.246 0 7.867 15.734 14.245 35.143 14.245Z" fill="url(#f)"/><path d="M108.43 23.909c0 5.051-1.156 8.865-3.468 11.44-2.311 2.576-5.424 3.863-9.338 3.863-3.947 0-7.082-1.288-9.405-3.863-2.322-2.575-3.478-6.389-3.467-11.44v-7.86c0-5.05 1.148-8.864 3.443-11.44C88.49 2.034 91.61.746 95.554.746c3.928 0 7.053 1.293 9.376 3.88 2.322 2.586 3.482 6.394 3.479 11.424l.021 7.859ZM99.9 15.46c0-2.86-.37-4.914-1.112-6.162A3.573 3.573 0 0 0 97.442 7.9a3.504 3.504 0 0 0-1.867-.477c-.654-.024-1.3.14-1.866.472a3.517 3.517 0 0 0-1.336 1.403c-.714 1.25-1.073 3.305-1.075 6.162v8.988c0 2.908.362 4.982 1.087 6.224.316.586.786 1.07 1.358 1.4.572.33 1.223.49 1.88.464.65.022 1.294-.14 1.857-.47a3.512 3.512 0 0 0 1.333-1.394c.728-1.242 1.09-3.316 1.087-6.224V15.46ZM138.65 38.669h-25.759V33.02l11.857-12.635a25.264 25.264 0 0 0 3.312-4.673 7.987 7.987 0 0 0 1.063-3.568 5.182 5.182 0 0 0-1.075-3.444c-.714-.855-1.789-1.282-3.226-1.282a3.417 3.417 0 0 0-1.729.421c-.53.291-.975.718-1.293 1.238a7.483 7.483 0 0 0-1.1 4.225h-8.353l-.049-.154c-.076-1.62.182-3.24.757-4.754a11.699 11.699 0 0 1 2.584-4.039c2.311-2.407 5.372-3.61 9.183-3.61 4.048 0 7.207 1.01 9.478 3.03 2.27 2.019 3.404 4.785 3.402 8.298a11.083 11.083 0 0 1-1.808 6.266c-1.204 1.812-3.427 4.508-6.668 8.088l-4.985 5.419.074.153h14.335v6.669Z" fill="#029894"/><g clip-path="url(#g)"><path d="M110.414 68.536a1.886 1.886 0 0 1-1.394-3.252 1.883 1.883 0 0 1 1.394-.518A27.523 27.523 0 1 1 86.92 77.977l-2.332.887a1.885 1.885 0 0 1-2.431-1.09 1.883 1.883 0 0 1 1.089-2.43l6.062-2.31a1.96 1.96 0 0 1 .596-.123 1.878 1.878 0 0 1 2.133 1.305l1.882 6.194a1.88 1.88 0 0 1-3.597 1.091l-.382-1.273a23.748 23.748 0 1 0 20.465-11.71l.009.018Zm0 13.043c4.511 0 8.186 1.714 8.186 3.825 0 2.11-3.638 3.824-8.186 3.824s-8.186-1.71-8.186-3.825c0-2.114 3.638-3.824 8.186-3.824Zm-8.186 14.439v2.938c1.451 5.166 15.817 4.165 16.344-.264v-2.933c-.704 4.861-15.166 5.211-16.33.259h-.014Zm-.041-8.736v2.865c1.455 5.043 15.894 4.361 16.426.036v-2.865c-.704 4.734-15.266 4.798-16.412-.036h-.014Zm0 4.252v2.938c1.455 5.161 15.894 4.46 16.426.031V91.57c-.718 4.866-15.28 4.916-16.426-.036Zm0-15.53a1.642 1.642 0 0 1 .903-2.136 1.638 1.638 0 0 1 2.135.903l1.223 2.974a1.631 1.631 0 0 1-.367 1.787 1.655 1.655 0 0 1-1.165.474 1.64 1.64 0 0 1-1.51-1.024l-1.223-2.979h.004Zm-9.746 15.139a1.64 1.64 0 0 1-.76-2.933 1.64 1.64 0 0 1 1.215-.314l3.183.427a1.638 1.638 0 0 1 1.186 2.455 1.64 1.64 0 0 1-1.64.792l-3.184-.427Zm8.236 15.989a1.638 1.638 0 1 1-2.592-2.001l1.965-2.546a1.627 1.627 0 0 1 1.087-.624 1.649 1.649 0 0 1 1.209.328 1.632 1.632 0 0 1 .624 1.087 1.655 1.655 0 0 1-.328 1.21l-1.965 2.546Zm17.955.883a1.635 1.635 0 0 1-3.025 1.241l-1.223-2.974a1.636 1.636 0 0 1 3.029-1.242l1.219 2.975Zm9.75-15.126a1.64 1.64 0 1 1-.418 3.256l-3.184-.455a1.64 1.64 0 0 1 .455-3.247l3.183.428-.036.018Zm-8.218-16.003a1.648 1.648 0 0 1 1.095-.677 1.64 1.64 0 0 1 1.872 1.448 1.643 1.643 0 0 1-.379 1.23l-1.965 2.546a1.636 1.636 0 1 1-2.587-2l1.964-2.547Z" fill="#029894"/></g><defs><radialGradient id="a" cx="0" cy="0" r="1" gradientUnits="userSpaceOnUse" gradientTransform="matrix(107.502 0 0 42.5488 110.547 206.409)"><stop stop-color="#8EDBDC"/><stop offset="1" stop-color="#fff"/></radialGradient><radialGradient id="b" cx="0" cy="0" r="1" gradientUnits="userSpaceOnUse" gradientTransform="rotate(-21.812 506.828 -208.075) scale(57.9042 39.9502)"><stop stop-color="#8EDBDC"/><stop offset=".44" stop-color="#90DCDD"/><stop offset=".6" stop-color="#97DEDF"/><stop offset=".71" stop-color="#A2E2E2"/><stop offset=".8" stop-color="#B3E7E8"/><stop offset=".88" stop-color="#C9EEEE"/><stop offset=".95" stop-color="#E4F6F7"/><stop offset="1" stop-color="#fff"/></radialGradient><radialGradient id="c" cx="0" cy="0" r="1" gradientUnits="userSpaceOnUse" gradientTransform="rotate(-21.812 506.828 -208.075) scale(57.9042 39.9502)"><stop stop-color="#80E3C8"/><stop offset=".43" stop-color="#82E3C9"/><stop offset=".58" stop-color="#89E5CC"/><stop offset=".69" stop-color="#94E8D1"/><stop offset=".78" stop-color="#A5EBD8"/><stop offset=".86" stop-color="#BBF0E2"/><stop offset=".93" stop-color="#D7F6ED"/><stop offset=".99" stop-color="#F6FDFB"/><stop offset="1" stop-color="#fff"/></radialGradient><radialGradient id="d" cx="0" cy="0" r="1" gradientUnits="userSpaceOnUse" gradientTransform="rotate(-21.812 506.828 -208.075) scale(57.9042 39.9502)"><stop stop-color="#80E3C8"/><stop offset=".43" stop-color="#82E3C9"/><stop offset=".58" stop-color="#89E5CC"/><stop offset=".69" stop-color="#94E8D1"/><stop offset=".78" stop-color="#A5EBD8"/><stop offset=".86" stop-color="#BBF0E2"/><stop offset=".93" stop-color="#D7F6ED"/><stop offset=".99" stop-color="#F6FDFB"/><stop offset="1" stop-color="#fff"/></radialGradient><radialGradient id="e" cx="0" cy="0" r="1" gradientUnits="userSpaceOnUse" gradientTransform="matrix(67.5713 0 0 25.3728 110.536 150.201)"><stop stop-color="#8EDBDC"/><stop offset="1" stop-color="#fff"/></radialGradient><radialGradient id="f" cx="0" cy="0" r="1" gradientUnits="userSpaceOnUse" gradientTransform="matrix(35.0368 0 0 13.1562 110.536 123.06)"><stop stop-color="#8EDBDC"/><stop offset="1" stop-color="#fff"/></radialGradient><clipPath id="g"><path fill="#fff" transform="translate(82.031 64.766)" d="M0 0h55.882v55H0z"/></clipPath></defs></svg>