<svg width="222" height="263" fill="none" xmlns="http://www.w3.org/2000/svg"><path style="mix-blend-mode:multiply" d="M180.562 182.906c47.381 15.507 54.687 43.6 16.318 62.745-38.369 19.146-107.887 22.101-155.272 6.594C-5.776 236.738-13.079 208.65 25.29 189.5c38.37-19.15 107.887-22.096 155.272-6.594Z" fill="url(#a)"/><path d="M108.485 219.323c-22.787 0-44.286-3.092-62.15-8.942-25.13-8.225-39.555-20.926-40.618-35.765-.523-7.308 2.098-21.308 25.51-32.993 19.177-9.569 47.385-15.055 77.389-15.055 22.79 0 44.289 3.096 62.174 8.947 25.129 8.22 39.555 20.922 40.618 35.76.519 7.304-2.098 21.308-25.514 32.993-19.205 9.569-47.414 15.055-77.409 15.055Z" fill="#001C63" style="mix-blend-mode:multiply" opacity=".2"/><path d="M108.485 235.112c-22.787 0-44.286-3.096-62.15-8.946-25.13-8.225-39.555-20.922-40.618-35.761-.523-7.307 2.098-21.308 25.51-32.997 19.177-9.544 47.385-15.055 77.389-15.055 22.79 0 44.289 3.096 62.174 8.947 25.129 8.224 39.555 20.922 40.618 35.76.519 7.308-2.098 21.308-25.514 32.993-19.205 9.569-47.414 15.059-77.409 15.059Z" fill="#001C63" style="mix-blend-mode:multiply" opacity=".2"/><path d="M168.345 143.096c40.798 13.349 47.091 37.537 14.053 54.023-33.037 16.486-92.889 19.026-133.703 5.677-40.815-13.349-47.087-37.537-14.05-54.023 33.038-16.486 92.906-19.026 133.7-5.677Z" fill="#001C63" style="mix-blend-mode:multiply"/><g style="mix-blend-mode:multiply"><path d="M156.172 149.171c32.489 10.636 37.502 29.898 11.191 43.027-26.311 13.129-73.983 15.154-106.476 4.523-32.494-10.631-37.503-29.877-11.191-43.027 26.311-13.15 73.982-15.154 106.476-4.523Z" fill="url(#b)"/><path d="M156.172 149.171c32.489 10.636 37.502 29.898 11.191 43.027-26.311 13.129-73.983 15.154-106.476 4.523-32.494-10.631-37.503-29.877-11.191-43.027 26.311-13.15 73.982-15.154 106.476-4.523Z" fill="url(#c)"/><path d="M156.172 149.171c32.489 10.636 37.502 29.898 11.191 43.027-26.311 13.129-73.983 15.154-106.476 4.523-32.494-10.631-37.503-29.877-11.191-43.027 26.311-13.15 73.982-15.154 106.476-4.523Z" fill="url(#d)"/></g><path d="M176.305 145.556h-13.419a71.418 71.418 0 0 0-11.706-4.917c-29.088-9.519-71.767-7.705-95.322 4.05-.572.286-1.116.577-1.656.867H40.885V160.3c-1.227 8.51 7.34 17.133 24.99 22.909 29.092 9.519 71.771 7.706 95.326-4.05 10.173-5.075 15.104-11.174 15.096-17.237l.008-16.366Z" fill="#E6E6ED"/><path d="M151.18 124.273c29.091 9.519 33.577 26.765 10.021 38.52-23.555 11.756-66.238 13.565-95.326 4.05-29.087-9.514-33.573-26.768-10.017-38.52 23.555-11.751 66.234-13.569 95.322-4.05Z" fill="#FAFAFF"/><path style="mix-blend-mode:multiply" d="M108.456 173.055c37.474 0 67.853-12.311 67.853-27.499 0-15.187-30.379-27.499-67.853-27.499-37.474 0-67.853 12.312-67.853 27.499 0 15.188 30.379 27.499 67.853 27.499Z" fill="url(#e)"/><path d="M176.305 118.452h-13.419a71.04 71.04 0 0 0-11.706-4.918c-29.088-9.519-71.767-7.705-95.322 4.05a62.23 62.23 0 0 0-1.656.868H40.885v14.743c-1.227 8.511 7.34 17.133 24.99 22.91 29.092 9.519 71.771 7.705 95.326-4.05 10.173-5.075 15.104-11.175 15.096-17.238l.008-16.365Z" fill="#E6E6ED"/><path d="M151.18 97.152c29.091 9.519 33.577 26.765 10.021 38.52-23.555 11.756-66.238 13.565-95.326 4.046-29.087-9.519-33.573-26.764-10.017-38.516 23.555-11.751 66.234-13.552 95.322-4.05Z" fill="#FAFAFF"/><path style="mix-blend-mode:multiply" opacity=".25" d="M108.456 132.697c19.409 0 35.143-6.377 35.143-14.245 0-7.867-15.734-14.245-35.143-14.245-19.41 0-35.144 6.378-35.144 14.245 0 7.868 15.735 14.245 35.144 14.245Z" fill="url(#f)"/><path d="M106.35 23.664c0 5.048-1.154 8.862-3.463 11.44-2.309 2.578-5.422 3.867-9.339 3.867-3.944 0-7.072-1.289-9.384-3.867-2.311-2.578-3.472-6.392-3.483-11.44V15.82c0-5.051 1.146-8.865 3.438-11.44C86.412 1.805 89.533.518 93.483.518c3.93 0 7.056 1.291 9.375 3.875 2.32 2.584 3.478 6.393 3.476 11.428l.016 7.843Zm-8.525-8.445c0-2.857-.37-4.913-1.112-6.166a3.574 3.574 0 0 0-1.347-1.396 3.504 3.504 0 0 0-1.867-.475 3.435 3.435 0 0 0-1.866.468 3.505 3.505 0 0 0-1.335 1.403c-.715 1.253-1.073 3.309-1.076 6.166v8.984c0 2.913.363 4.988 1.088 6.224.316.585.786 1.07 1.358 1.399a3.5 3.5 0 0 0 1.88.465 3.452 3.452 0 0 0 1.856-.471 3.52 3.52 0 0 0 1.333-1.393c.725-1.242 1.088-3.317 1.088-6.224V15.22ZM125.935.506c1.3-.014 2.598.11 3.872.37 1.278.296 2.531.695 3.746 1.194l-1.419 6.316c-1.182-.357-2.212-.627-3.099-.805a15.212 15.212 0 0 0-3.051-.27 6.013 6.013 0 0 0-2.68.518 6.093 6.093 0 0 0-2.189 1.652c-1.222 1.444-1.808 3.554-1.758 6.328l.077.13a7.39 7.39 0 0 1 2.96-2.005 11.546 11.546 0 0 1 4.2-.718c3.287 0 5.847 1.202 7.678 3.606 1.832 2.404 2.747 5.482 2.744 9.233 0 3.695-1.21 6.773-3.631 9.232-2.42 2.46-5.51 3.688-9.269 3.685-4.034 0-7.29-1.344-9.768-4.033-2.478-2.69-3.718-6.37-3.721-11.042v-7.523c0-4.93 1.43-8.803 4.289-11.619 2.86-2.816 6.533-4.232 11.019-4.249Zm-1.696 19.387a8.58 8.58 0 0 0-3.047.485 4.776 4.776 0 0 0-2.011 1.353v2.2c0 2.696.435 4.771 1.304 6.223a4.088 4.088 0 0 0 1.517 1.597c.64.382 1.372.577 2.114.565 1.281 0 2.326-.614 3.136-1.842a7.765 7.765 0 0 0 1.227-4.374c0-1.892-.393-3.397-1.178-4.514a3.614 3.614 0 0 0-1.315-1.25 3.548 3.548 0 0 0-1.747-.443Z" fill="#001C63"/><g clip-path="url(#g)"><path d="m115.638 62.148-30.04 13.028 30.168 12.262 30.197-12.222-30.325-13.068Zm30.325 28.06-13.47-5.801-16.078 6.509a1.73 1.73 0 0 1-1.302 0l-16.118-6.553-13.396 5.811 30.167 12.257 30.197-12.222Zm-13.136 9.06-16.412 6.641a1.73 1.73 0 0 1-1.302 0l-16.452-6.686-13.062 5.669 30.167 12.261 30.197-12.222-13.136-5.664Z" fill="#001C63"/></g><defs><radialGradient id="a" cx="0" cy="0" r="1" gradientUnits="userSpaceOnUse" gradientTransform="matrix(107.502 0 0 42.5488 111.085 204.514)"><stop stop-color="#1628B1"/><stop offset="1" stop-color="#fff"/></radialGradient><radialGradient id="b" cx="0" cy="0" r="1" gradientUnits="userSpaceOnUse" gradientTransform="matrix(53.75844 -21.51545 14.84431 37.08996 115.532 172.235)"><stop stop-color="#80E3C8"/><stop offset=".43" stop-color="#82E3C9"/><stop offset=".58" stop-color="#89E5CC"/><stop offset=".69" stop-color="#94E8D1"/><stop offset=".78" stop-color="#A5EBD8"/><stop offset=".86" stop-color="#BBF0E2"/><stop offset=".93" stop-color="#D7F6ED"/><stop offset=".99" stop-color="#F6FDFB"/><stop offset="1" stop-color="#fff"/></radialGradient><radialGradient id="c" cx="0" cy="0" r="1" gradientUnits="userSpaceOnUse" gradientTransform="matrix(53.75844 -21.51545 14.84431 37.08996 115.532 172.235)"><stop stop-color="#80E3C8"/><stop offset=".43" stop-color="#82E3C9"/><stop offset=".58" stop-color="#89E5CC"/><stop offset=".69" stop-color="#94E8D1"/><stop offset=".78" stop-color="#A5EBD8"/><stop offset=".86" stop-color="#BBF0E2"/><stop offset=".93" stop-color="#D7F6ED"/><stop offset=".99" stop-color="#F6FDFB"/><stop offset="1" stop-color="#fff"/></radialGradient><radialGradient id="d" cx="0" cy="0" r="1" gradientUnits="userSpaceOnUse" gradientTransform="matrix(53.75844 -21.51545 14.84431 37.08996 115.532 172.235)"><stop stop-color="#1628B1"/><stop offset=".38" stop-color="#182AB2"/><stop offset=".52" stop-color="#1F30B4"/><stop offset=".61" stop-color="#2A3BB8"/><stop offset=".69" stop-color="#3B4BBE"/><stop offset=".76" stop-color="#515FC5"/><stop offset=".82" stop-color="#6D78CE"/><stop offset=".87" stop-color="#8D96D9"/><stop offset=".92" stop-color="#B3B9E5"/><stop offset=".97" stop-color="#DCDFF3"/><stop offset="1" stop-color="#fff"/></radialGradient><radialGradient id="e" cx="0" cy="0" r="1" gradientUnits="userSpaceOnUse" gradientTransform="matrix(67.6449 0 0 25.4005 108.456 149.011)"><stop stop-color="#1628B1"/><stop offset="1" stop-color="#fff"/></radialGradient><radialGradient id="f" cx="0" cy="0" r="1" gradientUnits="userSpaceOnUse" gradientTransform="matrix(35.0368 0 0 13.1562 108.456 121.87)"><stop stop-color="#1628B1"/><stop offset="1" stop-color="#fff"/></radialGradient><clipPath id="g"><path fill="#fff" transform="translate(85.599 62.148)" d="M0 0h60.364v55H0z"/></clipPath></defs></svg>