<svg width="56" height="42" viewBox="0 0 56 42" fill="none" xmlns="http://www.w3.org/2000/svg">
<path d="M53.5671 30.1179H51.0671V5.61792C51.0671 4.15923 50.4876 2.76028 49.4562 1.72883C48.4247 0.697382 47.0258 0.11792 45.5671 0.11792H9.56711C8.10842 0.11792 6.70947 0.697382 5.67802 1.72883C4.64657 2.76028 4.06711 4.15923 4.06711 5.61792V30.1179H1.56711C1.16928 30.1179 0.787752 30.276 0.506448 30.5573C0.225143 30.8386 0.0671082 31.2201 0.0671082 31.6179V35.6179C0.0671082 37.0766 0.646571 38.4756 1.67802 39.507C2.70947 40.5385 4.10842 41.1179 5.56711 41.1179H49.5671C51.0258 41.1179 52.4247 40.5385 53.4562 39.507C54.4876 38.4756 55.0671 37.0766 55.0671 35.6179V31.6179C55.0671 31.2201 54.9091 30.8386 54.6278 30.5573C54.3465 30.276 53.9649 30.1179 53.5671 30.1179ZM7.06711 5.61792C7.06711 4.95488 7.3305 4.31899 7.79934 3.85015C8.26818 3.38131 8.90407 3.11792 9.56711 3.11792H45.5671C46.2301 3.11792 46.866 3.38131 47.3349 3.85015C47.8037 4.31899 48.0671 4.95488 48.0671 5.61792V30.1179H7.06711V5.61792ZM52.0671 35.6179C52.0671 36.281 51.8037 36.9168 51.3349 37.3857C50.866 37.8545 50.2301 38.1179 49.5671 38.1179H5.56711C4.90407 38.1179 4.26818 37.8545 3.79934 37.3857C3.3305 36.9168 3.06711 36.281 3.06711 35.6179V33.1179H52.0671V35.6179ZM33.0671 9.61792C33.0671 10.0157 32.9091 10.3973 32.6278 10.6786C32.3465 10.9599 31.9649 11.1179 31.5671 11.1179H23.5671C23.1693 11.1179 22.7878 10.9599 22.5064 10.6786C22.2251 10.3973 22.0671 10.0157 22.0671 9.61792C22.0671 9.2201 22.2251 8.83856 22.5064 8.55726C22.7878 8.27596 23.1693 8.11792 23.5671 8.11792H31.5671C31.9649 8.11792 32.3465 8.27596 32.6278 8.55726C32.9091 8.83856 33.0671 9.2201 33.0671 9.61792Z" fill="#001C63"/>
</svg>
