<svg width="57" height="48" viewBox="0 0 57 48" fill="none" xmlns="http://www.w3.org/2000/svg">
<path d="M20.4591 8.03711C20.4591 5.94011 21.2921 3.929 22.7749 2.4462C24.2577 0.963399 26.2688 0.130371 28.3658 0.130371C30.4628 0.130371 32.4739 0.963399 33.9567 2.4462C35.4395 3.929 36.2726 5.94011 36.2726 8.03711C36.2726 10.1341 35.4395 12.1452 33.9567 13.628C32.4739 15.1108 30.4628 15.9438 28.3658 15.9438C26.2688 15.9438 24.2577 15.1108 22.7749 13.628C21.2921 12.1452 20.4591 10.1341 20.4591 8.03711ZM28.3658 4.0877C27.8472 4.0877 27.3336 4.18985 26.8545 4.38833C26.3753 4.5868 25.9399 4.87771 25.5732 5.24445C25.2064 5.61119 24.9155 6.04657 24.7171 6.52573C24.5186 7.0049 24.4164 7.51846 24.4164 8.03711C24.4164 8.55575 24.5186 9.06931 24.7171 9.54848C24.9155 10.0276 25.2064 10.463 25.5732 10.8298C25.9399 11.1965 26.3753 11.4874 26.8545 11.6859C27.3336 11.8844 27.8472 11.9865 28.3658 11.9865C29.4133 11.9865 30.4178 11.5704 31.1585 10.8298C31.8991 10.0891 32.3152 9.08455 32.3152 8.03711C32.3152 6.98966 31.8991 5.98511 31.1585 5.24445C30.4178 4.50379 29.4133 4.0877 28.3658 4.0877ZM40.2378 10.0158C40.2378 9.23624 40.3913 8.46435 40.6897 7.74416C40.988 7.02398 41.4252 6.3696 41.9764 5.81839C42.5276 5.26718 43.182 4.82994 43.9022 4.53163C44.6224 4.23332 45.3943 4.07978 46.1738 4.07978C46.9533 4.07978 47.7252 4.23332 48.4454 4.53163C49.1656 4.82994 49.82 5.26718 50.3712 5.81839C50.9224 6.3696 51.3596 7.02398 51.6579 7.74416C51.9562 8.46435 52.1098 9.23624 52.1098 10.0158C52.1098 11.5901 51.4844 13.0999 50.3712 14.2131C49.258 15.3264 47.7481 15.9518 46.1738 15.9518C44.5995 15.9518 43.0896 15.3264 41.9764 14.2131C40.8632 13.0999 40.2378 11.5901 40.2378 10.0158ZM46.1738 8.03711C45.649 8.03711 45.1457 8.24557 44.7747 8.61664C44.4036 8.98771 44.1951 9.49099 44.1951 10.0158C44.1951 10.5405 44.4036 11.0438 44.7747 11.4149C45.1457 11.786 45.649 11.9944 46.1738 11.9944C46.6986 11.9944 47.2019 11.786 47.5729 11.4149C47.944 11.0438 48.1525 10.5405 48.1525 10.0158C48.1525 9.49099 47.944 8.98771 47.5729 8.61664C47.2019 8.24557 46.6986 8.03711 46.1738 8.03711ZM10.5579 4.07978C8.98355 4.07978 7.47371 4.70518 6.36049 5.81839C5.24728 6.9316 4.62188 8.44145 4.62188 10.0158C4.62188 11.5901 5.24728 13.0999 6.36049 14.2131C7.47371 15.3264 8.98355 15.9518 10.5579 15.9518C12.1322 15.9518 13.642 15.3264 14.7552 14.2131C15.8685 13.0999 16.4939 11.5901 16.4939 10.0158C16.4939 8.44145 15.8685 6.9316 14.7552 5.81839C13.642 4.70518 12.1322 4.07978 10.5579 4.07978ZM8.57921 10.0158C8.57921 9.49099 8.78767 8.98771 9.15875 8.61664C9.52982 8.24557 10.0331 8.03711 10.5579 8.03711C11.0826 8.03711 11.5859 8.24557 11.957 8.61664C12.3281 8.98771 12.5365 9.49099 12.5365 10.0158C12.5365 10.5405 12.3281 11.0438 11.957 11.4149C11.5859 11.786 11.0826 11.9944 10.5579 11.9944C10.0331 11.9944 9.52982 11.786 9.15875 11.4149C8.78767 11.0438 8.57921 10.5405 8.57921 10.0158ZM13.5971 19.9091C12.9024 21.1122 12.5366 22.4771 12.5365 23.8664H4.62188V33.7597C4.62156 34.744 4.86603 35.713 5.33328 36.5794C5.80053 37.4457 6.47589 38.1823 7.29857 38.7228C8.12125 39.2633 9.06542 39.5907 10.0461 39.6755C11.0268 39.7604 12.0131 39.6001 12.9164 39.209C13.2093 40.5188 13.6683 41.7693 14.2619 42.9368C12.76 43.5432 11.1321 43.7716 9.52128 43.6019C7.91044 43.4322 6.36591 42.8695 5.02332 41.9634C3.68074 41.0573 2.58117 39.8354 1.82118 38.405C1.06119 36.9746 0.66402 35.3795 0.664559 33.7597V23.8664C0.664559 22.8169 1.08149 21.8103 1.82363 21.0682C2.56577 20.326 3.57234 19.9091 4.62188 19.9091H13.5971ZM42.4697 42.9368C43.9717 43.5432 45.5996 43.7716 47.2104 43.6019C48.8212 43.4322 50.3658 42.8695 51.7083 41.9634C53.0509 41.0573 54.1505 39.8354 54.9105 38.405C55.6705 36.9746 56.0676 35.3795 56.0671 33.7597V23.8664C56.0671 22.8169 55.6502 21.8103 54.908 21.0682C54.1659 20.326 53.1593 19.9091 52.1098 19.9091H43.1346C43.8073 21.0725 44.1951 22.422 44.1951 23.8664H52.1098V33.7597C52.1101 34.744 51.8656 35.713 51.3984 36.5794C50.9311 37.4457 50.2558 38.1823 49.4331 38.7228C48.6104 39.2633 47.6662 39.5907 46.6856 39.6755C45.7049 39.7604 44.7185 39.6001 43.8152 39.209C43.5145 40.5228 43.066 41.7654 42.4697 42.9368ZM20.4512 19.9051C19.4016 19.9051 18.3951 20.3221 17.6529 21.0642C16.9108 21.8063 16.4939 22.8129 16.4939 23.8624V35.7384C16.4939 38.887 17.7447 41.9067 19.9711 44.1331C22.1975 46.3596 25.2172 47.6104 28.3658 47.6104C31.5145 47.6104 34.5342 46.3596 36.7606 44.1331C38.987 41.9067 40.2378 38.887 40.2378 35.7384V23.8664C40.2378 22.8169 39.8209 21.8103 39.0787 21.0682C38.3366 20.326 37.33 19.9091 36.2805 19.9091L20.4512 19.9051ZM20.4512 23.8624H36.2805V35.7384C36.2805 37.8375 35.4466 39.8506 33.9623 41.3349C32.478 42.8192 30.4649 43.653 28.3658 43.653C26.2667 43.653 24.2536 42.8192 22.7693 41.3349C21.285 39.8506 20.4512 37.8375 20.4512 35.7384V23.8624Z" fill="#001C63"/>
</svg>
