<svg width="44" height="44" viewBox="0 0 44 44" fill="none" xmlns="http://www.w3.org/2000/svg">
<g clip-path="url(#clip0_96_38508)">
<path d="M39.9444 3.46875H3.97373C1.99148 3.46875 0.378906 5.08144 0.378906 7.06368V30.5075C0.378906 32.4898 1.99148 34.1024 3.97373 34.1024H15.5636L13.3638 38.9531C13.1367 39.4541 13.1794 40.0361 13.4774 40.4984C13.7754 40.9607 14.2878 41.24 14.8377 41.24H29.0802C29.0808 41.24 29.0817 41.24 29.0824 41.24C29.9763 41.24 30.7009 40.5154 30.7009 39.6215C30.7009 39.3525 30.6356 39.0984 30.5189 38.8752L28.3542 34.1024H39.9441C41.9263 34.1024 43.5389 32.4898 43.5389 30.5075V7.06368C43.5392 5.08144 41.9267 3.46875 39.9444 3.46875ZM40.3022 30.5076C40.3022 30.705 40.1416 30.8654 39.9444 30.8654H25.8433H18.0749H3.97373C3.77649 30.8654 3.61593 30.705 3.61593 30.5076V7.06368C3.61593 6.86633 3.77649 6.70577 3.97373 6.70577H39.9443C40.1415 6.70577 40.3021 6.86633 40.3021 7.06368L40.3022 30.5076Z" fill="#029894"/>
<path d="M34.975 8.25586C33.2272 8.25586 31.8055 9.67778 31.8055 11.4256C31.8055 11.5869 31.8178 11.7454 31.8411 11.9003L24.438 16.2198C23.8607 15.6183 23.05 15.2425 22.1522 15.2425C21.0323 15.2425 20.0468 15.8269 19.4831 16.7061L12.0997 13.8164C12.1085 13.7205 12.1136 13.6236 12.1136 13.5255C12.1136 11.7777 10.6919 10.3557 8.94411 10.3557C7.19633 10.3557 5.77441 11.7777 5.77441 13.5255C5.77441 15.2733 7.19633 16.6951 8.94411 16.6951C9.82156 16.6951 10.6167 16.3364 11.1914 15.7584L19.0095 18.8184C19.2096 20.3748 20.5422 21.5818 22.1522 21.5818C23.9 21.5818 25.3219 20.1599 25.3219 18.4122C25.3219 18.3363 25.3179 18.2611 25.3129 18.1865L32.8592 13.7833C33.4207 14.2876 34.1623 14.5952 34.9747 14.5952C36.7225 14.5952 38.1444 13.1733 38.1444 11.4256C38.1446 9.67778 36.7227 8.25586 34.975 8.25586ZM8.94411 14.5556C8.37601 14.5556 7.91398 14.0935 7.91398 13.5255C7.91398 12.9574 8.37601 12.4953 8.94411 12.4953C9.51188 12.4953 9.97413 12.9574 9.97413 13.5255C9.97413 14.0935 9.51188 14.5556 8.94411 14.5556ZM22.1522 19.4423C21.584 19.4423 21.1221 18.9802 21.1221 18.4122C21.1221 17.8441 21.584 17.3821 22.1522 17.3821C22.7205 17.3821 23.1824 17.8442 23.1824 18.4122C23.1824 18.9802 22.7205 19.4423 22.1522 19.4423ZM34.975 12.4557C34.4071 12.4557 33.9447 11.9935 33.9447 11.4256C33.9447 10.8576 34.4071 10.3953 34.975 10.3953C35.543 10.3953 36.0051 10.8576 36.0051 11.4256C36.0051 11.9935 35.543 12.4557 34.975 12.4557Z" fill="#029894"/>
<path d="M32.7938 15.791L26.4857 19.4716C26.2678 21.5111 24.6374 23.134 22.5947 23.3411V28.9167H37.1495V15.7935C36.5088 16.164 35.7666 16.3772 34.9749 16.3772C34.2029 16.3771 33.4526 16.1726 32.7938 15.791Z" fill="#029894"/>
<path d="M17.9867 20.2878L11.4075 17.7129C10.6871 18.2096 9.83563 18.4767 8.94308 18.4767C8.1513 18.4767 7.40905 18.2635 6.76855 17.8932V28.9163H21.3232V23.2831C19.7518 22.9778 18.4592 21.8213 17.9867 20.2878Z" fill="#029894"/>
</g>
<defs>
<clipPath id="clip0_96_38508">
<rect width="43.16" height="43.16" fill="white" transform="translate(0.378906 0.773438)"/>
</clipPath>
</defs>
</svg>
