<svg width="44" height="44" viewBox="0 0 44 44" fill="none" xmlns="http://www.w3.org/2000/svg">
<g clip-path="url(#clip0_96_38530)">
<path d="M20.8055 11.4648C19.8906 11.4648 19.0462 11.9381 18.428 12.7976C18.0167 13.3693 17.7403 14.0718 17.6189 14.8314H8.35047C7.86071 14.8314 7.46387 15.2284 7.46387 15.718C7.46387 16.1995 7.84811 16.5908 8.32673 16.6032V18.9981C8.32673 19.4877 8.72369 19.8846 9.21322 19.8846C9.70297 19.8847 10.0997 19.4876 10.0997 18.998V16.6045H11.2818L11.2817 18.9981C11.2818 19.4877 11.6787 19.8847 12.1684 19.8847C12.6581 19.8847 13.055 19.4876 13.055 18.998V16.6045H17.6191C17.7407 17.3641 18.017 18.0665 18.4282 18.6384C19.0462 19.4978 19.8907 19.9712 20.8057 19.9711C21.7208 19.9711 22.5649 19.4978 23.1829 18.6384C23.7508 17.8494 24.0631 16.8122 24.0631 15.7179C24.0631 14.6237 23.7506 13.5865 23.1829 12.7975C22.5647 11.9381 21.7204 11.4647 20.8055 11.4648ZM20.8055 18.3129C19.8927 18.3129 19.1213 17.1245 19.1213 15.7179C19.1213 14.3117 19.8925 13.1232 20.8055 13.1232C21.7187 13.1232 22.4899 14.3117 22.4897 15.718C22.4897 17.1245 21.7186 18.3129 20.8055 18.3129Z" fill="#029894"/>
<path d="M42.271 36.0364L34.7679 28.5332C33.9397 27.7053 32.8752 27.2587 31.7919 27.1906L29.2434 24.6422C33.0298 18.6225 32.3053 10.5569 27.0689 5.32028C20.9906 -0.758023 11.1006 -0.757909 5.0225 5.32028C-1.0557 11.3985 -1.0557 21.2885 5.02261 27.3667C10.259 32.6032 18.3243 33.3273 24.3443 29.5413L26.8927 32.0898C26.961 33.1734 27.4075 34.2376 28.2353 35.0654L35.7386 42.5687C37.5426 44.3727 40.4672 44.3725 42.271 42.5687C44.0747 40.7653 44.075 37.8406 42.271 36.0364ZM23.8024 24.1004C19.5254 28.3776 12.5656 28.3776 8.2887 24.1004C4.01119 19.823 4.0113 12.8634 8.28858 8.58626C12.5655 4.30897 19.525 4.30897 23.8024 8.58648C28.0797 12.8639 28.0798 19.8233 23.8024 24.1004Z" fill="#029894"/>
</g>
<defs>
<clipPath id="clip0_96_38530">
<rect width="43.16" height="43.16" fill="white" transform="translate(0.463867 0.761719)"/>
</clipPath>
</defs>
</svg>
