<svg width="44" height="44" viewBox="0 0 44 44" fill="none" xmlns="http://www.w3.org/2000/svg">
<g clip-path="url(#clip0_96_38561)">
<path d="M5.38695 29.2839H38.1049C39.3534 29.2839 40.3659 28.2708 40.3659 27.0224V7.76977C40.3659 6.52242 39.3534 5.50977 38.1049 5.50977H5.38695C4.13852 5.50977 3.12695 6.52234 3.12695 7.76977V27.0223C3.12704 28.2708 4.13852 29.2839 5.38695 29.2839ZM6.58312 8.54715H36.9088V25.7141H6.58312V8.54715Z" fill="#029894"/>
<path d="M42.9909 35.5567L38.9581 31.9768C38.6988 31.7473 38.3259 31.6172 37.9321 31.6172H5.55933C5.16617 31.6172 4.79265 31.7473 4.53394 31.9768L0.500506 35.5567C0.284453 35.7477 0.166016 35.9936 0.166016 36.2481V37.4955C0.166016 37.7868 0.470159 38.021 0.845786 38.021H42.6464C43.0231 38.021 43.3261 37.7868 43.3261 37.4955V36.2481C43.326 35.9936 43.207 35.7477 42.9909 35.5567ZM17.1212 35.9792L18.2886 34.4011H25.6842L26.8499 35.9792H17.1212Z" fill="#029894"/>
<path d="M16.1101 17.1258L15.7356 17.0724C14.7768 16.9386 14.4333 16.6046 14.4333 16.1153C14.4333 15.5636 14.8287 15.1677 15.5478 15.1677C16.1411 15.1677 16.6725 15.3443 17.2455 15.7194L17.3911 15.6879L17.8915 14.9169L17.8702 14.7719C17.3078 14.3446 16.4639 14.0645 15.5793 14.0645C14.1212 14.0645 13.1838 14.9169 13.1838 16.199C13.1838 17.3755 13.9542 18.0316 15.3184 18.2189L15.694 18.2712C16.6725 18.4062 16.9846 18.7391 16.9846 19.2496C16.9846 19.8424 16.4953 20.2703 15.6518 20.2703C14.8601 20.2703 14.1831 19.8851 13.7253 19.5212L13.5796 19.5309L12.9336 20.281L12.9543 20.4379C13.5066 20.958 14.517 21.3737 15.5579 21.3737C17.3191 21.3737 18.2249 20.4379 18.2249 19.1777C18.225 17.958 17.4743 17.3119 16.1101 17.1258Z" fill="#029894"/>
<path d="M19.5484 14.178L19.4443 14.2819V21.1569L19.5484 21.2609H23.9846L24.0892 21.1569V20.2611L23.9846 20.1571H20.736L20.6736 20.0936V18.3025L20.736 18.2402H23.4752L23.5797 18.1361V17.2403L23.4752 17.1363H20.736L20.6736 17.0727V15.3447L20.736 15.2824H23.9846L24.0892 15.1777V14.2819L23.9846 14.178H19.5484Z" fill="#029894"/>
<path d="M27.8607 14.0645C26.6416 14.0645 25.7256 14.6465 25.3607 15.7711C25.215 16.2086 25.1729 16.6045 25.1729 17.719C25.1729 18.8335 25.215 19.2294 25.3607 19.6669C25.7256 20.7916 26.6416 21.3736 27.8607 21.3736C29.0895 21.3736 30.0049 20.7915 30.3699 19.6669C30.5161 19.2294 30.5582 18.8335 30.5582 17.719C30.5582 16.6045 30.5161 16.2086 30.3699 15.7711C30.005 14.6465 29.0895 14.0645 27.8607 14.0645ZM29.1829 19.343C28.9849 19.9171 28.5688 20.2703 27.8608 20.2703C27.1625 20.2703 26.7463 19.9171 26.5478 19.343C26.4651 19.0826 26.423 18.7182 26.423 17.719C26.423 16.7085 26.4651 16.3553 26.5478 16.0939C26.7463 15.5209 27.1624 15.1677 27.8608 15.1677C28.5688 15.1677 28.9849 15.5209 29.1829 16.0939C29.2655 16.3553 29.3088 16.7085 29.3088 17.719C29.3088 18.7183 29.2655 19.0826 29.1829 19.343Z" fill="#029894"/>
</g>
<defs>
<clipPath id="clip0_96_38561">
<rect width="43.16" height="43.16" fill="white" transform="translate(0.166016 0.185547)"/>
</clipPath>
</defs>
</svg>
