<svg width="44" height="44" viewBox="0 0 44 44" fill="none" xmlns="http://www.w3.org/2000/svg">
<g clip-path="url(#clip0_96_38586)">
<path d="M37.319 33.5562C40.0844 30.0848 41.7461 25.6801 41.7448 20.9017C41.7461 15.2971 39.4664 10.2019 35.7928 6.53211C32.122 2.85786 27.0268 0.57873 21.4225 0.580079C15.818 0.57873 10.7232 2.85786 7.0527 6.53211C3.37871 10.2019 1.09932 15.2971 1.10059 20.9017C1.09932 26.5056 3.37871 31.6008 7.0527 35.2713C10.7232 38.9455 15.8181 41.2247 21.4226 41.2233C25.7174 41.2247 29.71 39.8821 32.995 37.6036L39.1324 43.7401L43.318 39.5545L37.319 33.5562ZM32.5363 32.0157C29.6849 34.8627 25.7701 36.6176 21.4225 36.6188C17.075 36.6176 13.1602 34.8627 10.3084 32.0157C7.46053 29.1636 5.70623 25.2491 5.70497 20.9017C5.70623 16.5542 7.46053 12.6397 10.3084 9.78766C13.1602 6.94011 17.075 5.18581 21.4225 5.18454C25.7701 5.18581 29.6848 6.94011 32.5363 9.78766C35.3848 12.6397 37.1391 16.5543 37.1404 20.9017C37.1391 25.2492 35.3848 29.1636 32.5363 32.0157Z" fill="#029894"/>
<path d="M13.7732 20.3981L13.2931 20.3314C12.0659 20.1579 11.6255 19.7314 11.6255 19.1044C11.6255 18.3973 12.1323 17.8904 13.0528 17.8904C13.813 17.8904 14.4933 18.1172 15.2272 18.5976C15.2937 18.6375 15.3606 18.624 15.4138 18.5572L16.0542 17.5706C16.1076 17.4902 16.0941 17.437 16.0273 17.3836C15.3072 16.837 14.2268 16.4766 13.093 16.4766C11.2253 16.4766 10.0247 17.5705 10.0247 19.2112C10.0247 20.7181 11.012 21.559 12.7593 21.7986L13.2395 21.8653C14.4934 22.0388 14.8935 22.4659 14.8935 23.1192C14.8935 23.8798 14.2666 24.4264 13.1861 24.4264C12.1725 24.4264 11.3053 23.9331 10.7185 23.4661C10.6652 23.4128 10.5852 23.4128 10.5319 23.4796L9.70482 24.4399C9.65155 24.5067 9.67818 24.5863 9.73146 24.6404C10.4384 25.3071 11.7321 25.8403 13.0663 25.8403C15.3203 25.8403 16.4811 24.6404 16.4811 23.0261C16.4811 21.4651 15.5204 20.6385 13.7732 20.3981Z" fill="#029894"/>
<path d="M23.8585 16.623H18.1762C18.0962 16.623 18.043 16.6763 18.043 16.7567V25.5602C18.043 25.6405 18.0962 25.6938 18.1762 25.6938H23.8585C23.9389 25.6938 23.9921 25.6405 23.9921 25.5602V24.4136C23.9921 24.3333 23.9389 24.28 23.8585 24.28H19.697L19.617 24.1996V21.9058L19.697 21.8255H23.2049C23.2852 21.8255 23.3386 21.7722 23.3386 21.6918V20.5446C23.3386 20.465 23.2852 20.4117 23.2049 20.4117H19.697L19.617 20.3314V18.1172L19.697 18.0375H23.8585C23.9389 18.0375 23.9921 17.9836 23.9921 17.9039V16.7567C23.9921 16.6763 23.9389 16.623 23.8585 16.623Z" fill="#029894"/>
<path d="M28.8223 16.4766C27.2616 16.4766 26.0878 17.2237 25.6211 18.6644C25.4341 19.2246 25.3809 19.7314 25.3809 21.1587C25.3809 22.586 25.4341 23.0928 25.6211 23.6529C26.0878 25.0937 27.2617 25.8402 28.8223 25.8402C30.3967 25.8402 31.5696 25.0937 32.0373 23.6529C32.2236 23.0928 32.2775 22.586 32.2775 21.1587C32.2775 19.7313 32.2236 19.2246 32.0373 18.6644C31.5696 17.2237 30.3966 16.4766 28.8223 16.4766ZM30.5161 23.2394C30.263 23.9729 29.7299 24.4264 28.8222 24.4264C27.9286 24.4264 27.3949 23.9729 27.1415 23.2394C27.0348 22.906 26.9815 22.439 26.9815 21.1587C26.9815 19.8644 27.0348 19.4109 27.1415 19.0775C27.395 18.3439 27.9287 17.8904 28.8222 17.8904C29.7299 17.8904 30.263 18.3439 30.5161 19.0775C30.6228 19.4109 30.6766 19.8644 30.6766 21.1587C30.6767 22.439 30.6228 22.9059 30.5161 23.2394Z" fill="#029894"/>
</g>
<defs>
<clipPath id="clip0_96_38586">
<rect width="43.16" height="43.16" fill="white" transform="translate(0.628906 0.580078)"/>
</clipPath>
</defs>
</svg>
