<svg width="44" height="44" viewBox="0 0 44 44" fill="none" xmlns="http://www.w3.org/2000/svg">
<path fill-rule="evenodd" clip-rule="evenodd" d="M6.02344 11.3696C6.02344 9.93877 6.59184 8.56653 7.6036 7.55477C8.61536 6.54301 9.98759 5.97461 11.4184 5.97461H32.9984C34.4293 5.97461 35.8015 6.54301 36.8133 7.55477C37.825 8.56653 38.3934 9.93877 38.3934 11.3696V32.9496C38.3934 34.3805 37.825 35.7527 36.8133 36.7645C35.8015 37.7762 34.4293 38.3446 32.9984 38.3446H11.4184C9.98759 38.3446 8.61536 37.7762 7.6036 36.7645C6.59184 35.7527 6.02344 34.3805 6.02344 32.9496V11.3696ZM24.0068 14.9663C24.0068 14.4893 23.8173 14.0319 23.4801 13.6947C23.1428 13.3574 22.6854 13.1679 22.2084 13.1679C21.7315 13.1679 21.2741 13.3574 20.9368 13.6947C20.5996 14.0319 20.4101 14.4893 20.4101 14.9663V29.3529C20.4101 29.8299 20.5996 30.2873 20.9368 30.6246C21.2741 30.9618 21.7315 31.1513 22.2084 31.1513C22.6854 31.1513 23.1428 30.9618 23.4801 30.6246C23.8173 30.2873 24.0068 29.8299 24.0068 29.3529V14.9663ZM16.8134 20.3613C16.8134 19.8843 16.624 19.4269 16.2867 19.0897C15.9495 18.7524 15.4921 18.5629 15.0151 18.5629C14.5382 18.5629 14.0807 18.7524 13.7435 19.0897C13.4062 19.4269 13.2168 19.8843 13.2168 20.3613V29.3529C13.2168 29.8299 13.4062 30.2873 13.7435 30.6246C14.0807 30.9618 14.5382 31.1513 15.0151 31.1513C15.4921 31.1513 15.9495 30.9618 16.2867 30.6246C16.624 30.2873 16.8134 29.8299 16.8134 29.3529V20.3613ZM31.2001 25.7563C31.2001 25.2793 31.0106 24.8219 30.6734 24.4847C30.3361 24.1474 29.8787 23.9579 29.4018 23.9579C28.9248 23.9579 28.4674 24.1474 28.1302 24.4847C27.7929 24.8219 27.6034 25.2793 27.6034 25.7563V29.3529C27.6034 29.8299 27.7929 30.2873 28.1302 30.6246C28.4674 30.9618 28.9248 31.1513 29.4018 31.1513C29.8787 31.1513 30.3361 30.9618 30.6734 30.6246C31.0106 30.2873 31.2001 29.8299 31.2001 29.3529V25.7563Z" fill="#029894"/>
</svg>
