<svg width="50" height="44" viewBox="0 0 50 44" fill="none" xmlns="http://www.w3.org/2000/svg">
<g clip-path="url(#clip0_110_58326)">
<path fill-rule="evenodd" clip-rule="evenodd" d="M3.35574 0.812622H46.2012C48.0489 0.812622 49.5569 2.32062 49.5569 4.16836V40.6169C49.5569 42.4598 48.0489 43.9726 46.2012 43.9726H3.35574C1.50897 43.9726 0 42.4636 0 40.6169V4.16836C0 2.32062 1.50897 0.812622 3.35574 0.812622ZM6.74051 12.0171H42.8164C43.7291 12.0171 44.4744 12.7663 44.4744 13.6752V31.293C44.4744 32.2019 43.7243 32.951 42.8164 32.951H6.74051C5.83165 32.951 5.08152 32.2038 5.08152 31.293V13.6752C5.08152 12.7644 5.82778 12.0171 6.74051 12.0171ZM24.7775 14.675C29.0905 14.675 32.5866 18.1711 32.5866 22.4841C32.5866 26.7971 29.0905 30.2932 24.7775 30.2932C20.4655 30.2932 16.9694 26.7971 16.9694 22.4841C16.9694 18.1711 20.4655 14.675 24.7775 14.675ZM24.339 18.1924V16.1743C23.646 16.7909 22.9849 17.4616 22.4119 18.1924H24.339ZM30.8076 25.894C31.3254 24.9648 31.6293 23.9872 31.6874 22.9196H29.7767C29.7235 23.9737 29.4002 24.9697 28.8959 25.8931L30.8076 25.894ZM30.2268 26.7758H28.351C27.6996 27.7127 26.8846 28.5471 26.0261 29.2953C27.6919 28.9904 29.1718 28.1009 30.2268 26.7758ZM23.5337 29.2933C22.6742 28.549 21.8612 27.7098 21.2098 26.7758H19.3388C20.4064 28.1173 21.8728 28.9865 23.5337 29.2933ZM18.7484 25.8979H20.66C20.1586 24.9784 19.8315 23.9747 19.7792 22.9235H17.8695C17.9353 24.0066 18.2247 24.9542 18.7484 25.8979ZM17.8676 22.0456H19.7976C19.8905 20.9896 20.2525 19.9917 20.7684 19.0712H18.7484C18.2286 20.0043 17.9257 20.9848 17.8676 22.0456ZM19.3301 18.1924H21.325C21.9773 17.2632 22.7662 16.4221 23.6024 15.6574C21.8999 15.9536 20.4083 16.8431 19.3301 18.1924ZM25.9603 15.6632C26.7975 16.426 27.5835 17.2632 28.231 18.1924H30.222C29.1524 16.8528 27.6522 15.9536 25.9603 15.6632ZM30.8066 19.0712H28.7875C29.3025 19.9888 29.6654 20.9925 29.7583 22.0456H31.6864C31.6148 20.9645 31.338 20.0121 30.8066 19.0712ZM25.2169 16.1743V18.1924H27.144C26.571 17.4616 25.9109 16.7909 25.2169 16.1743ZM25.2169 19.0712V22.0456H28.8785C28.7672 20.9751 28.3394 19.9733 27.7664 19.0712H25.2169ZM25.2169 22.9235V25.8979H27.8816C28.4497 24.99 28.833 23.9998 28.8979 22.9235H25.2169ZM25.2169 26.7758V28.8316C25.9554 28.2093 26.6552 27.5317 27.2573 26.7758H25.2169ZM24.339 28.8316V26.7758H22.2977C22.8959 27.5317 23.6005 28.2131 24.339 28.8316ZM24.339 25.8979V22.9235H20.6581C20.7239 23.9998 21.1081 24.9881 21.6744 25.8979H24.339ZM24.339 22.0456V19.0712H21.7886C21.2156 19.9733 20.7887 20.9751 20.6774 22.0456H24.339ZM47.5766 8.91885H2.13327V40.944C2.13263 41.066 2.15617 41.1869 2.20255 41.2996C2.24892 41.4124 2.31719 41.5149 2.40343 41.6011C2.48966 41.6874 2.59213 41.7556 2.70492 41.802C2.81771 41.8484 2.93858 41.8719 3.06053 41.8713H46.6329C47.1488 41.8713 47.5611 41.4561 47.5611 40.9431V8.91885H47.5766ZM43.0071 3.72409C43.9227 3.72409 44.6651 4.46648 44.6651 5.38212C44.6651 6.29776 43.9227 7.03918 43.0071 7.03918C42.0924 7.03918 41.35 6.29776 41.35 5.38212C41.35 4.46648 42.0963 3.72409 43.0071 3.72409ZM31.7793 3.72409C32.695 3.72409 33.4374 4.46648 33.4374 5.38212C33.4374 6.29776 32.695 7.03918 31.7793 7.03918C30.8637 7.03918 30.1223 6.29776 30.1223 5.38212C30.1223 4.46648 30.8637 3.72409 31.7793 3.72409ZM37.3932 3.72409C38.3088 3.72409 39.0512 4.46648 39.0512 5.38212C39.0512 6.29776 38.3088 7.03918 37.3932 7.03918C36.4785 7.03918 35.7361 6.29776 35.7361 5.38212C35.7361 4.46648 36.4785 3.72409 37.3932 3.72409ZM26.9688 38.652C26.2506 38.652 25.6699 38.019 25.6699 37.2408C25.6699 36.4587 26.2506 35.8296 26.9688 35.8296H42.9587C43.6769 35.8296 44.2576 36.4626 44.2576 37.2408C44.2576 38.019 43.6769 38.652 42.9587 38.652H26.9688ZM6.03297 38.652C5.3235 38.652 4.74662 38.019 4.74662 37.2408C4.74662 36.4587 5.3235 35.8296 6.03297 35.8296H20.8584C21.5679 35.8296 22.1448 36.4626 22.1448 37.2408C22.1448 38.019 21.5679 38.652 20.8584 38.652H6.03297Z" fill="#029894"/>
</g>
<defs>
<clipPath id="clip0_110_58326">
<rect width="49.5569" height="43.16" fill="white" transform="translate(0 0.812622)"/>
</clipPath>
</defs>
</svg>
