<svg width="53" height="44" viewBox="0 0 53 44" fill="none" xmlns="http://www.w3.org/2000/svg">
<g clip-path="url(#clip0_110_58363)">
<path fill-rule="evenodd" clip-rule="evenodd" d="M13.003 38.0003V22.5026H19.973C22.9283 23.0327 25.8836 24.6344 28.839 26.4955H34.2526C36.7039 26.6432 37.9866 29.1272 35.6063 30.7591C33.707 32.1509 31.2033 32.0725 28.6358 31.842C26.8658 31.7547 26.7882 34.135 28.6358 34.1426C29.2767 34.1921 29.9743 34.0422 30.5838 34.0414C33.7884 34.0385 36.4281 33.4257 38.0428 30.8943L38.8554 28.9992L46.9092 25.0063C50.9394 23.6791 53.8028 27.8953 50.8345 30.8263C45.0011 35.0702 39.0183 38.5632 32.8999 41.3833C28.4557 44.0864 24.0121 43.9949 19.568 41.3833L13.003 38.0003ZM43.3205 13.1657C43.2072 13.0876 43.0779 13.0528 42.9473 13.0788C42.8176 13.1049 42.7047 13.1741 42.6267 13.287L42.1847 13.9107C42.029 13.8415 41.864 13.7894 41.6903 13.7462C41.5173 13.703 41.3524 13.6681 41.1794 13.6421L41.0401 12.8274C41.0145 12.6885 40.9448 12.5844 40.8407 12.5067C40.7282 12.4287 40.6069 12.4026 40.4684 12.4287L39.4451 12.6108C39.3154 12.6369 39.2113 12.6977 39.1245 12.8102C39.0464 12.9231 39.012 13.0444 39.0376 13.1829L39.1681 13.9284C39.0031 13.998 38.8474 14.0757 38.7001 14.1714C38.5524 14.2578 38.4059 14.3619 38.2753 14.466L37.5819 13.9892C37.4695 13.9112 37.3482 13.8767 37.218 13.9028C37.0875 13.9288 36.9754 13.998 36.8974 14.1109L36.3081 14.9517C36.23 15.0642 36.1956 15.1943 36.2212 15.3244C36.2476 15.4633 36.3173 15.567 36.4294 15.6451L37.0531 16.087C36.9842 16.2432 36.9318 16.4077 36.8881 16.5811C36.8445 16.7544 36.8101 16.9189 36.784 17.0923L35.9702 17.2312C35.8308 17.2572 35.7276 17.3265 35.6487 17.4306C35.5706 17.5435 35.5454 17.6648 35.5706 17.8033L35.7528 18.8262C35.7792 18.9563 35.8396 19.06 35.953 19.1469C36.0655 19.2249 36.1868 19.2594 36.3253 19.2333L37.0703 19.1032C37.14 19.2677 37.218 19.4239 37.3129 19.5712C37.3998 19.7185 37.5039 19.8659 37.608 20.0044L37.1307 20.689C37.0527 20.8014 37.0182 20.9232 37.0447 21.0529C37.0703 21.183 37.14 21.2955 37.252 21.3735L38.1011 21.9716C38.2145 22.0497 38.3446 22.0753 38.4743 22.0497C38.6048 22.0237 38.7169 21.9633 38.8038 21.8503L39.2458 21.2178C39.4015 21.2871 39.5664 21.3391 39.7402 21.3823C39.9131 21.4256 40.0781 21.4604 40.251 21.4864L40.3904 22.3007C40.416 22.4396 40.4856 22.5433 40.5897 22.6214C40.7022 22.6999 40.8235 22.7255 40.962 22.6999L41.9853 22.5177C42.115 22.4917 42.2191 22.4313 42.306 22.3183C42.3841 22.2054 42.4185 22.0841 42.3929 21.9452L42.2624 21.2002C42.4273 21.1309 42.583 21.0529 42.7303 20.9576C42.8781 20.8707 43.0246 20.7666 43.1639 20.6629L43.8485 21.1397C43.961 21.2178 44.0823 21.2526 44.2208 21.2262C44.3602 21.2002 44.4634 21.1309 44.5423 21.0184L45.14 20.1689C45.2181 20.0564 45.2441 19.9263 45.2181 19.7962C45.1925 19.6661 45.132 19.5536 45.0187 19.4667L44.3858 19.0331C44.4554 18.877 44.5071 18.7124 44.5507 18.5391C44.5944 18.3657 44.6288 18.2012 44.6548 18.0279L45.4695 17.8889C45.608 17.8629 45.7121 17.7937 45.7902 17.6896C45.8683 17.5767 45.8943 17.4554 45.8682 17.3168L45.6861 16.294C45.6596 16.1638 45.5992 16.0598 45.4867 15.9733C45.3742 15.8952 45.2529 15.8604 45.1136 15.8864L44.3686 16.0165C44.2997 15.8604 44.2208 15.7042 44.126 15.5485C44.0391 15.3924 43.935 15.2539 43.8317 15.1242L44.3081 14.4308C44.3862 14.3179 44.4214 14.1966 44.395 14.0669C44.3686 13.9372 44.2997 13.8243 44.1868 13.7462L43.3465 13.1569L43.3205 13.1657ZM40.348 15.575C40.6162 15.5313 40.8848 15.5313 41.1538 15.5926C41.4137 15.6535 41.6483 15.7571 41.8644 15.9045C42.0726 16.0518 42.254 16.2428 42.4013 16.4677C42.5486 16.6927 42.6439 16.9445 42.6875 17.2132C42.7312 17.4818 42.7312 17.7504 42.6703 18.019C42.6095 18.2789 42.5054 18.5131 42.358 18.7297C42.2111 18.9378 42.0202 19.1196 41.7948 19.2669C41.5694 19.4142 41.3184 19.5095 41.0498 19.5532C40.7807 19.5964 40.5129 19.5964 40.2439 19.5355C39.9841 19.4747 39.7494 19.371 39.5333 19.2237C39.3251 19.0763 39.1429 18.8854 38.9956 18.6604C38.8487 18.435 38.753 18.1836 38.7093 17.915C38.6665 17.6463 38.6665 17.3777 38.7274 17.1091C38.7882 16.8493 38.8923 16.6151 39.0388 16.3985C39.1866 16.1903 39.3775 16.0085 39.6021 15.8612C39.8271 15.7135 40.0789 15.6182 40.348 15.575ZM32.478 3.42378C32.4344 3.38055 32.4 3.35452 32.3567 3.33689C32.3223 3.31969 32.2787 3.31087 32.2262 3.31087C32.1746 3.31087 32.1309 3.31969 32.0965 3.33689C32.0621 3.35452 32.0184 3.38055 31.9832 3.41496L31.9748 3.42378L30.9951 4.40301C30.805 4.59357 30.5015 4.61959 30.2845 4.46387C30.172 4.39461 30.0591 4.32494 29.9294 4.25568C29.7909 4.18643 29.6604 4.11675 29.5391 4.05631C29.4085 3.99545 29.27 3.93501 29.1315 3.88296C29.0102 3.83973 28.8717 3.78768 28.7067 3.73564C28.473 3.65757 28.3256 3.44099 28.3256 3.20678V1.70792C28.3256 1.65588 28.3168 1.60383 28.2992 1.56899C28.2816 1.53415 28.2555 1.49092 28.2211 1.4649C28.1867 1.43006 28.1514 1.40404 28.117 1.38683C28.0826 1.3692 28.0301 1.36039 27.9785 1.36039H26.0902C26.0381 1.36039 25.9949 1.3692 25.96 1.37801C25.9252 1.39564 25.882 1.42125 25.8387 1.4649C25.8039 1.49974 25.7779 1.53415 25.7691 1.56899C25.7518 1.60383 25.743 1.65588 25.743 1.70792V3.0859C25.743 3.36334 25.5437 3.58831 25.2838 3.64036C25.1365 3.6752 24.998 3.70961 24.8767 3.74445C24.7378 3.7881 24.6081 3.83134 24.4692 3.88296C24.339 3.93501 24.2005 3.98706 24.0704 4.05631C23.9315 4.11717 23.8102 4.18643 23.6889 4.24729C23.4635 4.36859 23.2037 4.32536 23.0303 4.15159L21.947 3.07708C21.939 3.06827 21.939 3.06827 21.939 3.05987C21.9042 3.02503 21.8693 2.99901 21.8349 2.9818C21.8001 2.96459 21.7657 2.96459 21.7136 2.96459C21.6616 2.96459 21.6183 2.97341 21.5835 2.99062C21.5399 3.00825 21.5054 3.03385 21.4622 3.0775L20.1447 4.40343C20.101 4.44666 20.075 4.4815 20.0578 4.52473C20.0402 4.55957 20.0318 4.6028 20.0318 4.65485C20.0318 4.70689 20.0406 4.75013 20.0578 4.78496C20.075 4.8198 20.101 4.86303 20.1359 4.89787V4.90668L21.1151 5.88591C21.3061 6.07689 21.3321 6.37994 21.176 6.59652C21.1067 6.70942 21.0374 6.82191 20.9682 6.95203C20.8985 7.09054 20.8293 7.22066 20.7688 7.34196C20.708 7.47207 20.6471 7.61058 20.5955 7.74952C20.5522 7.87082 20.5002 8.00933 20.4481 8.17428C20.3701 8.40807 20.1535 8.5554 19.9193 8.5554H18.42C18.368 8.5554 18.3159 8.56421 18.2815 8.58142C18.2467 8.59905 18.2122 8.62465 18.1774 8.6511C18.1426 8.68551 18.1165 8.72035 18.1081 8.75477C18.0909 8.78961 18.0821 8.84165 18.0821 8.8937V10.7829C18.0821 10.835 18.0909 10.8782 18.0998 10.913C18.117 10.9479 18.143 10.9911 18.1866 11.0343C18.2215 11.0692 18.2559 11.0952 18.2907 11.1036C18.3256 11.1212 18.3776 11.1296 18.4297 11.1296H19.8076C20.0851 11.1296 20.3105 11.329 20.3625 11.5892C20.3969 11.7365 20.4318 11.875 20.4666 11.9879C20.5098 12.1265 20.5535 12.2654 20.6051 12.4039C20.6572 12.534 20.7092 12.6725 20.7785 12.8115C20.8481 12.9588 20.9086 13.0889 20.9694 13.2102C21.0824 13.4356 21.0387 13.6954 20.8654 13.8604L19.7904 14.9265L19.7816 14.9353C19.7468 14.9701 19.7207 15.0045 19.7035 15.0394C19.6863 15.0742 19.6863 15.1091 19.6863 15.1607C19.6863 15.2127 19.6951 15.256 19.7124 15.2908C19.7296 15.334 19.7556 15.3777 19.7988 15.4121L21.1075 16.7385C21.1424 16.7733 21.1856 16.7993 21.2288 16.8165C21.2725 16.8342 21.3157 16.8425 21.3678 16.8425C21.4198 16.8425 21.4719 16.8337 21.5151 16.8165C21.5495 16.7993 21.5932 16.7733 21.628 16.7473L22.5988 15.7592C22.7894 15.5599 23.0929 15.5426 23.3094 15.69C23.4223 15.7592 23.5344 15.8289 23.6645 15.8982C23.8035 15.9674 23.9332 16.0367 24.0545 16.0975C24.1846 16.1584 24.3231 16.2188 24.462 16.2709C24.5833 16.3141 24.7223 16.3662 24.8868 16.4182C25.121 16.4963 25.2683 16.7129 25.2683 16.9471V18.4463C25.2683 18.4984 25.2771 18.5504 25.2943 18.5853C25.3116 18.6201 25.3376 18.6633 25.3636 18.6894C25.4329 18.7586 25.5109 18.7846 25.615 18.7846H27.5046C27.5563 18.7846 27.5999 18.7758 27.6343 18.767C27.6688 18.7498 27.7124 18.7238 27.7556 18.6805C27.7901 18.6457 27.8165 18.6109 27.8253 18.5765C27.8425 18.5416 27.8518 18.4896 27.8518 18.4375V17.0595C27.8518 16.7821 28.0511 16.5567 28.3109 16.5047C28.4578 16.4698 28.5972 16.4354 28.7185 16.4006C28.857 16.3569 28.9867 16.3137 29.1261 16.2616C29.2558 16.2096 29.3943 16.1575 29.5328 16.0883C29.6805 16.019 29.8106 15.9582 29.9319 15.8977C30.1573 15.7848 30.4171 15.8285 30.5821 16.0018L31.6478 17.0768L31.6566 17.0856C31.691 17.1204 31.7254 17.1464 31.7599 17.1636C31.7951 17.1813 31.8388 17.1813 31.8904 17.1813C31.9429 17.1813 31.9857 17.1725 32.0209 17.1552C32.0554 17.1376 32.0898 17.1116 32.125 17.0772C32.1334 17.0684 32.1422 17.06 32.1506 17.06L33.4682 15.7596C33.5034 15.7248 33.529 15.6816 33.5462 15.6383C33.5643 15.5951 33.5727 15.5515 33.5727 15.4998C33.5727 15.4478 33.5643 15.3957 33.5462 15.3525C33.529 15.3177 33.5034 15.2744 33.4774 15.2396L32.4894 14.2688C32.2891 14.0782 32.2719 13.7747 32.4197 13.5582C32.4894 13.4453 32.5582 13.3328 32.6279 13.2026C32.6967 13.0641 32.7664 12.934 32.8272 12.8127C32.8881 12.6826 32.9485 12.5441 33.0002 12.4052C33.0438 12.2839 33.0963 12.1453 33.1479 11.9804C33.226 11.7462 33.4421 11.5993 33.6768 11.5993H35.176C35.2285 11.5993 35.2801 11.5905 35.3146 11.5728C35.349 11.5556 35.3926 11.5296 35.4187 11.5036C35.4883 11.4343 35.5139 11.3563 35.5139 11.2522V9.36296C35.5139 9.31091 35.5055 9.26768 35.4967 9.23284C35.4795 9.19842 35.4531 9.15477 35.4098 9.11154C35.3754 9.07712 35.341 9.05068 35.3066 9.04228C35.2713 9.02507 35.2197 9.01626 35.1681 9.01626H33.7893C33.5122 9.01626 33.2784 8.80807 33.2352 8.54826C33.2008 8.42696 33.1655 8.29684 33.1311 8.16715C33.0875 8.03703 33.0442 7.8981 32.9834 7.75119C32.9834 7.74238 32.975 7.73357 32.975 7.72475C32.9225 7.58624 32.8709 7.46494 32.8184 7.34364C32.7576 7.21352 32.6971 7.0834 32.6283 6.9621C32.507 6.73671 32.5502 6.47689 32.7236 6.30355L33.7985 5.22022C33.7985 5.21141 33.8073 5.21141 33.8157 5.21141C33.8501 5.17699 33.8766 5.14215 33.8938 5.10732C33.911 5.07248 33.911 5.03806 33.911 4.98601C33.911 4.93355 33.9026 4.89032 33.8854 4.8559C33.8682 4.81225 33.8417 4.77783 33.7985 4.73459L32.4721 3.41706L32.478 3.42378ZM32.7903 2.30604C32.9725 2.38411 33.1282 2.4882 33.2667 2.62671L34.593 3.94424H34.6014C34.7399 4.08317 34.844 4.23889 34.9221 4.41224C35.001 4.59441 35.0354 4.77615 35.0354 4.97552C35.0354 5.17531 34.9918 5.36587 34.9221 5.53922C34.844 5.71257 34.7399 5.86829 34.5935 5.9984L33.8132 6.78707C33.822 6.8131 33.8396 6.83912 33.8476 6.86514C33.9173 7.01247 33.9781 7.16861 34.0386 7.31552C34.0386 7.32433 34.0474 7.33314 34.0474 7.34196C34.1083 7.48928 34.1599 7.65382 34.2123 7.82717L34.2296 7.88803H35.1828C35.3821 7.88803 35.5723 7.92286 35.746 8.00093C35.919 8.07019 36.0747 8.1831 36.214 8.32161L36.2224 8.33042C36.3609 8.46893 36.465 8.62507 36.5347 8.79842C36.6035 8.97177 36.6472 9.16233 36.6472 9.3533V11.2425C36.6472 11.6501 36.5087 11.9963 36.2224 12.2826C36.0839 12.4215 35.919 12.534 35.746 12.6033C35.5723 12.6725 35.3821 12.7074 35.1828 12.7074H34.0726C34.0642 12.7334 34.047 12.7682 34.0382 12.7943C33.9773 12.9504 33.9076 13.1061 33.8388 13.2622C33.7607 13.4268 33.691 13.5829 33.6134 13.7214L33.587 13.7735L34.2631 14.4409L34.2896 14.4669C34.4281 14.6058 34.5234 14.7703 34.593 14.9437C34.6619 15.117 34.6971 15.2992 34.6971 15.4986C34.6971 15.6891 34.6619 15.8713 34.593 16.0446C34.5234 16.218 34.4281 16.3741 34.2896 16.5215L34.2724 16.5387L32.946 17.8562C32.8075 18.0035 32.651 18.1076 32.478 18.1857C32.3051 18.2638 32.1141 18.2982 31.9059 18.2982C31.7066 18.2982 31.5164 18.2549 31.3338 18.1857C31.1517 18.1076 30.996 17.9951 30.8667 17.8562L30.0952 17.0763C30.0688 17.0935 30.0427 17.1024 30.0083 17.1112C29.8606 17.172 29.7049 17.2413 29.5403 17.3017C29.3846 17.3626 29.2197 17.4146 29.0551 17.4667C29.0287 17.4755 29.0115 17.4843 28.9854 17.4843V18.4287C28.9854 18.6281 28.951 18.8186 28.873 18.992C28.8033 19.1653 28.6908 19.3215 28.5523 19.46L28.5435 19.4688C28.405 19.6073 28.2492 19.7114 28.0755 19.7807C27.9025 19.8503 27.7116 19.8936 27.5214 19.8936H25.6318C25.2242 19.8936 24.878 19.7551 24.5917 19.4688C24.4532 19.3299 24.3403 19.1653 24.271 18.992C24.2018 18.8186 24.1669 18.6281 24.1669 18.4287V17.3168C24.1409 17.308 24.1061 17.2908 24.0801 17.282C23.9239 17.2211 23.7682 17.1519 23.6121 17.0826C23.4471 17.0046 23.2914 16.9353 23.1525 16.8572L23.1004 16.8312L22.433 17.5074L22.407 17.5334C22.2681 17.6724 22.1036 17.7676 21.9302 17.8369C21.7569 17.9061 21.5751 17.941 21.3757 17.941C21.1852 17.941 21.003 17.9061 20.8297 17.8369C20.6563 17.7672 20.5002 17.6719 20.3529 17.5334L20.3352 17.5162L19.0093 16.1727C18.8708 16.0337 18.7667 15.878 18.6886 15.7047C18.6106 15.5225 18.5761 15.3408 18.5761 15.1414C18.5761 14.942 18.6194 14.7515 18.6886 14.5781C18.7667 14.4048 18.8796 14.2486 19.0181 14.1101L19.798 13.3386C19.7808 13.3126 19.772 13.2866 19.7636 13.2518C19.7027 13.1044 19.6334 12.9483 19.5726 12.7838C19.5117 12.6188 19.4513 12.4631 19.408 12.2985L19.3904 12.2289H18.446C18.2462 12.2289 18.0557 12.1945 17.8823 12.1164C17.709 12.0471 17.5533 11.9342 17.4143 11.7957L17.4055 11.7869C17.267 11.6484 17.1629 11.4922 17.0937 11.3189C17.0244 11.1456 16.9808 10.955 16.9808 10.7644V8.87523C16.9808 8.67586 17.0156 8.4937 17.0848 8.31195C17.1541 8.13861 17.267 7.98289 17.4055 7.83514C17.5444 7.69663 17.709 7.58372 17.8823 7.51447C18.0557 7.44479 18.2462 7.41037 18.446 7.41037H19.5554C19.5642 7.38435 19.5814 7.34951 19.5902 7.32391C19.6511 7.16777 19.7203 7.01163 19.7896 6.85591C19.8677 6.69096 19.9369 6.53524 20.015 6.39631L20.041 6.34426L19.3736 5.66849C19.2347 5.52998 19.1222 5.37384 19.053 5.19168C18.9749 5.00952 18.9401 4.81896 18.9401 4.6284C18.9401 4.42861 18.9749 4.24687 19.053 4.06513C19.131 3.88296 19.2347 3.72682 19.3736 3.58831L20.6912 2.26239V2.25399C20.8301 2.11548 20.9858 2.01139 21.1592 1.93332C21.3413 1.85525 21.5231 1.82041 21.7224 1.82041C21.9222 1.82041 22.1128 1.86364 22.2857 1.93332C22.4591 2.01139 22.6152 2.11548 22.7453 2.26239L23.5336 3.04224C23.56 3.03343 23.586 3.01622 23.6033 3.00783C23.7506 2.93815 23.9067 2.87771 24.0713 2.80845C24.2274 2.74759 24.3919 2.69555 24.5565 2.64392C24.5825 2.63511 24.5997 2.62629 24.6257 2.62629V1.6819C24.6257 1.48253 24.6606 1.29197 24.7386 1.11862C24.8083 0.945273 24.9208 0.789553 25.0593 0.650622L25.0681 0.641808C25.207 0.503297 25.3628 0.399204 25.5361 0.329948C25.7095 0.260693 25.8996 0.217041 26.0902 0.217041H27.9794C28.1787 0.217041 28.3605 0.251879 28.5426 0.321134C28.7248 0.39039 28.8814 0.503297 29.0199 0.641808C29.1584 0.780319 29.2709 0.945273 29.3405 1.11862C29.4094 1.29197 29.4446 1.48253 29.4446 1.6819V2.79125C29.4702 2.80006 29.5055 2.81727 29.5307 2.82608C29.6872 2.88694 29.843 2.9562 29.9987 3.02545C30.1636 3.10352 30.3194 3.17278 30.4587 3.25085L30.5103 3.27687L31.1865 2.6095C31.325 2.47057 31.4807 2.35808 31.6629 2.28883C31.8451 2.21076 32.036 2.17592 32.2262 2.17592C32.4264 2.17592 32.6081 2.21076 32.7903 2.28883V2.30604ZM26.8008 5.81582C27.087 5.81582 27.3728 5.84226 27.6499 5.9027C27.9189 5.95475 28.1875 6.04121 28.4558 6.15412C28.7076 6.26703 28.9502 6.39673 29.1756 6.54405C29.401 6.69138 29.6092 6.86472 29.7993 7.05528C29.9903 7.24626 30.1632 7.45403 30.311 7.68823C30.4667 7.91363 30.5972 8.15581 30.7013 8.40723C30.7097 8.42486 30.7097 8.44207 30.7185 8.45046C30.8226 8.70188 30.9007 8.96212 30.9523 9.21311C31.0048 9.49056 31.0392 9.77639 31.0392 10.0622C31.0392 10.3481 31.0127 10.6343 30.9523 10.9118C30.9007 11.1804 30.8138 11.449 30.7013 11.7176C30.588 11.9691 30.4587 12.2117 30.311 12.4371C30.1552 12.6625 29.9903 12.8702 29.7993 13.0696C29.6092 13.2606 29.401 13.4339 29.1664 13.5812C28.9418 13.7374 28.6984 13.8671 28.4474 13.9712C28.4301 13.98 28.4129 13.98 28.4037 13.9884C28.1519 14.0925 27.8921 14.1705 27.6415 14.2226C27.3636 14.2746 27.0774 14.3095 26.7924 14.3095C26.5061 14.3095 26.2203 14.2835 25.9428 14.2226C25.6742 14.1705 25.4052 14.0837 25.1365 13.9712C24.8851 13.8583 24.6425 13.7282 24.4171 13.5812C24.1917 13.4339 23.9839 13.2606 23.7934 13.0696C23.6028 12.879 23.4295 12.6708 23.2817 12.4371C23.126 12.2117 22.9959 11.9691 22.8918 11.7176C22.883 11.7004 22.883 11.6828 22.8742 11.6744C22.7701 11.423 22.692 11.1632 22.6404 10.9118C22.5883 10.6343 22.5535 10.3485 22.5535 10.0622C22.5535 9.77597 22.5795 9.49014 22.6404 9.21311C22.6924 8.94449 22.7789 8.67586 22.8918 8.40723C23.0043 8.15581 23.1344 7.91321 23.2817 7.68823C23.4295 7.46284 23.6028 7.25465 23.7934 7.05528C23.9839 6.86472 24.1921 6.69138 24.4171 6.54405C24.6425 6.38791 24.8851 6.2578 25.1365 6.15412C25.1542 6.14531 25.1714 6.14531 25.1802 6.13649C25.4316 6.0324 25.6914 5.95475 25.9428 5.9027C26.2203 5.85066 26.5061 5.81582 26.7924 5.81582H26.8008ZM27.4337 6.99442C27.2343 6.95119 27.0173 6.93356 26.8008 6.93356C26.5842 6.93356 26.3764 6.95119 26.1682 6.99442C25.9688 7.03765 25.7871 7.0897 25.6138 7.15938C25.6049 7.16819 25.5961 7.16819 25.5789 7.17658C25.3795 7.26347 25.1974 7.35875 25.0329 7.47124C24.8683 7.58372 24.7122 7.70544 24.5737 7.84395C24.4347 7.98289 24.305 8.13861 24.2009 8.30356C24.088 8.46809 23.9928 8.65026 23.9063 8.84963C23.8278 9.03179 23.7674 9.23074 23.7241 9.43893C23.6809 9.6383 23.6633 9.85488 23.6633 10.0715C23.6633 10.288 23.6809 10.4958 23.7241 10.704C23.7678 10.9034 23.8198 11.0851 23.8887 11.2585C23.8975 11.2673 23.8975 11.2757 23.9063 11.2933C23.9928 11.4927 24.0885 11.6744 24.2009 11.8394C24.3134 12.0043 24.4347 12.16 24.5737 12.2985C24.7122 12.4375 24.8683 12.5672 25.0329 12.6713C25.1974 12.7842 25.3795 12.8795 25.5789 12.9659C25.7611 13.044 25.9605 13.1044 26.1682 13.1481C26.368 13.1917 26.5846 13.2089 26.8008 13.2089C27.0169 13.2089 27.2255 13.1917 27.4337 13.1481C27.6331 13.1044 27.8148 13.0528 27.9886 12.9835C27.997 12.9747 28.0058 12.9747 28.023 12.9659C28.2224 12.879 28.4041 12.7838 28.5691 12.6713C28.734 12.5588 28.8898 12.4375 29.0283 12.2985C29.1668 12.1596 29.2973 12.0039 29.4014 11.8394C29.5139 11.6744 29.6096 11.4927 29.6956 11.2933C29.7737 11.1111 29.8341 10.9118 29.8778 10.704C29.9214 10.5046 29.9387 10.288 29.9387 10.0715C29.9387 9.85488 29.9214 9.6467 29.8778 9.43893C29.8341 9.23956 29.7825 9.05739 29.7128 8.88405C29.7044 8.87523 29.7044 8.86684 29.6956 8.84921C29.6096 8.64984 29.5135 8.46767 29.4014 8.30314C29.2881 8.13819 29.1668 7.98247 29.0283 7.84354C28.8898 7.70502 28.734 7.57491 28.5691 7.47081C28.4041 7.35791 28.2224 7.26263 28.023 7.17616C27.8413 7.09893 27.6419 7.03765 27.4337 6.99442ZM0.482422 21.0134H10.9047V39.5567H0.482422V21.0134Z" fill="#029894"/>
</g>
<defs>
<clipPath id="clip0_110_58363">
<rect width="51.5764" height="43.16" fill="white" transform="translate(0.482422 0.217041)"/>
</clipPath>
</defs>
</svg>
