<svg width="44" height="45" viewBox="0 0 44 45" fill="none" xmlns="http://www.w3.org/2000/svg">
<g clip-path="url(#clip0_110_51464)">
<path d="M27.9735 38.5991H23.4174V34.6401H20.1234V38.5991H15.5674C14.6578 38.5991 13.9204 39.3366 13.9204 40.2461C13.9204 41.1557 14.6578 41.8931 15.5674 41.8931H27.9734C28.8829 41.8931 29.6204 41.1557 29.6204 40.2461C29.6204 39.3366 28.883 38.5991 27.9735 38.5991Z" fill="#029894"/>
<path d="M24.8447 29.1779H18.696H0.19043V31.1453C0.19043 31.8614 0.773005 32.444 1.48911 32.444H42.0518C42.7679 32.444 43.3504 31.8614 43.3504 31.1453V29.1779H24.8447Z" fill="#029894"/>
<path d="M42.0517 3.11658H1.48911C0.773005 3.11658 0.19043 3.69915 0.19043 4.41526V26.982H3.22756C3.4217 16.9218 11.6647 8.79751 21.7703 8.79751C25.2593 8.79751 28.526 9.76651 31.3165 11.4486L32.4058 9.96047C32.764 9.4713 33.451 9.36491 33.9404 9.72309C34.4297 10.0814 34.536 10.7684 34.1777 11.2577L33.1277 12.692C37.4102 16.0189 40.2012 21.178 40.3131 26.982H43.3503V4.41526C43.3503 3.69915 42.7678 3.11658 42.0517 3.11658Z" fill="#029894"/>
<path d="M31.0651 25.8017C30.6779 23.4615 29.4605 21.4521 27.7433 20.0476L24.4727 24.5155C25.0124 24.9756 25.4342 25.5698 25.6848 26.2469H31.245C31.1555 26.1177 31.0924 25.9671 31.0651 25.8017Z" fill="#029894"/>
<path d="M21.7701 17.924C19.0717 17.924 16.6198 19.0504 14.8927 20.8925C14.8847 20.9045 14.8778 20.9168 14.8692 20.9285C14.8123 21.0067 14.7468 21.0745 14.6753 21.1329C13.5549 22.4139 12.7715 24.0107 12.4752 25.8016C12.4479 25.967 12.3848 26.1176 12.2954 26.2468H17.8555C18.4444 24.6556 19.9769 23.5182 21.77 23.5182C21.9984 23.5182 22.2223 23.5374 22.4408 23.5729L25.8884 18.8631C24.6405 18.2599 23.2421 17.924 21.7701 17.924Z" fill="#029894"/>
<path d="M38.0856 26.2469C37.7676 21.4695 35.3881 17.2472 31.8314 14.4634L29.0327 18.2866C29.1292 18.364 29.2258 18.4411 29.3198 18.5217C31.3988 20.3028 32.7881 22.7609 33.2318 25.4432C33.2802 25.7361 33.2081 26.0209 33.0517 26.2469H38.0856Z" fill="#029894"/>
<path d="M10.3093 25.4432C10.6066 23.6458 11.3304 21.9502 12.3999 20.4904L8.58197 17.7141C8.57792 17.7111 8.57438 17.7077 8.57042 17.7047C6.7926 20.1325 5.66724 23.0666 5.45557 26.2469H10.4894C10.333 26.0208 10.2609 25.736 10.3093 25.4432Z" fill="#029894"/>
<path d="M9.98682 16.0202L13.8651 18.8405C13.9816 18.7321 14.1001 18.6254 14.2213 18.5215C16.0443 16.9598 18.3022 16.0076 20.6726 15.7815V11.0309C16.4863 11.3098 12.7264 13.1708 9.98682 16.0202Z" fill="#029894"/>
<path d="M22.8682 11.0311V15.7818C24.3853 15.9262 25.8562 16.3676 27.1964 17.0769L30.0137 13.2282C27.8893 11.9831 25.4605 11.2039 22.8682 11.0311Z" fill="#029894"/>
</g>
<defs>
<clipPath id="clip0_110_51464">
<rect width="43.16" height="43.16" fill="white" transform="translate(0.19043 0.924805)"/>
</clipPath>
</defs>
</svg>
