<svg width="49" height="45" viewBox="0 0 49 45" fill="none" xmlns="http://www.w3.org/2000/svg">
<path d="M13.6024 25.3125L15.6776 20.1307L17.7478 25.3125H13.6024ZM34.3 22.8625H36.75V27.7625H34.3C33.6502 27.7625 33.0271 27.5044 32.5676 27.0449C32.1081 26.5854 31.85 25.9623 31.85 25.3125C31.85 24.6627 32.1081 24.0396 32.5676 23.5801C33.0271 23.1206 33.6502 22.8625 34.3 22.8625ZM46.55 0.8125H2.45C1.80022 0.8125 1.17705 1.07062 0.717588 1.53009C0.258124 1.98955 0 2.61272 0 3.2625V42.4625C0 43.1123 0.258124 43.7354 0.717588 44.1949C1.17705 44.6544 1.80022 44.9125 2.45 44.9125H46.55C47.1998 44.9125 47.8229 44.6544 48.2824 44.1949C48.7419 43.7354 49 43.1123 49 42.4625V3.2625C49 2.61272 48.7419 1.98955 48.2824 1.53009C47.8229 1.07062 47.1998 0.8125 46.55 0.8125ZM25.9651 32.6625H20.6854L19.7054 30.2125H11.6448L10.6649 32.6625H5.38755L8.3251 25.3174L8.32755 25.3125L13.2276 13.0625H18.1276L25.9651 32.6625ZM36.75 13.0625H41.65V32.6625H34.3C32.3507 32.6625 30.4812 31.8881 29.1028 30.5097C27.7244 29.1313 26.95 27.2618 26.95 25.3125C26.95 23.3632 27.7244 21.4937 29.1028 20.1153C30.4812 18.7369 32.3507 17.9625 34.3 17.9625H36.75V13.0625Z" fill="#029894"/>
</svg>
