<svg width="49" height="44" viewBox="0 0 49 44" fill="none" xmlns="http://www.w3.org/2000/svg">
<path d="M31.2834 7.63422C31.2834 5.82499 30.5647 4.08986 29.2854 2.81054C28.0061 1.53121 26.271 0.8125 24.4617 0.8125C22.6525 0.8125 20.9174 1.53121 19.638 2.81054C18.3587 4.08986 17.64 5.82499 17.64 7.63422C17.64 9.44345 18.3587 11.1786 19.638 12.4579C20.9174 13.7372 22.6525 14.4559 24.4617 14.4559C26.271 14.4559 28.0061 13.7372 29.2854 12.4579C30.5647 11.1786 31.2834 9.44345 31.2834 7.63422ZM1.57719 28.4072H10.7341V19.2625L10.7586 18.7113C10.8382 17.8017 11.1199 16.9503 11.5548 16.2H3.1115L2.75319 16.2215C2.00823 16.3092 1.32139 16.6673 0.82294 17.2279C0.32449 17.7884 0.0490991 18.5124 0.0490001 19.2625V26.8759C0.0490001 27.282 0.210327 27.6715 0.497492 27.9587C0.784657 28.2458 1.17108 28.4072 1.57719 28.4072ZM48.9724 26.8759C48.9724 27.282 48.8111 27.6715 48.5239 27.9587C48.2368 28.2458 47.8473 28.4072 47.4412 28.4072H38.2047V19.2625L38.1863 18.8062C38.1195 17.888 37.8451 16.9969 37.3839 16.2H45.9099C46.6605 16.2002 47.3849 16.476 47.9455 16.9751C48.5061 17.4742 48.8639 18.1618 48.951 18.9073L48.9724 19.2625V26.8759ZM35.1208 18.9073C35.0336 18.1612 34.6754 17.4732 34.1141 16.9741C33.5529 16.4749 32.8277 16.1995 32.0766 16.2H16.8621L16.5038 16.2215C15.7589 16.3092 15.072 16.6673 14.5736 17.2279C14.0751 17.7884 13.7997 18.5124 13.7996 19.2625V28.4072H35.1422V19.2625L35.1208 18.9073ZM39.739 2.73728C41.2928 2.73728 42.7829 3.35452 43.8816 4.45321C44.9803 5.55191 45.5976 7.04206 45.5976 8.59584C45.5976 10.1496 44.9803 11.6398 43.8816 12.7385C42.7829 13.8372 41.2928 14.4544 39.739 14.4544C38.1848 14.4544 36.6943 13.837 35.5953 12.738C34.4963 11.639 33.8789 10.1485 33.8789 8.59431C33.8789 7.04012 34.4963 5.54958 35.5953 4.4506C36.6943 3.35162 38.1848 2.73728 39.739 2.73728ZM15.0951 8.59278C15.0951 7.03899 14.4778 5.54885 13.3791 4.45015C12.2804 3.35146 10.7903 2.73422 9.2365 2.73422C7.68271 2.73422 6.19256 3.35146 5.09387 4.45015C3.99518 5.54885 3.37794 7.03899 3.37794 8.59278C3.37794 10.1466 3.99518 11.6367 5.09387 12.7354C6.19256 13.8341 7.68271 14.4513 9.2365 14.4513C10.7903 14.4513 12.2804 13.8341 13.3791 12.7354C14.4778 11.6367 15.0951 10.1466 15.0951 8.59278ZM1.53125 31.4697C1.12514 31.4697 0.735658 31.631 0.448493 31.9181C0.161328 32.2053 0 32.5948 0 33.0009V36.0634C0 38.094 0.806638 40.0414 2.24246 41.4772C3.67829 42.913 5.62569 43.7197 7.65625 43.7197H41.3438C43.3743 43.7197 45.3217 42.913 46.7575 41.4772C48.1934 40.0414 49 38.094 49 36.0634V33.0009C49 32.5948 48.8387 32.2053 48.5515 31.9181C48.2643 31.631 47.8749 31.4697 47.4688 31.4697H1.53125Z" fill="#029894"/>
</svg>
