<svg width="50" height="50" viewBox="0 0 50 50" fill="none" xmlns="http://www.w3.org/2000/svg">
<path d="M37.7471 14.8771H13.2471V21.0021H37.7471V14.8771ZM31.6221 33.2521H37.7471V37.3354H31.6221V33.2521ZM11.1932 0.585449C8.48578 0.585449 5.88925 1.66097 3.97481 3.5754C2.06038 5.48983 0.984863 8.08636 0.984863 10.7938V39.3771C0.984863 42.0845 2.06038 44.6811 3.97481 46.5955C5.88925 48.5099 8.48578 49.5854 11.1932 49.5854H39.7765C42.484 49.5855 45.0805 48.5099 46.9949 46.5955C48.9093 44.6811 49.9849 42.0845 49.9849 39.3771V10.7938C49.9849 8.08636 48.9093 5.48983 46.9949 3.5754C45.0805 1.66097 42.484 0.585449 39.7765 0.585449H11.1932ZM9.16378 14.8771C9.16378 13.7941 9.59399 12.7555 10.3598 11.9898C11.1255 11.224 12.1641 10.7938 13.2471 10.7938H37.7471C38.8301 10.7938 39.8687 11.224 40.6345 11.9898C41.4002 12.7555 41.8304 13.7941 41.8304 14.8771V21.0021C41.8304 22.0851 41.4002 23.1237 40.6345 23.8895C39.8687 24.6552 38.8301 25.0854 37.7471 25.0854H13.2471C12.1641 25.0854 11.1255 24.6552 10.3598 23.8895C9.59399 23.1237 9.16378 22.0851 9.16378 21.0021V14.8771ZM31.6221 29.1688H37.7471C38.8301 29.1688 39.8687 29.599 40.6345 30.3648C41.4002 31.1305 41.8304 32.1691 41.8304 33.2521V37.3354C41.8304 38.4184 41.4002 39.457 40.6345 40.2228C39.8687 40.9886 38.8301 41.4188 37.7471 41.4188H31.6221C30.5391 41.4188 29.5005 40.9886 28.7348 40.2228C27.969 39.457 27.5388 38.4184 27.5388 37.3354V33.2521C27.5388 32.1691 27.969 31.1305 28.7348 30.3648C29.5005 29.599 30.5391 29.1688 31.6221 29.1688ZM9.16378 31.2105C9.16378 30.669 9.37888 30.1497 9.76177 29.7668C10.1447 29.3839 10.664 29.1688 11.2054 29.1688H21.4138C21.9553 29.1688 22.4746 29.3839 22.8575 29.7668C23.2403 30.1497 23.4554 30.669 23.4554 31.2105C23.4554 31.7519 23.2403 32.2712 22.8575 32.6541C22.4746 33.037 21.9553 33.2521 21.4138 33.2521H11.2054C10.664 33.2521 10.1447 33.037 9.76177 32.6541C9.37888 32.2712 9.16378 31.7519 9.16378 31.2105ZM11.2054 37.3354H21.4138C21.9553 37.3354 22.4746 37.5506 22.8575 37.9334C23.2403 38.3163 23.4554 38.8356 23.4554 39.3771C23.4554 39.9186 23.2403 40.4379 22.8575 40.8208C22.4746 41.2037 21.9553 41.4188 21.4138 41.4188H11.2054C10.664 41.4188 10.1447 41.2037 9.76177 40.8208C9.37888 40.4379 9.16378 39.9186 9.16378 39.3771C9.16378 38.8356 9.37888 38.3163 9.76177 37.9334C10.1447 37.5506 10.664 37.3354 11.2054 37.3354Z" fill="#029894"/>
</svg>
