<svg width="43" height="42" viewBox="0 0 43 42" fill="none" xmlns="http://www.w3.org/2000/svg">
<g clip-path="url(#clip0_813_5813)">
<path d="M5.37543 30.0147C5.77435 29.7133 6.35175 29.7844 6.66319 30.1704C6.97463 30.5565 6.90114 31.1152 6.50222 31.4166L1.87258 34.8976L1.83759 39.5874L7.52403 39.2793L10.6105 34.5319C10.8799 34.1187 11.4468 33.9935 11.8737 34.2542C12.3006 34.5149 12.4301 35.0635 12.1607 35.4766L8.83628 40.5864C8.68581 40.8336 8.41286 41.0063 8.09442 41.0232L0.966249 41.4126C0.948753 41.4126 0.931256 41.4126 0.913759 41.4126C0.409853 41.4092 0.000429167 41.013 0.00392852 40.522L0.04942 34.5251C0.028424 34.2373 0.150901 33.946 0.402854 33.7564L5.37543 30.0147ZM14.0293 19.0739C16.3389 12.3929 19.4533 7.65566 23.8345 4.67243C28.3801 1.57406 34.2241 0.40244 41.8806 0.937458C42.409 0.974706 42.815 1.39459 42.822 1.89575C43.5638 9.91764 41.9541 15.6064 38.5248 19.9171C35.2249 24.0618 30.2733 26.8655 24.1284 29.2189V37.0512C24.1284 37.4338 23.901 37.7691 23.5685 37.9282L17.3117 41.6699C16.8358 41.9544 16.2129 41.8122 15.919 41.3516C15.842 41.2297 15.793 41.0977 15.7755 40.9656C14.3898 30.719 12.9165 30.228 4.25914 27.3294C3.22333 26.984 2.10704 26.6082 1.35118 26.3508C0.822776 26.1714 0.546328 25.6092 0.731793 25.1013C0.770286 24.993 0.829775 24.8948 0.899762 24.8067L5.02549 19.1179C5.23196 18.8335 5.56789 18.6845 5.90033 18.7014L14.0293 19.0739ZM31.743 11.5261C31.1831 10.9843 30.4133 10.6524 29.5594 10.6524C28.7091 10.6524 27.9357 10.9877 27.3758 11.5261C26.8159 12.0679 26.473 12.8128 26.473 13.6391C26.473 14.4619 26.8194 15.2103 27.3758 15.752C27.9357 16.2938 28.7056 16.6257 29.5594 16.6257C30.4098 16.6257 31.1831 16.2904 31.743 15.752C32.3029 15.2103 32.6459 14.4653 32.6459 13.6391C32.6459 12.8128 32.2994 12.0679 31.743 11.5261Z" fill="#029894"/>
</g>
<defs>
<clipPath id="clip0_813_5813">
<rect width="43" height="41" fill="white" transform="translate(0 0.8125)"/>
</clipPath>
</defs>
</svg>
