<svg width="59" height="44" viewBox="0 0 59 44" fill="none" xmlns="http://www.w3.org/2000/svg">
<g clip-path="url(#clip0_813_5317)">
<path fill-rule="evenodd" clip-rule="evenodd" d="M3.65861 0.8125H50.387C52.3992 0.8125 54.0456 2.45894 54.0456 4.47111V15.4708C53.3224 15.3454 52.5971 15.2318 51.8701 15.13V11.0563H51.8857H2.32509V37.6476C2.32424 37.7808 2.34999 37.9128 2.40082 38.0358C2.45165 38.1589 2.52653 38.2706 2.62109 38.3644C2.71485 38.4589 2.82654 38.5338 2.94961 38.5846C3.07268 38.6354 3.20466 38.6612 3.33781 38.6604H32.981C33.1941 39.4403 33.4612 40.2045 33.7922 40.9498H3.65861C1.64644 40.9498 0 39.3033 0 37.2912V4.47111C0 2.45894 1.64644 0.8125 3.65861 0.8125ZM41.3779 24.2196C43.0829 24.7889 45.4562 25.1408 48.0926 25.1408C50.7291 25.1408 53.1021 24.7889 54.8074 24.2196C56.3041 23.7201 57.2298 23.1152 57.2298 22.5234C57.2298 21.9321 56.3041 21.3272 54.8074 20.8276C53.1021 20.2583 50.7291 19.9061 48.0926 19.9061C45.4562 19.9061 43.0829 20.2583 41.3779 20.8276C38.2023 21.8875 38.115 23.1305 41.3779 24.2196ZM54.1792 26.9851C54.7433 26.9851 55.2008 27.4425 55.2008 28.0066C55.2008 28.5707 54.7433 29.0279 54.1792 29.0279C54.045 29.0279 53.9122 29.0015 53.7883 28.9502C53.6644 28.8988 53.5518 28.8236 53.457 28.7288C53.3621 28.6339 53.2869 28.5213 53.2356 28.3974C53.1843 28.2735 53.1579 28.1407 53.1579 28.0066C53.1579 27.4425 53.6151 26.9851 54.1792 26.9851ZM54.1792 32.9985C54.7433 32.9985 55.2008 33.456 55.2008 34.02C55.2008 34.5841 54.7433 35.0413 54.1792 35.0413C54.045 35.0413 53.9122 35.0149 53.7883 34.9636C53.6644 34.9123 53.5518 34.837 53.457 34.7422C53.3621 34.6474 53.2869 34.5348 53.2356 34.4109C53.1843 34.2869 53.1579 34.1541 53.1579 34.02C53.1579 33.456 53.6151 32.9985 54.1792 32.9985ZM54.1792 38.7724C54.4501 38.7725 54.7099 38.8801 54.9015 39.0717C55.0931 39.2633 55.2007 39.5231 55.2008 39.794C55.2008 40.3581 54.7433 40.8153 54.1792 40.8153C54.045 40.8153 53.9122 40.7889 53.7883 40.7376C53.6644 40.6863 53.5518 40.6111 53.457 40.5162C53.3621 40.4214 53.2869 40.3088 53.2356 40.1849C53.1843 40.061 53.1579 39.9282 53.1579 39.794C53.1579 39.2299 53.6151 38.7724 54.1792 38.7724ZM57.2332 36.2748C56.7001 36.6396 56.0212 36.9611 55.2183 37.2291C53.3817 37.8423 50.8611 38.2216 48.0926 38.2216C45.3239 38.2216 42.8035 37.8423 40.9667 37.2291C40.1742 36.9644 39.499 36.6478 38.969 36.289V40.1794C39.0868 40.7312 39.9851 41.2873 41.3779 41.7521C43.0829 42.3211 45.4562 42.6733 48.0926 42.6733C50.7291 42.6733 53.1021 42.3214 54.8074 41.7521C55.8409 41.407 56.6021 41.0117 56.9744 40.6055C57.2815 40.2702 57.2332 40.0492 57.2332 39.6485V36.2748ZM37.6562 22.5234C37.6562 21.3108 38.9214 20.2822 40.9667 19.5993C42.8035 18.9864 45.3242 18.6069 48.0926 18.6069C50.8611 18.6069 53.3817 18.9864 55.2185 19.5993C57.0802 20.2208 58.2956 21.1291 58.4986 22.2017C58.5228 22.2698 58.536 22.3432 58.536 22.4199V40.3246C58.536 41.566 56.1646 42.6645 55.2183 42.9801C53.3817 43.5933 50.8611 43.9725 48.0926 43.9725C45.3239 43.9725 42.8035 43.5933 40.9667 42.9801C39.9983 42.6567 37.6698 41.5946 37.6698 40.3246V39.9086C37.6698 34.1138 37.6562 28.3177 37.6562 22.5234ZM38.969 34.4284C39.0868 34.9799 39.9851 35.536 41.3779 36.0009C43.0829 36.5702 45.4562 36.9223 48.0926 36.9223C50.7291 36.9223 53.1021 36.5702 54.8074 36.0009C56.3041 35.5014 57.2298 34.8964 57.2298 34.305H57.2369V30.5239C56.7038 30.8887 56.0212 31.2098 55.2183 31.4779C53.3817 32.0912 50.8611 32.4703 48.0926 32.4703C45.3239 32.4703 42.8035 32.0912 40.9667 31.4779C40.1742 31.2135 39.499 30.8969 38.969 30.538V34.4284ZM38.969 28.6772C39.0868 29.229 39.9851 29.7851 41.3779 30.2499C43.0829 30.8189 45.4562 31.1712 48.0926 31.1712C50.7291 31.1712 53.1021 30.8193 54.8074 30.2499C56.3041 29.7504 57.2298 29.1455 57.2298 28.5538H57.2369V24.4935C56.7038 24.8583 56.0212 25.1798 55.2183 25.4476C53.3817 26.0608 50.8611 26.4399 48.0926 26.4399C45.3242 26.4399 42.8035 26.0608 40.9667 25.4476C40.1742 25.1831 39.499 24.8666 38.969 24.5077V28.6772ZM15.1341 27.09C15.63 27.5239 15.68 28.2783 15.2461 28.7742C14.8122 29.2701 14.0579 29.3202 13.5619 28.8863L9.02415 24.9102C8.5283 24.4764 8.47823 23.7219 8.9121 23.226C8.94973 23.183 8.99038 23.1427 9.03375 23.1056L13.5619 19.138C14.0579 18.7042 14.8122 18.7542 15.2461 19.2502C15.68 19.7461 15.63 20.5005 15.1341 20.9344L11.6213 24.0121L15.1341 27.09ZM24.8159 28.8863C24.3201 29.3202 23.5657 29.2701 23.1318 28.7742C22.6979 28.2783 22.748 27.5239 23.2438 27.09L26.7565 24.0121L23.2438 20.9344C22.748 20.5005 22.6979 19.7461 23.1318 19.2502C23.5657 18.7542 24.3201 18.7042 24.8159 19.138L29.3441 23.1056C29.3869 23.1421 29.4277 23.1824 29.4658 23.226C29.8997 23.7219 29.8496 24.4764 29.3537 24.9102L24.8159 28.8863ZM19.6349 17.5116C19.7925 16.8708 20.4398 16.479 21.0806 16.6365C21.7214 16.794 22.1132 17.4413 21.9557 18.0821L19.0315 29.8505C18.8741 30.4914 18.2268 30.8831 17.5859 30.7256C16.9451 30.5681 16.5533 29.9208 16.7108 29.28L19.6349 17.5116ZM46.9049 4.92522C47.9029 4.92522 48.712 5.73432 48.712 6.73229C48.712 7.73026 47.9029 8.53902 46.9049 8.53902C45.907 8.53902 45.0979 7.73026 45.0979 6.73229C45.0979 5.73432 45.907 4.92522 46.9049 4.92522ZM34.6572 4.92522C35.6552 4.92522 36.4643 5.73432 36.4643 6.73229C36.4643 7.73026 35.6552 8.53902 34.6572 8.53902C33.6593 8.53902 32.8502 7.73026 32.8502 6.73229C32.8502 5.73432 33.6593 4.92522 34.6572 4.92522ZM40.7813 4.92522C41.7791 4.92522 42.588 5.73432 42.588 6.73229C42.588 7.73026 41.7791 8.53902 40.7813 8.53902C39.7833 8.53902 38.9742 7.73026 38.9742 6.73229C38.9742 5.73432 39.7833 4.92522 40.7813 4.92522Z" fill="#029894"/>
</g>
<defs>
<clipPath id="clip0_813_5317">
<rect width="58.536" height="43.16" fill="white" transform="translate(0 0.8125)"/>
</clipPath>
</defs>
</svg>
