<svg width="44" height="44" viewBox="0 0 44 44" fill="none" xmlns="http://www.w3.org/2000/svg">
<g clip-path="url(#clip0_813_5259)">
<path d="M27.7835 38.4863H23.2274V34.5273H19.9335V38.4863H15.3775C14.4679 38.4863 13.7305 39.2238 13.7305 40.1333C13.7305 41.0429 14.4679 41.7803 15.3775 41.7803H27.7834C28.693 41.7803 29.4304 41.0429 29.4304 40.1333C29.4304 39.2238 28.6931 38.4863 27.7835 38.4863Z" fill="#029894"/>
<path d="M24.6543 29.0656H18.5056H0V31.033C0 31.7491 0.582576 32.3317 1.29868 32.3317H41.8613C42.5774 32.3317 43.16 31.7491 43.16 31.033V29.0656H24.6543Z" fill="#029894"/>
<path d="M41.8612 3.00391H1.29868C0.582576 3.00391 0 3.58648 0 4.30258V26.8693H3.03713C3.23127 16.8091 11.4742 8.68484 21.5799 8.68484C25.0689 8.68484 28.3356 9.65383 31.1261 11.3359L32.2154 9.8478C32.5736 9.35863 33.2606 9.25224 33.7499 9.61042C34.2393 9.96868 34.3456 10.6557 33.9873 11.145L32.9373 12.5794C37.2198 15.9062 40.0108 21.0654 40.1227 26.8693H43.1598V4.30258C43.1599 3.58648 42.5773 3.00391 41.8612 3.00391Z" fill="#029894"/>
<path d="M30.8756 25.6896C30.4885 23.3495 29.271 21.34 27.5538 19.9355L24.2832 24.4034C24.823 24.8635 25.2448 25.4577 25.4954 26.1348H31.0555C30.966 26.0057 30.903 25.855 30.8756 25.6896Z" fill="#029894"/>
<path d="M21.5802 17.8115C18.8818 17.8115 16.4299 18.938 14.7027 20.7801C14.6947 20.7921 14.6878 20.8044 14.6792 20.8161C14.6223 20.8943 14.5568 20.962 14.4853 21.0205C13.3649 22.3014 12.5816 23.8983 12.2853 25.6892C12.258 25.8545 12.1949 26.0052 12.1055 26.1344H17.6656C18.2544 24.5432 19.7869 23.4058 21.5801 23.4058C21.8085 23.4058 22.0324 23.425 22.2508 23.4605L25.6985 18.7507C24.4506 18.1474 23.0522 17.8115 21.5802 17.8115Z" fill="#029894"/>
<path d="M37.8947 26.1351C37.5766 21.3576 35.1972 17.1354 31.6405 14.3516L28.8418 18.1748C28.9382 18.2521 29.0348 18.3293 29.1289 18.4099C31.2078 20.191 32.5971 22.6491 33.0409 25.3314C33.0893 25.6242 33.0172 25.9091 32.8607 26.1351H37.8947Z" fill="#029894"/>
<path d="M10.1194 25.3312C10.4167 23.5338 11.1404 21.8382 12.21 20.3784L8.39203 17.6021C8.38798 17.5992 8.38444 17.5957 8.38048 17.5928C6.60266 20.0205 5.47729 22.9546 5.26562 26.135H10.2995C10.143 25.9088 10.071 25.6241 10.1194 25.3312Z" fill="#029894"/>
<path d="M9.79688 15.9083L13.6752 18.7285C13.7917 18.6201 13.9101 18.5134 14.0314 18.4096C15.8544 16.8479 18.1123 15.8957 20.4827 15.6696V10.9189C16.2963 11.1979 12.5364 13.0588 9.79688 15.9083Z" fill="#029894"/>
<path d="M22.6777 10.9188V15.6695C24.1948 15.8139 25.6658 16.2553 27.006 16.9646L29.8232 13.1159C27.6989 11.8708 25.27 11.0915 22.6777 10.9188Z" fill="#029894"/>
</g>
<defs>
<clipPath id="clip0_813_5259">
<rect width="43.16" height="43.16" fill="white" transform="translate(0 0.8125)"/>
</clipPath>
</defs>
</svg>
