<svg width="53" height="56" viewBox="0 0 53 56" fill="none" xmlns="http://www.w3.org/2000/svg">
<path fill-rule="evenodd" clip-rule="evenodd" d="M19.1793 10.8609L34.6838 4.39323L48.0534 18.1656L41.814 33.6209C31.2329 36.5527 21.377 40.8316 12.0715 46.1356L10.1827 43.7902L28.6369 25.4927C29.0084 25.6628 29.4112 25.7478 29.8185 25.7478H29.823C31.4164 25.7478 32.7055 24.4587 32.7055 22.8653C32.7055 21.2764 31.4164 19.9828 29.823 19.9828C28.234 19.9828 26.9405 21.2719 26.9405 22.8653C26.9405 23.38 27.0748 23.8634 27.312 24.2797L9.05029 42.425L6.51693 40.111C12.0894 30.9891 16.3505 21.2629 19.1793 10.8609ZM39.1016 0.8125L52.0504 14.0791L50.8687 15.2294L49.6871 16.3797L36.7383 3.10864L37.9199 1.95833L39.1016 0.8125ZM8.49976 48.8659C14.5691 54.4518 18.1409 52.0169 23.1942 48.5615C27.3747 45.7059 32.428 42.255 40.0907 41.1136C40.6368 39.2785 42.3376 37.9402 44.3473 37.9402C46.8001 37.9402 48.7874 39.9275 48.7874 42.3803C48.7874 44.8331 46.8001 46.8204 44.3473 46.8204C42.6241 46.8204 41.1292 45.8402 40.3951 44.4034C33.538 45.4911 28.8965 48.66 25.0517 51.2829C18.575 55.7051 14.0499 58.7935 6.11857 51.1755C5.58594 51.3903 5.0175 51.5022 4.44458 51.5022H4.4401C1.9873 51.5022 0 49.5149 0 47.0621C0 44.6093 1.9873 42.622 4.4401 42.622C6.8929 42.622 8.88021 44.6093 8.88021 47.0621V47.0666C8.88021 47.6887 8.75041 48.2974 8.49976 48.8659Z" fill="#029894"/>
</svg>
