<svg width="50" height="44" viewBox="0 0 50 44" fill="none" xmlns="http://www.w3.org/2000/svg">
<g clip-path="url(#clip0_158_77693)">
<path fill-rule="evenodd" clip-rule="evenodd" d="M3.80123 0.217285H46.1658C47.9921 0.217285 49.4835 1.98606 49.4835 4.1521V39.4425C49.4835 41.6038 47.9921 43.3773 46.1658 43.3773H3.80123C1.97489 43.3773 0.483521 41.6038 0.483521 39.4425V4.1521C0.483521 1.98606 1.97489 0.217285 3.80123 0.217285ZM17.9095 30.8351H13.5629L12.9369 33.2659H9.01705L13.6945 18.5293H17.8975L22.5551 33.2659H18.5315L17.9095 30.8351ZM17.1 27.6475L15.7442 22.3506L14.3804 27.6475H17.1ZM24.0704 18.5293H30.4585C31.8502 18.5293 32.891 18.9218 33.5848 19.7069C34.2747 20.492 34.6216 21.6128 34.6216 23.06C34.6216 24.5498 34.2428 25.7132 33.4891 26.5503C32.7355 27.3921 31.5791 27.8083 30.0279 27.8083H27.9224V33.2612H24.0704V18.5293ZM27.9224 24.8241H28.8675C29.6132 24.8241 30.1355 24.668 30.4386 24.3653C30.7377 24.0579 30.8892 23.6701 30.8892 23.1924C30.8892 22.729 30.7576 22.3364 30.4944 22.0148C30.2352 21.6932 29.7408 21.5324 29.019 21.5324H27.9184V24.8241H27.9224ZM37.0979 18.5293H40.95V33.2659H37.0979V18.5293ZM47.5256 11.2319H2.59298V39.8255C2.59298 40.1282 2.69267 40.3931 2.86015 40.5964C3.02763 40.7951 3.25492 40.9133 3.51013 40.9133H46.5925C46.8477 40.9133 47.071 40.7951 47.2425 40.5964C47.4139 40.3931 47.5096 40.1282 47.5096 39.8255V11.2319H47.5256ZM43.0076 4.63922C43.9128 4.63922 44.6465 5.50942 44.6465 6.58298C44.6465 7.65654 43.9128 8.52674 43.0076 8.52674C42.1024 8.52674 41.3687 7.65654 41.3687 6.58298C41.3727 5.50942 42.1064 4.63922 43.0076 4.63922ZM31.906 4.63922C32.8112 4.63922 33.545 5.50942 33.545 6.58298C33.545 7.65654 32.8112 8.52674 31.906 8.52674C31.0009 8.52674 30.2671 7.65654 30.2671 6.58298C30.2671 5.50942 31.0009 4.63922 31.906 4.63922ZM37.4568 4.63922C38.362 4.63922 39.0957 5.50942 39.0957 6.58298C39.0957 7.65654 38.362 8.52674 37.4568 8.52674C36.5516 8.52674 35.8179 7.65654 35.8179 6.58298C35.8179 5.50942 36.5516 4.63922 37.4568 4.63922Z" fill="#029894"/>
</g>
<defs>
<clipPath id="clip0_158_77693">
<rect width="49" height="43.16" fill="white" transform="translate(0.483521 0.217285)"/>
</clipPath>
</defs>
</svg>
