<svg width="44" height="41" viewBox="0 0 44 41" fill="none" xmlns="http://www.w3.org/2000/svg">
<path d="M28.3238 38.3492H14.8363C13.0477 38.3492 11.3324 37.69 10.0677 36.5168C8.80303 35.3436 8.09253 33.7523 8.09253 32.0931V9.57127C8.09253 7.91206 8.80303 6.3208 10.0677 5.14756C11.3324 3.97433 13.0477 3.31521 14.8363 3.31521H25.6263C25.8038 3.31425 25.9797 3.34582 26.1441 3.40808C26.3084 3.47035 26.4579 3.56209 26.5839 3.67806L34.6764 11.1853C34.8014 11.3022 34.9003 11.4409 34.9674 11.5933C35.0345 11.7458 35.0686 11.909 35.0675 12.0737V32.0931C35.0675 33.7523 34.357 35.3436 33.0923 36.5168C31.8276 37.69 30.1123 38.3492 28.3238 38.3492ZM14.8363 5.81763C13.7631 5.81763 12.734 6.2131 11.9751 6.91705C11.2163 7.62099 10.79 8.57574 10.79 9.57127V32.0931C10.79 33.0886 11.2163 34.0434 11.9751 34.7473C12.734 35.4513 13.7631 35.8467 14.8363 35.8467H28.3238C29.3969 35.8467 30.4261 35.4513 31.1849 34.7473C31.9437 34.0434 32.37 33.0886 32.37 32.0931V12.5867L25.0733 5.81763H14.8363Z" fill="#029894"/>
<path d="M26.975 20.8321H25.6263V17.0785C25.6263 16.7466 25.4842 16.4284 25.2313 16.1937C24.9783 15.9591 24.6353 15.8273 24.2775 15.8273H18.8825C18.5248 15.8273 18.1818 15.9591 17.9288 16.1937C17.6759 16.4284 17.5338 16.7466 17.5338 17.0785V20.8321H16.185C15.9188 20.8334 15.6588 20.9077 15.438 21.0457C15.2172 21.1838 15.0454 21.3794 14.9442 21.6079C14.8409 21.8357 14.8127 22.0869 14.8631 22.3296C14.9135 22.5723 15.0403 22.7957 15.2274 22.9717L20.6224 27.9765C20.7478 28.0938 20.897 28.1869 21.0614 28.2504C21.2257 28.3139 21.402 28.3466 21.58 28.3466C21.7581 28.3466 21.9344 28.3139 22.0987 28.2504C22.2631 28.1869 22.4123 28.0938 22.5377 27.9765L27.9327 22.9717C28.1198 22.7957 28.2466 22.5723 28.297 22.3296C28.3474 22.0869 28.3192 21.8357 28.2159 21.6079C28.1147 21.3794 27.9429 21.1838 27.7221 21.0457C27.5013 20.9077 27.2413 20.8334 26.975 20.8321Z" fill="#029894"/>
<path d="M34.6764 11.1855L26.5839 3.67821C26.3943 3.50459 26.1534 3.38698 25.8918 3.34022C25.6301 3.29346 25.3594 3.31964 25.1138 3.41545C24.8675 3.50932 24.6567 3.66872 24.5078 3.87357C24.359 4.07842 24.2789 4.31955 24.2776 4.56657V10.8226C24.2776 11.4863 24.5618 12.1228 25.0677 12.5921C25.5735 13.0614 26.2597 13.3251 26.9751 13.3251H33.7188C33.9851 13.3238 34.245 13.2495 34.4659 13.1114C34.6867 12.9734 34.8585 12.7778 34.9597 12.5493C35.063 12.3214 35.0912 12.0703 35.0408 11.8276C34.9904 11.5849 34.8636 11.3614 34.6764 11.1855Z" fill="#029894"/>
<path d="M32.37 37.098H10.79V21.6205C10.79 24.1229 13.5954 31.7303 19.6648 31.7303C25.0598 31.7303 32.37 30.4791 32.37 25.5743V37.098Z" fill="#029894"/>
</svg>
