<svg width="27" height="41" viewBox="0 0 27 41" fill="none" xmlns="http://www.w3.org/2000/svg">
<path d="M23.9786 0.812378H3.18279C1.88815 0.812378 0.827026 1.79705 0.827026 2.99617V38.6673C0.827026 39.8664 1.88846 40.8511 3.18279 40.8511H23.9785C25.2711 40.8511 26.3326 39.8683 26.3326 38.6673V2.99617C26.3326 1.79705 25.2732 0.812378 23.9786 0.812378ZM13.579 38.6642C12.3882 38.6642 11.4211 37.7673 11.4211 36.6623C11.4211 35.5573 12.3879 34.6605 13.579 34.6605C14.7699 34.6605 15.7369 35.5573 15.7369 36.6623C15.7369 37.7673 14.7698 38.6642 13.579 38.6642ZM23.6339 32.4786H3.52744V5.72458H23.634V32.4786H23.6339ZM12.0565 13.6729H5.72965V8.89458H12.0565V13.6729ZM20.5911 13.6729H14.2624V8.89458H20.5911V13.6729ZM12.0565 21.3773H5.72965V16.6009H12.0565V21.3773ZM20.5911 21.3773H14.2624V16.6009H20.5911V21.3773ZM12.0565 29.2312H5.72965V24.4548H12.0565V29.2312ZM20.5911 29.2312H14.2624V24.4548H20.5911V29.2312Z" fill="#029894"/>
</svg>
