<svg width="47" height="47" viewBox="0 0 47 47" fill="none" xmlns="http://www.w3.org/2000/svg">
<g clip-path="url(#clip0_158_77670)">
<path d="M28.4934 36.871H7.05986V6.12999H28.4876V8.4297H31.3677V5.50222C31.3696 2.74458 29.1054 0.486328 26.3497 0.486328H9.20162C6.44197 0.486328 4.18372 2.74458 4.18372 5.50222V41.4684C4.18372 44.2301 6.44197 46.4863 9.20162 46.4863H26.3497C29.1054 46.4863 31.3696 44.2301 31.3696 41.4684V36.8177H28.4934V36.871ZM17.7727 43.9754C16.5014 43.9754 15.475 42.947 15.475 41.6777C15.475 40.4045 16.5015 39.378 17.7727 39.378C19.0459 39.378 20.0744 40.4064 20.0744 41.6777C20.0744 42.947 19.046 43.9754 17.7727 43.9754Z" fill="#029894"/>
<path d="M15.9448 9.21533H9.5155V13.1357H15.9448V9.21533Z" fill="#029894"/>
<path d="M15.9448 19.2531H9.5155V23.1734H15.9448V19.2531Z" fill="#029894"/>
<path d="M15.9448 29.7587H9.5155V33.677H15.9448V29.7587Z" fill="#029894"/>
<path d="M38.7641 20.9764C38.5371 19.788 38.0772 18.6885 37.4258 17.7272L39.7314 15.4196L37.3765 13.0725L35.0747 15.3761C34.1173 14.7208 33.012 14.2667 31.8275 14.0377V10.7708H28.4954V14.0377C27.3091 14.2667 26.2135 14.7227 25.2463 15.3761L22.9486 13.0725L20.5936 15.4215L22.8953 17.7291C22.2459 18.6904 21.788 19.7899 21.5609 20.9763H18.2979V24.3064H21.5608C21.7879 25.4889 22.2478 26.5884 22.8972 27.5537L20.5935 29.8573L22.9485 32.2024L25.2522 29.9007C26.2155 30.556 27.3149 31.012 28.5013 31.243V34.504H31.8334V31.2411C33.0177 31.014 34.1153 30.5541 35.0806 29.9027L37.3823 32.2044L39.7373 29.8573L37.4316 27.5537C38.083 26.5923 38.541 25.4909 38.77 24.3045H42.035V20.9764H38.7641ZM30.1655 26.2647C28.1619 26.2647 26.5353 24.646 26.5353 22.6405C26.5353 20.6369 28.1618 19.0083 30.1655 19.0083C32.171 19.0083 33.7897 20.6349 33.7897 22.6405C33.7897 24.648 32.167 26.2647 30.1655 26.2647Z" fill="#029894"/>
</g>
<defs>
<clipPath id="clip0_158_77670">
<rect width="46" height="46" fill="white" transform="translate(0.109375 0.486328)"/>
</clipPath>
</defs>
</svg>
