<svg width="44" height="41" viewBox="0 0 44 41" fill="none" xmlns="http://www.w3.org/2000/svg">
<g clip-path="url(#clip0_158_77616)">
<path d="M31.9786 0.812378H11.1828C9.88815 0.812378 8.82703 1.79705 8.82703 2.99617V38.6673C8.82703 39.8664 9.88846 40.8511 11.1828 40.8511H31.9785C33.2711 40.8511 34.3326 39.8683 34.3326 38.6673V2.99617C34.3326 1.79705 33.2732 0.812378 31.9786 0.812378ZM21.579 38.6642C20.3882 38.6642 19.4211 37.7673 19.4211 36.6623C19.4211 35.5573 20.3879 34.6605 21.579 34.6605C22.7699 34.6605 23.7369 35.5573 23.7369 36.6623C23.7369 37.7673 22.7698 38.6642 21.579 38.6642ZM31.6339 32.4786H11.5274V5.72458H31.634V32.4786H31.6339ZM20.0565 13.6729H13.7296V8.89458H20.0565V13.6729ZM28.5911 13.6729H22.2624V8.89458H28.5911V13.6729ZM20.0565 21.3773H13.7296V16.6009H20.0565V21.3773ZM28.5911 21.3773H22.2624V16.6009H28.5911V21.3773ZM20.0565 29.2312H13.7296V24.4548H20.0565V29.2312ZM28.5911 29.2312H22.2624V24.4548H28.5911V29.2312Z" fill="#029894"/>
</g>
<defs>
<clipPath id="clip0_158_77616">
<rect width="43.16" height="40.0388" fill="white" transform="translate(-0.00012207 0.812378)"/>
</clipPath>
</defs>
</svg>
