<svg width="26" height="44" viewBox="0 0 26 44" fill="none" xmlns="http://www.w3.org/2000/svg">
<path fill-rule="evenodd" clip-rule="evenodd" d="M5.03524 0.241455H21.2378C22.4671 0.241455 23.5946 0.747236 24.3989 1.55157C25.2138 2.36644 25.7055 3.47986 25.7055 4.7127V38.9337C25.7055 40.1631 25.1998 41.2905 24.3989 42.0949C23.5841 42.9097 22.4706 43.405 21.2378 43.405H5.03524C3.80591 43.405 2.67844 42.8992 1.87411 42.0949C1.05924 41.28 0.567505 40.1666 0.567505 38.9337V4.7127C0.567505 3.48337 1.07329 2.3559 1.87762 1.55157C2.69249 0.733187 3.80591 0.241455 5.03524 0.241455ZM15.6391 26.7879H15.6988C16.1519 26.7879 16.5277 27.1638 16.5277 27.6169V32.9381H17.0651V30.7078C17.0651 30.2863 17.4128 29.9385 17.8343 29.9385H17.894C18.3471 29.9385 18.7229 30.3144 18.7229 30.7675V32.9943L18.751 32.9838H19.3306V31.2908C19.3306 30.8693 19.6783 30.5216 20.0998 30.5216H20.156C20.6091 30.5216 20.9849 30.8974 20.9849 31.3505V32.8995H20.9884L21.5645 32.8924V31.7966C21.5645 31.3751 21.9122 31.0274 22.3337 31.0274H22.3934C22.8465 31.0274 23.2223 31.4032 23.2223 31.8563V34.178C23.2223 34.2026 23.2223 34.2342 23.2153 34.2623L23.2434 34.2833C23.268 34.9507 23.2574 35.748 23.1345 36.5172H24.4341V7.17136H1.83547V36.5102H14.2903L11.5718 32.204C11.4032 31.8071 11.4242 31.5402 11.5928 31.3646C12.3199 30.8904 13.5141 31.8984 14.8312 33.321L14.8804 33.3104V27.5466C14.8804 27.1251 15.2281 26.7774 15.6496 26.7774L15.6391 26.7879ZM16.1378 24.5646C16.1378 24.7929 15.9517 24.9721 15.7304 24.9721C15.5021 24.9721 15.323 24.7859 15.323 24.5646V22.9243C15.323 22.696 15.5091 22.5169 15.7304 22.5169C15.9587 22.5169 16.1378 22.7031 16.1378 22.9243V24.5646ZM12.4358 27.926C12.6641 27.926 12.8432 28.1121 12.8432 28.3334C12.8432 28.5617 12.6571 28.7408 12.4358 28.7408H10.7955C10.5672 28.7408 10.3881 28.5547 10.3881 28.3334C10.3881 28.1051 10.5742 27.926 10.7955 27.926H12.4358ZM13.5984 25.4954C13.7565 25.6535 13.7565 25.9134 13.5984 26.0714C13.4403 26.2295 13.1804 26.2295 13.0224 26.0714L11.8668 24.9123C11.7087 24.7543 11.7087 24.4944 11.8668 24.3363C12.0249 24.1783 12.2848 24.1783 12.4428 24.3363L13.5984 25.4954ZM18.9442 28.7373C18.7159 28.7373 18.5368 28.5512 18.5368 28.3299C18.5368 28.1016 18.7229 27.9224 18.9442 27.9224H20.5845C20.8128 27.9224 20.9919 28.1086 20.9919 28.3299C20.9919 28.5582 20.8058 28.7373 20.5845 28.7373H18.9442ZM18.3612 25.9801C18.2031 26.1382 17.9432 26.1382 17.7851 25.9801C17.6271 25.822 17.6271 25.5621 17.7851 25.4041L18.9407 24.245C19.0988 24.0869 19.3587 24.0869 19.5167 24.245C19.6748 24.403 19.6748 24.663 19.5167 24.821L18.3612 25.9801ZM4.684 23.251H7.18832C7.81704 23.251 8.32984 23.7638 8.32984 24.3925V26.8968C8.32984 27.5255 7.81704 28.0384 7.18832 28.0384H4.684C4.05529 28.0384 3.54248 27.5255 3.54248 26.8968V24.3925C3.53897 23.7673 4.05529 23.251 4.684 23.251ZM19.0882 16.0893H21.5926C22.2213 16.0893 22.7341 16.6021 22.7341 17.2308V19.7351C22.7341 20.3638 22.2213 20.8766 21.5926 20.8766H19.0882C18.4595 20.8766 17.9467 20.3638 17.9467 19.7351V17.2308C17.9467 16.6021 18.463 16.0893 19.0882 16.0893ZM11.8844 16.0893H14.3887C15.0174 16.0893 15.5302 16.6021 15.5302 17.2308V19.7351C15.5302 20.3638 15.0174 20.8766 14.3887 20.8766H11.8844C11.2556 20.8766 10.7428 20.3638 10.7428 19.7351V17.2308C10.7428 16.6021 11.2592 16.0893 11.8844 16.0893ZM4.684 16.0893H7.18832C7.81704 16.0893 8.32984 16.6021 8.32984 17.2308V19.7351C8.32984 20.3638 7.81704 20.8766 7.18832 20.8766H4.684C4.05529 20.8766 3.54248 20.3638 3.54248 19.7351V17.2308C3.53897 16.6021 4.05529 16.0893 4.684 16.0893ZM19.0882 8.92755H21.5926C22.2213 8.92755 22.7341 9.44035 22.7341 10.0691V12.5734C22.7341 13.2021 22.2213 13.7149 21.5926 13.7149H19.0882C18.4595 13.7149 17.9467 13.2021 17.9467 12.5734V10.0691C17.9467 9.44035 18.463 8.92755 19.0882 8.92755ZM11.8844 8.92755H14.3887C15.0174 8.92755 15.5302 9.44035 15.5302 10.0691V12.5734C15.5302 13.2021 15.0174 13.7149 14.3887 13.7149H11.8844C11.2556 13.7149 10.7428 13.2021 10.7428 12.5734V10.0691C10.7428 9.44035 11.2592 8.92755 11.8844 8.92755ZM4.684 8.92755H7.18832C7.81704 8.92755 8.32984 9.44035 8.32984 10.0691V12.5734C8.32984 13.2021 7.81704 13.7149 7.18832 13.7149H4.684C4.05529 13.7149 3.54248 13.2021 3.54248 12.5734V10.0691C3.53897 9.44035 4.05529 8.92755 4.684 8.92755ZM13.1313 37.9081C14.1428 37.9081 14.9717 38.723 14.9717 39.7486C14.9717 40.7602 14.1569 41.5891 13.1313 41.5891C12.1197 41.5891 11.2908 40.7742 11.2908 39.7486C11.2943 38.737 12.1092 37.9081 13.1313 37.9081Z" fill="#029894"/>
</svg>
