<svg width="17" height="16" viewBox="0 0 17 16" fill="none" xmlns="http://www.w3.org/2000/svg">
<path d="M4.39356 15.2916V5.20072H0.973279V15.2916H4.39356ZM2.68386 3.82215C3.87657 3.82215 4.61898 3.04729 4.61898 2.07896C4.59675 1.08881 3.87662 0.335449 2.70649 0.335449C1.53655 0.335449 0.771484 1.08882 0.771484 2.07896C0.771484 3.04733 1.51371 3.82215 2.66153 3.82215H2.68375H2.68386ZM6.28667 15.2916H9.70695V9.65637C9.70695 9.35478 9.72917 9.0535 9.81949 8.83791C10.0667 8.23534 10.6295 7.61125 11.5743 7.61125C12.812 7.61125 13.3071 8.53662 13.3071 9.89314V15.2916H16.7272V9.50552C16.7272 6.40599 15.0398 4.96381 12.7895 4.96381C10.9444 4.96381 10.1343 5.97518 9.68419 6.66401H9.70702V5.20051H6.28675C6.33163 6.14738 6.28675 15.2914 6.28675 15.2914L6.28667 15.2916Z" fill="white"/>
</svg>
