<svg width="17" height="17" viewBox="0 0 17 17" fill="none" xmlns="http://www.w3.org/2000/svg">
<path d="M8.63763 4.28131C6.37284 4.28131 4.54605 6.07955 4.54605 8.30896C4.54605 10.5384 6.37284 12.3366 8.63763 12.3366C10.9024 12.3366 12.7292 10.5384 12.7292 8.30896C12.7292 6.07955 10.9024 4.28131 8.63763 4.28131ZM8.63763 10.9275C7.17406 10.9275 5.97757 9.75316 5.97757 8.30896C5.97757 6.86475 7.1705 5.69046 8.63763 5.69046C10.1048 5.69046 11.2977 6.86475 11.2977 8.30896C11.2977 9.75316 10.1012 10.9275 8.63763 10.9275ZM13.8509 4.11656C13.8509 4.63886 13.4236 5.05599 12.8966 5.05599C12.366 5.05599 11.9422 4.63535 11.9422 4.11656C11.9422 3.59777 12.3695 3.17712 12.8966 3.17712C13.4236 3.17712 13.8509 3.59777 13.8509 4.11656ZM16.5608 5.07001C16.5003 3.81159 16.2083 2.69689 15.2718 1.77849C14.3388 0.86009 13.2064 0.572651 11.928 0.509555C10.6104 0.435943 6.66128 0.435943 5.34372 0.509555C4.06888 0.569146 2.93649 0.856584 1.99995 1.77499C1.06341 2.69339 0.774969 3.80809 0.710871 5.06651C0.63609 6.36349 0.63609 10.2509 0.710871 11.5479C0.771408 12.8063 1.06341 13.921 1.99995 14.8394C2.93649 15.7578 4.06532 16.0453 5.34372 16.1084C6.66128 16.182 10.6104 16.182 11.928 16.1084C13.2064 16.0488 14.3388 15.7613 15.2718 14.8394C16.2047 13.921 16.4967 12.8063 16.5608 11.5479C16.6356 10.2509 16.6356 6.36699 16.5608 5.07001ZM14.8587 12.9395C14.5809 13.6266 14.0432 14.1559 13.3417 14.4328C12.2912 14.8429 9.79851 14.7483 8.63763 14.7483C7.47675 14.7483 4.9805 14.8394 3.93356 14.4328C3.23561 14.1594 2.6979 13.6301 2.41658 12.9395C1.99995 11.9054 2.0961 9.4517 2.0961 8.30896C2.0961 7.16621 2.00351 4.70896 2.41658 3.67839C2.69434 2.99134 3.23205 2.46203 3.93356 2.18511C4.98406 1.77499 7.47675 1.86963 8.63763 1.86963C9.79851 1.86963 12.2948 1.77849 13.3417 2.18511C14.0397 2.45853 14.5774 2.98784 14.8587 3.67839C15.2753 4.71247 15.1792 7.16621 15.1792 8.30896C15.1792 9.4517 15.2753 11.9089 14.8587 12.9395Z" fill="white"/>
</svg>
