<svg width="20" height="17" viewBox="0 0 20 17" fill="none" xmlns="http://www.w3.org/2000/svg">
<path d="M16.6 0.3125H3.4C2.49908 0.315138 1.6358 0.674198 0.998751 1.31125C0.361698 1.9483 0.00263816 2.81158 0 3.7125V12.9125C0.00263816 13.8134 0.361698 14.6767 0.998751 15.3137C1.6358 15.9508 2.49908 16.3099 3.4 16.3125H16.6C17.5009 16.3099 18.3642 15.9508 19.0012 15.3137C19.6383 14.6767 19.9974 13.8134 20 12.9125V3.7125C19.9974 2.81158 19.6383 1.9483 19.0012 1.31125C18.3642 0.674198 17.5009 0.315138 16.6 0.3125ZM16.41 5.9425L11.57 9.1125C11.114 9.43496 10.5684 9.60633 10.01 9.6025C9.43353 9.60291 8.87109 9.42475 8.4 9.0925L3.59 5.9425C3.50727 5.88866 3.43595 5.81905 3.38012 5.73764C3.32429 5.65624 3.28504 5.56464 3.26461 5.46806C3.24418 5.37149 3.24297 5.27184 3.26106 5.1748C3.27914 5.07776 3.31616 4.98523 3.37 4.9025C3.42384 4.81977 3.49345 4.74845 3.57486 4.69262C3.65626 4.63679 3.74786 4.59754 3.84444 4.57711C3.94101 4.55668 4.04066 4.55547 4.1377 4.57356C4.23474 4.59164 4.32727 4.62866 4.41 4.6825L9.25 7.8525C9.46515 8.00862 9.72417 8.0927 9.99 8.0927C10.2558 8.0927 10.5148 8.00862 10.73 7.8525L15.59 4.6625C15.6727 4.60866 15.7653 4.57164 15.8623 4.55356C15.9593 4.53547 16.059 4.53668 16.1556 4.55711C16.2521 4.57754 16.3437 4.61679 16.4251 4.67262C16.5065 4.72845 16.5762 4.79977 16.63 4.8825C16.6838 4.96523 16.7209 5.05776 16.7389 5.1548C16.757 5.25184 16.7558 5.35149 16.7354 5.44806C16.715 5.54464 16.6757 5.63624 16.6199 5.71764C16.5641 5.79905 16.4927 5.86866 16.41 5.9225V5.9425Z" fill="white"/>
</svg>
