<svg xmlns="http://www.w3.org/2000/svg" width="222" height="262" fill="none"><path fill="url(#a)" d="M180.562 182.475c47.381 15.507 54.688 43.599 16.318 62.745-38.369 19.146-107.886 22.1-155.271 6.593-47.385-15.506-54.688-43.595-16.319-62.745 38.37-19.15 107.887-22.096 155.272-6.593Z" style="mix-blend-mode:multiply"/><path fill="#001C63" d="M108.484 218.891c-22.786 0-44.285-3.091-62.15-8.942-25.129-8.224-39.554-20.926-40.617-35.765-.524-7.307 2.097-21.308 25.51-32.993 19.176-9.569 47.385-15.054 77.388-15.054 22.791 0 44.29 3.095 62.174 8.946 25.13 8.22 39.555 20.922 40.618 35.761.52 7.303-2.097 21.308-25.514 32.993-19.205 9.569-47.413 15.054-77.409 15.054Z" opacity=".2" style="mix-blend-mode:multiply"/><path fill="#001C63" d="M108.484 234.679c-22.786 0-44.285-3.096-62.15-8.947-25.129-8.224-39.554-20.922-40.617-35.761-.524-7.307 2.097-21.307 25.51-32.997 19.176-9.544 47.385-15.054 77.388-15.054 22.791 0 44.29 3.095 62.174 8.946 25.13 8.225 39.555 20.922 40.618 35.761.52 7.307-2.097 21.308-25.514 32.993-19.205 9.569-47.413 15.059-77.409 15.059Z" opacity=".2" style="mix-blend-mode:multiply"/><path fill="#001C63" d="M168.345 142.663c40.798 13.349 47.091 37.537 14.053 54.023-33.037 16.486-92.889 19.025-133.703 5.676-40.815-13.349-47.087-37.536-14.05-54.022 33.038-16.487 92.906-19.026 133.7-5.677Z" style="mix-blend-mode:multiply"/><g style="mix-blend-mode:multiply"><path fill="url(#b)" d="M156.172 148.738c32.489 10.635 37.502 29.897 11.191 43.026-26.311 13.13-73.983 15.154-106.476 4.523-32.494-10.631-37.503-29.876-11.191-43.026 26.311-13.15 73.982-15.154 106.476-4.523Z"/><path fill="url(#c)" d="M156.172 148.738c32.489 10.635 37.502 29.897 11.191 43.026-26.311 13.13-73.983 15.154-106.476 4.523-32.494-10.631-37.503-29.876-11.191-43.026 26.311-13.15 73.982-15.154 106.476-4.523Z"/><path fill="url(#d)" d="M156.172 148.738c32.489 10.635 37.502 29.897 11.191 43.026-26.311 13.13-73.983 15.154-106.476 4.523-32.494-10.631-37.503-29.876-11.191-43.026 26.311-13.15 73.982-15.154 106.476-4.523Z"/></g><path fill="#E6E6ED" d="M176.306 145.125h-13.42a71.331 71.331 0 0 0-11.706-4.917c-29.088-9.519-71.766-7.706-95.322 4.05-.572.286-1.116.576-1.656.867H40.885v14.743c-1.227 8.511 7.34 17.133 24.99 22.91 29.092 9.519 71.771 7.705 95.327-4.05 10.173-5.075 15.104-11.175 15.095-17.238l.009-16.365Z"/><path fill="#FAFAFF" d="M151.18 123.841c29.091 9.519 33.577 26.764 10.021 38.52-23.555 11.756-66.238 13.565-95.326 4.05-29.087-9.515-33.573-26.769-10.017-38.52 23.555-11.752 66.234-13.569 95.322-4.05Z"/><path fill="url(#e)" d="M108.456 172.623c37.474 0 67.853-12.312 67.853-27.499s-30.379-27.499-67.853-27.499c-37.475 0-67.853 12.312-67.853 27.499s30.378 27.499 67.853 27.499Z" style="mix-blend-mode:multiply"/><path fill="#E6E6ED" d="M176.305 118.019h-13.419a71.036 71.036 0 0 0-11.706-4.917c-29.088-9.519-71.767-7.706-95.322 4.05-.572.286-1.116.577-1.656.867H40.885v14.744c-1.227 8.51 7.34 17.133 24.99 22.909 29.092 9.519 71.771 7.706 95.326-4.05 10.173-5.075 15.104-11.175 15.096-17.237l.008-16.366Z"/><path fill="#FAFAFF" d="M151.18 96.719c29.091 9.519 33.577 26.764 10.021 38.52-23.555 11.756-66.238 13.565-95.326 4.046-29.087-9.519-33.573-26.765-10.017-38.516 23.555-11.752 66.234-13.553 95.322-4.05Z"/><path fill="url(#f)" d="M108.456 132.264c19.409 0 35.143-6.378 35.143-14.245 0-7.868-15.734-14.246-35.143-14.246-19.41 0-35.144 6.378-35.144 14.246 0 7.867 15.735 14.245 35.144 14.245Z" opacity=".25" style="mix-blend-mode:multiply"/><path fill="#001C63" d="M106.669 23.728c0 5.049-1.154 8.862-3.463 11.44-2.309 2.579-5.422 3.868-9.339 3.868-3.944 0-7.072-1.29-9.383-3.868-2.312-2.578-3.473-6.391-3.484-11.44v-7.843c0-5.05 1.146-8.864 3.439-11.44C86.73 1.87 89.852.582 93.802.582c3.93 0 7.056 1.292 9.376 3.876 2.319 2.583 3.478 6.393 3.475 11.428l.016 7.842Zm-8.525-8.444c0-2.858-.37-4.913-1.112-6.166a3.573 3.573 0 0 0-1.347-1.396 3.504 3.504 0 0 0-1.867-.476 3.435 3.435 0 0 0-1.866.468 3.504 3.504 0 0 0-1.335 1.404c-.714 1.253-1.073 3.308-1.076 6.166v8.983c0 2.913.363 4.988 1.088 6.225.316.585.787 1.07 1.358 1.398a3.5 3.5 0 0 0 1.88.465 3.452 3.452 0 0 0 1.856-.47 3.52 3.52 0 0 0 1.334-1.393c.725-1.242 1.087-3.317 1.087-6.225v-8.983ZM126.256.57c1.3-.015 2.597.11 3.872.369a24.32 24.32 0 0 1 3.745 1.195l-1.419 6.315a34.406 34.406 0 0 0-3.099-.805 15.202 15.202 0 0 0-3.05-.27 6.017 6.017 0 0 0-2.681.518 6.102 6.102 0 0 0-2.189 1.653c-1.221 1.444-1.807 3.553-1.758 6.328l.078.129a7.383 7.383 0 0 1 2.96-2.005 11.54 11.54 0 0 1 4.199-.717c3.287 0 5.847 1.202 7.679 3.605 1.832 2.404 2.746 5.482 2.743 9.233 0 3.696-1.21 6.774-3.631 9.233-2.42 2.46-5.51 3.687-9.269 3.685-4.034 0-7.29-1.345-9.768-4.034-2.478-2.689-3.718-6.37-3.721-11.042v-7.523c0-4.93 1.43-8.802 4.289-11.618 2.86-2.817 6.533-4.233 11.02-4.25Zm-1.697 19.386a8.571 8.571 0 0 0-3.046.486 4.779 4.779 0 0 0-2.012 1.352v2.2c0 2.697.435 4.771 1.304 6.224a4.088 4.088 0 0 0 1.517 1.597 4.01 4.01 0 0 0 2.114.565c1.281 0 2.327-.614 3.136-1.843a7.757 7.757 0 0 0 1.227-4.373c0-1.892-.393-3.397-1.178-4.515a3.605 3.605 0 0 0-1.315-1.25 3.548 3.548 0 0 0-1.747-.443Z"/><g clip-path="url(#g)"><path fill="#001C63" fill-rule="evenodd" d="m130.818 113.177-5.17-.927-2.564 4.593c-1.862 2.305-3.044-1.486-3.563-2.807l-4.991-9.413c1.15-.398 2.538-1.548 3.961-2.842 2.843.058 5.492-.434 7.439-2.913l5.734 11.077.497 1.066c.394 1.383.188 2.296-1.343 2.166ZM111.67 62.572c.971-.04 1.737.296 2.511.788.98.622 2.086 1.853 3.451 2.632 1.92 1.096 5.474-.416 7.291 2.287 1.061 1.576 1.11 2.811 1.191 4.033.085 1.316.318 2.529 1.665 4.31 2.233 2.954 2.699 4.92 1.549 6.965-.784 1.396-2.435 2.17-2.816 3.057-.814 1.88.085 3.298-1.025 5.492-.774 1.522-1.965 2.524-3.554 3.034-1.338.43-2.681-.192-3.755.26-1.884.792-3.272 2.632-4.771 3.097a5.678 5.678 0 0 1-1.732.264 5.68 5.68 0 0 1-1.733-.264c-1.499-.465-2.887-2.305-4.771-3.097-1.074-.452-2.417.174-3.755-.26-1.59-.51-2.78-1.513-3.554-3.034-1.115-2.194-.215-3.612-1.025-5.492-.38-.887-2.032-1.66-2.816-3.057-1.159-2.046-.693-4.01 1.54-6.96 1.347-1.782 1.58-2.995 1.665-4.31.08-1.223.13-2.458 1.19-4.033 1.823-2.704 5.376-1.191 7.292-2.288 1.365-.778 2.471-2.01 3.451-2.631.77-.497 1.54-.837 2.511-.793Zm-3.155 16.015 2.336 2.225 4.019-4.087c.399-.403.649-.725 1.137-.224l1.594 1.63c.523.519.496.819.004 1.302l-5.845 5.747c-1.039 1.02-.86 1.083-1.916.036l-4.015-3.993c-.219-.237-.197-.478.045-.716l1.848-1.915c.282-.296.506-.278.793-.005Zm3.155-8.75c5.989 0 10.845 4.856 10.845 10.845 0 5.989-4.856 10.845-10.845 10.845-5.989 0-10.845-4.856-10.845-10.845 0-5.993 4.856-10.845 10.845-10.845Zm-19.152 43.34 5.174-.927 2.564 4.593c1.862 2.305 3.044-1.486 3.563-2.807l4.991-9.413c-1.15-.398-2.538-1.548-3.961-2.842-2.842.058-5.492-.434-7.44-2.913l-5.737 11.077-.497 1.066c-.394 1.383-.188 2.296 1.343 2.166Z" clip-rule="evenodd"/></g><defs><radialGradient id="a" cx="0" cy="0" r="1" gradientTransform="matrix(107.502 0 0 42.5488 111.085 204.082)" gradientUnits="userSpaceOnUse"><stop stop-color="#1628B1"/><stop offset="1" stop-color="#fff"/></radialGradient><radialGradient id="b" cx="0" cy="0" r="1" gradientTransform="matrix(53.75844 -21.51545 14.84431 37.08996 115.532 171.802)" gradientUnits="userSpaceOnUse"><stop stop-color="#80E3C8"/><stop offset=".43" stop-color="#82E3C9"/><stop offset=".58" stop-color="#89E5CC"/><stop offset=".69" stop-color="#94E8D1"/><stop offset=".78" stop-color="#A5EBD8"/><stop offset=".86" stop-color="#BBF0E2"/><stop offset=".93" stop-color="#D7F6ED"/><stop offset=".99" stop-color="#F6FDFB"/><stop offset="1" stop-color="#fff"/></radialGradient><radialGradient id="c" cx="0" cy="0" r="1" gradientTransform="matrix(53.75844 -21.51545 14.84431 37.08996 115.532 171.802)" gradientUnits="userSpaceOnUse"><stop stop-color="#80E3C8"/><stop offset=".43" stop-color="#82E3C9"/><stop offset=".58" stop-color="#89E5CC"/><stop offset=".69" stop-color="#94E8D1"/><stop offset=".78" stop-color="#A5EBD8"/><stop offset=".86" stop-color="#BBF0E2"/><stop offset=".93" stop-color="#D7F6ED"/><stop offset=".99" stop-color="#F6FDFB"/><stop offset="1" stop-color="#fff"/></radialGradient><radialGradient id="d" cx="0" cy="0" r="1" gradientTransform="matrix(53.75844 -21.51545 14.84431 37.08996 115.532 171.802)" gradientUnits="userSpaceOnUse"><stop stop-color="#1628B1"/><stop offset=".38" stop-color="#182AB2"/><stop offset=".52" stop-color="#1F30B4"/><stop offset=".61" stop-color="#2A3BB8"/><stop offset=".69" stop-color="#3B4BBE"/><stop offset=".76" stop-color="#515FC5"/><stop offset=".82" stop-color="#6D78CE"/><stop offset=".87" stop-color="#8D96D9"/><stop offset=".92" stop-color="#B3B9E5"/><stop offset=".97" stop-color="#DCDFF3"/><stop offset="1" stop-color="#fff"/></radialGradient><radialGradient id="e" cx="0" cy="0" r="1" gradientTransform="matrix(67.6449 0 0 25.4005 108.456 148.578)" gradientUnits="userSpaceOnUse"><stop stop-color="#1628B1"/><stop offset="1" stop-color="#fff"/></radialGradient><radialGradient id="f" cx="0" cy="0" r="1" gradientTransform="matrix(35.0368 0 0 13.1562 108.456 121.436)" gradientUnits="userSpaceOnUse"><stop stop-color="#1628B1"/><stop offset="1" stop-color="#fff"/></radialGradient><clipPath id="g"><path fill="#fff" d="M91 62.568h41.335v55H91z"/></clipPath></defs></svg>