<svg xmlns="http://www.w3.org/2000/svg" width="221" height="264" fill="none"><path fill="url(#a)" d="M180.024 184.374c47.385 15.507 54.712 43.595 16.318 62.728-38.393 19.134-107.886 22.097-155.267 6.594s-54.692-43.595-16.323-62.745c38.37-19.15 107.891-22.08 155.272-6.577Z" style="mix-blend-mode:multiply"/><path fill="#8EDBDC" d="M110.479 220.081c-22.787 0-44.286-3.096-62.15-8.947-25.13-8.22-39.555-20.922-40.618-35.76-.523-7.304 2.097-21.308 25.514-32.993 19.172-9.569 47.38-15.055 77.388-15.055 22.787 0 44.286 3.092 62.15 8.942 25.13 8.225 39.555 20.927 40.618 35.765.523 7.308-2.097 21.308-25.514 32.993-19.172 9.569-47.381 15.055-77.388 15.055Z" opacity=".2" style="mix-blend-mode:multiply"/><path fill="#029894" d="M170.354 143.854c40.794 13.349 47.087 37.537 14.049 54.019-33.037 16.482-92.889 19.03-133.703 5.68-40.814-13.349-47.09-37.536-14.053-54.022 33.037-16.486 92.909-19.03 133.707-5.677Z" style="mix-blend-mode:multiply"/><g style="mix-blend-mode:multiply"><path fill="url(#b)" d="M158.178 149.929c32.493 10.631 37.502 29.876 11.191 43.026-26.312 13.15-73.983 15.154-106.476 4.523-32.494-10.631-37.503-29.897-11.191-43.026 26.311-13.13 73.982-15.155 106.476-4.523Z"/><path fill="url(#c)" d="M158.178 149.929c32.493 10.631 37.502 29.876 11.191 43.026-26.312 13.15-73.983 15.154-106.476 4.523-32.494-10.631-37.503-29.897-11.191-43.026 26.311-13.13 73.982-15.155 106.476-4.523Z"/><path fill="url(#d)" d="M158.178 149.929c32.493 10.631 37.502 29.876 11.191 43.026-26.312 13.15-73.983 15.154-106.476 4.523-32.494-10.631-37.503-29.897-11.191-43.026 26.311-13.13 73.982-15.155 106.476-4.523Z"/></g><path fill="#8EDBDC" d="M110.479 235.866c-22.787 0-44.286-3.092-62.15-8.942-25.13-8.225-39.555-20.927-40.618-35.761-.523-7.307 2.097-21.308 25.514-32.993 19.172-9.569 47.38-15.059 77.388-15.059 22.787 0 44.286 3.096 62.15 8.947 25.13 8.22 39.555 20.922 40.618 35.76.523 7.308-2.097 21.308-25.514 32.993-19.172 9.569-47.381 15.055-77.388 15.055Z" opacity=".2" style="mix-blend-mode:multiply"/><path fill="#E6EDEB" d="M178.311 146.314h-13.423a70.969 70.969 0 0 0-11.703-4.917c-29.091-9.519-71.77-7.706-95.326 4.05a37.99 37.99 0 0 0-1.635.867h-13.33v14.744c-1.226 8.51 7.36 17.133 24.987 22.909 29.092 9.515 71.771 7.706 95.326-4.05 10.173-5.075 15.104-11.175 15.096-17.237l.008-16.366Z"/><path fill="#FAFFFE" d="M153.19 125.032c29.087 9.519 33.573 26.764 10.017 38.52-23.555 11.755-66.238 13.565-95.326 4.046-29.087-9.519-33.573-26.765-10.017-38.521 23.555-11.755 66.234-13.564 95.326-4.045Z"/><path fill="url(#e)" d="M110.536 173.784c37.433 0 67.78-12.299 67.78-27.47 0-15.172-30.347-27.47-67.78-27.47-37.434 0-67.78 12.298-67.78 27.47 0 15.171 30.346 27.47 67.78 27.47Z" style="mix-blend-mode:multiply"/><path fill="#E6EDEB" d="M178.311 119.211h-13.423a70.59 70.59 0 0 0-11.703-4.917c-29.091-9.52-71.77-7.706-95.326 4.049-.572.283-1.112.577-1.635.868h-13.33v14.743c-1.226 8.511 7.36 17.129 24.987 22.905 29.092 9.519 71.771 7.71 95.326-4.045 10.173-5.079 15.104-11.179 15.096-17.238l.008-16.365Z"/><path fill="#FAFFFE" d="M153.19 97.928c29.087 9.519 33.573 26.764 10.017 38.52-23.555 11.756-66.238 13.565-95.326 4.046-29.087-9.519-33.573-26.765-10.017-38.52 23.555-11.756 66.234-13.565 95.326-4.046Z"/><path fill="url(#f)" d="M110.536 133.456c19.409 0 35.143-6.378 35.143-14.246 0-7.867-15.734-14.245-35.143-14.245-19.41 0-35.143 6.378-35.143 14.245 0 7.868 15.734 14.246 35.143 14.246Z" opacity=".25" style="mix-blend-mode:multiply"/><path fill="#029894" d="M108.43 23.477c0 5.052-1.156 8.865-3.468 11.44-2.311 2.576-5.424 3.864-9.338 3.864-3.947 0-7.082-1.288-9.405-3.864-2.322-2.575-3.478-6.388-3.467-11.44v-7.859c0-5.051 1.148-8.865 3.443-11.44C88.49 1.602 91.61.315 95.554.315c3.928 0 7.053 1.293 9.376 3.88 2.322 2.586 3.482 6.394 3.479 11.423l.021 7.86ZM99.9 15.03c0-2.86-.37-4.915-1.112-6.162a3.573 3.573 0 0 0-1.346-1.398 3.504 3.504 0 0 0-1.867-.478c-.654-.023-1.3.14-1.866.472a3.517 3.517 0 0 0-1.336 1.404c-.714 1.25-1.073 3.304-1.075 6.162v8.988c0 2.907.362 4.982 1.087 6.224.316.586.786 1.07 1.358 1.4.572.329 1.223.49 1.88.463.65.023 1.294-.14 1.857-.47a3.512 3.512 0 0 0 1.333-1.393c.728-1.242 1.09-3.317 1.087-6.224v-8.988ZM138.649 38.24H112.89v-5.647l11.857-12.635a25.264 25.264 0 0 0 3.312-4.672 7.987 7.987 0 0 0 1.063-3.569 5.182 5.182 0 0 0-1.075-3.444c-.714-.855-1.789-1.282-3.226-1.282a3.417 3.417 0 0 0-1.729.421c-.53.292-.975.718-1.293 1.239a7.474 7.474 0 0 0-1.099 4.224h-8.354l-.049-.154c-.076-1.62.182-3.24.757-4.753a11.7 11.7 0 0 1 2.584-4.04c2.311-2.406 5.372-3.61 9.183-3.61 4.048 0 7.207 1.01 9.478 3.03 2.27 2.019 3.404 4.785 3.402 8.299a11.083 11.083 0 0 1-1.808 6.265c-1.204 1.812-3.427 4.508-6.668 8.088l-4.985 5.42.074.153h14.335v6.668ZM88.653 101.65h41.694a2.883 2.883 0 0 0 2.881-2.882V74.234c0-1.59-1.29-2.88-2.881-2.88H88.653a2.88 2.88 0 0 0-2.88 2.88v24.534c0 1.59 1.29 2.882 2.88 2.882Zm1.524-26.426h38.645V97.1H90.177V75.224ZM136.573 109.643l-5.139-4.562c-.331-.292-.806-.458-1.308-.458H88.873c-.501 0-.977.166-1.307.458l-5.14 4.562c-.275.244-.426.557-.426.881v1.59c0 .371.388.67.866.67h53.268c.48 0 .866-.299.866-.67v-1.59c0-.324-.152-.637-.427-.881Zm-32.966.539 1.487-2.011h9.425l1.485 2.011h-12.397Z"/><path fill="#029894" d="m102.318 86.157-.477-.068c-1.222-.17-1.659-.596-1.659-1.22 0-.703.503-1.207 1.42-1.207.756 0 1.433.225 2.163.703l.186-.04.638-.983-.028-.185c-.716-.544-1.792-.901-2.919-.901-1.858 0-3.053 1.086-3.053 2.72 0 1.5.982 2.335 2.72 2.574l.479.067c1.247.172 1.645.596 1.645 1.246 0 .756-.624 1.301-1.699 1.301-1.008 0-1.871-.49-2.455-.954l-.185.012-.823.956.026.2c.704.662 1.991 1.192 3.318 1.192 2.244 0 3.398-1.192 3.398-2.798 0-1.554-.956-2.378-2.695-2.615ZM106.699 82.4l-.133.133v8.76l.133.133h5.653l.133-.132v-1.142l-.133-.132h-4.14l-.079-.081v-2.283l.079-.08h3.491l.133-.132v-1.141l-.133-.133h-3.491l-.079-.08v-2.203l.079-.08h4.14l.133-.133v-1.141l-.133-.133h-5.653ZM117.292 82.256c-1.553 0-2.72.742-3.185 2.175-.186.557-.24 1.062-.24 2.482 0 1.42.054 1.925.24 2.482.465 1.433 1.632 2.175 3.185 2.175 1.566 0 2.733-.742 3.198-2.175.186-.557.24-1.062.24-2.482 0-1.42-.054-1.925-.24-2.482-.465-1.433-1.632-2.175-3.198-2.175Zm1.685 6.727c-.252.731-.782 1.181-1.684 1.181-.89 0-1.421-.45-1.674-1.181-.105-.332-.159-.797-.159-2.07 0-1.288.054-1.738.159-2.071.253-.73.784-1.18 1.674-1.18.902 0 1.432.45 1.684 1.18.106.333.161.783.161 2.07 0 1.274-.055 1.739-.161 2.07Z"/><defs><radialGradient id="a" cx="0" cy="0" r="1" gradientTransform="matrix(107.502 0 0 42.5488 110.547 205.976)" gradientUnits="userSpaceOnUse"><stop stop-color="#8EDBDC"/><stop offset="1" stop-color="#fff"/></radialGradient><radialGradient id="b" cx="0" cy="0" r="1" gradientTransform="rotate(-21.812 505.704 -208.292) scale(57.9042 39.9502)" gradientUnits="userSpaceOnUse"><stop stop-color="#8EDBDC"/><stop offset=".44" stop-color="#90DCDD"/><stop offset=".6" stop-color="#97DEDF"/><stop offset=".71" stop-color="#A2E2E2"/><stop offset=".8" stop-color="#B3E7E8"/><stop offset=".88" stop-color="#C9EEEE"/><stop offset=".95" stop-color="#E4F6F7"/><stop offset="1" stop-color="#fff"/></radialGradient><radialGradient id="c" cx="0" cy="0" r="1" gradientTransform="rotate(-21.812 505.704 -208.292) scale(57.9042 39.9502)" gradientUnits="userSpaceOnUse"><stop stop-color="#80E3C8"/><stop offset=".43" stop-color="#82E3C9"/><stop offset=".58" stop-color="#89E5CC"/><stop offset=".69" stop-color="#94E8D1"/><stop offset=".78" stop-color="#A5EBD8"/><stop offset=".86" stop-color="#BBF0E2"/><stop offset=".93" stop-color="#D7F6ED"/><stop offset=".99" stop-color="#F6FDFB"/><stop offset="1" stop-color="#fff"/></radialGradient><radialGradient id="d" cx="0" cy="0" r="1" gradientTransform="rotate(-21.812 505.704 -208.292) scale(57.9042 39.9502)" gradientUnits="userSpaceOnUse"><stop stop-color="#80E3C8"/><stop offset=".43" stop-color="#82E3C9"/><stop offset=".58" stop-color="#89E5CC"/><stop offset=".69" stop-color="#94E8D1"/><stop offset=".78" stop-color="#A5EBD8"/><stop offset=".86" stop-color="#BBF0E2"/><stop offset=".93" stop-color="#D7F6ED"/><stop offset=".99" stop-color="#F6FDFB"/><stop offset="1" stop-color="#fff"/></radialGradient><radialGradient id="e" cx="0" cy="0" r="1" gradientTransform="matrix(67.5713 0 0 25.3728 110.536 149.767)" gradientUnits="userSpaceOnUse"><stop stop-color="#8EDBDC"/><stop offset="1" stop-color="#fff"/></radialGradient><radialGradient id="f" cx="0" cy="0" r="1" gradientTransform="matrix(35.0368 0 0 13.1562 110.536 122.627)" gradientUnits="userSpaceOnUse"><stop stop-color="#8EDBDC"/><stop offset="1" stop-color="#fff"/></radialGradient></defs></svg>