<svg xmlns="http://www.w3.org/2000/svg" width="222" height="269" fill="none"><path fill="url(#a)" d="M180.142 189.498c47.405 15.503 54.691 43.595 16.33 62.733-38.361 19.137-107.887 22.1-155.272 6.597-47.384-15.502-54.687-43.599-16.318-62.745 38.37-19.146 107.875-22.092 155.26-6.585Z" style="mix-blend-mode:multiply"/><path fill="#029894" d="M110.607 225.915c-22.786 0-44.285-3.096-62.15-8.947-25.129-8.224-39.554-20.922-40.617-35.76-.524-7.308 2.097-21.308 25.514-32.993 19.172-9.569 47.38-15.055 77.388-15.055 22.787 0 44.286 3.092 62.17 8.942 25.13 8.225 39.555 20.926 40.618 35.765.524 7.303-2.097 21.304-25.514 32.989-19.192 9.569-47.401 15.059-77.409 15.059Z" opacity=".2" style="mix-blend-mode:multiply"/><path fill="#029894" d="M170.484 149.686c40.794 13.349 47.086 37.533 14.049 54.019-33.038 16.486-92.89 19.03-133.703 5.681-40.815-13.349-47.087-37.537-14.05-54.023 33.038-16.486 92.906-19.026 133.704-5.677Z" style="mix-blend-mode:multiply"/><path fill="url(#b)" d="M158.308 155.762c32.493 10.631 37.502 29.877 11.191 43.026-26.312 13.15-73.983 15.155-106.476 4.519-32.494-10.635-37.503-29.876-11.192-43.022 26.312-13.146 73.983-15.154 106.477-4.523Z"/><path fill="url(#c)" d="M158.308 155.762c32.493 10.631 37.502 29.877 11.191 43.026-26.312 13.15-73.983 15.155-106.476 4.519-32.494-10.635-37.503-29.876-11.192-43.022 26.312-13.146 73.983-15.154 106.477-4.523Z"/><path fill="url(#d)" d="M158.308 155.762c32.493 10.631 37.502 29.877 11.191 43.026-26.312 13.15-73.983 15.155-106.476 4.519-32.494-10.635-37.503-29.876-11.192-43.022 26.312-13.146 73.983-15.154 106.477-4.523Z"/><path fill="#029894" d="M110.607 241.698c-22.786 0-44.285-3.091-62.15-8.946-25.129-8.221-39.554-20.922-40.617-35.761-.524-7.308 2.097-21.308 25.514-32.993 19.172-9.569 47.38-15.055 77.388-15.055 22.787 0 44.286 3.092 62.17 8.947 25.13 8.22 39.555 20.922 40.618 35.76.524 7.304-2.097 21.308-25.514 32.993-19.192 9.565-47.401 15.055-77.409 15.055Z" opacity=".2" style="mix-blend-mode:multiply"/><path fill="#E6EFEC" d="M178.445 152.148h-13.424a70.632 70.632 0 0 0-11.702-4.901c-29.092-9.519-71.77-7.706-95.326 4.046-.572.286-1.112.577-1.635.871H43.024v14.739c-1.227 8.515 7.36 17.134 24.987 22.91 29.091 9.519 71.77 7.706 95.326-4.046 10.173-5.079 15.104-11.179 15.096-17.237l.012-16.382Z"/><path fill="#F8FFFD" d="M153.319 130.864c29.087 9.519 33.573 26.764 10.017 38.515-23.555 11.752-66.238 13.569-95.326 4.05-29.088-9.519-33.573-26.764-10.017-38.52 23.555-11.755 66.234-13.565 95.326-4.045Z"/><path fill="url(#e)" d="M110.592 179.646c37.474 0 67.853-12.311 67.853-27.499 0-15.187-30.379-27.499-67.853-27.499-37.475 0-67.854 12.312-67.854 27.499 0 15.188 30.38 27.499 67.854 27.499Z" style="mix-blend-mode:multiply"/><path fill="#E6EFEC" d="M178.445 125.042h-13.423a70.712 70.712 0 0 0-11.703-4.917c-29.091-9.519-71.77-7.71-95.326 4.046-.572.286-1.112.577-1.635.871H43.024v14.735c-1.226 8.515 7.36 17.134 24.987 22.91 29.092 9.519 71.77 7.706 95.326-4.05 10.173-5.075 15.104-11.175 15.096-17.233l.012-16.362Z"/><path fill="#F8FFFD" d="M153.319 103.755c29.087 9.519 33.573 26.764 10.017 38.52-23.555 11.755-66.238 13.569-95.326 4.05-29.088-9.519-33.573-26.765-10.017-38.52 23.555-11.756 66.234-13.565 95.326-4.05Z"/><path fill="url(#f)" d="M110.591 139.288c19.409 0 35.143-6.378 35.143-14.246 0-7.867-15.734-14.245-35.143-14.245s-35.143 6.378-35.143 14.245c0 7.868 15.734 14.246 35.143 14.246Z" opacity=".25" style="mix-blend-mode:multiply"/><path fill="#029894" d="M108.489 23.651c0 5.049-1.156 8.862-3.467 11.44-2.312 2.578-5.423 3.864-9.335 3.855-3.95 0-7.084-1.288-9.404-3.863-2.32-2.575-3.476-6.389-3.468-11.44v-7.851c0-5.052 1.148-8.865 3.443-11.44 2.295-2.576 5.415-3.864 9.36-3.864 3.93 0 7.055 1.294 9.375 3.88 2.32 2.587 3.48 6.394 3.48 11.424l.016 7.859Zm-8.513-8.448c0-2.858-.37-4.912-1.112-6.162a3.57 3.57 0 0 0-1.346-1.4 3.5 3.5 0 0 0-1.868-.476c-.653-.023-1.3.14-1.866.472A3.517 3.517 0 0 0 92.45 9.04c-.715 1.25-1.073 3.304-1.076 6.162v8.987c0 2.908.364 4.983 1.092 6.225a3.553 3.553 0 0 0 1.357 1.4c.572.33 1.224.49 1.881.463a3.44 3.44 0 0 0 1.855-.47 3.509 3.509 0 0 0 1.33-1.393c.728-1.242 1.09-3.317 1.088-6.225v-8.987ZM131.051 38.414h-8.521V9.732h-8.222V3.62l16.764-2.618-.021 37.412Z"/><g clip-path="url(#g)"><path fill="#029894" d="m95.065 110.28 3.49-2.739 3.972 1.945-1.485-4.209 3.053-3.229-4.405.14-2.087-3.942-1.237 4.297-4.345.793 3.646 2.52-.602 4.424Zm16.184 4.115 1.669-4.143 4.396-.332-3.361-2.893 1.053-4.349-3.752 2.357-3.752-2.357 1.053 4.349-3.37 2.893 4.395.332 1.669 4.143ZM98.251 83.062c2.042-.775 4.649-1.764 6.525-2.945 2.151 2.025 3.549 4.33 3.66 7.13h5.646c.11-2.8 1.508-5.105 3.66-7.13 1.876 1.18 4.483 2.165 6.524 2.945 6.014 2.282 3.076 6.448-.432 9.957a17.742 17.742 0 0 1-12.58 5.203 17.73 17.73 0 0 1-12.58-5.203c-3.457-3.457-6.478-7.662-.423-9.957Zm8.575-5.791c.092-.765-2.133-3.663-2.538-5.058-.873-1.4-1.181-3.64-.23-5.124.382-.588.216-1.642.216-2.45 0-8.077 13.946-8.086 13.946 0 0 1.022-.23 1.802.317 2.604.915 1.344.442 3.729-.331 4.98-.492 1.46-2.828 4.227-2.662 5.057.138 4.14-8.75 4.004-8.718-.01Zm32.673 20.76-2.699-3.537 1.917-4.032-4.152 1.512-3.181-3.098.138 4.47-3.886 2.118 4.235 1.251.782 4.41 2.478-3.7 4.368.606Zm-12.065 12.249-.593-4.438 3.646-2.52-4.34-.798-1.233-4.297-2.087 3.943-4.409-.14 3.053 3.229-1.499 4.218 3.972-1.946 3.49 2.749ZM83 98.026l4.373-.602 2.483 3.701.786-4.405 4.234-1.25-3.885-2.12.138-4.47-3.186 3.099-4.161-1.517 1.917 4.032L83 98.026Z"/></g><defs><radialGradient id="a" cx="0" cy="0" r="1" gradientTransform="matrix(107.502 0 0 42.5488 110.665 211.875)" gradientUnits="userSpaceOnUse"><stop stop-color="#80E3C8"/><stop offset="1" stop-color="#fff"/></radialGradient><radialGradient id="b" cx="0" cy="0" r="1" gradientTransform="rotate(-21.812 522.495 -202.747) scale(57.9042 39.9502)" gradientUnits="userSpaceOnUse"><stop stop-color="#80E3C8"/><stop offset=".43" stop-color="#82E3C9"/><stop offset=".58" stop-color="#89E5CC"/><stop offset=".69" stop-color="#94E8D1"/><stop offset=".78" stop-color="#A5EBD8"/><stop offset=".86" stop-color="#BBF0E2"/><stop offset=".93" stop-color="#D7F6ED"/><stop offset=".99" stop-color="#F6FDFB"/><stop offset="1" stop-color="#fff"/></radialGradient><radialGradient id="c" cx="0" cy="0" r="1" gradientTransform="rotate(-21.812 522.495 -202.747) scale(57.9042 39.9502)" gradientUnits="userSpaceOnUse"><stop stop-color="#80E3C8"/><stop offset=".43" stop-color="#82E3C9"/><stop offset=".58" stop-color="#89E5CC"/><stop offset=".69" stop-color="#94E8D1"/><stop offset=".78" stop-color="#A5EBD8"/><stop offset=".86" stop-color="#BBF0E2"/><stop offset=".93" stop-color="#D7F6ED"/><stop offset=".99" stop-color="#F6FDFB"/><stop offset="1" stop-color="#fff"/></radialGradient><radialGradient id="d" cx="0" cy="0" r="1" gradientTransform="rotate(-21.812 522.495 -202.747) scale(57.9042 39.9502)" gradientUnits="userSpaceOnUse"><stop stop-color="#80E3C8"/><stop offset=".43" stop-color="#82E3C9"/><stop offset=".58" stop-color="#89E5CC"/><stop offset=".69" stop-color="#94E8D1"/><stop offset=".78" stop-color="#A5EBD8"/><stop offset=".86" stop-color="#BBF0E2"/><stop offset=".93" stop-color="#D7F6ED"/><stop offset=".99" stop-color="#F6FDFB"/><stop offset="1" stop-color="#fff"/></radialGradient><radialGradient id="e" cx="0" cy="0" r="1" gradientTransform="matrix(67.6449 0 0 25.4004 110.592 155.396)" gradientUnits="userSpaceOnUse"><stop stop-color="#80E3C8"/><stop offset="1" stop-color="#fff"/></radialGradient><radialGradient id="f" cx="0" cy="0" r="1" gradientTransform="matrix(35.0368 0 0 13.1562 110.591 128.254)" gradientUnits="userSpaceOnUse"><stop stop-color="#80E3C8"/><stop offset="1" stop-color="#fff"/></radialGradient><clipPath id="g"><path fill="#fff" d="M83 58.578h56.499v55.817H83z"/></clipPath></defs></svg>