<svg xmlns="http://www.w3.org/2000/svg" width="221" height="269" fill="none"><path fill="url(#a)" d="M179.956 189.497c47.385 15.502 54.691 43.595 16.318 62.741-38.373 19.146-107.887 22.1-155.268 6.597-47.38-15.502-54.691-43.599-16.322-62.745 38.37-19.146 107.891-22.1 155.272-6.593Z" style="mix-blend-mode:multiply"/><path fill="#029894" d="M110.426 225.913c-22.79 0-44.285-3.096-62.17-8.946-25.134-8.225-39.559-20.922-40.622-35.761-.52-7.307 2.098-21.308 25.514-32.993 19.172-9.569 47.381-15.059 77.389-15.059 22.786 0 44.285 3.096 62.149 8.947 25.13 8.224 39.555 20.926 40.618 35.765.524 7.303-2.093 21.307-25.51 32.992-19.156 9.565-47.36 15.055-77.368 15.055Z" opacity=".2" style="mix-blend-mode:multiply"/><path fill="#029894" d="M170.299 149.686c40.798 13.349 47.086 37.533 14.049 54.019-33.037 16.486-92.889 19.03-133.703 5.681-40.815-13.349-47.087-37.537-14.053-54.023 33.033-16.486 92.893-19.026 133.707-5.677Z" style="mix-blend-mode:multiply"/><g style="mix-blend-mode:multiply"><path fill="url(#b)" d="M158.106 155.762c32.493 10.631 37.502 29.877 11.191 43.026-26.312 13.15-73.983 15.155-106.472 4.519-32.49-10.635-37.507-29.876-11.191-43.022 26.315-13.146 73.999-15.154 106.472-4.523Z"/><path fill="url(#c)" d="M158.106 155.762c32.493 10.631 37.502 29.877 11.191 43.026-26.312 13.15-73.983 15.155-106.472 4.519-32.49-10.635-37.507-29.876-11.191-43.022 26.315-13.146 73.999-15.154 106.472-4.523Z"/><path fill="url(#d)" d="M158.106 155.762c32.493 10.631 37.502 29.877 11.191 43.026-26.312 13.15-73.983 15.155-106.472 4.519-32.49-10.635-37.507-29.876-11.191-43.022 26.315-13.146 73.999-15.154 106.472-4.523Z"/></g><path fill="#029894" d="M110.426 241.698c-22.79 0-44.285-3.091-62.17-8.946-25.134-8.221-39.559-20.922-40.622-35.761-.52-7.303 2.098-21.308 25.514-32.993 19.172-9.569 47.381-15.055 77.389-15.055 22.786 0 44.285 3.092 62.149 8.947 25.13 8.22 39.555 20.922 40.618 35.76.524 7.308-2.093 21.308-25.51 32.993-19.156 9.569-47.36 15.055-77.368 15.055Z" opacity=".2" style="mix-blend-mode:multiply"/><path fill="#E6EBED" d="M178.26 152.147h-13.42a70.832 70.832 0 0 0-11.706-4.918c-29.088-9.519-71.766-7.705-95.326 4.046-.572.287-1.112.577-1.635.872H42.855v14.739c-1.226 8.515 7.36 17.133 24.991 22.909 29.088 9.519 71.766 7.706 95.322-4.045 10.173-5.079 15.104-11.179 15.096-17.238l-.004-16.365Z"/><path fill="#FAFDFF" d="M153.134 130.864c29.092 9.519 33.577 26.764 10.018 38.515-23.56 11.752-66.239 13.569-95.322 4.05-29.084-9.519-33.578-26.764-10.022-38.52 23.556-11.755 66.238-13.565 95.326-4.045Z"/><path fill="url(#e)" d="M110.406 179.646c37.475 0 67.854-12.311 67.854-27.499 0-15.187-30.379-27.499-67.854-27.499-37.474 0-67.853 12.312-67.853 27.499 0 15.188 30.379 27.499 67.853 27.499Z" style="mix-blend-mode:multiply"/><path fill="#E6EBED" d="M178.26 125.042h-13.42a70.914 70.914 0 0 0-11.706-4.917c-29.088-9.519-71.766-7.71-95.326 4.046-.572.286-1.112.577-1.635.871H42.855v14.735c-1.226 8.515 7.36 17.134 24.991 22.91 29.088 9.519 71.766 7.706 95.322-4.05 10.173-5.075 15.104-11.175 15.096-17.233l-.004-16.362Z"/><path fill="#FAFDFF" d="M153.134 103.755c29.092 9.519 33.577 26.764 10.018 38.52-23.56 11.755-66.239 13.569-95.322 4.05-29.084-9.519-33.578-26.765-10.022-38.52 23.556-11.756 66.238-13.565 95.326-4.05Z"/><path fill="url(#f)" d="M110.406 139.288c19.409 0 35.143-6.378 35.143-14.246 0-7.867-15.734-14.245-35.143-14.245-19.41 0-35.143 6.378-35.143 14.245 0 7.868 15.734 14.246 35.143 14.246Z" opacity=".25" style="mix-blend-mode:multiply"/><path fill="#029894" d="M108.304 23.651c0 5.049-1.155 8.862-3.467 11.44-2.311 2.578-5.423 3.866-9.335 3.864-3.95 0-7.084-1.288-9.404-3.864-2.32-2.575-3.475-6.389-3.467-11.44v-7.86c0-5.05 1.147-8.863 3.443-11.435C88.369 1.783 91.489.494 95.433.488c3.933 0 7.059 1.294 9.375 3.88 2.317 2.587 3.477 6.394 3.48 11.424l.016 7.859Zm-8.525-8.448c0-2.858-.372-4.912-1.116-6.162a3.57 3.57 0 0 0-1.346-1.4 3.5 3.5 0 0 0-1.868-.476 3.436 3.436 0 0 0-1.864.471 3.505 3.505 0 0 0-1.333 1.405c-.72 1.25-1.078 3.304-1.075 6.162v8.987c0 2.908.362 4.983 1.087 6.225.33.567.8 1.036 1.364 1.363a3.69 3.69 0 0 0 3.7 0 3.76 3.76 0 0 0 1.364-1.363c.722-1.245 1.085-3.32 1.087-6.225v-8.987ZM120.526 16.123h4.023c1.535 0 2.715-.415 3.541-1.244.826-.83 1.235-1.994 1.227-3.49a4.217 4.217 0 0 0-1.113-2.98c-.744-.805-1.819-1.207-3.238-1.207a4.695 4.695 0 0 0-2.936.975 3.03 3.03 0 0 0-.939 1.1c-.22.44-.331.927-.324 1.419h-8.3l-.049-.154c-.101-2.979 1.053-5.393 3.463-7.24 2.409-1.849 5.337-2.774 8.782-2.777 3.994 0 7.19.93 9.589 2.789 2.398 1.859 3.596 4.487 3.594 7.884a7.804 7.804 0 0 1-1.558 4.685 10.44 10.44 0 0 1-4.162 3.349 9.942 9.942 0 0 1 4.632 3.352 8.765 8.765 0 0 1 1.668 5.395c0 3.427-1.29 6.12-3.872 8.079-2.581 1.958-5.878 2.938-9.891 2.938a15.276 15.276 0 0 1-9.073-2.76c-2.586-1.842-3.839-4.509-3.757-8l.053-.154h8.349a3.879 3.879 0 0 0 1.378 3.017 4.864 4.864 0 0 0 3.353 1.22 4.988 4.988 0 0 0 3.594-1.282 4.266 4.266 0 0 0 1.014-1.472c.231-.558.343-1.16.327-1.765 0-1.812-.469-3.134-1.406-3.967-.938-.832-2.257-1.247-3.958-1.245h-4.024l.013-6.465ZM108.922 77.207c-1.165 0-2.241.603-3.029 1.698-.524.729-.877 1.624-1.031 2.592H93.051a1.13 1.13 0 0 0-.03 2.258v3.052a1.13 1.13 0 1 0 2.259 0v-3.05h1.506v3.05a1.13 1.13 0 0 0 2.26 0v-3.05h5.816c.155.968.507 1.863 1.031 2.591.788 1.096 1.864 1.699 3.03 1.699 1.166 0 2.242-.603 3.029-1.698.724-1.006 1.122-2.328 1.122-3.722 0-1.394-.399-2.716-1.122-3.722-.788-1.095-1.864-1.698-3.03-1.698Zm0 8.727c-1.163 0-2.146-1.515-2.146-3.307s.983-3.307 2.146-3.307c1.164 0 2.147 1.515 2.147 3.307s-.983 3.307-2.147 3.307Z"/><path fill="#029894" d="m136.276 108.52-9.561-9.562a5.867 5.867 0 0 0-3.793-1.71L119.675 94c4.825-7.671 3.901-17.95-2.771-24.623-7.746-7.745-20.35-7.745-28.095 0-7.745 7.746-7.745 20.35 0 28.095 6.673 6.673 16.951 7.596 24.622 2.771l3.248 3.248a5.865 5.865 0 0 0 1.711 3.792l9.562 9.561a5.886 5.886 0 0 0 8.324-8.324Zm-23.535-15.21c-5.45 5.45-14.32 5.45-19.77 0-5.45-5.451-5.45-14.32 0-19.77 5.45-5.451 14.319-5.451 19.77 0 5.451 5.45 5.451 14.32 0 19.77Z"/><defs><radialGradient id="a" cx="0" cy="0" r="1" gradientTransform="matrix(107.502 0 0 42.5488 110.479 211.873)" gradientUnits="userSpaceOnUse"><stop stop-color="#7FD4F9"/><stop offset="1" stop-color="#fff"/></radialGradient><radialGradient id="b" cx="0" cy="0" r="1" gradientTransform="rotate(-21.812 523.391 -207.397) scale(57.9042 39.9502)" gradientUnits="userSpaceOnUse"><stop stop-color="#7FD4F9"/><stop offset=".43" stop-color="#81D5F9"/><stop offset=".58" stop-color="#88D7F9"/><stop offset=".69" stop-color="#93DBFA"/><stop offset=".78" stop-color="#A4E1FB"/><stop offset=".86" stop-color="#BAE8FC"/><stop offset=".92" stop-color="#D6F1FD"/><stop offset=".98" stop-color="#F5FCFF"/><stop offset="1" stop-color="#fff"/></radialGradient><radialGradient id="c" cx="0" cy="0" r="1" gradientTransform="rotate(-21.812 523.391 -207.397) scale(57.9042 39.9502)" gradientUnits="userSpaceOnUse"><stop stop-color="#80E3C8"/><stop offset=".43" stop-color="#82E3C9"/><stop offset=".58" stop-color="#89E5CC"/><stop offset=".69" stop-color="#94E8D1"/><stop offset=".78" stop-color="#A5EBD8"/><stop offset=".86" stop-color="#BBF0E2"/><stop offset=".93" stop-color="#D7F6ED"/><stop offset=".99" stop-color="#F6FDFB"/><stop offset="1" stop-color="#fff"/></radialGradient><radialGradient id="d" cx="0" cy="0" r="1" gradientTransform="rotate(-21.812 523.391 -207.397) scale(57.9042 39.9502)" gradientUnits="userSpaceOnUse"><stop stop-color="#7FD4F9"/><stop offset=".43" stop-color="#81D5F9"/><stop offset=".58" stop-color="#88D7F9"/><stop offset=".69" stop-color="#93DBFA"/><stop offset=".78" stop-color="#A4E1FB"/><stop offset=".86" stop-color="#BAE8FC"/><stop offset=".92" stop-color="#D6F1FD"/><stop offset=".98" stop-color="#F5FCFF"/><stop offset="1" stop-color="#fff"/></radialGradient><radialGradient id="e" cx="0" cy="0" r="1" gradientTransform="matrix(67.6449 0 0 25.4004 110.406 155.396)" gradientUnits="userSpaceOnUse"><stop stop-color="#7FD4F9"/><stop offset="1" stop-color="#fff"/></radialGradient><radialGradient id="f" cx="0" cy="0" r="1" gradientTransform="matrix(35.0368 0 0 13.1562 110.406 128.254)" gradientUnits="userSpaceOnUse"><stop stop-color="#7FD4F9"/><stop offset="1" stop-color="#fff"/></radialGradient></defs></svg>