<svg xmlns="http://www.w3.org/2000/svg" width="222" height="270" fill="none"><path fill="url(#a)" d="M180.456 190.125c47.385 15.507 54.691 43.599 16.318 62.745-38.373 19.146-107.887 22.1-155.268 6.593-47.38-15.506-54.691-43.595-16.322-62.74 38.37-19.146 107.891-22.088 155.272-6.598Z" style="mix-blend-mode:multiply"/><path fill="#001C63" d="M110.926 225.831c-22.787 0-44.29-3.092-62.174-8.943-25.13-8.224-39.555-20.926-40.618-35.76-.52-7.308 2.098-21.308 25.514-32.997 19.172-9.565 47.38-15.055 77.389-15.055 22.79 0 44.285 3.096 62.17 8.946 25.133 8.221 39.559 20.922 40.618 35.761.523 7.307-2.094 21.308-25.51 32.993-19.177 9.569-47.385 15.055-77.389 15.055Z" opacity=".2" style="mix-blend-mode:multiply"/><path fill="#001C63" d="M170.798 149.603c40.798 13.349 47.087 37.537 14.05 54.023-33.038 16.486-92.89 19.026-133.683 5.677-40.794-13.349-47.087-37.537-14.054-54.019 33.034-16.482 92.889-19.03 133.687-5.681Z" style="mix-blend-mode:multiply"/><g style="mix-blend-mode:multiply"><path fill="url(#b)" d="M158.622 155.679c32.494 10.635 37.503 29.876 11.191 43.026-26.311 13.15-73.982 15.154-106.472 4.523-32.49-10.631-37.506-29.897-11.19-43.026 26.315-13.13 73.982-15.155 106.471-4.523Z"/><path fill="url(#c)" d="M158.622 155.679c32.494 10.635 37.503 29.876 11.191 43.026-26.311 13.15-73.982 15.154-106.472 4.523-32.49-10.631-37.506-29.897-11.19-43.026 26.315-13.13 73.982-15.155 106.471-4.523Z"/><path fill="url(#d)" d="M158.622 155.679c32.494 10.635 37.503 29.876 11.191 43.026-26.311 13.15-73.982 15.154-106.472 4.523-32.49-10.631-37.506-29.897-11.19-43.026 26.315-13.13 73.982-15.155 106.471-4.523Z"/></g><path fill="#001C63" d="M110.926 241.62c-22.787 0-44.29-3.096-62.174-8.946-25.13-8.225-39.555-20.922-40.618-35.761-.52-7.307 2.098-21.308 25.514-32.993 19.172-9.569 47.38-15.059 77.389-15.059 22.79 0 44.285 3.096 62.17 8.947 25.133 8.224 39.559 20.922 40.618 35.76.523 7.308-2.094 21.308-25.51 32.997-19.177 9.565-47.385 15.055-77.389 15.055Z" opacity=".2" style="mix-blend-mode:multiply"/><path fill="#E6E6E8" d="M178.758 152.064h-13.419a71.63 71.63 0 0 0-11.706-4.917c-29.088-9.519-71.767-7.706-95.326 4.05a43.12 43.12 0 0 0-1.636.867H43.338v14.744c-1.227 8.51 7.36 17.133 24.99 22.909 29.088 9.519 71.767 7.706 95.322-4.05 10.173-5.075 15.104-11.175 15.096-17.233l.012-16.37Z"/><path fill="#FDFDFF" d="M153.634 130.782c29.092 9.519 33.577 26.764 10.018 38.52-23.56 11.756-66.239 13.569-95.322 4.05-29.084-9.519-33.578-26.765-10.022-38.52 23.556-11.756 66.238-13.569 95.326-4.05Z"/><path fill="url(#e)" d="M110.979 179.534c37.434 0 67.78-12.299 67.78-27.47 0-15.172-30.346-27.47-67.78-27.47s-67.78 12.298-67.78 27.47c0 15.171 30.346 27.47 67.78 27.47Z" style="mix-blend-mode:multiply"/><path fill="#E6E6E8" d="M178.758 124.959h-13.419a71.542 71.542 0 0 0-11.706-4.917c-29.088-9.519-71.767-7.706-95.326 4.05-.573.286-1.112.576-1.636.867H43.338v14.743c-1.227 8.511 7.36 17.134 24.99 22.91 29.088 9.519 71.767 7.705 95.322-4.05 10.173-5.075 15.104-11.175 15.096-17.237l.012-16.366Z"/><path fill="#FDFDFF" d="M153.634 103.677c29.092 9.519 33.577 26.764 10.018 38.52-23.56 11.756-66.239 13.565-95.322 4.046-29.084-9.519-33.578-26.765-10.022-38.516 23.556-11.752 66.238-13.57 95.326-4.05Z"/><path fill="url(#f)" d="M110.979 139.206c19.409 0 35.143-6.378 35.143-14.246 0-7.867-15.734-14.245-35.143-14.245s-35.143 6.378-35.143 14.245c0 7.868 15.734 14.246 35.143 14.246Z" opacity=".25" style="mix-blend-mode:multiply"/><path fill="#001C63" d="M108.882 23.651c0 5.049-1.156 8.862-3.468 11.44-2.311 2.578-5.423 3.866-9.335 3.864-3.95 0-7.084-1.288-9.404-3.864-2.32-2.575-3.475-6.389-3.467-11.44v-7.86c0-5.05 1.148-8.863 3.443-11.435C88.946 1.783 92.066.494 96.01.488c3.927 0 7.052 1.294 9.375 3.88 2.322 2.587 3.482 6.394 3.479 11.424l.017 7.859Zm-8.53-8.448c0-2.858-.37-4.912-1.112-6.162a3.57 3.57 0 0 0-1.346-1.4 3.5 3.5 0 0 0-1.868-.476 3.436 3.436 0 0 0-1.864.471 3.505 3.505 0 0 0-1.333 1.405c-.72 1.25-1.078 3.304-1.075 6.162v8.987c0 2.908.362 4.983 1.087 6.225.316.585.786 1.07 1.358 1.398a3.486 3.486 0 0 0 1.88.46 3.443 3.443 0 0 0 1.854-.468 3.512 3.512 0 0 0 1.332-1.39c.728-1.245 1.09-3.32 1.087-6.225v-8.987ZM113.984 21.983l2.126-20.956h21.605v6.677h-14.65l-.936 7.834c.726-.54 1.54-.95 2.404-1.207a11.29 11.29 0 0 1 3.165-.515c3.609-.066 6.384.999 8.325 3.195 1.94 2.197 2.91 5.317 2.907 9.362a12.815 12.815 0 0 1-3.312 8.921c-2.211 2.44-5.374 3.66-9.49 3.66A14.613 14.613 0 0 1 116.994 36a8.941 8.941 0 0 1-2.865-3.413 9.092 9.092 0 0 1-.881-4.393l.053-.153 8.35-.515c0 1.489.408 2.653 1.226 3.494.429.422.939.75 1.498.965.559.214 1.156.31 1.753.28 1.554 0 2.655-.553 3.304-1.66a8.23 8.23 0 0 0 .973-4.2c0-2.052-.363-3.669-1.088-4.85-.725-1.181-1.873-1.772-3.443-1.772a4.706 4.706 0 0 0-2.768.743 3.848 3.848 0 0 0-1.455 1.876l-7.667-.42ZM129.857 81.68H95.142v5.415h34.715V81.68ZM118.864 91.13H95.142v12.683h23.722V91.131ZM129.858 91.13h-6.451v12.683h6.451V91.131Z"/><path fill="#001C63" d="M138.419 74.934H86.581c-.873 0-1.581.707-1.581 1.58v33.265c0 .873.708 1.581 1.581 1.581h18.179c-.697 3.395-2.309 5.149-2.32 5.162a1.579 1.579 0 0 0-.32 1.716c.247.585.82.965 1.455.965h17.85a1.58 1.58 0 0 0 1.455-.965 1.579 1.579 0 0 0-.32-1.716c-.018-.019-1.625-1.767-2.32-5.162h18.179c.873 0 1.581-.708 1.581-1.581V76.515c0-.874-.708-1.581-1.581-1.581Zm-1.581 33.263h-2.579v-.445a1.581 1.581 0 0 0-3.162 0v.445h-1.65v-.445a1.581 1.581 0 0 0-3.162 0v.445H88.162V78.096h48.676v30.101Z"/><defs><radialGradient id="a" cx="0" cy="0" r="1" gradientTransform="matrix(107.502 0 0 42.5488 110.979 212.499)" gradientUnits="userSpaceOnUse"><stop stop-color="#2A48D0"/><stop offset="1" stop-color="#fff"/></radialGradient><radialGradient id="b" cx="0" cy="0" r="1" gradientTransform="matrix(53.75844 -21.51545 14.84431 37.08996 117.01 179.548)" gradientUnits="userSpaceOnUse"><stop stop-color="#8EDBDC"/><stop offset=".44" stop-color="#90DCDD"/><stop offset=".6" stop-color="#97DEDF"/><stop offset=".71" stop-color="#A2E2E2"/><stop offset=".8" stop-color="#B3E7E8"/><stop offset=".88" stop-color="#C9EEEE"/><stop offset=".95" stop-color="#E4F6F7"/><stop offset="1" stop-color="#fff"/></radialGradient><radialGradient id="c" cx="0" cy="0" r="1" gradientTransform="matrix(53.75844 -21.51545 14.84431 37.08996 117.01 179.548)" gradientUnits="userSpaceOnUse"><stop stop-color="#80E3C8"/><stop offset=".43" stop-color="#82E3C9"/><stop offset=".58" stop-color="#89E5CC"/><stop offset=".69" stop-color="#94E8D1"/><stop offset=".78" stop-color="#A5EBD8"/><stop offset=".86" stop-color="#BBF0E2"/><stop offset=".93" stop-color="#D7F6ED"/><stop offset=".99" stop-color="#F6FDFB"/><stop offset="1" stop-color="#fff"/></radialGradient><radialGradient id="d" cx="0" cy="0" r="1" gradientTransform="matrix(53.75844 -21.51545 14.84431 37.08996 117.01 179.548)" gradientUnits="userSpaceOnUse"><stop stop-color="#2A48D0"/><stop offset=".39" stop-color="#2C4AD0"/><stop offset=".53" stop-color="#334FD2"/><stop offset=".62" stop-color="#3E5AD5"/><stop offset=".71" stop-color="#4F68D8"/><stop offset=".77" stop-color="#657BDD"/><stop offset=".83" stop-color="#8192E3"/><stop offset=".89" stop-color="#A1AEEA"/><stop offset=".94" stop-color="#C7CFF3"/><stop offset=".99" stop-color="#F0F2FC"/><stop offset="1" stop-color="#fff"/></radialGradient><radialGradient id="e" cx="0" cy="0" r="1" gradientTransform="matrix(67.5713 0 0 25.3728 110.979 155.314)" gradientUnits="userSpaceOnUse"><stop stop-color="#2A48D0"/><stop offset="1" stop-color="#fff"/></radialGradient><radialGradient id="f" cx="0" cy="0" r="1" gradientTransform="matrix(35.0369 0 0 13.1562 110.979 128.174)" gradientUnits="userSpaceOnUse"><stop stop-color="#2A48D0"/><stop offset="1" stop-color="#fff"/></radialGradient></defs></svg>