<svg width="97" height="118" viewBox="0 0 97 118" fill="none" xmlns="http://www.w3.org/2000/svg">
<g clip-path="url(#clip0_25_2043)">
<path d="M97.3402 21.5047C91.613 17.6332 85.9394 15.206 79.7296 13.9814C61.3575 10.3734 42.4116 19.1324 32.936 35.7717C22.6989 53.7454 25.3372 76.1673 39.4568 91.1701C53.5335 106.129 77.0215 109.188 94.6214 98.3695C95.3561 97.9192 96.1015 96.8923 96.938 97.3481C97.7853 97.8093 97.3134 99.001 97.3295 99.8687C97.3724 103.158 97.2812 106.453 97.3778 109.742C97.4207 111.225 96.9648 112.115 95.5974 112.691C73.5412 122.049 52.9168 119.55 34.416 104.026C20.1624 92.0597 13.4002 76.0245 13.915 57.238C14.6926 29.0556 34.6037 5.85391 61.4058 0.939002C73.198 -1.22466 84.4326 0.400833 95.34 5.29377C96.7825 5.94177 97.4153 6.6392 97.3778 8.29214C97.2705 12.4877 97.3402 16.6887 97.3402 21.5047Z" fill="#929BB3"/>
<path d="M97.3406 39.3305C82.2289 20.9998 60.0386 24.2453 49.0025 35.761C36.7544 48.5397 36.3523 68.6167 48.1981 81.5602C59.733 94.1578 82.7008 96.7882 97.303 78.8254C97.303 82.0545 97.3727 84.8057 97.2708 87.557C97.2279 88.6388 96.1876 89.1934 95.4476 89.8195C77.9013 104.487 50.3002 99.5065 38.7761 79.6053C24.9944 55.805 37.4194 26.3266 63.8675 20.5001C75.8528 17.8586 86.6369 21.1206 96.2144 28.8142C97.0617 29.4952 97.3888 30.3189 97.3674 31.4227C97.303 33.8884 97.3406 36.3541 97.3406 39.3305Z" fill="#939CB3"/>
<path d="M95.2917 50.9559C95.4526 53.8719 94.0959 55.9038 91.6076 57.0625C85.682 59.8138 79.7403 62.5375 73.745 65.1131C70.7634 66.3926 67.3689 65.2064 65.9854 62.1971C63.0145 55.761 60.2367 49.2316 57.5715 42.6583C56.4508 39.8905 58.3813 36.2497 61.2234 35.0251C64.3337 33.6906 67.7604 34.7834 69.2565 37.8422C70.8921 41.1865 72.3775 44.6187 73.7503 48.0839C74.4582 49.8686 75.2787 50.2146 76.9786 49.3909C80.2766 47.7873 83.6067 46.2168 87.0334 44.9263C91.243 43.3337 95.2649 46.376 95.2917 50.9559Z" fill="#929BB3"/>
</g>
<defs>
<clipPath id="clip0_25_2043">
<rect width="97" height="118" fill="white"/>
</clipPath>
</defs>
</svg>
