<svg width="95" height="98" viewBox="0 0 95 98" fill="none" xmlns="http://www.w3.org/2000/svg">
<g clip-path="url(#clip0_25_2039)">
<path d="M57.4059 98.3803C45.5887 98.3803 33.7715 98.3415 21.9543 98.4191C20.0079 98.4302 18.9876 97.8812 18.2667 96.0013C15.6271 89.1195 12.8544 82.2876 10.0207 75.4835C9.23882 73.6036 9.627 72.8439 11.5235 72.0176C38.9065 60.1062 66.2563 48.1171 93.5894 36.0837C95.3583 35.3018 95.924 35.2962 95.9129 37.4756C95.8519 56.9564 95.8519 76.4317 95.9129 95.9126C95.9184 97.8535 95.3417 98.4247 93.4064 98.4136C81.4062 98.3415 69.406 98.3803 57.4059 98.3803Z" fill="#929BB3"/>
<path d="M95.8409 19.553C96.7171 22.6806 94.9758 24.0946 91.876 25.4366C63.7831 37.5699 35.7569 49.8695 7.76387 62.2301C5.47363 63.2394 4.64183 62.6349 3.98193 60.572C2.53459 56.047 -0.199278 51.9213 0.0169909 46.8805C0.272078 40.8361 2.88394 36.2667 8.22413 33.4164C10.7417 32.0744 13.337 30.7934 16.0376 29.9117C18.5551 29.091 18.7215 27.8877 17.6069 25.8414C17.1244 24.9653 16.8583 23.956 16.5755 22.9856C15.7769 20.224 16.9525 17.9781 19.7585 16.8302C22.2484 15.8099 24.4221 16.6195 25.7808 19.1149C26.1357 19.7637 26.424 20.4458 26.7124 21.1223C28.2041 24.566 28.1985 24.5604 31.5313 23.102C39.0453 19.8081 46.5426 16.4698 54.0898 13.2534C55.7091 12.5658 56.2248 11.8061 55.3764 10.1924C54.8662 9.21642 54.478 8.1628 54.1398 7.11473C53.1305 3.96496 54.4448 1.37527 57.5391 0.305018C60.1565 -0.598877 62.3857 0.576741 63.6556 3.52133C65.6076 8.05744 65.5909 8.01308 70.1659 6.1332C72.7999 5.05185 75.3397 3.69878 78.1623 3.08879C87.8389 0.992643 96.8557 9.95395 95.8409 19.553Z" fill="#929BB3"/>
</g>
<defs>
<clipPath id="clip0_25_2039">
<rect width="95" height="98" fill="white"/>
</clipPath>
</defs>
</svg>
