<svg width="104" height="99" viewBox="0 0 104 99" fill="none" xmlns="http://www.w3.org/2000/svg">
<g clip-path="url(#clip0_25_2037)">
<path d="M73.5349 99.5046C64.5327 99.3823 55.5393 99.2432 46.5367 99.1546C44.7885 99.1393 43.4484 98.9268 42.2893 97.2049C29.7702 78.6809 38.4163 54.6587 59.8853 48.5566C71.5271 45.2518 85.5074 50.1041 92.4503 60.0469C97.1314 66.7494 100.901 74.056 104.085 81.4898C104.427 87 104.427 98.573 104.427 98.573C104.427 98.573 105.24 99.5046 100.939 99.8432C96.6378 100.182 82.6721 99.6288 73.5349 99.5046Z" fill="#929BB2"/>
<path d="M37.7225 -0.492217C51.6398 -0.319986 62.5207 10.7152 62.4173 24.5405C62.3105 37.994 50.8242 49.1307 37.014 49.1627C23.6177 49.1918 12.4338 37.4514 12.6642 23.6025C12.8846 9.87177 23.8391 -0.663988 37.7225 -0.492217Z" fill="#929BB3"/>
<path d="M15.2797 52.4232C23.9944 52.5585 30.7921 59.5177 30.5991 68.1219C30.4098 76.4643 22.8436 83.7943 14.6878 83.5483C6.30416 83.2824 -0.791076 75.8461 -0.568488 67.5463C-0.331372 58.7992 6.48886 52.2868 15.2797 52.4232Z" fill="#929BB3"/>
<path d="M85.8302 45.1045C76.9809 44.9251 70.594 38.1911 70.8163 29.2916C71.0216 21.0255 78.2458 13.9949 86.3603 14.1728C95.0491 14.3584 102.313 21.8477 101.953 30.2722C101.59 38.9417 94.6964 45.2841 85.8302 45.1045Z" fill="#929BB3"/>
<path d="M15.0106 98.7464C14.8855 96.1433 20.7631 88.7566 22.6374 88.1992C23.8925 87.8278 23.957 88.6733 24.2332 89.4794C25.0944 91.9912 25.9895 94.4951 26.927 96.9826C27.3835 98.1966 27.5877 99.3312 25.8641 99.3669C22.6452 99.433 19.4202 99.3216 16.203 99.261C15.384 99.2329 15.0023 98.7294 15.0106 98.7464Z" fill="#949DB4"/>
<path d="M104.342 56.4799C102.332 53.9947 100.993 52.4308 99.7569 50.7839C99.2094 50.05 98.0731 49.1393 98.8284 48.2542C99.8583 47.052 101.5 46.8209 103.086 46.9438C104.478 47.0556 104.43 48.153 104.425 49.1327C104.43 51.219 104.385 53.3131 104.342 56.4799Z" fill="#949DB4"/>
</g>
<defs>
<clipPath id="clip0_25_2037">
<rect width="104" height="99" fill="white"/>
</clipPath>
</defs>
</svg>
