<svg width="26" height="25" viewBox="0 0 26 25" fill="none" xmlns="http://www.w3.org/2000/svg">
<path d="M11.8512 0.97474C12.1928 -0.0765426 13.6801 -0.0765402 14.0217 0.974742L16.2669 7.88477C16.4196 8.35491 16.8577 8.67323 17.3521 8.67323L24.6177 8.67323C25.7231 8.67323 26.1827 10.0877 25.2884 10.7374L19.4104 15.0081C19.0105 15.2986 18.8431 15.8137 18.9959 16.2838L21.2411 23.1939C21.5827 24.2451 20.3794 25.1193 19.4852 24.4696L13.6071 20.199C13.2072 19.9084 12.6657 19.9084 12.2657 20.199L6.38771 24.4696C5.49344 25.1193 4.2902 24.2451 4.63179 23.1939L6.87699 16.2838C7.02975 15.8137 6.8624 15.2986 6.46247 15.0081L0.58445 10.7374C-0.309824 10.0877 0.149774 8.67323 1.25516 8.67323L8.52079 8.67323C9.01513 8.67323 9.45325 8.35491 9.60601 7.88477L11.8512 0.97474Z" fill="#FCE518"/>
</svg>
