<svg width="26" height="25" viewBox="0 0 26 25" fill="none" xmlns="http://www.w3.org/2000/svg">
<path d="M11.8014 0.97474C12.143 -0.0765426 13.6303 -0.0765402 13.9719 0.974742L16.2171 7.88477C16.3698 8.35491 16.8079 8.67323 17.3023 8.67323L24.5679 8.67323C25.6733 8.67323 26.1329 10.0877 25.2386 10.7374L19.3606 15.0081C18.9607 15.2986 18.7933 15.8137 18.9461 16.2838L21.1913 23.1939C21.5329 24.2451 20.3296 25.1193 19.4354 24.4696L13.5573 20.199C13.1574 19.9084 12.6159 19.9084 12.2159 20.199L6.33791 24.4696C5.44363 25.1193 4.2404 24.2451 4.58198 23.1939L6.82718 16.2838C6.97995 15.8137 6.8126 15.2986 6.41267 15.0081L0.534645 10.7374C-0.359629 10.0877 0.0999691 8.67323 1.20535 8.67323L8.47098 8.67323C8.96533 8.67323 9.40345 8.35491 9.55621 7.88477L11.8014 0.97474Z" fill="#050505" fill-opacity="0.11"/>
</svg>
