<svg xmlns="http://www.w3.org/2000/svg" width="221" height="265" fill="none"><path fill="url(#a)" d="M180.024 184.808c47.385 15.506 54.712 43.595 16.318 62.728-38.393 19.134-107.886 22.096-155.267 6.594-47.381-15.503-54.692-43.595-16.323-62.745 38.37-19.15 107.891-22.08 155.272-6.577Z" style="mix-blend-mode:multiply"/><path fill="#8EDBDC" d="M110.478 220.514c-22.787 0-44.286-3.095-62.15-8.946-25.13-8.22-39.555-20.922-40.618-35.761-.523-7.303 2.098-21.308 25.514-32.993 19.172-9.568 47.38-15.054 77.389-15.054 22.786 0 44.285 3.091 62.149 8.942 25.13 8.225 39.555 20.926 40.618 35.765.523 7.307-2.097 21.308-25.514 32.993-19.172 9.569-47.381 15.054-77.388 15.054Z" opacity=".2" style="mix-blend-mode:multiply"/><path fill="#029894" d="M170.355 144.288c40.794 13.349 47.087 37.537 14.049 54.018-33.037 16.482-92.889 19.03-133.703 5.681-40.814-13.349-47.09-37.537-14.053-54.023 33.037-16.486 92.909-19.029 133.707-5.676Z" style="mix-blend-mode:multiply"/><g style="mix-blend-mode:multiply"><path fill="url(#b)" d="M158.178 150.362c32.493 10.631 37.502 29.877 11.191 43.027-26.312 13.15-73.983 15.154-106.476 4.523-32.494-10.631-37.503-29.898-11.191-43.027 26.311-13.129 73.982-15.154 106.476-4.523Z"/><path fill="url(#c)" d="M158.178 150.362c32.493 10.631 37.502 29.877 11.191 43.027-26.312 13.15-73.983 15.154-106.476 4.523-32.494-10.631-37.503-29.898-11.191-43.027 26.311-13.129 73.982-15.154 106.476-4.523Z"/><path fill="url(#d)" d="M158.178 150.362c32.493 10.631 37.502 29.877 11.191 43.027-26.312 13.15-73.983 15.154-106.476 4.523-32.494-10.631-37.503-29.898-11.191-43.027 26.311-13.129 73.982-15.154 106.476-4.523Z"/></g><path fill="#8EDBDC" d="M110.478 236.3c-22.787 0-44.286-3.092-62.15-8.943-25.13-8.224-39.555-20.926-40.618-35.76-.523-7.308 2.098-21.308 25.514-32.993 19.172-9.569 47.38-15.059 77.389-15.059 22.786 0 44.285 3.096 62.149 8.946 25.13 8.221 39.555 20.922 40.618 35.761.523 7.307-2.097 21.308-25.514 32.993-19.172 9.569-47.381 15.055-77.388 15.055Z" opacity=".2" style="mix-blend-mode:multiply"/><path fill="#E6EDEB" d="M178.311 146.748h-13.423a70.969 70.969 0 0 0-11.703-4.917c-29.091-9.519-71.77-7.706-95.326 4.05-.572.282-1.112.576-1.635.867h-13.33v14.743c-1.226 8.511 7.36 17.134 24.987 22.91 29.092 9.515 71.771 7.705 95.326-4.05 10.173-5.075 15.104-11.175 15.096-17.237l.008-16.366Z"/><path fill="#FAFFFE" d="M153.19 125.465c29.087 9.519 33.573 26.765 10.017 38.52-23.555 11.756-66.238 13.565-95.326 4.046-29.087-9.519-33.573-26.764-10.017-38.52 23.555-11.755 66.234-13.565 95.326-4.046Z"/><path fill="url(#e)" d="M110.536 174.217c37.433 0 67.78-12.298 67.78-27.47 0-15.171-30.347-27.47-67.78-27.47-37.434 0-67.78 12.299-67.78 27.47 0 15.172 30.346 27.47 67.78 27.47Z" style="mix-blend-mode:multiply"/><path fill="#E6EDEB" d="M178.311 119.644h-13.423a70.676 70.676 0 0 0-11.703-4.917c-29.091-9.519-71.77-7.705-95.326 4.05a37.99 37.99 0 0 0-1.635.867h-13.33v14.744c-1.226 8.51 7.36 17.129 24.987 22.905 29.092 9.519 71.771 7.71 95.326-4.046 10.173-5.079 15.104-11.178 15.096-17.237l.008-16.366Z"/><path fill="#FAFFFE" d="M153.19 98.362c29.087 9.519 33.573 26.764 10.017 38.52-23.555 11.755-66.238 13.565-95.326 4.046-29.087-9.519-33.573-26.765-10.017-38.521 23.555-11.755 66.234-13.564 95.326-4.045Z"/><path fill="url(#f)" d="M110.536 133.889c19.409 0 35.143-6.378 35.143-14.245 0-7.868-15.734-14.245-35.143-14.245-19.41 0-35.143 6.377-35.143 14.245 0 7.867 15.734 14.245 35.143 14.245Z" opacity=".25" style="mix-blend-mode:multiply"/><path fill="#029894" d="M108.43 23.909c0 5.051-1.156 8.865-3.468 11.44-2.311 2.576-5.424 3.863-9.338 3.863-3.947 0-7.082-1.287-9.405-3.863-2.322-2.575-3.478-6.389-3.467-11.44v-7.86c0-5.05 1.148-8.864 3.443-11.44C88.49 2.034 91.61.746 95.554.746c3.928 0 7.053 1.293 9.376 3.88 2.322 2.587 3.482 6.394 3.479 11.424l.021 7.859ZM99.9 15.46c0-2.86-.37-4.914-1.112-6.162A3.573 3.573 0 0 0 97.442 7.9a3.504 3.504 0 0 0-1.867-.477c-.654-.023-1.3.14-1.866.472a3.517 3.517 0 0 0-1.336 1.403c-.714 1.25-1.073 3.305-1.075 6.162v8.988c0 2.908.362 4.983 1.087 6.225.316.585.786 1.07 1.358 1.4.572.328 1.223.489 1.88.463.65.022 1.294-.14 1.857-.47a3.512 3.512 0 0 0 1.333-1.393c.728-1.242 1.09-3.317 1.087-6.225V15.46ZM138.65 38.675h-25.759v-5.648l11.857-12.635a25.264 25.264 0 0 0 3.312-4.673 7.987 7.987 0 0 0 1.063-3.568 5.182 5.182 0 0 0-1.075-3.444c-.714-.855-1.789-1.282-3.226-1.282a3.417 3.417 0 0 0-1.729.421c-.53.291-.975.718-1.293 1.238a7.483 7.483 0 0 0-1.1 4.225h-8.353l-.049-.154c-.076-1.62.182-3.24.757-4.754a11.699 11.699 0 0 1 2.584-4.039c2.311-2.407 5.372-3.61 9.183-3.61 4.048 0 7.207 1.01 9.478 3.03 2.27 2.019 3.404 4.785 3.402 8.298a11.083 11.083 0 0 1-1.808 6.266c-1.204 1.812-3.427 4.508-6.668 8.087l-4.985 5.42.074.153h14.335v6.669ZM110.75 86.391a10.92 10.92 0 0 0 7.778-3.27 11.248 11.248 0 0 0 3.222-7.893c0-2.96-1.159-5.8-3.222-7.894a10.92 10.92 0 0 0-7.778-3.27 10.92 10.92 0 0 0-7.778 3.27 11.248 11.248 0 0 0-3.222 7.894c0 2.96 1.159 5.8 3.222 7.894a10.92 10.92 0 0 0 7.778 3.27Zm-17.875 8.373a6.824 6.824 0 0 0 4.861-2.044 7.03 7.03 0 0 0 2.014-4.933 7.03 7.03 0 0 0-2.014-4.934 6.824 6.824 0 0 0-4.861-2.043 6.824 6.824 0 0 0-4.861 2.043A7.03 7.03 0 0 0 86 87.787a7.03 7.03 0 0 0 2.014 4.933 6.824 6.824 0 0 0 4.861 2.044Zm42.625-6.977c0 1.85-.724 3.625-2.014 4.933a6.824 6.824 0 0 1-4.861 2.044 6.824 6.824 0 0 1-4.861-2.044 7.027 7.027 0 0 1-2.014-4.933c0-1.85.724-3.625 2.014-4.934a6.824 6.824 0 0 1 4.861-2.043c1.823 0 3.572.735 4.861 2.043a7.027 7.027 0 0 1 2.014 4.934Zm-24.75 1.395a13.65 13.65 0 0 1 9.723 4.087 14.063 14.063 0 0 1 4.027 9.868v16.745H97v-16.745c0-3.701 1.449-7.25 4.027-9.868a13.65 13.65 0 0 1 9.723-4.087ZM91.5 103.137c0-1.935.275-3.802.792-5.565l-.468.039a9.578 9.578 0 0 0-6.117 3.191 9.85 9.85 0 0 0-2.457 6.521v12.559h8.25v-16.745Zm46.75 16.745v-12.559a9.844 9.844 0 0 0-2.616-6.695 9.565 9.565 0 0 0-6.426-3.056 19.86 19.86 0 0 1 .792 5.565v16.745h8.25Z"/><defs><radialGradient id="a" cx="0" cy="0" r="1" gradientTransform="matrix(107.502 0 0 42.5488 110.547 206.409)" gradientUnits="userSpaceOnUse"><stop stop-color="#8EDBDC"/><stop offset="1" stop-color="#fff"/></radialGradient><radialGradient id="b" cx="0" cy="0" r="1" gradientTransform="rotate(-21.812 506.83 -208.075) scale(57.9042 39.9502)" gradientUnits="userSpaceOnUse"><stop stop-color="#8EDBDC"/><stop offset=".44" stop-color="#90DCDD"/><stop offset=".6" stop-color="#97DEDF"/><stop offset=".71" stop-color="#A2E2E2"/><stop offset=".8" stop-color="#B3E7E8"/><stop offset=".88" stop-color="#C9EEEE"/><stop offset=".95" stop-color="#E4F6F7"/><stop offset="1" stop-color="#fff"/></radialGradient><radialGradient id="c" cx="0" cy="0" r="1" gradientTransform="rotate(-21.812 506.83 -208.075) scale(57.9042 39.9502)" gradientUnits="userSpaceOnUse"><stop stop-color="#80E3C8"/><stop offset=".43" stop-color="#82E3C9"/><stop offset=".58" stop-color="#89E5CC"/><stop offset=".69" stop-color="#94E8D1"/><stop offset=".78" stop-color="#A5EBD8"/><stop offset=".86" stop-color="#BBF0E2"/><stop offset=".93" stop-color="#D7F6ED"/><stop offset=".99" stop-color="#F6FDFB"/><stop offset="1" stop-color="#fff"/></radialGradient><radialGradient id="d" cx="0" cy="0" r="1" gradientTransform="rotate(-21.812 506.83 -208.075) scale(57.9042 39.9502)" gradientUnits="userSpaceOnUse"><stop stop-color="#80E3C8"/><stop offset=".43" stop-color="#82E3C9"/><stop offset=".58" stop-color="#89E5CC"/><stop offset=".69" stop-color="#94E8D1"/><stop offset=".78" stop-color="#A5EBD8"/><stop offset=".86" stop-color="#BBF0E2"/><stop offset=".93" stop-color="#D7F6ED"/><stop offset=".99" stop-color="#F6FDFB"/><stop offset="1" stop-color="#fff"/></radialGradient><radialGradient id="e" cx="0" cy="0" r="1" gradientTransform="matrix(67.5713 0 0 25.3728 110.536 150.201)" gradientUnits="userSpaceOnUse"><stop stop-color="#8EDBDC"/><stop offset="1" stop-color="#fff"/></radialGradient><radialGradient id="f" cx="0" cy="0" r="1" gradientTransform="matrix(35.0368 0 0 13.1562 110.536 123.061)" gradientUnits="userSpaceOnUse"><stop stop-color="#8EDBDC"/><stop offset="1" stop-color="#fff"/></radialGradient></defs></svg>