<svg xmlns="http://www.w3.org/2000/svg" width="222" height="270" fill="none"><path fill="url(#a)" d="M180.142 189.932c47.405 15.502 54.691 43.595 16.33 62.732-38.361 19.138-107.887 22.101-155.272 6.598-47.384-15.503-54.687-43.599-16.318-62.745 38.37-19.146 107.875-22.092 155.26-6.585Z" style="mix-blend-mode:multiply"/><path fill="#029894" d="M110.606 226.348c-22.786 0-44.285-3.095-62.15-8.946-25.129-8.224-39.554-20.922-40.617-35.761-.523-7.307 2.097-21.308 25.514-32.993 19.172-9.568 47.38-15.054 77.388-15.054 22.787 0 44.286 3.091 62.17 8.942 25.13 8.224 39.555 20.926 40.618 35.765.524 7.303-2.097 21.304-25.514 32.989-19.192 9.569-47.401 15.058-77.409 15.058Z" opacity=".2" style="mix-blend-mode:multiply"/><path fill="#029894" d="M170.484 150.12c40.794 13.349 47.086 37.533 14.049 54.019-33.038 16.486-92.89 19.029-133.703 5.68-40.815-13.349-47.087-37.536-14.05-54.022 33.038-16.486 92.906-19.026 133.704-5.677Z" style="mix-blend-mode:multiply"/><g style="mix-blend-mode:multiply"><path fill="url(#b)" d="M158.307 156.196c32.493 10.631 37.502 29.876 11.191 43.026-26.312 13.15-73.983 15.154-106.476 4.519-32.494-10.635-37.503-29.877-11.191-43.022 26.31-13.146 73.982-15.154 106.476-4.523Z"/><path fill="url(#c)" d="M158.307 156.196c32.493 10.631 37.502 29.876 11.191 43.026-26.312 13.15-73.983 15.154-106.476 4.519-32.494-10.635-37.503-29.877-11.191-43.022 26.31-13.146 73.982-15.154 106.476-4.523Z"/><path fill="url(#d)" d="M158.307 156.196c32.493 10.631 37.502 29.876 11.191 43.026-26.312 13.15-73.983 15.154-106.476 4.519-32.494-10.635-37.503-29.877-11.191-43.022 26.31-13.146 73.982-15.154 106.476-4.523Z"/></g><path fill="#029894" d="M110.606 242.132c-22.786 0-44.285-3.092-62.15-8.947-25.129-8.22-39.554-20.922-40.617-35.76-.523-7.308 2.097-21.308 25.514-32.993 19.172-9.569 47.38-15.055 77.388-15.055 22.787 0 44.286 3.092 62.17 8.946 25.13 8.221 39.555 20.922 40.618 35.761.524 7.303-2.097 21.308-25.514 32.993-19.192 9.565-47.401 15.055-77.409 15.055Z" opacity=".2" style="mix-blend-mode:multiply"/><path fill="#E6EFEC" d="M178.444 152.581h-13.423a70.553 70.553 0 0 0-11.703-4.9c-29.091-9.519-71.77-7.706-95.326 4.045-.572.287-1.112.577-1.635.872H43.023v14.739c-1.226 8.515 7.36 17.133 24.987 22.91 29.092 9.519 71.77 7.705 95.326-4.046 10.173-5.079 15.104-11.179 15.096-17.237l.012-16.383Z"/><path fill="#F8FFFD" d="M153.319 131.297c29.087 9.519 33.573 26.765 10.017 38.516-23.555 11.752-66.238 13.569-95.326 4.05-29.088-9.519-33.573-26.764-10.017-38.52 23.555-11.756 66.234-13.565 95.326-4.046Z"/><path fill="url(#e)" d="M110.592 180.08c37.474 0 67.853-12.312 67.853-27.499s-30.379-27.499-67.853-27.499c-37.475 0-67.854 12.312-67.854 27.499s30.38 27.499 67.854 27.499Z" style="mix-blend-mode:multiply"/><path fill="#E6EFEC" d="M178.446 125.476h-13.423a70.712 70.712 0 0 0-11.703-4.917c-29.091-9.519-71.77-7.71-95.326 4.046-.572.286-1.112.577-1.635.871H43.025v14.735c-1.226 8.515 7.36 17.134 24.987 22.91 29.092 9.519 71.77 7.705 95.326-4.05 10.173-5.075 15.104-11.175 15.096-17.233l.012-16.362Z"/><path fill="#F8FFFD" d="M153.319 104.188c29.087 9.519 33.573 26.765 10.017 38.521-23.555 11.755-66.238 13.569-95.326 4.049-29.088-9.519-33.573-26.764-10.017-38.52 23.555-11.755 66.234-13.564 95.326-4.05Z"/><path fill="url(#f)" d="M110.592 139.721c19.409 0 35.143-6.378 35.143-14.245 0-7.868-15.734-14.245-35.143-14.245s-35.143 6.377-35.143 14.245c0 7.867 15.734 14.245 35.143 14.245Z" opacity=".25" style="mix-blend-mode:multiply"/><path fill="#029894" d="M108.49 24.083c0 5.048-1.156 8.862-3.467 11.44-2.312 2.578-5.423 3.863-9.335 3.855-3.95 0-7.085-1.288-9.404-3.863-2.32-2.576-3.476-6.39-3.468-11.44v-7.851c0-5.052 1.148-8.865 3.443-11.44C88.554 2.207 91.674.92 95.62.92c3.93 0 7.055 1.293 9.375 3.88 2.32 2.586 3.48 6.394 3.48 11.424l.016 7.859Zm-8.513-8.449c0-2.857-.37-4.911-1.112-6.162a3.57 3.57 0 0 0-1.346-1.399 3.5 3.5 0 0 0-1.868-.476c-.653-.024-1.3.14-1.866.472a3.517 3.517 0 0 0-1.335 1.403c-.715 1.25-1.073 3.305-1.076 6.162v8.988c0 2.908.364 4.982 1.092 6.224a3.552 3.552 0 0 0 1.357 1.401c.572.33 1.224.49 1.881.463a3.44 3.44 0 0 0 1.855-.47 3.508 3.508 0 0 0 1.33-1.394c.728-1.242 1.09-3.316 1.088-6.224v-8.988ZM131.052 38.846h-8.521V10.164h-8.222V4.052l16.764-2.618-.021 37.412ZM119.938 59.342H97.594v3.489h22.344v-3.49ZM124.403 80.27c-3.919-3.315-6.184-8.223-6.184-13.4v-2.296H99.313v2.296c0 5.177-2.266 10.085-6.185 13.4L89 83.761l18.906 27.908V92.396c-1.961-.405-3.437-2.163-3.437-4.274 0-2.409 1.923-4.36 4.297-4.36 2.373 0 4.296 1.951 4.296 4.36 0 2.109-1.476 3.869-3.437 4.274v19.274l18.906-27.909-4.128-3.492Z"/><defs><radialGradient id="a" cx="0" cy="0" r="1" gradientTransform="matrix(107.502 0 0 42.5488 110.665 212.308)" gradientUnits="userSpaceOnUse"><stop stop-color="#80E3C8"/><stop offset="1" stop-color="#fff"/></radialGradient><radialGradient id="b" cx="0" cy="0" r="1" gradientTransform="rotate(-21.812 523.62 -202.528) scale(57.9042 39.9502)" gradientUnits="userSpaceOnUse"><stop stop-color="#80E3C8"/><stop offset=".43" stop-color="#82E3C9"/><stop offset=".58" stop-color="#89E5CC"/><stop offset=".69" stop-color="#94E8D1"/><stop offset=".78" stop-color="#A5EBD8"/><stop offset=".86" stop-color="#BBF0E2"/><stop offset=".93" stop-color="#D7F6ED"/><stop offset=".99" stop-color="#F6FDFB"/><stop offset="1" stop-color="#fff"/></radialGradient><radialGradient id="c" cx="0" cy="0" r="1" gradientTransform="rotate(-21.812 523.62 -202.528) scale(57.9042 39.9502)" gradientUnits="userSpaceOnUse"><stop stop-color="#80E3C8"/><stop offset=".43" stop-color="#82E3C9"/><stop offset=".58" stop-color="#89E5CC"/><stop offset=".69" stop-color="#94E8D1"/><stop offset=".78" stop-color="#A5EBD8"/><stop offset=".86" stop-color="#BBF0E2"/><stop offset=".93" stop-color="#D7F6ED"/><stop offset=".99" stop-color="#F6FDFB"/><stop offset="1" stop-color="#fff"/></radialGradient><radialGradient id="d" cx="0" cy="0" r="1" gradientTransform="rotate(-21.812 523.62 -202.528) scale(57.9042 39.9502)" gradientUnits="userSpaceOnUse"><stop stop-color="#80E3C8"/><stop offset=".43" stop-color="#82E3C9"/><stop offset=".58" stop-color="#89E5CC"/><stop offset=".69" stop-color="#94E8D1"/><stop offset=".78" stop-color="#A5EBD8"/><stop offset=".86" stop-color="#BBF0E2"/><stop offset=".93" stop-color="#D7F6ED"/><stop offset=".99" stop-color="#F6FDFB"/><stop offset="1" stop-color="#fff"/></radialGradient><radialGradient id="e" cx="0" cy="0" r="1" gradientTransform="matrix(67.6449 0 0 25.4004 110.592 155.83)" gradientUnits="userSpaceOnUse"><stop stop-color="#80E3C8"/><stop offset="1" stop-color="#fff"/></radialGradient><radialGradient id="f" cx="0" cy="0" r="1" gradientTransform="matrix(35.0368 0 0 13.1562 110.592 128.688)" gradientUnits="userSpaceOnUse"><stop stop-color="#80E3C8"/><stop offset="1" stop-color="#fff"/></radialGradient></defs></svg>