<svg xmlns="http://www.w3.org/2000/svg" width="222" height="264" fill="none"><path fill="url(#a)" d="M180.707 183.907c47.381 15.507 54.687 43.6 16.318 62.746-38.369 19.145-107.887 22.1-155.272 6.593-47.385-15.507-54.687-43.595-16.318-62.741 38.37-19.146 107.887-22.1 155.272-6.598Z" style="mix-blend-mode:multiply"/><path fill="#001C63" d="M108.619 220.325c-22.787 0-44.286-3.091-62.17-8.942-25.13-8.225-39.555-20.926-40.618-35.761-.523-7.307 2.098-21.308 25.51-32.997 19.176-9.569 47.385-15.055 77.388-15.055 22.791 0 44.29 3.096 62.175 8.947 25.129 8.22 39.555 20.922 40.618 35.76.523 7.308-2.098 21.308-25.514 32.993-19.173 9.569-47.381 15.055-77.389 15.055Z" opacity=".2" style="mix-blend-mode:multiply"/><path fill="#001C63" d="M168.494 144.098c40.793 13.349 47.086 37.536 14.049 54.022-33.038 16.486-92.89 19.026-133.704 5.677C8.025 190.448 1.753 166.26 34.79 149.778c33.038-16.482 92.906-19.029 133.704-5.68Z" style="mix-blend-mode:multiply"/><g style="mix-blend-mode:multiply"><path fill="url(#b)" d="M156.318 150.171c32.49 10.635 37.503 29.898 11.191 43.027-26.311 13.129-73.994 15.154-106.476 4.543-32.481-10.61-37.502-29.876-11.19-43.026 26.31-13.15 73.982-15.175 106.475-4.544Z"/><path fill="url(#c)" d="M156.318 150.171c32.49 10.635 37.503 29.898 11.191 43.027-26.311 13.129-73.994 15.154-106.476 4.543-32.481-10.61-37.502-29.876-11.19-43.026 26.31-13.15 73.982-15.175 106.475-4.544Z"/><path fill="url(#d)" d="M156.318 150.171c32.49 10.635 37.503 29.898 11.191 43.027-26.311 13.129-73.994 15.154-106.476 4.543-32.481-10.61-37.502-29.876-11.19-43.026 26.31-13.15 73.982-15.175 106.475-4.544Z"/></g><path fill="#001C63" d="M108.619 236.114c-22.787 0-44.286-3.095-62.17-8.946-25.13-8.225-39.555-20.922-40.618-35.761-.523-7.307 2.098-21.308 25.51-32.997 19.176-9.544 47.385-15.054 77.388-15.054 22.791 0 44.29 3.095 62.175 8.946 25.129 8.224 39.555 20.922 40.618 35.761.523 7.307-2.098 21.308-25.514 32.993-19.173 9.568-47.381 15.058-77.389 15.058Z" opacity=".2" style="mix-blend-mode:multiply"/><path fill="#E5E7EA" d="M176.452 146.557h-13.427a71.478 71.478 0 0 0-11.703-4.918c-29.091-9.519-71.77-7.705-95.326 4.05-.572.287-1.116.577-1.656.868H41.023V161.3c-1.226 8.511 7.36 17.133 24.991 22.909 29.092 9.519 71.77 7.706 95.326-4.05 10.173-5.074 15.104-11.174 15.096-17.237l.016-16.365Z"/><path fill="#FDFEFF" d="M151.33 125.274c29.088 9.519 33.573 26.765 10.018 38.52-23.556 11.756-66.239 13.569-95.326 4.05-29.088-9.519-33.573-26.764-10.018-38.52 23.556-11.756 66.235-13.569 95.326-4.05Z"/><path fill="url(#e)" d="M108.603 174.057c37.475 0 67.854-12.312 67.854-27.499 0-15.188-30.379-27.499-67.854-27.499-37.474 0-67.853 12.311-67.853 27.499 0 15.187 30.379 27.499 67.853 27.499Z" style="mix-blend-mode:multiply"/><path fill="#E5E7EA" d="M176.452 119.453h-13.427a71.474 71.474 0 0 0-11.703-4.917c-29.091-9.519-71.77-7.706-95.326 4.05-.572.286-1.116.577-1.656.867H41.023v14.743c-1.226 8.511 7.36 17.134 24.991 22.91 29.092 9.519 71.77 7.706 95.326-4.05 10.173-5.075 15.104-11.175 15.096-17.237l.016-16.366Z"/><path fill="#FDFEFF" d="M151.33 98.153c29.088 9.519 33.573 26.764 10.018 38.52-23.556 11.755-66.239 13.564-95.326 4.045-29.088-9.519-33.573-26.764-10.018-38.515 23.556-11.752 66.235-13.553 95.326-4.05Z"/><path fill="url(#f)" d="M108.602 133.698c19.409 0 35.143-6.378 35.143-14.246 0-7.867-15.734-14.245-35.143-14.245s-35.143 6.378-35.143 14.245c0 7.868 15.734 14.246 35.143 14.246Z" opacity=".25" style="mix-blend-mode:multiply"/><path fill="#001C63" d="M106.5 24.143c0 5.049-1.156 8.862-3.467 11.44-2.312 2.579-5.425 3.867-9.34 3.864-3.943 0-7.078-1.288-9.403-3.863-2.326-2.576-3.481-6.39-3.468-11.44v-7.86c0-5.051 1.147-8.865 3.44-11.44C86.553 2.268 89.674.98 93.623.98c3.928 0 7.054 1.292 9.376 3.875 2.322 2.584 3.482 6.393 3.48 11.428l.02 7.86Zm-8.53-8.448c0-2.858-.37-4.912-1.111-6.162a3.578 3.578 0 0 0-1.347-1.398 3.508 3.508 0 0 0-1.867-.478c-.653-.023-1.3.14-1.866.472a3.513 3.513 0 0 0-1.336 1.404c-.714 1.25-1.072 3.304-1.075 6.162v8.988c0 2.907.363 4.982 1.088 6.224.315.586.785 1.07 1.357 1.4.572.329 1.224.49 1.88.463.65.023 1.294-.14 1.858-.47a3.514 3.514 0 0 0 1.332-1.393c.728-1.242 1.09-3.317 1.088-6.224v-8.988ZM133.471 24.346h3.721v6.677h-3.721v7.884h-8.55v-7.884h-14.274l-.502-5.3L124.921 1.6v-.08h8.55v22.827Zm-15.689 0h7.139V12.794l-.155-.054-.658 1.058-6.326 10.548ZM81 109.982h6.109V91.383H81v18.599Zm28.895 3.1-8.949-1.984-8.95-2.139a2.222 2.222 0 0 1-1.313-.806 2.219 2.219 0 0 1-.52-1.457V94.297c.009-.53.192-1.043.52-1.457a2.437 2.437 0 0 1 1.313-.806l14.6-1.829 14.631-1.86.458 1.736.458 1.705a2.913 2.913 0 0 1-.458 1.612c-.28.502-.707.902-1.222 1.147l-6.108 1.55-6.109 1.55 4.948 2.046 4.979 2.015 6.933-1.984 6.751-2.139a2.351 2.351 0 0 1 1.771.248 2.25 2.25 0 0 1 1.1 1.426l.58 2.387.611 2.356a2.424 2.424 0 0 1-.244 1.736c-.315.53-.818.919-1.405 1.084l-11.088 3.1-11.088 3.1a4.3 4.3 0 0 1-1.099 0 3.309 3.309 0 0 1-1.1.062ZM99.327 57.285l-6.11 6.2-6.108 6.2 6.109 6.2 6.109 6.199 2.138-2.17 2.138-2.17-3.97-4.03-3.972-4.03 3.971-4.03 3.971-4.029-2.138-2.17-2.138-2.17Zm18.326 0-2.138 2.17-2.138 2.17 3.971 4.03 3.971 4.03-3.971 4.03-3.971 4.03 2.138 2.169 2.138 2.17 6.109-6.2 6.109-6.2-6.109-6.2-6.109-6.199Z"/><defs><radialGradient id="a" cx="0" cy="0" r="1" gradientTransform="matrix(107.502 0 0 42.5488 111.23 205.515)" gradientUnits="userSpaceOnUse"><stop stop-color="#5A9BFB"/><stop offset="1" stop-color="#fff"/></radialGradient><radialGradient id="b" cx="0" cy="0" r="1" gradientTransform="rotate(-21.812 506.386 -208.437) scale(57.9042 39.9502)" gradientUnits="userSpaceOnUse"><stop stop-color="#7FD4F9"/><stop offset=".43" stop-color="#81D5F9"/><stop offset=".58" stop-color="#88D7F9"/><stop offset=".69" stop-color="#93DBFA"/><stop offset=".78" stop-color="#A4E1FB"/><stop offset=".86" stop-color="#BAE8FC"/><stop offset=".92" stop-color="#D6F1FD"/><stop offset=".98" stop-color="#F5FCFF"/><stop offset="1" stop-color="#fff"/></radialGradient><radialGradient id="c" cx="0" cy="0" r="1" gradientTransform="rotate(-21.812 506.386 -208.437) scale(57.9042 39.9502)" gradientUnits="userSpaceOnUse"><stop stop-color="#80E3C8"/><stop offset=".43" stop-color="#82E3C9"/><stop offset=".58" stop-color="#89E5CC"/><stop offset=".69" stop-color="#94E8D1"/><stop offset=".78" stop-color="#A5EBD8"/><stop offset=".86" stop-color="#BBF0E2"/><stop offset=".93" stop-color="#D7F6ED"/><stop offset=".99" stop-color="#F6FDFB"/><stop offset="1" stop-color="#fff"/></radialGradient><radialGradient id="d" cx="0" cy="0" r="1" gradientTransform="rotate(-21.812 506.386 -208.437) scale(57.9042 39.9502)" gradientUnits="userSpaceOnUse"><stop stop-color="#5A9BFB"/><stop offset=".41" stop-color="#5C9CFB"/><stop offset=".55" stop-color="#63A0FB"/><stop offset=".66" stop-color="#6EA7FB"/><stop offset=".74" stop-color="#7FB2FC"/><stop offset=".81" stop-color="#95BFFC"/><stop offset=".88" stop-color="#B1CFFD"/><stop offset=".94" stop-color="#D1E3FE"/><stop offset=".99" stop-color="#F5F9FF"/><stop offset="1" stop-color="#fff"/></radialGradient><radialGradient id="e" cx="0" cy="0" r="1" gradientTransform="matrix(67.6449 0 0 25.4005 108.603 150.012)" gradientUnits="userSpaceOnUse"><stop stop-color="#5A9BFB"/><stop offset="1" stop-color="#fff"/></radialGradient><radialGradient id="f" cx="0" cy="0" r="1" gradientTransform="matrix(35.0369 0 0 13.1562 108.602 122.87)" gradientUnits="userSpaceOnUse"><stop stop-color="#5A9BFB"/><stop offset="1" stop-color="#fff"/></radialGradient></defs></svg>