<svg width="50" height="44" viewBox="0 0 50 44" fill="none" xmlns="http://www.w3.org/2000/svg">
<path fill-rule="evenodd" clip-rule="evenodd" d="M45.5282 35.8603L42.8467 38.9451C42.1427 39.7549 40.9831 39.7549 40.2791 38.9451L38.1185 36.4595C37.0036 37.1429 35.8073 37.6672 34.5459 38.0042V41.2248C34.5459 42.3716 33.728 43.3125 32.7311 43.3125H28.9388C27.9419 43.3125 27.124 42.3716 27.124 41.2248V37.7093C25.887 37.2786 24.7192 36.6654 23.6491 35.8884L21.6675 38.168C20.9635 38.9779 19.8039 38.9779 19.0999 38.168L17.8874 36.7778L17.9199 36.7356L23.2381 29.7328C25.1831 32.3542 28.0802 34.0206 31.311 34.0206C37.1704 34.0206 41.923 28.5532 41.923 21.8172C41.923 15.0765 37.1704 9.60904 31.311 9.60904C28.3773 9.60904 25.7202 10.9806 23.7996 13.1947L21.8424 13.1105L16.8905 8.03621C16.9515 7.93791 17.0166 7.84897 17.0898 7.76003L19.7713 4.67523C20.4753 3.86541 21.6349 3.86541 22.3389 4.67523L24.4995 7.16086C25.6144 6.47274 26.8107 5.94847 28.0721 5.61611V2.39556C28.0802 1.25339 28.8981 0.3125 29.895 0.3125H33.6833C34.6802 0.3125 35.498 1.25339 35.498 2.40024V5.9157C36.735 6.34636 37.9028 6.96425 38.973 7.73662L40.9546 5.45696C41.6585 4.64714 42.8182 4.64714 43.5221 5.45696L46.2036 8.54176C46.9076 9.35158 46.9076 10.6857 46.2036 11.4955L44.043 13.9811C44.6411 15.2637 45.0968 16.64 45.3857 18.0911H48.1852C49.1781 18.0911 50 19.032 50 20.1788V24.5415C50 25.6884 49.1821 26.6293 48.1852 26.6293H45.1335C44.7591 28.0523 44.2261 29.3958 43.5506 30.6269L45.5322 32.9066C46.2362 33.7164 46.2362 35.0458 45.5282 35.8603ZM31.3436 17.8477C33.2479 17.8477 34.79 19.6218 34.79 21.8125C34.79 24.0032 33.2479 25.7773 31.3436 25.7773C29.4393 25.7773 27.8971 24.0032 27.8971 21.8125C27.8971 19.6218 29.4434 17.8477 31.3436 17.8477ZM24.471 21.5691L15.1082 33.9036L14.7949 28.1179C8.39437 27.0646 3.49121 29.0868 0 34.8913C0.0406901 23.4696 6.49414 17.4966 14.1683 16.5791L13.8468 10.6763L24.471 21.5691Z" fill="#029894"/>
</svg>
