<svg width="44" height="45" viewBox="0 0 44 45" fill="none" xmlns="http://www.w3.org/2000/svg">
<path d="M34.9145 4.48218V9.87718M34.9145 9.87718V15.2722M34.9145 9.87718H40.3095M34.9145 9.87718H29.5195" stroke="#029894" stroke-width="5" stroke-linecap="round" stroke-linejoin="round"/>
<path fill-rule="evenodd" clip-rule="evenodd" d="M38.5106 20.0544C36.5895 20.7349 34.5149 20.8574 32.5271 20.4077C30.5393 19.958 28.7194 18.9545 27.2783 17.5133C25.8372 16.0722 24.8337 14.2524 24.3839 12.2645C23.9342 10.2767 24.0567 8.20212 24.7372 6.28101H11.5356C10.1048 6.28101 8.73254 6.84941 7.72078 7.86116C6.70903 8.87292 6.14063 10.2452 6.14062 11.676V33.256C6.14063 34.6868 6.70903 36.0591 7.72078 37.0708C8.73254 38.0826 10.1048 38.651 11.5356 38.651H33.1156C34.5465 38.651 35.9187 38.0826 36.9305 37.0708C37.9422 36.0591 38.5106 34.6868 38.5106 33.256V20.0544ZM22.3256 13.4743C22.8026 13.4743 23.26 13.6638 23.5972 14.0011C23.9345 14.3383 24.124 14.7957 24.124 15.2727V29.6593C24.124 30.1363 23.9345 30.5937 23.5972 30.931C23.26 31.2682 22.8026 31.4577 22.3256 31.4577C21.8487 31.4577 21.3913 31.2682 21.054 30.931C20.7168 30.5937 20.5273 30.1363 20.5273 29.6593V15.2727C20.5273 14.7957 20.7168 14.3383 21.054 14.0011C21.3913 13.6638 21.8487 13.4743 22.3256 13.4743ZM15.1323 18.8693C15.6092 18.8693 16.0667 19.0588 16.4039 19.3961C16.7412 19.7333 16.9306 20.1907 16.9306 20.6677V29.6593C16.9306 30.1363 16.7412 30.5937 16.4039 30.931C16.0667 31.2682 15.6092 31.4577 15.1323 31.4577C14.6553 31.4577 14.1979 31.2682 13.8607 30.931C13.5234 30.5937 13.334 30.1363 13.334 29.6593V20.6677C13.334 20.1907 13.5234 19.7333 13.8607 19.3961C14.1979 19.0588 14.6553 18.8693 15.1323 18.8693ZM29.519 24.2643C29.9959 24.2643 30.4533 24.4538 30.7906 24.7911C31.1278 25.1283 31.3173 25.5857 31.3173 26.0627V29.6593C31.3173 30.1363 31.1278 30.5937 30.7906 30.931C30.4533 31.2682 29.9959 31.4577 29.519 31.4577C29.042 31.4577 28.5846 31.2682 28.2473 30.931C27.9101 30.5937 27.7206 30.1363 27.7206 29.6593V26.0627C27.7206 25.5857 27.9101 25.1283 28.2473 24.7911C28.5846 24.4538 29.042 24.2643 29.519 24.2643Z" fill="#029894"/>
</svg>
