<svg width="48" height="44" viewBox="0 0 48 44" fill="none" xmlns="http://www.w3.org/2000/svg">
<path fill-rule="evenodd" clip-rule="evenodd" d="M19.439 15.2445C20.7531 15.2475 22.0368 15.64 23.1279 16.3723C24.2191 17.1046 25.0687 18.1438 25.5694 19.3588C26.0702 20.5737 26.1996 21.9098 25.9414 23.1982C25.6831 24.4867 25.0488 25.6697 24.1185 26.5978C23.1883 27.5259 22.0038 28.1575 20.7147 28.4127C19.4257 28.668 18.0899 28.5354 16.8761 28.0319C15.6624 27.5283 14.6251 26.6762 13.8953 25.5834C13.1656 24.4906 12.7761 23.206 12.7761 21.8919C12.7761 21.0176 12.9486 20.152 13.2836 19.3445C13.6186 18.5369 14.1097 17.8034 14.7286 17.186C15.3475 16.5685 16.0821 16.0792 16.8904 15.746C17.6987 15.4129 18.5648 15.2424 19.439 15.2445ZM35.3511 36.7044V33.3285H26.1175C26.9195 32.6033 27.6506 31.8035 28.301 30.9397H36.5397C36.8549 30.9407 37.1571 31.0662 37.3803 31.2887C37.6036 31.5113 37.7301 31.813 37.7321 32.1283V36.7044C38.5021 36.9844 39.1488 37.5267 39.5587 38.2361C39.9685 38.9455 40.1153 39.7767 39.9732 40.5836C39.831 41.3904 39.4091 42.1214 38.7816 42.6481C38.154 43.1748 37.3609 43.4635 36.5416 43.4635C35.7223 43.4635 34.9292 43.1748 34.3016 42.6481C33.674 42.1214 33.2521 41.3904 33.11 40.5836C32.9679 39.7767 33.1147 38.9455 33.5245 38.2361C33.9344 37.5267 34.5811 36.9844 35.3511 36.7044ZM34.5187 12.2014H29.234C28.721 11.3582 28.1368 10.5604 27.488 9.81655H33.3301V7.10647C32.5575 6.83406 31.9055 6.29808 31.4887 5.59269C31.072 4.8873 30.9172 4.05762 31.0514 3.24939C31.1856 2.44117 31.6004 1.7061 32.2228 1.17331C32.8452 0.640523 33.6354 0.344096 34.4547 0.336103C35.274 0.328111 36.0698 0.609063 36.7025 1.12961C37.3352 1.65015 37.7642 2.37699 37.9142 3.18244C38.0642 3.98789 37.9256 4.82043 37.5227 5.53382C37.1198 6.24721 36.4784 6.7958 35.7111 7.08324V11.0129C35.7111 11.1693 35.6803 11.3241 35.6203 11.4686C35.5603 11.6131 35.4724 11.7443 35.3617 11.8547C35.2509 11.9651 35.1194 12.0526 34.9747 12.1121C34.8301 12.1716 34.6751 12.2019 34.5187 12.2014ZM47.5736 6.11923C47.5719 5.49231 47.4012 4.87745 47.0793 4.33945C46.7575 3.80145 46.2965 3.36026 45.7448 3.06237C45.1932 2.76448 44.5714 2.62094 43.945 2.64687C43.3187 2.6728 42.7109 2.86725 42.1858 3.20972C41.6607 3.55218 41.2377 4.02998 40.9614 4.59274C40.6851 5.1555 40.5658 5.78237 40.616 6.40728C40.6662 7.03218 40.884 7.63197 41.2466 8.14341C41.6092 8.65485 42.103 9.059 42.6761 9.31325V16.282H31.0188C31.2402 17.0641 31.4045 17.8611 31.5105 18.6669H43.8646C44.1799 18.6649 44.4816 18.5385 44.7042 18.3152C44.9267 18.0919 45.0522 17.7897 45.0532 17.4745V9.47586C45.781 9.26631 46.4208 8.82532 46.8755 8.21965C47.3303 7.61398 47.5754 6.87663 47.5736 6.11923ZM47.5155 25.4499C47.5242 24.6243 47.2394 23.8224 46.712 23.1872C46.1846 22.552 45.4487 22.1248 44.6356 21.9816C43.8225 21.8384 42.9849 21.9886 42.2722 22.4054C41.5595 22.8222 41.018 23.4785 40.7442 24.2574H31.3131C31.1492 25.067 30.924 25.863 30.6394 26.6384H40.7442C41.0179 27.417 41.5591 28.0731 42.2714 28.4899C42.9837 28.9067 43.8208 29.0572 44.6337 28.9145C45.4465 28.7718 46.1823 28.3453 46.7101 27.7108C47.2378 27.0763 47.5232 26.2751 47.5155 25.4499ZM19.1874 41.0793H17.8091C17.1817 41.0783 16.5802 40.8288 16.1362 40.3856C15.6922 39.9423 15.4418 39.3412 15.4397 38.7138V36.2902C14.0869 35.9867 12.7835 35.494 11.5682 34.8267L9.94988 36.445C9.50511 36.8879 8.90305 37.1365 8.27543 37.1365C7.64782 37.1365 7.04576 36.8879 6.60099 36.445L4.64586 34.4744C4.20399 34.0292 3.95603 33.4273 3.95603 32.8C3.95603 32.1727 4.20399 31.5708 4.64586 31.1255L6.12092 29.6505C5.34873 28.4107 4.76547 27.0628 4.39034 25.6512H2.36939C1.74197 25.6502 1.14049 25.4007 0.696474 24.9574C0.25246 24.5142 0.00204937 23.9131 3.1633e-06 23.2857V20.4981C-0.00050567 20.1865 0.0603767 19.8778 0.179174 19.5896C0.297972 19.3015 0.472358 19.0396 0.692376 18.8189C0.912394 18.5981 1.17373 18.4229 1.46148 18.3032C1.74922 18.1834 2.05773 18.1215 2.36939 18.121H4.35162C4.71913 16.6953 5.29858 15.3328 6.07059 14.0791L4.64586 12.6544C4.20516 12.2093 3.95795 11.6082 3.95795 10.9819C3.95795 10.3555 4.20516 9.75448 4.64586 9.30938L6.61648 7.33876C7.06124 6.89595 7.6633 6.64735 8.29092 6.64735C8.91853 6.64735 9.52059 6.89595 9.96536 7.33876L11.514 8.88738C12.7429 8.20303 14.0637 7.69847 15.4359 7.3891V5.06617C15.4389 4.43876 15.6903 3.83809 16.1351 3.39552C16.5798 2.95296 17.1817 2.70452 17.8091 2.70452H20.5928C21.1986 2.70869 21.7799 2.94439 22.2175 3.36332C22.6552 3.78226 22.916 4.3527 22.9467 4.95776V12.8867C21.9007 12.506 20.796 12.312 19.6829 12.3137C19.5165 12.3137 19.35 12.3137 19.1874 12.3137C19.0248 12.3137 18.8583 12.3137 18.6957 12.3137C17.4286 12.2882 16.1691 12.5157 14.991 12.9829C13.8129 13.4502 12.7398 14.1478 11.8347 15.0349C10.9295 15.922 10.2104 16.9807 9.71953 18.1492C9.22862 19.3176 8.97577 20.5723 8.97577 21.8396C8.97577 23.107 9.22862 24.3617 9.71953 25.5301C10.2104 26.6986 10.9295 27.7573 11.8347 28.6444C12.7398 29.5315 13.8129 30.2291 14.991 30.6964C16.1691 31.1636 17.4286 31.3911 18.6957 31.3656C18.8583 31.3656 19.0248 31.3656 19.1874 31.3656C19.35 31.3656 19.5165 31.3656 19.6829 31.3656C20.796 31.3672 21.9007 31.1733 22.9467 30.7926V38.826C22.9159 39.4331 22.6534 40.0052 22.2133 40.4245C21.7732 40.8437 21.189 41.0781 20.5811 41.0793H19.1874Z" fill="#029894"/>
</svg>
