<svg width="33" height="44" viewBox="0 0 33 44" fill="none" xmlns="http://www.w3.org/2000/svg">
<path fill-rule="evenodd" clip-rule="evenodd" d="M16.2196 0.315599C16.9818 0.283988 17.5824 0.547416 18.19 0.933776C18.9592 1.422 19.8268 2.3879 20.8981 2.99905C22.4049 3.85958 25.1937 2.6724 26.6197 4.79387C27.4521 6.03022 27.4908 6.99964 27.554 7.95852C27.6207 8.99115 27.8034 9.943 28.8606 11.3409C30.6133 13.6591 30.9786 15.201 30.0759 16.8062C29.4612 17.902 28.1652 18.5097 27.8666 19.2051C27.2274 20.6803 27.9333 21.7937 27.0623 23.5148C26.4546 24.709 25.5203 25.4958 24.2735 25.8962C23.2233 26.2334 22.1695 25.7452 21.3266 26.0999C19.8479 26.7216 18.759 28.1652 17.5824 28.5305C17.1293 28.671 16.6762 28.7412 16.2231 28.7377C15.77 28.7412 15.3169 28.671 14.8638 28.5305C13.6872 28.1652 12.5983 26.7216 11.1196 26.0999C10.2767 25.7452 9.22295 26.2369 8.17275 25.8962C6.92586 25.4958 5.99157 24.709 5.38393 23.5148C4.50935 21.7937 5.21533 20.6803 4.57959 19.2051C4.28104 18.5097 2.98498 17.902 2.37031 16.8062C1.46061 15.201 1.8259 13.6591 3.57857 11.3444C4.63579 9.94652 4.81844 8.99467 4.88517 7.96203C4.94839 7.00315 4.98703 6.03374 5.81946 4.79738C7.24899 2.67591 10.0378 3.86309 11.5411 3.00256C12.6124 2.39141 13.4799 1.42551 14.2491 0.937289C14.8533 0.547416 15.4574 0.280476 16.2196 0.315599ZM16.2196 9.43371L17.7861 13.2622L21.9131 13.5678L18.7555 16.2407L19.739 20.2588L16.2196 18.0812L12.7002 20.2588L13.6837 16.2407L10.526 13.5678L14.6531 13.2622L16.2196 9.43371ZM31.2455 40.0265L27.1887 39.2994L25.1761 42.9031C23.715 44.712 22.7877 41.737 22.3803 40.7008L18.464 33.3143C19.3667 33.0017 20.4555 32.099 21.5724 31.084C23.8028 31.1296 25.8821 30.7433 27.41 28.7974L31.9093 37.4905L32.2992 38.3265C32.6083 39.4118 32.4467 40.1283 31.2455 40.0265ZM1.19016 40.0265L5.25046 39.2994L7.26304 42.9031C8.72419 44.712 9.65146 41.737 10.0589 40.7008L13.9752 33.3143C13.0725 33.0017 11.9837 32.099 10.8667 31.084C8.63638 31.1296 6.55706 30.7433 5.02918 28.7974L0.526319 37.4905L0.136446 38.3265C-0.172643 39.4118 -0.0110736 40.1283 1.19016 40.0265ZM16.1774 5.967C21.0245 5.967 24.9549 9.89734 24.9549 14.7444C24.9549 19.5915 21.0245 23.5218 16.1774 23.5218C11.3304 23.5218 7.40003 19.5915 7.40003 14.7444C7.40354 9.89734 11.3304 5.967 16.1774 5.967Z" fill="#029894"/>
</svg>
