<svg width="429" height="365" viewBox="0 0 429 365" fill="none" xmlns="http://www.w3.org/2000/svg">
<path d="M283.635 363.966H365.667C367.236 363.966 368.475 362.637 368.365 361.078L364.267 303.023C364.167 301.613 362.988 300.514 361.579 300.514L286.274 300.404C284.825 300.404 283.635 301.543 283.575 302.983L280.947 361.148C280.867 362.677 282.096 363.966 283.635 363.966Z" fill="#263238"/>
<path d="M294.959 363.966C295.089 363.966 295.189 349.765 295.189 332.245C295.189 314.716 295.089 300.514 294.959 300.514C294.829 300.514 294.729 314.716 294.729 332.245C294.729 349.755 294.829 363.966 294.959 363.966Z" fill="#455A64"/>
<path d="M295.928 302.013C295.918 302.013 295.968 302.093 296.048 302.243C296.148 302.413 296.288 302.633 296.448 302.903C296.828 303.502 297.357 304.332 298.027 305.391C299.426 307.54 301.445 310.658 304.183 314.346C306.942 318.004 310.409 322.291 315.077 326.219C317.395 328.188 320.034 330.016 322.952 331.595C325.88 333.135 329.178 334.364 332.716 334.654C336.264 334.953 339.722 334.154 342.79 332.905C345.868 331.645 348.627 329.946 350.985 328.028C355.722 324.16 358.861 319.473 360.779 315.305C362.708 311.108 363.398 307.39 363.678 304.851C363.738 304.212 363.798 303.642 363.828 303.152C363.838 302.663 363.838 302.253 363.848 301.903C363.848 301.583 363.848 301.334 363.848 301.134C363.848 300.964 363.838 300.874 363.828 300.874C363.818 300.874 363.808 300.964 363.798 301.134C363.788 301.334 363.768 301.583 363.748 301.903C363.728 302.253 363.708 302.663 363.688 303.152C363.648 303.642 363.568 304.202 363.498 304.841C363.158 307.36 362.428 311.038 360.48 315.175C358.541 319.283 355.413 323.9 350.715 327.698C348.367 329.587 345.648 331.256 342.61 332.485C339.582 333.704 336.194 334.474 332.746 334.194C329.288 333.914 326.05 332.715 323.152 331.196C320.264 329.637 317.655 327.828 315.337 325.889C310.699 322.011 307.221 317.764 304.433 314.146C301.675 310.488 299.606 307.41 298.167 305.291C297.467 304.252 296.908 303.432 296.508 302.843C296.328 302.583 296.178 302.373 296.068 302.213C295.988 302.073 295.928 302.003 295.928 302.013Z" fill="#455A64"/>
<path d="M329.868 334.704C329.868 336.782 331.557 338.471 333.636 338.471C335.714 338.471 337.403 336.782 337.403 334.704C337.403 332.625 335.714 330.936 333.636 330.936C331.557 330.946 329.868 332.625 329.868 334.704Z" fill="#455A64"/>
<path d="M307.841 288.681C309.42 287.222 311.629 286.682 313.767 286.472C318.924 285.963 324.591 287.032 329.088 289.591C333.596 292.149 336.904 296.406 339.102 301.094L336.144 304.192C334.935 299.315 332.236 295.077 328.049 292.309C323.861 289.541 319.414 288.271 314.457 289.071C313.318 289.251 311.709 289.68 310.759 290.34C308.82 291.689 308.531 293.268 308.87 295.277C309.38 298.245 310.12 299.535 311.389 301.134C309.21 301.184 308.701 301.194 306.522 301.244C305.972 299.095 305.422 296.916 305.462 294.707C305.512 292.489 306.222 290.19 307.841 288.681Z" fill="#263238"/>
<path d="M225.48 333.504H194.379V345.757H225.48V333.504Z" fill="#FAFAFA"/>
<path d="M290.751 331.396H193.08V333.964H290.751V331.396Z" fill="#455A64"/>
<path d="M290.751 345.208H193.539V347.776H290.751V345.208Z" fill="#455A64"/>
<path d="M225.48 332.005L225.62 347.286H290.751V332.005H225.48Z" fill="#455A64"/>
<path d="M241.301 339.631C241.301 341.73 239.722 343.429 237.783 343.429C235.844 343.429 234.265 341.73 234.265 339.631C234.265 337.532 235.844 335.833 237.783 335.833C239.722 335.833 241.301 337.532 241.301 339.631Z" fill="#263238"/>
<path d="M237.783 343.978C235.544 343.978 233.715 342.029 233.715 339.631C233.715 337.232 235.544 335.283 237.783 335.283C240.022 335.283 241.851 337.232 241.851 339.631C241.851 342.029 240.032 343.978 237.783 343.978ZM237.783 336.373C236.144 336.373 234.805 337.832 234.805 339.631C234.805 341.43 236.134 342.889 237.783 342.889C239.422 342.889 240.761 341.43 240.761 339.631C240.761 337.832 239.422 336.373 237.783 336.373Z" fill="#E0E0E0"/>
<path d="M223.142 342.749C223.142 342.909 216.755 343.029 208.87 343.029C200.985 343.029 194.599 342.899 194.599 342.749C194.599 342.589 200.985 342.469 208.87 342.469C216.745 342.469 223.142 342.589 223.142 342.749Z" fill="#263238"/>
<path d="M223.142 340.62C223.142 340.78 216.755 340.9 208.87 340.9C200.985 340.9 194.599 340.77 194.599 340.62C194.599 340.46 200.985 340.34 208.87 340.34C216.745 340.33 223.142 340.46 223.142 340.62Z" fill="#263238"/>
<path d="M223.142 338.482C223.142 338.641 216.755 338.761 208.87 338.761C200.985 338.761 194.599 338.631 194.599 338.482C194.599 338.332 200.985 338.202 208.87 338.202C216.745 338.202 223.142 338.322 223.142 338.482Z" fill="#263238"/>
<path d="M223.142 336.343C223.142 336.503 216.755 336.623 208.87 336.623C200.985 336.623 194.599 336.493 194.599 336.343C194.599 336.183 200.985 336.063 208.87 336.063C216.745 336.063 223.142 336.193 223.142 336.343Z" fill="#263238"/>
<path d="M283.536 335.253H254.183V343.429H283.536V335.253Z" fill="white"/>
<path d="M258.75 342.599C258.591 342.599 258.471 341.14 258.471 339.341C258.471 337.542 258.601 336.083 258.75 336.083C258.91 336.083 259.03 337.542 259.03 339.341C259.04 341.14 258.91 342.599 258.75 342.599Z" fill="#E0E0E0"/>
<path d="M262.628 342.599C262.468 342.599 262.348 341.14 262.348 339.341C262.348 337.542 262.478 336.083 262.628 336.083C262.788 336.083 262.908 337.542 262.908 339.341C262.918 341.14 262.788 342.599 262.628 342.599Z" fill="#E0E0E0"/>
<path d="M266.516 342.599C266.356 342.599 266.236 341.14 266.236 339.341C266.236 337.542 266.366 336.083 266.516 336.083C266.676 336.083 266.796 337.542 266.796 339.341C266.796 341.14 266.666 342.599 266.516 342.599Z" fill="#E0E0E0"/>
<path d="M270.394 342.599C270.234 342.599 270.114 341.14 270.114 339.341C270.114 337.542 270.244 336.083 270.394 336.083C270.553 336.083 270.673 337.542 270.673 339.341C270.673 341.14 270.553 342.599 270.394 342.599Z" fill="#E0E0E0"/>
<path d="M274.271 342.599C274.111 342.599 273.991 341.14 273.991 339.341C273.991 337.542 274.121 336.083 274.271 336.083C274.431 336.083 274.551 337.542 274.551 339.341C274.561 341.14 274.431 342.599 274.271 342.599Z" fill="#E0E0E0"/>
<path d="M278.159 342.599C277.999 342.599 277.879 341.14 277.879 339.341C277.879 337.542 278.009 336.083 278.159 336.083C278.319 336.083 278.439 337.542 278.439 339.341C278.439 341.14 278.309 342.599 278.159 342.599Z" fill="#E0E0E0"/>
<path d="M229.608 349.425H198.506V361.678H229.608V349.425Z" fill="#FAFAFA"/>
<path d="M294.889 347.326H197.217V349.895H294.889V347.326Z" fill="#559793"/>
<path d="M294.879 361.128H197.667V363.696H294.879V361.128Z" fill="#559793"/>
<path d="M229.608 347.936L229.758 363.207H294.879V347.936H229.608Z" fill="#559793"/>
<path d="M245.438 355.551C245.438 357.65 243.859 359.349 241.92 359.349C239.972 359.349 238.403 357.65 238.403 355.551C238.403 353.453 239.982 351.754 241.92 351.754C243.859 351.754 245.438 353.453 245.438 355.551Z" fill="#263238"/>
<path d="M241.92 359.909C239.682 359.909 237.853 357.96 237.853 355.561C237.853 353.163 239.682 351.214 241.92 351.214C244.159 351.214 245.988 353.163 245.988 355.561C245.978 357.95 244.159 359.909 241.92 359.909ZM241.92 352.303C240.281 352.303 238.942 353.762 238.942 355.561C238.942 357.36 240.281 358.819 241.92 358.819C243.56 358.819 244.899 357.36 244.899 355.561C244.889 353.762 243.56 352.303 241.92 352.303Z" fill="#E0E0E0"/>
<path d="M227.269 358.679C227.269 358.839 220.883 358.959 212.998 358.959C205.112 358.959 198.726 358.829 198.726 358.679C198.726 358.52 205.112 358.4 212.998 358.4C220.883 358.39 227.269 358.52 227.269 358.679Z" fill="#263238"/>
<path d="M227.269 356.541C227.269 356.701 220.883 356.821 212.998 356.821C205.112 356.821 198.726 356.691 198.726 356.541C198.726 356.381 205.112 356.261 212.998 356.261C220.883 356.261 227.269 356.381 227.269 356.541Z" fill="#263238"/>
<path d="M227.269 354.402C227.269 354.562 220.883 354.682 212.998 354.682C205.112 354.682 198.726 354.552 198.726 354.402C198.726 354.252 205.112 354.122 212.998 354.122C220.883 354.122 227.269 354.252 227.269 354.402Z" fill="#263238"/>
<path d="M227.269 352.273C227.269 352.433 220.883 352.553 212.998 352.553C205.112 352.553 198.726 352.423 198.726 352.273C198.726 352.123 205.112 351.993 212.998 351.993C220.883 351.983 227.269 352.113 227.269 352.273Z" fill="#263238"/>
<path d="M287.663 351.184H258.311V359.359H287.663V351.184Z" fill="white"/>
<path d="M262.878 358.53C262.718 358.53 262.598 357.07 262.598 355.272C262.598 353.473 262.728 352.013 262.878 352.013C263.038 352.013 263.158 353.473 263.158 355.272C263.168 357.07 263.038 358.53 262.878 358.53Z" fill="#E0E0E0"/>
<path d="M266.766 358.53C266.606 358.53 266.486 357.07 266.486 355.272C266.486 353.473 266.616 352.013 266.766 352.013C266.926 352.013 267.046 353.473 267.046 355.272C267.046 357.07 266.926 358.53 266.766 358.53Z" fill="#E0E0E0"/>
<path d="M270.643 358.53C270.483 358.53 270.364 357.07 270.364 355.272C270.364 353.473 270.493 352.013 270.643 352.013C270.803 352.013 270.923 353.473 270.923 355.272C270.933 357.07 270.803 358.53 270.643 358.53Z" fill="#E0E0E0"/>
<path d="M274.521 358.53C274.361 358.53 274.241 357.07 274.241 355.272C274.241 353.473 274.371 352.013 274.521 352.013C274.681 352.013 274.801 353.473 274.801 355.272C274.811 357.07 274.681 358.53 274.521 358.53Z" fill="#E0E0E0"/>
<path d="M278.409 358.53C278.249 358.53 278.129 357.07 278.129 355.272C278.129 353.473 278.259 352.013 278.409 352.013C278.569 352.013 278.689 353.473 278.689 355.272C278.689 357.07 278.559 358.53 278.409 358.53Z" fill="#E0E0E0"/>
<path d="M282.286 358.53C282.127 358.53 282.007 357.07 282.007 355.272C282.007 353.473 282.137 352.013 282.286 352.013C282.446 352.013 282.566 353.473 282.566 355.272C282.566 357.07 282.446 358.53 282.286 358.53Z" fill="#E0E0E0"/>
<path d="M166.085 60.4365L158.04 58.8274C152.633 61.8656 146.237 63.3347 139.511 62.6452C123.641 61.0061 111.398 47.3043 111.518 31.3538C111.658 12.9248 127.588 -1.44664 146.057 0.472214C161.738 2.10124 173.901 15.4933 174.031 31.2639C174.101 39.0892 171.312 46.195 166.685 51.6817L166.695 51.6717L166.085 60.4365Z" fill="white"/>
<path d="M166.085 60.4365C166.085 60.4365 166.085 60.2266 166.105 59.8468C166.125 59.4371 166.155 58.8774 166.195 58.1478C166.285 56.6487 166.415 54.47 166.575 51.6617L166.755 51.7616L166.745 51.7716C166.695 51.8116 166.625 51.7916 166.585 51.7417C166.555 51.7017 166.555 51.6417 166.595 51.6017C169.054 48.6335 171.872 44.1662 173.141 38.1398C173.781 35.1515 174.001 31.8035 173.641 28.2856C173.261 24.7677 172.222 21.0899 170.423 17.562C168.614 14.0441 166.015 10.6961 162.707 7.90778C159.409 5.12944 155.402 2.8508 150.904 1.68149C146.427 0.472214 141.54 0.272333 136.733 1.19179C131.916 2.09125 127.249 4.30993 123.291 7.51801C121.242 9.09707 119.543 11.0259 117.964 13.0047C117.254 14.0441 116.525 15.0735 115.895 16.1629L115.026 17.8219L114.596 18.6514L114.256 19.5109C112.327 24.0681 111.598 28.9652 111.868 33.6324C112.118 38.3197 113.597 42.737 115.705 46.5447C117.824 50.3625 120.642 53.5706 123.771 56.0391C126.919 58.4976 130.357 60.2266 133.755 61.266C134.614 61.4858 135.464 61.7057 136.293 61.9156C137.133 62.1055 137.972 62.1954 138.792 62.3353C140.431 62.5952 142.04 62.6352 143.569 62.6152C149.735 62.4852 154.642 60.5664 157.98 58.7275C158 58.7175 158.03 58.7075 158.06 58.7175C160.619 59.2572 162.607 59.6769 163.987 59.9667C164.656 60.1067 165.166 60.2266 165.546 60.3065C165.896 60.3865 166.085 60.4365 166.085 60.4365C166.085 60.4365 165.915 60.4165 165.576 60.3565C165.206 60.2866 164.696 60.1966 164.037 60.0767C162.637 59.8168 160.619 59.4271 158.02 58.9374L158.09 58.9274C154.752 60.8162 149.815 62.8051 143.579 62.975C142.03 63.0049 140.401 62.975 138.742 62.7251C137.912 62.5852 137.063 62.5052 136.213 62.3154C135.364 62.1055 134.504 61.8856 133.635 61.6657C130.187 60.6164 126.689 58.8874 123.491 56.3989C120.303 53.9104 117.434 50.6523 115.266 46.7846C113.117 42.9169 111.608 38.4296 111.338 33.6624C111.048 28.9153 111.788 23.9282 113.747 19.281L114.096 18.4015L114.536 17.562C114.826 17.0024 115.126 16.4427 115.426 15.873C116.055 14.7737 116.805 13.7243 117.524 12.655C119.123 10.6462 120.862 8.67732 122.941 7.06828C126.969 3.80023 131.716 1.54158 136.623 0.632119C141.52 -0.307321 146.497 -0.087452 151.044 1.14182C155.622 2.3411 159.689 4.66971 163.037 7.49803C166.385 10.3463 169.014 13.7543 170.843 17.3322C172.651 20.92 173.691 24.6578 174.061 28.2257C174.4 31.7935 174.171 35.1815 173.491 38.1997C172.162 44.2861 169.273 48.7734 166.765 51.7317L166.615 51.5618C166.625 51.5618 166.625 51.5518 166.625 51.5518C166.675 51.5118 166.745 51.5318 166.785 51.5817C166.805 51.6017 166.805 51.6317 166.805 51.6517C166.575 54.49 166.405 56.6887 166.285 58.2078C166.225 58.9274 166.175 59.477 166.145 59.8768C166.115 60.2666 166.085 60.4365 166.085 60.4365Z" fill="#263238"/>
<path d="M128.908 33.5725L132.825 29.385L140.88 36.071L155.722 20.7801L159.619 24.7077L140.571 43.9063L128.908 33.5725Z" fill="#51B1AC"/>
<path d="M386.274 3.29053H360.83L286.584 47.9739C286.864 48.3936 295.628 54.7299 307.072 62.915L199.556 260.867L109.579 221.131L29.9069 364.325H73.4409L128.338 264.045L210.909 302.292L245.908 306.47L340.662 86.8008C352.565 95.2457 361.709 101.702 361.709 101.702H387.154C387.154 101.702 379.738 39.429 379.738 38.9293C379.738 38.4396 386.274 3.29053 386.274 3.29053Z" fill="#132261"/>
<path d="M55.6615 364.325L135.654 219.901L225.31 260.867L340.941 47.9739L375.371 66.0531L245.908 306.47L154.093 264.045L99.1956 364.325H55.6615Z" fill="#213370"/>
<path d="M312.029 47.9739C312.848 49.2032 387.164 101.712 387.164 101.712L386.274 3.29053L312.029 47.9739Z" fill="#213370"/>
<path d="M312.029 47.9739C312.029 48.1138 306.332 48.2337 299.306 48.2337C292.28 48.2337 286.584 48.1138 286.584 47.9739C286.584 47.834 292.28 47.7141 299.306 47.7141C306.332 47.7141 312.029 47.824 312.029 47.9739Z" fill="#263238"/>
<path d="M331.907 63.3247C331.907 63.4646 326.21 63.5846 319.184 63.5846C312.159 63.5846 306.462 63.4646 306.462 63.3247C306.462 63.1848 312.159 63.0649 319.184 63.0649C326.21 63.0649 331.907 63.1848 331.907 63.3247Z" fill="#263238"/>
<path d="M140.821 152.462C140.821 152.462 139.282 153.131 139.032 151.072C138.792 149.014 143.089 144.716 144.459 143.357C145.828 141.998 147.797 142.288 149.536 142.677C151.275 143.067 158.41 143.787 160.779 145.306C163.147 146.825 166.765 154.45 167.525 154.81C168.284 155.17 190.531 156.329 190.531 156.329L189.572 174.568C189.572 174.568 167.735 170.411 163.407 167.703C159.08 164.994 159.65 163.915 158.42 161.396C157.191 158.868 155.872 156.189 155.872 156.189L153.823 155.85L150.545 157.659C150.545 157.659 150.155 162.286 146.917 162.166L145.328 161.326C145.328 161.326 144.269 162.556 143.059 160.657C141.85 158.758 142.08 158.408 142.08 158.408C142.08 158.408 140.811 159.977 139.432 158.028C138.072 156.079 140.821 152.462 140.821 152.462Z" fill="#AE7461"/>
<path d="M164.796 160.207C164.796 160.217 164.717 160.247 164.557 160.287C164.397 160.327 164.147 160.357 163.827 160.357C163.197 160.367 162.228 160.207 161.209 159.617C160.189 159.038 159.12 157.998 158.43 156.539C157.721 155.09 157.381 153.311 157.281 151.432L157.631 151.642C156.172 152.322 154.443 152.751 152.644 152.821C151.374 152.871 150.135 152.731 148.976 152.432C148.426 152.272 147.777 152.182 147.297 151.652C147.037 151.402 146.977 150.873 147.237 150.583C147.477 150.283 147.777 150.183 148.026 150.073C150.025 149.264 151.874 148.634 153.433 148.154C154.992 147.674 156.272 147.355 157.161 147.155C158.05 146.955 158.55 146.875 158.56 146.905C158.57 146.945 158.09 147.085 157.211 147.345C156.342 147.604 155.082 147.984 153.543 148.504C152.004 149.024 150.185 149.683 148.206 150.513C147.966 150.613 147.737 150.723 147.627 150.873C147.527 151.012 147.527 151.172 147.667 151.332C147.957 151.672 148.536 151.792 149.086 151.942C150.195 152.212 151.394 152.352 152.614 152.302C154.353 152.242 156.002 151.832 157.411 151.192L157.751 151.042L157.771 151.412C157.851 153.261 158.16 154.98 158.81 156.359C159.44 157.758 160.409 158.758 161.359 159.348C162.308 159.947 163.207 160.147 163.817 160.197C164.447 160.227 164.786 160.167 164.796 160.207Z" fill="#6F4439"/>
<path d="M153.533 147.694C153.573 147.744 152.784 148.174 151.434 148.104C150.775 148.094 149.995 147.984 149.166 148.044C148.326 148.084 147.537 148.434 146.887 149.194C145.538 150.703 143.919 151.702 142.7 152.212C141.47 152.731 140.651 152.831 140.641 152.781C140.621 152.701 141.4 152.472 142.55 151.882C143.699 151.292 145.198 150.313 146.517 148.834C146.867 148.474 147.257 148.104 147.737 147.894C148.206 147.674 148.696 147.595 149.146 147.575C150.055 147.545 150.825 147.694 151.464 147.754C152.744 147.904 153.503 147.625 153.533 147.694Z" fill="#6F4439"/>
<path d="M148.946 152.562C149.066 152.602 148.166 154.65 146.108 156.399C144.069 158.168 141.9 158.748 141.88 158.618C141.82 158.468 143.819 157.698 145.768 156C147.737 154.33 148.806 152.472 148.946 152.562Z" fill="#6F4439"/>
<path d="M149.745 155.36C149.875 155.37 149.586 157.169 148.276 158.928C146.987 160.707 145.368 161.526 145.318 161.406C145.228 161.276 146.647 160.307 147.857 158.618C149.096 156.959 149.596 155.31 149.745 155.36Z" fill="#6F4439"/>
<path d="M216.955 116.913L197.037 152.851L166.136 152.322L163.807 170.881L195.698 178.696L208.83 164.275L216.955 116.913Z" fill="#559793"/>
<path d="M199.526 158.948C199.376 158.958 199.176 157.489 198.486 155.82C197.817 154.141 196.917 152.951 197.037 152.851C197.127 152.751 198.256 153.851 198.966 155.62C199.696 157.379 199.656 158.948 199.526 158.948Z" fill="#263238"/>
<path d="M224.521 53.3207C222.002 53.6505 219.374 51.8516 218.794 49.3731C218.205 46.9045 219.744 44.1062 222.142 43.2767C220.543 41.6976 220.103 39.0592 221.093 37.0504C222.092 35.0316 224.451 33.7824 226.68 34.0922C226.73 31.8735 228.019 29.7248 229.948 28.6254C231.876 27.5261 234.385 27.5261 236.314 28.6254C238.722 26.4767 242.68 26.3268 245.249 28.2856C247.397 27.8459 249.766 28.9552 250.815 30.8741C251.865 32.8029 251.505 35.3914 249.966 36.9605" fill="#263238"/>
<path d="M246.468 33.3826L245.328 33.4026C233.865 33.6225 224.491 42.6171 223.791 54.0603C223.142 64.704 222.552 76.4769 222.742 82.1835C223.122 93.9865 234.965 95.5955 234.965 95.5955L234.245 109.807L235.644 120.641L262.888 108.368L264.427 56.8686C265.227 44.576 258.77 33.8623 246.468 33.3826Z" fill="#AE7461"/>
<path d="M234.855 95.5755C234.855 95.5755 242.4 95.8854 250.236 90.7484C250.236 90.7484 246.578 99.893 234.775 99.0535L234.855 95.5755Z" fill="#6F4439"/>
<path d="M227.619 66.0931C227.609 66.9826 228.349 67.7321 229.278 67.7621C230.207 67.7921 230.977 67.1025 230.987 66.2031C230.997 65.3136 230.257 64.564 229.328 64.5341C228.399 64.5141 227.629 65.2037 227.619 66.0931Z" fill="#263238"/>
<path d="M226.44 59.7869C226.65 60.0068 227.909 59.0273 229.728 58.9974C231.537 58.9374 232.886 59.8469 233.086 59.627C233.186 59.527 232.956 59.1373 232.376 58.7275C231.797 58.3178 230.817 57.928 229.688 57.958C228.558 57.988 227.619 58.4177 227.079 58.8575C226.51 59.2872 226.33 59.6969 226.44 59.7869Z" fill="#263238"/>
<path d="M242.99 65.7233C242.98 66.6128 243.719 67.3624 244.649 67.3924C245.578 67.4223 246.348 66.7327 246.358 65.8333C246.368 64.9438 245.628 64.1943 244.699 64.1643C243.769 64.1343 243 64.8239 242.99 65.7233Z" fill="#263238"/>
<path d="M244.279 59.7769C244.489 59.9968 245.758 59.0273 247.567 58.9974C249.376 58.9374 250.725 59.8469 250.925 59.627C251.015 59.527 250.805 59.1373 250.216 58.7275C249.636 58.3178 248.656 57.928 247.527 57.958C246.398 57.988 245.458 58.4177 244.919 58.8575C244.359 59.2872 244.179 59.687 244.279 59.7769Z" fill="#263238"/>
<path d="M237.953 73.3688C237.963 73.2689 236.824 73.089 234.995 72.8891C234.535 72.8491 234.085 72.7692 234.005 72.4493C233.885 72.1195 234.075 71.6098 234.285 71.0702C234.695 69.9408 235.135 68.7515 235.584 67.5123C237.393 62.4553 238.682 58.2978 238.483 58.2278C238.283 58.1579 236.644 62.2054 234.845 67.2624C234.415 68.5117 233.995 69.701 233.605 70.8403C233.436 71.37 233.146 71.9696 233.396 72.6592C233.526 72.999 233.875 73.2489 234.175 73.3188C234.475 73.3988 234.735 73.3988 234.965 73.4088C236.804 73.4887 237.953 73.4687 237.953 73.3688Z" fill="#263238"/>
<path d="M242.57 52.831C242.82 53.2908 244.359 52.7611 246.278 52.6611C248.187 52.5212 249.806 52.851 249.976 52.3713C250.046 52.1414 249.696 51.7317 249.006 51.3819C248.317 51.0221 247.267 50.7623 246.118 50.8322C244.969 50.9022 243.979 51.3019 243.36 51.7317C242.73 52.1614 242.46 52.6112 242.57 52.831Z" fill="#263238"/>
<path d="M226.2 52.3113C226.59 52.7111 228.079 52.2613 229.878 52.2014C231.677 52.0914 233.206 52.4112 233.555 51.9715C233.705 51.7616 233.456 51.3519 232.786 50.9721C232.126 50.5923 231.017 50.3025 229.778 50.3525C228.538 50.4124 227.479 50.8022 226.859 51.2419C226.23 51.6817 226.03 52.1114 226.2 52.3113Z" fill="#263238"/>
<path d="M224.811 48.6235C224.811 48.6235 227.779 41.168 231.317 39.3691C235.594 37.2003 237.543 41.8975 241.631 40.6683C245.718 39.439 249.806 37.3503 254.073 40.4484C258.74 43.8364 256.632 46.3249 257.021 51.5618C258.591 72.7791 262.578 78.7156 263.488 68.6916C263.588 67.5922 266.616 66.6628 266.976 62.0255C267.445 56.0091 267.535 48.7135 266.106 44.476C264.907 40.9081 262.808 38.4596 259.08 35.8012C253.194 31.5937 245.229 31.6536 239.832 32.3033C234.455 32.9429 224.141 39.3691 224.811 48.6235Z" fill="#263238"/>
<path d="M262.738 68.3818C262.778 66.5529 264.317 65.0837 266.136 65.2236C268.345 65.3935 270.813 66.5928 270.763 71.1501C270.663 79.2253 262.568 77.4564 262.558 77.2265C262.548 77.0766 262.668 71.7697 262.738 68.3818Z" fill="#AE7461"/>
<path d="M264.357 74.2183C264.397 74.1883 264.497 74.3182 264.737 74.4281C264.967 74.5381 265.367 74.618 265.786 74.4581C266.646 74.1583 267.375 72.8091 267.435 71.35C267.465 70.6204 267.315 69.9108 267.066 69.3312C266.826 68.7415 266.446 68.3218 266.016 68.2418C265.586 68.1419 265.287 68.3917 265.177 68.6216C265.067 68.8415 265.117 69.0114 265.077 69.0214C265.057 69.0413 264.907 68.8814 264.977 68.5516C265.017 68.3917 265.107 68.2018 265.297 68.0519C265.496 67.892 265.776 67.8221 266.076 67.8521C266.696 67.902 267.255 68.4817 267.535 69.1213C267.845 69.7609 268.025 70.5504 267.995 71.38C267.925 73.009 267.066 74.5181 265.896 74.8479C265.327 74.9878 264.857 74.8079 264.607 74.618C264.367 74.4081 264.327 74.2283 264.357 74.2183Z" fill="#6F4439"/>
<path d="M262.278 52.751C261.239 53.4906 260.15 54.2501 258.89 54.4001C257.631 54.55 256.172 53.8504 255.932 52.6011C255.822 52.0415 255.952 51.3819 255.572 50.9621C255.123 50.4524 254.313 50.6323 253.634 50.7123C251.295 51.0021 248.497 48.4636 247.857 46.195C247.277 47.1044 245.968 47.4042 245.049 46.8346C244.129 46.2649 243.799 45.9451 243.07 45.1456C242.34 44.3461 241.331 43.6365 240.271 43.8164C239.672 43.9163 239.122 44.2761 238.523 44.2361C237.463 44.1662 236.923 42.9269 236.734 41.8775C236.554 40.8282 236.404 39.5989 235.494 39.0492C234.655 38.5395 233.575 38.8593 232.606 39.0292C231.637 39.1891 230.367 38.9892 230.098 38.0398C229.958 37.5401 230.158 37.0104 230.427 36.5707C231.647 34.5719 234.375 33.6324 236.564 34.4719C237.303 31.7935 239.752 29.6648 242.52 29.315C245.278 28.9652 248.187 30.4244 249.556 32.8429C251.235 31.2639 253.703 30.5643 255.952 31.034C258.211 31.5037 260.19 33.1227 261.099 35.2415C263.058 34.6918 265.307 35.4014 266.586 36.9804C267.865 38.5595 268.085 40.9181 267.125 42.707C268.595 43.5066 269.864 44.9257 269.924 46.5947C269.984 48.2637 268.395 49.9627 266.766 49.5529C267.445 50.8422 266.946 52.6211 265.696 53.3707C264.447 54.1202 262.648 53.7305 261.829 52.5312" fill="#263238"/>
<path d="M236.024 36.8406C236.014 36.8406 236.014 36.8905 236.024 36.9905C236.034 37.0904 236.044 37.2303 236.084 37.4202C236.164 37.79 236.324 38.3397 236.704 38.9693C237.083 39.5789 237.663 40.2885 238.532 40.8482C239.392 41.4078 240.551 41.8276 241.861 41.7276L241.721 41.5477C241.481 42.2473 241.571 43.0668 241.93 43.7764C242.27 44.496 242.8 45.1256 243.35 45.7353C243.629 46.0251 243.879 46.3749 244.269 46.6447C244.649 46.9046 245.099 47.0445 245.558 47.0944C246.468 47.1944 247.497 46.8946 248.137 46.115L247.837 46.0351C248.077 47.6341 249.016 49.2232 250.485 50.1726C251.265 50.7123 252.224 51.0321 253.154 50.9921C254.083 50.9621 254.953 50.6723 255.752 50.3725L255.532 50.2825C255.982 51.2819 256.672 52.1214 257.491 52.7411C258.301 53.3607 259.36 53.7105 260.32 53.4506C262.218 53.0109 263.448 51.4019 263.677 49.9028L263.498 49.9927C264.457 50.4924 265.466 50.5224 266.276 50.3425C267.095 50.1726 267.735 49.8028 268.195 49.443C268.655 49.0733 268.914 48.6935 269.074 48.4436C269.224 48.1738 269.284 48.0239 269.274 48.0239C269.234 47.9939 269.014 48.6435 268.115 49.3431C267.665 49.6729 267.035 50.0127 266.246 50.1626C265.466 50.3125 264.507 50.2626 263.618 49.7828L263.468 49.7029L263.438 49.8728C263.208 51.272 262.018 52.7711 260.26 53.1608C259.39 53.3807 258.461 53.0709 257.691 52.4812C256.922 51.9016 256.272 51.0821 255.852 50.1526L255.782 50.0027L255.622 50.0327C254.833 50.3325 253.993 50.6023 253.134 50.6223C252.274 50.6623 251.415 50.3725 250.665 49.8628C249.276 48.9633 248.387 47.4742 248.157 45.9651L248.097 45.5853L247.847 45.8852C247.307 46.5548 246.388 46.8346 245.568 46.7546C245.159 46.7147 244.759 46.5847 244.429 46.3649C244.109 46.155 243.849 45.8052 243.559 45.5154C243.01 44.9157 242.49 44.3061 242.17 43.6365C241.831 42.9769 241.751 42.2473 241.96 41.6177L242.02 41.4278L241.821 41.4478C240.591 41.5577 239.472 41.178 238.632 40.6583C237.783 40.1386 237.203 39.469 236.814 38.8893C236.074 37.6801 236.074 36.8206 236.024 36.8406Z" fill="#455A64"/>
<path d="M238.473 79.5651C238.513 79.2653 240.501 79.635 242.25 78.2059C243.999 76.7767 244.179 74.608 244.459 74.648C244.589 74.648 244.759 75.1977 244.609 76.0971C244.469 76.9866 243.939 78.2159 242.88 79.0954C241.811 79.9748 240.571 80.1947 239.742 80.1048C238.882 80.0248 238.433 79.705 238.473 79.5651Z" fill="#263238"/>
<path d="M180.917 193.887L196.298 176.927L209.16 138.06C211.788 131.314 214.037 122.759 217.215 116.363C218.784 113.215 221.413 110.736 224.631 109.317L230.088 106.889L233.356 101.682C231.477 113.465 247.997 114.924 265.546 100.283C265.546 100.283 271.343 104.21 279.518 110.986C283.096 113.955 286.344 117.193 287.693 122.1C290.152 130.994 279.598 157.319 268.105 182.084C264.667 189.49 248.297 222.68 248.297 222.68L242.4 226.977C242.4 226.977 190.301 211.187 185.604 202.542C180.917 193.887 180.917 193.887 180.917 193.887Z" fill="#51B1AC"/>
<path d="M189.452 183.773C189.442 183.763 189.592 183.583 189.892 183.263C190.231 182.903 190.671 182.444 191.211 181.874C192.42 180.635 194.099 178.916 196.168 176.797L196.128 176.867C197.087 173.909 198.237 170.361 199.526 166.423C200.845 162.476 202.194 158.098 203.553 153.461C206.182 144.376 208.67 136.171 210.959 130.395C212.068 127.497 213.118 125.208 213.847 123.639C214.217 122.899 214.517 122.31 214.747 121.85C214.957 121.44 215.076 121.24 215.086 121.24C215.106 121.25 215.017 121.47 214.837 121.89C214.627 122.36 214.367 122.959 214.027 123.719C213.348 125.308 212.358 127.616 211.299 130.515C209.1 136.301 206.671 144.506 204.043 153.591C202.684 158.218 201.325 162.616 199.975 166.553C198.656 170.481 197.467 174.009 196.468 176.957L196.458 176.997L196.428 177.027C194.309 179.096 192.59 180.775 191.351 181.984C190.781 182.534 190.311 182.973 189.961 183.313C189.642 183.643 189.462 183.793 189.452 183.773Z" fill="#263238"/>
<path d="M237.283 119.052L219.264 192.938L200.545 202.242V184.173L232.936 117.453L237.283 119.052Z" fill="#132261"/>
<g opacity="0.3">
<path d="M202.824 186.281C207.931 188.2 212.538 191.249 217.045 194.317C221.563 197.385 226.07 200.533 231.077 202.712C236.084 204.89 241.691 206.05 247.037 204.94C252.384 203.841 257.381 200.183 259.14 195.016L202.824 186.281Z" fill="black"/>
</g>
<path d="M230.088 106.669L234.695 99.6131L236.504 109.277L241.091 104.08L263.867 93.4268L267.815 101.902L242.65 116.783L235.674 116.263L230.587 110.217L230.088 106.669Z" fill="#51B1AC"/>
<path d="M230.088 106.669C230.148 106.659 230.247 107.209 230.427 108.128C230.657 109.227 230.917 110.477 231.197 111.856L230.737 111.786C231.127 111.066 231.547 110.307 231.976 109.517C232.666 108.298 233.306 107.159 233.895 106.119L234.145 105.68L234.305 106.139C234.705 107.289 234.925 108.258 235.105 108.938C235.274 109.617 235.384 109.997 235.334 110.017C235.294 110.037 235.095 109.677 234.855 109.018C234.595 108.368 234.315 107.398 233.885 106.299L234.295 106.329C233.725 107.378 233.106 108.528 232.436 109.757C231.996 110.547 231.567 111.306 231.167 112.016L230.837 112.595L230.707 111.946C230.118 108.908 229.958 106.679 230.088 106.669Z" fill="#263238"/>
<path d="M237.753 110.227L234.855 109.877C234.065 110.756 232.146 112.575 231.367 113.465L231.377 113.545C231.717 115.474 232.066 117.413 232.406 119.341C234.025 119.261 235.654 119.391 237.243 119.731C238.213 118.032 238.942 116.753 239.912 115.054L237.753 110.227Z" fill="#132261"/>
<path d="M242.7 219.202C242.64 219.252 241.791 218.342 240.361 216.933C238.932 215.524 236.903 213.635 234.525 211.716C232.136 209.807 229.848 208.238 228.159 207.159C226.47 206.07 225.4 205.44 225.44 205.37C225.46 205.34 225.75 205.46 226.25 205.71C226.76 205.95 227.479 206.34 228.349 206.849C230.098 207.859 232.436 209.388 234.845 211.317C237.253 213.245 239.252 215.194 240.621 216.683C241.301 217.423 241.841 218.043 242.19 218.482C242.54 218.922 242.73 219.182 242.7 219.202Z" fill="#263238"/>
<path d="M237.973 110.826L241.191 109.237L242.29 114.874L239.602 115.114L237.973 110.826Z" fill="#132261"/>
<path opacity="0.3" d="M240.761 106.969V119.731L264.477 104.06L242.4 116.913L240.761 106.969Z" fill="black"/>
<path d="M267.815 101.902C267.835 101.932 267.345 102.302 266.436 102.941C265.516 103.571 264.177 104.46 262.478 105.49C259.09 107.568 254.223 110.127 248.986 113.135C246.768 114.424 244.679 115.714 242.8 116.983L242.49 117.193L242.42 116.823C241.701 112.925 241.081 109.547 240.611 106.999L240.881 107.079C239.852 108.038 239.022 108.818 238.373 109.417C237.783 109.947 237.463 110.227 237.443 110.207C237.423 110.187 237.703 109.867 238.263 109.297C238.882 108.668 239.682 107.858 240.661 106.859L240.871 106.649L240.931 106.939C241.441 109.477 242.13 112.845 242.91 116.733L242.53 116.573C244.409 115.274 246.508 113.965 248.736 112.675C254.003 109.657 258.88 107.159 262.308 105.16C264.027 104.18 265.396 103.341 266.346 102.761C267.265 102.182 267.795 101.872 267.815 101.902Z" fill="#263238"/>
<path d="M234.885 110.956L233.555 107.698L231.357 111.736L232.296 113.195L234.885 110.956Z" fill="#132261"/>
<path d="M238.523 110.487C238.632 110.587 237.043 112.426 235.344 114.874C233.625 117.313 232.446 119.431 232.306 119.361C232.186 119.301 233.176 117.053 234.915 114.574C236.644 112.086 238.433 110.387 238.523 110.487Z" fill="#263238"/>
<path d="M236.913 119.831C236.873 119.971 235.784 119.811 234.455 119.591C233.126 119.361 232.046 119.161 232.056 119.022C232.066 118.882 233.186 118.852 234.545 119.082C235.904 119.301 236.953 119.691 236.913 119.831Z" fill="#263238"/>
<path d="M117.325 165.784L102.314 123.349C102.024 122.43 102.584 121.47 103.523 121.27L138.202 112.216C139.072 112.026 139.941 112.515 140.211 113.365L155.992 161.166L204.933 193.307L202.584 195.706L190.061 192.658L117.325 165.784Z" fill="#455A64"/>
<path d="M202.574 195.696C202.564 195.706 202.484 195.656 202.324 195.556C202.134 195.436 201.904 195.286 201.615 195.106C200.965 194.676 200.055 194.087 198.896 193.327C196.518 191.748 193.13 189.49 188.962 186.711C180.577 181.065 169.044 173.299 156.302 164.724C155.412 164.125 154.533 163.525 153.713 162.975L153.643 162.925L153.613 162.845C149.006 148.944 144.878 136.481 141.88 127.457C140.421 122.979 139.242 119.361 138.412 116.813C138.022 115.584 137.713 114.614 137.493 113.925C137.403 113.615 137.323 113.365 137.263 113.175C137.213 113.005 137.193 112.915 137.203 112.915C137.213 112.915 137.253 112.995 137.313 113.165C137.383 113.355 137.473 113.605 137.583 113.905C137.823 114.594 138.162 115.554 138.592 116.763C139.462 119.291 140.691 122.899 142.21 127.357C145.238 136.371 149.426 148.804 154.093 162.696L153.993 162.566C154.812 163.125 155.702 163.715 156.581 164.315C169.284 172.939 180.797 180.745 189.162 186.421C193.289 189.26 196.647 191.558 199.006 193.177C200.135 193.967 201.025 194.587 201.664 195.036C201.944 195.236 202.174 195.406 202.354 195.526C202.504 195.626 202.584 195.686 202.574 195.696Z" fill="#263238"/>
<path d="M123.311 164.874C123.301 164.734 130.127 164.295 138.542 163.895C146.967 163.495 153.793 163.295 153.803 163.435C153.813 163.575 146.987 164.015 138.572 164.415C130.147 164.814 123.311 165.014 123.311 164.874Z" fill="#263238"/>
<path d="M128.838 140.649C129.438 142.578 129.098 144.396 128.078 144.716C127.059 145.036 125.74 143.737 125.13 141.818C124.53 139.889 124.87 138.07 125.89 137.75C126.909 137.431 128.228 138.73 128.838 140.649Z" fill="#E0E0E0"/>
<path d="M171.572 155.79C171.572 155.79 170.273 156.429 170.073 154.37C169.893 152.542 174.291 149.823 175.94 148.804C177.589 147.784 181.057 148.484 182.826 148.714C185.214 149.024 190.791 151.522 192.56 153.651C194.359 155.81 195.598 161.336 196.248 161.856C196.907 162.376 219.064 171.1 219.064 171.1L214.017 188.65C214.017 188.65 193.679 179.675 190.071 176.058C186.464 172.45 187.263 171.52 186.633 168.792C186.004 166.053 185.324 163.145 185.324 163.145L183.405 162.356L179.808 163.375C179.808 163.375 179.368 164.744 178.438 165.814C177.329 167.093 175.32 167.033 174.211 165.764C174.211 165.764 172.382 166.403 171.492 164.335C171.123 163.485 171.393 162.206 171.393 162.206C171.393 162.206 169.754 162.526 169.744 160.487C169.724 158.288 171.572 155.79 171.572 155.79Z" fill="#AE7461"/>
<path d="M183.106 158.108C183.106 158.198 182.366 158.168 181.227 158.418C180.097 158.658 178.558 159.248 177.229 160.417C175.9 161.586 175.12 163.035 174.741 164.135C174.351 165.234 174.281 165.974 174.201 165.964C174.141 165.964 174.081 165.204 174.391 164.025C174.701 162.855 175.47 161.276 176.889 160.027C178.308 158.778 179.967 158.208 181.167 158.058C182.366 157.888 183.116 158.048 183.106 158.108Z" fill="#6F4439"/>
<path d="M181.447 154.34C181.437 154.43 180.637 154.301 179.418 154.58C178.208 154.85 176.609 155.63 175.24 156.969C173.871 158.318 172.952 159.827 172.272 160.897C171.602 161.986 171.183 162.656 171.123 162.626C171.063 162.596 171.363 161.856 171.952 160.717C172.552 159.587 173.441 158.008 174.87 156.599C176.3 155.19 178.039 154.41 179.338 154.221C180.667 154.021 181.467 154.301 181.447 154.34Z" fill="#6F4439"/>
<path d="M181.127 150.223C181.117 150.313 180.427 150.213 179.368 150.413C178.308 150.593 176.879 151.142 175.55 152.122C174.211 153.101 173.181 154.231 172.432 155.04C171.682 155.85 171.203 156.349 171.143 156.299C171.093 156.259 171.462 155.68 172.152 154.8C172.842 153.931 173.851 152.731 175.25 151.702C176.649 150.673 178.188 150.143 179.328 150.043C180.457 149.943 181.147 150.173 181.127 150.223Z" fill="#6F4439"/>
<path d="M275.69 110.357C281.917 111.576 285.974 117.053 287.243 123.889C289.042 133.593 266.786 179.485 262.638 189.5C258.271 200.053 248.606 202.362 242.97 202.232C237.343 202.102 197.897 183.603 197.897 183.603L203.683 163.585L238.732 173.989L252.624 134.912" fill="#559793"/>
<path d="M252.624 134.922C252.624 134.922 252.554 135.162 252.404 135.622C252.244 136.092 252.014 136.771 251.715 137.651C251.085 139.45 250.176 142.068 248.996 145.436C246.608 152.212 243.17 161.986 238.912 174.059L238.852 174.229L238.682 174.179C228.608 171.201 216.706 167.683 203.623 163.825L203.923 163.665C202.074 170.061 200.145 176.757 198.157 183.683L198.017 183.383C207.221 187.661 217.075 192.148 227.349 196.466C231.517 198.195 235.654 199.924 239.832 201.253L241.401 201.702C241.92 201.842 242.44 201.882 242.96 201.982C244.039 202.002 245.119 201.952 246.178 201.802C248.307 201.543 250.375 200.933 252.284 200.073C256.122 198.344 259.3 195.386 261.239 191.818C262.218 190.059 262.938 188.141 263.767 186.312C264.587 184.483 265.406 182.674 266.206 180.885C272.682 166.613 278.419 153.711 282.536 142.608C284.565 137.051 286.314 131.954 287.034 127.317C287.183 126.157 287.273 125.028 287.124 123.969C286.914 122.899 286.674 121.88 286.354 120.931C285.734 119.022 284.895 117.373 283.955 116.024C282.067 113.295 279.788 111.896 278.209 111.216C277.409 110.877 276.78 110.667 276.34 110.567C275.91 110.457 275.69 110.377 275.69 110.377C275.69 110.377 275.92 110.417 276.35 110.507C276.79 110.597 277.429 110.787 278.239 111.106C279.838 111.766 282.166 113.145 284.105 115.894C285.075 117.253 285.924 118.922 286.574 120.841C286.904 121.8 287.154 122.829 287.373 123.909C287.543 125.018 287.453 126.177 287.313 127.347C286.624 132.034 284.885 137.151 282.876 142.728C278.798 153.871 273.082 166.793 266.636 181.075C265.836 182.864 265.027 184.673 264.207 186.502C263.378 188.32 262.668 190.229 261.659 192.048C259.69 195.706 256.422 198.754 252.484 200.523C250.515 201.413 248.407 202.032 246.228 202.302C245.139 202.452 244.039 202.502 242.93 202.492C242.38 202.392 241.801 202.342 241.261 202.202L239.662 201.742C235.444 200.403 231.317 198.674 227.129 196.945C216.845 192.618 206.991 188.131 197.787 183.843L197.587 183.753L197.647 183.543C199.656 176.617 201.595 169.931 203.443 163.535L203.513 163.305L203.743 163.375C216.815 167.273 228.708 170.821 238.772 173.829L238.542 173.949C242.86 161.896 246.358 152.142 248.786 145.386C250.006 142.028 250.945 139.42 251.595 137.631C251.915 136.761 252.164 136.092 252.334 135.622C252.524 135.142 252.624 134.922 252.624 134.922Z" fill="#559793"/>
<path d="M244.329 188.68C244.169 188.71 243.629 185.192 242.07 181.135C240.531 177.067 238.592 174.089 238.732 173.999C238.782 173.959 239.342 174.658 240.092 175.888C240.841 177.117 241.771 178.886 242.55 180.945C243.33 183.003 243.819 184.942 244.079 186.361C244.339 187.781 244.389 188.67 244.329 188.68Z" fill="#263238"/>
<path d="M273.272 110.447C273.302 110.537 271.983 110.966 270.004 111.966C269.014 112.455 267.875 113.135 266.666 113.955C265.466 114.804 264.207 115.803 262.998 116.983C261.799 118.172 260.759 119.401 259.89 120.581C259.04 121.77 258.341 122.889 257.821 123.879C256.772 125.837 256.322 127.147 256.232 127.117C256.202 127.107 256.292 126.767 256.482 126.177C256.662 125.578 257.011 124.728 257.501 123.719C257.981 122.699 258.661 121.54 259.51 120.311C260.379 119.101 261.419 117.832 262.648 116.623C263.887 115.424 265.177 114.414 266.416 113.575C267.665 112.755 268.834 112.106 269.864 111.646C270.883 111.186 271.743 110.856 272.342 110.686C272.922 110.497 273.262 110.417 273.272 110.447Z" fill="#263238"/>
<path d="M54.5921 254.401L35.6534 230.725C35.6534 230.725 108.92 170.361 115.846 166.054C121.093 162.785 131.756 158.448 141.85 161.846C151.944 165.234 169.034 177.047 175.33 180.875C181.626 184.702 236.464 218.672 242.39 226.977C242.39 226.977 230.457 248.564 222.642 252.182C216.526 255.021 198.886 250.783 188.572 244.517C178.268 238.251 130.977 197.755 130.977 197.755L54.5921 254.401Z" fill="#263238"/>
<path d="M61.6479 282.154L87.2327 300.533L136.473 220.281L186.194 242.938L152.764 187.081C152.764 187.081 125.8 187.401 121.562 186.921C116.125 186.311 106.201 194.886 100.785 205.37C96.0774 214.475 61.6479 282.154 61.6479 282.154Z" fill="#263238"/>
<path d="M170.113 236.322C170.013 236.422 158.78 224.968 145.038 210.737C131.286 196.505 120.233 184.892 120.333 184.792C120.433 184.692 131.666 196.146 145.408 210.377C159.15 224.609 170.213 236.222 170.113 236.322Z" fill="#455A64"/>
<path opacity="0.3" d="M76.0294 238.51C76.0294 238.51 98.0662 197.335 108.44 194.587C108.44 194.587 93.429 214.934 88.402 229.336L76.0294 238.51Z" fill="black"/>
<path d="M125.02 189.669C125 189.739 124.021 189.27 122.132 189.12C120.253 188.94 117.435 189.26 114.396 190.769C111.338 192.238 108.32 195.066 105.672 198.684C103.033 202.322 100.385 206.529 97.8564 211.067C92.8593 220.191 89.0016 228.816 85.9335 234.913C84.4244 237.971 83.1351 240.419 82.2257 242.098C81.7759 242.898 81.4162 243.537 81.1463 244.017C80.8965 244.457 80.7565 244.677 80.7366 244.667C80.7166 244.657 80.8265 244.417 81.0464 243.967C81.2962 243.477 81.626 242.818 82.0358 242.008C82.8853 240.299 84.1245 237.831 85.5937 234.753C88.5819 228.616 92.3796 219.971 97.3966 210.817C99.9451 206.26 102.604 202.052 105.282 198.404C107.98 194.766 111.078 191.908 114.227 190.449C117.355 188.96 120.243 188.68 122.142 188.93C124.071 189.14 125.02 189.669 125.02 189.669Z" fill="#455A64"/>
<path d="M74.2104 267.243L60.1988 293.078C60.1988 293.078 28.9474 289.39 26.1691 294.087L76.9488 320.052L98.0263 279.346L74.2104 267.243Z" fill="#263238"/>
<path d="M77.0188 298.904C79.0875 300.773 76.3292 304.071 74.1705 302.252C71.8718 300.174 75.1599 296.826 77.1687 299.064" fill="#E0E0E0"/>
<path d="M76.9488 320.042L78.9076 315.854L29.4871 292.528C29.4871 292.528 26.7188 292.358 26.1691 294.077L76.9488 320.042Z" fill="#455A64"/>
<path d="M59.4992 292.398C59.3793 292.648 60.5586 293.398 61.3781 294.817C62.2276 296.216 62.3075 297.615 62.5874 297.635C64.0065 296.766 60.9384 291.569 59.4992 292.398Z" fill="white"/>
<path d="M53.0531 291.879C52.8732 292.088 53.7327 293.058 54.0425 294.537C54.3923 296.006 54.0225 297.245 54.2823 297.365C55.9014 297.025 54.6621 291.479 53.0531 291.879Z" fill="white"/>
<path d="M46.7668 296.706C48.136 296.886 48.3359 291.389 46.9667 291.469C47.0266 291.629 46.8368 296.546 46.7668 296.706Z" fill="white"/>
<path d="M63.0071 286.642C63.187 286.632 68.0441 289.49 68.1141 289.64C68.9036 288.471 63.6368 285.392 63.0071 286.642Z" fill="white"/>
<path d="M55.1418 221.201L31.1261 238.131C31.1261 238.131 4.75185 220.961 0.18457 223.939L34.1843 269.732L70.2128 241.369L55.1418 221.201Z" fill="#263238"/>
<path d="M43.6187 250.823C44.6481 253.412 40.7104 255.14 39.5811 252.562C38.4418 249.674 42.8691 248.135 43.6886 251.033" fill="#E0E0E0"/>
<path d="M34.1843 269.732L37.8022 266.854L3.85238 224.029C3.85238 224.029 1.45381 222.65 0.18457 223.949L34.1843 269.732Z" fill="#455A64"/>
<path d="M30.8063 237.221C30.5864 237.391 31.316 238.59 31.4159 240.219C31.5559 241.848 31.0062 243.138 31.246 243.278C32.9051 243.138 32.4553 237.111 30.8063 237.221Z" fill="white"/>
<path d="M25.2596 233.893C25.0098 234.003 25.3396 235.252 24.9598 236.711C24.62 238.181 23.7405 239.13 23.9204 239.35C25.5195 239.78 26.8687 234.253 25.2596 233.893Z" fill="white"/>
<path d="M17.4843 235.432C18.6336 236.202 21.252 231.365 19.9828 230.825C19.9728 231.005 17.6242 235.322 17.4843 235.432Z" fill="white"/>
<path opacity="0.3" d="M166.346 232.434C166.346 232.434 138.342 211.117 131.666 202.902C125.08 194.796 121.572 186.921 121.572 186.921L166.346 232.434Z" fill="black"/>
</svg>
