<svg width="30" height="30" viewBox="0 0 30 30" fill="none" xmlns="http://www.w3.org/2000/svg">
<rect x="0.5" y="0.5" width="29" height="29" rx="14.5" fill="#449D44"/>
<rect x="0.5" y="0.5" width="29" height="29" rx="14.5" stroke="#E4E4E4"/>
<g clip-path="url(#clip0_1368_3614)">
<path fill-rule="evenodd" clip-rule="evenodd" d="M11.7411 16.9057L20.5063 9.951C20.7194 9.78426 20.9769 9.68399 21.2466 9.66271C21.5163 9.64143 21.7863 9.70009 22.0229 9.83134C22.2595 9.9626 22.4521 10.1607 22.5768 10.4008C22.7015 10.6409 22.7527 10.9124 22.724 11.1814C22.7039 11.3608 22.6485 11.5344 22.5611 11.6923C22.4736 11.8502 22.3557 11.9892 22.2143 12.1013L12.2567 20.0052L12.1601 20.0843C12.1205 20.1128 12.0794 20.1392 12.037 20.1634L11.9843 20.1927H11.9784C11.6649 20.3529 11.3019 20.3869 10.9641 20.2877C10.6263 20.1886 10.3393 19.9638 10.1621 19.6595L10.0098 19.3988L7.45229 14.9576C7.35857 14.8014 7.2969 14.6282 7.27089 14.4479C7.24488 14.2676 7.25504 14.084 7.30079 13.9077C7.34654 13.7314 7.42696 13.566 7.53734 13.4211C7.64773 13.2763 7.78587 13.1548 7.9437 13.064C8.10154 12.9731 8.2759 12.9145 8.4566 12.8918C8.6373 12.869 8.82073 12.8825 8.99616 12.9314C9.1716 12.9804 9.33553 13.0638 9.47838 13.1767C9.62123 13.2897 9.74014 13.43 9.82815 13.5895L11.7441 16.9087L11.7411 16.9057Z" fill="white"/>
</g>
<defs>
<clipPath id="clip0_1368_3614">
<rect width="20" height="20" fill="white" transform="translate(5 5)"/>
</clipPath>
</defs>
</svg>
