<svg width="58" height="44" viewBox="0 0 58 44" fill="none" xmlns="http://www.w3.org/2000/svg">
<g clip-path="url(#clip0_110_60880)">
<path fill-rule="evenodd" clip-rule="evenodd" d="M52.571 35.9926L49.4747 39.0888C48.6619 39.9017 47.3228 39.9017 46.51 39.0888L44.0151 36.594C42.7277 37.2799 41.3464 37.8062 39.8899 38.1445V41.377C39.8899 42.5281 38.9455 43.4725 37.7944 43.4725H33.4154C32.2643 43.4725 31.3199 42.5281 31.3199 41.377V37.8484C29.8916 37.4162 28.5431 36.8007 27.3074 36.0208L25.0193 38.3089C24.2064 39.1217 22.8674 39.1217 22.0545 38.3089L20.6544 36.9135L20.692 36.8712L26.8329 29.8423C29.0787 32.4734 32.424 34.1461 36.1546 34.1461C42.9204 34.1461 48.4082 28.6583 48.4082 21.8972C48.4082 15.1314 42.9204 9.64363 36.1546 9.64363C32.767 9.64363 29.6989 11.0203 27.4813 13.2426L25.2213 13.1581L19.5033 8.06495C19.5738 7.96628 19.6489 7.87701 19.7335 7.78774L22.8298 4.69146C23.6426 3.87863 24.9817 3.87863 25.7945 4.69146L28.2894 7.18634C29.5768 6.49567 30.9581 5.96944 32.4146 5.63585V2.40331C32.424 1.25689 33.3684 0.3125 34.5195 0.3125H38.8938C40.0449 0.3125 40.9893 1.25689 40.9893 2.40801V5.93655C42.4176 6.36881 43.7661 6.989 45.0018 7.76425L47.2899 5.4761C48.1028 4.66327 49.4418 4.66327 50.2547 5.4761L53.3509 8.57238C54.1638 9.38521 54.1638 10.7243 53.3509 11.5371L50.8561 14.032C51.5467 15.3194 52.073 16.7007 52.4066 18.1572H55.6391C56.7855 18.1572 57.7346 19.1016 57.7346 20.2527V24.6317C57.7346 25.7828 56.7902 26.7272 55.6391 26.7272H52.1153C51.683 28.1555 51.0675 29.504 50.2876 30.7397L52.5757 33.0278C53.3885 33.8407 53.3885 35.175 52.571 35.9926ZM36.1922 17.9129C38.3911 17.9129 40.1718 19.6936 40.1718 21.8925C40.1718 24.0914 38.3911 25.8721 36.1922 25.8721C33.9933 25.8721 32.2126 24.0914 32.2126 21.8925C32.2126 19.6936 33.998 17.9129 36.1922 17.9129ZM28.2565 21.6482L17.4454 34.0286L17.0836 28.2213C9.69291 27.1642 4.03127 29.1939 0 35.02C0.0469845 23.5558 7.49873 17.5605 16.36 16.6396L15.9888 10.7149L28.2565 21.6482Z" fill="#029894"/>
</g>
<defs>
<clipPath id="clip0_110_60880">
<rect width="57.7346" height="43.16" fill="white" transform="translate(0 0.3125)"/>
</clipPath>
</defs>
</svg>
