<svg width="46" height="44" viewBox="0 0 46 44" fill="none" xmlns="http://www.w3.org/2000/svg">
<path fill-rule="evenodd" clip-rule="evenodd" d="M45.0958 0.3125C45.0549 0.3125 45.0141 0.316216 44.9732 0.316216H15.8395C15.7986 0.316216 15.7577 0.3125 15.7168 0.3125C15.5794 0.338509 15.453 0.405389 15.3564 0.501994C15.2338 0.624607 15.1558 0.795523 15.1558 0.985017V9.1221C15.1558 9.30788 15.2338 9.4788 15.3564 9.60513C15.4828 9.72774 15.65 9.80577 15.8395 9.80577H44.9732C45.159 9.80577 45.3299 9.72774 45.4562 9.60513C45.5825 9.48251 45.6569 9.3116 45.6569 9.1221V0.985017C45.6569 0.799239 45.5788 0.628323 45.4562 0.505709C45.3596 0.405389 45.2333 0.338509 45.0958 0.3125ZM41.9227 2.64959L42.3834 3.11032C42.5061 3.23293 42.5061 3.42986 42.3834 3.55247L42.0119 3.92403C42.1159 4.11724 42.023 4.54081 42.2423 4.54081H42.7253C42.8962 4.54081 43.0374 4.682 43.0374 4.85292V5.50686C43.0374 5.67778 42.8962 5.81897 42.7253 5.81897H42.1977C42.1345 6.03075 41.7704 6.26112 41.9264 6.41717L42.2683 6.75901C42.3909 6.88162 42.3909 7.07854 42.2683 7.20116L41.8075 7.66189C41.6849 7.7845 41.488 7.7845 41.3654 7.66189L40.9938 7.29033C40.8006 7.39437 40.377 7.30148 40.377 7.5207V8.00372C40.377 8.17464 40.2359 8.31583 40.0649 8.31583H39.411C39.2401 8.31583 39.0989 8.17464 39.0989 8.00372V7.47611C38.8871 7.41294 38.6567 7.04882 38.5007 7.20487L38.1588 7.5467C38.0362 7.66932 37.8393 7.66932 37.7167 7.5467L37.256 7.08597C37.1334 6.96336 37.1334 6.76644 37.256 6.64382L37.6275 6.27227C37.5235 6.07906 37.6164 5.65548 37.3972 5.65548H36.9141C36.7432 5.65548 36.602 5.51429 36.602 5.34337V4.68944C36.602 4.51852 36.7432 4.37733 36.9141 4.37733H37.4417C37.5049 4.16554 37.869 3.93518 37.713 3.77912L37.3712 3.43729C37.2485 3.31468 37.2485 3.11775 37.3712 2.99514L37.8319 2.53441C37.9545 2.41179 38.1514 2.41179 38.274 2.53441L38.6456 2.90596C38.8388 2.80193 39.0432 2.7239 39.2624 2.6756V2.19258C39.2624 2.02166 39.4036 1.88047 39.5745 1.88047H40.2284C40.3993 1.88047 40.5405 2.02166 40.5405 2.19258V2.72019C40.7523 2.78335 40.9827 3.14748 41.1387 2.99142L41.4806 2.64959C41.6032 2.52698 41.8038 2.52698 41.9227 2.64959ZM39.8197 3.81628C40.5294 3.81628 41.1053 4.39219 41.1053 5.10186C41.1053 5.81154 40.5294 6.38745 39.8197 6.38745C39.11 6.38745 38.5341 5.81154 38.5341 5.10186C38.5341 4.38847 39.11 3.81628 39.8197 3.81628ZM0 24.2407H9.07712L8.713 39.9539H0V24.2407ZM10.5076 38.6831L10.8123 25.6415L16.6792 25.779C19.1575 26.2843 21.6097 27.6888 24.062 29.3125L28.6173 29.4202C30.6757 29.5912 31.7086 31.709 29.6725 33.0355C28.0451 34.1687 25.9421 34.0535 23.787 33.8083C22.2971 33.7006 22.1856 35.7033 23.7425 35.7441C24.2812 35.7999 24.872 35.6847 25.3847 35.6958C28.0822 35.7553 30.3153 35.2908 31.7235 33.1952L32.4443 31.6161L39.2995 28.4133C42.7178 27.3767 45.0438 30.9808 42.4875 33.3885C37.4938 36.8439 32.3923 39.6678 27.1868 41.9231C23.3932 44.1116 19.6553 43.9481 15.9658 41.663L10.5076 38.6831ZM45.0958 11.998C45.0549 11.998 45.0141 12.0017 44.9732 12.0017H15.8395C15.7986 12.0017 15.7577 11.998 15.7168 11.998C15.5794 12.024 15.453 12.0908 15.3564 12.1874C15.2338 12.3101 15.1558 12.481 15.1558 12.6668V20.8038C15.1558 20.9896 15.2338 21.1605 15.3564 21.2869C15.4828 21.4095 15.65 21.4875 15.8395 21.4875H44.9732C45.159 21.4875 45.3299 21.4095 45.4562 21.2869C45.5825 21.1643 45.6569 20.9933 45.6569 20.8038V12.6668C45.6569 12.481 45.5788 12.3101 45.4562 12.1874C45.3596 12.0908 45.2333 12.024 45.0958 11.998ZM18.0614 14.5208H19.7705V18.9498H18.0614V14.5208ZM22.7913 14.5208H24.5041V18.9498H22.7913V14.5208ZM27.5212 14.5208H29.2341V18.9498H27.5212V14.5208ZM18.0614 2.83537H19.7705V7.26432H18.0614V2.83537ZM22.7913 2.83537H24.5041V7.26432H22.7913V2.83537ZM27.5212 2.83537H29.2341V7.26432H27.5212V2.83537Z" fill="#029894"/>
</svg>
