<svg width="51" height="44" viewBox="0 0 51 44" fill="none" xmlns="http://www.w3.org/2000/svg">
<g clip-path="url(#clip0_110_60932)">
<path fill-rule="evenodd" clip-rule="evenodd" d="M7.68869 12.2465C7.76723 12.2672 7.84577 12.2837 7.92844 12.2961L7.65975 10.1838C7.79617 9.66707 8.00285 9.26197 8.27981 8.96434C8.56917 8.65431 8.9288 8.46416 9.3587 8.38149C9.92916 8.34015 10.0986 8.75766 10.6691 9.12142C12.4011 10.2293 13.8686 10.6013 16.0098 10.6302L15.7453 11.9365C15.6957 11.9985 15.6709 12.077 15.675 12.1638C15.675 12.1845 15.6791 12.2052 15.6874 12.2217L15.6502 12.3994C15.7122 12.4077 15.7783 12.4118 15.8404 12.4118C15.8941 12.4408 15.9561 12.4532 16.0181 12.4491C16.3819 12.416 16.6051 12.4449 16.663 12.5648C16.7456 12.7301 16.6712 13.0691 16.4315 13.6189L15.2616 15.5452C14.8276 16.2603 14.3853 16.9796 13.8272 17.5004C13.294 18.0006 12.6326 18.3354 11.7315 18.3313C10.9006 18.3272 10.2723 18.0089 9.75141 17.5335C9.20989 17.0375 8.77585 16.3637 8.35835 15.7023L7.31666 14.0488L7.31252 14.0405C6.99423 13.5693 6.82888 13.1601 6.82061 12.8459C6.81648 12.7425 6.83301 12.6516 6.86608 12.5772C6.89502 12.5111 6.94462 12.4573 7.00663 12.4118C7.12651 12.3333 7.30425 12.2837 7.53988 12.2796C7.60188 12.2837 7.64735 12.2713 7.68869 12.2465ZM33.4293 6.83135L26.9517 11.18L27.4974 8.47243C24.24 7.07937 21.3961 7.31499 18.8332 9.48932C20.2634 4.23952 24.4137 2.40829 28.5887 3.07381L29.1467 0.3125L33.4293 6.83135ZM16.7663 36.9536L23.2438 32.6091L22.6982 35.3167C25.9555 36.7098 28.7995 36.4741 31.3624 34.2998C29.9321 39.5496 25.7819 41.3808 21.6069 40.7153L21.0488 43.4766L16.7663 36.9536ZM34.7148 18.6289L35.7731 18.6L36.6535 18.5752C35.6284 15.4171 35.9715 12.5152 38.4393 10.0474C38.8568 11.4032 39.7993 12.5193 41.3949 13.3461C42.1596 13.9124 42.8996 14.5986 43.6147 15.3881C43.7429 14.8673 43.2592 14.2307 42.6722 13.5776C43.2137 13.8462 43.7139 14.2224 44.0694 14.9417C44.4787 15.7808 44.4745 16.4835 44.3381 17.393C44.2761 17.8146 44.1728 18.2114 44.0239 18.5752H45.4873C47.0291 15.2765 46.0536 10.3739 42.8996 8.29881C41.9323 7.66222 41.2378 7.68703 40.1011 7.68703C38.8031 7.68703 38.1376 7.72836 37.0256 8.46416C35.3845 9.55133 34.3759 11.428 33.9501 14.0364C33.8633 15.3344 33.8054 17.5831 34.7148 18.6289ZM38.7369 24.6311L39.5265 21.8904L39.1379 21.4688C38.9643 21.2125 38.9271 20.9934 39.0222 20.7991C39.233 20.3858 39.667 20.4602 40.0721 20.4602C40.4979 20.4602 41.0187 20.3816 41.1552 20.9107C41.2006 21.0885 41.1428 21.2745 41.0187 21.4647L40.6302 21.8863L41.4197 24.6269L40.0763 25.6852L38.7369 24.6311ZM45.7973 23.6845C45.1979 22.4857 44.4414 21.4647 43.5568 20.5098C45.2186 21.1546 46.9175 21.7871 48.1783 22.5766C48.9803 23.0768 49.3936 23.4571 49.7161 24.0648C50.4064 25.3545 50.4767 26.516 50.5841 27.9174L50.6875 29.3063C50.857 31.5757 51.1505 31.1623 48.8232 31.1623H40.0804H31.6683C29.5229 31.1623 29.2956 31.7162 29.4361 29.823L29.5767 27.9174C29.68 26.516 29.7544 25.3586 30.4447 24.0648C30.7672 23.4571 31.1805 23.0809 31.9825 22.5766C33.2391 21.7871 34.9381 21.1505 36.6039 20.5098C35.7193 21.4647 34.9629 22.4857 34.3635 23.6845L36.0955 23.6431L40.0804 27.1072L44.0653 23.6431L45.7973 23.6845ZM8.37488 20.0923L10.2351 25.5653L11.1693 22.3203L10.7104 21.8202C10.5037 21.5184 10.4583 21.2538 10.574 21.0265C10.822 20.5346 11.3346 20.6255 11.8183 20.6255C12.3226 20.6255 12.9426 20.5304 13.0997 21.1588C13.1534 21.3696 13.0873 21.5887 12.9385 21.816L12.4797 22.3162L13.4139 25.5612L15.1004 20.0881C16.3157 21.1836 19.9121 21.4027 21.2514 22.1467C21.673 22.3823 22.0574 22.6841 22.3633 23.0892C22.8304 23.7051 23.1157 24.5112 23.1942 25.5322L23.4753 29.9553C23.4092 30.6787 22.9958 31.0962 22.1897 31.1582H11.8224H1.28558C0.47951 31.1003 0.0661393 30.6828 0 29.9594L0.281092 25.5364C0.359632 24.5153 0.644858 23.7093 1.11197 23.0933C1.41786 22.6882 1.80229 22.3865 2.22393 22.1509C3.56325 21.4068 7.15957 21.1877 8.37488 20.0923ZM16.7291 11.8662L16.7952 9.1917C16.7167 8.09626 16.3529 7.26952 15.7783 6.64533C14.3605 5.11173 11.7149 4.71903 9.71834 5.43829C9.38351 5.55817 9.06521 5.71525 8.77172 5.89713C7.94911 6.42211 7.27945 7.18685 7.01489 8.1376C6.95289 8.36082 6.90742 8.58817 6.88675 8.81139C6.84541 9.74974 6.86608 10.8658 6.93222 11.7587C6.83715 11.7959 6.7462 11.8414 6.66766 11.891C6.50232 12.0026 6.38244 12.1432 6.3039 12.3168C6.22949 12.478 6.19229 12.664 6.20056 12.8666C6.21296 13.2965 6.41137 13.8173 6.79581 14.3878L7.8375 16.0412C8.27567 16.7357 8.73452 17.4508 9.33804 18.0006C9.96636 18.5752 10.727 18.9596 11.7439 18.9638C12.831 18.9679 13.6247 18.5628 14.2695 17.9593C14.8896 17.3764 15.3567 16.6241 15.8114 15.8676L16.9978 13.9165C17.0061 13.9041 17.0102 13.8917 17.0185 13.8793C17.345 13.1394 17.4153 12.6227 17.2417 12.2796C17.1342 12.0729 16.9606 11.9406 16.7291 11.8662Z" fill="#029894"/>
</g>
<defs>
<clipPath id="clip0_110_60932">
<rect width="50.7949" height="43.16" fill="white" transform="translate(0 0.3125)"/>
</clipPath>
</defs>
</svg>
