<svg width="57" height="44" viewBox="0 0 57 44" fill="none" xmlns="http://www.w3.org/2000/svg">
<path fill-rule="evenodd" clip-rule="evenodd" d="M39.58 8.44481C45.6057 3.69494 54.3867 9.23242 54.3867 15.0308C54.3867 18.7756 53.009 20.2446 50.8752 21.8101C61.6369 27.8066 56.7663 41.0705 47.3777 43.3077H14.5869C-0.813505 43.3077 -6.50979 21.5685 9.88791 16.3016C6.81247 3.53066 30.8454 -7.9985 39.58 8.44481ZM27.5891 35.3059L29.4909 25.2264L31.4206 28.2609C35.5769 26.5213 37.9148 23.6511 38.258 19.2443C41.6721 25.4631 39.6032 31.0441 35.2707 34.3057L37.2422 37.3933L27.5891 35.3059ZM30.5254 13.3396L28.6235 23.4192L26.6938 20.3847C22.5376 22.1242 20.1997 24.9944 19.8564 29.4012C16.4424 23.1824 18.5112 17.6015 22.8437 14.3399L20.8723 11.2522L30.5254 13.3396Z" fill="#029894"/>
</svg>
