<svg width="53" height="44" viewBox="0 0 53 44" fill="none" xmlns="http://www.w3.org/2000/svg">
<path fill-rule="evenodd" clip-rule="evenodd" d="M13.003 38.0958V22.5981H19.973C22.9283 23.1282 25.8836 24.7299 28.839 26.591H34.2526C36.7039 26.7387 37.9866 29.2227 35.6063 30.8546C33.707 32.2464 31.2033 32.1679 28.6358 31.9375C26.8658 31.8502 26.7882 34.2305 28.6358 34.238C29.2767 34.2875 29.9743 34.1377 30.5838 34.1369C33.7884 34.1339 36.4281 33.5211 38.0428 30.9897L38.8554 29.0946L46.9092 25.1018C50.9394 23.7746 53.8028 27.9908 50.8345 30.9217C45.0011 35.1656 39.0183 38.6586 32.8999 41.4788C28.4557 44.1818 24.0121 44.0903 19.568 41.4788L13.003 38.0958ZM43.3205 13.2612C43.2072 13.1831 43.0779 13.1483 42.9473 13.1743C42.8176 13.2003 42.7047 13.2696 42.6267 13.3825L42.1847 14.0062C42.029 13.9369 41.864 13.8849 41.6903 13.8417C41.5173 13.7984 41.3524 13.7636 41.1794 13.7376L41.0401 12.9229C41.0145 12.7839 40.9448 12.6798 40.8407 12.6022C40.7282 12.5241 40.6069 12.4981 40.4684 12.5241L39.4451 12.7063C39.3154 12.7323 39.2113 12.7932 39.1245 12.9057C39.0464 13.0186 39.012 13.1399 39.0376 13.2784L39.1681 14.0238C39.0031 14.0935 38.8474 14.1711 38.7001 14.2668C38.5524 14.3533 38.4059 14.4574 38.2753 14.5615L37.5819 14.0847C37.4695 14.0066 37.3482 13.9722 37.218 13.9982C37.0875 14.0242 36.9754 14.0935 36.8974 14.2064L36.3081 15.0471C36.23 15.1596 36.1956 15.2897 36.2212 15.4198C36.2476 15.5588 36.3173 15.6624 36.4294 15.7405L37.0531 16.1825C36.9842 16.3386 36.9318 16.5032 36.8881 16.6765C36.8445 16.8499 36.8101 17.0144 36.784 17.1877L35.9702 17.3267C35.8308 17.3527 35.7276 17.422 35.6487 17.526C35.5706 17.639 35.5454 17.7603 35.5706 17.8988L35.7528 18.9216C35.7792 19.0518 35.8396 19.1554 35.953 19.2423C36.0655 19.3204 36.1868 19.3548 36.3253 19.3288L37.0703 19.1987C37.14 19.3632 37.218 19.5193 37.3129 19.6667C37.3998 19.814 37.5039 19.9613 37.608 20.0998L37.1307 20.7844C37.0527 20.8969 37.0182 21.0186 37.0447 21.1483C37.0703 21.2784 37.14 21.3909 37.252 21.469L38.1011 22.0671C38.2145 22.1452 38.3446 22.1708 38.4743 22.1452C38.6048 22.1192 38.7169 22.0587 38.8038 21.9458L39.2458 21.3133C39.4015 21.3825 39.5664 21.4346 39.7402 21.4778C39.9131 21.521 40.0781 21.5559 40.251 21.5819L40.3904 22.3962C40.416 22.5351 40.4856 22.6388 40.5897 22.7168C40.7022 22.7953 40.8235 22.8209 40.962 22.7953L41.9853 22.6132C42.115 22.5872 42.2191 22.5267 42.306 22.4138C42.3841 22.3009 42.4185 22.1796 42.3929 22.0407L42.2624 21.2956C42.4273 21.2264 42.583 21.1483 42.7303 21.053C42.8781 20.9662 43.0246 20.8621 43.1639 20.7584L43.8485 21.2352C43.961 21.3133 44.0823 21.3481 44.2208 21.3217C44.3602 21.2956 44.4634 21.2264 44.5423 21.1139L45.14 20.2644C45.2181 20.1519 45.2441 20.0218 45.2181 19.8916C45.1925 19.7615 45.132 19.649 45.0187 19.5622L44.3858 19.1286C44.4554 18.9724 44.5071 18.8079 44.5507 18.6346C44.5944 18.4612 44.6288 18.2967 44.6548 18.1233L45.4695 17.9844C45.608 17.9584 45.7121 17.8891 45.7902 17.785C45.8683 17.6721 45.8943 17.5508 45.8682 17.4123L45.6861 16.3894C45.6596 16.2593 45.5992 16.1552 45.4867 16.0687C45.3742 15.9907 45.2529 15.9558 45.1136 15.9819L44.3686 16.112C44.2997 15.9558 44.2208 15.7997 44.126 15.644C44.0391 15.4878 43.935 15.3493 43.8317 15.2196L44.3081 14.5262C44.3862 14.4133 44.4214 14.292 44.395 14.1623C44.3686 14.0326 44.2997 13.9197 44.1868 13.8417L43.3465 13.2524L43.3205 13.2612ZM40.348 15.6704C40.6162 15.6268 40.8848 15.6268 41.1538 15.688C41.4137 15.7489 41.6483 15.8526 41.8644 15.9999C42.0726 16.1472 42.254 16.3382 42.4013 16.5632C42.5486 16.7882 42.6439 17.04 42.6875 17.3086C42.7312 17.5773 42.7312 17.8459 42.6703 18.1145C42.6095 18.3743 42.5054 18.6085 42.358 18.8251C42.2111 19.0333 42.0202 19.215 41.7948 19.3624C41.5694 19.5097 41.3184 19.605 41.0498 19.6486C40.7807 19.6919 40.5129 19.6919 40.2439 19.631C39.9841 19.5701 39.7494 19.4665 39.5333 19.3191C39.3251 19.1718 39.1429 18.9808 38.9956 18.7559C38.8487 18.5305 38.753 18.279 38.7093 18.0104C38.6665 17.7418 38.6665 17.4732 38.7274 17.2045C38.7882 16.9447 38.8923 16.7105 39.0388 16.4939C39.1866 16.2857 39.3775 16.104 39.6021 15.9567C39.8271 15.8089 40.0789 15.7137 40.348 15.6704ZM32.478 3.51924C32.4344 3.47601 32.4 3.44998 32.3567 3.43235C32.3223 3.41514 32.2787 3.40633 32.2262 3.40633C32.1746 3.40633 32.1309 3.41514 32.0965 3.43235C32.0621 3.44998 32.0184 3.47601 31.9832 3.51042L31.9748 3.51924L30.9951 4.49847C30.805 4.68902 30.5015 4.71505 30.2845 4.55933C30.172 4.49007 30.0591 4.4204 29.9294 4.35114C29.7909 4.28189 29.6604 4.21221 29.5391 4.15177C29.4085 4.09091 29.27 4.03047 29.1315 3.97842C29.0102 3.93519 28.8717 3.88314 28.7067 3.8311C28.473 3.75303 28.3256 3.53645 28.3256 3.30224V1.80338C28.3256 1.75133 28.3168 1.69929 28.2992 1.66445C28.2816 1.62961 28.2555 1.58638 28.2211 1.56036C28.1867 1.52552 28.1514 1.4995 28.117 1.48229C28.0826 1.46466 28.0301 1.45584 27.9785 1.45584H26.0902C26.0381 1.45584 25.9949 1.46466 25.96 1.47347C25.9252 1.4911 25.882 1.51671 25.8387 1.56036C25.8039 1.59519 25.7779 1.62961 25.7691 1.66445C25.7518 1.69929 25.743 1.75133 25.743 1.80338V3.18135C25.743 3.4588 25.5437 3.68377 25.2838 3.73582C25.1365 3.77066 24.998 3.80507 24.8767 3.83991C24.7378 3.88356 24.6081 3.9268 24.4692 3.97842C24.339 4.03047 24.2005 4.08252 24.0704 4.15177C23.9315 4.21263 23.8102 4.28189 23.6889 4.34275C23.4635 4.46405 23.2037 4.42082 23.0303 4.24705L21.947 3.17254C21.939 3.16373 21.939 3.16373 21.939 3.15533C21.9042 3.12049 21.8693 3.09447 21.8349 3.07726C21.8001 3.06005 21.7657 3.06005 21.7136 3.06005C21.6616 3.06005 21.6183 3.06887 21.5835 3.08608C21.5399 3.1037 21.5054 3.12931 21.4622 3.17296L20.1447 4.49889C20.101 4.54212 20.075 4.57696 20.0578 4.62019C20.0402 4.65503 20.0318 4.69826 20.0318 4.75031C20.0318 4.80235 20.0406 4.84558 20.0578 4.88042C20.075 4.91526 20.101 4.95849 20.1359 4.99333V5.00214L21.1151 5.98137C21.3061 6.17235 21.3321 6.4754 21.176 6.69198C21.1067 6.80488 21.0374 6.91737 20.9682 7.04749C20.8985 7.186 20.8293 7.31611 20.7688 7.43742C20.708 7.56753 20.6471 7.70604 20.5955 7.84497C20.5522 7.96628 20.5002 8.10479 20.4481 8.26974C20.3701 8.50353 20.1535 8.65086 19.9193 8.65086H18.42C18.368 8.65086 18.3159 8.65967 18.2815 8.67688C18.2467 8.69451 18.2122 8.72011 18.1774 8.74655C18.1426 8.78097 18.1165 8.81581 18.1081 8.85023C18.0909 8.88507 18.0821 8.93711 18.0821 8.98916V10.8784C18.0821 10.9304 18.0909 10.9736 18.0998 11.0085C18.117 11.0433 18.143 11.0865 18.1866 11.1298C18.2215 11.1646 18.2559 11.1906 18.2907 11.199C18.3256 11.2167 18.3776 11.2251 18.4297 11.2251H19.8076C20.0851 11.2251 20.3105 11.4244 20.3625 11.6847C20.3969 11.832 20.4318 11.9705 20.4666 12.0834C20.5098 12.2219 20.5535 12.3608 20.6051 12.4994C20.6572 12.6295 20.7092 12.768 20.7785 12.9069C20.8481 13.0542 20.9086 13.1844 20.9694 13.3057C21.0824 13.5311 21.0387 13.7909 20.8654 13.9558L19.7904 15.0219L19.7816 15.0308C19.7468 15.0656 19.7207 15.1 19.7035 15.1348C19.6863 15.1697 19.6863 15.2045 19.6863 15.2561C19.6863 15.3082 19.6951 15.3514 19.7124 15.3863C19.7296 15.4295 19.7556 15.4731 19.7988 15.5076L21.1075 16.8339C21.1424 16.8687 21.1856 16.8948 21.2288 16.912C21.2725 16.9296 21.3157 16.938 21.3678 16.938C21.4198 16.938 21.4719 16.9292 21.5151 16.912C21.5495 16.8948 21.5932 16.8687 21.628 16.8427L22.5988 15.8547C22.7894 15.6553 23.0929 15.6381 23.3094 15.7854C23.4223 15.8547 23.5344 15.9244 23.6645 15.9936C23.8035 16.0629 23.9332 16.1321 24.0545 16.193C24.1846 16.2538 24.3231 16.3143 24.462 16.3663C24.5833 16.4096 24.7223 16.4616 24.8868 16.5137C25.121 16.5917 25.2683 16.8083 25.2683 17.0425V18.5418C25.2683 18.5938 25.2771 18.6459 25.2943 18.6807C25.3116 18.7156 25.3376 18.7588 25.3636 18.7848C25.4329 18.8541 25.5109 18.8801 25.615 18.8801H27.5046C27.5563 18.8801 27.5999 18.8713 27.6343 18.8625C27.6688 18.8453 27.7124 18.8192 27.7556 18.776C27.7901 18.7412 27.8165 18.7063 27.8253 18.6719C27.8425 18.6371 27.8518 18.585 27.8518 18.533V17.155C27.8518 16.8776 28.0511 16.6522 28.3109 16.6001C28.4578 16.5653 28.5972 16.5309 28.7185 16.496C28.857 16.4524 28.9867 16.4091 29.1261 16.3571C29.2558 16.3051 29.3943 16.253 29.5328 16.1838C29.6805 16.1145 29.8106 16.0536 29.9319 15.9932C30.1573 15.8803 30.4171 15.9239 30.5821 16.0973L31.6478 17.1722L31.6566 17.181C31.691 17.2159 31.7254 17.2419 31.7599 17.2591C31.7951 17.2767 31.8388 17.2767 31.8904 17.2767C31.9429 17.2767 31.9857 17.2679 32.0209 17.2507C32.0554 17.2331 32.0898 17.2071 32.125 17.1726C32.1334 17.1638 32.1422 17.1554 32.1506 17.1554L33.4682 15.8551C33.5034 15.8203 33.529 15.777 33.5462 15.7338C33.5643 15.6906 33.5727 15.6469 33.5727 15.5953C33.5727 15.5432 33.5643 15.4912 33.5462 15.448C33.529 15.4131 33.5034 15.3699 33.4774 15.3351L32.4894 14.3642C32.2891 14.1737 32.2719 13.8702 32.4197 13.6536C32.4894 13.5407 32.5582 13.4282 32.6279 13.2981C32.6967 13.1596 32.7664 13.0295 32.8272 12.9082C32.8881 12.7781 32.9485 12.6396 33.0002 12.5006C33.0438 12.3793 33.0963 12.2408 33.1479 12.0759C33.226 11.8416 33.4421 11.6947 33.6768 11.6947H35.176C35.2285 11.6947 35.2801 11.6859 35.3146 11.6683C35.349 11.6511 35.3926 11.6251 35.4187 11.599C35.4883 11.5298 35.5139 11.4517 35.5139 11.3476V9.45842C35.5139 9.40637 35.5055 9.36314 35.4967 9.3283C35.4795 9.29388 35.4531 9.25023 35.4098 9.207C35.3754 9.17258 35.341 9.14614 35.3066 9.13774C35.2713 9.12053 35.2197 9.11172 35.1681 9.11172H33.7893C33.5122 9.11172 33.2784 8.90353 33.2352 8.64372C33.2008 8.52242 33.1655 8.3923 33.1311 8.26261C33.0875 8.13249 33.0442 7.99356 32.9834 7.84665C32.9834 7.83784 32.975 7.82902 32.975 7.82021C32.9225 7.6817 32.8709 7.5604 32.8184 7.4391C32.7576 7.30898 32.6971 7.17886 32.6283 7.05756C32.507 6.83217 32.5502 6.57235 32.7236 6.399L33.7985 5.31568C33.7985 5.30687 33.8073 5.30687 33.8157 5.30687C33.8501 5.27245 33.8766 5.23761 33.8938 5.20277C33.911 5.16794 33.911 5.13352 33.911 5.08147C33.911 5.02901 33.9026 4.98577 33.8854 4.95136C33.8682 4.9077 33.8417 4.87329 33.7985 4.83005L32.4721 3.51252L32.478 3.51924ZM32.7903 2.4015C32.9725 2.47957 33.1282 2.58366 33.2667 2.72217L34.593 4.0397H34.6014C34.7399 4.17863 34.844 4.33435 34.9221 4.5077C35.001 4.68986 35.0354 4.87161 35.0354 5.07098C35.0354 5.27077 34.9918 5.46133 34.9221 5.63468C34.844 5.80802 34.7399 5.96375 34.5935 6.09386L33.8132 6.88253C33.822 6.90856 33.8396 6.93458 33.8476 6.9606C33.9173 7.10793 33.9781 7.26407 34.0386 7.41097C34.0386 7.41979 34.0474 7.4286 34.0474 7.43742C34.1083 7.58474 34.1599 7.74928 34.2123 7.92263L34.2296 7.98349H35.1828C35.3821 7.98349 35.5723 8.01832 35.746 8.09639C35.919 8.16565 36.0747 8.27856 36.214 8.41707L36.2224 8.42588C36.3609 8.56439 36.465 8.72053 36.5347 8.89388C36.6035 9.06723 36.6472 9.25779 36.6472 9.44876V11.338C36.6472 11.7455 36.5087 12.0918 36.2224 12.3781C36.0839 12.517 35.919 12.6295 35.746 12.6987C35.5723 12.768 35.3821 12.8028 35.1828 12.8028H34.0726C34.0642 12.8288 34.047 12.8637 34.0382 12.8897C33.9773 13.0458 33.9076 13.2016 33.8388 13.3577C33.7607 13.5222 33.691 13.6784 33.6134 13.8169L33.587 13.8689L34.2631 14.5363L34.2896 14.5623C34.4281 14.7013 34.5234 14.8658 34.593 15.0391C34.6619 15.2125 34.6971 15.3947 34.6971 15.594C34.6971 15.7846 34.6619 15.9668 34.593 16.1401C34.5234 16.3134 34.4281 16.4696 34.2896 16.6169L34.2724 16.6341L32.946 17.9517C32.8075 18.099 32.651 18.2031 32.478 18.2811C32.3051 18.3592 32.1141 18.3936 31.9059 18.3936C31.7066 18.3936 31.5164 18.3504 31.3338 18.2811C31.1517 18.2031 30.996 18.0906 30.8667 17.9517L30.0952 17.1718C30.0688 17.189 30.0427 17.1978 30.0083 17.2066C29.8606 17.2675 29.7049 17.3367 29.5403 17.3972C29.3846 17.458 29.2197 17.5101 29.0551 17.5621C29.0287 17.571 29.0115 17.5798 28.9854 17.5798V18.5242C28.9854 18.7235 28.951 18.9141 28.873 19.0874C28.8033 19.2608 28.6908 19.4169 28.5523 19.5554L28.5435 19.5643C28.405 19.7028 28.2492 19.8069 28.0755 19.8761C27.9025 19.9458 27.7116 19.989 27.5214 19.989H25.6318C25.2242 19.989 24.878 19.8505 24.5917 19.5643C24.4532 19.4253 24.3403 19.2608 24.271 19.0874C24.2018 18.9141 24.1669 18.7235 24.1669 18.5242V17.4123C24.1409 17.4035 24.1061 17.3863 24.0801 17.3775C23.9239 17.3166 23.7682 17.2473 23.6121 17.1781C23.4471 17.1 23.2914 17.0308 23.1525 16.9527L23.1004 16.9267L22.433 17.6029L22.407 17.6289C22.2681 17.7678 22.1036 17.8631 21.9302 17.9323C21.7569 18.0016 21.5751 18.0364 21.3757 18.0364C21.1852 18.0364 21.003 18.0016 20.8297 17.9323C20.6563 17.8627 20.5002 17.7674 20.3529 17.6289L20.3352 17.6117L19.0093 16.2681C18.8708 16.1292 18.7667 15.9735 18.6886 15.8001C18.6106 15.618 18.5761 15.4362 18.5761 15.2368C18.5761 15.0375 18.6194 14.8469 18.6886 14.6736C18.7667 14.5002 18.8796 14.3441 19.0181 14.2056L19.798 13.4341C19.7808 13.4081 19.772 13.3821 19.7636 13.3472C19.7027 13.1999 19.6334 13.0438 19.5726 12.8792C19.5117 12.7143 19.4513 12.5585 19.408 12.394L19.3904 12.3243H18.446C18.2462 12.3243 18.0557 12.2899 17.8823 12.2118C17.709 12.1426 17.5533 12.0297 17.4143 11.8912L17.4055 11.8824C17.267 11.7438 17.1629 11.5877 17.0937 11.4144C17.0244 11.241 16.9808 11.0505 16.9808 10.8599V8.97069C16.9808 8.77132 17.0156 8.58916 17.0848 8.40741C17.1541 8.23406 17.267 8.07834 17.4055 7.9306C17.5444 7.79209 17.709 7.67918 17.8823 7.60993C18.0557 7.54025 18.2462 7.50583 18.446 7.50583H19.5554C19.5642 7.47981 19.5814 7.44497 19.5902 7.41937C19.6511 7.26323 19.7203 7.10709 19.7896 6.95137C19.8677 6.78642 19.9369 6.6307 20.015 6.49177L20.041 6.43972L19.3736 5.76395C19.2347 5.62544 19.1222 5.4693 19.053 5.28714C18.9749 5.10498 18.9401 4.91442 18.9401 4.72386C18.9401 4.52407 18.9749 4.34233 19.053 4.16058C19.131 3.97842 19.2347 3.82228 19.3736 3.68377L20.6912 2.35784V2.34945C20.8301 2.21094 20.9858 2.10685 21.1592 2.02878C21.3413 1.95071 21.5231 1.91587 21.7224 1.91587C21.9222 1.91587 22.1128 1.9591 22.2857 2.02878C22.4591 2.10685 22.6152 2.21094 22.7453 2.35784L23.5336 3.1377C23.56 3.12889 23.586 3.11168 23.6033 3.10328C23.7506 3.03361 23.9067 2.97317 24.0713 2.90391C24.2274 2.84305 24.3919 2.79101 24.5565 2.73938C24.5825 2.73056 24.5997 2.72175 24.6257 2.72175V1.77736C24.6257 1.57799 24.6606 1.38743 24.7386 1.21408C24.8083 1.04073 24.9208 0.885012 25.0593 0.746081L25.0681 0.737267C25.207 0.598756 25.3628 0.494663 25.5361 0.425407C25.7095 0.356152 25.8996 0.3125 26.0902 0.3125H27.9794C28.1787 0.3125 28.3605 0.347338 28.5426 0.416593C28.7248 0.485849 28.8814 0.598756 29.0199 0.737267C29.1584 0.875778 29.2709 1.04073 29.3405 1.21408C29.4094 1.38743 29.4446 1.57799 29.4446 1.77736V2.8867C29.4702 2.89552 29.5055 2.91273 29.5307 2.92154C29.6872 2.9824 29.843 3.05166 29.9987 3.12091C30.1636 3.19898 30.3194 3.26824 30.4587 3.34631L30.5103 3.37233L31.1865 2.70496C31.325 2.56603 31.4807 2.45354 31.6629 2.38429C31.8451 2.30622 32.036 2.27138 32.2262 2.27138C32.4264 2.27138 32.6081 2.30622 32.7903 2.38429V2.4015ZM26.8008 5.91128C27.087 5.91128 27.3728 5.93772 27.6499 5.99816C27.9189 6.05021 28.1875 6.13667 28.4558 6.24958C28.7076 6.36249 28.9502 6.49219 29.1756 6.63951C29.401 6.78684 29.6092 6.96018 29.7993 7.15074C29.9903 7.34172 30.1632 7.54948 30.311 7.78369C30.4667 8.00909 30.5972 8.25127 30.7013 8.50269C30.7097 8.52032 30.7097 8.53753 30.7185 8.54592C30.8226 8.79734 30.9007 9.05758 30.9523 9.30857C31.0048 9.58601 31.0392 9.87185 31.0392 10.1577C31.0392 10.4435 31.0127 10.7298 30.9523 11.0072C30.9007 11.2758 30.8138 11.5445 30.7013 11.8131C30.588 12.0645 30.4587 12.3071 30.311 12.5325C30.1552 12.7579 29.9903 12.9657 29.7993 13.1651C29.6092 13.356 29.401 13.5294 29.1664 13.6767C28.9418 13.8328 28.6984 13.9625 28.4474 14.0666C28.4301 14.0754 28.4129 14.0754 28.4037 14.0838C28.1519 14.1879 27.8921 14.266 27.6415 14.3181C27.3636 14.3701 27.0774 14.4049 26.7924 14.4049C26.5061 14.4049 26.2203 14.3789 25.9428 14.3181C25.6742 14.266 25.4052 14.1791 25.1365 14.0666C24.8851 13.9537 24.6425 13.8236 24.4171 13.6767C24.1917 13.5294 23.9839 13.356 23.7934 13.1651C23.6028 12.9745 23.4295 12.7663 23.2817 12.5325C23.126 12.3071 22.9959 12.0645 22.8918 11.8131C22.883 11.7959 22.883 11.7783 22.8742 11.7699C22.7701 11.5185 22.692 11.2586 22.6404 11.0072C22.5883 10.7298 22.5535 10.4439 22.5535 10.1577C22.5535 9.87143 22.5795 9.5856 22.6404 9.30857C22.6924 9.03995 22.7789 8.77132 22.8918 8.50269C23.0043 8.25127 23.1344 8.00867 23.2817 7.78369C23.4295 7.5583 23.6028 7.35011 23.7934 7.15074C23.9839 6.96018 24.1921 6.78684 24.4171 6.63951C24.6425 6.48337 24.8851 6.35325 25.1365 6.24958C25.1542 6.24077 25.1714 6.24077 25.1802 6.23195C25.4316 6.12786 25.6914 6.05021 25.9428 5.99816C26.2203 5.94612 26.5061 5.91128 26.7924 5.91128H26.8008ZM27.4337 7.08988C27.2343 7.04665 27.0173 7.02902 26.8008 7.02902C26.5842 7.02902 26.3764 7.04665 26.1682 7.08988C25.9688 7.13311 25.7871 7.18516 25.6138 7.25483C25.6049 7.26365 25.5961 7.26365 25.5789 7.27204C25.3795 7.35893 25.1974 7.45421 25.0329 7.56669C24.8683 7.67918 24.7122 7.8009 24.5737 7.93941C24.4347 8.07834 24.305 8.23406 24.2009 8.39902C24.088 8.56355 23.9928 8.74572 23.9063 8.94509C23.8278 9.12725 23.7674 9.3262 23.7241 9.53439C23.6809 9.73376 23.6633 9.95034 23.6633 10.1669C23.6633 10.3835 23.6809 10.5913 23.7241 10.7995C23.7678 10.9988 23.8198 11.1806 23.8887 11.3539C23.8975 11.3627 23.8975 11.3711 23.9063 11.3888C23.9928 11.5881 24.0885 11.7699 24.2009 11.9348C24.3134 12.0998 24.4347 12.2555 24.5737 12.394C24.7122 12.5329 24.8683 12.6626 25.0329 12.7667C25.1974 12.8796 25.3795 12.9749 25.5789 13.0614C25.7611 13.1394 25.9605 13.1999 26.1682 13.2435C26.368 13.2872 26.5846 13.3044 26.8008 13.3044C27.0169 13.3044 27.2255 13.2872 27.4337 13.2435C27.6331 13.1999 27.8148 13.1483 27.9886 13.079C27.997 13.0702 28.0058 13.0702 28.023 13.0614C28.2224 12.9745 28.4041 12.8792 28.5691 12.7667C28.734 12.6542 28.8898 12.5329 29.0283 12.394C29.1668 12.2551 29.2973 12.0994 29.4014 11.9348C29.5139 11.7699 29.6096 11.5881 29.6956 11.3888C29.7737 11.2066 29.8341 11.0072 29.8778 10.7995C29.9214 10.6001 29.9387 10.3835 29.9387 10.1669C29.9387 9.95034 29.9214 9.74216 29.8778 9.53439C29.8341 9.33502 29.7825 9.15285 29.7128 8.9795C29.7044 8.97069 29.7044 8.9623 29.6956 8.94467C29.6096 8.7453 29.5135 8.56313 29.4014 8.3986C29.2881 8.23364 29.1668 8.07792 29.0283 7.93899C28.8898 7.80048 28.734 7.67037 28.5691 7.56627C28.4041 7.45337 28.2224 7.35809 28.023 7.27162C27.8413 7.19439 27.6419 7.13311 27.4337 7.08988ZM0.482422 21.1089H10.9047V39.6521H0.482422V21.1089Z" fill="#029894"/>
</svg>
