<svg xmlns="http://www.w3.org/2000/svg" width="43" height="43" viewBox="0 0 43 43" fill="none">
  <path d="M10.9886 5.96017V11.2389H5.70991V5.96017H10.9886ZM3.07056 3.32082V13.8782H13.628V3.32082H3.07056ZM24.1853 9.91919V15.1979H18.9067V9.91919H24.1853ZM16.2673 7.27984V17.8372H26.8247V7.27984H16.2673ZM10.9886 21.7963V27.075H5.70991V21.7963H10.9886ZM3.07056 19.1569V29.7143H13.628V19.1569H3.07056Z" fill="#029894"/>
  <path d="M29.464 13.8782V21.7962H21.546V29.7143H13.6279V40.2717H40.0214V13.8782H29.464ZM24.1853 24.4356H29.464V29.7143H24.1853V24.4356ZM21.546 37.6323H16.2673V32.3536H21.546V37.6323ZM29.464 37.6323H24.1853V32.3536H29.464V37.6323ZM37.3821 37.6323H32.1034V32.3536H37.3821V37.6323ZM37.3821 29.7143H32.1034V24.4356H37.3821V29.7143ZM32.1034 21.7962V16.5175H37.3821V21.7962H32.1034Z" fill="#029894"/>
</svg>