<svg xmlns="http://www.w3.org/2000/svg" width="36" height="33" viewBox="0 0 36 33" fill="none">
  <path d="M17.9373 8.07805V0.98291H0.199463V32.911H35.6752V8.07805H17.9373ZM7.2946 29.3635H3.74703V25.8159H7.2946V29.3635ZM7.2946 22.2683H3.74703V18.7208H7.2946V22.2683ZM7.2946 15.1732H3.74703V11.6256H7.2946V15.1732ZM7.2946 8.07805H3.74703V4.53048H7.2946V8.07805ZM14.3897 29.3635H10.8422V25.8159H14.3897V29.3635ZM14.3897 22.2683H10.8422V18.7208H14.3897V22.2683ZM14.3897 15.1732H10.8422V11.6256H14.3897V15.1732ZM14.3897 8.07805H10.8422V4.53048H14.3897V8.07805ZM32.1276 29.3635H17.9373V25.8159H21.4849V22.2683H17.9373V18.7208H21.4849V15.1732H17.9373V11.6256H32.1276V29.3635ZM28.58 15.1732H25.0325V18.7208H28.58V15.1732ZM28.58 22.2683H25.0325V25.8159H28.58V22.2683Z" fill="#029894"/>
</svg>