<svg width="279" height="249" viewBox="0 0 279 249" fill="none" xmlns="http://www.w3.org/2000/svg">
<g clip-path="url(#clip0_111_680)">
<path d="M204.204 52.844H110.068V195.334H204.204L278.383 124.091L204.204 52.844Z" fill="url(#paint0_linear_111_680)"/>
<g filter="url(#filter0_d_111_680)">
<path d="M191.666 31.9458H85.3579L32.204 124.091L85.3579 216.232H191.666L244.824 124.091L191.666 31.9458Z" fill="white"/>
</g>
<path d="M186.831 60.7585L180.938 50.5427H169.151V49.3286H181.64L187.882 60.1514L186.831 60.7585Z" fill="#354899"/>
<path d="M155.011 50.5427H150.299V49.3286H155.011V50.5427ZM136.153 50.5427H112.584V49.3286H136.153V50.5427Z" fill="#354899"/>
<path d="M90.1921 60.7585L89.142 60.1514L95.3839 49.3286H107.872V50.5427H96.0855L90.1921 60.7585Z" fill="#354899"/>
<path d="M61.9109 109.785L60.8608 109.178L72.6476 88.7511L73.6977 89.3581L61.9109 109.785ZM80.7635 77.1037L79.7134 76.4967L82.0716 72.4104L83.1218 73.0175L80.7635 77.1037Z" fill="#354899"/>
<path d="M58.5025 134.914L52.256 124.091L58.5025 113.264L59.5527 113.871L53.6592 124.091L59.5527 134.307L58.5025 134.914Z" fill="#354899"/>
<path d="M86.7837 183.941L75.0014 163.514L76.0515 162.907L87.8338 183.334L86.7837 183.941ZM67.9311 151.255L65.5728 147.169L66.6229 146.562L68.9812 150.648L67.9311 151.255Z" fill="#354899"/>
<path d="M107.872 198.854H95.3839L89.142 188.027L90.1921 187.42L96.0855 197.636H107.872V198.854Z" fill="#354899"/>
<path d="M164.439 198.854H140.87V197.64H164.439V198.854ZM126.729 198.854H122.017V197.64H126.729V198.854Z" fill="#354899"/>
<path d="M181.64 198.854H169.151V197.636H180.938L186.831 187.42L187.882 188.027L181.64 198.854Z" fill="#354899"/>
<path d="M194.956 175.773L193.906 175.166L196.265 171.079L197.315 171.686L194.956 175.773ZM204.38 159.428L203.33 158.82L215.117 138.394L216.167 139.001L204.38 159.428Z" fill="#354899"/>
<path d="M218.521 134.914L217.471 134.307L223.364 124.091L217.471 113.871L218.521 113.264L224.767 124.091L218.521 134.914Z" fill="#354899"/>
<path d="M210.401 101.617L208.042 97.5307L209.092 96.9236L211.451 101.01L210.401 101.617ZM200.977 85.2718L189.19 64.8448L190.24 64.2378L202.027 84.6647L200.977 85.2718Z" fill="#354899"/>
<path d="M101.254 122.169C101.254 112.942 102.907 105.716 106.214 100.489C109.574 95.2622 115.121 92.6489 122.854 92.6489C130.587 92.6489 136.107 95.2622 139.414 100.489C142.774 105.716 144.454 112.942 144.454 122.169C144.454 131.449 142.774 138.729 139.414 144.009C136.107 149.289 130.587 151.929 122.854 151.929C115.121 151.929 109.574 149.289 106.214 144.009C102.907 138.729 101.254 131.449 101.254 122.169ZM133.414 122.169C133.414 118.222 133.147 114.916 132.614 112.249C132.134 109.529 131.121 107.316 129.574 105.609C128.081 103.902 125.841 103.049 122.854 103.049C119.867 103.049 117.601 103.902 116.054 105.609C114.561 107.316 113.547 109.529 113.014 112.249C112.534 114.916 112.294 118.222 112.294 122.169C112.294 126.222 112.534 129.636 113.014 132.409C113.494 135.129 114.507 137.342 116.054 139.049C117.601 140.702 119.867 141.529 122.854 141.529C125.841 141.529 128.107 140.702 129.654 139.049C131.201 137.342 132.214 135.129 132.694 132.409C133.174 129.636 133.414 126.222 133.414 122.169ZM151.613 104.089V93.7689H170.893V152.089H159.373V104.089H151.613Z" fill="#001C63"/>
</g>
<defs>
<filter id="filter0_d_111_680" x="24.804" y="24.5458" width="227.42" height="199.086" filterUnits="userSpaceOnUse" color-interpolation-filters="sRGB">
<feFlood flood-opacity="0" result="BackgroundImageFix"/>
<feColorMatrix in="SourceAlpha" type="matrix" values="0 0 0 0 0 0 0 0 0 0 0 0 0 0 0 0 0 0 127 0" result="hardAlpha"/>
<feOffset/>
<feGaussianBlur stdDeviation="3.7"/>
<feComposite in2="hardAlpha" operator="out"/>
<feColorMatrix type="matrix" values="0 0 0 0 0 0 0 0 0 0 0 0 0 0 0 0 0 0 0.82 0"/>
<feBlend mode="normal" in2="BackgroundImageFix" result="effect1_dropShadow_111_680"/>
<feBlend mode="normal" in="SourceGraphic" in2="effect1_dropShadow_111_680" result="shape"/>
</filter>
<linearGradient id="paint0_linear_111_680" x1="194.226" y1="60.1929" x2="194.226" y2="183.765" gradientUnits="userSpaceOnUse">
<stop stop-color="#1C8985"/>
<stop offset="1" stop-color="#448958"/>
</linearGradient>
<clipPath id="clip0_111_680">
<rect width="278" height="248" fill="white" transform="translate(0.383118 0.0891113)"/>
</clipPath>
</defs>
</svg>
