<svg width="279" height="249" viewBox="0 0 279 249" fill="none" xmlns="http://www.w3.org/2000/svg">
<g clip-path="url(#clip0_111_719)">
<path d="M204.204 53.6584H110.068V196.149H204.204L278.383 124.906L204.204 53.6584Z" fill="url(#paint0_linear_111_719)"/>
<g filter="url(#filter0_d_111_719)">
<path d="M191.666 32.7603H85.3579L32.204 124.906L85.3579 217.047H191.666L244.824 124.906L191.666 32.7603Z" fill="white"/>
</g>
<path d="M186.831 61.5729L180.938 51.3572H169.151V50.1431H181.64L187.882 60.9659L186.831 61.5729Z" fill="#354899"/>
<path d="M155.011 51.3572H150.299V50.1431H155.011V51.3572ZM136.153 51.3572H112.584V50.1431H136.153V51.3572Z" fill="#354899"/>
<path d="M90.1921 61.5729L89.142 60.9659L95.3839 50.1431H107.872V51.3572H96.0855L90.1921 61.5729Z" fill="#354899"/>
<path d="M61.9109 110.599L60.8608 109.992L72.6476 89.5655L73.6977 90.1726L61.9109 110.599ZM80.7635 77.9182L79.7134 77.3111L82.0716 73.2249L83.1218 73.8319L80.7635 77.9182Z" fill="#354899"/>
<path d="M58.5025 135.729L52.256 124.906L58.5025 114.079L59.5527 114.686L53.6592 124.906L59.5527 135.122L58.5025 135.729Z" fill="#354899"/>
<path d="M86.7837 184.755L75.0014 164.328L76.0515 163.721L87.8338 184.148L86.7837 184.755ZM67.9311 152.069L65.5728 147.983L66.6229 147.376L68.9812 151.462L67.9311 152.069Z" fill="#354899"/>
<path d="M107.872 199.669H95.3839L89.142 188.841L90.1921 188.234L96.0855 198.45H107.872V199.669Z" fill="#354899"/>
<path d="M164.439 199.669H140.87V198.455H164.439V199.669ZM126.729 199.669H122.017V198.455H126.729V199.669Z" fill="#354899"/>
<path d="M181.64 199.669H169.151V198.45H180.938L186.831 188.234L187.882 188.841L181.64 199.669Z" fill="#354899"/>
<path d="M194.956 176.587L193.906 175.98L196.265 171.894L197.315 172.501L194.956 176.587ZM204.38 160.242L203.33 159.635L215.117 139.208L216.167 139.815L204.38 160.242Z" fill="#354899"/>
<path d="M218.521 135.729L217.471 135.122L223.364 124.906L217.471 114.686L218.521 114.079L224.767 124.906L218.521 135.729Z" fill="#354899"/>
<path d="M210.401 102.431L208.042 98.3451L209.092 97.7381L211.451 101.824L210.401 102.431ZM200.977 86.0862L189.19 65.6593L190.24 65.0522L202.027 85.4792L200.977 86.0862Z" fill="#354899"/>
<path d="M92.7541 122.983C92.7541 113.757 94.4074 106.53 97.7141 101.303C101.074 96.0767 106.621 93.4633 114.354 93.4633C122.087 93.4633 127.607 96.0767 130.914 101.303C134.274 106.53 135.954 113.757 135.954 122.983C135.954 132.263 134.274 139.543 130.914 144.823C127.607 150.103 122.087 152.743 114.354 152.743C106.621 152.743 101.074 150.103 97.7141 144.823C94.4074 139.543 92.7541 132.263 92.7541 122.983ZM124.914 122.983C124.914 119.037 124.647 115.73 124.114 113.063C123.634 110.343 122.621 108.13 121.074 106.423C119.581 104.717 117.341 103.863 114.354 103.863C111.367 103.863 109.101 104.717 107.554 106.423C106.061 108.13 105.047 110.343 104.514 113.063C104.034 115.73 103.794 119.037 103.794 122.983C103.794 127.037 104.034 130.45 104.514 133.223C104.994 135.943 106.007 138.157 107.554 139.863C109.101 141.517 111.367 142.343 114.354 142.343C117.341 142.343 119.607 141.517 121.154 139.863C122.701 138.157 123.714 135.943 124.194 133.223C124.674 130.45 124.914 127.037 124.914 122.983ZM144.633 109.943C144.899 104.61 146.766 100.503 150.233 97.6233C153.753 94.69 158.366 93.2233 164.073 93.2233C167.966 93.2233 171.299 93.9167 174.073 95.3033C176.846 96.6367 178.926 98.4767 180.313 100.823C181.753 103.117 182.473 105.73 182.473 108.663C182.473 112.023 181.593 114.877 179.833 117.223C178.126 119.517 176.073 121.063 173.673 121.863V122.183C176.766 123.143 179.166 124.85 180.873 127.303C182.633 129.757 183.513 132.903 183.513 136.743C183.513 139.943 182.766 142.797 181.273 145.303C179.833 147.81 177.673 149.783 174.793 151.223C171.966 152.61 168.553 153.303 164.553 153.303C158.526 153.303 153.619 151.783 149.833 148.743C146.046 145.703 144.046 141.223 143.833 135.303H154.713C154.819 137.917 155.699 140.023 157.353 141.623C159.059 143.17 161.379 143.943 164.313 143.943C167.033 143.943 169.113 143.197 170.553 141.703C172.046 140.157 172.793 138.183 172.793 135.783C172.793 132.583 171.779 130.29 169.753 128.903C167.726 127.517 164.579 126.823 160.313 126.823H157.993V117.623H160.313C167.886 117.623 171.673 115.09 171.673 110.023C171.673 107.73 170.979 105.943 169.593 104.663C168.259 103.383 166.313 102.743 163.753 102.743C161.246 102.743 159.299 103.437 157.913 104.823C156.579 106.157 155.806 107.863 155.593 109.943H144.633Z" fill="#001C63"/>
</g>
<defs>
<filter id="filter0_d_111_719" x="24.804" y="25.3603" width="227.42" height="199.086" filterUnits="userSpaceOnUse" color-interpolation-filters="sRGB">
<feFlood flood-opacity="0" result="BackgroundImageFix"/>
<feColorMatrix in="SourceAlpha" type="matrix" values="0 0 0 0 0 0 0 0 0 0 0 0 0 0 0 0 0 0 127 0" result="hardAlpha"/>
<feOffset/>
<feGaussianBlur stdDeviation="3.7"/>
<feComposite in2="hardAlpha" operator="out"/>
<feColorMatrix type="matrix" values="0 0 0 0 0 0 0 0 0 0 0 0 0 0 0 0 0 0 0.82 0"/>
<feBlend mode="normal" in2="BackgroundImageFix" result="effect1_dropShadow_111_719"/>
<feBlend mode="normal" in="SourceGraphic" in2="effect1_dropShadow_111_719" result="shape"/>
</filter>
<linearGradient id="paint0_linear_111_719" x1="194.226" y1="61.0073" x2="194.226" y2="184.579" gradientUnits="userSpaceOnUse">
<stop stop-color="#1C8985"/>
<stop offset="1" stop-color="#448958"/>
</linearGradient>
<clipPath id="clip0_111_719">
<rect width="278" height="248" fill="white" transform="translate(0.383118 0.903564)"/>
</clipPath>
</defs>
</svg>
