<svg width="279" height="249" viewBox="0 0 279 249" fill="none" xmlns="http://www.w3.org/2000/svg">
<g clip-path="url(#clip0_111_681)">
<path d="M74.8797 195.741L169.016 195.741L169.016 53.2512L74.8797 53.2512L0.700522 124.494L74.8797 195.741Z" fill="url(#paint0_linear_111_681)"/>
<g filter="url(#filter0_d_111_681)">
<path d="M87.418 216.64L193.726 216.64L246.88 124.494L193.726 32.3532L87.418 32.3532L34.2595 124.494L87.418 216.64Z" fill="white"/>
</g>
<path d="M92.2522 187.827L98.1456 198.043L109.932 198.043L109.932 199.257L97.444 199.257L91.202 188.434L92.2522 187.827Z" fill="#354899"/>
<path d="M124.073 198.043L128.785 198.043L128.785 199.257L124.073 199.257L124.073 198.043ZM142.93 198.043L166.499 198.043L166.499 199.257L142.93 199.257L142.93 198.043Z" fill="#354899"/>
<path d="M188.892 187.827L189.942 188.434L183.7 199.257L171.211 199.257L171.211 198.043L182.998 198.043L188.892 187.827Z" fill="#354899"/>
<path d="M217.173 138.8L218.223 139.407L206.436 159.834L205.386 159.227L217.173 138.8ZM198.32 171.482L199.37 172.089L197.012 176.175L195.962 175.568L198.32 171.482Z" fill="#354899"/>
<path d="M220.581 113.671L226.828 124.494L220.581 135.321L219.531 134.714L225.424 124.494L219.531 114.278L220.581 113.671Z" fill="#354899"/>
<path d="M192.3 64.6448L204.082 85.0717L203.032 85.6788L191.25 65.2518L192.3 64.6448ZM211.153 97.3306L213.511 101.417L212.461 102.024L210.102 97.9376L211.153 97.3306Z" fill="#354899"/>
<path d="M171.211 49.7312L183.7 49.7312L189.942 60.5585L188.892 61.1655L182.998 50.9498L171.211 50.9498L171.211 49.7312Z" fill="#354899"/>
<path d="M114.644 49.731L138.214 49.731L138.214 50.9451L114.644 50.9451L114.644 49.731ZM152.354 49.731L157.066 49.731L157.066 50.9451L152.354 50.9451L152.354 49.731Z" fill="#354899"/>
<path d="M97.444 49.7312L109.932 49.7312L109.932 50.9498L98.1456 50.9498L92.2522 61.1655L91.202 60.5585L97.444 49.7312Z" fill="#354899"/>
<path d="M84.1272 72.8127L85.1773 73.4198L82.8191 77.5061L81.7689 76.899L84.1272 72.8127ZM74.7032 89.1579L75.7533 89.765L63.9665 110.192L62.9163 109.585L74.7032 89.1579Z" fill="#354899"/>
<path d="M60.5626 113.671L61.6127 114.278L55.7193 124.494L61.6127 134.714L60.5626 135.321L54.3161 124.494L60.5626 113.671Z" fill="#354899"/>
<path d="M68.683 146.968L71.0413 151.055L69.9912 151.662L67.6329 147.576L68.683 146.968ZM78.1071 163.314L89.8939 183.741L88.8438 184.348L77.0569 163.921L78.1071 163.314Z" fill="#354899"/>
<path d="M95.8096 122.577C95.8096 113.35 97.4629 106.123 100.77 100.897C104.13 95.6699 109.676 93.0566 117.41 93.0566C125.143 93.0566 130.663 95.6699 133.97 100.897C137.33 106.123 139.01 113.35 139.01 122.577C139.01 131.857 137.33 139.137 133.97 144.417C130.663 149.697 125.143 152.337 117.41 152.337C109.676 152.337 104.13 149.697 100.77 144.417C97.4629 139.137 95.8096 131.857 95.8096 122.577ZM127.97 122.577C127.97 118.63 127.703 115.323 127.17 112.657C126.69 109.937 125.676 107.723 124.13 106.017C122.636 104.31 120.396 103.457 117.41 103.457C114.423 103.457 112.156 104.31 110.61 106.017C109.116 107.723 108.103 109.937 107.57 112.657C107.09 115.323 106.85 118.63 106.85 122.577C106.85 126.63 107.09 130.043 107.57 132.817C108.05 135.537 109.063 137.75 110.61 139.457C112.156 141.11 114.423 141.937 117.41 141.937C120.396 141.937 122.663 141.11 124.21 139.457C125.756 137.75 126.77 135.537 127.25 132.817C127.73 130.043 127.97 126.63 127.97 122.577ZM151.048 139.857C156.168 135.59 160.248 132.043 163.288 129.217C166.328 126.337 168.862 123.35 170.888 120.257C172.915 117.163 173.928 114.123 173.928 111.137C173.928 108.417 173.288 106.283 172.008 104.737C170.728 103.19 168.755 102.417 166.088 102.417C163.422 102.417 161.368 103.323 159.928 105.137C158.488 106.897 157.742 109.323 157.688 112.417L146.808 112.417C147.022 106.017 148.915 101.163 152.488 97.8566C156.115 94.5499 160.702 92.8966 166.248 92.8966C172.328 92.8966 176.995 94.5232 180.248 97.7766C183.502 100.977 185.128 105.217 185.128 110.497C185.128 114.657 184.008 118.63 181.768 122.417C179.528 126.203 176.968 129.51 174.088 132.337C171.208 135.11 167.448 138.47 162.808 142.417L186.408 142.417L186.408 151.697L146.888 151.697L146.888 143.377L151.048 139.857Z" fill="#029894"/>
</g>
<defs>
<filter id="filter0_d_111_681" x="26.8595" y="24.9533" width="227.42" height="199.086" filterUnits="userSpaceOnUse" color-interpolation-filters="sRGB">
<feFlood flood-opacity="0" result="BackgroundImageFix"/>
<feColorMatrix in="SourceAlpha" type="matrix" values="0 0 0 0 0 0 0 0 0 0 0 0 0 0 0 0 0 0 127 0" result="hardAlpha"/>
<feOffset/>
<feGaussianBlur stdDeviation="3.7"/>
<feComposite in2="hardAlpha" operator="out"/>
<feColorMatrix type="matrix" values="0 0 0 0 0 0 0 0 0 0 0 0 0 0 0 0 0 0 0.82 0"/>
<feBlend mode="normal" in2="BackgroundImageFix" result="effect1_dropShadow_111_681"/>
<feBlend mode="normal" in="SourceGraphic" in2="effect1_dropShadow_111_681" result="shape"/>
</filter>
<linearGradient id="paint0_linear_111_681" x1="84.8579" y1="188.393" x2="84.8579" y2="64.8206" gradientUnits="userSpaceOnUse">
<stop stop-color="#001C63"/>
<stop offset="1" stop-color="#354899"/>
</linearGradient>
<clipPath id="clip0_111_681">
<rect width="278" height="248" fill="white" transform="translate(278.701 248.496) rotate(-180)"/>
</clipPath>
</defs>
</svg>
