<svg xmlns="http://www.w3.org/2000/svg" width="221" height="264" fill="none"><path fill="url(#a)" d="M180.024 184.12c47.385 15.507 54.712 43.595 16.318 62.728-38.393 19.134-107.886 22.097-155.267 6.594s-54.692-43.595-16.323-62.745c38.37-19.15 107.891-22.08 155.272-6.577Z" style="mix-blend-mode:multiply"/><path fill="#8EDBDC" d="M110.479 219.827c-22.787 0-44.286-3.096-62.15-8.947-25.13-8.22-39.555-20.922-40.618-35.76-.523-7.303 2.097-21.308 25.514-32.993 19.172-9.569 47.38-15.055 77.388-15.055 22.787 0 44.286 3.092 62.15 8.943 25.13 8.224 39.555 20.926 40.618 35.764.523 7.308-2.097 21.308-25.514 32.993-19.172 9.569-47.381 15.055-77.388 15.055Z" opacity=".2" style="mix-blend-mode:multiply"/><path fill="#029894" d="M170.354 143.6c40.794 13.349 47.087 37.537 14.049 54.019-33.037 16.482-92.889 19.03-133.703 5.681-40.814-13.349-47.09-37.537-14.053-54.023 33.037-16.486 92.909-19.03 133.707-5.677Z" style="mix-blend-mode:multiply"/><path fill="url(#b)" d="M158.178 149.675c32.493 10.631 37.502 29.876 11.191 43.026-26.312 13.15-73.983 15.154-106.476 4.523-32.494-10.631-37.503-29.897-11.191-43.026 26.311-13.129 73.982-15.154 106.476-4.523Z"/><path fill="url(#c)" d="M158.178 149.675c32.493 10.631 37.502 29.876 11.191 43.026-26.312 13.15-73.983 15.154-106.476 4.523-32.494-10.631-37.503-29.897-11.191-43.026 26.311-13.129 73.982-15.154 106.476-4.523Z"/><path fill="url(#d)" d="M158.178 149.675c32.493 10.631 37.502 29.876 11.191 43.026-26.312 13.15-73.983 15.154-106.476 4.523-32.494-10.631-37.503-29.897-11.191-43.026 26.311-13.129 73.982-15.154 106.476-4.523Z"/><path fill="#8EDBDC" d="M110.479 235.612c-22.787 0-44.286-3.091-62.15-8.942-25.13-8.225-39.555-20.926-40.618-35.761-.523-7.307 2.097-21.308 25.514-32.993 19.172-9.569 47.38-15.059 77.388-15.059 22.787 0 44.286 3.096 62.15 8.947 25.13 8.22 39.555 20.922 40.618 35.76.523 7.308-2.097 21.308-25.514 32.993-19.172 9.569-47.381 15.055-77.388 15.055Z" opacity=".2" style="mix-blend-mode:multiply"/><path fill="#E6EDEB" d="M178.311 146.06h-13.423a70.994 70.994 0 0 0-11.702-4.917c-29.092-9.519-71.77-7.706-95.326 4.05-.573.282-1.112.577-1.636.867h-13.33v14.744c-1.226 8.51 7.36 17.133 24.987 22.909 29.092 9.515 71.771 7.706 95.326-4.05 10.173-5.075 15.104-11.174 15.096-17.237l.008-16.366Z"/><path fill="#FAFFFE" d="M153.19 124.778c29.087 9.519 33.573 26.764 10.017 38.52-23.555 11.756-66.238 13.565-95.326 4.046-29.087-9.519-33.573-26.765-10.017-38.52 23.555-11.756 66.234-13.565 95.326-4.046Z"/><path fill="url(#e)" d="M110.536 173.53c37.433 0 67.78-12.299 67.78-27.47s-30.347-27.47-67.78-27.47c-37.434 0-67.78 12.299-67.78 27.47s30.346 27.47 67.78 27.47Z" style="mix-blend-mode:multiply"/><path fill="#E6EDEB" d="M178.311 118.957h-13.423a70.58 70.58 0 0 0-11.702-4.917c-29.092-9.519-71.77-7.706-95.326 4.05-.573.282-1.112.576-1.636.867h-13.33V133.7c-1.226 8.511 7.36 17.129 24.987 22.906 29.092 9.519 71.771 7.709 95.326-4.046 10.173-5.079 15.104-11.179 15.096-17.237l.008-16.366Z"/><path fill="#FAFFFE" d="M153.19 97.674c29.087 9.519 33.573 26.765 10.017 38.52-23.555 11.756-66.238 13.565-95.326 4.046-29.087-9.519-33.573-26.765-10.017-38.52 23.555-11.756 66.234-13.565 95.326-4.046Z"/><path fill="url(#f)" d="M110.536 133.202c19.409 0 35.143-6.378 35.143-14.246 0-7.867-15.734-14.245-35.143-14.245-19.41 0-35.143 6.378-35.143 14.245 0 7.868 15.734 14.246 35.143 14.246Z" opacity=".25" style="mix-blend-mode:multiply"/><path fill="#029894" d="M108.43 23.223c0 5.052-1.156 8.865-3.468 11.44-2.311 2.576-5.424 3.864-9.338 3.864-3.947 0-7.082-1.288-9.405-3.863-2.322-2.576-3.478-6.39-3.467-11.44v-7.86c0-5.051 1.148-8.865 3.443-11.44C88.49 1.348 91.61.06 95.554.06c3.928 0 7.053 1.293 9.376 3.88 2.322 2.586 3.482 6.394 3.479 11.423l.021 7.86Zm-8.53-8.448c0-2.86-.37-4.915-1.112-6.162a3.573 3.573 0 0 0-1.346-1.398 3.504 3.504 0 0 0-1.867-.478c-.654-.023-1.3.14-1.866.472a3.517 3.517 0 0 0-1.336 1.404c-.714 1.25-1.073 3.304-1.075 6.162v8.988c0 2.907.362 4.982 1.087 6.224.316.586.786 1.07 1.358 1.4.572.329 1.223.49 1.88.463.65.023 1.294-.14 1.857-.47a3.512 3.512 0 0 0 1.333-1.393c.728-1.242 1.09-3.317 1.087-6.224v-8.988ZM138.65 37.987h-25.76v-5.648l11.858-12.635a25.359 25.359 0 0 0 3.312-4.672 8.012 8.012 0 0 0 1.063-3.569 5.188 5.188 0 0 0-1.076-3.444c-.714-.855-1.789-1.282-3.226-1.282a3.414 3.414 0 0 0-1.728.422c-.53.29-.976.718-1.293 1.238a7.467 7.467 0 0 0-1.1 4.224h-8.354l-.049-.154a11.85 11.85 0 0 1 .758-4.753 11.696 11.696 0 0 1 2.583-4.04c2.311-2.406 5.373-3.61 9.183-3.61 4.048 0 7.207 1.01 9.478 3.03 2.271 2.019 3.405 4.785 3.402 8.299a11.09 11.09 0 0 1-1.807 6.265c-1.205 1.812-3.428 4.508-6.669 8.088l-4.984 5.42.073.153h14.336v6.668Z"/><path fill="#029894" fill-rule="evenodd" d="M92.956 112.463V92.714h8.882c3.766.675 7.532 2.717 11.298 5.088h6.899c3.124.189 4.758 3.354 1.725 5.434-2.42 1.773-5.611 1.673-8.883 1.38-2.255-.112-2.354 2.922 0 2.931.817.063 1.706-.128 2.483-.129 4.084-.003 7.447-.784 9.505-4.01l1.036-2.415 10.263-5.088c5.136-1.692 8.785 3.681 5.002 7.416-7.434 5.408-15.058 9.86-22.855 13.454-5.663 3.444-11.326 3.328-16.989 0l-8.366-4.312Zm38.635-31.647a.618.618 0 0 0-.476-.111.637.637 0 0 0-.408.265l-.564.795a3.776 3.776 0 0 0-.63-.21c-.22-.055-.43-.1-.651-.132l-.177-1.039a.639.639 0 0 0-.254-.408c-.144-.1-.298-.133-.475-.1l-1.304.232a.65.65 0 0 0-.408.254.605.605 0 0 0-.111.476l.166.95c-.21.088-.408.187-.596.31-.189.11-.375.242-.542.375l-.883-.608a.59.59 0 0 0-.464-.11.639.639 0 0 0-.409.265l-.751 1.072a.618.618 0 0 0-.11.474c.033.177.122.31.265.41l.795.562a3.847 3.847 0 0 0-.21.63c-.056.22-.1.43-.133.651l-1.037.177a.643.643 0 0 0-.41.255c-.099.143-.131.298-.099.474l.232 1.304a.654.654 0 0 0 .255.409c.143.1.298.143.474.11l.95-.166c.089.21.188.409.309.596.111.188.243.376.376.552l-.608.873a.588.588 0 0 0-.11.463c.033.166.122.31.264.41l1.082.761c.145.1.311.132.476.1a.675.675 0 0 0 .42-.254l.563-.806c.199.088.409.154.63.21.221.054.431.099.651.132l.178 1.038c.032.177.121.309.254.408.143.1.298.133.474.1l1.304-.232a.65.65 0 0 0 .409-.254.613.613 0 0 0 .111-.475l-.167-.95c.211-.088.409-.188.597-.309.188-.11.375-.243.552-.375l.873.607c.143.1.298.144.474.11a.616.616 0 0 0 .41-.264l.761-1.083c.1-.143.133-.31.1-.475a.673.673 0 0 0-.254-.42l-.807-.552a3.75 3.75 0 0 0 .21-.63c.056-.22.1-.43.133-.651l1.038-.177a.64.64 0 0 0 .409-.254c.099-.144.133-.299.099-.475l-.232-1.304a.647.647 0 0 0-.254-.409.605.605 0 0 0-.475-.11l-.95.165a4.947 4.947 0 0 0-.309-.596 3.965 3.965 0 0 0-.375-.54l.607-.884a.586.586 0 0 0 .111-.464.641.641 0 0 0-.265-.409l-1.071-.75-.033.01Zm-3.788 3.07a2.657 2.657 0 0 1 1.027.022c.331.078.63.21.905.398.266.187.497.43.684.717.188.287.31.608.365.95a2.65 2.65 0 0 1-.022 1.027c-.077.332-.21.63-.398.906-.187.265-.43.497-.718.685-.287.187-.607.309-.949.364a2.68 2.68 0 0 1-1.027-.022 2.664 2.664 0 0 1-.905-.398 2.658 2.658 0 0 1-.686-.717 2.44 2.44 0 0 1-.364-.95 2.67 2.67 0 0 1 .023-1.027c.077-.331.21-.63.396-.906a2.69 2.69 0 0 1 .718-.684c.287-.189.608-.31.951-.365ZM117.774 68.4a.47.47 0 0 0-.155-.11.37.37 0 0 0-.166-.034.373.373 0 0 0-.166.033.624.624 0 0 0-.144.1l-.011.01-1.248 1.249a.706.706 0 0 1-.906.077 8.155 8.155 0 0 0-.452-.265c-.177-.088-.343-.177-.498-.254a7.26 7.26 0 0 0-.519-.22c-.154-.056-.331-.122-.541-.189a.71.71 0 0 1-.486-.674v-1.91a.379.379 0 0 0-.133-.31.512.512 0 0 0-.133-.099.41.41 0 0 0-.176-.034h-2.407a.655.655 0 0 0-.165.023.568.568 0 0 0-.155.11.313.313 0 0 0-.089.133.424.424 0 0 0-.033.177v1.756c0 .354-.254.64-.585.707a11.68 11.68 0 0 0-.519.133c-.177.055-.342.11-.519.176-.166.066-.343.133-.509.221-.177.078-.331.166-.486.243a.7.7 0 0 1-.839-.122l-1.38-1.369c-.011-.011-.011-.011-.011-.022a.508.508 0 0 0-.132-.1c-.045-.021-.089-.021-.155-.021a.376.376 0 0 0-.166.033.448.448 0 0 0-.154.11l-1.679 1.69a.439.439 0 0 0-.111.155.371.371 0 0 0-.033.166c0 .066.011.121.033.166.022.044.055.1.1.143v.012l1.247 1.248c.244.243.277.63.078.905-.088.144-.177.287-.265.453-.089.177-.177.343-.254.497a7.32 7.32 0 0 0-.221.52c-.055.154-.121.33-.188.54a.708.708 0 0 1-.673.486h-1.911a.42.42 0 0 0-.177.034.905.905 0 0 0-.132.088.303.303 0 0 0-.088.133.426.426 0 0 0-.034.177v2.407c0 .066.012.121.023.166.022.044.055.1.11.154a.305.305 0 0 0 .133.089c.045.022.11.033.177.033h1.756c.354 0 .641.254.707.585a8.248 8.248 0 0 0 .31 1.039c.066.165.132.342.22.52.089.187.166.353.244.507a.7.7 0 0 1-.133.829l-1.37 1.358-.011.012a.52.52 0 0 0-.099.132c-.022.045-.022.089-.022.155s.011.121.033.166c.022.055.055.11.11.154l1.668 1.69a.455.455 0 0 0 .154.1.515.515 0 0 0 .365 0 .996.996 0 0 0 .144-.088l1.237-1.26a.707.707 0 0 1 .906-.088c.144.089.286.177.452.266.177.088.343.176.497.254.166.077.342.154.52.22.154.056.331.122.541.188a.71.71 0 0 1 .486.674v1.91a.424.424 0 0 0 .121.31.419.419 0 0 0 .321.122h2.408a.65.65 0 0 0 .165-.022.58.58 0 0 0 .155-.11.327.327 0 0 0 .089-.133.44.44 0 0 0 .033-.177v-1.756c0-.354.254-.641.585-.708.188-.044.365-.088.52-.132.176-.056.342-.11.519-.177.165-.066.342-.133.518-.221.189-.088.355-.166.509-.243a.7.7 0 0 1 .829.133l1.358 1.37.011.01a.51.51 0 0 0 .132.1c.044.023.1.023.166.023a.373.373 0 0 0 .166-.033.56.56 0 0 0 .133-.1c.011-.011.022-.022.032-.022l1.679-1.657a.454.454 0 0 0 .1-.154.497.497 0 0 0 0-.364 1.012 1.012 0 0 0-.088-.145l-1.259-1.237a.705.705 0 0 1-.089-.905c.089-.144.177-.288.266-.453.087-.177.176-.343.254-.497.077-.166.154-.343.22-.52.056-.154.123-.33.188-.541a.709.709 0 0 1 .674-.486h1.911a.406.406 0 0 0 .176-.033.554.554 0 0 0 .133-.089.414.414 0 0 0 .121-.32V75.97a.678.678 0 0 0-.021-.166.592.592 0 0 0-.111-.155.308.308 0 0 0-.132-.088.422.422 0 0 0-.176-.033h-1.757a.723.723 0 0 1-.706-.597c-.044-.154-.089-.32-.133-.485-.056-.166-.111-.343-.188-.53 0-.012-.011-.023-.011-.034a11.022 11.022 0 0 0-.2-.486c-.077-.166-.154-.331-.242-.486a.701.701 0 0 1 .122-.84l1.369-1.38c0-.011.012-.011.022-.011a.518.518 0 0 0 .1-.133c.022-.044.022-.088.022-.154a.434.434 0 0 0-.144-.32l-1.69-1.68.008.009Zm.398-1.424c.232.099.43.232.607.408l1.69 1.68h.011c.176.176.309.375.408.596.101.232.145.463.145.717 0 .255-.056.498-.145.719-.099.22-.232.42-.419.585l-.994 1.005c.011.033.034.066.044.1.089.187.166.386.243.573 0 .012.012.023.012.034.077.188.143.397.21.618l.022.078h1.214c.255 0 .497.044.718.144.221.088.419.232.597.409l.01.01c.177.177.31.376.398.597.088.221.144.464.144.707v2.408c0 .52-.177.96-.542 1.325-.176.177-.386.32-.607.409a1.93 1.93 0 0 1-.718.132h-1.414c-.011.034-.033.078-.044.111-.078.2-.167.398-.254.597-.1.21-.189.408-.287.585l-.034.066.862.85.033.034c.177.177.298.386.387.607.088.221.133.453.133.707a1.896 1.896 0 0 1-.52 1.303l-.022.023-1.69 1.679a1.753 1.753 0 0 1-1.325.563c-.254 0-.497-.055-.729-.143a1.746 1.746 0 0 1-.596-.42l-.983-.994a.351.351 0 0 1-.111.044c-.188.078-.386.166-.596.243-.198.078-.409.144-.618.21-.034.012-.056.023-.089.023v1.203a1.818 1.818 0 0 1-.552 1.314l-.011.012a1.76 1.76 0 0 1-.597.397c-.22.089-.463.144-.706.144h-2.408c-.519 0-.96-.176-1.325-.541a1.836 1.836 0 0 1-.409-.608 1.935 1.935 0 0 1-.132-.718v-1.416c-.034-.012-.078-.034-.111-.045a14.123 14.123 0 0 1-.597-.254c-.21-.1-.408-.188-.585-.287l-.067-.033-.85.861-.033.034a1.775 1.775 0 0 1-.608.386 1.869 1.869 0 0 1-.706.133 1.904 1.904 0 0 1-1.304-.52l-.022-.021-1.69-1.713a1.99 1.99 0 0 1-.409-.596 1.78 1.78 0 0 1-.143-.718c0-.254.055-.497.143-.718.1-.22.244-.42.42-.596l.994-.983a.332.332 0 0 1-.044-.11c-.077-.189-.166-.388-.243-.597-.078-.21-.155-.409-.21-.618l-.022-.09h-1.204c-.254 0-.497-.043-.718-.143a1.803 1.803 0 0 1-.597-.408l-.01-.012a1.764 1.764 0 0 1-.398-.596 1.924 1.924 0 0 1-.144-.707v-2.407c0-.254.044-.486.132-.718.089-.22.233-.42.41-.608.176-.176.386-.32.607-.408a1.92 1.92 0 0 1 .718-.133h1.414c.011-.033.033-.077.044-.11.078-.199.166-.398.254-.596.1-.21.188-.409.287-.586l.034-.066-.851-.862a1.722 1.722 0 0 1-.408-.607 1.803 1.803 0 0 1-.144-.718 1.883 1.883 0 0 1 .552-1.325l1.679-1.69v-.01a1.99 1.99 0 0 1 .597-.41c.232-.099.463-.143.717-.143.255 0 .498.055.718.144.221.1.42.232.586.419l1.004.994c.034-.012.067-.033.089-.044.188-.089.387-.166.597-.254.199-.078.408-.144.618-.21.033-.011.055-.022.088-.022V66.18a1.808 1.808 0 0 1 .553-1.314l.011-.011c.177-.177.375-.31.596-.398.221-.088.464-.144.706-.144h2.408c.254 0 .486.045.718.133.232.088.431.232.608.409.176.176.32.387.408.607.088.221.133.464.133.718v1.414c.033.011.078.033.11.044.199.078.398.166.596.254.21.1.409.188.586.288l.066.033.862-.85a1.72 1.72 0 0 1 .607-.41c.232-.099.475-.143.718-.143.255 0 .487.044.719.144v.022Zm-7.633 4.472c.365 0 .729.034 1.082.111.343.066.685.177 1.027.32.321.144.63.31.917.497.287.188.553.409.795.652.243.243.464.508.652.806.199.288.365.596.498.917.01.022.01.044.021.055.133.32.233.652.298.972.067.353.111.717.111 1.082 0 .364-.034.729-.111 1.082a5.188 5.188 0 0 1-.319 1.027c-.145.32-.31.63-.498.917a6.423 6.423 0 0 1-.652.806 4.553 4.553 0 0 1-.807.652 4.88 4.88 0 0 1-.916.497c-.022.011-.044.011-.055.022a5.482 5.482 0 0 1-.972.298 5.91 5.91 0 0 1-1.082.111 5.05 5.05 0 0 1-1.082-.11 5.256 5.256 0 0 1-1.028-.321 6.81 6.81 0 0 1-.917-.497 4.984 4.984 0 0 1-.795-.652 4.737 4.737 0 0 1-.652-.806 4.921 4.921 0 0 1-.496-.917c-.012-.022-.012-.044-.023-.055a5.388 5.388 0 0 1-.298-.972 5.922 5.922 0 0 1-.111-1.082c0-.365.034-.73.111-1.082.066-.343.177-.685.321-1.027.143-.32.309-.63.496-.917.189-.287.41-.552.652-.806.243-.243.509-.464.795-.652.288-.199.597-.364.917-.497.023-.01.044-.01.056-.022.32-.133.651-.232.972-.298.353-.066.717-.11 1.082-.11h.011Zm.806 1.502a3.847 3.847 0 0 0-.806-.077 3.92 3.92 0 0 0-.806.077 4.354 4.354 0 0 0-.707.21c-.011.012-.022.012-.044.022-.254.111-.486.232-.696.376-.21.143-.409.298-.585.475a3.404 3.404 0 0 0-.475.585c-.144.21-.265.442-.376.696a3.909 3.909 0 0 0-.309 1.557c0 .276.022.541.077.806.056.255.122.486.21.707.011.011.011.022.022.044a4.187 4.187 0 0 0 .851 1.281c.176.178.375.343.585.475a4 4 0 0 0 1.447.608c.254.056.53.078.806.078.275 0 .541-.022.806-.078a4.49 4.49 0 0 0 .708-.21c.01-.01.022-.01.043-.022a4.165 4.165 0 0 0 1.282-.85c.176-.178.342-.376.475-.586a4.069 4.069 0 0 0 .607-1.447 3.79 3.79 0 0 0 .078-.806c0-.276-.022-.54-.078-.806a4.423 4.423 0 0 0-.21-.707c-.011-.011-.011-.022-.022-.044a4.164 4.164 0 0 0-.85-1.282 3.427 3.427 0 0 0-.586-.475 4.093 4.093 0 0 0-1.447-.607ZM77 90.816h13.282v23.631H77v-23.63Z" clip-rule="evenodd"/><defs><radialGradient id="a" cx="0" cy="0" r="1" gradientTransform="matrix(107.502 0 0 42.5488 110.547 205.722)" gradientUnits="userSpaceOnUse"><stop stop-color="#8EDBDC"/><stop offset="1" stop-color="#fff"/></radialGradient><radialGradient id="b" cx="0" cy="0" r="1" gradientTransform="rotate(-21.812 505.045 -208.419) scale(57.9042 39.9502)" gradientUnits="userSpaceOnUse"><stop stop-color="#8EDBDC"/><stop offset=".44" stop-color="#90DCDD"/><stop offset=".6" stop-color="#97DEDF"/><stop offset=".71" stop-color="#A2E2E2"/><stop offset=".8" stop-color="#B3E7E8"/><stop offset=".88" stop-color="#C9EEEE"/><stop offset=".95" stop-color="#E4F6F7"/><stop offset="1" stop-color="#fff"/></radialGradient><radialGradient id="c" cx="0" cy="0" r="1" gradientTransform="rotate(-21.812 505.045 -208.419) scale(57.9042 39.9502)" gradientUnits="userSpaceOnUse"><stop stop-color="#80E3C8"/><stop offset=".43" stop-color="#82E3C9"/><stop offset=".58" stop-color="#89E5CC"/><stop offset=".69" stop-color="#94E8D1"/><stop offset=".78" stop-color="#A5EBD8"/><stop offset=".86" stop-color="#BBF0E2"/><stop offset=".93" stop-color="#D7F6ED"/><stop offset=".99" stop-color="#F6FDFB"/><stop offset="1" stop-color="#fff"/></radialGradient><radialGradient id="d" cx="0" cy="0" r="1" gradientTransform="rotate(-21.812 505.045 -208.419) scale(57.9042 39.9502)" gradientUnits="userSpaceOnUse"><stop stop-color="#80E3C8"/><stop offset=".43" stop-color="#82E3C9"/><stop offset=".58" stop-color="#89E5CC"/><stop offset=".69" stop-color="#94E8D1"/><stop offset=".78" stop-color="#A5EBD8"/><stop offset=".86" stop-color="#BBF0E2"/><stop offset=".93" stop-color="#D7F6ED"/><stop offset=".99" stop-color="#F6FDFB"/><stop offset="1" stop-color="#fff"/></radialGradient><radialGradient id="e" cx="0" cy="0" r="1" gradientTransform="matrix(67.5713 0 0 25.3728 110.536 149.514)" gradientUnits="userSpaceOnUse"><stop stop-color="#8EDBDC"/><stop offset="1" stop-color="#fff"/></radialGradient><radialGradient id="f" cx="0" cy="0" r="1" gradientTransform="matrix(35.0368 0 0 13.1562 110.536 122.373)" gradientUnits="userSpaceOnUse"><stop stop-color="#8EDBDC"/><stop offset="1" stop-color="#fff"/></radialGradient></defs></svg>