<svg xmlns="http://www.w3.org/2000/svg" width="222" height="262" fill="none"><path fill="url(#a)" d="M180.562 182.221c47.381 15.507 54.687 43.599 16.318 62.745s-107.887 22.1-155.272 6.593c-47.384-15.506-54.687-43.594-16.318-62.745 38.37-19.15 107.887-22.096 155.272-6.593Z" style="mix-blend-mode:multiply"/><path fill="#001C63" d="M108.485 218.637c-22.787 0-44.286-3.091-62.15-8.942-25.13-8.224-39.555-20.926-40.618-35.765-.523-7.307 2.098-21.308 25.51-32.993 19.177-9.568 47.385-15.054 77.389-15.054 22.79 0 44.289 3.095 62.174 8.946 25.129 8.22 39.555 20.922 40.618 35.761.519 7.303-2.098 21.308-25.514 32.993-19.205 9.569-47.414 15.054-77.409 15.054Z" opacity=".2" style="mix-blend-mode:multiply"/><path fill="#001C63" d="M108.485 234.425c-22.787 0-44.286-3.096-62.15-8.947-25.13-8.224-39.555-20.922-40.618-35.76-.523-7.308 2.098-21.308 25.51-32.998 19.177-9.543 47.385-15.054 77.389-15.054 22.79 0 44.289 3.096 62.174 8.946 25.129 8.225 39.555 20.922 40.618 35.761.519 7.307-2.098 21.308-25.514 32.993-19.205 9.569-47.414 15.059-77.409 15.059Z" opacity=".2" style="mix-blend-mode:multiply"/><path fill="#001C63" d="M168.345 142.409c40.798 13.349 47.091 37.537 14.053 54.023-33.037 16.486-92.889 19.025-133.703 5.676-40.815-13.349-47.087-37.536-14.05-54.022 33.038-16.486 92.906-19.026 133.7-5.677Z" style="mix-blend-mode:multiply"/><path fill="url(#b)" d="M156.172 148.484c32.489 10.635 37.502 29.897 11.191 43.027-26.311 13.129-73.983 15.154-106.476 4.522-32.494-10.631-37.503-29.876-11.191-43.026 26.311-13.15 73.982-15.154 106.476-4.523Z"/><path fill="url(#c)" d="M156.172 148.484c32.489 10.635 37.502 29.897 11.191 43.027-26.311 13.129-73.983 15.154-106.476 4.522-32.494-10.631-37.503-29.876-11.191-43.026 26.311-13.15 73.982-15.154 106.476-4.523Z"/><path fill="url(#d)" d="M156.172 148.484c32.489 10.635 37.502 29.897 11.191 43.027-26.311 13.129-73.983 15.154-106.476 4.522-32.494-10.631-37.503-29.876-11.191-43.026 26.311-13.15 73.982-15.154 106.476-4.523Z"/><path fill="#E6E6ED" d="M176.305 144.871h-13.419a71.331 71.331 0 0 0-11.706-4.917c-29.088-9.519-71.767-7.706-95.322 4.05-.572.286-1.116.576-1.656.867H40.885v14.743c-1.227 8.511 7.34 17.134 24.99 22.91 29.092 9.519 71.771 7.705 95.326-4.05 10.173-5.075 15.104-11.175 15.096-17.237l.008-16.366Z"/><path fill="#FAFAFF" d="M151.18 123.587c29.091 9.519 33.577 26.765 10.021 38.52-23.555 11.756-66.238 13.565-95.326 4.05-29.087-9.515-33.573-26.768-10.017-38.52 23.555-11.751 66.234-13.569 95.322-4.05Z"/><path fill="url(#e)" d="M108.456 172.369c37.474 0 67.853-12.312 67.853-27.499s-30.379-27.499-67.853-27.499c-37.474 0-67.853 12.312-67.853 27.499s30.379 27.499 67.853 27.499Z" style="mix-blend-mode:multiply"/><path fill="#E6E6ED" d="M176.305 117.765h-13.419a71.122 71.122 0 0 0-11.706-4.917c-29.088-9.519-71.767-7.706-95.322 4.05-.572.286-1.116.577-1.656.867H40.885v14.744c-1.227 8.51 7.34 17.133 24.99 22.909 29.092 9.519 71.771 7.706 95.326-4.05 10.173-5.075 15.104-11.174 15.096-17.237l.008-16.366Z"/><path fill="#FAFAFF" d="M151.18 96.465c29.091 9.519 33.577 26.764 10.021 38.52-23.555 11.756-66.238 13.565-95.326 4.046-29.087-9.519-33.573-26.765-10.017-38.516 23.555-11.752 66.234-13.552 95.322-4.05Z"/><path fill="url(#f)" d="M108.456 132.01c19.409 0 35.143-6.378 35.143-14.245 0-7.868-15.734-14.245-35.143-14.245s-35.143 6.377-35.143 14.245c0 7.867 15.734 14.245 35.143 14.245Z" opacity=".25" style="mix-blend-mode:multiply"/><path fill="#001C63" d="M106.669 23.474c0 5.049-1.154 8.862-3.463 11.44-2.309 2.579-5.422 3.868-9.339 3.868-3.944 0-7.072-1.29-9.383-3.867-2.312-2.579-3.473-6.392-3.484-11.44v-7.843c0-5.052 1.146-8.865 3.439-11.44C86.73 1.615 89.852.327 93.802.327c3.93 0 7.056 1.292 9.376 3.876 2.319 2.584 3.478 6.393 3.475 11.428l.016 7.842Zm-8.525-8.444c0-2.858-.37-4.913-1.112-6.166a3.573 3.573 0 0 0-1.347-1.396 3.504 3.504 0 0 0-1.867-.476 3.435 3.435 0 0 0-1.866.468 3.504 3.504 0 0 0-1.335 1.404c-.714 1.253-1.073 3.308-1.076 6.166v8.984c0 2.913.363 4.987 1.088 6.224.316.585.787 1.07 1.358 1.398a3.5 3.5 0 0 0 1.88.465 3.452 3.452 0 0 0 1.856-.47 3.52 3.52 0 0 0 1.334-1.393c.725-1.242 1.087-3.317 1.087-6.224V15.03ZM126.256.316c1.3-.015 2.597.11 3.872.369a24.32 24.32 0 0 1 3.745 1.195l-1.419 6.315a34.406 34.406 0 0 0-3.099-.804 15.203 15.203 0 0 0-3.05-.27 6.017 6.017 0 0 0-2.681.517 6.102 6.102 0 0 0-2.189 1.653c-1.221 1.444-1.807 3.553-1.758 6.328l.078.129a7.383 7.383 0 0 1 2.96-2.005 11.54 11.54 0 0 1 4.199-.717c3.287 0 5.847 1.202 7.679 3.605 1.832 2.404 2.746 5.482 2.743 9.233 0 3.696-1.21 6.774-3.631 9.233-2.42 2.46-5.51 3.688-9.269 3.685-4.034 0-7.29-1.345-9.768-4.034-2.478-2.688-3.718-6.37-3.721-11.042v-7.523c0-4.93 1.43-8.802 4.289-11.618 2.86-2.817 6.533-4.233 11.02-4.25Zm-1.697 19.386a8.571 8.571 0 0 0-3.046.486 4.779 4.779 0 0 0-2.012 1.352v2.2c0 2.697.435 4.772 1.304 6.224a4.088 4.088 0 0 0 1.517 1.597 4.01 4.01 0 0 0 2.114.565c1.281 0 2.327-.614 3.136-1.842a7.757 7.757 0 0 0 1.227-4.374c0-1.892-.393-3.397-1.178-4.515a3.605 3.605 0 0 0-1.315-1.25 3.548 3.548 0 0 0-1.747-.443ZM111.5 77.783c-2.922 0-5.156 2.235-5.156 5.156v1.72h10.312v-1.72c0-2.921-2.234-5.156-5.156-5.156Z"/><path fill="#001C63" d="M134.875 71.252c-.515-.344-1.031-.516-1.547-.172-7.39 2.406-14.953.516-20.625-4.812-.687-.688-1.718-.688-2.406 0-5.672 5.328-13.234 7.218-20.625 4.812-.516-.344-1.031-.172-1.547.172-.344.344-.687.86-.687 1.375 0 26.984 11.86 35.922 23.375 41.078.172.172.515.172.687.172.172 0 .516 0 .688-.172 11.515-5.156 23.375-14.094 23.375-41.078 0-.516-.344-1.031-.688-1.375ZM121.813 96.69c0 2.921-2.235 5.156-5.157 5.156h-10.312c-2.922 0-5.156-2.235-5.156-5.157v-6.874c0-1.547.687-2.922 1.718-3.782V82.94c0-4.812 3.782-8.593 8.594-8.593 4.813 0 8.594 3.781 8.594 8.593v3.094c1.031.86 1.719 2.235 1.719 3.781v6.876Z"/><path fill="#001C63" d="M111.5 89.814c-1.031 0-1.719.688-1.719 1.72v3.437c0 1.031.688 1.718 1.719 1.718 1.031 0 1.719-.687 1.719-1.718v-3.438c0-1.031-.688-1.719-1.719-1.719Z"/><defs><radialGradient id="a" cx="0" cy="0" r="1" gradientTransform="matrix(107.502 0 0 42.5488 111.085 203.828)" gradientUnits="userSpaceOnUse"><stop stop-color="#1628B1"/><stop offset="1" stop-color="#fff"/></radialGradient><radialGradient id="b" cx="0" cy="0" r="1" gradientTransform="matrix(53.75844 -21.51545 14.84431 37.08996 115.532 171.548)" gradientUnits="userSpaceOnUse"><stop stop-color="#80E3C8"/><stop offset=".43" stop-color="#82E3C9"/><stop offset=".58" stop-color="#89E5CC"/><stop offset=".69" stop-color="#94E8D1"/><stop offset=".78" stop-color="#A5EBD8"/><stop offset=".86" stop-color="#BBF0E2"/><stop offset=".93" stop-color="#D7F6ED"/><stop offset=".99" stop-color="#F6FDFB"/><stop offset="1" stop-color="#fff"/></radialGradient><radialGradient id="c" cx="0" cy="0" r="1" gradientTransform="matrix(53.75844 -21.51545 14.84431 37.08996 115.532 171.548)" gradientUnits="userSpaceOnUse"><stop stop-color="#80E3C8"/><stop offset=".43" stop-color="#82E3C9"/><stop offset=".58" stop-color="#89E5CC"/><stop offset=".69" stop-color="#94E8D1"/><stop offset=".78" stop-color="#A5EBD8"/><stop offset=".86" stop-color="#BBF0E2"/><stop offset=".93" stop-color="#D7F6ED"/><stop offset=".99" stop-color="#F6FDFB"/><stop offset="1" stop-color="#fff"/></radialGradient><radialGradient id="d" cx="0" cy="0" r="1" gradientTransform="matrix(53.75844 -21.51545 14.84431 37.08996 115.532 171.548)" gradientUnits="userSpaceOnUse"><stop stop-color="#1628B1"/><stop offset=".38" stop-color="#182AB2"/><stop offset=".52" stop-color="#1F30B4"/><stop offset=".61" stop-color="#2A3BB8"/><stop offset=".69" stop-color="#3B4BBE"/><stop offset=".76" stop-color="#515FC5"/><stop offset=".82" stop-color="#6D78CE"/><stop offset=".87" stop-color="#8D96D9"/><stop offset=".92" stop-color="#B3B9E5"/><stop offset=".97" stop-color="#DCDFF3"/><stop offset="1" stop-color="#fff"/></radialGradient><radialGradient id="e" cx="0" cy="0" r="1" gradientTransform="matrix(67.6449 0 0 25.4005 108.456 148.324)" gradientUnits="userSpaceOnUse"><stop stop-color="#1628B1"/><stop offset="1" stop-color="#fff"/></radialGradient><radialGradient id="f" cx="0" cy="0" r="1" gradientTransform="matrix(35.0368 0 0 13.1562 108.456 121.182)" gradientUnits="userSpaceOnUse"><stop stop-color="#1628B1"/><stop offset="1" stop-color="#fff"/></radialGradient></defs></svg>