<svg xmlns="http://www.w3.org/2000/svg" width="222" height="263" fill="none"><path fill="url(#a)" d="M180.708 183.22c47.38 15.507 54.687 43.599 16.318 62.745s-107.887 22.1-155.272 6.593c-47.385-15.506-54.687-43.595-16.318-62.74 38.37-19.146 107.887-22.101 155.272-6.598Z" style="mix-blend-mode:multiply"/><path fill="#001C63" d="M108.619 219.637c-22.787 0-44.286-3.091-62.17-8.942-25.13-8.224-39.555-20.926-40.618-35.761-.523-7.307 2.098-21.307 25.51-32.997 19.176-9.568 47.385-15.054 77.388-15.054 22.791 0 44.29 3.095 62.175 8.946 25.129 8.22 39.555 20.922 40.618 35.761.523 7.307-2.098 21.308-25.514 32.993-19.173 9.569-47.381 15.054-77.389 15.054Z" opacity=".2" style="mix-blend-mode:multiply"/><path fill="#001C63" d="M168.494 143.41c40.794 13.349 47.087 37.537 14.05 54.023-33.038 16.486-92.89 19.025-133.704 5.676-40.814-13.349-47.086-37.536-14.049-54.018 33.038-16.482 92.906-19.03 133.703-5.681Z" style="mix-blend-mode:multiply"/><path fill="url(#b)" d="M156.318 149.484c32.49 10.635 37.503 29.897 11.191 43.026-26.311 13.129-73.994 15.154-106.476 4.544-32.481-10.611-37.502-29.877-11.19-43.027 26.31-13.15 73.982-15.175 106.475-4.543Z"/><path fill="url(#c)" d="M156.318 149.484c32.49 10.635 37.503 29.897 11.191 43.026-26.311 13.129-73.994 15.154-106.476 4.544-32.481-10.611-37.502-29.877-11.19-43.027 26.31-13.15 73.982-15.175 106.475-4.543Z"/><path fill="url(#d)" d="M156.318 149.484c32.49 10.635 37.503 29.897 11.191 43.026-26.311 13.129-73.994 15.154-106.476 4.544-32.481-10.611-37.502-29.877-11.19-43.027 26.31-13.15 73.982-15.175 106.475-4.543Z"/><path fill="#001C63" d="M108.619 235.427c-22.787 0-44.286-3.096-62.17-8.947-25.13-8.224-39.555-20.922-40.618-35.76-.523-7.308 2.098-21.308 25.51-32.998 19.176-9.543 47.385-15.054 77.388-15.054 22.791 0 44.29 3.095 62.175 8.946 25.129 8.225 39.555 20.922 40.618 35.761.523 7.307-2.098 21.308-25.514 32.993-19.173 9.569-47.381 15.059-77.389 15.059Z" opacity=".2" style="mix-blend-mode:multiply"/><path fill="#E5E7EA" d="M176.452 145.869h-13.427a71.474 71.474 0 0 0-11.703-4.917c-29.091-9.519-71.77-7.706-95.326 4.05-.572.286-1.116.576-1.656.867H41.023v14.743c-1.226 8.511 7.36 17.134 24.991 22.91 29.092 9.519 71.77 7.705 95.326-4.05 10.173-5.075 15.104-11.175 15.096-17.237l.016-16.366Z"/><path fill="#FDFEFF" d="M151.33 124.586c29.088 9.52 33.573 26.765 10.018 38.521-23.556 11.755-66.239 13.569-95.326 4.05-29.088-9.519-33.573-26.765-10.018-38.521 23.556-11.755 66.235-13.569 95.326-4.05Z"/><path fill="url(#e)" d="M108.602 173.369c37.475 0 67.854-12.312 67.854-27.499s-30.379-27.499-67.854-27.499c-37.474 0-67.853 12.312-67.853 27.499s30.379 27.499 67.853 27.499Z" style="mix-blend-mode:multiply"/><path fill="#E5E7EA" d="M176.452 118.765h-13.427a71.561 71.561 0 0 0-11.703-4.917c-29.091-9.519-71.77-7.705-95.326 4.05-.572.286-1.116.577-1.656.867H41.023v14.744c-1.226 8.51 7.36 17.133 24.991 22.909 29.092 9.519 71.77 7.706 95.326-4.05 10.173-5.075 15.104-11.174 15.096-17.237l.016-16.366Z"/><path fill="#FDFEFF" d="M151.33 97.465c29.088 9.519 33.573 26.764 10.018 38.52-23.556 11.756-66.239 13.565-95.326 4.046-29.088-9.519-33.573-26.765-10.018-38.516 23.556-11.752 66.235-13.552 95.326-4.05Z"/><path fill="url(#f)" d="M108.602 133.01c19.409 0 35.144-6.378 35.144-14.245 0-7.868-15.735-14.245-35.144-14.245s-35.143 6.377-35.143 14.245c0 7.867 15.734 14.245 35.143 14.245Z" opacity=".25" style="mix-blend-mode:multiply"/><path fill="#001C63" d="M106.5 23.456c0 5.048-1.156 8.862-3.467 11.44-2.312 2.578-5.425 3.866-9.34 3.863-3.943 0-7.078-1.288-9.403-3.863-2.326-2.575-3.481-6.389-3.468-11.44v-7.86c0-5.05 1.147-8.864 3.44-11.44C86.553 1.581 89.674.293 93.623.293c3.928 0 7.054 1.292 9.376 3.876 2.322 2.584 3.482 6.393 3.48 11.428l.02 7.859Zm-8.53-8.449c0-2.857-.37-4.911-1.111-6.162a3.578 3.578 0 0 0-1.347-1.397 3.508 3.508 0 0 0-1.867-.478c-.653-.024-1.3.14-1.866.471a3.513 3.513 0 0 0-1.336 1.404c-.714 1.25-1.072 3.305-1.075 6.162v8.988c0 2.908.363 4.982 1.088 6.224.315.586.785 1.07 1.357 1.4.572.33 1.224.49 1.88.464.65.022 1.294-.14 1.858-.47a3.514 3.514 0 0 0 1.332-1.393c.728-1.243 1.09-3.317 1.088-6.225v-8.988ZM133.47 23.659h3.721v6.676h-3.721v7.884h-8.55v-7.884h-14.274l-.502-5.299L124.92.911V.832h8.55v22.827Zm-15.689 0h7.139V12.106l-.155-.054-.658 1.059-6.326 10.548ZM116.468 106.398h-.778c-.288 0-.57-.079-.816-.227l-1.45-.876a10.48 10.48 0 0 1-4.722-6.317h-6.404a10.488 10.488 0 0 1-4.721 6.317l-1.45.876a1.585 1.585 0 0 1-.816.227h-.778c-.871 0-1.578.706-1.578 1.577h25.09c0-.435-.176-.83-.462-1.115a1.57 1.57 0 0 0-1.115-.462ZM82.886 95.404a1.95 1.95 0 0 0 1.95 1.95h41.328a1.95 1.95 0 0 0 1.95-1.95V92.88H82.886v2.525ZM116.208 83.102h-.867v-7.407a.944.944 0 0 0-1.885 0v7.407h-.867c-.012 0-.025 0-.037.022-.012.02-.006.032 0 .042l1.81 3.135c.006.01.012.021.037.021.024 0 .031-.011.037-.021l1.809-3.135c.006-.01.013-.021 0-.042-.012-.022-.025-.022-.037-.022ZM121.86 74.773c-.005-.01-.012-.021-.036-.021-.025 0-.031.011-.037.021l-1.81 3.135c-.006.01-.012.021 0 .042.012.022.026.022.037.022h.867v7.407a.944.944 0 0 0 1.885 0v-7.407h.867c.012 0 .025 0 .037-.022.012-.021.006-.032 0-.042l-1.81-3.135Z"/><path fill="#001C63" d="M126.165 65.652H84.836a1.95 1.95 0 0 0-1.95 1.95v23.65h45.228v-23.65a1.949 1.949 0 0 0-1.949-1.95Zm-4.132 3.307h1.82c.447 0 .812.365.812.812a.814.814 0 0 1-.812.813h-1.82a.815.815 0 0 1-.813-.813c0-.447.366-.812.813-.812Zm-5.428 0h1.82c.447 0 .813.365.813.812a.815.815 0 0 1-.813.813h-1.82a.815.815 0 0 1-.812-.813c0-.447.366-.812.812-.812Zm-30.096 5.89h6.501a.813.813 0 0 1 0 1.625h-6.5a.813.813 0 0 1 0-1.625Zm0 3.25h2.211a.812.812 0 1 1 0 1.625h-2.21a.813.813 0 0 1 0-1.625Zm0 3.25h2.211a.812.812 0 1 1 0 1.625h-2.21a.813.813 0 0 1 0-1.625Zm6.501 4.875h-6.5a.813.813 0 0 1 0-1.625h6.5a.813.813 0 0 1 0 1.625Zm1.322-3.25h-2.21a.813.813 0 0 1 0-1.625h2.21a.812.812 0 1 1 0 1.625Zm12.935 3.25H96.693a.812.812 0 1 1 0-1.625h10.574a.813.813 0 1 1 0 1.625Zm0-3.25h-9.208a.813.813 0 0 1 0-1.625h9.208a.813.813 0 1 1 0 1.625Zm0-3.25H92.121a.813.813 0 0 1 0-1.625h15.146a.813.813 0 1 1 0 1.625Zm0-3.25H96.693a.812.812 0 1 1 0-1.625h10.574a.813.813 0 1 1 0 1.625Zm3.098-6.703c0-.447.366-.812.813-.812h1.82c.447 0 .812.365.812.812a.814.814 0 0 1-.812.813h-1.82a.815.815 0 0 1-.813-.813Zm7.287 14.207-1.809 3.135a1.652 1.652 0 0 1-1.444.834 1.652 1.652 0 0 1-1.445-.834l-1.809-3.135a1.648 1.648 0 0 1 0-1.667c.166-.288.404-.512.686-.655v-5.962a2.57 2.57 0 0 1 2.568-2.567 2.57 2.57 0 0 1 2.567 2.567v5.962c.282.143.52.367.686.655a1.648 1.648 0 0 1 0 1.667Zm7.426-5.216a1.664 1.664 0 0 1-.687.655v5.962a2.57 2.57 0 0 1-2.567 2.567 2.57 2.57 0 0 1-2.568-2.567v-5.962a1.662 1.662 0 0 1-.686-.655 1.652 1.652 0 0 1 0-1.667l1.81-3.135a1.65 1.65 0 0 1 1.444-.833 1.65 1.65 0 0 1 1.444.833l1.81 3.135a1.652 1.652 0 0 1 0 1.667Z"/><defs><radialGradient id="a" cx="0" cy="0" r="1" gradientTransform="matrix(107.502 0 0 42.5488 111.231 204.827)" gradientUnits="userSpaceOnUse"><stop stop-color="#5A9BFB"/><stop offset="1" stop-color="#fff"/></radialGradient><radialGradient id="b" cx="0" cy="0" r="1" gradientTransform="rotate(-21.812 504.6 -208.781) scale(57.9042 39.9502)" gradientUnits="userSpaceOnUse"><stop stop-color="#7FD4F9"/><stop offset=".43" stop-color="#81D5F9"/><stop offset=".58" stop-color="#88D7F9"/><stop offset=".69" stop-color="#93DBFA"/><stop offset=".78" stop-color="#A4E1FB"/><stop offset=".86" stop-color="#BAE8FC"/><stop offset=".92" stop-color="#D6F1FD"/><stop offset=".98" stop-color="#F5FCFF"/><stop offset="1" stop-color="#fff"/></radialGradient><radialGradient id="c" cx="0" cy="0" r="1" gradientTransform="rotate(-21.812 504.6 -208.781) scale(57.9042 39.9502)" gradientUnits="userSpaceOnUse"><stop stop-color="#80E3C8"/><stop offset=".43" stop-color="#82E3C9"/><stop offset=".58" stop-color="#89E5CC"/><stop offset=".69" stop-color="#94E8D1"/><stop offset=".78" stop-color="#A5EBD8"/><stop offset=".86" stop-color="#BBF0E2"/><stop offset=".93" stop-color="#D7F6ED"/><stop offset=".99" stop-color="#F6FDFB"/><stop offset="1" stop-color="#fff"/></radialGradient><radialGradient id="d" cx="0" cy="0" r="1" gradientTransform="rotate(-21.812 504.6 -208.781) scale(57.9042 39.9502)" gradientUnits="userSpaceOnUse"><stop stop-color="#5A9BFB"/><stop offset=".41" stop-color="#5C9CFB"/><stop offset=".55" stop-color="#63A0FB"/><stop offset=".66" stop-color="#6EA7FB"/><stop offset=".74" stop-color="#7FB2FC"/><stop offset=".81" stop-color="#95BFFC"/><stop offset=".88" stop-color="#B1CFFD"/><stop offset=".94" stop-color="#D1E3FE"/><stop offset=".99" stop-color="#F5F9FF"/><stop offset="1" stop-color="#fff"/></radialGradient><radialGradient id="e" cx="0" cy="0" r="1" gradientTransform="matrix(67.6449 0 0 25.4005 108.602 149.324)" gradientUnits="userSpaceOnUse"><stop stop-color="#5A9BFB"/><stop offset="1" stop-color="#fff"/></radialGradient><radialGradient id="f" cx="0" cy="0" r="1" gradientTransform="matrix(35.0369 0 0 13.1562 108.602 122.182)" gradientUnits="userSpaceOnUse"><stop stop-color="#5A9BFB"/><stop offset="1" stop-color="#fff"/></radialGradient></defs></svg>