<svg xmlns="http://www.w3.org/2000/svg" width="221" height="269" fill="none"><path fill="url(#a)" d="M179.956 189.243c47.385 15.502 54.691 43.595 16.318 62.741-38.373 19.146-107.887 22.1-155.268 6.597-47.38-15.502-54.691-43.599-16.322-62.745 38.37-19.146 107.891-22.1 155.272-6.593Z" style="mix-blend-mode:multiply"/><path fill="#029894" d="M110.426 225.659c-22.79 0-44.285-3.096-62.17-8.946-25.134-8.225-39.559-20.922-40.622-35.761-.52-7.307 2.098-21.308 25.514-32.993C52.32 138.39 80.53 132.9 110.537 132.9c22.786 0 44.285 3.096 62.149 8.947 25.13 8.224 39.555 20.926 40.618 35.765.524 7.303-2.093 21.307-25.51 32.993-19.156 9.564-47.36 15.054-77.368 15.054Z" opacity=".2" style="mix-blend-mode:multiply"/><path fill="#029894" d="M170.299 149.432c40.798 13.35 47.086 37.533 14.049 54.019-33.037 16.486-92.889 19.03-133.703 5.681-40.815-13.349-47.087-37.537-14.053-54.023 33.033-16.486 92.893-19.026 133.707-5.677Z" style="mix-blend-mode:multiply"/><path fill="url(#b)" d="M158.106 155.508c32.493 10.631 37.502 29.877 11.191 43.027-26.312 13.149-73.983 15.154-106.472 4.518-32.49-10.635-37.507-29.876-11.191-43.022 26.315-13.146 73.999-15.154 106.472-4.523Z"/><path fill="url(#c)" d="M158.106 155.508c32.493 10.631 37.502 29.877 11.191 43.027-26.312 13.149-73.983 15.154-106.472 4.518-32.49-10.635-37.507-29.876-11.191-43.022 26.315-13.146 73.999-15.154 106.472-4.523Z"/><path fill="url(#d)" d="M158.106 155.508c32.493 10.631 37.502 29.877 11.191 43.027-26.312 13.149-73.983 15.154-106.472 4.518-32.49-10.635-37.507-29.876-11.191-43.022 26.315-13.146 73.999-15.154 106.472-4.523Z"/><path fill="#029894" d="M110.426 241.444c-22.79 0-44.285-3.091-62.17-8.946-25.134-8.221-39.559-20.922-40.622-35.761-.52-7.303 2.098-21.308 25.514-32.993 19.172-9.569 47.381-15.055 77.389-15.055 22.786 0 44.285 3.092 62.149 8.947 25.13 8.22 39.555 20.922 40.618 35.761.524 7.307-2.093 21.307-25.51 32.992-19.156 9.569-47.36 15.055-77.368 15.055Z" opacity=".2" style="mix-blend-mode:multiply"/><path fill="#E6EBED" d="M178.26 151.893h-13.42a70.832 70.832 0 0 0-11.706-4.918c-29.088-9.519-71.766-7.705-95.326 4.046-.572.287-1.112.577-1.635.872H42.855v14.739c-1.226 8.515 7.36 17.133 24.991 22.909 29.088 9.519 71.766 7.706 95.322-4.045 10.173-5.079 15.104-11.179 15.096-17.238l-.004-16.365Z"/><path fill="#FAFDFF" d="M153.134 130.61c29.092 9.519 33.577 26.764 10.018 38.516-23.56 11.751-66.239 13.569-95.322 4.05-29.084-9.52-33.578-26.765-10.022-38.521 23.556-11.755 66.238-13.564 95.326-4.045Z"/><path fill="url(#e)" d="M110.406 179.392c37.475 0 67.854-12.311 67.854-27.499 0-15.187-30.379-27.498-67.854-27.498-37.474 0-67.853 12.311-67.853 27.498 0 15.188 30.379 27.499 67.853 27.499Z" style="mix-blend-mode:multiply"/><path fill="#E6EBED" d="M178.26 124.789h-13.42a70.832 70.832 0 0 0-11.706-4.918c-29.088-9.519-71.766-7.709-95.326 4.046-.572.286-1.112.577-1.635.872H42.855v14.735c-1.226 8.514 7.36 17.133 24.991 22.909 29.088 9.519 71.766 7.706 95.322-4.05 10.173-5.075 15.104-11.175 15.096-17.233l-.004-16.361Z"/><path fill="#FAFDFF" d="M153.134 103.501c29.092 9.519 33.577 26.764 10.018 38.52-23.56 11.756-66.239 13.569-95.322 4.05-29.084-9.519-33.578-26.765-10.022-38.52 23.556-11.756 66.238-13.565 95.326-4.05Z"/><path fill="url(#f)" d="M110.406 139.034c19.409 0 35.143-6.378 35.143-14.246 0-7.867-15.734-14.245-35.143-14.245-19.41 0-35.143 6.378-35.143 14.245 0 7.868 15.734 14.246 35.143 14.246Z" opacity=".25" style="mix-blend-mode:multiply"/><path fill="#029894" d="M108.304 23.397c0 5.049-1.155 8.862-3.467 11.44-2.311 2.579-5.423 3.866-9.335 3.864-3.95 0-7.084-1.288-9.404-3.864-2.32-2.575-3.475-6.389-3.467-11.44v-7.86c0-5.05 1.147-8.863 3.443-11.435C88.369 1.529 91.489.24 95.433.234c3.933 0 7.059 1.294 9.375 3.88 2.317 2.587 3.477 6.395 3.48 11.424l.016 7.86Zm-8.525-8.448c0-2.858-.372-4.912-1.116-6.162a3.57 3.57 0 0 0-1.346-1.4 3.5 3.5 0 0 0-1.868-.476 3.436 3.436 0 0 0-1.864.471 3.505 3.505 0 0 0-1.333 1.405c-.72 1.25-1.078 3.304-1.075 6.162v8.987c0 2.908.362 4.983 1.087 6.225.33.567.8 1.037 1.364 1.363a3.69 3.69 0 0 0 3.7 0 3.76 3.76 0 0 0 1.364-1.363c.722-1.245 1.085-3.32 1.087-6.225V14.95ZM120.526 15.87h4.023c1.535 0 2.715-.415 3.541-1.245.826-.83 1.235-1.993 1.227-3.49a4.217 4.217 0 0 0-1.113-2.98c-.744-.804-1.819-1.207-3.238-1.207a4.695 4.695 0 0 0-2.936.975 3.03 3.03 0 0 0-.939 1.1c-.22.44-.331.927-.324 1.419h-8.3l-.049-.153c-.101-2.98 1.053-5.394 3.463-7.242C118.29 1.2 121.218.274 124.663.271c3.994 0 7.19.93 9.589 2.789 2.398 1.859 3.596 4.487 3.594 7.884a7.804 7.804 0 0 1-1.558 4.685 10.44 10.44 0 0 1-4.162 3.349 9.942 9.942 0 0 1 4.632 3.352 8.765 8.765 0 0 1 1.668 5.395c0 3.427-1.29 6.12-3.872 8.079-2.581 1.959-5.878 2.938-9.891 2.938a15.276 15.276 0 0 1-9.073-2.76c-2.586-1.842-3.839-4.509-3.757-8l.053-.154h8.349a3.879 3.879 0 0 0 1.378 3.017 4.864 4.864 0 0 0 3.353 1.22 4.989 4.989 0 0 0 3.594-1.282 4.266 4.266 0 0 0 1.014-1.472c.231-.558.343-1.16.327-1.765 0-1.812-.469-3.134-1.406-3.967-.938-.832-2.257-1.247-3.958-1.245h-4.024l.013-6.464Z"/><path fill="#029894" fill-rule="evenodd" d="m103.18 68.363 15.504-6.468 13.37 13.773-6.24 15.455c-10.581 2.932-20.437 7.21-29.742 12.515l-1.89-2.346 18.455-18.297c.372.17.774.255 1.182.255h.004a2.884 2.884 0 1 0-2.882-2.882c0 .514.134.997.371 1.414L93.051 99.927l-2.534-2.314c5.573-9.122 9.834-18.848 12.663-29.25Zm19.922-10.048 12.949 13.266-1.182 1.15-1.182 1.15-12.948-13.27 1.181-1.15 1.182-1.146ZM92.5 106.368c6.07 5.586 9.641 3.151 14.694-.305 4.181-2.855 9.234-6.306 16.897-7.447a4.44 4.44 0 1 1 .304 3.29c-6.857 1.087-11.498 4.256-15.343 6.879-6.477 4.422-11.002 7.51-18.933-.108a4.474 4.474 0 0 1-1.674.327h-.005a4.44 4.44 0 0 1-4.44-4.44 4.44 4.44 0 0 1 4.44-4.44 4.44 4.44 0 0 1 4.44 4.44v.005c0 .622-.13 1.23-.38 1.799Z" clip-rule="evenodd"/><defs><radialGradient id="a" cx="0" cy="0" r="1" gradientTransform="matrix(107.502 0 0 42.5488 110.479 211.619)" gradientUnits="userSpaceOnUse"><stop stop-color="#7FD4F9"/><stop offset="1" stop-color="#fff"/></radialGradient><radialGradient id="b" cx="0" cy="0" r="1" gradientTransform="rotate(-21.812 522.735 -207.524) scale(57.9042 39.9502)" gradientUnits="userSpaceOnUse"><stop stop-color="#7FD4F9"/><stop offset=".43" stop-color="#81D5F9"/><stop offset=".58" stop-color="#88D7F9"/><stop offset=".69" stop-color="#93DBFA"/><stop offset=".78" stop-color="#A4E1FB"/><stop offset=".86" stop-color="#BAE8FC"/><stop offset=".92" stop-color="#D6F1FD"/><stop offset=".98" stop-color="#F5FCFF"/><stop offset="1" stop-color="#fff"/></radialGradient><radialGradient id="c" cx="0" cy="0" r="1" gradientTransform="rotate(-21.812 522.735 -207.524) scale(57.9042 39.9502)" gradientUnits="userSpaceOnUse"><stop stop-color="#80E3C8"/><stop offset=".43" stop-color="#82E3C9"/><stop offset=".58" stop-color="#89E5CC"/><stop offset=".69" stop-color="#94E8D1"/><stop offset=".78" stop-color="#A5EBD8"/><stop offset=".86" stop-color="#BBF0E2"/><stop offset=".93" stop-color="#D7F6ED"/><stop offset=".99" stop-color="#F6FDFB"/><stop offset="1" stop-color="#fff"/></radialGradient><radialGradient id="d" cx="0" cy="0" r="1" gradientTransform="rotate(-21.812 522.735 -207.524) scale(57.9042 39.9502)" gradientUnits="userSpaceOnUse"><stop stop-color="#7FD4F9"/><stop offset=".43" stop-color="#81D5F9"/><stop offset=".58" stop-color="#88D7F9"/><stop offset=".69" stop-color="#93DBFA"/><stop offset=".78" stop-color="#A4E1FB"/><stop offset=".86" stop-color="#BAE8FC"/><stop offset=".92" stop-color="#D6F1FD"/><stop offset=".98" stop-color="#F5FCFF"/><stop offset="1" stop-color="#fff"/></radialGradient><radialGradient id="e" cx="0" cy="0" r="1" gradientTransform="matrix(67.6449 0 0 25.4004 110.406 155.142)" gradientUnits="userSpaceOnUse"><stop stop-color="#7FD4F9"/><stop offset="1" stop-color="#fff"/></radialGradient><radialGradient id="f" cx="0" cy="0" r="1" gradientTransform="matrix(35.0368 0 0 13.1562 110.406 128)" gradientUnits="userSpaceOnUse"><stop stop-color="#7FD4F9"/><stop offset="1" stop-color="#fff"/></radialGradient></defs></svg>