<svg width="58" height="24" viewBox="0 0 58 24" fill="none" xmlns="http://www.w3.org/2000/svg">
<path d="M15.8462 4.67869L11.9857 0.81543L0.401367 12.3997L11.9857 23.984L15.8462 20.1208L8.12242 12.3997L15.8462 4.67869ZM42.1546 20.1208L46.0151 23.984L57.5994 12.3997L46.0151 0.81543L42.1546 4.67869L49.8756 12.3997L42.1546 20.1208Z" fill="#DDE3E3"/>
<path fill-rule="evenodd" clip-rule="evenodd" d="M37.1899 12.3996C37.1899 14.5719 36.327 16.6553 34.7909 18.1913C33.2549 19.7273 31.1715 20.5903 28.9992 20.5903C26.8269 20.5903 24.7436 19.7273 23.2076 18.1913C21.6715 16.6553 20.8086 14.5719 20.8086 12.3996C20.8086 10.2273 21.6715 8.14401 23.2076 6.60797C24.7436 5.07192 26.8269 4.20898 28.9992 4.20898C31.1715 4.20898 33.2549 5.07192 34.7909 6.60797C36.327 8.14401 37.1899 10.2273 37.1899 12.3996ZM31.7295 12.3996C31.7295 13.1237 31.4418 13.8182 30.9298 14.3302C30.4178 14.8422 29.7233 15.1298 28.9992 15.1298C28.2751 15.1298 27.5807 14.8422 27.0687 14.3302C26.5567 13.8182 26.269 13.1237 26.269 12.3996C26.269 11.6755 26.5567 10.9811 27.0687 10.4691C27.5807 9.95706 28.2751 9.66942 28.9992 9.66942C29.7233 9.66942 30.4178 9.95706 30.9298 10.4691C31.4418 10.9811 31.7295 11.6755 31.7295 12.3996Z" fill="#DDE3E3"/>
</svg>
