<svg width="50" height="50" viewBox="0 0 50 50" fill="none" xmlns="http://www.w3.org/2000/svg">
<path id="Vector" d="M46.6767 24.8332L49.4116 20.1064C49.7403 19.5378 49.8297 18.8618 49.6602 18.2272C49.4906 17.5926 49.076 17.0514 48.5074 16.7224L43.7758 13.9875V8.53741C43.7758 7.88038 43.5148 7.25027 43.0502 6.78568C42.5856 6.3211 41.9555 6.06009 41.2984 6.06009H35.8508L33.1184 1.33091C32.7883 0.763397 32.2481 0.348668 31.6146 0.176482C31.3004 0.0913014 30.9724 0.0693373 30.6497 0.111862C30.3269 0.154387 30.0158 0.260556 29.7344 0.424213L25.0027 3.15916L20.271 0.421735C19.702 0.0932381 19.0259 0.00421692 18.3912 0.174254C17.7566 0.344292 17.2155 0.75946 16.887 1.32843L14.1521 6.06009H8.70446C8.04743 6.06009 7.41732 6.3211 6.95273 6.78568C6.48815 7.25027 6.22715 7.88038 6.22715 8.53741V13.985L1.49548 16.72C1.21315 16.8824 0.965686 17.099 0.767313 17.3573C0.56894 17.6156 0.423565 17.9106 0.339542 18.2253C0.255519 18.54 0.234502 18.8681 0.277701 19.191C0.3209 19.5138 0.427461 19.8249 0.591264 20.1064L3.32622 24.8332L0.591264 29.5599C0.264231 30.1291 0.175502 30.8045 0.344421 31.4389C0.51334 32.0733 0.926207 32.6151 1.49301 32.9464L6.22467 35.6813V41.1289C6.22467 41.7859 6.48567 42.416 6.95026 42.8806C7.41484 43.3452 8.04496 43.6062 8.70198 43.6062H14.1521L16.887 48.3379C17.1063 48.7128 17.4195 49.0242 17.7956 49.2413C18.1718 49.4585 18.598 49.5741 19.0324 49.5765C19.4634 49.5765 19.892 49.4626 20.2735 49.2421L25.0002 46.5071L29.7319 49.2421C30.3007 49.5701 30.9764 49.6592 31.6108 49.4897C32.2452 49.3201 32.7865 48.9059 33.1159 48.3379L35.8484 43.6062H41.296C41.953 43.6062 42.5831 43.3452 43.0477 42.8806C43.5123 42.416 43.7733 41.7859 43.7733 41.1289V35.6813L48.5049 32.9464C48.7868 32.7835 49.0338 32.5667 49.2318 32.3083C49.4298 32.0499 49.5749 31.755 49.6589 31.4405C49.7429 31.126 49.764 30.798 49.7212 30.4753C49.6783 30.1526 49.5723 29.8416 49.4092 29.5599L46.6767 24.8332ZM18.8069 12.4218C19.7928 12.4222 20.7382 12.8141 21.435 13.5114C22.1319 14.2088 22.5232 15.1544 22.5229 16.1403C22.5226 17.1261 22.1306 18.0715 21.4333 18.7684C20.7359 19.4653 19.7903 19.8566 18.8045 19.8562C17.8186 19.8559 16.8732 19.464 16.1764 18.7666C15.4795 18.0693 15.0882 17.1237 15.0885 16.1378C15.0888 15.1519 15.4808 14.2066 16.1781 13.5097C16.8755 12.8128 17.8211 12.4215 18.8069 12.4218ZM19.5501 36.204L15.5864 33.2337L30.4503 13.4152L34.414 16.3855L19.5501 36.204ZM31.1935 37.1949C30.7053 37.1948 30.222 37.0985 29.7711 36.9115C29.3201 36.7245 28.9104 36.4506 28.5654 36.1053C28.2203 35.76 27.9467 35.3502 27.76 34.8991C27.5733 34.448 27.4774 33.9646 27.4775 33.4765C27.4777 32.9883 27.574 32.505 27.761 32.0541C27.9479 31.6031 28.2219 31.1935 28.5671 30.8484C28.9124 30.5033 29.3223 30.2297 29.7734 30.043C30.2244 29.8564 30.7078 29.7604 31.196 29.7605C32.1818 29.7609 33.1272 30.1528 33.8241 30.8501C34.5209 31.5475 34.9123 32.4931 34.9119 33.479C34.9116 34.4648 34.5197 35.4102 33.8223 36.1071C33.125 36.8039 32.1794 37.1953 31.1935 37.1949Z" fill="#029894"/>
</svg>
