<svg width="44" height="44" viewBox="0 0 44 44" fill="none" xmlns="http://www.w3.org/2000/svg">
<path d="M0.773438 41.0808H5.56904V26.692H0.773438V41.0808ZM23.4566 43.479L16.4311 41.9442L9.40552 40.2894C8.99889 40.2102 8.63354 39.9893 8.37446 39.6659C8.10649 39.3521 7.96163 38.9515 7.96684 38.5388V28.9463C7.97362 28.5357 8.11706 28.1391 8.37446 27.8191C8.64227 27.5059 9.00379 27.2873 9.40552 27.1956L20.867 25.7807L32.3525 24.3418L32.7121 25.6848L33.0718 27.0038C33.0782 27.4459 32.953 27.88 32.7121 28.2508C32.4918 28.6386 32.1567 28.9486 31.753 29.1381L26.9574 30.3372L22.1618 31.5362L26.0462 33.119L29.9547 34.6778L35.3977 33.143L40.6968 31.4883C41.1677 31.3692 41.6664 31.438 42.0875 31.6801C42.2996 31.7947 42.4857 31.9518 42.6343 32.1416C42.7828 32.3314 42.8905 32.5499 42.9507 32.7833L43.4063 34.6298L43.8859 36.4524C43.9946 36.9082 43.926 37.3883 43.6941 37.7954C43.4474 38.2061 43.0526 38.5065 42.5911 38.6347L33.8871 41.0329L25.183 43.431C24.8965 43.4676 24.6064 43.4676 24.3198 43.431C24.0367 43.4944 23.745 43.5106 23.4566 43.479ZM15.1602 0.3125L10.3646 5.10877L5.56904 9.90505L10.3646 14.7013L15.1602 19.4976L16.8387 17.8189L18.5172 16.1402L15.4 13.0226L12.2829 9.90505L15.4 6.78747L18.5172 3.66989L16.8387 1.9912L15.1602 0.3125ZM29.547 0.3125L27.8686 1.9912L26.1901 3.66989L29.3073 6.78747L32.4244 9.90505L29.3073 13.0226L26.1901 16.1402L27.8686 17.8189L29.547 19.4976L34.3426 14.7013L39.1382 9.90505L34.3426 5.10877L29.547 0.3125Z" fill="#029894"/>
</svg>
