<svg width="56" height="44" viewBox="0 0 56 44" fill="none" xmlns="http://www.w3.org/2000/svg">
<path fill-rule="evenodd" clip-rule="evenodd" d="M3.75972 0.3125H51.7685C53.8382 0.3125 55.5282 2.00257 55.5282 4.07222V39.7128C55.5282 41.7779 53.8382 43.4725 51.7685 43.4725H3.75972C1.69007 43.4725 0 41.7824 0 39.7128V4.07222C0 2.00257 1.69007 0.3125 3.75972 0.3125ZM5.69381 12.2514H49.4232V32.0126H5.69381V12.2514ZM19.9103 19.0569H21.3518L24.8765 15.1074C25.1883 14.7549 25.7306 14.7233 26.0831 15.0396C26.4356 15.3514 26.4627 15.8982 26.1509 16.2461L23.6429 19.0569H31.3295L28.8215 16.2461C28.5097 15.8937 28.5368 15.3514 28.8893 15.0396C29.2418 14.7278 29.7841 14.7549 30.0959 15.1074L33.6206 19.0569H34.9989H35.0169H36.3093C36.5986 19.0569 36.8381 19.2919 36.8381 19.5856V21.0723C36.8381 21.3615 36.6031 21.601 36.3093 21.601H35.1887L34.6148 28.8629C34.6012 29.0617 34.4476 29.2289 34.2487 29.2289H20.6604C20.4616 29.2289 20.3124 29.0617 20.2944 28.8629L19.716 21.601H18.5953C18.3061 21.601 18.0666 21.366 18.0666 21.0723V19.5856C18.0666 19.2964 18.3015 19.0569 18.5953 19.0569H19.8877H19.9103ZM29.9377 21.8857H31.6052V26.7029H29.9377V21.8857ZM26.6931 21.8857H28.3606V26.7029H26.6931V21.8857ZM23.4531 21.8857H25.1206V26.7029H23.4531V21.8857ZM30.2179 38.6056C29.4135 38.6056 28.7628 37.8962 28.7628 37.024C28.7628 36.1474 29.4135 35.4424 30.2179 35.4424H48.1353C48.9397 35.4424 49.5904 36.1519 49.5904 37.024C49.5904 37.8962 48.9397 38.6056 48.1353 38.6056H30.2179ZM6.76027 38.6056C5.96495 38.6056 5.31874 37.8962 5.31874 37.024C5.31874 36.1474 5.96495 35.4424 6.76027 35.4424H23.3717C24.1671 35.4424 24.8133 36.1519 24.8133 37.024C24.8133 37.8962 24.1671 38.6056 23.3717 38.6056H6.76027ZM53.3094 9.39549H2.3905V40.0788C2.3905 40.6572 2.85142 41.1182 3.42984 41.1182H52.252C52.8304 41.1182 53.2914 40.6527 53.2914 40.0788V9.39549H53.3094ZM48.1895 3.57514C49.2153 3.57514 50.0468 4.40662 50.0468 5.43241C50.0468 6.4582 49.2153 7.28968 48.1895 7.28968C47.1637 7.28968 46.3323 6.4582 46.3323 5.43241C46.3323 4.40662 47.1683 3.57514 48.1895 3.57514ZM35.6089 3.57514C36.6347 3.57514 37.4662 4.40662 37.4662 5.43241C37.4662 6.4582 36.6347 7.28968 35.6089 7.28968C34.5831 7.28968 33.7517 6.4582 33.7517 5.43241C33.7517 4.40662 34.5831 3.57514 35.6089 3.57514ZM41.8992 3.57514C42.925 3.57514 43.7565 4.40662 43.7565 5.43241C43.7565 6.4582 42.925 7.28968 41.8992 7.28968C40.8734 7.28968 40.042 6.4582 40.042 5.43241C40.042 4.40662 40.8734 3.57514 41.8992 3.57514Z" fill="#029894"/>
</svg>
