<svg width="50" height="44" viewBox="0 0 50 44" fill="none" xmlns="http://www.w3.org/2000/svg">
<path fill-rule="evenodd" clip-rule="evenodd" d="M3.35574 0.3125H46.2012C48.0489 0.3125 49.5569 1.8205 49.5569 3.66824V40.1168C49.5569 41.9597 48.0489 43.4725 46.2012 43.4725H3.35574C1.50897 43.4725 0 41.9635 0 40.1168V3.66824C0 1.8205 1.50897 0.3125 3.35574 0.3125ZM6.74051 11.517H42.8164C43.7291 11.517 44.4744 12.2662 44.4744 13.175V30.7929C44.4744 31.7018 43.7243 32.4509 42.8164 32.4509H6.74051C5.83165 32.4509 5.08152 31.7037 5.08152 30.7929V13.175C5.08152 12.2642 5.82778 11.517 6.74051 11.517ZM24.7775 14.1749C29.0905 14.1749 32.5866 17.671 32.5866 21.984C32.5866 26.297 29.0905 29.793 24.7775 29.793C20.4655 29.793 16.9694 26.297 16.9694 21.984C16.9694 17.671 20.4655 14.1749 24.7775 14.1749ZM24.339 17.6923V15.6742C23.646 16.2907 22.9849 16.9615 22.4119 17.6923H24.339ZM30.8076 25.3939C31.3254 24.4647 31.6293 23.4871 31.6874 22.4195H29.7767C29.7235 23.4736 29.4002 24.4696 28.8959 25.3929L30.8076 25.3939ZM30.2268 26.2757H28.351C27.6996 27.2126 26.8846 28.0469 26.0261 28.7951C27.6919 28.4902 29.1718 27.6007 30.2268 26.2757ZM23.5337 28.7932C22.6742 28.0489 21.8612 27.2097 21.2098 26.2757H19.3388C20.4064 27.6172 21.8728 28.4864 23.5337 28.7932ZM18.7484 25.3978H20.66C20.1586 24.4783 19.8315 23.4745 19.7792 22.4234H17.8695C17.9353 23.5065 18.2247 24.4541 18.7484 25.3978ZM17.8676 21.5455H19.7976C19.8905 20.4895 20.2525 19.4916 20.7684 18.5711H18.7484C18.2286 19.5042 17.9257 20.4847 17.8676 21.5455ZM19.3301 17.6923H21.325C21.9773 16.7631 22.7662 15.922 23.6024 15.1573C21.8999 15.4535 20.4083 16.343 19.3301 17.6923ZM25.9603 15.1631C26.7975 15.9258 27.5835 16.7631 28.231 17.6923H30.222C29.1524 16.3527 27.6522 15.4535 25.9603 15.1631ZM30.8066 18.5711H28.7875C29.3025 19.4887 29.6654 20.4924 29.7583 21.5455H31.6864C31.6148 20.4643 31.338 19.5119 30.8066 18.5711ZM25.2169 15.6742V17.6923H27.144C26.571 16.9615 25.9109 16.2907 25.2169 15.6742ZM25.2169 18.5711V21.5455H28.8785C28.7672 20.475 28.3394 19.4732 27.7664 18.5711H25.2169ZM25.2169 22.4234V25.3978H27.8816C28.4497 24.4899 28.833 23.4997 28.8979 22.4234H25.2169ZM25.2169 26.2757V28.3315C25.9554 27.7091 26.6552 27.0316 27.2573 26.2757H25.2169ZM24.339 28.3315V26.2757H22.2977C22.8959 27.0316 23.6005 27.713 24.339 28.3315ZM24.339 25.3978V22.4234H20.6581C20.7239 23.4997 21.1081 24.4879 21.6744 25.3978H24.339ZM24.339 21.5455V18.5711H21.7886C21.2156 19.4732 20.7887 20.475 20.6774 21.5455H24.339ZM47.5766 8.41873H2.13327V40.4439C2.13263 40.5659 2.15617 40.6867 2.20255 40.7995C2.24892 40.9123 2.31719 41.0148 2.40343 41.101C2.48966 41.1872 2.59213 41.2555 2.70492 41.3019C2.81771 41.3483 2.93858 41.3718 3.06053 41.3712H46.6329C47.1488 41.3712 47.5611 40.9559 47.5611 40.4429V8.41873H47.5766ZM43.0071 3.22397C43.9227 3.22397 44.6651 3.96635 44.6651 4.88199C44.6651 5.79764 43.9227 6.53905 43.0071 6.53905C42.0924 6.53905 41.35 5.79764 41.35 4.88199C41.35 3.96635 42.0963 3.22397 43.0071 3.22397ZM31.7793 3.22397C32.695 3.22397 33.4374 3.96635 33.4374 4.88199C33.4374 5.79764 32.695 6.53905 31.7793 6.53905C30.8637 6.53905 30.1223 5.79764 30.1223 4.88199C30.1223 3.96635 30.8637 3.22397 31.7793 3.22397ZM37.3932 3.22397C38.3088 3.22397 39.0512 3.96635 39.0512 4.88199C39.0512 5.79764 38.3088 6.53905 37.3932 6.53905C36.4785 6.53905 35.7361 5.79764 35.7361 4.88199C35.7361 3.96635 36.4785 3.22397 37.3932 3.22397ZM26.9688 38.1519C26.2506 38.1519 25.6699 37.5189 25.6699 36.7407C25.6699 35.9586 26.2506 35.3295 26.9688 35.3295H42.9587C43.6769 35.3295 44.2576 35.9625 44.2576 36.7407C44.2576 37.5189 43.6769 38.1519 42.9587 38.1519H26.9688ZM6.03297 38.1519C5.3235 38.1519 4.74662 37.5189 4.74662 36.7407C4.74662 35.9586 5.3235 35.3295 6.03297 35.3295H20.8584C21.5679 35.3295 22.1448 35.9625 22.1448 36.7407C22.1448 37.5189 21.5679 38.1519 20.8584 38.1519H6.03297Z" fill="#029894"/>
</svg>
