<svg width="59" height="44" viewBox="0 0 59 44" fill="none" xmlns="http://www.w3.org/2000/svg">
<path fill-rule="evenodd" clip-rule="evenodd" d="M53.1257 35.9066L50.0294 39.0029C49.2166 39.8157 47.8775 39.8157 47.0647 39.0029L44.5698 36.508C43.2824 37.194 41.9011 37.7202 40.4446 38.0585V41.2911C40.4446 42.4422 39.5002 43.3866 38.3491 43.3866H33.9701C32.819 43.3866 31.8746 42.4422 31.8746 41.2911V37.7625C30.4463 37.3303 29.0978 36.7148 27.8621 35.9348L25.574 38.223C24.7611 39.0358 23.4221 39.0358 22.6092 38.223L21.2091 36.8275L21.2467 36.7852L27.3876 29.7563C29.6334 32.3875 32.9787 34.0601 36.7093 34.0601C43.4751 34.0601 48.9629 28.5723 48.9629 21.8113C48.9629 15.0455 43.4751 9.55769 36.7093 9.55769C33.3217 9.55769 30.2536 10.9343 28.0359 13.1567L25.776 13.0721L20.058 7.97901C20.1284 7.88034 20.2036 7.79107 20.2882 7.7018L23.3845 4.60552C24.1973 3.79269 25.5364 3.79269 26.3492 4.60552L28.8441 7.1004C30.1315 6.40973 31.5128 5.8835 32.9693 5.54991V2.31737C32.9787 1.17095 33.9231 0.226562 35.0742 0.226562H39.4485C40.5996 0.226562 41.544 1.17095 41.544 2.32207V5.85061C42.9723 6.28287 44.3208 6.90307 45.5565 7.67831L47.8446 5.39016C48.6575 4.57733 49.9965 4.57733 50.8094 5.39016L53.9056 8.48644C54.7185 9.29928 54.7185 10.6383 53.9056 11.4512L51.4108 13.946C52.1014 15.2334 52.6277 16.6148 52.9612 18.0713H56.1938C57.3402 18.0713 58.2893 19.0157 58.2893 20.1668V24.5458C58.2893 25.6969 57.3449 26.6413 56.1938 26.6413H52.6699C52.2377 28.0696 51.6222 29.4181 50.8422 30.6538L53.1304 32.9419C53.9432 33.7547 53.9432 35.0891 53.1257 35.9066ZM36.7469 17.827C38.9458 17.827 40.7265 19.6077 40.7265 21.8066C40.7265 24.0054 38.9458 25.7862 36.7469 25.7862C34.548 25.7862 32.7673 24.0054 32.7673 21.8066C32.7673 19.6077 34.5527 17.827 36.7469 17.827ZM28.8112 21.5622L18 33.9427L17.6383 28.1354C10.2476 27.0782 4.58596 29.108 0.554688 34.934C0.601672 23.4698 8.05342 17.4746 16.9147 16.5537L16.5435 10.6289L28.8112 21.5622Z" fill="#029894"/>
</svg>
