<svg width="59" height="44" viewBox="0 0 59 44" fill="none" xmlns="http://www.w3.org/2000/svg">
<g clip-path="url(#clip0_96_25932)">
<path fill-rule="evenodd" clip-rule="evenodd" d="M3.68596 0.826172H50.4144C52.4265 0.826172 54.073 2.47261 54.073 4.48479V15.4845C53.3497 15.359 52.6244 15.2454 51.8974 15.1437V11.07H51.9131H2.35243V37.6613C2.35159 37.7945 2.37733 37.9264 2.42816 38.0495C2.47899 38.1726 2.55387 38.2843 2.64843 38.378C2.74219 38.4726 2.85388 38.5475 2.97695 38.5983C3.10002 38.6491 3.232 38.6749 3.36515 38.674H33.0084C33.2215 39.454 33.4885 40.2181 33.8195 40.9635H3.68596C1.67378 40.9635 0.0273438 39.317 0.0273438 37.3048V4.48479C0.0273438 2.47261 1.67378 0.826172 3.68596 0.826172ZM41.4052 24.2332C43.1103 24.8026 45.4835 25.1545 48.1199 25.1545C50.7564 25.1545 53.1294 24.8026 54.8347 24.2332C56.3314 23.7337 57.2571 23.1288 57.2571 22.5371C57.2571 21.9458 56.3314 21.3409 54.8347 20.8412C53.1294 20.272 50.7564 19.9198 48.1199 19.9198C45.4835 19.9198 43.1103 20.272 41.4052 20.8412C38.2296 21.9012 38.1424 23.1442 41.4052 24.2332ZM54.2065 26.9987C54.7706 26.9987 55.2281 27.4562 55.2281 28.0203C55.2281 28.5843 54.7706 29.0415 54.2065 29.0415C54.0724 29.0416 53.9396 29.0152 53.8157 28.9638C53.6917 28.9125 53.5792 28.8373 53.4843 28.7424C53.3895 28.6476 53.3142 28.535 53.2629 28.4111C53.2116 28.2872 53.1852 28.1544 53.1852 28.0203C53.1852 27.4562 53.6424 26.9987 54.2065 26.9987ZM54.2065 33.0122C54.7706 33.0122 55.2281 33.4697 55.2281 34.0337C55.2281 34.5978 54.7706 35.055 54.2065 35.055C54.0724 35.055 53.9396 35.0286 53.8157 34.9773C53.6917 34.9259 53.5792 34.8507 53.4843 34.7559C53.3895 34.661 53.3142 34.5485 53.2629 34.4245C53.2116 34.3006 53.1852 34.1678 53.1852 34.0337C53.1852 33.4697 53.6424 33.0122 54.2065 33.0122ZM54.2065 38.7861C54.4774 38.7861 54.7373 38.8938 54.9289 39.0854C55.1204 39.277 55.2281 39.5368 55.2281 39.8077C55.2281 40.3718 54.7706 40.829 54.2065 40.829C54.0724 40.829 53.9396 40.8026 53.8157 40.7513C53.6917 40.7 53.5792 40.6247 53.4843 40.5299C53.3895 40.4351 53.3142 40.3225 53.2629 40.1986C53.2116 40.0746 53.1852 39.9418 53.1852 39.8077C53.1852 39.2436 53.6424 38.7861 54.2065 38.7861ZM57.2606 36.2885C56.7274 36.6533 56.0486 36.9748 55.2456 37.2428C53.4091 37.856 50.8885 38.2352 48.1199 38.2352C45.3512 38.2352 42.8309 37.856 40.9941 37.2428C40.2015 36.9781 39.5263 36.6615 38.9963 36.3026V40.1931C39.1142 40.7449 40.0125 41.3009 41.4052 41.7658C43.1103 42.3348 45.4835 42.6869 48.1199 42.6869C50.7564 42.6869 53.1294 42.335 54.8347 41.7658C55.8683 41.4206 56.6295 41.0254 57.0017 40.6192C57.3088 40.2839 57.2606 40.0629 57.2606 39.6622V36.2885ZM37.6836 22.5371C37.6836 21.3245 38.9487 20.2959 40.9941 19.613C42.8309 19.0001 45.3516 18.6205 48.1199 18.6205C50.8885 18.6205 53.4091 19.0001 55.2459 19.613C57.1076 20.2345 58.3229 21.1427 58.5259 22.2154C58.5502 22.2835 58.5633 22.3569 58.5633 22.4336V40.3383C58.5633 41.5797 56.1919 42.6781 55.2456 42.9938C53.4091 43.6069 50.8885 43.9862 48.1199 43.9862C45.3512 43.9862 42.8309 43.6069 40.9941 42.9938C40.0256 42.6704 37.6972 41.6083 37.6972 40.3383V39.9223C37.6972 34.1274 37.6836 28.3313 37.6836 22.5371ZM38.9963 34.4421C39.1142 34.9936 40.0125 35.5497 41.4052 36.0145C43.1103 36.5839 45.4835 36.936 48.1199 36.936C50.7564 36.936 53.1294 36.5839 54.8347 36.0145C56.3314 35.515 57.2571 34.9101 57.2571 34.3187H57.2642V30.5375C56.7311 30.9023 56.0486 31.2235 55.2456 31.4916C53.4091 32.1049 50.8885 32.484 48.1199 32.484C45.3512 32.484 42.8309 32.1049 40.9941 31.4916C40.2015 31.2272 39.5263 30.9106 38.9963 30.5517V34.4421ZM38.9963 28.6909C39.1142 29.2426 40.0125 29.7987 41.4052 30.2636C43.1103 30.8326 45.4835 31.1849 48.1199 31.1849C50.7564 31.1849 53.1294 30.833 54.8347 30.2636C56.3314 29.7641 57.2571 29.1592 57.2571 28.5674H57.2642V24.5072C56.7311 24.872 56.0486 25.1935 55.2456 25.4612C53.4091 26.0745 50.8885 26.4536 48.1199 26.4536C45.3516 26.4536 42.8309 26.0745 40.9941 25.4612C40.2015 25.1968 39.5263 24.8802 38.9963 24.5214V28.6909ZM15.1614 27.1037C15.6574 27.5376 15.7073 28.292 15.2735 28.7879C14.8396 29.2838 14.0852 29.3339 13.5893 28.9L9.05149 24.9239C8.55565 24.49 8.50557 23.7356 8.93945 23.2396C8.97707 23.1966 9.01772 23.1564 9.06109 23.1192L13.5893 19.1517C14.0852 18.7178 14.8396 18.7679 15.2735 19.2639C15.7073 19.7598 15.6574 20.5142 15.1614 20.948L11.6487 24.0257L15.1614 27.1037ZM24.8433 28.9C24.3474 29.3339 23.593 29.2838 23.1591 28.7879C22.7252 28.292 22.7753 27.5376 23.2712 27.1037L26.7839 24.0257L23.2712 20.948C22.7753 20.5142 22.7252 19.7598 23.1591 19.2639C23.593 18.7679 24.3474 18.7178 24.8433 19.1517L29.3715 23.1192C29.4142 23.1558 29.4551 23.1961 29.4931 23.2396C29.927 23.7356 29.8769 24.49 29.3811 24.9239L24.8433 28.9ZM19.6623 17.5253C19.8198 16.8845 20.4671 16.4927 21.108 16.6502C21.7488 16.8076 22.1406 17.455 21.983 18.0958L19.0589 29.8641C18.9014 30.5051 18.2541 30.8967 17.6133 30.7393C16.9725 30.5818 16.5807 29.9344 16.7381 29.2936L19.6623 17.5253ZM46.9323 4.9389C47.9302 4.9389 48.7393 5.748 48.7393 6.74597C48.7393 7.74394 47.9302 8.55269 46.9323 8.55269C45.9343 8.55269 45.1252 7.74394 45.1252 6.74597C45.1252 5.748 45.9343 4.9389 46.9323 4.9389ZM34.6845 4.9389C35.6825 4.9389 36.4916 5.748 36.4916 6.74597C36.4916 7.74394 35.6825 8.55269 34.6845 8.55269C33.6867 8.55269 32.8776 7.74394 32.8776 6.74597C32.8776 5.748 33.6867 4.9389 34.6845 4.9389ZM40.8086 4.9389C41.8065 4.9389 42.6154 5.748 42.6154 6.74597C42.6154 7.74394 41.8065 8.55269 40.8086 8.55269C39.8107 8.55269 39.0016 7.74394 39.0016 6.74597C39.0016 5.748 39.8107 4.9389 40.8086 4.9389Z" fill="#029894"/>
</g>
<defs>
<clipPath id="clip0_96_25932">
<rect width="58.536" height="43.16" fill="white" transform="translate(0.0273438 0.826172)"/>
</clipPath>
</defs>
</svg>
