<svg width="44" height="44" viewBox="0 0 44 44" fill="none" xmlns="http://www.w3.org/2000/svg">
<g clip-path="url(#clip0_96_25983)">
<path d="M27.9749 38.0996H23.4188V34.1406H20.1249V38.0996H15.5689C14.6593 38.0996 13.9219 38.8371 13.9219 39.7466C13.9219 40.6562 14.6593 41.3936 15.5689 41.3936H27.9748C28.8844 41.3936 29.6218 40.6562 29.6218 39.7466C29.6218 38.8371 28.8845 38.0996 27.9749 38.0996Z" fill="#029894"/>
<path d="M24.8457 28.6797H18.697H0.191406V30.6471C0.191406 31.3632 0.773982 31.9459 1.49008 31.9459H42.0527C42.7688 31.9459 43.3514 31.3632 43.3514 30.6471V28.6797H24.8457Z" fill="#029894"/>
<path d="M42.0526 2.61719H1.49008C0.773982 2.61719 0.191406 3.19976 0.191406 3.91587V26.4826H3.22854C3.42267 16.4224 11.6656 8.29812 21.7713 8.29812C25.2603 8.29812 28.527 9.26712 31.3175 10.9492L32.4068 9.46108C32.765 8.97191 33.452 8.86553 33.9413 9.2237C34.4307 9.58196 34.537 10.269 34.1787 10.7583L33.1287 12.1926C37.4112 15.5195 40.2022 20.6786 40.3141 26.4826H43.3512V3.91587C43.3513 3.19976 42.7687 2.61719 42.0526 2.61719Z" fill="#029894"/>
<path d="M31.067 25.3029C30.6799 22.9628 29.4625 20.9533 27.7452 19.5488L24.4746 24.0167C25.0144 24.4768 25.4362 25.071 25.6868 25.7481H31.2469C31.1574 25.619 31.0944 25.4683 31.067 25.3029Z" fill="#029894"/>
<path d="M21.7716 17.4258C19.0732 17.4258 16.6213 18.5522 14.8941 20.3944C14.8861 20.4063 14.8792 20.4187 14.8706 20.4304C14.8137 20.5085 14.7482 20.5763 14.6767 20.6347C13.5564 21.9157 12.773 23.5125 12.4767 25.3034C12.4494 25.4688 12.3863 25.6194 12.2969 25.7487H17.857C18.4458 24.1575 19.9783 23.0201 21.7715 23.0201C21.9999 23.0201 22.2238 23.0393 22.4423 23.0748L25.8899 18.3649C24.642 17.7617 23.2436 17.4258 21.7716 17.4258Z" fill="#029894"/>
<path d="M38.0861 25.7484C37.768 20.9709 35.3886 16.7487 31.8319 13.9648L29.0332 17.788C29.1296 17.8654 29.2262 17.9426 29.3203 18.0231C31.3992 19.8043 32.7885 22.2624 33.2323 24.9447C33.2807 25.2375 33.2086 25.5224 33.0521 25.7484H38.0861Z" fill="#029894"/>
<path d="M10.3108 24.9435C10.6081 23.1462 11.3318 21.4505 12.4014 19.9908L8.58343 17.2144C8.57939 17.2115 8.57585 17.208 8.57188 17.2051C6.79406 19.6328 5.6687 22.5669 5.45703 25.7473H10.4909C10.3344 25.5211 10.2624 25.2364 10.3108 24.9435Z" fill="#029894"/>
<path d="M9.98828 15.5206L13.8666 18.3408C13.9831 18.2324 14.1015 18.1257 14.2228 18.0219C16.0458 16.4602 18.3037 15.508 20.6741 15.2819V10.5312C16.4877 10.8102 12.7278 12.6711 9.98828 15.5206Z" fill="#029894"/>
<path d="M22.8691 10.5312V15.2819C24.3862 15.4264 25.8572 15.8677 27.1974 16.577L30.0146 12.7284C27.8903 11.4832 25.4614 10.704 22.8691 10.5312Z" fill="#029894"/>
</g>
<defs>
<clipPath id="clip0_96_25983">
<rect width="43.16" height="43.16" fill="white" transform="translate(0.191406 0.425781)"/>
</clipPath>
</defs>
</svg>
