<svg width="45" height="44" viewBox="0 0 45 44" fill="none" xmlns="http://www.w3.org/2000/svg">
<g clip-path="url(#clip0_96_25954)">
<path fill-rule="evenodd" clip-rule="evenodd" d="M23.7715 24.6791L41.1072 24.9657C41.1072 31.1227 38.0448 36.8785 32.9372 40.317L23.7715 24.6791ZM22.0416 21.6884L21.8446 1.52674L21.8338 0.226562L23.1268 0.316106H23.1304H23.134C24.7673 0.430722 26.3504 0.717261 27.8655 1.15065C29.3806 1.58404 30.8347 2.17503 32.2101 2.89496C39.2554 6.59848 44.1266 13.8408 44.5098 22.2435L44.5671 23.5365L43.2741 23.4971L23.2092 22.8811L22.0523 22.8453L22.0416 21.6884ZM24.2622 2.85198L24.4342 20.5136L42.0062 21.0508C41.254 14.0843 37.0347 8.14938 31.089 5.0261C29.8677 4.38497 28.5675 3.85845 27.2064 3.46804C26.2501 3.19225 25.2687 2.98809 24.2622 2.85198ZM20.3223 23.6189L30.2079 40.7397C27.2064 42.4732 23.7895 43.3866 20.3223 43.3866C9.40517 43.3866 0.554688 34.5325 0.554688 23.6189C0.554688 13.0277 8.90373 4.31333 19.4878 3.86919L20.3223 23.6189Z" fill="#029894"/>
</g>
<defs>
<clipPath id="clip0_96_25954">
<rect width="44.0125" height="43.16" fill="white" transform="translate(0.554688 0.226562)"/>
</clipPath>
</defs>
</svg>
