<svg width="55" height="44" viewBox="0 0 55 44" fill="none" xmlns="http://www.w3.org/2000/svg">
<g clip-path="url(#clip0_96_25966)">
<path fill-rule="evenodd" clip-rule="evenodd" d="M4.1005 7.62788L3.94717 17.9447V39.551C3.94717 39.8051 4.04793 40.0285 4.2144 40.1994C4.38525 40.3703 4.60868 40.4666 4.86277 40.4666H42.5905C42.8446 40.4666 43.068 40.3659 43.2389 40.1994C43.4097 40.0285 43.5061 39.8051 43.5061 39.551L46.5245 39.5554V40.2783C46.5245 42.1007 45.035 43.5858 43.217 43.5858H4.1005C2.28245 43.5902 0.792969 42.1007 0.792969 40.2783V10.9354C0.792969 9.11736 2.28245 7.62788 4.1005 7.62788ZM34.5342 15.1191L30.9244 28.0294C30.9025 28.1521 30.7886 28.2485 30.6571 28.2485H29.4305C29.4086 28.2485 29.3823 28.2441 29.3604 28.2397C29.2158 28.2003 29.1326 28.0513 29.172 27.9068L32.7818 14.9964C32.8037 14.8738 32.9176 14.7774 33.0491 14.7774H34.2801C34.302 14.7774 34.3283 14.7818 34.3502 14.7862C34.486 14.83 34.5736 14.9789 34.5342 15.1191ZM42.9717 27.6308H39.5283C39.0289 27.6308 38.6741 27.5213 38.4638 27.2978C38.2491 27.0744 38.144 26.7196 38.144 26.2333V17.7608C38.144 17.2657 38.2535 16.9065 38.4725 16.6918C38.6916 16.4728 39.042 16.3633 39.5283 16.3633H43.1819C43.7208 16.3633 44.1852 16.3983 44.5794 16.464C44.9737 16.5341 45.3286 16.6568 45.644 16.8495C45.9112 17.0072 46.1434 17.2088 46.3537 17.4541C46.5596 17.6994 46.7129 17.9667 46.8224 18.2602C46.9319 18.5581 46.9845 18.8647 46.9845 19.1933C46.9845 20.3192 46.4194 21.1471 45.2935 21.6685C46.7742 22.1416 47.5146 23.0572 47.5146 24.4196C47.5146 25.0505 47.3525 25.62 47.0283 26.1238C46.7041 26.6319 46.2704 27.0043 45.7228 27.2409C45.3811 27.3855 44.9868 27.4862 44.54 27.5432C44.0844 27.6045 43.5631 27.6308 42.9717 27.6308ZM42.8008 22.6279H40.422V25.9179H42.8753C44.4217 25.9179 45.1927 25.3615 45.1927 24.2488C45.1927 23.6793 44.9956 23.2675 44.5926 23.009C44.1939 22.7549 43.5937 22.6279 42.8008 22.6279ZM40.422 18.0762V20.9894H42.5161C43.0856 20.9894 43.5236 20.9325 43.8347 20.8273C44.1457 20.7178 44.3823 20.5163 44.5488 20.214C44.6758 19.9994 44.7415 19.7584 44.7415 19.4912C44.7415 18.9217 44.54 18.5449 44.1326 18.3565C43.7295 18.1682 43.1075 18.0762 42.2795 18.0762H40.422ZM24.1604 26.356L23.6215 24.9409H19.0435L18.5047 26.3822C18.2944 26.9474 18.1148 27.3285 17.9658 27.5213C17.8169 27.7184 17.576 27.8192 17.2386 27.8192C16.9539 27.8192 16.6998 27.714 16.4764 27.5037C16.2573 27.2935 16.1478 27.0569 16.1478 26.7897C16.1478 26.6363 16.1741 26.4742 16.2223 26.3121C16.2748 26.1457 16.3581 25.9223 16.4764 25.6287L19.3546 18.3171C19.4378 18.1068 19.5342 17.8571 19.6525 17.5636C19.7664 17.2657 19.889 17.0248 20.0205 16.8276C20.1519 16.6349 20.3227 16.4772 20.533 16.3545C20.7477 16.2318 21.0061 16.1749 21.3216 16.1749C21.6414 16.1749 21.9086 16.2362 22.1189 16.3545C22.3335 16.4772 22.5 16.6305 22.6314 16.8189C22.7629 17.0072 22.8724 17.2131 22.96 17.4322C23.0476 17.6512 23.1659 17.9404 23.3017 18.304L26.2456 25.5718C26.4778 26.1238 26.5917 26.5268 26.5917 26.7765C26.5917 27.035 26.4822 27.2759 26.2675 27.495C26.0485 27.714 25.7856 27.8192 25.479 27.8192C25.2994 27.8192 25.146 27.7885 25.019 27.7228C24.892 27.6614 24.7868 27.5738 24.6948 27.4643C24.6072 27.3548 24.5152 27.1839 24.4188 26.9561C24.3181 26.7283 24.2348 26.5268 24.1604 26.356ZM19.6437 23.2237H23.0082L21.3128 18.58L19.6437 23.2237ZM12.2007 0.425781H51.3172C53.1396 0.425781 54.6247 1.91527 54.6247 3.73331V33.0762C54.6247 34.8942 53.1352 36.3837 51.3172 36.3837H12.2007C10.3826 36.3837 8.89314 34.8942 8.89314 33.0762V3.73331C8.88875 1.91527 10.3782 0.425781 12.2007 0.425781ZM51.6194 10.7427H12.043V32.3489C12.043 32.603 12.1437 32.8265 12.3102 32.9973C12.481 33.1682 12.7045 33.2645 12.9586 33.2645H50.6863C50.9404 33.2645 51.1638 33.1638 51.3347 32.9973C51.5055 32.8265 51.6019 32.603 51.6019 32.3489V10.7427H51.6194ZM48.1673 4.14511C49.0698 4.14511 49.8014 4.87671 49.8014 5.77916C49.8014 6.68162 49.0698 7.41322 48.1673 7.41322C47.2649 7.41322 46.5333 6.68162 46.5333 5.77916C46.5289 4.87671 47.2605 4.14511 48.1673 4.14511ZM37.0882 4.14511C37.9907 4.14511 38.7223 4.87671 38.7223 5.77916C38.7223 6.68162 37.9907 7.41322 37.0882 7.41322C36.1857 7.41322 35.4541 6.68162 35.4541 5.77916C35.4498 4.87671 36.1814 4.14511 37.0882 4.14511ZM42.6256 4.14511C43.528 4.14511 44.2596 4.87671 44.2596 5.77916C44.2596 6.68162 43.528 7.41322 42.6256 7.41322C41.7231 7.41322 40.9915 6.68162 40.9915 5.77916C40.9915 4.87671 41.7231 4.14511 42.6256 4.14511Z" fill="#029894"/>
</g>
<defs>
<clipPath id="clip0_96_25966">
<rect width="53.8317" height="43.16" fill="white" transform="translate(0.792969 0.425781)"/>
</clipPath>
</defs>
</svg>
