<svg width="45" height="44" viewBox="0 0 45 44" fill="none" xmlns="http://www.w3.org/2000/svg">
<path d="M38.3872 17.1003C38.7175 17.1009 39.0356 17.2245 39.2796 17.4471C39.5236 17.6696 39.676 17.975 39.7069 18.3038V37.0203C39.7039 38.0462 39.3068 39.0317 38.5978 39.7732C37.8887 40.5146 36.922 40.9554 35.8972 41.0043H9.17125C8.14536 41.0012 7.15985 40.6041 6.4184 39.8951C5.67694 39.1861 5.2362 38.2193 5.18725 37.1946V18.4283C5.18786 18.0981 5.31149 17.7799 5.534 17.5359C5.75652 17.2919 6.06197 17.1396 6.39075 17.1086H38.3872V17.1003ZM28.1035 22.6364L28.0122 22.7028L20.4094 30.9447L16.9649 27.6247C16.7902 27.4497 16.5566 27.346 16.3096 27.3337C16.0626 27.3215 15.8199 27.4015 15.6286 27.5583L15.5456 27.6247L14.1512 28.8863C14.0659 28.9586 13.996 29.0474 13.9458 29.1473C13.8956 29.2473 13.8662 29.3564 13.8592 29.468C13.8522 29.5796 13.8679 29.6915 13.9052 29.7969C13.9426 29.9024 14.0008 29.9992 14.0765 30.0815L14.1512 30.1645L19.015 34.771C19.3938 35.144 19.9027 35.3553 20.4343 35.3603C20.699 35.3673 20.9623 35.3185 21.2068 35.2169C21.4514 35.1154 21.6718 34.9635 21.8536 34.771L25.9206 30.4882L26.2443 30.1479L26.6759 29.6914L30.8259 25.2924C30.9685 25.125 31.0542 24.9166 31.0706 24.6973C31.087 24.478 31.0333 24.2591 30.9172 24.0723L30.8591 23.9976L29.4315 22.7194C29.2603 22.5426 29.0293 22.4361 28.7836 22.4207C28.538 22.4054 28.2955 22.4823 28.1035 22.6364ZM38.3872 3.82031C39.4432 3.82251 40.4553 4.24295 41.2019 4.98962C41.9486 5.73629 42.3691 6.74836 42.3712 7.80431V11.7883C42.3712 12.1405 42.2313 12.4783 41.9823 12.7274C41.7332 12.9764 41.3955 13.1163 41.0432 13.1163H3.85925C3.50704 13.1163 3.16926 12.9764 2.92021 12.7274C2.67116 12.4783 2.53125 12.1405 2.53125 11.7883V7.80431C2.53344 6.74836 2.95389 5.73629 3.70056 4.98962C4.44723 4.24295 5.4593 3.82251 6.51525 3.82031H38.3872Z" fill="#029894"/>
</svg>
