<svg width="50" height="44" viewBox="0 0 50 44" fill="none" xmlns="http://www.w3.org/2000/svg">
<g clip-path="url(#clip0_96_34941)">
<path fill-rule="evenodd" clip-rule="evenodd" d="M3.80013 0.716797H46.1647C47.991 0.716797 49.4824 2.48557 49.4824 4.65161V39.942C49.4824 42.1033 47.991 43.8768 46.1647 43.8768H3.80013C1.9738 43.8768 0.482422 42.1033 0.482422 39.942V4.65161C0.482422 2.48557 1.9738 0.716797 3.80013 0.716797ZM17.9084 31.3346H13.5618L12.9358 33.7655H9.01595L13.6934 19.0288H17.8964L22.554 33.7655H18.5304L17.9084 31.3346ZM17.0989 28.147L15.7431 22.8501L14.3793 28.147H17.0989ZM24.0693 19.0288H30.4574C31.8491 19.0288 32.8899 19.4214 33.5837 20.2064C34.2736 20.9915 34.6205 22.1124 34.6205 23.5595C34.6205 25.0493 34.2417 26.2127 33.488 27.0498C32.7344 27.8916 31.578 28.3078 30.0268 28.3078H27.9213V33.7607H24.0693V19.0288ZM27.9213 25.3236H28.8664C29.6121 25.3236 30.1344 25.1675 30.4375 24.8648C30.7366 24.5574 30.8881 24.1696 30.8881 23.692C30.8881 23.2285 30.7565 22.8359 30.4933 22.5143C30.2341 22.1928 29.7397 22.032 29.0179 22.032H27.9173V25.3236H27.9213ZM37.0968 19.0288H40.9489V33.7655H37.0968V19.0288ZM47.5245 11.7314H2.59188V40.3251C2.59188 40.6277 2.69157 40.8926 2.85905 41.0959C3.02653 41.2946 3.25382 41.4128 3.50903 41.4128H46.5914C46.8466 41.4128 47.0699 41.2946 47.2414 41.0959C47.4128 40.8926 47.5085 40.6277 47.5085 40.3251V11.7314H47.5245ZM43.0065 5.13873C43.9117 5.13873 44.6454 6.00893 44.6454 7.08249C44.6454 8.15606 43.9117 9.02625 43.0065 9.02625C42.1013 9.02625 41.3676 8.15606 41.3676 7.08249C41.3716 6.00893 42.1053 5.13873 43.0065 5.13873ZM31.9049 5.13873C32.8101 5.13873 33.5439 6.00893 33.5439 7.08249C33.5439 8.15606 32.8101 9.02625 31.9049 9.02625C30.9998 9.02625 30.266 8.15606 30.266 7.08249C30.266 6.00893 30.9998 5.13873 31.9049 5.13873ZM37.4557 5.13873C38.3609 5.13873 39.0946 6.00893 39.0946 7.08249C39.0946 8.15606 38.3609 9.02625 37.4557 9.02625C36.5505 9.02625 35.8168 8.15606 35.8168 7.08249C35.8168 6.00893 36.5505 5.13873 37.4557 5.13873Z" fill="#029894"/>
</g>
<defs>
<clipPath id="clip0_96_34941">
<rect width="49" height="43.16" fill="white" transform="translate(0.482422 0.716797)"/>
</clipPath>
</defs>
</svg>
