<svg width="40" height="44" viewBox="0 0 40 44" fill="none" xmlns="http://www.w3.org/2000/svg">
<g clip-path="url(#clip0_96_34934)">
<path fill-rule="evenodd" clip-rule="evenodd" d="M19.5682 0.3125C26.8908 4.9541 33.506 7.15003 39.1834 6.6309C40.1749 26.6858 32.7688 38.5295 19.6441 43.4725C6.96971 38.846 -0.527096 27.5119 0.0289117 6.32673C6.69363 6.67551 13.2323 5.23474 19.5682 0.3125ZM11.8659 23.7664C11.4515 23.4116 11.403 22.7878 11.7574 22.373C12.1125 21.9582 12.7363 21.9101 13.1508 22.2645L17.1879 25.7329L26.032 16.0093C26.3998 15.6054 27.0253 15.5759 27.4296 15.9432C27.8332 16.3106 27.8627 16.9362 27.4953 17.3405L18.0049 27.775L18.0042 27.7743C17.6459 28.1681 17.0379 28.2084 16.6308 27.86L11.8659 23.7664Z" fill="#029894"/>
</g>
<defs>
<clipPath id="clip0_96_34934">
<rect width="39.2722" height="43.16" fill="white" transform="translate(0 0.3125)"/>
</clipPath>
</defs>
</svg>
