<svg width="37" height="37" viewBox="0 0 37 37" fill="none" xmlns="http://www.w3.org/2000/svg">
<path d="M34.6371 11.2182H28.2872L19.835 1.07558C19.6603 0.882081 19.447 0.727394 19.2088 0.621519C18.9705 0.515644 18.7128 0.460938 18.4521 0.460938C18.1914 0.460938 17.9336 0.515644 17.6954 0.621519C17.4572 0.727394 17.2438 0.882081 17.0692 1.07558L8.617 11.2182H2.26708C1.79014 11.2182 1.33272 11.4076 0.99547 11.7449C0.658217 12.0822 0.46875 12.5396 0.46875 13.0165V34.5965C0.46875 35.0735 0.658217 35.5309 0.99547 35.8681C1.33272 36.2054 1.79014 36.3948 2.26708 36.3948H34.6371C35.114 36.3948 35.5714 36.2054 35.9087 35.8681C36.246 35.5309 36.4354 35.0735 36.4354 34.5965V13.0165C36.4354 12.5396 36.246 12.0822 35.9087 11.7449C35.5714 11.4076 35.114 11.2182 34.6371 11.2182ZM18.4521 5.03551L23.6043 11.2182H13.2999L18.4521 5.03551ZM25.6454 29.2015H11.2588C10.7818 29.2015 10.3244 29.012 9.98714 28.6748C9.64988 28.3375 9.46042 27.8801 9.46042 27.4032C9.46042 26.9262 9.64988 26.4688 9.98714 26.1316C10.3244 25.7943 10.7818 25.6048 11.2588 25.6048H25.6454C26.1224 25.6048 26.5798 25.7943 26.917 26.1316C27.2543 26.4688 27.4438 26.9262 27.4438 27.4032C27.4438 27.8801 27.2543 28.3375 26.917 28.6748C26.5798 29.012 26.1224 29.2015 25.6454 29.2015ZM29.2421 22.0082H7.66208C7.18514 22.0082 6.72772 21.8187 6.39047 21.4815C6.05322 21.1442 5.86375 20.6868 5.86375 20.2098C5.86375 19.7329 6.05322 19.2755 6.39047 18.9382C6.72772 18.601 7.18514 18.4115 7.66208 18.4115H29.2421C29.719 18.4115 30.1764 18.601 30.5137 18.9382C30.851 19.2755 31.0404 19.7329 31.0404 20.2098C31.0404 20.6868 30.851 21.1442 30.5137 21.4815C30.1764 21.8187 29.719 22.0082 29.2421 22.0082Z" fill="#029894"/>
</svg>
