<svg width="45" height="44" viewBox="0 0 45 44" fill="none" xmlns="http://www.w3.org/2000/svg">
<g clip-path="url(#clip0_96_34871)">
<path d="M24.0977 6.74414C20.8592 6.74414 18.2246 9.37876 18.2246 12.617C18.2246 14.0786 18.757 15.4616 19.7286 16.5412H22.8156V12.668H25.3796V16.5412H28.4666C29.4381 15.4615 29.9706 14.0785 29.9706 12.617C29.9706 9.37876 27.336 6.74414 24.0977 6.74414Z" fill="#029894"/>
<path d="M34.8052 19.1055H13.1624C12.4505 20.6167 12.0662 22.2615 12.0354 23.9616L8.96875 32.7799H12.0334V39.0352H17.6963V43.9917H31.7259V33.2888C34.4094 31.0117 35.9356 27.7288 35.9356 24.1839C35.9355 22.4048 35.5481 20.6826 34.8052 19.1055Z" fill="#029894"/>
<path d="M16.527 11.3359H12.3125V13.9H16.527V11.3359Z" fill="#029894"/>
<path d="M16.6705 3.37641L14.8574 5.18945L17.8374 8.16947L19.6505 6.35643L16.6705 3.37641Z" fill="#029894"/>
<path d="M31.5249 3.3774L28.5449 6.35742L30.358 8.17047L33.338 5.19045L31.5249 3.3774Z" fill="#029894"/>
<path d="M35.8844 11.3359H31.6699V13.9H35.8844V11.3359Z" fill="#029894"/>
<path d="M25.3805 0.832031H22.8164V5.04654H25.3805V0.832031Z" fill="#029894"/>
</g>
<defs>
<clipPath id="clip0_96_34871">
<rect width="43.16" height="43.16" fill="white" transform="translate(0.871094 0.832031)"/>
</clipPath>
</defs>
</svg>
