<svg width="408" height="388" viewBox="0 0 408 388" fill="none" xmlns="http://www.w3.org/2000/svg">
<g clip-path="url(#clip0_120_1917)">
<path d="M60.105 187.268C-19.3625 233.134 -19.3625 307.503 60.105 353.368C139.581 399.233 268.427 399.233 347.895 353.368C427.362 307.503 427.362 233.134 347.895 187.268C268.418 141.403 139.572 141.403 60.105 187.268Z" fill="#FAFAFA"/>
<path d="M239.108 356.615C261.848 356.615 280.282 345.975 280.282 332.851C280.282 319.726 261.848 309.086 239.108 309.086C216.368 309.086 197.934 319.726 197.934 332.851C197.934 345.975 216.368 356.615 239.108 356.615Z" fill="#E0E0E0"/>
<path d="M73.6061 368.904L145.8 259.313L97.101 231.202L24.9075 340.793L73.6061 368.904Z" fill="#BA68C8"/>
<path d="M73.6061 368.904L145.8 259.313L97.101 231.202L24.9075 340.793L73.6061 368.904Z" fill="#213370"/>
<path d="M145.8 259.313L73.6062 368.904L102.818 352.036L155.471 272.425L145.8 259.313Z" fill="#BA68C8"/>
<path d="M145.8 259.313L73.6062 368.904L102.818 352.036L155.471 272.425L145.8 259.313Z" fill="#213370"/>
<path d="M276.811 21.6782L281.58 43.0277L301.191 54.4939L296.315 32.9388L276.811 21.6782Z" fill="#BA68C8"/>
<path d="M276.811 21.6782L281.58 43.0277L301.191 54.4939L296.315 32.9388L276.811 21.6782Z" fill="#132261"/>
<path d="M234.536 126.959L296.315 32.9388L276.811 21.6783L350.964 0.76709L364.465 72.2747L345.014 61.041L283.235 155.061L234.536 126.959Z" fill="#BA68C8"/>
<path d="M234.536 126.959L296.315 32.9388L276.811 21.6783L350.964 0.76709L364.465 72.2747L345.014 61.041L283.235 155.061L234.536 126.959Z" fill="#213370"/>
<path d="M345.014 61.041L283.262 155.061L294.204 167.484L349.962 82.6409L369.368 93.8478L364.465 72.2747L345.014 61.041Z" fill="#BA68C8"/>
<path d="M345.014 61.041L283.262 155.061L294.204 167.484L349.962 82.6409L369.368 93.8478L364.465 72.2747L345.014 61.041Z" fill="#213370"/>
<path d="M245.469 139.471L234.536 127.048L283.262 155.061L294.204 167.484L245.469 139.471Z" fill="#BA68C8"/>
<path d="M245.469 139.471L234.536 127.048L283.262 155.061L294.204 167.484L245.469 139.471Z" fill="#213370"/>
<path opacity="0.2" d="M349.962 82.6409L345.014 61.041L364.465 72.2747L369.368 93.8478L349.962 82.6409Z" fill="black"/>
<path d="M274.61 311.215C274.61 316.385 274.565 323.37 274.592 327.824C274.601 328.79 274.61 329.989 274.61 331.572C274.619 331.581 274.619 331.59 274.61 331.59C273.894 336.24 270.458 340.784 264.285 344.353C250.328 352.402 227.701 352.402 213.743 344.353C206.55 340.203 203.061 334.711 203.293 329.273V329.228C203.338 328.772 203.383 328.289 203.445 327.788C203.445 327.77 203.454 327.744 203.454 327.735C204.054 322.449 204.492 317.154 204.787 312.19C205.261 304.31 205.199 300.84 205.127 296.6C205.047 291.368 202.873 287.254 197.352 282.612C191.832 277.961 180.854 262.103 180.854 262.103L253.656 224.69L274.359 290.232C274.35 290.232 274.61 306.045 274.61 311.215Z" fill="#FFA8A7"/>
<path d="M254.211 211.14C254.211 211.14 252.833 216.65 246.329 209.36C239.824 202.071 229.177 190.918 217.966 180.194C212.589 175.051 191.045 157.726 176.595 144.641C171.988 139.892 165.447 136.565 160.947 140.026C156.447 143.478 156.438 151.966 159.265 156.179C161.77 159.9 167.147 165.069 171.245 168.79C171.218 169.014 171.191 169.237 171.165 169.461C170.386 176.231 168.999 183.843 168.346 192.044C167.953 196.928 162.057 203.09 162.137 208.108C163.873 215.236 173.348 222.928 180.04 228.277C186.741 233.625 189.658 235.799 189.578 237.489C189.461 240.074 178.608 230.665 173.786 227.356C174.054 242.713 164.24 244.564 164.24 244.564C165.716 247.524 174.09 254.036 185.99 269.267C190.687 275.278 238.5 235.718 238.5 235.718L249.854 228.429L257.843 215.21L254.211 211.14Z" fill="#FFA8A7"/>
<path d="M250.238 224.69C245.756 230.316 228.139 248.303 241.998 272.138C240.504 270.725 239.726 269.643 239.403 269.214C237.408 266.584 235.852 263.624 234.742 260.52C234.697 260.404 234.671 260.297 234.626 260.189C231.476 251.111 232.55 241.881 238.428 234.082C243.054 227.955 251.482 221.998 252.6 215.389C252.645 215.147 252.672 214.906 252.681 214.673C252.887 216.721 253.119 221.095 250.238 224.69Z" fill="#F28F8F"/>
<path opacity="0.5" d="M158.397 143.416C156.635 147.458 157.154 153.022 159.274 156.17C161.779 159.891 167.156 165.06 171.254 168.781C171.236 168.96 171.209 169.139 171.192 169.318C172.999 170.865 174.94 172.511 177.079 174.389C182.214 178.906 189.005 184.737 194.132 189.263C196.699 191.526 208.894 201.337 213.323 205.282C206.514 197.813 191.215 184.263 183.521 176.688C177.714 170.972 169.143 162.994 166.36 159.81C163.569 156.635 161.94 154.462 160.965 153.254C157.538 149.068 158.29 144.23 158.397 143.416Z" fill="#F28F8F"/>
<path d="M171.451 251.183C173.858 250.968 176.962 249.179 178.206 247.104C180.004 244.126 180.344 241.809 179.861 237.158C179.736 235.969 179.441 233.822 178.546 230.745C176.953 229.601 175.289 228.366 173.813 227.347C174.081 242.704 164.266 244.555 164.266 244.555C164.937 245.897 167.022 247.963 170.207 251.245C170.619 251.236 171.03 251.218 171.451 251.183Z" fill="#F28F8F"/>
<path d="M163.586 189.12C163.202 189.469 168.641 194.71 169.214 195.032C171.227 196.15 175.074 194.755 176.747 193.368C177.794 192.492 178.564 191.311 179.1 190.041C180.908 185.739 180.031 180.838 179.109 176.258C178.966 175.543 178.761 174.738 178.125 174.38C178.018 176.777 175.906 177.815 174.341 179.255C172.847 180.623 171.352 181.991 169.867 183.369C167.765 185.283 165.671 187.206 163.586 189.12Z" fill="#F28F8F"/>
<path d="M175.951 191.937L204.421 220.665L171.182 192.814L175.951 191.937Z" fill="#F28F8F"/>
<path d="M172.059 216.48C174.815 215.585 177.114 213.367 178.072 210.639C178.886 208.314 178.752 205.765 178.591 203.305C178.456 201.212 178.304 199.075 177.535 197.125L164.213 201.642C163.059 203.878 162.119 206.078 162.146 208.099C162.853 211.006 164.705 213.949 167.309 216.784C168.838 217.043 170.592 216.954 172.059 216.48Z" fill="#F28F8F"/>
<path d="M168.516 168.557C174.368 168.021 177.436 170.588 178.752 175.838C179.244 177.823 179.297 180.972 178.752 184.871C178.206 188.771 174.511 193.449 169.751 192.742C169.67 192.733 169.599 192.715 169.518 192.706C161.824 191.454 160.956 187.331 160.956 180.659C160.956 173.995 163.309 169.04 168.516 168.557Z" fill="#FFA8A7"/>
<path opacity="0.5" d="M175.423 170.105C175.844 170.471 178.331 172.904 178.349 179.63C178.376 186.982 174.681 188.512 170.61 189.164C166.539 189.817 161.045 187.286 161.045 183.601C161.394 188.547 163.032 191.651 169.518 192.706C169.599 192.715 169.67 192.733 169.751 192.742C174.511 193.44 178.206 188.771 178.752 184.871C179.297 180.972 179.244 177.823 178.752 175.838C178.107 173.271 177.034 171.339 175.423 170.105Z" fill="#F28F8F"/>
<path d="M168.651 192C174.001 191.508 176.801 193.86 178 198.645C178.456 200.461 178.501 203.332 178 206.892C177.499 210.451 174.126 214.727 169.778 214.083C169.706 214.074 169.635 214.065 169.563 214.047C162.54 212.902 161.743 209.137 161.743 203.046C161.743 196.964 163.891 192.438 168.651 192Z" fill="#FFA8A7"/>
<path opacity="0.5" d="M176.103 194.54C176.855 195.658 177.401 198.404 176.962 202.572C176.381 208.027 175.218 210.684 170.44 211.024C165.492 211.381 162.45 209.092 161.931 206.677C162.406 210.648 164.079 213.161 169.581 214.056C169.653 214.065 169.724 214.074 169.796 214.091C174.144 214.727 177.517 210.46 178.018 206.9C178.519 203.341 178.474 200.461 178.018 198.654C177.58 196.973 176.953 195.595 176.103 194.54Z" fill="#F28F8F"/>
<path d="M168.937 225.066C174.484 224.556 178.635 227.195 178.635 231.962V240.521C178.635 245.083 174.609 248.651 170.1 247.989C170.028 247.981 169.957 247.972 169.885 247.954C162.593 246.773 162.683 240.11 162.593 236.613C162.504 233.124 163.998 225.513 168.937 225.066Z" fill="#FFA8A7"/>
<path opacity="0.5" d="M175.933 226.586C178.358 229.127 177.41 234.287 177.231 239.376C177.105 242.909 175.262 245.834 170.431 245.834C165.6 245.834 163.443 242.882 162.781 239.994V239.985C163.184 243.321 164.58 247.086 169.885 247.945C169.957 247.954 170.028 247.972 170.1 247.981C174.609 248.642 178.635 245.074 178.635 240.512V231.953C178.635 229.61 177.624 227.785 175.933 226.586Z" fill="#F28F8F"/>
<path d="M107.435 223.384L226.779 132.924L275.505 161.027L156.133 251.487L107.435 223.384Z" fill="#132261"/>
<path d="M275.505 161.026L286.447 173.459L165.805 264.599L156.134 251.487L275.505 161.026Z" fill="#BA68C8"/>
<path d="M275.505 161.026L286.447 173.459L165.805 264.599L156.134 251.487L275.505 161.026Z" fill="#213370"/>
<path d="M107.435 223.384L117.107 236.496L165.805 264.599L156.133 251.487L107.435 223.384Z" fill="#BA68C8"/>
<path d="M107.435 223.384L117.107 236.496L165.805 264.599L156.133 251.487L107.435 223.384Z" fill="#213370"/>
<path d="M274.35 290.232C274.35 277.55 275.272 260.529 277.374 245.852C279.477 231.175 279.065 218.617 278.421 215.066C277.777 211.516 277.598 206.364 272.123 199.817C269.537 196.731 263.882 192.232 259.158 186.687C254.398 181.097 249.952 174.881 247.429 171.491C244.906 168.092 238.652 173.566 238.956 184.388C239.206 193.234 245.255 200.971 247.59 204.28C250.444 208.314 252.466 212.213 252.69 214.646C252.877 216.703 253.11 221.068 250.238 224.681C245.756 230.307 228.139 248.294 241.998 272.129V293.998L274.35 290.232Z" fill="#FFA8A7"/>
<path d="M248.565 178.119C248.565 178.119 253.942 185.408 255.66 186.347C257.378 187.286 257.87 185.149 257.87 185.149L257.861 185.14C255.392 181.669 250.784 175.364 247.429 171.5C247.858 172.224 248.842 174.899 248.565 178.119Z" fill="#FFA8A7"/>
<path opacity="0.6" d="M248.565 178.119C248.565 178.119 253.942 185.417 255.66 186.347C257.27 187.224 257.87 185.149 257.87 185.149L257.861 185.14C255.392 181.669 250.784 175.364 247.429 171.5C247.858 172.224 248.842 174.899 248.565 178.119Z" fill="white"/>
<path d="M257.861 185.149L257.852 185.14C257.861 185.149 257.333 184.317 257.056 184.022C257.297 185.73 256.063 186.526 256.063 186.526C257.476 186.937 257.861 185.149 257.861 185.149Z" fill="#F28F8F"/>
<g opacity="0.3">
<path d="M337.105 331.303C337.06 331.303 337.015 331.294 336.971 331.268L319.649 321.268C319.569 321.223 319.515 321.134 319.515 321.036C319.515 320.937 319.569 320.857 319.649 320.803L341.31 308.308C341.39 308.263 341.498 308.263 341.578 308.308L358.9 318.308C358.98 318.352 359.034 318.442 359.034 318.54C359.034 318.639 358.98 318.719 358.9 318.773L337.239 331.268C337.203 331.285 337.149 331.303 337.105 331.303ZM320.311 321.036L337.105 330.731L358.229 318.54L341.435 308.845L320.311 321.036Z" fill="#BA68C8"/>
</g>
<path d="M337.105 328.54V238.893L324.114 231.389V321.036L337.105 328.54Z" fill="#BA68C8"/>
<path d="M337.105 328.54V238.893L324.114 231.389V321.036L337.105 328.54Z" fill="#213370"/>
<path d="M337.105 328.54L354.435 318.54V228.894L337.105 238.893V328.54Z" fill="#132261"/>
<path d="M354.435 228.894L341.444 221.399L324.114 231.389L337.105 238.893L354.435 228.894Z" fill="#BA68C8"/>
<path d="M354.435 228.894L341.444 221.399L324.114 231.389L337.105 238.893L354.435 228.894Z" fill="#213370"/>
<path opacity="0.3" d="M354.435 228.894L336.935 238.536L331.253 235.361L324.114 231.389L331.128 235.584L336.872 239.01C336.738 240.96 336.702 320.606 336.729 322.556C336.756 324.551 336.854 326.536 337.114 328.531C337.373 326.536 337.463 324.551 337.499 322.556C337.525 320.669 337.49 241.085 337.364 239.198L354.435 228.894Z" fill="white"/>
<g opacity="0.3">
<path d="M304.627 350.05C304.582 350.05 304.538 350.041 304.493 350.014L287.163 340.015C287.082 339.97 287.028 339.881 287.028 339.782C287.028 339.684 287.082 339.603 287.163 339.55L308.823 327.055C308.904 327.01 309.011 327.01 309.092 327.055L326.413 337.054C326.494 337.099 326.547 337.189 326.547 337.287C326.547 337.385 326.494 337.466 326.413 337.519L304.752 350.014C304.717 350.041 304.672 350.05 304.627 350.05ZM287.834 339.782L304.627 349.478L325.751 337.287L308.957 327.592L287.834 339.782Z" fill="#BA68C8"/>
</g>
<path d="M304.627 347.286L304.618 293.497L291.627 286.002V339.782L304.627 347.286Z" fill="#BA68C8"/>
<path d="M304.627 347.286L304.618 293.497L291.627 286.002V339.782L304.627 347.286Z" fill="#132261"/>
<path d="M304.627 347.286L321.949 337.287V283.506L304.618 293.497L304.627 347.286Z" fill="#BA68C8"/>
<path d="M304.627 347.286L321.949 337.287V283.506L304.618 293.497L304.627 347.286Z" fill="#132261"/>
<path d="M321.949 283.506L308.958 276.002L291.627 286.002L304.618 293.497L321.949 283.506Z" fill="#BA68C8"/>
<path d="M321.949 283.506L308.958 276.002L291.627 286.002L304.618 293.497L321.949 283.506Z" fill="#213370"/>
<path opacity="0.3" d="M304.851 293.819L321.949 283.497L304.448 293.139C302.56 292.075 300.664 291.019 298.767 289.964L291.627 285.993L298.642 290.188C300.556 291.332 302.471 292.486 304.395 293.613C304.332 295.635 304.269 305.392 304.251 307.414C304.234 309.48 304.225 332.833 304.242 334.89C304.251 336.956 304.287 339.013 304.359 341.079C304.412 343.145 304.493 345.202 304.627 347.269C304.761 345.202 304.842 343.145 304.896 341.079C304.967 339.013 304.994 336.956 305.012 334.89C305.03 332.824 305.021 309.471 304.994 307.414C304.967 305.464 304.914 295.778 304.851 293.819Z" fill="white"/>
<g opacity="0.3">
<path d="M272.14 368.797C272.096 368.797 272.051 368.788 272.006 368.761L254.685 358.762C254.604 358.717 254.551 358.628 254.551 358.529C254.551 358.431 254.604 358.35 254.685 358.297L276.345 345.802C276.426 345.757 276.533 345.757 276.614 345.802L293.935 355.801C294.016 355.846 294.07 355.935 294.07 356.034C294.07 356.132 294.016 356.213 293.935 356.266L272.275 368.761C272.23 368.788 272.185 368.797 272.14 368.797ZM255.347 358.538L272.14 368.233L293.264 356.043L276.471 346.347L255.347 358.538Z" fill="#BA68C8"/>
</g>
<path d="M272.14 366.033L272.131 347.134L259.14 339.63V358.529L272.14 366.033Z" fill="#BA68C8"/>
<path d="M272.14 366.033L272.131 347.134L259.14 339.63V358.529L272.14 366.033Z" fill="#132261"/>
<path d="M272.141 366.033L289.462 356.034V337.135L272.132 347.134L272.141 366.033Z" fill="#BA68C8"/>
<path d="M272.141 366.033L289.462 356.034V337.135L272.132 347.134L272.141 366.033Z" fill="#132261"/>
<path d="M289.462 337.135L276.471 329.631L259.14 339.63L272.131 347.134L289.462 337.135Z" fill="#BA68C8"/>
<path d="M289.462 337.135L276.471 329.631L259.14 339.63L272.131 347.134L289.462 337.135Z" fill="#132261"/>
<path opacity="0.3" d="M289.462 337.135L271.961 346.777L266.28 343.601L259.14 339.63L266.155 343.825L271.899 347.251C271.765 348.44 271.729 361.159 271.756 362.348C271.783 363.573 271.881 364.808 272.14 366.033C272.4 364.808 272.489 363.573 272.516 362.348C272.543 361.221 272.507 348.556 272.391 347.438L289.462 337.135Z" fill="white"/>
<g opacity="0.3">
<path d="M369.591 312.557C369.547 312.557 369.502 312.548 369.457 312.521L352.136 302.521C352.055 302.477 352.001 302.387 352.001 302.289C352.001 302.19 352.055 302.11 352.136 302.056L373.796 289.561C373.877 289.517 373.984 289.517 374.065 289.561L391.386 299.561C391.467 299.606 391.52 299.695 391.52 299.793C391.52 299.892 391.467 299.972 391.386 300.026L369.726 312.521C369.681 312.539 369.636 312.557 369.591 312.557ZM352.798 302.289L369.591 311.984L390.715 299.793L373.922 290.098L352.798 302.289Z" fill="#BA68C8"/>
</g>
<path d="M369.591 309.784V185.694L356.6 178.199V302.289L369.591 309.784Z" fill="#BA68C8"/>
<path d="M369.591 309.784V185.694L356.6 178.199V302.289L369.591 309.784Z" fill="#132261"/>
<path d="M369.591 309.784L386.913 299.785L386.922 175.695L369.591 185.694V309.784Z" fill="#BA68C8"/>
<path d="M369.591 309.784L386.913 299.785L386.922 175.695L369.591 185.694V309.784Z" fill="#213370"/>
<path d="M386.922 175.695L373.922 168.2L356.6 178.199L369.591 185.694L386.922 175.695Z" fill="#BA68C8"/>
<path d="M386.922 175.695L373.922 168.2L356.6 178.199L369.591 185.694L386.922 175.695Z" fill="#213370"/>
<path opacity="0.3" d="M369.815 186.016L386.913 175.695L369.412 185.337C367.525 184.272 365.628 183.217 363.731 182.161L356.591 178.19L363.606 182.385C365.52 183.53 367.435 184.684 369.359 185.819C369.296 188.109 369.233 216.855 369.216 219.145C369.198 221.479 369.189 293.452 369.207 295.787C369.216 298.121 369.251 300.455 369.323 302.79C369.377 305.124 369.457 307.459 369.591 309.793C369.726 307.459 369.806 305.124 369.86 302.79C369.931 300.455 369.958 298.121 369.976 295.787C369.994 293.452 369.985 221.479 369.958 219.145C369.94 216.918 369.878 188.243 369.815 186.016Z" fill="white"/>
<path opacity="0.2" d="M182.089 211.435C186.088 207.992 191.385 204.754 197.844 201.829C205.1 198.538 213.815 195.631 219.872 192.053C227.736 187.402 230.742 181.803 230.17 176.169C229.848 172.976 227.942 169.434 220.686 167.082C218.825 166.482 216.561 165.964 214.128 165.847C210.549 165.677 207.444 166.375 204.939 167.135C191.599 171.169 185.936 177.367 181.462 183.396C176.989 189.415 171.558 192.912 161.788 198.583C157.609 201.015 153.127 203.394 149.181 205.854C149.146 205.872 149.119 205.89 149.083 205.917C147.088 207.169 144.896 208.323 143.321 209.664C140.816 211.802 138.615 214.011 137.711 216.345C136.808 218.68 137.255 221.166 139.921 223.492C140.61 224.091 141.496 224.699 143.026 225.111C144.314 225.45 145.925 225.611 147.49 225.665C150.667 225.772 153.735 225.468 156.33 224.959C158.925 224.449 161.09 223.742 163.085 223C171.773 219.744 177.32 215.549 182.089 211.435Z" fill="black"/>
<path d="M141.192 92.7297C140.458 94.6706 138.329 98.7848 138.463 99.3036C138.83 100.726 138.901 101.593 138.579 103.257C138.391 104.25 129.811 107.622 129.811 107.622L129.605 106.262C129.462 105.35 129.578 104.411 129.945 103.561C130.938 101.244 132.969 96.1642 133.605 92.0679L141.192 92.7297Z" fill="#FFA8A7"/>
<path d="M138.722 102.389L129.641 106.468L129.82 107.622C129.82 107.622 138.4 104.25 138.588 103.257C138.642 102.944 138.687 102.658 138.722 102.389Z" fill="#F28F8F"/>
<path d="M111.174 119.839L108.446 147.87C108.311 149.229 109.197 150.106 110.307 150.911L113.089 152.905C113.859 153.46 114.297 153.657 115.344 153.585C115.8 153.558 116.596 153.263 116.981 153.093C117.008 153.093 117.026 153.075 117.044 153.066L117.214 152.986L149.047 138.523C151.373 137.468 152.957 135.25 153.208 132.71L155.695 107.183C155.749 106.602 155.409 105.851 154.934 105.511L150.183 102.121C149.709 101.781 148.886 101.701 148.358 101.942L112.248 118.345C111.98 118.462 111.729 118.694 111.532 118.963C111.344 119.24 111.201 119.553 111.174 119.839Z" fill="#37474F"/>
<path d="M111.174 119.839L108.446 147.87C108.311 149.229 109.197 150.106 110.307 150.911L113.089 152.905C113.859 153.46 114.297 153.657 115.344 153.585C115.8 153.558 116.596 153.263 116.981 153.093V153.084C115.755 153.522 114.887 152.816 115.022 151.43L117.589 125.018C117.634 124.579 117.831 124.105 118.126 123.694L111.523 118.972C111.344 119.24 111.201 119.553 111.174 119.839Z" fill="#263238"/>
<path d="M117.598 125.018C117.688 124.141 118.413 123.122 119.218 122.755L153.351 107.246C154.702 106.629 155.686 107.335 155.543 108.811L153.217 132.71C152.966 135.25 151.382 137.468 149.056 138.523L117.223 152.986C115.872 153.603 114.888 152.896 115.031 151.42L117.598 125.018Z" fill="#455A64"/>
<path d="M154.228 108.373C154.201 108.409 154.219 108.516 154.201 108.686L151.875 132.584C151.678 134.642 150.38 136.457 148.493 137.307L116.659 151.769C116.507 151.841 116.4 151.859 116.337 151.868C116.355 151.832 116.337 151.716 116.355 151.555L118.923 125.143C118.967 124.687 119.343 124.159 119.764 123.971L153.897 108.471C154.067 108.4 154.174 108.373 154.228 108.373ZM154.263 107.031C153.986 107.031 153.682 107.103 153.351 107.255L119.218 122.764C118.413 123.131 117.688 124.15 117.599 125.027L115.031 151.438C114.923 152.548 115.46 153.227 116.31 153.227C116.587 153.227 116.892 153.156 117.223 153.004L149.056 138.541C151.382 137.486 152.966 135.268 153.217 132.727L155.543 108.829C155.65 107.702 155.113 107.031 154.263 107.031Z" fill="#37474F"/>
<path d="M151.722 103.221L115.532 119.848C114.494 120.322 113.787 121.324 113.671 122.46L110.861 151.304L111.353 151.653L114.19 122.504C114.279 121.556 114.879 120.716 115.746 120.322L152.214 103.57L151.722 103.221Z" fill="#BA68C8"/>
<path d="M114.252 120.912C113.93 121.36 113.724 121.896 113.671 122.469L110.861 151.313L111.353 151.662L114.19 122.513C114.234 122.039 114.404 121.592 114.673 121.216L114.252 120.912Z" fill="#213370"/>
<path d="M114.682 121.216C114.95 120.841 115.317 120.528 115.755 120.331L152.223 103.579L151.731 103.23L115.541 119.857C115.022 120.098 114.583 120.465 114.261 120.912" fill="#132261"/>
<path d="M139.206 105.627L138.785 109.965L140.387 111.11L140.95 105.35C140.977 105.055 140.78 104.911 140.512 105.037L139.206 105.627Z" fill="#BA68C8"/>
<path d="M139.206 105.627L138.785 109.965L140.387 111.11L140.95 105.35C140.977 105.055 140.78 104.911 140.512 105.037L139.206 105.627Z" fill="#213370"/>
<path d="M126.859 108.748L126.179 115.778L127.709 116.879L128.863 116.351L129.426 110.591C129.453 110.296 129.704 109.956 129.972 109.831L138.705 105.86L140.521 105.037C140.789 104.911 140.986 105.055 140.959 105.35L140.396 111.11L141.55 110.582L142.23 103.561C142.23 103.534 142.23 103.498 142.23 103.471C142.221 103.194 142.06 102.863 141.836 102.711L141.183 102.246C140.941 102.076 140.521 102.031 140.252 102.157L127.396 107.997C127.127 108.113 126.886 108.453 126.859 108.748Z" fill="#213370"/>
<path d="M128.389 109.849L127.709 116.879L128.863 116.351L129.427 110.591C129.453 110.296 129.704 109.956 129.972 109.831L138.705 105.859L140.521 105.037C140.789 104.911 140.986 105.055 140.959 105.35L140.396 111.11L141.55 110.582L142.23 103.561C142.23 103.534 142.23 103.498 142.23 103.471C142.212 103.239 142.033 103.141 141.791 103.248L128.934 109.088C128.666 109.214 128.416 109.553 128.389 109.849Z" fill="#132261"/>
<path d="M137.327 105.296C137.514 105.305 137.693 105.359 137.845 105.475C138.078 105.081 138.534 104.831 138.991 104.84C139.187 104.84 139.429 104.92 139.474 105.117C139.492 105.18 139.483 105.251 139.483 105.314C139.42 105.958 139.331 106.602 139.214 107.246C139.134 107.711 139.017 108.203 138.66 108.507C138.373 108.757 137.944 108.838 137.577 108.713C137.443 109.017 137.183 109.258 136.87 109.384C136.799 109.41 135.895 109.491 135.949 109.384C135.609 110.019 134.857 110.671 133.891 110.475C133.891 110.475 133.649 111.172 132.379 111.02C131.108 110.868 130.545 109.464 130.545 109.464C130.616 109.07 130.75 108.918 131.189 108.74C131.404 108.659 131.636 108.561 131.851 108.453C132.155 108.301 132.343 107.952 132.558 107.702C132.781 107.443 133.032 107.201 133.354 107.076C133.667 106.951 134.061 106.978 134.311 107.21C134.338 106.951 134.517 106.727 134.696 106.539C134.857 106.369 135.063 106.199 135.313 106.173C135.385 106.164 135.967 106.262 135.895 106.423C136.065 106.047 136.316 105.681 136.664 105.475C136.87 105.359 137.103 105.287 137.327 105.296Z" fill="#FFA8A7"/>
<path d="M142.471 92.0768C141.916 94.6438 140.521 96.9513 141.138 99.1068C141.558 100.565 141.675 100.413 141.505 101.897C141.442 102.452 141.218 103.319 141.031 103.838C140.914 104.151 140.807 104.455 140.699 104.768C140.583 105.09 140.458 105.421 140.288 105.725C140.064 106.11 139.769 106.45 139.483 106.79C138.982 107.389 138.454 107.979 137.81 108.418C137.774 108.444 137.738 108.462 137.702 108.471C137.541 108.525 137.362 108.453 137.246 108.328C136.682 107.711 137.112 106.817 137.407 106.191C137.738 105.493 138.123 104.795 138.105 104.008C138.105 103.91 138.096 103.597 138.105 103.114L137.309 102.917C137.309 102.917 134.741 102.3 134.696 101.057C134.651 99.8134 135.635 98.6239 136.378 97.166C137.139 95.6813 137.425 94.76 138.185 91.0035L142.471 92.0768Z" fill="#FFA8A7"/>
<path d="M140.288 105.734C139.706 106.682 138.955 107.532 138.114 108.274C137.971 108.382 137.854 108.57 137.595 108.588C136.396 108.364 136.96 106.781 137.362 106.083C137.693 105.421 138.069 104.768 138.087 104.008C138.141 104.759 137.801 105.475 137.496 106.146C137.183 106.79 136.62 108.113 137.595 108.409C138.606 107.8 139.527 106.682 140.288 105.734Z" fill="#F28F8F"/>
<path d="M137.89 102.881C137.577 102.72 137.237 102.604 136.942 102.416C136.709 102.264 136.521 102.058 136.369 101.835C135.993 101.289 135.662 100.574 135.77 99.8939C135.779 99.8492 135.734 99.7776 135.707 99.8492C135.43 100.609 135.645 101.468 136.056 102.148C136.244 102.461 136.53 102.72 136.843 102.908C137.004 103.006 137.174 103.087 137.362 103.132C137.568 103.185 137.72 103.185 137.917 103.096C137.98 103.06 137.944 102.908 137.89 102.881Z" fill="#F28F8F"/>
<path d="M157.717 40.5859C152.17 40.1566 147.741 41.2567 144.878 48.5461C141.639 56.7836 138.454 63.1339 136.852 69.1264C135.251 75.1189 132.88 94.0713 132.88 94.0713C132.88 94.0713 137.067 97.7205 141.684 96.0569L148.662 74.5196L157.726 57.0877V40.5859H157.717Z" fill="#559793"/>
<path d="M220.677 176.571C221.062 176.303 221.634 177.296 221.643 177.922C221.679 179.711 220.48 182.331 217.867 184.657C215.255 186.973 208.983 189.442 207.176 190.363C205.368 191.284 202.819 193.878 201.217 195.139C198.3 197.447 195.607 197.778 193.979 197.339C193.344 197.169 192.968 196.588 192.699 196.069C192.046 194.835 192.02 194.531 192.163 194.459L220.677 176.571Z" fill="#37474F"/>
<path d="M190.534 190.712C190.937 192.044 191.858 194.146 192.708 195.264C193.585 195.962 194.865 195.926 195.795 195.729C198.256 195.22 200.242 193.941 202.273 192.17C203.49 191.105 204.823 189.943 206.532 189.111C208.41 188.19 212.66 186.356 214.503 185.363C216.069 184.514 217.885 183.092 218.95 181.625C219.845 180.39 220.981 178.128 220.874 176.965C220.051 174.55 219.093 173.369 217.42 173.334C215.649 173.298 213.653 174.201 210.907 175.471C210.084 175.856 209.064 176.366 208.616 176.553C206.925 177.269 205.368 177.976 204.116 178.575C203.042 179.085 201.986 179.576 200.77 179.585C200.188 179.594 199.723 179.523 199.258 179.183C198.694 178.763 198.247 177.94 197.728 178.172C197.728 178.172 189.559 184.737 188.87 185.22C188.083 185.775 189.3 186.669 190.534 190.712Z" fill="#455A64"/>
<path d="M209.269 176.079C209.627 176.106 210.101 176.321 210.379 176.5C210.755 176.741 211.068 176.992 211.381 177.314C211.757 177.707 211.238 178.119 210.728 177.707C210.37 177.43 209.994 177.108 209.386 176.813C209.09 176.67 208.571 176.571 208.294 176.688C208.088 176.777 207.811 176.893 207.811 176.893C207.73 176.5 208.795 176.044 209.269 176.079Z" fill="#FAFAFA"/>
<path d="M204.939 177.877C205.243 177.662 205.556 177.6 205.932 177.662C206.379 177.734 206.764 177.976 207.104 178.262C207.381 178.494 208.017 179.129 208.222 179.424C208.419 179.702 207.721 180.077 207.462 179.8C207.211 179.523 206.728 179.022 206.415 178.754C206.218 178.593 205.431 178.02 204.903 178.208L204.679 178.315C204.617 178.217 204.715 178.065 204.805 177.993C204.84 177.949 204.885 177.913 204.939 177.877Z" fill="#FAFAFA"/>
<path d="M202.506 179.138C202.783 179.093 202.944 179.04 203.203 179.147C203.454 179.254 203.785 179.46 203.973 179.657C204.501 180.185 204.68 180.471 205.002 180.999C205.225 181.374 204.474 181.66 204.313 181.419C203.794 180.659 203.499 180.131 202.792 179.755C202.21 179.451 201.843 179.46 201.843 179.46C201.826 179.38 201.924 179.317 201.996 179.29C202.103 179.246 202.389 179.156 202.506 179.138Z" fill="#FAFAFA"/>
<path d="M183.26 175.82C183.26 175.82 187.85 183.932 189.112 185.739C189.514 186.32 190.812 185.918 191.554 185.846C192.297 185.775 193.469 185.658 194.265 185.882C196.618 186.544 197.96 186.258 197.406 183.109C197.289 182.465 197.513 182.036 198.274 181.777C198.846 181.58 199.499 181.517 199.965 181.124C200.018 181.025 199.902 180.927 199.804 180.882C199.043 180.516 198.623 180.247 198.095 179.102C196.466 175.561 194.972 168.271 194.972 168.271L183.26 175.82Z" fill="#FFA8A7"/>
<path d="M148.519 193.958C149.924 191.714 150.684 187.385 153.771 178.602L165.232 186.991L158.665 199.79C158.289 200.434 158.28 201.4 158.146 201.588C156.625 203.779 148.519 193.958 148.519 193.958Z" fill="#FFA8A7"/>
<path d="M144.27 198.744C144.287 198.609 144.216 197.554 144.252 197.429C144.547 196.293 145.254 195.971 146.157 195.336C147.276 194.549 148.367 193.601 148.654 193.198C148.958 192.778 149.011 192.563 149.486 192.367C150.291 192.045 151.579 192.018 153.163 192.849C155.766 194.218 156.554 195.855 156.411 197.643C156.294 199.003 156.187 200.81 157.386 201.615C157.887 201.955 158.674 199.781 158.674 199.781C159.417 201.015 158.379 202.733 157.833 205.237C157.457 206.954 157.556 207.706 157.762 209.45C158.021 211.65 158.325 211.641 159.497 211.793C160.508 211.927 163.362 211.73 165.098 212.947C167.496 214.619 166.852 216.846 166.852 216.846C166.539 217.696 163.935 221.801 154.424 220.263C151.669 219.816 145.862 215.478 145.952 215.075C146.032 214.7 145.943 214.208 145.934 213.832C145.898 212.857 145.862 211.891 145.817 210.916C145.782 210.031 145.871 209.002 145.656 208.135C145.468 207.366 145.379 206.632 145.298 205.836C145.119 203.886 144.932 201.928 144.753 199.978C144.69 199.432 144.198 199.298 144.27 198.744Z" fill="#455A64"/>
<path d="M143.08 198.359C142.14 199.262 142.713 201.901 143.974 205.058C144.529 206.462 145.576 208.877 145.263 211.444C144.958 214.011 144.905 215.227 145.567 216.426C146.605 218.304 152.134 220.719 155.4 221.47C155.4 221.47 152.411 217.723 152.089 212.052C151.758 206.391 151.329 202.733 148.734 200.228C145.45 197.053 143.08 198.359 143.08 198.359Z" fill="#263238"/>
<path d="M166.852 216.864C166.852 216.864 164.946 220.442 157.583 220.326C154.684 220.281 153.136 218.868 153.064 214.467C152.975 209.163 152.554 203.797 150.837 201.167C149.119 198.529 146.381 197.259 144.261 197.447C143.894 197.509 143.429 197.858 143.08 198.377C143.08 198.377 145.2 197.679 148.51 200.416C150.953 202.438 151.606 206.668 151.57 211.909C151.552 214.172 151.418 216.73 152.08 218.438C152.689 220.022 154.04 221.104 155.596 221.533C159.596 222.66 165.08 220.809 166.458 219.118C167.245 217.982 166.852 216.864 166.852 216.864Z" fill="#37474F"/>
<path d="M158.003 210.845C158.003 210.845 158.54 211.22 158.603 211.721C158.665 212.222 158.486 213.376 157.439 214.029C156.992 214.306 156.607 214.208 157.314 213.278C158.021 212.347 158.003 210.845 158.003 210.845Z" fill="#FAFAFA"/>
<path d="M157.61 208.099C157.61 208.099 157.842 208.251 157.905 208.984C157.941 209.378 157.323 210.97 156.545 211.355C155.766 211.73 156.187 210.845 156.527 210.407C156.894 209.924 157.538 208.832 157.61 208.099Z" fill="#FAFAFA"/>
<path d="M157.869 205.067C157.869 205.067 158.12 205.139 157.851 206.149C157.762 206.489 156.742 207.5 156.25 207.553C155.749 207.616 155.507 207.366 156.124 206.918C156.607 206.579 157.78 205.559 157.869 205.067Z" fill="#FAFAFA"/>
<path d="M176.658 91.6296C176.658 91.6296 181.113 96.9692 183.806 106.951C187.072 119.07 188.342 128.39 189.362 135.151C190.007 139.4 190.624 143.496 192.1 151.671C193.505 159.434 196.994 176.231 196.994 176.231C196.994 176.231 196.377 178.789 192.923 180.301C189.47 181.812 185.73 181.231 185.73 181.231C185.73 181.231 183.359 177.188 178.42 167.654C175.065 161.187 174.519 157.664 173.866 154.354C173.383 151.859 172.801 146.993 172.855 144.757L154.317 113.265C154.317 113.265 152.331 111.199 150.595 106.852C147.973 100.279 151.32 90.7979 151.32 90.7979L176.658 91.6296Z" fill="#37474F"/>
<path d="M176.658 91.6296C176.658 91.6296 181.113 96.9692 183.806 106.951C187.072 119.07 188.342 128.39 189.362 135.151C190.007 139.4 190.624 143.496 192.1 151.671C193.505 159.434 196.994 176.231 196.994 176.231C196.994 176.231 196.377 178.789 192.923 180.301C189.47 181.812 185.73 181.231 185.73 181.231C185.73 181.231 183.359 177.188 178.42 167.654C175.065 161.187 174.519 157.664 173.866 154.354C173.383 151.859 172.801 146.993 172.855 144.757L154.317 113.265C154.317 113.265 152.331 111.199 150.595 106.852C147.973 100.279 151.32 90.7979 151.32 90.7979L176.658 91.6296Z" fill="#37474F"/>
<path d="M188.996 132.719C188.02 126.207 186.696 117.675 183.806 106.951C182.974 103.856 181.963 101.209 180.979 99.0264L157.457 98.615C155.704 102.702 154.326 107.809 158.155 114.052L159.166 121.494L172.864 144.757C172.819 146.993 173.392 151.859 173.875 154.354C174.528 157.664 175.074 161.188 178.429 167.654C178.572 167.94 178.716 168.2 178.859 168.477C180.344 166.259 182.67 162.663 183.556 160.57C184.907 157.377 185.828 151.233 187.242 143.443C187.752 140.572 188.423 136.413 188.996 132.719Z" fill="#263238"/>
<path d="M161.197 91.6297C160.034 92.8192 157.135 96.8172 156.67 102.962C156.473 105.565 157.207 110.466 160.249 114.16C161.179 127.79 163.873 154.041 163.873 154.041C160.267 157.753 159.336 160.141 157.252 166.787C155.981 170.82 152.295 183.02 150.864 187.572C159.605 187.948 161.251 195.443 161.251 195.443C161.251 195.443 171.844 178.369 177.195 168.727C181.149 161.599 181.65 159.9 182.724 155.651C183.798 151.403 183.994 147.467 185.301 138.595C186.598 129.722 188.906 117.505 189.541 108.775C190.177 100.046 190.293 90.7889 190.293 90.7889L161.197 91.6297Z" fill="#37474F"/>
<path d="M149.638 102.318C150.523 102.067 151.776 101.218 152.259 100.458C152.545 100.001 152.715 99.3485 152.939 98.5256C153.181 97.6312 153.476 96.5132 154.04 95.2521L154.711 95.5562C154.174 96.7636 153.896 97.8011 153.655 98.7224C153.422 99.6078 153.234 100.305 152.894 100.851C152.331 101.754 150.863 102.774 149.718 103.051C149.682 102.81 149.656 102.559 149.638 102.318Z" fill="#263238"/>
<path d="M167.147 110.126C166.959 110.117 166.798 110.108 166.673 110.081C165.599 109.849 164.767 109.124 163.112 107.005C161.85 105.395 161.976 104.232 162.19 102.309C162.271 101.602 163.013 97.8369 163.058 96.8441L163.765 97.2377C163.72 98.2573 163.004 101.674 162.924 102.389C162.709 104.295 162.62 105.171 163.693 106.548C165.223 108.507 165.957 109.16 166.834 109.357C167.675 109.545 171.424 108.928 172.417 108.239C172.989 107.836 173.956 102.917 174.519 98.5793L175.253 98.6776C174.967 100.869 173.956 108.078 172.837 108.847C171.853 109.527 168.641 110.162 167.147 110.126Z" fill="#263238"/>
<path d="M151.132 44.5392C148.636 49.3154 148.94 53.5906 149.664 60.2808C150.327 66.4522 150.792 70.2802 151.364 77.9184C152.018 86.6478 150.854 92.1484 150.854 92.1484C150.854 92.1484 151.105 95.8423 161.985 98.615C181.113 103.489 190.293 97.9352 190.293 97.9352C190.293 97.9352 190.758 87.1666 190.016 73.0797C189.183 57.3024 188.906 54.9859 187.689 51.2383C186.795 49.1633 185.095 47.303 182.795 46.2565C180.898 45.3979 176.353 43.9042 173.651 42.8667C167.371 40.4429 160.106 40.5949 160.106 40.5949C154.657 40.2372 152.429 42.0617 151.132 44.5392Z" fill="#559793"/>
<path d="M158.764 41.4536C159.166 41.4536 159.596 41.4715 160.043 41.4983H160.079H160.115C160.124 41.4983 160.204 41.4983 160.356 41.4983C161.564 41.4983 167.854 41.6057 173.32 43.7165C174.412 44.1368 175.826 44.6377 177.185 45.1207C179.216 45.8451 181.31 46.5875 182.419 47.0884C184.37 47.9738 185.98 49.6106 186.848 51.5693C188.002 55.1201 188.271 57.0878 189.121 73.1424C189.765 85.3063 189.497 95.1 189.416 97.3986C188.146 98.0158 183.932 99.733 176.729 99.733C172.238 99.733 167.344 99.0712 162.199 97.7564C153.19 95.4667 151.91 92.6136 151.758 92.1574C151.955 91.1199 152.85 85.8429 152.25 77.8559C151.767 71.3893 151.364 67.6507 150.845 62.9193L150.55 60.1824C149.834 53.5012 149.539 49.4943 151.919 44.9507C152.832 43.2245 154.353 41.4536 158.764 41.4536ZM158.764 40.5592C154.272 40.5592 152.313 42.2854 151.132 44.5482C148.636 49.3244 148.94 53.5996 149.664 60.2898C150.327 66.4612 150.792 70.2892 151.364 77.9274C152.018 86.6568 150.854 92.1574 150.854 92.1574C150.854 92.1574 151.105 95.8513 161.985 98.624C167.818 100.109 172.73 100.627 176.729 100.627C185.855 100.627 190.293 97.9442 190.293 97.9442C190.293 97.9442 190.758 87.1756 190.016 73.0887C189.183 57.3114 188.906 54.9949 187.689 51.2473C186.795 49.1723 185.095 47.312 182.795 46.2655C180.898 45.4069 176.353 43.9132 173.651 42.8757C168.068 40.7202 161.707 40.6039 160.365 40.6039C160.195 40.6039 160.106 40.6039 160.106 40.6039C159.631 40.5681 159.193 40.5592 158.764 40.5592Z" fill="#20514C"/>
<path d="M174.117 37.4645L173.607 43.2692C170.43 43.9579 162.709 43.4659 161.26 41.4893L161.564 36.1676L174.117 37.4645Z" fill="#FFA8A7"/>
<path d="M182.393 22.5906C182.393 22.5906 183.869 23.7086 184.987 27.5635L182.804 29.1645C182.088 26.4544 181.31 23.6907 182.393 22.5906Z" fill="#F28F8F"/>
<path d="M176.756 11.7951C182.178 12.1529 183.09 14.9792 182.285 24.2273C184.191 33.0104 181.561 36.4807 180.424 37.6345C177.865 39.0029 175.271 39.2265 171.737 38.3053C169.044 37.6076 162.226 35.5773 159.363 31.3468C155.999 26.3739 155.122 18.7983 158.701 15.9809C163.747 12.0366 174.6 11.652 176.756 11.7951Z" fill="#FFA8A7"/>
<path d="M180.424 37.6434C179.798 38.2784 176.165 39.4322 173.929 39.1817L174.117 37.4645C174.117 37.4645 177.221 38.0458 180.424 37.6434Z" fill="#F28F8F"/>
<path d="M177.329 18.1901C177.212 18.5836 177.042 18.9682 176.819 19.317C176.21 20.274 175.333 20.7928 174.403 21.3741C174.743 22.5011 175.11 23.6728 175.119 24.8802C175.128 25.2648 175.092 25.6673 174.877 25.9893C174.492 26.5527 173.848 26.4991 173.553 25.9714C173.195 25.3364 172.944 24.6834 172.452 24.1378C171.88 23.5028 171.092 23.0198 170.225 22.9393C166.95 22.6174 166.941 27.7155 168.247 29.4417C170.395 32.268 172.157 30.4523 172.157 30.4523C172.157 30.4523 173.258 34.8081 170.108 36.6953C170.108 36.6953 165.026 37.9385 161.555 36.1855C159.962 32.9209 157.824 31.0069 156.115 27.5366C153.136 21.4546 154.558 16.1061 156.589 15.006C156.017 12.1618 157.743 9.37123 161.421 7.63608C165.044 5.92777 170.055 6.79534 173.911 7.41248C176.201 7.77918 178.572 7.64502 180.809 7.01894C181.122 6.9295 181.444 6.83112 181.775 6.83112C182.106 6.83112 182.455 6.95633 182.643 7.22465C182.894 7.57347 182.804 8.06539 182.616 8.44999C182.428 8.83458 182.142 9.17446 182.008 9.57694C182.804 9.36228 183.636 9.95259 183.994 10.6949C184.495 11.7325 184.289 13.0293 183.627 13.9774C182.965 14.9255 181.918 15.5516 180.818 15.8735C179.708 16.2045 178.545 16.2581 177.391 16.2492C177.543 16.8753 177.507 17.555 177.329 18.1901Z" fill="#263238"/>
<path d="M173.821 40.7916C174.653 40.7469 175.548 42.4642 177.176 44.1546C177.176 44.1546 172.587 46.811 165.751 45.7824C158.907 44.7538 157.591 40.5859 157.591 40.5859C157.591 40.5859 159.157 39.3874 159.98 38.5735C160.982 37.5897 161.474 37.5718 161.474 37.5718L161.394 38.976C161.394 38.976 162.709 40.3355 166.878 41.1762C171.048 42.0349 173.821 40.7916 173.821 40.7916Z" fill="#20514C"/>
<path d="M198.041 81.0756C198.041 81.0756 196.082 71.273 194.659 64.395C193.236 57.517 193.782 49.5747 182.956 46.8557C181.167 49.5836 179.995 53.7695 180.603 58.9838C181.203 64.1982 183.591 72.382 184.191 75.1457C184.79 77.9094 186.821 83.419 189.398 87.256C192.834 92.3541 199.231 100.976 201.817 104.142C203.015 105.609 204.053 107.094 205.163 108.65C206.317 110.278 207.838 111.539 209.207 112.997C209.833 113.668 210.737 114.151 211.623 114.401C212.204 114.562 212.777 114.339 213.331 114.491C213.904 114.643 214.244 115.17 214.924 115.188C215.676 115.206 216.284 114.687 216.964 114.759C217.671 114.83 218.36 115.081 219.102 115.063C219.773 115.045 220.23 114.947 220.865 115.215C221.393 115.439 222.126 116.127 222.717 115.779C223.388 115.385 223.182 114.652 222.949 114.043C222.529 112.979 221.357 111.933 220.355 111.405C219.201 110.788 218.199 109.92 216.973 109.437C215.863 109.008 214.888 108.06 214.092 107.165C213.528 106.548 213.17 105.582 214.298 105.573C215.631 105.555 217.295 106.065 218.512 105.225C219.353 104.643 219.066 103.892 218.252 103.543C216.883 102.953 215.649 102.291 214.369 101.504C213.099 100.717 211.927 99.8045 210.647 99.0532C209.976 98.6596 209.243 98.3377 208.527 98.0425C206.514 97.2018 205.637 95.1893 204.617 93.4095C203.194 90.932 199.625 84.376 198.041 81.0756Z" fill="#FFA8A7"/>
<path d="M182.437 70.5933C182.437 70.5933 180.541 63.1339 180.049 60.0214C179.556 56.9089 179.288 48.7966 182.509 46.1492C184.844 46.7126 191.071 47.8217 192.87 53.689C194.668 59.5473 197.379 74.9937 197.379 74.9937L205.494 94.1608C205.494 94.1608 205.53 95.9496 202.13 98.2482C198.73 100.556 196.994 99.7687 196.994 99.7687C196.994 99.7687 190.293 89.6262 187.036 84.6265C184.853 81.2546 184.316 79.0275 182.437 70.5933Z" fill="#559793"/>
</g>
<defs>
<clipPath id="clip0_120_1917">
<rect width="407" height="387" fill="white" transform="translate(0.5 0.76709)"/>
</clipPath>
</defs>
</svg>
