<svg width="45" height="45" viewBox="0 0 45 45" fill="none" xmlns="http://www.w3.org/2000/svg">
<path d="M22.3953 0.86792C19.5331 0.86792 16.6989 1.43168 14.0545 2.52701C11.4101 3.62234 9.00742 5.22779 6.98351 7.2517C2.89604 11.3392 0.599731 16.883 0.599731 22.6635C0.599731 28.444 2.89604 33.9878 6.98351 38.0753C9.00742 40.0992 11.4101 41.7047 14.0545 42.8C16.6989 43.8953 19.5331 44.4591 22.3953 44.4591C28.1759 44.4591 33.7197 42.1628 37.8071 38.0753C41.8946 33.9878 44.1909 28.444 44.1909 22.6635C44.1909 19.8013 43.6271 16.9671 42.5318 14.3227C41.4365 11.6783 39.831 9.2756 37.8071 7.2517C35.7832 5.22779 33.3805 3.62234 30.7361 2.52701C28.0918 1.43168 25.2575 0.86792 22.3953 0.86792ZM31.5495 31.8176L20.2158 24.8431V11.7657H23.4851V23.0994L33.2931 28.9842L31.5495 31.8176Z" fill="#E0DDDD" fill-opacity="0.68"/>
<path d="M22.3953 0.86792C19.5331 0.86792 16.6989 1.43168 14.0545 2.52701C11.4101 3.62234 9.00742 5.22779 6.98351 7.2517C2.89604 11.3392 0.599731 16.883 0.599731 22.6635C0.599731 28.444 2.89604 33.9878 6.98351 38.0753C9.00742 40.0992 11.4101 41.7047 14.0545 42.8C16.6989 43.8953 19.5331 44.4591 22.3953 44.4591C28.1759 44.4591 33.7197 42.1628 37.8071 38.0753C41.8946 33.9878 44.1909 28.444 44.1909 22.6635C44.1909 19.8013 43.6271 16.9671 42.5318 14.3227C41.4365 11.6783 39.831 9.2756 37.8071 7.2517C35.7832 5.22779 33.3805 3.62234 30.7361 2.52701C28.0918 1.43168 25.2575 0.86792 22.3953 0.86792ZM31.5495 31.8176L20.2158 24.8431V11.7657H23.4851V23.0994L33.2931 28.9842L31.5495 31.8176Z" fill="#029894"/>
</svg>
