<svg width="47" height="47" viewBox="0 0 47 47" fill="none" xmlns="http://www.w3.org/2000/svg">
<path d="M23.4517 10.5531C20.454 10.5533 17.5237 11.4419 15.0308 13.1067C12.538 14.7716 10.5945 17.1379 9.44584 19.9067C8.2972 22.6756 7.99498 25.7228 8.57734 28.6633C9.15971 31.6038 10.6005 34.3058 12.7178 36.4279C13.0457 36.7564 13.2297 37.2018 13.2293 37.666C13.2288 38.1302 13.044 38.5752 12.7155 38.9031C12.3869 39.231 11.9416 39.415 11.4774 39.4146C11.0132 39.4142 10.5681 39.2293 10.2402 38.9008C8.12207 36.778 6.54664 34.176 5.64731 31.3153C4.74799 28.4545 4.55125 25.4191 5.07376 22.4662C5.59627 19.5133 6.82265 16.7297 8.64904 14.3513C10.4754 11.9728 12.8481 10.0695 15.566 8.80239C18.284 7.53532 21.2673 6.94184 24.2632 7.07221C27.2592 7.20258 30.1796 8.05295 32.7773 9.55133C35.3749 11.0497 37.5732 13.1519 39.1861 15.6801C40.799 18.2082 41.7789 21.0877 42.043 24.0749C41.0686 22.6646 39.6111 21.6603 37.9463 21.252C36.9906 18.154 35.0675 15.4436 32.459 13.5182C29.8505 11.5928 26.6938 10.5536 23.4517 10.5531ZM34.2696 21.3454C33.2523 18.8382 31.3954 16.7624 29.0166 15.4732C26.6377 14.1839 23.8848 13.7614 21.2289 14.2779C18.5729 14.7944 16.1789 16.2177 14.4566 18.3045C12.7342 20.3912 11.7905 23.0116 11.787 25.7173C11.787 28.9298 13.0887 31.8436 15.1884 33.9526C15.5163 34.2815 15.9615 34.4666 16.4259 34.4672C16.8903 34.4679 17.336 34.284 17.6648 33.9561C17.9937 33.6282 18.1788 33.183 18.1795 32.7186C18.1801 32.2542 17.9962 31.8085 17.6683 31.4797C16.7972 30.605 16.1357 29.5442 15.7337 28.377C15.3316 27.2098 15.1995 25.9667 15.3471 24.7411C15.4948 23.5155 15.9184 22.3393 16.5861 21.301C17.2539 20.2627 18.1483 19.3893 19.2023 18.7466C20.2562 18.1038 21.4422 17.7084 22.671 17.59C23.8997 17.4716 25.1394 17.6334 26.2966 18.0632C27.4539 18.493 28.4986 19.1796 29.3522 20.0714C30.2059 20.9631 30.8462 22.0368 31.2251 23.2117C32.0615 22.3368 33.1104 21.6937 34.2696 21.3454ZM18.7858 25.7173C18.7858 24.4798 19.2774 23.293 20.1524 22.418C21.0274 21.543 22.2142 21.0514 23.4517 21.0514C24.6892 21.0514 25.876 21.543 26.751 22.418C27.626 23.293 28.1176 24.4798 28.1176 25.7173C28.1176 26.9548 27.626 28.1416 26.751 29.0166C25.876 29.8916 24.6892 30.3832 23.4517 30.3832C22.2142 30.3832 21.0274 29.8916 20.1524 29.0166C19.2774 28.1416 18.7858 26.9548 18.7858 25.7173ZM40.9488 28.0502C40.9488 29.2877 40.4572 30.4745 39.5822 31.3495C38.7072 32.2246 37.5204 32.7161 36.2829 32.7161C35.0454 32.7161 33.8586 32.2246 32.9836 31.3495C32.1086 30.4745 31.617 29.2877 31.617 28.0502C31.617 26.8128 32.1086 25.626 32.9836 24.751C33.8586 23.8759 35.0454 23.3843 36.2829 23.3843C37.5204 23.3843 38.7072 23.8759 39.5822 24.751C40.4572 25.626 40.9488 26.8128 40.9488 28.0502ZM44.4482 38.5485C44.4482 41.453 42.1153 44.3809 36.2829 44.3809C30.4505 44.3809 28.1176 41.4647 28.1176 38.5485C28.1176 37.6204 28.4863 36.7303 29.1425 36.074C29.7988 35.4178 30.6889 35.0491 31.617 35.0491H40.9488C41.8769 35.0491 42.767 35.4178 43.4233 36.074C44.0795 36.7303 44.4482 37.6204 44.4482 38.5485Z" fill="#029894"/>
</svg>
