<svg xmlns="http://www.w3.org/2000/svg" width="48" height="47" viewBox="0 0 48 47" fill="none">
  <g clip-path="url(#clip0_25_1636)">
    <path d="M4.62811 7.46265H43.5724C44.5945 7.49666 45.5654 7.91789 46.2885 8.64099C47.0116 9.3641 47.4328 10.335 47.4669 11.3571V38.6181C47.4328 39.6402 47.0116 40.6111 46.2885 41.3342C45.5654 42.0573 44.5945 42.4785 43.5724 42.5125H4.62811C3.60605 42.4785 2.63512 42.0573 1.91202 41.3342C1.18891 40.6111 0.767689 39.6402 0.733673 38.6181L0.733673 11.3571C0.767689 10.335 1.18891 9.3641 1.91202 8.64099C2.63512 7.91789 3.60605 7.49666 4.62811 7.46265ZM16.3114 28.7068C12.417 28.7068 4.62811 30.8292 4.62811 34.7237V36.6709H27.9947V34.7237C27.9947 30.8292 20.2058 28.7068 16.3114 28.7068ZM16.3114 13.3043C15.156 13.3043 14.0266 13.6469 13.066 14.2888C12.1053 14.9307 11.3566 15.843 10.9144 16.9104C10.4723 17.9779 10.3566 19.1524 10.582 20.2856C10.8074 21.4188 11.3638 22.4596 12.1807 23.2766C12.9977 24.0936 14.0386 24.6499 15.1718 24.8753C16.3049 25.1007 17.4795 24.9851 18.5469 24.5429C19.6143 24.1008 20.5267 23.352 21.1686 22.3914C21.8104 21.4307 22.153 20.3013 22.153 19.1459C22.153 17.5966 21.5376 16.1108 20.4421 15.0153C19.3465 13.9198 17.8607 13.3043 16.3114 13.3043ZM33.8363 21.0932V26.9348H41.6252V21.0932H33.8363Z" fill="#029894"/>
  </g>
  <defs>
    <clipPath id="clip0_25_1636">
      <rect width="46.7332" height="46.7332" fill="white" transform="translate(0.733643 0.0178223)"/>
    </clipPath>
  </defs>
</svg>