<svg width="60" height="60" viewBox="0 0 60 60" fill="none" xmlns="http://www.w3.org/2000/svg">
<g id="clarity:employee-group-solid">
<path id="Vector" d="M30.3612 26.3109C34.6697 26.3109 38.1623 22.8623 38.1623 18.6081C38.1623 14.354 34.6697 10.9054 30.3612 10.9054C26.0528 10.9054 22.5601 14.354 22.5601 18.6081C22.5601 22.8623 26.0528 26.3109 30.3612 26.3109Z" fill="#029894"/>
<path id="Vector_2" d="M18.5285 19.3784H19.3151V18.6737C19.3199 16.6244 19.898 14.6174 20.9841 12.8796C22.0703 11.1418 23.621 9.74266 25.461 8.84037C24.9162 7.5859 24.0419 6.50239 22.9309 5.70491C21.8198 4.90743 20.5135 4.42576 19.1507 4.31107C17.7879 4.19638 16.4195 4.45294 15.1908 5.0535C13.9621 5.65407 12.919 6.57622 12.1723 7.722C11.4256 8.86779 11.0031 10.1944 10.9498 11.561C10.8965 12.9276 11.2144 14.2831 11.8696 15.4836C12.5248 16.684 13.4929 17.6846 14.6711 18.379C15.8493 19.0735 17.1936 19.4358 18.5612 19.4276L18.5285 19.3784ZM41.4401 18.6082V19.3129H42.2268C43.5762 19.2993 44.8969 18.9223 46.0501 18.2214C47.2033 17.5205 48.1461 16.5216 48.7795 15.3301C49.4128 14.1385 49.7132 12.7982 49.6491 11.4502C49.5849 10.1023 49.1585 8.7966 48.4149 7.67055C47.6712 6.54451 46.6377 5.63978 45.4232 5.05158C44.2087 4.46339 42.858 4.21349 41.5135 4.32819C40.1689 4.44289 38.8801 4.91794 37.7828 5.70335C36.6854 6.48876 35.8201 7.55547 35.2779 8.7912C37.1184 9.68996 38.6709 11.0856 39.7598 12.8204C40.8488 14.5552 41.4308 16.5599 41.4401 18.6082ZM37.3921 27.0812C40.6506 27.7262 43.8013 28.8298 46.7501 30.359C47.1656 30.5872 47.5418 30.8804 47.8646 31.2276H56.5834V25.6226C56.585 25.4076 56.5279 25.1963 56.4181 25.0114C56.3083 24.8266 56.1502 24.6752 55.9607 24.5737C51.7129 22.3519 46.9877 21.1987 42.194 21.214H41.1123C40.5444 23.5227 39.2381 25.5829 37.3921 27.0812ZM11.5632 34.407C11.5602 33.5817 11.7831 32.7712 12.2078 32.0634C12.6324 31.3556 13.2426 30.7775 13.9723 30.3918C16.9212 28.8625 20.0718 27.759 23.3304 27.114C21.4933 25.6284 20.1879 23.5868 19.6101 21.2959H18.5285C13.7347 21.2807 9.00954 22.4338 4.76179 24.6557C4.57228 24.7572 4.41411 24.9085 4.30435 25.0934C4.19459 25.2782 4.13742 25.4896 4.13901 25.7045V36.177H11.5632V34.407ZM36.0318 43.8634H45.7996V46.1579H36.0318V43.8634Z" fill="#029894"/>
<path id="Vector_3" d="M54.6331 34.9643H43.374V33.3254C43.374 32.8907 43.2013 32.4739 42.8939 32.1665C42.5866 31.8592 42.1697 31.6865 41.7351 31.6865C41.3004 31.6865 40.8836 31.8592 40.5762 32.1665C40.2689 32.4739 40.0962 32.8907 40.0962 33.3254V34.9643H36.9167V30.3262C34.7605 29.8734 32.5644 29.6373 30.3612 29.6215C25.1885 29.6 20.0896 30.8493 15.5129 33.2598C15.309 33.3656 15.1384 33.5256 15.0198 33.7223C14.9012 33.919 14.8393 34.1446 14.8409 34.3743V43.5684H26.4934V53.5493C26.4934 53.9839 26.6661 54.4008 26.9734 54.7081C27.2808 55.0155 27.6976 55.1882 28.1323 55.1882H54.6331C55.0678 55.1882 55.4846 55.0155 55.792 54.7081C56.0993 54.4008 56.272 53.9839 56.272 53.5493V36.6032C56.272 36.1685 56.0993 35.7516 55.792 35.4443C55.4846 35.1369 55.0678 34.9643 54.6331 34.9643ZM52.9942 51.9432H29.7712V38.242H40.0962V39.7334C40.0962 40.1681 40.2689 40.585 40.5762 40.8923C40.8836 41.1997 41.3004 41.3723 41.7351 41.3723C42.1697 41.3723 42.5866 41.1997 42.8939 40.8923C43.2013 40.585 43.374 40.1681 43.374 39.7334V38.242H52.9942V51.9432Z" fill="#029894"/>
</g>
</svg>
