<svg xmlns="http://www.w3.org/2000/svg" width="48" height="49" viewBox="0 0 48 49" fill="none">
  <path d="M24.0515 4.65601C13.1733 4.65601 4.32321 13.5061 4.32321 24.3843C4.32321 35.2625 13.1733 44.1126 24.0515 44.1126C34.9297 44.1126 43.7798 35.2625 43.7798 24.3843C43.7798 13.5061 34.9297 4.65601 24.0515 4.65601ZM30.9426 18.4658C31.3359 18.4558 31.7273 18.5246 32.0937 18.6682C32.46 18.8118 32.7938 19.0273 33.0756 19.302C33.3573 19.5767 33.5811 19.9051 33.7339 20.2677C33.8867 20.6302 33.9654 21.0198 33.9653 21.4132C33.9651 21.8067 33.8862 22.1962 33.7332 22.5587C33.5801 22.9212 33.356 23.2493 33.0741 23.5239C32.7922 23.7984 32.4582 24.0137 32.0918 24.157C31.7254 24.3004 31.334 24.369 30.9406 24.3587C30.1724 24.3385 29.4424 24.0191 28.9062 23.4685C28.3701 22.918 28.0702 22.1798 28.0704 21.4113C28.0707 20.6428 28.3711 19.9048 28.9076 19.3546C29.4441 18.8043 30.1743 18.4854 30.9426 18.4658ZM17.1466 18.4658C17.5353 18.4659 17.9203 18.5426 18.2794 18.6915C18.6385 18.8404 18.9647 19.0586 19.2395 19.3335C19.5143 19.6085 19.7322 19.9349 19.8809 20.2941C20.0295 20.6533 20.106 21.0383 20.1058 21.427C20.1057 21.8158 20.029 22.2007 19.8801 22.5598C19.7312 22.9189 19.5131 23.2451 19.2381 23.5199C18.9631 23.7947 18.6367 24.0127 18.2775 24.1613C17.9183 24.31 17.5334 24.3864 17.1446 24.3863C16.3595 24.386 15.6067 24.0739 15.0517 23.5185C14.4968 22.9632 14.1851 22.2102 14.1854 21.4251C14.1856 20.64 14.4978 19.8871 15.0531 19.3321C15.6084 18.7772 16.3615 18.4655 17.1466 18.4658ZM24.0515 36.2213C16.1602 36.2213 14.1874 28.33 14.1874 28.33H33.9156C33.9156 28.33 31.9428 36.2213 24.0515 36.2213Z" fill="#029894"/>
</svg>