<svg width="63" height="64" viewBox="0 0 63 64" fill="none" xmlns="http://www.w3.org/2000/svg">
<g id="material-symbols:folder-managed-sharp">
<path id="Vector" d="M44.4736 58.066L43.6986 54.1285C43.182 53.9098 42.698 53.6805 42.2468 53.4408C41.7956 53.201 41.3323 52.9053 40.857 52.5535L37.1111 53.7348L34.5278 49.2723L37.4986 46.6473C37.4125 46.1223 37.3695 45.5535 37.3695 44.941C37.3695 44.3285 37.4125 43.7598 37.4986 43.2348L34.5278 40.6098L37.1111 36.1473L40.857 37.3285C41.3306 36.9785 41.7939 36.6836 42.2468 36.4439C42.6998 36.2041 43.1837 35.974 43.6986 35.7535L44.4736 31.816H49.6403L50.4153 35.7535C50.932 35.9723 51.4168 36.2024 51.8697 36.4439C52.3227 36.6854 52.7851 36.9803 53.257 37.3285L57.0028 36.1473L59.5862 40.6098L56.6153 43.2348C56.7014 43.7598 56.7445 44.3285 56.7445 44.941C56.7445 45.5535 56.7014 46.1223 56.6153 46.6473L59.5862 49.2723L57.0028 53.7348L53.257 52.5535C52.7834 52.9035 52.321 53.1993 51.8697 53.4408C51.4185 53.6823 50.9337 53.9115 50.4153 54.1285L49.6403 58.066H44.4736ZM47.057 50.191C48.4778 50.191 49.6946 49.6774 50.7072 48.6501C51.7199 47.6229 52.2254 46.3865 52.2236 44.941C52.2236 43.4973 51.7182 42.2618 50.7072 41.2345C49.6963 40.2073 48.4795 39.6928 47.057 39.691C45.6361 39.691 44.4203 40.2055 43.4093 41.2345C42.3984 42.2635 41.892 43.499 41.8903 44.941C41.8903 46.3848 42.3966 47.6211 43.4093 48.6501C44.422 49.6791 45.6379 50.1928 47.057 50.191ZM5.72363 52.816V10.816H26.3903L31.557 16.066H57.3903V29.9129C55.8834 28.8191 54.2473 27.9879 52.482 27.4191C50.7167 26.8504 48.8868 26.566 46.9924 26.566C41.9118 26.566 37.639 28.3711 34.1739 31.9814C30.7088 35.5916 28.9754 39.8896 28.9736 44.8754C28.9736 46.2754 29.1243 47.6316 29.4257 48.9441C29.7271 50.2566 30.1792 51.5473 30.782 52.816H5.72363Z" fill="#029894"/>
</g>
</svg>
