<svg width="45" height="62" viewBox="0 0 45 62" fill="none" xmlns="http://www.w3.org/2000/svg">
<g id="teenyicons:contract-solid" clip-path="url(#clip0_29_1815)">
<path id="Vector" fill-rule="evenodd" clip-rule="evenodd" d="M0.356461 11.4134C0.356461 10.0867 0.884466 8.81426 1.82432 7.87611C2.76418 6.93797 4.0389 6.41092 5.36805 6.41092H32.7882L43.7903 17.393V51.4333C43.7903 52.76 43.2623 54.0324 42.3224 54.9706C41.3826 55.9087 40.1078 56.4358 38.7787 56.4358H5.36805C4.0389 56.4358 2.76418 55.9087 1.82432 54.9706C0.884466 54.0324 0.356461 52.76 0.356461 51.4333V11.4134ZM20.4028 19.7509H10.3796V23.0859H20.4028V19.7509ZM33.7671 29.7558H10.3796V33.0908H33.7671V29.7558ZM18.0808 42.789C16.731 43.1492 15.6752 44.1797 15.3077 45.2902L12.1337 44.2364C12.8788 42.0119 14.8299 40.2077 17.2121 39.5674C19.5743 38.9337 22.2705 39.4673 24.6026 41.6051C25.2792 41.4069 25.9766 41.2872 26.6807 41.2482C28.4849 41.1515 30.0986 41.6051 31.4851 42.182C32.5042 42.6056 33.4898 43.1392 34.325 43.5894C34.5856 43.7361 34.8362 43.8695 35.0668 43.9896C36.1459 44.5565 36.7373 44.7633 37.1081 44.7633V48.0983C35.8051 48.0983 34.5222 47.4713 33.5132 46.9444C33.2091 46.7842 32.9062 46.6219 32.6044 46.4575C31.824 46.0168 31.0211 45.6171 30.1988 45.2602C29.0829 44.7933 27.9837 44.5198 26.8611 44.5799C26.6934 44.588 26.5262 44.6035 26.3599 44.6266L26.3633 44.6732C26.4535 45.7538 26.0058 46.6442 25.4278 47.2845C24.3653 48.4651 22.6313 49.0854 21.3283 49.3189C20.6531 49.4541 19.9608 49.4822 19.2769 49.4023C18.889 49.3527 18.5145 49.2281 18.1743 49.0354C17.9099 48.8835 17.6821 48.6754 17.5072 48.4258C17.3322 48.1763 17.2144 47.8914 17.162 47.5914C17.0798 47.0302 17.2122 46.4587 17.5329 45.9906C17.7755 45.6348 18.0706 45.3178 18.4082 45.0501C19.043 44.5265 19.9618 43.9596 21.1947 43.3393L21.2849 43.2726C20.8111 42.9789 20.2824 42.7846 19.731 42.7015C19.1796 42.6184 18.6203 42.6481 18.0808 42.789Z" fill="#029894"/>
</g>
<defs>
<clipPath id="clip0_29_1815">
<rect width="44" height="61" fill="white" transform="translate(0.111206 0.433929)"/>
</clipPath>
</defs>
</svg>
