<svg width="48" height="48" viewBox="0 0 48 48" fill="none" xmlns="http://www.w3.org/2000/svg">
<g clip-path="url(#clip0_25_1632)">
<path fill-rule="evenodd" clip-rule="evenodd" d="M24.9654 1.88806C24.7483 1.78935 24.5127 1.73828 24.2742 1.73828C24.0358 1.73828 23.8002 1.78935 23.5831 1.88806L14.8257 5.87448L24.2676 10.1747L33.7161 5.87114L24.9654 1.88806ZM13.2565 19.0223V8.82589L22.6049 13.0827V24.3509L14.2281 20.5414C13.9364 20.4088 13.6891 20.195 13.5157 19.9256C13.3422 19.6563 13.2499 19.3427 13.2498 19.0223H13.2565ZM25.9436 41.4317V30.2804L34.7978 34.3136V45.5817L26.431 41.7723C26.2483 41.6892 26.0854 41.5738 25.9436 41.4317ZM38.1366 45.5884V34.3136L47.4949 30.0534V40.2531C47.4949 40.5735 47.4026 40.8871 47.2291 41.1565C47.0557 41.4258 46.8083 41.6396 46.5167 41.7723L38.1366 45.5884ZM22.5982 30.2804V41.4451C22.4593 41.5811 22.2978 41.6918 22.1208 41.7723L13.7406 45.5884V34.3136L22.5982 30.2804ZM10.4019 34.3136V45.5817L2.03845 41.7723C1.74681 41.6396 1.4995 41.4258 1.32604 41.1565C1.15258 40.8871 1.0603 40.5735 1.06021 40.2531V30.0567L10.4086 34.3136H10.4019ZM25.9369 24.3576V13.0794L35.2953 8.81922V19.0223C35.2952 19.3427 35.2029 19.6563 35.0295 19.9256C34.856 20.195 34.6087 20.4088 34.3171 20.5414L25.9369 24.3576ZM35.7794 23.1222C35.9965 23.0235 36.2321 22.9725 36.4705 22.9725C36.709 22.9725 36.9446 23.0235 37.1616 23.1222L45.9091 27.102L36.4605 31.4056L27.0287 27.102L35.7828 23.1156L35.7794 23.1222ZM11.3868 23.1222C11.6039 23.0235 11.8395 22.9725 12.0779 22.9725C12.3164 22.9725 12.552 23.0235 12.7691 23.1222L21.5165 27.102L12.0713 31.4089L2.63274 27.102L11.3868 23.1222Z" fill="#029894"/>
</g>
<defs>
<clipPath id="clip0_25_1632">
<rect width="46.7419" height="46.7419" fill="white" transform="translate(0.906616 0.29248)"/>
</clipPath>
</defs>
</svg>
