<svg width="44" height="43" viewBox="0 0 44 43" fill="none" xmlns="http://www.w3.org/2000/svg">
<path d="M0.733765 40.56H5.45983V26.3818H0.733765V40.56ZM23.088 42.923L16.1644 41.4106L9.24068 39.7802C8.83994 39.7021 8.4799 39.4844 8.22457 39.1658C7.96048 38.8565 7.81773 38.4618 7.82286 38.0551V28.603C7.82955 28.1984 7.9709 27.8076 8.22457 27.4924C8.4885 27.1838 8.84478 26.9684 9.24068 26.878L20.536 25.4838L31.8549 24.066L32.2093 25.3893L32.5638 26.689C32.5701 27.1246 32.4467 27.5523 32.2093 27.9177C31.9922 28.2998 31.662 28.6053 31.2641 28.7921L26.5381 29.9736L21.812 31.1551L25.6401 32.7147L29.4919 34.2507L34.8559 32.7383L40.0782 31.1078C40.5423 30.9905 41.0338 31.0583 41.4488 31.2969C41.6578 31.4097 41.8412 31.5645 41.9876 31.7516C42.134 31.9386 42.2402 32.1539 42.2995 32.3839L42.7485 34.2034L43.2211 35.9993C43.3282 36.4484 43.2606 36.9215 43.032 37.3226C42.789 37.7273 42.3999 38.0234 41.945 38.1497L33.3672 40.5127L24.7894 42.8757C24.507 42.9118 24.2211 42.9118 23.9387 42.8757C23.6597 42.9382 23.3723 42.9541 23.088 42.923ZM14.912 0.388428L10.1859 5.11449L5.45983 9.84055L10.1859 14.5666L14.912 19.2927L16.5661 17.6386L18.2202 15.9844L15.1483 12.9125L12.0763 9.84055L15.1483 6.76861L18.2202 3.69667L16.5661 2.04255L14.912 0.388428ZM29.0901 0.388428L27.436 2.04255L25.7819 3.69667L28.8538 6.76861L31.9258 9.84055L28.8538 12.9125L25.7819 15.9844L27.436 17.6386L29.0901 19.2927L33.8162 14.5666L38.5423 9.84055L33.8162 5.11449L29.0901 0.388428Z" fill="#029894"/>
</svg>
