<svg width="55" height="57" viewBox="0 0 55 57" fill="none" xmlns="http://www.w3.org/2000/svg">
<g clip-path="url(#clip0_0_9786)">
<path d="M27.5371 56.643C27.4609 56.5841 27.3895 56.5174 27.3079 56.4674C19.6013 51.7465 11.8952 47.0256 4.18262 42.3142C3.90404 42.144 3.79809 41.9696 3.80345 41.6398C3.82487 40.313 3.81237 38.9862 3.81237 37.6267C2.72546 37.6267 1.65163 37.6267 0.560547 37.6267C0.560547 31.6653 0.560547 25.7366 0.560547 19.786C1.63556 19.786 2.70224 19.786 3.81237 19.786C3.81237 19.6604 3.81237 19.5562 3.81237 19.452C3.81237 18.2627 3.81595 17.074 3.80821 15.8847C3.80702 15.6978 3.85226 15.5841 4.0213 15.4788C11.8071 10.6192 19.5894 5.75484 27.3674 0.883948C27.5668 0.758946 27.6912 0.804185 27.8639 0.912519C34.7705 5.2346 41.6801 9.55251 48.5891 13.871C49.4457 14.4061 50.2987 14.9466 51.1606 15.4728C51.3255 15.5734 51.3862 15.6794 51.3844 15.8734C51.3749 17.1603 51.3796 18.4479 51.3796 19.7776C52.4797 19.7776 53.5648 19.7776 54.6499 19.7776C54.6499 25.7236 54.6499 31.6701 54.6499 37.616C53.5648 37.616 52.4791 37.616 51.3796 37.616C51.3796 38.9856 51.3671 40.313 51.3886 41.6392C51.3939 41.9684 51.2898 42.1434 51.0106 42.3142C43.298 47.0256 35.5913 51.7471 27.8847 56.468C27.8032 56.518 27.7317 56.5847 27.6555 56.6436C27.6162 56.643 27.5764 56.643 27.5371 56.643ZM53.6862 20.7503C36.2765 20.7503 18.8929 20.7503 1.50818 20.7503C1.50818 26.0593 1.50818 31.3468 1.50818 36.6487C18.906 36.6487 36.2896 36.6487 53.6862 36.6487C53.6862 31.3445 53.6862 26.0569 53.6862 20.7503ZM47.8123 19.7628C47.8123 19.13 47.8034 18.5175 47.8171 17.9056C47.8219 17.6854 47.7629 17.5568 47.5641 17.4324C40.9944 13.3353 34.4288 9.23167 27.8668 5.1215C27.6591 4.99174 27.521 5.00067 27.3192 5.12686C22.9989 7.83523 18.6739 10.5359 14.3494 13.2383C12.0994 14.6448 9.84816 16.0502 7.60111 17.4603C7.51183 17.5163 7.39218 17.6205 7.3898 17.705C7.37254 18.3854 7.38028 19.0669 7.38028 19.7622C20.862 19.7628 34.3151 19.7628 47.8123 19.7628ZM7.38028 37.6273C7.38028 38.3826 7.38801 39.1053 7.37551 39.8279C7.37194 40.0219 7.43504 40.1273 7.59873 40.2273C14.1774 44.2494 20.7531 48.275 27.3252 52.3078C27.5371 52.4376 27.6782 52.4239 27.8805 52.3001C31.5996 50.0143 35.3229 47.7363 39.0456 45.4571C41.8902 43.7154 44.7337 41.972 47.5814 40.235C47.7546 40.1297 47.826 40.0184 47.8183 39.8136C47.8022 39.3981 47.8135 38.9815 47.8135 38.5654C47.8135 38.2529 47.8135 37.9404 47.8135 37.6273C34.3169 37.6273 20.8656 37.6273 7.38028 37.6273ZM5.00167 37.6273C5.00167 38.8559 4.99632 40.0541 5.01179 41.2517C5.01298 41.3529 5.13501 41.4862 5.23501 41.5482C12.6018 46.0673 19.9721 50.5792 27.3389 55.0977C27.5222 55.2102 27.6526 55.221 27.8424 55.1043C35.2175 50.5804 42.5962 46.0625 49.9772 41.5488C50.1457 41.4458 50.1957 41.3345 50.1945 41.1458C50.1856 40.066 50.1903 38.9856 50.1903 37.9053C50.1903 37.8118 50.1903 37.7183 50.1903 37.6338C49.5701 37.6338 48.9993 37.6338 48.4064 37.6338C48.4064 38.4719 48.3975 39.2928 48.4123 40.113C48.4165 40.3392 48.3481 40.4636 48.1522 40.5833C41.3867 44.7184 34.6247 48.8602 27.8657 53.006C27.6728 53.1245 27.5377 53.137 27.3359 53.0138C20.7471 48.9697 14.1589 44.9226 7.54992 40.9106C6.95646 40.5505 6.69455 40.191 6.77134 39.4987C6.8392 38.8856 6.78563 38.2588 6.78563 37.6273C6.17967 37.6273 5.60942 37.6273 5.00167 37.6273ZM50.1909 19.7634C50.1909 18.6705 50.1856 17.6014 50.1957 16.533C50.1975 16.3395 50.1362 16.2347 49.9725 16.1324C42.5819 11.5192 35.1937 6.90188 27.8079 2.2798C27.6514 2.18158 27.5436 2.1798 27.3859 2.27861C20.0007 6.90069 12.6125 11.5186 5.22192 16.1318C5.05941 16.233 4.99453 16.3359 4.99632 16.5312C5.00763 17.5223 5.00108 18.5127 5.00227 19.5038C5.00227 19.5895 5.01298 19.6747 5.01834 19.7538C5.61894 19.7538 6.19693 19.7538 6.78563 19.7538C6.78563 19.0175 6.79455 18.3044 6.78086 17.5913C6.7761 17.3598 6.84158 17.2222 7.04694 17.0943C13.8173 12.871 20.584 8.64119 27.3472 4.40661C27.5335 4.28994 27.6567 4.28756 27.8442 4.40542C34.6157 8.64536 41.3914 12.8799 48.1695 17.1098C48.354 17.2246 48.4165 17.3467 48.4123 17.5598C48.3987 18.2895 48.407 19.0205 48.407 19.764C49.0082 19.7634 49.579 19.7634 50.1909 19.7634Z" fill="#414141"/>
<path d="M23.6209 33.6812C23.3584 33.6812 23.1435 33.6812 22.9102 33.6812C22.9102 32.3693 22.9102 31.0681 22.9102 29.73C23.2 29.73 23.4858 29.7151 23.7673 29.7401C23.8376 29.746 23.9256 29.8699 23.9566 29.9568C24.2447 30.7669 24.5221 31.5806 24.803 32.3931C24.8346 32.4842 24.8727 32.5735 24.9334 32.7294C25.0167 32.5008 25.0804 32.3342 25.1388 32.1657C25.3947 31.4282 25.6554 30.6925 25.9001 29.9508C25.9572 29.7782 26.0382 29.7246 26.2167 29.7234C26.9787 29.7187 26.9787 29.7127 26.9787 30.4776C26.9787 31.4282 26.9787 32.3782 26.9787 33.3288C26.9787 33.436 26.9787 33.5431 26.9787 33.6711C26.7322 33.6711 26.5096 33.6711 26.2537 33.6711C26.2537 32.7639 26.2537 31.849 26.2537 30.9342C26.2334 30.9294 26.2132 30.9246 26.1929 30.9199C26.1632 30.9919 26.1298 31.0627 26.1048 31.1365C25.8417 31.9133 25.5721 32.6883 25.3245 33.4705C25.2566 33.6854 25.1304 33.7056 24.9507 33.6937C24.781 33.6824 24.6191 33.7354 24.5411 33.4794C24.3078 32.7139 24.0376 31.9598 23.781 31.202C23.7477 31.1032 23.7072 31.0068 23.6203 30.9187C23.6209 31.8306 23.6209 32.7431 23.6209 33.6812Z" fill="#414141"/>
<path d="M35.1459 31.1399C35.1459 31.9798 35.1459 32.8197 35.1459 33.6756C34.906 33.6756 34.684 33.6756 34.4453 33.6756C34.4453 32.3643 34.4453 31.0631 34.4453 29.7577C34.8685 29.6815 35.1959 29.697 35.4453 30.141C35.8227 30.8125 36.2828 31.4381 36.7084 32.0821C36.7608 32.1619 36.8192 32.2375 36.9203 32.3786C36.9203 31.4583 36.9203 30.6137 36.9203 29.7482C37.1703 29.7482 37.3924 29.7482 37.6334 29.7482C37.6334 31.0589 37.6334 32.3601 37.6334 33.6917C37.4775 33.6917 37.3299 33.6792 37.1858 33.6947C36.9942 33.7155 36.8822 33.6435 36.7775 33.4804C36.3185 32.7631 35.8447 32.0554 35.3751 31.3452C35.3227 31.2661 35.2644 31.1911 35.2084 31.1143C35.1876 31.1226 35.1668 31.1309 35.1459 31.1399Z" fill="#414141"/>
<path d="M22.3021 31.7178C22.3075 32.8731 21.4027 33.7773 20.23 33.7892C19.058 33.8005 18.1384 32.9065 18.1348 31.7505C18.1306 30.5695 19.0354 29.6594 20.2134 29.6582C21.3735 29.6576 22.2967 30.5671 22.3021 31.7178ZM20.2027 33.0755C20.9509 33.0809 21.5598 32.4791 21.5676 31.7255C21.5753 30.9814 20.9586 30.3677 20.2086 30.3719C19.4646 30.3761 18.8669 30.9677 18.8604 31.7053C18.8538 32.4606 19.4509 33.0702 20.2027 33.0755Z" fill="#414141"/>
<path d="M35.2891 27.7431C35.2891 26.4032 35.2891 25.1103 35.2891 23.7841C35.9635 23.7937 36.6266 23.7097 37.2706 23.9199C37.9974 24.1568 38.4302 24.7157 38.476 25.4818C38.4915 25.7371 38.4968 26.0008 38.4516 26.2502C38.307 27.0509 37.773 27.5556 36.9611 27.6901C36.7956 27.7175 36.6278 27.7372 36.4599 27.7401C36.0766 27.7485 35.6926 27.7431 35.2891 27.7431ZM36.0272 27.027C36.6373 27.036 37.2248 27.0669 37.5909 26.4877C37.8558 26.0693 37.823 25.3282 37.5284 24.9645C37.1373 24.4824 36.5909 24.4943 36.0272 24.4984C36.0272 25.3532 36.0272 26.1723 36.0272 27.027Z" fill="#414141"/>
<path d="M24.2189 26.3863C24.2189 26.8273 24.2189 27.269 24.2189 27.7273C23.9742 27.7273 23.7522 27.7273 23.5117 27.7273C23.5117 26.4214 23.5117 25.1202 23.5117 23.7559C24.0701 23.7862 24.6266 23.7719 25.1665 23.8582C25.7766 23.9553 26.1076 24.4077 26.1177 25.0083C26.129 25.6678 25.7927 26.0976 25.0707 26.3011C25.429 26.7732 25.7778 27.2327 26.1665 27.7446C25.8588 27.7446 25.6064 27.7583 25.3576 27.7363C25.2808 27.7297 25.1963 27.6381 25.1433 27.5654C24.8534 27.1672 24.5724 26.763 24.2885 26.3607C24.2647 26.369 24.2421 26.3779 24.2189 26.3863ZM24.2463 24.4969C24.2463 24.916 24.2463 25.2845 24.2463 25.6708C24.6439 25.6458 25.0808 25.7868 25.3088 25.3702C25.3939 25.2148 25.3796 24.9166 25.282 24.7672C25.0397 24.3969 24.6272 24.5059 24.2463 24.4969Z" fill="#414141"/>
<path d="M30.084 33.6616C30.2828 33.1831 30.4792 32.711 30.6751 32.2396C30.9971 31.464 31.3251 30.6914 31.6364 29.911C31.7096 29.7277 31.8304 29.7128 31.9852 29.7265C32.1322 29.739 32.29 29.6747 32.3775 29.8896C32.8769 31.1152 33.3906 32.3354 33.8983 33.5581C33.9126 33.5926 33.912 33.6331 33.918 33.6688C33.8983 33.6753 33.8894 33.6813 33.8799 33.6819C33.1602 33.7301 33.1406 33.7372 32.9043 33.0569C32.7989 32.7533 32.6572 32.6325 32.3376 32.6664C32.0638 32.6956 31.7834 32.6813 31.5072 32.6688C31.3447 32.6616 31.2423 32.7027 31.2036 32.8712C31.1864 32.9473 31.1447 33.0176 31.1155 33.0908C30.8489 33.7605 30.8489 33.761 30.084 33.6616ZM31.5697 31.945C31.8769 31.945 32.1465 31.945 32.4554 31.945C32.3096 31.5694 32.1745 31.2211 32.0132 30.8062C31.8501 31.2241 31.7132 31.5759 31.5697 31.945Z" fill="#414141"/>
<path d="M17.7331 30.8551C17.3652 30.842 17.0241 30.9343 16.6824 30.6331C16.1693 30.1807 15.3848 30.3146 14.933 30.8527C14.4735 31.4004 14.5217 32.2075 15.0431 32.7081C15.5342 33.1789 16.2884 33.192 16.7979 32.7504C16.8783 32.6807 16.9979 32.6337 17.1039 32.623C17.2997 32.6027 17.4985 32.617 17.6991 32.617C17.5676 33.2861 16.642 33.8486 15.8033 33.7807C14.7015 33.692 13.9265 32.8831 13.8806 31.7742C13.8384 30.7569 14.5806 29.87 15.5848 29.6908C16.6039 29.5093 17.5592 30.1646 17.7331 30.8551Z" fill="#414141"/>
<path d="M33.1793 26.1148C33.1793 26.4404 33.1793 26.7148 33.1793 27.0166C33.6209 27.0166 34.062 27.0166 34.5275 27.0166C34.5275 27.2643 34.5275 27.4851 34.5275 27.7262C33.8459 27.7262 33.1572 27.7262 32.4453 27.7262C32.4453 26.4297 32.4453 25.1291 32.4453 23.8047C33.134 23.8047 33.8221 23.8047 34.5311 23.8047C34.5311 24.0178 34.5311 24.2297 34.5311 24.4868C34.0912 24.4868 33.6429 24.4868 33.181 24.4868C33.181 24.8136 33.181 25.0964 33.181 25.4107C33.6162 25.4107 34.037 25.4107 34.4751 25.4107C34.4751 25.6553 34.4751 25.869 34.4751 26.1148C34.0572 26.1148 33.6364 26.1148 33.1793 26.1148Z" fill="#414141"/>
<path d="M21.3962 27.0397C21.8581 27.0397 22.3004 27.0397 22.7575 27.0397C22.7575 27.2778 22.7575 27.4909 22.7575 27.7248C22.0629 27.7248 21.3742 27.7248 20.6641 27.7248C20.6641 26.4284 20.6641 25.1266 20.6641 23.8027C21.3474 23.8027 22.0355 23.8027 22.748 23.8027C22.748 24.0158 22.748 24.2265 22.748 24.492C22.3843 24.492 22.0129 24.5016 21.6421 24.4885C21.4403 24.4813 21.3516 24.5385 21.3682 24.7533C21.3843 24.9581 21.3718 25.1653 21.3718 25.4117C21.8266 25.4117 22.2552 25.4117 22.698 25.4117C22.698 25.6647 22.698 25.8772 22.698 26.12C22.2629 26.12 21.8409 26.12 21.3956 26.12C21.3962 26.4296 21.3962 26.7105 21.3962 27.0397Z" fill="#414141"/>
<path d="M28.51 32.2251C28.51 32.7019 28.51 33.1739 28.51 33.6685C28.2647 33.6685 28.0421 33.6685 27.7969 33.6685C27.7969 32.3774 27.7969 31.0762 27.7969 29.7351C28.3874 29.7417 28.9897 29.6447 29.5707 29.8584C30.0927 30.0506 30.3344 30.5018 30.2802 31.1227C30.2356 31.6393 29.8826 32.0376 29.3511 32.137C29.082 32.187 28.8052 32.1953 28.51 32.2251ZM28.5153 31.4864C28.8802 31.4631 29.2713 31.5881 29.4784 31.2245C29.56 31.081 29.5475 30.7881 29.4505 30.6572C29.2231 30.3494 28.8582 30.4423 28.5153 30.4524C28.5153 30.8012 28.5153 31.1215 28.5153 31.4864Z" fill="#414141"/>
<path d="M16.5039 23.7809C16.7009 23.7809 16.8396 23.7946 16.9747 23.778C17.1986 23.7506 17.3045 23.8363 17.3771 24.0542C17.6426 24.8506 17.9301 25.6399 18.2099 26.431C18.245 26.531 18.2879 26.628 18.3468 26.7768C18.6694 25.8649 18.9885 25.0137 19.2664 24.15C19.3635 23.8488 19.5039 23.7286 19.8093 23.7786C19.9129 23.7952 20.0212 23.7809 20.1718 23.7809C20.0492 24.1036 19.9426 24.3863 19.8337 24.6684C19.4998 25.5351 19.1652 26.4012 18.8307 27.2673C18.6295 27.7875 18.6289 27.7875 18.0271 27.7233C17.5283 26.4339 17.0277 25.1369 16.5039 23.7809Z" fill="#414141"/>
<path d="M39.7497 31.5548C40.0027 31.0179 40.2468 30.5429 40.4497 30.0506C40.5587 29.7869 40.7116 29.6869 40.9849 29.7244C41.1075 29.7411 41.2349 29.7274 41.4099 29.7274C41.2009 30.1333 41.0176 30.4905 40.8343 30.847C40.7938 30.9262 40.7587 31.0095 40.7099 31.0828C40.2313 31.7959 40.0003 32.5709 40.1128 33.434C40.1223 33.509 40.1027 33.5881 40.0956 33.6774C39.8581 33.6774 39.6348 33.6774 39.3753 33.6774C39.3753 33.2637 39.3854 32.8608 39.37 32.459C39.364 32.3078 39.3265 32.1459 39.2586 32.0107C38.9265 31.3482 38.5795 30.6929 38.2384 30.0351C38.1943 29.9506 38.1574 29.8625 38.0938 29.7274C38.3384 29.7274 38.5455 29.7054 38.7438 29.7375C38.833 29.7518 38.9342 29.8577 38.9795 29.9476C39.236 30.4607 39.4765 30.9798 39.7497 31.5548Z" fill="#414141"/>
<path d="M30.1569 26.1267C29.7581 26.1267 29.3765 26.1267 28.9652 26.1267C28.9652 26.6767 28.9652 27.1963 28.9652 27.7303C28.7122 27.7303 28.4896 27.7303 28.2539 27.7303C28.2539 26.4148 28.2539 25.1142 28.2539 23.7969C28.9134 23.7969 29.5533 23.7969 30.2158 23.7969C30.2158 24.0219 30.2158 24.2344 30.2158 24.479C29.8158 24.479 29.4146 24.479 28.989 24.479C28.989 24.7999 28.989 25.0892 28.989 25.4094C29.3706 25.4094 29.7521 25.4094 30.1575 25.4094C30.1569 25.6576 30.1569 25.8767 30.1569 26.1267Z" fill="#414141"/>
<path d="M30.8965 23.7949C31.1352 23.7949 31.3501 23.7949 31.5894 23.7949C31.5894 25.1062 31.5894 26.4069 31.5894 27.7265C31.3649 27.7265 31.1417 27.7265 30.8965 27.7265C30.8965 26.4295 30.8965 25.1283 30.8965 23.7949Z" fill="#414141"/>
<path d="M27.3988 27.7306C27.1643 27.7306 26.9422 27.7306 26.7012 27.7306C26.7012 26.4193 26.7012 25.1198 26.7012 23.8008C26.9375 23.8008 27.1595 23.8008 27.3988 23.8008C27.3988 25.1157 27.3988 26.4151 27.3988 27.7306Z" fill="#414141"/>
<path d="M27.9136 14.8569C28.1225 14.0652 28.3404 13.2759 28.5368 12.4813C28.6035 12.2122 28.741 12.0932 29.0142 12.1057C29.2285 12.1152 29.4434 12.1075 29.688 12.1075C29.3517 13.1991 29.0261 14.2563 28.6999 15.3129C28.6124 15.5962 28.507 15.876 28.4416 16.1641C28.3957 16.3653 28.2922 16.4016 28.1088 16.401C27.466 16.398 27.4654 16.404 27.2802 15.798C27.0523 15.0527 26.8249 14.3075 26.5409 13.5611C26.3207 14.27 26.1005 14.9795 25.8808 15.6885C25.8749 15.7075 25.8725 15.7272 25.8665 15.7462C25.6528 16.4468 25.6522 16.4504 24.926 16.3909C24.8522 16.3849 24.7415 16.3117 24.7207 16.2462C24.2897 14.8801 23.8689 13.5099 23.4355 12.1069C23.7094 12.1069 23.9534 12.1122 24.1981 12.1057C24.4445 12.0991 24.5766 12.2051 24.6373 12.4497C24.8266 13.2176 25.0314 13.9825 25.2314 14.748C25.2463 14.8045 25.2665 14.8599 25.301 14.9688C25.5612 14.1325 25.8159 13.3503 26.0457 12.5605C26.1808 12.0956 26.3106 12.0634 26.7963 12.1295C26.9195 12.1462 27.0671 12.3479 27.1159 12.4944C27.3785 13.2801 27.6142 14.0754 27.8588 14.8676C27.8767 14.8641 27.8951 14.8605 27.9136 14.8569Z" fill="#414141"/>
<path d="M31.8099 12.1094C31.5558 12.9296 31.3129 13.7112 31.0712 14.4933C30.9397 14.9177 30.8105 15.3433 30.679 15.7678C30.5153 16.2957 30.3784 16.3975 29.8319 16.3981C29.7242 16.3981 29.6164 16.3981 29.4766 16.3981C29.4992 16.2922 29.5111 16.2088 29.5355 16.1297C29.8712 15.0237 30.2081 13.9183 30.5456 12.813C30.7373 12.1862 30.8421 12.1088 31.4879 12.11C31.5766 12.11 31.6653 12.1094 31.8099 12.1094Z" fill="#414141"/>
<path d="M35.7871 41.1404C35.9556 41.1832 36.0859 41.2184 36.2181 41.2487C36.2478 41.2559 36.2889 41.2606 36.3115 41.2463C36.6788 41.0124 37.0044 41.0892 37.2538 41.3344C37.5074 41.2529 37.7211 41.1404 37.9425 41.1231C38.3574 41.0904 38.683 41.3648 38.7133 41.7785C38.7455 42.2196 38.7205 42.6648 38.7205 43.1267C38.5854 43.1267 38.452 43.1267 38.2699 43.1267C38.2699 42.8148 38.2729 42.5035 38.2693 42.1922C38.2633 41.7344 38.1407 41.5434 37.8687 41.5547C37.6092 41.5654 37.5014 41.7452 37.4961 42.1904C37.4925 42.4958 37.4955 42.8011 37.4955 43.1261C37.3389 43.1261 37.205 43.1261 37.0216 43.1261C37.0216 42.816 37.0246 42.5047 37.0211 42.1934C37.0157 41.7344 36.8955 41.5458 36.6216 41.5541C36.3597 41.5618 36.252 41.7398 36.2472 42.1862C36.2437 42.4922 36.2466 42.7981 36.2466 43.1249C36.0853 43.1249 35.9443 43.1249 35.7877 43.1249C35.7871 42.4821 35.7871 41.8523 35.7871 41.1404Z" fill="#414141"/>
<path d="M23.209 41.3037C23.209 41.049 23.209 40.8049 23.209 40.5293C23.3644 40.5216 23.4971 40.5144 23.6578 40.5061C23.6578 41.3877 23.6578 42.2502 23.6578 43.1293C23.5328 43.1293 23.4084 43.1293 23.2757 43.1293C23.262 43.071 23.2483 43.0091 23.2328 42.943C22.7179 43.2984 22.2798 43.2865 21.9173 42.9151C21.5798 42.5692 21.5263 41.9412 21.8001 41.5412C22.1096 41.0894 22.5602 41.0085 23.209 41.3037ZM22.0989 42.1537C22.0971 42.5037 22.3245 42.7484 22.6572 42.7543C22.9965 42.7597 23.2519 42.4966 23.2447 42.1478C23.2382 41.8174 22.9804 41.5537 22.6644 41.5537C22.3441 41.5537 22.1007 41.8121 22.0989 42.1537Z" fill="#414141"/>
<path d="M29.8798 42.3714C29.3727 42.3714 28.8828 42.3714 28.3852 42.3714C28.5102 42.7303 28.8352 42.8375 29.1733 42.6875C29.3572 42.6059 29.5667 42.5833 29.8072 42.5232C29.6381 43.0595 29.1233 43.3083 28.6102 43.1726C28.0744 43.0309 27.7459 42.5035 27.8578 41.9642C27.9786 41.3809 28.4994 41.0279 29.0947 41.1255C29.6203 41.2118 29.9584 41.7273 29.8798 42.3714ZM28.3685 41.9303C28.7262 41.9303 29.0447 41.9303 29.3911 41.9303C29.3006 41.6672 29.1209 41.5583 28.8929 41.5607C28.659 41.563 28.4613 41.6601 28.3685 41.9303Z" fill="#414141"/>
<path d="M17.7046 41.9813C17.6112 42.2997 17.526 42.6212 17.4189 42.9349C17.3909 43.017 17.2832 43.1414 17.2344 43.1319C17.1463 43.1146 17.0362 43.0265 17.0034 42.9414C16.7832 42.3712 16.5814 41.7944 16.373 41.217C16.835 41.1188 16.8403 41.1229 16.9653 41.5325C17.0421 41.7837 17.1225 42.0337 17.2242 42.3563C17.3278 41.9771 17.3992 41.6688 17.5016 41.3717C17.5302 41.2896 17.6504 41.1908 17.7302 41.1884C17.8088 41.1866 17.9344 41.2825 17.9629 41.3628C18.0665 41.6575 18.1385 41.9634 18.2469 42.3515C18.3469 42.0325 18.4243 41.7926 18.4975 41.5515C18.6219 41.1408 18.6207 41.1408 19.1017 41.2021C18.8796 41.8182 18.6641 42.4301 18.4338 43.0361C18.413 43.0908 18.2987 43.1361 18.2278 43.1361C18.176 43.1361 18.0963 43.0628 18.0778 43.0063C17.9665 42.6688 17.8701 42.3271 17.7683 41.9866C17.7469 41.9854 17.726 41.9837 17.7046 41.9813Z" fill="#414141"/>
<path d="M20.8617 41.3619C20.9129 41.0601 21.1302 41.1994 21.3159 41.1828C21.3159 41.8352 21.3159 42.4727 21.3159 43.1316C21.1415 43.1131 20.9177 43.2745 20.8605 42.9548C20.301 43.3125 19.8385 43.278 19.4903 42.853C19.1736 42.4667 19.1944 41.8072 19.5355 41.4262C19.8843 41.0381 20.3599 41.0143 20.8617 41.3619ZM20.8814 42.1607C20.8826 41.8137 20.654 41.5613 20.3314 41.5536C20.001 41.5453 19.7504 41.8042 19.7439 42.1596C19.7373 42.5209 19.9706 42.7602 20.3248 42.7548C20.6593 42.75 20.8802 42.5137 20.8814 42.1607Z" fill="#414141"/>
<path d="M34.4379 41.1133C35.026 41.1133 35.4932 41.5811 35.4891 42.1663C35.4849 42.7532 35.0159 43.2109 34.4242 43.2056C33.8438 43.2002 33.3962 42.7496 33.3926 42.1675C33.3879 41.574 33.8456 41.1133 34.4379 41.1133ZM34.4402 41.5532C34.1236 41.5508 33.8742 41.8097 33.8652 42.1484C33.8569 42.4883 34.0914 42.7443 34.42 42.7538C34.7569 42.7633 35.0182 42.4996 35.0135 42.1538C35.0099 41.8234 34.7539 41.555 34.4402 41.5532Z" fill="#414141"/>
<path d="M33.1514 41.8198C32.9192 41.8246 32.7037 41.8794 32.4996 41.6704C32.3019 41.468 31.943 41.5288 31.7507 41.7389C31.5501 41.9585 31.543 42.3258 31.7353 42.5579C31.9073 42.7657 32.2519 42.8044 32.4936 42.6764C32.6871 42.574 32.9025 42.5127 33.1609 42.4121C33.04 42.9728 32.6204 43.2472 32.0894 43.202C31.5323 43.1544 31.1245 42.7139 31.1192 42.1538C31.1144 41.6371 31.499 41.1895 32.0037 41.124C32.5829 41.049 33.021 41.3103 33.1514 41.8198Z" fill="#414141"/>
<path d="M27.5285 43.1314C27.3749 43.1314 27.2398 43.1314 27.0624 43.1314C27.0624 42.8403 27.0648 42.5469 27.0613 42.2534C27.0595 42.1254 27.0601 41.9939 27.0333 41.8701C26.991 41.6766 26.8648 41.5504 26.6571 41.557C26.4404 41.5635 26.2922 41.6861 26.2839 41.904C26.2684 42.307 26.2797 42.7106 26.2797 43.1296C26.0928 43.1296 25.9589 43.1296 25.8047 43.1296C25.8047 42.4838 25.8047 41.8475 25.8047 41.1415C25.966 41.1879 26.0999 41.2343 26.2374 41.2623C26.2821 41.2713 26.3392 41.2367 26.3868 41.2129C26.9237 40.9474 27.4678 41.2207 27.5214 41.8183C27.5601 42.2481 27.5285 42.6844 27.5285 43.1314Z" fill="#414141"/>
<path d="M24.0977 40.5254C24.2447 40.5254 24.3786 40.5254 24.531 40.5254C24.531 41.3974 24.531 42.2534 24.531 43.1278C24.3881 43.1278 24.2542 43.1278 24.0977 43.1278C24.0977 42.2665 24.0977 41.4028 24.0977 40.5254Z" fill="#414141"/>
<path d="M25.3997 41.1914C25.3997 41.2807 25.3997 41.348 25.3997 41.4152C25.3997 41.9783 25.3997 42.5414 25.3997 43.1254C25.2414 43.1254 25.1003 43.1254 24.9414 43.1254C24.9414 42.4837 24.9414 41.8456 24.9414 41.1914C25.0884 41.1914 25.2236 41.1914 25.3997 41.1914Z" fill="#414141"/>
<path d="M30.2852 43.1301C30.2852 42.9813 30.2852 42.8474 30.2852 42.6914C30.4274 42.6914 30.5685 42.6914 30.7286 42.6914C30.7286 42.8313 30.7286 42.9724 30.7286 43.1301C30.5881 43.1301 30.4542 43.1301 30.2852 43.1301Z" fill="#414141"/>
<path d="M25.3904 40.5312C25.3904 40.6723 25.3904 40.7872 25.3904 40.9217C25.2416 40.9217 25.1017 40.9217 24.9434 40.9217C24.9434 40.7967 24.9434 40.6759 24.9434 40.5312C25.085 40.5312 25.2243 40.5312 25.3904 40.5312Z" fill="#414141"/>
</g>
<defs>
<clipPath id="clip0_0_9786">
<rect width="54.0894" height="55.834" fill="white" transform="translate(0.560547 0.808594)"/>
</clipPath>
</defs>
</svg>
