<svg width="47" height="44" viewBox="0 0 47 44" fill="none" xmlns="http://www.w3.org/2000/svg">
<path d="M46.3604 34.4115V0.539062H0.46875V34.4115H20.6829V39.6926H13.7628V43.6991H33.0664V39.6926H26.1462V34.4115H46.3604ZM3.56462 3.63493H43.0824V31.1335H3.56462V3.63493ZM23.4006 26.9177C28.6116 26.9177 32.8703 22.6871 32.8703 17.4479C32.8703 12.2088 28.6397 7.97824 23.4006 7.97824C18.1614 7.97824 13.9589 12.2369 13.9589 17.476C13.9589 22.6871 18.1895 26.9177 23.4006 26.9177ZM22.8775 18.2511C21.1406 17.6441 20.0572 16.7661 20.0572 15.2065C20.0572 13.7684 21.0098 12.6382 22.7562 12.2835V10.7239H24.0636V12.2088C25.147 12.2088 25.9313 12.433 26.5104 12.7411L25.9781 14.6089C25.5485 14.4315 24.8481 14.1326 23.8862 14.1326C22.9243 14.1326 22.4013 14.6089 22.4013 15.0853C22.4013 15.739 23.0083 15.9911 24.3158 16.5234C26.0996 17.1772 26.9307 18.083 26.9307 19.5679C26.9307 21.0528 26.0249 22.1828 24.1104 22.6124V24.0973H22.803V22.6592C21.6731 22.6592 20.5336 22.3604 19.9827 22.0522L20.4589 20.1377C21.0659 20.4366 22.0185 20.7915 23.0272 20.7915C24.1106 20.7915 24.6429 20.3153 24.6429 19.6615C24.6427 19.0075 24.129 18.7367 22.8775 18.2511Z" fill="#029894"/>
</svg>
