<svg width="44" height="44" viewBox="0 0 44 44" fill="none" xmlns="http://www.w3.org/2000/svg">
<g clip-path="url(#clip0_155_63771)">
<path d="M25.1806 6.50821C25.6727 5.88512 25.977 5.0995 25.977 4.24587C25.977 2.22877 24.341 0.587891 22.3239 0.587891C20.3068 0.587891 18.6684 2.22877 18.6684 4.24587C18.6684 5.09967 18.9295 5.88512 19.4213 6.50821C17.9153 7.46289 16.8789 9.14334 16.8789 11.0547V15.5051C16.8789 16.1825 17.4978 16.7704 18.1751 16.7704H26.4827C27.1601 16.7704 27.6701 16.1823 27.6701 15.5051V11.0547C27.6699 9.14334 26.6869 7.46273 25.1806 6.50821Z" fill="#029894"/>
<path d="M14.1003 20.9504V16.5C14.1003 14.5888 13.1595 12.908 11.6532 11.9535C12.1453 11.3304 12.4707 10.5448 12.4707 9.69118C12.4707 7.67409 10.8452 6.0332 8.82809 6.0332C6.81099 6.0332 5.17779 7.67425 5.17779 9.69135C5.17779 10.5451 5.48109 11.3306 5.97289 11.9537C4.46673 12.9084 3.47266 14.5888 3.47266 16.5001V20.9506C3.47266 21.628 4.01237 22.1665 4.68958 22.1665H12.9972C13.6745 22.1664 14.1003 21.6278 14.1003 20.9504Z" fill="#029894"/>
<path d="M38.6319 11.9535C39.1237 11.3304 39.4504 10.5448 39.4504 9.69118C39.4504 7.67409 37.8253 6.0332 35.8082 6.0332C33.7912 6.0332 32.1581 7.67409 32.1581 9.69118C32.1581 10.545 32.4594 11.3304 32.9514 11.9535C31.4453 12.9082 30.4492 14.5887 30.4492 16.5V20.9504C30.4492 21.6278 30.993 22.1664 31.6704 22.1664H39.978C40.6554 22.1664 41.0769 21.6278 41.0769 20.9504V16.5C41.0769 14.5887 40.1379 12.908 38.6319 11.9535Z" fill="#029894"/>
<path d="M25.1806 33.5276C25.6727 32.9045 25.977 32.119 25.977 31.2654C25.977 29.2483 24.341 27.6074 22.3239 27.6074C20.3068 27.6074 18.6684 29.2483 18.6684 31.2654C18.6684 32.119 18.9295 32.9046 19.4213 33.5277C17.9153 34.4824 16.8789 36.1629 16.8789 38.0742V42.5246C16.8789 43.202 17.4978 43.7483 18.1751 43.7483H26.4827C27.1601 43.7483 27.6701 43.2019 27.6701 42.5246V38.0742C27.6699 36.1627 26.6869 34.4824 25.1806 33.5276ZM22.3288 30.0599C22.9935 30.0599 23.5343 30.6008 23.5343 31.2654C23.5343 31.9302 22.9935 32.4709 22.3288 32.4709C21.6642 32.4709 21.1234 31.93 21.1234 31.2654C21.1234 30.6008 21.6641 30.0599 22.3288 30.0599ZM25.2174 41.2958H19.3314V38.0742C19.3314 36.4598 20.6602 35.1466 22.2746 35.1466C23.8886 35.1466 25.2174 36.4598 25.2174 38.0742V41.2958Z" fill="#029894"/>
<path d="M23.4212 23.241V19.1774C23.4212 18.5 22.8724 17.9512 22.195 17.9512C21.5176 17.9512 20.9688 18.5 20.9688 19.1774V23.241C20.9688 23.9184 21.5176 24.4673 22.195 24.4673C22.8722 24.4673 23.4212 23.9183 23.4212 23.241Z" fill="#029894"/>
<path d="M10.3957 23.5076C9.90377 23.0421 9.12813 23.0632 8.66199 23.5549C8.19634 24.0467 8.2176 24.8228 8.70924 25.2886L14.8747 31.1267C15.1119 31.3512 15.415 31.4625 15.7177 31.4625C16.0425 31.4625 16.3671 31.334 16.6082 31.0795C17.0739 30.5877 17.0526 29.8115 16.561 29.3457L10.3957 23.5076Z" fill="#029894"/>
<path d="M34.2522 23.4902L28.1036 29.3417C27.6129 29.8085 27.5938 30.5848 28.0606 31.0753C28.3016 31.3287 28.625 31.4563 28.949 31.4563C29.2527 31.4563 29.5569 31.3441 29.7942 31.1183L35.9427 25.2668C36.4334 24.8 36.4525 24.0239 35.9857 23.5334C35.5189 23.0424 34.7426 23.0236 34.2522 23.4902Z" fill="#029894"/>
</g>
<defs>
<clipPath id="clip0_155_63771">
<rect width="43.16" height="43.16" fill="white" transform="translate(0.695312 0.587891)"/>
</clipPath>
</defs>
</svg>
