<svg width="43" height="43" viewBox="0 0 43 43" fill="none" xmlns="http://www.w3.org/2000/svg">
<path d="M21.3094 0.3125C9.54002 0.3125 0 9.85386 0 21.6242C0 33.3952 9.54002 42.9365 21.3094 42.9365C33.078 42.9365 42.618 33.3952 42.618 21.6242C42.618 9.85386 33.078 0.3125 21.3094 0.3125ZM15.571 17.2216C15.571 17.252 15.558 17.2789 15.5348 17.2978L9.53719 21.7585L15.5348 26.2214C15.558 26.2374 15.571 26.2664 15.571 26.2955V29.0486C15.571 29.0827 15.5543 29.1132 15.5268 29.1291C15.5144 29.1357 15.5021 29.14 15.4876 29.14C15.4716 29.14 15.4549 29.1341 15.4411 29.1233L6.80339 22.6979C6.78092 22.6812 6.76635 22.6529 6.76635 22.6232V20.8945C6.76635 20.864 6.78084 20.8357 6.80339 20.819L15.4411 14.3937C15.4549 14.3828 15.4716 14.3777 15.4876 14.3777C15.502 14.3777 15.5144 14.3814 15.5268 14.3886C15.5544 14.4038 15.571 14.4344 15.571 14.4692V17.2216ZM19.8539 30.3161C19.8416 30.3532 19.8111 30.3778 19.7747 30.3778H17.3603C17.3328 30.3778 17.3081 30.3632 17.2921 30.3385C17.2768 30.3154 17.2724 30.2848 17.2812 30.2573L22.7641 12.9314C22.775 12.8951 22.8069 12.8712 22.8425 12.8712H25.2576C25.2837 12.8712 25.3098 12.885 25.3251 12.909C25.3403 12.9329 25.3447 12.9634 25.336 12.9917L19.8539 30.3161ZM35.8502 22.6232C35.8502 22.6529 35.8372 22.6813 35.8139 22.6979L27.1762 29.1232C27.1624 29.1341 27.1465 29.1399 27.1298 29.1399C27.1159 29.1399 27.103 29.1355 27.0905 29.1291C27.063 29.1131 27.0463 29.0826 27.0463 29.0485V26.2961C27.0463 26.2663 27.0593 26.2373 27.0826 26.2213L33.0801 21.7584L27.0826 17.2977C27.0594 17.2803 27.0463 17.2528 27.0463 17.2223V14.4692C27.0463 14.4344 27.063 14.4038 27.0905 14.3886C27.1029 14.3814 27.1159 14.3777 27.1298 14.3777C27.1465 14.3777 27.1624 14.3828 27.1762 14.3937L35.8139 20.819C35.8372 20.8357 35.8502 20.864 35.8502 20.8945V22.6232Z" fill="#029894"/>
</svg>
