<svg width="44" height="45" viewBox="0 0 44 45" fill="none" xmlns="http://www.w3.org/2000/svg">
<path fill-rule="evenodd" clip-rule="evenodd" d="M14.0234 12.3426L21.653 4.71289L29.2828 12.3426L21.653 19.9722L14.0234 12.3426ZM19.1098 12.3426L21.653 9.79935L24.1964 12.3426L21.653 14.8858L19.1098 12.3426Z" fill="#029894"/>
<path fill-rule="evenodd" clip-rule="evenodd" d="M3.85156 22.5144L11.4812 14.8848L19.1109 22.5144L11.4812 30.1441L3.85156 22.5144ZM8.93802 22.5144L11.4812 19.9712L14.0245 22.5144L11.4812 25.0576L8.93802 22.5144Z" fill="#029894"/>
<path fill-rule="evenodd" clip-rule="evenodd" d="M24.1973 22.5144L31.8269 30.1441L39.4567 22.5144L31.8269 14.8848L24.1973 22.5144ZM31.8269 19.9712L29.2837 22.5144L31.8269 25.0576L34.3701 22.5144L31.8269 19.9712Z" fill="#029894"/>
<path fill-rule="evenodd" clip-rule="evenodd" d="M14.0234 32.6885L21.653 25.0587L29.2828 32.6885L21.653 40.3181L14.0234 32.6885ZM19.1098 32.6885L21.653 30.1453L24.1964 32.6885L21.653 35.2317L19.1098 32.6885Z" fill="#029894"/>
</svg>
