<svg width="47" height="47" viewBox="0 0 47 47" fill="none" xmlns="http://www.w3.org/2000/svg">
<g clip-path="url(#clip0_155_63748)">
<path d="M28.4933 37.371H7.05974V6.62999H28.4875V8.9297H31.3675V6.00222C31.3695 3.24458 29.1053 0.986328 26.3495 0.986328H9.20149C6.44185 0.986328 4.18359 3.24458 4.18359 6.00222V41.9684C4.18359 44.7301 6.44185 46.9863 9.20149 46.9863H26.3495C29.1053 46.9863 31.3695 44.7301 31.3695 41.9684V37.3177H28.4933V37.371ZM17.7725 44.4754C16.5013 44.4754 15.4749 43.447 15.4749 42.1777C15.4749 40.9045 16.5013 39.878 17.7725 39.878C19.0458 39.878 20.0743 40.9064 20.0743 42.1777C20.0743 43.447 19.0459 44.4754 17.7725 44.4754Z" fill="#029894"/>
<path d="M15.9449 9.71484H9.51562V13.6352H15.9449V9.71484Z" fill="#029894"/>
<path d="M15.9449 19.7539H9.51562V23.6743H15.9449V19.7539Z" fill="#029894"/>
<path d="M15.9449 30.2578H9.51562V34.1762H15.9449V30.2578Z" fill="#029894"/>
<path d="M38.7632 21.4771C38.5361 20.2888 38.0762 19.1892 37.4248 18.2279L39.7305 15.9203L37.3755 13.5732L35.0738 15.8768C34.1164 15.2215 33.011 14.7674 31.8265 14.5385V11.2715H28.4945V14.5385C27.3081 14.7674 26.2125 15.2234 25.2453 15.8768L22.9476 13.5732L20.5926 15.9222L22.8944 18.2298C22.2449 19.1912 21.787 20.2907 21.5599 21.477H18.2969V24.8072H21.5598C21.7869 25.9896 22.2468 27.0891 22.8962 28.0544L20.5926 30.358L22.9475 32.7031L25.2512 30.4014C26.2145 31.0567 27.314 31.5128 28.5003 31.7437V35.0048H31.8324V31.7418C33.0167 31.5148 34.1143 31.0548 35.0796 30.4034L37.3813 32.7052L39.7363 30.358L37.4307 28.0544C38.082 27.0931 38.5401 25.9916 38.769 24.8053H42.034V21.4771H38.7632ZM30.1645 26.7655C28.1609 26.7655 26.5343 25.1468 26.5343 23.1412C26.5343 21.1376 28.1608 19.5091 30.1645 19.5091C32.1701 19.5091 33.7887 21.1356 33.7887 23.1412C33.7887 25.1487 32.166 26.7655 30.1645 26.7655Z" fill="#029894"/>
</g>
<defs>
<clipPath id="clip0_155_63748">
<rect width="46" height="46" fill="white" transform="translate(0.109375 0.986328)"/>
</clipPath>
</defs>
</svg>
