<svg width="44" height="44" viewBox="0 0 44 44" fill="none" xmlns="http://www.w3.org/2000/svg">
<path d="M22.3523 11.2666C23.1616 11.2666 23.7011 10.7271 23.7011 9.91782V7.22032C23.7011 4.92745 21.9477 3.17407 19.6548 3.17407H6.16734C3.87447 3.17407 2.12109 4.92745 2.12109 7.22032V36.8928C2.12109 39.1857 3.87447 40.9391 6.16734 40.9391H19.6548C21.9477 40.9391 23.7011 39.1857 23.7011 36.8928V31.4978C23.7011 30.6886 23.1616 30.1491 22.3523 30.1491H4.81859V11.2666H22.3523ZM11.5623 34.1953H14.2598C15.0691 34.1953 15.6086 34.7348 15.6086 35.5441C15.6086 36.3533 15.0691 36.8928 14.2598 36.8928H11.5623C10.7531 36.8928 10.2136 36.3533 10.2136 35.5441C10.2136 34.7348 10.7531 34.1953 11.5623 34.1953Z" fill="#029894"/>
<path d="M38.5366 12.6154H14.2591C11.9663 12.6154 10.2129 14.3687 10.2129 16.6616V24.7541C10.2129 27.047 11.9663 28.8004 14.2591 28.8004H19.9239C21.0029 28.8004 22.0819 28.3957 22.7563 27.5865L25.4538 24.889C25.9933 24.3495 26.8025 24.3495 27.342 24.889L30.0395 27.5865C30.8488 28.3957 31.7929 28.8004 32.8719 28.8004H38.5366C40.8295 28.8004 42.5829 27.047 42.5829 24.7541V16.6616C42.5829 14.3687 40.8295 12.6154 38.5366 12.6154ZM18.3054 24.7541C16.0125 24.7541 14.2591 23.0007 14.2591 20.7079C14.2591 18.415 16.0125 16.6616 18.3054 16.6616C20.5983 16.6616 22.3516 18.415 22.3516 20.7079C22.3516 23.0007 20.5983 24.7541 18.3054 24.7541ZM34.4904 24.7541C32.1975 24.7541 30.4441 23.0007 30.4441 20.7079C30.4441 18.415 32.1975 16.6616 34.4904 16.6616C36.7833 16.6616 38.5366 18.415 38.5366 20.7079C38.5366 23.0007 36.7833 24.7541 34.4904 24.7541Z" fill="#029894"/>
</svg>
