<svg xmlns="http://www.w3.org/2000/svg" width="222" height="270" fill="none"><path fill="url(#a)" d="M180.456 190.558c47.385 15.507 54.691 43.6 16.318 62.746-38.373 19.146-107.887 22.1-155.268 6.593-47.38-15.507-54.691-43.595-16.322-62.741 38.37-19.146 107.891-22.088 155.272-6.598Z" style="mix-blend-mode:multiply"/><path fill="#001C63" d="M110.925 226.264c-22.787 0-44.29-3.091-62.174-8.942-25.13-8.224-39.555-20.926-40.618-35.761-.52-7.307 2.098-21.307 25.514-32.997C52.82 139 81.027 133.51 111.036 133.51c22.79 0 44.285 3.095 62.17 8.946 25.133 8.22 39.559 20.922 40.618 35.761.523 7.307-2.094 21.308-25.51 32.993-19.177 9.569-47.385 15.054-77.389 15.054Z" opacity=".2" style="mix-blend-mode:multiply"/><path fill="#001C63" d="M170.799 150.037c40.798 13.349 47.087 37.537 14.049 54.023-33.037 16.486-92.889 19.025-133.682 5.676-40.794-13.349-47.087-37.536-14.054-54.018 33.034-16.482 92.889-19.03 133.687-5.681Z" style="mix-blend-mode:multiply"/><g style="mix-blend-mode:multiply"><path fill="url(#b)" d="M158.623 156.112c32.494 10.636 37.503 29.877 11.191 43.027-26.311 13.15-73.982 15.154-106.472 4.523-32.49-10.631-37.506-29.898-11.19-43.027 26.315-13.129 73.982-15.154 106.471-4.523Z"/><path fill="url(#c)" d="M158.623 156.112c32.494 10.636 37.503 29.877 11.191 43.027-26.311 13.15-73.982 15.154-106.472 4.523-32.49-10.631-37.506-29.898-11.19-43.027 26.315-13.129 73.982-15.154 106.471-4.523Z"/><path fill="url(#d)" d="M158.623 156.112c32.494 10.636 37.503 29.877 11.191 43.027-26.311 13.15-73.982 15.154-106.472 4.523-32.49-10.631-37.506-29.898-11.19-43.027 26.315-13.129 73.982-15.154 106.471-4.523Z"/></g><path fill="#001C63" d="M110.927 242.054c-22.787 0-44.29-3.096-62.174-8.947-25.13-8.224-39.555-20.922-40.618-35.76-.52-7.308 2.098-21.308 25.514-32.993 19.172-9.569 47.38-15.059 77.389-15.059 22.79 0 44.285 3.096 62.17 8.946 25.133 8.225 39.559 20.922 40.618 35.761.523 7.307-2.094 21.308-25.51 32.997-19.177 9.565-47.385 15.055-77.389 15.055Z" opacity=".2" style="mix-blend-mode:multiply"/><path fill="#E6E6E8" d="M178.758 152.498h-13.419a71.542 71.542 0 0 0-11.706-4.917c-29.088-9.519-71.767-7.706-95.326 4.05-.573.286-1.112.576-1.636.867H43.338v14.743c-1.227 8.511 7.36 17.134 24.99 22.91 29.088 9.519 71.767 7.705 95.322-4.05 10.173-5.075 15.104-11.175 15.096-17.233l.012-16.37Z"/><path fill="#FDFDFF" d="M153.634 131.216c29.092 9.519 33.577 26.764 10.018 38.52-23.56 11.755-66.239 13.569-95.322 4.05-29.084-9.519-33.578-26.765-10.022-38.521 23.556-11.755 66.238-13.569 95.326-4.049Z"/><path fill="url(#e)" d="M110.979 179.967c37.434 0 67.78-12.298 67.78-27.47 0-15.171-30.346-27.47-67.78-27.47s-67.78 12.299-67.78 27.47c0 15.172 30.346 27.47 67.78 27.47Z" style="mix-blend-mode:multiply"/><path fill="#E6E6E8" d="M178.758 125.393h-13.419a71.546 71.546 0 0 0-11.706-4.918c-29.088-9.519-71.767-7.705-95.326 4.05a43.11 43.11 0 0 0-1.636.868H43.338v14.743c-1.227 8.51 7.36 17.133 24.99 22.909 29.088 9.519 71.767 7.706 95.322-4.05 10.173-5.074 15.104-11.174 15.096-17.237l.012-16.365Z"/><path fill="#FDFDFF" d="M153.634 104.111c29.092 9.519 33.577 26.764 10.018 38.52-23.56 11.755-66.239 13.565-95.322 4.046-29.084-9.519-33.578-26.765-10.022-38.516 23.556-11.752 66.238-13.57 95.326-4.05Z"/><path fill="url(#f)" d="M110.979 139.639c19.409 0 35.143-6.378 35.143-14.245 0-7.868-15.734-14.245-35.143-14.245s-35.143 6.377-35.143 14.245c0 7.867 15.734 14.245 35.143 14.245Z" opacity=".25" style="mix-blend-mode:multiply"/><path fill="#001C63" d="M108.881 24.083c0 5.048-1.156 8.862-3.468 11.44-2.311 2.578-5.423 3.866-9.334 3.863-3.95 0-7.085-1.288-9.405-3.863-2.32-2.576-3.475-6.389-3.467-11.44v-7.86c0-5.05 1.148-8.863 3.443-11.436C88.945 2.215 92.065.926 96.01.92c3.927 0 7.052 1.293 9.375 3.88 2.322 2.586 3.482 6.394 3.479 11.424l.017 7.859Zm-8.53-8.449c0-2.857-.37-4.911-1.112-6.162a3.57 3.57 0 0 0-1.345-1.399 3.5 3.5 0 0 0-1.869-.476 3.435 3.435 0 0 0-1.864.47 3.504 3.504 0 0 0-1.333 1.405c-.72 1.25-1.078 3.305-1.075 6.162v8.988c0 2.908.362 4.982 1.087 6.224.316.586.786 1.07 1.358 1.398a3.487 3.487 0 0 0 1.88.462c.65.022 1.291-.14 1.854-.47a3.512 3.512 0 0 0 1.332-1.39c.728-1.244 1.09-3.32 1.087-6.224v-8.988ZM113.984 22.414 116.11 1.46h21.605v6.677h-14.65l-.936 7.834c.726-.54 1.54-.95 2.404-1.208a11.298 11.298 0 0 1 3.165-.514c3.609-.066 6.384.999 8.325 3.195 1.94 2.197 2.91 5.317 2.907 9.361a12.815 12.815 0 0 1-3.312 8.922c-2.211 2.44-5.374 3.66-9.49 3.66a14.613 14.613 0 0 1-9.134-2.955 8.942 8.942 0 0 1-2.865-3.412 9.092 9.092 0 0 1-.881-4.393l.053-.153 8.35-.515c0 1.488.408 2.653 1.226 3.494.429.422.939.75 1.498.964.559.214 1.156.31 1.753.28 1.554 0 2.655-.552 3.304-1.659a8.23 8.23 0 0 0 .973-4.2c0-2.052-.363-3.669-1.088-4.85-.725-1.181-1.873-1.772-3.443-1.772a4.706 4.706 0 0 0-2.768.743 3.847 3.847 0 0 0-1.455 1.875l-7.667-.419Z"/><path fill="#001C63" fill-rule="evenodd" d="M101.111 67.131h16.84a4.013 4.013 0 0 1 2.849 1.201 4.135 4.135 0 0 1 1.184 2.892v10.72a4.135 4.135 0 0 1-1.184 2.892 4.013 4.013 0 0 1-2.849 1.201h-9.87l-6.119 5.346a.673.673 0 0 1-.957-.075.708.708 0 0 1-.162-.47l.328-4.777h-.055a4.012 4.012 0 0 1-2.85-1.202 4.133 4.133 0 0 1-1.183-2.891V71.224a4.133 4.133 0 0 1 1.182-2.89 4.012 4.012 0 0 1 2.846-1.203Zm5.712 41.839c.953-1.553 1.295-4.003.259-5.632-.416-.652-.25-1.709-.25-2.605 0-8.918-15.373-8.918-15.373 0 0 1.117.25 1.877-.342 2.774-1.013 1.483-.49 4.112.36 5.477.865 2.554 4.163 4.037 1.342 6.694-2.821 2.656-8.667-.672-9.819 7.27h56.831c-1.049-6.416-6.012-3.149-8.075-5.994-1.743-2.375.463-2.858 1.147-4.933.685-1.093 1.106-3.206.292-4.398-.463-.708-.278-1.445-.278-2.347 0-7.176-12.048-7.176-12.048 0 0 .714.134 1.685-.199 2.206-.832 1.315-.555 3.286.208 4.53.565 2.013 2.836 2.966 1.388 4.994-1.448 2.028-4.805 1.638-6.887 2.863-2.201-2.736-7.376-1.718-9.684-4.318-2.563-2.887.393-3.896 1.147-6.571l-.019-.01Zm17.14-33.503a3.939 3.939 0 0 1 2.049 1.108 3.707 3.707 0 0 1 1.161 2.685v9.19a4.056 4.056 0 0 1-1.149 2.837 3.938 3.938 0 0 1-2.787 1.19h-.143l.421 5.576-7.215-5.75h-11.012l3.991-4.116h11.34a3.34 3.34 0 0 0 2.369-1 3.442 3.442 0 0 0 .985-2.403v-9.317h-.01Zm-20.863 3.59a.68.68 0 0 1-.447-.221.698.698 0 0 1 0-.941.68.68 0 0 1 .447-.222h10.008a.682.682 0 0 1 .448.222.702.702 0 0 1 0 .94.682.682 0 0 1-.448.223H103.1Zm0-4.585a.687.687 0 0 1-.49-.206.706.706 0 0 1 .49-1.202h12.982a.69.69 0 0 1 .491.206.71.71 0 0 1 0 .996.69.69 0 0 1-.491.206H103.1Zm14.846-5.961h-16.835a2.662 2.662 0 0 0-1.887.797 2.743 2.743 0 0 0-.786 1.916v10.72c.002.719.285 1.408.786 1.916.5.508 1.179.795 1.887.797h.782a.672.672 0 0 1 .497.222.7.7 0 0 1 .178.52l-.263 3.867 5.05-4.407a.686.686 0 0 1 .463-.202h10.128a2.664 2.664 0 0 0 1.888-.797 2.74 2.74 0 0 0 .785-1.916v-10.72a2.74 2.74 0 0 0-.785-1.916 2.665 2.665 0 0 0-1.888-.797Z" clip-rule="evenodd"/><defs><radialGradient id="a" cx="0" cy="0" r="1" gradientTransform="matrix(107.502 0 0 42.5488 110.979 212.933)" gradientUnits="userSpaceOnUse"><stop stop-color="#2A48D0"/><stop offset="1" stop-color="#fff"/></radialGradient><radialGradient id="b" cx="0" cy="0" r="1" gradientTransform="matrix(53.75844 -21.51545 14.84431 37.08996 117.011 179.982)" gradientUnits="userSpaceOnUse"><stop stop-color="#8EDBDC"/><stop offset=".44" stop-color="#90DCDD"/><stop offset=".6" stop-color="#97DEDF"/><stop offset=".71" stop-color="#A2E2E2"/><stop offset=".8" stop-color="#B3E7E8"/><stop offset=".88" stop-color="#C9EEEE"/><stop offset=".95" stop-color="#E4F6F7"/><stop offset="1" stop-color="#fff"/></radialGradient><radialGradient id="c" cx="0" cy="0" r="1" gradientTransform="matrix(53.75844 -21.51545 14.84431 37.08996 117.011 179.982)" gradientUnits="userSpaceOnUse"><stop stop-color="#80E3C8"/><stop offset=".43" stop-color="#82E3C9"/><stop offset=".58" stop-color="#89E5CC"/><stop offset=".69" stop-color="#94E8D1"/><stop offset=".78" stop-color="#A5EBD8"/><stop offset=".86" stop-color="#BBF0E2"/><stop offset=".93" stop-color="#D7F6ED"/><stop offset=".99" stop-color="#F6FDFB"/><stop offset="1" stop-color="#fff"/></radialGradient><radialGradient id="d" cx="0" cy="0" r="1" gradientTransform="matrix(53.75844 -21.51545 14.84431 37.08996 117.011 179.982)" gradientUnits="userSpaceOnUse"><stop stop-color="#2A48D0"/><stop offset=".39" stop-color="#2C4AD0"/><stop offset=".53" stop-color="#334FD2"/><stop offset=".62" stop-color="#3E5AD5"/><stop offset=".71" stop-color="#4F68D8"/><stop offset=".77" stop-color="#657BDD"/><stop offset=".83" stop-color="#8192E3"/><stop offset=".89" stop-color="#A1AEEA"/><stop offset=".94" stop-color="#C7CFF3"/><stop offset=".99" stop-color="#F0F2FC"/><stop offset="1" stop-color="#fff"/></radialGradient><radialGradient id="e" cx="0" cy="0" r="1" gradientTransform="matrix(67.5713 0 0 25.3728 110.979 155.748)" gradientUnits="userSpaceOnUse"><stop stop-color="#2A48D0"/><stop offset="1" stop-color="#fff"/></radialGradient><radialGradient id="f" cx="0" cy="0" r="1" gradientTransform="matrix(35.0369 0 0 13.1562 110.979 128.608)" gradientUnits="userSpaceOnUse"><stop stop-color="#2A48D0"/><stop offset="1" stop-color="#fff"/></radialGradient></defs></svg>