<svg width="44" height="41" viewBox="0 0 44 41" fill="none" xmlns="http://www.w3.org/2000/svg">
<path d="M34.1684 4.14893V9.15378M34.1684 9.15378V14.1586M34.1684 9.15378H39.5634M34.1684 9.15378H28.7734" stroke="#029894" stroke-width="5" stroke-linecap="round" stroke-linejoin="round"/>
<path fill-rule="evenodd" clip-rule="evenodd" d="M37.765 18.5946C35.8439 19.2259 33.7693 19.3395 31.7815 18.9223C29.7937 18.5052 27.9738 17.5742 26.5327 16.2373C25.0916 14.9004 24.088 13.2122 23.6383 11.3681C23.1886 9.52398 23.3111 7.59945 23.9916 5.81726H10.79C9.35918 5.81726 7.98694 6.34456 6.97518 7.28315C5.96342 8.22174 5.39502 9.49474 5.39502 10.8221V30.8415C5.39502 32.1689 5.96342 33.4419 6.97518 34.3805C7.98694 35.3191 9.35918 35.8464 10.79 35.8464H32.37C33.8009 35.8464 35.1731 35.3191 36.1849 34.3805C37.1966 33.4419 37.765 32.1689 37.765 30.8415V18.5946ZM21.58 12.4904C22.057 12.4904 22.5144 12.6662 22.8516 12.979C23.1889 13.2919 23.3784 13.7162 23.3784 14.1587V27.5049C23.3784 27.9474 23.1889 28.3717 22.8516 28.6846C22.5144 28.9975 22.057 29.1732 21.58 29.1732C21.1031 29.1732 20.6457 28.9975 20.3084 28.6846C19.9712 28.3717 19.7817 27.9474 19.7817 27.5049V14.1587C19.7817 13.7162 19.9712 13.2919 20.3084 12.979C20.6457 12.6662 21.1031 12.4904 21.58 12.4904ZM14.3867 17.4952C14.8636 17.4952 15.321 17.671 15.6583 17.9839C15.9956 18.2967 16.185 18.7211 16.185 19.1635V27.5049C16.185 27.9474 15.9956 28.3717 15.6583 28.6846C15.321 28.9975 14.8636 29.1732 14.3867 29.1732C13.9097 29.1732 13.4523 28.9975 13.1151 28.6846C12.7778 28.3717 12.5884 27.9474 12.5884 27.5049V19.1635C12.5884 18.7211 12.7778 18.2967 13.1151 17.9839C13.4523 17.671 13.9097 17.4952 14.3867 17.4952ZM28.7734 22.5001C29.2503 22.5001 29.7077 22.6759 30.045 22.9887C30.3822 23.3016 30.5717 23.7259 30.5717 24.1684V27.5049C30.5717 27.9474 30.3822 28.3717 30.045 28.6846C29.7077 28.9975 29.2503 29.1732 28.7734 29.1732C28.2964 29.1732 27.839 28.9975 27.5017 28.6846C27.1645 28.3717 26.975 27.9474 26.975 27.5049V24.1684C26.975 23.7259 27.1645 23.3016 27.5017 22.9887C27.839 22.6759 28.2964 22.5001 28.7734 22.5001Z" fill="#029894"/>
</svg>
