<svg width="49" height="44" viewBox="0 0 49 44" fill="none" xmlns="http://www.w3.org/2000/svg">
<path fill-rule="evenodd" clip-rule="evenodd" d="M23.4586 9.03789C24.0088 9.03789 24.5511 9.06933 25.0856 9.13221V4.49473C24.8302 4.40041 24.6062 4.25107 24.4175 4.06242C24.0717 3.71658 23.8594 3.24497 23.8594 2.71834C23.8594 2.19564 24.0717 1.7201 24.4175 1.37426C24.7634 1.02841 25.235 0.816186 25.7616 0.816186C26.2843 0.816186 26.7598 1.02841 27.1057 1.37426C27.4515 1.7201 27.6637 2.19171 27.6637 2.71834C27.6637 3.24104 27.4515 3.71658 27.1057 4.06242C26.921 4.24713 26.6891 4.40041 26.4376 4.49473V9.35622C27.703 9.63133 28.9017 10.0794 30.01 10.6728V8.88068C30.01 8.50733 30.3126 8.20471 30.686 8.20471H35.4178C35.5121 7.96498 35.6575 7.74883 35.8383 7.56804C36.1841 7.2222 36.6557 7.00997 37.1824 7.00997C37.7051 7.00997 38.1806 7.2222 38.5265 7.56804C38.8723 7.91389 39.0845 8.3855 39.0845 8.91212C39.0845 9.43482 38.8723 9.91036 38.5265 10.2562C38.1806 10.6021 37.709 10.8143 37.1824 10.8143C36.6557 10.8143 36.1802 10.6021 35.8422 10.2562C35.6457 10.0597 35.4924 9.81997 35.3981 9.55273H31.3698V11.502C34.1837 13.4514 36.2431 16.4107 37.0212 19.8574H45.6045V12.9287C45.3962 12.8343 45.2036 12.7007 45.0464 12.5396C44.7006 12.1937 44.4884 11.7221 44.4884 11.1955C44.4884 10.6728 44.7006 10.1973 45.0464 9.85141C45.3923 9.50556 45.8639 9.29334 46.3905 9.29334C46.9132 9.29334 47.3888 9.50556 47.7346 9.85141C48.0804 10.1973 48.2927 10.6689 48.2927 11.1955C48.2927 11.7182 48.0804 12.1937 47.7346 12.5396C47.5184 12.7557 47.2512 12.9169 46.9564 13.0112V20.5373C46.9564 20.9106 46.6538 21.2132 46.2805 21.2132H37.261C37.3317 21.7792 37.3671 22.3569 37.3671 22.9464C37.3671 23.7324 37.3003 24.5027 37.1745 25.2533H44.6063C44.7006 24.9979 44.8499 24.7739 45.0386 24.5852C45.3844 24.2394 45.856 24.0272 46.3827 24.0272C46.9054 24.0272 47.3809 24.2394 47.7267 24.5852C48.0726 24.9311 48.2848 25.4027 48.2848 25.9293C48.2848 26.452 48.0726 26.9276 47.7267 27.2734C47.3809 27.6192 46.9093 27.8315 46.3827 27.8315C45.86 27.8315 45.3844 27.6192 45.0386 27.2734C44.8539 27.0887 44.7006 26.8607 44.6063 26.6053H36.8798C36.0073 29.8044 34.0265 32.5436 31.3698 34.3829V35.2279H35.3981C35.4924 34.9606 35.6457 34.7209 35.8422 34.5244C36.1802 34.1785 36.6597 33.9663 37.1824 33.9663C37.709 33.9663 38.1806 34.1785 38.5265 34.5244C38.8723 34.8702 39.0845 35.3458 39.0845 35.8685C39.0845 36.3951 38.8723 36.8667 38.5265 37.2125C38.1806 37.5584 37.7051 37.7706 37.1824 37.7706C36.6557 37.7706 36.1841 37.5584 35.8383 37.2125C35.6614 37.0357 35.516 36.8195 35.4178 36.5759H30.6899C30.3165 36.5759 30.0139 36.2733 30.0139 35.8999V35.2121C28.9056 35.8056 27.703 36.2536 26.4415 36.5287V40.2859C26.6969 40.3802 26.9249 40.5334 27.1096 40.7182C27.4555 41.064 27.6677 41.5395 27.6677 42.0622C27.6677 42.5889 27.4555 43.0605 27.1096 43.4063C26.7638 43.7522 26.2882 43.9644 25.7655 43.9644C25.2389 43.9644 24.7673 43.7522 24.4214 43.4063C24.0756 43.0605 23.8634 42.5849 23.8634 42.0622C23.8634 41.5356 24.0756 41.064 24.4214 40.7182C24.6101 40.5295 24.8341 40.3802 25.0896 40.2859V36.7567C24.5551 36.8195 24.0127 36.851 23.4625 36.851C22.6411 36.851 21.8355 36.7802 21.0534 36.6427V41.9601C21.0534 42.3334 20.7508 42.636 20.3774 42.636H12.8474C12.7531 42.9347 12.5919 43.202 12.3758 43.4142C12.0299 43.76 11.5544 43.9723 11.0317 43.9723C10.5051 43.9723 10.0335 43.76 9.68762 43.4142C9.34177 43.0683 9.12955 42.5928 9.12955 42.0701C9.12955 41.5435 9.34177 41.0719 9.68762 40.726C10.0335 40.3802 10.509 40.1679 11.0317 40.1679C11.5583 40.1679 12.0299 40.3802 12.3758 40.726C12.5369 40.8872 12.6666 41.0758 12.7649 41.2841H19.6975V36.3361C18.4045 35.9746 17.1862 35.4283 16.074 34.7287C15.9521 34.8388 15.7949 34.9056 15.6181 34.9056H11.5072C11.4129 35.1532 11.2636 35.3733 11.0789 35.5541C10.733 35.8999 10.2575 36.1121 9.73478 36.1121C9.21208 36.1121 8.73654 35.8999 8.39069 35.5541C8.04485 35.2121 7.83262 34.7366 7.83262 34.21C7.83262 33.6833 8.04485 33.2117 8.39069 32.8659C8.73654 32.52 9.21208 32.3078 9.73478 32.3078C10.2575 32.3078 10.733 32.52 11.0789 32.8659C11.2714 33.0585 11.4247 33.2943 11.519 33.5536H14.4705C11.9081 31.3803 10.1435 28.2991 9.67583 24.8014H2.68817V31.734C2.89646 31.8283 3.08903 31.962 3.24624 32.1231C3.59208 32.4689 3.80431 32.9406 3.80431 33.4672C3.80431 33.9899 3.59208 34.4654 3.24624 34.8113C2.90039 35.1571 2.42878 35.3693 1.90215 35.3693C1.37945 35.3693 0.903915 35.1571 0.55807 34.8113C0.212224 34.4694 0 33.9938 0 33.4672C0 32.9445 0.212224 32.4689 0.55807 32.1231C0.774223 31.9069 1.04147 31.7458 1.33622 31.6515V24.1293C1.33622 23.756 1.63884 23.4534 2.01219 23.4534H9.55792C9.55006 23.2844 9.55006 23.1154 9.55006 22.9464C9.55006 21.7241 9.70727 20.5412 10.002 19.4133H3.68247C3.58815 19.6687 3.43881 19.8927 3.25017 20.0814C2.90432 20.4272 2.43271 20.6394 1.90608 20.6394C1.38338 20.6394 0.907846 20.4272 0.562 20.0814C0.216154 19.7355 0.00393007 19.2639 0.00393007 18.7373C0.00393007 18.2146 0.216154 17.7391 0.562 17.3932C0.907846 17.0474 1.37945 16.8351 1.90608 16.8351C2.42878 16.8351 2.90432 17.0474 3.25017 17.3932C3.43488 17.5779 3.58815 17.8059 3.68247 18.0613H10.4304C11.3422 15.6286 12.9181 13.5221 14.9343 11.9579V11.2348H11.5151C11.4208 11.4942 11.2675 11.73 11.0749 11.9226C10.7291 12.2684 10.2535 12.4806 9.73085 12.4806C9.20815 12.4806 8.73261 12.2684 8.38676 11.9226C8.04092 11.5767 7.82869 11.1051 7.82869 10.5785C7.82869 10.0518 8.04092 9.57631 8.38676 9.23439C8.73261 8.88854 9.20815 8.67632 9.73085 8.67632C10.2535 8.67632 10.7291 8.88854 11.0749 9.23439C11.2596 9.4191 11.4051 9.63919 11.5033 9.88285H15.6142C15.9875 9.88285 16.2901 10.1855 16.2901 10.5588V11.0304C17.3434 10.3977 18.487 9.89857 19.6936 9.55666V3.50042H12.7649C12.6705 3.70872 12.5369 3.90129 12.3758 4.05849C12.0299 4.40434 11.5583 4.61656 11.0317 4.61656C10.509 4.61656 10.0335 4.40434 9.68762 4.05849C9.34177 3.71265 9.12955 3.24104 9.12955 2.71441C9.12955 2.19171 9.34177 1.71617 9.68762 1.37033C10.0335 1.02448 10.5051 0.812256 11.0317 0.812256C11.5544 0.812256 12.0299 1.02448 12.3758 1.37033C12.5919 1.58648 12.7531 1.85372 12.8474 2.14848H20.3735C20.7468 2.14848 21.0494 2.45109 21.0494 2.82445V9.24618C21.8315 9.10863 22.6372 9.03789 23.4586 9.03789ZM17.8622 21.5552H18.9744V21.4215V19.2089C18.9744 17.9434 19.4931 16.7958 20.3263 15.9627C21.1595 15.1295 22.311 14.6107 23.5765 14.6107C24.842 14.6107 25.9895 15.1295 26.8227 15.9627C27.6559 16.7958 28.1747 17.9473 28.1747 19.2089V21.4215V21.5552H29.0589C29.2554 21.5552 29.4166 21.7163 29.4166 21.9128V29.4821C29.4166 29.6786 29.2554 29.8397 29.0589 29.8397H17.8622C17.6657 29.8397 17.5045 29.6786 17.5045 29.4821V21.9128C17.5045 21.7163 17.6657 21.5552 17.8622 21.5552ZM20.7586 21.5552H26.3825V21.4215V19.1853C26.3825 18.4111 26.0642 17.7076 25.5572 17.1967C25.0463 16.6858 24.3428 16.3714 23.5725 16.3714C22.7983 16.3714 22.0948 16.6897 21.5839 17.1967C21.073 17.7076 20.7586 18.4111 20.7586 19.1853V21.4215V21.5552ZM23.5961 25.6974L24.1621 28.3188L22.6057 28.3227L23.0616 25.666C22.6372 25.5285 22.3267 25.1315 22.3267 24.6599C22.3267 24.0783 22.7983 23.6066 23.38 23.6066C23.9616 23.6066 24.4332 24.0783 24.4332 24.6599C24.4411 25.1747 24.0756 25.5992 23.5961 25.6974Z" fill="#029894"/>
</svg>
