<svg width="52" height="41" viewBox="0 0 52 41" fill="none" xmlns="http://www.w3.org/2000/svg">
<path fill-rule="evenodd" clip-rule="evenodd" d="M2.28036 0.8125H48.9422C50.197 0.8125 51.2225 1.76387 51.2225 2.92795V38.732C51.2225 39.8961 50.197 40.8474 48.9422 40.8474H2.28036C1.02553 40.8474 0 39.8961 0 38.732V2.92795C0 1.76387 1.02553 0.8125 2.28036 0.8125ZM13.2736 15.7212L20.69 22.8449L21.5821 23.6686L20.6983 24.504L13.2069 31.8713L11.0933 29.9376L17.7009 23.6918L11.1767 17.6742L13.2736 15.7212ZM39.2288 31.5232H22.7994V28.8779H39.2288V31.5232ZM15.9208 4.61412C17.2507 4.61412 18.3304 5.61576 18.3304 6.84945C18.3304 8.08314 17.2507 9.08479 15.9208 9.08479C14.5909 9.08479 13.5112 8.08314 13.5112 6.84945C13.5112 5.61576 14.5909 4.61412 15.9208 4.61412ZM7.89995 4.61412C9.22981 4.61412 10.3095 5.61576 10.3095 6.84945C10.3095 8.08314 9.22981 9.08479 7.89995 9.08479C6.57009 9.08479 5.49036 8.08314 5.49036 6.84945C5.49036 5.61576 6.56592 4.61412 7.89995 4.61412ZM3.12246 2.90474H48.1084C48.5878 2.90474 48.9797 3.26827 48.9797 3.71302V10.798H2.25117V3.71302C2.25117 3.26827 2.64304 2.90474 3.12246 2.90474Z" fill="#029894"/>
</svg>
