<svg width="56" height="44" viewBox="0 0 56 44" fill="none" xmlns="http://www.w3.org/2000/svg">
<path fill-rule="evenodd" clip-rule="evenodd" d="M3.75972 0.8125H51.7685C53.8382 0.8125 55.5282 2.50257 55.5282 4.57222V40.2128C55.5282 42.2779 53.8382 43.9725 51.7685 43.9725H3.75972C1.69007 43.9725 0 42.2824 0 40.2128V4.57222C0 2.50257 1.69007 0.8125 3.75972 0.8125ZM5.69381 12.9909H49.4232V31.5546H5.69381V12.9909ZM14.5554 18.2871H17.2577V23.9086C17.2577 24.4644 17.1763 24.9931 17.0137 25.4857C16.851 25.9828 16.5979 26.4166 16.2545 26.7871C15.911 27.1577 15.5495 27.4198 15.1699 27.5689C14.6458 27.7768 14.0131 27.8852 13.2765 27.8852C12.8517 27.8852 12.3863 27.8536 11.8802 27.7903C11.3786 27.7271 10.9538 27.6005 10.6149 27.4062C10.276 27.2164 9.96869 26.9453 9.68852 26.5928C9.40835 26.2403 9.21403 25.8788 9.1101 25.5038C8.9429 24.9027 8.85704 24.374 8.85704 23.9086V18.2871H11.5593V24.0442C11.5593 24.5593 11.6904 24.9615 11.957 25.2462C12.2236 25.5354 12.5897 25.68 13.0596 25.68C13.5205 25.68 13.8866 25.5354 14.1532 25.2507C14.4153 24.966 14.5509 24.5638 14.5509 24.0396V18.2871H14.5554ZM19.1556 18.2871H21.8715V27.7271H19.1556V18.2871ZM25.1206 18.1289H26.3497L24.14 27.8852H22.9108L25.1206 18.1289ZM32.9066 18.2871H35.6089V23.9086C35.6089 24.4644 35.5276 24.9931 35.3649 25.4857C35.2022 25.9828 34.9492 26.4166 34.6057 26.7871C34.2623 27.1577 33.9008 27.4198 33.5212 27.5689C32.997 27.7768 32.3643 27.8852 31.6278 27.8852C31.203 27.8852 30.7375 27.8536 30.2314 27.7903C29.7298 27.7271 29.3051 27.6005 28.9661 27.4062C28.6272 27.2164 28.3199 26.9453 28.0398 26.5928C27.7596 26.2403 27.5653 25.8788 27.4613 25.5038C27.2941 24.9027 27.2128 24.374 27.2128 23.9086V18.2871H29.9151V24.0442C29.9151 24.5593 30.0462 24.9615 30.3128 25.2462C30.5794 25.5354 30.9454 25.68 31.4154 25.68C31.8763 25.68 32.2423 25.5354 32.509 25.2507C32.7711 24.966 32.9066 24.5638 32.9066 24.0396V18.2871ZM36.7974 18.2871H39.7844L41.3344 21.1927L42.8392 18.2871H45.7855L43.0651 22.8602L46.0431 27.7271H42.9973L41.2801 24.6949L39.5494 27.7271H36.5263L39.5449 22.806L36.7974 18.2871ZM30.2179 38.6266C29.4135 38.6266 28.7628 37.9172 28.7628 37.045C28.7628 36.1684 29.4135 35.4634 30.2179 35.4634H48.1353C48.9397 35.4634 49.5904 36.1729 49.5904 37.045C49.5904 37.9217 48.9397 38.6266 48.1353 38.6266H30.2179ZM6.76027 38.6266C5.96495 38.6266 5.31874 37.9172 5.31874 37.045C5.31874 36.1684 5.96495 35.4634 6.76027 35.4634H23.3717C24.1671 35.4634 24.8133 36.1729 24.8133 37.045C24.8133 37.9217 24.1671 38.6266 23.3717 38.6266H6.76027ZM53.3094 9.89549H2.3905V40.5788C2.3905 40.868 2.50347 41.1211 2.69326 41.3154C2.88758 41.5052 3.14063 41.6182 3.42984 41.6182H52.252C52.5412 41.6182 52.7943 41.5052 52.9886 41.3154C53.1829 41.1211 53.2914 40.868 53.2914 40.5788V9.89549H53.3094ZM48.1895 3.59614C49.2153 3.59614 50.0468 4.42762 50.0468 5.45341C50.0468 6.4792 49.2153 7.31068 48.1895 7.31068C47.1637 7.31068 46.3323 6.4792 46.3323 5.45341C46.3368 4.42762 47.1683 3.59614 48.1895 3.59614ZM35.6089 3.59614C36.6347 3.59614 37.4662 4.42762 37.4662 5.45341C37.4662 6.4792 36.6347 7.31068 35.6089 7.31068C34.5831 7.31068 33.7517 6.4792 33.7517 5.45341C33.7517 4.42762 34.5831 3.59614 35.6089 3.59614ZM41.8992 3.59614C42.925 3.59614 43.7565 4.42762 43.7565 5.45341C43.7565 6.4792 42.925 7.31068 41.8992 7.31068C40.8734 7.31068 40.042 6.4792 40.042 5.45341C40.042 4.42762 40.8734 3.59614 41.8992 3.59614Z" fill="#029894"/>
</svg>
