<svg width="50" height="41" viewBox="0 0 50 41" fill="none" xmlns="http://www.w3.org/2000/svg">
<path fill-rule="evenodd" clip-rule="evenodd" d="M3.35574 0.812622H46.2012C48.0489 0.812622 49.5569 2.21157 49.5569 3.92568V37.7384C49.5569 39.448 48.0489 40.8514 46.2012 40.8514H3.35574C1.50897 40.8514 0 39.4516 0 37.7384V3.92568C0 2.21157 1.50897 0.812622 3.35574 0.812622ZM6.74051 11.2069H42.8164C43.7291 11.2069 44.4744 11.9018 44.4744 12.745V29.0888C44.4744 29.9319 43.7243 30.6269 42.8164 30.6269H6.74051C5.83165 30.6269 5.08152 29.9337 5.08152 29.0888V12.745C5.08152 11.9 5.82778 11.2069 6.74051 11.2069ZM24.7775 13.6725C29.0905 13.6725 32.5866 16.9158 32.5866 20.9169C32.5866 24.918 29.0905 28.1612 24.7775 28.1612C20.4655 28.1612 16.9694 24.918 16.9694 20.9169C16.9694 16.9158 20.4655 13.6725 24.7775 13.6725ZM24.339 16.9355V15.0634C23.646 15.6354 22.9849 16.2576 22.4119 16.9355H24.339ZM30.8076 24.0802C31.3254 23.2182 31.6293 22.3113 31.6874 21.3209H29.7767C29.7235 22.2988 29.4002 23.2227 28.8959 24.0793L30.8076 24.0802ZM30.2268 24.8982H28.351C27.6996 25.7674 26.8846 26.5414 26.0261 27.2355C27.6919 26.9526 29.1718 26.1275 30.2268 24.8982ZM23.5337 27.2337C22.6742 26.5432 21.8612 25.7647 21.2098 24.8982H19.3388C20.4064 26.1427 21.8728 26.949 23.5337 27.2337ZM18.7484 24.0838H20.66C20.1586 23.2308 19.8315 22.2997 19.7792 21.3245H17.8695C17.9353 22.3293 18.2247 23.2083 18.7484 24.0838ZM17.8676 20.5101H19.7976C19.8905 19.5305 20.2525 18.6047 20.7684 17.7508H18.7484C18.2286 18.6164 17.9257 19.526 17.8676 20.5101ZM19.3301 16.9355H21.325C21.9773 16.0735 22.7662 15.2932 23.6024 14.5839C21.8999 14.8587 20.4083 15.6838 19.3301 16.9355ZM25.9603 14.5893C26.7975 15.2968 27.5835 16.0735 28.231 16.9355H30.222C29.1524 15.6928 27.6522 14.8587 25.9603 14.5893ZM30.8066 17.7508H28.7875C29.3025 18.6021 29.6654 19.5332 29.7583 20.5101H31.6864C31.6148 19.5071 31.338 18.6236 30.8066 17.7508ZM25.2169 15.0634V16.9355H27.144C26.571 16.2576 25.9109 15.6354 25.2169 15.0634ZM25.2169 17.7508V20.5101H28.8785C28.7672 19.517 28.3394 18.5877 27.7664 17.7508H25.2169ZM25.2169 21.3245V24.0838H27.8816C28.4497 23.2416 28.833 22.323 28.8979 21.3245H25.2169ZM25.2169 24.8982V26.8054C25.9554 26.228 26.6552 25.5995 27.2573 24.8982H25.2169ZM24.339 26.8054V24.8982H22.2977C22.8959 25.5995 23.6005 26.2316 24.339 26.8054ZM24.339 24.0838V21.3245H20.6581C20.7239 22.323 21.1081 23.2398 21.6744 24.0838H24.339ZM24.339 20.5101V17.7508H21.7886C21.2156 18.5877 20.7887 19.517 20.6774 20.5101H24.339ZM47.5766 8.33263H2.13327V38.0419C2.13263 38.155 2.15617 38.2671 2.20255 38.3717C2.24892 38.4764 2.31719 38.5714 2.40343 38.6514C2.48966 38.7314 2.59213 38.7948 2.70492 38.8378C2.81771 38.8808 2.93858 38.9026 3.06053 38.9021H46.6329C47.1488 38.9021 47.5611 38.5168 47.5611 38.041V8.33263H47.5766ZM43.0071 3.51354C43.9227 3.51354 44.6651 4.20224 44.6651 5.05166C44.6651 5.90109 43.9227 6.58889 43.0071 6.58889C42.0924 6.58889 41.35 5.90109 41.35 5.05166C41.35 4.20224 42.0963 3.51354 43.0071 3.51354ZM31.7793 3.51354C32.695 3.51354 33.4374 4.20224 33.4374 5.05166C33.4374 5.90109 32.695 6.58889 31.7793 6.58889C30.8637 6.58889 30.1223 5.90109 30.1223 5.05166C30.1223 4.20224 30.8637 3.51354 31.7793 3.51354ZM37.3932 3.51354C38.3088 3.51354 39.0512 4.20224 39.0512 5.05166C39.0512 5.90109 38.3088 6.58889 37.3932 6.58889C36.4785 6.58889 35.7361 5.90109 35.7361 5.05166C35.7361 4.20224 36.4785 3.51354 37.3932 3.51354ZM26.9688 35.9156C26.2506 35.9156 25.6699 35.3284 25.6699 34.6064C25.6699 33.8809 26.2506 33.2973 26.9688 33.2973H42.9587C43.6769 33.2973 44.2576 33.8845 44.2576 34.6064C44.2576 35.3284 43.6769 35.9156 42.9587 35.9156H26.9688ZM6.03297 35.9156C5.3235 35.9156 4.74662 35.3284 4.74662 34.6064C4.74662 33.8809 5.3235 33.2973 6.03297 33.2973H20.8584C21.5679 33.2973 22.1448 33.8845 22.1448 34.6064C22.1448 35.3284 21.5679 35.9156 20.8584 35.9156H6.03297Z" fill="#029894"/>
</svg>
