<svg width="50" height="44" viewBox="0 0 50 44" fill="none" xmlns="http://www.w3.org/2000/svg">
<g clip-path="url(#clip0_158_82428)">
<path fill-rule="evenodd" clip-rule="evenodd" d="M3.80013 0.217285H46.1647C47.991 0.217285 49.4824 1.98606 49.4824 4.1521V39.4425C49.4824 41.6038 47.991 43.3773 46.1647 43.3773H3.80013C1.9738 43.3773 0.482422 41.6038 0.482422 39.4425V4.1521C0.482422 1.98606 1.9738 0.217285 3.80013 0.217285ZM17.9084 30.8351H13.5618L12.9358 33.2659H9.01595L13.6934 18.5293H17.8964L22.554 33.2659H18.5304L17.9084 30.8351ZM17.0989 27.6475L15.7431 22.3506L14.3793 27.6475H17.0989ZM24.0693 18.5293H30.4574C31.8491 18.5293 32.8899 18.9218 33.5837 19.7069C34.2736 20.492 34.6205 21.6128 34.6205 23.06C34.6205 24.5498 34.2417 25.7132 33.488 26.5503C32.7344 27.3921 31.578 27.8083 30.0268 27.8083H27.9213V33.2612H24.0693V18.5293ZM27.9213 24.8241H28.8664C29.6121 24.8241 30.1344 24.668 30.4375 24.3653C30.7366 24.0579 30.8881 23.6701 30.8881 23.1924C30.8881 22.729 30.7565 22.3364 30.4933 22.0148C30.2341 21.6932 29.7397 21.5324 29.0179 21.5324H27.9173V24.8241H27.9213ZM37.0968 18.5293H40.9489V33.2659H37.0968V18.5293ZM47.5245 11.2319H2.59188V39.8255C2.59188 40.1282 2.69157 40.3931 2.85905 40.5964C3.02653 40.7951 3.25382 40.9133 3.50903 40.9133H46.5914C46.8466 40.9133 47.0699 40.7951 47.2414 40.5964C47.4128 40.3931 47.5085 40.1282 47.5085 39.8255V11.2319H47.5245ZM43.0065 4.63922C43.9117 4.63922 44.6454 5.50942 44.6454 6.58298C44.6454 7.65654 43.9117 8.52674 43.0065 8.52674C42.1013 8.52674 41.3676 7.65654 41.3676 6.58298C41.3716 5.50942 42.1053 4.63922 43.0065 4.63922ZM31.9049 4.63922C32.8101 4.63922 33.5439 5.50942 33.5439 6.58298C33.5439 7.65654 32.8101 8.52674 31.9049 8.52674C30.9998 8.52674 30.266 7.65654 30.266 6.58298C30.266 5.50942 30.9998 4.63922 31.9049 4.63922ZM37.4557 4.63922C38.3609 4.63922 39.0946 5.50942 39.0946 6.58298C39.0946 7.65654 38.3609 8.52674 37.4557 8.52674C36.5505 8.52674 35.8168 7.65654 35.8168 6.58298C35.8168 5.50942 36.5505 4.63922 37.4557 4.63922Z" fill="#029894"/>
</g>
<defs>
<clipPath id="clip0_158_82428">
<rect width="49" height="43.16" fill="white" transform="translate(0.482422 0.217285)"/>
</clipPath>
</defs>
</svg>
