<svg width="42" height="44" viewBox="0 0 42 44" fill="none" xmlns="http://www.w3.org/2000/svg">
<g clip-path="url(#clip0_158_82423)">
<path fill-rule="evenodd" clip-rule="evenodd" d="M2.87236 0.326904H38.6072C39.6188 0.326904 40.4442 1.15582 40.4442 2.16387V12.1425C40.4442 13.1541 39.6153 13.9795 38.6072 13.9795H33.2438V15.8586H38.6072C39.6188 15.8586 40.4442 16.6875 40.4442 17.6956V27.6742C40.4442 28.6858 39.6153 29.5112 38.6072 29.5112H33.2438V34.843H36.001V37.5932H41.4487V40.7543H36.001V43.4799H27.329V40.7543H14.7196V43.4799H6.04755V40.7543H0.0273438V37.5932H6.04755V34.843H8.80124V29.5182H2.87236C1.8608 29.5182 1.03539 28.6893 1.03539 27.6812V17.6991C1.03539 16.6875 1.8608 15.8621 2.87236 15.8621H8.80124V13.983H2.87236C1.8608 13.983 1.03539 13.1541 1.03539 12.146V2.16739C1.03188 1.15231 1.8608 0.326904 2.87236 0.326904ZM5.59445 19.9716H7.69485V25.4052H5.59445V19.9716ZM34.4451 5.49009C35.3653 5.49009 36.1099 6.23471 36.1099 7.15495C36.1099 8.07519 35.3653 8.81981 34.4451 8.81981C33.5248 8.81981 32.7802 8.07519 32.7802 7.15495C32.7802 6.23471 33.5248 5.49009 34.4451 5.49009ZM28.1052 5.49009C29.0255 5.49009 29.7701 6.23471 29.7701 7.15495C29.7701 8.07519 29.0255 8.81981 28.1052 8.81981C27.185 8.81981 26.4404 8.07519 26.4404 7.15495C26.4404 6.23471 27.1885 5.49009 28.1052 5.49009ZM17.1993 4.43638H19.2997V9.87001H17.1993V4.43638ZM11.3969 4.43638H13.4973V9.87001H11.3969V4.43638ZM5.59445 4.43638H7.69485V9.87001H5.59445V4.43638ZM34.4451 21.0253C35.3653 21.0253 36.1099 21.7699 36.1099 22.6902C36.1099 23.6104 35.3653 24.355 34.4451 24.355C33.5248 24.355 32.7802 23.6104 32.7802 22.6902C32.7802 21.7699 33.5248 21.0253 34.4451 21.0253ZM28.1052 21.0253C29.0255 21.0253 29.7701 21.7699 29.7701 22.6902C29.7701 23.6104 29.0255 24.355 28.1052 24.355C27.185 24.355 26.4404 23.6104 26.4404 22.6902C26.4404 21.7699 27.1885 21.0253 28.1052 21.0253ZM17.1993 19.9716H19.2997V25.4052H17.1993V19.9716ZM11.3969 19.9716H13.4973V25.4052H11.3969V19.9716ZM31.6633 37.1998C32.7521 37.1998 33.6337 38.0814 33.6337 39.1702C33.6337 40.259 32.7521 41.1406 31.6633 41.1406C30.5744 41.1406 29.6928 40.259 29.6928 39.1702C29.6928 38.0814 30.5779 37.1998 31.6633 37.1998ZM10.3818 37.1998C11.4706 37.1998 12.3523 38.0814 12.3523 39.1702C12.3523 40.259 11.4706 41.1406 10.3818 41.1406C9.29298 41.1406 8.41137 40.259 8.41137 39.1702C8.41137 38.0814 9.29649 37.1998 10.3818 37.1998ZM14.7196 37.6002H27.329V34.85H30.0827V29.5182H11.9624V34.85H14.7196V37.6002ZM11.9624 15.8621H30.0827V13.983H11.9624V15.8621Z" fill="#029894"/>
</g>
<defs>
<clipPath id="clip0_158_82423">
<rect width="41.4214" height="43.16" fill="white" transform="translate(0.0273438 0.326904)"/>
</clipPath>
</defs>
</svg>
