<svg width="52" height="41" viewBox="0 0 52 41" fill="none" xmlns="http://www.w3.org/2000/svg">
<g clip-path="url(#clip0_158_82416)">
<path fill-rule="evenodd" clip-rule="evenodd" d="M12.5205 35.8635V21.4866H19.4906C22.4459 21.9783 25.4012 23.4642 28.3565 25.1907H33.7702C36.2214 25.3278 37.5041 27.6321 35.1238 29.146C33.2246 30.4372 30.7209 30.3643 28.1534 30.1506C26.3834 30.0696 26.3057 32.2777 28.1534 32.2847C28.7943 32.3307 29.4919 32.1917 30.1014 32.1909C33.306 32.1882 35.9457 31.6197 37.5604 29.2714L38.373 27.5133L46.4268 23.8092C50.457 22.578 53.3204 26.4893 50.3521 29.2083C44.5187 33.1453 38.5358 36.3857 32.4174 39.0019C27.9733 41.5095 23.5296 41.4246 19.0855 39.0019L12.5205 35.8635ZM42.8381 12.8249C42.7247 12.7525 42.5955 12.7201 42.4649 12.7443C42.3352 12.7684 42.2223 12.8327 42.1443 12.9374L41.7023 13.516C41.5466 13.4518 41.3816 13.4035 41.2078 13.3634C41.0349 13.3233 40.87 13.291 40.697 13.2668L40.5577 12.511C40.5321 12.3822 40.4624 12.2856 40.3583 12.2136C40.2458 12.1411 40.1245 12.117 39.986 12.1411L38.9627 12.3101C38.833 12.3343 38.7289 12.3907 38.642 12.4951C38.564 12.5998 38.5295 12.7124 38.5551 12.8408L38.6857 13.5324C38.5207 13.597 38.365 13.6691 38.2177 13.7578C38.0699 13.838 37.9234 13.9346 37.7929 14.0312L37.0995 13.5888C36.987 13.5164 36.8657 13.4845 36.7356 13.5086C36.6051 13.5328 36.493 13.597 36.4149 13.7018L35.8256 14.4817C35.7476 14.586 35.7132 14.7067 35.7388 14.8274C35.7652 14.9563 35.8349 15.0525 35.9469 15.1249L36.5707 15.5349C36.5018 15.6798 36.4494 15.8324 36.4057 15.9932C36.3621 16.1541 36.3276 16.3067 36.3016 16.4675L35.4878 16.5964C35.3484 16.6205 35.2452 16.6848 35.1662 16.7813C35.0882 16.8861 35.063 16.9986 35.0882 17.1271L35.2703 18.076C35.2968 18.1967 35.3572 18.2929 35.4705 18.3735C35.583 18.4459 35.7043 18.4778 35.8428 18.4537L36.5879 18.333C36.6575 18.4856 36.7356 18.6305 36.8305 18.7672C36.9174 18.9038 37.0214 19.0405 37.1255 19.169L36.6483 19.8041C36.5702 19.9084 36.5358 20.0213 36.5623 20.1417C36.5879 20.2624 36.6575 20.3667 36.7696 20.4391L37.6187 20.994C37.7321 21.0664 37.8622 21.0902 37.9919 21.0664C38.1224 21.0423 38.2345 20.9862 38.3214 20.8815L38.7633 20.2947C38.919 20.3589 39.084 20.4072 39.2578 20.4473C39.4307 20.4874 39.5957 20.5197 39.7686 20.5439L39.9079 21.2993C39.9335 21.4282 40.0032 21.5243 40.1073 21.5968C40.2198 21.6696 40.3411 21.6933 40.4796 21.6696L41.5029 21.5006C41.6326 21.4764 41.7367 21.4204 41.8236 21.3156C41.9016 21.2109 41.9361 21.0984 41.9105 20.9695L41.7799 20.2783C41.9449 20.2141 42.1006 20.1417 42.2479 20.0533C42.3957 19.9727 42.5422 19.8761 42.6815 19.7799L43.3661 20.2223C43.4786 20.2947 43.5999 20.327 43.7384 20.3025C43.8777 20.2783 43.981 20.2141 44.0599 20.1097L44.6576 19.3216C44.7357 19.2173 44.7617 19.0966 44.7357 18.9759C44.7101 18.8552 44.6496 18.7508 44.5363 18.6702L43.9033 18.268C43.973 18.1231 44.0246 17.9705 44.0683 17.8097C44.1119 17.6489 44.1464 17.4962 44.1724 17.3354L44.9871 17.2065C45.1256 17.1824 45.2297 17.1181 45.3078 17.0216C45.3858 16.9168 45.4118 16.8043 45.3858 16.6758L45.2037 15.7269C45.1772 15.6062 45.1168 15.5096 45.0043 15.4294C44.8918 15.357 44.7705 15.3247 44.6312 15.3488L43.8861 15.4695C43.8173 15.3247 43.7384 15.1798 43.6435 15.0354C43.5566 14.8905 43.4526 14.762 43.3493 14.6417L43.8257 13.9985C43.9038 13.8937 43.939 13.7812 43.9126 13.6609C43.8861 13.5406 43.8173 13.4358 43.7044 13.3634L42.8641 12.8167L42.8381 12.8249ZM39.8655 15.0599C40.1337 15.0194 40.4024 15.0194 40.6714 15.0763C40.9312 15.1327 41.1659 15.2289 41.382 15.3656C41.5902 15.5022 41.7715 15.6794 41.9189 15.8881C42.0662 16.0968 42.1615 16.3304 42.2051 16.5796C42.2488 16.8288 42.2488 17.078 42.1879 17.3272C42.127 17.5683 42.0229 17.7855 41.8756 17.9865C41.7287 18.1796 41.5377 18.3482 41.3124 18.4849C41.087 18.6215 40.836 18.7099 40.5673 18.7504C40.2983 18.7905 40.0305 18.7905 39.7614 18.7341C39.5016 18.6776 39.267 18.5814 39.0508 18.4448C38.8427 18.3081 38.6605 18.1309 38.5132 17.9222C38.3663 17.7131 38.2706 17.4799 38.2269 17.2307C38.1841 16.9815 38.1841 16.7323 38.245 16.4831C38.3058 16.2421 38.4099 16.0248 38.5564 15.8239C38.7041 15.6307 38.8951 15.4621 39.1197 15.3255C39.3447 15.1884 39.5965 15.1 39.8655 15.0599ZM31.9956 3.78746C31.9519 3.74735 31.9175 3.72321 31.8743 3.70686C31.8399 3.69089 31.7962 3.68272 31.7438 3.68272C31.6921 3.68272 31.6485 3.69089 31.6141 3.70686C31.5796 3.72321 31.536 3.74735 31.5007 3.77928L31.4923 3.78746L30.5127 4.69587C30.3226 4.87265 30.0191 4.89679 29.8021 4.75233C29.6896 4.68809 29.5767 4.62345 29.447 4.5592C29.3085 4.49495 29.178 4.43032 29.0567 4.37425C28.9261 4.31779 28.7876 4.26172 28.6491 4.21344C28.5278 4.17333 28.3893 4.12505 28.2243 4.07676C27.9905 4.00434 27.8432 3.80342 27.8432 3.58615V2.19569C27.8432 2.1474 27.8344 2.09912 27.8168 2.0668C27.7991 2.03449 27.7731 1.99438 27.7387 1.97024C27.7043 1.93792 27.669 1.91378 27.6346 1.89781C27.6002 1.88146 27.5477 1.87328 27.4961 1.87328H25.6077C25.5557 1.87328 25.5125 1.88146 25.4776 1.88964C25.4428 1.90599 25.3995 1.92974 25.3563 1.97024C25.3215 2.00256 25.2955 2.03449 25.2866 2.0668C25.2694 2.09912 25.2606 2.1474 25.2606 2.19569V3.47401C25.2606 3.73139 25.0612 3.94009 24.8014 3.98838C24.6541 4.02069 24.5156 4.05262 24.3943 4.08494C24.2554 4.12544 24.1257 4.16554 23.9867 4.21344C23.8566 4.26172 23.7181 4.31 23.588 4.37425C23.4491 4.43071 23.3278 4.49495 23.2065 4.55141C22.9811 4.66394 22.7212 4.62384 22.5479 4.46264L21.4646 3.46583C21.4566 3.45766 21.4566 3.45766 21.4566 3.44987C21.4218 3.41755 21.3869 3.39341 21.3525 3.37744C21.3177 3.36148 21.2833 3.36148 21.2312 3.36148C21.1792 3.36148 21.1359 3.36966 21.1011 3.38562C21.0574 3.40197 21.023 3.42573 20.9798 3.46622L19.6623 4.69626C19.6186 4.73637 19.5926 4.76869 19.5754 4.80879C19.5577 4.84111 19.5493 4.88122 19.5493 4.9295C19.5493 4.97778 19.5582 5.01789 19.5754 5.05021C19.5926 5.08252 19.6186 5.12263 19.6534 5.15495V5.16312L20.6327 6.07154C20.8236 6.24871 20.8497 6.52984 20.6935 6.73075C20.6243 6.8355 20.555 6.93985 20.4858 7.06055C20.4161 7.18905 20.3468 7.30976 20.2864 7.42229C20.2255 7.54299 20.1647 7.67149 20.113 7.80037C20.0698 7.9129 20.0178 8.04139 19.9657 8.19442C19.8876 8.4113 19.6711 8.54797 19.4369 8.54797H17.9376C17.8855 8.54797 17.8335 8.55615 17.7991 8.57211C17.7642 8.58847 17.7298 8.61222 17.695 8.63675C17.6601 8.66868 17.6341 8.701 17.6257 8.73293C17.6085 8.76524 17.5997 8.81353 17.5997 8.86181V10.6144C17.5997 10.6627 17.6085 10.7028 17.6173 10.7351C17.6345 10.7674 17.6606 10.8075 17.7042 10.8476C17.739 10.8799 17.7735 10.9041 17.8083 10.9119C17.8431 10.9282 17.8952 10.936 17.9472 10.936H19.3252C19.6027 10.936 19.828 11.121 19.8801 11.3624C19.9145 11.4991 19.9493 11.6276 19.9842 11.7323C20.0274 11.8608 20.0711 11.9897 20.1227 12.1182C20.1747 12.2389 20.2268 12.3674 20.296 12.4963C20.3657 12.6329 20.4262 12.7536 20.487 12.8662C20.5999 13.0753 20.5563 13.3163 20.3829 13.4693L19.308 14.4583L19.2992 14.4665C19.2643 14.4988 19.2383 14.5307 19.2211 14.5631C19.2039 14.5954 19.2039 14.6277 19.2039 14.6756C19.2039 14.7239 19.2127 14.764 19.2299 14.7963C19.2471 14.8364 19.2732 14.8769 19.3164 14.9088L20.6251 16.1393C20.66 16.1716 20.7032 16.1957 20.7464 16.2117C20.7901 16.228 20.8333 16.2358 20.8853 16.2358C20.9374 16.2358 20.9894 16.2276 21.0327 16.2117C21.0671 16.1957 21.1107 16.1716 21.1456 16.1474L22.1164 15.2308C22.307 15.0459 22.6104 15.0299 22.827 15.1666C22.9399 15.2308 23.052 15.2955 23.1821 15.3597C23.321 15.424 23.4507 15.4882 23.572 15.5447C23.7022 15.6011 23.8407 15.6572 23.9796 15.7055C24.1009 15.7456 24.2398 15.7939 24.4044 15.8422C24.6386 15.9146 24.7859 16.1155 24.7859 16.3328V17.7236C24.7859 17.7719 24.7947 17.8202 24.8119 17.8525C24.8291 17.8848 24.8552 17.9249 24.8812 17.9491C24.9504 18.0133 25.0285 18.0375 25.1326 18.0375H27.0222C27.0738 18.0375 27.1175 18.0293 27.1519 18.0211C27.1863 18.0051 27.23 17.981 27.2732 17.9409C27.3076 17.9086 27.3341 17.8763 27.3429 17.8443C27.3601 17.812 27.3693 17.7637 27.3693 17.7155V16.4371C27.3693 16.1797 27.5687 15.9707 27.8285 15.9224C27.9754 15.8901 28.1148 15.8581 28.2361 15.8258C28.3746 15.7853 28.5043 15.7452 28.6436 15.6969C28.7733 15.6486 28.9118 15.6004 29.0504 15.5361C29.1981 15.4719 29.3282 15.4154 29.4495 15.3593C29.6749 15.2546 29.9347 15.2951 30.0997 15.4559L31.1654 16.4531L31.1742 16.4613C31.2086 16.4936 31.243 16.5177 31.2774 16.5337C31.3127 16.55 31.3564 16.55 31.408 16.55C31.4604 16.55 31.5033 16.5419 31.5385 16.5259C31.5729 16.5096 31.6074 16.4854 31.6426 16.4535C31.651 16.4453 31.6598 16.4375 31.6682 16.4375L32.9857 15.2312C33.021 15.1989 33.0466 15.1588 33.0638 15.1187C33.0819 15.0786 33.0903 15.0381 33.0903 14.9902C33.0903 14.9419 33.0819 14.8936 33.0638 14.8535C33.0466 14.8212 33.021 14.7811 32.995 14.7488L32.0069 13.8482C31.8067 13.6714 31.7895 13.3899 31.9373 13.1889C32.0069 13.0842 32.0758 12.9799 32.1454 12.8591C32.2143 12.7307 32.284 12.6099 32.3448 12.4974C32.4057 12.3767 32.4661 12.2482 32.5177 12.1193C32.5614 12.0068 32.6139 11.8783 32.6655 11.7253C32.7436 11.508 32.9597 11.3717 33.1944 11.3717H34.6936C34.7461 11.3717 34.7977 11.3636 34.8321 11.3472C34.8666 11.3312 34.9102 11.3071 34.9362 11.283C35.0059 11.2187 35.0315 11.1463 35.0315 11.0497V9.29713C35.0315 9.24885 35.0231 9.20875 35.0143 9.17643C34.9971 9.1445 34.9706 9.104 34.9274 9.0639C34.893 9.03197 34.8586 9.00744 34.8242 8.99965C34.7889 8.98368 34.7373 8.97551 34.6856 8.97551H33.3068C33.0298 8.97551 32.796 8.78238 32.7528 8.54135C32.7184 8.42882 32.6831 8.30812 32.6487 8.1878C32.605 8.06709 32.5618 7.93821 32.501 7.80193C32.501 7.79375 32.4926 7.78557 32.4926 7.7774C32.4401 7.6489 32.3885 7.53637 32.336 7.42384C32.2751 7.30314 32.2147 7.18243 32.1459 7.0699C32.0246 6.86081 32.0678 6.61978 32.2411 6.45897L33.3161 5.45399C33.3161 5.44581 33.3249 5.44581 33.3333 5.44581C33.3677 5.41388 33.3941 5.38156 33.4114 5.34925C33.4286 5.31693 33.4286 5.285 33.4286 5.23672C33.4286 5.18804 33.4202 5.14794 33.403 5.11601C33.3857 5.07551 33.3593 5.04359 33.3161 5.00348L31.9897 3.78123L31.9956 3.78746ZM32.3079 2.75055C32.49 2.82297 32.6458 2.91954 32.7843 3.04803L34.1106 4.27028H34.119C34.2575 4.39917 34.3616 4.54363 34.4397 4.70444C34.5186 4.87343 34.553 5.04203 34.553 5.22698C34.553 5.41232 34.5094 5.5891 34.4397 5.74991C34.3616 5.91073 34.2575 6.05519 34.111 6.17589L33.3308 6.90753C33.3396 6.93167 33.3572 6.95581 33.3652 6.97995C33.4349 7.11663 33.4957 7.26147 33.5562 7.39776C33.5562 7.40593 33.565 7.41411 33.565 7.42229C33.6258 7.55896 33.6775 7.71159 33.7299 7.87241L33.7471 7.92886H34.7003C34.8997 7.92886 35.0899 7.96118 35.2636 8.03361C35.4365 8.09785 35.5923 8.2026 35.7316 8.33109L35.74 8.33927C35.8785 8.46776 35.9826 8.61261 36.0523 8.77342C36.1211 8.93423 36.1648 9.11101 36.1648 9.28818V11.0408C36.1648 11.4188 36.0263 11.7401 35.74 12.0056C35.6015 12.1345 35.4365 12.2389 35.2636 12.3031C35.0899 12.3674 34.8997 12.3997 34.7003 12.3997H33.5902C33.5818 12.4238 33.5646 12.4561 33.5557 12.4803C33.4949 12.6251 33.4252 12.7696 33.3564 12.9144C33.2783 13.0671 33.2086 13.2119 33.131 13.3404L33.1045 13.3887L33.7807 14.0078L33.8072 14.0319C33.9457 14.1608 34.0409 14.3135 34.1106 14.4743C34.1795 14.6351 34.2147 14.8041 34.2147 14.989C34.2147 15.1658 34.1795 15.3348 34.1106 15.4956C34.0409 15.6564 33.9457 15.8013 33.8072 15.9379L33.7899 15.9539L32.4636 17.1762C32.3251 17.3128 32.1685 17.4094 31.9956 17.4818C31.8227 17.5542 31.6317 17.5862 31.4235 17.5862C31.2241 17.5862 31.034 17.5461 30.8514 17.4818C30.6693 17.4094 30.5135 17.305 30.3843 17.1762L29.6128 16.4527C29.5864 16.4687 29.5603 16.4768 29.5259 16.485C29.3782 16.5415 29.2224 16.6057 29.0579 16.6618C28.9022 16.7183 28.7372 16.7665 28.5727 16.8148C28.5463 16.823 28.529 16.8312 28.503 16.8312V17.7073C28.503 17.8922 28.4686 18.069 28.3905 18.2298C28.3209 18.3906 28.2084 18.5355 28.0699 18.664L28.0611 18.6721C27.9225 18.8006 27.7668 18.8972 27.5931 18.9615C27.4201 19.0261 27.2291 19.0662 27.039 19.0662H25.1494C24.7418 19.0662 24.3955 18.9377 24.1093 18.6721C23.9708 18.5433 23.8579 18.3906 23.7886 18.2298C23.7194 18.069 23.6845 17.8922 23.6845 17.7073V16.6758C23.6585 16.6676 23.6237 16.6517 23.5976 16.6435C23.4415 16.587 23.2858 16.5228 23.1296 16.4585C22.9647 16.3861 22.809 16.3219 22.67 16.2494L22.618 16.2253L21.9506 16.8526L21.9246 16.8767C21.7857 17.0056 21.6211 17.094 21.4478 17.1583C21.2744 17.2225 21.0927 17.2548 20.8933 17.2548C20.7028 17.2548 20.5206 17.2225 20.3473 17.1583C20.1739 17.0936 20.0178 17.0052 19.8704 16.8767L19.8528 16.8608L18.5269 15.6144C18.3884 15.4855 18.2843 15.341 18.2062 15.1802C18.1281 15.0112 18.0937 14.8426 18.0937 14.6577C18.0937 14.4727 18.137 14.2959 18.2062 14.1351C18.2843 13.9743 18.3972 13.8295 18.5357 13.701L19.3156 12.9853C19.2983 12.9612 19.2895 12.937 19.2811 12.9047C19.2203 12.768 19.151 12.6232 19.0902 12.4706C19.0293 12.3175 18.9689 12.1731 18.9256 12.0204L18.908 11.9558H17.9636C17.7638 11.9558 17.5733 11.9239 17.3999 11.8514C17.2266 11.7872 17.0708 11.6825 16.9319 11.554L16.9231 11.5458C16.7846 11.4173 16.6805 11.2724 16.6112 11.1116C16.542 10.9508 16.4983 10.774 16.4983 10.5973V8.84468C16.4983 8.65972 16.5332 8.49073 16.6024 8.32213C16.6717 8.16132 16.7846 8.01686 16.9231 7.8798C17.062 7.75131 17.2266 7.64657 17.3999 7.58232C17.5733 7.51768 17.7638 7.48575 17.9636 7.48575H19.073C19.0818 7.46161 19.099 7.42929 19.1078 7.40554C19.1686 7.26069 19.2379 7.11585 19.3072 6.97139C19.3852 6.81836 19.4545 6.6739 19.5326 6.54502L19.5586 6.49674L18.8912 5.86984C18.7523 5.74135 18.6398 5.5965 18.5705 5.42751C18.4925 5.25852 18.4576 5.08174 18.4576 4.90497C18.4576 4.71962 18.4925 4.55102 18.5705 4.38242C18.6486 4.21344 18.7523 4.06859 18.8912 3.94009L20.2087 2.71005V2.70227C20.3477 2.57377 20.5034 2.47721 20.6767 2.40478C20.8589 2.33236 21.0406 2.30004 21.24 2.30004C21.4398 2.30004 21.6304 2.34015 21.8033 2.40478C21.9766 2.47721 22.1328 2.57377 22.2629 2.71005L23.0512 3.43351C23.0776 3.42534 23.1036 3.40937 23.1208 3.40159C23.2682 3.33695 23.4243 3.28088 23.5888 3.21663C23.745 3.16017 23.9095 3.11189 24.074 3.064C24.1001 3.05582 24.1173 3.04764 24.1433 3.04764V2.17155C24.1433 1.98659 24.1781 1.80981 24.2562 1.649C24.3259 1.48819 24.4384 1.34373 24.5769 1.21485L24.5857 1.20667C24.7246 1.07818 24.8803 0.981611 25.0537 0.917364C25.227 0.853117 25.4172 0.812622 25.6077 0.812622H27.4969C27.6963 0.812622 27.878 0.84494 28.0602 0.909187C28.2424 0.973435 28.3989 1.07818 28.5374 1.20667C28.676 1.33517 28.7884 1.48819 28.8581 1.649C28.927 1.80981 28.9622 1.98659 28.9622 2.17155V3.20067C28.9878 3.20884 29.0231 3.22481 29.0483 3.23299C29.2048 3.28945 29.3605 3.35369 29.5163 3.41794C29.6812 3.49036 29.8369 3.55461 29.9763 3.62703L30.0279 3.65118L30.7041 3.03207C30.8426 2.90318 30.9983 2.79883 31.1805 2.73458C31.3626 2.66216 31.5536 2.62984 31.7438 2.62984C31.944 2.62984 32.1257 2.66216 32.3079 2.73458V2.75055ZM26.3183 6.00651C26.6046 6.00651 26.8904 6.03104 27.1674 6.08711C27.4365 6.1354 27.7051 6.21561 27.9733 6.32035C28.2252 6.42509 28.4678 6.54541 28.6932 6.68208C28.9186 6.81875 29.1267 6.97957 29.3169 7.15634C29.5079 7.33351 29.6808 7.52625 29.8285 7.74352C29.9843 7.95262 30.1148 8.17729 30.2189 8.41052C30.2273 8.42688 30.2273 8.44284 30.2361 8.45063C30.3402 8.68387 30.4183 8.92528 30.4699 9.15813C30.5223 9.4155 30.5568 9.68067 30.5568 9.94583C30.5568 10.211 30.5303 10.4766 30.4699 10.7339C30.4183 10.9831 30.3314 11.2323 30.2189 11.4815C30.1056 11.7148 29.9763 11.9398 29.8285 12.1489C29.6728 12.358 29.5079 12.5508 29.3169 12.7357C29.1267 12.9129 28.9186 13.0737 28.6839 13.2104C28.4594 13.3552 28.2159 13.4755 27.9649 13.5721C27.9477 13.5803 27.9305 13.5803 27.9213 13.5881C27.6694 13.6846 27.4096 13.7571 27.1591 13.8053C26.8812 13.8536 26.5949 13.8859 26.3099 13.8859C26.0237 13.8859 25.7378 13.8618 25.4604 13.8053C25.1918 13.7571 24.9227 13.6764 24.6541 13.5721C24.4027 13.4674 24.1601 13.3466 23.9347 13.2104C23.7093 13.0737 23.5015 12.9129 23.311 12.7357C23.1204 12.5589 22.9471 12.3658 22.7993 12.1489C22.6436 11.9398 22.5135 11.7148 22.4094 11.4815C22.4006 11.4656 22.4006 11.4492 22.3918 11.4414C22.2877 11.2082 22.2096 10.9672 22.158 10.7339C22.1059 10.4766 22.0711 10.2114 22.0711 9.94583C22.0711 9.68028 22.0971 9.41511 22.158 9.15813C22.21 8.90893 22.2965 8.65972 22.4094 8.41052C22.5219 8.17729 22.652 7.95223 22.7993 7.74352C22.9471 7.53443 23.1204 7.3413 23.311 7.15634C23.5015 6.97957 23.7097 6.81875 23.9347 6.68208C24.1601 6.53723 24.4027 6.41653 24.6541 6.32035C24.6717 6.31217 24.6889 6.31217 24.6978 6.304C24.9492 6.20743 25.209 6.1354 25.4604 6.08711C25.7378 6.03883 26.0237 6.00651 26.3099 6.00651H26.3183ZM26.9513 7.09988C26.7519 7.05978 26.5349 7.04342 26.3183 7.04342C26.1018 7.04342 25.894 7.05978 25.6858 7.09988C25.4864 7.13999 25.3047 7.18827 25.1313 7.25291C25.1225 7.26108 25.1137 7.26108 25.0965 7.26887C24.8971 7.34947 24.715 7.43786 24.5504 7.54221C24.3859 7.64657 24.2298 7.75949 24.0912 7.88798C23.9523 8.01686 23.8226 8.16132 23.7185 8.31435C23.6056 8.46698 23.5103 8.63597 23.4239 8.82093C23.3454 8.98991 23.2849 9.17448 23.2417 9.36761C23.1985 9.55256 23.1809 9.75348 23.1809 9.9544C23.1809 10.1553 23.1985 10.3481 23.2417 10.5412C23.2854 10.7261 23.3374 10.8947 23.4062 11.0556C23.4151 11.0637 23.4151 11.0715 23.4239 11.0879C23.5103 11.2728 23.606 11.4414 23.7185 11.5945C23.831 11.7475 23.9523 11.8919 24.0912 12.0204C24.2298 12.1493 24.3859 12.2696 24.5504 12.3662C24.715 12.4709 24.8971 12.5593 25.0965 12.6395C25.2787 12.712 25.478 12.768 25.6858 12.8085C25.8856 12.849 26.1022 12.865 26.3183 12.865C26.5345 12.865 26.7431 12.849 26.9513 12.8085C27.1507 12.768 27.3324 12.7201 27.5062 12.6559C27.5146 12.6477 27.5234 12.6477 27.5406 12.6395C27.74 12.5589 27.9217 12.4706 28.0867 12.3662C28.2516 12.2618 28.4073 12.1493 28.5458 12.0204C28.6844 11.8915 28.8149 11.7471 28.919 11.5945C29.0315 11.4414 29.1272 11.2728 29.2132 11.0879C29.2913 10.9189 29.3517 10.7339 29.3954 10.5412C29.439 10.3562 29.4562 10.1553 29.4562 9.9544C29.4562 9.75348 29.439 9.56035 29.3954 9.36761C29.3517 9.18266 29.3001 9.01367 29.2304 8.85285C29.222 8.84468 29.222 8.83689 29.2132 8.82054C29.1272 8.63558 29.031 8.46659 28.919 8.31396C28.8057 8.16093 28.6844 8.01647 28.5458 7.88759C28.4073 7.7591 28.2516 7.63839 28.0867 7.54182C27.9217 7.43708 27.74 7.34869 27.5406 7.26848C27.3588 7.19684 27.1595 7.13999 26.9513 7.09988ZM0 20.1051H10.4223V37.3073H0V20.1051Z" fill="#029894"/>
</g>
<defs>
<clipPath id="clip0_158_82416">
<rect width="51.5764" height="40.0388" fill="white" transform="translate(0 0.812622)"/>
</clipPath>
</defs>
</svg>
