<svg width="52" height="44" viewBox="0 0 52 44" fill="none" xmlns="http://www.w3.org/2000/svg">
<path fill-rule="evenodd" clip-rule="evenodd" d="M2.28036 0.8125H48.9422C50.197 0.8125 51.2225 1.83803 51.2225 3.09286V41.688C51.2225 42.9428 50.197 43.9683 48.9422 43.9683H2.28036C1.02553 43.9683 0 42.9428 0 41.688V3.09286C0 1.83803 1.02553 0.8125 2.28036 0.8125ZM13.2736 16.8834L20.69 24.5624L21.5821 25.4503L20.6983 26.3508L13.2069 34.2925L11.0933 32.208L17.7009 25.4754L11.1767 18.9886L13.2736 16.8834ZM39.2288 33.9173H22.7994V31.0658H39.2288V33.9173ZM15.9208 4.91047C17.2507 4.91047 18.3304 5.9902 18.3304 7.32006C18.3304 8.64992 17.2507 9.72965 15.9208 9.72965C14.5909 9.72965 13.5112 8.64992 13.5112 7.32006C13.5112 5.9902 14.5909 4.91047 15.9208 4.91047ZM7.89995 4.91047C9.22981 4.91047 10.3095 5.9902 10.3095 7.32006C10.3095 8.64992 9.22981 9.72965 7.89995 9.72965C6.57009 9.72965 5.49036 8.64992 5.49036 7.32006C5.49036 5.9902 6.56592 4.91047 7.89995 4.91047ZM3.12246 3.06784H48.1084C48.5878 3.06784 48.9797 3.45971 48.9797 3.93913V11.5764H2.25117V3.93913C2.25117 3.45971 2.64304 3.06784 3.12246 3.06784Z" fill="#029894"/>
</svg>
