<svg width="46" height="41" viewBox="0 0 46 41" fill="none" xmlns="http://www.w3.org/2000/svg">
<path d="M25.7192 32.2279L30.613 36.7678C31.7967 36.7987 32.7473 37.7012 32.7473 38.8096C32.7473 39.9385 31.7634 40.8513 30.5464 40.8513C29.3294 40.8513 28.3455 39.9351 28.3455 38.8096C28.3455 38.686 28.3566 38.5625 28.3788 38.4424L24.1212 34.4962V37.3992H21.0732V34.5751L16.7491 38.5899C16.7565 38.662 16.7602 38.7375 16.7602 38.813C16.7602 39.9419 15.7763 40.8547 14.5556 40.8547C13.3386 40.8547 12.3547 39.9385 12.3547 38.813C12.3547 37.684 13.3423 36.7712 14.5556 36.7712C14.5926 36.7712 14.6296 36.7712 14.6629 36.7747L19.5566 32.2348L0 32.2279V6.20339C0 6.18624 0 6.17251 0 6.15535V3.39299C0 3.09445 0.266328 2.85425 0.59554 2.85425H21.0732V0.8125H24.1212V2.85425H44.8578C45.187 2.85425 45.4534 3.09788 45.4534 3.39299V6.15535C45.4534 6.16565 45.4534 6.17251 45.4534 6.1828V32.2245H25.7192V32.2279ZM9.94663 22.3315L18.5505 14.5282C20.6811 16.5048 22.7896 18.4607 24.9424 20.4338L30.6426 15.0807L27.9978 12.6272L35.4402 12.5654V19.5279L32.899 17.1705C30.2505 19.6583 27.6131 22.1393 24.9572 24.6066L18.5061 18.6975L12.203 24.4247L9.94663 22.3315ZM42.091 8.26916H3.29951V29.0778H42.091V8.26916Z" fill="#029894"/>
</svg>
