<svg width="50" height="41" viewBox="0 0 50 41" fill="none" xmlns="http://www.w3.org/2000/svg">
<path fill-rule="evenodd" clip-rule="evenodd" d="M3.35574 0.812378H46.2012C48.0489 0.812378 49.5569 2.21132 49.5569 3.92544V37.7381C49.5569 39.4477 48.0489 40.8512 46.2012 40.8512H3.35574C1.50897 40.8512 0 39.4513 0 37.7381V3.92544C0 2.21132 1.50897 0.812378 3.35574 0.812378ZM6.74051 11.2066H42.8164C43.7291 11.2066 44.4744 11.9016 44.4744 12.7447V29.0885C44.4744 29.9317 43.7243 30.6266 42.8164 30.6266H6.74051C5.83165 30.6266 5.08152 29.9335 5.08152 29.0885V12.7447C5.08152 11.8998 5.82778 11.2066 6.74051 11.2066ZM24.7775 13.6723C29.0905 13.6723 32.5866 16.9155 32.5866 20.9166C32.5866 24.9177 29.0905 28.161 24.7775 28.161C20.4655 28.161 16.9694 24.9177 16.9694 20.9166C16.9694 16.9155 20.4655 13.6723 24.7775 13.6723ZM24.339 16.9353V15.0631C23.646 15.6351 22.9849 16.2574 22.4119 16.9353H24.339ZM30.8076 24.08C31.3254 23.218 31.6293 22.3111 31.6874 21.3207H29.7767C29.7235 22.2985 29.4002 23.2225 28.8959 24.0791L30.8076 24.08ZM30.2268 24.898H28.351C27.6996 25.7671 26.8846 26.5411 26.0261 27.2352C27.6919 26.9524 29.1718 26.1272 30.2268 24.898ZM23.5337 27.2334C22.6742 26.5429 21.8612 25.7645 21.2098 24.898H19.3388C20.4064 26.1425 21.8728 26.9488 23.5337 27.2334ZM18.7484 24.0836H20.66C20.1586 23.2305 19.8315 22.2994 19.7792 21.3243H17.8695C17.9353 22.329 18.2247 23.2081 18.7484 24.0836ZM17.8676 20.5099H19.7976C19.8905 19.5303 20.2525 18.6045 20.7684 17.7506H18.7484C18.2286 18.6162 17.9257 19.5258 17.8676 20.5099ZM19.3301 16.9353H21.325C21.9773 16.0733 22.7662 15.293 23.6024 14.5837C21.8999 14.8584 20.4083 15.6836 19.3301 16.9353ZM25.9603 14.589C26.7975 15.2966 27.5835 16.0733 28.231 16.9353H30.222C29.1524 15.6926 27.6522 14.8584 25.9603 14.589ZM30.8066 17.7506H28.7875C29.3025 18.6018 29.6654 19.5329 29.7583 20.5099H31.6864C31.6148 19.5069 31.338 18.6234 30.8066 17.7506ZM25.2169 15.0631V16.9353H27.144C26.571 16.2574 25.9109 15.6351 25.2169 15.0631ZM25.2169 17.7506V20.5099H28.8785C28.7672 19.5168 28.3394 18.5874 27.7664 17.7506H25.2169ZM25.2169 21.3243V24.0836H27.8816C28.4497 23.2413 28.833 22.3228 28.8979 21.3243H25.2169ZM25.2169 24.898V26.8051C25.9554 26.2278 26.6552 25.5992 27.2573 24.898H25.2169ZM24.339 26.8051V24.898H22.2977C22.8959 25.5992 23.6005 26.2314 24.339 26.8051ZM24.339 24.0836V21.3243H20.6581C20.7239 22.3228 21.1081 23.2395 21.6744 24.0836H24.339ZM24.339 20.5099V17.7506H21.7886C21.2156 18.5874 20.7887 19.5168 20.6774 20.5099H24.339ZM47.5766 8.33239H2.13327V38.0416C2.13263 38.1547 2.15617 38.2669 2.20255 38.3715C2.24892 38.4761 2.31719 38.5712 2.40343 38.6512C2.48966 38.7312 2.59213 38.7945 2.70492 38.8375C2.81771 38.8806 2.93858 38.9024 3.06053 38.9018H46.6329C47.1488 38.9018 47.5611 38.5166 47.5611 38.0407V8.33239H47.5766ZM43.0071 3.5133C43.9227 3.5133 44.6651 4.202 44.6651 5.05142C44.6651 5.90085 43.9227 6.58865 43.0071 6.58865C42.0924 6.58865 41.35 5.90085 41.35 5.05142C41.35 4.202 42.0963 3.5133 43.0071 3.5133ZM31.7793 3.5133C32.695 3.5133 33.4374 4.202 33.4374 5.05142C33.4374 5.90085 32.695 6.58865 31.7793 6.58865C30.8637 6.58865 30.1223 5.90085 30.1223 5.05142C30.1223 4.202 30.8637 3.5133 31.7793 3.5133ZM37.3932 3.5133C38.3088 3.5133 39.0512 4.202 39.0512 5.05142C39.0512 5.90085 38.3088 6.58865 37.3932 6.58865C36.4785 6.58865 35.7361 5.90085 35.7361 5.05142C35.7361 4.202 36.4785 3.5133 37.3932 3.5133ZM26.9688 35.9154C26.2506 35.9154 25.6699 35.3281 25.6699 34.6062C25.6699 33.8807 26.2506 33.297 26.9688 33.297H42.9587C43.6769 33.297 44.2576 33.8843 44.2576 34.6062C44.2576 35.3281 43.6769 35.9154 42.9587 35.9154H26.9688ZM6.03297 35.9154C5.3235 35.9154 4.74662 35.3281 4.74662 34.6062C4.74662 33.8807 5.3235 33.297 6.03297 33.297H20.8584C21.5679 33.297 22.1448 33.8843 22.1448 34.6062C22.1448 35.3281 21.5679 35.9154 20.8584 35.9154H6.03297Z" fill="#029894"/>
</svg>
