<svg width="63" height="51" viewBox="0 0 63 51" fill="none" xmlns="http://www.w3.org/2000/svg">
<mask id="mask0_165_1460" style="mask-type:alpha" maskUnits="userSpaceOnUse" x="0" y="0" width="63" height="51">
<rect x="0.259277" y="0.453613" width="62.3564" height="50.033" fill="#D9D9D9"/>
</mask>
<g mask="url(#mask0_165_1460)">
<path d="M36.8851 31.1114C36.4466 29.562 36.6415 27.9019 37.4271 26.4963C38.2126 25.0907 39.5243 24.0546 41.0737 23.6162C42.6231 23.1777 44.2832 23.3726 45.6888 24.1581C47.0944 24.9437 48.1304 26.2554 48.5689 27.8048C49.0074 29.3541 48.8125 31.0143 48.0269 32.4199C47.2414 33.8255 45.9297 34.8615 44.3803 35.3C42.8309 35.7385 41.1708 35.5436 39.7652 34.758C38.3596 33.9725 37.3236 32.6608 36.8851 31.1114ZM41.9012 26.54C41.518 26.6485 41.1599 26.8314 40.8473 27.0782C40.5348 27.325 40.274 27.631 40.0797 27.9787C39.8854 28.3263 39.7615 28.7088 39.715 29.1044C39.6686 29.4999 39.7005 29.9007 39.809 30.2839C39.9174 30.6671 40.1003 31.0252 40.3471 31.3377C40.594 31.6503 40.8999 31.9111 41.2476 32.1054C41.5952 32.2997 41.9777 32.4236 42.3733 32.47C42.7688 32.5165 43.1696 32.4846 43.5528 32.3761C44.3267 32.1571 44.982 31.6396 45.3743 30.9375C45.7667 30.2354 45.8641 29.4062 45.645 28.6323C45.426 27.8583 44.9085 27.2031 44.2064 26.8108C43.5043 26.4184 42.6751 26.321 41.9012 26.54ZM51.9124 28.4376C51.7494 27.8616 51.7015 27.2592 51.7713 26.6647C51.8411 26.0702 52.0273 25.4953 52.3193 24.9728C52.6113 24.4502 53.0034 23.9904 53.4731 23.6194C53.9429 23.2484 54.4811 22.9735 55.057 22.8105C55.633 22.6475 56.2354 22.5995 56.8299 22.6694C57.4244 22.7392 57.9993 22.9254 58.5218 23.2174C59.0443 23.5094 59.5042 23.9015 59.8752 24.3712C60.2462 24.8409 60.5211 25.3792 60.6841 25.9551C61.0133 27.1183 60.8669 28.3646 60.2772 29.4199C59.6875 30.4752 58.7027 31.253 57.5395 31.5822C56.3763 31.9114 55.13 31.765 54.0747 31.1753C53.0194 30.5856 52.2416 29.6008 51.9124 28.4376ZM55.8845 25.7344C55.4968 25.8441 55.1685 26.1034 54.9719 26.4552C54.7754 26.8069 54.7266 27.2224 54.8363 27.6101C54.946 27.9978 55.2053 28.3261 55.5571 28.5227C55.9088 28.7192 56.3243 28.768 56.712 28.6583C57.0997 28.5486 57.428 28.2893 57.6246 27.9375C57.8211 27.5858 57.8699 27.1703 57.7602 26.7826C57.6505 26.3949 57.3912 26.0666 57.0394 25.87C56.6877 25.6735 56.2722 25.6247 55.8845 25.7344ZM28.742 30.2579C27.5788 30.5871 26.594 31.3649 26.0043 32.4202C25.4146 33.4754 25.2682 34.7218 25.5974 35.885C25.9266 37.0482 26.7044 38.0329 27.7597 38.6227C28.8149 39.2124 30.0613 39.3588 31.2245 39.0296C32.3877 38.7004 33.3724 37.9226 33.9622 36.8673C34.5519 35.812 34.6983 34.5657 34.3691 33.4025C34.0399 32.2393 33.2621 31.2545 32.2068 30.6648C31.1515 30.0751 29.9052 29.9287 28.742 30.2579ZM28.5213 35.0575C28.4116 34.6697 28.4603 34.2543 28.6569 33.9025C28.8535 33.5508 29.1818 33.2915 29.5695 33.1818C29.9572 33.0721 30.3727 33.1208 30.7244 33.3174C31.0762 33.514 31.3355 33.8423 31.4452 34.23C31.5549 34.6177 31.5061 35.0332 31.3095 35.3849C31.113 35.7367 30.7847 35.9959 30.397 36.1057C30.0092 36.2154 29.5938 36.1666 29.242 35.97C28.8903 35.7735 28.631 35.4452 28.5213 35.0575ZM34.2975 41.3179C34.0358 42.3522 34.0509 43.4371 34.3414 44.4636L28.4936 46.1186L30.5623 53.4283C30.7679 54.1557 31.1512 54.8205 31.6775 55.3629C32.2039 55.9053 32.8569 56.3083 33.5778 56.5356C34.2987 56.7629 35.0647 56.8074 35.807 56.665C36.5494 56.5227 37.2446 56.1979 37.8303 55.7201C38.3205 56.6267 38.9212 57.4546 39.6039 58.1931C38.621 58.9552 37.466 59.4643 36.2403 59.6758C35.0146 59.8872 33.7558 59.7945 32.5743 59.4057C31.3929 59.0169 30.325 58.344 29.4643 57.4461C28.6037 56.5482 27.9767 55.4527 27.6384 54.2558L25.5697 46.9461C25.3503 46.1706 25.4478 45.3397 25.841 44.6362C26.2341 43.9327 26.8907 43.4142 27.6661 43.1947L34.2975 41.3179ZM60.4454 52.2947C61.6819 52.4287 62.9324 52.2571 64.0871 51.7949C65.2418 51.3326 66.2653 50.594 67.0678 49.6437C67.8703 48.6935 68.4272 47.5608 68.6897 46.345C68.9521 45.1292 68.912 43.8676 68.5729 42.671L66.5042 35.3612C66.2847 34.5858 65.7662 33.9293 65.0627 33.5361C64.3592 33.143 63.5283 33.0454 62.7528 33.2648L56.1214 35.1416C56.8618 35.8605 57.4305 36.7765 57.7325 37.8437L63.5803 36.1887L65.649 43.4985C65.8551 44.2257 65.8771 44.9927 65.713 45.7305C65.5489 46.4684 65.204 47.1538 64.7091 47.7252C64.2143 48.2965 63.5852 48.7358 62.8783 49.0036C62.1715 49.2714 61.4092 49.3592 60.66 49.2591C60.7125 50.2927 60.641 51.3046 60.4454 52.2947ZM39.3609 39.8818C38.5854 40.1013 37.9289 40.6198 37.5357 41.3233C37.1426 42.0268 37.045 42.8577 37.2645 43.6332L39.7477 52.4078C40.4061 54.7342 41.9617 56.7037 44.0723 57.8832C46.1828 59.0627 48.6755 59.3554 51.0019 58.697C53.3283 58.0386 55.2978 56.483 56.4773 54.3725C57.6567 52.2619 57.9495 49.7693 57.2911 47.4429L54.8086 38.6712C54.5892 37.8957 54.0706 37.2392 53.3671 36.8461C52.6636 36.4529 51.8327 36.3553 51.0572 36.5748L39.3609 39.8818ZM40.1883 42.8057L51.8839 39.4958L54.3672 48.2704C54.8061 49.8213 54.611 51.483 53.8247 52.8901C53.0384 54.2971 51.7253 55.3342 50.1744 55.7731C48.6235 56.212 46.9617 56.0169 45.5547 55.2306C44.1476 54.4443 43.1106 53.1312 42.6716 51.5803L40.1883 42.8057Z" fill="white"/>
</g>
</svg>
