<svg width="64" height="51" viewBox="0 0 64 51" fill="none" xmlns="http://www.w3.org/2000/svg">
<mask id="mask0_165_1454" style="mask-type:alpha" maskUnits="userSpaceOnUse" x="0" y="0" width="64" height="51">
<rect x="0.729004" y="0.587891" width="62.3564" height="50.033" fill="#D9D9D9"/>
</mask>
<g mask="url(#mask0_165_1454)">
<path d="M34.8025 8.22009C29.1563 9.70313 24.0767 12.8272 20.206 17.1971C16.3353 21.5671 13.8474 26.9867 13.0569 32.7706C12.2663 38.5546 13.2086 44.443 15.7647 49.6914C18.3208 54.9398 22.3758 59.3123 27.4169 62.2561C32.458 65.1999 38.2589 66.5827 44.0859 66.2297C49.9129 65.8766 55.5044 63.8036 60.1533 60.2728C64.8021 56.7419 68.2996 51.9118 70.2033 46.3932C72.1071 40.8747 72.3316 34.9155 70.8486 29.2693C68.8521 21.7028 63.9358 15.2372 57.1781 11.291C50.4205 7.34487 42.3735 6.24046 34.8025 8.22009ZM48.133 58.9714C43.7416 60.1249 39.1067 59.9503 34.8144 58.4696C30.5222 56.9889 26.7655 54.2686 24.0192 50.6529C21.273 47.0371 19.6607 42.6882 19.3861 38.156C19.1115 33.6239 20.187 29.1121 22.4766 25.1912C24.7662 21.2704 28.1671 18.1165 32.2492 16.1284C36.3312 14.1404 40.9112 13.4074 45.4098 14.0223C49.9084 14.6372 54.1236 16.5722 57.5225 19.5828C60.9214 22.5933 63.3512 26.5441 64.5047 30.9356C66.0446 36.8241 65.1857 43.0831 62.1165 48.3391C59.0472 53.5951 54.0182 57.4189 48.133 58.9714ZM60.2754 32.0465C60.4963 32.8877 60.3741 33.7823 59.9355 34.5334C59.4968 35.2845 58.7778 35.8306 57.9366 36.0516L43.1341 39.9397C42.2928 40.1606 41.3983 40.0384 40.6472 39.5998C39.8961 39.1611 39.3499 38.4421 39.129 37.6009L35.2409 22.7984C35.0199 21.9571 35.1422 21.0626 35.5808 20.3115C36.0194 19.5604 36.7385 19.0142 37.5797 18.7933C38.421 18.5723 39.3155 18.6946 40.0667 19.1332C40.8178 19.5718 41.3639 20.2908 41.5848 21.1321L44.6397 32.7626L56.2703 29.7077C57.1115 29.4867 58.0061 29.609 58.7572 30.0476C59.5083 30.4862 60.0544 31.2052 60.2754 32.0465Z" fill="#FDFDFD"/>
</g>
</svg>
