<svg width="63" height="51" viewBox="0 0 63 51" fill="none" xmlns="http://www.w3.org/2000/svg">
<mask id="mask0_165_1453" style="mask-type:alpha" maskUnits="userSpaceOnUse" x="-1" y="0" width="64" height="51">
<rect x="-0.00585938" y="0.72168" width="62.3564" height="50.033" fill="#D9D9D9"/>
</mask>
<g mask="url(#mask0_165_1453)">
<path d="M47.9185 14.6308L44.4712 16.1564L43.4453 13.8382C43.0471 12.9384 41.8828 12.3917 40.8941 12.8738C40.0068 13.3064 39.498 14.3822 39.9431 15.3881L40.969 17.7063L27.4273 23.6991L26.4014 21.3809C26.0032 20.4811 24.8389 19.9344 23.8502 20.4165C22.9629 20.8491 22.4541 21.9249 22.8992 22.9308L23.9251 25.2489L20.4991 26.7651C18.9046 27.4707 17.6557 28.7809 17.0272 30.4073C16.3987 32.0337 16.442 33.8432 17.1476 35.4377L27.5188 58.8731C28.2244 60.4676 29.5346 61.7165 31.161 62.345C32.7875 62.9735 34.597 62.9302 36.1915 62.2246L63.6109 50.0903C65.2054 49.3847 66.4542 48.0745 67.0827 46.4481C67.7113 44.8216 67.6679 43.0121 66.9623 41.4176L56.5911 17.9823C55.8855 16.3878 54.5753 15.1389 52.9489 14.5104C51.3225 13.8818 49.513 13.9252 47.9185 14.6308ZM63.4601 42.9675C64.0751 44.357 63.4505 45.9732 62.061 46.5881L34.6416 58.7224C33.2521 59.3373 31.6359 58.7128 31.021 57.3233L23.3858 40.0704L55.825 25.7146L63.4601 42.9675ZM54.2751 22.2125L21.836 36.5682L20.6498 33.8879C20.0349 32.4984 20.6594 30.8822 22.049 30.2673L25.475 28.7511L25.7277 29.3222C26.1259 30.2221 27.2902 30.7688 28.2789 30.2867C29.1662 29.8541 29.675 28.7783 29.2299 27.7724L28.9771 27.2012L42.5189 21.2084L42.7716 21.7796C43.1698 22.6794 44.3341 23.2261 45.3228 22.744C46.2101 22.3114 46.7189 21.2356 46.2738 20.2297L46.021 19.6586L49.4683 18.133C50.8579 17.5181 52.474 18.1426 53.089 19.5321L54.2751 22.2125Z" fill="white" stroke="white" stroke-width="1.5"/>
</g>
</svg>
