<svg width="28" height="28" viewBox="0 0 28 28" fill="none" xmlns="http://www.w3.org/2000/svg">
<path d="M14 0C21.7322 0 28 6.2678 28 14C28 21.7322 21.7322 28 14 28C6.2678 28 0 21.7322 0 14C0 6.2678 6.2678 0 14 0ZM12.698 7.8134C12.4388 7.8134 12.1903 7.91636 12.007 8.09962C11.8238 8.28288 11.7208 8.53143 11.7208 8.7906V16.604C11.7208 17.1444 12.1576 17.5812 12.698 17.5812H20.5114C20.6427 17.5862 20.7737 17.5646 20.8966 17.5178C21.0194 17.4709 21.1315 17.3998 21.2262 17.3086C21.3209 17.2175 21.3962 17.1081 21.4476 16.9872C21.4991 16.8662 21.5256 16.7361 21.5256 16.6047C21.5256 16.4733 21.4991 16.3432 21.4476 16.2222C21.3962 16.1013 21.3209 15.9919 21.2262 15.9008C21.1315 15.8096 21.0194 15.7385 20.8966 15.6916C20.7737 15.6448 20.6427 15.6232 20.5114 15.6282H13.6738V8.7906C13.6738 8.53167 13.571 8.28333 13.3881 8.10011C13.2051 7.91689 12.9569 7.81377 12.698 7.8134Z" fill="#001C63"/>
</svg>
