<svg width="30" height="25" viewBox="0 0 30 25" fill="none" xmlns="http://www.w3.org/2000/svg">
<path d="M23.2523 24.3897L23.0813 22.9884C22.4797 22.8565 21.9846 22.6823 21.5962 22.4659C21.2077 22.2506 20.8383 21.9461 20.4878 21.5523L19.1658 22.0812L18.3123 20.7908L19.4033 19.8772C19.228 19.3177 19.1404 18.7715 19.1404 18.2384C19.1404 17.7064 19.228 17.1607 19.4033 16.6013L18.3123 15.6877L19.1658 14.3957L20.4863 14.9261C20.8378 14.5123 21.2077 14.202 21.5962 13.9951C21.9857 13.7893 22.4807 13.6204 23.0813 13.4884L23.2523 12.0888H24.8357L25.0051 13.4884C25.6068 13.6204 26.1018 13.7893 26.4903 13.9951C26.8787 14.202 27.2481 14.5123 27.5986 14.9261L28.9207 14.3957L29.7741 15.6877L28.6832 16.6013C28.8584 17.1607 28.946 17.7064 28.946 18.2384C28.946 18.7704 28.8584 19.3167 28.6832 19.8772L29.7741 20.7908L28.9207 22.0812L27.6002 21.5523C27.2487 21.9461 26.8787 22.2506 26.4903 22.4659C26.1008 22.6823 25.6057 22.8565 25.0051 22.9884L24.8357 24.3897H23.2523ZM24.044 21.6505C24.975 21.6505 25.7762 21.3148 26.4475 20.6435C27.1178 19.9722 27.4529 19.1705 27.4529 18.2384C27.4529 17.3074 27.1178 16.5063 26.4475 15.8349C25.7762 15.1636 24.975 14.8279 24.044 14.8279C23.1119 14.8279 22.3103 15.1636 21.6389 15.8349C20.9686 16.5063 20.6335 17.3074 20.6335 18.2384C20.6335 19.1705 20.9686 19.9722 21.6389 20.6435C22.3103 21.3138 23.1119 21.6505 24.044 21.6505ZM0.75 22.1667V0H11.1937L14.3603 3.16667H29.25V9.3575C28.4478 8.88039 27.6023 8.52098 26.7135 8.27925C25.8247 8.03753 24.9117 7.91667 23.9743 7.91667C21.0219 7.91667 18.5699 8.94425 16.6182 10.9994C14.6664 13.0546 13.6906 15.4644 13.6906 18.2289C13.6906 18.9119 13.7576 19.5779 13.8917 20.2271C14.0257 20.8763 14.2263 21.5228 14.4933 22.1667H0.75Z" fill="#001C63"/>
</svg>
