<svg width="24" height="30" viewBox="0 0 24 30" fill="none" xmlns="http://www.w3.org/2000/svg">
<path d="M7.5 16.5C7.5 17.6935 7.97411 18.8381 8.81802 19.682C9.66193 20.5259 10.8065 21 12 21C13.1935 21 14.3381 20.5259 15.182 19.682C16.0259 18.8381 16.5 17.6935 16.5 16.5C16.5 15.3065 16.0259 14.1619 15.182 13.318C14.3381 12.4741 13.1935 12 12 12C10.8065 12 9.66193 12.4741 8.81802 13.318C7.97411 14.1619 7.5 15.3065 7.5 16.5ZM24 26.385V9L15 0H3C2.20435 0 1.44129 0.31607 0.87868 0.87868C0.31607 1.44129 0 2.20435 0 3V27C0 27.7956 0.31607 28.5587 0.87868 29.1213C1.44129 29.6839 2.20435 30 3 30H21C21.675 30 22.275 29.775 22.785 29.4L16.14 22.755C14.94 23.535 13.5 24 12 24C10.0109 24 8.10322 23.2098 6.6967 21.8033C5.29018 20.3968 4.5 18.4891 4.5 16.5C4.5 14.5109 5.29018 12.6032 6.6967 11.1967C8.10322 9.79018 10.0109 9 12 9C13.9891 9 15.8968 9.79018 17.3033 11.1967C18.7098 12.6032 19.5 14.5109 19.5 16.5C19.5 18 19.035 19.44 18.255 20.625L24 26.385Z" fill="#001C63"/>
</svg>
