<svg width="49" height="44" viewBox="0 0 49 44" fill="none" xmlns="http://www.w3.org/2000/svg">
<path fill-rule="evenodd" clip-rule="evenodd" d="M23.4586 8.53813C24.0088 8.53813 24.5511 8.56957 25.0856 8.63245V3.99497C24.8302 3.90065 24.6062 3.75131 24.4175 3.56267C24.0717 3.21682 23.8594 2.74521 23.8594 2.21858C23.8594 1.69588 24.0717 1.22035 24.4175 0.8745C24.7634 0.528654 25.235 0.31643 25.7616 0.31643C26.2843 0.31643 26.7598 0.528654 27.1057 0.8745C27.4515 1.22035 27.6637 1.69195 27.6637 2.21858C27.6637 2.74128 27.4515 3.21682 27.1057 3.56267C26.921 3.74738 26.6891 3.90065 26.4376 3.99497V8.85647C27.703 9.13157 28.9017 9.5796 30.01 10.173V8.38093C30.01 8.00757 30.3126 7.70496 30.686 7.70496H35.4178C35.5121 7.46522 35.6575 7.24907 35.8383 7.06829C36.1841 6.72244 36.6557 6.51022 37.1824 6.51022C37.7051 6.51022 38.1806 6.72244 38.5265 7.06829C38.8723 7.41413 39.0845 7.88574 39.0845 8.41237C39.0845 8.93507 38.8723 9.41061 38.5265 9.75645C38.1806 10.1023 37.709 10.3145 37.1824 10.3145C36.6557 10.3145 36.1802 10.1023 35.8422 9.75645C35.6457 9.55995 35.4924 9.32021 35.3981 9.05297H31.3698V11.0023C34.1837 12.9516 36.2431 15.9109 37.0212 19.3576H45.6045V12.4289C45.3962 12.3346 45.2036 12.201 45.0464 12.0398C44.7006 11.694 44.4884 11.2224 44.4884 10.6957C44.4884 10.173 44.7006 9.6975 45.0464 9.35166C45.3923 9.00581 45.8639 8.79359 46.3905 8.79359C46.9132 8.79359 47.3888 9.00581 47.7346 9.35166C48.0804 9.6975 48.2927 10.1691 48.2927 10.6957C48.2927 11.2184 48.0804 11.694 47.7346 12.0398C47.5184 12.256 47.2512 12.4171 46.9564 12.5114V20.0375C46.9564 20.4109 46.6538 20.7135 46.2805 20.7135H37.261C37.3317 21.2794 37.3671 21.8571 37.3671 22.4466C37.3671 23.2327 37.3003 24.0029 37.1745 24.7536H44.6063C44.7006 24.4981 44.8499 24.2741 45.0386 24.0855C45.3844 23.7396 45.856 23.5274 46.3827 23.5274C46.9054 23.5274 47.3809 23.7396 47.7267 24.0855C48.0726 24.4313 48.2848 24.9029 48.2848 25.4296C48.2848 25.9523 48.0726 26.4278 47.7267 26.7736C47.3809 27.1195 46.9093 27.3317 46.3827 27.3317C45.86 27.3317 45.3844 27.1195 45.0386 26.7736C44.8539 26.5889 44.7006 26.361 44.6063 26.1055H36.8798C36.0073 29.3046 34.0265 32.0439 31.3698 33.8831V34.7281H35.3981C35.4924 34.4609 35.6457 34.2211 35.8422 34.0246C36.1802 33.6788 36.6597 33.4665 37.1824 33.4665C37.709 33.4665 38.1806 33.6788 38.5265 34.0246C38.8723 34.3705 39.0845 34.846 39.0845 35.3687C39.0845 35.8953 38.8723 36.3669 38.5265 36.7128C38.1806 37.0586 37.7051 37.2709 37.1824 37.2709C36.6557 37.2709 36.1841 37.0586 35.8383 36.7128C35.6614 36.5359 35.516 36.3198 35.4178 36.0761H30.6899C30.3165 36.0761 30.0139 35.7735 30.0139 35.4001V34.7124C28.9056 35.3058 27.703 35.7538 26.4415 36.0289V39.7861C26.6969 39.8804 26.9249 40.0337 27.1096 40.2184C27.4555 40.5643 27.6677 41.0398 27.6677 41.5625C27.6677 42.0891 27.4555 42.5607 27.1096 42.9066C26.7638 43.2524 26.2882 43.4646 25.7655 43.4646C25.2389 43.4646 24.7673 43.2524 24.4214 42.9066C24.0756 42.5607 23.8634 42.0852 23.8634 41.5625C23.8634 41.0359 24.0756 40.5643 24.4214 40.2184C24.6101 40.0298 24.8341 39.8804 25.0896 39.7861V36.2569C24.5551 36.3198 24.0127 36.3512 23.4625 36.3512C22.6411 36.3512 21.8355 36.2805 21.0534 36.1429V41.4603C21.0534 41.8337 20.7508 42.1363 20.3774 42.1363H12.8474C12.7531 42.435 12.5919 42.7022 12.3758 42.9144C12.0299 43.2603 11.5544 43.4725 11.0317 43.4725C10.5051 43.4725 10.0335 43.2603 9.68762 42.9144C9.34177 42.5686 9.12955 42.093 9.12955 41.5704C9.12955 41.0437 9.34177 40.5721 9.68762 40.2263C10.0335 39.8804 10.509 39.6682 11.0317 39.6682C11.5583 39.6682 12.0299 39.8804 12.3758 40.2263C12.5369 40.3874 12.6666 40.576 12.7649 40.7843H19.6975V35.8364C18.4045 35.4748 17.1862 34.9285 16.074 34.229C15.9521 34.339 15.7949 34.4058 15.6181 34.4058H11.5072C11.4129 34.6534 11.2636 34.8735 11.0789 35.0543C10.733 35.4001 10.2575 35.6124 9.73478 35.6124C9.21208 35.6124 8.73654 35.4001 8.39069 35.0543C8.04485 34.7124 7.83262 34.2368 7.83262 33.7102C7.83262 33.1836 8.04485 32.712 8.39069 32.3661C8.73654 32.0203 9.21208 31.8081 9.73478 31.8081C10.2575 31.8081 10.733 32.0203 11.0789 32.3661C11.2714 32.5587 11.4247 32.7945 11.519 33.0539H14.4705C11.9081 30.8806 10.1435 27.7994 9.67583 24.3016H2.68817V31.2343C2.89646 31.3286 3.08903 31.4622 3.24624 31.6233C3.59208 31.9692 3.80431 32.4408 3.80431 32.9674C3.80431 33.4901 3.59208 33.9657 3.24624 34.3115C2.90039 34.6574 2.42878 34.8696 1.90215 34.8696C1.37945 34.8696 0.903915 34.6574 0.55807 34.3115C0.212224 33.9696 0 33.4941 0 32.9674C0 32.4447 0.212224 31.9692 0.55807 31.6233C0.774223 31.4072 1.04147 31.2461 1.33622 31.1517V23.6296C1.33622 23.2562 1.63884 22.9536 2.01219 22.9536H9.55792C9.55006 22.7846 9.55006 22.6156 9.55006 22.4466C9.55006 21.2244 9.70727 20.0414 10.002 18.9135H3.68247C3.58815 19.169 3.43881 19.393 3.25017 19.5816C2.90432 19.9275 2.43271 20.1397 1.90608 20.1397C1.38338 20.1397 0.907846 19.9275 0.562 19.5816C0.216154 19.2358 0.00393007 18.7642 0.00393007 18.2375C0.00393007 17.7148 0.216154 17.2393 0.562 16.8935C0.907846 16.5476 1.37945 16.3354 1.90608 16.3354C2.42878 16.3354 2.90432 16.5476 3.25017 16.8935C3.43488 17.0782 3.58815 17.3061 3.68247 17.5616H10.4304C11.3422 15.1289 12.9181 13.0223 14.9343 11.4582V10.735H11.5151C11.4208 10.9944 11.2675 11.2302 11.0749 11.4228C10.7291 11.7686 10.2535 11.9809 9.73085 11.9809C9.20815 11.9809 8.73261 11.7686 8.38676 11.4228C8.04092 11.077 7.82869 10.6053 7.82869 10.0787C7.82869 9.55209 8.04092 9.07655 8.38676 8.73463C8.73261 8.38879 9.20815 8.17657 9.73085 8.17657C10.2535 8.17657 10.7291 8.38879 11.0749 8.73463C11.2596 8.91935 11.4051 9.13943 11.5033 9.3831H15.6142C15.9875 9.3831 16.2901 9.68571 16.2901 10.0591V10.5307C17.3434 9.89793 18.487 9.39882 19.6936 9.0569V3.00067H12.7649C12.6705 3.20896 12.5369 3.40153 12.3758 3.55874C12.0299 3.90458 11.5583 4.11681 11.0317 4.11681C10.509 4.11681 10.0335 3.90458 9.68762 3.55874C9.34177 3.21289 9.12955 2.74128 9.12955 2.21465C9.12955 1.69195 9.34177 1.21642 9.68762 0.87057C10.0335 0.524724 10.5051 0.3125 11.0317 0.3125C11.5544 0.3125 12.0299 0.524724 12.3758 0.87057C12.5919 1.08672 12.7531 1.35397 12.8474 1.64872H20.3735C20.7468 1.64872 21.0494 1.95134 21.0494 2.32469V8.74642C21.8315 8.60887 22.6372 8.53813 23.4586 8.53813ZM17.8622 21.0554H18.9744V20.9218V18.7091C18.9744 17.4437 19.4931 16.2961 20.3263 15.4629C21.1595 14.6297 22.311 14.111 23.5765 14.111C24.842 14.111 25.9895 14.6297 26.8227 15.4629C27.6559 16.2961 28.1747 17.4476 28.1747 18.7091V20.9218V21.0554H29.0589C29.2554 21.0554 29.4166 21.2165 29.4166 21.413V28.9823C29.4166 29.1788 29.2554 29.34 29.0589 29.34H17.8622C17.6657 29.34 17.5045 29.1788 17.5045 28.9823V21.413C17.5045 21.2165 17.6657 21.0554 17.8622 21.0554ZM20.7586 21.0554H26.3825V20.9218V18.6856C26.3825 17.9113 26.0642 17.2079 25.5572 16.697C25.0463 16.186 24.3428 15.8716 23.5725 15.8716C22.7983 15.8716 22.0948 16.19 21.5839 16.697C21.073 17.2079 20.7586 17.9113 20.7586 18.6856V20.9218V21.0554ZM23.5961 25.1977L24.1621 27.819L22.6057 27.823L23.0616 25.1662C22.6372 25.0287 22.3267 24.6318 22.3267 24.1601C22.3267 23.5785 22.7983 23.1069 23.38 23.1069C23.9616 23.1069 24.4332 23.5785 24.4332 24.1601C24.4411 24.675 24.0756 25.0994 23.5961 25.1977Z" fill="#029894"/>
</svg>
