<svg width="44" height="45" viewBox="0 0 44 45" fill="none" xmlns="http://www.w3.org/2000/svg">
<path d="M34.9145 4.48242V9.87742M34.9145 9.87742V15.2724M34.9145 9.87742H40.3095M34.9145 9.87742H29.5195" stroke="#029894" stroke-width="5" stroke-linecap="round" stroke-linejoin="round"/>
<path fill-rule="evenodd" clip-rule="evenodd" d="M38.5106 20.0547C36.5895 20.7352 34.5149 20.8576 32.5271 20.4079C30.5393 19.9582 28.7194 18.9547 27.2783 17.5136C25.8372 16.0724 24.8337 14.2526 24.3839 12.2648C23.9342 10.2769 24.0567 8.20237 24.7372 6.28125H11.5356C10.1048 6.28125 8.73254 6.84965 7.72078 7.86141C6.70903 8.87317 6.14063 10.2454 6.14062 11.6762V33.2562C6.14063 34.6871 6.70903 36.0593 7.72078 37.0711C8.73254 38.0828 10.1048 38.6512 11.5356 38.6512H33.1156C34.5465 38.6512 35.9187 38.0828 36.9305 37.0711C37.9422 36.0593 38.5106 34.6871 38.5106 33.2562V20.0547ZM22.3256 13.4746C22.8026 13.4746 23.26 13.6641 23.5972 14.0013C23.9345 14.3386 24.124 14.796 24.124 15.2729V29.6596C24.124 30.1365 23.9345 30.5939 23.5972 30.9312C23.26 31.2684 22.8026 31.4579 22.3256 31.4579C21.8487 31.4579 21.3913 31.2684 21.054 30.9312C20.7168 30.5939 20.5273 30.1365 20.5273 29.6596V15.2729C20.5273 14.796 20.7168 14.3386 21.054 14.0013C21.3913 13.6641 21.8487 13.4746 22.3256 13.4746ZM15.1323 18.8696C15.6092 18.8696 16.0667 19.059 16.4039 19.3963C16.7412 19.7336 16.9306 20.191 16.9306 20.6679V29.6596C16.9306 30.1365 16.7412 30.5939 16.4039 30.9312C16.0667 31.2684 15.6092 31.4579 15.1323 31.4579C14.6553 31.4579 14.1979 31.2684 13.8607 30.9312C13.5234 30.5939 13.334 30.1365 13.334 29.6596V20.6679C13.334 20.191 13.5234 19.7336 13.8607 19.3963C14.1979 19.059 14.6553 18.8696 15.1323 18.8696ZM29.519 24.2646C29.9959 24.2646 30.4533 24.4541 30.7906 24.7913C31.1278 25.1286 31.3173 25.586 31.3173 26.0629V29.6596C31.3173 30.1365 31.1278 30.5939 30.7906 30.9312C30.4533 31.2684 29.9959 31.4579 29.519 31.4579C29.042 31.4579 28.5846 31.2684 28.2473 30.9312C27.9101 30.5939 27.7206 30.1365 27.7206 29.6596V26.0629C27.7206 25.586 27.9101 25.1286 28.2473 24.7913C28.5846 24.4541 29.042 24.2646 29.519 24.2646Z" fill="#029894"/>
</svg>
