<svg width="52" height="44" viewBox="0 0 52 44" fill="none" xmlns="http://www.w3.org/2000/svg">
<g clip-path="url(#clip0_155_71041)">
<path fill-rule="evenodd" clip-rule="evenodd" d="M2.65536 0.751953H49.3172C50.572 0.751953 51.5975 1.77749 51.5975 3.03231V41.6274C51.5975 42.8823 50.572 43.9078 49.3172 43.9078H2.65536C1.40053 43.9078 0.375 42.8823 0.375 41.6274V3.03231C0.375 1.77749 1.40053 0.751953 2.65536 0.751953ZM13.6486 16.8228L21.065 24.5018L21.9571 25.3898L21.0733 26.2903L13.5819 34.2319L11.4683 32.1475L18.0759 25.4148L11.5517 18.9281L13.6486 16.8228ZM39.6038 33.8567H23.1744V31.0052H39.6038V33.8567ZM16.2958 4.84992C17.6257 4.84992 18.7054 5.92965 18.7054 7.25951C18.7054 8.58937 17.6257 9.6691 16.2958 9.6691C14.9659 9.6691 13.8862 8.58937 13.8862 7.25951C13.8862 5.92965 14.9659 4.84992 16.2958 4.84992ZM8.27495 4.84992C9.60481 4.84992 10.6845 5.92965 10.6845 7.25951C10.6845 8.58937 9.60481 9.6691 8.27495 9.6691C6.94509 9.6691 5.86536 8.58937 5.86536 7.25951C5.86536 5.92965 6.94092 4.84992 8.27495 4.84992ZM3.49746 3.0073H48.4834C48.9628 3.0073 49.3547 3.39917 49.3547 3.87858V11.5159H2.62617V3.87858C2.62617 3.39917 3.01804 3.0073 3.49746 3.0073Z" fill="#029894"/>
</g>
<defs>
<clipPath id="clip0_155_71041">
<rect width="51.2267" height="43.16" fill="white" transform="translate(0.375 0.751953)"/>
</clipPath>
</defs>
</svg>
