<svg width="53" height="44" viewBox="0 0 53 44" fill="none" xmlns="http://www.w3.org/2000/svg">
<g clip-path="url(#clip0_155_71070)">
<path fill-rule="evenodd" clip-rule="evenodd" d="M3.58854 0.3125H49.4115C51.3869 0.3125 53 1.9963 53 4.05829V39.5667C53 41.6242 51.3869 43.3125 49.4115 43.3125H3.58854C1.61312 43.3125 0 41.6287 0 39.5667V4.05829C0 1.9963 1.61312 0.3125 3.58854 0.3125ZM5.43457 12.4458H47.1729V30.9406H5.43457V12.4458ZM13.8927 17.7223H16.4719V23.323C16.4719 23.8767 16.3943 24.4035 16.239 24.8942C16.0837 25.3895 15.8422 25.8217 15.5144 26.1908C15.1866 26.56 14.8416 26.8211 14.4792 26.9697C13.9789 27.1768 13.3751 27.2849 12.672 27.2849C12.2666 27.2849 11.8223 27.2533 11.3393 27.1903C10.8605 27.1273 10.4551 27.0012 10.1316 26.8076C9.80811 26.6185 9.51481 26.3484 9.2474 25.9972C8.97998 25.6461 8.79452 25.2859 8.69531 24.9122C8.53573 24.3134 8.45378 23.7867 8.45378 23.323V17.7223H11.033V23.458C11.033 23.9713 11.1581 24.372 11.4126 24.6556C11.6671 24.9437 12.0164 25.0878 12.465 25.0878C12.9049 25.0878 13.2543 24.9437 13.5088 24.6601C13.759 24.3765 13.8883 23.9758 13.8883 23.4535V17.7223H13.8927ZM18.2834 17.7223H20.8757V27.1273H18.2834V17.7223ZM23.9768 17.5647H25.15L23.0409 27.2849H21.8677L23.9768 17.5647ZM31.4084 17.7223H33.9876V23.323C33.9876 23.8767 33.91 24.4035 33.7547 24.8942C33.5994 25.3895 33.3579 25.8217 33.0301 26.1908C32.7023 26.56 32.3573 26.8211 31.995 26.9697C31.4946 27.1768 30.8908 27.2849 30.1877 27.2849C29.7823 27.2849 29.3381 27.2533 28.855 27.1903C28.3762 27.1273 27.9708 27.0012 27.6473 26.8076C27.3238 26.6185 27.0305 26.3484 26.7631 25.9972C26.4957 25.6461 26.3102 25.2859 26.211 24.9122C26.0514 24.3134 25.9738 23.7867 25.9738 23.323V17.7223H28.5531V23.458C28.5531 23.9713 28.6781 24.372 28.9326 24.6556C29.1871 24.9437 29.5365 25.0878 29.985 25.0878C30.425 25.0878 30.7743 24.9437 31.0288 24.6601C31.279 24.3765 31.4084 23.9758 31.4084 23.4535V17.7223ZM35.122 17.7223H37.973L39.4524 20.6172L40.8887 17.7223H43.7008L41.1043 22.2785L43.9467 27.1273H41.0396L39.4006 24.1063L37.7487 27.1273H34.8632L37.7444 22.2244L35.122 17.7223ZM28.842 37.9865C28.0743 37.9865 27.4532 37.2796 27.4532 36.4107C27.4532 35.5373 28.0743 34.835 28.842 34.835H45.9437C46.7114 34.835 47.3325 35.5418 47.3325 36.4107C47.3325 37.2841 46.7114 37.9865 45.9437 37.9865H28.842ZM6.45247 37.9865C5.69336 37.9865 5.07658 37.2796 5.07658 36.4107C5.07658 35.5373 5.69336 34.835 6.45247 34.835H22.3076C23.0667 34.835 23.6835 35.5418 23.6835 36.4107C23.6835 37.2841 23.0667 37.9865 22.3076 37.9865H6.45247ZM50.8822 9.36181H2.28166V39.9314C2.28166 40.2195 2.38949 40.4716 2.57064 40.6652C2.7561 40.8543 2.99764 40.9669 3.27368 40.9669H49.873C50.149 40.9669 50.3905 40.8543 50.576 40.6652C50.7615 40.4716 50.865 40.2195 50.865 39.9314V9.36181H50.8822ZM45.9954 3.08582C46.9745 3.08582 47.7682 3.91422 47.7682 4.9362C47.7682 5.95819 46.9745 6.78659 45.9954 6.78659C45.0164 6.78659 44.2227 5.95819 44.2227 4.9362C44.2271 3.91422 45.0207 3.08582 45.9954 3.08582ZM33.9876 3.08582C34.9667 3.08582 35.7603 3.91422 35.7603 4.9362C35.7603 5.95819 34.9667 6.78659 33.9876 6.78659C33.0085 6.78659 32.2149 5.95819 32.2149 4.9362C32.2149 3.91422 33.0085 3.08582 33.9876 3.08582ZM39.9915 3.08582C40.9706 3.08582 41.7642 3.91422 41.7642 4.9362C41.7642 5.95819 40.9706 6.78659 39.9915 6.78659C39.0125 6.78659 38.2188 5.95819 38.2188 4.9362C38.2188 3.91422 39.0125 3.08582 39.9915 3.08582Z" fill="#029894"/>
</g>
<defs>
<clipPath id="clip0_155_71070">
<rect width="53" height="43" fill="white" transform="translate(0 0.3125)"/>
</clipPath>
</defs>
</svg>
