<svg width="222" height="250" fill="none" xmlns="http://www.w3.org/2000/svg"><path style="mix-blend-mode:multiply" d="M180.456 176.181c47.385 14.386 54.691 40.447 16.318 58.208-38.373 17.761-107.887 20.502-155.268 6.117-47.38-14.386-54.691-40.443-16.322-58.204 38.37-17.761 107.891-20.491 155.272-6.121Z" fill="url(#a)"/><path d="M110.926 209.306c-22.787 0-44.29-2.868-62.174-8.296-25.13-7.63-39.555-19.413-40.618-33.175-.52-6.778 2.098-19.766 25.514-30.61 19.172-8.873 47.38-13.966 77.389-13.966 22.79 0 44.285 2.872 62.17 8.299 25.133 7.626 39.559 19.409 40.618 33.175.523 6.779-2.094 19.767-25.51 30.607-19.177 8.877-47.385 13.966-77.389 13.966Z" fill="#001C63" style="mix-blend-mode:multiply" opacity=".2"/><path d="M170.798 138.591c40.798 12.384 47.087 34.822 14.05 50.116-33.038 15.294-92.89 17.65-133.683 5.266C10.37 181.59 4.078 159.151 37.11 143.861c33.034-15.29 92.889-17.653 133.687-5.27Z" fill="#001C63" style="mix-blend-mode:multiply"/><g style="mix-blend-mode:multiply"><path d="M158.622 144.227c32.494 9.866 37.503 27.716 11.191 39.915-26.311 12.199-73.982 14.058-106.472 4.196-32.49-9.863-37.506-27.736-11.19-39.915 26.315-12.18 73.982-14.059 106.471-4.196Z" fill="url(#b)"/><path d="M158.622 144.227c32.494 9.866 37.503 27.716 11.191 39.915-26.311 12.199-73.982 14.058-106.472 4.196-32.49-9.863-37.506-27.736-11.19-39.915 26.315-12.18 73.982-14.059 106.471-4.196Z" fill="url(#c)"/><path d="M158.622 144.227c32.494 9.866 37.503 27.716 11.191 39.915-26.311 12.199-73.982 14.058-106.472 4.196-32.49-9.863-37.506-27.736-11.19-39.915 26.315-12.18 73.982-14.059 106.471-4.196Z" fill="url(#d)"/></g><path d="M110.926 223.953c-22.787 0-44.29-2.872-62.174-8.3-25.13-7.629-39.555-19.409-40.618-33.174-.52-6.779 2.098-19.767 25.514-30.607 19.172-8.877 47.38-13.97 77.389-13.97 22.79 0 44.285 2.872 62.17 8.3 25.133 7.629 39.559 19.409 40.618 33.174.523 6.779-2.094 19.767-25.51 30.611-19.177 8.873-47.385 13.966-77.389 13.966Z" fill="#001C63" style="mix-blend-mode:multiply" opacity=".2"/><path d="M178.758 140.874h-13.419a74.656 74.656 0 0 0-11.706-4.561c-29.088-8.831-71.767-7.149-95.326 3.757-.573.265-1.112.535-1.636.804H43.338v13.677c-1.227 7.896 7.36 15.895 24.99 21.253 29.088 8.831 71.767 7.149 95.322-3.757 10.173-4.708 15.104-10.366 15.096-15.987l.012-15.186Z" fill="#E6E6E8"/><path d="M153.634 121.13c29.092 8.831 33.577 24.829 10.018 35.735-23.56 10.905-66.239 12.588-95.322 3.757-29.084-8.831-33.578-24.829-10.022-35.735 23.556-10.905 66.238-12.587 95.326-3.757Z" fill="#FDFDFF"/><path style="mix-blend-mode:multiply" d="M110.979 166.357c37.434 0 67.78-11.409 67.78-25.483s-30.346-25.483-67.78-25.483-67.78 11.409-67.78 25.483 30.346 25.483 67.78 25.483Z" fill="url(#e)"/><path d="M178.758 115.729h-13.419a74.754 74.754 0 0 0-11.706-4.561c-29.088-8.831-71.767-7.149-95.326 3.757-.573.265-1.112.535-1.636.804H43.338v13.677c-1.227 7.896 7.36 15.895 24.99 21.253 29.088 8.831 71.767 7.149 95.322-3.757 10.173-4.708 15.104-10.366 15.096-15.99l.012-15.183Z" fill="#E6E6E8"/><path d="M153.634 95.986c29.092 8.83 33.577 24.829 10.018 35.734-23.56 10.906-66.239 12.584-95.322 3.753-29.084-8.83-33.578-24.829-10.022-35.73 23.556-10.902 66.238-12.588 95.326-3.757Z" fill="#FDFDFF"/><path style="mix-blend-mode:multiply" opacity=".25" d="M110.979 128.944c19.409 0 35.143-5.916 35.143-13.215 0-7.298-15.734-13.215-35.143-13.215s-35.143 5.917-35.143 13.215c0 7.299 15.734 13.215 35.143 13.215Z" fill="url(#f)"/><path d="M108.882 21.746c0 4.683-1.156 8.22-3.468 10.613-2.311 2.391-5.423 3.586-9.335 3.584-3.95 0-7.084-1.195-9.404-3.584-2.32-2.39-3.475-5.927-3.467-10.613v-7.291c0-4.686 1.148-8.223 3.443-10.61C88.946 1.46 92.066.264 96.01.259c3.927 0 7.052 1.2 9.375 3.6 2.322 2.399 3.482 5.931 3.479 10.597l.017 7.29Zm-8.53-7.838c0-2.65-.37-4.556-1.112-5.716a3.437 3.437 0 0 0-1.346-1.298 3.716 3.716 0 0 0-1.868-.442 3.648 3.648 0 0 0-1.864.437 3.37 3.37 0 0 0-1.333 1.303c-.72 1.16-1.078 3.065-1.075 5.716v8.338c0 2.697.362 4.622 1.087 5.774.316.543.786.992 1.358 1.297a3.705 3.705 0 0 0 1.88.428c.65.02 1.292-.13 1.854-.435a3.38 3.38 0 0 0 1.332-1.29c.728-1.154 1.09-3.08 1.087-5.774v-8.338ZM113.984 20.198 116.11.758h21.605v6.194h-14.65l-.936 7.268a7.97 7.97 0 0 1 2.404-1.12 12.098 12.098 0 0 1 3.165-.478c3.609-.061 6.384.927 8.325 2.964 1.94 2.038 2.91 4.933 2.907 8.685.079 3.059-1.109 6.027-3.312 8.276-2.211 2.264-5.374 3.395-9.49 3.395-3.284.069-6.498-.895-9.134-2.74a8.483 8.483 0 0 1-2.865-3.166 7.916 7.916 0 0 1-.881-4.075l.053-.143 8.35-.477c0 1.38.408 2.461 1.226 3.241.429.392.939.696 1.498.895a4.622 4.622 0 0 0 1.753.26c1.554 0 2.655-.513 3.304-1.54a7.188 7.188 0 0 0 .973-3.895c0-1.905-.363-3.405-1.088-4.5-.725-1.096-1.873-1.644-3.443-1.644a4.987 4.987 0 0 0-2.768.689 3.62 3.62 0 0 0-1.455 1.74l-7.667-.389Z" fill="#001C63"/><path fill-rule="evenodd" clip-rule="evenodd" d="M95.656 113.261c2.906 0 5.269-1.961 5.269-4.375 0-.862-.303-1.666-.827-2.346h.142c-2.314-2.347-2.07-4.266.382-4.938h8.105c.915 0 1.664-.694 1.664-1.543v-6.675c.567-4.557 2.666-3.204 5.136-1.793 5.968 3.408 9.936-4.665 5.112-7.43-3.786-2.168-5.425 1.562-8.199 1.176-1.071-.15-1.814-1.225-2.049-2.859V75.88c0-.849-.749-1.543-1.664-1.543h-7.098c-3.36-.395-3.996-2.492-1.394-5.128h-.142c.524-.681.827-1.484.827-2.347.005-2.414-2.353-4.374-5.264-4.374-2.906 0-5.264 1.96-5.264 4.374 0 .863.304 1.666.827 2.347h-.034c2.602 2.636 1.971 4.737-1.394 5.128h-7.128c-.914 0-1.663.694-1.663 1.543v6.88c.533 2.831 2.735 3.294 5.474.966v.032a4.562 4.562 0 0 1 2.53-.767c2.602 0 4.715 2.188 4.715 4.883 0 2.696-2.113 4.883-4.716 4.883-.93 0-1.795-.281-2.529-.767v.132c-2.74-2.328-4.94-1.86-5.474.971v6.971c0 .848.749 1.543 1.663 1.543H90.8c2.45.671 2.7 2.591.381 4.937h.034c-.518.681-.826 1.484-.826 2.346.004 2.415 2.362 4.375 5.268 4.371Zm30.8.249h-.01c-2.906 0-5.269-1.96-5.269-4.375 0-.862.304-1.665.827-2.346h-.034c2.314-2.346 2.069-4.266-.382-4.937h-8.135c-.915 0-1.663-.695-1.663-1.543v-6.957c.391-1.053.89-1.425 1.477-1.439.269-.004.553.064.856.182.851.326 1.849 1.012 2.935 1.402 4.188 1.498 7.783-2.283 7.544-6.167-.054-.867-.431-1.72-.988-2.51-2.138-3.031-5.303-3.317-8.356-1.588-1.555.885-2.793 1.552-3.502-.531l.039-6.576c.005-.849.748-1.543 1.663-1.543h7.123c3.36-.395 3.996-2.492 1.394-5.128h.034c-.523-.681-.827-1.484-.827-2.346 0-2.415 2.358-4.375 5.269-4.375h.01c2.906 0 5.268 1.96 5.268 4.375 0 .862-.303 1.665-.826 2.346h.034c-2.603 2.636-1.972 4.738 1.394 5.128h7.123c.914 0 1.663.694 1.663 1.543v6.88c-.533 2.832-2.735 3.294-5.474.966v.032a4.563 4.563 0 0 0-2.529-.767c-2.603 0-4.716 2.188-4.716 4.883 0 2.696 2.113 4.888 4.716 4.888.929 0 1.795-.282 2.529-.767v.132c2.744-2.329 4.941-1.861 5.474.97v6.958c0 .848-.749 1.543-1.663 1.543h-8.136c-2.45.671-2.695 2.591-.381 4.937h-.039c.523.681.826 1.484.826 2.346-.004 2.424-2.362 4.384-5.268 4.384Z" fill="#001C63"/><defs><radialGradient id="a" cx="0" cy="0" r="1" gradientUnits="userSpaceOnUse" gradientTransform="matrix(107.502 0 0 39.4718 110.979 196.938)"><stop stop-color="#2A48D0"/><stop offset="1" stop-color="#fff"/></radialGradient><radialGradient id="b" cx="0" cy="0" r="1" gradientUnits="userSpaceOnUse" gradientTransform="matrix(53.75846 -19.9596 13.0257 35.08293 117.01 166.37)"><stop stop-color="#8EDBDC"/><stop offset=".44" stop-color="#90DCDD"/><stop offset=".6" stop-color="#97DEDF"/><stop offset=".71" stop-color="#A2E2E2"/><stop offset=".8" stop-color="#B3E7E8"/><stop offset=".88" stop-color="#C9EEEE"/><stop offset=".95" stop-color="#E4F6F7"/><stop offset="1" stop-color="#fff"/></radialGradient><radialGradient id="c" cx="0" cy="0" r="1" gradientUnits="userSpaceOnUse" gradientTransform="matrix(53.75846 -19.9596 13.0257 35.08293 117.01 166.37)"><stop stop-color="#80E3C8"/><stop offset=".43" stop-color="#82E3C9"/><stop offset=".58" stop-color="#89E5CC"/><stop offset=".69" stop-color="#94E8D1"/><stop offset=".78" stop-color="#A5EBD8"/><stop offset=".86" stop-color="#BBF0E2"/><stop offset=".93" stop-color="#D7F6ED"/><stop offset=".99" stop-color="#F6FDFB"/><stop offset="1" stop-color="#fff"/></radialGradient><radialGradient id="d" cx="0" cy="0" r="1" gradientUnits="userSpaceOnUse" gradientTransform="matrix(53.75846 -19.9596 13.0257 35.08293 117.01 166.37)"><stop stop-color="#2A48D0"/><stop offset=".39" stop-color="#2C4AD0"/><stop offset=".53" stop-color="#334FD2"/><stop offset=".62" stop-color="#3E5AD5"/><stop offset=".71" stop-color="#4F68D8"/><stop offset=".77" stop-color="#657BDD"/><stop offset=".83" stop-color="#8192E3"/><stop offset=".89" stop-color="#A1AEEA"/><stop offset=".94" stop-color="#C7CFF3"/><stop offset=".99" stop-color="#F0F2FC"/><stop offset="1" stop-color="#fff"/></radialGradient><radialGradient id="e" cx="0" cy="0" r="1" gradientUnits="userSpaceOnUse" gradientTransform="matrix(67.5713 0 0 23.5379 110.979 143.889)"><stop stop-color="#2A48D0"/><stop offset="1" stop-color="#fff"/></radialGradient><radialGradient id="f" cx="0" cy="0" r="1" gradientUnits="userSpaceOnUse" gradientTransform="matrix(35.0369 0 0 12.2048 110.979 118.71)"><stop stop-color="#2A48D0"/><stop offset="1" stop-color="#fff"/></radialGradient></defs></svg>