<svg width="222" height="250" fill="none" xmlns="http://www.w3.org/2000/svg"><path style="mix-blend-mode:multiply" d="M180.142 175.6c47.405 14.381 54.691 40.442 16.33 58.196-38.361 17.754-107.887 20.502-155.272 6.121-47.384-14.382-54.687-40.447-16.318-58.208 38.37-17.761 107.875-20.494 155.26-6.109Z" fill="url(#a)"/><path d="M110.607 209.383c-22.786 0-44.285-2.872-62.15-8.3-25.129-7.629-39.554-19.409-40.617-33.174-.524-6.779 2.097-19.767 25.514-30.607 19.172-8.877 47.38-13.966 77.388-13.966 22.787 0 44.286 2.868 62.17 8.296 25.13 7.629 39.555 19.412 40.618 33.178.524 6.775-2.097 19.763-25.514 30.603-19.192 8.877-47.401 13.97-77.409 13.97Z" fill="#029894" style="mix-blend-mode:multiply" opacity=".2"/><path d="M170.484 138.669c40.794 12.383 47.086 34.818 14.049 50.112-33.038 15.294-92.89 17.653-133.703 5.27-40.815-12.384-47.087-34.822-14.05-50.116 33.038-15.294 92.906-17.65 133.704-5.266Z" fill="#029894" style="mix-blend-mode:multiply"/><g style="mix-blend-mode:multiply"><path d="M158.308 144.304c32.493 9.862 37.502 27.716 11.191 39.915-26.312 12.199-73.983 14.058-106.476 4.192-32.494-9.866-37.503-27.716-11.192-39.911 26.312-12.195 73.983-14.059 106.477-4.196Z" fill="url(#b)"/><path d="M158.308 144.304c32.493 9.862 37.502 27.716 11.191 39.915-26.312 12.199-73.983 14.058-106.476 4.192-32.494-9.866-37.503-27.716-11.192-39.911 26.312-12.195 73.983-14.059 106.477-4.196Z" fill="url(#c)"/><path d="M158.308 144.304c32.493 9.862 37.502 27.716 11.191 39.915-26.312 12.199-73.983 14.058-106.476 4.192-32.494-9.866-37.503-27.716-11.192-39.911 26.312-12.195 73.983-14.059 106.477-4.196Z" fill="url(#d)"/></g><path d="M110.607 224.026c-22.786 0-44.285-2.868-62.15-8.299-25.129-7.626-39.554-19.409-40.617-33.175-.524-6.779 2.097-19.767 25.514-30.607 19.172-8.877 47.38-13.966 77.388-13.966 22.787 0 44.286 2.868 62.17 8.3 25.13 7.626 39.555 19.409 40.618 33.174.524 6.775-2.097 19.767-25.514 30.607-19.192 8.873-47.401 13.966-77.409 13.966Z" fill="#029894" style="mix-blend-mode:multiply" opacity=".2"/><path d="M178.445 140.951h-13.423a73.77 73.77 0 0 0-11.703-4.546c-29.091-8.831-71.77-7.149-95.326 3.753-.572.266-1.112.535-1.635.808H43.024v13.674c-1.226 7.899 7.36 15.894 24.987 21.253 29.092 8.83 71.77 7.148 95.326-3.754 10.173-4.711 15.104-10.37 15.096-15.99l.012-15.198Z" fill="#E6EFEC"/><path d="M153.319 121.207c29.087 8.831 33.573 24.829 10.017 35.731-23.555 10.901-66.238 12.587-95.326 3.757-29.088-8.831-33.573-24.829-10.017-35.735 23.555-10.905 66.234-12.584 95.326-3.753Z" fill="#F8FFFD"/><path style="mix-blend-mode:multiply" d="M110.592 166.461c37.474 0 67.853-11.421 67.853-25.51 0-14.089-30.379-25.51-67.853-25.51-37.475 0-67.854 11.421-67.854 25.51 0 14.089 30.38 25.51 67.854 25.51Z" fill="url(#e)"/><path d="M178.445 115.807h-13.423a73.738 73.738 0 0 0-11.703-4.562c-29.091-8.831-71.77-7.152-95.326 3.753a38.4 38.4 0 0 0-1.635.809H43.024v13.669c-1.226 7.899 7.36 15.894 24.987 21.253 29.092 8.83 71.77 7.148 95.326-3.757 10.173-4.708 15.104-10.367 15.096-15.987l.012-15.178Z" fill="#E6EFEC"/><path d="M153.319 96.059c29.087 8.83 33.573 24.829 10.017 35.734-23.555 10.906-66.238 12.588-95.326 3.757-29.088-8.83-33.573-24.829-10.017-35.734 23.555-10.906 66.234-12.584 95.326-3.757Z" fill="#F8FFFD"/><path style="mix-blend-mode:multiply" opacity=".25" d="M110.591 129.022c19.409 0 35.143-5.917 35.143-13.216 0-7.298-15.734-13.215-35.143-13.215s-35.143 5.917-35.143 13.215c0 7.299 15.734 13.216 35.143 13.216Z" fill="url(#f)"/><path d="M108.489 21.746c0 4.684-1.156 8.221-3.467 10.613-2.312 2.392-5.423 3.584-9.335 3.576-3.95 0-7.084-1.195-9.404-3.584-2.32-2.39-3.476-5.927-3.468-10.613v-7.283c0-4.686 1.148-8.224 3.443-10.613 2.295-2.39 5.415-3.584 9.36-3.584 3.93 0 7.055 1.2 9.375 3.6 2.32 2.4 3.48 5.932 3.48 10.597l.016 7.291Zm-8.513-7.837c0-2.652-.37-4.557-1.112-5.717a3.438 3.438 0 0 0-1.346-1.298 3.716 3.716 0 0 0-1.868-.442 3.66 3.66 0 0 0-1.866.438 3.382 3.382 0 0 0-1.335 1.302c-.715 1.16-1.073 3.066-1.076 5.716v8.338c0 2.698.364 4.622 1.092 5.774.315.544.785.995 1.357 1.3a3.701 3.701 0 0 0 1.881.429c.65.02 1.292-.13 1.855-.436a3.376 3.376 0 0 0 1.33-1.293c.728-1.152 1.09-3.076 1.088-5.774V13.91ZM131.051 35.442h-8.521V8.834h-8.222v-5.67L131.072.735l-.021 34.707ZM90.826 62.493v37.263h50.429v5.405h-53.34c-1.609 0-2.915-1.212-2.915-2.704V62.493h5.826Zm13.079-.69-.483 3.511c-.149 1.083-1.214 1.847-2.381 1.713-1.167-.138-1.99-1.126-1.846-2.209l1.232-8.894c.065-.625.451-1.212 1.084-1.54a2.276 2.276 0 0 1 1.804-.116l9.234 3.3c1.097.392 1.641 1.535 1.218 2.553-.423 1.018-1.655 1.523-2.753 1.13l-3.152-1.126a48.724 48.724 0 0 0 12.061 10.81c6.435 4.076 13.53 6.47 20.23 6.918 1.177.078 2.06 1.023 1.977 2.114-.084 1.091-1.102 1.91-2.279 1.833-7.434-.487-15.274-3.119-22.332-7.591a52.851 52.851 0 0 1-13.614-12.406Zm34.798 29.284v4.848h-6.607v-4.848h6.607Zm-11.81-5.103v9.95h-6.603v-9.95h6.603Zm-11.806-3.511v13.462h-6.602V82.473h6.602Zm-11.805-5.349v18.81h-6.607v-18.81h6.607Z" fill="#029894"/><defs><radialGradient id="a" cx="0" cy="0" r="1" gradientUnits="userSpaceOnUse" gradientTransform="matrix(107.502 0 0 39.4718 110.665 196.358)"><stop stop-color="#80E3C8"/><stop offset="1" stop-color="#fff"/></radialGradient><radialGradient id="b" cx="0" cy="0" r="1" gradientUnits="userSpaceOnUse" gradientTransform="matrix(53.7585 -19.9595 13.02563 35.08296 112.743 166.444)"><stop stop-color="#80E3C8"/><stop offset=".43" stop-color="#82E3C9"/><stop offset=".58" stop-color="#89E5CC"/><stop offset=".69" stop-color="#94E8D1"/><stop offset=".78" stop-color="#A5EBD8"/><stop offset=".86" stop-color="#BBF0E2"/><stop offset=".93" stop-color="#D7F6ED"/><stop offset=".99" stop-color="#F6FDFB"/><stop offset="1" stop-color="#fff"/></radialGradient><radialGradient id="c" cx="0" cy="0" r="1" gradientUnits="userSpaceOnUse" gradientTransform="matrix(53.7585 -19.9595 13.02563 35.08296 112.743 166.444)"><stop stop-color="#80E3C8"/><stop offset=".43" stop-color="#82E3C9"/><stop offset=".58" stop-color="#89E5CC"/><stop offset=".69" stop-color="#94E8D1"/><stop offset=".78" stop-color="#A5EBD8"/><stop offset=".86" stop-color="#BBF0E2"/><stop offset=".93" stop-color="#D7F6ED"/><stop offset=".99" stop-color="#F6FDFB"/><stop offset="1" stop-color="#fff"/></radialGradient><radialGradient id="d" cx="0" cy="0" r="1" gradientUnits="userSpaceOnUse" gradientTransform="matrix(53.7585 -19.9595 13.02563 35.08296 112.743 166.444)"><stop stop-color="#80E3C8"/><stop offset=".43" stop-color="#82E3C9"/><stop offset=".58" stop-color="#89E5CC"/><stop offset=".69" stop-color="#94E8D1"/><stop offset=".78" stop-color="#A5EBD8"/><stop offset=".86" stop-color="#BBF0E2"/><stop offset=".93" stop-color="#D7F6ED"/><stop offset=".99" stop-color="#F6FDFB"/><stop offset="1" stop-color="#fff"/></radialGradient><radialGradient id="e" cx="0" cy="0" r="1" gradientUnits="userSpaceOnUse" gradientTransform="matrix(67.6449 0 0 23.5636 110.592 143.965)"><stop stop-color="#80E3C8"/><stop offset="1" stop-color="#fff"/></radialGradient><radialGradient id="f" cx="0" cy="0" r="1" gradientUnits="userSpaceOnUse" gradientTransform="matrix(35.0368 0 0 12.2048 110.591 118.786)"><stop stop-color="#80E3C8"/><stop offset="1" stop-color="#fff"/></radialGradient></defs></svg>