<svg width="31" height="31" viewBox="0 0 31 31" fill="none" xmlns="http://www.w3.org/2000/svg">
<path d="M11.5297 0.693604C10.3931 0.693604 9.30298 1.14513 8.49926 1.94886C7.69553 2.75259 7.244 3.84268 7.244 4.97932V9.44717C7.64231 9.5877 8.00902 9.80535 8.32317 10.0877C8.63731 10.37 8.89274 10.7115 9.07483 11.0926C9.25692 11.4737 9.36212 11.887 9.38441 12.3087C9.4067 12.7305 9.34563 13.1526 9.20472 13.5507H10.4583C11.3108 13.5507 12.1283 13.8894 12.7311 14.4922C13.3339 15.095 13.6726 15.9126 13.6726 16.765C13.6726 17.6175 13.3339 18.4351 12.7311 19.0379C12.1283 19.6407 11.3108 19.9793 10.4583 19.9793H9.20472C9.34563 20.3775 9.4067 20.7995 9.38441 21.2213C9.36212 21.6431 9.25692 22.0564 9.07483 22.4375C8.89274 22.8186 8.63731 23.16 8.32317 23.4424C8.00902 23.7247 7.64231 23.9424 7.244 24.0829V26.4079C7.244 27.5445 7.69553 28.6346 8.49926 29.4383C9.30298 30.2421 10.3931 30.6936 11.5297 30.6936H20.1011C21.2378 30.6936 22.3279 30.2421 23.1316 29.4383C23.9353 28.6346 24.3869 27.5445 24.3869 26.4079V24.0829C23.9885 23.9424 23.6218 23.7247 23.3077 23.4424C22.9935 23.16 22.7381 22.8186 22.556 22.4375C22.3739 22.0564 22.2687 21.6431 22.2465 21.2213C22.2242 20.7995 22.2852 20.3775 22.4261 19.9793H21.1726C20.3201 19.9793 19.5025 19.6407 18.8997 19.0379C18.2969 18.4351 17.9583 17.6175 17.9583 16.765C17.9583 15.9126 18.2969 15.095 18.8997 14.4922C19.5025 13.8894 20.3201 13.5507 21.1726 13.5507H22.4261C22.2852 13.1526 22.2242 12.7305 22.2465 12.3087C22.2687 11.887 22.3739 11.4737 22.556 11.0926C22.7381 10.7115 22.9935 10.37 23.3077 10.0877C23.6218 9.80535 23.9885 9.5877 24.3869 9.44717V4.97932C24.3869 3.84268 23.9353 2.75259 23.1316 1.94886C22.3279 1.14513 21.2378 0.693604 20.1011 0.693604H11.5297ZM21.1726 15.6936H27.1576L24.6997 13.2379C24.4985 13.0367 24.3855 12.7638 24.3855 12.4793C24.3855 12.1948 24.4985 11.9219 24.6997 11.7207C24.9009 11.5196 25.1738 11.4065 25.4583 11.4065C25.7428 11.4065 26.0157 11.5196 26.2169 11.7207L30.5026 16.0065C30.7018 16.2062 30.8142 16.4765 30.8154 16.7586V16.7715C30.8137 17.0507 30.703 17.3183 30.5069 17.5172L30.5004 17.5236L26.2147 21.8093C26.0135 22.0102 25.7408 22.123 25.4565 22.1228C25.1721 22.1226 24.8995 22.0094 24.6986 21.8082C24.4977 21.6071 24.385 21.3343 24.3852 21.05C24.3854 20.7657 24.4985 20.4931 24.6997 20.2922L27.1576 17.8365H21.1726C20.8884 17.8365 20.6159 17.7236 20.415 17.5226C20.214 17.3217 20.1011 17.0492 20.1011 16.765C20.1011 16.4809 20.214 16.2083 20.415 16.0074C20.6159 15.8065 20.8884 15.6936 21.1726 15.6936ZM10.4583 17.8365C10.7424 17.8365 11.015 17.7236 11.2159 17.5226C11.4168 17.3217 11.5297 17.0492 11.5297 16.765C11.5297 16.4809 11.4168 16.2083 11.2159 16.0074C11.015 15.8065 10.7424 15.6936 10.4583 15.6936H4.47329L6.93114 13.2379C7.03076 13.1383 7.10978 13.02 7.16369 12.8899C7.21761 12.7597 7.24535 12.6202 7.24535 12.4793C7.24535 12.3384 7.21761 12.1989 7.16369 12.0688C7.10978 11.9386 7.03076 11.8204 6.93114 11.7207C6.83153 11.6211 6.71326 11.5421 6.58311 11.4882C6.45295 11.4343 6.31345 11.4065 6.17257 11.4065C6.03169 11.4065 5.89219 11.4343 5.76204 11.4882C5.63188 11.5421 5.51362 11.6211 5.414 11.7207L1.12829 16.0065L1.124 16.0129C0.927881 16.2117 0.817161 16.4793 0.81543 16.7586V16.7715C0.817183 17.0528 0.929561 17.3222 1.12829 17.5215L5.414 21.8072C5.6149 22.0084 5.8875 22.1215 6.17181 22.1217C6.45613 22.1219 6.72889 22.0091 6.93007 21.8082C7.13126 21.6073 7.2444 21.3347 7.2446 21.0504C7.2448 20.7661 7.13205 20.4934 6.93114 20.2922L4.47329 17.8365H10.4583Z" fill="#029894"/>
</svg>
