<svg width="31" height="31" viewBox="0 0 31 31" fill="none" xmlns="http://www.w3.org/2000/svg">
<path d="M30.3145 23.1897H27.502C27.2431 23.1897 27.0332 23.3576 27.0332 23.5647V24.6897C27.0332 24.8968 27.2431 25.0647 27.502 25.0647H30.3145C30.5733 25.0647 30.7832 24.8968 30.7832 24.6897V23.5647C30.7832 23.3576 30.5733 23.1897 30.3145 23.1897Z" fill="#029894"/>
<path d="M30.3145 14.7522H27.502C27.2431 14.7522 27.0332 14.9201 27.0332 15.1272V16.2522C27.0332 16.4593 27.2431 16.6272 27.502 16.6272H30.3145C30.5733 16.6272 30.7832 16.4593 30.7832 16.2522V15.1272C30.7832 14.9201 30.5733 14.7522 30.3145 14.7522Z" fill="#029894"/>
<path d="M30.3145 10.5334H27.502C27.2431 10.5334 27.0332 10.7013 27.0332 10.9084V12.0334C27.0332 12.2406 27.2431 12.4084 27.502 12.4084H30.3145C30.5733 12.4084 30.7832 12.2406 30.7832 12.0334V10.9084C30.7832 10.7013 30.5733 10.5334 30.3145 10.5334Z" fill="#029894"/>
<path d="M30.3145 6.3147H27.502C27.2431 6.3147 27.0332 6.48259 27.0332 6.6897V7.8147C27.0332 8.0218 27.2431 8.1897 27.502 8.1897H30.3145C30.5733 8.1897 30.7832 8.0218 30.7832 7.8147V6.6897C30.7832 6.48259 30.5733 6.3147 30.3145 6.3147Z" fill="#029894"/>
<path d="M30.3145 18.9709H27.502C27.2431 18.9709 27.0332 19.1388 27.0332 19.3459V20.4709C27.0332 20.6781 27.2431 20.8459 27.502 20.8459H30.3145C30.5733 20.8459 30.7832 20.6781 30.7832 20.4709V19.3459C30.7832 19.1388 30.5733 18.9709 30.3145 18.9709Z" fill="#029894"/>
<path d="M8.28857 30.2246V27.4121C8.28857 27.1532 8.12068 26.9434 7.91357 26.9434H6.78857C6.58147 26.9434 6.41357 27.1532 6.41357 27.4121V30.2246C6.41357 30.4835 6.58147 30.6934 6.78857 30.6934H7.91357C8.12068 30.6934 8.28857 30.4835 8.28857 30.2246Z" fill="#029894"/>
<path d="M16.7261 30.2246V27.4121C16.7261 27.1532 16.5582 26.9434 16.3511 26.9434H15.2261C15.019 26.9434 14.8511 27.1532 14.8511 27.4121V30.2246C14.8511 30.4835 15.019 30.6934 15.2261 30.6934H16.3511C16.5582 30.6934 16.7261 30.4835 16.7261 30.2246Z" fill="#029894"/>
<path d="M20.9448 30.2246V27.4121C20.9448 27.1532 20.7769 26.9434 20.5698 26.9434H19.4448C19.2377 26.9434 19.0698 27.1532 19.0698 27.4121V30.2246C19.0698 30.4835 19.2377 30.6934 19.4448 30.6934H20.5698C20.7769 30.6934 20.9448 30.4835 20.9448 30.2246Z" fill="#029894"/>
<path d="M25.1636 30.2246V27.4121C25.1636 27.1532 24.9957 26.9434 24.7886 26.9434H23.6636C23.4565 26.9434 23.2886 27.1532 23.2886 27.4121V30.2246C23.2886 30.4835 23.4565 30.6934 23.6636 30.6934H24.7886C24.9957 30.6934 25.1636 30.4835 25.1636 30.2246Z" fill="#029894"/>
<path d="M12.5073 30.2246V27.4121C12.5073 27.1532 12.3394 26.9434 12.1323 26.9434H11.0073C10.8002 26.9434 10.6323 27.1532 10.6323 27.4121V30.2246C10.6323 30.4835 10.8002 30.6934 11.0073 30.6934H12.1323C12.3394 30.6934 12.5073 30.4835 12.5073 30.2246Z" fill="#029894"/>
<path d="M4.06445 23.1897H1.25195C0.99307 23.1897 0.783203 23.3576 0.783203 23.5647V24.6897C0.783203 24.8968 0.99307 25.0647 1.25195 25.0647H4.06445C4.32334 25.0647 4.5332 24.8968 4.5332 24.6897V23.5647C4.5332 23.3576 4.32334 23.1897 4.06445 23.1897Z" fill="#029894"/>
<path d="M4.06445 14.7522H1.25195C0.99307 14.7522 0.783203 14.9201 0.783203 15.1272V16.2522C0.783203 16.4593 0.99307 16.6272 1.25195 16.6272H4.06445C4.32334 16.6272 4.5332 16.4593 4.5332 16.2522V15.1272C4.5332 14.9201 4.32334 14.7522 4.06445 14.7522Z" fill="#029894"/>
<path d="M4.06445 10.5334H1.25195C0.99307 10.5334 0.783203 10.7013 0.783203 10.9084V12.0334C0.783203 12.2406 0.99307 12.4084 1.25195 12.4084H4.06445C4.32334 12.4084 4.5332 12.2406 4.5332 12.0334V10.9084C4.5332 10.7013 4.32334 10.5334 4.06445 10.5334Z" fill="#029894"/>
<path d="M4.06445 6.3147H1.25195C0.99307 6.3147 0.783203 6.48259 0.783203 6.6897V7.8147C0.783203 8.0218 0.99307 8.1897 1.25195 8.1897H4.06445C4.32334 8.1897 4.5332 8.0218 4.5332 7.8147V6.6897C4.5332 6.48259 4.32334 6.3147 4.06445 6.3147Z" fill="#029894"/>
<path d="M4.06445 18.9709H1.25195C0.99307 18.9709 0.783203 19.1388 0.783203 19.3459V20.4709C0.783203 20.6781 0.99307 20.8459 1.25195 20.8459H4.06445C4.32334 20.8459 4.5332 20.6781 4.5332 20.4709V19.3459C4.5332 19.1388 4.32334 18.9709 4.06445 18.9709Z" fill="#029894"/>
<path d="M8.28857 3.97485V1.16235C8.28857 0.90347 8.12068 0.693604 7.91357 0.693604H6.78857C6.58147 0.693604 6.41357 0.90347 6.41357 1.16235V3.97485C6.41357 4.23374 6.58147 4.4436 6.78857 4.4436H7.91357C8.12068 4.4436 8.28857 4.23374 8.28857 3.97485Z" fill="#029894"/>
<path d="M16.7261 3.97485V1.16235C16.7261 0.90347 16.5582 0.693604 16.3511 0.693604H15.2261C15.019 0.693604 14.8511 0.90347 14.8511 1.16235V3.97485C14.8511 4.23374 15.019 4.4436 15.2261 4.4436H16.3511C16.5582 4.4436 16.7261 4.23374 16.7261 3.97485Z" fill="#029894"/>
<path d="M20.9448 3.97485V1.16235C20.9448 0.90347 20.7769 0.693604 20.5698 0.693604H19.4448C19.2377 0.693604 19.0698 0.90347 19.0698 1.16235V3.97485C19.0698 4.23374 19.2377 4.4436 19.4448 4.4436H20.5698C20.7769 4.4436 20.9448 4.23374 20.9448 3.97485Z" fill="#029894"/>
<path d="M25.1636 3.97485V1.16235C25.1636 0.90347 24.9957 0.693604 24.7886 0.693604H23.6636C23.4565 0.693604 23.2886 0.90347 23.2886 1.16235V3.97485C23.2886 4.23374 23.4565 4.4436 23.6636 4.4436H24.7886C24.9957 4.4436 25.1636 4.23374 25.1636 3.97485Z" fill="#029894"/>
<path d="M12.5073 3.97485V1.16235C12.5073 0.90347 12.3394 0.693604 12.1323 0.693604H11.0073C10.8002 0.693604 10.6323 0.90347 10.6323 1.16235V3.97485C10.6323 4.23374 10.8002 4.4436 11.0073 4.4436H12.1323C12.3394 4.4436 12.5073 4.23374 12.5073 3.97485Z" fill="#029894"/>
<path d="M26.6113 3.78345H4.95508C4.4632 3.78345 4.06445 4.10244 4.06445 4.49595V26.6959C4.06445 27.0895 4.4632 27.4084 4.95508 27.4084H26.6113C27.1032 27.4084 27.502 27.0895 27.502 26.6959V4.49595C27.502 4.10244 27.1032 3.78345 26.6113 3.78345Z" fill="#00718A"/>
<path d="M20.7754 18.521C19.791 20.2647 17.916 21.4272 15.7832 21.4272C12.6191 21.4272 10.041 18.8585 10.041 15.6897C10.041 12.521 12.6191 9.95225 15.7832 9.95225C17.916 9.95225 19.791 11.1335 20.7754 12.8772L23.8223 11.1147C22.2285 8.321 19.2285 6.42725 15.7832 6.42725C10.6738 6.42725 6.52539 10.571 6.52539 15.6897C6.52539 20.8085 10.6738 24.9522 15.7832 24.9522C19.2051 24.9522 22.2051 23.0772 23.7988 20.321L20.7754 18.521Z" fill="white"/>
<path d="M6.17383 6.8022C6.56215 6.8022 6.87695 6.4832 6.87695 6.0897C6.87695 5.69619 6.56215 5.3772 6.17383 5.3772C5.7855 5.3772 5.4707 5.69619 5.4707 6.0897C5.4707 6.4832 5.7855 6.8022 6.17383 6.8022Z" fill="white"/>
</svg>
