<svg width="24" height="33" viewBox="0 0 24 33" fill="none" xmlns="http://www.w3.org/2000/svg">
<path d="M6.55393 22.3692L0.3125 16.1277L6.55393 9.8863L7.69577 11.0475L2.61554 16.1277L7.69577 21.208L6.55393 22.3692ZM2.36072 24.1916H3.97349V26.6108H20.1012V24.1916H21.714V29.6508C21.714 30.3927 21.4656 31.012 20.9689 31.5088C20.4722 32.0055 19.8518 32.2544 19.1078 32.2555H4.96696C4.22401 32.2555 3.60417 32.0071 3.10744 31.5104C2.6107 31.0136 2.3618 30.3938 2.36072 29.6508V24.1916ZM3.97349 8.06387H2.36072V2.60624C2.36072 1.86329 2.60963 1.24345 3.10744 0.746714C3.60524 0.24998 4.22509 0.00107518 4.96696 0H19.1094C19.8512 0 20.4706 0.248905 20.9673 0.746714C21.464 1.24452 21.7129 1.86437 21.714 2.60624V8.06387H20.1012V5.64471H3.97349V8.06387ZM17.5208 22.3692L16.3789 21.208L21.4592 16.1277L16.3789 11.0475L17.5208 9.8863L23.7622 16.1277L17.5208 22.3692Z" fill="#029894"/>
</svg>
