<svg width="32" height="27" viewBox="0 0 32 27" fill="none" xmlns="http://www.w3.org/2000/svg">
<path d="M31.1398 7.82641C30.3083 7.02848 29.4768 6.22932 28.6216 5.40774C26.3486 7.60483 24.1067 9.78449 21.8473 11.948C21.0407 12.7198 20.239 13.509 19.3527 14.1836C18.3569 14.9417 17.4743 14.9592 16.5071 14.1737C15.5324 13.3832 14.6698 12.4496 13.7959 11.5409C12.9494 10.6608 12.1528 9.73221 11.2951 8.78242C10.4013 9.5654 9.44779 10.2488 8.68597 11.104C7.47228 12.4671 6.06813 13.0397 4.25071 12.7982C3.30217 12.6724 2.3225 12.7758 1.30176 12.6463C4.61668 9.75213 7.93161 6.85794 11.3175 3.90152C13.5196 6.26541 15.703 8.60939 17.8453 10.9098C20.5863 8.17869 23.2826 5.49239 26.01 2.77373C25.2033 2.00692 24.3656 1.21024 23.4469 0.336389C23.6648 0.271659 23.7345 0.234314 23.8042 0.234314C26.1469 0.215642 28.4896 0.200705 30.8324 0.187012C30.9344 0.187012 31.0365 0.213153 31.1373 0.22809C31.1398 2.76128 31.1398 5.29322 31.1398 7.82641Z" fill="#029894" stroke="#1C8985" stroke-width="0.382755" stroke-miterlimit="10"/>
<path d="M1.13965 15.9214C2.69068 15.9214 4.24047 15.9214 5.80021 15.9214C5.80021 19.2961 5.80021 22.616 5.80021 26.0616C5.32843 26.0616 4.92262 26.0616 4.51806 26.0616C3.64794 26.0616 2.77657 26.0741 1.90645 26.0529C1.65002 26.0467 1.39483 25.9433 1.13965 25.8848C1.13965 22.5624 1.13965 19.2413 1.13965 15.9214Z" fill="#029894" stroke="#1C8985" stroke-width="0.382755" stroke-miterlimit="10"/>
<path d="M24.4243 14.0242C25.887 12.6188 27.3944 11.1711 28.9816 9.64624C28.9816 15.1184 28.9816 20.4885 28.9816 25.9918C27.4953 26.1275 26.0065 26.0391 24.4243 26.0466C24.4243 22.0196 24.4243 18.0761 24.4243 14.0242Z" fill="#029894" stroke="#1C8985" stroke-width="0.382755" stroke-miterlimit="10"/>
<path d="M13.5205 25.9781C12.0118 25.9781 10.5691 25.9781 9.03176 25.9781C8.98196 25.8113 8.86869 25.6096 8.86744 25.4067C8.85624 22.0458 8.85997 18.6848 8.85997 15.2914C9.56204 14.6678 10.2691 14.0391 10.9973 13.3918C11.8662 14.3105 12.7027 15.1956 13.5205 16.0595C13.5205 19.3545 13.5205 22.6395 13.5205 25.9781Z" fill="#029894" stroke="#1C8985" stroke-width="0.382755" stroke-miterlimit="10"/>
<path d="M16.5906 17.7574C18.3022 18.1159 19.8196 17.801 21.2748 16.8562C21.2748 19.9259 21.2748 22.8998 21.2748 25.9657C19.7699 25.9657 18.2972 25.9657 16.745 25.9657C16.7039 25.8425 16.5981 25.6757 16.5981 25.5076C16.5881 22.9595 16.5906 20.4101 16.5906 17.7574Z" fill="#029894" stroke="#1C8985" stroke-width="0.382755" stroke-miterlimit="10"/>
</svg>
