<svg width="31" height="27" viewBox="0 0 31 27" fill="none" xmlns="http://www.w3.org/2000/svg">
<path d="M0.569824 5.2793V2.97263C0.569824 2.20485 0.827047 1.5643 1.34149 1.05096C1.85594 0.53763 2.49593 0.280408 3.26149 0.279297H27.8782C28.6448 0.279297 29.2848 0.536519 29.7982 1.05096C30.3115 1.56541 30.5687 2.20596 30.5698 2.97263V5.2793H28.9032V2.97263C28.9032 2.67263 28.807 2.42652 28.6148 2.2343C28.4226 2.04207 28.177 1.94596 27.8782 1.94596H3.26149C2.9626 1.94596 2.71705 2.04207 2.52482 2.2343C2.3326 2.42652 2.23649 2.67263 2.23649 2.97263V5.2793H0.569824ZM10.5698 26.946V23.6126H3.26316C2.49538 23.6126 1.85482 23.356 1.34149 22.8426C0.828158 22.3293 0.570935 21.6882 0.569824 20.9193V18.6126H2.23649V20.921C2.23649 21.2199 2.3326 21.4654 2.52482 21.6576C2.71705 21.8499 2.96316 21.946 3.26316 21.946H27.8782C28.177 21.946 28.4226 21.8499 28.6148 21.6576C28.807 21.4654 28.9032 21.2193 28.9032 20.9193V18.6126H30.5698V20.921C30.5698 21.6876 30.3132 22.3276 29.7998 22.841C29.2865 23.3543 28.6459 23.6115 27.8782 23.6126H20.5698V26.946H10.5698ZM2.92982 11.946L7.26316 7.61263L6.08316 6.43263L0.569824 11.946L6.08316 17.4593L7.26316 16.2793L2.92982 11.946ZM28.2115 11.946L23.8782 16.2793L25.0565 17.4593L30.5698 11.946L25.0565 6.43263L23.8782 7.61263L28.2115 11.946Z" fill="#029894"/>
</svg>
