<svg width="31" height="25" viewBox="0 0 31 25" fill="none" xmlns="http://www.w3.org/2000/svg">
<path fill-rule="evenodd" clip-rule="evenodd" d="M17.9007 5.87549C17.5391 5.87549 17.1922 6.01916 16.9365 6.27489C16.6808 6.53062 16.5371 6.87747 16.5371 7.23912V18.1482C16.5371 18.5099 16.6808 18.8567 16.9365 19.1125C17.1922 19.3682 17.5391 19.5119 17.9007 19.5119H23.3553C23.717 19.5119 24.0638 19.3682 24.3195 19.1125C24.5753 18.8567 24.7189 18.5099 24.7189 18.1482V7.23912C24.7189 6.87747 24.5753 6.53062 24.3195 6.27489C24.0638 6.01916 23.717 5.87549 23.3553 5.87549H17.9007ZM21.9917 8.60276H19.2644V16.7846H21.9917V8.60276Z" fill="#029894"/>
<path d="M6.99157 5.87549C6.62991 5.87549 6.28306 6.01916 6.02733 6.27489C5.7716 6.53062 5.62793 6.87747 5.62793 7.23912C5.62793 7.60078 5.7716 7.94763 6.02733 8.20336C6.28306 8.45909 6.62991 8.60276 6.99157 8.60276H12.4461C12.8078 8.60276 13.1546 8.45909 13.4103 8.20336C13.6661 7.94763 13.8097 7.60078 13.8097 7.23912C13.8097 6.87747 13.6661 6.53062 13.4103 6.27489C13.1546 6.01916 12.8078 5.87549 12.4461 5.87549H6.99157ZM6.99157 11.33C6.62991 11.33 6.28306 11.4737 6.02733 11.7294C5.7716 11.9852 5.62793 12.332 5.62793 12.6937C5.62793 13.0553 5.7716 13.4022 6.02733 13.6579C6.28306 13.9136 6.62991 14.0573 6.99157 14.0573H12.4461C12.8078 14.0573 13.1546 13.9136 13.4103 13.6579C13.6661 13.4022 13.8097 13.0553 13.8097 12.6937C13.8097 12.332 13.6661 11.9852 13.4103 11.7294C13.1546 11.4737 12.8078 11.33 12.4461 11.33H6.99157ZM5.62793 18.1482C5.62793 17.7866 5.7716 17.4397 6.02733 17.184C6.28306 16.9282 6.62991 16.7846 6.99157 16.7846H12.4461C12.8078 16.7846 13.1546 16.9282 13.4103 17.184C13.6661 17.4397 13.8097 17.7866 13.8097 18.1482C13.8097 18.5099 13.6661 18.8567 13.4103 19.1125C13.1546 19.3682 12.8078 19.5119 12.4461 19.5119H6.99157C6.62991 19.5119 6.28306 19.3682 6.02733 19.1125C5.7716 18.8567 5.62793 18.5099 5.62793 18.1482Z" fill="#029894"/>
<path fill-rule="evenodd" clip-rule="evenodd" d="M4.26425 0.420898C3.17927 0.420898 2.13873 0.851904 1.37154 1.6191C0.604345 2.38629 0.17334 3.42683 0.17334 4.51181V20.8754C0.17334 21.9604 0.604345 23.001 1.37154 23.7682C2.13873 24.5353 3.17927 24.9664 4.26425 24.9664H26.0824C27.1674 24.9664 28.2079 24.5353 28.9751 23.7682C29.7423 23.001 30.1733 21.9604 30.1733 20.8754V4.51181C30.1733 3.42683 29.7423 2.38629 28.9751 1.6191C28.2079 0.851904 27.1674 0.420898 26.0824 0.420898H4.26425ZM26.0824 3.14817H4.26425C3.90259 3.14817 3.55574 3.29184 3.30001 3.54757C3.04428 3.8033 2.90061 4.15015 2.90061 4.51181V20.8754C2.90061 21.2371 3.04428 21.584 3.30001 21.8397C3.55574 22.0954 3.90259 22.2391 4.26425 22.2391H26.0824C26.4441 22.2391 26.7909 22.0954 27.0467 21.8397C27.3024 21.584 27.4461 21.2371 27.4461 20.8754V4.51181C27.4461 4.15015 27.3024 3.8033 27.0467 3.54757C26.7909 3.29184 26.4441 3.14817 26.0824 3.14817Z" fill="#029894"/>
</svg>
