<svg width="30" height="25" viewBox="0 0 30 25" fill="none" xmlns="http://www.w3.org/2000/svg">
<path fill-rule="evenodd" clip-rule="evenodd" d="M17.7274 5.71002C17.3657 5.71002 17.0189 5.85369 16.7632 6.10942C16.5074 6.36515 16.3638 6.712 16.3638 7.07366V17.9827C16.3638 18.3444 16.5074 18.6913 16.7632 18.947C17.0189 19.2027 17.3657 19.3464 17.7274 19.3464H23.182C23.5436 19.3464 23.8905 19.2027 24.1462 18.947C24.4019 18.6913 24.5456 18.3444 24.5456 17.9827V7.07366C24.5456 6.712 24.4019 6.36515 24.1462 6.10942C23.8905 5.85369 23.5436 5.71002 23.182 5.71002H17.7274ZM21.8183 8.43729H19.091V16.6191H21.8183V8.43729Z" fill="#354899"/>
<path d="M6.81823 5.71002C6.45657 5.71002 6.10972 5.85369 5.85399 6.10942C5.59826 6.36515 5.45459 6.712 5.45459 7.07366C5.45459 7.43532 5.59826 7.78216 5.85399 8.03789C6.10972 8.29363 6.45657 8.43729 6.81823 8.43729H12.2728C12.6344 8.43729 12.9813 8.29363 13.237 8.03789C13.4927 7.78216 13.6364 7.43532 13.6364 7.07366C13.6364 6.712 13.4927 6.36515 13.237 6.10942C12.9813 5.85369 12.6344 5.71002 12.2728 5.71002H6.81823ZM6.81823 11.1646C6.45657 11.1646 6.10972 11.3082 5.85399 11.564C5.59826 11.8197 5.45459 12.1665 5.45459 12.5282C5.45459 12.8899 5.59826 13.2367 5.85399 13.4924C6.10972 13.7482 6.45657 13.8918 6.81823 13.8918H12.2728C12.6344 13.8918 12.9813 13.7482 13.237 13.4924C13.4927 13.2367 13.6364 12.8899 13.6364 12.5282C13.6364 12.1665 13.4927 11.8197 13.237 11.564C12.9813 11.3082 12.6344 11.1646 12.2728 11.1646H6.81823ZM5.45459 17.9827C5.45459 17.6211 5.59826 17.2742 5.85399 17.0185C6.10972 16.7628 6.45657 16.6191 6.81823 16.6191H12.2728C12.6344 16.6191 12.9813 16.7628 13.237 17.0185C13.4927 17.2742 13.6364 17.6211 13.6364 17.9827C13.6364 18.3444 13.4927 18.6913 13.237 18.947C12.9813 19.2027 12.6344 19.3464 12.2728 19.3464H6.81823C6.45657 19.3464 6.10972 19.2027 5.85399 18.947C5.59826 18.6913 5.45459 18.3444 5.45459 17.9827Z" fill="#354899"/>
<path fill-rule="evenodd" clip-rule="evenodd" d="M4.09091 0.255493C3.00593 0.255493 1.96539 0.686499 1.1982 1.45369C0.431005 2.22089 0 3.26143 0 4.3464V20.71C0 21.795 0.431005 22.8356 1.1982 23.6027C1.96539 24.3699 3.00593 24.8009 4.09091 24.8009H25.9091C26.9941 24.8009 28.0346 24.3699 28.8018 23.6027C29.569 22.8356 30 21.795 30 20.71V4.3464C30 3.26143 29.569 2.22089 28.8018 1.45369C28.0346 0.686499 26.9941 0.255493 25.9091 0.255493H4.09091ZM25.9091 2.98277H4.09091C3.72925 2.98277 3.3824 3.12643 3.12667 3.38217C2.87094 3.6379 2.72727 3.98474 2.72727 4.3464V20.71C2.72727 21.0717 2.87094 21.4185 3.12667 21.6743C3.3824 21.93 3.72925 22.0737 4.09091 22.0737H25.9091C26.2707 22.0737 26.6176 21.93 26.8733 21.6743C27.1291 21.4185 27.2727 21.0717 27.2727 20.71V4.3464C27.2727 3.98474 27.1291 3.6379 26.8733 3.38217C26.6176 3.12643 26.2707 2.98277 25.9091 2.98277Z" fill="#354899"/>
</svg>
