<svg width="31" height="27" viewBox="0 0 31 27" fill="none" xmlns="http://www.w3.org/2000/svg">
<path d="M0.449707 5V2.69333C0.449707 1.92556 0.706929 1.285 1.22137 0.771666C1.73582 0.258333 2.37582 0.00111111 3.14137 0H27.758C28.5247 0 29.1647 0.257222 29.678 0.771666C30.1914 1.28611 30.4486 1.92667 30.4497 2.69333V5H28.783V2.69333C28.783 2.39333 28.6869 2.14722 28.4947 1.955C28.3025 1.76278 28.0569 1.66667 27.758 1.66667H3.14137C2.84248 1.66667 2.59693 1.76278 2.40471 1.955C2.21248 2.14722 2.11637 2.39333 2.11637 2.69333V5H0.449707ZM10.4497 26.6667V23.3333H3.14304C2.37526 23.3333 1.73471 23.0767 1.22137 22.5633C0.70804 22.05 0.450818 21.4089 0.449707 20.64V18.3333H2.11637V20.6417C2.11637 20.9406 2.21248 21.1861 2.40471 21.3783C2.59693 21.5706 2.84304 21.6667 3.14304 21.6667H27.758C28.0569 21.6667 28.3025 21.5706 28.4947 21.3783C28.6869 21.1861 28.783 20.94 28.783 20.64V18.3333H30.4497V20.6417C30.4497 21.4083 30.193 22.0483 29.6797 22.5617C29.1664 23.075 28.5258 23.3322 27.758 23.3333H20.4497V26.6667H10.4497ZM2.80971 11.6667L7.14304 7.33333L5.96304 6.15333L0.449707 11.6667L5.96304 17.18L7.14304 16L2.80971 11.6667ZM28.0914 11.6667L23.758 16L24.9364 17.18L30.4497 11.6667L24.9364 6.15333L23.758 7.33333L28.0914 11.6667Z" fill="#354899"/>
</svg>
