<svg width="31" height="28" viewBox="0 0 31 28" fill="none" xmlns="http://www.w3.org/2000/svg">
<path d="M30.4499 8.63939C29.6184 7.84147 28.7868 7.0423 27.9316 6.22073C25.6586 8.41782 23.4167 10.5975 21.1574 12.761C20.3508 13.5327 19.5491 14.3219 18.6628 14.9966C17.6669 15.7547 16.7844 15.7722 15.8172 14.9867C14.8425 14.1962 13.9798 13.2626 13.106 12.3539C12.2595 11.4738 11.4628 10.5452 10.6051 9.59541C9.71137 10.3784 8.75785 11.0618 7.99602 11.917C6.78234 13.28 5.37819 13.8527 3.56077 13.6112C2.61222 13.4854 1.63256 13.5888 0.611816 13.4593C3.92674 10.5651 7.24167 7.67093 10.6276 4.71451C12.8296 7.0784 15.013 9.42238 17.1553 11.7228C19.8964 8.99167 22.5927 6.30538 25.32 3.58671C24.5134 2.81991 23.6756 2.02323 22.757 1.14938C22.9748 1.08465 23.0445 1.0473 23.1142 1.0473C25.457 1.02863 27.7997 1.01369 30.1424 1C30.2445 1 30.3466 1.02614 30.4474 1.04108C30.4499 3.57427 30.4499 6.10621 30.4499 8.63939Z" fill="#354899" stroke="#001C63" stroke-width="0.382755" stroke-miterlimit="10"/>
<path d="M0.449707 16.7344C2.00074 16.7344 3.55053 16.7344 5.11027 16.7344C5.11027 20.1091 5.11027 23.429 5.11027 26.8746C4.63849 26.8746 4.23268 26.8746 3.82812 26.8746C2.958 26.8746 2.08663 26.887 1.21651 26.8659C0.960079 26.8597 0.704893 26.7563 0.449707 26.6978C0.449707 23.3754 0.449707 20.0543 0.449707 16.7344Z" fill="#354899" stroke="#001C63" stroke-width="0.382755" stroke-miterlimit="10"/>
<path d="M23.7344 14.8373C25.197 13.4319 26.7045 11.9842 28.2916 10.4593C28.2916 15.9315 28.2916 21.3016 28.2916 26.8049C26.8053 26.9406 25.3165 26.8522 23.7344 26.8597C23.7344 22.8327 23.7344 18.8892 23.7344 14.8373Z" fill="#354899" stroke="#001C63" stroke-width="0.382755" stroke-miterlimit="10"/>
<path d="M12.8306 26.7912C11.3219 26.7912 9.87915 26.7912 8.34181 26.7912C8.29202 26.6244 8.17874 26.4228 8.1775 26.2199C8.1663 22.8589 8.17003 19.4979 8.17003 16.1045C8.8721 15.4809 9.57915 14.8523 10.3074 14.205C11.1762 15.1236 12.0128 16.0087 12.8306 16.8726C12.8306 20.1676 12.8306 23.4526 12.8306 26.7912Z" fill="#354899" stroke="#001C63" stroke-width="0.382755" stroke-miterlimit="10"/>
<path d="M15.9007 18.5705C17.6123 18.929 19.1297 18.6141 20.5849 17.6693C20.5849 20.7389 20.5849 23.7128 20.5849 26.7788C19.0799 26.7788 17.6073 26.7788 16.055 26.7788C16.0139 26.6555 15.9081 26.4887 15.9081 26.3207C15.8982 23.7725 15.9007 21.2232 15.9007 18.5705Z" fill="#354899" stroke="#001C63" stroke-width="0.382755" stroke-miterlimit="10"/>
</svg>
