<svg width="30" height="31" viewBox="0 0 30 31" fill="none" xmlns="http://www.w3.org/2000/svg">
<path d="M10.7143 0.255493C9.57764 0.255493 8.48755 0.707023 7.68383 1.51075C6.8801 2.31448 6.42857 3.40457 6.42857 4.54121V9.00906C6.82688 9.14959 7.19359 9.36724 7.50774 9.64957C7.82188 9.9319 8.07731 10.2734 8.2594 10.6545C8.44149 11.0356 8.54669 11.4489 8.56898 11.8706C8.59127 12.2924 8.5302 12.7145 8.38929 13.1126H9.64286C10.4953 13.1126 11.3129 13.4513 11.9157 14.0541C12.5185 14.6569 12.8571 15.4744 12.8571 16.3269C12.8571 17.1794 12.5185 17.997 11.9157 18.5998C11.3129 19.2026 10.4953 19.5412 9.64286 19.5412H8.38929C8.5302 19.9394 8.59127 20.3614 8.56898 20.7832C8.54669 21.205 8.44149 21.6182 8.2594 21.9994C8.07731 22.3805 7.82188 22.7219 7.50774 23.0043C7.19359 23.2866 6.82688 23.5043 6.42857 23.6448V25.9698C6.42857 27.1064 6.8801 28.1965 7.68383 29.0002C8.48755 29.804 9.57764 30.2555 10.7143 30.2555H19.2857C20.4224 30.2555 21.5124 29.804 22.3162 29.0002C23.1199 28.1965 23.5714 27.1064 23.5714 25.9698V23.6448C23.1731 23.5043 22.8064 23.2866 22.4923 23.0043C22.1781 22.7219 21.9227 22.3805 21.7406 21.9994C21.5585 21.6182 21.4533 21.205 21.431 20.7832C21.4087 20.3614 21.4698 19.9394 21.6107 19.5412H20.3571C19.5047 19.5412 18.6871 19.2026 18.0843 18.5998C17.4815 17.997 17.1429 17.1794 17.1429 16.3269C17.1429 15.4744 17.4815 14.6569 18.0843 14.0541C18.6871 13.4513 19.5047 13.1126 20.3571 13.1126H21.6107C21.4698 12.7145 21.4087 12.2924 21.431 11.8706C21.4533 11.4489 21.5585 11.0356 21.7406 10.6545C21.9227 10.2734 22.1781 9.9319 22.4923 9.64957C22.8064 9.36724 23.1731 9.14959 23.5714 9.00906V4.54121C23.5714 3.40457 23.1199 2.31448 22.3162 1.51075C21.5124 0.707023 20.4224 0.255493 19.2857 0.255493H10.7143ZM20.3571 15.2555H26.3421L23.8843 12.7998C23.6831 12.5986 23.5701 12.3257 23.5701 12.0412C23.5701 11.7567 23.6831 11.4838 23.8843 11.2826C24.0855 11.0814 24.3583 10.9684 24.6429 10.9684C24.9274 10.9684 25.2002 11.0814 25.4014 11.2826L29.6871 15.5683C29.8864 15.7681 29.9988 16.0384 30 16.3205V16.3334C29.9983 16.6126 29.8875 16.8802 29.6914 17.0791L29.685 17.0855L25.3993 21.3712C25.1981 21.5721 24.9253 21.6849 24.641 21.6847C24.3567 21.6845 24.0841 21.5713 23.8832 21.3701C23.6823 21.169 23.5696 20.8962 23.5698 20.6119C23.57 20.3276 23.6831 20.055 23.8843 19.8541L26.3421 17.3983H20.3571C20.073 17.3983 19.8005 17.2855 19.5995 17.0845C19.3986 16.8836 19.2857 16.6111 19.2857 16.3269C19.2857 16.0428 19.3986 15.7702 19.5995 15.5693C19.8005 15.3684 20.073 15.2555 20.3571 15.2555ZM9.64286 17.3983C9.92702 17.3983 10.1995 17.2855 10.4005 17.0845C10.6014 16.8836 10.7143 16.6111 10.7143 16.3269C10.7143 16.0428 10.6014 15.7702 10.4005 15.5693C10.1995 15.3684 9.92702 15.2555 9.64286 15.2555H3.65786L6.11571 12.7998C6.21533 12.7002 6.29435 12.5819 6.34826 12.4517C6.40218 12.3216 6.42993 12.1821 6.42993 12.0412C6.42993 11.9003 6.40218 11.7608 6.34826 11.6307C6.29435 11.5005 6.21533 11.3823 6.11571 11.2826C6.0161 11.183 5.89783 11.104 5.76768 11.0501C5.63752 10.9962 5.49802 10.9684 5.35714 10.9684C5.21626 10.9684 5.07676 10.9962 4.94661 11.0501C4.81645 11.104 4.69819 11.183 4.59857 11.2826L0.312857 15.5683L0.308572 15.5748C0.112452 15.7736 0.00173133 16.0412 0 16.3205V16.3334C0.00175359 16.6147 0.114132 16.8841 0.312857 17.0833L4.59857 21.3691C4.79947 21.5702 5.07207 21.6834 5.35639 21.6836C5.6407 21.6838 5.91346 21.571 6.11464 21.3701C6.31583 21.1692 6.42897 20.8966 6.42917 20.6123C6.42937 20.328 6.31662 20.0552 6.11571 19.8541L3.65786 17.3983H9.64286Z" fill="#001C63"/>
</svg>
