<svg width="30" height="31" viewBox="0 0 30 31" fill="none" xmlns="http://www.w3.org/2000/svg">
<path d="M29.5312 22.7516H26.7188C26.4599 22.7516 26.25 22.9195 26.25 23.1266V24.2516C26.25 24.4587 26.4599 24.6266 26.7188 24.6266H29.5312C29.7901 24.6266 30 24.4587 30 24.2516V23.1266C30 22.9195 29.7901 22.7516 29.5312 22.7516Z" fill="#354899"/>
<path d="M29.5312 14.3141H26.7188C26.4599 14.3141 26.25 14.482 26.25 14.6891V15.8141C26.25 16.0212 26.4599 16.1891 26.7188 16.1891H29.5312C29.7901 16.1891 30 16.0212 30 15.8141V14.6891C30 14.482 29.7901 14.3141 29.5312 14.3141Z" fill="#354899"/>
<path d="M29.5312 10.0953H26.7188C26.4599 10.0953 26.25 10.2632 26.25 10.4703V11.5953C26.25 11.8024 26.4599 11.9703 26.7188 11.9703H29.5312C29.7901 11.9703 30 11.8024 30 11.5953V10.4703C30 10.2632 29.7901 10.0953 29.5312 10.0953Z" fill="#354899"/>
<path d="M29.5312 5.87659H26.7188C26.4599 5.87659 26.25 6.04448 26.25 6.25159V7.37659C26.25 7.58369 26.4599 7.75159 26.7188 7.75159H29.5312C29.7901 7.75159 30 7.58369 30 7.37659V6.25159C30 6.04448 29.7901 5.87659 29.5312 5.87659Z" fill="#354899"/>
<path d="M29.5312 18.5328H26.7188C26.4599 18.5328 26.25 18.7007 26.25 18.9078V20.0328C26.25 20.2399 26.4599 20.4078 26.7188 20.4078H29.5312C29.7901 20.4078 30 20.2399 30 20.0328V18.9078C30 18.7007 29.7901 18.5328 29.5312 18.5328Z" fill="#354899"/>
<path d="M7.50537 29.7866V26.9741C7.50537 26.7152 7.33748 26.5053 7.13037 26.5053H6.00537C5.79826 26.5053 5.63037 26.7152 5.63037 26.9741V29.7866C5.63037 30.0454 5.79826 30.2553 6.00537 30.2553H7.13037C7.33748 30.2553 7.50537 30.0454 7.50537 29.7866Z" fill="#354899"/>
<path d="M15.9429 29.7866V26.9741C15.9429 26.7152 15.775 26.5053 15.5679 26.5053H14.4429C14.2358 26.5053 14.0679 26.7152 14.0679 26.9741V29.7866C14.0679 30.0454 14.2358 30.2553 14.4429 30.2553H15.5679C15.775 30.2553 15.9429 30.0454 15.9429 29.7866Z" fill="#354899"/>
<path d="M20.1616 29.7866V26.9741C20.1616 26.7152 19.9937 26.5053 19.7866 26.5053H18.6616C18.4545 26.5053 18.2866 26.7152 18.2866 26.9741V29.7866C18.2866 30.0454 18.4545 30.2553 18.6616 30.2553H19.7866C19.9937 30.2553 20.1616 30.0454 20.1616 29.7866Z" fill="#354899"/>
<path d="M24.3804 29.7866V26.9741C24.3804 26.7152 24.2125 26.5053 24.0054 26.5053H22.8804C22.6733 26.5053 22.5054 26.7152 22.5054 26.9741V29.7866C22.5054 30.0454 22.6733 30.2553 22.8804 30.2553H24.0054C24.2125 30.2553 24.3804 30.0454 24.3804 29.7866Z" fill="#354899"/>
<path d="M11.7241 29.7866V26.9741C11.7241 26.7152 11.5562 26.5053 11.3491 26.5053H10.2241C10.017 26.5053 9.84912 26.7152 9.84912 26.9741V29.7866C9.84912 30.0454 10.017 30.2553 10.2241 30.2553H11.3491C11.5562 30.2553 11.7241 30.0454 11.7241 29.7866Z" fill="#354899"/>
<path d="M3.28125 22.7516H0.46875C0.209867 22.7516 0 22.9195 0 23.1266V24.2516C0 24.4587 0.209867 24.6266 0.46875 24.6266H3.28125C3.54013 24.6266 3.75 24.4587 3.75 24.2516V23.1266C3.75 22.9195 3.54013 22.7516 3.28125 22.7516Z" fill="#354899"/>
<path d="M3.28125 14.3141H0.46875C0.209867 14.3141 0 14.482 0 14.6891V15.8141C0 16.0212 0.209867 16.1891 0.46875 16.1891H3.28125C3.54013 16.1891 3.75 16.0212 3.75 15.8141V14.6891C3.75 14.482 3.54013 14.3141 3.28125 14.3141Z" fill="#354899"/>
<path d="M3.28125 10.0953H0.46875C0.209867 10.0953 0 10.2632 0 10.4703V11.5953C0 11.8024 0.209867 11.9703 0.46875 11.9703H3.28125C3.54013 11.9703 3.75 11.8024 3.75 11.5953V10.4703C3.75 10.2632 3.54013 10.0953 3.28125 10.0953Z" fill="#354899"/>
<path d="M3.28125 5.87659H0.46875C0.209867 5.87659 0 6.04448 0 6.25159V7.37659C0 7.58369 0.209867 7.75159 0.46875 7.75159H3.28125C3.54013 7.75159 3.75 7.58369 3.75 7.37659V6.25159C3.75 6.04448 3.54013 5.87659 3.28125 5.87659Z" fill="#354899"/>
<path d="M3.28125 18.5328H0.46875C0.209867 18.5328 0 18.7007 0 18.9078V20.0328C0 20.2399 0.209867 20.4078 0.46875 20.4078H3.28125C3.54013 20.4078 3.75 20.2399 3.75 20.0328V18.9078C3.75 18.7007 3.54013 18.5328 3.28125 18.5328Z" fill="#354899"/>
<path d="M7.50537 3.53674V0.724243C7.50537 0.46536 7.33748 0.255493 7.13037 0.255493H6.00537C5.79826 0.255493 5.63037 0.46536 5.63037 0.724243V3.53674C5.63037 3.79563 5.79826 4.00549 6.00537 4.00549H7.13037C7.33748 4.00549 7.50537 3.79563 7.50537 3.53674Z" fill="#354899"/>
<path d="M15.9429 3.53674V0.724243C15.9429 0.46536 15.775 0.255493 15.5679 0.255493H14.4429C14.2358 0.255493 14.0679 0.46536 14.0679 0.724243V3.53674C14.0679 3.79563 14.2358 4.00549 14.4429 4.00549H15.5679C15.775 4.00549 15.9429 3.79563 15.9429 3.53674Z" fill="#354899"/>
<path d="M20.1616 3.53674V0.724243C20.1616 0.46536 19.9937 0.255493 19.7866 0.255493H18.6616C18.4545 0.255493 18.2866 0.46536 18.2866 0.724243V3.53674C18.2866 3.79563 18.4545 4.00549 18.6616 4.00549H19.7866C19.9937 4.00549 20.1616 3.79563 20.1616 3.53674Z" fill="#354899"/>
<path d="M24.3804 3.53674V0.724243C24.3804 0.46536 24.2125 0.255493 24.0054 0.255493H22.8804C22.6733 0.255493 22.5054 0.46536 22.5054 0.724243V3.53674C22.5054 3.79563 22.6733 4.00549 22.8804 4.00549H24.0054C24.2125 4.00549 24.3804 3.79563 24.3804 3.53674Z" fill="#354899"/>
<path d="M11.7241 3.53674V0.724243C11.7241 0.46536 11.5562 0.255493 11.3491 0.255493H10.2241C10.017 0.255493 9.84912 0.46536 9.84912 0.724243V3.53674C9.84912 3.79563 10.017 4.00549 10.2241 4.00549H11.3491C11.5562 4.00549 11.7241 3.79563 11.7241 3.53674Z" fill="#354899"/>
<path d="M25.8281 3.34528H4.17187C3.68 3.34528 3.28125 3.66427 3.28125 4.05778V26.2578C3.28125 26.6513 3.68 26.9703 4.17187 26.9703H25.8281C26.32 26.9703 26.7188 26.6513 26.7188 26.2578V4.05778C26.7188 3.66427 26.32 3.34528 25.8281 3.34528Z" fill="#001C63"/>
<path d="M19.9922 18.0828C19.0078 19.8266 17.1328 20.9891 15 20.9891C11.8359 20.9891 9.25781 18.4203 9.25781 15.2516C9.25781 12.0828 11.8359 9.51407 15 9.51407C17.1328 9.51407 19.0078 10.6953 19.9922 12.4391L23.0391 10.6766C21.4453 7.88282 18.4453 5.98907 15 5.98907C9.89062 5.98907 5.74219 10.1328 5.74219 15.2516C5.74219 20.3703 9.89062 24.5141 15 24.5141C18.4219 24.5141 21.4219 22.6391 23.0156 19.8828L19.9922 18.0828Z" fill="white"/>
<path d="M5.39062 6.36409C5.77895 6.36409 6.09375 6.04509 6.09375 5.65159C6.09375 5.25808 5.77895 4.93909 5.39062 4.93909C5.0023 4.93909 4.6875 5.25808 4.6875 5.65159C4.6875 6.04509 5.0023 6.36409 5.39062 6.36409Z" fill="white"/>
</svg>
