<svg width="24" height="33" viewBox="0 0 24 33" fill="none" xmlns="http://www.w3.org/2000/svg">
<path d="M6.24143 22.3692L0 16.1277L6.24143 9.8863L7.38327 11.0475L2.30304 16.1277L7.38327 21.208L6.24143 22.3692ZM2.04822 24.1916H3.66099V26.6108H19.7887V24.1916H21.4015V29.6508C21.4015 30.3927 21.1531 31.012 20.6564 31.5088C20.1597 32.0055 19.5393 32.2544 18.7953 32.2555H4.65446C3.91151 32.2555 3.29167 32.0071 2.79494 31.5104C2.2982 31.0136 2.0493 30.3938 2.04822 29.6508V24.1916ZM3.66099 8.06387H2.04822V2.60624C2.04822 1.86329 2.29713 1.24345 2.79494 0.746714C3.29274 0.24998 3.91259 0.00107518 4.65446 0H18.7969C19.5387 0 20.1581 0.248905 20.6548 0.746714C21.1515 1.24452 21.4004 1.86437 21.4015 2.60624V8.06387H19.7887V5.64471H3.66099V8.06387ZM17.2083 22.3692L16.0664 21.208L21.1467 16.1277L16.0664 11.0475L17.2083 9.8863L23.4497 16.1277L17.2083 22.3692Z" fill="#354899"/>
</svg>
