<svg width="464" height="396" viewBox="0 0 464 396" fill="none" xmlns="http://www.w3.org/2000/svg">
<g clip-path="url(#clip0_312_11525)">
<path d="M101.804 129.2H89.6748C88.4313 129.2 87.4198 128.188 87.4198 126.945V114.96C87.4198 112.751 86.9001 110.681 85.3782 109.716C84.0511 108.88 82.3065 109.799 82.0652 111.34C81.5084 114.905 79.8473 122.127 75.2073 126.62C73.7689 128.012 72.6738 130.88 72.6738 132.886V154.31C72.6738 156.408 76.358 158.107 80.8402 158.107H99.2146C102.769 158.107 105.655 155.22 105.655 151.665V148.889C105.655 146.847 106.286 144.888 107.223 143.078C107.901 141.769 108.263 140.303 108.263 138.827V135.643C108.244 132.087 105.367 129.2 101.804 129.2Z" fill="#EBEBEB"/>
<path d="M70.2518 129.98H62.4102V156.52H70.2518V129.98Z" fill="#EBEBEB"/>
<path d="M354.833 206.693L361.607 188.063C364.132 188.982 366.442 190.402 368.4 192.249C370.358 194.087 371.917 196.315 372.994 198.775L354.833 206.693Z" fill="#F5F5F5"/>
<path d="M354.833 206.693L360.605 225.658C358.73 226.224 356.782 226.521 354.833 226.521C343.957 226.521 335.011 217.573 335.011 206.693C335.011 195.814 343.957 186.865 354.833 186.865C357.116 186.865 359.38 187.255 361.524 188.026L354.833 206.693Z" fill="#E0E0E0"/>
<path d="M354.833 206.693L373.04 198.859C374.108 201.337 374.655 204.001 374.655 206.693C374.655 215.363 368.966 223.078 360.689 225.64L354.833 206.693Z" fill="#EBEBEB"/>
<path d="M145.29 220.2C143.016 223.662 141.485 227.468 140.668 231.395L134.423 231.98V244.084L140.668 244.669C141.485 248.596 143.016 252.393 145.29 255.864L141.299 260.682L149.855 269.241L154.672 265.249C158.133 267.524 161.938 269.055 165.863 269.872L166.448 276.119H178.549L179.134 269.872C183.059 269.055 186.864 267.524 190.326 265.249L195.142 269.241L203.698 260.682L199.708 255.864C201.981 252.402 203.512 248.596 204.329 244.669L210.575 244.084V231.98L204.329 231.395C203.512 227.468 201.981 223.671 199.708 220.2L203.698 215.382L195.151 206.814L190.335 210.805C186.873 208.531 183.069 207 179.143 206.183L178.559 199.935H166.457L165.873 206.183C161.947 207 158.143 208.531 154.681 210.805L149.865 206.814L141.309 215.373L145.29 220.2ZM183.839 226.688C190.103 232.954 190.103 243.11 183.839 249.376C177.575 255.641 167.423 255.641 161.159 249.376C154.895 243.11 154.895 232.954 161.159 226.688C167.423 220.422 177.575 220.422 183.839 226.688Z" fill="#F0F0F0"/>
<path d="M128.345 55.3834C124.651 60.9995 122.174 67.1726 120.856 73.5406L110.713 74.4967V94.1392L120.856 95.0953C122.174 101.463 124.661 107.636 128.345 113.252L121.867 121.078L135.75 134.965L143.573 128.486C149.197 132.18 155.368 134.659 161.725 135.977L162.681 146.123H182.317L183.273 135.986C189.639 134.668 195.81 132.18 201.425 128.495L209.248 134.974L223.131 121.087L216.653 113.262C220.338 107.636 222.825 101.463 224.142 95.1046L234.276 94.1484V74.506L224.133 73.5499C222.815 67.1819 220.328 61.0088 216.644 55.3927L223.122 47.5673L209.239 33.6802L201.416 40.1596C195.792 36.465 189.621 33.9865 183.264 32.6683L182.308 22.5222H162.672L161.716 32.6591C155.35 33.9772 149.178 36.465 143.564 40.1503L135.741 33.6709L121.858 47.558L128.345 55.3834ZM190.901 65.9101C201.063 76.0748 201.063 92.5518 190.901 102.716C180.74 112.881 164.258 112.881 154.106 102.716C143.945 92.5518 143.945 76.0748 154.106 65.9101C164.258 55.7454 180.74 55.7454 190.901 65.9101Z" fill="#F5F5F5"/>
<path d="M269.114 120.372C266.395 124.522 264.558 129.07 263.583 133.777L256.104 134.482V148.973L263.583 149.678C264.558 154.375 266.386 158.933 269.114 163.073L264.335 168.847L274.58 179.096L280.352 174.315C284.5 177.035 289.048 178.873 293.743 179.847L294.448 187.329H308.935L309.64 179.847C314.336 178.873 318.892 177.044 323.04 174.315L328.812 179.096L339.057 168.847L334.278 163.073C336.997 158.924 338.835 154.375 339.809 149.678L347.289 148.973V134.482L339.809 133.777C338.835 129.08 337.007 124.522 334.278 120.382L339.057 114.608L328.812 104.36L323.04 109.14C318.892 106.42 314.336 104.582 309.649 103.608L308.944 96.1257H294.458L293.752 103.608C289.057 104.582 284.5 106.411 280.361 109.14L274.589 104.36L264.344 114.608L269.114 120.372ZM315.273 128.142C322.771 135.643 322.771 147.803 315.273 155.304C307.775 162.804 295.618 162.804 288.12 155.304C280.621 147.803 280.621 135.643 288.12 128.142C295.618 120.642 307.775 120.642 315.273 128.142Z" fill="#F0F0F0"/>
<path d="M93.2846 196.037C91.9019 198.144 90.9739 200.455 90.482 202.832L86.6865 203.184V210.536L90.482 210.898C90.9739 213.284 91.9019 215.595 93.2846 217.693L90.8625 220.617L96.0593 225.816L98.9825 223.393C101.089 224.776 103.4 225.704 105.775 226.196L106.137 229.993H113.487L113.849 226.196C116.234 225.704 118.545 224.776 120.642 223.393L123.565 225.816L128.762 220.617L126.34 217.693C127.723 215.586 128.651 213.275 129.143 210.898L132.938 210.536V203.184L129.143 202.822C128.651 200.437 127.723 198.125 126.34 196.027L128.762 193.103L123.565 187.905L120.642 190.328C118.535 188.944 116.225 188.016 113.849 187.524L113.487 183.728H106.137L105.775 187.524C103.391 188.016 101.08 188.944 98.9825 190.328L96.0593 187.905L90.8625 193.103L93.2846 196.037ZM116.698 199.982C120.503 203.788 120.503 209.952 116.698 213.757C112.893 217.563 106.731 217.563 102.927 213.757C99.1217 209.952 99.1217 203.788 102.927 199.982C106.731 196.176 112.903 196.176 116.698 199.982Z" fill="#E0E0E0"/>
<path d="M354.954 85.9333C353.571 88.0405 352.643 90.3519 352.151 92.7283L348.355 93.0903V100.442L352.151 100.804C352.643 103.19 353.571 105.501 354.954 107.599L352.531 110.523L357.728 115.722L360.651 113.299C362.758 114.682 365.069 115.61 367.444 116.102L367.806 119.899H375.156L375.518 116.102C377.903 115.61 380.214 114.682 382.311 113.299L385.234 115.722L390.431 110.523L388.009 107.599C389.392 105.492 390.32 103.181 390.811 100.804L394.607 100.442V93.0903L390.811 92.7283C390.32 90.3426 389.392 88.0312 388.009 85.9333L390.431 83.0092L385.234 77.8108L382.311 80.2336C380.204 78.8505 377.894 77.9222 375.518 77.4302L375.156 73.6335H367.806L367.444 77.4302C365.059 77.9222 362.749 78.8505 360.651 80.2336L357.728 77.8108L352.531 83.0092L354.954 85.9333ZM378.367 89.8692C382.172 93.6751 382.172 99.8389 378.367 103.645C374.562 107.451 368.4 107.451 364.595 103.645C360.791 99.8389 360.791 93.6751 364.595 89.8692C368.391 86.0725 374.562 86.0632 378.367 89.8692Z" fill="#E0E0E0"/>
<path d="M364.679 151.247C363.834 152.537 363.259 153.957 362.962 155.415L360.633 155.638V160.149L362.962 160.372C363.268 161.829 363.834 163.25 364.679 164.54L363.194 166.341L366.386 169.534L368.187 168.049C369.477 168.894 370.896 169.469 372.353 169.766L372.576 172.096H377.086L377.309 169.766C378.775 169.46 380.186 168.894 381.476 168.049L383.276 169.534L386.468 166.341L384.984 164.54C385.828 163.25 386.403 161.829 386.7 160.372L389.03 160.149V155.638L386.7 155.415C386.394 153.948 385.828 152.537 384.984 151.247L386.468 149.446L383.276 146.253L381.476 147.738C380.186 146.893 378.766 146.318 377.309 146.021L377.086 143.691H372.576L372.353 146.021C370.887 146.327 369.477 146.893 368.187 147.738L366.386 146.253L363.194 149.446L364.679 151.247ZM379.044 153.67C381.374 156 381.374 159.787 379.044 162.126C376.706 164.456 372.929 164.456 370.59 162.126C368.261 159.796 368.261 156.009 370.59 153.67C372.929 151.34 376.706 151.34 379.044 153.67Z" fill="#F0F0F0"/>
<path d="M81.7966 265.119H67.4775V302.789H81.7966V265.119Z" fill="#E0E0E0"/>
<path d="M99.6423 277.094H85.3232V302.789H99.6423V277.094Z" fill="#E0E0E0"/>
<path d="M116.977 289.941H102.658V302.789H116.977V289.941Z" fill="#E0E0E0"/>
<path d="M412.23 276.621H244.494C241.496 276.621 239.056 274.179 239.056 271.181V26.783C239.056 23.7846 241.496 21.3433 244.494 21.3433H412.23C415.227 21.3433 417.668 23.7846 417.668 26.783V271.172C417.668 274.179 415.227 276.621 412.23 276.621ZM244.494 21.5753C241.626 21.5753 239.288 23.9146 239.288 26.783V271.172C239.288 274.04 241.626 276.379 244.494 276.379H412.23C415.097 276.379 417.436 274.04 417.436 271.172V26.783C417.436 23.9146 415.097 21.5753 412.23 21.5753H244.494Z" fill="#E0E0E0"/>
<path d="M218.806 276.621H51.0797C48.0822 276.621 45.6416 274.179 45.6416 271.181V26.783C45.6416 23.7846 48.0822 21.3433 51.0797 21.3433H218.816C221.813 21.3433 224.254 23.7846 224.254 26.783V271.172C224.244 274.179 221.813 276.621 218.806 276.621ZM51.0797 21.5753C48.2122 21.5753 45.8736 23.9146 45.8736 26.783V271.172C45.8736 274.04 48.2122 276.379 51.0797 276.379H218.816C221.683 276.379 224.022 274.04 224.022 271.172V26.783C224.022 23.9146 221.683 21.5753 218.816 21.5753H51.0797Z" fill="#E0E0E0"/>
<path d="M464.271 333.311H0.271484V333.543H464.271V333.311Z" fill="#E0E0E0"/>
<path d="M75.9965 352.294H61.0928V352.526H75.9965V352.294Z" fill="#E0E0E0"/>
<path d="M220.903 349.779H171.228V350.011H220.903V349.779Z" fill="#E0E0E0"/>
<path d="M110.565 360.918H76.9248V361.15H110.565V360.918Z" fill="#E0E0E0"/>
<path d="M404.332 349.658H364.252V349.89H404.332V349.658Z" fill="#E0E0E0"/>
<path d="M418.475 349.658H412.601V349.89H418.475V349.658Z" fill="#E0E0E0"/>
<path d="M356.595 355.441H306.585V355.673H356.595V355.441Z" fill="#E0E0E0"/>
<path d="M394.922 253.451L374.302 251.882L382.209 261.174L352.123 285.049L301.732 284.929L224.012 327.268H84.6824L32.4268 399.72H72.9154L101.618 360.379H224.012L301.649 319.257L364.048 319.396L404.481 287.305L412.099 296.244L413.816 275.627L415.542 255.01L394.922 253.451Z" fill="#776DEF"/>
<path opacity="0.1" d="M380.658 262.511C380.658 262.511 399.756 290.025 401.269 289.626C402.782 289.227 404.675 287.519 404.675 287.519L382.022 260.942L380.658 262.511Z" fill="black"/>
<path d="M305.44 59.533C313.443 52.7954 314.471 40.8436 307.735 32.8378C301 24.832 289.051 23.8039 281.048 30.5415C273.045 37.2791 272.017 49.2309 278.752 57.2367C285.488 65.2425 297.436 66.2706 305.44 59.533Z" fill="#73C7D2"/>
<path d="M283.738 56.4417L278.876 56.8315L278.031 62.9211L283.906 61.4729L283.738 56.4417Z" fill="#73C7D2"/>
<path d="M314.288 41.719C314.167 41.719 314.065 41.6261 314.056 41.5147C313.425 35.4902 309.518 29.8462 304.098 27.1357C303.987 27.08 303.941 26.9407 303.996 26.82C304.052 26.7087 304.191 26.6622 304.302 26.7179C309.861 29.4935 313.87 35.286 314.52 41.4683C314.529 41.5983 314.436 41.7097 314.316 41.719C314.306 41.719 314.297 41.719 314.288 41.719Z" fill="#407BFF"/>
<path d="M314.408 47.3443C314.39 47.3443 314.371 47.3443 314.353 47.3351C314.232 47.3072 314.148 47.1773 314.176 47.0566C314.39 46.1747 314.408 45.2464 314.251 44.3553C314.232 44.2253 314.315 44.1046 314.436 44.0861C314.566 44.0675 314.687 44.1511 314.705 44.2717C314.882 45.2186 314.854 46.2211 314.622 47.168C314.612 47.2701 314.52 47.3443 314.408 47.3443Z" fill="#407BFF"/>
<path d="M286.188 40.4101C285.594 41.3105 285.205 42.2945 284.991 43.3156L283.367 43.4641V46.6017L284.991 46.7503C285.205 47.7714 285.594 48.7553 286.188 49.6558L285.158 50.909L287.376 53.1276L288.629 52.0972C289.529 52.6913 290.513 53.0811 291.534 53.2946L291.682 54.9191H294.819L294.967 53.2946C295.988 53.0811 296.972 52.6913 297.872 52.0972L299.125 53.1276L301.343 50.909L300.312 49.6558C300.897 48.7553 301.296 47.7714 301.51 46.7503L303.134 46.6017V43.4641L301.51 43.3156C301.296 42.2945 300.906 41.3105 300.312 40.4101L301.343 39.1569L299.125 36.9383L297.872 37.9687C296.972 37.3746 295.988 36.9847 294.967 36.7712L294.819 35.1467H291.682L291.534 36.7712C290.513 36.9847 289.529 37.3746 288.629 37.9687L287.376 36.9383L285.158 39.1569L286.188 40.4101ZM296.248 42.0253C297.909 43.6869 297.909 46.3697 296.248 48.0313C294.587 49.6929 291.905 49.6929 290.244 48.0313C288.583 46.3697 288.583 43.6869 290.244 42.0253C291.896 40.3637 294.587 40.3637 296.248 42.0253Z" fill="white"/>
<path d="M167.441 158.023C167.441 158.023 172.415 150.56 178.661 152.138C184.906 153.716 185.278 163.872 185.278 163.872L181.816 162.665C181.816 162.665 182.948 155.294 178.503 154.245C174.067 153.196 169.891 159.137 169.891 159.137L167.896 158.088" fill="#263238"/>
<path d="M134.942 193.419L136.836 188.499L150.551 152.918L203.392 168.884L192.413 211.613L134.942 193.419Z" fill="#73C7D2"/>
<path d="M179.514 141.741C178.716 142.011 174.178 147.45 173.278 149.001C172.368 150.551 172.266 151.563 172.962 152.092C173.658 152.621 174.456 153.159 174.67 153.159C174.883 153.159 173.927 154.756 175.152 155.564C176.377 156.362 177.018 156.204 177.018 156.204C177.018 156.204 176.702 158.553 178.298 159.193C179.894 159.834 180.59 159.091 180.86 159.193C181.129 159.295 182.567 156.575 182.567 156.575L184.432 159.453C184.432 159.453 185.286 158.608 186.14 157.002C186.994 155.406 186.938 150.866 186.938 150.866L186.084 146.81L187.523 140.989C187.523 140.989 180.479 140.033 180.433 140.191C180.368 140.358 179.514 141.741 179.514 141.741Z" fill="#E9B376"/>
<path opacity="0.2" d="M150.551 152.918C150.551 152.918 153.752 175.679 169.166 177.322C184.581 178.965 203.391 168.875 203.391 168.875" fill="black"/>
<path opacity="0.2" d="M194.084 205.115L137.151 187.691L134.942 193.419L192.413 211.613L194.084 205.115Z" fill="black"/>
<path d="M318.63 147.478C318.63 147.478 318.816 148.11 318.074 149.372C317.322 150.635 315.689 149.743 315.698 149.957C315.707 150.17 315.206 150.997 314.705 151.711C314.204 152.426 313.183 152.361 311.605 151.526C310.019 150.681 304.395 146.383 304.098 145.594C304.098 145.594 302.678 144.796 302.511 144.749C302.353 144.703 303.003 137.629 303.003 137.629L308.877 138.818L312.886 137.796C312.886 137.796 317.415 137.555 319.048 138.335C319.336 138.474 319.595 138.613 319.837 138.743C320.718 139.245 320.774 140.498 319.948 141.092L318.779 141.927C318.779 141.927 319.93 142.54 320.737 143.032C321.266 143.348 321.581 143.942 321.498 144.554C321.479 144.675 321.452 144.805 321.414 144.907C321.136 145.631 320.356 145.408 320.356 145.408C320.356 145.408 320.524 146.792 319.094 147.265C318.556 147.423 318.63 147.478 318.63 147.478Z" fill="#E9B376"/>
<path opacity="0.1" d="M315.624 144.304C315.373 144.304 315.123 144.248 314.872 144.127C314.603 143.997 314.39 143.738 314.251 143.357C314.019 142.716 314.046 142.057 314.176 141.361C313.777 141.788 313.332 142.159 312.84 142.475C312.376 142.772 311.977 142.939 311.578 143.004C311.049 143.088 310.539 142.976 310.177 142.679C310.075 142.596 310.065 142.457 310.14 142.354C310.223 142.252 310.372 142.243 310.464 142.317C310.724 142.531 311.095 142.605 311.494 142.54C311.819 142.484 312.172 142.336 312.58 142.076C313.295 141.621 313.926 141.018 314.408 140.312C314.445 140.182 314.529 139.876 314.807 139.792C314.891 139.764 315.002 139.792 315.058 139.867C315.114 139.941 315.123 140.043 315.076 140.127C315.002 140.256 314.919 140.386 314.835 140.507C314.575 141.491 314.39 142.382 314.677 143.181C314.742 143.357 314.863 143.598 315.058 143.691C315.355 143.83 315.782 143.895 316.107 143.682C316.626 143.329 317.146 142.921 317.74 142.438C318.139 142.122 318.566 141.779 319.039 141.417C319.141 141.343 319.29 141.361 319.364 141.463C319.438 141.565 319.42 141.714 319.317 141.788C318.844 142.15 318.417 142.484 318.028 142.8C317.424 143.283 316.895 143.71 316.357 144.072C316.162 144.23 315.902 144.304 315.624 144.304Z" fill="#263238"/>
<path opacity="0.1" d="M312.283 151.173C311.995 151.173 311.754 150.978 311.587 150.82C311.197 150.44 310.854 150.022 310.557 149.567C310.195 149.01 310.083 148.537 310.232 148.138C310.362 147.766 310.724 147.478 311.169 147.386C311.559 147.302 311.949 147.358 312.283 147.432C312.654 147.506 313.016 147.608 313.368 147.738C313.266 147.599 313.174 147.441 313.09 147.293C312.839 146.81 312.7 146.105 313.164 145.687C313.573 145.325 314.167 145.446 314.575 145.566C315.939 145.965 317.266 146.513 318.519 147.2C318.63 147.265 318.677 147.404 318.612 147.516C318.547 147.627 318.408 147.664 318.296 147.608C317.071 146.94 315.781 146.402 314.445 146.012C314.139 145.919 313.712 145.826 313.48 146.04C313.239 146.262 313.322 146.717 313.508 147.079C313.758 147.553 314.129 147.97 314.566 148.277C314.723 148.37 314.89 148.462 315.048 148.555C315.15 148.62 315.187 148.76 315.132 148.862C315.067 148.973 314.937 149.01 314.825 148.954C314.649 148.871 314.482 148.778 314.324 148.667C313.656 148.305 312.942 148.045 312.19 147.896C311.893 147.831 311.568 147.785 311.271 147.85C310.984 147.915 310.752 148.091 310.668 148.314C310.575 148.574 310.668 148.908 310.946 149.335C311.225 149.762 311.55 150.152 311.912 150.514C312.079 150.681 312.208 150.755 312.311 150.737C312.44 150.718 312.561 150.802 312.58 150.922C312.598 151.052 312.515 151.173 312.394 151.192C312.357 151.173 312.32 151.173 312.283 151.173Z" fill="#263238"/>
<path opacity="0.1" d="M314.074 145.91C314.009 145.91 313.935 145.882 313.888 145.826C313.656 145.529 313.508 145.158 313.48 144.777C313.461 144.471 313.517 144.192 313.647 143.97C313.805 143.691 314.093 143.506 314.389 143.478C314.519 143.468 314.631 143.561 314.64 143.691C314.649 143.821 314.557 143.933 314.427 143.942C314.287 143.951 314.139 144.053 314.055 144.202C313.953 144.378 313.944 144.601 313.953 144.749C313.972 145.037 314.083 145.325 314.269 145.548C314.343 145.65 314.334 145.798 314.232 145.873C314.176 145.891 314.13 145.91 314.074 145.91Z" fill="#263238"/>
<path opacity="0.1" d="M320.281 145.585C320.235 145.585 320.198 145.575 320.161 145.548C318.917 144.749 318.119 144.341 316.746 143.793C316.625 143.747 316.569 143.608 316.616 143.487C316.662 143.366 316.801 143.31 316.922 143.357C318.323 143.923 319.14 144.341 320.411 145.158C320.523 145.223 320.551 145.371 320.486 145.483C320.43 145.548 320.356 145.585 320.281 145.585Z" fill="#263238"/>
<path d="M177.63 266.948L168.842 286.117L176.878 290.517L188.831 271.153L177.63 266.948Z" fill="#E9B376"/>
<path d="M170.624 285.17C171.153 286.739 173.557 287.853 175.041 287.602L175.895 286.108C176.777 284.938 177.556 284.576 178.837 285.495C179.468 285.941 179.867 287.212 179.765 288.735C179.579 291.464 180.266 292.977 180.266 292.977C180.266 292.977 184.739 299.336 186.576 301.202C187.672 302.316 189.091 303.866 189.277 305.778C189.333 306.326 189.314 306.929 189.221 307.607C189.147 308.164 188.581 309.203 188.562 309.222L173.046 300.812C173.046 300.812 171.96 299.029 171.274 298.695C170.058 298.092 168.954 298.844 168.954 298.844L163.293 295.827C163.293 295.827 163.655 294.899 164.184 293.543C164.425 292.931 164.694 292.244 164.982 291.51C166.216 288.363 168.49 285.05 168.852 284.158C169.473 282.599 170.624 285.17 170.624 285.17Z" fill="#263238"/>
<path d="M182.753 296.272C182.716 296.17 182.614 296.105 182.503 296.115C182.011 296.142 181.519 296.31 181.092 296.597C180.869 296.755 181.092 297.136 181.324 296.987C181.705 296.727 182.131 296.579 182.568 296.551C182.716 296.542 182.809 296.412 182.753 296.272Z" fill="#407BFF"/>
<path d="M181.908 294.973C181.871 294.871 181.769 294.806 181.658 294.815C181.166 294.843 180.674 295.01 180.247 295.298C180.025 295.456 180.247 295.836 180.479 295.688C180.86 295.428 181.287 295.279 181.723 295.251C181.862 295.242 181.955 295.112 181.908 294.973Z" fill="#407BFF"/>
<path d="M180.999 293.701C180.962 293.599 180.86 293.534 180.749 293.543C180.257 293.571 179.765 293.738 179.338 294.026C179.115 294.184 179.338 294.564 179.57 294.416C179.951 294.156 180.377 294.008 180.814 293.98C180.953 293.98 181.046 293.84 180.999 293.701C180.999 293.71 180.999 293.71 180.999 293.701Z" fill="#407BFF"/>
<path opacity="0.2" d="M189.267 306.781C189.258 307.059 189.23 307.356 189.193 307.663C189.119 308.22 188.553 309.259 188.534 309.278L173.018 300.868C173.018 300.868 171.932 299.085 171.245 298.751C170.03 298.148 168.925 298.9 168.925 298.9L163.265 295.883C163.265 295.883 163.627 294.954 164.156 293.599C164.193 293.497 164.248 293.367 164.285 293.256L189.267 306.781Z" fill="white"/>
<path d="M180.368 294.119L180.544 293.72C180.786 293.153 181.046 292.569 181.398 292.039C181.807 291.427 182.28 290.981 182.818 290.712C183.217 290.517 183.588 290.499 183.857 290.666C184.219 290.888 184.284 291.343 184.238 291.705C184.154 292.299 183.783 292.875 183.217 293.274C182.679 293.664 181.222 293.961 180.795 294.035L180.368 294.119ZM183.431 291.018C183.273 291.018 183.106 291.093 183.022 291.13C182.558 291.362 182.141 291.752 181.779 292.29C181.528 292.661 181.333 293.079 181.148 293.488C181.862 293.33 182.642 293.107 182.948 292.894C183.403 292.569 183.709 292.114 183.774 291.64C183.802 291.436 183.774 291.167 183.607 291.065C183.56 291.028 183.496 291.018 183.431 291.018Z" fill="#407BFF"/>
<path d="M180.878 294.221L180.544 293.943C180.201 293.664 179.078 292.708 178.79 292.105C178.493 291.483 178.438 290.805 178.651 290.239C178.781 289.905 179.06 289.533 179.486 289.515C179.802 289.515 180.117 289.682 180.377 290.053C180.721 290.545 180.925 291.167 180.99 291.9C181.045 292.532 180.98 293.163 180.925 293.775L180.878 294.221ZM179.524 289.988C179.514 289.988 179.514 289.988 179.505 289.988C179.31 289.997 179.152 290.22 179.078 290.415C178.911 290.861 178.957 291.408 179.199 291.919C179.366 292.262 179.941 292.829 180.489 293.311C180.526 292.856 180.554 292.402 180.516 291.956C180.461 291.306 180.284 290.759 179.988 290.341C179.904 290.202 179.728 289.988 179.524 289.988Z" fill="#407BFF"/>
<path d="M262.95 221.833L254.171 241.003L262.198 245.403L274.151 226.039L262.95 221.833Z" fill="#E9B376"/>
<path d="M255.945 240.056C256.473 241.625 258.877 242.739 260.362 242.488L261.216 240.993C262.097 239.824 262.877 239.462 264.157 240.381C264.788 240.826 265.187 242.098 265.085 243.621C264.9 246.35 265.586 247.863 265.586 247.863C265.586 247.863 270.059 254.222 271.897 256.087C272.992 257.201 274.412 258.752 274.597 260.664C274.644 261.211 274.634 261.815 274.542 262.492C274.467 263.049 273.901 264.089 273.883 264.108L258.367 255.697C258.367 255.697 257.281 253.915 256.594 253.581C255.378 252.978 254.274 253.73 254.274 253.73L248.613 250.713C248.613 250.713 248.975 249.784 249.504 248.429C249.745 247.816 250.015 247.129 250.302 246.396C251.536 243.249 253.81 239.935 254.172 239.044C254.794 237.485 255.945 240.056 255.945 240.056Z" fill="#263238"/>
<path d="M268.073 251.149C268.036 251.047 267.934 250.982 267.823 250.991C267.331 251.019 266.839 251.186 266.412 251.474C266.19 251.632 266.412 252.012 266.644 251.864C267.025 251.604 267.452 251.455 267.888 251.427C268.036 251.427 268.129 251.288 268.073 251.149C268.083 251.158 268.073 251.158 268.073 251.149Z" fill="#407BFF"/>
<path d="M267.229 249.859C267.192 249.757 267.09 249.692 266.978 249.701C266.486 249.729 265.994 249.896 265.568 250.184C265.345 250.341 265.568 250.722 265.8 250.573C266.18 250.313 266.607 250.165 267.043 250.137C267.182 250.128 267.275 249.998 267.229 249.859Z" fill="#407BFF"/>
<path d="M266.32 248.587C266.282 248.485 266.18 248.42 266.069 248.429C265.577 248.457 265.085 248.624 264.658 248.912C264.436 249.07 264.658 249.45 264.89 249.302C265.271 249.042 265.698 248.893 266.134 248.865C266.273 248.865 266.366 248.726 266.32 248.587Z" fill="#407BFF"/>
<path opacity="0.2" d="M274.588 261.666C274.578 261.945 274.55 262.242 274.513 262.548C274.439 263.105 273.873 264.145 273.854 264.163L258.338 255.753C258.338 255.753 257.252 253.971 256.566 253.637C255.35 253.033 254.246 253.785 254.246 253.785L248.585 250.768C248.585 250.768 248.947 249.84 249.476 248.485C249.522 248.382 249.569 248.253 249.606 248.141L274.588 261.666Z" fill="white"/>
<path d="M265.688 249.004L265.865 248.605C266.106 248.039 266.366 247.463 266.709 246.925C267.118 246.312 267.6 245.867 268.129 245.598C268.528 245.403 268.899 245.384 269.168 245.551C269.521 245.774 269.595 246.229 269.549 246.591C269.465 247.185 269.094 247.76 268.537 248.16C268.008 248.531 266.672 248.819 266.115 248.921L265.688 249.004ZM268.751 245.895C268.593 245.895 268.426 245.969 268.343 246.006C267.879 246.238 267.461 246.628 267.099 247.166C266.848 247.538 266.654 247.955 266.468 248.364C267.183 248.206 267.971 247.983 268.268 247.77C268.723 247.445 269.029 246.981 269.094 246.517C269.122 246.322 269.094 246.043 268.927 245.941C268.881 245.913 268.816 245.895 268.751 245.895Z" fill="#407BFF"/>
<path d="M266.199 249.116L265.865 248.837C265.428 248.475 264.389 247.584 264.111 246.999C263.814 246.377 263.758 245.7 263.972 245.133C264.101 244.799 264.38 244.428 264.807 244.409C265.15 244.391 265.447 244.586 265.698 244.948C266.041 245.44 266.245 246.062 266.31 246.795C266.366 247.426 266.301 248.067 266.245 248.68L266.199 249.116ZM264.844 244.874C264.835 244.874 264.835 244.874 264.825 244.874C264.63 244.883 264.473 245.106 264.398 245.301C264.231 245.746 264.278 246.294 264.519 246.804C264.677 247.139 265.261 247.714 265.809 248.197C265.846 247.742 265.874 247.287 265.837 246.842C265.781 246.192 265.605 245.644 265.308 245.226C265.243 245.115 265.057 244.874 264.844 244.874Z" fill="#407BFF"/>
<path d="M212.662 160.632C212.662 160.632 210.518 170.667 213.645 179.457L201.322 223.996C201.322 223.996 168.944 280.25 169.918 280.492C170.892 280.733 186.594 290.127 186.594 290.127C186.594 290.127 218.016 241.355 222.573 234.867C227.129 228.378 245.875 178.696 245.875 178.696L212.662 160.632Z" fill="#263238"/>
<path opacity="0.3" d="M224.866 164.735C224.263 166.536 219.883 171.474 219.224 173.535C219.019 174.139 214.24 171.512 214.036 172.134C217.897 177.536 232.411 184.814 242.201 189.316C243.741 185.519 244.14 183.858 245.393 180.599C247.323 175.717 249.43 171.883 250.516 169.07C241.755 167.204 232.095 165.728 224.866 164.735Z" fill="black"/>
<path d="M301.212 173.823C289.055 167.613 255.804 159.045 255.804 159.045L257.196 149.131L218.109 141.417C215.928 146.68 214.276 151.507 213.441 155.118C207.985 178.659 231.964 181.509 236.762 181.825L280.192 189.566L257.252 231.525L273.316 237.716C273.316 237.716 294.112 206.368 304.06 189.566C307.949 183.013 304.515 175.512 301.212 173.823Z" fill="#263238"/>
<path opacity="0.3" d="M248.409 151.228L231.705 147.998L232.364 145.343L249.003 148.573L248.409 151.228Z" fill="white"/>
<path opacity="0.3" d="M250.265 148.824L257.048 150.189L256.668 152.899L249.727 151.479L250.265 148.824Z" fill="white"/>
<path opacity="0.3" d="M219.595 142.865L231.084 145.093L230.406 147.738L218.964 145.52L219.595 142.865Z" fill="white"/>
<g opacity="0.3">
<path d="M217.784 145.25L216.689 144.972L217.682 142.456L218.443 142.596L217.784 145.25Z" fill="white"/>
</g>
<path opacity="0.3" d="M255.833 158.952L236.178 153.252C236.577 153.373 249.012 155.981 256.065 157.29L255.833 158.952Z" fill="black"/>
<path opacity="0.3" d="M280.313 189.102L290.883 185.723C290.883 185.723 283.58 192.463 277.938 193.437L280.313 189.102Z" fill="black"/>
<path d="M217.59 84.3179C216.838 84.355 191.829 102.029 188.321 106.29C184.813 110.551 177.788 142.048 177.788 142.048L187.179 144.396L198.612 114.227L219.91 103.348C219.91 103.348 225.033 93.5821 225.172 93.1458C225.32 92.7003 217.59 84.3179 217.59 84.3179Z" fill="#407BFF"/>
<path d="M217.59 84.3179C216.838 84.355 191.829 102.029 188.321 106.29C184.813 110.551 177.788 142.048 177.788 142.048L187.179 144.396L198.612 114.227L219.91 103.348C219.91 103.348 225.033 93.5821 225.172 93.1458C225.32 92.7003 217.59 84.3179 217.59 84.3179Z" fill="#73C7D2"/>
<path d="M308.469 138.112L279.116 117.829C279.116 117.829 269.391 90.0919 266.375 85.7104C262.459 80.02 254.988 79.6394 254.988 79.6394L259.517 103.338C259.517 103.338 262.143 112.798 264.667 119.611C267.247 126.592 268.259 130.389 274.606 134.167C280.119 137.444 303.662 146.197 303.662 146.197C303.263 146.067 308.469 138.112 308.469 138.112Z" fill="#407BFF"/>
<path d="M308.469 138.112L279.116 117.829C279.116 117.829 269.391 90.0919 266.375 85.7104C262.459 80.02 254.988 79.6394 254.988 79.6394L259.517 103.338C259.517 103.338 262.143 112.798 264.667 119.611C267.247 126.592 268.259 130.389 274.606 134.167C280.119 137.444 303.662 146.197 303.662 146.197C303.263 146.067 308.469 138.112 308.469 138.112Z" fill="#73C7D2"/>
<path d="M215.985 140.99C215.985 140.99 213.98 140.86 214.695 139.049C215.419 137.239 217.581 135.578 217.581 135.578L219.214 123.891L217.581 84.318L224.894 82.5078L232.939 80.6513L236.373 77.5508L245.672 77.1145L250.228 79.6487H255.017C254.97 79.7137 264.436 101.129 262.069 118.219C259.703 135.308 258.023 146.114 257.624 147.2C256.817 149.409 255.054 148.713 255.054 148.713L215.985 140.99Z" fill="#407BFF"/>
<path d="M215.985 140.99C215.985 140.99 213.98 140.86 214.695 139.049C215.419 137.239 217.581 135.578 217.581 135.578L219.214 123.891L218.398 104.109L217.581 84.318L224.894 82.5078L232.939 80.6513L236.373 77.5508L245.403 77.1145L250.228 79.6487H255.017C254.97 79.7137 264.436 101.129 262.069 118.219C259.703 135.308 258.023 146.114 257.624 147.2C256.817 149.409 255.054 148.713 255.054 148.713L215.985 140.99Z" fill="#73C7D2"/>
<path opacity="0.1" d="M241.171 145.325C241.162 145.325 241.152 145.325 241.143 145.325C241.013 145.315 240.92 145.195 240.939 145.074C242.906 126.072 243.296 106.764 242.099 87.697C242.09 87.5671 242.192 87.4557 242.312 87.4464C242.433 87.4278 242.554 87.5392 242.554 87.6599C243.751 106.755 243.352 126.091 241.394 145.121C241.394 145.241 241.292 145.325 241.171 145.325Z" fill="#263238"/>
<path opacity="0.2" d="M220.727 109.836L220.977 116C220.977 116 237.143 104.062 240.344 100.08C244.483 94.9282 244.799 92.0969 244.799 92.0969L220.727 109.836Z" fill="black"/>
<path d="M240.938 89.4049L242.85 92.4032C242.85 92.4032 215.381 112.705 189.741 114.413L188.182 123.157L197.007 124.772C197.007 124.772 235.964 109.762 245.133 92.5982L247.871 88.4952L244.957 85.9517L244.047 86.5365L240.938 89.4049Z" fill="#776DEF"/>
<path opacity="0.2" d="M262.459 112.955C262.459 112.955 263.313 100.86 263.48 94.696C263.48 94.696 264.352 99.4024 264.64 104.23C264.89 108.379 263.638 116.845 263.638 116.845L262.459 112.955Z" fill="black"/>
<path opacity="0.2" d="M233.385 81.1062C233.756 81.8024 239.714 89.3865 239.714 89.3865L244.502 86.0447C244.539 85.9982 240.336 90.6211 240.317 90.6675L239.073 90.7789L233.385 81.1062Z" fill="black"/>
<path opacity="0.2" d="M244.947 85.9426L248.529 87.5021C248.529 87.5021 250.088 83.8818 250.172 82.8885C250.255 81.9046 250.19 80.2336 250.19 80.2336H250.664C250.664 80.2336 251.072 82.9721 250.357 85.005C249.606 87.1493 248.706 89.2287 248.706 89.2287L244.947 85.9426Z" fill="black"/>
<path opacity="0.2" d="M279.116 117.82C279.385 119.75 278.198 122.359 277.177 124.021C278.383 123.575 279.766 123.027 280.341 121.876C280.926 120.725 281.362 120.642 281.306 119.351L279.116 117.82Z" fill="black"/>
<path d="M233.385 61.5379C233.385 61.5379 225.2 55.1699 225.451 52.9234C225.702 50.677 227.001 51.3082 227.001 51.3082C227.001 51.3082 224.04 46.0263 226.704 44.9866C229.367 43.947 229.59 44.8474 229.59 44.8474C229.59 44.8474 228.337 40.4845 230.425 39.0735C232.012 37.9874 232.782 39.9832 232.782 39.9832C232.782 39.9832 235.696 35.0354 239.417 34.9519C241.264 35.0169 242.22 36.168 242.016 37.5975C242.006 37.6625 241.997 37.7182 241.979 37.7832C241.979 37.7832 249.356 34.2 252.92 36.1123C256.493 38.0245 252.038 40.4659 252.038 40.4659C252.038 40.4659 259.323 39.3984 260.873 42.2853C262.107 44.5782 258.915 46.2862 258.915 46.2862C258.915 46.2862 260.084 46.6297 261.105 47.4837C263.054 49.1082 262.033 52.3758 259.509 52.5707C259.49 52.5707 259.471 52.5707 259.453 52.5707C259.063 52.5985 258.367 52.7099 258.079 52.4593C258.079 52.4593 259.444 55.0585 256.771 56.0239C254.098 56.9893 252.688 53.8981 252.688 53.8981L233.385 61.5379Z" fill="#263238"/>
<path d="M236.587 78.6554C236.587 78.6554 236.875 74.8216 233.776 65.6595C233.776 65.6502 234.258 65.4088 234.258 65.3995C233.831 64.1185 233.386 62.9396 232.968 61.9092C232.959 61.8814 232.959 61.8721 232.959 61.8721L245.988 69.1684C245.821 72.1482 247.13 77.8385 247.872 80.2335L244.81 85.9424L236.587 78.6554Z" fill="#E9B376"/>
<path opacity="0.2" d="M246.387 73.327L239.01 71.9995C239.771 74.246 241.896 76.8451 246.991 76.8451C246.991 76.8451 246.369 74.3295 246.387 73.327Z" fill="black"/>
<path d="M253.801 46.8525C255.425 49.7209 256.233 56.1632 251.5 55.0214C246.767 53.8703 251.017 41.9141 253.801 46.8525Z" fill="#263238"/>
<path d="M232.587 55.7083C233.794 63.7194 234.313 68.2587 238.749 71.9997C245.421 77.625 254.831 73.16 256.038 64.9262C257.133 57.5185 254.971 45.655 246.804 43.2229C238.749 40.8372 231.381 47.6972 232.587 55.7083Z" fill="#E9B376"/>
<path d="M244.317 57.0171C244.391 57.8433 244.883 58.4652 245.421 58.4095C245.959 58.3538 246.34 57.6483 246.266 56.8222C246.191 55.996 245.7 55.374 245.161 55.4297C244.623 55.4854 244.243 56.1909 244.317 57.0171Z" fill="#263238"/>
<path d="M252.409 56.4602C252.483 57.2864 252.975 57.9083 253.513 57.8526C254.051 57.7969 254.432 57.0914 254.357 56.2653C254.283 55.4391 253.791 54.8172 253.253 54.8729C252.715 54.9285 252.334 55.6433 252.409 56.4602Z" fill="#263238"/>
<path d="M249.745 56.2373C249.745 56.2373 252.715 60.099 253.698 61.6956C252.64 62.8374 250.627 62.5311 250.627 62.5311L249.745 56.2373Z" fill="#D58745"/>
<path d="M242.137 52.6636C242.267 52.6914 242.415 52.6543 242.508 52.5429C243.668 51.2526 245.088 51.4568 245.097 51.4568C245.311 51.4846 245.505 51.3454 245.543 51.1319C245.58 50.9184 245.431 50.7235 245.218 50.6956C245.144 50.6863 243.371 50.4357 241.933 52.0323C241.784 52.1901 241.803 52.4315 241.96 52.58C242.016 52.6264 242.072 52.6543 242.137 52.6636Z" fill="#263238"/>
<path d="M255.703 52.5894C255.768 52.5615 255.833 52.5151 255.88 52.4594C256.01 52.283 255.973 52.0417 255.806 51.9117C254.098 50.6307 252.428 51.2433 252.344 51.2619C252.14 51.3362 252.038 51.559 252.112 51.7632C252.186 51.9674 252.4 52.0695 252.604 51.9953C252.669 51.9674 253.968 51.5125 255.332 52.5337C255.453 52.6172 255.583 52.6358 255.703 52.5894Z" fill="#263238"/>
<path d="M248.494 68.0266C248.419 68.0079 248.522 68.036 248.494 68.0266V68.0266Z" fill="#263238"/>
<path d="M249.626 64.8519C248.308 64.4992 245.886 63.7287 244.67 62.5591C244.67 62.5591 244.475 62.9211 244.373 63.4688C244.28 63.9329 244.253 64.527 244.429 65.1304C244.763 66.2351 245.784 67.3954 248.438 68.0174C248.475 68.0267 248.484 68.0267 248.484 68.0359C248.493 68.0359 248.493 68.0359 248.512 68.0452C248.512 68.0452 249.941 68.3516 250.517 65.0933C250.526 65.0747 250.173 65.0005 249.626 64.8519Z" fill="#263238"/>
<path d="M249.626 64.8519L249.162 65.7431C246.666 65.149 244.986 64.3971 244.383 63.4595C244.485 62.9211 244.68 62.5498 244.68 62.5498C245.886 63.7194 248.308 64.4899 249.626 64.8519Z" fill="white"/>
<path d="M248.447 68.0081C245.793 67.3861 244.773 66.2257 244.438 65.1211C245.339 65.3717 246.387 65.7616 247.25 66.3928C247.909 66.8755 248.253 67.4604 248.447 68.0081Z" fill="#DC5753"/>
<path d="M235.26 61.8443C235.937 61.4358 236.661 60.9902 237.004 60.2755C237.329 59.6164 237.283 58.8273 237.181 58.1033C237.079 57.3421 236.939 56.5902 236.763 55.8383C237.496 56.1725 238.341 55.5598 238.703 54.845C239.25 53.7775 239.157 52.5057 239.027 51.3083C239.946 51.4661 240.976 51.1504 241.542 50.4078C242.118 49.6652 242.127 48.5048 241.468 47.8365C244.456 48.115 247.491 47.7994 250.358 46.9175C250.173 47.2981 250.423 47.7344 250.692 48.0593C251.787 49.3682 253.374 50.25 255.063 50.4914C255.314 50.5285 255.62 50.5192 255.741 50.3057C255.806 50.1943 255.806 50.0458 255.787 49.9158C255.62 48.2821 254.618 46.8247 253.346 45.8035C252.066 44.7824 250.525 44.1419 248.976 43.6128C246.405 42.7309 243.723 42.109 241.004 42.0347C238.285 41.9605 235.52 42.4617 233.116 43.7335C232.587 44.012 232.067 44.3369 231.715 44.8103C231.381 45.2651 231.214 45.8128 231.065 46.3605C230.202 49.6838 229.961 53.1648 230.36 56.5809" fill="#263238"/>
<path d="M229.998 62.7076C230.824 64.7219 232.513 66.1608 234.174 66.8106C236.68 67.7945 238.23 65.6038 237.775 63.0882C237.367 60.8231 235.576 57.5834 232.94 57.6763C230.351 57.7691 229.052 60.3961 229.998 62.7076Z" fill="#E9B376"/>
<path opacity="0.2" d="M235.529 62.6332C235.417 62.6332 235.325 62.559 235.297 62.4476C235.167 61.7978 234.861 61.1944 234.424 60.6931C234.146 60.3775 233.682 59.9691 233.097 59.8855C232.587 59.802 232.049 60.034 231.835 60.4239C231.77 60.5353 231.631 60.5724 231.52 60.5167C231.408 60.4518 231.371 60.3125 231.427 60.2011C231.742 59.6349 232.457 59.3193 233.172 59.4306C233.895 59.542 234.443 60.0155 234.777 60.3961C235.269 60.953 235.603 61.6307 235.751 62.364C235.779 62.494 235.696 62.6147 235.566 62.6332C235.557 62.6332 235.547 62.6332 235.529 62.6332Z" fill="black"/>
<path d="M353.478 255.92L319.514 307.44C307.301 323.258 297.121 337.108 278.654 342.519L213.285 367.175C205.49 370.117 199.802 376.912 198.289 385.1L200.683 398.003H130.563C130.563 398.003 131.491 347.235 135.779 331.937C139.797 317.604 149.81 305.045 170.365 300.886C187.459 297.433 252.586 285.17 265.216 284.762C270.589 284.585 271.916 288.317 271.675 288.744L274.645 288.41C274.645 288.41 309.677 257.489 317.351 250.007C323.281 244.214 333.183 247.584 333.183 247.584C333.183 247.584 343.753 237.828 351.307 242.618C351.316 242.618 358.267 247.584 353.478 255.92Z" fill="#DB8C7E"/>
<path opacity="0.3" d="M271.676 288.744C275.796 300.515 265.588 307.792 253.719 313.288C241.841 318.793 212.071 328.632 212.071 328.632L211.18 333.877L216.191 329.848C216.191 329.848 240.681 321.169 257.06 313.548C267.454 308.721 271.156 304.785 272.892 300.784C274.33 297.451 274.497 293.701 273.541 290.192L273.059 288.419L271.676 288.744Z" fill="black"/>
<path opacity="0.3" d="M333.192 247.584C333.192 247.584 339.827 253.646 334.472 260.107C329.962 265.556 293.13 312.852 293.13 312.852L297.826 308.999C297.826 308.999 335.901 264.108 338.286 260.181C341.841 254.314 336.273 247.519 333.192 247.584Z" fill="black"/>
</g>
<defs>
<clipPath id="clip0_312_11525">
<rect width="464" height="396" fill="white"/>
</clipPath>
</defs>
</svg>
