<svg width="222" height="270" fill="none" xmlns="http://www.w3.org/2000/svg"><path style="mix-blend-mode:multiply" d="M180.456 189.937c47.385 15.507 54.691 43.599 16.318 62.745-38.373 19.146-107.887 22.101-155.268 6.594-47.38-15.507-54.691-43.595-16.322-62.741 38.37-19.146 107.891-22.088 155.272-6.598Z" fill="url(#a)"/><path d="M110.925 225.643c-22.787 0-44.29-3.091-62.174-8.942-25.13-8.224-39.555-20.926-40.618-35.761-.52-7.307 2.098-21.308 25.514-32.997 19.172-9.564 47.38-15.054 77.389-15.054 22.79 0 44.285 3.095 62.17 8.946 25.133 8.22 39.559 20.922 40.618 35.761.523 7.307-2.094 21.308-25.51 32.993-19.177 9.568-47.385 15.054-77.389 15.054Z" fill="#001C63" style="mix-blend-mode:multiply" opacity=".2"/><path d="M170.799 149.416c40.798 13.349 47.087 37.537 14.049 54.023-33.037 16.486-92.889 19.025-133.682 5.676-40.794-13.349-47.087-37.537-14.054-54.018 33.034-16.482 92.889-19.03 133.687-5.681Z" fill="#001C63" style="mix-blend-mode:multiply"/><g style="mix-blend-mode:multiply"><path d="M158.623 155.491c32.494 10.635 37.503 29.877 11.191 43.027-26.311 13.149-73.982 15.154-106.472 4.523-32.49-10.631-37.506-29.898-11.19-43.027 26.315-13.129 73.982-15.154 106.471-4.523Z" fill="url(#b)"/><path d="M158.623 155.491c32.494 10.635 37.503 29.877 11.191 43.027-26.311 13.149-73.982 15.154-106.472 4.523-32.49-10.631-37.506-29.898-11.19-43.027 26.315-13.129 73.982-15.154 106.471-4.523Z" fill="url(#c)"/><path d="M158.623 155.491c32.494 10.635 37.503 29.877 11.191 43.027-26.311 13.149-73.982 15.154-106.472 4.523-32.49-10.631-37.506-29.898-11.19-43.027 26.315-13.129 73.982-15.154 106.471-4.523Z" fill="url(#d)"/></g><path d="M110.925 241.433c-22.787 0-44.29-3.096-62.174-8.947-25.13-8.224-39.555-20.922-40.618-35.761-.52-7.307 2.098-21.307 25.514-32.993 19.172-9.568 47.38-15.058 77.389-15.058 22.79 0 44.285 3.095 62.17 8.946 25.133 8.225 39.559 20.922 40.618 35.761.523 7.307-2.094 21.308-25.51 32.997-19.177 9.565-47.385 15.055-77.389 15.055Z" fill="#001C63" style="mix-blend-mode:multiply" opacity=".2"/><path d="M178.758 151.877h-13.419a71.455 71.455 0 0 0-11.706-4.917c-29.088-9.519-71.767-7.706-95.326 4.049a43.11 43.11 0 0 0-1.636.868H43.338v14.743c-1.227 8.511 7.36 17.133 24.99 22.91 29.088 9.519 71.767 7.705 95.322-4.05 10.173-5.075 15.104-11.175 15.096-17.233l.012-16.37Z" fill="#E6E6E8"/><path d="M153.634 130.594c29.092 9.519 33.577 26.765 10.018 38.52-23.56 11.756-66.239 13.569-95.322 4.05-29.084-9.519-33.578-26.764-10.022-38.52 23.556-11.755 66.238-13.569 95.326-4.05Z" fill="#FDFDFF"/><path style="mix-blend-mode:multiply" d="M110.979 179.346c37.434 0 67.78-12.299 67.78-27.47s-30.346-27.47-67.78-27.47-67.78 12.299-67.78 27.47 30.346 27.47 67.78 27.47Z" fill="url(#e)"/><path d="M178.758 124.771h-13.419a71.63 71.63 0 0 0-11.706-4.917c-29.088-9.519-71.767-7.706-95.326 4.05a43.12 43.12 0 0 0-1.636.867H43.338v14.744c-1.227 8.51 7.36 17.133 24.99 22.909 29.088 9.519 71.767 7.706 95.322-4.05 10.173-5.075 15.104-11.174 15.096-17.237l.012-16.366Z" fill="#E6E6E8"/><path d="M153.634 103.489c29.092 9.519 33.577 26.765 10.018 38.521-23.56 11.755-66.239 13.564-95.322 4.045-29.084-9.519-33.578-26.764-10.022-38.516 23.556-11.751 66.238-13.569 95.326-4.05Z" fill="#FDFDFF"/><path style="mix-blend-mode:multiply" opacity=".25" d="M110.979 139.018c19.409 0 35.143-6.378 35.143-14.245 0-7.868-15.734-14.246-35.143-14.246s-35.143 6.378-35.143 14.246c0 7.867 15.734 14.245 35.143 14.245Z" fill="url(#f)"/><path d="M108.881 23.463c0 5.05-1.156 8.862-3.468 11.44-2.311 2.579-5.423 3.867-9.334 3.864-3.95 0-7.085-1.288-9.405-3.863-2.32-2.576-3.475-6.39-3.467-11.44v-7.86c0-5.051 1.148-8.863 3.443-11.436C88.945 1.595 92.065.306 96.01.301c3.927 0 7.052 1.293 9.375 3.88 2.322 2.586 3.482 6.394 3.479 11.423l.017 7.86Zm-8.53-8.448c0-2.858-.37-4.912-1.112-6.162a3.57 3.57 0 0 0-1.345-1.399 3.5 3.5 0 0 0-1.869-.477 3.435 3.435 0 0 0-1.864.471 3.504 3.504 0 0 0-1.333 1.405c-.72 1.25-1.078 3.304-1.075 6.162v8.988c0 2.907.362 4.982 1.087 6.224.316.585.786 1.07 1.358 1.398a3.486 3.486 0 0 0 1.88.461c.65.022 1.291-.14 1.854-.468a3.512 3.512 0 0 0 1.332-1.39c.728-1.246 1.09-3.32 1.087-6.225v-8.988ZM113.984 21.795 116.11.84h21.605v6.676h-14.65l-.936 7.835c.726-.541 1.54-.95 2.404-1.208a11.29 11.29 0 0 1 3.165-.514c3.609-.067 6.384.998 8.325 3.195 1.94 2.196 2.91 5.317 2.907 9.361a12.815 12.815 0 0 1-3.312 8.922c-2.211 2.44-5.374 3.66-9.49 3.66a14.613 14.613 0 0 1-9.134-2.955 8.941 8.941 0 0 1-2.865-3.412 9.092 9.092 0 0 1-.881-4.393l.053-.154 8.35-.514c0 1.488.408 2.653 1.226 3.494.429.422.939.75 1.498.964.559.214 1.156.31 1.753.28 1.554 0 2.655-.553 3.304-1.66a8.23 8.23 0 0 0 .973-4.199c0-2.052-.363-3.67-1.088-4.85-.725-1.182-1.873-1.772-3.443-1.772a4.706 4.706 0 0 0-2.768.742 3.848 3.848 0 0 0-1.455 1.876l-7.667-.419Z" fill="#001C63"/><g clip-path="url(#g)"><path d="M98.677 117.195h.086a.81.81 0 0 1 .139 0h10.534a.694.694 0 0 1 .701.701v3.797a.695.695 0 0 1-.432.652.691.691 0 0 1-.269.054H98.381a.692.692 0 0 1-.498-.207.69.69 0 0 1-.203-.499v-3.797a.706.706 0 0 1 .428-.664.708.708 0 0 1 .273-.055h.148a.661.661 0 0 1 .166 0l-.018.018Zm10.732-1.667H99.073a.699.699 0 0 1-.53-.243c-.4-.395-.818-.8-1.254-1.218l-1.348-1.289a108.66 108.66 0 0 1-2.984-2.876c-1.025-1.025-2.054-2.076-3.115-3.312a16.073 16.073 0 0 1-2.395-3.353 17.293 17.293 0 0 1-1.1-3.294l-.216-.809-.27-.957c-.409-1.456-.809-2.934-1.24-4.386a11.379 11.379 0 0 1-.58-2.426c-.1-.659-.045-1.331.162-1.964a1.98 1.98 0 0 1 .224-.45c.1-.142.225-.266.369-.364.124-.079.26-.135.404-.166a1.28 1.28 0 0 1 .414 0c.281.03.553.122.795.27.248.148.473.333.665.548a.58.58 0 0 1 .13.202l3.686 8.763v.036a.649.649 0 0 1 .062.09c.102.18.22.349.35.508.131.16.272.31.423.45l7.316 6.965.05.058a.257.257 0 0 0 .166.067.246.246 0 0 0 .166-.044l.045-.041a.288.288 0 0 0 .063-.157.251.251 0 0 0-.045-.162l-.063-.072c-2.076-2.422-4.467-5.523-6.642-7.738a3.813 3.813 0 0 1-.575-.674 2.718 2.718 0 0 1-.36-.8c-.118-.398-.099-.824.055-1.209.11-.258.283-.483.503-.656.205-.157.438-.271.688-.337a2.373 2.373 0 0 1 1.5.112c.359.154.695.357.998.602.327.271.628.572.899.9.782.803 1.644 1.599 2.449 2.385.53.504 1.132 1.142 1.797 1.825 1.506 1.595 3.263 3.451 4.665 4.22.141.074.278.156.409.247.139.09.265.179.386.274.122.094.243.189.382.301 0 0 .342.292.355.292.521.429.998.907 1.425 1.429.348.432.63.914.836 1.429v.036c.197.517.338 1.053.422 1.6.104.58.18 1.236.265 1.986.032.256.063.562.095.899.031.337.058.642.072.899l.049.862a.715.715 0 0 1-.041.271.692.692 0 0 1-.628.457l-.018.014ZM124.512 117.196h.031a.627.627 0 0 1 .162 0h.153a.704.704 0 0 1 .701.701v3.797a.713.713 0 0 1-.204.499.709.709 0 0 1-.497.207h-11.073a.691.691 0 0 1-.497-.207.694.694 0 0 1-.204-.499v-3.797a.704.704 0 0 1 .701-.701h10.534a.807.807 0 0 1 .139 0h.054Zm-.373-1.663h-10.363a.698.698 0 0 1-.665-.732l.049-.859c0-.26.041-.561.072-.898.032-.337.063-.652.095-.899.085-.751.161-1.407.265-1.986a8.04 8.04 0 0 1 .449-1.641c.206-.515.488-.997.836-1.429.427-.521.904-1 1.425-1.429l.355-.292c.116-.099.242-.198.382-.301.139-.103.247-.184.386-.274.131-.091.268-.173.409-.247 1.402-.769 3.146-2.625 4.665-4.22.642-.683 1.244-1.321 1.797-1.824.805-.787 1.667-1.582 2.449-2.387.269-.329.57-.63.899-.898.303-.246.639-.448.998-.603a2.372 2.372 0 0 1 1.501-.112c.249.066.482.18.687.337.22.173.394.399.503.656.154.386.173.811.054 1.21a2.768 2.768 0 0 1-.359.799 3.736 3.736 0 0 1-.58.701c-2.22 2.413-4.426 5.523-6.682 7.779a.27.27 0 0 0-.063.189.258.258 0 0 0 .085.179.273.273 0 0 0 .355 0l.05-.058 7.302-7.006c.151-.14.292-.29.423-.45.123-.157.234-.324.332-.498a.753.753 0 0 1 .063-.09v-.036l3.681-8.763a.66.66 0 0 1 .134-.202c.193-.216.417-.4.665-.548.242-.148.514-.24.796-.27.137-.023.276-.023.413 0 .144.03.281.087.405.166.144.098.269.221.368.364.094.14.169.29.225.45.205.63.261 1.3.162 1.954a11.457 11.457 0 0 1-.589 2.45l-1.24 4.363-.265.957-.216.81a17.298 17.298 0 0 1-1.101 3.293 15.941 15.941 0 0 1-2.4 3.352 62.665 62.665 0 0 1-3.105 3.317 106.99 106.99 0 0 1-2.966 2.863l-1.348 1.253-.032.036c-.449.418-.853.823-1.253 1.218a.705.705 0 0 1-.531.243l.023.013Z" fill="#001C63"/><path fill-rule="evenodd" clip-rule="evenodd" d="M126.885 72.325c.773 15.67-5.015 24.927-15.279 28.787-9.886-3.617-15.755-12.47-15.324-29.025 5.208.274 10.336-.85 15.279-4.696 4.391 2.777 9.99 5.415 15.324 4.934Zm-1.69 1.321c.688 13.93-4.458 22.168-13.58 25.615-8.808-3.218-14.016-11.09-13.63-25.813 4.891.364 9.74-1.128 13.581-4.179 3.891 2.454 8.888 4.8 13.629 4.368v.009Z" fill="#001C63"/><path fill-rule="evenodd" clip-rule="evenodd" d="M125.195 73.637c.688 13.93-4.458 22.168-13.58 25.615-8.808-3.218-14.016-11.091-13.63-25.813a19.503 19.503 0 0 0 13.58-4.18c3.892 2.463 8.889 4.81 13.63 4.378Z" fill="#fff"/><path fill-rule="evenodd" clip-rule="evenodd" d="M122.58 75.68c.557 11.235-3.595 17.895-10.965 20.672-7.114-2.602-11.316-8.96-10.988-20.847a15.728 15.728 0 0 0 10.965-3.37c3.146 2 7.19 3.891 11.006 3.545h-.018Z" fill="#001C63"/><path d="m105.278 83.068 2.247-.027h.036l.171.04h.04c.229.13.449.275.67.423.22.148.422.315.62.48.198.167.283.248.449.387l.279.279c.364-.58.746-1.146 1.132-1.69.387-.543.899-1.182 1.348-1.73a29.747 29.747 0 0 1 1.537-1.721 31.094 31.094 0 0 1 1.618-1.56l.045-.03.216-.082a.112.112 0 0 1 .054 0h2.435c.04 0 .077.016.105.044a.148.148 0 0 1 .044.105.15.15 0 0 1-.045.103l-.486.54a53.251 53.251 0 0 0-2.152 2.543 46.087 46.087 0 0 0-1.96 2.647 67.4 67.4 0 0 0-1.752 2.696 44.607 44.607 0 0 0-1.573 2.817l-.306.594a.147.147 0 0 1-.193.063.164.164 0 0 1-.067-.068l-.279-.607a14.283 14.283 0 0 0-.854-1.586 13.5 13.5 0 0 0-1.011-1.429 12.103 12.103 0 0 0-2.588-2.395.14.14 0 0 1-.052-.07.137.137 0 0 1-.002-.087l.18-.598a.139.139 0 0 1 .143-.103l-.049.022Z" fill="#fff"/></g><defs><radialGradient id="a" cx="0" cy="0" r="1" gradientUnits="userSpaceOnUse" gradientTransform="matrix(107.502 0 0 42.5488 110.979 212.312)"><stop stop-color="#2A48D0"/><stop offset="1" stop-color="#fff"/></radialGradient><radialGradient id="b" cx="0" cy="0" r="1" gradientUnits="userSpaceOnUse" gradientTransform="matrix(53.75844 -21.51545 14.84431 37.08996 117.011 179.36)"><stop stop-color="#8EDBDC"/><stop offset=".44" stop-color="#90DCDD"/><stop offset=".6" stop-color="#97DEDF"/><stop offset=".71" stop-color="#A2E2E2"/><stop offset=".8" stop-color="#B3E7E8"/><stop offset=".88" stop-color="#C9EEEE"/><stop offset=".95" stop-color="#E4F6F7"/><stop offset="1" stop-color="#fff"/></radialGradient><radialGradient id="c" cx="0" cy="0" r="1" gradientUnits="userSpaceOnUse" gradientTransform="matrix(53.75844 -21.51545 14.84431 37.08996 117.011 179.36)"><stop stop-color="#80E3C8"/><stop offset=".43" stop-color="#82E3C9"/><stop offset=".58" stop-color="#89E5CC"/><stop offset=".69" stop-color="#94E8D1"/><stop offset=".78" stop-color="#A5EBD8"/><stop offset=".86" stop-color="#BBF0E2"/><stop offset=".93" stop-color="#D7F6ED"/><stop offset=".99" stop-color="#F6FDFB"/><stop offset="1" stop-color="#fff"/></radialGradient><radialGradient id="d" cx="0" cy="0" r="1" gradientUnits="userSpaceOnUse" gradientTransform="matrix(53.75844 -21.51545 14.84431 37.08996 117.011 179.36)"><stop stop-color="#2A48D0"/><stop offset=".39" stop-color="#2C4AD0"/><stop offset=".53" stop-color="#334FD2"/><stop offset=".62" stop-color="#3E5AD5"/><stop offset=".71" stop-color="#4F68D8"/><stop offset=".77" stop-color="#657BDD"/><stop offset=".83" stop-color="#8192E3"/><stop offset=".89" stop-color="#A1AEEA"/><stop offset=".94" stop-color="#C7CFF3"/><stop offset=".99" stop-color="#F0F2FC"/><stop offset="1" stop-color="#fff"/></radialGradient><radialGradient id="e" cx="0" cy="0" r="1" gradientUnits="userSpaceOnUse" gradientTransform="matrix(67.5713 0 0 25.3728 110.979 155.127)"><stop stop-color="#2A48D0"/><stop offset="1" stop-color="#fff"/></radialGradient><radialGradient id="f" cx="0" cy="0" r="1" gradientUnits="userSpaceOnUse" gradientTransform="matrix(35.0369 0 0 13.1562 110.979 127.986)"><stop stop-color="#2A48D0"/><stop offset="1" stop-color="#fff"/></radialGradient><clipPath id="g"><path fill="#fff" transform="translate(84 67.38)" d="M0 0h55.22v55H0z"/></clipPath></defs></svg>