<svg width="222" height="263" fill="none" xmlns="http://www.w3.org/2000/svg"><path style="mix-blend-mode:multiply" d="M180.562 183.287c47.381 15.507 54.688 43.599 16.318 62.745-38.369 19.146-107.886 22.101-155.271 6.594-47.385-15.507-54.688-43.595-16.319-62.745 38.37-19.15 107.887-22.096 155.272-6.594Z" fill="url(#a)"/><path d="M108.485 219.704c-22.786 0-44.285-3.092-62.15-8.943-25.129-8.224-39.554-20.926-40.617-35.764-.524-7.308 2.097-21.308 25.51-32.993 19.176-9.569 47.385-15.055 77.388-15.055 22.791 0 44.29 3.096 62.174 8.947 25.13 8.22 39.555 20.922 40.618 35.76.52 7.303-2.097 21.308-25.514 32.993-19.205 9.569-47.413 15.055-77.409 15.055Z" fill="#001C63" style="mix-blend-mode:multiply" opacity=".2"/><path d="M108.485 235.491c-22.786 0-44.285-3.095-62.15-8.946-25.129-8.225-39.554-20.922-40.617-35.761-.524-7.307 2.097-21.308 25.51-32.997 19.176-9.544 47.385-15.055 77.388-15.055 22.791 0 44.29 3.096 62.174 8.947 25.13 8.224 39.555 20.922 40.618 35.76.52 7.308-2.097 21.308-25.514 32.993-19.205 9.569-47.413 15.059-77.409 15.059Z" fill="#001C63" style="mix-blend-mode:multiply" opacity=".2"/><path d="M168.345 143.475c40.798 13.349 47.091 37.537 14.053 54.023-33.037 16.486-92.889 19.026-133.703 5.677-40.815-13.349-47.087-37.537-14.05-54.023 33.038-16.486 92.906-19.026 133.7-5.677Z" fill="#001C63" style="mix-blend-mode:multiply"/><g style="mix-blend-mode:multiply"><path d="M156.172 149.55c32.489 10.636 37.502 29.898 11.191 43.027-26.311 13.129-73.983 15.154-106.476 4.523-32.494-10.631-37.503-29.877-11.191-43.027 26.311-13.149 73.982-15.154 106.476-4.523Z" fill="url(#b)"/><path d="M156.172 149.55c32.489 10.636 37.502 29.898 11.191 43.027-26.311 13.129-73.983 15.154-106.476 4.523-32.494-10.631-37.503-29.877-11.191-43.027 26.311-13.149 73.982-15.154 106.476-4.523Z" fill="url(#c)"/><path d="M156.172 149.55c32.489 10.636 37.502 29.898 11.191 43.027-26.311 13.129-73.983 15.154-106.476 4.523-32.494-10.631-37.503-29.877-11.191-43.027 26.311-13.149 73.982-15.154 106.476-4.523Z" fill="url(#d)"/></g><path d="M176.306 145.937h-13.42a71.418 71.418 0 0 0-11.706-4.917c-29.088-9.519-71.766-7.706-95.322 4.05-.572.286-1.116.577-1.656.867H40.885v14.744c-1.227 8.51 7.34 17.133 24.99 22.909 29.092 9.519 71.771 7.706 95.327-4.05 10.173-5.075 15.104-11.175 15.095-17.237l.009-16.366Z" fill="#E6E6ED"/><path d="M151.18 124.653c29.091 9.52 33.577 26.765 10.021 38.521-23.555 11.755-66.238 13.564-95.326 4.05-29.087-9.515-33.573-26.769-10.017-38.521 23.555-11.751 66.234-13.569 95.322-4.05Z" fill="#FAFAFF"/><path style="mix-blend-mode:multiply" d="M108.457 173.435c37.474 0 67.853-12.311 67.853-27.499 0-15.187-30.379-27.498-67.853-27.498-37.474 0-67.853 12.311-67.853 27.498 0 15.188 30.379 27.499 67.853 27.499Z" fill="url(#e)"/><path d="M176.305 118.832h-13.419a70.95 70.95 0 0 0-11.706-4.917c-29.088-9.52-71.767-7.706-95.322 4.049a62.23 62.23 0 0 0-1.656.868H40.885v14.743c-1.227 8.511 7.34 17.133 24.99 22.91 29.092 9.519 71.771 7.705 95.326-4.05 10.173-5.075 15.104-11.175 15.096-17.238l.008-16.365Z" fill="#E6E6ED"/><path d="M151.18 97.531c29.091 9.519 33.577 26.765 10.021 38.52-23.555 11.756-66.238 13.565-95.326 4.046-29.087-9.519-33.573-26.764-10.017-38.516 23.555-11.751 66.234-13.552 95.322-4.05Z" fill="#FAFAFF"/><path style="mix-blend-mode:multiply" opacity=".25" d="M108.456 133.077c19.409 0 35.143-6.378 35.143-14.246 0-7.867-15.734-14.245-35.143-14.245-19.41 0-35.144 6.378-35.144 14.245 0 7.868 15.735 14.246 35.144 14.246Z" fill="url(#f)"/><path d="M106.349 24.044c0 5.05-1.154 8.863-3.463 11.44-2.309 2.579-5.422 3.868-9.339 3.868-3.944 0-7.072-1.289-9.384-3.867-2.311-2.578-3.472-6.392-3.483-11.44v-7.843c0-5.051 1.146-8.865 3.438-11.44C86.411 2.186 89.532.898 93.482.898c3.93 0 7.056 1.292 9.375 3.876 2.32 2.584 3.478 6.393 3.476 11.428l.016 7.842ZM97.824 15.6c0-2.857-.37-4.913-1.112-6.166a3.573 3.573 0 0 0-1.347-1.396 3.504 3.504 0 0 0-1.867-.475 3.435 3.435 0 0 0-1.866.468 3.504 3.504 0 0 0-1.336 1.403c-.714 1.253-1.072 3.309-1.075 6.166v8.984c0 2.913.363 4.988 1.088 6.224.316.585.786 1.07 1.358 1.398a3.5 3.5 0 0 0 1.88.465 3.452 3.452 0 0 0 1.856-.47 3.521 3.521 0 0 0 1.333-1.393c.725-1.242 1.088-3.317 1.088-6.224V15.6ZM125.935.886c1.3-.014 2.598.11 3.872.37 1.278.296 2.531.695 3.746 1.194l-1.419 6.316c-1.182-.357-2.212-.627-3.099-.805a15.213 15.213 0 0 0-3.051-.27 6.013 6.013 0 0 0-2.68.517 6.093 6.093 0 0 0-2.189 1.653c-1.222 1.444-1.808 3.554-1.758 6.328l.077.129a7.39 7.39 0 0 1 2.96-2.004 11.546 11.546 0 0 1 4.2-.718c3.287 0 5.847 1.202 7.678 3.606 1.832 2.404 2.747 5.481 2.744 9.232 0 3.696-1.21 6.774-3.631 9.233-2.42 2.46-5.51 3.688-9.269 3.685-4.034 0-7.29-1.344-9.768-4.033-2.478-2.69-3.718-6.37-3.721-11.042v-7.523c0-4.93 1.43-8.803 4.289-11.619 2.86-2.816 6.533-4.233 11.019-4.25Zm-1.696 19.387a8.58 8.58 0 0 0-3.047.485 4.775 4.775 0 0 0-2.011 1.353v2.199c0 2.697.435 4.772 1.304 6.224a4.088 4.088 0 0 0 1.517 1.597c.64.382 1.372.577 2.114.565 1.281 0 2.326-.614 3.136-1.842a7.765 7.765 0 0 0 1.227-4.374c0-1.892-.393-3.397-1.178-4.515a3.614 3.614 0 0 0-1.315-1.249 3.548 3.548 0 0 0-1.747-.444Z" fill="#001C63"/><g clip-path="url(#g)"><path d="M94.475 101.523a1.193 1.193 0 0 1 1.462 1.881l-6.01 4.669-.045 6.292 7.382-.414 4.006-6.368a1.192 1.192 0 0 1 1.64-.373c.554.35.722 1.086.372 1.64l-4.315 6.855c-.195.331-.55.563-.963.586l-9.253.522h-.068a1.187 1.187 0 0 1-1.181-1.195l.059-8.044a1.196 1.196 0 0 1 .459-1.031l6.455-5.02Zm11.233-14.676c2.998-8.963 7.041-15.317 12.728-19.32 5.901-4.156 13.487-5.727 23.425-5.01.686.05 1.213.613 1.222 1.286.963 10.76-1.126 18.392-5.578 24.175-4.283 5.56-10.711 9.32-18.687 12.478v10.506c0 .514-.296.963-.727 1.177l-8.122 5.019a1.312 1.312 0 0 1-1.994-.944c-1.799-13.746-3.711-14.405-14.95-18.293a668.955 668.955 0 0 1-3.774-1.313 1.315 1.315 0 0 1-.804-1.676c.05-.145.127-.277.218-.395l5.355-7.631a1.309 1.309 0 0 1 1.136-.56l10.552.5Zm22.994-10.125a4.016 4.016 0 0 0-5.669 0 4.017 4.017 0 0 0 0 5.669 4.016 4.016 0 0 0 5.669 0 3.988 3.988 0 0 0 1.172-2.835c0-1.108-.45-2.108-1.172-2.834Z" fill="#001C63"/></g><defs><radialGradient id="a" cx="0" cy="0" r="1" gradientUnits="userSpaceOnUse" gradientTransform="matrix(107.502 0 0 42.5488 111.085 204.895)"><stop stop-color="#1628B1"/><stop offset="1" stop-color="#fff"/></radialGradient><radialGradient id="b" cx="0" cy="0" r="1" gradientUnits="userSpaceOnUse" gradientTransform="matrix(53.75844 -21.51545 14.84431 37.08996 115.532 172.614)"><stop stop-color="#80E3C8"/><stop offset=".43" stop-color="#82E3C9"/><stop offset=".58" stop-color="#89E5CC"/><stop offset=".69" stop-color="#94E8D1"/><stop offset=".78" stop-color="#A5EBD8"/><stop offset=".86" stop-color="#BBF0E2"/><stop offset=".93" stop-color="#D7F6ED"/><stop offset=".99" stop-color="#F6FDFB"/><stop offset="1" stop-color="#fff"/></radialGradient><radialGradient id="c" cx="0" cy="0" r="1" gradientUnits="userSpaceOnUse" gradientTransform="matrix(53.75844 -21.51545 14.84431 37.08996 115.532 172.614)"><stop stop-color="#80E3C8"/><stop offset=".43" stop-color="#82E3C9"/><stop offset=".58" stop-color="#89E5CC"/><stop offset=".69" stop-color="#94E8D1"/><stop offset=".78" stop-color="#A5EBD8"/><stop offset=".86" stop-color="#BBF0E2"/><stop offset=".93" stop-color="#D7F6ED"/><stop offset=".99" stop-color="#F6FDFB"/><stop offset="1" stop-color="#fff"/></radialGradient><radialGradient id="d" cx="0" cy="0" r="1" gradientUnits="userSpaceOnUse" gradientTransform="matrix(53.75844 -21.51545 14.84431 37.08996 115.532 172.614)"><stop stop-color="#1628B1"/><stop offset=".38" stop-color="#182AB2"/><stop offset=".52" stop-color="#1F30B4"/><stop offset=".61" stop-color="#2A3BB8"/><stop offset=".69" stop-color="#3B4BBE"/><stop offset=".76" stop-color="#515FC5"/><stop offset=".82" stop-color="#6D78CE"/><stop offset=".87" stop-color="#8D96D9"/><stop offset=".92" stop-color="#B3B9E5"/><stop offset=".97" stop-color="#DCDFF3"/><stop offset="1" stop-color="#fff"/></radialGradient><radialGradient id="e" cx="0" cy="0" r="1" gradientUnits="userSpaceOnUse" gradientTransform="matrix(67.6449 0 0 25.4005 108.457 149.391)"><stop stop-color="#1628B1"/><stop offset="1" stop-color="#fff"/></radialGradient><radialGradient id="f" cx="0" cy="0" r="1" gradientUnits="userSpaceOnUse" gradientTransform="matrix(35.0368 0 0 13.1562 108.456 122.249)"><stop stop-color="#1628B1"/><stop offset="1" stop-color="#fff"/></radialGradient><clipPath id="g"><path fill="#fff" transform="translate(87.498 62.35)" d="M0 0h55.818v55H0z"/></clipPath></defs></svg>