<svg width="221" height="264" fill="none" xmlns="http://www.w3.org/2000/svg"><path style="mix-blend-mode:multiply" d="M180.024 184.186c47.385 15.507 54.712 43.595 16.318 62.729-38.393 19.133-107.886 22.096-155.267 6.593-47.381-15.502-54.692-43.594-16.323-62.745 38.37-19.15 107.891-22.079 155.272-6.577Z" fill="url(#a)"/><path d="M110.478 219.893c-22.787 0-44.286-3.095-62.15-8.946-25.13-8.22-39.555-20.922-40.618-35.761-.523-7.303 2.098-21.308 25.514-32.993 19.172-9.569 47.38-15.054 77.389-15.054 22.786 0 44.285 3.091 62.149 8.942 25.13 8.224 39.555 20.926 40.618 35.765.523 7.307-2.097 21.308-25.514 32.993-19.172 9.568-47.381 15.054-77.388 15.054Z" fill="#8EDBDC" style="mix-blend-mode:multiply" opacity=".2"/><path d="M170.353 143.667c40.794 13.349 47.087 37.536 14.05 54.018-33.038 16.482-92.89 19.03-133.704 5.681-40.814-13.349-47.09-37.537-14.053-54.023 33.037-16.486 92.91-19.03 133.707-5.676Z" fill="#029894" style="mix-blend-mode:multiply"/><g style="mix-blend-mode:multiply"><path d="M158.178 149.741c32.493 10.631 37.502 29.877 11.191 43.027-26.312 13.149-73.983 15.154-106.476 4.523-32.494-10.631-37.503-29.898-11.191-43.027 26.311-13.129 73.982-15.154 106.476-4.523Z" fill="url(#b)"/><path d="M158.178 149.741c32.493 10.631 37.502 29.877 11.191 43.027-26.312 13.149-73.983 15.154-106.476 4.523-32.494-10.631-37.503-29.898-11.191-43.027 26.311-13.129 73.982-15.154 106.476-4.523Z" fill="url(#c)"/><path d="M158.178 149.741c32.493 10.631 37.502 29.877 11.191 43.027-26.312 13.149-73.983 15.154-106.476 4.523-32.494-10.631-37.503-29.898-11.191-43.027 26.311-13.129 73.982-15.154 106.476-4.523Z" fill="url(#d)"/></g><path d="M110.478 235.678c-22.787 0-44.286-3.091-62.15-8.942-25.13-8.224-39.555-20.926-40.618-35.761-.523-7.307 2.098-21.307 25.514-32.993 19.172-9.568 47.38-15.058 77.389-15.058 22.786 0 44.285 3.095 62.149 8.946 25.13 8.22 39.555 20.922 40.618 35.761.523 7.307-2.097 21.308-25.514 32.993-19.172 9.569-47.381 15.054-77.388 15.054Z" fill="#8EDBDC" style="mix-blend-mode:multiply" opacity=".2"/><path d="M178.311 146.127h-13.423a70.883 70.883 0 0 0-11.703-4.917c-29.091-9.519-71.77-7.706-95.326 4.049-.572.283-1.112.577-1.635.868h-13.33v14.743c-1.226 8.511 7.36 17.133 24.987 22.91 29.092 9.514 71.771 7.705 95.326-4.05 10.173-5.075 15.104-11.175 15.096-17.237l.008-16.366Z" fill="#E6EDEB"/><path d="M153.19 124.844c29.087 9.519 33.573 26.765 10.017 38.52-23.555 11.756-66.238 13.565-95.326 4.046-29.087-9.519-33.573-26.764-10.017-38.52 23.555-11.756 66.234-13.565 95.326-4.046Z" fill="#FAFFFE"/><path style="mix-blend-mode:multiply" d="M110.536 173.596c37.433 0 67.78-12.299 67.78-27.47s-30.347-27.47-67.78-27.47c-37.434 0-67.78 12.299-67.78 27.47s30.346 27.47 67.78 27.47Z" fill="url(#e)"/><path d="M178.311 119.023h-13.423a70.676 70.676 0 0 0-11.703-4.917c-29.091-9.519-71.77-7.706-95.326 4.05a37.99 37.99 0 0 0-1.635.867h-13.33v14.744c-1.226 8.51 7.36 17.129 24.987 22.905 29.092 9.519 71.771 7.71 95.326-4.046 10.173-5.079 15.104-11.179 15.096-17.237l.008-16.366Z" fill="#E6EDEB"/><path d="M153.19 97.74c29.087 9.52 33.573 26.765 10.017 38.521-23.555 11.755-66.238 13.564-95.326 4.045-29.087-9.519-33.573-26.764-10.017-38.52 23.555-11.755 66.234-13.564 95.326-4.046Z" fill="#FAFFFE"/><path style="mix-blend-mode:multiply" opacity=".25" d="M110.536 133.268c19.409 0 35.143-6.378 35.143-14.245 0-7.868-15.734-14.246-35.143-14.246-19.41 0-35.143 6.378-35.143 14.246 0 7.867 15.734 14.245 35.143 14.245Z" fill="url(#f)"/><path d="M108.43 23.29c0 5.051-1.156 8.865-3.468 11.44-2.311 2.576-5.424 3.863-9.338 3.863-3.947 0-7.082-1.288-9.405-3.863-2.322-2.575-3.478-6.389-3.467-11.44v-7.86c0-5.05 1.148-8.864 3.443-11.44C88.49 1.415 91.61.127 95.554.127c3.928 0 7.053 1.293 9.376 3.88 2.322 2.586 3.482 6.394 3.479 11.424l.021 7.859ZM99.9 14.84c0-2.86-.37-4.914-1.112-6.162a3.573 3.573 0 0 0-1.346-1.398 3.504 3.504 0 0 0-1.867-.477c-.654-.024-1.3.14-1.866.472a3.517 3.517 0 0 0-1.336 1.403c-.714 1.25-1.073 3.305-1.075 6.162v8.988c0 2.908.362 4.982 1.087 6.224.316.586.786 1.07 1.358 1.4.572.33 1.223.49 1.88.464.65.022 1.294-.14 1.857-.47a3.512 3.512 0 0 0 1.333-1.393c.728-1.243 1.09-3.317 1.087-6.225v-8.988ZM138.65 38.053h-25.759v-5.647l11.857-12.635a25.264 25.264 0 0 0 3.312-4.673 7.987 7.987 0 0 0 1.063-3.568 5.182 5.182 0 0 0-1.075-3.445c-.714-.854-1.789-1.282-3.226-1.282a3.417 3.417 0 0 0-1.729.422c-.53.291-.975.718-1.293 1.238a7.483 7.483 0 0 0-1.1 4.224h-8.353l-.049-.153c-.076-1.62.182-3.24.757-4.754a11.7 11.7 0 0 1 2.584-4.04c2.311-2.406 5.372-3.61 9.183-3.61 4.048 0 7.207 1.01 9.478 3.03 2.27 2.02 3.404 4.786 3.402 8.3a11.083 11.083 0 0 1-1.808 6.265c-1.204 1.812-3.427 4.508-6.668 8.087l-4.985 5.42.074.153h14.335v6.668Z" fill="#029894"/><g clip-path="url(#g)"><path fill-rule="evenodd" clip-rule="evenodd" d="M75 88.563h14.196v25.634H75V88.563Zm48.802-13.014c5.152 0 9.331 4.235 9.331 9.469 0 5.228-4.174 9.469-9.331 9.469-5.151 0-9.33-4.236-9.33-9.47 0-5.227 4.174-9.468 9.33-9.468ZM107.428 63.66c4.443 0 8.05 3.655 8.05 8.17 0 4.508-3.602 8.169-8.05 8.169-4.442 0-8.05-3.655-8.05-8.17 0-4.508 3.602-8.169 8.05-8.169Zm.818 9.904c0-.267-.063-.47-.195-.62-.131-.151-.354-.29-.674-.424a14.7 14.7 0 0 1-.886-.4 3.216 3.216 0 0 1-.704-.476c-.2-.18-.348-.389-.451-.621-.109-.238-.155-.522-.155-.859 0-.563.189-1.027.561-1.386.371-.36.869-.58 1.492-.639v-.754h.783v.772c.6.087 1.075.336 1.418.748.343.412.515.934.515 1.56h-1.676c0-.347-.068-.614-.2-.8a.647.647 0 0 0-.56-.278c-.217 0-.389.07-.503.203-.12.14-.177.33-.177.568 0 .244.068.441.206.587.142.144.36.284.663.417.303.134.594.267.863.406a3.4 3.4 0 0 1 .698.482c.2.18.354.395.463.632.108.238.171.523.171.865 0 .569-.177 1.033-.537 1.392-.36.36-.841.57-1.452.627v.708h-.778v-.708c-.715-.081-1.264-.325-1.647-.743-.383-.423-.577-.974-.577-1.665h1.664c0 .383.08.667.246.87.165.198.4.302.703.302.223 0 .394-.07.526-.203.126-.14.194-.325.2-.563Zm16.5 13.461c0-.307-.074-.545-.223-.72-.149-.173-.406-.336-.783-.492a17.86 17.86 0 0 1-1.029-.464 3.567 3.567 0 0 1-.818-.552 2.214 2.214 0 0 1-.526-.72c-.126-.272-.177-.602-.177-.991 0-.656.217-1.19.651-1.608.429-.417 1.007-.667 1.727-.736v-.877h.909v.9c.692.104 1.241.394 1.641.87.4.476.6 1.08.6 1.81h-1.932c0-.406-.08-.707-.229-.928-.148-.215-.371-.325-.652-.325-.251 0-.446.081-.583.238-.137.157-.206.383-.206.661 0 .285.08.511.241.68.16.168.411.33.766.481.354.15.686.313 1 .47.315.162.583.354.812.557.229.209.406.453.537.731.132.278.195.61.195.998 0 .662-.206 1.201-.623 1.613-.412.412-.972.662-1.687.725v.818h-.909v-.823c-.829-.093-1.464-.378-1.91-.865-.44-.487-.663-1.132-.663-1.932h1.927c0 .44.097.772.286 1.004.189.226.463.348.817.348a.834.834 0 0 0 .612-.232c.149-.151.223-.366.229-.639Zm-.944-9.614c4.134 0 7.49 3.4 7.49 7.601 0 4.195-3.35 7.6-7.49 7.6-4.133 0-7.489-3.4-7.489-7.6 0-4.2 3.356-7.6 7.489-7.6Zm-31.747 34.633V90.623h9.496c4.025.73 8.05 2.947 12.075 5.518h7.375c3.339.203 5.088 3.638 1.841 5.895-2.584 1.926-5.997 1.816-9.496 1.497-2.413-.122-2.516 3.168 0 3.179.874.07 1.823-.139 2.652-.139 4.368-.006 7.959-.853 10.16-4.352l1.103-2.616 10.972-5.518c5.488-1.834 9.388 3.992 5.345 8.047-7.947 5.866-16.094 10.694-24.429 14.593-6.055 3.736-12.109 3.609-18.158 0l-8.936-4.683Z" fill="#029894"/></g><defs><radialGradient id="a" cx="0" cy="0" r="1" gradientUnits="userSpaceOnUse" gradientTransform="matrix(107.502 0 0 42.5488 110.547 205.788)"><stop stop-color="#8EDBDC"/><stop offset="1" stop-color="#fff"/></radialGradient><radialGradient id="b" cx="0" cy="0" r="1" gradientUnits="userSpaceOnUse" gradientTransform="rotate(-21.812 505.219 -208.385) scale(57.9042 39.9502)"><stop stop-color="#8EDBDC"/><stop offset=".44" stop-color="#90DCDD"/><stop offset=".6" stop-color="#97DEDF"/><stop offset=".71" stop-color="#A2E2E2"/><stop offset=".8" stop-color="#B3E7E8"/><stop offset=".88" stop-color="#C9EEEE"/><stop offset=".95" stop-color="#E4F6F7"/><stop offset="1" stop-color="#fff"/></radialGradient><radialGradient id="c" cx="0" cy="0" r="1" gradientUnits="userSpaceOnUse" gradientTransform="rotate(-21.812 505.219 -208.385) scale(57.9042 39.9502)"><stop stop-color="#80E3C8"/><stop offset=".43" stop-color="#82E3C9"/><stop offset=".58" stop-color="#89E5CC"/><stop offset=".69" stop-color="#94E8D1"/><stop offset=".78" stop-color="#A5EBD8"/><stop offset=".86" stop-color="#BBF0E2"/><stop offset=".93" stop-color="#D7F6ED"/><stop offset=".99" stop-color="#F6FDFB"/><stop offset="1" stop-color="#fff"/></radialGradient><radialGradient id="d" cx="0" cy="0" r="1" gradientUnits="userSpaceOnUse" gradientTransform="rotate(-21.812 505.219 -208.385) scale(57.9042 39.9502)"><stop stop-color="#80E3C8"/><stop offset=".43" stop-color="#82E3C9"/><stop offset=".58" stop-color="#89E5CC"/><stop offset=".69" stop-color="#94E8D1"/><stop offset=".78" stop-color="#A5EBD8"/><stop offset=".86" stop-color="#BBF0E2"/><stop offset=".93" stop-color="#D7F6ED"/><stop offset=".99" stop-color="#F6FDFB"/><stop offset="1" stop-color="#fff"/></radialGradient><radialGradient id="e" cx="0" cy="0" r="1" gradientUnits="userSpaceOnUse" gradientTransform="matrix(67.5713 0 0 25.3728 110.536 149.58)"><stop stop-color="#8EDBDC"/><stop offset="1" stop-color="#fff"/></radialGradient><radialGradient id="f" cx="0" cy="0" r="1" gradientUnits="userSpaceOnUse" gradientTransform="matrix(35.0368 0 0 13.1562 110.536 122.44)"><stop stop-color="#8EDBDC"/><stop offset="1" stop-color="#fff"/></radialGradient><clipPath id="g"><path fill="#fff" transform="translate(75 63.66)" d="M0 0h70.254v55.817H0z"/></clipPath></defs></svg>