<svg width="221" height="269" fill="none" xmlns="http://www.w3.org/2000/svg"><path style="mix-blend-mode:multiply" d="M179.956 189.309c47.385 15.503 54.691 43.595 16.318 62.741-38.373 19.146-107.887 22.101-155.268 6.598-47.38-15.503-54.691-43.599-16.322-62.745 38.37-19.146 107.891-22.101 155.272-6.594Z" fill="url(#a)"/><path d="M110.427 225.725c-22.79 0-44.286-3.095-62.17-8.946-25.134-8.224-39.559-20.922-40.622-35.761-.52-7.307 2.098-21.307 25.514-32.993 19.172-9.568 47.38-15.058 77.389-15.058 22.786 0 44.285 3.095 62.149 8.946 25.13 8.225 39.555 20.926 40.618 35.765.524 7.303-2.093 21.308-25.51 32.993-19.156 9.565-47.36 15.054-77.368 15.054Z" fill="#029894" style="mix-blend-mode:multiply" opacity=".2"/><path d="M170.299 149.499c40.798 13.349 47.086 37.532 14.049 54.019-33.037 16.486-92.889 19.029-133.703 5.68-40.815-13.349-47.087-37.536-14.053-54.023 33.033-16.486 92.893-19.025 133.707-5.676Z" fill="#029894" style="mix-blend-mode:multiply"/><g style="mix-blend-mode:multiply"><path d="M158.106 155.574c32.493 10.632 37.502 29.877 11.191 43.027-26.312 13.15-73.983 15.154-106.472 4.519-32.49-10.635-37.507-29.877-11.191-43.023 26.315-13.145 73.999-15.154 106.472-4.523Z" fill="url(#b)"/><path d="M158.106 155.574c32.493 10.632 37.502 29.877 11.191 43.027-26.312 13.15-73.983 15.154-106.472 4.519-32.49-10.635-37.507-29.877-11.191-43.023 26.315-13.145 73.999-15.154 106.472-4.523Z" fill="url(#c)"/><path d="M158.106 155.574c32.493 10.632 37.502 29.877 11.191 43.027-26.312 13.15-73.983 15.154-106.472 4.519-32.49-10.635-37.507-29.877-11.191-43.023 26.315-13.145 73.999-15.154 106.472-4.523Z" fill="url(#d)"/></g><path d="M110.427 241.51c-22.79 0-44.286-3.091-62.17-8.946-25.134-8.22-39.559-20.922-40.622-35.761-.52-7.303 2.098-21.308 25.514-32.993 19.172-9.568 47.381-15.054 77.389-15.054 22.786 0 44.285 3.091 62.149 8.946 25.13 8.221 39.555 20.922 40.618 35.761.524 7.307-2.093 21.308-25.51 32.993-19.156 9.569-47.36 15.054-77.368 15.054Z" fill="#029894" style="mix-blend-mode:multiply" opacity=".2"/><path d="M178.26 151.959h-13.42a70.828 70.828 0 0 0-11.706-4.917c-29.088-9.519-71.766-7.706-95.326 4.046-.572.286-1.112.577-1.635.871H42.855v14.739c-1.226 8.515 7.36 17.134 24.991 22.91 29.088 9.519 71.766 7.706 95.322-4.046 10.173-5.079 15.104-11.179 15.096-17.237l-.004-16.366Z" fill="#E6EBED"/><path d="M153.134 130.676c29.092 9.519 33.577 26.764 10.018 38.516-23.56 11.751-66.239 13.569-95.322 4.05-29.084-9.519-33.578-26.765-10.022-38.52 23.556-11.756 66.238-13.565 95.326-4.046Z" fill="#FAFDFF"/><path style="mix-blend-mode:multiply" d="M110.406 179.459c37.475 0 67.854-12.312 67.854-27.499s-30.379-27.499-67.854-27.499c-37.474 0-67.853 12.312-67.853 27.499s30.379 27.499 67.853 27.499Z" fill="url(#e)"/><path d="M178.26 124.855h-13.42a70.828 70.828 0 0 0-11.706-4.917c-29.088-9.519-71.766-7.71-95.326 4.046-.572.286-1.112.576-1.635.871H42.855v14.735c-1.226 8.515 7.36 17.133 24.991 22.909 29.088 9.52 71.766 7.706 95.322-4.049 10.173-5.075 15.104-11.175 15.096-17.233l-.004-16.362Z" fill="#E6EBED"/><path d="M153.134 103.567c29.092 9.519 33.577 26.765 10.018 38.52-23.56 11.756-66.239 13.569-95.322 4.05-29.084-9.519-33.578-26.764-10.022-38.52 23.556-11.755 66.238-13.565 95.326-4.05Z" fill="#FAFDFF"/><path style="mix-blend-mode:multiply" opacity=".25" d="M110.407 139.1c19.409 0 35.143-6.378 35.143-14.245 0-7.868-15.734-14.246-35.143-14.246-19.41 0-35.143 6.378-35.143 14.246 0 7.867 15.734 14.245 35.143 14.245Z" fill="url(#f)"/><path d="M108.304 23.463c0 5.05-1.155 8.862-3.467 11.44-2.311 2.579-5.423 3.867-9.335 3.864-3.95 0-7.084-1.288-9.404-3.863-2.32-2.576-3.475-6.39-3.467-11.44v-7.86c0-5.051 1.147-8.863 3.443-11.436C88.369 1.595 91.489.306 95.433.301c3.933 0 7.059 1.293 9.375 3.88 2.317 2.586 3.477 6.394 3.48 11.423l.016 7.86Zm-8.525-8.448c0-2.858-.372-4.912-1.116-6.162a3.57 3.57 0 0 0-1.346-1.399 3.5 3.5 0 0 0-1.868-.477 3.436 3.436 0 0 0-1.864.471 3.505 3.505 0 0 0-1.333 1.405c-.72 1.25-1.078 3.304-1.075 6.162v8.988c0 2.907.362 4.982 1.087 6.224.33.567.8 1.037 1.364 1.363a3.69 3.69 0 0 0 3.7 0 3.76 3.76 0 0 0 1.364-1.363c.722-1.245 1.085-3.32 1.087-6.224v-8.988ZM120.525 15.936h4.023c1.535 0 2.715-.415 3.541-1.245.826-.83 1.235-1.993 1.227-3.49a4.217 4.217 0 0 0-1.113-2.979c-.744-.805-1.819-1.208-3.238-1.208a4.695 4.695 0 0 0-2.936.976 3.03 3.03 0 0 0-.939 1.1c-.22.44-.331.926-.324 1.418h-8.3l-.049-.153c-.101-2.98 1.053-5.393 3.463-7.241 2.409-1.848 5.337-2.773 8.783-2.776 3.993 0 7.189.93 9.588 2.788 2.398 1.86 3.596 4.487 3.594 7.885a7.804 7.804 0 0 1-1.558 4.684 10.44 10.44 0 0 1-4.162 3.349 9.942 9.942 0 0 1 4.632 3.353 8.765 8.765 0 0 1 1.668 5.394c0 3.428-1.29 6.12-3.872 8.08-2.581 1.958-5.878 2.937-9.89 2.937a15.272 15.272 0 0 1-9.073-2.76c-2.587-1.842-3.84-4.508-3.758-8l.053-.153h8.349a3.879 3.879 0 0 0 1.378 3.017 4.864 4.864 0 0 0 3.353 1.22 4.988 4.988 0 0 0 3.594-1.283 4.266 4.266 0 0 0 1.014-1.471c.231-.558.343-1.16.327-1.765 0-1.812-.469-3.134-1.406-3.967-.938-.833-2.257-1.248-3.958-1.245h-4.024l.013-6.465Z" fill="#029894"/><g clip-path="url(#g)"><path fill-rule="evenodd" clip-rule="evenodd" d="m129.817 108.989-5.17-.926-2.564 4.592c-1.862 2.305-3.044-1.486-3.563-2.806l-4.991-9.413c1.15-.398 2.538-1.549 3.961-2.842 2.843.058 5.492-.434 7.439-2.914l5.734 11.078.497 1.065c.394 1.383.188 2.296-1.343 2.166Zm-19.148-50.604c.971-.04 1.737.295 2.511.788.98.622 2.086 1.853 3.451 2.631 1.92 1.097 5.474-.416 7.291 2.288 1.061 1.575 1.11 2.81 1.191 4.032.085 1.316.318 2.53 1.665 4.31 2.233 2.955 2.699 4.92 1.549 6.965-.784 1.397-2.435 2.171-2.816 3.057-.814 1.88.085 3.299-1.025 5.492-.774 1.522-1.965 2.525-3.554 3.035-1.338.43-2.681-.193-3.755.26-1.884.792-3.272 2.631-4.771 3.097a5.678 5.678 0 0 1-1.732.264 5.68 5.68 0 0 1-1.733-.264c-1.499-.466-2.887-2.305-4.771-3.097-1.074-.453-2.417.174-3.755-.26-1.59-.51-2.78-1.513-3.554-3.035-1.115-2.193-.215-3.612-1.025-5.492-.38-.886-2.032-1.66-2.815-3.057-1.16-2.045-.694-4.01 1.54-6.96 1.346-1.781 1.58-2.994 1.664-4.31.08-1.222.13-2.457 1.19-4.033 1.823-2.703 5.376-1.19 7.292-2.287 1.365-.779 2.471-2.01 3.451-2.632.77-.497 1.54-.837 2.511-.792ZM107.514 74.4l2.336 2.224 4.019-4.086c.399-.403.649-.725 1.137-.224l1.594 1.63c.523.518.496.818.004 1.302l-5.845 5.747c-1.039 1.02-.86 1.083-1.916.035l-4.015-3.992c-.219-.237-.197-.479.045-.716l1.848-1.916c.282-.295.506-.277.793-.004Zm3.155-8.75c5.989 0 10.845 4.856 10.845 10.844 0 5.99-4.856 10.846-10.845 10.846-5.989 0-10.845-4.857-10.845-10.846 0-5.993 4.856-10.845 10.845-10.845Zm-19.152 43.339 5.174-.926 2.564 4.592c1.862 2.305 3.044-1.486 3.563-2.806l4.991-9.413c-1.15-.398-2.538-1.549-3.961-2.842-2.842.058-5.492-.434-7.44-2.914l-5.737 11.078-.497 1.065c-.394 1.383-.188 2.296 1.343 2.166Z" fill="#029894"/></g><defs><radialGradient id="a" cx="0" cy="0" r="1" gradientUnits="userSpaceOnUse" gradientTransform="matrix(107.502 0 0 42.5488 110.479 211.686)"><stop stop-color="#7FD4F9"/><stop offset="1" stop-color="#fff"/></radialGradient><radialGradient id="b" cx="0" cy="0" r="1" gradientUnits="userSpaceOnUse" gradientTransform="rotate(-21.812 522.906 -207.49) scale(57.9042 39.9502)"><stop stop-color="#7FD4F9"/><stop offset=".43" stop-color="#81D5F9"/><stop offset=".58" stop-color="#88D7F9"/><stop offset=".69" stop-color="#93DBFA"/><stop offset=".78" stop-color="#A4E1FB"/><stop offset=".86" stop-color="#BAE8FC"/><stop offset=".92" stop-color="#D6F1FD"/><stop offset=".98" stop-color="#F5FCFF"/><stop offset="1" stop-color="#fff"/></radialGradient><radialGradient id="c" cx="0" cy="0" r="1" gradientUnits="userSpaceOnUse" gradientTransform="rotate(-21.812 522.906 -207.49) scale(57.9042 39.9502)"><stop stop-color="#80E3C8"/><stop offset=".43" stop-color="#82E3C9"/><stop offset=".58" stop-color="#89E5CC"/><stop offset=".69" stop-color="#94E8D1"/><stop offset=".78" stop-color="#A5EBD8"/><stop offset=".86" stop-color="#BBF0E2"/><stop offset=".93" stop-color="#D7F6ED"/><stop offset=".99" stop-color="#F6FDFB"/><stop offset="1" stop-color="#fff"/></radialGradient><radialGradient id="d" cx="0" cy="0" r="1" gradientUnits="userSpaceOnUse" gradientTransform="rotate(-21.812 522.906 -207.49) scale(57.9042 39.9502)"><stop stop-color="#7FD4F9"/><stop offset=".43" stop-color="#81D5F9"/><stop offset=".58" stop-color="#88D7F9"/><stop offset=".69" stop-color="#93DBFA"/><stop offset=".78" stop-color="#A4E1FB"/><stop offset=".86" stop-color="#BAE8FC"/><stop offset=".92" stop-color="#D6F1FD"/><stop offset=".98" stop-color="#F5FCFF"/><stop offset="1" stop-color="#fff"/></radialGradient><radialGradient id="e" cx="0" cy="0" r="1" gradientUnits="userSpaceOnUse" gradientTransform="matrix(67.6449 0 0 25.4004 110.406 155.209)"><stop stop-color="#7FD4F9"/><stop offset="1" stop-color="#fff"/></radialGradient><radialGradient id="f" cx="0" cy="0" r="1" gradientUnits="userSpaceOnUse" gradientTransform="matrix(35.0368 0 0 13.1562 110.407 128.067)"><stop stop-color="#7FD4F9"/><stop offset="1" stop-color="#fff"/></radialGradient><clipPath id="g"><path fill="#fff" transform="translate(90 58.38)" d="M0 0h41.335v55H0z"/></clipPath></defs></svg>