<svg width="222" height="263" fill="none" xmlns="http://www.w3.org/2000/svg"><path style="mix-blend-mode:multiply" d="M180.707 183.286c47.381 15.507 54.687 43.599 16.318 62.745s-107.887 22.101-155.272 6.594c-47.385-15.507-54.687-43.595-16.318-62.741 38.37-19.146 107.887-22.1 155.272-6.598Z" fill="url(#a)"/><path d="M108.619 219.704c-22.787 0-44.286-3.092-62.17-8.943-25.13-8.224-39.555-20.926-40.618-35.76-.523-7.308 2.098-21.308 25.51-32.997 19.176-9.569 47.385-15.055 77.388-15.055 22.791 0 44.29 3.096 62.175 8.947 25.129 8.22 39.555 20.922 40.618 35.76.523 7.308-2.098 21.308-25.514 32.993-19.173 9.569-47.381 15.055-77.389 15.055Z" fill="#001C63" style="mix-blend-mode:multiply" opacity=".2"/><path d="M168.494 143.476c40.793 13.349 47.086 37.537 14.049 54.023-33.038 16.486-92.89 19.026-133.704 5.677-40.814-13.349-47.086-37.537-14.049-54.019 33.038-16.482 92.906-19.03 133.704-5.681Z" fill="#001C63" style="mix-blend-mode:multiply"/><g style="mix-blend-mode:multiply"><path d="M156.318 149.55c32.49 10.635 37.503 29.897 11.191 43.026-26.311 13.13-73.994 15.155-106.476 4.544-32.481-10.61-37.502-29.876-11.19-43.026 26.31-13.15 73.982-15.175 106.475-4.544Z" fill="url(#b)"/><path d="M156.318 149.55c32.49 10.635 37.503 29.897 11.191 43.026-26.311 13.13-73.994 15.155-106.476 4.544-32.481-10.61-37.502-29.876-11.19-43.026 26.31-13.15 73.982-15.175 106.475-4.544Z" fill="url(#c)"/><path d="M156.318 149.55c32.49 10.635 37.503 29.897 11.191 43.026-26.311 13.13-73.994 15.155-106.476 4.544-32.481-10.61-37.502-29.876-11.19-43.026 26.31-13.15 73.982-15.175 106.475-4.544Z" fill="url(#d)"/></g><path d="M108.619 235.493c-22.787 0-44.286-3.096-62.17-8.946-25.13-8.225-39.555-20.922-40.618-35.761-.523-7.307 2.098-21.308 25.51-32.997 19.176-9.544 47.385-15.055 77.388-15.055 22.791 0 44.29 3.096 62.175 8.947 25.129 8.224 39.555 20.922 40.618 35.76.523 7.308-2.098 21.308-25.514 32.993-19.173 9.569-47.381 15.059-77.389 15.059Z" fill="#001C63" style="mix-blend-mode:multiply" opacity=".2"/><path d="M176.452 145.935h-13.427a71.561 71.561 0 0 0-11.703-4.917c-29.091-9.519-71.77-7.706-95.326 4.05-.572.286-1.116.577-1.656.867H41.023v14.744c-1.226 8.51 7.36 17.133 24.991 22.909 29.092 9.519 71.77 7.706 95.326-4.05 10.173-5.075 15.104-11.174 15.096-17.237l.016-16.366Z" fill="#E5E7EA"/><path d="M151.33 124.653c29.088 9.519 33.573 26.764 10.018 38.52-23.556 11.756-66.239 13.569-95.326 4.05-29.088-9.519-33.573-26.765-10.018-38.52 23.556-11.756 66.235-13.569 95.326-4.05Z" fill="#FDFEFF"/><path style="mix-blend-mode:multiply" d="M108.603 173.435c37.475 0 67.854-12.311 67.854-27.499 0-15.187-30.379-27.498-67.854-27.498-37.474 0-67.853 12.311-67.853 27.498 0 15.188 30.379 27.499 67.853 27.499Z" fill="url(#e)"/><path d="M176.452 118.832h-13.427a71.387 71.387 0 0 0-11.703-4.917c-29.091-9.519-71.77-7.706-95.326 4.05-.572.286-1.116.576-1.656.867H41.023v14.743c-1.226 8.511 7.36 17.134 24.991 22.91 29.092 9.519 71.77 7.705 95.326-4.05 10.173-5.075 15.104-11.175 15.096-17.237l.016-16.366Z" fill="#E5E7EA"/><path d="M151.33 97.531c29.088 9.519 33.573 26.765 10.018 38.52-23.556 11.756-66.239 13.565-95.326 4.046-29.088-9.519-33.573-26.764-10.018-38.516 23.556-11.751 66.235-13.552 95.326-4.05Z" fill="#FDFEFF"/><path style="mix-blend-mode:multiply" opacity=".25" d="M108.602 133.077c19.409 0 35.143-6.378 35.143-14.246 0-7.867-15.734-14.245-35.143-14.245s-35.143 6.378-35.143 14.245c0 7.868 15.734 14.246 35.143 14.246Z" fill="url(#f)"/><path d="M106.5 23.522c0 5.049-1.156 8.862-3.467 11.44-2.312 2.579-5.425 3.866-9.34 3.864-3.943 0-7.078-1.288-9.403-3.864-2.326-2.575-3.481-6.388-3.468-11.44v-7.859c0-5.051 1.147-8.865 3.44-11.44C86.553 1.647 89.674.359 93.623.359c3.928 0 7.054 1.292 9.376 3.876 2.322 2.584 3.482 6.393 3.48 11.428l.02 7.86Zm-8.53-8.448c0-2.858-.37-4.912-1.111-6.162a3.578 3.578 0 0 0-1.347-1.398 3.508 3.508 0 0 0-1.867-.478c-.653-.024-1.3.14-1.866.471a3.513 3.513 0 0 0-1.336 1.405c-.714 1.25-1.072 3.304-1.075 6.162v8.988c0 2.907.363 4.982 1.088 6.224.315.586.785 1.07 1.357 1.4.572.329 1.224.49 1.88.463.65.023 1.294-.14 1.858-.47a3.514 3.514 0 0 0 1.332-1.393c.728-1.242 1.09-3.317 1.088-6.224v-8.988ZM133.471 23.725h3.721v6.677h-3.721v7.884h-8.55v-7.884h-14.274l-.502-5.3L124.921.978V.898h8.55v22.827Zm-15.689 0h7.139V12.173l-.155-.054-.658 1.058-6.326 10.548Z" fill="#001C63"/><g clip-path="url(#g)"><path d="m112.273 100.504 6.236 6.236a2.805 2.805 0 0 1 2.72 2.805 2.806 2.806 0 1 1-5.567-.504l-5.426-5.421v3.988h-3.884v-3.88l-5.51 5.515c.009.099.014.203.014.307a2.803 2.803 0 0 1-2.81 2.804 2.805 2.805 0 1 1 .137-5.604l6.237-6.237-24.922-.009v-39.61c0-.41.34-.74.759-.74h26.095V57.35h3.884v2.804h26.426c.419 0 .759.335.759.74V100.5h-25.148v.005Zm-20.1-13.595 10.964-10.719c2.716 2.716 5.402 5.402 8.146 8.113l7.264-7.354-3.371-3.37 9.484-.085v9.564l-3.238-3.238c-3.375 3.418-6.736 6.826-10.12 10.215l-8.221-8.117-8.032 7.867-2.876-2.876Zm40.963-19.316H83.703v28.584h49.433V67.593Z" fill="#001C63"/></g><defs><radialGradient id="a" cx="0" cy="0" r="1" gradientUnits="userSpaceOnUse" gradientTransform="matrix(107.502 0 0 42.5488 111.23 204.894)"><stop stop-color="#5A9BFB"/><stop offset="1" stop-color="#fff"/></radialGradient><radialGradient id="b" cx="0" cy="0" r="1" gradientUnits="userSpaceOnUse" gradientTransform="rotate(-21.812 504.775 -208.748) scale(57.9042 39.9502)"><stop stop-color="#7FD4F9"/><stop offset=".43" stop-color="#81D5F9"/><stop offset=".58" stop-color="#88D7F9"/><stop offset=".69" stop-color="#93DBFA"/><stop offset=".78" stop-color="#A4E1FB"/><stop offset=".86" stop-color="#BAE8FC"/><stop offset=".92" stop-color="#D6F1FD"/><stop offset=".98" stop-color="#F5FCFF"/><stop offset="1" stop-color="#fff"/></radialGradient><radialGradient id="c" cx="0" cy="0" r="1" gradientUnits="userSpaceOnUse" gradientTransform="rotate(-21.812 504.775 -208.748) scale(57.9042 39.9502)"><stop stop-color="#80E3C8"/><stop offset=".43" stop-color="#82E3C9"/><stop offset=".58" stop-color="#89E5CC"/><stop offset=".69" stop-color="#94E8D1"/><stop offset=".78" stop-color="#A5EBD8"/><stop offset=".86" stop-color="#BBF0E2"/><stop offset=".93" stop-color="#D7F6ED"/><stop offset=".99" stop-color="#F6FDFB"/><stop offset="1" stop-color="#fff"/></radialGradient><radialGradient id="d" cx="0" cy="0" r="1" gradientUnits="userSpaceOnUse" gradientTransform="rotate(-21.812 504.775 -208.748) scale(57.9042 39.9502)"><stop stop-color="#5A9BFB"/><stop offset=".41" stop-color="#5C9CFB"/><stop offset=".55" stop-color="#63A0FB"/><stop offset=".66" stop-color="#6EA7FB"/><stop offset=".74" stop-color="#7FB2FC"/><stop offset=".81" stop-color="#95BFFC"/><stop offset=".88" stop-color="#B1CFFD"/><stop offset=".94" stop-color="#D1E3FE"/><stop offset=".99" stop-color="#F5F9FF"/><stop offset="1" stop-color="#fff"/></radialGradient><radialGradient id="e" cx="0" cy="0" r="1" gradientUnits="userSpaceOnUse" gradientTransform="matrix(67.6449 0 0 25.4005 108.603 149.391)"><stop stop-color="#5A9BFB"/><stop offset="1" stop-color="#fff"/></radialGradient><radialGradient id="f" cx="0" cy="0" r="1" gradientUnits="userSpaceOnUse" gradientTransform="matrix(35.0369 0 0 13.1562 108.602 122.249)"><stop stop-color="#5A9BFB"/><stop offset="1" stop-color="#fff"/></radialGradient><clipPath id="g"><path fill="#fff" transform="translate(79.498 57.35)" d="M0 0h57.922v55H0z"/></clipPath></defs></svg>