<svg width="39" height="47" viewBox="0 0 39 47" fill="none" xmlns="http://www.w3.org/2000/svg">
<path d="M24.4943 37.371H3.06071V6.62999H24.4884V8.9297H27.3685V6.00222C27.3704 3.24458 25.1062 0.986328 22.3505 0.986328H5.20247C2.44282 0.986328 0.18457 3.24458 0.18457 6.00222V41.9684C0.18457 44.7301 2.44282 46.9863 5.20247 46.9863H22.3505C25.1062 46.9863 27.3704 44.7301 27.3704 41.9684V37.3177H24.4943V37.371ZM13.7735 44.4754C12.5022 44.4754 11.4758 43.447 11.4758 42.1777C11.4758 40.9045 12.5023 39.878 13.7735 39.878C15.0467 39.878 16.0752 40.9064 16.0752 42.1777C16.0752 43.447 15.0468 44.4754 13.7735 44.4754Z" fill="#029894"/>
<path d="M11.9459 9.71484H5.5166V13.6352H11.9459V9.71484Z" fill="#029894"/>
<path d="M11.9459 19.7539H5.5166V23.6743H11.9459V19.7539Z" fill="#029894"/>
<path d="M11.9459 30.2578H5.5166V34.1762H11.9459V30.2578Z" fill="#029894"/>
<path d="M34.7651 21.4771C34.5381 20.2888 34.0781 19.1892 33.4268 18.2279L35.7324 15.9203L33.3774 13.5732L31.0757 15.8768C30.1183 15.2215 29.0129 14.7674 27.8285 14.5385V11.2715H24.4964V14.5385C23.3101 14.7674 22.2145 15.2234 21.2473 15.8768L18.9496 13.5732L16.5946 15.9222L18.8963 18.2298C18.2469 19.1912 17.7889 20.2907 17.5619 21.477H14.2988V24.8072H17.5618C17.7888 25.9896 18.2488 27.0891 18.8982 28.0544L16.5945 30.358L18.9495 32.7031L21.2531 30.4014C22.2165 31.0567 23.3159 31.5128 24.5023 31.7437V35.0048H27.8343V31.7418C29.0187 31.5148 30.1163 31.0548 31.0816 30.4034L33.3833 32.7052L35.7383 30.358L33.4326 28.0544C34.084 27.0931 34.542 25.9916 34.771 24.8053H38.036V21.4771H34.7651ZM26.1664 26.7655C24.1629 26.7655 22.5362 25.1468 22.5362 23.1412C22.5362 21.1376 24.1628 19.5091 26.1664 19.5091C28.172 19.5091 29.7907 21.1356 29.7907 23.1412C29.7907 25.1487 28.168 26.7655 26.1664 26.7655Z" fill="#029894"/>
</svg>
