<svg width="47" height="51" viewBox="0 0 47 51" fill="none" xmlns="http://www.w3.org/2000/svg">
<g clip-path="url(#clip0_110_54077)">
<path d="M46.7697 38.3882L42.6139 32.8205V9.40489C42.6139 8.27222 41.7516 7.35352 40.6883 7.35352H6.50915C5.44597 7.35352 4.58455 8.27212 4.58455 9.40489V32.8205L0.42794 38.3882C0.319088 38.5334 0.260742 38.7131 0.260742 38.8996V41.3639C0.260742 42.2683 0.94804 43.0004 1.79606 43.0004H45.4015C46.2495 43.0004 46.9376 42.2683 46.9376 41.3639V38.8996C46.9376 38.7131 46.8784 38.5334 46.7697 38.3882ZM7.30046 10.2479H39.8971V29.9261H7.30046V10.2479ZM27.986 41.0542H19.2124V38.5797H27.986V41.0542Z" fill="#029894"/>
<path d="M15.529 24.1387H12.3008V27.5779H15.529V24.1387Z" fill="#029894"/>
<path d="M20.3708 20.6992H17.1426V27.5777H20.3708V20.6992Z" fill="#029894"/>
<path d="M25.2135 18.9803H21.9854V27.5784H25.2135V18.9803Z" fill="#029894"/>
<path d="M30.0553 13.8223H26.8271V27.5792H30.0553V13.8223Z" fill="#029894"/>
<path d="M34.8981 17.2617H31.6699V27.5794H34.8981V17.2617Z" fill="#029894"/>
</g>
<defs>
<clipPath id="clip0_110_54077">
<rect width="46.6768" height="49.728" fill="white" transform="translate(0.260742 0.3125)"/>
</clipPath>
</defs>
</svg>
