<svg width="44" height="44" viewBox="0 0 44 44" fill="none" xmlns="http://www.w3.org/2000/svg">
<path d="M32.9545 31.2995L40.3685 29.8217L21.795 18.2492L21.3569 18.5544L25.4921 40.0386L29.5285 33.6517L33.4429 39.3544C34.1863 40.4282 35.5509 40.7747 36.4972 40.1265C37.4381 39.4765 37.6069 38.076 36.8689 37.0004L32.9545 31.2995ZM22.1631 36.785C19.1842 36.785 16.4082 35.9303 14.0399 34.4741C16.1712 34.4956 12.4544 31.2312 15.0149 30.7303C17.7011 30.2024 18.8323 27.1301 17.9722 27.1768C17.1139 27.2217 15.4799 26.7333 14.3307 25.2897C13.1798 23.8352 12.1725 24.1674 10.9856 24.3955C9.94773 24.6002 8.66928 27.6024 8.35146 28.3906C7.54345 26.8428 6.99579 25.1424 6.748 23.3451C8.06596 22.6555 10.2171 21.4956 10.9946 20.8546C12.1401 19.9047 10.6121 19.5205 10.4236 18.9477C10.2368 18.3749 10.4236 17.0408 10.4236 15.7156C10.4236 14.3779 13.0918 14.3779 14.0381 13.0474C14.7186 12.0975 13.4725 10.0021 12.695 8.86728C15.3219 6.84545 18.6006 5.62984 22.1631 5.62984C23.1075 5.62984 24.0287 5.7286 24.9283 5.8902C25.1922 7.53136 25.7417 9.78841 26.8029 10.3774C28.5212 11.329 30.6005 13.4245 31.369 13.8015C32.1339 14.1822 33.0802 17.425 32.8935 18.7573C32.7588 19.6982 31.5917 20.7343 31.114 21.7308L39.0505 26.6759C39.6107 24.9521 39.9196 23.1188 39.9196 21.2101C39.9196 11.4206 31.9508 3.45898 22.1649 3.45898C12.3736 3.45898 4.41016 11.4206 4.41016 21.2101C4.41016 31.0014 12.3736 38.9666 22.1649 38.9666C22.5366 38.9666 22.8993 38.9325 23.2656 38.9109L22.8508 36.7491C22.6209 36.7599 22.3947 36.785 22.1631 36.785ZM37.5494 23.5084C37.2136 22.1761 36.5636 20.8905 35.181 19.8975C34.2348 19.2296 33.4627 16.2812 34.0373 15.326C34.3802 14.7568 35.2726 14.2558 35.9298 13.9434C37.0808 16.1142 37.7379 18.585 37.7379 21.2101C37.7379 21.993 37.6607 22.7561 37.5494 23.5084ZM29.5214 37.3506C29.5591 37.3309 29.5986 37.3129 29.6363 37.2949C29.6219 37.2733 29.6076 37.2554 29.595 37.2339C29.5734 37.268 29.5447 37.3147 29.5214 37.3506Z" fill="#029894"/>
</svg>
