<svg width="48" height="44" viewBox="0 0 48 44" fill="none" xmlns="http://www.w3.org/2000/svg">
<g clip-path="url(#clip0_110_54179)">
<path fill-rule="evenodd" clip-rule="evenodd" d="M11.5021 43.2614C13.7824 43.2614 15.6365 41.603 15.6365 39.5607C15.6365 38.8313 15.3985 38.1519 14.9878 37.576H15.0991C13.2833 35.5914 13.4753 33.9675 15.3985 33.3994H21.7595C22.4773 33.3994 23.0647 32.8121 23.0647 32.0942V26.4473C23.51 22.5931 25.1569 23.7371 27.0955 24.9309C31.7788 27.8139 34.8921 20.9846 31.107 18.6468C28.1358 16.8118 26.8498 19.9673 24.6732 19.641C23.8325 19.5143 23.249 18.6045 23.0647 17.2226V11.6409C23.0647 10.923 22.4773 10.3357 21.7595 10.3357H16.1893C13.5521 10.0017 13.053 8.22817 15.0953 5.99781H14.9839C15.3947 5.42199 15.6327 4.74251 15.6327 4.01313C15.6365 1.97088 13.7862 0.3125 11.5021 0.3125C9.22185 0.3125 7.37154 1.97088 7.37154 4.01313C7.37154 4.74251 7.60954 5.42199 8.0203 5.99781H7.99343C10.0357 8.22817 9.54048 10.0056 6.89936 10.3357H1.30618C0.588318 10.3357 0.000976562 10.923 0.000976562 11.6409V17.4606C0.419409 19.856 2.14688 20.2476 4.29663 18.2782V18.3051C4.87246 17.8944 5.55193 17.6563 6.28131 17.6563C8.32357 17.6563 9.98194 19.5067 9.98194 21.7869C9.98194 24.0672 8.32357 25.9175 6.28131 25.9175C5.55193 25.9175 4.87246 25.6795 4.29663 25.2688V25.3801C2.14688 23.4108 0.419409 23.8062 0.000976562 26.2016V32.098C0.000976562 32.8159 0.588318 33.4032 1.30618 33.4032H7.69016C9.61342 33.9714 9.80919 35.5952 7.98959 37.5799H8.01646C7.60954 38.1557 7.3677 38.8352 7.3677 39.5646C7.37154 41.6068 9.22185 43.2652 11.5021 43.2614ZM35.6714 43.4725H35.6637C33.3835 43.4725 31.5293 41.8141 31.5293 39.7719C31.5293 39.0425 31.7673 38.363 32.1781 37.7872H32.1512C33.967 35.8025 33.775 34.1787 31.8518 33.6105H25.4678C24.7499 33.6105 24.1626 33.0232 24.1626 32.3053V26.4204C24.4697 25.5298 24.8613 25.215 25.3219 25.2035C25.5331 25.1997 25.7557 25.2572 25.9937 25.357C26.6617 25.6334 27.4448 26.2131 28.297 26.5432C31.5831 27.8101 34.4046 24.6123 34.2165 21.3263C34.1743 20.5931 33.8787 19.8714 33.4411 19.2034C31.7635 16.6391 29.2798 16.3972 26.8843 17.8598C25.6636 18.6084 24.6924 19.1727 24.1357 17.4107L24.1664 11.8482C24.1703 11.1303 24.7538 10.543 25.4716 10.543H31.061C33.6983 10.209 34.1973 8.43547 32.155 6.20511H32.1819C31.7712 5.62928 31.5332 4.94981 31.5332 4.22043C31.5332 2.17817 33.3835 0.519797 35.6676 0.519797H35.6753C37.9555 0.519797 39.8097 2.17817 39.8097 4.22043C39.8097 4.94981 39.5717 5.62928 39.1609 6.20511H39.1878C37.1455 8.43547 37.6407 10.2129 40.2819 10.543H45.8712C46.5891 10.543 47.1764 11.1303 47.1764 11.8482V17.6679C46.758 20.0633 45.0305 20.4549 42.8807 18.4855V18.5124C42.3049 18.1017 41.6254 17.8636 40.8961 17.8636C38.8538 17.8636 37.1954 19.714 37.1954 21.9942C37.1954 24.2745 38.8538 26.1287 40.8961 26.1287C41.6254 26.1287 42.3049 25.8906 42.8807 25.4799V25.5912C45.0343 23.6219 46.758 24.0173 47.1764 26.4127V32.2977C47.1764 33.0155 46.5891 33.6029 45.8712 33.6029H39.4872C37.564 34.171 37.372 35.7948 39.1878 37.7795H39.1571C39.5678 38.3553 39.8058 39.0348 39.8058 39.7642C39.802 41.8141 37.9517 43.4725 35.6714 43.4725Z" fill="#029894"/>
</g>
<defs>
<clipPath id="clip0_110_54179">
<rect width="47.1716" height="43.16" fill="white" transform="translate(0.000976562 0.3125)"/>
</clipPath>
</defs>
</svg>
