<svg width="26" height="44" viewBox="0 0 26 44" fill="none" xmlns="http://www.w3.org/2000/svg">
<g clip-path="url(#clip0_110_54153)">
<path fill-rule="evenodd" clip-rule="evenodd" d="M5.03512 0.742188H21.2377C22.467 0.742188 23.5945 1.24797 24.3988 2.0523C25.2137 2.86717 25.7054 3.98059 25.7054 5.21343V39.4345C25.7054 40.6638 25.1996 41.7913 24.3988 42.5956C23.5839 43.4105 22.4705 43.9057 21.2377 43.9057H5.03512C3.80579 43.9057 2.67832 43.3999 1.87398 42.5956C1.05911 41.7807 0.567383 40.6673 0.567383 39.4345V5.21343C0.567383 3.9841 1.07316 2.85663 1.8775 2.0523C2.69237 1.23392 3.80579 0.742188 5.03512 0.742188ZM15.639 27.2887H15.6987C16.1518 27.2887 16.5276 27.6645 16.5276 28.1176V33.4388H17.065V31.2085C17.065 30.787 17.4127 30.4393 17.8342 30.4393H17.8939C18.347 30.4393 18.7228 30.8151 18.7228 31.2682V33.495L18.7509 33.4845H19.3305V31.7915C19.3305 31.3701 19.6782 31.0223 20.0997 31.0223H20.1559C20.609 31.0223 20.9848 31.3982 20.9848 31.8512V33.4002H20.9883L21.5643 33.3932V32.2973C21.5643 31.8758 21.9121 31.5281 22.3335 31.5281H22.3932C22.8463 31.5281 23.2222 31.9039 23.2222 32.357V34.6787C23.2222 34.7033 23.2222 34.7349 23.2151 34.763L23.2432 34.7841C23.2678 35.4514 23.2573 36.2487 23.1344 37.0179H24.4339V7.67209H1.83535V37.0109H14.2902L11.5716 32.7048C11.403 32.3079 11.4241 32.0409 11.5927 31.8653C12.3198 31.3911 13.514 32.3992 14.8311 33.8217L14.8803 33.8111V28.0474C14.8803 27.6259 15.228 27.2781 15.6495 27.2781L15.639 27.2887ZM16.1377 25.0653C16.1377 25.2937 15.9516 25.4728 15.7303 25.4728C15.502 25.4728 15.3228 25.2866 15.3228 25.0653V23.4251C15.3228 23.1968 15.509 23.0176 15.7303 23.0176C15.9586 23.0176 16.1377 23.2038 16.1377 23.4251V25.0653ZM12.4357 28.4267C12.664 28.4267 12.8431 28.6128 12.8431 28.8341C12.8431 29.0624 12.657 29.2416 12.4357 29.2416H10.7954C10.5671 29.2416 10.388 29.0554 10.388 28.8341C10.388 28.6058 10.5741 28.4267 10.7954 28.4267H12.4357ZM13.5983 25.9961C13.7563 26.1542 13.7563 26.4141 13.5983 26.5722C13.4402 26.7302 13.1803 26.7302 13.0222 26.5722L11.8667 25.4131C11.7086 25.255 11.7086 24.9951 11.8667 24.837C12.0247 24.679 12.2846 24.679 12.4427 24.837L13.5983 25.9961ZM18.9441 29.238C18.7158 29.238 18.5367 29.0519 18.5367 28.8306C18.5367 28.6023 18.7228 28.4232 18.9441 28.4232H20.5844C20.8127 28.4232 20.9918 28.6093 20.9918 28.8306C20.9918 29.0589 20.8057 29.238 20.5844 29.238H18.9441ZM18.361 26.4808C18.203 26.6389 17.9431 26.6389 17.785 26.4808C17.627 26.3228 17.627 26.0629 17.785 25.9048L18.9406 24.7457C19.0986 24.5877 19.3586 24.5877 19.5166 24.7457C19.6747 24.9038 19.6747 25.1637 19.5166 25.3218L18.361 26.4808ZM4.68388 23.7517H7.1882C7.81691 23.7517 8.32972 24.2645 8.32972 24.8932V27.3976C8.32972 28.0263 7.81691 28.5391 7.1882 28.5391H4.68388C4.05517 28.5391 3.54236 28.0263 3.54236 27.3976V24.8932C3.53885 24.268 4.05517 23.7517 4.68388 23.7517ZM19.0881 16.59H21.5924C22.2211 16.59 22.7339 17.1028 22.7339 17.7315V20.2358C22.7339 20.8646 22.2211 21.3774 21.5924 21.3774H19.0881C18.4594 21.3774 17.9466 20.8646 17.9466 20.2358V17.7315C17.9466 17.1028 18.4629 16.59 19.0881 16.59ZM11.8842 16.59H14.3886C15.0173 16.59 15.5301 17.1028 15.5301 17.7315V20.2358C15.5301 20.8646 15.0173 21.3774 14.3886 21.3774H11.8842C11.2555 21.3774 10.7427 20.8646 10.7427 20.2358V17.7315C10.7427 17.1028 11.259 16.59 11.8842 16.59ZM4.68388 16.59H7.1882C7.81691 16.59 8.32972 17.1028 8.32972 17.7315V20.2358C8.32972 20.8646 7.81691 21.3774 7.1882 21.3774H4.68388C4.05517 21.3774 3.54236 20.8646 3.54236 20.2358V17.7315C3.53885 17.1028 4.05517 16.59 4.68388 16.59ZM19.0881 9.42828H21.5924C22.2211 9.42828 22.7339 9.94108 22.7339 10.5698V13.0741C22.7339 13.7028 22.2211 14.2156 21.5924 14.2156H19.0881C18.4594 14.2156 17.9466 13.7028 17.9466 13.0741V10.5698C17.9466 9.94108 18.4629 9.42828 19.0881 9.42828ZM11.8842 9.42828H14.3886C15.0173 9.42828 15.5301 9.94108 15.5301 10.5698V13.0741C15.5301 13.7028 15.0173 14.2156 14.3886 14.2156H11.8842C11.2555 14.2156 10.7427 13.7028 10.7427 13.0741V10.5698C10.7427 9.94108 11.259 9.42828 11.8842 9.42828ZM4.68388 9.42828H7.1882C7.81691 9.42828 8.32972 9.94108 8.32972 10.5698V13.0741C8.32972 13.7028 7.81691 14.2156 7.1882 14.2156H4.68388C4.05517 14.2156 3.54236 13.7028 3.54236 13.0741V10.5698C3.53885 9.94108 4.05517 9.42828 4.68388 9.42828ZM13.1311 38.4088C14.1427 38.4088 14.9716 39.2237 14.9716 40.2493C14.9716 41.2609 14.1567 42.0898 13.1311 42.0898C12.1196 42.0898 11.2906 41.2749 11.2906 40.2493C11.2942 39.2378 12.109 38.4088 13.1311 38.4088Z" fill="#029894"/>
</g>
<defs>
<clipPath id="clip0_110_54153">
<rect width="25.1415" height="43.16" fill="white" transform="translate(0.567383 0.742188)"/>
</clipPath>
</defs>
</svg>
