<svg xmlns="http://www.w3.org/2000/svg" width="221" height="246" fill="none"><path fill="url(#a)" d="M180.024 171.494c47.385 14.385 54.712 40.442 16.318 58.192-38.393 17.75-107.886 20.498-155.267 6.117-47.381-14.382-54.692-40.443-16.323-58.208 38.37-17.765 107.891-20.483 155.272-6.101Z" style="mix-blend-mode:multiply"/><path fill="#8EDBDC" d="M110.479 204.618c-22.787 0-44.286-2.872-62.15-8.299-25.13-7.626-39.555-19.409-40.618-33.175-.523-6.775 2.097-19.767 25.514-30.607 19.172-8.877 47.38-13.966 77.388-13.966 22.787 0 44.286 2.868 62.15 8.296 25.13 7.629 39.555 19.413 40.618 33.178.523 6.779-2.097 19.767-25.514 30.607-19.172 8.877-47.381 13.966-77.388 13.966Z" opacity=".2" style="mix-blend-mode:multiply"/><path fill="#029894" d="M170.354 133.904c40.794 12.384 47.087 34.822 14.049 50.112-33.037 15.29-92.889 17.654-133.703 5.27-40.814-12.384-47.09-34.822-14.053-50.116 33.037-15.294 92.909-17.654 133.707-5.266Z" style="mix-blend-mode:multiply"/><g style="mix-blend-mode:multiply"><path fill="url(#b)" d="M158.178 139.539c32.493 9.863 37.502 27.716 11.191 39.915-26.312 12.199-73.983 14.059-106.476 4.196-32.494-9.862-37.503-27.735-11.191-39.915 26.311-12.179 73.982-14.058 106.476-4.196Z"/><path fill="url(#c)" d="M158.178 139.539c32.493 9.863 37.502 27.716 11.191 39.915-26.312 12.199-73.983 14.059-106.476 4.196-32.494-9.862-37.503-27.735-11.191-39.915 26.311-12.179 73.982-14.058 106.476-4.196Z"/><path fill="url(#d)" d="M158.178 139.539c32.493 9.863 37.502 27.716 11.191 39.915-26.312 12.199-73.983 14.059-106.476 4.196-32.494-9.862-37.503-27.735-11.191-39.915 26.311-12.179 73.982-14.058 106.476-4.196Z"/></g><path fill="#8EDBDC" d="M110.479 219.261c-22.787 0-44.286-2.867-62.15-8.295-25.13-7.63-39.555-19.413-40.618-33.175-.523-6.779 2.097-19.767 25.514-30.607 19.172-8.877 47.38-13.969 77.388-13.969 22.787 0 44.286 2.871 62.15 8.299 25.13 7.626 39.555 19.409 40.618 33.175.523 6.778-2.097 19.767-25.514 30.607-19.172 8.876-47.381 13.965-77.388 13.965Z" opacity=".2" style="mix-blend-mode:multiply"/><path fill="#E6EDEB" d="M178.311 136.187h-13.423a74.026 74.026 0 0 0-11.703-4.562c-29.091-8.831-71.77-7.148-95.326 3.757-.572.262-1.112.535-1.635.805h-13.33v13.677c-1.226 7.895 7.36 15.894 24.987 21.253 29.092 8.826 71.771 7.148 95.326-3.758 10.173-4.707 15.104-10.366 15.096-15.99l.008-15.182Z"/><path fill="#FAFFFE" d="M153.19 116.442c29.087 8.831 33.573 24.829 10.017 35.735-23.555 10.905-66.238 12.584-95.326 3.753-29.087-8.83-33.573-24.829-10.017-35.734 23.555-10.906 66.234-12.584 95.326-3.754Z"/><path fill="url(#e)" d="M110.536 161.67c37.433 0 67.78-11.41 67.78-25.484 0-14.074-30.347-25.483-67.78-25.483-37.434 0-67.78 11.409-67.78 25.483s30.346 25.484 67.78 25.484Z" style="mix-blend-mode:multiply"/><path fill="#E6EDEB" d="M178.311 111.042h-13.423a73.7 73.7 0 0 0-11.703-4.562c-29.091-8.83-71.77-7.148-95.326 3.757-.572.262-1.112.535-1.635.805h-13.33v13.677c-1.226 7.895 7.36 15.89 24.987 21.249 29.092 8.83 71.771 7.152 95.326-3.753 10.173-4.712 15.104-10.371 15.096-15.991l.008-15.182Z"/><path fill="#FAFFFE" d="M153.19 91.298c29.087 8.831 33.573 24.829 10.017 35.735-23.555 10.905-66.238 12.583-95.326 3.753-29.087-8.831-33.573-24.829-10.017-35.735 23.555-10.905 66.234-12.583 95.326-3.753Z"/><path fill="url(#f)" d="M110.536 124.257c19.409 0 35.143-5.917 35.143-13.215 0-7.299-15.734-13.215-35.143-13.215-19.41 0-35.143 5.916-35.143 13.215 0 7.298 15.734 13.215 35.143 13.215Z" opacity=".25" style="mix-blend-mode:multiply"/><path fill="#029894" d="M108.43 22.231c0 4.686-1.156 8.224-3.468 10.613-2.311 2.39-5.424 3.584-9.338 3.584-3.947 0-7.082-1.194-9.405-3.584-2.322-2.389-3.478-5.927-3.467-10.613v-7.29c0-4.687 1.148-8.224 3.443-10.614C88.49 1.938 91.61.744 95.554.744c3.928 0 7.053 1.2 9.376 3.599 2.322 2.4 3.482 5.932 3.479 10.597l.021 7.291Zm-8.53-7.837c0-2.654-.37-4.56-1.112-5.717a3.441 3.441 0 0 0-1.346-1.297 3.72 3.72 0 0 0-1.867-.443 3.66 3.66 0 0 0-1.866.438 3.382 3.382 0 0 0-1.336 1.302c-.714 1.16-1.073 3.066-1.075 5.717v8.338c0 2.697.362 4.622 1.087 5.774.316.543.786.993 1.358 1.298a3.71 3.71 0 0 0 1.88.43c.65.021 1.294-.13 1.857-.435a3.38 3.38 0 0 0 1.333-1.293c.728-1.152 1.09-3.077 1.087-5.774v-8.338ZM138.649 35.928H112.89V30.69l11.857-11.721a23.536 23.536 0 0 0 3.312-4.335 7.023 7.023 0 0 0 1.063-3.31 4.574 4.574 0 0 0-1.075-3.196c-.714-.793-1.789-1.19-3.226-1.19a3.633 3.633 0 0 0-1.729.392c-.53.27-.975.666-1.293 1.149a6.551 6.551 0 0 0-1.099 3.918h-8.354l-.049-.142a10.26 10.26 0 0 1 .757-4.41 10.793 10.793 0 0 1 2.584-3.747c2.311-2.233 5.372-3.349 9.183-3.349 4.048 0 7.207.937 9.478 2.81 2.27 1.874 3.404 4.44 3.402 7.699a9.745 9.745 0 0 1-1.808 5.813c-1.204 1.68-3.427 4.181-6.668 7.502L124.24 29.6l.074.142h14.335v6.186Z"/><path fill="#029894" fill-rule="evenodd" d="M92.956 105.018V86.697h8.882c3.766.626 7.532 2.52 11.298 4.72h6.899c3.124.175 4.758 3.111 1.725 5.04-2.42 1.646-5.611 1.553-8.883 1.28-2.255-.103-2.354 2.711 0 2.72.817.059 1.706-.118 2.483-.119 4.083-.004 7.447-.728 9.505-3.72l1.035-2.241 10.264-4.72c5.136-1.57 8.785 3.415 5.002 6.88-7.434 5.017-15.058 9.146-22.855 12.48-5.663 3.196-11.326 3.087-16.989 0l-8.367-3.999Zm38.634-29.36a.653.653 0 0 0-.884.144l-.563.737a4.018 4.018 0 0 0-.63-.194 7.339 7.339 0 0 0-.651-.123l-.178-.963a.582.582 0 0 0-.254-.38.635.635 0 0 0-.474-.092l-1.304.216a.665.665 0 0 0-.409.235.533.533 0 0 0-.11.44l.166.882c-.21.083-.409.174-.596.287a4.713 4.713 0 0 0-.542.349l-.883-.564a.646.646 0 0 0-.873.144l-.751.994a.541.541 0 0 0-.11.44.568.568 0 0 0 .265.38l.795.522c-.088.185-.155.38-.211.584-.055.205-.099.4-.132.605l-1.037.164a.649.649 0 0 0-.41.236.528.528 0 0 0-.1.44l.233 1.21c.033.153.11.276.255.379a.64.64 0 0 0 .474.102l.95-.154c.088.194.188.379.309.553.11.174.243.348.376.512l-.608.81a.512.512 0 0 0-.11.43.59.59 0 0 0 .264.379l1.082.707c.145.092.31.122.476.092a.686.686 0 0 0 .42-.236l.563-.747c.198.082.409.143.63.194.22.051.431.093.651.123l.177.963a.588.588 0 0 0 .255.379.634.634 0 0 0 .474.093l1.304-.216a.662.662 0 0 0 .409-.235.534.534 0 0 0 .11-.441l-.166-.881c.21-.082.409-.174.596-.287a6.3 6.3 0 0 0 .553-.348l.872.563a.64.64 0 0 0 .475.103.624.624 0 0 0 .41-.246l.761-1.004a.532.532 0 0 0 .1-.44.618.618 0 0 0-.254-.39l-.807-.513a3.31 3.31 0 0 0 .21-.584c.056-.205.1-.4.133-.604l1.038-.165a.648.648 0 0 0 .409-.235.527.527 0 0 0 .099-.441l-.232-1.21a.604.604 0 0 0-.254-.378.641.641 0 0 0-.475-.103l-.95.154a4.611 4.611 0 0 0-.309-.553 3.682 3.682 0 0 0-.375-.502l.607-.82a.517.517 0 0 0 .111-.43.595.595 0 0 0-.266-.38l-1.07-.696-.034.01Zm-3.788 2.849a2.86 2.86 0 0 1 1.027.02c.332.073.631.195.906.37.265.173.496.4.684.665.188.266.309.564.365.882.056.317.056.635-.022.952-.078.307-.21.584-.398.84a2.572 2.572 0 0 1-.718.635 2.553 2.553 0 0 1-.949.339 2.88 2.88 0 0 1-1.027-.021 2.785 2.785 0 0 1-.906-.369 2.57 2.57 0 0 1-.685-.666 2.184 2.184 0 0 1-.365-.88 2.336 2.336 0 0 1 .023-.954c.078-.307.211-.584.397-.84a2.6 2.6 0 0 1 1.668-.973Zm-10.029-14.365a.456.456 0 0 0-.154-.103.397.397 0 0 0-.166-.03.397.397 0 0 0-.166.03.603.603 0 0 0-.144.092l-.011.01-1.248 1.158a.747.747 0 0 1-.906.072 8.318 8.318 0 0 0-.452-.246c-.177-.082-.343-.164-.498-.235a7.78 7.78 0 0 0-.519-.205c-.155-.052-.331-.113-.541-.175a.665.665 0 0 1-.486-.625v-1.772a.355.355 0 0 0-.133-.287.513.513 0 0 0-.133-.092.443.443 0 0 0-.176-.032h-2.407a.718.718 0 0 0-.166.021.585.585 0 0 0-.154.103.282.282 0 0 0-.089.123.369.369 0 0 0-.033.164v1.63c0 .327-.254.593-.585.655-.188.041-.365.082-.519.123a11.05 11.05 0 0 0-.52.164c-.165.061-.342.123-.508.205-.177.072-.331.153-.486.225a.74.74 0 0 1-.839-.113l-1.381-1.27c-.01-.01-.01-.01-.01-.02a.51.51 0 0 0-.133-.093c-.044-.02-.088-.02-.154-.02a.453.453 0 0 0-.321.133l-1.678 1.568a.41.41 0 0 0-.111.143.312.312 0 0 0-.033.154c0 .062.011.113.033.154a.523.523 0 0 0 .099.133v.01l1.248 1.158a.618.618 0 0 1 .078.84 7.016 7.016 0 0 0-.265.42c-.089.165-.177.318-.254.462a6.147 6.147 0 0 0-.221.482c-.055.143-.121.307-.188.502a.706.706 0 0 1-.674.45h-1.91a.45.45 0 0 0-.177.031.913.913 0 0 0-.133.082.28.28 0 0 0-.088.123.369.369 0 0 0-.033.164v2.234c0 .061.011.112.023.154a.527.527 0 0 0 .11.143.308.308 0 0 0 .133.082c.044.02.11.03.177.03h1.756a.71.71 0 0 1 .707.544c.044.174.088.338.133.471.055.164.11.328.176.492.067.154.133.318.221.482.089.174.166.328.244.471a.616.616 0 0 1-.133.769l-1.37 1.26-.011.01a.472.472 0 0 0-.1.124c-.022.04-.022.082-.022.143 0 .062.012.113.034.154a.34.34 0 0 0 .11.143l1.668 1.568a.488.488 0 0 0 .331.123c.066 0 .133-.01.188-.03.044-.02.099-.052.144-.082l1.237-1.168a.748.748 0 0 1 .906-.082c.143.082.286.164.452.246.177.082.342.164.497.236.166.072.342.143.519.204.155.052.332.113.542.175a.664.664 0 0 1 .486.625V81.9c0 .062.011.123.033.165a.512.512 0 0 0 .088.123.435.435 0 0 0 .321.112h2.408a.71.71 0 0 0 .165-.02.581.581 0 0 0 .154-.103.293.293 0 0 0 .089-.123.368.368 0 0 0 .034-.164v-1.63c0-.327.254-.594.585-.655.187-.041.365-.082.52-.123.176-.052.341-.103.519-.164.165-.062.342-.124.518-.205.188-.082.354-.154.509-.226a.74.74 0 0 1 .828.123l1.358 1.271.012.01a.503.503 0 0 0 .131.093c.045.02.101.02.167.02s.121-.01.166-.03a.558.558 0 0 0 .133-.092c.01-.01.022-.02.032-.02l1.679-1.538a.42.42 0 0 0 .133-.307.431.431 0 0 0-.033-.174.929.929 0 0 0-.088-.134l-1.259-1.147a.62.62 0 0 1-.089-.84c.089-.134.177-.267.265-.42.088-.165.177-.318.254-.462.078-.153.155-.317.221-.481.055-.144.122-.308.188-.503.1-.276.375-.45.674-.45h1.911a.435.435 0 0 0 .309-.113.369.369 0 0 0 .121-.298v-2.233a.544.544 0 0 0-.022-.154.545.545 0 0 0-.11-.143.311.311 0 0 0-.132-.082.456.456 0 0 0-.176-.03h-1.758c-.353 0-.651-.247-.706-.554a40.262 40.262 0 0 1-.132-.45c-.056-.154-.111-.319-.189-.492 0-.01-.01-.021-.01-.032a9.783 9.783 0 0 0-.2-.45 5.98 5.98 0 0 0-.242-.451.615.615 0 0 1 .121-.779l1.37-1.28c0-.01.011-.01.022-.01a.485.485 0 0 0 .1-.124c.022-.041.022-.082.022-.143a.32.32 0 0 0-.033-.154.417.417 0 0 0-.111-.144l-1.69-1.557.007.008Zm.398-1.322c.233.093.431.216.607.38l1.691 1.557h.01c.177.164.31.348.409.553.101.216.144.43.144.666 0 .236-.055.462-.144.667-.099.205-.232.389-.419.543l-.994.932c.011.03.034.061.044.092.089.174.166.359.243.533 0 .01.011.02.011.03.078.175.144.37.211.574l.022.072h1.214c.254 0 .497.042.718.134.22.082.419.215.596.379l.011.01a1.679 1.679 0 0 1 .541 1.21v2.233c0 .482-.176.891-.541 1.23a1.85 1.85 0 0 1-.607.379 2.065 2.065 0 0 1-.718.123h-1.415c-.01.03-.032.072-.043.102-.078.185-.167.37-.254.554-.1.194-.189.379-.288.543l-.033.061.861.79.034.03c.177.164.298.359.387.563.087.205.132.42.132.656 0 .226-.045.441-.132.646-.089.205-.21.39-.387.564l-.022.02-1.69 1.558a1.846 1.846 0 0 1-.597.39c-.22.091-.463.132-.729.132-.254 0-.496-.051-.729-.133a1.757 1.757 0 0 1-.595-.39l-.983-.921a.368.368 0 0 1-.111.04c-.188.073-.387.155-.596.226-.199.072-.409.134-.619.195-.033.01-.055.021-.088.021v1.117c0 .235-.044.46-.144.665a1.67 1.67 0 0 1-.408.554l-.012.01a1.762 1.762 0 0 1-.596.369 2.04 2.04 0 0 1-.706.133h-2.408c-.519 0-.961-.164-1.325-.502a1.702 1.702 0 0 1-.409-.564 1.682 1.682 0 0 1-.133-.666v-1.314c-.033-.01-.077-.03-.11-.041-.199-.072-.398-.154-.597-.236-.21-.092-.408-.174-.586-.266l-.066-.031-.85.8-.033.03a2.004 2.004 0 0 1-1.315.482 1.987 1.987 0 0 1-1.303-.482l-.023-.02-1.689-1.589a1.833 1.833 0 0 1-.409-.553 1.549 1.549 0 0 1-.143-.666c0-.236.055-.46.143-.666.099-.205.243-.39.42-.553l.994-.912a.294.294 0 0 1-.044-.103c-.078-.174-.166-.358-.244-.553-.077-.195-.154-.379-.209-.573l-.023-.083h-1.203c-.255 0-.498-.04-.718-.133a1.814 1.814 0 0 1-.597-.379l-.011-.01a1.674 1.674 0 0 1-.541-1.209v-2.234c0-.235.044-.45.132-.665a1.827 1.827 0 0 1 1.017-.943c.22-.083.463-.123.718-.123h1.414c.011-.031.033-.072.044-.103.077-.184.166-.369.254-.553.099-.195.188-.379.287-.543l.033-.062-.85-.798a1.612 1.612 0 0 1-.409-.564 1.583 1.583 0 0 1-.144-.666c0-.236.045-.451.144-.666.1-.215.232-.4.409-.564l1.679-1.567v-.01c.177-.164.375-.287.596-.38.232-.091.464-.133.718-.133.255 0 .498.051.718.134.221.092.42.215.586.389l1.004.922c.034-.01.067-.031.089-.04.188-.083.387-.155.596-.237.199-.072.409-.133.619-.194.033-.01.055-.021.088-.021v-1.116c0-.236.044-.461.144-.666.089-.205.232-.39.408-.554l.012-.01c.177-.164.375-.287.596-.369a2.05 2.05 0 0 1 .706-.133h2.408c.254 0 .485.041.717.123.233.082.432.215.609.379.176.164.319.359.408.564.088.205.133.43.133.666v1.311c.032.01.077.03.11.041.199.072.397.154.596.236.21.092.409.174.586.266l.066.031.862-.789c.176-.164.375-.297.607-.379.232-.092.475-.133.718-.133.255 0 .486.04.718.133v.02Zm-7.632 4.15c.364 0 .729.03 1.082.102a5.5 5.5 0 0 1 1.027.298c.321.133.63.286.917.46.287.175.553.38.795.605.243.226.464.471.652.748.198.267.365.553.497.85.011.021.011.041.022.051.133.297.232.605.298.902.067.328.111.666.111 1.004 0 .338-.034.676-.111 1.004a4.566 4.566 0 0 1-.32.953 6.058 6.058 0 0 1-.497.85 6.154 6.154 0 0 1-.652.748c-.242.226-.508.43-.807.605a4.999 4.999 0 0 1-.916.46c-.022.011-.044.011-.056.021a5.81 5.81 0 0 1-.971.277 6.345 6.345 0 0 1-1.082.103c-.365 0-.729-.031-1.083-.103a5.56 5.56 0 0 1-1.027-.297 6.869 6.869 0 0 1-.917-.461 4.925 4.925 0 0 1-.795-.605 4.387 4.387 0 0 1-.652-.748 4.53 4.53 0 0 1-.497-.85c-.011-.02-.011-.041-.022-.051a4.735 4.735 0 0 1-.298-.902 5.111 5.111 0 0 1-.111-1.004c0-.339.033-.677.111-1.004.066-.318.176-.635.32-.953.144-.297.309-.584.497-.85s.409-.512.652-.748c.243-.225.508-.43.795-.605.287-.184.596-.338.917-.46.022-.01.044-.01.055-.021a5.79 5.79 0 0 1 .972-.277 6.337 6.337 0 0 1 1.083-.102h.011Zm.806 1.393a4.139 4.139 0 0 0-.806-.072 4.217 4.217 0 0 0-1.513.267c-.011.01-.022.01-.044.02a4.28 4.28 0 0 0-.696.349 3.97 3.97 0 0 0-.585.44 3.216 3.216 0 0 0-.475.544 3.72 3.72 0 0 0-.376.645 3.437 3.437 0 0 0-.31 1.445c0 .256.023.501.078.747.056.236.122.45.21.656.011.01.011.02.022.041.11.236.232.45.376.646.143.195.298.379.475.543.176.164.375.317.585.44a4.202 4.202 0 0 0 2.253.636c.275 0 .541-.02.806-.072.254-.052.486-.113.707-.195.011-.01.022-.01.044-.02.254-.103.486-.216.696-.349.21-.133.409-.276.585-.44a3.804 3.804 0 0 0 .851-1.188 3.58 3.58 0 0 0 .232-.698c.055-.235.077-.491.077-.747s-.022-.502-.077-.748a3.971 3.971 0 0 0-.21-.656c-.011-.01-.011-.02-.022-.041a3.782 3.782 0 0 0-.851-1.19 3.38 3.38 0 0 0-.585-.44 4.241 4.241 0 0 0-1.447-.563ZM77 84.936h13.282v21.922H77V84.936Z" clip-rule="evenodd"/><defs><radialGradient id="a" cx="0" cy="0" r="1" gradientTransform="matrix(107.502 0 0 39.4718 110.547 191.533)" gradientUnits="userSpaceOnUse"><stop stop-color="#8EDBDC"/><stop offset="1" stop-color="#fff"/></radialGradient><radialGradient id="b" cx="0" cy="0" r="1" gradientTransform="matrix(53.75846 -19.9596 13.0257 35.08293 113.601 160.935)" gradientUnits="userSpaceOnUse"><stop stop-color="#8EDBDC"/><stop offset=".44" stop-color="#90DCDD"/><stop offset=".6" stop-color="#97DEDF"/><stop offset=".71" stop-color="#A2E2E2"/><stop offset=".8" stop-color="#B3E7E8"/><stop offset=".88" stop-color="#C9EEEE"/><stop offset=".95" stop-color="#E4F6F7"/><stop offset="1" stop-color="#fff"/></radialGradient><radialGradient id="c" cx="0" cy="0" r="1" gradientTransform="matrix(53.75846 -19.9596 13.0257 35.08293 113.601 160.935)" gradientUnits="userSpaceOnUse"><stop stop-color="#80E3C8"/><stop offset=".43" stop-color="#82E3C9"/><stop offset=".58" stop-color="#89E5CC"/><stop offset=".69" stop-color="#94E8D1"/><stop offset=".78" stop-color="#A5EBD8"/><stop offset=".86" stop-color="#BBF0E2"/><stop offset=".93" stop-color="#D7F6ED"/><stop offset=".99" stop-color="#F6FDFB"/><stop offset="1" stop-color="#fff"/></radialGradient><radialGradient id="d" cx="0" cy="0" r="1" gradientTransform="matrix(53.75846 -19.9596 13.0257 35.08293 113.601 160.935)" gradientUnits="userSpaceOnUse"><stop stop-color="#80E3C8"/><stop offset=".43" stop-color="#82E3C9"/><stop offset=".58" stop-color="#89E5CC"/><stop offset=".69" stop-color="#94E8D1"/><stop offset=".78" stop-color="#A5EBD8"/><stop offset=".86" stop-color="#BBF0E2"/><stop offset=".93" stop-color="#D7F6ED"/><stop offset=".99" stop-color="#F6FDFB"/><stop offset="1" stop-color="#fff"/></radialGradient><radialGradient id="e" cx="0" cy="0" r="1" gradientTransform="matrix(67.5713 0 0 23.5379 110.536 139.39)" gradientUnits="userSpaceOnUse"><stop stop-color="#8EDBDC"/><stop offset="1" stop-color="#fff"/></radialGradient><radialGradient id="f" cx="0" cy="0" r="1" gradientTransform="matrix(35.0368 0 0 12.2048 110.536 114.212)" gradientUnits="userSpaceOnUse"><stop stop-color="#8EDBDC"/><stop offset="1" stop-color="#fff"/></radialGradient></defs></svg>