<svg xmlns="http://www.w3.org/2000/svg" width="221" height="250" fill="none"><path fill="url(#a)" d="M179.956 175.6c47.385 14.381 54.691 40.442 16.318 58.203-38.373 17.762-107.887 20.502-155.268 6.121-47.38-14.382-54.691-40.446-16.322-58.208 38.37-17.761 107.891-20.502 155.272-6.116Z" style="mix-blend-mode:multiply"/><path fill="#029894" d="M110.426 209.383c-22.79 0-44.285-2.872-62.17-8.3-25.134-7.629-39.559-19.409-40.622-33.174-.52-6.779 2.098-19.767 25.514-30.607 19.172-8.877 47.381-13.97 77.389-13.97 22.786 0 44.285 2.872 62.149 8.299 25.13 7.63 39.555 19.413 40.618 33.179.524 6.775-2.093 19.767-25.51 30.607-19.156 8.873-47.36 13.966-77.368 13.966Z" opacity=".2" style="mix-blend-mode:multiply"/><path fill="#029894" d="M170.299 138.668c40.798 12.384 47.086 34.819 14.049 50.112-33.037 15.294-92.889 17.654-133.703 5.27-40.815-12.383-47.087-34.822-14.053-50.116 33.033-15.293 92.893-17.649 133.707-5.266Z" style="mix-blend-mode:multiply"/><g style="mix-blend-mode:multiply"><path fill="url(#b)" d="M158.106 144.304c32.493 9.862 37.502 27.716 11.191 39.915-26.312 12.199-73.983 14.058-106.472 4.192-32.49-9.866-37.507-27.716-11.191-39.911 26.315-12.195 73.999-14.059 106.472-4.196Z"/><path fill="url(#c)" d="M158.106 144.304c32.493 9.862 37.502 27.716 11.191 39.915-26.312 12.199-73.983 14.058-106.472 4.192-32.49-9.866-37.507-27.716-11.191-39.911 26.315-12.195 73.999-14.059 106.472-4.196Z"/><path fill="url(#d)" d="M158.106 144.304c32.493 9.862 37.502 27.716 11.191 39.915-26.312 12.199-73.983 14.058-106.472 4.192-32.49-9.866-37.507-27.716-11.191-39.911 26.315-12.195 73.999-14.059 106.472-4.196Z"/></g><path fill="#029894" d="M110.426 224.026c-22.79 0-44.285-2.868-62.17-8.299-25.134-7.626-39.559-19.409-40.622-33.175-.52-6.775 2.098-19.767 25.514-30.607 19.172-8.877 47.381-13.966 77.389-13.966 22.786 0 44.285 2.868 62.149 8.3 25.13 7.626 39.555 19.409 40.618 33.174.524 6.779-2.093 19.767-25.51 30.607-19.156 8.877-47.36 13.966-77.368 13.966Z" opacity=".2" style="mix-blend-mode:multiply"/><path fill="#E6EBED" d="M178.26 140.951h-13.42a73.963 73.963 0 0 0-11.706-4.562c-29.088-8.831-71.766-7.148-95.326 3.753-.572.266-1.112.535-1.635.809H42.855v13.673c-1.226 7.899 7.36 15.894 24.991 21.253 29.088 8.83 71.766 7.148 95.322-3.753 10.173-4.712 15.104-10.371 15.096-15.991l-.004-15.182Z"/><path fill="#FAFDFF" d="M153.134 121.207c29.092 8.831 33.577 24.829 10.018 35.731-23.56 10.901-66.239 12.587-95.322 3.757-29.084-8.831-33.578-24.829-10.022-35.735 23.556-10.905 66.238-12.584 95.326-3.753Z"/><path fill="url(#e)" d="M110.406 166.461c37.475 0 67.854-11.421 67.854-25.51 0-14.089-30.379-25.51-67.854-25.51-37.474 0-67.853 11.421-67.853 25.51 0 14.089 30.379 25.51 67.853 25.51Z" style="mix-blend-mode:multiply"/><path fill="#E6EBED" d="M178.26 115.807h-13.42a73.963 73.963 0 0 0-11.706-4.562c-29.088-8.831-71.766-7.152-95.326 3.753-.572.266-1.112.535-1.635.809H42.855v13.669c-1.226 7.899 7.36 15.894 24.991 21.253 29.088 8.83 71.766 7.148 95.322-3.757 10.173-4.708 15.104-10.367 15.096-15.987l-.004-15.178Z"/><path fill="#FAFDFF" d="M153.134 96.059c29.092 8.831 33.577 24.829 10.018 35.734-23.56 10.906-66.239 12.588-95.322 3.758-29.084-8.831-33.578-24.829-10.022-35.735 23.556-10.906 66.238-12.584 95.326-3.757Z"/><path fill="url(#f)" d="M110.406 129.022c19.409 0 35.143-5.917 35.143-13.216 0-7.298-15.734-13.215-35.143-13.215-19.41 0-35.143 5.917-35.143 13.215 0 7.299 15.734 13.216 35.143 13.216Z" opacity=".25" style="mix-blend-mode:multiply"/><path fill="#029894" d="M108.304 21.746c0 4.684-1.155 8.221-3.467 10.613-2.311 2.392-5.423 3.586-9.335 3.584-3.95 0-7.084-1.195-9.404-3.584-2.32-2.39-3.475-5.927-3.467-10.613v-7.29c0-4.687 1.147-8.223 3.443-10.61C88.369 1.459 91.489.263 95.433.258c3.933 0 7.059 1.2 9.375 3.6 2.317 2.4 3.477 5.932 3.48 10.597l.016 7.291Zm-8.525-7.837c0-2.652-.372-4.557-1.116-5.717a3.437 3.437 0 0 0-1.346-1.298 3.716 3.716 0 0 0-1.868-.442 3.648 3.648 0 0 0-1.864.437 3.37 3.37 0 0 0-1.333 1.303c-.72 1.16-1.078 3.066-1.075 5.716v8.338c0 2.698.362 4.622 1.087 5.774.33.526.8.962 1.364 1.265a3.914 3.914 0 0 0 1.85.462c.649 0 1.286-.16 1.85-.462a3.636 3.636 0 0 0 1.364-1.265c.722-1.154 1.085-3.079 1.087-5.774V13.91ZM120.526 14.762h4.023c1.535 0 2.715-.385 3.541-1.155.826-.77 1.235-1.849 1.227-3.237a3.754 3.754 0 0 0-1.113-2.764c-.744-.747-1.819-1.12-3.238-1.12a4.94 4.94 0 0 0-2.936.905 2.88 2.88 0 0 0-.939 1.02c-.22.408-.331.86-.324 1.316h-8.3l-.049-.142c-.101-2.764 1.053-5.003 3.463-6.718 2.409-1.714 5.337-2.572 8.782-2.575 3.994 0 7.19.863 9.589 2.587 2.398 1.725 3.596 4.163 3.594 7.314 0 1.57-.547 3.097-1.558 4.346a10.335 10.335 0 0 1-4.162 3.106 9.946 9.946 0 0 1 4.632 3.11 7.73 7.73 0 0 1 1.668 5.005c0 3.18-1.29 5.678-3.872 7.495-2.581 1.817-5.878 2.725-9.891 2.725-3.234.064-6.408-.832-9.073-2.56-2.586-1.709-3.839-4.183-3.757-7.421l.053-.143h8.349a3.379 3.379 0 0 0 .351 1.547c.238.485.589.913 1.027 1.252a5.095 5.095 0 0 0 3.353 1.132 5.228 5.228 0 0 0 3.594-1.19 3.962 3.962 0 0 0 1.014-1.365 3.752 3.752 0 0 0 .327-1.637c0-1.681-.469-2.908-1.406-3.68-.938-.773-2.257-1.158-3.958-1.155h-4.024l.013-5.998ZM114.273 94.144l6.236 5.785c1.508.04 2.72 1.189 2.72 2.602 0 1.438-1.254 2.602-2.805 2.602-1.551 0-2.805-1.168-2.805-2.602 0-.158.015-.315.043-.468l-5.426-5.029v3.699h-3.884v-3.598l-5.51 5.116c.009.092.014.188.014.284 0 1.439-1.254 2.602-2.809 2.602-1.551 0-2.805-1.168-2.805-2.602 0-1.439 1.258-2.602 2.805-2.602.047 0 .094 0 .136.005l6.237-5.786-24.922-.008V57.398c0-.381.34-.687.759-.687h26.095V54.11h3.884v2.602h26.426c.419 0 .759.31.759.686V94.14h-25.148v.005Zm-20.1-12.612 10.964-9.944c2.716 2.52 5.402 5.012 8.146 7.526l7.264-6.822-3.371-3.126 9.484-.079v8.873l-3.238-3.005c-3.375 3.17-6.736 6.332-10.12 9.476l-8.221-7.53-8.032 7.299-2.876-2.668Zm40.963-17.92H85.703V90.13h49.433V63.612Z"/><defs><radialGradient id="a" cx="0" cy="0" r="1" gradientTransform="matrix(107.502 0 0 39.4718 110.479 196.358)" gradientUnits="userSpaceOnUse"><stop stop-color="#7FD4F9"/><stop offset="1" stop-color="#fff"/></radialGradient><radialGradient id="b" cx="0" cy="0" r="1" gradientTransform="matrix(53.7585 -19.9595 13.02563 35.08296 114.535 166.444)" gradientUnits="userSpaceOnUse"><stop stop-color="#7FD4F9"/><stop offset=".43" stop-color="#81D5F9"/><stop offset=".58" stop-color="#88D7F9"/><stop offset=".69" stop-color="#93DBFA"/><stop offset=".78" stop-color="#A4E1FB"/><stop offset=".86" stop-color="#BAE8FC"/><stop offset=".92" stop-color="#D6F1FD"/><stop offset=".98" stop-color="#F5FCFF"/><stop offset="1" stop-color="#fff"/></radialGradient><radialGradient id="c" cx="0" cy="0" r="1" gradientTransform="matrix(53.7585 -19.9595 13.02563 35.08296 114.535 166.444)" gradientUnits="userSpaceOnUse"><stop stop-color="#80E3C8"/><stop offset=".43" stop-color="#82E3C9"/><stop offset=".58" stop-color="#89E5CC"/><stop offset=".69" stop-color="#94E8D1"/><stop offset=".78" stop-color="#A5EBD8"/><stop offset=".86" stop-color="#BBF0E2"/><stop offset=".93" stop-color="#D7F6ED"/><stop offset=".99" stop-color="#F6FDFB"/><stop offset="1" stop-color="#fff"/></radialGradient><radialGradient id="d" cx="0" cy="0" r="1" gradientTransform="matrix(53.7585 -19.9595 13.02563 35.08296 114.535 166.444)" gradientUnits="userSpaceOnUse"><stop stop-color="#7FD4F9"/><stop offset=".43" stop-color="#81D5F9"/><stop offset=".58" stop-color="#88D7F9"/><stop offset=".69" stop-color="#93DBFA"/><stop offset=".78" stop-color="#A4E1FB"/><stop offset=".86" stop-color="#BAE8FC"/><stop offset=".92" stop-color="#D6F1FD"/><stop offset=".98" stop-color="#F5FCFF"/><stop offset="1" stop-color="#fff"/></radialGradient><radialGradient id="e" cx="0" cy="0" r="1" gradientTransform="matrix(67.6449 0 0 23.5636 110.406 143.965)" gradientUnits="userSpaceOnUse"><stop stop-color="#7FD4F9"/><stop offset="1" stop-color="#fff"/></radialGradient><radialGradient id="f" cx="0" cy="0" r="1" gradientTransform="matrix(35.0368 0 0 12.2048 110.406 118.786)" gradientUnits="userSpaceOnUse"><stop stop-color="#7FD4F9"/><stop offset="1" stop-color="#fff"/></radialGradient></defs></svg>