<svg xmlns="http://www.w3.org/2000/svg" width="222" height="250" fill="none"><path fill="url(#a)" d="M180.142 175.6c47.405 14.381 54.691 40.442 16.33 58.196-38.361 17.754-107.887 20.502-155.272 6.121-47.384-14.382-54.687-40.447-16.318-58.208 38.37-17.761 107.875-20.494 155.26-6.109Z" style="mix-blend-mode:multiply"/><path fill="#029894" d="M110.607 209.383c-22.786 0-44.285-2.872-62.15-8.3-25.129-7.629-39.554-19.409-40.617-33.174-.524-6.779 2.097-19.767 25.514-30.607 19.172-8.877 47.38-13.966 77.388-13.966 22.787 0 44.286 2.868 62.17 8.296 25.13 7.629 39.555 19.412 40.618 33.178.524 6.775-2.097 19.763-25.514 30.603-19.192 8.877-47.401 13.97-77.409 13.97Z" opacity=".2" style="mix-blend-mode:multiply"/><path fill="#029894" d="M170.484 138.669c40.794 12.383 47.086 34.818 14.049 50.112-33.038 15.294-92.89 17.653-133.703 5.27-40.815-12.384-47.087-34.822-14.05-50.116 33.038-15.294 92.906-17.65 133.704-5.266Z" style="mix-blend-mode:multiply"/><g style="mix-blend-mode:multiply"><path fill="url(#b)" d="M158.308 144.304c32.493 9.862 37.502 27.716 11.191 39.915-26.312 12.199-73.983 14.058-106.476 4.192-32.494-9.866-37.503-27.716-11.192-39.911 26.312-12.195 73.983-14.059 106.477-4.196Z"/><path fill="url(#c)" d="M158.308 144.304c32.493 9.862 37.502 27.716 11.191 39.915-26.312 12.199-73.983 14.058-106.476 4.192-32.494-9.866-37.503-27.716-11.192-39.911 26.312-12.195 73.983-14.059 106.477-4.196Z"/><path fill="url(#d)" d="M158.308 144.304c32.493 9.862 37.502 27.716 11.191 39.915-26.312 12.199-73.983 14.058-106.476 4.192-32.494-9.866-37.503-27.716-11.192-39.911 26.312-12.195 73.983-14.059 106.477-4.196Z"/></g><path fill="#029894" d="M110.607 224.026c-22.786 0-44.285-2.868-62.15-8.299-25.129-7.626-39.554-19.409-40.617-33.175-.524-6.779 2.097-19.767 25.514-30.607 19.172-8.877 47.38-13.966 77.388-13.966 22.787 0 44.286 2.868 62.17 8.3 25.13 7.626 39.555 19.409 40.618 33.174.524 6.776-2.097 19.767-25.514 30.607-19.192 8.873-47.401 13.966-77.409 13.966Z" opacity=".2" style="mix-blend-mode:multiply"/><path fill="#E6EFEC" d="M178.445 140.951h-13.423a73.77 73.77 0 0 0-11.703-4.546c-29.091-8.831-71.77-7.149-95.326 3.753-.572.266-1.112.535-1.635.808H43.024v13.674c-1.226 7.899 7.36 15.894 24.987 21.253 29.092 8.83 71.77 7.148 95.326-3.754 10.173-4.711 15.104-10.37 15.096-15.99l.012-15.198Z"/><path fill="#F8FFFD" d="M153.319 121.207c29.087 8.831 33.573 24.829 10.017 35.731-23.555 10.901-66.238 12.587-95.326 3.757-29.088-8.831-33.573-24.829-10.017-35.735 23.555-10.905 66.234-12.584 95.326-3.753Z"/><path fill="url(#e)" d="M110.592 166.461c37.474 0 67.853-11.421 67.853-25.51 0-14.089-30.379-25.51-67.853-25.51-37.475 0-67.854 11.421-67.854 25.51 0 14.089 30.38 25.51 67.854 25.51Z" style="mix-blend-mode:multiply"/><path fill="#E6EFEC" d="M178.445 115.807h-13.423a73.738 73.738 0 0 0-11.703-4.562c-29.091-8.831-71.77-7.152-95.326 3.753a38.4 38.4 0 0 0-1.635.809H43.024v13.669c-1.226 7.899 7.36 15.894 24.987 21.253 29.092 8.83 71.77 7.148 95.326-3.757 10.173-4.708 15.104-10.367 15.096-15.987l.012-15.178Z"/><path fill="#F8FFFD" d="M153.319 96.059c29.087 8.831 33.573 24.829 10.017 35.734-23.555 10.906-66.238 12.588-95.326 3.758-29.088-8.831-33.573-24.829-10.017-35.735 23.555-10.906 66.234-12.584 95.326-3.757Z"/><path fill="url(#f)" d="M110.591 129.022c19.409 0 35.143-5.917 35.143-13.216 0-7.298-15.734-13.215-35.143-13.215s-35.143 5.917-35.143 13.215c0 7.299 15.734 13.216 35.143 13.216Z" opacity=".25" style="mix-blend-mode:multiply"/><path fill="#029894" d="M108.489 21.746c0 4.684-1.156 8.221-3.467 10.613-2.312 2.392-5.423 3.584-9.335 3.576-3.95 0-7.084-1.195-9.404-3.584-2.32-2.39-3.476-5.927-3.468-10.613v-7.283c0-4.686 1.148-8.224 3.443-10.613 2.295-2.39 5.415-3.584 9.36-3.584 3.93 0 7.055 1.2 9.375 3.6 2.32 2.4 3.48 5.932 3.48 10.597l.016 7.291Zm-8.513-7.837c0-2.652-.37-4.557-1.112-5.717a3.438 3.438 0 0 0-1.346-1.298 3.716 3.716 0 0 0-1.868-.442 3.66 3.66 0 0 0-1.866.438 3.382 3.382 0 0 0-1.335 1.302c-.715 1.16-1.073 3.066-1.076 5.716v8.338c0 2.698.364 4.622 1.092 5.774.315.544.785.995 1.357 1.3a3.701 3.701 0 0 0 1.881.429c.65.02 1.292-.13 1.855-.436a3.376 3.376 0 0 0 1.33-1.293c.728-1.152 1.09-3.076 1.088-5.774V13.91ZM131.051 35.442h-8.521V8.834h-8.222v-5.67L131.072.735l-.021 34.707Z"/><path fill="#029894" fill-rule="evenodd" d="M102.643 54.11h33.561c.64 0 1.222.245 1.647.635v.004c.421.395.685.935.685 1.528V86.09c0 .598-.264 1.138-.685 1.533a2.417 2.417 0 0 1-1.652.635h-11.776a20.124 20.124 0 0 0-.121-1.96h11.906a.238.238 0 0 0 .157-.062.206.206 0 0 0 .067-.146V61.883a1.33 1.33 0 0 1-.224.017h-33.565c-.076 0-.152-.009-.223-.017v6.212c-.712 0-1.419.033-2.113.095V56.277c0-.598.264-1.141.685-1.532a2.435 2.435 0 0 1 1.651-.635Zm13.674 41.647c.058-.096.117-.2.179-.303l.005-.004c.071-.125.139-.25.206-.37.076-.137.147-.278.219-.424.076-.149.143-.29.21-.431l.027-.046a15.127 15.127 0 0 0 .524-1.329v-.004a12.903 12.903 0 0 0 .483-1.947c.032-.183.059-.37.085-.56v-.005c.023-.166.041-.336.059-.51.013-.138.022-.275.031-.408h-4.4a12.373 12.373 0 0 1-.618 3.26 15.74 15.74 0 0 1-1.405 3.085l4.395-.004Zm-1.334 1.885h-4.314c-.363.482-.757.963-1.173 1.437a30.525 30.525 0 0 1-2.86 2.831c-.421.37-.859.74-1.312 1.105l.363-.062c.251-.046.501-.1.756-.162a14.244 14.244 0 0 0 1.491-.428c.246-.083.488-.174.725-.27.246-.1.488-.199.721-.303.232-.104.465-.216.698-.332.228-.116.456-.233.671-.357.22-.125.439-.249.645-.382.21-.133.421-.266.622-.407a15.325 15.325 0 0 0 1.168-.893c.188-.158.372-.32.551-.49.138-.133.277-.261.411-.394.135-.133.265-.266.39-.403.103-.108.201-.22.3-.332l.147-.158Zm-15.401 5.373a36.568 36.568 0 0 1-2.775-2.462c-.497-.49-.963-.98-1.397-1.474-.42-.478-.81-.955-1.172-1.437h-4.306l.143.166c.099.112.201.224.3.332.255.27.524.536.801.793l.005.009a14.757 14.757 0 0 0 1.123.942c.192.15.394.291.595.432a15.09 15.09 0 0 0 1.271.789 15.819 15.819 0 0 0 1.365.685c.233.104.475.203.721.303.023.008.032.017.054.029.237.092.47.175.707.258.237.079.48.157.725.228h.005a15.873 15.873 0 0 0 1.5.349l.335.058Zm-11.006-7.25h4.395c-.287-.49-.542-.976-.77-1.466a14.475 14.475 0 0 1-.64-1.631 13.317 13.317 0 0 1-.425-1.674 11.725 11.725 0 0 1-.188-1.573h-4.395c.008.132.022.27.03.406.019.175.037.35.059.515a15.436 15.436 0 0 0 .193 1.117l.004.017c.05.232.107.465.17.702.063.236.134.469.21.697.077.228.162.457.251.685.09.229.188.453.291.673l.005.008c.062.137.13.278.2.42l.005.004c.067.133.14.27.21.41.072.134.14.258.211.383.063.1.12.203.184.307Zm-2.023-8.221h4.44c.049-.52.134-1.038.25-1.561a14.67 14.67 0 0 1 .484-1.67l.004-.008c.193-.544.425-1.088.69-1.628.241-.494.51-.988.81-1.482h-4.655c-.063.104-.126.212-.184.311-.072.12-.139.25-.21.382l-.005.004c-.076.138-.143.275-.215.412a9.068 9.068 0 0 0-.201.423l-.013.025-.018.025c-.099.216-.188.436-.278.656-.085.224-.17.448-.246.673a12.546 12.546 0 0 0-.38 1.4c-.04.19-.077.377-.108.555-.031.183-.063.37-.085.56-.022.171-.04.341-.058.516-.005.137-.018.274-.023.407Zm3.36-8.222h4.589c.362-.477.747-.95 1.159-1.428.425-.49.882-.98 1.36-1.474a41.851 41.851 0 0 1 2.721-2.512l-.187.029-.322.058c-.25.046-.506.1-.761.162a15.523 15.523 0 0 0-1.495.428 13.52 13.52 0 0 0-.725.27 18.883 18.883 0 0 0-2.09.992 16.898 16.898 0 0 0-1.262.785c-.207.14-.404.282-.596.432-.192.145-.385.299-.573.46-.183.158-.367.32-.55.49l-.01.005a16.657 16.657 0 0 0-.792.788c-.103.108-.206.22-.304.337l-.161.178Zm15.255-5.398c.447.378.877.756 1.289 1.134.501.457.971.913 1.419 1.366a29.486 29.486 0 0 1 2.515 2.902h4.579l-.143-.17a16.143 16.143 0 0 0-1.101-1.13 12.17 12.17 0 0 0-.555-.49 11.568 11.568 0 0 0-.573-.456 15.672 15.672 0 0 0-1.862-1.22 15.942 15.942 0 0 0-1.365-.686 19.905 19.905 0 0 0-.725-.303c-.023-.008-.032-.016-.054-.029a18.808 18.808 0 0 0-.707-.257 18.663 18.663 0 0 0-.725-.229h-.005c-.242-.07-.492-.133-.738-.195a14.628 14.628 0 0 0-.761-.158l-.323-.058-.165-.02Zm11.149 7.271h-4.646c.3.494.569.988.806 1.478.264.544.497 1.092.689 1.636.197.556.363 1.113.484 1.67.116.522.201 1.041.25 1.56h4.436c-.009-.132-.022-.27-.031-.406a16.47 16.47 0 0 0-.144-1.076 16.516 16.516 0 0 0-.107-.556l-.005-.017a10.587 10.587 0 0 0-.174-.701 11.924 11.924 0 0 0-.461-1.383c-.09-.229-.188-.449-.287-.669l-.004-.012c-.063-.137-.13-.278-.201-.42l-.005-.004a17.828 17.828 0 0 0-.21-.41c-.072-.138-.144-.262-.211-.379a4.556 4.556 0 0 0-.179-.311Zm-17.47-9.035a19.306 19.306 0 0 1 3.607-.332c.615 0 1.223.029 1.828.083a20.29 20.29 0 0 1 1.781.249c.286.05.573.112.855.178a19.1 19.1 0 0 1 1.674.477 16.32 16.32 0 0 1 .891.333c.255.104.51.212.769.328.265.116.52.24.766.365l.004.005c.255.128.506.261.752.398l.005.004c.25.141.497.283.734.432.233.145.465.295.694.449.228.157.452.32.675.485.224.17.439.345.654.523.219.183.43.37.631.557l.009.008c.201.183.398.374.586.57a14.993 14.993 0 0 1 1.083 1.228c.171.216.336.436.497.656l.005.004a17.03 17.03 0 0 1 .895 1.37 19.727 19.727 0 0 1 .761 1.462 15.323 15.323 0 0 1 .618 1.553c.089.266.17.528.241.793.072.262.139.532.197.806.058.274.112.544.157.818a16.086 16.086 0 0 1 .179 1.677c.013.287.022.573.022.856 0 .282-.009.564-.022.85a16.096 16.096 0 0 1-.179 1.673v.005c-.045.266-.094.54-.157.814-.054.266-.121.532-.192.793a16.736 16.736 0 0 1-.515 1.553c-.098.25-.206.502-.322.747-.009.034-.023.05-.041.08a15.61 15.61 0 0 1-.756 1.44c-.143.241-.286.474-.43.698a19.606 19.606 0 0 1-.949 1.32c-.17.212-.344.42-.523.623l-.005.004c-.183.208-.371.411-.564.606l-.004.005c-.197.199-.394.39-.591.577l-.013.012c-.202.187-.403.37-.609.544-.211.175-.425.349-.645.519a17.171 17.171 0 0 1-1.378.947 15.92 15.92 0 0 1-1.486.834c-.255.129-.515.25-.775.37a20.581 20.581 0 0 1-1.624.644c-.278.095-.56.182-.846.265-.282.083-.564.154-.851.22a20.718 20.718 0 0 1-1.754.328c-.291.042-.591.075-.895.104a20.726 20.726 0 0 1-2.753.063 18.756 18.756 0 0 1-2.686-.312c-.286-.05-.573-.112-.855-.178a21.408 21.408 0 0 1-.841-.22c-.278-.079-.55-.167-.824-.258-.273-.091-.546-.195-.819-.299-.027-.012-.049-.016-.076-.033a21.072 21.072 0 0 1-1.53-.689 21.403 21.403 0 0 1-1.5-.835 17.151 17.151 0 0 1-2.65-2.018l-.009-.008a14.63 14.63 0 0 1-.586-.57 15.133 15.133 0 0 1-1.088-1.23 18.396 18.396 0 0 1-.958-1.325 18.984 18.984 0 0 1-.833-1.424 16.641 16.641 0 0 1-.694-1.507 14.954 14.954 0 0 1-.876-3.204 15.41 15.41 0 0 1-.18-1.673 9.665 9.665 0 0 1-.035-.868c0-.569.031-1.133.09-1.694a16.156 16.156 0 0 1 .268-1.653c.054-.265.121-.527.193-.793a15.748 15.748 0 0 1 .515-1.553 17.832 17.832 0 0 1 .344-.805l.013-.02a15.854 15.854 0 0 1 .757-1.446c.139-.24.286-.473.43-.697a16.53 16.53 0 0 1 1.473-1.94c.183-.207.37-.406.563-.606.197-.203.398-.398.6-.585l.009-.008c.201-.187.407-.37.613-.549a15.437 15.437 0 0 1 1.325-1.004l.009-.005c.233-.157.465-.311.698-.452.237-.15.479-.295.725-.432a18.162 18.162 0 0 1 1.535-.768c.264-.12.533-.233.797-.337l.009-.004a17.96 17.96 0 0 1 2.524-.793c.282-.066.573-.129.869-.182l-.01.004Zm4.611 2.852v4.306h4.431a29.362 29.362 0 0 0-1.987-2.126 46.484 46.484 0 0 0-1.258-1.17c-.38-.329-.774-.67-1.186-1.01Zm0 6.183v6.349h8.424c-.054-.49-.144-.98-.269-1.474a12.439 12.439 0 0 0-.519-1.599c-.219-.548-.479-1.1-.779-1.653-.291-.54-.627-1.08-.998-1.619h-5.859v-.004Zm0 8.226v6.348h6.128c.358-.531.675-1.059.953-1.59.286-.548.528-1.092.725-1.64.192-.536.345-1.076.457-1.611.102-.503.17-1 .201-1.503h-8.464v-.004Zm0 8.22v4.386a39.223 39.223 0 0 0 2.596-2.21 26.511 26.511 0 0 0 2.099-2.176h-4.695Zm-2.023 4.386v-4.39h-4.69a26.791 26.791 0 0 0 2.09 2.172c.42.395.863.785 1.329 1.18a28.5 28.5 0 0 0 1.271 1.038Zm0-6.262v-6.344h-8.464c.031.502.103 1 .206 1.503.112.54.264 1.075.46 1.615.198.548.44 1.096.726 1.64.278.531.59 1.063.949 1.59h6.123v-.004Zm0-8.221v-6.349h-5.864c-.371.54-.702 1.08-.998 1.62-.3.552-.56 1.104-.778 1.652a13.26 13.26 0 0 0-.52 1.599c-.125.494-.21.984-.268 1.474h8.428v.004Zm0-8.222v-4.31c-.412.34-.806.677-1.182 1.013-.443.39-.864.785-1.262 1.171a29.96 29.96 0 0 0-1.987 2.126h4.431Zm21.381 1.5h8.921c.492 0 .891.402.891.896a.895.895 0 0 1-.891.897h-8.236a18.145 18.145 0 0 0-.685-1.794Zm-2.264-3.9a.811.811 0 0 1 .228-.029h10.957c.492 0 .891.403.891.897a.895.895 0 0 1-.891.897h-10.008a20.765 20.765 0 0 0-1.177-1.765Zm-14.771-12.776h26.744v9.712h-14.762c-3.205-2.89-7.354-4.879-11.982-5.535v-4.177Zm10.12-7.233c.837 0 1.517.63 1.517 1.407s-.68 1.408-1.517 1.408c-.837 0-1.517-.631-1.517-1.408 0-.776.68-1.407 1.517-1.407Zm-5.308 0c.837 0 1.517.63 1.517 1.407s-.68 1.408-1.517 1.408c-.837 0-1.518-.631-1.518-1.408-.004-.776.676-1.407 1.518-1.407Zm-5.313 0c.837 0 1.517.63 1.517 1.407s-.68 1.408-1.517 1.408c-.837 0-1.518-.631-1.518-1.408 0-.776.681-1.407 1.518-1.407Z" clip-rule="evenodd"/><defs><radialGradient id="a" cx="0" cy="0" r="1" gradientTransform="matrix(107.502 0 0 39.4718 110.665 196.358)" gradientUnits="userSpaceOnUse"><stop stop-color="#80E3C8"/><stop offset="1" stop-color="#fff"/></radialGradient><radialGradient id="b" cx="0" cy="0" r="1" gradientTransform="matrix(53.7585 -19.9595 13.02563 35.08296 112.743 166.444)" gradientUnits="userSpaceOnUse"><stop stop-color="#80E3C8"/><stop offset=".43" stop-color="#82E3C9"/><stop offset=".58" stop-color="#89E5CC"/><stop offset=".69" stop-color="#94E8D1"/><stop offset=".78" stop-color="#A5EBD8"/><stop offset=".86" stop-color="#BBF0E2"/><stop offset=".93" stop-color="#D7F6ED"/><stop offset=".99" stop-color="#F6FDFB"/><stop offset="1" stop-color="#fff"/></radialGradient><radialGradient id="c" cx="0" cy="0" r="1" gradientTransform="matrix(53.7585 -19.9595 13.02563 35.08296 112.743 166.444)" gradientUnits="userSpaceOnUse"><stop stop-color="#80E3C8"/><stop offset=".43" stop-color="#82E3C9"/><stop offset=".58" stop-color="#89E5CC"/><stop offset=".69" stop-color="#94E8D1"/><stop offset=".78" stop-color="#A5EBD8"/><stop offset=".86" stop-color="#BBF0E2"/><stop offset=".93" stop-color="#D7F6ED"/><stop offset=".99" stop-color="#F6FDFB"/><stop offset="1" stop-color="#fff"/></radialGradient><radialGradient id="d" cx="0" cy="0" r="1" gradientTransform="matrix(53.7585 -19.9595 13.02563 35.08296 112.743 166.444)" gradientUnits="userSpaceOnUse"><stop stop-color="#80E3C8"/><stop offset=".43" stop-color="#82E3C9"/><stop offset=".58" stop-color="#89E5CC"/><stop offset=".69" stop-color="#94E8D1"/><stop offset=".78" stop-color="#A5EBD8"/><stop offset=".86" stop-color="#BBF0E2"/><stop offset=".93" stop-color="#D7F6ED"/><stop offset=".99" stop-color="#F6FDFB"/><stop offset="1" stop-color="#fff"/></radialGradient><radialGradient id="e" cx="0" cy="0" r="1" gradientTransform="matrix(67.6449 0 0 23.5636 110.592 143.965)" gradientUnits="userSpaceOnUse"><stop stop-color="#80E3C8"/><stop offset="1" stop-color="#fff"/></radialGradient><radialGradient id="f" cx="0" cy="0" r="1" gradientTransform="matrix(35.0368 0 0 12.2048 110.591 118.786)" gradientUnits="userSpaceOnUse"><stop stop-color="#80E3C8"/><stop offset="1" stop-color="#fff"/></radialGradient></defs></svg>