<svg xmlns="http://www.w3.org/2000/svg" width="222" height="245" fill="none"><path fill="url(#a)" d="M180.708 170.658c47.38 14.386 54.687 40.446 16.318 58.208-38.369 17.761-107.887 20.502-155.272 6.116-47.385-14.385-54.687-40.442-16.318-58.203 38.37-17.762 107.887-20.502 155.272-6.121Z" style="mix-blend-mode:multiply"/><path fill="#001C63" d="M108.619 204.441c-22.787 0-44.286-2.868-62.17-8.295-25.13-7.63-39.555-19.413-40.618-33.175-.523-6.779 2.098-19.767 25.51-30.611 19.176-8.877 47.385-13.966 77.388-13.966 22.791 0 44.29 2.872 62.175 8.3 25.129 7.625 39.555 19.409 40.618 33.174.523 6.779-2.098 19.767-25.514 30.607-19.173 8.877-47.381 13.966-77.389 13.966Z" opacity=".2" style="mix-blend-mode:multiply"/><path fill="#001C63" d="M168.494 133.727c40.794 12.383 47.087 34.822 14.05 50.116-33.038 15.293-92.89 17.649-133.704 5.266-40.814-12.384-47.086-34.822-14.049-50.112 33.038-15.291 92.906-17.654 133.703-5.27Z" style="mix-blend-mode:multiply"/><g style="mix-blend-mode:multiply"><path fill="url(#b)" d="M156.318 139.362c32.49 9.866 37.503 27.736 11.191 39.915-26.311 12.18-73.994 14.058-106.476 4.215-32.481-9.843-37.502-27.716-11.19-39.915 26.31-12.198 73.982-14.077 106.475-4.215Z"/><path fill="url(#c)" d="M156.318 139.362c32.49 9.866 37.503 27.736 11.191 39.915-26.311 12.18-73.994 14.058-106.476 4.215-32.481-9.843-37.502-27.716-11.19-39.915 26.31-12.198 73.982-14.077 106.475-4.215Z"/><path fill="url(#d)" d="M156.318 139.362c32.49 9.866 37.503 27.736 11.191 39.915-26.311 12.18-73.994 14.058-106.476 4.215-32.481-9.843-37.502-27.716-11.19-39.915 26.31-12.198 73.982-14.077 106.475-4.215Z"/></g><path fill="#001C63" d="M108.619 219.088c-22.787 0-44.286-2.871-62.17-8.299-25.13-7.63-39.555-19.409-40.618-33.175-.523-6.778 2.098-19.766 25.51-30.61 19.176-8.854 47.385-13.966 77.388-13.966 22.791 0 44.29 2.872 62.175 8.299 25.129 7.63 39.555 19.409 40.618 33.175.523 6.779-2.098 19.767-25.514 30.607-19.173 8.877-47.381 13.969-77.389 13.969Z" opacity=".2" style="mix-blend-mode:multiply"/><path fill="#E5E7EA" d="M176.452 136.009h-13.427a74.584 74.584 0 0 0-11.703-4.561c-29.091-8.831-71.77-7.149-95.326 3.757-.572.265-1.116.535-1.656.804H41.023v13.677c-1.226 7.895 7.36 15.895 24.991 21.253 29.092 8.831 71.77 7.148 95.326-3.757 10.173-4.708 15.104-10.367 15.096-15.991l.016-15.182Z"/><path fill="#FDFEFF" d="M151.33 116.265c29.088 8.831 33.573 24.829 10.018 35.735-23.556 10.905-66.239 12.588-95.326 3.757-29.088-8.831-33.573-24.829-10.018-35.735 23.556-10.905 66.235-12.587 95.326-3.757Z"/><path fill="url(#e)" d="M108.602 161.52c37.475 0 67.854-11.422 67.854-25.511 0-14.089-30.379-25.51-67.854-25.51-37.474 0-67.853 11.421-67.853 25.51 0 14.089 30.379 25.511 67.853 25.511Z" style="mix-blend-mode:multiply"/><path fill="#E5E7EA" d="M176.452 110.865h-13.427a74.687 74.687 0 0 0-11.703-4.562c-29.091-8.83-71.77-7.148-95.326 3.757-.572.266-1.116.535-1.656.805H41.023v13.677c-1.226 7.895 7.36 15.894 24.991 21.253 29.092 8.83 71.77 7.148 95.326-3.757 10.173-4.708 15.104-10.367 15.096-15.991l.016-15.182Z"/><path fill="#FDFEFF" d="M151.33 91.106c29.088 8.83 33.573 24.829 10.018 35.734-23.556 10.906-66.239 12.584-95.326 3.753-29.088-8.83-33.573-24.829-10.018-35.73C79.56 83.96 122.24 82.29 151.33 91.106Z"/><path fill="url(#f)" d="M108.602 124.08c19.409 0 35.143-5.917 35.143-13.215 0-7.299-15.734-13.215-35.143-13.215s-35.143 5.916-35.143 13.215c0 7.298 15.734 13.215 35.143 13.215Z" opacity=".25" style="mix-blend-mode:multiply"/><path fill="#001C63" d="M106.5 22.447c0 4.684-1.156 8.221-3.467 10.613-2.312 2.392-5.425 3.587-9.34 3.584-3.943 0-7.078-1.195-9.403-3.584-2.326-2.39-3.481-5.927-3.468-10.613v-7.29c0-4.687 1.147-8.224 3.44-10.614C86.553 2.154 89.674.96 93.623.96c3.928 0 7.054 1.199 9.376 3.596 2.322 2.397 3.482 5.93 3.48 10.601l.02 7.291Zm-8.53-7.837c0-2.651-.37-4.557-1.111-5.717-.314-.54-.78-.99-1.347-1.296a3.724 3.724 0 0 0-1.867-.444c-.653-.022-1.3.13-1.866.437a3.378 3.378 0 0 0-1.336 1.303c-.714 1.16-1.072 3.066-1.075 5.717v8.338c0 2.697.363 4.621 1.088 5.774.315.543.785.993 1.357 1.298a3.71 3.71 0 0 0 1.88.43c.65.021 1.294-.13 1.858-.435a3.38 3.38 0 0 0 1.332-1.293c.728-1.153 1.09-3.077 1.088-5.774V14.61ZM133.47 22.636h3.721v6.194h-3.721v7.314h-8.55V28.83h-14.274l-.502-4.916 14.776-22.38V1.46h8.55v21.176Zm-15.689 0h7.139V11.919l-.155-.05-.658.982-6.326 9.785Z"/><path fill="#001C63" fill-rule="evenodd" d="M72.408 76.3h14.196v23.779H72.408v-23.78Zm48.803-12.074c5.151 0 9.33 3.93 9.33 8.784 0 4.85-4.173 8.785-9.33 8.785-5.152 0-9.331-3.93-9.331-8.785 0-4.85 4.174-8.784 9.331-8.784Zm-16.375-11.029c4.443 0 8.05 3.391 8.05 7.579 0 4.182-3.601 7.578-8.05 7.578-4.442 0-8.05-3.39-8.05-7.578 0-4.183 3.602-7.579 8.05-7.579Zm.818 9.188c0-.247-.063-.436-.194-.576-.132-.14-.355-.269-.675-.393-.32-.124-.617-.247-.886-.371a3.207 3.207 0 0 1-.703-.442c-.2-.166-.349-.36-.452-.575-.109-.221-.154-.485-.154-.797 0-.522.188-.953.56-1.287.372-.333.869-.538 1.492-.592v-.7h.783v.716c.601.081 1.075.313 1.418.695.343.382.515.866.515 1.448h-1.675c0-.323-.069-.57-.2-.743-.132-.172-.321-.258-.561-.258-.217 0-.389.064-.503.188-.12.13-.177.307-.177.527 0 .227.068.41.206.544.143.135.36.264.663.388.303.124.595.247.863.377.269.134.503.28.698.446.2.167.354.366.463.587.108.22.171.484.171.802 0 .528-.177.958-.537 1.292-.36.334-.841.527-1.452.581v.657h-.778v-.657c-.714-.075-1.263-.301-1.646-.689-.383-.393-.578-.904-.578-1.545h1.664c0 .356.08.62.246.808.166.183.4.28.703.28a.732.732 0 0 0 .526-.189.745.745 0 0 0 .2-.522Zm16.5 12.488c0-.285-.074-.506-.223-.668-.149-.161-.406-.312-.783-.457-.372-.14-.715-.29-1.029-.43a3.592 3.592 0 0 1-.818-.512 2.068 2.068 0 0 1-.526-.668c-.126-.253-.177-.56-.177-.92 0-.608.217-1.103.652-1.491.428-.388 1.006-.619 1.726-.684v-.812h.909v.834c.692.097 1.241.366 1.641.807.4.442.601 1.002.601 1.68h-1.933c0-.377-.08-.657-.229-.862-.148-.199-.371-.301-.651-.301-.252 0-.446.075-.584.22-.137.146-.205.356-.205.614 0 .264.08.474.24.63.16.156.411.307.766.447.354.14.686.29 1 .436.315.15.584.328.812.517.229.193.406.42.538.678.131.258.194.565.194.926 0 .613-.206 1.114-.623 1.496-.412.382-.972.614-1.687.673v.759h-.909v-.765c-.829-.086-1.463-.35-1.909-.802-.441-.452-.664-1.05-.664-1.792h1.927c0 .41.097.716.286.931.189.21.463.323.818.323.257 0 .457-.075.611-.215.149-.14.223-.34.229-.592Zm-.943-8.92c4.133 0 7.489 3.155 7.489 7.052 0 3.892-3.35 7.051-7.489 7.051-4.134 0-7.49-3.154-7.49-7.051 0-3.897 3.356-7.051 7.49-7.051Zm-31.748 32.13V78.21h9.496c4.025.678 8.05 2.734 12.075 5.119h7.375c3.339.188 5.089 3.375 1.841 5.469-2.584 1.787-5.997 1.684-9.496 1.388-2.413-.113-2.516 2.94 0 2.95.875.065 1.824-.13 2.653-.13 4.368-.005 7.958-.79 10.159-4.036l1.104-2.428 10.971-5.119c5.489-1.7 9.388 3.704 5.346 7.466-7.947 5.442-16.094 9.92-24.43 13.537-6.055 3.467-12.109 3.348-18.158 0l-8.936-4.344Z" clip-rule="evenodd"/><defs><radialGradient id="a" cx="0" cy="0" r="1" gradientTransform="matrix(107.502 0 0 39.4718 111.231 190.703)" gradientUnits="userSpaceOnUse"><stop stop-color="#5A9BFB"/><stop offset="1" stop-color="#fff"/></radialGradient><radialGradient id="b" cx="0" cy="0" r="1" gradientTransform="matrix(53.75846 -19.9596 13.0257 35.08293 113.704 160.758)" gradientUnits="userSpaceOnUse"><stop stop-color="#7FD4F9"/><stop offset=".43" stop-color="#81D5F9"/><stop offset=".58" stop-color="#88D7F9"/><stop offset=".69" stop-color="#93DBFA"/><stop offset=".78" stop-color="#A4E1FB"/><stop offset=".86" stop-color="#BAE8FC"/><stop offset=".92" stop-color="#D6F1FD"/><stop offset=".98" stop-color="#F5FCFF"/><stop offset="1" stop-color="#fff"/></radialGradient><radialGradient id="c" cx="0" cy="0" r="1" gradientTransform="matrix(53.75846 -19.9596 13.0257 35.08293 113.704 160.758)" gradientUnits="userSpaceOnUse"><stop stop-color="#80E3C8"/><stop offset=".43" stop-color="#82E3C9"/><stop offset=".58" stop-color="#89E5CC"/><stop offset=".69" stop-color="#94E8D1"/><stop offset=".78" stop-color="#A5EBD8"/><stop offset=".86" stop-color="#BBF0E2"/><stop offset=".93" stop-color="#D7F6ED"/><stop offset=".99" stop-color="#F6FDFB"/><stop offset="1" stop-color="#fff"/></radialGradient><radialGradient id="d" cx="0" cy="0" r="1" gradientTransform="matrix(53.75846 -19.9596 13.0257 35.08293 113.704 160.758)" gradientUnits="userSpaceOnUse"><stop stop-color="#5A9BFB"/><stop offset=".41" stop-color="#5C9CFB"/><stop offset=".55" stop-color="#63A0FB"/><stop offset=".66" stop-color="#6EA7FB"/><stop offset=".74" stop-color="#7FB2FC"/><stop offset=".81" stop-color="#95BFFC"/><stop offset=".88" stop-color="#B1CFFD"/><stop offset=".94" stop-color="#D1E3FE"/><stop offset=".99" stop-color="#F5F9FF"/><stop offset="1" stop-color="#fff"/></radialGradient><radialGradient id="e" cx="0" cy="0" r="1" gradientTransform="matrix(67.6449 0 0 23.5636 108.602 139.214)" gradientUnits="userSpaceOnUse"><stop stop-color="#5A9BFB"/><stop offset="1" stop-color="#fff"/></radialGradient><radialGradient id="f" cx="0" cy="0" r="1" gradientTransform="matrix(35.0369 0 0 12.2048 108.602 114.035)" gradientUnits="userSpaceOnUse"><stop stop-color="#5A9BFB"/><stop offset="1" stop-color="#fff"/></radialGradient></defs></svg>