<svg xmlns="http://www.w3.org/2000/svg" width="222" height="250" fill="none"><path fill="url(#a)" d="M180.456 176.181c47.385 14.386 54.691 40.447 16.318 58.208-38.373 17.761-107.887 20.502-155.268 6.117-47.38-14.386-54.691-40.443-16.322-58.204 38.37-17.761 107.891-20.491 155.272-6.121Z" style="mix-blend-mode:multiply"/><path fill="#001C63" d="M110.926 209.306c-22.787 0-44.29-2.868-62.174-8.296-25.13-7.63-39.555-19.413-40.618-33.175-.52-6.778 2.098-19.766 25.514-30.61 19.172-8.873 47.38-13.966 77.389-13.966 22.79 0 44.285 2.872 62.17 8.299 25.133 7.626 39.559 19.409 40.618 33.175.523 6.779-2.094 19.767-25.51 30.607-19.177 8.877-47.385 13.966-77.389 13.966Z" opacity=".2" style="mix-blend-mode:multiply"/><path fill="#001C63" d="M170.798 138.591c40.798 12.384 47.087 34.822 14.05 50.116-33.038 15.294-92.89 17.65-133.683 5.266C10.37 181.59 4.078 159.151 37.11 143.861c33.034-15.29 92.889-17.653 133.687-5.27Z" style="mix-blend-mode:multiply"/><g style="mix-blend-mode:multiply"><path fill="url(#b)" d="M158.622 144.227c32.494 9.866 37.503 27.716 11.191 39.915-26.311 12.199-73.982 14.058-106.472 4.196-32.49-9.863-37.506-27.736-11.19-39.915 26.315-12.18 73.982-14.058 106.471-4.196Z"/><path fill="url(#c)" d="M158.622 144.227c32.494 9.866 37.503 27.716 11.191 39.915-26.311 12.199-73.982 14.058-106.472 4.196-32.49-9.863-37.506-27.736-11.19-39.915 26.315-12.18 73.982-14.058 106.471-4.196Z"/><path fill="url(#d)" d="M158.622 144.227c32.494 9.866 37.503 27.716 11.191 39.915-26.311 12.199-73.982 14.058-106.472 4.196-32.49-9.863-37.506-27.736-11.19-39.915 26.315-12.18 73.982-14.058 106.471-4.196Z"/></g><path fill="#001C63" d="M110.926 223.953c-22.787 0-44.29-2.872-62.174-8.3-25.13-7.629-39.555-19.409-40.618-33.174-.52-6.779 2.098-19.767 25.514-30.607 19.172-8.877 47.38-13.97 77.389-13.97 22.79 0 44.285 2.872 62.17 8.299 25.133 7.63 39.559 19.409 40.618 33.175.523 6.779-2.094 19.767-25.51 30.611-19.177 8.873-47.385 13.966-77.389 13.966Z" opacity=".2" style="mix-blend-mode:multiply"/><path fill="#E6E6E8" d="M178.758 140.874h-13.419a74.656 74.656 0 0 0-11.706-4.561c-29.088-8.831-71.767-7.149-95.326 3.757-.573.265-1.112.535-1.636.804H43.338v13.677c-1.227 7.895 7.36 15.895 24.99 21.253 29.088 8.831 71.767 7.148 95.322-3.757 10.173-4.708 15.104-10.367 15.096-15.987l.012-15.186Z"/><path fill="#FDFDFF" d="M153.634 121.13c29.092 8.831 33.577 24.829 10.018 35.735-23.56 10.905-66.239 12.588-95.322 3.757-29.084-8.831-33.578-24.829-10.022-35.735 23.556-10.905 66.238-12.587 95.326-3.757Z"/><path fill="url(#e)" d="M110.979 166.357c37.434 0 67.78-11.409 67.78-25.483s-30.346-25.483-67.78-25.483-67.78 11.409-67.78 25.483 30.346 25.483 67.78 25.483Z" style="mix-blend-mode:multiply"/><path fill="#E6E6E8" d="M178.758 115.729h-13.419a74.754 74.754 0 0 0-11.706-4.561c-29.088-8.831-71.767-7.149-95.326 3.757-.573.265-1.112.535-1.636.804H43.338v13.677c-1.227 7.896 7.36 15.895 24.99 21.253 29.088 8.831 71.767 7.149 95.322-3.757 10.173-4.708 15.104-10.366 15.096-15.99l.012-15.183Z"/><path fill="#FDFDFF" d="M153.634 95.986c29.092 8.83 33.577 24.829 10.018 35.734-23.56 10.906-66.239 12.584-95.322 3.753-29.084-8.83-33.578-24.829-10.022-35.73 23.556-10.902 66.238-12.588 95.326-3.757Z"/><path fill="url(#f)" d="M110.979 128.944c19.409 0 35.143-5.916 35.143-13.215 0-7.298-15.734-13.215-35.143-13.215s-35.143 5.917-35.143 13.215c0 7.299 15.734 13.215 35.143 13.215Z" opacity=".25" style="mix-blend-mode:multiply"/><path fill="#001C63" d="M108.882 21.746c0 4.683-1.156 8.22-3.468 10.613-2.311 2.391-5.423 3.586-9.335 3.584-3.95 0-7.084-1.195-9.404-3.584-2.32-2.39-3.475-5.927-3.467-10.613v-7.291c0-4.686 1.148-8.223 3.443-10.61C88.946 1.46 92.066.264 96.01.259c3.927 0 7.052 1.2 9.375 3.6 2.322 2.399 3.482 5.931 3.479 10.597l.017 7.29Zm-8.53-7.838c0-2.65-.37-4.556-1.112-5.716a3.437 3.437 0 0 0-1.346-1.298 3.716 3.716 0 0 0-1.868-.442 3.648 3.648 0 0 0-1.864.437 3.37 3.37 0 0 0-1.333 1.303c-.72 1.16-1.078 3.065-1.075 5.716v8.338c0 2.697.362 4.622 1.087 5.774.316.543.786.992 1.358 1.297a3.705 3.705 0 0 0 1.88.428c.65.02 1.292-.13 1.854-.435a3.38 3.38 0 0 0 1.332-1.29c.728-1.154 1.09-3.08 1.087-5.774v-8.338ZM113.984 20.198 116.11.758h21.605v6.194h-14.65l-.936 7.268a7.97 7.97 0 0 1 2.404-1.12 12.098 12.098 0 0 1 3.165-.478c3.609-.061 6.384.927 8.325 2.964 1.94 2.038 2.91 4.933 2.907 8.685.079 3.059-1.109 6.027-3.312 8.276-2.211 2.264-5.374 3.395-9.49 3.395-3.284.069-6.498-.895-9.134-2.74a8.483 8.483 0 0 1-2.865-3.166 7.916 7.916 0 0 1-.881-4.075l.053-.143 8.35-.477c0 1.38.408 2.461 1.226 3.241.429.392.939.696 1.498.895a4.622 4.622 0 0 0 1.753.26c1.554 0 2.655-.513 3.304-1.54a7.188 7.188 0 0 0 .973-3.895c0-1.905-.363-3.405-1.088-4.5-.725-1.096-1.873-1.644-3.443-1.644a4.987 4.987 0 0 0-2.768.689 3.62 3.62 0 0 0-1.455 1.74l-7.667-.389Z"/><path fill="#001C63" fill-rule="evenodd" d="M124.104 67.747c3.488 1.868 4.203 5.996 3.622 10.133a23.35 23.35 0 0 1-.279 1.578c.561.178 1.098.367 1.612.565 4.153 1.602 7.65 4.24 7.65 7.976 0 3.736-3.497 6.374-7.65 7.976-.514.198-1.051.387-1.612.565.114.54.207 1.066.279 1.578.581 4.137-.134 8.265-3.622 10.133-3.487 1.868-7.698.378-11.27-2.157a26.697 26.697 0 0 1-1.333-1.013c-.447.361-.892.699-1.334 1.013-3.572 2.535-7.784 4.025-11.27 2.158-3.488-1.868-4.203-5.997-3.622-10.134.072-.512.165-1.038.279-1.578a28.355 28.355 0 0 1-1.613-.565c-4.152-1.602-7.649-4.24-7.649-7.976 0-3.736 3.497-6.374 7.65-7.976a28.356 28.356 0 0 1 1.612-.565 23.365 23.365 0 0 1-.28-1.578c-.58-4.137.135-8.266 3.622-10.133 3.487-1.868 7.699-.378 11.271 2.157.442.314.887.652 1.334 1.013.446-.361.891-.699 1.333-1.013 3.572-2.535 7.783-4.025 11.27-2.157ZM99.993 97.644c-.07.351-.127.692-.173 1.023-.535 3.811.471 5.422 1.368 5.902.897.481 2.903.484 6.194-1.852.285-.202.575-.419.868-.65a47.2 47.2 0 0 1-3.188-3.722 53.692 53.692 0 0 1-5.07-.7Zm23.015 0c-1.579.3-3.273.535-5.069.7a47.236 47.236 0 0 1-3.188 3.723c.293.231.582.447.868.65 3.29 2.335 5.297 2.332 6.194 1.852.897-.481 1.903-2.091 1.368-5.902a19.46 19.46 0 0 0-.173-1.023ZM96.742 83.577c-.361.12-.709.244-1.04.372-3.826 1.476-4.827 3.089-4.827 4.05 0 .961 1.001 2.574 4.826 4.05.332.128.68.253 1.042.372A44.436 44.436 0 0 1 98.623 88a44.47 44.47 0 0 1-1.88-4.422Zm29.516 0a44.58 44.58 0 0 1-1.88 4.422 44.548 44.548 0 0 1 1.88 4.422c.362-.12.709-.244 1.041-.372 3.826-1.476 4.826-3.089 4.826-4.05 0-.961-1-2.574-4.826-4.05a22.734 22.734 0 0 0-1.041-.372ZM111.5 84.81c-1.898 0-3.437 1.428-3.437 3.19 0 1.76 1.539 3.188 3.437 3.188s3.438-1.428 3.438-3.189c0-1.761-1.54-3.189-3.438-3.189Zm-4.118-11.53c-3.291-2.335-5.297-2.332-6.194-1.851-.897.48-1.903 2.09-1.368 5.902.046.33.104.672.173 1.023 1.579-.3 3.273-.535 5.069-.7a47.19 47.19 0 0 1 3.188-3.723c-.293-.23-.583-.447-.868-.65Zm8.237.001c-.286.203-.575.42-.868.65a47.191 47.191 0 0 1 3.188 3.722c1.796.166 3.49.401 5.069.7.069-.35.126-.69.173-1.022.535-3.81-.471-5.421-1.368-5.902-.897-.48-2.904-.483-6.194 1.852Z" clip-rule="evenodd"/><defs><radialGradient id="a" cx="0" cy="0" r="1" gradientTransform="matrix(107.502 0 0 39.4718 110.979 196.938)" gradientUnits="userSpaceOnUse"><stop stop-color="#2A48D0"/><stop offset="1" stop-color="#fff"/></radialGradient><radialGradient id="b" cx="0" cy="0" r="1" gradientTransform="matrix(53.75846 -19.9596 13.0257 35.08293 117.01 166.37)" gradientUnits="userSpaceOnUse"><stop stop-color="#8EDBDC"/><stop offset=".44" stop-color="#90DCDD"/><stop offset=".6" stop-color="#97DEDF"/><stop offset=".71" stop-color="#A2E2E2"/><stop offset=".8" stop-color="#B3E7E8"/><stop offset=".88" stop-color="#C9EEEE"/><stop offset=".95" stop-color="#E4F6F7"/><stop offset="1" stop-color="#fff"/></radialGradient><radialGradient id="c" cx="0" cy="0" r="1" gradientTransform="matrix(53.75846 -19.9596 13.0257 35.08293 117.01 166.37)" gradientUnits="userSpaceOnUse"><stop stop-color="#80E3C8"/><stop offset=".43" stop-color="#82E3C9"/><stop offset=".58" stop-color="#89E5CC"/><stop offset=".69" stop-color="#94E8D1"/><stop offset=".78" stop-color="#A5EBD8"/><stop offset=".86" stop-color="#BBF0E2"/><stop offset=".93" stop-color="#D7F6ED"/><stop offset=".99" stop-color="#F6FDFB"/><stop offset="1" stop-color="#fff"/></radialGradient><radialGradient id="d" cx="0" cy="0" r="1" gradientTransform="matrix(53.75846 -19.9596 13.0257 35.08293 117.01 166.37)" gradientUnits="userSpaceOnUse"><stop stop-color="#2A48D0"/><stop offset=".39" stop-color="#2C4AD0"/><stop offset=".53" stop-color="#334FD2"/><stop offset=".62" stop-color="#3E5AD5"/><stop offset=".71" stop-color="#4F68D8"/><stop offset=".77" stop-color="#657BDD"/><stop offset=".83" stop-color="#8192E3"/><stop offset=".89" stop-color="#A1AEEA"/><stop offset=".94" stop-color="#C7CFF3"/><stop offset=".99" stop-color="#F0F2FC"/><stop offset="1" stop-color="#fff"/></radialGradient><radialGradient id="e" cx="0" cy="0" r="1" gradientTransform="matrix(67.5713 0 0 23.5379 110.979 143.889)" gradientUnits="userSpaceOnUse"><stop stop-color="#2A48D0"/><stop offset="1" stop-color="#fff"/></radialGradient><radialGradient id="f" cx="0" cy="0" r="1" gradientTransform="matrix(35.0369 0 0 12.2048 110.979 118.71)" gradientUnits="userSpaceOnUse"><stop stop-color="#2A48D0"/><stop offset="1" stop-color="#fff"/></radialGradient></defs></svg>