<svg width="30" height="30" viewBox="0 0 30 30" fill="none" xmlns="http://www.w3.org/2000/svg">
<path d="M13.6565 21.6325L3.42344 11.3995C3.28229 11.2583 3.1769 11.1059 3.10727 10.9422C3.03764 10.7784 3.00188 10.6015 3 10.4115C3 10.0351 3.12985 9.70573 3.38956 9.42344C3.64927 9.14114 3.9899 9 4.41146 9L25.8656 9C26.289 9 26.6306 9.14115 26.8903 9.42344C27.15 9.70573 27.2789 10.0351 27.277 10.4115C27.277 10.5056 27.1359 10.8349 26.8536 11.3995L16.6205 21.6325C16.3853 21.8678 16.1501 22.0324 15.9148 22.1265C15.6796 22.2206 15.4208 22.2677 15.1385 22.2677C14.8562 22.2677 14.5975 22.2206 14.3622 22.1265C14.127 22.0324 13.8917 21.8678 13.6565 21.6325Z" fill="black"/>
</svg>
