<svg width="53" height="44" viewBox="0 0 53 44" fill="none" xmlns="http://www.w3.org/2000/svg">
<g clip-path="url(#clip0_96_24937)">
<path fill-rule="evenodd" clip-rule="evenodd" d="M13.003 38.5003V23.0026H19.973C22.9283 23.5327 25.8836 25.1344 28.839 26.9955H34.2526C36.7039 27.1432 37.9866 29.6272 35.6063 31.2591C33.707 32.6509 31.2033 32.5725 28.6358 32.342C26.8658 32.2547 26.7882 34.635 28.6358 34.6426C29.2767 34.6921 29.9743 34.5422 30.5838 34.5414C33.7884 34.5385 36.4281 33.9257 38.0428 31.3943L38.8554 29.4992L46.9092 25.5063C50.9394 24.1791 53.8028 28.3953 50.8345 31.3263C45.0011 35.5702 39.0183 39.0632 32.8999 41.8833C28.4557 44.5864 24.0121 44.4949 19.568 41.8833L13.003 38.5003ZM43.3205 13.6657C43.2072 13.5876 43.0779 13.5528 42.9473 13.5788C42.8176 13.6049 42.7047 13.6741 42.6267 13.787L42.1847 14.4107C42.029 14.3415 41.864 14.2894 41.6903 14.2462C41.5173 14.203 41.3524 14.1681 41.1794 14.1421L41.0401 13.3274C41.0145 13.1885 40.9448 13.0844 40.8407 13.0067C40.7282 12.9287 40.6069 12.9026 40.4684 12.9287L39.4451 13.1108C39.3154 13.1369 39.2113 13.1977 39.1245 13.3102C39.0464 13.4231 39.012 13.5444 39.0376 13.6829L39.1681 14.4284C39.0031 14.498 38.8474 14.5757 38.7001 14.6714C38.5524 14.7578 38.4059 14.8619 38.2753 14.966L37.5819 14.4892C37.4695 14.4112 37.3482 14.3767 37.218 14.4028C37.0875 14.4288 36.9754 14.498 36.8974 14.6109L36.3081 15.4517C36.23 15.5642 36.1956 15.6943 36.2212 15.8244C36.2476 15.9633 36.3173 16.067 36.4294 16.1451L37.0531 16.587C36.9842 16.7432 36.9318 16.9077 36.8881 17.0811C36.8445 17.2544 36.8101 17.4189 36.784 17.5923L35.9702 17.7312C35.8308 17.7572 35.7276 17.8265 35.6487 17.9306C35.5706 18.0435 35.5454 18.1648 35.5706 18.3033L35.7528 19.3262C35.7792 19.4563 35.8396 19.56 35.953 19.6469C36.0655 19.7249 36.1868 19.7594 36.3253 19.7333L37.0703 19.6032C37.14 19.7677 37.218 19.9239 37.3129 20.0712C37.3998 20.2185 37.5039 20.3659 37.608 20.5044L37.1307 21.189C37.0527 21.3014 37.0182 21.4232 37.0447 21.5529C37.0703 21.683 37.14 21.7955 37.252 21.8735L38.1011 22.4716C38.2145 22.5497 38.3446 22.5753 38.4743 22.5497C38.6048 22.5237 38.7169 22.4633 38.8038 22.3503L39.2458 21.7178C39.4015 21.7871 39.5664 21.8391 39.7402 21.8823C39.9131 21.9256 40.0781 21.9604 40.251 21.9864L40.3904 22.8007C40.416 22.9396 40.4856 23.0433 40.5897 23.1214C40.7022 23.1999 40.8235 23.2255 40.962 23.1999L41.9853 23.0177C42.115 22.9917 42.2191 22.9313 42.306 22.8183C42.3841 22.7054 42.4185 22.5841 42.3929 22.4452L42.2624 21.7002C42.4273 21.6309 42.583 21.5529 42.7303 21.4576C42.8781 21.3707 43.0246 21.2666 43.1639 21.1629L43.8485 21.6397C43.961 21.7178 44.0823 21.7526 44.2208 21.7262C44.3602 21.7002 44.4634 21.6309 44.5423 21.5184L45.14 20.6689C45.2181 20.5564 45.2441 20.4263 45.2181 20.2962C45.1925 20.1661 45.132 20.0536 45.0187 19.9667L44.3858 19.5331C44.4554 19.377 44.5071 19.2124 44.5507 19.0391C44.5944 18.8657 44.6288 18.7012 44.6548 18.5279L45.4695 18.3889C45.608 18.3629 45.7121 18.2937 45.7902 18.1896C45.8683 18.0767 45.8943 17.9554 45.8682 17.8168L45.6861 16.794C45.6596 16.6638 45.5992 16.5598 45.4867 16.4733C45.3742 16.3952 45.2529 16.3604 45.1136 16.3864L44.3686 16.5165C44.2997 16.3604 44.2208 16.2042 44.126 16.0485C44.0391 15.8924 43.935 15.7539 43.8317 15.6242L44.3081 14.9308C44.3862 14.8179 44.4214 14.6966 44.395 14.5669C44.3686 14.4372 44.2997 14.3243 44.1868 14.2462L43.3465 13.6569L43.3205 13.6657ZM40.348 16.075C40.6162 16.0313 40.8848 16.0313 41.1538 16.0926C41.4137 16.1535 41.6483 16.2571 41.8644 16.4045C42.0726 16.5518 42.254 16.7428 42.4013 16.9677C42.5486 17.1927 42.6439 17.4445 42.6875 17.7132C42.7312 17.9818 42.7312 18.2504 42.6703 18.519C42.6095 18.7789 42.5054 19.0131 42.358 19.2297C42.2111 19.4378 42.0202 19.6196 41.7948 19.7669C41.5694 19.9142 41.3184 20.0095 41.0498 20.0532C40.7807 20.0964 40.5129 20.0964 40.2439 20.0355C39.9841 19.9747 39.7494 19.871 39.5333 19.7237C39.3251 19.5763 39.1429 19.3854 38.9956 19.1604C38.8487 18.935 38.753 18.6836 38.7093 18.415C38.6665 18.1463 38.6665 17.8777 38.7274 17.6091C38.7882 17.3493 38.8923 17.1151 39.0388 16.8985C39.1866 16.6903 39.3775 16.5085 39.6021 16.3612C39.8271 16.2135 40.0789 16.1182 40.348 16.075ZM32.478 3.92378C32.4344 3.88055 32.4 3.85452 32.3567 3.83689C32.3223 3.81969 32.2787 3.81087 32.2262 3.81087C32.1746 3.81087 32.1309 3.81969 32.0965 3.83689C32.0621 3.85452 32.0184 3.88055 31.9832 3.91496L31.9748 3.92378L30.9951 4.90301C30.805 5.09357 30.5015 5.11959 30.2845 4.96387C30.172 4.89461 30.0591 4.82494 29.9294 4.75568C29.7909 4.68643 29.6604 4.61675 29.5391 4.55631C29.4085 4.49545 29.27 4.43501 29.1315 4.38296C29.0102 4.33973 28.8717 4.28768 28.7067 4.23564C28.473 4.15757 28.3256 3.94099 28.3256 3.70678V2.20792C28.3256 2.15588 28.3168 2.10383 28.2992 2.06899C28.2816 2.03415 28.2555 1.99092 28.2211 1.9649C28.1867 1.93006 28.1514 1.90404 28.117 1.88683C28.0826 1.8692 28.0301 1.86039 27.9785 1.86039H26.0902C26.0381 1.86039 25.9949 1.8692 25.96 1.87801C25.9252 1.89564 25.882 1.92125 25.8387 1.9649C25.8039 1.99974 25.7779 2.03415 25.7691 2.06899C25.7518 2.10383 25.743 2.15588 25.743 2.20792V3.5859C25.743 3.86334 25.5437 4.08831 25.2838 4.14036C25.1365 4.1752 24.998 4.20961 24.8767 4.24445C24.7378 4.2881 24.6081 4.33134 24.4692 4.38296C24.339 4.43501 24.2005 4.48706 24.0704 4.55631C23.9315 4.61717 23.8102 4.68643 23.6889 4.74729C23.4635 4.86859 23.2037 4.82536 23.0303 4.65159L21.947 3.57708C21.939 3.56827 21.939 3.56827 21.939 3.55987C21.9042 3.52503 21.8693 3.49901 21.8349 3.4818C21.8001 3.46459 21.7657 3.46459 21.7136 3.46459C21.6616 3.46459 21.6183 3.47341 21.5835 3.49062C21.5399 3.50825 21.5054 3.53385 21.4622 3.5775L20.1447 4.90343C20.101 4.94666 20.075 4.9815 20.0578 5.02473C20.0402 5.05957 20.0318 5.1028 20.0318 5.15485C20.0318 5.20689 20.0406 5.25013 20.0578 5.28496C20.075 5.3198 20.101 5.36303 20.1359 5.39787V5.40668L21.1151 6.38591C21.3061 6.57689 21.3321 6.87994 21.176 7.09652C21.1067 7.20942 21.0374 7.32191 20.9682 7.45203C20.8985 7.59054 20.8293 7.72066 20.7688 7.84196C20.708 7.97207 20.6471 8.11058 20.5955 8.24952C20.5522 8.37082 20.5002 8.50933 20.4481 8.67428C20.3701 8.90807 20.1535 9.0554 19.9193 9.0554H18.42C18.368 9.0554 18.3159 9.06421 18.2815 9.08142C18.2467 9.09905 18.2122 9.12465 18.1774 9.1511C18.1426 9.18551 18.1165 9.22035 18.1081 9.25477C18.0909 9.28961 18.0821 9.34165 18.0821 9.3937V11.2829C18.0821 11.335 18.0909 11.3782 18.0998 11.413C18.117 11.4479 18.143 11.4911 18.1866 11.5343C18.2215 11.5692 18.2559 11.5952 18.2907 11.6036C18.3256 11.6212 18.3776 11.6296 18.4297 11.6296H19.8076C20.0851 11.6296 20.3105 11.829 20.3625 12.0892C20.3969 12.2365 20.4318 12.375 20.4666 12.4879C20.5098 12.6265 20.5535 12.7654 20.6051 12.9039C20.6572 13.034 20.7092 13.1725 20.7785 13.3115C20.8481 13.4588 20.9086 13.5889 20.9694 13.7102C21.0824 13.9356 21.0387 14.1954 20.8654 14.3604L19.7904 15.4265L19.7816 15.4353C19.7468 15.4701 19.7207 15.5045 19.7035 15.5394C19.6863 15.5742 19.6863 15.6091 19.6863 15.6607C19.6863 15.7127 19.6951 15.756 19.7124 15.7908C19.7296 15.834 19.7556 15.8777 19.7988 15.9121L21.1075 17.2385C21.1424 17.2733 21.1856 17.2993 21.2288 17.3165C21.2725 17.3342 21.3157 17.3425 21.3678 17.3425C21.4198 17.3425 21.4719 17.3337 21.5151 17.3165C21.5495 17.2993 21.5932 17.2733 21.628 17.2473L22.5988 16.2592C22.7894 16.0599 23.0929 16.0426 23.3094 16.19C23.4223 16.2592 23.5344 16.3289 23.6645 16.3982C23.8035 16.4674 23.9332 16.5367 24.0545 16.5975C24.1846 16.6584 24.3231 16.7188 24.462 16.7709C24.5833 16.8141 24.7223 16.8662 24.8868 16.9182C25.121 16.9963 25.2683 17.2129 25.2683 17.4471V18.9463C25.2683 18.9984 25.2771 19.0504 25.2943 19.0853C25.3116 19.1201 25.3376 19.1633 25.3636 19.1894C25.4329 19.2586 25.5109 19.2846 25.615 19.2846H27.5046C27.5563 19.2846 27.5999 19.2758 27.6343 19.267C27.6688 19.2498 27.7124 19.2238 27.7556 19.1805C27.7901 19.1457 27.8165 19.1109 27.8253 19.0765C27.8425 19.0416 27.8518 18.9896 27.8518 18.9375V17.5595C27.8518 17.2821 28.0511 17.0567 28.3109 17.0047C28.4578 16.9698 28.5972 16.9354 28.7185 16.9006C28.857 16.8569 28.9867 16.8137 29.1261 16.7616C29.2558 16.7096 29.3943 16.6575 29.5328 16.5883C29.6805 16.519 29.8106 16.4582 29.9319 16.3977C30.1573 16.2848 30.4171 16.3285 30.5821 16.5018L31.6478 17.5768L31.6566 17.5856C31.691 17.6204 31.7254 17.6464 31.7599 17.6636C31.7951 17.6813 31.8388 17.6813 31.8904 17.6813C31.9429 17.6813 31.9857 17.6725 32.0209 17.6552C32.0554 17.6376 32.0898 17.6116 32.125 17.5772C32.1334 17.5684 32.1422 17.56 32.1506 17.56L33.4682 16.2596C33.5034 16.2248 33.529 16.1816 33.5462 16.1383C33.5643 16.0951 33.5727 16.0515 33.5727 15.9998C33.5727 15.9478 33.5643 15.8957 33.5462 15.8525C33.529 15.8177 33.5034 15.7744 33.4774 15.7396L32.4894 14.7688C32.2891 14.5782 32.2719 14.2747 32.4197 14.0582C32.4894 13.9453 32.5582 13.8328 32.6279 13.7026C32.6967 13.5641 32.7664 13.434 32.8272 13.3127C32.8881 13.1826 32.9485 13.0441 33.0002 12.9052C33.0438 12.7839 33.0963 12.6453 33.1479 12.4804C33.226 12.2462 33.4421 12.0993 33.6768 12.0993H35.176C35.2285 12.0993 35.2801 12.0905 35.3146 12.0728C35.349 12.0556 35.3926 12.0296 35.4187 12.0036C35.4883 11.9343 35.5139 11.8563 35.5139 11.7522V9.86296C35.5139 9.81091 35.5055 9.76768 35.4967 9.73284C35.4795 9.69842 35.4531 9.65477 35.4098 9.61154C35.3754 9.57712 35.341 9.55068 35.3066 9.54228C35.2713 9.52507 35.2197 9.51626 35.1681 9.51626H33.7893C33.5122 9.51626 33.2784 9.30807 33.2352 9.04826C33.2008 8.92696 33.1655 8.79684 33.1311 8.66715C33.0875 8.53703 33.0442 8.3981 32.9834 8.25119C32.9834 8.24238 32.975 8.23357 32.975 8.22475C32.9225 8.08624 32.8709 7.96494 32.8184 7.84364C32.7576 7.71352 32.6971 7.5834 32.6283 7.4621C32.507 7.23671 32.5502 6.97689 32.7236 6.80355L33.7985 5.72022C33.7985 5.71141 33.8073 5.71141 33.8157 5.71141C33.8501 5.67699 33.8766 5.64215 33.8938 5.60732C33.911 5.57248 33.911 5.53806 33.911 5.48601C33.911 5.43355 33.9026 5.39032 33.8854 5.3559C33.8682 5.31225 33.8417 5.27783 33.7985 5.23459L32.4721 3.91706L32.478 3.92378ZM32.7903 2.80604C32.9725 2.88411 33.1282 2.9882 33.2667 3.12671L34.593 4.44424H34.6014C34.7399 4.58317 34.844 4.73889 34.9221 4.91224C35.001 5.09441 35.0354 5.27615 35.0354 5.47552C35.0354 5.67531 34.9918 5.86587 34.9221 6.03922C34.844 6.21257 34.7399 6.36829 34.5935 6.4984L33.8132 7.28707C33.822 7.3131 33.8396 7.33912 33.8476 7.36514C33.9173 7.51247 33.9781 7.66861 34.0386 7.81552C34.0386 7.82433 34.0474 7.83314 34.0474 7.84196C34.1083 7.98928 34.1599 8.15382 34.2123 8.32717L34.2296 8.38803H35.1828C35.3821 8.38803 35.5723 8.42286 35.746 8.50093C35.919 8.57019 36.0747 8.6831 36.214 8.82161L36.2224 8.83042C36.3609 8.96893 36.465 9.12507 36.5347 9.29842C36.6035 9.47177 36.6472 9.66233 36.6472 9.8533V11.7425C36.6472 12.1501 36.5087 12.4963 36.2224 12.7826C36.0839 12.9215 35.919 13.034 35.746 13.1033C35.5723 13.1725 35.3821 13.2074 35.1828 13.2074H34.0726C34.0642 13.2334 34.047 13.2682 34.0382 13.2943C33.9773 13.4504 33.9076 13.6061 33.8388 13.7622C33.7607 13.9268 33.691 14.0829 33.6134 14.2214L33.587 14.2735L34.2631 14.9409L34.2896 14.9669C34.4281 15.1058 34.5234 15.2703 34.593 15.4437C34.6619 15.617 34.6971 15.7992 34.6971 15.9986C34.6971 16.1891 34.6619 16.3713 34.593 16.5446C34.5234 16.718 34.4281 16.8741 34.2896 17.0215L34.2724 17.0387L32.946 18.3562C32.8075 18.5035 32.651 18.6076 32.478 18.6857C32.3051 18.7638 32.1141 18.7982 31.9059 18.7982C31.7066 18.7982 31.5164 18.7549 31.3338 18.6857C31.1517 18.6076 30.996 18.4951 30.8667 18.3562L30.0952 17.5763C30.0688 17.5935 30.0427 17.6024 30.0083 17.6112C29.8606 17.672 29.7049 17.7413 29.5403 17.8017C29.3846 17.8626 29.2197 17.9146 29.0551 17.9667C29.0287 17.9755 29.0115 17.9843 28.9854 17.9843V18.9287C28.9854 19.1281 28.951 19.3186 28.873 19.492C28.8033 19.6653 28.6908 19.8215 28.5523 19.96L28.5435 19.9688C28.405 20.1073 28.2492 20.2114 28.0755 20.2807C27.9025 20.3503 27.7116 20.3936 27.5214 20.3936H25.6318C25.2242 20.3936 24.878 20.2551 24.5917 19.9688C24.4532 19.8299 24.3403 19.6653 24.271 19.492C24.2018 19.3186 24.1669 19.1281 24.1669 18.9287V17.8168C24.1409 17.808 24.1061 17.7908 24.0801 17.782C23.9239 17.7211 23.7682 17.6519 23.6121 17.5826C23.4471 17.5046 23.2914 17.4353 23.1525 17.3572L23.1004 17.3312L22.433 18.0074L22.407 18.0334C22.2681 18.1724 22.1036 18.2676 21.9302 18.3369C21.7569 18.4061 21.5751 18.441 21.3757 18.441C21.1852 18.441 21.003 18.4061 20.8297 18.3369C20.6563 18.2672 20.5002 18.1719 20.3529 18.0334L20.3352 18.0162L19.0093 16.6727C18.8708 16.5337 18.7667 16.378 18.6886 16.2047C18.6106 16.0225 18.5761 15.8408 18.5761 15.6414C18.5761 15.442 18.6194 15.2515 18.6886 15.0781C18.7667 14.9048 18.8796 14.7486 19.0181 14.6101L19.798 13.8386C19.7808 13.8126 19.772 13.7866 19.7636 13.7518C19.7027 13.6044 19.6334 13.4483 19.5726 13.2838C19.5117 13.1188 19.4513 12.9631 19.408 12.7985L19.3904 12.7289H18.446C18.2462 12.7289 18.0557 12.6945 17.8823 12.6164C17.709 12.5471 17.5533 12.4342 17.4143 12.2957L17.4055 12.2869C17.267 12.1484 17.1629 11.9922 17.0937 11.8189C17.0244 11.6456 16.9808 11.455 16.9808 11.2644V9.37523C16.9808 9.17586 17.0156 8.9937 17.0848 8.81195C17.1541 8.63861 17.267 8.48289 17.4055 8.33514C17.5444 8.19663 17.709 8.08372 17.8823 8.01447C18.0557 7.94479 18.2462 7.91037 18.446 7.91037H19.5554C19.5642 7.88435 19.5814 7.84951 19.5902 7.82391C19.6511 7.66777 19.7203 7.51163 19.7896 7.35591C19.8677 7.19096 19.9369 7.03524 20.015 6.89631L20.041 6.84426L19.3736 6.16849C19.2347 6.02998 19.1222 5.87384 19.053 5.69168C18.9749 5.50952 18.9401 5.31896 18.9401 5.1284C18.9401 4.92861 18.9749 4.74687 19.053 4.56513C19.131 4.38296 19.2347 4.22682 19.3736 4.08831L20.6912 2.76239V2.75399C20.8301 2.61548 20.9858 2.51139 21.1592 2.43332C21.3413 2.35525 21.5231 2.32041 21.7224 2.32041C21.9222 2.32041 22.1128 2.36364 22.2857 2.43332C22.4591 2.51139 22.6152 2.61548 22.7453 2.76239L23.5336 3.54224C23.56 3.53343 23.586 3.51622 23.6033 3.50783C23.7506 3.43815 23.9067 3.37771 24.0713 3.30845C24.2274 3.24759 24.3919 3.19555 24.5565 3.14392C24.5825 3.13511 24.5997 3.12629 24.6257 3.12629V2.1819C24.6257 1.98253 24.6606 1.79197 24.7386 1.61862C24.8083 1.44527 24.9208 1.28955 25.0593 1.15062L25.0681 1.14181C25.207 1.0033 25.3628 0.899204 25.5361 0.829948C25.7095 0.760693 25.8996 0.717041 26.0902 0.717041H27.9794C28.1787 0.717041 28.3605 0.751879 28.5426 0.821134C28.7248 0.89039 28.8814 1.0033 29.0199 1.14181C29.1584 1.28032 29.2709 1.44527 29.3405 1.61862C29.4094 1.79197 29.4446 1.98253 29.4446 2.1819V3.29125C29.4702 3.30006 29.5055 3.31727 29.5307 3.32608C29.6872 3.38694 29.843 3.4562 29.9987 3.52545C30.1636 3.60352 30.3194 3.67278 30.4587 3.75085L30.5103 3.77687L31.1865 3.1095C31.325 2.97057 31.4807 2.85808 31.6629 2.78883C31.8451 2.71076 32.036 2.67592 32.2262 2.67592C32.4264 2.67592 32.6081 2.71076 32.7903 2.78883V2.80604ZM26.8008 6.31582C27.087 6.31582 27.3728 6.34226 27.6499 6.4027C27.9189 6.45475 28.1875 6.54121 28.4558 6.65412C28.7076 6.76703 28.9502 6.89673 29.1756 7.04405C29.401 7.19138 29.6092 7.36472 29.7993 7.55528C29.9903 7.74626 30.1632 7.95403 30.311 8.18823C30.4667 8.41363 30.5972 8.65581 30.7013 8.90723C30.7097 8.92486 30.7097 8.94207 30.7185 8.95046C30.8226 9.20188 30.9007 9.46212 30.9523 9.71311C31.0048 9.99056 31.0392 10.2764 31.0392 10.5622C31.0392 10.8481 31.0127 11.1343 30.9523 11.4118C30.9007 11.6804 30.8138 11.949 30.7013 12.2176C30.588 12.4691 30.4587 12.7117 30.311 12.9371C30.1552 13.1625 29.9903 13.3702 29.7993 13.5696C29.6092 13.7606 29.401 13.9339 29.1664 14.0812C28.9418 14.2374 28.6984 14.3671 28.4474 14.4712C28.4301 14.48 28.4129 14.48 28.4037 14.4884C28.1519 14.5925 27.8921 14.6705 27.6415 14.7226C27.3636 14.7746 27.0774 14.8095 26.7924 14.8095C26.5061 14.8095 26.2203 14.7835 25.9428 14.7226C25.6742 14.6705 25.4052 14.5837 25.1365 14.4712C24.8851 14.3583 24.6425 14.2282 24.4171 14.0812C24.1917 13.9339 23.9839 13.7606 23.7934 13.5696C23.6028 13.379 23.4295 13.1708 23.2817 12.9371C23.126 12.7117 22.9959 12.4691 22.8918 12.2176C22.883 12.2004 22.883 12.1828 22.8742 12.1744C22.7701 11.923 22.692 11.6632 22.6404 11.4118C22.5883 11.1343 22.5535 10.8485 22.5535 10.5622C22.5535 10.276 22.5795 9.99014 22.6404 9.71311C22.6924 9.44449 22.7789 9.17586 22.8918 8.90723C23.0043 8.65581 23.1344 8.41321 23.2817 8.18823C23.4295 7.96284 23.6028 7.75465 23.7934 7.55528C23.9839 7.36472 24.1921 7.19138 24.4171 7.04405C24.6425 6.88791 24.8851 6.7578 25.1365 6.65412C25.1542 6.64531 25.1714 6.64531 25.1802 6.63649C25.4316 6.5324 25.6914 6.45475 25.9428 6.4027C26.2203 6.35066 26.5061 6.31582 26.7924 6.31582H26.8008ZM27.4337 7.49442C27.2343 7.45119 27.0173 7.43356 26.8008 7.43356C26.5842 7.43356 26.3764 7.45119 26.1682 7.49442C25.9688 7.53765 25.7871 7.5897 25.6138 7.65938C25.6049 7.66819 25.5961 7.66819 25.5789 7.67658C25.3795 7.76347 25.1974 7.85875 25.0329 7.97124C24.8683 8.08372 24.7122 8.20544 24.5737 8.34395C24.4347 8.48289 24.305 8.63861 24.2009 8.80356C24.088 8.96809 23.9928 9.15026 23.9063 9.34963C23.8278 9.53179 23.7674 9.73074 23.7241 9.93893C23.6809 10.1383 23.6633 10.3549 23.6633 10.5715C23.6633 10.788 23.6809 10.9958 23.7241 11.204C23.7678 11.4034 23.8198 11.5851 23.8887 11.7585C23.8975 11.7673 23.8975 11.7757 23.9063 11.7933C23.9928 11.9927 24.0885 12.1744 24.2009 12.3394C24.3134 12.5043 24.4347 12.66 24.5737 12.7985C24.7122 12.9375 24.8683 13.0672 25.0329 13.1713C25.1974 13.2842 25.3795 13.3795 25.5789 13.4659C25.7611 13.544 25.9605 13.6044 26.1682 13.6481C26.368 13.6917 26.5846 13.7089 26.8008 13.7089C27.0169 13.7089 27.2255 13.6917 27.4337 13.6481C27.6331 13.6044 27.8148 13.5528 27.9886 13.4835C27.997 13.4747 28.0058 13.4747 28.023 13.4659C28.2224 13.379 28.4041 13.2838 28.5691 13.1713C28.734 13.0588 28.8898 12.9375 29.0283 12.7985C29.1668 12.6596 29.2973 12.5039 29.4014 12.3394C29.5139 12.1744 29.6096 11.9927 29.6956 11.7933C29.7737 11.6111 29.8341 11.4118 29.8778 11.204C29.9214 11.0046 29.9387 10.788 29.9387 10.5715C29.9387 10.3549 29.9214 10.1467 29.8778 9.93893C29.8341 9.73956 29.7825 9.55739 29.7128 9.38405C29.7044 9.37523 29.7044 9.36684 29.6956 9.34921C29.6096 9.14984 29.5135 8.96767 29.4014 8.80314C29.2881 8.63819 29.1668 8.48247 29.0283 8.34354C28.8898 8.20502 28.734 8.07491 28.5691 7.97081C28.4041 7.85791 28.2224 7.76263 28.023 7.67616C27.8413 7.59893 27.6419 7.53765 27.4337 7.49442ZM0.482422 21.5134H10.9047V40.0567H0.482422V21.5134Z" fill="#029894"/>
</g>
<defs>
<clipPath id="clip0_96_24937">
<rect width="51.5764" height="43.16" fill="white" transform="translate(0.482422 0.717041)"/>
</clipPath>
</defs>
</svg>
