<svg width="44" height="44" viewBox="0 0 44 44" fill="none" xmlns="http://www.w3.org/2000/svg">
<g clip-path="url(#clip0_96_24966)">
<path d="M27.9749 38.0987H23.4188V34.1396H20.1249V38.0987H15.5689C14.6593 38.0987 13.9219 38.8361 13.9219 39.7456C13.9219 40.6552 14.6593 41.3926 15.5689 41.3926H27.9748C28.8844 41.3926 29.6218 40.6552 29.6218 39.7456C29.6218 38.8361 28.8845 38.0987 27.9749 38.0987Z" fill="#029894"/>
<path d="M24.8457 28.6779H18.697H0.191406V30.6453C0.191406 31.3614 0.773982 31.944 1.49008 31.944H42.0527C42.7688 31.944 43.3514 31.3614 43.3514 30.6453V28.6779H24.8457Z" fill="#029894"/>
<path d="M42.0526 2.61621H1.49008C0.773982 2.61621 0.191406 3.19879 0.191406 3.91489V26.4816H3.22854C3.42267 16.4214 11.6656 8.29715 21.7713 8.29715C25.2603 8.29715 28.527 9.26614 31.3175 10.9482L32.4068 9.46011C32.765 8.97093 33.452 8.86455 33.9413 9.22273C34.4307 9.58099 34.537 10.268 34.1787 10.7574L33.1287 12.1917C37.4112 15.5185 40.2022 20.6777 40.3141 26.4816H43.3512V3.91489C43.3513 3.19879 42.7687 2.61621 42.0526 2.61621Z" fill="#029894"/>
<path d="M31.067 25.302C30.6799 22.9618 29.4625 20.9523 27.7452 19.5479L24.4746 24.0158C25.0144 24.4758 25.4362 25.0701 25.6868 25.7471H31.2469C31.1574 25.618 31.0944 25.4673 31.067 25.302Z" fill="#029894"/>
<path d="M21.7716 17.4238C19.0732 17.4238 16.6213 18.5503 14.8941 20.3924C14.8861 20.4044 14.8792 20.4167 14.8706 20.4284C14.8137 20.5066 14.7482 20.5743 14.6767 20.6328C13.5564 21.9137 12.773 23.5106 12.4767 25.3015C12.4494 25.4668 12.3863 25.6175 12.2969 25.7467H17.857C18.4458 24.1555 19.9783 23.0181 21.7715 23.0181C21.9999 23.0181 22.2238 23.0373 22.4423 23.0728L25.8899 18.363C24.642 17.7598 23.2436 17.4238 21.7716 17.4238Z" fill="#029894"/>
<path d="M38.0861 25.7474C37.768 20.9699 35.3886 16.7477 31.8319 13.9639L29.0332 17.7871C29.1296 17.8645 29.2262 17.9416 29.3203 18.0222C31.3992 19.8033 32.7885 22.2614 33.2323 24.9437C33.2807 25.2366 33.2086 25.5214 33.0521 25.7474H38.0861Z" fill="#029894"/>
<path d="M10.3108 24.9435C10.6081 23.1462 11.3318 21.4505 12.4014 19.9908L8.58343 17.2144C8.57939 17.2115 8.57585 17.208 8.57188 17.2051C6.79406 19.6328 5.6687 22.5669 5.45703 25.7473H10.4909C10.3344 25.5211 10.2624 25.2364 10.3108 24.9435Z" fill="#029894"/>
<path d="M9.98828 15.5206L13.8666 18.3408C13.9831 18.2324 14.1015 18.1257 14.2228 18.0219C16.0458 16.4602 18.3037 15.508 20.6741 15.2819V10.5312C16.4877 10.8102 12.7278 12.6711 9.98828 15.5206Z" fill="#029894"/>
<path d="M22.8691 10.5311V15.2818C24.3862 15.4262 25.8572 15.8676 27.1974 16.5769L30.0146 12.7282C27.8903 11.4831 25.4614 10.7039 22.8691 10.5311Z" fill="#029894"/>
</g>
<defs>
<clipPath id="clip0_96_24966">
<rect width="43.16" height="43.16" fill="white" transform="translate(0.191406 0.424805)"/>
</clipPath>
</defs>
</svg>
