<svg width="50" height="44" viewBox="0 0 50 44" fill="none" xmlns="http://www.w3.org/2000/svg">
<g clip-path="url(#clip0_96_24899)">
<path fill-rule="evenodd" clip-rule="evenodd" d="M3.35574 0.312622H46.2012C48.0489 0.312622 49.5569 1.82062 49.5569 3.66836V40.1169C49.5569 41.9598 48.0489 43.4726 46.2012 43.4726H3.35574C1.50897 43.4726 0 41.9636 0 40.1169V3.66836C0 1.82062 1.50897 0.312622 3.35574 0.312622ZM6.74051 11.5171H42.8164C43.7291 11.5171 44.4744 12.2663 44.4744 13.1752V30.793C44.4744 31.7019 43.7243 32.451 42.8164 32.451H6.74051C5.83165 32.451 5.08152 31.7038 5.08152 30.793V13.1752C5.08152 12.2644 5.82778 11.5171 6.74051 11.5171ZM24.7775 14.175C29.0905 14.175 32.5866 17.6711 32.5866 21.9841C32.5866 26.2971 29.0905 29.7932 24.7775 29.7932C20.4655 29.7932 16.9694 26.2971 16.9694 21.9841C16.9694 17.6711 20.4655 14.175 24.7775 14.175ZM24.339 17.6924V15.6743C23.646 16.2909 22.9849 16.9616 22.4119 17.6924H24.339ZM30.8076 25.394C31.3254 24.4648 31.6293 23.4872 31.6874 22.4196H29.7767C29.7235 23.4737 29.4002 24.4697 28.8959 25.3931L30.8076 25.394ZM30.2268 26.2758H28.351C27.6996 27.2127 26.8846 28.0471 26.0261 28.7953C27.6919 28.4904 29.1718 27.6009 30.2268 26.2758ZM23.5337 28.7933C22.6742 28.049 21.8612 27.2098 21.2098 26.2758H19.3388C20.4064 27.6173 21.8728 28.4865 23.5337 28.7933ZM18.7484 25.3979H20.66C20.1586 24.4784 19.8315 23.4747 19.7792 22.4235H17.8695C17.9353 23.5066 18.2247 24.4542 18.7484 25.3979ZM17.8676 21.5456H19.7976C19.8905 20.4896 20.2525 19.4917 20.7684 18.5712H18.7484C18.2286 19.5043 17.9257 20.4848 17.8676 21.5456ZM19.3301 17.6924H21.325C21.9773 16.7632 22.7662 15.9221 23.6024 15.1574C21.8999 15.4536 20.4083 16.3431 19.3301 17.6924ZM25.9603 15.1632C26.7975 15.926 27.5835 16.7632 28.231 17.6924H30.222C29.1524 16.3528 27.6522 15.4536 25.9603 15.1632ZM30.8066 18.5712H28.7875C29.3025 19.4888 29.6654 20.4925 29.7583 21.5456H31.6864C31.6148 20.4645 31.338 19.5121 30.8066 18.5712ZM25.2169 15.6743V17.6924H27.144C26.571 16.9616 25.9109 16.2909 25.2169 15.6743ZM25.2169 18.5712V21.5456H28.8785C28.7672 20.4751 28.3394 19.4733 27.7664 18.5712H25.2169ZM25.2169 22.4235V25.3979H27.8816C28.4497 24.49 28.833 23.4998 28.8979 22.4235H25.2169ZM25.2169 26.2758V28.3316C25.9554 27.7093 26.6552 27.0317 27.2573 26.2758H25.2169ZM24.339 28.3316V26.2758H22.2977C22.8959 27.0317 23.6005 27.7131 24.339 28.3316ZM24.339 25.3979V22.4235H20.6581C20.7239 23.4998 21.1081 24.4881 21.6744 25.3979H24.339ZM24.339 21.5456V18.5712H21.7886C21.2156 19.4733 20.7887 20.4751 20.6774 21.5456H24.339ZM47.5766 8.41885H2.13327V40.444C2.13263 40.566 2.15617 40.6869 2.20255 40.7996C2.24892 40.9124 2.31719 41.0149 2.40343 41.1011C2.48966 41.1874 2.59213 41.2556 2.70492 41.302C2.81771 41.3484 2.93858 41.3719 3.06053 41.3713H46.6329C47.1488 41.3713 47.5611 40.9561 47.5611 40.4431V8.41885H47.5766ZM43.0071 3.22409C43.9227 3.22409 44.6651 3.96648 44.6651 4.88212C44.6651 5.79776 43.9227 6.53918 43.0071 6.53918C42.0924 6.53918 41.35 5.79776 41.35 4.88212C41.35 3.96648 42.0963 3.22409 43.0071 3.22409ZM31.7793 3.22409C32.695 3.22409 33.4374 3.96648 33.4374 4.88212C33.4374 5.79776 32.695 6.53918 31.7793 6.53918C30.8637 6.53918 30.1223 5.79776 30.1223 4.88212C30.1223 3.96648 30.8637 3.22409 31.7793 3.22409ZM37.3932 3.22409C38.3088 3.22409 39.0512 3.96648 39.0512 4.88212C39.0512 5.79776 38.3088 6.53918 37.3932 6.53918C36.4785 6.53918 35.7361 5.79776 35.7361 4.88212C35.7361 3.96648 36.4785 3.22409 37.3932 3.22409ZM26.9688 38.152C26.2506 38.152 25.6699 37.519 25.6699 36.7408C25.6699 35.9587 26.2506 35.3296 26.9688 35.3296H42.9587C43.6769 35.3296 44.2576 35.9626 44.2576 36.7408C44.2576 37.519 43.6769 38.152 42.9587 38.152H26.9688ZM6.03297 38.152C5.3235 38.152 4.74662 37.519 4.74662 36.7408C4.74662 35.9587 5.3235 35.3296 6.03297 35.3296H20.8584C21.5679 35.3296 22.1448 35.9626 22.1448 36.7408C22.1448 37.519 21.5679 38.152 20.8584 38.152H6.03297Z" fill="#029894"/>
</g>
<defs>
<clipPath id="clip0_96_24899">
<rect width="49.5569" height="43.16" fill="white" transform="translate(0 0.312622)"/>
</clipPath>
</defs>
</svg>
