<svg width="42" height="44" viewBox="0 0 42 44" fill="none" xmlns="http://www.w3.org/2000/svg">
<g clip-path="url(#clip0_96_24944)">
<path fill-rule="evenodd" clip-rule="evenodd" d="M2.87236 0.826904H38.6072C39.6188 0.826904 40.4442 1.65582 40.4442 2.66387V12.6425C40.4442 13.6541 39.6153 14.4795 38.6072 14.4795H33.2438V16.3586H38.6072C39.6188 16.3586 40.4442 17.1875 40.4442 18.1956V28.1742C40.4442 29.1858 39.6153 30.0112 38.6072 30.0112H33.2438V35.343H36.001V38.0932H41.4487V41.2543H36.001V43.9799H27.329V41.2543H14.7196V43.9799H6.04755V41.2543H0.0273438V38.0932H6.04755V35.343H8.80124V30.0182H2.87236C1.8608 30.0182 1.03539 29.1893 1.03539 28.1812V18.1991C1.03539 17.1875 1.8608 16.3621 2.87236 16.3621H8.80124V14.483H2.87236C1.8608 14.483 1.03539 13.6541 1.03539 12.646V2.66739C1.03188 1.65231 1.8608 0.826904 2.87236 0.826904ZM5.59445 20.4716H7.69485V25.9052H5.59445V20.4716ZM34.4451 5.99009C35.3653 5.99009 36.1099 6.73471 36.1099 7.65495C36.1099 8.57519 35.3653 9.31981 34.4451 9.31981C33.5248 9.31981 32.7802 8.57519 32.7802 7.65495C32.7802 6.73471 33.5248 5.99009 34.4451 5.99009ZM28.1052 5.99009C29.0255 5.99009 29.7701 6.73471 29.7701 7.65495C29.7701 8.57519 29.0255 9.31981 28.1052 9.31981C27.185 9.31981 26.4404 8.57519 26.4404 7.65495C26.4404 6.73471 27.1885 5.99009 28.1052 5.99009ZM17.1993 4.93638H19.2997V10.37H17.1993V4.93638ZM11.3969 4.93638H13.4973V10.37H11.3969V4.93638ZM5.59445 4.93638H7.69485V10.37H5.59445V4.93638ZM34.4451 21.5253C35.3653 21.5253 36.1099 22.2699 36.1099 23.1902C36.1099 24.1104 35.3653 24.855 34.4451 24.855C33.5248 24.855 32.7802 24.1104 32.7802 23.1902C32.7802 22.2699 33.5248 21.5253 34.4451 21.5253ZM28.1052 21.5253C29.0255 21.5253 29.7701 22.2699 29.7701 23.1902C29.7701 24.1104 29.0255 24.855 28.1052 24.855C27.185 24.855 26.4404 24.1104 26.4404 23.1902C26.4404 22.2699 27.1885 21.5253 28.1052 21.5253ZM17.1993 20.4716H19.2997V25.9052H17.1993V20.4716ZM11.3969 20.4716H13.4973V25.9052H11.3969V20.4716ZM31.6633 37.6998C32.7521 37.6998 33.6337 38.5814 33.6337 39.6702C33.6337 40.759 32.7521 41.6406 31.6633 41.6406C30.5744 41.6406 29.6928 40.759 29.6928 39.6702C29.6928 38.5814 30.5779 37.6998 31.6633 37.6998ZM10.3818 37.6998C11.4706 37.6998 12.3523 38.5814 12.3523 39.6702C12.3523 40.759 11.4706 41.6406 10.3818 41.6406C9.29298 41.6406 8.41137 40.759 8.41137 39.6702C8.41137 38.5814 9.29649 37.6998 10.3818 37.6998ZM14.7196 38.1002H27.329V35.35H30.0827V30.0182H11.9624V35.35H14.7196V38.1002ZM11.9624 16.3621H30.0827V14.483H11.9624V16.3621Z" fill="#029894"/>
</g>
<defs>
<clipPath id="clip0_96_24944">
<rect width="41.4214" height="43.16" fill="white" transform="translate(0.0273438 0.826904)"/>
</clipPath>
</defs>
</svg>
