<svg width="44" height="44" viewBox="0 0 44 44" fill="none" xmlns="http://www.w3.org/2000/svg">
<path d="M4.38848 28.9238C3.27015 30.4431 2.74973 32.3207 2.92635 34.1989C3.10296 36.0771 3.96426 37.8248 5.34621 39.1089C6.72815 40.3931 8.53417 41.1241 10.4203 41.1627C12.3064 41.2013 14.1408 40.5448 15.5741 39.3182C12.9019 38.8584 10.4214 37.6307 8.4351 35.7849C6.44884 33.9392 5.04277 31.5552 4.38848 28.9238Z" fill="#029894"/>
<path d="M9.39928 17.8455C7.43432 20.0191 6.37238 22.8603 6.42996 25.7898C6.48754 28.7194 7.66031 31.5167 9.70915 33.6114C11.758 35.7061 14.5287 36.9405 17.4562 37.063C20.3838 37.1854 23.2478 36.1866 25.4644 34.2702C21.2107 34.0576 17.1938 32.2482 14.2157 29.2035C11.2377 26.1588 9.51772 22.1028 9.39928 17.8455Z" fill="#029894"/>
<path d="M26.304 2.82397C29.1764 2.82398 31.9842 3.67528 34.373 5.27034C36.7617 6.86539 38.6242 9.13263 39.725 11.7856C40.8258 14.4387 41.1157 17.3584 40.5579 20.1761C40.0002 22.9937 38.6198 25.5829 36.5913 27.6164C34.5628 29.65 31.977 31.0367 29.1608 31.6014C26.3445 32.1662 23.424 31.8835 20.7683 30.7893C18.1126 29.695 15.8407 27.8382 14.2398 25.4534C12.6388 23.0686 11.7806 20.2628 11.7735 17.3905C11.7688 15.4793 12.1411 13.5859 12.8692 11.8188C13.5973 10.0518 14.6669 8.44567 16.0166 7.09258C17.3664 5.73948 18.9698 4.66595 20.7351 3.93348C22.5004 3.201 24.3928 2.82397 26.304 2.82397Z" fill="#029894"/>
</svg>
