<svg width="44" height="44" viewBox="0 0 44 44" fill="none" xmlns="http://www.w3.org/2000/svg">
<path d="M32.523 13.9134C32.5586 14.3409 32.5766 14.5547 32.687 14.6697C32.7975 14.7847 33.0176 14.8121 33.4578 14.8669C37.007 15.3086 39.7538 18.3359 39.7538 22.0048C39.7538 25.9775 36.5331 29.1982 32.5604 29.1982H31.6613C31.2374 29.1982 31.0254 29.1982 30.8937 29.0665C30.7621 28.9349 30.7621 28.7229 30.7621 28.299V25.6015C30.7621 22.2105 30.7621 20.5151 29.7086 19.4616C28.6552 18.4082 26.9597 18.4082 23.5688 18.4082H19.9721C16.5811 18.4082 14.8857 18.4082 13.8322 19.4616C12.7788 20.5151 12.7788 22.2105 12.7788 25.6015V28.299C12.7788 28.7229 12.7788 28.9349 12.6471 29.0665C12.5154 29.1982 12.3035 29.1982 11.8796 29.1982H10.9804C7.00767 29.1982 3.78711 25.9775 3.78711 22.0048C3.78711 18.3359 6.53381 15.3086 10.0831 14.8669C10.5233 14.8121 10.7434 14.7847 10.8538 14.6697C10.9643 14.5547 10.9822 14.3409 11.0179 13.9134C11.0516 13.5092 11.1083 13.1062 11.1878 12.7065C11.5107 11.0832 12.2026 9.556 13.2102 8.24295C14.2177 6.92991 15.5138 5.86623 16.9982 5.13422C18.4825 4.40221 20.1154 4.02148 21.7704 4.02148C23.4254 4.02148 25.0583 4.40221 26.5427 5.13422C28.027 5.86623 29.3233 6.92991 30.3307 8.24295C31.3383 9.55598 32.0303 11.0832 32.3531 12.7065C32.4326 13.1062 32.4892 13.5092 32.523 13.9134Z" fill="#029894"/>
<path fill-rule="evenodd" clip-rule="evenodd" d="M15.6316 21.2605C14.5781 22.314 14.5781 24.0094 14.5781 27.4004V30.997C14.5781 34.388 14.5781 36.0834 15.6316 37.1369C16.685 38.1904 18.3805 38.1904 21.7715 38.1904C25.1624 38.1904 26.8579 38.1904 27.9113 37.1369C28.9648 36.0834 28.9648 34.388 28.9648 30.997V27.4004C28.9648 24.0094 28.9648 22.314 27.9113 21.2605C26.8579 20.207 25.1624 20.207 21.7715 20.207C18.3805 20.207 16.685 20.207 15.6316 21.2605ZM20.8723 27.4004C19.8791 27.4004 19.074 28.2055 19.074 29.1987C19.074 30.1919 19.8791 30.997 20.8723 30.997H22.6706C23.6638 30.997 24.469 30.1919 24.469 29.1987C24.469 28.2055 23.6638 27.4004 22.6706 27.4004H20.8723Z" fill="#029894"/>
</svg>
