<svg width="45" height="44" viewBox="0 0 45 44" fill="none" xmlns="http://www.w3.org/2000/svg">
<path d="M16.1606 3.75C13.1811 3.75 10.7656 6.16543 10.7656 9.145C10.7656 12.1246 13.1811 14.54 16.1606 14.54H28.749C31.7286 14.54 34.144 12.1246 34.144 9.145C34.144 6.16543 31.7286 3.75 28.749 3.75H16.1606Z" fill="#029894"/>
<path d="M28.7485 16.3398C25.7689 16.3398 23.3535 18.7552 23.3535 21.7348C23.3535 24.7145 25.7689 27.1298 28.7485 27.1298C31.7282 27.1298 34.1435 24.7145 34.1435 21.7348C34.1435 18.7552 31.7282 16.3398 28.7485 16.3398Z" fill="#029894"/>
<path d="M10.7656 21.7348C10.7656 18.7552 13.1811 16.3398 16.1606 16.3398H21.5556V27.1298H16.1606C13.1811 27.1298 10.7656 24.7145 10.7656 21.7348Z" fill="#029894"/>
<path d="M16.1606 28.9276C13.1811 28.9276 10.7656 31.343 10.7656 34.3226C10.7656 37.3023 13.1811 39.7176 16.1606 39.7176C19.1403 39.7176 21.5556 37.3023 21.5556 34.3226V28.9276H16.1606Z" fill="#029894"/>
</svg>
