<svg width="45" height="44" viewBox="0 0 45 44" fill="none" xmlns="http://www.w3.org/2000/svg">
<path d="M15.7127 19.0363C15.712 17.9139 15.9914 16.8089 16.5257 15.8218C17.06 14.8346 17.8322 13.9964 18.7724 13.3832C19.7125 12.77 20.7909 12.4012 21.9097 12.3102C23.0285 12.2191 24.1523 12.4088 25.1792 12.862C26.2061 13.3152 27.1037 14.0176 27.7905 14.9054C28.4773 15.7932 28.9317 16.8385 29.1123 17.9463C29.293 19.0541 29.1942 20.1896 28.8251 21.2496C28.4559 22.3096 27.828 23.2608 26.9983 24.0167C29.4016 25.0528 31.3778 26.8807 32.5978 29.1961C32.7065 29.4016 32.7601 29.6317 32.7536 29.8641C32.7471 30.0965 32.6806 30.3233 32.5607 30.5224C32.4407 30.7216 32.2713 30.8863 32.0688 31.0007C31.8664 31.115 31.6379 31.1751 31.4054 31.1751H13.5076C13.2751 31.1751 13.0466 31.115 12.8441 31.0007C12.6417 30.8863 12.4723 30.7216 12.3523 30.5224C12.2323 30.3233 12.1658 30.0965 12.1593 29.8641C12.1528 29.6317 12.2065 29.4016 12.3152 29.1961C13.5352 26.8807 15.5113 25.0528 17.9147 24.0167C17.2208 23.3859 16.6665 22.617 16.2873 21.7593C15.9081 20.9016 15.7124 19.9741 15.7127 19.0363ZM7.62023 14.3157C7.97794 14.3157 8.321 14.1736 8.57394 13.9207C8.82688 13.6677 8.96898 13.3247 8.96898 12.967V8.24633H13.6896C14.0473 8.24633 14.3904 8.10423 14.6433 7.85129C14.8963 7.59835 15.0384 7.25529 15.0384 6.89758C15.0384 6.53987 14.8963 6.19681 14.6433 5.94387C14.3904 5.69093 14.0473 5.54883 13.6896 5.54883H8.96898C8.25381 5.54965 7.56817 5.83411 7.06247 6.33981C6.55677 6.84551 6.2723 7.53116 6.27148 8.24633V12.967C6.27149 13.3247 6.41359 13.6677 6.66653 13.9207C6.91947 14.1736 7.26252 14.3157 7.62023 14.3157ZM37.2927 29.152C36.935 29.152 36.592 29.2941 36.339 29.547C36.0861 29.7999 35.944 30.143 35.944 30.5007V35.2213H31.2234C30.8656 35.2213 30.5226 35.3634 30.2696 35.6164C30.0167 35.8693 29.8746 36.2124 29.8746 36.5701C29.8746 36.9278 30.0167 37.2708 30.2696 37.5238C30.5226 37.7767 30.8656 37.9188 31.2234 37.9188H35.944C36.6592 37.918 37.3448 37.6335 37.8505 37.1278C38.3562 36.6221 38.6407 35.9365 38.6415 35.2213V30.5007C38.6415 30.143 38.4994 29.7999 38.2464 29.547C37.9935 29.2941 37.6504 29.152 37.2927 29.152ZM35.944 5.54883H31.2234C30.8656 5.54883 30.5226 5.69093 30.2696 5.94387C30.0167 6.19681 29.8746 6.53987 29.8746 6.89758C29.8746 7.25529 30.0167 7.59835 30.2696 7.85129C30.5226 8.10423 30.8656 8.24633 31.2234 8.24633H35.944V12.967C35.944 13.3247 36.0861 13.6677 36.339 13.9207C36.592 14.1736 36.935 14.3157 37.2927 14.3157C37.6504 14.3157 37.9935 14.1736 38.2464 13.9207C38.4994 13.6677 38.6415 13.3247 38.6415 12.967V8.24633C38.6407 7.53116 38.3562 6.84551 37.8505 6.33981C37.3448 5.83411 36.6592 5.54965 35.944 5.54883ZM13.6896 35.2213H8.96898V30.5007C8.96898 30.143 8.82688 29.7999 8.57394 29.547C8.321 29.2941 7.97795 29.152 7.62023 29.152C7.26252 29.152 6.91946 29.2941 6.66652 29.547C6.41358 29.7999 6.27148 30.143 6.27148 30.5007V35.2213C6.2723 35.9365 6.55677 36.6221 7.06247 37.1278C7.56817 37.6335 8.25381 37.918 8.96898 37.9188H13.6896C14.0473 37.9188 14.3904 37.7767 14.6433 37.5238C14.8963 37.2708 15.0384 36.9278 15.0384 36.5701C15.0384 36.2124 14.8963 35.8693 14.6433 35.6164C14.3904 35.3634 14.0473 35.2213 13.6896 35.2213Z" fill="#029894"/>
</svg>
