<svg width="44" height="44" viewBox="0 0 44 44" fill="none" xmlns="http://www.w3.org/2000/svg">
<g clip-path="url(#clip0_96_40267)">
<path d="M20.4227 13.9128H23.1202V16.6103H20.4227V13.9128ZM8.95828 13.9128C8.58603 13.9128 8.28391 14.2149 8.28391 14.5872C8.28391 14.9594 8.58603 15.2616 8.95828 15.2616C9.33054 15.2616 9.63266 14.9594 9.63266 14.5872C9.63266 14.2149 9.33054 13.9128 8.95828 13.9128ZM29.1895 39.5391H27.1664V36.8416H16.3764V39.5391H14.3533C13.981 39.5391 13.6789 39.8412 13.6789 40.2134C13.6789 40.5857 13.981 40.8878 14.3533 40.8878H29.1895C29.5618 40.8878 29.8639 40.5857 29.8639 40.2134C29.8639 39.8412 29.5618 39.5391 29.1895 39.5391ZM43.3514 9.86656V31.4466C43.3514 33.6814 41.54 35.4928 39.3052 35.4928H4.23766C2.00278 35.4928 0.191406 33.6814 0.191406 31.4466V9.86656C0.191406 7.63168 2.00278 5.82031 4.23766 5.82031H39.3052C41.54 5.82031 43.3514 7.63168 43.3514 9.86656ZM36.5618 14.1475C36.3999 13.376 35.7701 12.7583 34.9972 12.6045C33.9425 12.3968 33.0078 13.0092 32.6868 13.9128H24.4689V12.5641H19.0739V13.9128H10.8573C10.5363 13.0092 9.60029 12.3968 8.54691 12.6045C7.77408 12.7569 7.14421 13.376 6.98236 14.1475C6.70587 15.4571 7.6972 16.6103 8.95828 16.6103C9.83767 16.6103 10.5795 16.0452 10.8573 15.2616H19.0739V15.5637C13.1556 16.7735 8.62784 21.8462 8.30279 28.0342C8.28256 28.4213 8.59007 28.7491 8.97851 28.7491C9.33323 28.7491 9.63131 28.4739 9.64884 28.1192C9.93073 22.6365 13.8758 18.125 19.0739 16.9394V17.9591H24.4689V16.9381C29.667 18.125 33.6121 22.6365 33.894 28.1178C33.9129 28.4739 34.2096 28.7491 34.5643 28.7491C34.9527 28.7491 35.2603 28.4213 35.24 28.0342C34.915 21.8462 30.3872 16.7735 24.4689 15.5637V15.2616H32.6855C32.9647 16.0452 33.7051 16.6103 34.5845 16.6103C35.8456 16.6103 36.8369 15.4571 36.5618 14.1475ZM34.5845 13.9128C34.2123 13.9128 33.9102 14.2149 33.9102 14.5872C33.9102 14.9594 34.2123 15.2616 34.5845 15.2616C34.9568 15.2616 35.2589 14.9594 35.2589 14.5872C35.2589 14.2149 34.9568 13.9128 34.5845 13.9128Z" fill="#029894"/>
</g>
<defs>
<clipPath id="clip0_96_40267">
<rect width="43.16" height="43.16" fill="white" transform="translate(0.191406 0.425781)"/>
</clipPath>
</defs>
</svg>
