<svg width="222" height="245" fill="none" xmlns="http://www.w3.org/2000/svg"><path style="mix-blend-mode:multiply" d="M180.708 170.658c47.38 14.386 54.687 40.446 16.318 58.208-38.369 17.761-107.887 20.502-155.272 6.116-47.385-14.385-54.687-40.442-16.318-58.203 38.37-17.762 107.887-20.502 155.272-6.121Z" fill="url(#a)"/><path d="M108.619 204.441c-22.787 0-44.286-2.868-62.17-8.295-25.13-7.63-39.555-19.413-40.618-33.175-.523-6.779 2.098-19.767 25.51-30.611 19.176-8.877 47.385-13.966 77.388-13.966 22.791 0 44.29 2.872 62.175 8.3 25.129 7.625 39.555 19.409 40.618 33.174.523 6.779-2.098 19.767-25.514 30.607-19.173 8.877-47.381 13.966-77.389 13.966Z" fill="#001C63" style="mix-blend-mode:multiply" opacity=".2"/><path d="M168.494 133.727c40.794 12.383 47.087 34.822 14.05 50.116-33.038 15.293-92.89 17.649-133.704 5.266-40.814-12.384-47.086-34.822-14.049-50.112 33.038-15.291 92.906-17.654 133.703-5.27Z" fill="#001C63" style="mix-blend-mode:multiply"/><g style="mix-blend-mode:multiply"><path d="M156.318 139.362c32.49 9.866 37.503 27.736 11.191 39.915-26.311 12.18-73.994 14.058-106.476 4.215-32.481-9.843-37.502-27.716-11.19-39.915 26.31-12.198 73.982-14.077 106.475-4.215Z" fill="url(#b)"/><path d="M156.318 139.362c32.49 9.866 37.503 27.736 11.191 39.915-26.311 12.18-73.994 14.058-106.476 4.215-32.481-9.843-37.502-27.716-11.19-39.915 26.31-12.198 73.982-14.077 106.475-4.215Z" fill="url(#c)"/><path d="M156.318 139.362c32.49 9.866 37.503 27.736 11.191 39.915-26.311 12.18-73.994 14.058-106.476 4.215-32.481-9.843-37.502-27.716-11.19-39.915 26.31-12.198 73.982-14.077 106.475-4.215Z" fill="url(#d)"/></g><path d="M108.619 219.088c-22.787 0-44.286-2.871-62.17-8.299-25.13-7.63-39.555-19.409-40.618-33.175-.523-6.778 2.098-19.766 25.51-30.61 19.176-8.854 47.385-13.966 77.388-13.966 22.791 0 44.29 2.872 62.175 8.299 25.129 7.63 39.555 19.409 40.618 33.175.523 6.779-2.098 19.767-25.514 30.607-19.173 8.877-47.381 13.969-77.389 13.969Z" fill="#001C63" style="mix-blend-mode:multiply" opacity=".2"/><path d="M176.452 136.009h-13.427a74.584 74.584 0 0 0-11.703-4.561c-29.091-8.831-71.77-7.149-95.326 3.757-.572.265-1.116.535-1.656.804H41.023v13.677c-1.226 7.895 7.36 15.895 24.991 21.253 29.092 8.831 71.77 7.148 95.326-3.757 10.173-4.708 15.104-10.367 15.096-15.991l.016-15.182Z" fill="#E5E7EA"/><path d="M151.33 116.265c29.088 8.831 33.573 24.829 10.018 35.735-23.556 10.905-66.239 12.588-95.326 3.757-29.088-8.831-33.573-24.829-10.018-35.735 23.556-10.905 66.235-12.587 95.326-3.757Z" fill="#FDFEFF"/><path style="mix-blend-mode:multiply" d="M108.602 161.52c37.475 0 67.854-11.422 67.854-25.511 0-14.089-30.379-25.51-67.854-25.51-37.474 0-67.853 11.421-67.853 25.51 0 14.089 30.379 25.511 67.853 25.511Z" fill="url(#e)"/><path d="M176.452 110.865h-13.427a74.687 74.687 0 0 0-11.703-4.562c-29.091-8.83-71.77-7.148-95.326 3.757-.572.266-1.116.535-1.656.805H41.023v13.677c-1.226 7.895 7.36 15.894 24.991 21.253 29.092 8.83 71.77 7.148 95.326-3.757 10.173-4.708 15.104-10.367 15.096-15.991l.016-15.182Z" fill="#E5E7EA"/><path d="M151.33 91.106c29.088 8.83 33.573 24.829 10.018 35.734-23.556 10.906-66.239 12.584-95.326 3.753-29.088-8.83-33.573-24.829-10.018-35.73C79.56 83.96 122.24 82.29 151.33 91.106Z" fill="#FDFEFF"/><path style="mix-blend-mode:multiply" opacity=".25" d="M108.602 124.08c19.409 0 35.143-5.917 35.143-13.215 0-7.299-15.734-13.215-35.143-13.215s-35.143 5.916-35.143 13.215c0 7.298 15.734 13.215 35.143 13.215Z" fill="url(#f)"/><path d="M106.5 22.447c0 4.683-1.156 8.221-3.467 10.613-2.312 2.392-5.425 3.586-9.34 3.584-3.943 0-7.078-1.195-9.403-3.584-2.326-2.39-3.481-5.927-3.468-10.613v-7.291c0-4.686 1.147-8.224 3.44-10.613C86.553 2.153 89.674.96 93.623.96c3.928 0 7.054 1.199 9.376 3.596 2.322 2.397 3.482 5.93 3.48 10.601l.02 7.29Zm-8.53-7.838c0-2.65-.37-4.556-1.111-5.716-.314-.54-.78-.99-1.347-1.296a3.724 3.724 0 0 0-1.867-.444c-.653-.022-1.3.13-1.866.437a3.378 3.378 0 0 0-1.336 1.303c-.714 1.16-1.072 3.065-1.075 5.716v8.338c0 2.698.363 4.622 1.088 5.774.315.544.785.994 1.357 1.299a3.708 3.708 0 0 0 1.88.43c.65.02 1.294-.13 1.858-.435a3.381 3.381 0 0 0 1.332-1.294c.728-1.152 1.09-3.076 1.088-5.774V14.61ZM133.47 22.636h3.721v6.194h-3.721v7.314h-8.55V28.83h-14.274l-.502-4.916 14.776-22.38V1.46h8.55v21.176Zm-15.689 0h7.139V11.919l-.155-.05-.658.982-6.326 9.785Z" fill="#001C63"/><path fill-rule="evenodd" clip-rule="evenodd" d="M74.906 53.857h59.468c1.6 0 2.907 1.213 2.907 2.696v45.631c0 1.483-1.307 2.696-2.907 2.696H74.906c-1.599 0-2.906-1.213-2.906-2.696v-45.63c0-1.484 1.307-2.697 2.906-2.697Zm14.01 19 9.452 9.08 1.137 1.05-1.126 1.064-9.547 9.39-2.694-2.465 8.42-7.96-8.314-7.67 2.672-2.488Zm33.079 20.14h-20.938v-3.372h20.938v3.371ZM92.29 58.701c1.695 0 3.071 1.277 3.071 2.849 0 1.572-1.376 2.849-3.07 2.849-1.696 0-3.072-1.277-3.072-2.849 0-1.572 1.376-2.849 3.071-2.849Zm-10.222 0c1.695 0 3.071 1.277 3.071 2.849 0 1.572-1.376 2.849-3.07 2.849-1.696 0-3.072-1.277-3.072-2.849 0-1.572 1.37-2.849 3.071-2.849Zm-6.089-2.178h57.333c.611 0 1.11.463 1.11 1.03v9.03H74.869v-9.03c0-.567.5-1.03 1.11-1.03Z" fill="#001C63"/><g clip-path="url(#g)"><path d="M132.468 79.915c0-.397.346-.719.774-.719.427 0 .774.322.774.719v4.372l3.226 1.316c.391.16.568.583.396.945-.172.363-.628.527-1.019.367l-3.649-1.488a.722.722 0 0 1-.502-.672v-4.84Zm-8.101-.088a.726.726 0 0 1-.032-.214l.006-2.658c0-.429.374-.776.836-.776.462 0 .837.347.837.776l-.002 1.009a9.583 9.583 0 0 1 1.72-1.649 10.211 10.211 0 0 1 2.193-1.24 10.678 10.678 0 0 1 7.644-.192c2.368.841 4.393 2.515 5.523 4.825.022.037.04.075.055.115a8.62 8.62 0 0 1 .18 7.032c-.872 2.11-2.571 3.927-4.91 4.996a10.454 10.454 0 0 1-1.558.577.802.802 0 0 1-.573-.053c-.589-.294-.502-1.103.138-1.284a9.174 9.174 0 0 0 1.002-.347 7.656 7.656 0 0 0 .282-.123.926.926 0 0 1 .063-.026c1.976-.91 3.413-2.448 4.151-4.236a7.334 7.334 0 0 0-.172-6.028c-.955-1.985-2.687-3.424-4.716-4.145a9.074 9.074 0 0 0-6.497.16 8.64 8.64 0 0 0-1.864 1.054 8.133 8.133 0 0 0-1.472 1.414l.667-.035c.462-.024.858.305.883.733.025.429-.329.796-.791.82l-2.721.142c-.43.022-.802-.261-.872-.647Zm9.277 12.996c.685.02 1.041-.744.556-1.194a.778.778 0 0 0-.502-.201 9.174 9.174 0 0 1-1.373-.146.78.78 0 0 0-.757.275c-.318.415-.077.993.462 1.094.532.098 1.072.156 1.614.172Zm-4.65-1.239c.459.246 1.036-.003 1.125-.489a.683.683 0 0 0-.362-.715 8.44 8.44 0 0 1-1.131-.734c-.538-.41-1.334.012-1.224.65.031.17.119.311.261.423a10 10 0 0 0 1.331.865Zm-3.461-3.126c.347.511 1.178.405 1.361-.175a.654.654 0 0 0-.084-.564 7.768 7.768 0 0 1-.637-1.138c-.242-.533-1.042-.578-1.349-.074a.652.652 0 0 0-.039.614c.209.462.461.913.748 1.337Zm-1.502-4.261c.024.312.265.569.596.634.493.091.936-.267.905-.733a7.417 7.417 0 0 1 .012-1.281.68.68 0 0 0-.324-.64c-.477-.299-1.12-.018-1.174.513a8.62 8.62 0 0 0-.015 1.507Z" fill="#029894"/></g><defs><radialGradient id="a" cx="0" cy="0" r="1" gradientUnits="userSpaceOnUse" gradientTransform="matrix(107.502 0 0 39.4718 111.231 190.703)"><stop stop-color="#5A9BFB"/><stop offset="1" stop-color="#fff"/></radialGradient><radialGradient id="b" cx="0" cy="0" r="1" gradientUnits="userSpaceOnUse" gradientTransform="matrix(53.75846 -19.9596 13.0257 35.08293 113.704 160.758)"><stop stop-color="#7FD4F9"/><stop offset=".43" stop-color="#81D5F9"/><stop offset=".58" stop-color="#88D7F9"/><stop offset=".69" stop-color="#93DBFA"/><stop offset=".78" stop-color="#A4E1FB"/><stop offset=".86" stop-color="#BAE8FC"/><stop offset=".92" stop-color="#D6F1FD"/><stop offset=".98" stop-color="#F5FCFF"/><stop offset="1" stop-color="#fff"/></radialGradient><radialGradient id="c" cx="0" cy="0" r="1" gradientUnits="userSpaceOnUse" gradientTransform="matrix(53.75846 -19.9596 13.0257 35.08293 113.704 160.758)"><stop stop-color="#80E3C8"/><stop offset=".43" stop-color="#82E3C9"/><stop offset=".58" stop-color="#89E5CC"/><stop offset=".69" stop-color="#94E8D1"/><stop offset=".78" stop-color="#A5EBD8"/><stop offset=".86" stop-color="#BBF0E2"/><stop offset=".93" stop-color="#D7F6ED"/><stop offset=".99" stop-color="#F6FDFB"/><stop offset="1" stop-color="#fff"/></radialGradient><radialGradient id="d" cx="0" cy="0" r="1" gradientUnits="userSpaceOnUse" gradientTransform="matrix(53.75846 -19.9596 13.0257 35.08293 113.704 160.758)"><stop stop-color="#5A9BFB"/><stop offset=".41" stop-color="#5C9CFB"/><stop offset=".55" stop-color="#63A0FB"/><stop offset=".66" stop-color="#6EA7FB"/><stop offset=".74" stop-color="#7FB2FC"/><stop offset=".81" stop-color="#95BFFC"/><stop offset=".88" stop-color="#B1CFFD"/><stop offset=".94" stop-color="#D1E3FE"/><stop offset=".99" stop-color="#F5F9FF"/><stop offset="1" stop-color="#fff"/></radialGradient><radialGradient id="e" cx="0" cy="0" r="1" gradientUnits="userSpaceOnUse" gradientTransform="matrix(67.6449 0 0 23.5636 108.602 139.214)"><stop stop-color="#5A9BFB"/><stop offset="1" stop-color="#fff"/></radialGradient><radialGradient id="f" cx="0" cy="0" r="1" gradientUnits="userSpaceOnUse" gradientTransform="matrix(35.0369 0 0 12.2048 108.602 114.035)"><stop stop-color="#5A9BFB"/><stop offset="1" stop-color="#fff"/></radialGradient><clipPath id="g"><path fill="#fff" transform="translate(124.005 74.268)" d="M0 0h19.985v18.555H0z"/></clipPath></defs></svg>