<svg width="221" height="246" fill="none" xmlns="http://www.w3.org/2000/svg"><path style="mix-blend-mode:multiply" d="M180.024 171.494c47.385 14.385 54.712 40.442 16.318 58.192-38.393 17.75-107.886 20.498-155.267 6.117-47.381-14.382-54.692-40.443-16.323-58.208 38.37-17.765 107.891-20.483 155.272-6.101Z" fill="url(#a)"/><path d="M110.479 204.618c-22.787 0-44.286-2.872-62.15-8.299-25.13-7.626-39.555-19.409-40.618-33.175-.523-6.775 2.097-19.767 25.514-30.607 19.172-8.877 47.38-13.966 77.388-13.966 22.787 0 44.286 2.868 62.15 8.296 25.13 7.629 39.555 19.413 40.618 33.178.523 6.779-2.097 19.767-25.514 30.607-19.172 8.877-47.381 13.966-77.388 13.966Z" fill="#8EDBDC" style="mix-blend-mode:multiply" opacity=".2"/><path d="M170.354 133.904c40.794 12.384 47.087 34.822 14.049 50.112-33.037 15.29-92.889 17.654-133.703 5.27-40.814-12.384-47.09-34.822-14.053-50.116 33.037-15.294 92.909-17.654 133.707-5.266Z" fill="#029894" style="mix-blend-mode:multiply"/><g style="mix-blend-mode:multiply"><path d="M158.178 139.539c32.493 9.863 37.502 27.716 11.191 39.915-26.312 12.199-73.983 14.059-106.476 4.196-32.494-9.862-37.503-27.735-11.191-39.915 26.311-12.179 73.982-14.058 106.476-4.196Z" fill="url(#b)"/><path d="M158.178 139.539c32.493 9.863 37.502 27.716 11.191 39.915-26.312 12.199-73.983 14.059-106.476 4.196-32.494-9.862-37.503-27.735-11.191-39.915 26.311-12.179 73.982-14.058 106.476-4.196Z" fill="url(#c)"/><path d="M158.178 139.539c32.493 9.863 37.502 27.716 11.191 39.915-26.312 12.199-73.983 14.059-106.476 4.196-32.494-9.862-37.503-27.735-11.191-39.915 26.311-12.179 73.982-14.058 106.476-4.196Z" fill="url(#d)"/></g><path d="M110.479 219.261c-22.787 0-44.286-2.867-62.15-8.295-25.13-7.63-39.555-19.413-40.618-33.175-.523-6.779 2.097-19.767 25.514-30.607 19.172-8.877 47.38-13.969 77.388-13.969 22.787 0 44.286 2.871 62.15 8.299 25.13 7.626 39.555 19.409 40.618 33.175.523 6.778-2.097 19.767-25.514 30.607-19.172 8.876-47.381 13.965-77.388 13.965Z" fill="#8EDBDC" style="mix-blend-mode:multiply" opacity=".2"/><path d="M178.311 136.187h-13.423a74.026 74.026 0 0 0-11.703-4.562c-29.091-8.831-71.77-7.148-95.326 3.757-.572.262-1.112.535-1.635.805h-13.33v13.677c-1.226 7.895 7.36 15.894 24.987 21.253 29.092 8.826 71.771 7.148 95.326-3.758 10.173-4.707 15.104-10.366 15.096-15.99l.008-15.182Z" fill="#E6EDEB"/><path d="M153.19 116.442c29.087 8.831 33.573 24.829 10.017 35.735-23.555 10.905-66.238 12.584-95.326 3.753-29.087-8.83-33.573-24.829-10.017-35.734 23.555-10.906 66.234-12.584 95.326-3.754Z" fill="#FAFFFE"/><path style="mix-blend-mode:multiply" d="M110.536 161.67c37.433 0 67.78-11.41 67.78-25.484 0-14.074-30.347-25.483-67.78-25.483-37.434 0-67.78 11.409-67.78 25.483s30.346 25.484 67.78 25.484Z" fill="url(#e)"/><path d="M178.311 111.042h-13.423a73.7 73.7 0 0 0-11.703-4.562c-29.091-8.83-71.77-7.148-95.326 3.757-.572.262-1.112.535-1.635.805h-13.33v13.677c-1.226 7.895 7.36 15.89 24.987 21.249 29.092 8.83 71.771 7.152 95.326-3.753 10.173-4.712 15.104-10.371 15.096-15.991l.008-15.182Z" fill="#E6EDEB"/><path d="M153.19 91.298c29.087 8.831 33.573 24.829 10.017 35.735-23.555 10.905-66.238 12.583-95.326 3.753-29.087-8.831-33.573-24.829-10.017-35.735 23.555-10.905 66.234-12.583 95.326-3.753Z" fill="#FAFFFE"/><path style="mix-blend-mode:multiply" opacity=".25" d="M110.536 124.257c19.409 0 35.143-5.917 35.143-13.215 0-7.299-15.734-13.215-35.143-13.215-19.41 0-35.143 5.916-35.143 13.215 0 7.298 15.734 13.215 35.143 13.215Z" fill="url(#f)"/><path d="M108.43 22.231c0 4.686-1.156 8.224-3.468 10.613-2.311 2.39-5.424 3.584-9.338 3.584-3.947 0-7.082-1.194-9.405-3.584-2.322-2.389-3.478-5.927-3.467-10.613v-7.29c0-4.687 1.148-8.224 3.443-10.614C88.49 1.938 91.61.744 95.554.744c3.928 0 7.053 1.2 9.376 3.599 2.322 2.4 3.482 5.932 3.479 10.597l.021 7.291Zm-8.53-7.837c0-2.654-.37-4.56-1.112-5.717a3.441 3.441 0 0 0-1.346-1.297 3.72 3.72 0 0 0-1.867-.443 3.66 3.66 0 0 0-1.866.438 3.382 3.382 0 0 0-1.336 1.302c-.714 1.16-1.073 3.066-1.075 5.717v8.338c0 2.697.362 4.622 1.087 5.774.316.543.786.993 1.358 1.298a3.71 3.71 0 0 0 1.88.43c.65.021 1.294-.13 1.857-.435a3.38 3.38 0 0 0 1.333-1.293c.728-1.152 1.09-3.077 1.087-5.774v-8.338ZM138.649 35.928H112.89V30.69l11.857-11.721a23.536 23.536 0 0 0 3.312-4.335 7.023 7.023 0 0 0 1.063-3.31 4.574 4.574 0 0 0-1.075-3.196c-.714-.793-1.789-1.19-3.226-1.19a3.633 3.633 0 0 0-1.729.392c-.53.27-.975.666-1.293 1.149a6.551 6.551 0 0 0-1.099 3.918h-8.354l-.049-.142a10.26 10.26 0 0 1 .757-4.41 10.793 10.793 0 0 1 2.584-3.747c2.311-2.233 5.372-3.349 9.183-3.349 4.048 0 7.207.937 9.478 2.81 2.27 1.874 3.404 4.44 3.402 7.699a9.745 9.745 0 0 1-1.808 5.813c-1.204 1.68-3.427 4.181-6.668 7.502L124.24 29.6l.074.142h14.335v6.186Z" fill="#029894"/><path fill-rule="evenodd" clip-rule="evenodd" d="M74.409 82.793h14.196v23.78H74.409v-23.78ZM123.21 70.72c5.151 0 9.331 3.93 9.331 8.784 0 4.85-4.174 8.785-9.331 8.785-5.151 0-9.33-3.93-9.33-8.785 0-4.85 4.173-8.784 9.33-8.784Zm-16.374-11.03c4.442 0 8.05 3.392 8.05 7.58 0 4.182-3.602 7.578-8.05 7.578-4.442 0-8.05-3.39-8.05-7.578 0-4.183 3.602-7.58 8.05-7.58Zm.818 9.189c0-.248-.063-.436-.195-.576-.131-.14-.354-.27-.674-.393a15.33 15.33 0 0 1-.887-.371 3.255 3.255 0 0 1-.703-.442c-.2-.166-.349-.36-.452-.576-.108-.22-.154-.484-.154-.796 0-.522.189-.953.56-1.287.372-.333.869-.538 1.493-.592v-.7h.783v.716c.6.081 1.075.313 1.418.695.343.382.514.866.514 1.448h-1.675c0-.323-.068-.57-.2-.743-.131-.172-.32-.258-.56-.258-.218 0-.389.064-.503.188-.12.13-.178.307-.178.527 0 .227.069.41.206.544.143.135.36.264.663.388.303.123.595.247.864.376.268.135.503.28.697.447.2.167.355.366.463.587.109.22.172.484.172.802 0 .527-.177.958-.538 1.292-.36.333-.84.527-1.452.581v.657h-.777v-.657c-.715-.075-1.264-.301-1.647-.689-.383-.393-.577-.904-.577-1.545h1.663c0 .356.08.62.246.808.166.183.4.28.703.28.223 0 .395-.065.526-.189a.745.745 0 0 0 .201-.522Zm16.5 12.488c0-.286-.075-.506-.223-.668-.149-.161-.406-.312-.784-.457-.371-.14-.714-.291-1.029-.43a3.585 3.585 0 0 1-.817-.512 2.056 2.056 0 0 1-.526-.668c-.126-.253-.178-.56-.178-.92 0-.608.218-1.104.652-1.491.429-.388 1.006-.62 1.727-.684v-.813h.909v.835c.692.097 1.24.366 1.641.807.4.442.6 1.001.6 1.68h-1.932c0-.377-.08-.657-.229-.862-.149-.199-.372-.301-.652-.301-.251 0-.446.075-.583.22-.137.146-.206.356-.206.614 0 .264.08.474.24.63.16.156.412.307.766.447.355.14.686.29 1.001.436a4 4 0 0 1 .812.516c.228.194.406.42.537.679.132.258.195.565.195.925 0 .614-.206 1.115-.624 1.497-.411.382-.972.614-1.686.673v.759h-.909v-.765c-.829-.086-1.464-.35-1.91-.802-.44-.452-.663-1.05-.663-1.792h1.927c0 .409.097.716.286.931.188.21.463.323.817.323a.874.874 0 0 0 .612-.215c.148-.14.223-.34.229-.592Zm-.944-8.92c4.134 0 7.49 3.155 7.49 7.052 0 3.892-3.351 7.051-7.49 7.051-4.133 0-7.489-3.154-7.489-7.051 0-3.897 3.356-7.051 7.489-7.051Zm-31.748 32.129V84.704h9.497c4.025.678 8.05 2.734 12.074 5.119h7.376c3.339.188 5.088 3.375 1.841 5.468-2.585 1.787-5.998 1.685-9.497 1.39-2.412-.114-2.515 2.938 0 2.949.875.064 1.824-.13 2.653-.13 4.368-.005 7.959-.79 10.16-4.036l1.103-2.428 10.972-5.119c5.488-1.7 9.387 3.704 5.345 7.466-7.947 5.442-16.094 9.92-24.43 13.537-6.054 3.467-12.109 3.348-18.158 0l-8.936-4.344Z" fill="#029894"/><defs><radialGradient id="a" cx="0" cy="0" r="1" gradientUnits="userSpaceOnUse" gradientTransform="matrix(107.502 0 0 39.4718 110.547 191.533)"><stop stop-color="#8EDBDC"/><stop offset="1" stop-color="#fff"/></radialGradient><radialGradient id="b" cx="0" cy="0" r="1" gradientUnits="userSpaceOnUse" gradientTransform="matrix(53.75846 -19.9596 13.0257 35.08293 113.601 160.935)"><stop stop-color="#8EDBDC"/><stop offset=".44" stop-color="#90DCDD"/><stop offset=".6" stop-color="#97DEDF"/><stop offset=".71" stop-color="#A2E2E2"/><stop offset=".8" stop-color="#B3E7E8"/><stop offset=".88" stop-color="#C9EEEE"/><stop offset=".95" stop-color="#E4F6F7"/><stop offset="1" stop-color="#fff"/></radialGradient><radialGradient id="c" cx="0" cy="0" r="1" gradientUnits="userSpaceOnUse" gradientTransform="matrix(53.75846 -19.9596 13.0257 35.08293 113.601 160.935)"><stop stop-color="#80E3C8"/><stop offset=".43" stop-color="#82E3C9"/><stop offset=".58" stop-color="#89E5CC"/><stop offset=".69" stop-color="#94E8D1"/><stop offset=".78" stop-color="#A5EBD8"/><stop offset=".86" stop-color="#BBF0E2"/><stop offset=".93" stop-color="#D7F6ED"/><stop offset=".99" stop-color="#F6FDFB"/><stop offset="1" stop-color="#fff"/></radialGradient><radialGradient id="d" cx="0" cy="0" r="1" gradientUnits="userSpaceOnUse" gradientTransform="matrix(53.75846 -19.9596 13.0257 35.08293 113.601 160.935)"><stop stop-color="#80E3C8"/><stop offset=".43" stop-color="#82E3C9"/><stop offset=".58" stop-color="#89E5CC"/><stop offset=".69" stop-color="#94E8D1"/><stop offset=".78" stop-color="#A5EBD8"/><stop offset=".86" stop-color="#BBF0E2"/><stop offset=".93" stop-color="#D7F6ED"/><stop offset=".99" stop-color="#F6FDFB"/><stop offset="1" stop-color="#fff"/></radialGradient><radialGradient id="e" cx="0" cy="0" r="1" gradientUnits="userSpaceOnUse" gradientTransform="matrix(67.5713 0 0 23.5379 110.536 139.39)"><stop stop-color="#8EDBDC"/><stop offset="1" stop-color="#fff"/></radialGradient><radialGradient id="f" cx="0" cy="0" r="1" gradientUnits="userSpaceOnUse" gradientTransform="matrix(35.0368 0 0 12.2048 110.536 114.212)"><stop stop-color="#8EDBDC"/><stop offset="1" stop-color="#fff"/></radialGradient></defs></svg>