<svg width="222" height="250" fill="none" xmlns="http://www.w3.org/2000/svg"><path style="mix-blend-mode:multiply" d="M180.142 175.6c47.405 14.381 54.691 40.442 16.33 58.196-38.361 17.754-107.887 20.502-155.272 6.121-47.384-14.382-54.687-40.447-16.318-58.208 38.37-17.761 107.875-20.494 155.26-6.109Z" fill="url(#a)"/><path d="M110.607 209.383c-22.786 0-44.285-2.872-62.15-8.3-25.129-7.629-39.554-19.409-40.617-33.174-.524-6.779 2.097-19.767 25.514-30.607 19.172-8.877 47.38-13.966 77.388-13.966 22.787 0 44.286 2.868 62.17 8.295 25.13 7.63 39.555 19.413 40.618 33.179.524 6.775-2.097 19.763-25.514 30.603-19.192 8.877-47.401 13.97-77.409 13.97Z" fill="#029894" style="mix-blend-mode:multiply" opacity=".2"/><path d="M170.484 138.669c40.794 12.383 47.087 34.818 14.049 50.112-33.037 15.294-92.889 17.653-133.703 5.27-40.815-12.384-47.087-34.822-14.05-50.116 33.038-15.294 92.906-17.65 133.704-5.266Z" fill="#029894" style="mix-blend-mode:multiply"/><g style="mix-blend-mode:multiply"><path d="M158.307 144.304c32.494 9.862 37.503 27.716 11.191 39.915-26.311 12.199-73.982 14.058-106.476 4.192-32.493-9.866-37.502-27.716-11.19-39.911 26.31-12.195 73.982-14.059 106.475-4.196Z" fill="url(#b)"/><path d="M158.307 144.304c32.494 9.862 37.503 27.716 11.191 39.915-26.311 12.199-73.982 14.058-106.476 4.192-32.493-9.866-37.502-27.716-11.19-39.911 26.31-12.195 73.982-14.059 106.475-4.196Z" fill="url(#c)"/><path d="M158.307 144.304c32.494 9.862 37.503 27.716 11.191 39.915-26.311 12.199-73.982 14.058-106.476 4.192-32.493-9.866-37.502-27.716-11.19-39.911 26.31-12.195 73.982-14.059 106.475-4.196Z" fill="url(#d)"/></g><path d="M110.607 224.026c-22.786 0-44.285-2.868-62.15-8.299-25.129-7.626-39.554-19.409-40.617-33.175-.524-6.779 2.097-19.767 25.514-30.607 19.172-8.877 47.38-13.966 77.388-13.966 22.787 0 44.286 2.868 62.17 8.3 25.13 7.626 39.555 19.409 40.618 33.174.524 6.776-2.097 19.767-25.514 30.607-19.192 8.873-47.401 13.966-77.409 13.966Z" fill="#029894" style="mix-blend-mode:multiply" opacity=".2"/><path d="M178.445 140.951h-13.424a73.758 73.758 0 0 0-11.702-4.546c-29.092-8.831-71.77-7.149-95.326 3.753-.572.266-1.112.535-1.635.808H43.024v13.674c-1.227 7.899 7.36 15.894 24.987 21.253 29.091 8.83 71.77 7.148 95.326-3.754 10.173-4.711 15.104-10.37 15.096-15.99l.012-15.198Z" fill="#E6EFEC"/><path d="M153.319 121.207c29.087 8.831 33.573 24.829 10.017 35.731-23.555 10.901-66.238 12.587-95.326 3.757-29.088-8.831-33.573-24.829-10.017-35.735 23.555-10.905 66.234-12.584 95.326-3.753Z" fill="#F8FFFD"/><path style="mix-blend-mode:multiply" d="M110.592 166.461c37.474 0 67.853-11.421 67.853-25.51 0-14.089-30.379-25.51-67.853-25.51-37.475 0-67.854 11.421-67.854 25.51 0 14.089 30.38 25.51 67.854 25.51Z" fill="url(#e)"/><path d="M178.445 115.807h-13.424a73.69 73.69 0 0 0-11.702-4.562c-29.092-8.831-71.77-7.152-95.326 3.753-.572.266-1.112.535-1.635.809H43.024v13.669c-1.227 7.899 7.36 15.894 24.987 21.253 29.091 8.83 71.77 7.148 95.326-3.757 10.173-4.708 15.104-10.367 15.096-15.987l.012-15.178Z" fill="#E6EFEC"/><path d="M153.319 96.059c29.087 8.83 33.573 24.829 10.017 35.734-23.555 10.906-66.238 12.588-95.326 3.757-29.088-8.83-33.573-24.829-10.017-35.734 23.555-10.906 66.234-12.584 95.326-3.757Z" fill="#F8FFFD"/><path style="mix-blend-mode:multiply" opacity=".25" d="M110.591 129.022c19.409 0 35.143-5.917 35.143-13.216 0-7.298-15.734-13.215-35.143-13.215s-35.143 5.917-35.143 13.215c0 7.299 15.734 13.216 35.143 13.216Z" fill="url(#f)"/><path d="M108.489 21.746c0 4.684-1.156 8.221-3.467 10.613-2.312 2.392-5.423 3.584-9.335 3.576-3.95 0-7.084-1.195-9.404-3.584-2.32-2.39-3.476-5.927-3.468-10.613v-7.283c0-4.686 1.148-8.224 3.443-10.613 2.295-2.39 5.415-3.584 9.36-3.584 3.93 0 7.055 1.2 9.375 3.6 2.32 2.4 3.48 5.932 3.48 10.597l.016 7.291Zm-8.513-7.837c0-2.652-.37-4.557-1.112-5.717a3.438 3.438 0 0 0-1.346-1.298 3.716 3.716 0 0 0-1.868-.442 3.66 3.66 0 0 0-1.866.438 3.382 3.382 0 0 0-1.335 1.302c-.715 1.16-1.073 3.066-1.076 5.716v8.338c0 2.698.364 4.622 1.092 5.774.315.544.785.995 1.357 1.3a3.701 3.701 0 0 0 1.881.429c.65.02 1.292-.13 1.855-.436a3.376 3.376 0 0 0 1.33-1.293c.728-1.152 1.09-3.076 1.088-5.774V13.91ZM131.051 35.442h-8.521V8.834h-8.222v-5.67L131.072.735l-.021 34.707Z" fill="#029894"/><path fill-rule="evenodd" clip-rule="evenodd" d="M119.856 65.35a15.643 15.643 0 0 1 3.84 2.935 13.394 13.394 0 0 1 2.587 3.85c.349.797.626 1.621.828 2.462.458 1.91.494 3.888.108 5.813a15.054 15.054 0 0 1-.967 3.03l-.049.105c-.895 2.076-2.498 4.085-4.029 6.07-.778 1.005-1.553 1.997-2.202 2.96-.204.3-.492.543-.834.702-.341.16-.723.23-1.104.204l-12.318 1.698a2.237 2.237 0 0 1-1.455-.298 1.971 1.971 0 0 1-.877-1.118 15.476 15.476 0 0 0-1.132-2.408 10.01 10.01 0 0 0-1.343-1.86c-.635-.673-1.284-1.362-1.929-2.139a16.635 16.635 0 0 1-1.853-2.873 16.293 16.293 0 0 1-1.253-3.322 13.762 13.762 0 0 1-.425-3.496c.013-1.224.189-2.441.523-3.625.358-1.27.87-2.499 1.527-3.662l.09-.15a14.86 14.86 0 0 1 3.182-3.595 15.225 15.225 0 0 1 4.22-2.413l.13-.046a16.722 16.722 0 0 1 3.581-.884 18.131 18.131 0 0 1 3.916-.083c1.274.108 2.53.346 3.747.71 1.218.354 2.389.834 3.491 1.433Zm-1.737 36.269a7.51 7.51 0 0 1-2.802 2.608 7.732 7.732 0 0 1-3.218.909 7.085 7.085 0 0 1-3.308-.598 6.728 6.728 0 0 1-1.96-1.353l11.288-1.566Zm1.074-5.859v.922c.034.45.034.9 0 1.35l-.223.988-13.679 1.885-.237-.506-.533-2.027v-.59l14.637-2.022h.035Zm-8.056-40.073c.013-.42.204-.818.531-1.108.328-.29.766-.448 1.219-.44h.116a1.8 1.8 0 0 1 1.106.494c.308.3.478.701.474 1.117a.385.385 0 0 1 0 .083l-.094 3.4a.971.971 0 0 1 0 .108c-.033.402-.23.777-.551 1.05-.321.27-.742.418-1.176.412h-.121a1.742 1.742 0 0 1-1.101-.486 1.534 1.534 0 0 1-.475-1.121.575.575 0 0 1 0-.083l.09-3.413-.018-.013Zm-18.87 5.967a1.571 1.571 0 0 1-.547-1.109c-.01-.21.025-.42.103-.617.077-.197.196-.378.35-.532.153-.155.338-.28.544-.367.206-.088.428-.137.655-.144a1.8 1.8 0 0 1 1.23.415l2.749 2.379c.333.288.53.686.547 1.107.017.422-.145.833-.453 1.143-.313.308-.744.49-1.2.507a1.79 1.79 0 0 1-1.226-.415l-2.753-2.367Zm-4.477 17.53a1.848 1.848 0 0 1-.666-.099 1.754 1.754 0 0 1-.574-.328 1.614 1.614 0 0 1-.395-.508A1.508 1.508 0 0 1 86 77.64a1.466 1.466 0 0 1 .1-.613c.077-.196.195-.376.348-.529a1.71 1.71 0 0 1 .546-.36c.206-.086.428-.133.653-.138l3.751-.116c.227-.01.454.023.667.095.213.073.409.184.576.328.166.143.3.316.394.507.094.192.147.4.153.61v.083a1.541 1.541 0 0 1-.447 1.06 1.713 1.713 0 0 1-.556.356c-.21.084-.434.127-.662.129h-.067l-3.706.116.04.017Zm47.266-4.936h.058a1.81 1.81 0 0 1 1.186.353c.352.269.577.655.627 1.075v.05a1.52 1.52 0 0 1-.414 1.115 1.764 1.764 0 0 1-1.126.546l-3.733.42a1.812 1.812 0 0 1-1.258-.35 1.562 1.562 0 0 1-.626-1.07c-.046-.421.089-.842.377-1.17a1.762 1.762 0 0 1 1.158-.579c1.245-.124 2.498-.257 3.747-.37l.004-.02Zm-7.394-13.86c.124-.174.285-.324.472-.44.187-.117.397-.197.618-.238a1.835 1.835 0 0 1 1.287.242c.186.116.346.265.47.439a1.515 1.515 0 0 1-.005 1.77l-2.09 2.906c-.257.35-.652.592-1.101.671-.448.08-.912-.01-1.289-.247a1.594 1.594 0 0 1-.724-1.021 1.508 1.508 0 0 1 .267-1.197l2.095-2.906v.02Zm-14.243 16.55h2.637c.09 0 .18.017.264.05a.7.7 0 0 1 .223.138.61.61 0 0 1 .086.81l-6.267 9.935a.644.644 0 0 1-.18.185.711.711 0 0 1-.512.117.72.72 0 0 1-.252-.086.658.658 0 0 1-.276-.291.598.598 0 0 1-.046-.386l.926-6.095-3.133.05a.733.733 0 0 1-.49-.179.635.635 0 0 1-.152-.205.59.59 0 0 1-.056-.243.586.586 0 0 1 .094-.337l6.172-9.932a.691.691 0 0 1 .423-.292.741.741 0 0 1 .803.337.591.591 0 0 1 .068.37l-.314 6.055h-.018Z" fill="#029894"/><defs><radialGradient id="a" cx="0" cy="0" r="1" gradientUnits="userSpaceOnUse" gradientTransform="matrix(107.502 0 0 39.4718 110.665 196.358)"><stop stop-color="#80E3C8"/><stop offset="1" stop-color="#fff"/></radialGradient><radialGradient id="b" cx="0" cy="0" r="1" gradientUnits="userSpaceOnUse" gradientTransform="matrix(53.7585 -19.9595 13.02563 35.08296 112.743 166.444)"><stop stop-color="#80E3C8"/><stop offset=".43" stop-color="#82E3C9"/><stop offset=".58" stop-color="#89E5CC"/><stop offset=".69" stop-color="#94E8D1"/><stop offset=".78" stop-color="#A5EBD8"/><stop offset=".86" stop-color="#BBF0E2"/><stop offset=".93" stop-color="#D7F6ED"/><stop offset=".99" stop-color="#F6FDFB"/><stop offset="1" stop-color="#fff"/></radialGradient><radialGradient id="c" cx="0" cy="0" r="1" gradientUnits="userSpaceOnUse" gradientTransform="matrix(53.7585 -19.9595 13.02563 35.08296 112.743 166.444)"><stop stop-color="#80E3C8"/><stop offset=".43" stop-color="#82E3C9"/><stop offset=".58" stop-color="#89E5CC"/><stop offset=".69" stop-color="#94E8D1"/><stop offset=".78" stop-color="#A5EBD8"/><stop offset=".86" stop-color="#BBF0E2"/><stop offset=".93" stop-color="#D7F6ED"/><stop offset=".99" stop-color="#F6FDFB"/><stop offset="1" stop-color="#fff"/></radialGradient><radialGradient id="d" cx="0" cy="0" r="1" gradientUnits="userSpaceOnUse" gradientTransform="matrix(53.7585 -19.9595 13.02563 35.08296 112.743 166.444)"><stop stop-color="#80E3C8"/><stop offset=".43" stop-color="#82E3C9"/><stop offset=".58" stop-color="#89E5CC"/><stop offset=".69" stop-color="#94E8D1"/><stop offset=".78" stop-color="#A5EBD8"/><stop offset=".86" stop-color="#BBF0E2"/><stop offset=".93" stop-color="#D7F6ED"/><stop offset=".99" stop-color="#F6FDFB"/><stop offset="1" stop-color="#fff"/></radialGradient><radialGradient id="e" cx="0" cy="0" r="1" gradientUnits="userSpaceOnUse" gradientTransform="matrix(67.6449 0 0 23.5636 110.592 143.965)"><stop stop-color="#80E3C8"/><stop offset="1" stop-color="#fff"/></radialGradient><radialGradient id="f" cx="0" cy="0" r="1" gradientUnits="userSpaceOnUse" gradientTransform="matrix(35.0368 0 0 12.2048 110.591 118.786)"><stop stop-color="#80E3C8"/><stop offset="1" stop-color="#fff"/></radialGradient></defs></svg>