<svg width="517" height="518" viewBox="0 0 517 518" fill="none" xmlns="http://www.w3.org/2000/svg">
<path d="M258.498 504.322C385.561 504.322 488.566 444.852 488.566 371.492C488.566 298.132 385.561 238.663 258.498 238.663C131.435 238.663 28.4297 298.132 28.4297 371.492C28.4297 444.852 131.435 504.322 258.498 504.322Z" fill="#F5F5F5"/>
<path d="M98.8278 397.844C112.894 397.844 124.296 391.261 124.296 383.14C124.296 375.02 112.894 368.437 98.8278 368.437C84.762 368.437 73.3594 375.02 73.3594 383.14C73.3594 391.261 84.762 397.844 98.8278 397.844Z" fill="#E6E6E6"/>
<path d="M294.957 304.324L127.578 400.961C124.802 402.563 124.802 406.57 127.578 408.173L225.948 464.967C230.981 467.873 237.182 467.873 242.216 464.967L409.595 368.331C412.371 366.728 412.371 362.721 409.595 361.118L311.225 304.324C306.191 301.417 299.991 301.417 294.957 304.324Z" fill="#E6E6E6"/>
<path d="M244.701 305.265L177.688 343.954C171.791 347.359 171.791 355.871 177.688 359.275L211.433 378.757C215.975 381.38 221.571 381.38 226.114 378.757L293.126 340.067C299.023 336.662 299.023 328.15 293.126 324.746L259.382 305.264C254.84 302.643 249.243 302.643 244.701 305.265Z" fill="#E6E6E6"/>
<path d="M100.171 345.089C100.171 345.089 84.432 329.721 93.3896 303.976C98.4097 289.547 115.042 278.952 124.515 277.956C124.515 277.956 119.376 283.877 117.114 290.437L105.184 298.368L116.15 294.934L113.815 304.321C113.815 304.321 103.616 310.488 102.105 311.834L113.1 308.96C113.098 308.96 112.255 335.535 100.171 345.089Z" fill="#229894"/>
<path d="M100.171 345.089C100.171 345.089 92.0223 312.928 104.079 294.173C104.079 294.173 89.945 310.722 100.171 345.089Z" fill="white"/>
<path d="M118.182 349.443L98.9259 349.201V349.199L98.8277 349.2L98.7295 349.199V349.201L79.4733 349.443C79.4733 349.443 79.2593 373.165 86.5655 382.817C88.5829 385.384 93.3134 387.185 98.8277 387.185C104.351 387.185 109.087 385.378 111.099 382.804C118.395 373.143 118.182 349.443 118.182 349.443Z" fill="#37474F"/>
<path d="M98.8281 359.834C109.518 359.834 118.184 355.182 118.184 349.443C118.184 343.705 109.518 339.052 98.8281 339.052C88.1384 339.052 79.4727 343.705 79.4727 349.443C79.4727 355.182 88.1384 359.834 98.8281 359.834Z" fill="#455A64"/>
<path d="M98.8295 346.687C105.488 346.687 111.128 348.823 113.114 351.78C113.608 351.044 113.886 350.26 113.886 349.442C113.886 345.338 107.145 342.011 98.8295 342.011C90.5141 342.011 83.7734 345.338 83.7734 349.442C83.7734 350.26 84.0506 351.044 84.5448 351.78C86.5311 348.823 92.1706 346.687 98.8295 346.687Z" fill="#263238"/>
<path d="M98.8296 346.687C92.1707 346.687 86.5312 348.823 84.5449 351.78C86.5312 354.738 92.1707 356.873 98.8296 356.873C105.489 356.873 111.128 354.737 113.114 351.78C111.128 348.823 105.489 346.687 98.8296 346.687Z" fill="#E0E0E0"/>
<path d="M99.0649 353.064C99.0649 353.064 91.6056 352.775 85.2082 342.868C82.5695 338.783 81.2976 336.636 81.2976 336.636L91.6904 335.862L80.0475 332.951L74.5456 324.534L84.2146 323.817C84.2146 323.817 77.0128 321.294 71.8707 321.262C71.8707 321.262 62.9545 305.51 60.3457 303.265C60.3457 303.265 80.9109 303.434 95.5689 320.766C110.227 338.098 101.239 353.508 99.0649 353.064Z" fill="#229894"/>
<path d="M99.0636 353.064C99.0636 353.064 103.729 324.966 73.957 308.063C73.957 308.063 104.856 322.905 99.0636 353.064Z" fill="white"/>
<path d="M99.0649 353.064C99.0649 353.064 105.822 353.505 112.527 345.169C115.293 341.731 116.642 339.916 116.642 339.916L107.338 338.239L118.116 336.709L123.873 329.634L115.216 328.075C115.216 328.075 121.951 326.478 126.593 326.932C126.593 326.932 136.121 313.56 138.686 311.781C138.686 311.781 120.115 309.998 105.259 324.254C90.4021 338.509 97.061 353.259 99.0649 353.064Z" fill="#229894"/>
<path d="M99.0641 353.064C99.0641 353.064 97.5007 327.273 125.953 314.827C125.953 314.827 96.6777 325.309 99.0641 353.064Z" fill="white"/>
<path d="M133.29 124.27V175.639L88.8027 201.323V149.954L133.29 124.27Z" fill="#FAFAFA"/>
<path d="M128.473 127.05V172.857L88.8027 195.761V149.954L128.473 127.05ZM130.881 122.879L86.3945 148.563V199.933L88.8027 201.323L133.29 175.639V124.27L130.881 122.879Z" fill="#E0E0E0"/>
<path d="M130.881 128.441V174.248L91.2109 197.152V151.345L130.881 128.441ZM133.29 124.27L88.8027 149.954V201.323L133.29 175.639V124.27Z" fill="#EBEBEB"/>
<path d="M126.76 163.887L93.1055 183.318L103.048 157.449L109.933 165.625L116.972 155.601L126.76 163.887Z" fill="#E0E0E0"/>
<path d="M115.085 147.749C115.085 149.707 113.711 152.088 112.015 153.066C110.32 154.045 108.945 153.251 108.945 151.294C108.945 149.337 110.32 146.955 112.015 145.977C113.711 144.998 115.085 145.791 115.085 147.749Z" fill="#E0E0E0"/>
<path d="M148.13 60.3145V101.237L112.689 121.699V80.7763L148.13 60.3145Z" fill="#FAFAFA"/>
<path d="M144.294 62.5293V99.0222L112.691 117.268V80.7763L144.294 62.5293ZM146.212 59.207L110.771 79.6678V120.59L112.69 121.698L148.13 101.236V60.3144L146.212 59.207Z" fill="#E0E0E0"/>
<path d="M146.211 63.6367V100.13L114.608 118.376V81.8837L146.211 63.6367ZM148.13 60.3145L112.689 80.7763V121.699L148.13 101.237V60.3145Z" fill="#EBEBEB"/>
<path d="M142.93 91.8755L116.119 107.354L124.041 86.7458L129.525 93.261L135.133 85.2744L142.93 91.8755Z" fill="#E0E0E0"/>
<path d="M133.629 79.0198C133.629 80.5791 132.534 82.4755 131.184 83.2561C129.833 84.0358 128.738 83.404 128.738 81.8437C128.738 80.2834 129.833 78.3881 131.184 77.6074C132.534 76.8278 133.629 77.4595 133.629 79.0198Z" fill="#E0E0E0"/>
<path d="M223.506 296.876L237.891 384.651C238.108 385.975 239.252 386.947 240.593 386.947C242.225 386.947 243.495 385.527 243.314 383.906L233.222 293.352L223.506 296.876Z" fill="#263238"/>
<path d="M273.158 267.355L287.543 355.13C287.76 356.453 288.904 357.425 290.245 357.425C291.878 357.425 293.147 356.007 292.967 354.384L282.875 263.831L273.158 267.355Z" fill="#263238"/>
<path d="M201.424 276.349L187.229 351.991C187.028 353.085 186.081 353.871 184.961 353.871C183.56 353.871 182.48 352.617 182.68 351.23L193.166 281.124L201.424 276.349Z" fill="#263238"/>
<path d="M251.638 248.134L237.524 323.307C237.324 324.401 236.376 325.188 235.256 325.188C233.855 325.188 232.775 323.934 232.975 322.547L243.38 252.896L251.638 248.134Z" fill="#263238"/>
<path d="M247.542 242.411C240.918 239.458 236.379 233.214 235.662 225.997C233.372 202.965 225.262 155.503 197.773 171.302C163.844 190.803 175.992 247.433 180.925 265.592C182.037 269.688 184.169 273.424 187.16 276.437C193.289 282.612 205.98 293.245 227.561 302.298C230.208 303.408 233.158 303.583 235.919 302.796C246.642 299.742 274.655 290.361 288.621 272.502C290.272 270.39 289.914 267.342 287.816 265.674C282.158 261.176 269.375 252.144 247.542 242.411Z" fill="#229894"/>
<path d="M289.631 269.25C289.688 270.382 289.374 271.539 288.621 272.502C287.875 273.455 287.082 274.379 286.261 275.284L286.26 275.285C285.812 275.781 285.351 276.268 284.883 276.749C284.874 276.758 284.864 276.768 284.855 276.778C284.39 277.253 283.916 277.722 283.433 278.183C283.419 278.196 283.405 278.21 283.391 278.223C282.908 278.684 282.416 279.138 281.917 279.585C281.904 279.596 281.892 279.608 281.879 279.618C281.376 280.069 280.864 280.511 280.345 280.949C280.339 280.954 280.331 280.96 280.325 280.965C272.405 287.617 262.793 292.677 254.198 296.33C254.187 296.336 254.176 296.34 254.165 296.345C253.629 296.572 253.1 296.794 252.574 297.01C252.519 297.033 252.463 297.055 252.408 297.078C251.915 297.28 251.427 297.477 250.943 297.67C250.858 297.704 250.772 297.738 250.688 297.771C250.228 297.953 249.773 298.131 249.322 298.304C249.217 298.345 249.113 298.385 249.008 298.424C248.579 298.589 248.154 298.749 247.735 298.905C247.61 298.951 247.488 298.997 247.365 299.042C246.969 299.188 246.577 299.331 246.191 299.471C246.048 299.522 245.906 299.573 245.765 299.624C245.399 299.755 245.036 299.883 244.679 300.008C244.527 300.061 244.379 300.113 244.229 300.165C243.89 300.282 243.554 300.398 243.224 300.51C243.062 300.565 242.904 300.617 242.743 300.671C242.435 300.775 242.129 300.877 241.83 300.975C241.655 301.033 241.485 301.088 241.312 301.144C241.037 301.233 240.763 301.323 240.498 301.407C240.309 301.467 240.128 301.524 239.945 301.582C239.708 301.658 239.468 301.733 239.237 301.804C239.033 301.868 238.839 301.926 238.642 301.987C238.442 302.048 238.238 302.112 238.046 302.169C237.795 302.245 237.557 302.315 237.318 302.387C237.196 302.423 237.067 302.462 236.948 302.497C236.59 302.603 236.245 302.702 235.918 302.795C233.157 303.582 230.207 303.407 227.56 302.297C205.978 293.244 193.288 282.611 187.159 276.436C184.168 273.423 182.036 269.687 180.924 265.591C175.99 247.432 163.843 190.803 197.772 171.301C198.373 170.956 198.962 170.651 199.545 170.364C199.672 170.302 199.799 170.239 199.925 170.179C200.499 169.908 201.066 169.66 201.622 169.446C201.677 169.426 201.731 169.408 201.785 169.388C202.318 169.187 202.842 169.014 203.36 168.863C203.44 168.84 203.521 168.814 203.599 168.793C204.157 168.638 204.705 168.512 205.242 168.413C205.289 168.405 205.334 168.399 205.38 168.391C206.504 168.196 207.587 168.122 208.632 168.162C208.652 168.163 208.672 168.164 208.693 168.165C209.761 168.211 210.789 168.372 211.776 168.643C206.356 166.248 199.739 166.357 193.179 170.128C159.25 189.629 171.398 246.258 176.331 264.417L177.165 267.537C178.849 273.837 182.573 279.402 187.754 283.362L196.558 290.091V290.087C203.686 295.569 213.799 301.964 227.524 307.724C230.179 308.839 233.138 309.027 235.908 308.238C246.624 305.186 274.647 295.805 288.618 277.942C289.24 277.146 289.561 276.218 289.622 275.282H289.644V269.235L289.631 269.25Z" fill="#176B68"/>
<path d="M308.355 334.048C306.033 319.279 303.07 295.66 301.37 281.695C301.258 280.777 301.104 279.869 300.908 278.974C299.205 271.178 294.099 264.55 287.242 260.469L252.441 239.751L228.813 227.324C228.813 227.324 222.524 245.544 229.831 256.684C235.912 265.954 262.753 277.453 270.729 281.325C278.706 285.196 278.878 286.252 278.712 291.429C278.545 296.606 278.54 303.202 288.346 323.867C291.163 329.804 293.127 334.246 294.497 337.649C297.913 337.946 302.985 337.524 308.355 334.048Z" fill="#37474F"/>
<path d="M297.59 349.691C297.574 350.308 297.716 350.91 298.011 351.453C298.66 352.646 300.144 354.883 303.246 357.682C307.934 361.91 323.476 378.459 328.941 368.186C328.941 368.186 312.885 352.807 310.757 346.482C310.152 344.685 309.307 340.107 308.355 334.048C302.985 337.525 297.913 337.946 294.498 337.65C297.509 345.127 297.642 347.565 297.59 349.691Z" fill="#FFA8A7"/>
<path d="M314.297 348.685L313.852 347.351C313.505 346.314 312.395 345.744 311.352 346.066L304.846 348.072C304.007 348.33 303.435 349.106 303.435 349.984V350.634C303.435 351.276 302.915 351.796 302.273 351.796C300.896 351.796 299.561 351.317 298.498 350.441L297.589 349.691V347.417C296.394 348.195 295.701 349.55 295.775 350.973C295.856 352.516 295.932 354.4 295.875 355.149C295.77 356.507 294.492 362.198 296.014 363.881C297.537 365.563 300.943 365.763 305.162 365.308C309.381 364.853 313.998 369.004 317.907 370.541C321.817 372.077 338.007 375.393 337.967 365.042C337.956 362.406 335.349 361.331 332.788 360.395C330.229 359.459 320.987 356.205 318.619 354.251C317.534 353.356 316.635 352.411 315.981 351.649C315.23 350.777 314.662 349.776 314.297 348.685Z" fill="#455A64"/>
<path d="M317.908 370.54C313.998 369.003 309.381 364.852 305.163 365.307C300.944 365.762 297.537 365.562 296.015 363.88C295.557 363.373 295.354 362.499 295.296 361.493C295.218 363.086 295.342 364.616 296.015 365.361C297.538 367.043 300.944 367.242 305.163 366.787C309.381 366.333 313.998 370.484 317.908 372.021C321.817 373.557 338.009 376.873 337.967 366.522C337.966 366.361 337.928 366.224 337.908 366.074C336.885 375.159 321.681 372.023 317.908 370.54Z" fill="#263238"/>
<path d="M276.739 351.98C274.418 337.212 271.455 313.594 269.755 299.628C268.86 292.286 265.236 285.558 259.602 280.768L217.834 245.257L195.516 244.872C195.516 244.872 190.911 263.477 198.217 274.616C204.298 283.887 231.14 295.386 239.116 299.258C247.093 303.129 247.266 304.185 247.099 309.362C246.932 314.539 246.927 321.135 256.733 341.799C259.55 347.737 261.514 352.179 262.884 355.582C266.298 355.878 271.37 355.457 276.739 351.98Z" fill="#37474F"/>
<path d="M265.963 366.295C265.948 366.912 265.535 368.746 266.395 369.385C267.486 370.195 268.528 372.816 271.63 375.615C276.319 379.843 281.269 370.74 279.141 364.415C278.537 362.618 277.692 358.039 276.739 351.981C271.37 355.458 266.298 355.879 262.883 355.583C265.894 363.059 266.016 364.169 265.963 366.295Z" fill="#FFA8A7"/>
<path d="M238.355 167.826C244.953 166.796 251.371 170.648 253.465 176.988C254.723 180.797 255.851 185.446 256.288 190.65C257.493 204.972 257.828 212.134 257.828 212.134L272.215 218.659C272.215 218.659 264.445 219.033 264.972 230.003L247.052 225.486L238.355 167.826Z" fill="#FFA8A7"/>
<path d="M258.359 203.477C256.24 187.961 255.398 179.851 253.578 175.999C250.726 169.961 244.953 166.796 238.355 167.825L243.773 210.427L244.471 210.358C249.269 209.889 253.791 207.89 257.369 204.657L258.359 203.477Z" fill="#176B68"/>
<path d="M257.828 212.134C257.828 212.134 255.084 212.938 253.578 214.744C253.578 214.744 255.313 211.445 257.74 210.427L257.828 212.134Z" fill="#F28F8F"/>
<path d="M203.802 180.384L219.895 172.591L233.153 168.015C233.153 168.015 243.774 164.627 246.492 178.782C248.727 190.418 249.019 234.626 249.019 234.626L248.782 239.464C248.782 239.464 242.649 256.644 220.737 258.066C198.826 259.488 194.562 250.249 194.562 250.249C194.562 250.249 192.343 191.757 203.802 180.384Z" fill="#229894"/>
<path d="M254.5 133.124C254.5 133.124 259.474 145.871 252.605 151.483C245.735 157.096 248.116 134.544 248.116 134.544L254.5 133.124Z" fill="#263238"/>
<path d="M242.383 461.368C240.823 462.269 238.295 462.269 236.736 461.368C235.177 460.468 235.177 459.009 236.736 458.108C238.295 457.207 240.823 457.207 242.383 458.108C243.942 459.009 243.942 460.469 242.383 461.368Z" fill="#455A64"/>
<path d="M243.561 363.53H235.574V459.648H243.561V363.53Z" fill="#37474F"/>
<path d="M148.761 408.726C150.966 408.726 152.754 407.694 152.754 406.42C152.754 405.147 150.966 404.114 148.761 404.114C146.555 404.114 144.768 405.147 144.768 406.42C144.768 407.694 146.555 408.726 148.761 408.726Z" fill="#455A64"/>
<path d="M152.762 310.213H144.775V406.331H152.762V310.213Z" fill="#263238"/>
<path d="M391.23 375.131C389.671 376.031 387.143 376.031 385.584 375.131C384.024 374.23 384.024 372.771 385.584 371.87C387.143 370.97 389.671 370.97 391.23 371.87C392.789 372.771 392.789 374.23 391.23 375.131Z" fill="#455A64"/>
<path d="M392.408 277.292H384.422V373.411H392.408V277.292Z" fill="#37474F"/>
<path d="M293.619 302.394C292.22 303.202 289.952 303.202 288.553 302.394C287.154 301.587 287.154 300.277 288.553 299.47C289.952 298.662 292.22 298.662 293.619 299.47C295.017 300.276 295.017 301.587 293.619 302.394Z" fill="#455A64"/>
<path d="M294.673 220.638H287.51V300.851H294.673V220.638Z" fill="#455A64"/>
<path d="M144.768 294.29V313.413L239.575 368.15V349.026L144.768 294.29Z" fill="#263238"/>
<path d="M392.408 260.789L239.574 349.026V368.15L392.408 279.912V260.789Z" fill="#37474F"/>
<path d="M297.601 206.052L144.768 294.29L239.575 349.026L392.409 260.789L297.601 206.052Z" fill="#455A64"/>
<path d="M220.926 265.596L255.689 285.666L313.484 252.243L278.726 231.763L220.926 265.596Z" fill="#EBEBEB"/>
<path d="M251.947 259.885L264.989 252.355L256.814 247.636L243.773 255.166L251.947 259.885Z" fill="#E0E0E0"/>
<path d="M257.166 280.653L239.598 270.313L273.932 249.533L257.166 280.653Z" fill="#E0E0E0"/>
<path d="M266.998 216.176L280.906 222.698C286.479 224.005 293.186 226.493 293.186 226.493C293.186 226.493 302.862 230.448 303.303 233.042C303.745 235.636 296.042 241.887 289.275 238.846C287.91 238.233 285.447 236.994 283.631 236.802C281.814 236.608 276.421 235.759 272.517 232.036L256.286 227.814C256.286 227.814 255.476 217.79 266.998 216.176Z" fill="#FFA8A7"/>
<path d="M276.003 235.576C277.614 237.3 282.206 241.653 283.208 242.91C284.21 244.168 286.577 240.934 282.428 236.116C282.428 236.116 276.903 234.206 272.408 230.662C272.408 230.662 274.392 233.853 276.003 235.576Z" fill="#FFA8A7"/>
<path d="M236.4 152.614H219.893V172.591H236.4V152.614Z" fill="#FFA8A7"/>
<path d="M236.401 172.591C230.567 170.339 224.471 165.819 221.236 158.169V152.614H236.401V172.591Z" fill="#F28F8F"/>
<path d="M241.954 126.241C241.954 126.241 256.969 128.047 253.526 153.696C251.933 165.558 248.764 171.556 239.618 170.54C229.254 169.39 214.939 161.342 217.158 141.017C219.377 120.693 241.954 126.241 241.954 126.241Z" fill="#FFA8A7"/>
<path d="M242.796 149.113L242.252 157.969L247.537 156.695L242.796 149.113Z" fill="#F28F8F"/>
<path d="M234.935 148.313C234.874 149.31 235.632 150.167 236.629 150.228C237.626 150.289 238.483 149.531 238.544 148.534C238.605 147.537 237.847 146.68 236.85 146.619C235.854 146.558 234.996 147.317 234.935 148.313Z" fill="#263238"/>
<path d="M246.882 147.783C246.821 148.78 247.579 149.637 248.576 149.698C249.573 149.759 250.43 149.001 250.491 148.005C250.552 147.008 249.794 146.151 248.797 146.09C247.801 146.029 246.943 146.787 246.882 147.783Z" fill="#263238"/>
<path d="M251.115 144.271L247.715 141.959C247.715 141.959 249.156 140.634 250.452 141.563C251.748 142.491 251.115 144.271 251.115 144.271Z" fill="#263238"/>
<path d="M236.19 143.867L232.516 145.712C232.516 145.712 232.06 143.81 233.501 143.128C234.943 142.448 236.19 143.867 236.19 143.867Z" fill="#263238"/>
<path d="M242.513 161.569C242.513 161.569 239.069 161.671 236.799 159.657C236.799 159.657 236.214 162.692 238.742 163.434C241.269 164.177 242.513 161.569 242.513 161.569Z" fill="#F28F8F"/>
<path d="M219.714 148.906C219.714 148.906 222.025 153.707 223.447 153.54C224.869 153.374 223.447 135.134 226.408 135.016C229.37 134.897 243.321 141.831 255.663 132.884C260.401 129.449 261.348 120.685 258.506 121.514C255.663 122.344 251.826 124.83 246.638 124.476C241.45 124.12 223.329 115.711 218.828 127.555C218.828 127.555 208.792 126.737 212.562 146.654C213.498 151.599 216.459 163.869 219.894 165.077L219.714 148.906Z" fill="#263238"/>
<path d="M220.527 153.286C220.568 151.786 220.327 150.276 219.713 148.906C219.025 147.37 217.808 145.819 215.696 145.761C211.06 145.634 210.434 150.098 210.496 151.687C210.661 155.861 214.039 160.369 220.327 160.541L220.527 153.286Z" fill="#FFA8A7"/>
<path d="M221.963 242.675L233.788 252.044C233.788 252.044 237.529 252.405 239.79 253.083C242.05 253.761 247.988 255.945 249.56 256.284C251.131 256.625 249.1 259.329 244.992 258.346C244.992 258.346 253.613 264.254 253.498 266.884C253.382 269.513 244.533 273.997 238.56 269.594C237.356 268.706 235.21 266.976 233.475 266.404C231.74 265.832 226.648 263.863 223.617 259.399L213.276 254.007C213.276 254.007 210.36 241.82 221.963 242.675Z" fill="#FFA8A7"/>
<path d="M209.053 177.842C209.053 177.842 215.957 183.193 211.716 199.806C207.473 216.419 205.208 230.744 205.208 230.744L221.964 242.674C221.964 242.674 214.88 245.192 213.276 254.007C213.276 254.007 186.865 243.624 186.332 236.961C185.799 230.297 191.84 201.438 192.759 196.134C193.678 190.83 198.372 180.353 209.053 177.842Z" fill="#FFA8A7"/>
<path d="M205.208 230.745C205.208 230.745 201.811 230.02 198.891 230.805C198.891 230.805 201.48 229.205 205.351 229.202L205.208 230.745Z" fill="#F28F8F"/>
<path d="M321.541 213.947L315.497 253.505C315.493 253.533 315.477 253.557 315.453 253.57L255.423 288.388C255.357 288.426 255.274 288.372 255.286 288.295L261.148 249.936C261.401 248.28 262.37 246.82 263.798 245.945L318.869 212.173C320.151 211.385 321.768 212.459 321.541 213.947Z" fill="#FAFAFA"/>
<path d="M255.423 288.387L223.356 269.813C221.851 268.942 220.924 267.334 220.924 265.594L255.688 285.664L255.423 288.387Z" fill="#E0E0E0"/>
<path d="M286.799 252.069C286.799 254.894 288.782 256.039 291.23 254.627C293.676 253.214 295.66 249.778 295.66 246.953C295.66 244.128 293.677 242.982 291.23 244.394C288.782 245.808 286.799 249.244 286.799 252.069Z" fill="#E0E0E0"/>
<path d="M220.417 133.38C220.417 133.38 217.694 129.353 219.351 128.05C221.01 126.747 222.313 130.892 220.417 133.38Z" fill="#263238"/>
<path d="M220.88 134.221C220.88 134.221 216.055 133.62 216.166 131.515C216.277 129.409 220.254 131.157 220.88 134.221Z" fill="#263238"/>
<path d="M219.893 172.591C219.893 172.591 223.434 181.921 231.606 180.736C239.778 179.551 236.399 172.591 236.399 172.591H219.893Z" fill="#FFA8A7"/>
<path d="M209.052 177.841C209.052 177.841 214.432 180.416 213.603 191.236C212.774 202.056 208.511 223.849 208.511 223.849C208.511 223.849 189.26 231.638 187.429 220.651C186.955 217.808 191.811 191.515 195.956 185.948C200.101 180.382 204.785 178.604 209.052 177.841Z" fill="#176B68"/>
<path d="M266.393 366.824C266.393 366.824 267.591 368.712 269.537 369.02C270.701 369.204 268.341 366.174 271.158 364.96C273.974 363.746 280.414 362.07 280.987 364.494L281.7 367.513C282.375 370.368 283.738 373.011 285.672 375.216C287.604 377.42 290.107 380.047 292.046 381.3C295.723 383.676 301.771 389.412 294.008 394.297C286.246 399.181 276.703 395.06 274.836 389.501C272.967 383.943 270.991 382.336 269.995 381.414C269 380.492 266.674 379.042 265.799 375.293C265.232 372.86 264.907 369.74 264.75 367.852C264.664 366.822 265.155 365.835 266.028 365.28L266.393 366.824Z" fill="#455A64"/>
<path d="M294.009 394.298C286.247 399.183 276.704 395.061 274.836 389.503C272.968 383.945 270.992 382.338 269.996 381.416C269.104 380.59 267.153 379.325 266.125 376.378C266.138 376.531 266.156 376.689 266.165 376.839C266.462 381.65 269.41 382.777 270.406 383.699C271.402 384.621 273.032 386.146 274.9 391.703C276.768 397.261 286.612 400.726 294.374 395.841C298.142 393.47 298.652 390.9 297.763 388.61C297.906 390.475 296.95 392.448 294.009 394.298Z" fill="#263238"/>
<path d="M256.701 320.489L231.965 334.77L200.744 316.746L225.531 302.435C226.188 302.056 226.996 302.056 227.653 302.435L256.701 319.207C257.194 319.491 257.194 320.203 256.701 320.489Z" fill="#BA68C8"/>
<path opacity="0.7" d="M256.701 320.489L231.965 334.77L200.744 316.746L225.531 302.435C226.188 302.056 226.996 302.056 227.653 302.435L256.701 319.207C257.194 319.491 257.194 320.203 256.701 320.489Z" fill="black"/>
<path d="M254.987 319.965L231.963 333.258L202.904 316.481L225.975 303.161C226.586 302.809 227.339 302.809 227.95 303.161L254.986 318.77C255.446 319.035 255.446 319.699 254.987 319.965Z" fill="white"/>
<path d="M231.963 333.257V330.664L255.331 317.173V319.381L231.963 333.257Z" fill="white"/>
<path d="M231.964 333.257V330.664L202.906 313.888V316.48L231.964 333.257Z" fill="#E0E0E0"/>
<path d="M256.701 316.383L231.965 330.664L200.744 312.64L225.531 298.329C226.188 297.951 226.996 297.951 227.653 298.329L256.701 315.101C257.194 315.385 257.194 316.097 256.701 316.383Z" fill="#229894"/>
<path d="M228.738 332.907C228.588 332.966 228.422 332.96 228.274 332.881C228.089 332.782 227.978 332.598 227.978 332.387V330.042C227.978 328.966 228.554 327.955 229.479 327.407L229.567 327.355C229.692 327.281 229.804 327.329 229.845 327.353C229.888 327.376 229.985 327.448 229.985 327.593C229.985 327.862 230.203 328.079 230.471 328.079C230.74 328.079 230.957 327.861 230.957 327.593C230.957 327.14 230.721 326.733 230.326 326.509C229.931 326.283 229.462 326.288 229.071 326.519L228.983 326.571C227.762 327.294 227.004 328.623 227.004 330.042V332.387C227.004 332.954 227.314 333.472 227.814 333.739C228.04 333.859 228.288 333.919 228.536 333.919C228.834 333.919 229.131 333.833 229.388 333.661C229.487 333.596 229.547 333.499 229.578 333.393L228.738 332.907Z" fill="white"/>
<path d="M224.117 330.239C223.967 330.298 223.8 330.292 223.653 330.213C223.467 330.114 223.357 329.93 223.357 329.72V327.375C223.357 326.299 223.933 325.29 224.858 324.741L224.946 324.689C225.071 324.615 225.183 324.663 225.224 324.687C225.267 324.711 225.364 324.782 225.364 324.928C225.364 325.197 225.582 325.414 225.85 325.414C226.119 325.414 226.336 325.195 226.336 324.928C226.336 324.474 226.1 324.067 225.705 323.843C225.31 323.618 224.842 323.622 224.45 323.853L224.362 323.906C223.141 324.629 222.383 325.959 222.383 327.377V329.722C222.383 330.289 222.693 330.806 223.192 331.074C223.419 331.195 223.667 331.255 223.915 331.255C224.213 331.255 224.51 331.168 224.767 330.996C224.865 330.931 224.925 330.834 224.956 330.728L224.117 330.239Z" fill="white"/>
<path d="M219.493 327.572C219.343 327.631 219.176 327.625 219.028 327.546C218.843 327.447 218.733 327.263 218.733 327.053V324.708C218.733 323.631 219.309 322.622 220.234 322.073L220.322 322.02C220.447 321.947 220.559 321.995 220.6 322.018C220.643 322.042 220.74 322.113 220.74 322.259C220.74 322.528 220.957 322.745 221.226 322.745C221.495 322.745 221.712 322.527 221.712 322.259C221.712 321.804 221.476 321.399 221.081 321.175C220.686 320.949 220.218 320.953 219.827 321.185L219.739 321.238C218.518 321.96 217.76 323.29 217.76 324.709V327.054C217.76 327.621 218.07 328.138 218.569 328.405C218.796 328.526 219.044 328.586 219.292 328.586C219.59 328.586 219.887 328.499 220.144 328.328C220.242 328.263 220.302 328.165 220.333 328.06L219.493 327.572Z" fill="white"/>
<path d="M214.874 324.904C214.724 324.963 214.557 324.957 214.409 324.878C214.224 324.779 214.114 324.595 214.114 324.385V322.04C214.114 320.964 214.69 319.953 215.616 319.405L215.704 319.353C215.829 319.279 215.941 319.327 215.982 319.351C216.024 319.374 216.122 319.446 216.122 319.592C216.122 319.86 216.339 320.078 216.608 320.078C216.876 320.078 217.094 319.86 217.094 319.592C217.094 319.137 216.858 318.731 216.463 318.507C216.068 318.283 215.598 318.286 215.208 318.517L215.12 318.57C213.899 319.293 213.141 320.624 213.141 322.041V324.386C213.141 324.953 213.451 325.471 213.95 325.738C214.177 325.859 214.425 325.919 214.673 325.919C214.971 325.919 215.268 325.832 215.525 325.66C215.623 325.595 215.683 325.497 215.714 325.392L214.874 324.904Z" fill="white"/>
<path d="M210.252 322.236C210.102 322.295 209.935 322.289 209.787 322.209C209.602 322.11 209.492 321.926 209.492 321.715V319.37C209.492 318.294 210.068 317.283 210.994 316.735L211.082 316.684C211.207 316.61 211.319 316.657 211.36 316.682C211.402 316.705 211.5 316.777 211.5 316.923C211.5 317.19 211.718 317.409 211.986 317.409C212.253 317.409 212.472 317.19 212.472 316.923C212.472 316.468 212.236 316.062 211.841 315.837C211.446 315.612 210.976 315.616 210.586 315.847L210.497 315.9C209.276 316.623 208.518 317.954 208.518 319.371V321.716C208.518 322.283 208.828 322.801 209.327 323.068C209.554 323.189 209.802 323.249 210.05 323.249C210.348 323.249 210.645 323.162 210.902 322.99C211 322.924 211.06 322.827 211.091 322.722L210.252 322.236Z" fill="white"/>
<path d="M205.629 319.569C205.479 319.628 205.312 319.621 205.164 319.542C204.979 319.442 204.869 319.258 204.869 319.049V316.703C204.869 315.627 205.444 314.617 206.37 314.069L206.458 314.016C206.583 313.943 206.695 313.989 206.736 314.014C206.778 314.038 206.876 314.109 206.876 314.255C206.876 314.523 207.094 314.741 207.362 314.741C207.63 314.741 207.848 314.523 207.848 314.255C207.848 313.8 207.612 313.395 207.217 313.169C206.822 312.944 206.352 312.948 205.961 313.18L205.874 313.231C204.652 313.954 203.895 315.284 203.895 316.702V319.047C203.895 319.614 204.205 320.132 204.704 320.399C204.931 320.52 205.179 320.58 205.427 320.58C205.725 320.58 206.021 320.493 206.279 320.321C206.377 320.255 206.437 320.158 206.468 320.054L205.629 319.569Z" fill="white"/>
<path d="M259.893 309.927L233.15 325.368L198.348 305.275L225.091 289.834L259.893 309.927Z" fill="#E6E6E6"/>
<path d="M261.429 309.423L233.486 322.569L200.488 299.632L228.431 286.485L261.429 309.423Z" fill="#FAFAFA"/>
<path d="M199.046 268.36H187.742H176.352L178.388 292.383H178.396C178.516 293.662 179.411 294.923 181.104 295.9C184.747 298.003 190.653 298.003 194.296 295.9C195.988 294.923 196.884 293.663 197.004 292.383H197.01L199.046 268.36Z" fill="#229894"/>
<path d="M200.496 267.049V265.145H200.048C199.486 263.934 198.394 262.788 196.749 261.838C191.75 258.952 183.647 258.952 178.649 261.838C177.004 262.788 175.911 263.934 175.349 265.145H174.9V267.063C174.9 268.954 176.149 270.845 178.649 272.288C183.647 275.174 191.75 275.174 196.749 272.288C199.254 270.842 200.502 268.945 200.496 267.049Z" fill="#E0E0E0"/>
<path d="M196.749 270.482C191.751 273.368 183.648 273.368 178.649 270.482C173.651 267.596 173.651 262.918 178.649 260.033C183.648 257.147 191.751 257.147 196.749 260.033C201.747 262.917 201.748 267.596 196.749 270.482Z" fill="#EBEBEB"/>
<path d="M197.953 264.465V262.94H197.594C197.143 261.97 196.268 261.052 194.95 260.291C190.945 257.979 184.452 257.979 180.447 260.291C179.129 261.052 178.254 261.97 177.803 262.94H177.443V264.478C177.443 265.992 178.444 267.508 180.447 268.664C184.452 270.976 190.944 270.976 194.949 268.664C196.958 267.504 197.958 265.984 197.953 264.465Z" fill="#E0E0E0"/>
<path d="M194.951 267.216C190.946 269.528 184.454 269.528 180.449 267.216C176.444 264.904 176.444 261.154 180.449 258.842C184.454 256.53 190.946 256.53 194.952 258.842C198.955 261.155 198.955 264.904 194.951 267.216Z" fill="#F5F5F5"/>
<path d="M193.277 265.996C190.202 267.774 185.199 267.774 182.113 265.996C179.129 264.275 179.026 261.521 181.802 259.742C181.906 259.673 182.009 259.605 182.113 259.547C182.755 259.18 183.49 258.881 184.269 258.664C187.207 257.849 190.844 258.136 193.277 259.547C196.363 261.326 196.363 264.217 193.277 265.996Z" fill="#F0F0F0"/>
<path d="M182.118 260.467C185.201 258.686 190.2 258.686 193.283 260.467C194.623 261.24 195.379 262.222 195.555 263.232C195.783 261.917 195.027 260.558 193.283 259.55C190.2 257.77 185.2 257.77 182.118 259.55C180.374 260.557 179.619 261.917 179.846 263.232C180.022 262.222 180.779 261.24 182.118 260.467Z" fill="#E0E0E0"/>
<path d="M186.335 260.775L184.04 262.232L181.803 260.626V259.743C181.906 259.674 182.01 259.605 182.113 259.548C182.755 259.181 183.49 258.882 184.27 258.665V259.329L186.335 260.775Z" fill="#E0E0E0"/>
<path d="M455.856 119.669L327.143 45.3567C325.667 44.5047 324.338 44.5677 323.397 45.3494L318.941 48.4308L321.98 52.1873V155.985C321.98 159.787 324.292 164.205 327.143 165.851L454.576 239.424L454.813 243.472L459.507 240.254C460.442 239.548 461.019 238.16 461.019 236.26V129.536C461.019 125.733 458.708 121.316 455.856 119.669Z" fill="#176B68"/>
<path d="M451.471 243.182L322.758 168.869C319.906 167.223 317.594 162.806 317.594 159.004V52.2782C317.594 48.4762 319.906 46.7287 322.758 48.3749L451.471 122.687C454.323 124.334 456.635 128.751 456.635 132.553V239.278C456.634 243.08 454.323 244.828 451.471 243.182Z" fill="#BA68C8"/>
<path d="M451.471 243.182L322.758 168.869C319.906 167.223 317.594 162.806 317.594 159.004V52.2782C317.594 48.4762 319.906 46.7287 322.758 48.3749L451.471 122.687C454.323 124.334 456.635 128.751 456.635 132.553V239.278C456.634 243.08 454.323 244.828 451.471 243.182Z" fill="#229894"/>
<path d="M451.471 122.687L322.758 48.3749C319.906 46.7287 317.594 48.4762 317.594 52.2782V57.4958L456.634 137.77V132.553C456.634 128.751 454.323 124.334 451.471 122.687Z" fill="#455A64"/>
<path d="M320.709 48.7884C321.167 48.7884 321.697 48.9549 322.241 49.2692L450.955 123.582C453.474 125.036 455.601 129.144 455.601 132.552V239.277C455.601 241.397 454.785 242.766 453.521 242.766C453.057 242.766 452.541 242.603 451.989 242.285L323.275 167.972C320.757 166.519 318.629 162.411 318.629 159.002V52.2781C318.629 50.1584 319.446 48.7884 320.709 48.7884ZM320.709 47.7544C318.877 47.7544 317.596 49.446 317.596 52.2771V159.002C317.596 162.804 319.908 167.222 322.759 168.868L451.473 243.18C452.201 243.601 452.895 243.8 453.522 243.8C455.354 243.8 456.636 242.108 456.636 239.277V132.553C456.636 128.751 454.324 124.333 451.473 122.687L322.758 48.3748C322.031 47.954 321.337 47.7544 320.709 47.7544Z" fill="#229894"/>
<path d="M377.263 104.258C377.077 104.258 376.889 104.211 376.716 104.111L327.721 75.8237C327.198 75.5217 327.018 74.8517 327.321 74.3275C327.623 73.8053 328.292 73.6243 328.817 73.9263L377.812 102.213C378.335 102.516 378.515 103.185 378.213 103.71C378.011 104.061 377.643 104.258 377.263 104.258Z" fill="white"/>
<path d="M446.202 144.058C446.016 144.058 445.828 144.011 445.655 143.911L409.362 122.957C408.839 122.655 408.659 121.985 408.962 121.461C409.263 120.938 409.934 120.757 410.458 121.061L446.751 142.015C447.274 142.317 447.454 142.987 447.151 143.511C446.949 143.862 446.582 144.058 446.202 144.058Z" fill="white"/>
<path d="M402.041 118.562C401.855 118.562 401.667 118.515 401.494 118.415L386.753 109.904C386.23 109.601 386.05 108.932 386.352 108.408C386.655 107.885 387.325 107.704 387.848 108.007L402.589 116.518C403.113 116.821 403.293 117.49 402.991 118.014C402.788 118.366 402.42 118.562 402.041 118.562Z" fill="white"/>
<path d="M377.263 172.881C377.077 172.881 376.889 172.833 376.716 172.734L327.721 144.447C327.198 144.145 327.018 143.475 327.321 142.951C327.623 142.428 328.292 142.249 328.817 142.55L377.812 170.837C378.335 171.14 378.515 171.809 378.213 172.333C378.011 172.684 377.643 172.881 377.263 172.881Z" fill="white"/>
<path d="M446.202 212.683C446.016 212.683 445.828 212.636 445.655 212.536L409.362 191.581C408.839 191.278 408.659 190.609 408.962 190.085C409.263 189.561 409.934 189.379 410.458 189.684L446.751 210.638C447.274 210.94 447.454 211.61 447.151 212.135C446.949 212.486 446.582 212.683 446.202 212.683Z" fill="white"/>
<path d="M402.041 187.185C401.855 187.185 401.667 187.139 401.494 187.038L386.753 178.528C386.23 178.226 386.05 177.556 386.352 177.031C386.655 176.508 387.325 176.328 387.848 176.63L402.589 185.141C403.113 185.444 403.293 186.113 402.991 186.637C402.788 186.989 402.42 187.185 402.041 187.185Z" fill="white"/>
<path d="M377.264 189.015C377.077 189.015 376.889 188.969 376.717 188.869L327.721 160.581C327.198 160.28 327.018 159.609 327.32 159.085C327.623 158.562 328.291 158.382 328.817 158.684L377.812 186.971C378.335 187.273 378.515 187.943 378.213 188.467C378.011 188.819 377.643 189.015 377.264 189.015Z" fill="white"/>
<path d="M430.756 219.899C430.569 219.899 430.381 219.853 430.209 219.752L409.362 207.718C408.839 207.416 408.659 206.746 408.961 206.221C409.264 205.698 409.934 205.517 410.457 205.821L431.304 217.856C431.827 218.158 432.007 218.828 431.705 219.352C431.502 219.703 431.135 219.899 430.756 219.899Z" fill="white"/>
<path d="M402.041 203.321C401.855 203.321 401.667 203.274 401.494 203.174L386.753 194.663C386.23 194.36 386.05 193.69 386.352 193.167C386.655 192.644 387.325 192.464 387.848 192.766L402.589 201.276C403.113 201.578 403.293 202.248 402.991 202.773C402.788 203.124 402.42 203.321 402.041 203.321Z" fill="white"/>
<path d="M352.83 98.6773C352.644 98.6773 352.455 98.6308 352.283 98.5305L327.721 84.3502C327.198 84.0483 327.018 83.3782 327.321 82.854C327.623 82.3318 328.292 82.1498 328.817 82.4538L353.378 96.6341C353.901 96.936 354.081 97.6061 353.779 98.1303C353.576 98.4808 353.208 98.6773 352.83 98.6773Z" fill="white"/>
<path d="M423.593 139.531C423.407 139.531 423.219 139.485 423.046 139.384L386.753 118.43C386.23 118.128 386.05 117.458 386.352 116.934C386.655 116.411 387.325 116.232 387.848 116.533L424.141 137.487C424.664 137.789 424.844 138.459 424.542 138.983C424.34 139.335 423.972 139.531 423.593 139.531Z" fill="white"/>
<path d="M377.607 112.981C377.421 112.981 377.233 112.935 377.06 112.834L362.319 104.324C361.796 104.022 361.616 103.352 361.918 102.827C362.221 102.304 362.889 102.123 363.414 102.427L378.155 110.938C378.678 111.24 378.858 111.91 378.555 112.434C378.353 112.785 377.985 112.981 377.607 112.981Z" fill="white"/>
<path d="M377.264 121.311C377.077 121.311 376.889 121.265 376.717 121.164L327.721 92.8771C327.198 92.5742 327.018 91.9052 327.32 91.3809C327.623 90.8577 328.291 90.6789 328.817 90.9798L377.812 119.267C378.335 119.57 378.515 120.239 378.213 120.763C378.011 121.115 377.643 121.311 377.264 121.311Z" fill="white"/>
<path d="M419.577 145.741C419.391 145.741 419.202 145.694 419.03 145.594L409.362 140.012C408.839 139.71 408.659 139.039 408.962 138.516C409.263 137.994 409.934 137.813 410.458 138.115L420.126 143.697C420.649 143.998 420.829 144.668 420.526 145.193C420.323 145.544 419.956 145.741 419.577 145.741Z" fill="white"/>
<path d="M357.663 118.521C357.477 118.521 357.289 118.475 357.116 118.375L347.448 112.793C346.925 112.491 346.745 111.821 347.047 111.297C347.35 110.773 348.018 110.593 348.543 110.896L358.211 116.477C358.734 116.779 358.914 117.449 358.612 117.973C358.409 118.325 358.041 118.521 357.663 118.521Z" fill="white"/>
<path d="M402.041 135.616C401.855 135.616 401.667 135.569 401.494 135.469L386.753 126.958C386.23 126.656 386.05 125.986 386.352 125.462C386.655 124.939 387.325 124.759 387.848 125.061L402.589 133.571C403.113 133.873 403.293 134.543 402.991 135.068C402.788 135.419 402.42 135.616 402.041 135.616Z" fill="white"/>
<path d="M343.973 110.617C343.787 110.617 343.599 110.57 343.426 110.47L327.721 101.404C327.198 101.102 327.018 100.432 327.32 99.9075C327.623 99.3843 328.291 99.2044 328.817 99.5063L344.521 108.572C345.044 108.875 345.224 109.544 344.922 110.069C344.719 110.42 344.351 110.617 343.973 110.617Z" fill="white"/>
<path d="M377.607 130.036C377.421 130.036 377.233 129.99 377.06 129.889L362.319 121.378C361.796 121.077 361.616 120.407 361.918 119.882C362.221 119.359 362.889 119.178 363.414 119.482L378.155 127.993C378.678 128.295 378.858 128.965 378.555 129.489C378.353 129.84 377.985 130.036 377.607 130.036Z" fill="white"/>
<path d="M377.264 138.986C377.077 138.986 376.889 138.94 376.717 138.84L327.721 110.552C327.198 110.25 327.018 109.58 327.32 109.056C327.623 108.534 328.291 108.352 328.817 108.655L377.812 136.942C378.335 137.245 378.515 137.914 378.213 138.438C378.011 138.79 377.643 138.986 377.264 138.986Z" fill="white"/>
<path d="M446.202 178.788C446.016 178.788 445.828 178.742 445.655 178.641L409.362 157.687C408.839 157.385 408.659 156.715 408.962 156.191C409.263 155.669 409.934 155.486 410.458 155.791L446.751 176.745C447.274 177.047 447.454 177.717 447.151 178.241C446.949 178.592 446.582 178.788 446.202 178.788Z" fill="white"/>
<path d="M402.041 153.292C401.855 153.292 401.667 153.245 401.494 153.145L386.753 144.634C386.23 144.332 386.05 143.662 386.352 143.138C386.655 142.615 387.325 142.436 387.848 142.737L402.589 151.248C403.113 151.551 403.293 152.22 402.991 152.744C402.788 153.095 402.42 153.292 402.041 153.292Z" fill="white"/>
<path d="M352.831 133.407C352.645 133.407 352.457 133.36 352.284 133.26L327.723 119.08C327.2 118.777 327.02 118.108 327.322 117.584C327.625 117.06 328.293 116.881 328.818 117.182L353.379 131.363C353.902 131.665 354.082 132.335 353.78 132.859C353.578 133.21 353.209 133.407 352.831 133.407Z" fill="white"/>
<path d="M423.593 174.262C423.407 174.262 423.219 174.215 423.046 174.115L386.753 153.161C386.23 152.859 386.05 152.189 386.352 151.665C386.655 151.141 387.325 150.961 387.848 151.263L424.141 172.217C424.664 172.519 424.844 173.189 424.542 173.714C424.34 174.065 423.972 174.262 423.593 174.262Z" fill="white"/>
<path d="M377.607 147.712C377.421 147.712 377.233 147.665 377.06 147.565L362.319 139.054C361.796 138.752 361.616 138.082 361.918 137.558C362.221 137.034 362.889 136.853 363.414 137.156L378.155 145.667C378.678 145.969 378.858 146.639 378.555 147.163C378.353 147.515 377.985 147.712 377.607 147.712Z" fill="white"/>
<path d="M377.264 156.041C377.077 156.041 376.889 155.995 376.717 155.894L327.721 127.607C327.198 127.304 327.018 126.635 327.32 126.111C327.623 125.588 328.291 125.408 328.817 125.71L377.812 153.997C378.335 154.299 378.515 154.969 378.213 155.493C378.011 155.845 377.643 156.041 377.264 156.041Z" fill="white"/>
<path d="M419.577 180.469C419.391 180.469 419.202 180.423 419.03 180.323L409.362 174.741C408.839 174.438 408.659 173.768 408.962 173.245C409.263 172.723 409.934 172.541 410.458 172.844L420.126 178.425C420.649 178.727 420.829 179.397 420.526 179.921C420.323 180.274 419.956 180.469 419.577 180.469Z" fill="white"/>
<path d="M357.665 153.251C357.478 153.251 357.29 153.205 357.118 153.105L347.45 147.523C346.926 147.221 346.747 146.551 347.05 146.027C347.351 145.505 348.02 145.322 348.546 145.627L358.214 151.208C358.737 151.511 358.917 152.18 358.614 152.704C358.411 153.055 358.043 153.251 357.665 153.251Z" fill="white"/>
<path d="M402.041 170.345C401.855 170.345 401.667 170.299 401.494 170.199L386.753 161.688C386.23 161.385 386.05 160.715 386.352 160.191C386.655 159.668 387.325 159.489 387.848 159.79L402.589 168.301C403.113 168.603 403.293 169.273 402.991 169.797C402.788 170.149 402.42 170.345 402.041 170.345Z" fill="white"/>
<path d="M343.973 145.346C343.787 145.346 343.599 145.299 343.426 145.2L327.721 136.133C327.198 135.832 327.018 135.162 327.32 134.637C327.623 134.114 328.291 133.934 328.817 134.236L344.521 143.302C345.044 143.604 345.224 144.274 344.922 144.798C344.719 145.15 344.351 145.346 343.973 145.346Z" fill="white"/>
<path d="M377.607 164.765C377.421 164.765 377.233 164.719 377.06 164.618L362.319 156.107C361.796 155.805 361.616 155.135 361.918 154.611C362.221 154.088 362.889 153.908 363.414 154.21L378.155 162.722C378.678 163.024 378.858 163.694 378.555 164.218C378.353 164.569 377.985 164.765 377.607 164.765Z" fill="white"/>
<path d="M357.663 169.596C357.477 169.596 357.289 169.549 357.116 169.449L347.448 163.868C346.925 163.566 346.745 162.896 347.047 162.371C347.35 161.849 348.018 161.668 348.543 161.97L358.211 167.552C358.734 167.854 358.914 168.524 358.612 169.048C358.409 169.401 358.041 169.596 357.663 169.596Z" fill="white"/>
<path d="M343.973 161.692C343.787 161.692 343.599 161.646 343.426 161.545L327.721 152.479C327.198 152.177 327.018 151.507 327.32 150.983C327.623 150.46 328.291 150.279 328.817 150.583L344.521 159.649C345.044 159.951 345.224 160.621 344.922 161.145C344.719 161.496 344.351 161.692 343.973 161.692Z" fill="white"/>
<path d="M377.607 181.11C377.421 181.11 377.233 181.063 377.06 180.964L362.319 172.453C361.796 172.151 361.616 171.481 361.918 170.957C362.221 170.433 362.889 170.253 363.414 170.555L378.155 179.066C378.678 179.368 378.858 180.038 378.555 180.562C378.353 180.914 377.985 181.11 377.607 181.11Z" fill="white"/>
<path d="M337.967 86.4579V126.106C337.967 126.741 337.734 127.17 337.376 127.309L337.365 127.312L337.363 127.314L335.845 128.146L335.854 126.794L335.639 86.0318L337.626 85.0278C337.839 85.4838 337.967 85.9884 337.967 86.4579Z" fill="#263238"/>
<path d="M337.63 85.0295L335.642 86.0336L287.569 57.8529L286.424 57.186L288.007 56.2947L288.052 56.2678C288.305 56.1158 288.636 56.1251 289 56.335L336.54 83.7267C336.976 83.979 337.367 84.465 337.63 85.0295Z" fill="#37474F"/>
<path d="M336.245 87.3219V126.707C336.245 127.255 336.07 127.648 335.792 127.832L335.701 127.882C335.459 127.996 335.155 127.972 334.824 127.78L287.569 100.553C286.784 100.1 286.146 98.8831 286.146 97.8377V58.4537C286.146 57.9243 286.309 57.5406 286.571 57.3483C286.616 57.3152 286.665 57.2873 286.716 57.2666C286.954 57.1653 287.249 57.1953 287.569 57.3793L334.824 84.6077C335.242 84.8486 335.617 85.3066 335.877 85.8392C336.105 86.3055 336.245 86.8318 336.245 87.3219Z" fill="#455A64"/>
<path d="M325.399 104.002V102.486L314.832 90.1705V92.5957L322.937 101.785L322.872 101.595V101.974L322.937 101.861L314.832 101.69V104.115L325.399 104.002ZM304.788 78.6118L310.203 104.967L311.975 105.99L306.56 79.6349L304.788 78.6118ZM291.369 84.3538L301.935 96.6692V94.244L293.83 85.0549L293.895 85.2443V84.8654L293.83 84.9791L301.935 85.1496V82.7244L291.369 82.8381V84.3538Z" fill="#FAFAFA"/>
<path d="M286.815 57.311C286.947 57.311 287.094 57.3565 287.251 57.4475L334.791 84.8392C335.149 85.045 335.496 85.4555 335.744 85.9663C335.966 86.4171 336.089 86.9062 336.089 87.3415V126.964C336.089 127.403 335.966 127.735 335.77 127.865L335.692 127.908C335.63 127.937 335.561 127.952 335.488 127.952C335.357 127.952 335.211 127.906 335.055 127.816L287.515 100.425C286.81 100.018 286.215 98.8716 286.215 97.9214V58.2985C286.215 57.8756 286.332 57.5478 286.535 57.3979C286.564 57.3762 286.592 57.3607 286.627 57.3472C286.684 57.3234 286.747 57.311 286.815 57.311ZM286.815 57.0474C286.711 57.0474 286.613 57.067 286.524 57.1053C286.472 57.1249 286.424 57.1539 286.378 57.187C286.115 57.3803 285.951 57.766 285.951 58.2995V97.9203C285.951 98.973 286.592 100.196 287.382 100.652L334.922 128.044C335.123 128.16 335.314 128.216 335.488 128.216C335.602 128.216 335.708 128.192 335.804 128.146L335.896 128.096C336.177 127.91 336.352 127.514 336.352 126.963V87.3405C336.352 86.8472 336.212 86.3189 335.981 85.8494C335.721 85.3138 335.343 84.8527 334.922 84.6107L287.382 57.218C287.18 57.1022 286.988 57.0474 286.815 57.0474Z" fill="#37474F"/>
<path d="M330.32 58.3309C330.32 59.459 329.528 59.9161 328.55 59.3525C327.573 58.788 326.781 57.4169 326.781 56.2888C326.781 55.1607 327.573 54.7037 328.55 55.2672C329.528 55.8318 330.32 57.2028 330.32 58.3309Z" fill="white"/>
<path d="M336.894 62.3903C336.894 63.5184 336.102 63.9754 335.125 63.4118C334.148 62.8483 333.355 61.4762 333.355 60.3481C333.355 59.22 334.148 58.763 335.125 59.3265C336.103 59.8911 336.894 61.2622 336.894 62.3903Z" fill="white"/>
<path d="M343.468 66.4501C343.468 67.5782 342.676 68.0352 341.699 67.4717C340.722 66.9081 339.93 65.536 339.93 64.4079C339.93 63.2798 340.722 62.8228 341.699 63.3863C342.676 63.9499 343.468 65.322 343.468 66.4501Z" fill="white"/>
</svg>
