<svg width="49" height="43" viewBox="0 0 49 43" fill="none" xmlns="http://www.w3.org/2000/svg">
<path fill-rule="evenodd" clip-rule="evenodd" d="M3.31771 -0.1875H45.6823C47.5086 -0.1875 49 1.58127 49 3.74731V39.0377C49 41.199 47.5086 42.9725 45.6823 42.9725H3.31771C1.49137 42.9725 0 41.199 0 39.0377V3.74731C0 1.58127 1.49137 -0.1875 3.31771 -0.1875ZM17.4259 30.4303H13.0794L12.4534 32.8612H8.53353L13.211 18.1245H17.414L22.0715 32.8612H18.048L17.4259 30.4303ZM16.6165 27.2427L15.2607 21.9458L13.8969 27.2427H16.6165ZM23.5868 18.1245H29.975C31.3667 18.1245 32.4075 18.5171 33.1013 19.3021C33.7912 20.0872 34.1381 21.2081 34.1381 22.6552C34.1381 24.145 33.7593 25.3084 33.0056 26.1455C32.2519 26.9873 31.0955 27.4035 29.5443 27.4035H27.4389V32.8564H23.5868V18.1245ZM27.4389 24.4193H28.384C29.1296 24.4193 29.652 24.2632 29.9551 23.9605C30.2542 23.6531 30.4057 23.2653 30.4057 22.7877C30.4057 22.3242 30.2741 21.9316 30.0109 21.61C29.7517 21.2885 29.2572 21.1277 28.5355 21.1277H27.4349V24.4193H27.4389ZM36.6144 18.1245H40.4665V32.8612H36.6144V18.1245ZM47.0421 10.8271H2.10946V39.4208C2.10946 39.7234 2.20915 39.9883 2.37663 40.1916C2.54411 40.3903 2.7714 40.5085 3.02661 40.5085H46.109C46.3642 40.5085 46.5875 40.3903 46.759 40.1916C46.9304 39.9883 47.0261 39.7234 47.0261 39.4208V10.8271H47.0421ZM42.5241 4.23444C43.4293 4.23444 44.163 5.10464 44.163 6.1782C44.163 7.25176 43.4293 8.12196 42.5241 8.12196C41.6189 8.12196 40.8852 7.25176 40.8852 6.1782C40.8892 5.10464 41.6229 4.23444 42.5241 4.23444ZM31.4225 4.23444C32.3277 4.23444 33.0614 5.10464 33.0614 6.1782C33.0614 7.25176 32.3277 8.12196 31.4225 8.12196C30.5173 8.12196 29.7836 7.25176 29.7836 6.1782C29.7836 5.10464 30.5173 4.23444 31.4225 4.23444ZM36.9733 4.23444C37.8785 4.23444 38.6122 5.10464 38.6122 6.1782C38.6122 7.25176 37.8785 8.12196 36.9733 8.12196C36.0681 8.12196 35.3344 7.25176 35.3344 6.1782C35.3344 5.10464 36.0681 4.23444 36.9733 4.23444Z" fill="#029894"/>
</svg>
