<svg width="59" height="41" viewBox="0 0 59 41" fill="none" xmlns="http://www.w3.org/2000/svg">
<path fill-rule="evenodd" clip-rule="evenodd" d="M3.65861 0.8125H50.387C52.3992 0.8125 54.0456 2.33987 54.0456 4.20653V14.4108C53.3224 14.2944 52.5971 14.189 51.8701 14.0946V10.3155H51.8857H2.32509V34.9838C2.32424 35.1074 2.34999 35.2298 2.40082 35.344C2.45165 35.4581 2.52653 35.5617 2.62109 35.6487C2.71485 35.7364 2.82654 35.8059 2.94961 35.853C3.07268 35.9002 3.20466 35.9241 3.33781 35.9233H32.981C33.1941 36.6469 33.4612 37.3558 33.7922 38.0472H3.65861C1.64644 38.0472 0 36.5198 0 34.6531V4.20653C0 2.33987 1.64644 0.8125 3.65861 0.8125ZM41.3779 22.5268C43.0829 23.055 45.4562 23.3815 48.0926 23.3815C50.7291 23.3815 53.1021 23.055 54.8074 22.5268C56.3041 22.0635 57.2298 21.5023 57.2298 20.9533C57.2298 20.4048 56.3041 19.8436 54.8074 19.3801C53.1021 18.8521 50.7291 18.5253 48.0926 18.5253C45.4562 18.5253 43.0829 18.8521 41.3779 19.3801C38.2023 20.3634 38.115 21.5165 41.3779 22.5268ZM54.1792 25.0923C54.7433 25.0923 55.2008 25.5167 55.2008 26.04C55.2008 26.5633 54.7433 26.9874 54.1792 26.9874C54.045 26.9874 53.9122 26.9629 53.7883 26.9153C53.6644 26.8677 53.5518 26.7979 53.457 26.71C53.3621 26.622 53.2869 26.5175 53.2356 26.4026C53.1843 26.2876 53.1579 26.1644 53.1579 26.04C53.1579 25.5167 53.6151 25.0923 54.1792 25.0923ZM54.1792 30.6709C54.7433 30.6709 55.2008 31.0953 55.2008 31.6185C55.2008 32.1418 54.7433 32.566 54.1792 32.566C54.045 32.566 53.9122 32.5415 53.7883 32.4939C53.6644 32.4463 53.5518 32.3765 53.457 32.2885C53.3621 32.2005 53.2869 32.0961 53.2356 31.9811C53.1843 31.8662 53.1579 31.743 53.1579 31.6185C53.1579 31.0953 53.6151 30.6709 54.1792 30.6709ZM54.1792 36.0273C54.4501 36.0273 54.7099 36.1272 54.9015 36.3049C55.0931 36.4826 55.2007 36.7237 55.2008 36.975C55.2008 37.4983 54.7433 37.9224 54.1792 37.9224C54.045 37.9225 53.9122 37.898 53.7883 37.8503C53.6644 37.8027 53.5518 37.733 53.457 37.645C53.3621 37.557 53.2869 37.4525 53.2356 37.3376C53.1843 37.2226 53.1579 37.0994 53.1579 36.975C53.1579 36.4517 53.6151 36.0273 54.1792 36.0273ZM57.2332 33.7103C56.7001 34.0487 56.0212 34.3469 55.2183 34.5955C53.3817 35.1645 50.8611 35.5163 48.0926 35.5163C45.3239 35.5163 42.8035 35.1645 40.9667 34.5955C40.1742 34.35 39.499 34.0563 38.969 33.7234V37.3325C39.0868 37.8444 39.9851 38.3603 41.3779 38.7915C43.0829 39.3194 45.4562 39.646 48.0926 39.646C50.7291 39.646 53.1021 39.3196 54.8074 38.7915C55.8409 38.4713 56.6021 38.1047 56.9744 37.7278C57.2815 37.4167 57.2332 37.2117 57.2332 36.84V33.7103ZM37.6562 20.9533C37.6562 19.8285 38.9214 18.8742 40.9667 18.2407C42.8035 17.6722 45.3242 17.32 48.0926 17.32C50.8611 17.32 53.3817 17.6722 55.2185 18.2407C57.0802 18.8173 58.2956 19.6598 58.4986 20.6549C58.5228 20.7181 58.536 20.7862 58.536 20.8574V37.4672C58.536 38.6188 56.1646 39.6379 55.2183 39.9307C53.3817 40.4995 50.8611 40.8513 48.0926 40.8513C45.3239 40.8513 42.8035 40.4995 40.9667 39.9307C39.9983 39.6306 37.6698 38.6453 37.6698 37.4672V37.0813C37.6698 31.7055 37.6562 26.3286 37.6562 20.9533ZM38.969 31.9974C39.0868 32.509 39.9851 33.0249 41.3779 33.4561C43.0829 33.9843 45.4562 34.311 48.0926 34.311C50.7291 34.311 53.1021 33.9843 54.8074 33.4561C56.3041 32.9928 57.2298 32.4316 57.2298 31.8829H57.2369V28.3752C56.7038 28.7137 56.0212 29.0116 55.2183 29.2603C53.3817 29.8292 50.8611 30.1809 48.0926 30.1809C45.3239 30.1809 42.8035 29.8292 40.9667 29.2603C40.1742 29.015 39.499 28.7213 38.969 28.3884V31.9974ZM38.969 26.6621C39.0868 27.174 39.9851 27.6899 41.3779 28.1211C43.0829 28.649 45.4562 28.9757 48.0926 28.9757C50.7291 28.9757 53.1021 28.6493 54.8074 28.1211C56.3041 27.6577 57.2298 27.0966 57.2298 26.5476H57.2369V22.781C56.7038 23.1194 56.0212 23.4176 55.2183 23.666C53.3817 24.2349 50.8611 24.5866 48.0926 24.5866C45.3242 24.5866 42.8035 24.2349 40.9667 23.666C40.1742 23.4207 39.499 23.127 38.969 22.7941V26.6621ZM15.1341 25.1897C15.63 25.5922 15.68 26.2921 15.2461 26.7521C14.8122 27.2122 14.0579 27.2586 13.5619 26.8561L9.02415 23.1676C8.5283 22.7651 8.47823 22.0652 8.9121 21.6051C8.94973 21.5652 8.99038 21.5279 9.03375 21.4934L13.5619 17.8128C14.0579 17.4103 14.8122 17.4567 15.2461 17.9168C15.68 18.3769 15.63 19.0767 15.1341 19.4792L11.6213 22.3343L15.1341 25.1897ZM24.8159 26.8561C24.3201 27.2586 23.5657 27.2122 23.1318 26.7521C22.6979 26.2921 22.748 25.5922 23.2438 25.1897L26.7565 22.3343L23.2438 19.4792C22.748 19.0767 22.6979 18.3769 23.1318 17.9168C23.5657 17.4567 24.3201 17.4103 24.8159 17.8128L29.3441 21.4934C29.3869 21.5273 29.4277 21.5647 29.4658 21.6051C29.8997 22.0652 29.8496 22.7651 29.3537 23.1676L24.8159 26.8561ZM19.6349 16.304C19.7925 15.7095 20.4398 15.346 21.0806 15.4922C21.7214 15.6382 22.1132 16.2387 21.9557 16.8332L19.0315 27.7505C18.8741 28.3451 18.2268 28.7085 17.5859 28.5624C16.9451 28.4163 16.5533 27.8158 16.7108 27.2213L19.6349 16.304ZM46.9049 4.6278C47.9029 4.6278 48.712 5.37839 48.712 6.30419C48.712 7.22999 47.9029 7.98026 46.9049 7.98026C45.907 7.98026 45.0979 7.22999 45.0979 6.30419C45.0979 5.37839 45.907 4.6278 46.9049 4.6278ZM34.6572 4.6278C35.6552 4.6278 36.4643 5.37839 36.4643 6.30419C36.4643 7.22999 35.6552 7.98026 34.6572 7.98026C33.6593 7.98026 32.8502 7.22999 32.8502 6.30419C32.8502 5.37839 33.6593 4.6278 34.6572 4.6278ZM40.7813 4.6278C41.7791 4.6278 42.588 5.37839 42.588 6.30419C42.588 7.22999 41.7791 7.98026 40.7813 7.98026C39.7833 7.98026 38.9742 7.22999 38.9742 6.30419C38.9742 5.37839 39.7833 4.6278 40.7813 4.6278Z" fill="#029894"/>
</svg>
