<svg width="52" height="41" viewBox="0 0 52 41" fill="none" xmlns="http://www.w3.org/2000/svg">
<path fill-rule="evenodd" clip-rule="evenodd" d="M12.5205 35.8634V21.4864H19.4906C22.4459 21.9782 25.4012 23.4641 28.3565 25.1906H33.7702C36.2214 25.3276 37.5041 27.632 35.1238 29.1459C33.2246 30.437 30.7209 30.3642 28.1534 30.1505C26.3834 30.0695 26.3057 32.2776 28.1534 32.2846C28.7943 32.3306 29.4919 32.1916 30.1014 32.1908C33.306 32.1881 35.9457 31.6196 37.5604 29.2712L38.373 27.5132L46.4268 23.8091C50.457 22.5779 53.3204 26.4891 50.3521 29.2082C44.5187 33.1451 38.5358 36.3855 32.4174 39.0018C27.9733 41.5093 23.5296 41.4245 19.0855 39.0018L12.5205 35.8634ZM42.8381 12.8248C42.7247 12.7523 42.5955 12.72 42.4649 12.7442C42.3352 12.7683 42.2223 12.8325 42.1443 12.9373L41.7023 13.5159C41.5466 13.4517 41.3816 13.4034 41.2078 13.3633C41.0349 13.3232 40.87 13.2908 40.697 13.2667L40.5577 12.5109C40.5321 12.382 40.4624 12.2855 40.3583 12.2134C40.2458 12.141 40.1245 12.1169 39.986 12.141L38.9627 12.31C38.833 12.3341 38.7289 12.3906 38.642 12.495C38.564 12.5997 38.5295 12.7122 38.5551 12.8407L38.6857 13.5323C38.5207 13.5969 38.365 13.6689 38.2177 13.7577C38.0699 13.8379 37.9234 13.9345 37.7929 14.031L37.0995 13.5887C36.987 13.5163 36.8657 13.4844 36.7356 13.5085C36.6051 13.5326 36.493 13.5969 36.4149 13.7016L35.8256 14.4816C35.7476 14.5859 35.7132 14.7066 35.7388 14.8273C35.7652 14.9562 35.8349 15.0524 35.9469 15.1248L36.5707 15.5348C36.5018 15.6797 36.4494 15.8323 36.4057 15.9931C36.3621 16.1539 36.3276 16.3066 36.3016 16.4674L35.4878 16.5963C35.3484 16.6204 35.2452 16.6846 35.1662 16.7812C35.0882 16.886 35.063 16.9985 35.0882 17.127L35.2703 18.0759C35.2968 18.1966 35.3572 18.2928 35.4705 18.3734C35.583 18.4458 35.7043 18.4777 35.8428 18.4536L36.5879 18.3329C36.6575 18.4855 36.7356 18.6304 36.8305 18.767C36.9174 18.9037 37.0215 19.0404 37.1255 19.1689L36.6483 19.8039C36.5702 19.9083 36.5358 20.0212 36.5623 20.1415C36.5879 20.2622 36.6575 20.3666 36.7696 20.439L37.6187 20.9939C37.7321 21.0663 37.8622 21.0901 37.9919 21.0663C38.1224 21.0422 38.2345 20.9861 38.3214 20.8813L38.7633 20.2946C38.919 20.3588 39.084 20.4071 39.2578 20.4472C39.4307 20.4873 39.5957 20.5196 39.7686 20.5438L39.9079 21.2991C39.9335 21.428 40.0032 21.5242 40.1073 21.5966C40.2198 21.6694 40.3411 21.6932 40.4796 21.6694L41.5029 21.5005C41.6326 21.4763 41.7367 21.4202 41.8236 21.3155C41.9016 21.2108 41.9361 21.0982 41.9105 20.9693L41.7799 20.2782C41.9449 20.214 42.1006 20.1415 42.2479 20.0531C42.3957 19.9725 42.5422 19.876 42.6815 19.7798L43.3661 20.2221C43.4786 20.2946 43.5999 20.3269 43.7384 20.3023C43.8777 20.2782 43.981 20.214 44.0599 20.1096L44.6576 19.3215C44.7357 19.2172 44.7617 19.0964 44.7357 18.9757C44.7101 18.855 44.6496 18.7507 44.5363 18.6701L43.9033 18.2679C43.973 18.123 44.0246 17.9704 44.0683 17.8096C44.1119 17.6487 44.1464 17.4961 44.1724 17.3353L44.9871 17.2064C45.1256 17.1823 45.2297 17.118 45.3078 17.0215C45.3858 16.9167 45.4118 16.8042 45.3858 16.6757L45.2037 15.7268C45.1772 15.6061 45.1168 15.5095 45.0043 15.4293C44.8918 15.3569 44.7705 15.3246 44.6312 15.3487L43.8861 15.4694C43.8173 15.3246 43.7384 15.1797 43.6435 15.0353C43.5566 14.8904 43.4525 14.7619 43.3493 14.6416L43.8257 13.9983C43.9038 13.8936 43.939 13.7811 43.9126 13.6608C43.8861 13.5404 43.8173 13.4357 43.7044 13.3633L42.8641 12.8166L42.8381 12.8248ZM39.8655 15.0598C40.1337 15.0193 40.4024 15.0193 40.6714 15.0761C40.9312 15.1326 41.1659 15.2288 41.382 15.3654C41.5902 15.5021 41.7715 15.6793 41.9189 15.888C42.0662 16.0967 42.1615 16.3303 42.2051 16.5795C42.2488 16.8287 42.2488 17.0779 42.1879 17.3271C42.127 17.5681 42.0229 17.7854 41.8756 17.9863C41.7287 18.1795 41.5377 18.3481 41.3124 18.4847C41.087 18.6214 40.836 18.7098 40.5673 18.7503C40.2983 18.7904 40.0305 18.7904 39.7614 18.7339C39.5016 18.6775 39.267 18.5813 39.0508 18.4446C38.8427 18.308 38.6605 18.1308 38.5132 17.9221C38.3663 17.713 38.2706 17.4798 38.2269 17.2306C38.1841 16.9814 38.1841 16.7322 38.245 16.483C38.3058 16.2419 38.4099 16.0247 38.5564 15.8237C38.7041 15.6306 38.8951 15.462 39.1197 15.3253C39.3447 15.1883 39.5965 15.0999 39.8655 15.0598ZM31.9956 3.78734C31.9519 3.74723 31.9175 3.72309 31.8743 3.70673C31.8399 3.69077 31.7962 3.68259 31.7438 3.68259C31.6921 3.68259 31.6485 3.69077 31.6141 3.70673C31.5796 3.72309 31.536 3.74723 31.5007 3.77916L31.4923 3.78734L30.5127 4.69575C30.3226 4.87253 30.0191 4.89667 29.8021 4.75221C29.6896 4.68796 29.5767 4.62333 29.447 4.55908C29.3085 4.49483 29.178 4.4302 29.0567 4.37413C28.9261 4.31767 28.7876 4.2616 28.6491 4.21331C28.5278 4.17321 28.3893 4.12492 28.2243 4.07664C27.9905 4.00422 27.8432 3.8033 27.8432 3.58603V2.19556C27.8432 2.14728 27.8344 2.099 27.8168 2.06668C27.7991 2.03436 27.7731 1.99426 27.7387 1.97012C27.7043 1.9378 27.669 1.91366 27.6346 1.89769C27.6002 1.88134 27.5477 1.87316 27.4961 1.87316H25.6077C25.5557 1.87316 25.5125 1.88134 25.4776 1.88952C25.4428 1.90587 25.3995 1.92962 25.3563 1.97012C25.3215 2.00243 25.2955 2.03436 25.2866 2.06668C25.2694 2.099 25.2606 2.14728 25.2606 2.19556V3.47389C25.2606 3.73127 25.0612 3.93997 24.8014 3.98825C24.6541 4.02057 24.5156 4.0525 24.3943 4.08482C24.2554 4.12531 24.1257 4.16542 23.9867 4.21331C23.8566 4.2616 23.7181 4.30988 23.588 4.37413C23.4491 4.43059 23.3278 4.49483 23.2065 4.55129C22.9811 4.66382 22.7212 4.62372 22.5479 4.46251L21.4646 3.46571C21.4566 3.45753 21.4566 3.45753 21.4566 3.44975C21.4218 3.41743 21.3869 3.39329 21.3525 3.37732C21.3177 3.36136 21.2833 3.36136 21.2312 3.36136C21.1792 3.36136 21.1359 3.36953 21.1011 3.3855C21.0574 3.40185 21.023 3.4256 20.9798 3.4661L19.6623 4.69614C19.6186 4.73625 19.5926 4.76856 19.5754 4.80867C19.5577 4.84099 19.5493 4.88109 19.5493 4.92938C19.5493 4.97766 19.5582 5.01777 19.5754 5.05008C19.5926 5.0824 19.6186 5.12251 19.6534 5.15483V5.163L20.6327 6.07142C20.8236 6.24858 20.8497 6.52971 20.6935 6.73063C20.6243 6.83537 20.555 6.93973 20.4858 7.06043C20.4161 7.18893 20.3468 7.30963 20.2864 7.42216C20.2255 7.54287 20.1647 7.67136 20.113 7.80025C20.0698 7.91278 20.0178 8.04127 19.9657 8.1943C19.8876 8.41118 19.6711 8.54785 19.4369 8.54785H17.9376C17.8855 8.54785 17.8335 8.55603 17.7991 8.57199C17.7642 8.58835 17.7298 8.6121 17.695 8.63663C17.6601 8.66856 17.6341 8.70088 17.6257 8.7328C17.6085 8.76512 17.5997 8.81341 17.5997 8.86169V10.6143C17.5997 10.6626 17.6085 10.7027 17.6173 10.735C17.6345 10.7673 17.6606 10.8074 17.7042 10.8475C17.739 10.8798 17.7735 10.904 17.8083 10.9118C17.8431 10.9281 17.8952 10.9359 17.9472 10.9359H19.3252C19.6027 10.9359 19.828 11.1209 19.8801 11.3623C19.9145 11.4989 19.9493 11.6274 19.9842 11.7322C20.0274 11.8607 20.0711 11.9895 20.1227 12.118C20.1747 12.2387 20.2268 12.3672 20.296 12.4961C20.3657 12.6328 20.4262 12.7535 20.487 12.866C20.5999 13.0751 20.5563 13.3162 20.3829 13.4692L19.308 14.4582L19.2992 14.4664C19.2643 14.4987 19.2383 14.5306 19.2211 14.5629C19.2039 14.5953 19.2039 14.6276 19.2039 14.6755C19.2039 14.7238 19.2127 14.7639 19.2299 14.7962C19.2471 14.8363 19.2732 14.8768 19.3164 14.9087L20.6251 16.1391C20.66 16.1715 20.7032 16.1956 20.7464 16.2116C20.7901 16.2279 20.8333 16.2357 20.8853 16.2357C20.9374 16.2357 20.9894 16.2275 21.0327 16.2116C21.0671 16.1956 21.1107 16.1715 21.1456 16.1473L22.1164 15.2307C22.307 15.0458 22.6104 15.0298 22.827 15.1665C22.9399 15.2307 23.052 15.2954 23.1821 15.3596C23.321 15.4238 23.4507 15.4881 23.572 15.5446C23.7022 15.601 23.8407 15.6571 23.9796 15.7054C24.1009 15.7455 24.2398 15.7938 24.4044 15.842C24.6386 15.9145 24.7859 16.1154 24.7859 16.3327V17.7235C24.7859 17.7718 24.7947 17.8201 24.8119 17.8524C24.8291 17.8847 24.8552 17.9248 24.8812 17.949C24.9504 18.0132 25.0285 18.0373 25.1326 18.0373H27.0222C27.0738 18.0373 27.1175 18.0292 27.1519 18.021C27.1863 18.005 27.23 17.9809 27.2732 17.9408C27.3076 17.9085 27.3341 17.8761 27.3429 17.8442C27.3601 17.8119 27.3693 17.7636 27.3693 17.7153V16.437C27.3693 16.1796 27.5687 15.9705 27.8285 15.9222C27.9754 15.8899 28.1148 15.858 28.2361 15.8257C28.3746 15.7852 28.5043 15.7451 28.6436 15.6968C28.7733 15.6485 28.9118 15.6002 29.0504 15.536C29.1981 15.4717 29.3282 15.4153 29.4495 15.3592C29.6749 15.2545 29.9347 15.295 30.0997 15.4558L31.1654 16.453L31.1742 16.4611C31.2086 16.4935 31.243 16.5176 31.2774 16.5336C31.3127 16.5499 31.3564 16.5499 31.408 16.5499C31.4604 16.5499 31.5033 16.5417 31.5385 16.5258C31.5729 16.5094 31.6074 16.4853 31.6426 16.4534C31.651 16.4452 31.6598 16.4374 31.6682 16.4374L32.9857 15.2311C33.021 15.1988 33.0466 15.1587 33.0638 15.1186C33.0819 15.0785 33.0903 15.038 33.0903 14.9901C33.0903 14.9418 33.0819 14.8935 33.0638 14.8534C33.0466 14.8211 33.021 14.781 32.995 14.7487L32.0069 13.848C31.8067 13.6713 31.7895 13.3897 31.9373 13.1888C32.0069 13.0841 32.0758 12.9797 32.1454 12.859C32.2143 12.7305 32.284 12.6098 32.3448 12.4973C32.4057 12.3766 32.4661 12.2481 32.5177 12.1192C32.5614 12.0067 32.6139 11.8782 32.6655 11.7252C32.7436 11.5079 32.9597 11.3716 33.1944 11.3716H34.6936C34.7461 11.3716 34.7977 11.3634 34.8321 11.3471C34.8666 11.3311 34.9102 11.307 34.9362 11.2828C35.0059 11.2186 35.0315 11.1462 35.0315 11.0496V9.29701C35.0315 9.24873 35.0231 9.20862 35.0143 9.1763C34.9971 9.14437 34.9706 9.10388 34.9274 9.06378C34.893 9.03185 34.8586 9.00731 34.8242 8.99953C34.7889 8.98356 34.7373 8.97539 34.6856 8.97539H33.3068C33.0298 8.97539 32.796 8.78226 32.7528 8.54123C32.7184 8.4287 32.6831 8.308 32.6487 8.18768C32.605 8.06697 32.5618 7.93809 32.501 7.80181C32.501 7.79363 32.4926 7.78545 32.4926 7.77727C32.4401 7.64878 32.3885 7.53625 32.336 7.42372C32.2751 7.30301 32.2147 7.18231 32.1459 7.06978C32.0246 6.86068 32.0678 6.61966 32.2411 6.45885L33.3161 5.45387C33.3161 5.44569 33.3249 5.44569 33.3333 5.44569C33.3677 5.41376 33.3941 5.38144 33.4114 5.34912C33.4286 5.31681 33.4286 5.28488 33.4286 5.23659C33.4286 5.18792 33.4202 5.14782 33.403 5.11589C33.3857 5.07539 33.3593 5.04346 33.3161 5.00336L31.9897 3.78111L31.9956 3.78734ZM32.3079 2.75043C32.49 2.82285 32.6458 2.91942 32.7843 3.04791L34.1106 4.27016H34.119C34.2575 4.39905 34.3616 4.5435 34.4397 4.70432C34.5186 4.87331 34.553 5.04191 34.553 5.22686C34.553 5.4122 34.5094 5.58898 34.4397 5.74979C34.3616 5.9106 34.2575 6.05506 34.111 6.17577L33.3308 6.90741C33.3396 6.93155 33.3572 6.95569 33.3652 6.97983C33.4349 7.1165 33.4957 7.26135 33.5562 7.39763C33.5562 7.40581 33.565 7.41399 33.565 7.42216C33.6258 7.55884 33.6775 7.71147 33.7299 7.87228L33.7471 7.92874H34.7003C34.8997 7.92874 35.0899 7.96106 35.2636 8.03348C35.4365 8.09773 35.5923 8.20247 35.7316 8.33097L35.74 8.33915C35.8785 8.46764 35.9826 8.61249 36.0523 8.7733C36.1211 8.93411 36.1648 9.11089 36.1648 9.28806V11.0406C36.1648 11.4187 36.0263 11.74 35.74 12.0055C35.6015 12.1344 35.4365 12.2387 35.2636 12.303C35.0899 12.3672 34.8997 12.3996 34.7003 12.3996H33.5902C33.5818 12.4237 33.5646 12.456 33.5557 12.4802C33.4949 12.625 33.4252 12.7695 33.3564 12.9143C33.2783 13.067 33.2086 13.2118 33.131 13.3403L33.1045 13.3886L33.7807 14.0077L33.8072 14.0318C33.9457 14.1607 34.0409 14.3133 34.1106 14.4742C34.1795 14.635 34.2147 14.804 34.2147 14.9889C34.2147 15.1657 34.1795 15.3347 34.1106 15.4955C34.0409 15.6563 33.9457 15.8012 33.8072 15.9378L33.7899 15.9538L32.4636 17.176C32.3251 17.3127 32.1685 17.4093 31.9956 17.4817C31.8227 17.5541 31.6317 17.5861 31.4235 17.5861C31.2241 17.5861 31.034 17.5459 30.8514 17.4817C30.6693 17.4093 30.5135 17.3049 30.3843 17.176L29.6128 16.4526C29.5864 16.4685 29.5603 16.4767 29.5259 16.4849C29.3782 16.5414 29.2224 16.6056 29.0579 16.6617C28.9022 16.7181 28.7372 16.7664 28.5727 16.8147C28.5463 16.8229 28.5291 16.8311 28.503 16.8311V17.7072C28.503 17.8921 28.4686 18.0689 28.3905 18.2297C28.3209 18.3905 28.2084 18.5354 28.0699 18.6638L28.0611 18.672C27.9225 18.8005 27.7668 18.8971 27.5931 18.9613C27.4201 19.026 27.2291 19.0661 27.039 19.0661H25.1494C24.7418 19.0661 24.3955 18.9376 24.1093 18.672C23.9708 18.5431 23.8579 18.3905 23.7886 18.2297C23.7194 18.0689 23.6845 17.8921 23.6845 17.7072V16.6757C23.6585 16.6675 23.6237 16.6516 23.5976 16.6434C23.4415 16.5869 23.2858 16.5227 23.1296 16.4584C22.9647 16.386 22.809 16.3218 22.67 16.2493L22.618 16.2252L21.9506 16.8525L21.9246 16.8766C21.7857 17.0055 21.6211 17.0939 21.4478 17.1581C21.2744 17.2224 21.0927 17.2547 20.8933 17.2547C20.7028 17.2547 20.5206 17.2224 20.3473 17.1581C20.1739 17.0935 20.0178 17.0051 19.8704 16.8766L19.8528 16.8606L18.5269 15.6143C18.3884 15.4854 18.2843 15.3409 18.2062 15.1801C18.1281 15.0111 18.0937 14.8425 18.0937 14.6576C18.0937 14.4726 18.137 14.2958 18.2062 14.135C18.2843 13.9742 18.3972 13.8294 18.5357 13.7009L19.3156 12.9852C19.2983 12.961 19.2895 12.9369 19.2811 12.9046C19.2203 12.7679 19.151 12.6231 19.0902 12.4704C19.0293 12.3174 18.9689 12.1729 18.9256 12.0203L18.908 11.9557H17.9636C17.7638 11.9557 17.5733 11.9237 17.3999 11.8513C17.2266 11.7871 17.0708 11.6823 16.9319 11.5538L16.9231 11.5457C16.7846 11.4172 16.6805 11.2723 16.6112 11.1115C16.542 10.9507 16.4983 10.7739 16.4983 10.5971V8.84456C16.4983 8.6596 16.5332 8.49061 16.6024 8.32201C16.6717 8.1612 16.7846 8.01674 16.9231 7.87968C17.062 7.75119 17.2266 7.64644 17.3999 7.5822C17.5733 7.51756 17.7638 7.48563 17.9636 7.48563H19.073C19.0818 7.46149 19.099 7.42917 19.1078 7.40542C19.1687 7.26057 19.2379 7.11573 19.3072 6.97127C19.3852 6.81824 19.4545 6.67378 19.5326 6.5449L19.5586 6.49662L18.8912 5.86972C18.7523 5.74123 18.6398 5.59638 18.5705 5.42739C18.4925 5.2584 18.4576 5.08162 18.4576 4.90485C18.4576 4.7195 18.4925 4.5509 18.5705 4.3823C18.6486 4.21331 18.7523 4.06847 18.8912 3.93997L20.2087 2.70993V2.70214C20.3477 2.57365 20.5034 2.47708 20.6767 2.40466C20.8589 2.33224 21.0406 2.29992 21.24 2.29992C21.4398 2.29992 21.6304 2.34002 21.8033 2.40466C21.9766 2.47708 22.1328 2.57365 22.2629 2.70993L23.0512 3.43339C23.0776 3.42522 23.1036 3.40925 23.1208 3.40146C23.2682 3.33683 23.4243 3.28076 23.5888 3.21651C23.745 3.16005 23.9095 3.11177 24.074 3.06387C24.1001 3.0557 24.1173 3.04752 24.1433 3.04752V2.17142C24.1433 1.98647 24.1781 1.80969 24.2562 1.64888C24.3259 1.48807 24.4384 1.34361 24.5769 1.21473L24.5857 1.20655C24.7246 1.07805 24.8803 0.981489 25.0537 0.917242C25.227 0.852995 25.4172 0.8125 25.6077 0.8125H27.4969C27.6963 0.8125 27.878 0.844818 28.0602 0.909065C28.2424 0.973312 28.3989 1.07805 28.5374 1.20655C28.676 1.33504 28.7884 1.48807 28.8581 1.64888C28.927 1.80969 28.9622 1.98647 28.9622 2.17142V3.20055C28.9878 3.20872 29.0231 3.22469 29.0483 3.23286C29.2048 3.28932 29.3605 3.35357 29.5163 3.41782C29.6812 3.49024 29.8369 3.55449 29.9763 3.62691L30.0279 3.65105L30.7041 3.03195C30.8426 2.90306 30.9983 2.79871 31.1805 2.73446C31.3626 2.66204 31.5536 2.62972 31.7438 2.62972C31.944 2.62972 32.1257 2.66204 32.3079 2.73446V2.75043ZM26.3183 6.00639C26.6046 6.00639 26.8904 6.03092 27.1674 6.08699C27.4365 6.13527 27.7051 6.21549 27.9733 6.32023C28.2252 6.42497 28.4678 6.54529 28.6932 6.68196C28.9186 6.81863 29.1267 6.97944 29.3169 7.15622C29.5079 7.33339 29.6808 7.52613 29.8285 7.7434C29.9843 7.95249 30.1148 8.17717 30.2189 8.4104C30.2273 8.42675 30.2273 8.44272 30.2361 8.45051C30.3402 8.68374 30.4183 8.92516 30.4699 9.158C30.5223 9.41538 30.5568 9.68055 30.5568 9.94571C30.5568 10.2109 30.5303 10.4764 30.4699 10.7338C30.4183 10.983 30.3314 11.2322 30.2189 11.4814C30.1056 11.7146 29.9763 11.9397 29.8285 12.1488C29.6728 12.3579 29.5079 12.5506 29.3169 12.7356C29.1267 12.9128 28.9186 13.0736 28.6839 13.2102C28.4594 13.3551 28.2159 13.4754 27.9649 13.572C27.9477 13.5802 27.9305 13.5802 27.9213 13.5879C27.6694 13.6845 27.4096 13.7569 27.1591 13.8052C26.8812 13.8535 26.5949 13.8858 26.3099 13.8858C26.0237 13.8858 25.7378 13.8617 25.4604 13.8052C25.1918 13.7569 24.9227 13.6763 24.6541 13.572C24.4027 13.4672 24.1601 13.3465 23.9347 13.2102C23.7093 13.0736 23.5015 12.9128 23.311 12.7356C23.1204 12.5588 22.9471 12.3657 22.7993 12.1488C22.6436 11.9397 22.5135 11.7146 22.4094 11.4814C22.4006 11.4654 22.4006 11.4491 22.3918 11.4413C22.2877 11.2081 22.2096 10.967 22.158 10.7338C22.1059 10.4764 22.0711 10.2113 22.0711 9.94571C22.0711 9.68016 22.0971 9.41499 22.158 9.158C22.21 8.9088 22.2965 8.6596 22.4094 8.4104C22.5219 8.17717 22.652 7.95211 22.7993 7.7434C22.9471 7.5343 23.1204 7.34117 23.311 7.15622C23.5015 6.97944 23.7097 6.81863 23.9347 6.68196C24.1601 6.53711 24.4027 6.41641 24.6541 6.32023C24.6717 6.31205 24.6889 6.31205 24.6978 6.30387C24.9492 6.20731 25.209 6.13527 25.4604 6.08699C25.7378 6.03871 26.0237 6.00639 26.3099 6.00639H26.3183ZM26.9513 7.09976C26.7519 7.05965 26.5349 7.0433 26.3183 7.0433C26.1018 7.0433 25.894 7.05965 25.6858 7.09976C25.4864 7.13987 25.3047 7.18815 25.1313 7.25279C25.1225 7.26096 25.1137 7.26096 25.0965 7.26875C24.8971 7.34935 24.715 7.43774 24.5504 7.54209C24.3859 7.64645 24.2298 7.75936 24.0912 7.88786C23.9523 8.01674 23.8226 8.1612 23.7185 8.31423C23.6056 8.46686 23.5103 8.63585 23.4239 8.8208C23.3454 8.98979 23.2849 9.17436 23.2417 9.36749C23.1985 9.55244 23.1809 9.75336 23.1809 9.95428C23.1809 10.1552 23.1985 10.3479 23.2417 10.5411C23.2854 10.726 23.3374 10.8946 23.4062 11.0554C23.4151 11.0636 23.4151 11.0714 23.4239 11.0878C23.5103 11.2727 23.606 11.4413 23.7185 11.5943C23.831 11.7474 23.9523 11.8918 24.0912 12.0203C24.2298 12.1492 24.3859 12.2695 24.5504 12.3661C24.715 12.4708 24.8971 12.5592 25.0965 12.6394C25.2787 12.7118 25.478 12.7679 25.6858 12.8084C25.8856 12.8489 26.1022 12.8649 26.3183 12.8649C26.5345 12.8649 26.7431 12.8489 26.9513 12.8084C27.1507 12.7679 27.3324 12.72 27.5062 12.6558C27.5146 12.6476 27.5234 12.6476 27.5406 12.6394C27.74 12.5588 27.9217 12.4704 28.0867 12.3661C28.2516 12.2617 28.4073 12.1492 28.5458 12.0203C28.6844 11.8914 28.8149 11.747 28.919 11.5943C29.0315 11.4413 29.1272 11.2727 29.2132 11.0878C29.2913 10.9188 29.3517 10.7338 29.3954 10.5411C29.439 10.3561 29.4562 10.1552 29.4562 9.95428C29.4562 9.75336 29.439 9.56023 29.3954 9.36749C29.3517 9.18254 29.3001 9.01355 29.2304 8.85273C29.222 8.84456 29.222 8.83677 29.2132 8.82041C29.1272 8.63546 29.031 8.46647 28.919 8.31384C28.8057 8.16081 28.6844 8.01635 28.5458 7.88747C28.4073 7.75897 28.2516 7.63827 28.0867 7.5417C27.9217 7.43696 27.74 7.34857 27.5406 7.26836C27.3588 7.19671 27.1595 7.13987 26.9513 7.09976ZM0 20.1049H10.4223V37.3072H0V20.1049Z" fill="#029894"/>
</svg>
