<svg width="222" height="270" fill="none" xmlns="http://www.w3.org/2000/svg"><path style="mix-blend-mode:multiply" d="M180.456 190.371c47.385 15.507 54.691 43.599 16.318 62.745-38.373 19.146-107.887 22.1-155.268 6.594-47.38-15.507-54.691-43.595-16.322-62.741 38.37-19.146 107.891-22.088 155.272-6.598Z" fill="url(#a)"/><path d="M110.925 226.077c-22.787 0-44.29-3.092-62.174-8.942-25.13-8.225-39.555-20.927-40.618-35.761-.52-7.307 2.098-21.308 25.514-32.997 19.172-9.565 47.38-15.055 77.389-15.055 22.79 0 44.285 3.096 62.17 8.947 25.133 8.22 39.559 20.922 40.618 35.76.523 7.308-2.094 21.308-25.51 32.993-19.177 9.569-47.385 15.055-77.389 15.055Z" fill="#001C63" style="mix-blend-mode:multiply" opacity=".2"/><path d="M170.799 149.849c40.798 13.349 47.087 37.537 14.049 54.023-33.037 16.486-92.889 19.026-133.682 5.677C10.372 196.2 4.079 172.012 37.112 155.53c33.034-16.482 92.889-19.03 133.687-5.681Z" fill="#001C63" style="mix-blend-mode:multiply"/><g style="mix-blend-mode:multiply"><path d="M158.623 155.925c32.494 10.635 37.503 29.876 11.191 43.026-26.311 13.15-73.982 15.154-106.472 4.523-32.49-10.631-37.506-29.897-11.19-43.026 26.315-13.129 73.982-15.154 106.471-4.523Z" fill="url(#b)"/><path d="M158.623 155.925c32.494 10.635 37.503 29.876 11.191 43.026-26.311 13.15-73.982 15.154-106.472 4.523-32.49-10.631-37.506-29.897-11.19-43.026 26.315-13.129 73.982-15.154 106.471-4.523Z" fill="url(#c)"/><path d="M158.623 155.925c32.494 10.635 37.503 29.876 11.191 43.026-26.311 13.15-73.982 15.154-106.472 4.523-32.49-10.631-37.506-29.897-11.19-43.026 26.315-13.129 73.982-15.154 106.471-4.523Z" fill="url(#d)"/></g><path d="M110.925 241.866c-22.787 0-44.29-3.095-62.174-8.946-25.13-8.225-39.555-20.922-40.618-35.761-.52-7.307 2.098-21.308 25.514-32.993 19.172-9.569 47.38-15.059 77.389-15.059 22.79 0 44.285 3.096 62.17 8.947 25.133 8.224 39.559 20.922 40.618 35.76.523 7.308-2.094 21.308-25.51 32.998-19.177 9.564-47.385 15.054-77.389 15.054Z" fill="#001C63" style="mix-blend-mode:multiply" opacity=".2"/><path d="M178.758 152.31h-13.419a71.63 71.63 0 0 0-11.706-4.917c-29.088-9.519-71.767-7.706-95.326 4.05a43.12 43.12 0 0 0-1.636.867H43.338v14.744c-1.227 8.51 7.36 17.133 24.99 22.909 29.088 9.519 71.767 7.706 95.322-4.05 10.173-5.075 15.104-11.174 15.096-17.233l.012-16.37Z" fill="#E6E6E8"/><path d="M153.634 131.028c29.092 9.519 33.577 26.764 10.018 38.52-23.56 11.756-66.239 13.569-95.322 4.05-29.084-9.519-33.578-26.765-10.022-38.52 23.556-11.756 66.238-13.569 95.326-4.05Z" fill="#FDFDFF"/><path style="mix-blend-mode:multiply" d="M110.979 179.78c37.434 0 67.78-12.299 67.78-27.47s-30.346-27.47-67.78-27.47-67.78 12.299-67.78 27.47 30.346 27.47 67.78 27.47Z" fill="url(#e)"/><path d="M178.758 125.205h-13.419a71.542 71.542 0 0 0-11.706-4.917c-29.088-9.519-71.767-7.706-95.326 4.05-.573.286-1.112.576-1.636.867H43.338v14.743c-1.227 8.511 7.36 17.134 24.99 22.91 29.088 9.519 71.767 7.705 95.322-4.05 10.173-5.075 15.104-11.175 15.096-17.237l.012-16.366Z" fill="#E6E6E8"/><path d="M153.634 103.923c29.092 9.519 33.577 26.765 10.018 38.52-23.56 11.756-66.239 13.565-95.322 4.046-29.084-9.519-33.578-26.765-10.022-38.516 23.556-11.751 66.238-13.569 95.326-4.05Z" fill="#FDFDFF"/><path style="mix-blend-mode:multiply" opacity=".25" d="M110.979 139.452c19.409 0 35.143-6.378 35.143-14.246 0-7.867-15.734-14.245-35.143-14.245s-35.143 6.378-35.143 14.245c0 7.868 15.734 14.246 35.143 14.246Z" fill="url(#f)"/><path d="M108.881 23.897c0 5.049-1.156 8.862-3.468 11.44-2.311 2.579-5.423 3.866-9.334 3.864-3.95 0-7.085-1.288-9.405-3.864-2.32-2.575-3.475-6.389-3.467-11.44v-7.86c0-5.05 1.148-8.863 3.443-11.435C88.945 2.029 92.065.74 96.01.734c3.927 0 7.052 1.294 9.375 3.88 2.322 2.587 3.482 6.395 3.479 11.424l.017 7.86Zm-8.53-8.448c0-2.858-.37-4.912-1.112-6.162a3.57 3.57 0 0 0-1.345-1.4 3.5 3.5 0 0 0-1.869-.476 3.435 3.435 0 0 0-1.864.471 3.504 3.504 0 0 0-1.333 1.405c-.72 1.25-1.078 3.304-1.075 6.162v8.987c0 2.908.362 4.983 1.087 6.225.316.585.786 1.07 1.358 1.398a3.486 3.486 0 0 0 1.88.46c.65.023 1.291-.14 1.854-.468a3.512 3.512 0 0 0 1.332-1.39c.728-1.245 1.09-3.32 1.087-6.225V15.45ZM113.984 22.229l2.126-20.956h21.605V7.95h-14.65l-.936 7.834c.726-.54 1.54-.95 2.404-1.207a11.29 11.29 0 0 1 3.165-.515c3.609-.066 6.384.999 8.325 3.195 1.94 2.197 2.91 5.317 2.907 9.362a12.815 12.815 0 0 1-3.312 8.921c-2.211 2.44-5.374 3.66-9.49 3.66a14.614 14.614 0 0 1-9.134-2.954 8.941 8.941 0 0 1-2.865-3.413 9.092 9.092 0 0 1-.881-4.393l.053-.153 8.35-.515c0 1.489.408 2.653 1.226 3.494.429.422.939.75 1.498.965.559.214 1.156.31 1.753.28 1.554 0 2.655-.553 3.304-1.66a8.23 8.23 0 0 0 .973-4.199c0-2.053-.363-3.67-1.088-4.85-.725-1.182-1.873-1.773-3.443-1.773a4.706 4.706 0 0 0-2.768.743 3.848 3.848 0 0 0-1.455 1.876l-7.667-.42Z" fill="#001C63"/><g clip-path="url(#g)"><path d="M98.677 117.629h.086a.649.649 0 0 1 .139 0h10.534a.704.704 0 0 1 .647.433.705.705 0 0 1 .054.268v3.797a.733.733 0 0 1-.052.27.716.716 0 0 1-.38.382.71.71 0 0 1-.269.054H98.381a.71.71 0 0 1-.498-.207.712.712 0 0 1-.203-.499v-3.797a.7.7 0 0 1 .7-.719h.149a.661.661 0 0 1 .166 0l-.018.018Zm10.732-1.667H99.073a.7.7 0 0 1-.53-.243c-.4-.396-.818-.8-1.254-1.218l-1.348-1.29c-.971-.898-1.96-1.851-2.984-2.876-1.025-1.024-2.054-2.076-3.115-3.312a16.093 16.093 0 0 1-2.395-3.352 17.29 17.29 0 0 1-1.1-3.294l-.216-.809-.27-.957c-.409-1.456-.809-2.935-1.24-4.386a11.379 11.379 0 0 1-.58-2.427c-.1-.658-.045-1.33.162-1.964a1.98 1.98 0 0 1 .224-.449c.1-.143.225-.266.369-.364.124-.08.26-.136.404-.166a1.28 1.28 0 0 1 .414 0c.281.03.553.122.795.27.248.147.473.332.665.548a.58.58 0 0 1 .13.202l3.686 8.763v.036a.643.643 0 0 1 .062.09c.102.179.22.349.35.507.131.16.272.31.423.45l7.316 6.965.05.059a.262.262 0 0 0 .166.067.241.241 0 0 0 .166-.045l.045-.04a.289.289 0 0 0 .063-.158.25.25 0 0 0-.045-.161l-.063-.072c-2.076-2.422-4.467-5.523-6.642-7.739a3.813 3.813 0 0 1-.575-.674 2.718 2.718 0 0 1-.36-.8c-.118-.397-.099-.823.055-1.208.11-.258.283-.484.503-.657.205-.156.438-.27.688-.337a2.373 2.373 0 0 1 1.5.113c.359.154.695.356.998.602.327.27.628.572.899.899.782.804 1.644 1.6 2.449 2.386.53.503 1.132 1.141 1.797 1.824 1.506 1.596 3.263 3.452 4.665 4.22.141.074.278.157.409.247.139.09.265.18.386.274.122.095.243.189.382.301 0 0 .342.293.355.293.521.428.998.907 1.425 1.429.348.432.63.913.836 1.429v.036a7.82 7.82 0 0 1 .422 1.599c.104.58.18 1.236.265 1.987.032.256.063.561.095.898.031.338.058.643.072.899l.049.863a.707.707 0 0 1-.183.504.689.689 0 0 1-.486.224l-.018.014ZM124.512 117.63h.031a.627.627 0 0 1 .162 0h.153a.7.7 0 0 1 .701.701v3.797a.7.7 0 0 1-.701.705h-11.073a.696.696 0 0 1-.649-.435.698.698 0 0 1-.052-.27v-3.797a.702.702 0 0 1 .701-.701h10.534a.646.646 0 0 1 .139 0h.054Zm-.373-1.663h-10.363a.701.701 0 0 1-.665-.733l.049-.858c0-.261.041-.562.072-.899.032-.337.063-.651.095-.899.085-.75.161-1.406.265-1.986a8.031 8.031 0 0 1 .449-1.64c.206-.515.488-.997.836-1.429.427-.522.904-1 1.425-1.429l.355-.292c.116-.099.242-.198.382-.301.139-.104.247-.185.386-.274a3.87 3.87 0 0 1 .409-.248c1.402-.768 3.146-2.624 4.665-4.219.642-.683 1.244-1.322 1.797-1.825.805-.786 1.667-1.582 2.449-2.386.269-.329.57-.63.899-.899.303-.245.639-.448.998-.602a2.372 2.372 0 0 1 1.501-.112c.249.066.482.18.687.337.22.172.394.398.503.656.154.385.173.811.054 1.209a2.768 2.768 0 0 1-.359.8 3.736 3.736 0 0 1-.58.7c-2.22 2.414-4.426 5.524-6.682 7.779a.273.273 0 0 0-.063.189.258.258 0 0 0 .085.18.277.277 0 0 0 .355 0l.05-.059 7.302-7.005c.151-.14.292-.29.423-.45.123-.157.234-.324.332-.499a.753.753 0 0 1 .063-.09v-.035l3.681-8.763a.66.66 0 0 1 .134-.203c.193-.215.417-.4.665-.548.242-.148.514-.24.796-.27.137-.022.276-.022.413 0 .144.031.281.087.405.167.144.097.269.22.368.364.094.14.169.29.225.45.205.63.261 1.299.162 1.954a11.457 11.457 0 0 1-.589 2.45l-1.24 4.363-.265.957-.216.809a17.32 17.32 0 0 1-1.101 3.294 15.967 15.967 0 0 1-2.4 3.352 63.058 63.058 0 0 1-3.105 3.317 108.388 108.388 0 0 1-2.966 2.862l-1.348 1.254-.032.036c-.449.418-.853.822-1.253 1.218a.702.702 0 0 1-.531.242l.023.014Z" fill="#001C63"/><path fill-rule="evenodd" clip-rule="evenodd" d="M126.885 72.758c.773 15.67-5.015 24.928-15.279 28.788-9.886-3.618-15.755-12.47-15.324-29.026 5.208.274 10.336-.85 15.279-4.696 4.391 2.777 9.99 5.415 15.324 4.934Zm-1.69 1.322c.688 13.93-4.458 22.168-13.58 25.615-8.808-3.218-14.016-11.091-13.63-25.813 4.891.364 9.74-1.128 13.581-4.18 3.891 2.454 8.888 4.8 13.629 4.369v.009Z" fill="#001C63"/><path fill-rule="evenodd" clip-rule="evenodd" d="M125.195 74.07c.688 13.931-4.458 22.168-13.58 25.615-8.808-3.217-14.016-11.09-13.63-25.812a19.503 19.503 0 0 0 13.58-4.18c3.892 2.463 8.889 4.809 13.63 4.377Z" fill="#fff"/><path fill-rule="evenodd" clip-rule="evenodd" d="M122.58 76.114c.557 11.235-3.595 17.894-10.965 20.672-7.114-2.602-11.316-8.961-10.988-20.847a15.728 15.728 0 0 0 10.965-3.37c3.146 2 7.19 3.891 11.006 3.545h-.018Z" fill="#001C63"/><path d="m105.278 83.502 2.247-.027h.036l.171.04h.04c.229.13.449.274.67.423.22.148.422.314.62.48.198.167.283.248.449.387l.279.278c.364-.58.746-1.145 1.132-1.69.387-.543.899-1.181 1.348-1.73a29.747 29.747 0 0 1 1.537-1.72 31.094 31.094 0 0 1 1.618-1.56l.045-.031.216-.081a.112.112 0 0 1 .054 0h2.435a.148.148 0 0 1 .149.148.15.15 0 0 1-.045.103l-.486.54a53.251 53.251 0 0 0-2.152 2.543 46.087 46.087 0 0 0-1.96 2.647 67.4 67.4 0 0 0-1.752 2.697 44.607 44.607 0 0 0-1.573 2.817l-.306.593a.147.147 0 0 1-.193.063.164.164 0 0 1-.067-.067l-.279-.607a14.283 14.283 0 0 0-.854-1.586 13.512 13.512 0 0 0-1.011-1.43 12.103 12.103 0 0 0-2.588-2.395.141.141 0 0 1-.052-.07.137.137 0 0 1-.002-.087l.18-.597a.139.139 0 0 1 .143-.104l-.049.023Z" fill="#fff"/></g><defs><radialGradient id="a" cx="0" cy="0" r="1" gradientUnits="userSpaceOnUse" gradientTransform="matrix(107.502 0 0 42.5488 110.979 212.745)"><stop stop-color="#2A48D0"/><stop offset="1" stop-color="#fff"/></radialGradient><radialGradient id="b" cx="0" cy="0" r="1" gradientUnits="userSpaceOnUse" gradientTransform="matrix(53.75844 -21.51545 14.84431 37.08996 117.011 179.794)"><stop stop-color="#8EDBDC"/><stop offset=".44" stop-color="#90DCDD"/><stop offset=".6" stop-color="#97DEDF"/><stop offset=".71" stop-color="#A2E2E2"/><stop offset=".8" stop-color="#B3E7E8"/><stop offset=".88" stop-color="#C9EEEE"/><stop offset=".95" stop-color="#E4F6F7"/><stop offset="1" stop-color="#fff"/></radialGradient><radialGradient id="c" cx="0" cy="0" r="1" gradientUnits="userSpaceOnUse" gradientTransform="matrix(53.75844 -21.51545 14.84431 37.08996 117.011 179.794)"><stop stop-color="#80E3C8"/><stop offset=".43" stop-color="#82E3C9"/><stop offset=".58" stop-color="#89E5CC"/><stop offset=".69" stop-color="#94E8D1"/><stop offset=".78" stop-color="#A5EBD8"/><stop offset=".86" stop-color="#BBF0E2"/><stop offset=".93" stop-color="#D7F6ED"/><stop offset=".99" stop-color="#F6FDFB"/><stop offset="1" stop-color="#fff"/></radialGradient><radialGradient id="d" cx="0" cy="0" r="1" gradientUnits="userSpaceOnUse" gradientTransform="matrix(53.75844 -21.51545 14.84431 37.08996 117.011 179.794)"><stop stop-color="#2A48D0"/><stop offset=".39" stop-color="#2C4AD0"/><stop offset=".53" stop-color="#334FD2"/><stop offset=".62" stop-color="#3E5AD5"/><stop offset=".71" stop-color="#4F68D8"/><stop offset=".77" stop-color="#657BDD"/><stop offset=".83" stop-color="#8192E3"/><stop offset=".89" stop-color="#A1AEEA"/><stop offset=".94" stop-color="#C7CFF3"/><stop offset=".99" stop-color="#F0F2FC"/><stop offset="1" stop-color="#fff"/></radialGradient><radialGradient id="e" cx="0" cy="0" r="1" gradientUnits="userSpaceOnUse" gradientTransform="matrix(67.5713 0 0 25.3728 110.979 155.56)"><stop stop-color="#2A48D0"/><stop offset="1" stop-color="#fff"/></radialGradient><radialGradient id="f" cx="0" cy="0" r="1" gradientUnits="userSpaceOnUse" gradientTransform="matrix(35.0369 0 0 13.1562 110.979 128.42)"><stop stop-color="#2A48D0"/><stop offset="1" stop-color="#fff"/></radialGradient><clipPath id="g"><path fill="#fff" transform="translate(84 67.814)" d="M0 0h55.22v55H0z"/></clipPath></defs></svg>