<svg width="222" height="263" fill="none" xmlns="http://www.w3.org/2000/svg"><path style="mix-blend-mode:multiply" d="M180.707 183.72c47.381 15.507 54.687 43.599 16.318 62.745s-107.887 22.1-155.272 6.593c-47.385-15.506-54.687-43.595-16.318-62.74 38.37-19.146 107.887-22.101 155.272-6.598Z" fill="url(#a)"/><path d="M108.619 220.137c-22.787 0-44.286-3.091-62.17-8.942-25.13-8.224-39.555-20.926-40.618-35.761-.523-7.307 2.098-21.307 25.51-32.997 19.176-9.568 47.385-15.054 77.388-15.054 22.791 0 44.29 3.095 62.175 8.946 25.129 8.22 39.555 20.922 40.618 35.761.523 7.307-2.098 21.308-25.514 32.993-19.173 9.569-47.381 15.054-77.389 15.054Z" fill="#001C63" style="mix-blend-mode:multiply" opacity=".2"/><path d="M168.494 143.91c40.793 13.349 47.086 37.537 14.049 54.023-33.038 16.486-92.89 19.025-133.704 5.676C8.025 190.26 1.753 166.073 34.79 149.591c33.038-16.482 92.906-19.03 133.704-5.681Z" fill="#001C63" style="mix-blend-mode:multiply"/><g style="mix-blend-mode:multiply"><path d="M156.318 149.984c32.49 10.635 37.503 29.897 11.191 43.026-26.311 13.129-73.994 15.154-106.476 4.544-32.481-10.611-37.502-29.877-11.19-43.027 26.31-13.15 73.982-15.175 106.475-4.543Z" fill="url(#b)"/><path d="M156.318 149.984c32.49 10.635 37.503 29.897 11.191 43.026-26.311 13.129-73.994 15.154-106.476 4.544-32.481-10.611-37.502-29.877-11.19-43.027 26.31-13.15 73.982-15.175 106.475-4.543Z" fill="url(#c)"/><path d="M156.318 149.984c32.49 10.635 37.503 29.897 11.191 43.026-26.311 13.129-73.994 15.154-106.476 4.544-32.481-10.611-37.502-29.877-11.19-43.027 26.31-13.15 73.982-15.175 106.475-4.543Z" fill="url(#d)"/></g><path d="M108.619 235.927c-22.787 0-44.286-3.096-62.17-8.947-25.13-8.224-39.555-20.922-40.618-35.76-.523-7.308 2.098-21.308 25.51-32.998 19.176-9.543 47.385-15.054 77.388-15.054 22.791 0 44.29 3.095 62.175 8.946 25.129 8.225 39.555 20.922 40.618 35.761.523 7.307-2.098 21.308-25.514 32.993-19.173 9.569-47.381 15.059-77.389 15.059Z" fill="#001C63" style="mix-blend-mode:multiply" opacity=".2"/><path d="M176.452 146.369h-13.427a71.474 71.474 0 0 0-11.703-4.917c-29.091-9.519-71.77-7.706-95.326 4.05-.572.286-1.116.576-1.656.867H41.023v14.743c-1.226 8.511 7.36 17.134 24.991 22.91 29.092 9.519 71.77 7.705 95.326-4.05 10.173-5.075 15.104-11.175 15.096-17.237l.016-16.366Z" fill="#E5E7EA"/><path d="M151.33 125.086c29.088 9.52 33.573 26.765 10.018 38.521-23.556 11.755-66.239 13.569-95.326 4.05-29.088-9.519-33.573-26.765-10.018-38.521 23.556-11.755 66.235-13.569 95.326-4.05Z" fill="#FDFEFF"/><path style="mix-blend-mode:multiply" d="M108.603 173.869c37.475 0 67.854-12.312 67.854-27.499s-30.379-27.499-67.854-27.499c-37.474 0-67.853 12.312-67.853 27.499s30.379 27.499 67.853 27.499Z" fill="url(#e)"/><path d="M176.452 119.265h-13.427a71.561 71.561 0 0 0-11.703-4.917c-29.091-9.519-71.77-7.705-95.326 4.05-.572.286-1.116.577-1.656.867H41.023v14.744c-1.226 8.51 7.36 17.133 24.991 22.909 29.092 9.519 71.77 7.706 95.326-4.05 10.173-5.075 15.104-11.174 15.096-17.237l.016-16.366Z" fill="#E5E7EA"/><path d="M151.33 97.965c29.088 9.519 33.573 26.764 10.018 38.52-23.556 11.756-66.239 13.565-95.326 4.046-29.088-9.519-33.573-26.765-10.018-38.516 23.556-11.752 66.235-13.552 95.326-4.05Z" fill="#FDFEFF"/><path style="mix-blend-mode:multiply" opacity=".25" d="M108.602 133.51c19.409 0 35.143-6.378 35.143-14.245 0-7.868-15.734-14.245-35.143-14.245s-35.143 6.377-35.143 14.245c0 7.867 15.734 14.245 35.143 14.245Z" fill="url(#f)"/><path d="M106.5 23.956c0 5.048-1.156 8.862-3.467 11.44-2.312 2.578-5.425 3.866-9.34 3.863-3.943 0-7.078-1.288-9.403-3.863-2.326-2.575-3.481-6.389-3.468-11.44v-7.86c0-5.05 1.147-8.864 3.44-11.44C86.553 2.081 89.674.793 93.623.793c3.928 0 7.054 1.292 9.376 3.876 2.322 2.584 3.482 6.393 3.48 11.428l.02 7.859Zm-8.53-8.449c0-2.857-.37-4.911-1.111-6.162a3.578 3.578 0 0 0-1.347-1.397 3.508 3.508 0 0 0-1.867-.478c-.653-.024-1.3.14-1.866.471a3.513 3.513 0 0 0-1.336 1.404c-.714 1.25-1.072 3.305-1.075 6.162v8.988c0 2.908.363 4.982 1.088 6.224.315.586.785 1.07 1.357 1.4.572.33 1.224.49 1.88.464.65.022 1.294-.14 1.858-.47a3.514 3.514 0 0 0 1.332-1.393c.728-1.243 1.09-3.317 1.088-6.225v-8.988ZM133.471 24.159h3.721v6.676h-3.721v7.884h-8.55v-7.884h-14.274l-.502-5.299 14.776-24.125v-.079h8.55v22.827Zm-15.689 0h7.139V12.606l-.155-.054-.658 1.059-6.326 10.548Z" fill="#001C63"/><g clip-path="url(#g)"><path fill-rule="evenodd" clip-rule="evenodd" d="M98.693 57.815h20.648c1.566 0 3.003.644 4.028 1.669a5.663 5.663 0 0 1 1.665 4.028v43.609a5.717 5.717 0 0 1-1.665 4.028 5.662 5.662 0 0 1-4.028 1.67H98.693a5.706 5.706 0 0 1-4.028-1.67A5.66 5.66 0 0 1 93 107.121V63.512c0-1.566.644-3.003 1.67-4.028a5.644 5.644 0 0 1 4.023-1.67Zm13.513 33.828h.076c.578 0 1.057.48 1.057 1.057v6.78h.684v-2.842c0-.537.443-.98.981-.98h.076c.577 0 1.056.48 1.056 1.057v2.837l.036-.013h.738v-2.157c0-.538.443-.98.981-.98h.071c.578 0 1.056.478 1.056 1.056v1.974h.005l.734-.01v-1.396c0-.537.443-.98.98-.98h.076c.578 0 1.057.479 1.057 1.056v2.959c0 .031 0 .071-.009.107l.035.027c.032.85.018 1.866-.138 2.847h1.656V66.645H94.616v37.388h15.871l-3.464-5.488c-.215-.505-.188-.846.027-1.07.926-.604 2.448.68 4.127 2.494l.062-.014V92.61c0-.537.443-.98.981-.98l-.014.013Zm.636-2.833a.52.52 0 0 1-1.039 0v-2.09a.52.52 0 0 1 1.039 0v2.09Zm-4.718 4.284a.52.52 0 0 1 0 1.038h-2.09a.52.52 0 0 1 0-1.038h2.09Zm1.482-3.098a.522.522 0 0 1 0 .734.521.521 0 0 1-.734 0l-1.473-1.477a.522.522 0 0 1 0-.734.521.521 0 0 1 .734 0l1.473 1.477Zm6.812 4.132a.52.52 0 0 1 0-1.039h2.09a.52.52 0 0 1 0 1.038h-2.09Zm-.743-3.514a.521.521 0 0 1-.734 0 .522.522 0 0 1 0-.734l1.472-1.477a.523.523 0 0 1 .735 0 .522.522 0 0 1 0 .734l-1.473 1.477Zm-17.43-3.478h3.192c.801 0 1.455.654 1.455 1.455v3.191c0 .801-.654 1.455-1.455 1.455h-3.191a1.458 1.458 0 0 1-1.455-1.455v-3.191a1.457 1.457 0 0 1 1.455-1.455Zm18.356-9.126h3.192c.801 0 1.454.653 1.454 1.454v3.192c0 .801-.653 1.454-1.454 1.454h-3.192a1.457 1.457 0 0 1-1.454-1.454v-3.192a1.46 1.46 0 0 1 1.454-1.454Zm-9.18 0h3.192c.801 0 1.454.653 1.454 1.454v3.192c0 .801-.653 1.454-1.454 1.454h-3.192a1.457 1.457 0 0 1-1.454-1.454v-3.192a1.46 1.46 0 0 1 1.454-1.454Zm-9.175 0h3.191c.801 0 1.455.653 1.455 1.454v3.192c0 .801-.654 1.454-1.455 1.454h-3.191a1.457 1.457 0 0 1-1.455-1.454v-3.192a1.455 1.455 0 0 1 1.455-1.454Zm18.355-9.127h3.192c.801 0 1.454.654 1.454 1.455v3.191c0 .802-.653 1.455-1.454 1.455h-3.192a1.457 1.457 0 0 1-1.454-1.455v-3.19a1.46 1.46 0 0 1 1.454-1.456Zm-9.18 0h3.192c.801 0 1.454.654 1.454 1.455v3.191c0 .802-.653 1.455-1.454 1.455h-3.192a1.457 1.457 0 0 1-1.454-1.455v-3.19a1.46 1.46 0 0 1 1.454-1.456Zm-9.175 0h3.191c.801 0 1.455.654 1.455 1.455v3.191c0 .802-.654 1.455-1.455 1.455h-3.191a1.458 1.458 0 0 1-1.455-1.455v-3.19a1.455 1.455 0 0 1 1.455-1.456Zm10.764 36.931a2.343 2.343 0 0 1 2.346 2.346 2.342 2.342 0 0 1-2.346 2.345 2.342 2.342 0 0 1-2.345-2.345 2.347 2.347 0 0 1 2.345-2.346Z" fill="#001C63"/></g><defs><radialGradient id="a" cx="0" cy="0" r="1" gradientUnits="userSpaceOnUse" gradientTransform="matrix(107.502 0 0 42.5488 111.23 205.327)"><stop stop-color="#5A9BFB"/><stop offset="1" stop-color="#fff"/></radialGradient><radialGradient id="b" cx="0" cy="0" r="1" gradientUnits="userSpaceOnUse" gradientTransform="rotate(-21.812 505.898 -208.531) scale(57.9042 39.9502)"><stop stop-color="#7FD4F9"/><stop offset=".43" stop-color="#81D5F9"/><stop offset=".58" stop-color="#88D7F9"/><stop offset=".69" stop-color="#93DBFA"/><stop offset=".78" stop-color="#A4E1FB"/><stop offset=".86" stop-color="#BAE8FC"/><stop offset=".92" stop-color="#D6F1FD"/><stop offset=".98" stop-color="#F5FCFF"/><stop offset="1" stop-color="#fff"/></radialGradient><radialGradient id="c" cx="0" cy="0" r="1" gradientUnits="userSpaceOnUse" gradientTransform="rotate(-21.812 505.898 -208.531) scale(57.9042 39.9502)"><stop stop-color="#80E3C8"/><stop offset=".43" stop-color="#82E3C9"/><stop offset=".58" stop-color="#89E5CC"/><stop offset=".69" stop-color="#94E8D1"/><stop offset=".78" stop-color="#A5EBD8"/><stop offset=".86" stop-color="#BBF0E2"/><stop offset=".93" stop-color="#D7F6ED"/><stop offset=".99" stop-color="#F6FDFB"/><stop offset="1" stop-color="#fff"/></radialGradient><radialGradient id="d" cx="0" cy="0" r="1" gradientUnits="userSpaceOnUse" gradientTransform="rotate(-21.812 505.898 -208.531) scale(57.9042 39.9502)"><stop stop-color="#5A9BFB"/><stop offset=".41" stop-color="#5C9CFB"/><stop offset=".55" stop-color="#63A0FB"/><stop offset=".66" stop-color="#6EA7FB"/><stop offset=".74" stop-color="#7FB2FC"/><stop offset=".81" stop-color="#95BFFC"/><stop offset=".88" stop-color="#B1CFFD"/><stop offset=".94" stop-color="#D1E3FE"/><stop offset=".99" stop-color="#F5F9FF"/><stop offset="1" stop-color="#fff"/></radialGradient><radialGradient id="e" cx="0" cy="0" r="1" gradientUnits="userSpaceOnUse" gradientTransform="matrix(67.6449 0 0 25.4005 108.603 149.824)"><stop stop-color="#5A9BFB"/><stop offset="1" stop-color="#fff"/></radialGradient><radialGradient id="f" cx="0" cy="0" r="1" gradientUnits="userSpaceOnUse" gradientTransform="matrix(35.0369 0 0 13.1562 108.602 122.682)"><stop stop-color="#5A9BFB"/><stop offset="1" stop-color="#fff"/></radialGradient><clipPath id="g"><path fill="#fff" transform="translate(93 57.815)" d="M0 0h32.039v55H0z"/></clipPath></defs></svg>