<svg width="222" height="262" fill="none" xmlns="http://www.w3.org/2000/svg"><path style="mix-blend-mode:multiply" d="M180.562 182.721c47.381 15.507 54.688 43.599 16.318 62.745-38.369 19.146-107.886 22.1-155.271 6.593-47.385-15.506-54.688-43.594-16.319-62.745 38.37-19.15 107.887-22.096 155.272-6.593Z" fill="url(#a)"/><path d="M108.485 219.137c-22.786 0-44.285-3.091-62.15-8.942-25.129-8.224-39.554-20.926-40.617-35.765-.524-7.307 2.097-21.308 25.51-32.993 19.176-9.568 47.385-15.054 77.388-15.054 22.791 0 44.29 3.095 62.174 8.946 25.13 8.22 39.555 20.922 40.618 35.761.52 7.303-2.097 21.308-25.514 32.993-19.205 9.569-47.413 15.054-77.409 15.054Z" fill="#001C63" style="mix-blend-mode:multiply" opacity=".2"/><path d="M108.485 234.925c-22.786 0-44.285-3.096-62.15-8.947-25.129-8.224-39.554-20.922-40.617-35.76-.524-7.308 2.097-21.308 25.51-32.998 19.176-9.543 47.385-15.054 77.388-15.054 22.791 0 44.29 3.096 62.174 8.946 25.13 8.225 39.555 20.922 40.618 35.761.52 7.307-2.097 21.308-25.514 32.993-19.205 9.569-47.413 15.059-77.409 15.059Z" fill="#001C63" style="mix-blend-mode:multiply" opacity=".2"/><path d="M168.345 142.909c40.798 13.349 47.091 37.537 14.053 54.023-33.037 16.486-92.889 19.025-133.703 5.676-40.815-13.349-47.087-37.536-14.05-54.022 33.038-16.486 92.906-19.026 133.7-5.677Z" fill="#001C63" style="mix-blend-mode:multiply"/><g style="mix-blend-mode:multiply"><path d="M156.172 148.984c32.489 10.635 37.502 29.897 11.191 43.027-26.311 13.129-73.983 15.154-106.476 4.522-32.494-10.631-37.503-29.876-11.191-43.026 26.311-13.15 73.982-15.154 106.476-4.523Z" fill="url(#b)"/><path d="M156.172 148.984c32.489 10.635 37.502 29.897 11.191 43.027-26.311 13.129-73.983 15.154-106.476 4.522-32.494-10.631-37.503-29.876-11.191-43.026 26.311-13.15 73.982-15.154 106.476-4.523Z" fill="url(#c)"/><path d="M156.172 148.984c32.489 10.635 37.502 29.897 11.191 43.027-26.311 13.129-73.983 15.154-106.476 4.522-32.494-10.631-37.503-29.876-11.191-43.026 26.311-13.15 73.982-15.154 106.476-4.523Z" fill="url(#d)"/></g><path d="M176.306 145.371h-13.42a71.331 71.331 0 0 0-11.706-4.917c-29.088-9.519-71.766-7.706-95.322 4.05-.572.286-1.116.576-1.656.867H40.885v14.743c-1.227 8.511 7.34 17.134 24.99 22.91 29.092 9.519 71.771 7.705 95.327-4.05 10.173-5.075 15.104-11.175 15.095-17.237l.009-16.366Z" fill="#E6E6ED"/><path d="M151.18 124.087c29.091 9.519 33.577 26.765 10.021 38.52-23.555 11.756-66.238 13.565-95.326 4.05-29.087-9.515-33.573-26.768-10.017-38.52 23.555-11.751 66.234-13.569 95.322-4.05Z" fill="#FAFAFF"/><path style="mix-blend-mode:multiply" d="M108.457 172.869c37.474 0 67.853-12.312 67.853-27.499s-30.379-27.499-67.853-27.499c-37.474 0-67.853 12.312-67.853 27.499s30.379 27.499 67.853 27.499Z" fill="url(#e)"/><path d="M176.305 118.265h-13.419a71.122 71.122 0 0 0-11.706-4.917c-29.088-9.519-71.767-7.706-95.322 4.05-.572.286-1.116.577-1.656.867H40.885v14.744c-1.227 8.51 7.34 17.133 24.99 22.909 29.092 9.519 71.771 7.706 95.326-4.05 10.173-5.075 15.104-11.174 15.096-17.237l.008-16.366Z" fill="#E6E6ED"/><path d="M151.18 96.965c29.091 9.519 33.577 26.764 10.021 38.52-23.555 11.756-66.238 13.565-95.326 4.046-29.087-9.519-33.573-26.765-10.017-38.516 23.555-11.752 66.234-13.552 95.322-4.05Z" fill="#FAFAFF"/><path style="mix-blend-mode:multiply" opacity=".25" d="M108.456 132.51c19.409 0 35.143-6.378 35.143-14.245 0-7.868-15.734-14.245-35.143-14.245-19.41 0-35.144 6.377-35.144 14.245 0 7.867 15.735 14.245 35.144 14.245Z" fill="url(#f)"/><path d="M106.349 23.478c0 5.049-1.154 8.862-3.463 11.44-2.309 2.579-5.422 3.868-9.339 3.868-3.944 0-7.072-1.29-9.384-3.868-2.311-2.578-3.472-6.391-3.483-11.44v-7.843c0-5.05 1.146-8.864 3.438-11.44C86.411 1.62 89.532.332 93.482.332c3.93 0 7.056 1.292 9.375 3.876 2.32 2.583 3.478 6.393 3.476 11.428l.016 7.842Zm-8.525-8.444c0-2.858-.37-4.913-1.112-6.166a3.573 3.573 0 0 0-1.347-1.396 3.504 3.504 0 0 0-1.867-.476 3.435 3.435 0 0 0-1.866.468 3.504 3.504 0 0 0-1.336 1.404c-.714 1.253-1.072 3.308-1.075 6.166v8.983c0 2.913.363 4.988 1.088 6.225.316.585.786 1.07 1.358 1.398a3.5 3.5 0 0 0 1.88.465 3.452 3.452 0 0 0 1.856-.47 3.52 3.52 0 0 0 1.333-1.393c.725-1.242 1.088-3.317 1.088-6.225v-8.983ZM125.935.32c1.3-.015 2.598.11 3.872.369 1.278.296 2.531.696 3.746 1.195l-1.419 6.315c-1.182-.356-2.212-.626-3.099-.805a15.212 15.212 0 0 0-3.051-.27 6.012 6.012 0 0 0-2.68.518 6.093 6.093 0 0 0-2.189 1.653c-1.222 1.444-1.808 3.553-1.758 6.328l.077.129a7.39 7.39 0 0 1 2.96-2.005 11.546 11.546 0 0 1 4.2-.717c3.287 0 5.847 1.202 7.678 3.605 1.832 2.404 2.747 5.482 2.744 9.233 0 3.696-1.21 6.774-3.631 9.233-2.42 2.46-5.51 3.687-9.269 3.685-4.034 0-7.29-1.345-9.768-4.034-2.478-2.689-3.718-6.37-3.721-11.042v-7.523c0-4.93 1.43-8.802 4.289-11.618 2.86-2.817 6.533-4.233 11.019-4.25Zm-1.696 19.386a8.58 8.58 0 0 0-3.047.486 4.775 4.775 0 0 0-2.011 1.352v2.2c0 2.697.435 4.771 1.304 6.224a4.088 4.088 0 0 0 1.517 1.597c.64.381 1.372.576 2.114.565 1.281 0 2.326-.614 3.136-1.843a7.765 7.765 0 0 0 1.227-4.373c0-1.892-.393-3.397-1.178-4.515a3.613 3.613 0 0 0-1.315-1.25 3.548 3.548 0 0 0-1.747-.443Z" fill="#001C63"/><g clip-path="url(#g)"><path fill-rule="evenodd" clip-rule="evenodd" d="M80.408 86.007h14.196v25.634H80.408V86.006Zm48.803-13.015c5.151 0 9.33 4.236 9.33 9.47 0 5.227-4.173 9.469-9.33 9.469-5.152 0-9.331-4.236-9.331-9.47 0-5.227 4.174-9.469 9.331-9.469Zm-16.375-11.889c4.443 0 8.05 3.656 8.05 8.17 0 4.508-3.601 8.17-8.05 8.17-4.442 0-8.049-3.656-8.049-8.17 0-4.508 3.601-8.17 8.049-8.17Zm.818 9.905c0-.267-.063-.47-.194-.621-.132-.15-.355-.29-.675-.424-.32-.133-.617-.266-.886-.4a3.182 3.182 0 0 1-.703-.476 1.82 1.82 0 0 1-.452-.62c-.109-.238-.154-.523-.154-.86 0-.562.188-1.026.56-1.386.372-.36.869-.58 1.492-.638v-.754h.783v.771c.601.087 1.075.337 1.418.749.343.412.515.934.515 1.56h-1.675c0-.348-.069-.615-.2-.8a.65.65 0 0 0-.561-.279c-.217 0-.389.07-.503.203-.12.14-.177.331-.177.569 0 .244.068.44.206.586.143.145.36.284.663.418.303.133.595.267.863.406a3.4 3.4 0 0 1 .698.481c.2.18.354.395.463.633.108.238.171.522.171.864 0 .57-.177 1.033-.537 1.393-.36.36-.841.569-1.452.627v.707h-.778v-.707c-.714-.082-1.263-.325-1.646-.743-.383-.424-.578-.975-.578-1.665h1.664c0 .383.08.667.246.87.166.197.4.302.703.302.223 0 .394-.07.526-.203.126-.14.194-.325.2-.563Zm16.5 13.461c0-.308-.074-.545-.223-.72-.149-.174-.406-.336-.783-.493-.372-.15-.715-.313-1.029-.464a3.56 3.56 0 0 1-.818-.551 2.214 2.214 0 0 1-.526-.72c-.126-.272-.177-.603-.177-.992 0-.655.217-1.19.652-1.607.428-.418 1.006-.667 1.726-.737v-.876h.909v.9c.692.104 1.241.394 1.641.87.4.476.601 1.079.601 1.81h-1.933c0-.406-.08-.708-.229-.928-.148-.215-.371-.325-.651-.325-.252 0-.446.081-.584.238-.137.156-.205.383-.205.661 0 .284.08.51.24.679.16.168.411.33.766.481.354.151.686.314 1 .47.315.163.584.354.812.557.229.21.406.453.538.732.131.278.194.609.194.998 0 .661-.206 1.2-.623 1.613-.412.412-.972.661-1.687.725v.818h-.909v-.824c-.829-.093-1.463-.377-1.909-.865-.441-.487-.664-1.13-.664-1.932h1.927c0 .441.097.772.286 1.004.189.226.463.348.818.348a.833.833 0 0 0 .611-.232c.149-.15.223-.365.229-.638Zm-.943-9.614c4.133 0 7.489 3.4 7.489 7.6 0 4.196-3.35 7.602-7.489 7.602-4.134 0-7.49-3.4-7.49-7.601 0-4.201 3.356-7.601 7.49-7.601Zm-31.748 34.633V88.066h9.496c4.025.731 8.05 2.948 12.075 5.518h7.375c3.339.203 5.089 3.638 1.841 5.895-2.584 1.927-5.997 1.816-9.496 1.497-2.413-.122-2.516 3.168 0 3.18.875.069 1.824-.139 2.653-.139 4.368-.006 7.958-.853 10.159-4.352l1.104-2.617 10.971-5.518c5.489-1.833 9.388 3.992 5.346 8.048-7.947 5.866-16.094 10.693-24.43 14.592-6.055 3.737-12.109 3.609-18.158 0l-8.936-4.682Z" fill="#001C63"/></g><defs><radialGradient id="a" cx="0" cy="0" r="1" gradientUnits="userSpaceOnUse" gradientTransform="matrix(107.502 0 0 42.5488 111.085 204.328)"><stop stop-color="#1628B1"/><stop offset="1" stop-color="#fff"/></radialGradient><radialGradient id="b" cx="0" cy="0" r="1" gradientUnits="userSpaceOnUse" gradientTransform="matrix(53.75844 -21.51545 14.84431 37.08996 115.532 172.048)"><stop stop-color="#80E3C8"/><stop offset=".43" stop-color="#82E3C9"/><stop offset=".58" stop-color="#89E5CC"/><stop offset=".69" stop-color="#94E8D1"/><stop offset=".78" stop-color="#A5EBD8"/><stop offset=".86" stop-color="#BBF0E2"/><stop offset=".93" stop-color="#D7F6ED"/><stop offset=".99" stop-color="#F6FDFB"/><stop offset="1" stop-color="#fff"/></radialGradient><radialGradient id="c" cx="0" cy="0" r="1" gradientUnits="userSpaceOnUse" gradientTransform="matrix(53.75844 -21.51545 14.84431 37.08996 115.532 172.048)"><stop stop-color="#80E3C8"/><stop offset=".43" stop-color="#82E3C9"/><stop offset=".58" stop-color="#89E5CC"/><stop offset=".69" stop-color="#94E8D1"/><stop offset=".78" stop-color="#A5EBD8"/><stop offset=".86" stop-color="#BBF0E2"/><stop offset=".93" stop-color="#D7F6ED"/><stop offset=".99" stop-color="#F6FDFB"/><stop offset="1" stop-color="#fff"/></radialGradient><radialGradient id="d" cx="0" cy="0" r="1" gradientUnits="userSpaceOnUse" gradientTransform="matrix(53.75844 -21.51545 14.84431 37.08996 115.532 172.048)"><stop stop-color="#1628B1"/><stop offset=".38" stop-color="#182AB2"/><stop offset=".52" stop-color="#1F30B4"/><stop offset=".61" stop-color="#2A3BB8"/><stop offset=".69" stop-color="#3B4BBE"/><stop offset=".76" stop-color="#515FC5"/><stop offset=".82" stop-color="#6D78CE"/><stop offset=".87" stop-color="#8D96D9"/><stop offset=".92" stop-color="#B3B9E5"/><stop offset=".97" stop-color="#DCDFF3"/><stop offset="1" stop-color="#fff"/></radialGradient><radialGradient id="e" cx="0" cy="0" r="1" gradientUnits="userSpaceOnUse" gradientTransform="matrix(67.6449 0 0 25.4005 108.457 148.824)"><stop stop-color="#1628B1"/><stop offset="1" stop-color="#fff"/></radialGradient><radialGradient id="f" cx="0" cy="0" r="1" gradientUnits="userSpaceOnUse" gradientTransform="matrix(35.0368 0 0 13.1562 108.456 121.682)"><stop stop-color="#1628B1"/><stop offset="1" stop-color="#fff"/></radialGradient><clipPath id="g"><path fill="#fff" transform="translate(80.408 61.103)" d="M0 0h70.254v55.817H0z"/></clipPath></defs></svg>