<svg width="221" height="270" fill="none" xmlns="http://www.w3.org/2000/svg"><path style="mix-blend-mode:multiply" d="M179.956 189.743c47.385 15.502 54.691 43.595 16.318 62.741-38.373 19.146-107.887 22.1-155.268 6.597-47.38-15.502-54.691-43.599-16.322-62.745 38.37-19.146 107.891-22.1 155.272-6.593Z" fill="url(#a)"/><path d="M110.427 226.159c-22.79 0-44.286-3.096-62.17-8.946-25.134-8.225-39.559-20.922-40.622-35.761-.52-7.307 2.098-21.308 25.514-32.993 19.172-9.569 47.38-15.059 77.389-15.059 22.786 0 44.285 3.096 62.149 8.947 25.13 8.224 39.555 20.926 40.618 35.765.524 7.303-2.093 21.307-25.51 32.993-19.156 9.564-47.36 15.054-77.368 15.054Z" fill="#029894" style="mix-blend-mode:multiply" opacity=".2"/><path d="M170.299 149.932c40.798 13.35 47.086 37.533 14.049 54.019-33.037 16.486-92.889 19.03-133.703 5.681-40.815-13.349-47.087-37.537-14.053-54.023 33.033-16.486 92.893-19.026 133.707-5.677Z" fill="#029894" style="mix-blend-mode:multiply"/><g style="mix-blend-mode:multiply"><path d="M158.106 156.008c32.493 10.631 37.502 29.877 11.191 43.027-26.312 13.149-73.983 15.154-106.472 4.518-32.49-10.635-37.507-29.876-11.191-43.022 26.315-13.146 73.999-15.154 106.472-4.523Z" fill="url(#b)"/><path d="M158.106 156.008c32.493 10.631 37.502 29.877 11.191 43.027-26.312 13.149-73.983 15.154-106.472 4.518-32.49-10.635-37.507-29.876-11.191-43.022 26.315-13.146 73.999-15.154 106.472-4.523Z" fill="url(#c)"/><path d="M158.106 156.008c32.493 10.631 37.502 29.877 11.191 43.027-26.312 13.149-73.983 15.154-106.472 4.518-32.49-10.635-37.507-29.876-11.191-43.022 26.315-13.146 73.999-15.154 106.472-4.523Z" fill="url(#d)"/></g><path d="M110.427 241.944c-22.79 0-44.286-3.091-62.17-8.946-25.134-8.221-39.559-20.922-40.622-35.761-.52-7.303 2.098-21.308 25.514-32.993 19.172-9.569 47.381-15.055 77.389-15.055 22.786 0 44.285 3.092 62.149 8.947 25.13 8.22 39.555 20.922 40.618 35.761.524 7.307-2.093 21.307-25.51 32.992-19.156 9.569-47.36 15.055-77.368 15.055Z" fill="#029894" style="mix-blend-mode:multiply" opacity=".2"/><path d="M178.26 152.393h-13.42a70.832 70.832 0 0 0-11.706-4.918c-29.088-9.519-71.766-7.705-95.326 4.046-.572.287-1.112.577-1.635.872H42.855v14.739c-1.226 8.515 7.36 17.133 24.991 22.909 29.088 9.519 71.766 7.706 95.322-4.045 10.173-5.079 15.104-11.179 15.096-17.238l-.004-16.365Z" fill="#E6EBED"/><path d="M153.134 131.11c29.092 9.519 33.577 26.764 10.018 38.516-23.56 11.751-66.239 13.569-95.322 4.05-29.084-9.52-33.578-26.765-10.022-38.521 23.556-11.755 66.238-13.564 95.326-4.045Z" fill="#FAFDFF"/><path style="mix-blend-mode:multiply" d="M110.406 179.892c37.475 0 67.854-12.311 67.854-27.499 0-15.187-30.379-27.498-67.854-27.498-37.474 0-67.853 12.311-67.853 27.498 0 15.188 30.379 27.499 67.853 27.499Z" fill="url(#e)"/><path d="M178.26 125.289h-13.42a70.832 70.832 0 0 0-11.706-4.918c-29.088-9.519-71.766-7.709-95.326 4.046-.572.286-1.112.577-1.635.872H42.855v14.735c-1.226 8.514 7.36 17.133 24.991 22.909 29.088 9.519 71.766 7.706 95.322-4.05 10.173-5.075 15.104-11.175 15.096-17.233l-.004-16.361Z" fill="#E6EBED"/><path d="M153.134 104.001c29.092 9.519 33.577 26.764 10.018 38.52-23.56 11.756-66.239 13.569-95.322 4.05-29.084-9.519-33.578-26.765-10.022-38.52 23.556-11.756 66.238-13.565 95.326-4.05Z" fill="#FAFDFF"/><path style="mix-blend-mode:multiply" opacity=".25" d="M110.407 139.534c19.409 0 35.143-6.378 35.143-14.246 0-7.867-15.734-14.245-35.143-14.245-19.41 0-35.143 6.378-35.143 14.245 0 7.868 15.734 14.246 35.143 14.246Z" fill="url(#f)"/><path d="M108.304 23.897c0 5.049-1.155 8.862-3.467 11.44-2.311 2.579-5.423 3.866-9.335 3.864-3.95 0-7.084-1.288-9.404-3.864-2.32-2.575-3.475-6.389-3.467-11.44v-7.86c0-5.05 1.147-8.863 3.443-11.435C88.369 2.029 91.489.74 95.433.734c3.933 0 7.059 1.294 9.375 3.88 2.317 2.587 3.477 6.395 3.48 11.424l.016 7.86Zm-8.525-8.448c0-2.858-.372-4.912-1.116-6.162a3.57 3.57 0 0 0-1.346-1.4 3.5 3.5 0 0 0-1.868-.476 3.436 3.436 0 0 0-1.864.471 3.505 3.505 0 0 0-1.333 1.405c-.72 1.25-1.078 3.304-1.075 6.162v8.987c0 2.908.362 4.983 1.087 6.225.33.567.8 1.037 1.364 1.363a3.69 3.69 0 0 0 3.7 0 3.76 3.76 0 0 0 1.364-1.363c.722-1.245 1.085-3.32 1.087-6.225V15.45ZM120.525 16.37h4.023c1.535 0 2.715-.415 3.541-1.245.826-.83 1.235-1.993 1.227-3.49a4.217 4.217 0 0 0-1.113-2.98c-.744-.804-1.819-1.207-3.238-1.207a4.695 4.695 0 0 0-2.936.975 3.03 3.03 0 0 0-.939 1.1c-.22.44-.331.927-.324 1.419h-8.3l-.049-.153c-.101-2.98 1.053-5.394 3.463-7.242 2.409-1.847 5.337-2.773 8.783-2.776 3.993 0 7.189.93 9.588 2.789 2.398 1.859 3.596 4.487 3.594 7.884a7.804 7.804 0 0 1-1.558 4.685 10.44 10.44 0 0 1-4.162 3.349 9.942 9.942 0 0 1 4.632 3.352 8.765 8.765 0 0 1 1.668 5.395c0 3.427-1.29 6.12-3.872 8.079-2.581 1.959-5.878 2.938-9.89 2.938a15.272 15.272 0 0 1-9.073-2.76c-2.587-1.842-3.84-4.509-3.758-8l.053-.154h8.349a3.879 3.879 0 0 0 1.378 3.017 4.864 4.864 0 0 0 3.353 1.22 4.989 4.989 0 0 0 3.594-1.282 4.266 4.266 0 0 0 1.014-1.472c.231-.558.343-1.16.327-1.765 0-1.812-.469-3.134-1.406-3.967-.938-.832-2.257-1.247-3.958-1.245h-4.024l.013-6.464Z" fill="#029894"/><g clip-path="url(#g)"><path d="m94.065 110.526 3.49-2.739 3.972 1.945-1.485-4.208 3.053-3.229-4.405.14-2.087-3.943-1.237 4.297-4.345.793 3.646 2.52-.602 4.424Zm16.184 4.115 1.669-4.143 4.396-.332-3.361-2.893 1.053-4.349-3.752 2.357-3.752-2.357 1.053 4.349-3.37 2.893 4.395.332 1.669 4.143ZM97.251 83.308c2.042-.775 4.649-1.764 6.525-2.945 2.151 2.025 3.549 4.33 3.66 7.13h5.646c.11-2.8 1.508-5.105 3.66-7.13 1.876 1.181 4.483 2.165 6.524 2.945 6.014 2.282 3.076 6.448-.432 9.957a17.742 17.742 0 0 1-12.58 5.203 17.73 17.73 0 0 1-12.58-5.203c-3.457-3.457-6.478-7.661-.423-9.957Zm8.575-5.791c.092-.765-2.133-3.663-2.538-5.058-.873-1.4-1.181-3.64-.23-5.124.382-.588.216-1.642.216-2.45 0-8.077 13.946-8.086 13.946 0 0 1.022-.23 1.802.317 2.604.915 1.344.442 3.729-.331 4.98-.492 1.46-2.828 4.227-2.662 5.057.138 4.14-8.75 4.004-8.718-.009Zm32.673 20.76L135.8 94.74l1.917-4.032-4.152 1.512-3.181-3.098.138 4.47-3.886 2.118 4.235 1.251.782 4.41 2.478-3.7 4.368.606Zm-12.065 12.249-.593-4.438 3.646-2.52-4.34-.797-1.233-4.298-2.087 3.943-4.409-.14 3.053 3.229-1.499 4.218 3.972-1.946 3.49 2.749ZM82 98.272l4.373-.602 2.483 3.701.786-4.405 4.234-1.25-3.885-2.12.138-4.47-3.186 3.099-4.161-1.517 1.917 4.032L82 98.272Z" fill="#029894"/></g><defs><radialGradient id="a" cx="0" cy="0" r="1" gradientUnits="userSpaceOnUse" gradientTransform="matrix(107.502 0 0 42.5488 110.479 212.119)"><stop stop-color="#7FD4F9"/><stop offset="1" stop-color="#fff"/></radialGradient><radialGradient id="b" cx="0" cy="0" r="1" gradientUnits="userSpaceOnUse" gradientTransform="rotate(-21.812 524.032 -207.274) scale(57.9042 39.9502)"><stop stop-color="#7FD4F9"/><stop offset=".43" stop-color="#81D5F9"/><stop offset=".58" stop-color="#88D7F9"/><stop offset=".69" stop-color="#93DBFA"/><stop offset=".78" stop-color="#A4E1FB"/><stop offset=".86" stop-color="#BAE8FC"/><stop offset=".92" stop-color="#D6F1FD"/><stop offset=".98" stop-color="#F5FCFF"/><stop offset="1" stop-color="#fff"/></radialGradient><radialGradient id="c" cx="0" cy="0" r="1" gradientUnits="userSpaceOnUse" gradientTransform="rotate(-21.812 524.032 -207.274) scale(57.9042 39.9502)"><stop stop-color="#80E3C8"/><stop offset=".43" stop-color="#82E3C9"/><stop offset=".58" stop-color="#89E5CC"/><stop offset=".69" stop-color="#94E8D1"/><stop offset=".78" stop-color="#A5EBD8"/><stop offset=".86" stop-color="#BBF0E2"/><stop offset=".93" stop-color="#D7F6ED"/><stop offset=".99" stop-color="#F6FDFB"/><stop offset="1" stop-color="#fff"/></radialGradient><radialGradient id="d" cx="0" cy="0" r="1" gradientUnits="userSpaceOnUse" gradientTransform="rotate(-21.812 524.032 -207.274) scale(57.9042 39.9502)"><stop stop-color="#7FD4F9"/><stop offset=".43" stop-color="#81D5F9"/><stop offset=".58" stop-color="#88D7F9"/><stop offset=".69" stop-color="#93DBFA"/><stop offset=".78" stop-color="#A4E1FB"/><stop offset=".86" stop-color="#BAE8FC"/><stop offset=".92" stop-color="#D6F1FD"/><stop offset=".98" stop-color="#F5FCFF"/><stop offset="1" stop-color="#fff"/></radialGradient><radialGradient id="e" cx="0" cy="0" r="1" gradientUnits="userSpaceOnUse" gradientTransform="matrix(67.6449 0 0 25.4004 110.406 155.642)"><stop stop-color="#7FD4F9"/><stop offset="1" stop-color="#fff"/></radialGradient><radialGradient id="f" cx="0" cy="0" r="1" gradientUnits="userSpaceOnUse" gradientTransform="matrix(35.0368 0 0 13.1562 110.407 128.5)"><stop stop-color="#7FD4F9"/><stop offset="1" stop-color="#fff"/></radialGradient><clipPath id="g"><path fill="#fff" transform="translate(82 58.824)" d="M0 0h56.499v55.817H0z"/></clipPath></defs></svg>