<svg width="222" height="270" fill="none" xmlns="http://www.w3.org/2000/svg"><path style="mix-blend-mode:multiply" d="M180.142 189.744c47.405 15.503 54.691 43.595 16.33 62.733-38.361 19.137-107.887 22.1-155.272 6.597-47.384-15.502-54.687-43.599-16.318-62.745 38.37-19.146 107.875-22.092 155.26-6.585Z" fill="url(#a)"/><path d="M110.608 226.161c-22.786 0-44.285-3.096-62.15-8.947-25.129-8.224-39.554-20.922-40.617-35.76-.524-7.308 2.097-21.308 25.514-32.993 19.172-9.569 47.38-15.055 77.388-15.055 22.787 0 44.286 3.092 62.17 8.942 25.13 8.225 39.555 20.927 40.618 35.765.524 7.303-2.097 21.304-25.514 32.989-19.192 9.569-47.401 15.059-77.409 15.059Z" fill="#029894" style="mix-blend-mode:multiply" opacity=".2"/><path d="M170.484 149.932c40.794 13.35 47.086 37.533 14.049 54.019-33.038 16.486-92.89 19.03-133.703 5.681-40.815-13.349-47.087-37.537-14.05-54.023 33.038-16.486 92.906-19.026 133.704-5.677Z" fill="#029894" style="mix-blend-mode:multiply"/><g style="mix-blend-mode:multiply"><path d="M158.307 156.008c32.493 10.631 37.502 29.877 11.191 43.027-26.312 13.149-73.983 15.154-106.476 4.518-32.494-10.635-37.503-29.876-11.191-43.022 26.31-13.146 73.982-15.154 106.476-4.523Z" fill="url(#b)"/><path d="M158.307 156.008c32.493 10.631 37.502 29.877 11.191 43.027-26.312 13.149-73.983 15.154-106.476 4.518-32.494-10.635-37.503-29.876-11.191-43.022 26.31-13.146 73.982-15.154 106.476-4.523Z" fill="url(#c)"/><path d="M158.307 156.008c32.493 10.631 37.502 29.877 11.191 43.027-26.312 13.149-73.983 15.154-106.476 4.518-32.494-10.635-37.503-29.876-11.191-43.022 26.31-13.146 73.982-15.154 106.476-4.523Z" fill="url(#d)"/></g><path d="M110.608 241.944c-22.786 0-44.285-3.091-62.15-8.946-25.129-8.221-39.554-20.922-40.617-35.761-.524-7.307 2.097-21.308 25.514-32.993 19.172-9.569 47.38-15.055 77.388-15.055 22.787 0 44.286 3.092 62.17 8.947 25.13 8.22 39.555 20.922 40.618 35.761.524 7.303-2.097 21.307-25.514 32.992-19.192 9.565-47.401 15.055-77.409 15.055Z" fill="#029894" style="mix-blend-mode:multiply" opacity=".2"/><path d="M178.444 152.394h-13.423a70.642 70.642 0 0 0-11.703-4.901c-29.091-9.519-71.77-7.706-95.326 4.046-.572.286-1.112.577-1.635.871H43.023v14.739c-1.226 8.515 7.36 17.134 24.987 22.91 29.092 9.519 71.77 7.706 95.326-4.046 10.173-5.079 15.104-11.179 15.096-17.237l.012-16.382Z" fill="#E6EFEC"/><path d="M153.319 131.11c29.087 9.519 33.573 26.764 10.017 38.516-23.555 11.751-66.238 13.569-95.326 4.05-29.088-9.52-33.573-26.765-10.017-38.521 23.555-11.755 66.234-13.564 95.326-4.045Z" fill="#F8FFFD"/><path style="mix-blend-mode:multiply" d="M110.592 179.892c37.474 0 67.853-12.311 67.853-27.499 0-15.187-30.379-27.498-67.853-27.498-37.475 0-67.854 12.311-67.854 27.498 0 15.188 30.38 27.499 67.854 27.499Z" fill="url(#e)"/><path d="M178.444 125.289h-13.423a70.595 70.595 0 0 0-11.703-4.918c-29.091-9.519-71.77-7.709-95.326 4.046a36.94 36.94 0 0 0-1.635.872H43.023v14.735c-1.226 8.514 7.36 17.133 24.987 22.909 29.092 9.519 71.77 7.706 95.326-4.05 10.173-5.075 15.104-11.175 15.096-17.233l.012-16.361Z" fill="#E6EFEC"/><path d="M153.319 104.001c29.087 9.519 33.573 26.764 10.017 38.52-23.555 11.756-66.238 13.569-95.326 4.05-29.088-9.519-33.573-26.765-10.017-38.52 23.555-11.756 66.234-13.565 95.326-4.05Z" fill="#F8FFFD"/><path style="mix-blend-mode:multiply" opacity=".25" d="M110.59 139.534c19.409 0 35.144-6.378 35.144-14.246 0-7.867-15.735-14.245-35.144-14.245s-35.143 6.378-35.143 14.245c0 7.868 15.734 14.246 35.143 14.246Z" fill="url(#f)"/><path d="M108.49 23.897c0 5.049-1.156 8.862-3.467 11.44-2.312 2.579-5.423 3.864-9.335 3.855-3.95 0-7.085-1.288-9.404-3.863-2.32-2.575-3.476-6.389-3.468-11.44v-7.851c0-5.052 1.148-8.865 3.443-11.44C88.554 2.022 91.674.734 95.62.734c3.93 0 7.055 1.294 9.375 3.88 2.32 2.587 3.48 6.395 3.48 11.424l.016 7.86Zm-8.513-8.448c0-2.858-.37-4.912-1.112-6.162a3.57 3.57 0 0 0-1.346-1.4 3.5 3.5 0 0 0-1.868-.476c-.653-.023-1.3.14-1.866.472a3.517 3.517 0 0 0-1.335 1.404c-.715 1.25-1.073 3.304-1.076 6.162v8.987c0 2.908.364 4.983 1.092 6.225a3.553 3.553 0 0 0 1.357 1.4c.572.33 1.224.49 1.881.463a3.44 3.44 0 0 0 1.855-.47 3.509 3.509 0 0 0 1.33-1.393c.728-1.242 1.09-3.317 1.088-6.225V15.45ZM131.052 38.66h-8.521V9.98h-8.222V3.866l16.764-2.618-.021 37.412ZM99.906 79.877a8.592 8.592 0 0 1 15.391-5.264 8.594 8.594 0 0 1-1.009 11.61 14.596 14.596 0 0 1 7.135 6.6 1.716 1.716 0 0 1-1.519 2.523H97.096a1.718 1.718 0 0 1-1.52-2.522 14.599 14.599 0 0 1 7.136-6.6 8.578 8.578 0 0 1-2.806-6.347Zm-10.312-6.016a1.719 1.719 0 0 0 1.719-1.718v-6.016h6.015a1.719 1.719 0 0 0 0-3.437h-6.016a3.441 3.441 0 0 0-3.437 3.437v6.016a1.719 1.719 0 0 0 1.719 1.718Zm37.812 18.907a1.717 1.717 0 0 0-1.718 1.718v6.016h-6.016a1.718 1.718 0 1 0 0 3.437h6.016a3.438 3.438 0 0 0 3.437-3.437v-6.016a1.72 1.72 0 0 0-1.719-1.718Zm-1.718-30.078h-6.016a1.717 1.717 0 0 0-1.719 1.718 1.716 1.716 0 0 0 1.719 1.719h6.016v6.016a1.72 1.72 0 0 0 3.437 0v-6.016a3.443 3.443 0 0 0-3.437-3.437Zm-28.36 37.812h-6.016v-6.016a1.719 1.719 0 0 0-3.437 0v6.016a3.44 3.44 0 0 0 3.438 3.437h6.015a1.72 1.72 0 0 0 1.215-2.934 1.72 1.72 0 0 0-1.215-.503Z" fill="#029894"/><defs><radialGradient id="a" cx="0" cy="0" r="1" gradientUnits="userSpaceOnUse" gradientTransform="matrix(107.502 0 0 42.5488 110.665 212.121)"><stop stop-color="#80E3C8"/><stop offset="1" stop-color="#fff"/></radialGradient><radialGradient id="b" cx="0" cy="0" r="1" gradientUnits="userSpaceOnUse" gradientTransform="rotate(-21.812 523.136 -202.621) scale(57.9042 39.9502)"><stop stop-color="#80E3C8"/><stop offset=".43" stop-color="#82E3C9"/><stop offset=".58" stop-color="#89E5CC"/><stop offset=".69" stop-color="#94E8D1"/><stop offset=".78" stop-color="#A5EBD8"/><stop offset=".86" stop-color="#BBF0E2"/><stop offset=".93" stop-color="#D7F6ED"/><stop offset=".99" stop-color="#F6FDFB"/><stop offset="1" stop-color="#fff"/></radialGradient><radialGradient id="c" cx="0" cy="0" r="1" gradientUnits="userSpaceOnUse" gradientTransform="rotate(-21.812 523.136 -202.621) scale(57.9042 39.9502)"><stop stop-color="#80E3C8"/><stop offset=".43" stop-color="#82E3C9"/><stop offset=".58" stop-color="#89E5CC"/><stop offset=".69" stop-color="#94E8D1"/><stop offset=".78" stop-color="#A5EBD8"/><stop offset=".86" stop-color="#BBF0E2"/><stop offset=".93" stop-color="#D7F6ED"/><stop offset=".99" stop-color="#F6FDFB"/><stop offset="1" stop-color="#fff"/></radialGradient><radialGradient id="d" cx="0" cy="0" r="1" gradientUnits="userSpaceOnUse" gradientTransform="rotate(-21.812 523.136 -202.621) scale(57.9042 39.9502)"><stop stop-color="#80E3C8"/><stop offset=".43" stop-color="#82E3C9"/><stop offset=".58" stop-color="#89E5CC"/><stop offset=".69" stop-color="#94E8D1"/><stop offset=".78" stop-color="#A5EBD8"/><stop offset=".86" stop-color="#BBF0E2"/><stop offset=".93" stop-color="#D7F6ED"/><stop offset=".99" stop-color="#F6FDFB"/><stop offset="1" stop-color="#fff"/></radialGradient><radialGradient id="e" cx="0" cy="0" r="1" gradientUnits="userSpaceOnUse" gradientTransform="matrix(67.6449 0 0 25.4004 110.592 155.642)"><stop stop-color="#80E3C8"/><stop offset="1" stop-color="#fff"/></radialGradient><radialGradient id="f" cx="0" cy="0" r="1" gradientUnits="userSpaceOnUse" gradientTransform="matrix(35.0368 0 0 13.1562 110.59 128.5)"><stop stop-color="#80E3C8"/><stop offset="1" stop-color="#fff"/></radialGradient></defs></svg>