<svg width="19" height="19" viewBox="0 0 19 19" fill="none" xmlns="http://www.w3.org/2000/svg">
<path fill-rule="evenodd" clip-rule="evenodd" d="M0.623535 9.15359C0.623535 6.80214 1.55765 4.54699 3.22038 2.88426C4.88311 1.22153 7.13826 0.287415 9.48972 0.287415C11.8412 0.287415 14.0963 1.22153 15.7591 2.88426C17.4218 4.54699 18.3559 6.80214 18.3559 9.15359C18.3559 11.5051 17.4218 13.7602 15.7591 15.4229C14.0963 17.0857 11.8412 18.0198 9.48972 18.0198C7.13826 18.0198 4.88311 17.0857 3.22038 15.4229C1.55765 13.7602 0.623535 11.5051 0.623535 9.15359ZM8.98375 12.9483L14.0883 6.56703L13.1662 5.82937L8.81352 11.2685L5.73046 8.69965L4.97387 9.60754L8.98375 12.9483Z" fill="#001C63"/>
</svg>
