<svg width="27" height="28" viewBox="0 0 27 28" fill="none" xmlns="http://www.w3.org/2000/svg">
<path d="M18.0773 3.95789C19.9653 5.80903 21.7652 7.57379 23.628 9.40025C23.112 10.6467 22.5833 11.9548 22.0421 13.263C20.9093 15.9657 21.224 16.0644 18.0269 17.3355C14.8173 18.6066 11.6832 20.0505 8.52388 21.408C7.56728 22.8519 6.63585 23.1975 5.50304 22.5928C8.22179 19.9271 10.9531 17.2368 13.7977 14.4477C14.6411 14.3983 15.0564 14.0898 15.0438 13.374C15.0313 12.8187 14.5907 12.3991 14.0117 12.3991C13.3069 12.3868 12.9922 12.8064 12.9544 13.5962C10.1224 16.3976 7.39106 19.1003 4.65973 21.7906C3.98004 20.7046 4.42058 19.5445 5.81771 18.8411C7.03863 16.1137 8.27214 13.3494 9.50565 10.5726C9.85808 9.75814 10.1979 8.94364 10.5252 8.12913C10.8524 7.32697 11.3307 6.64822 12.174 6.30267C14.1502 5.50051 16.1515 4.72303 18.0773 3.95789Z" fill="white"/>
<path d="M2.59551 25.4558C1.23613 25.5916 0.631967 25.3324 0.279537 24.4809C0.00262716 23.8021 0.204016 23.0123 0.783009 22.5557C1.362 22.0991 2.25567 22.0621 2.87242 22.494C3.56469 22.9753 3.74091 23.7281 3.38848 24.7277C4.54646 26.3691 6.67363 27.1218 8.76304 26.3814C10.1224 25.9001 11.4063 25.1473 12.665 24.4315C13.6215 23.8885 14.49 23.1974 15.4215 22.6051C17.0326 21.6054 18.6814 21.1612 20.9345 21.0501C21.7149 19.8777 22.2813 19.5322 23.112 19.7543C23.9301 19.9764 24.3959 20.5194 24.4336 21.3216C24.4714 22.0867 24.056 22.6914 23.326 22.9753C22.533 23.2715 21.8407 23.0123 21.1233 22.1114C19.5373 22.0867 18.0269 22.4323 16.6424 23.2468C14.7921 24.3451 12.967 25.5175 11.1042 26.6035C7.89455 28.467 5.18839 28.0968 2.59551 25.4558Z" fill="white"/>
<path d="M26.6748 8.54872C26.6622 9.49897 25.8189 10.005 25.1266 9.64707C24.963 9.56068 24.8245 9.42493 24.6861 9.28918C22.5085 7.16653 20.331 5.03154 18.1661 2.89655C17.6123 2.35355 17.5493 1.76118 17.9899 1.29223C18.4178 0.847952 19.0975 0.860293 19.6387 1.36627C21.8666 3.52594 24.0819 5.69795 26.2972 7.89465C26.4986 8.10444 26.5992 8.41297 26.6748 8.54872Z" fill="white"/>
</svg>
