<svg width="28" height="25" viewBox="0 0 28 25" fill="none" xmlns="http://www.w3.org/2000/svg">
<path d="M3.85319 17.8838C5.63208 19.0268 7.36543 20.1399 9.13521 21.2799C9.60877 20.7352 10.0854 20.1935 10.5528 19.6488C12.5989 17.2767 14.6419 14.9045 16.6848 12.5324C17.5804 11.4936 18.5062 11.3597 19.6689 12.1067C21.7938 13.4729 23.9218 14.839 26.0468 16.2082C27.4128 17.0892 27.4219 18.6636 26.065 19.5387C23.8247 20.9822 21.5844 22.4257 19.338 23.8574C18.4364 24.4318 17.3709 23.9943 17.2222 22.9853C17.1372 22.4049 17.4164 21.9763 17.9143 21.6579C19.7205 20.506 21.5206 19.3423 23.3238 18.1845C23.4604 18.0952 23.6 18.0059 23.7943 17.8779C22.0215 16.7379 20.2851 15.6218 18.5062 14.4759C17.9537 15.1129 17.4104 15.7349 16.867 16.3629C14.8392 18.7142 12.8174 21.0685 10.7866 23.4139C10.1096 24.1967 9.08967 24.3544 8.21237 23.7978C5.95082 22.3603 3.69534 20.9197 1.452 19.4554C0.249887 18.6696 0.265065 17.0713 1.47629 16.2826C3.74391 14.8063 6.02367 13.3509 8.30344 11.8924C9.00164 11.446 9.81822 11.6008 10.2311 12.2377C10.6409 12.8717 10.4587 13.6158 9.75751 14.0711C7.92399 15.2587 6.08439 16.4344 4.24782 17.616C4.13247 17.6904 4.02319 17.7678 3.85319 17.8838Z" fill="white"/>
<path d="M13.8133 0.103149C16.4604 0.103149 18.5914 2.18064 18.5945 4.76412C18.5975 7.37438 16.4665 9.46675 13.8073 9.46377C11.1754 9.4608 9.04433 7.36545 9.04737 4.779C9.04737 2.18957 11.1723 0.103149 13.8133 0.103149ZM13.8406 2.70448C12.681 2.69555 11.7127 3.6212 11.7005 4.74923C11.6884 5.8981 12.6507 6.85649 13.8194 6.85649C14.9699 6.85649 15.9322 5.91596 15.9383 4.78793C15.9413 3.65989 14.9912 2.71341 13.8406 2.70448Z" fill="white"/>
</svg>
