<svg width="27" height="23" viewBox="0 0 27 23" fill="none" xmlns="http://www.w3.org/2000/svg">
<path d="M26.5828 6.87733C25.8478 6.18579 25.1128 5.49318 24.3568 4.78114C22.3476 6.6853 20.3659 8.57435 18.3688 10.4494C17.6558 11.1183 16.9472 11.8022 16.1638 12.387C15.2835 13.044 14.5034 13.0591 13.6484 12.3783C12.7869 11.6933 12.0243 10.8841 11.2519 10.0966C10.5037 9.33385 9.79947 8.52904 9.04134 7.70588C8.2513 8.38447 7.40845 8.97675 6.73504 9.71792C5.66332 10.8992 4.42215 11.3955 2.81567 11.1862C1.97722 11.0773 1.11126 11.1668 0.208984 11.0546C3.13916 8.5463 6.06934 6.03799 9.06224 3.47575C11.0087 5.52447 12.9387 7.55592 14.8324 9.54962C17.2553 7.18264 19.6386 4.85451 22.0494 2.49832C21.3364 1.83375 20.5959 1.1433 19.7839 0.38595C19.9764 0.329851 20.038 0.297485 20.0997 0.297485C22.1705 0.282382 24.2424 0.268357 26.3132 0.257568C26.4035 0.257568 26.4937 0.280224 26.5828 0.29317C26.5828 2.48753 26.5828 4.68189 26.5828 6.87733Z" fill="white"/>
<path d="M0.0649414 13.8931C1.43595 13.8931 2.80586 13.8931 4.18458 13.8931C4.18458 16.8178 4.18458 19.6951 4.18458 22.6813C3.76755 22.6813 3.40885 22.6813 3.05124 22.6813C2.28211 22.6813 1.51188 22.6921 0.742745 22.6737C0.516077 22.6684 0.290509 22.5788 0.0649414 22.5281C0.0649414 19.6487 0.0649414 16.7703 0.0649414 13.8931Z" fill="white"/>
<path d="M20.6475 12.2489C21.9403 11.0309 23.2728 9.77617 24.6758 8.45459C24.6758 13.1972 24.6758 17.8513 24.6758 22.6208C23.362 22.7384 22.046 22.6618 20.6475 22.6683C20.6475 19.1783 20.6475 15.7605 20.6475 12.2489Z" fill="white"/>
<path d="M11.0088 22.609C9.67524 22.609 8.39995 22.609 7.04105 22.609C6.99703 22.4644 6.8969 22.2896 6.8958 22.1138C6.8859 19.2009 6.8892 16.288 6.8892 13.3471C7.50979 12.8066 8.13477 12.2618 8.77847 11.7008C9.5465 12.497 10.2859 13.264 11.0088 14.0128C11.0088 16.8684 11.0088 19.7155 11.0088 22.609Z" fill="white"/>
<path d="M13.7219 15.4843C15.2349 15.795 16.5762 15.5221 17.8625 14.7032C17.8625 17.3637 17.8625 19.941 17.8625 22.5982C16.5322 22.5982 15.2305 22.5982 13.8584 22.5982C13.8221 22.4914 13.7285 22.3468 13.7285 22.2012C13.7197 19.9928 13.7219 17.7833 13.7219 15.4843Z" fill="white"/>
</svg>
