<svg width="600" height="120" viewBox="0 0 600 120" fill="none" xmlns="http://www.w3.org/2000/svg">
<g clip-path="url(#clip0_3_22)">
<rect x="2.5" y="2.5" width="595" height="115" rx="7.5" fill="white" stroke="#18A578" stroke-width="5"/>
<path d="M373.027 46.002H401.98V51.2724H390.597V80.9059H384.334V51.2724H373V46H373.025L373.027 46.002ZM400.744 55.6316H406.096V60.5103H406.196C406.374 59.8203 406.701 59.1546 407.181 58.5134C408.208 57.1389 409.597 56.0733 411.195 55.4347C412.007 55.1151 412.872 54.9479 413.745 54.9416C414.398 54.9416 414.881 54.9659 415.134 54.9923C415.385 55.0167 415.636 55.0654 415.914 55.0897V60.4596C415.504 60.3883 415.092 60.3308 414.678 60.2871C414.267 60.2388 413.854 60.2144 413.44 60.214C412.48 60.214 411.573 60.4109 410.715 60.7822C409.857 61.1496 409.124 61.7158 408.495 62.4321C407.823 63.2331 407.309 64.1521 406.979 65.1414C406.601 66.2251 406.423 67.4549 406.423 68.8613V80.8815H400.72V55.6316H400.744ZM442.143 80.9079H436.539V77.3849H436.437C435.73 78.6674 434.696 79.6781 433.307 80.4411C431.918 81.2042 430.504 81.5979 429.066 81.5979C425.659 81.5979 423.183 80.7861 421.671 79.1342C420.155 77.4843 419.397 74.9962 419.397 71.67V55.6336H425.103V71.1282C425.103 73.3463 425.532 74.9232 426.417 75.8344C427.275 76.7456 428.511 77.2144 430.075 77.2144C431.287 77.2144 432.271 77.0419 433.078 76.6705C433.887 76.3011 434.543 75.8344 435.023 75.2174C435.528 74.6269 435.881 73.8882 436.11 73.05C436.335 72.2119 436.437 71.3007 436.437 70.3164V55.658H442.143V80.9079ZM451.86 72.8045C452.038 74.428 452.667 75.5645 453.754 76.2281C454.863 76.8694 456.177 77.2144 457.717 77.2144C458.248 77.2144 458.853 77.1636 459.535 77.0906C460.216 77.0155 460.871 76.843 461.454 76.6238C462.058 76.4006 462.536 76.0556 462.941 75.6132C463.321 75.1667 463.497 74.6025 463.472 73.8882C463.469 73.5566 463.395 73.2295 463.256 72.9281C463.117 72.6267 462.916 72.3578 462.665 72.1388C462.158 71.6721 461.529 71.3271 460.745 71.0308C459.871 70.73 458.977 70.4913 458.069 70.3164C457.059 70.1196 456.05 69.8963 455.017 69.6751C453.975 69.4513 452.947 69.1715 451.936 68.837C450.988 68.5351 450.094 68.0865 449.286 67.5077C448.5 66.9623 447.858 66.2352 447.417 65.389C446.939 64.5265 446.71 63.4671 446.71 62.1866C446.71 60.8066 447.064 59.6742 447.746 58.7366C448.434 57.8068 449.323 57.0414 450.347 56.4961C451.447 55.9183 452.63 55.511 453.854 55.2886C455.141 55.0674 456.379 54.9436 457.54 54.9436C458.878 54.9436 460.165 55.0918 461.378 55.3637C462.553 55.6136 463.673 56.0721 464.683 56.7173C465.668 57.3343 466.475 58.146 467.133 59.1323C467.789 60.1166 468.193 61.3241 468.369 62.7284H462.412C462.134 61.3992 461.527 60.488 460.545 60.0435C459.56 59.5768 458.424 59.3535 457.162 59.3535C456.757 59.3535 456.277 59.3779 455.723 59.453C455.19 59.5234 454.665 59.6472 454.157 59.8223C453.692 59.9923 453.27 60.2611 452.921 60.6097C452.751 60.7917 452.619 61.0051 452.533 61.2377C452.446 61.4703 452.406 61.7176 452.416 61.9654C452.416 62.6554 452.667 63.1972 453.147 63.6153C453.627 64.0334 454.259 64.3784 455.041 64.6746C455.824 64.9466 456.708 65.1921 457.717 65.389C458.726 65.5859 459.76 65.8071 460.822 66.0303C461.856 66.2515 462.865 66.5478 463.876 66.8664C464.886 67.1871 465.768 67.6315 466.553 68.1977C467.335 68.7639 467.966 69.4539 468.444 70.2921C468.924 71.1282 469.178 72.1875 469.178 73.4194C469.178 74.9211 468.824 76.1794 468.115 77.2387C467.411 78.2737 466.502 79.1342 465.39 79.7755C464.227 80.4412 462.966 80.9232 461.654 81.2042C460.319 81.496 458.956 81.6444 457.589 81.6466C456.058 81.6637 454.531 81.4815 453.047 81.1048C451.658 80.7354 450.447 80.1936 449.438 79.4812C448.44 78.7613 447.62 77.8259 447.039 76.7456C446.459 75.6619 446.155 74.3549 446.106 72.8532H451.86V72.8045ZM470.691 55.6356H475.008V48.0456H480.714V55.6356H485.862V59.7959H480.716V73.2976C480.716 73.8861 480.74 74.3813 480.791 74.8237C480.84 75.2438 480.967 75.6132 481.145 75.9074C481.338 76.2166 481.631 76.4514 481.976 76.5731C482.356 76.7212 482.834 76.7963 483.492 76.7963C483.894 76.7963 484.299 76.7963 484.703 76.7699C485.108 76.7456 485.51 76.6969 485.915 76.5974V80.9079C485.284 80.983 484.652 81.0317 484.072 81.1048C483.461 81.1754 482.845 81.2086 482.23 81.2042C480.716 81.2042 479.504 81.0561 478.593 80.7861C477.686 80.5142 476.953 80.0961 476.448 79.5543C475.917 79.0124 475.59 78.3468 475.388 77.533C475.191 76.6178 475.082 75.6863 475.061 74.7507V59.8426H470.745V55.6296H470.694L470.691 55.6356ZM489.9 55.6356H495.304V59.0572H495.406C496.211 57.5798 497.322 56.5448 498.76 55.9056C500.23 55.2563 501.824 54.9282 503.432 54.9436C505.475 54.9436 507.242 55.2886 508.758 56.003C510.272 56.693 511.534 57.6549 512.543 58.8847C513.553 60.1166 514.286 61.5453 514.791 63.1729C515.305 64.866 515.56 66.6261 515.549 68.3946C515.549 70.0932 515.322 71.7431 514.866 73.322C514.448 74.8449 513.755 76.2799 512.821 77.5574C511.904 78.7889 510.712 79.7926 509.338 80.4899C507.925 81.2286 506.284 81.5979 504.366 81.5979C503.527 81.597 502.691 81.5223 501.865 81.3747C501.042 81.2273 500.239 80.9884 499.469 80.6624C498.705 80.3455 497.99 79.9219 497.347 79.4041C496.711 78.9008 496.158 78.3032 495.706 77.6324H495.604V90.2452H489.9V55.6316V55.6356ZM509.843 68.2951C509.844 67.1718 509.691 66.0535 509.389 64.9709C509.11 63.9453 508.647 62.9776 508.025 62.1135C507.434 61.2915 506.667 60.6096 505.78 60.1166C504.826 59.6049 503.758 59.3423 502.674 59.3535C500.276 59.3535 498.458 60.1653 497.247 61.7929C496.035 63.4184 495.428 65.5879 495.428 68.2951C495.428 69.5757 495.582 70.7588 495.908 71.8425C496.235 72.9262 496.691 73.8638 497.347 74.6512C497.98 75.4407 498.736 76.0556 499.62 76.498C500.503 76.9668 501.539 77.188 502.699 77.188C504.013 77.188 505.097 76.9181 506.006 76.4006C506.887 75.8975 507.645 75.2081 508.227 74.3813C508.807 73.5432 509.238 72.6056 509.489 71.5483C509.722 70.4792 509.84 69.3888 509.843 68.2951ZM519.914 46.002H525.62V51.2744H519.914V46.002ZM519.914 55.6336H525.62V80.9079H519.914V55.6336ZM530.719 46.002H536.424V80.9079H530.719V46.002ZM553.917 81.5979C551.846 81.5979 550.003 81.2529 548.389 80.5893C546.842 79.9589 545.442 79.0195 544.275 77.8293C543.141 76.6151 542.272 75.1806 541.724 73.6162C541.123 71.8894 540.825 70.0733 540.841 68.2464C540.841 66.3246 541.143 64.5529 541.724 62.9253C542.272 61.3617 543.141 59.9279 544.275 58.7143C545.384 57.5311 546.774 56.6199 548.389 55.9543C550.003 55.2886 551.846 54.9436 553.917 54.9436C555.987 54.9436 557.83 55.2886 559.445 55.9543C561.061 56.6199 562.424 57.5575 563.56 58.7143C564.694 59.9275 565.562 61.3614 566.109 62.9253C566.689 64.5509 566.992 66.3246 566.992 68.2464C566.992 70.1946 566.689 71.9907 566.109 73.6162C565.562 75.1809 564.694 76.6155 563.56 77.8293C562.448 79.0124 561.061 79.9236 559.445 80.5893C557.83 81.2529 555.987 81.5979 553.917 81.5979ZM553.917 77.188C555.18 77.188 556.289 76.9181 557.223 76.4006C558.133 75.8974 558.918 75.1985 559.521 74.3549C560.126 73.5188 560.555 72.5569 560.859 71.4975C561.137 70.4382 561.288 69.3545 561.288 68.2464C561.288 67.1627 561.137 66.1034 560.859 65.0196C560.599 63.9917 560.145 63.0221 559.521 62.1622C558.917 61.3267 558.131 60.6367 557.223 60.143C556.289 59.6255 555.18 59.3535 553.917 59.3535C552.655 59.3535 551.544 59.6255 550.61 60.143C549.707 60.6442 548.924 61.333 548.314 62.1622C547.699 63.0272 547.246 63.9951 546.976 65.0196C546.696 66.073 546.551 67.1571 546.545 68.2464C546.545 69.3545 546.698 70.4382 546.976 71.4975C547.254 72.5569 547.707 73.5188 548.314 74.3549C548.919 75.1931 549.676 75.8831 550.61 76.4006C551.544 76.9424 552.655 77.188 553.917 77.188ZM568.659 55.6356H572.975V48.0456H578.681V55.6356H583.829V59.7959H578.681V73.2976C578.681 73.8861 578.705 74.3813 578.754 74.8237C578.806 75.2438 578.932 75.6132 579.11 75.9074C579.303 76.2169 579.596 76.4518 579.941 76.5731C580.321 76.7212 580.799 76.7963 581.457 76.7963C581.86 76.7963 582.264 76.7963 582.669 76.7699C583.073 76.7456 583.476 76.6969 583.88 76.5974V80.9079C583.249 80.983 582.618 81.0317 582.037 81.1048C581.426 81.1754 580.81 81.2086 580.195 81.2042C578.681 81.2042 577.468 81.0561 576.558 80.7861C575.651 80.5142 574.918 80.0961 574.413 79.5543C573.884 79.0124 573.555 78.3468 573.353 77.533C573.157 76.6178 573.047 75.6862 573.026 74.7507V59.8426H568.71V55.6296H568.659V55.6356Z" fill="black"/>
<path d="M362.483 50.29H336.332L328.255 26L320.149 50.2921L294 50.2657L315.178 65.2914L307.076 89.5551L328.255 74.5537L349.408 89.5551L341.331 65.2914L362.483 50.29Z" fill="#04DA8D"/>
<path d="M343.147 70.7871L341.329 65.2935L328.255 74.5557L343.147 70.7871Z" fill="#126849"/>
<path d="M18.7869 80V48.7273H29.3537C31.7969 48.7273 33.8023 49.1446 35.37 49.9794C36.9377 50.804 38.0982 51.939 38.8516 53.3846C39.6049 54.8301 39.9815 56.4742 39.9815 58.3168C39.9815 60.1593 39.6049 61.7932 38.8516 63.2184C38.0982 64.6436 36.9428 65.7634 35.3853 66.5778C33.8278 67.382 31.8376 67.7841 29.4148 67.7841H20.8636V64.3636H29.2926C30.9621 64.3636 32.3059 64.1193 33.3239 63.6307C34.352 63.142 35.0952 62.4498 35.5533 61.554C36.0215 60.648 36.2557 59.5689 36.2557 58.3168C36.2557 57.0646 36.0215 55.9703 35.5533 55.0337C35.085 54.0972 34.3368 53.3744 33.3086 52.8654C32.2804 52.3462 30.9214 52.0866 29.2315 52.0866H22.5739V80H18.7869ZM33.5071 65.9517L41.2031 80H36.8054L29.2315 65.9517H33.5071ZM55.385 80.4886C53.1251 80.4886 51.1756 79.9898 49.5367 78.9922C47.9079 77.9844 46.6507 76.5795 45.765 74.7777C44.8895 72.9657 44.4518 70.8584 44.4518 68.456C44.4518 66.0535 44.8895 63.9361 45.765 62.1037C46.6507 60.2611 47.8824 58.8258 49.4603 57.7976C51.0484 56.7592 52.9011 56.2401 55.0186 56.2401C56.2401 56.2401 57.4465 56.4437 58.6375 56.8509C59.8286 57.258 60.9127 57.9197 61.89 58.8359C62.8673 59.742 63.646 60.9432 64.2263 62.4396C64.8066 63.9361 65.0967 65.7786 65.0967 67.9673V69.4943H47.0171V66.3793H61.4319C61.4319 65.0559 61.1672 63.875 60.6379 62.8366C60.1187 61.7983 59.3756 60.9788 58.4085 60.3782C57.4516 59.7776 56.3216 59.4773 55.0186 59.4773C53.5832 59.4773 52.3412 59.8336 51.2927 60.5462C50.2544 61.2486 49.4552 62.1648 48.8953 63.2947C48.3354 64.4247 48.0555 65.6361 48.0555 66.929V69.0057C48.0555 70.777 48.3609 72.2785 48.9717 73.5103C49.5927 74.7319 50.4529 75.6634 51.5523 76.3047C52.6517 76.9358 53.9293 77.2514 55.385 77.2514C56.3318 77.2514 57.1869 77.1191 57.9504 76.8544C58.724 76.5795 59.3908 76.1723 59.9507 75.6328C60.5106 75.0831 60.9433 74.401 61.2487 73.5866L64.7302 74.5639C64.3637 75.7448 63.7478 76.7831 62.8825 77.679C62.0173 78.5646 60.9484 79.2569 59.6759 79.7557C58.4034 80.2443 56.9731 80.4886 55.385 80.4886ZM89.0437 56.5455L80.3704 80H76.7056L68.0323 56.5455H71.9414L78.4158 75.2358H78.6602L85.1346 56.5455H89.0437ZM93.8002 80V56.5455H97.4039V80H93.8002ZM95.6326 52.6364C94.9302 52.6364 94.3245 52.3971 93.8155 51.9187C93.3167 51.4402 93.0673 50.8651 93.0673 50.1932C93.0673 49.5213 93.3167 48.9461 93.8155 48.4677C94.3245 47.9892 94.9302 47.75 95.6326 47.75C96.3351 47.75 96.9357 47.9892 97.4345 48.4677C97.9435 48.9461 98.198 49.5213 98.198 50.1932C98.198 50.8651 97.9435 51.4402 97.4345 51.9187C96.9357 52.3971 96.3351 52.6364 95.6326 52.6364ZM113.838 80.4886C111.578 80.4886 109.629 79.9898 107.99 78.9922C106.361 77.9844 105.104 76.5795 104.218 74.7777C103.343 72.9657 102.905 70.8584 102.905 68.456C102.905 66.0535 103.343 63.9361 104.218 62.1037C105.104 60.2611 106.336 58.8258 107.913 57.7976C109.502 56.7592 111.354 56.2401 113.472 56.2401C114.693 56.2401 115.9 56.4437 117.091 56.8509C118.282 57.258 119.366 57.9197 120.343 58.8359C121.32 59.742 122.099 60.9432 122.679 62.4396C123.26 63.9361 123.55 65.7786 123.55 67.9673V69.4943H105.47V66.3793H119.885C119.885 65.0559 119.62 63.875 119.091 62.8366C118.572 61.7983 117.829 60.9788 116.862 60.3782C115.905 59.7776 114.775 59.4773 113.472 59.4773C112.036 59.4773 110.794 59.8336 109.746 60.5462C108.707 61.2486 107.908 62.1648 107.348 63.2947C106.789 64.4247 106.509 65.6361 106.509 66.929V69.0057C106.509 70.777 106.814 72.2785 107.425 73.5103C108.046 74.7319 108.906 75.6634 110.005 76.3047C111.105 76.9358 112.382 77.2514 113.838 77.2514C114.785 77.2514 115.64 77.1191 116.403 76.8544C117.177 76.5795 117.844 76.1723 118.404 75.6328C118.964 75.0831 119.396 74.401 119.702 73.5866L123.183 74.5639C122.817 75.7448 122.201 76.7831 121.336 77.679C120.47 78.5646 119.401 79.2569 118.129 79.7557C116.857 80.2443 115.426 80.4886 113.838 80.4886ZM134.346 80L127.199 56.5455H130.986L136.056 74.5028H136.3L141.309 56.5455H145.157L150.104 74.4418H150.348L155.418 56.5455H159.205L152.059 80H148.516L143.385 61.9815H143.019L137.888 80H134.346ZM190.844 70.4105V56.5455H194.448V80H190.844V76.0298H190.6C190.05 77.2209 189.195 78.2338 188.035 79.0685C186.874 79.8931 185.408 80.3054 183.637 80.3054C182.171 80.3054 180.868 79.9847 179.728 79.3434C178.588 78.6919 177.692 77.7146 177.04 76.4116C176.389 75.0984 176.063 73.4441 176.063 71.4489V56.5455H179.667V71.2045C179.667 72.9148 180.145 74.2789 181.102 75.2969C182.069 76.3149 183.301 76.8239 184.797 76.8239C185.693 76.8239 186.604 76.5948 187.531 76.1367C188.467 75.6786 189.251 74.9762 189.882 74.0295C190.524 73.0827 190.844 71.8764 190.844 70.4105ZM217.662 61.7983L214.425 62.7145C214.221 62.175 213.921 61.6507 213.524 61.1417C213.137 60.6225 212.608 60.195 211.936 59.859C211.264 59.5231 210.404 59.3551 209.355 59.3551C207.92 59.3551 206.724 59.686 205.767 60.3477C204.82 60.9992 204.347 61.8288 204.347 62.8366C204.347 63.7325 204.672 64.44 205.324 64.9592C205.975 65.4783 206.993 65.911 208.378 66.2571L211.859 67.1122C213.956 67.6212 215.519 68.4 216.547 69.4485C217.575 70.4869 218.089 71.8255 218.089 73.4645C218.089 74.8082 217.703 76.0095 216.929 77.0682C216.165 78.1269 215.097 78.9616 213.722 79.5724C212.348 80.1832 210.75 80.4886 208.928 80.4886C206.535 80.4886 204.555 79.9695 202.988 78.9311C201.42 77.8928 200.427 76.3759 200.01 74.3807L203.43 73.5256C203.756 74.7879 204.372 75.7346 205.278 76.3658C206.194 76.9969 207.39 77.3125 208.866 77.3125C210.546 77.3125 211.88 76.9562 212.867 76.2436C213.865 75.5208 214.364 74.6555 214.364 73.6477C214.364 72.8333 214.079 72.1513 213.509 71.6016C212.938 71.0417 212.063 70.6243 210.882 70.3494L206.973 69.4332C204.825 68.9242 203.247 68.1353 202.239 67.0664C201.242 65.9873 200.743 64.6385 200.743 63.0199C200.743 61.6965 201.114 60.5258 201.858 59.5078C202.611 58.4898 203.634 57.6907 204.927 57.1104C206.23 56.5302 207.706 56.2401 209.355 56.2401C211.676 56.2401 213.498 56.7491 214.822 57.767C216.155 58.785 217.102 60.1288 217.662 61.7983ZM245.136 80.4886C243.019 80.4886 241.161 79.9847 239.563 78.9769C237.975 77.9691 236.733 76.5592 235.837 74.7472C234.951 72.9351 234.508 70.8177 234.508 68.3949C234.508 65.9517 234.951 63.819 235.837 61.9968C236.733 60.1746 237.975 58.7596 239.563 57.7518C241.161 56.744 243.019 56.2401 245.136 56.2401C247.254 56.2401 249.106 56.744 250.695 57.7518C252.293 58.7596 253.535 60.1746 254.42 61.9968C255.316 63.819 255.764 65.9517 255.764 68.3949C255.764 70.8177 255.316 72.9351 254.42 74.7472C253.535 76.5592 252.293 77.9691 250.695 78.9769C249.106 79.9847 247.254 80.4886 245.136 80.4886ZM245.136 77.2514C246.745 77.2514 248.068 76.8391 249.106 76.0146C250.145 75.19 250.913 74.1058 251.412 72.7621C251.911 71.4183 252.16 69.9626 252.16 68.3949C252.16 66.8272 251.911 65.3664 251.412 64.0124C250.913 62.6585 250.145 61.5642 249.106 60.7294C248.068 59.8946 246.745 59.4773 245.136 59.4773C243.528 59.4773 242.204 59.8946 241.166 60.7294C240.128 61.5642 239.359 62.6585 238.86 64.0124C238.362 65.3664 238.112 66.8272 238.112 68.3949C238.112 69.9626 238.362 71.4183 238.86 72.7621C239.359 74.1058 240.128 75.19 241.166 76.0146C242.204 76.8391 243.528 77.2514 245.136 77.2514ZM264.869 65.8906V80H261.265V56.5455H264.747V60.2102H265.052C265.602 59.0192 266.436 58.0623 267.556 57.3395C268.676 56.6065 270.122 56.2401 271.893 56.2401C273.481 56.2401 274.871 56.5658 276.062 57.2173C277.253 57.8587 278.179 58.8359 278.841 60.1491C279.502 61.4522 279.833 63.1013 279.833 65.0966V80H276.23V65.3409C276.23 63.4983 275.751 62.063 274.794 61.0348C273.837 59.9964 272.524 59.4773 270.855 59.4773C269.704 59.4773 268.676 59.7267 267.77 60.2255C266.874 60.7243 266.167 61.4522 265.648 62.4091C265.128 63.366 264.869 64.5265 264.869 65.8906Z" fill="black"/>
</g>
<defs>
<clipPath id="clip0_3_22">
<rect width="600" height="120" fill="white"/>
</clipPath>
</defs>
</svg>
