<svg width="222" height="270" fill="none" xmlns="http://www.w3.org/2000/svg"><path style="mix-blend-mode:multiply" d="M180.456 190.556c47.385 15.507 54.691 43.599 16.318 62.745-38.373 19.146-107.887 22.101-155.268 6.594-47.38-15.507-54.691-43.595-16.322-62.741 38.37-19.146 107.891-22.088 155.272-6.598Z" fill="url(#a)"/><path d="M110.925 226.263c-22.787 0-44.29-3.091-62.174-8.942-25.13-8.225-39.555-20.926-40.618-35.761-.52-7.307 2.098-21.308 25.514-32.997 19.172-9.565 47.38-15.054 77.389-15.054 22.79 0 44.285 3.095 62.17 8.946 25.133 8.22 39.559 20.922 40.618 35.761.523 7.307-2.094 21.307-25.51 32.993-19.177 9.568-47.385 15.054-77.389 15.054Z" fill="#001C63" style="mix-blend-mode:multiply" opacity=".2"/><path d="M170.799 150.037c40.798 13.349 47.087 37.536 14.049 54.022-33.037 16.487-92.889 19.026-133.682 5.677-40.794-13.349-47.087-37.537-14.054-54.019 33.034-16.482 92.889-19.029 133.687-5.68Z" fill="#001C63" style="mix-blend-mode:multiply"/><g style="mix-blend-mode:multiply"><path d="M158.623 156.111c32.494 10.635 37.503 29.877 11.191 43.026-26.311 13.15-73.982 15.155-106.472 4.523-32.49-10.631-37.506-29.897-11.19-43.026 26.315-13.129 73.982-15.154 106.471-4.523Z" fill="url(#b)"/><path d="M158.623 156.111c32.494 10.635 37.503 29.877 11.191 43.026-26.311 13.15-73.982 15.155-106.472 4.523-32.49-10.631-37.506-29.897-11.19-43.026 26.315-13.129 73.982-15.154 106.471-4.523Z" fill="url(#c)"/><path d="M158.623 156.111c32.494 10.635 37.503 29.877 11.191 43.026-26.311 13.15-73.982 15.155-106.472 4.523-32.49-10.631-37.506-29.897-11.19-43.026 26.315-13.129 73.982-15.154 106.471-4.523Z" fill="url(#d)"/></g><path d="M110.925 242.052c-22.787 0-44.29-3.095-62.174-8.946-25.13-8.224-39.555-20.922-40.618-35.761-.52-7.307 2.098-21.308 25.514-32.993 19.172-9.568 47.38-15.058 77.389-15.058 22.79 0 44.285 3.095 62.17 8.946 25.133 8.224 39.559 20.922 40.618 35.761.523 7.307-2.094 21.308-25.51 32.997-19.177 9.565-47.385 15.054-77.389 15.054Z" fill="#001C63" style="mix-blend-mode:multiply" opacity=".2"/><path d="M178.758 152.498h-13.419a71.546 71.546 0 0 0-11.706-4.918c-29.088-9.519-71.767-7.705-95.326 4.05a43.11 43.11 0 0 0-1.636.868H43.338v14.743c-1.227 8.511 7.36 17.133 24.99 22.909 29.088 9.519 71.767 7.706 95.322-4.05 10.173-5.074 15.104-11.174 15.096-17.232l.012-16.37Z" fill="#E6E6E8"/><path d="M153.634 131.214c29.092 9.519 33.577 26.765 10.018 38.52-23.56 11.756-66.239 13.569-95.322 4.05-29.084-9.519-33.578-26.764-10.022-38.52 23.556-11.756 66.238-13.569 95.326-4.05Z" fill="#FDFDFF"/><path style="mix-blend-mode:multiply" d="M110.979 179.967c37.434 0 67.78-12.299 67.78-27.47s-30.346-27.47-67.78-27.47-67.78 12.299-67.78 27.47 30.346 27.47 67.78 27.47Z" fill="url(#e)"/><path d="M178.758 125.392h-13.419a71.542 71.542 0 0 0-11.706-4.917c-29.088-9.519-71.767-7.706-95.326 4.05a43.12 43.12 0 0 0-1.636.867H43.338v14.743c-1.227 8.511 7.36 17.134 24.99 22.91 29.088 9.519 71.767 7.706 95.322-4.05 10.173-5.075 15.104-11.175 15.096-17.237l.012-16.366Z" fill="#E6E6E8"/><path d="M153.634 104.109c29.092 9.519 33.577 26.765 10.018 38.52-23.56 11.756-66.239 13.565-95.322 4.046-29.084-9.519-33.578-26.764-10.022-38.516 23.556-11.751 66.238-13.569 95.326-4.05Z" fill="#FDFDFF"/><path style="mix-blend-mode:multiply" opacity=".25" d="M110.979 139.637c19.409 0 35.143-6.378 35.143-14.245 0-7.868-15.734-14.246-35.143-14.246s-35.143 6.378-35.143 14.246c0 7.867 15.734 14.245 35.143 14.245Z" fill="url(#f)"/><path d="M108.881 24.082c0 5.048-1.156 8.862-3.468 11.44-2.311 2.578-5.423 3.866-9.334 3.863-3.95 0-7.085-1.288-9.405-3.863-2.32-2.576-3.475-6.389-3.467-11.44v-7.86c0-5.05 1.148-8.863 3.443-11.436C88.945 2.214 92.065.924 96.01.92c3.927 0 7.052 1.293 9.375 3.88 2.322 2.586 3.482 6.394 3.479 11.423l.017 7.86Zm-8.53-8.449c0-2.857-.37-4.911-1.112-6.162a3.57 3.57 0 0 0-1.345-1.399 3.5 3.5 0 0 0-1.869-.476 3.435 3.435 0 0 0-1.864.47 3.504 3.504 0 0 0-1.333 1.405c-.72 1.25-1.078 3.305-1.075 6.162v8.988c0 2.908.362 4.982 1.087 6.224.316.586.786 1.07 1.358 1.398a3.487 3.487 0 0 0 1.88.461c.65.023 1.291-.14 1.854-.468a3.512 3.512 0 0 0 1.332-1.39c.728-1.245 1.09-3.32 1.087-6.225v-8.988ZM113.984 22.414 116.11 1.46h21.605v6.677h-14.65l-.936 7.834a7.722 7.722 0 0 1 2.404-1.208 11.294 11.294 0 0 1 3.165-.514c3.609-.067 6.384.998 8.325 3.195 1.94 2.197 2.91 5.317 2.907 9.361a12.815 12.815 0 0 1-3.312 8.922c-2.211 2.44-5.374 3.66-9.49 3.66a14.613 14.613 0 0 1-9.134-2.955 8.942 8.942 0 0 1-2.865-3.412 9.091 9.091 0 0 1-.881-4.393l.053-.154 8.35-.514c0 1.488.408 2.653 1.226 3.494.429.422.939.75 1.498.964.559.214 1.156.31 1.753.28 1.554 0 2.655-.553 3.304-1.66a8.23 8.23 0 0 0 .973-4.199c0-2.052-.363-3.67-1.088-4.85-.725-1.181-1.873-1.772-3.443-1.772a4.706 4.706 0 0 0-2.768.743 3.848 3.848 0 0 0-1.455 1.875l-7.667-.419Z" fill="#001C63"/><g clip-path="url(#g)" fill="#001C63"><path d="M115.204 75.544a4.647 4.647 0 0 0 1.015-2.882A4.661 4.661 0 0 0 111.564 68a4.664 4.664 0 0 0-4.658 4.662c0 1.087.332 2.088.959 2.882-1.919 1.217-3.24 3.358-3.24 5.794v5.671c0 .864.789 1.613 1.652 1.613h10.587c.863 0 1.513-.75 1.513-1.613v-5.67a6.835 6.835 0 0 0-3.173-5.795ZM101.082 93.948v-5.671c0-2.436-1.198-4.578-3.118-5.794.627-.794 1.042-1.795 1.042-2.883 0-2.57-2.072-4.661-4.642-4.661a4.658 4.658 0 0 0-4.652 4.661c0 1.088.387 2.09 1.013 2.883a6.846 6.846 0 0 0-3.186 5.794v5.671c0 .863.688 1.55 1.551 1.55h10.587c.863 0 1.405-.687 1.405-1.55ZM132.346 82.483c.626-.794 1.043-1.795 1.043-2.883 0-2.57-2.071-4.661-4.642-4.661a4.658 4.658 0 0 0-4.651 4.66c0 1.089.384 2.09 1.011 2.884a6.847 6.847 0 0 0-3.189 5.794v5.67c0 .864.693 1.55 1.556 1.55h10.587c.863 0 1.4-.686 1.4-1.55v-5.67c0-2.436-1.196-4.578-3.115-5.794ZM115.204 109.976a4.647 4.647 0 0 0 1.015-2.883 4.661 4.661 0 0 0-4.655-4.661 4.664 4.664 0 0 0-4.658 4.661c0 1.088.332 2.089.959 2.883-1.919 1.217-3.24 3.358-3.24 5.794v5.671c0 .863.789 1.559 1.652 1.559h10.587c.863 0 1.513-.696 1.513-1.559v-5.671a6.836 6.836 0 0 0-3.173-5.794Zm-3.634-4.419c.847 0 1.536.689 1.536 1.536 0 .847-.689 1.536-1.536 1.536a1.538 1.538 0 0 1-1.536-1.536c0-.847.689-1.536 1.536-1.536Zm3.681 14.318h-7.501v-4.105c0-2.058 1.694-3.731 3.751-3.731s3.75 1.673 3.75 3.731v4.105ZM112.958 96.868V91.69a1.563 1.563 0 0 0-3.126 0v5.178a1.563 1.563 0 0 0 3.126 0ZM96.362 97.206a1.563 1.563 0 0 0-2.149 2.27l7.857 7.439c.302.286.688.428 1.074.428a1.563 1.563 0 0 0 1.075-2.697l-7.857-7.44ZM126.762 97.184l-7.835 7.457a1.562 1.562 0 0 0 2.154 2.264l7.836-7.457a1.562 1.562 0 0 0-2.155-2.263Z"/></g><defs><radialGradient id="a" cx="0" cy="0" r="1" gradientUnits="userSpaceOnUse" gradientTransform="matrix(107.502 0 0 42.5488 110.979 212.931)"><stop stop-color="#2A48D0"/><stop offset="1" stop-color="#fff"/></radialGradient><radialGradient id="b" cx="0" cy="0" r="1" gradientUnits="userSpaceOnUse" gradientTransform="matrix(53.75844 -21.51545 14.84431 37.08996 117.011 179.98)"><stop stop-color="#8EDBDC"/><stop offset=".44" stop-color="#90DCDD"/><stop offset=".6" stop-color="#97DEDF"/><stop offset=".71" stop-color="#A2E2E2"/><stop offset=".8" stop-color="#B3E7E8"/><stop offset=".88" stop-color="#C9EEEE"/><stop offset=".95" stop-color="#E4F6F7"/><stop offset="1" stop-color="#fff"/></radialGradient><radialGradient id="c" cx="0" cy="0" r="1" gradientUnits="userSpaceOnUse" gradientTransform="matrix(53.75844 -21.51545 14.84431 37.08996 117.011 179.98)"><stop stop-color="#80E3C8"/><stop offset=".43" stop-color="#82E3C9"/><stop offset=".58" stop-color="#89E5CC"/><stop offset=".69" stop-color="#94E8D1"/><stop offset=".78" stop-color="#A5EBD8"/><stop offset=".86" stop-color="#BBF0E2"/><stop offset=".93" stop-color="#D7F6ED"/><stop offset=".99" stop-color="#F6FDFB"/><stop offset="1" stop-color="#fff"/></radialGradient><radialGradient id="d" cx="0" cy="0" r="1" gradientUnits="userSpaceOnUse" gradientTransform="matrix(53.75844 -21.51545 14.84431 37.08996 117.011 179.98)"><stop stop-color="#2A48D0"/><stop offset=".39" stop-color="#2C4AD0"/><stop offset=".53" stop-color="#334FD2"/><stop offset=".62" stop-color="#3E5AD5"/><stop offset=".71" stop-color="#4F68D8"/><stop offset=".77" stop-color="#657BDD"/><stop offset=".83" stop-color="#8192E3"/><stop offset=".89" stop-color="#A1AEEA"/><stop offset=".94" stop-color="#C7CFF3"/><stop offset=".99" stop-color="#F0F2FC"/><stop offset="1" stop-color="#fff"/></radialGradient><radialGradient id="e" cx="0" cy="0" r="1" gradientUnits="userSpaceOnUse" gradientTransform="matrix(67.5713 0 0 25.3728 110.979 155.747)"><stop stop-color="#2A48D0"/><stop offset="1" stop-color="#fff"/></radialGradient><radialGradient id="f" cx="0" cy="0" r="1" gradientUnits="userSpaceOnUse" gradientTransform="matrix(35.0369 0 0 13.1562 110.979 128.605)"><stop stop-color="#2A48D0"/><stop offset="1" stop-color="#fff"/></radialGradient><clipPath id="g"><path fill="#fff" transform="translate(84 68)" d="M0 0h55v55H0z"/></clipPath></defs></svg>