<svg width="41" height="41" viewBox="0 0 41 41" fill="none" xmlns="http://www.w3.org/2000/svg">
<circle cx="20.4756" cy="20.7852" r="20" fill="#242938"/>
<path d="M20.4747 22.9218C21.666 22.9218 22.6316 21.9561 22.6316 20.7649C22.6316 19.5737 21.666 18.6079 20.4747 18.6079C19.2835 18.6079 18.3177 19.5737 18.3177 20.7649C18.3177 21.9561 19.2835 22.9218 20.4747 22.9218Z" fill="#00D8FF"/>
<path d="M20.478 16.3793C23.374 16.3793 26.0643 16.7949 28.0928 17.4933C30.5368 18.3346 32.0394 19.61 32.0394 20.7649C32.0394 21.9683 30.4469 23.3233 27.8223 24.1928C25.8381 24.8502 23.227 25.1933 20.478 25.1933C17.6596 25.1933 14.9906 24.8712 12.9839 24.1855C10.4452 23.3178 8.9162 21.9455 8.9162 20.7649C8.9162 19.6194 10.351 18.3538 12.7607 17.5138C14.7967 16.8039 17.5533 16.3793 20.4776 16.3793H20.478Z" stroke="#00D8FF" stroke-opacity="0.98"/>
<path d="M16.6587 18.5847C16.6589 18.5847 16.659 18.5846 16.6591 18.5845C18.1059 16.076 19.8097 13.9531 21.428 12.5449C23.3778 10.848 25.2334 10.1835 26.2337 10.7603C27.2762 11.3615 27.6544 13.4181 27.0966 16.126C26.6751 18.1732 25.6677 20.6065 24.2943 22.988C22.8862 25.4295 21.2739 27.5807 19.6776 28.976C17.6577 30.7416 15.7048 31.3807 14.6822 30.7909C13.6898 30.2191 13.3104 28.3436 13.7865 25.8365C14.1887 23.7181 15.1981 21.1181 16.6584 18.5849C16.6585 18.5848 16.6586 18.5847 16.6587 18.5847V18.5847Z" stroke="#00D8FF" stroke-opacity="0.98"/>
<path d="M16.6604 22.9943C15.2096 20.4884 14.2218 17.9516 13.8095 15.8462C13.3131 13.3095 13.664 11.37 14.6635 10.7915C15.7051 10.1884 17.6756 10.8879 19.743 12.7237C21.3061 14.1115 22.9112 16.1992 24.2886 18.5783C25.7007 21.0176 26.7591 23.4889 27.1708 25.5686C27.6917 28.2005 27.2701 30.2114 26.2484 30.8028C25.2571 31.3767 23.443 30.7691 21.5086 29.1045C19.8742 27.6982 18.1257 25.5251 16.6604 22.9943Z" stroke="#00D8FF" stroke-opacity="0.98"/>
</svg>
