<svg width="41" height="41" viewBox="0 0 41 41" fill="none" xmlns="http://www.w3.org/2000/svg">
<circle cx="20.2041" cy="20.8812" r="20" fill="#242938"/>
<path d="M14.5775 12.9938H25.8452V14.1206C25.8452 14.7403 26.3523 15.2474 26.972 15.2474C27.5917 15.2474 28.0987 14.7403 28.0987 14.1206V10.7403C28.0987 9.50085 27.0847 8.49802 25.8452 8.49802L14.5775 8.48676C13.3381 8.48676 12.324 9.50085 12.324 10.7403V14.1206C12.324 14.7403 12.831 15.2474 13.4507 15.2474C14.0705 15.2474 14.5775 14.7403 14.5775 14.1206V12.9938ZM24.8537 25.2531L28.4255 21.6812C28.53 21.577 28.6128 21.4532 28.6694 21.3168C28.7259 21.1805 28.755 21.0344 28.755 20.8868C28.755 20.7393 28.7259 20.5932 28.6694 20.4568C28.6128 20.3205 28.53 20.1967 28.4255 20.0925L24.8537 16.5206C24.4142 16.0812 23.6931 16.0812 23.2536 16.5206C23.1492 16.6249 23.0663 16.7487 23.0098 16.885C22.9532 17.0213 22.9241 17.1674 22.9241 17.315C22.9241 17.4626 22.9532 17.6087 23.0098 17.745C23.0663 17.8813 23.1492 18.0051 23.2536 18.1094L26.0368 20.8812L23.2536 23.6643C23.1492 23.7686 23.0663 23.8924 23.0098 24.0287C22.9532 24.165 22.9241 24.3111 22.9241 24.4587C22.9241 24.6063 22.9532 24.7524 23.0098 24.8887C23.0663 25.025 23.1492 25.1488 23.2536 25.2531C23.6931 25.6925 24.4142 25.6925 24.8537 25.2531ZM17.1578 23.6531L14.386 20.8812L17.1578 18.1094C17.2623 18.0051 17.3451 17.8813 17.4017 17.745C17.4582 17.6087 17.4873 17.4626 17.4873 17.315C17.4873 17.1674 17.4582 17.0213 17.4017 16.885C17.3451 16.7487 17.2623 16.6249 17.1578 16.5206C16.7184 16.0812 15.9972 16.0812 15.5578 16.5206L11.9859 20.0925C11.8815 20.1967 11.7986 20.3205 11.7421 20.4568C11.6855 20.5932 11.6564 20.7393 11.6564 20.8868C11.6564 21.0344 11.6855 21.1805 11.7421 21.3168C11.7986 21.4532 11.8815 21.577 11.9859 21.6812L15.5578 25.2531C15.9972 25.6925 16.7184 25.6925 17.1578 25.2531C17.6085 24.8136 17.5973 24.0925 17.1578 23.6531ZM25.8452 28.7686H14.5775V27.6418C14.5775 27.0221 14.0705 26.5151 13.4507 26.5151C12.831 26.5151 12.324 27.0221 12.324 27.6418V31.0221C12.324 32.2616 13.3381 33.2757 14.5775 33.2757H25.8452C27.0847 33.2757 28.0987 32.2616 28.0987 31.0221V27.6418C28.0987 27.0221 27.5917 26.5151 26.972 26.5151C26.3523 26.5151 25.8452 27.0221 25.8452 27.6418V28.7686Z" fill="#F5F5F5"/>
</svg>
