<svg width="41" height="41" viewBox="0 0 41 41" fill="none" xmlns="http://www.w3.org/2000/svg">
<circle cx="20.2041" cy="20.0848" r="20" fill="#242938"/>
<path d="M22.4394 6.43272L29.7343 6.42331L17.4955 20.62L14.3058 24.3011L10.6768 20.0842L22.4394 6.43272ZM22.3715 19.1086C22.4662 18.9635 22.6404 19.0351 22.7727 19.0164L29.728 19.0184L23.3889 26.3683L19.741 22.1605L22.3715 19.1086Z" fill="#44D1FD"/>
<path d="M16.1033 26.3754L19.7396 22.1606L23.3875 26.3683L23.4027 26.387L19.7405 30.5977L16.1033 26.3754Z" fill="#1FBCFD"/>
<path d="M19.7424 30.5977L23.4045 26.387L29.7311 33.7367C27.348 33.7429 24.9658 33.7346 22.5837 33.7408C22.4479 33.776 22.364 33.632 22.2772 33.5428L19.7424 30.5977Z" fill="#08589C"/>
</svg>
