<svg width="41" height="41" viewBox="0 0 41 41" fill="none" xmlns="http://www.w3.org/2000/svg">
<circle cx="20.4209" cy="20.6962" r="20" fill="#242938"/>
<path d="M8.46698 20.6957C8.46698 25.4253 11.2156 29.5127 15.2013 31.4496L9.50149 15.8329C8.81824 17.363 8.46572 19.02 8.46698 20.6957ZM28.4822 20.0927C28.4822 18.6161 27.9518 17.5934 27.4969 16.7974C26.8911 15.8132 26.3233 14.9797 26.3233 13.9954C26.3233 12.897 27.1564 11.8746 28.3298 11.8746C28.3829 11.8746 28.433 11.8811 28.4847 11.8841C26.3589 9.9365 23.5267 8.74738 20.4157 8.74738C16.2415 8.74738 12.5688 10.8891 10.4324 14.1332C10.7126 14.1415 10.9769 14.1475 11.2013 14.1475C12.4511 14.1475 14.3857 13.9957 14.3857 13.9957C15.0298 13.9578 15.1058 14.9039 14.4623 14.9801C14.4623 14.9801 13.815 15.0563 13.0948 15.094L17.4459 28.0366L20.0608 20.1941L18.1992 15.0936C17.5558 15.0558 16.9463 14.9797 16.9463 14.9797C16.3024 14.9419 16.3778 13.9574 17.0218 13.9954C17.0218 13.9954 18.995 14.147 20.1691 14.147C21.4188 14.147 23.3535 13.9954 23.3535 13.9954C23.9982 13.9574 24.0738 14.9035 23.4301 14.9797C23.4301 14.9797 22.7815 15.0558 22.0626 15.0936L26.3807 27.9381L27.5725 23.9555C28.0891 22.3027 28.4822 21.1157 28.4822 20.0927Z" fill="white"/>
<path d="M20.6274 21.741L17.0424 32.1585C18.1384 32.4814 19.2752 32.6453 20.4178 32.6453C21.7692 32.6458 23.1109 32.4168 24.3856 31.968C24.3525 31.9157 24.324 31.8606 24.3006 31.8033L20.6274 21.741ZM30.9023 14.9631C30.9567 15.3704 30.9836 15.7808 30.9828 16.1917C30.9828 17.4042 30.7563 18.7673 30.0742 20.4716L26.4244 31.0241C29.9767 28.9526 32.3661 25.1042 32.3661 20.696C32.3663 18.6185 31.8357 16.665 30.9023 14.9631Z" fill="white"/>
<path d="M20.4172 6.76762C12.737 6.76762 6.48846 13.0158 6.48846 20.6958C6.48846 28.3769 12.737 34.6248 20.4172 34.6248C28.097 34.6248 34.3466 28.3769 34.3466 20.6958C34.3463 13.0158 28.097 6.76762 20.4172 6.76762ZM20.4172 33.9864C13.0892 33.9864 7.12711 28.0242 7.12711 20.6958C7.12711 13.3679 13.089 7.40627 20.4172 7.40627C27.7449 7.40627 33.7065 13.3679 33.7065 20.6958C33.7065 28.0242 27.7449 33.9864 20.4172 33.9864Z" fill="white"/>
</svg>
