<svg width="51" height="51" viewBox="0 0 51 51" fill="none" xmlns="http://www.w3.org/2000/svg">
<path d="M42.6036 14.5787C42.5203 15.2107 42.4496 15.7537 42.3769 16.2963C41.5066 22.7945 40.6359 29.2923 39.7656 35.7906C39.7566 35.8584 39.7381 35.9265 39.7393 35.9939C39.7459 36.3422 39.5504 36.5213 39.2555 36.6744C34.8478 38.9687 30.4433 41.2678 26.0455 43.5801C25.7132 43.7547 25.4602 43.7407 25.1345 43.5727C20.6459 41.2571 16.1523 38.9518 11.6546 36.6539C11.3659 36.5065 11.2324 36.327 11.1958 36.0013C10.7194 31.7435 10.2294 27.4877 9.74315 23.2311C9.43265 20.5114 9.12215 17.7916 8.81207 15.0719C8.79646 14.936 8.78866 14.7988 8.76977 14.6637C8.74471 14.4842 8.82193 14.377 8.98785 14.3207C9.07862 14.2899 9.16651 14.2521 9.25646 14.2185C14.5809 12.238 19.9053 10.2596 25.2273 8.27303C25.5029 8.17035 25.7424 8.17364 26.0163 8.27467C31.383 10.2576 36.7527 12.2327 42.1219 14.209C42.1991 14.2374 42.2747 14.2698 42.3527 14.2953C42.5355 14.3548 42.625 14.4706 42.6036 14.5787ZM13.2625 36.0276C13.4568 36.0276 13.6182 36.0276 13.7796 36.0276C14.9296 36.0276 16.0796 36.0276 17.2296 36.0276C17.2982 36.0276 17.3672 36.0214 17.4349 36.028C17.6633 36.051 17.7914 35.943 17.8625 35.7327C17.9282 35.5384 18.0124 35.3503 18.0875 35.1593C18.7426 33.4898 19.3965 31.8203 20.0524 30.1511C20.2105 29.7482 20.213 29.7491 20.6475 29.7454C22.4127 29.7289 24.1775 29.7072 25.9428 29.6981C27.4895 29.6899 29.0371 29.7084 30.5834 29.6874C30.9559 29.6825 31.1432 29.8074 31.2993 30.1413C32.1453 31.9521 33.0201 33.749 33.8711 35.5573C34.005 35.8415 34.1619 35.968 34.4913 35.9615C35.5587 35.9405 36.6266 35.9545 37.6944 35.9524C37.8135 35.952 37.9326 35.936 38.0431 35.9274C38.055 35.8686 38.071 35.8391 38.0641 35.8165C38.0357 35.7257 38.007 35.6341 37.9667 35.5479C33.8362 26.6314 29.7045 17.7144 25.5715 8.79792C25.567 8.78847 25.5481 8.78313 25.5349 8.78108C25.523 8.77903 25.5103 8.78436 25.4976 8.78683C25.2281 9.16591 13.3139 35.6345 13.2625 36.0276Z" fill="#DD2627"/>
<path d="M13.2632 36.0276C13.3145 35.6346 25.2288 9.16594 25.4986 8.78685C25.511 8.7848 25.5241 8.77946 25.536 8.7811C25.5492 8.78316 25.5681 8.78849 25.5726 8.79794C29.7051 17.7145 33.8373 26.631 37.9678 35.5483C38.0076 35.6346 38.0368 35.7261 38.0651 35.8169C38.0721 35.8395 38.0561 35.8691 38.0442 35.9278C37.9337 35.936 37.8146 35.9524 37.6955 35.9529C36.6277 35.9549 35.5594 35.9409 34.4924 35.9619C34.163 35.9685 34.0061 35.842 33.8722 35.5578C33.0212 33.7494 32.1464 31.9521 31.3003 30.1417C31.1443 29.8078 30.957 29.6825 30.5845 29.6879C29.0377 29.7088 27.4906 29.6903 25.9439 29.6986C24.1786 29.7076 22.4138 29.7298 20.6486 29.7458C20.214 29.7499 20.2116 29.7491 20.0535 30.1516C19.3975 31.8207 18.7437 33.4902 18.0886 35.1598C18.0135 35.3508 17.9297 35.5389 17.8635 35.7331C17.7921 35.9434 17.6639 36.0514 17.436 36.0284C17.3682 36.0214 17.2992 36.028 17.2306 36.028C16.0807 36.028 14.9307 36.028 13.7807 36.028C13.6189 36.0276 13.4574 36.0276 13.2632 36.0276ZM21.7981 26.058C21.9895 26.0728 22.1078 26.0884 22.2261 26.0905C23.4566 26.1118 24.6871 26.1377 25.9176 26.1492C26.9986 26.1591 28.08 26.1533 29.1614 26.1496C29.2879 26.1492 29.4144 26.12 29.5445 26.1036C29.5335 26.0079 29.5392 25.9627 29.5224 25.9287C28.2533 23.3198 26.9825 20.7114 25.7106 18.1038C25.6691 18.0184 25.6132 17.9399 25.5623 17.8594C25.5557 17.8492 25.5397 17.8434 25.527 17.8397C25.5147 17.836 25.5011 17.8373 25.4255 17.8327C24.2254 20.5422 23.0196 23.273 21.7981 26.058Z" fill="white"/>
<path d="M21.7974 26.058C23.0188 23.2726 24.2247 20.5418 25.4252 17.8323C25.5007 17.8373 25.5143 17.8356 25.5266 17.8393C25.5393 17.843 25.5554 17.8488 25.5619 17.859C25.6129 17.9395 25.6687 18.018 25.7102 18.1034C26.9822 20.711 28.2529 23.3194 29.522 25.9283C29.5388 25.9623 29.5331 26.0079 29.5442 26.1032C29.414 26.1196 29.2875 26.1488 29.161 26.1492C28.0796 26.1525 26.9982 26.1587 25.9172 26.1488C24.6867 26.1377 23.4562 26.1118 22.2257 26.0901C22.107 26.0884 21.9888 26.0732 21.7974 26.058Z" fill="#DD2627"/>
</svg>
