<svg width="222" height="251" fill="none" xmlns="http://www.w3.org/2000/svg"><path style="mix-blend-mode:multiply" d="M180.142 176.632c47.405 14.406 54.691 40.511 16.33 58.295-38.361 17.785-107.887 20.538-155.272 6.132-47.384-14.407-54.687-40.516-16.318-58.308 38.37-17.792 107.875-20.529 155.26-6.119Z" fill="url(#a)"/><path d="M110.608 210.472c-22.786 0-44.285-2.876-62.15-8.313-25.129-7.643-39.554-19.443-40.617-33.232-.524-6.79 2.097-19.801 25.514-30.659 19.172-8.892 47.38-13.99 77.388-13.99 22.787 0 44.286 2.873 62.17 8.31 25.13 7.642 39.555 19.446 40.618 33.235.524 6.787-2.097 19.797-25.514 30.656-19.192 8.892-47.401 13.993-77.409 13.993Z" fill="#029894" style="mix-blend-mode:multiply" opacity=".2"/><path d="M170.484 139.637c40.794 12.405 47.086 34.878 14.049 50.198-33.038 15.32-92.89 17.684-133.703 5.279-40.815-12.405-47.087-34.882-14.05-50.202 33.038-15.32 92.906-17.68 133.704-5.275Z" fill="#029894" style="mix-blend-mode:multiply"/><g style="mix-blend-mode:multiply"><path d="M158.307 145.282c32.493 9.879 37.502 27.763 11.191 39.983-26.312 12.22-73.983 14.082-106.476 4.199-32.494-9.883-37.503-27.763-11.191-39.979 26.31-12.216 73.982-14.083 106.476-4.203Z" fill="url(#b)"/><path d="M158.307 145.282c32.493 9.879 37.502 27.763 11.191 39.983-26.312 12.22-73.983 14.082-106.476 4.199-32.494-9.883-37.503-27.763-11.191-39.979 26.31-12.216 73.982-14.083 106.476-4.203Z" fill="url(#c)"/><path d="M158.307 145.282c32.493 9.879 37.502 27.763 11.191 39.983-26.312 12.22-73.983 14.082-106.476 4.199-32.494-9.883-37.503-27.763-11.191-39.979 26.31-12.216 73.982-14.083 106.476-4.203Z" fill="url(#d)"/></g><path d="M110.608 225.141c-22.786 0-44.285-2.873-62.15-8.314-25.129-7.639-39.554-19.442-40.617-33.231-.524-6.791 2.097-19.801 25.514-30.66 19.172-8.892 47.38-13.989 77.388-13.989 22.787 0 44.286 2.872 62.17 8.313 25.13 7.639 39.555 19.442 40.618 33.232.524 6.786-2.097 19.8-25.514 30.659-19.192 8.888-47.401 13.99-77.409 13.99Z" fill="#029894" style="mix-blend-mode:multiply" opacity=".2"/><path d="M178.444 141.923h-13.423a73.801 73.801 0 0 0-11.703-4.554c-29.091-8.845-71.77-7.16-95.326 3.76-.572.266-1.112.536-1.635.81H43.023v13.696c-1.226 7.913 7.36 15.922 24.987 21.29 29.092 8.845 71.77 7.16 95.326-3.76 10.173-4.72 15.104-10.388 15.096-16.018l.012-15.224Z" fill="#E6EFEC"/><path d="M153.319 122.146c29.087 8.845 33.573 24.871 10.017 35.791-23.555 10.921-66.238 12.61-95.326 3.764-29.088-8.846-33.573-24.872-10.017-35.796 23.555-10.924 66.234-12.605 95.326-3.759Z" fill="#F8FFFD"/><path style="mix-blend-mode:multiply" d="M110.592 167.477c37.474 0 67.853-11.441 67.853-25.554 0-14.113-30.379-25.554-67.853-25.554-37.475 0-67.854 11.441-67.854 25.554 0 14.113 30.38 25.554 67.854 25.554Z" fill="url(#e)"/><path d="M178.444 116.736h-13.423a73.733 73.733 0 0 0-11.703-4.57c-29.091-8.845-71.77-7.164-95.326 3.76-.572.266-1.112.536-1.635.81H43.023v13.693c-1.226 7.912 7.36 15.921 24.987 21.289 29.092 8.846 71.77 7.161 95.326-3.764 10.173-4.716 15.104-10.384 15.096-16.014l.012-15.204Z" fill="#E6EFEC"/><path d="M153.319 96.954c29.087 8.846 33.573 24.872 10.017 35.796-23.555 10.924-66.238 12.609-95.326 3.763-29.088-8.845-33.573-24.871-10.017-35.795 23.555-10.925 66.234-12.606 95.326-3.764Z" fill="#F8FFFD"/><path style="mix-blend-mode:multiply" opacity=".25" d="M110.59 129.973c19.409 0 35.144-5.926 35.144-13.238 0-7.311-15.735-13.237-35.144-13.237s-35.143 5.926-35.143 13.237c0 7.312 15.734 13.238 35.143 13.238Z" fill="url(#f)"/><path d="M108.49 22.514c0 4.691-1.156 8.235-3.467 10.63-2.312 2.397-5.423 3.59-9.335 3.583-3.95 0-7.085-1.196-9.404-3.59-2.32-2.393-3.476-5.937-3.468-10.631V15.21c0-4.694 1.148-8.237 3.443-10.63C88.554 2.185 91.674.99 95.62.99c3.93 0 7.055 1.201 9.375 3.605 2.32 2.403 3.48 5.942 3.48 10.615l.016 7.304Zm-8.513-7.851c0-2.656-.37-4.564-1.112-5.726a3.44 3.44 0 0 0-1.346-1.3 3.711 3.711 0 0 0-1.868-.443c-.653-.022-1.3.13-1.866.438a3.386 3.386 0 0 0-1.335 1.305c-.715 1.162-1.073 3.07-1.076 5.726v8.352c0 2.702.364 4.63 1.092 5.784.315.545.785.996 1.357 1.302a3.696 3.696 0 0 0 1.881.43c.65.02 1.292-.131 1.855-.437a3.378 3.378 0 0 0 1.33-1.295c.728-1.154 1.09-3.082 1.088-5.784v-8.352ZM131.052 36.233h-8.521V9.58h-8.222V3.9l16.764-2.433-.021 34.766Z" fill="#029894"/><path fill-rule="evenodd" clip-rule="evenodd" d="M108.117 98.472c2.069 5.665 10.725 5.869 12.669 0 2.29 1.917 9.07 2.296 11.591 3.607.797.414 1.518.939 2.095 1.65.389.478.909 1.358 1.298 2.343H93.126c.395-.985.91-1.865 1.299-2.343.577-.711 1.298-1.236 2.095-1.65 2.527-1.305 9.307-1.69 11.597-3.607Zm-1.437-43.51h15.549c.671 0 1.217.507 1.217 1.13V66.24c0 .624-.546 1.13-1.217 1.13H106.68c-.671 0-1.216-.506-1.216-1.13V56.093c0-.624.545-1.131 1.216-1.131Zm16.044 3.165h-16.489v8.224a.3.3 0 0 0 .1.221.347.347 0 0 0 .239.093h15.812a.344.344 0 0 0 .238-.093.297.297 0 0 0 .1-.221v-8.224Zm-1.655-1.895c.332 0 .602.251.602.56 0 .309-.27.56-.602.56-.333 0-.603-.251-.603-.56 0-.309.27-.56.603-.56Zm-4.077 0c.332 0 .602.251.602.56 0 .309-.27.56-.602.56-.333 0-.602-.251-.602-.56 0-.309.269-.56.602-.56Zm2.038 0c.333 0 .602.251.602.56 0 .309-.269.56-.602.56-.332 0-.602-.251-.602-.56 0-.309.27-.56.602-.56Zm-6.799 5.363-1.982.693 1.982.7v1.62l-3.079-1.62v-1.393l3.079-1.62v1.62Zm7.527 0v1.393l-3.08 1.62v-1.62l1.982-.7-1.982-.693v-1.626l3.08 1.626Zm-5.338 3.468h-1.311l1.618-5.864h1.311l-1.618 5.864Zm35.776 22.329c.025 0 .05 0 .075.005.157-.256.301-.53.439-.816.007-.005.007-.011.013-.011.194-.437.351-.886.445-1.352.076-.362.132-.735.145-1.114h-2.359c-.044 1.114-.401 2.21-1.066 3.288h2.308Zm-.408.7h-2.37c-.722.972-1.694 1.928-2.904 2.873.188-.024.382-.053.564-.088a7.577 7.577 0 0 0 1.474-.425 8.3 8.3 0 0 0 1.342-.677 7.42 7.42 0 0 0 1.154-.88c.264-.25.521-.518.74-.804Zm-7.3 2.873c-1.217-.945-2.189-1.9-2.904-2.874h-2.371c.226.286.477.554.753.81.357.333.733.624 1.154.88a8.53 8.53 0 0 0 1.342.676c.006.006.012.006.012.012.471.18.954.327 1.456.414.181.03.37.052.558.082Zm-5.771-3.573h2.39c-.665-1.079-1.022-2.18-1.066-3.288h-2.358c.018.385.069.752.144 1.114.1.472.251.926.458 1.37.125.28.269.547.432.804Zm-1.034-3.987h2.37c.088-1.09.477-2.186 1.173-3.287h-2.509a7.856 7.856 0 0 0-.432.81c-.007.006-.007.011-.013.011a6.507 6.507 0 0 0-.445 1.353 5.814 5.814 0 0 0-.144 1.113Zm1.524-3.987h2.502c.715-.956 1.656-1.917 2.829-2.885a6.755 6.755 0 0 0-.615.093 7.584 7.584 0 0 0-1.474.426 8.341 8.341 0 0 0-1.342.676 7.475 7.475 0 0 0-1.154.88 6.66 6.66 0 0 0-.746.81Zm7.244-2.885c1.179.968 2.12 1.93 2.829 2.885h2.502a7.321 7.321 0 0 0-.752-.81 7.162 7.162 0 0 0-1.155-.88 8.496 8.496 0 0 0-1.342-.676c-.006-.006-.012-.006-.012-.012a7.821 7.821 0 0 0-1.455-.414 19.443 19.443 0 0 0-.615-.093Zm5.827 3.585h-2.509c.696 1.101 1.085 2.197 1.173 3.287h2.371a7.068 7.068 0 0 0-.145-1.113 6.301 6.301 0 0 0-.458-1.37 8.413 8.413 0 0 0-.432-.804Zm-8.505-4.18a9.286 9.286 0 0 1 1.725-.157c.589 0 1.16.053 1.724.158.552.099 1.079.25 1.6.46.006 0 .012.006.019.012a9.613 9.613 0 0 1 1.461.734c.458.28.878.606 1.267.968a7.949 7.949 0 0 1 1.831 2.535 7.333 7.333 0 0 1 .671 3.107c0 .548-.056 1.078-.169 1.603a6.723 6.723 0 0 1-.495 1.486c0 .006-.007.011-.013.017a8.234 8.234 0 0 1-.79 1.358 7.616 7.616 0 0 1-1.041 1.178 8.32 8.32 0 0 1-1.267.967c-.458.286-.947.53-1.462.735a8.802 8.802 0 0 1-1.618.466 9.286 9.286 0 0 1-1.725.157c-.589 0-1.16-.052-1.725-.157a8.05 8.05 0 0 1-1.599-.46c-.006 0-.012-.006-.019-.012a9.613 9.613 0 0 1-1.461-.735 7.958 7.958 0 0 1-1.267-.967 8.055 8.055 0 0 1-1.832-2.535 7.39 7.39 0 0 1-.671-3.107c0-.548.057-1.078.17-1.603a6.671 6.671 0 0 1 .495-1.486c0-.006.006-.012.013-.018.219-.483.489-.932.79-1.358a7.611 7.611 0 0 1 1.041-1.177 8.315 8.315 0 0 1 1.267-.968c.458-.285.947-.53 1.462-.734a9.427 9.427 0 0 1 1.618-.466Zm2.101 1.05v2.43h2.49c-.659-.804-1.487-1.614-2.49-2.43Zm0 3.13v3.287h4.315c-.1-1.078-.533-2.174-1.305-3.287h-3.01Zm0 3.986v3.288h3.142c.747-1.09 1.142-2.186 1.186-3.288h-4.328Zm0 3.987v2.46c1.066-.81 1.938-1.632 2.615-2.46h-2.615Zm-.753 2.454v-2.46h-2.615c.671.828 1.543 1.65 2.615 2.46Zm0-3.153v-3.288h-4.334c.044 1.102.446 2.198 1.186 3.288h3.148Zm0-3.987v-3.287h-3.017c-.771 1.113-1.204 2.209-1.298 3.287h4.315Zm0-3.987v-2.43c-1.01.816-1.838 1.626-2.49 2.43h2.49Zm-62.206 4.337-2.779-3.748c.49-.548.916-1.13 1.286-1.743.382-.635.702-1.3.978-1.993l4.892.437-4.377 7.047Zm.915.513 4.397-7.082 7.583 4.068-.602.968-6.034-3.235c-.326-.175-.753-.07-.94.233a.62.62 0 0 0 .25.874l6.034 3.235-.564.904-6.034-3.235c-.326-.175-.753-.07-.941.233a.62.62 0 0 0 .25.874l6.034 3.235-.564.903-6.034-3.234c-.326-.175-.752-.07-.94.233a.62.62 0 0 0 .25.874l6.034 3.235-.602.967-7.577-4.05Zm-4.647-5.537L75 75.787l3.744.338c-.213.49-.451.962-.72 1.41-.246.42-.528.817-.841 1.196Zm8.712 25.284c.32.664 0 1.445-.722 1.742-.715.297-1.555 0-1.875-.67a29.51 29.51 0 0 1-1.926-5.152 29.53 29.53 0 0 1-.928-5.398c-.056-.728.533-1.364 1.324-1.416.784-.052 1.467.496 1.524 1.23.131 1.69.42 3.34.846 4.937a26.956 26.956 0 0 0 1.757 4.727Zm5.983-31.568a1.503 1.503 0 0 1-2.007-.105c-.52-.542-.47-1.375.113-1.865a38.373 38.373 0 0 1 4.49-3.205c1.443-.875 2.93-1.627 4.347-2.14.734-.262 1.556.076 1.838.758.282.682-.081 1.446-.815 1.708-1.223.437-2.534 1.108-3.826 1.889a35.509 35.509 0 0 0-4.14 2.96Zm36.874-5.6c-.678-.368-.903-1.178-.508-1.808.395-.63 1.267-.839 1.944-.472a33.467 33.467 0 0 1 4.516 2.944 32.774 32.774 0 0 1 3.951 3.59 1.256 1.256 0 0 1-.144 1.865c-.596.478-1.493.42-2.007-.134a30.636 30.636 0 0 0-3.613-3.293 32.116 32.116 0 0 0-4.139-2.693Zm15.78 29.247c.101-.723.816-1.236 1.594-1.137.777.1 1.329.758 1.223 1.48a29.075 29.075 0 0 1-.96 4.343 29.857 29.857 0 0 1-1.612 4.167c-.32.67-1.16.973-1.875.676-.722-.297-1.048-1.078-.728-1.743a26.939 26.939 0 0 0 1.48-3.811c.389-1.3.69-2.629.878-3.975Zm-38.002-9.361c-.433.017-.765.1-.985.239a.794.794 0 0 0-.282.303.99.99 0 0 0-.094.49c.019.553.332 1.276.934 2.11l.007.011 1.956 2.897c.784 1.16 1.612 2.343 2.635 3.212.984.833 2.176 1.404 3.757 1.404 1.712.006 2.96-.583 3.976-1.469 1.054-.92 1.888-2.18 2.71-3.433l2.208-3.38c.414-.874.558-1.457.464-1.801-.057-.204-.301-.303-.709-.32a2.096 2.096 0 0 0-.27 0c-.1 0-.2.011-.307.017a.55.55 0 0 1-.169-.012 3.01 3.01 0 0 1-.603-.029l.759-2.821c-5.607.822-9.803-3.048-15.73-.775l.426 3.374c-.25.024-.476.012-.683-.017Zm17.33-.653c.545.152.89.472 1.035.991.156.571-.013 1.381-.54 2.489-.012.017-.019.04-.031.058l-2.233 3.416c-.859 1.317-1.737 2.634-2.898 3.654-1.21 1.05-2.697 1.749-4.729 1.743-1.9-.006-3.33-.682-4.503-1.679-1.136-.962-2.001-2.209-2.823-3.421l-1.957-2.897c-.715-.99-1.091-1.9-1.11-2.646a1.824 1.824 0 0 1 .866-1.679c.144-.087.301-.163.476-.227a38.804 38.804 0 0 1-.094-4.913c.044-.39.126-.787.245-1.178.502-1.66 1.756-2.424 3.312-3.34a10.816 10.816 0 0 1 2.778-1.148c.621-.163-.527-2.01.113-2.075 3.111-.297 8.141 2.344 10.318 4.523 1.085 1.096 1.768 1.965 1.919 3.882l-.144 4.447Z" fill="#029894"/><defs><radialGradient id="a" cx="0" cy="0" r="1" gradientUnits="userSpaceOnUse" gradientTransform="matrix(107.502 0 0 39.5395 110.665 197.426)"><stop stop-color="#80E3C8"/><stop offset="1" stop-color="#fff"/></radialGradient><radialGradient id="b" cx="0" cy="0" r="1" gradientUnits="userSpaceOnUse" gradientTransform="matrix(53.75846 -19.99377 13.06491 35.12842 112.742 167.46)"><stop stop-color="#80E3C8"/><stop offset=".43" stop-color="#82E3C9"/><stop offset=".58" stop-color="#89E5CC"/><stop offset=".69" stop-color="#94E8D1"/><stop offset=".78" stop-color="#A5EBD8"/><stop offset=".86" stop-color="#BBF0E2"/><stop offset=".93" stop-color="#D7F6ED"/><stop offset=".99" stop-color="#F6FDFB"/><stop offset="1" stop-color="#fff"/></radialGradient><radialGradient id="c" cx="0" cy="0" r="1" gradientUnits="userSpaceOnUse" gradientTransform="matrix(53.75846 -19.99377 13.06491 35.12842 112.742 167.46)"><stop stop-color="#80E3C8"/><stop offset=".43" stop-color="#82E3C9"/><stop offset=".58" stop-color="#89E5CC"/><stop offset=".69" stop-color="#94E8D1"/><stop offset=".78" stop-color="#A5EBD8"/><stop offset=".86" stop-color="#BBF0E2"/><stop offset=".93" stop-color="#D7F6ED"/><stop offset=".99" stop-color="#F6FDFB"/><stop offset="1" stop-color="#fff"/></radialGradient><radialGradient id="d" cx="0" cy="0" r="1" gradientUnits="userSpaceOnUse" gradientTransform="matrix(53.75846 -19.99377 13.06491 35.12842 112.742 167.46)"><stop stop-color="#80E3C8"/><stop offset=".43" stop-color="#82E3C9"/><stop offset=".58" stop-color="#89E5CC"/><stop offset=".69" stop-color="#94E8D1"/><stop offset=".78" stop-color="#A5EBD8"/><stop offset=".86" stop-color="#BBF0E2"/><stop offset=".93" stop-color="#D7F6ED"/><stop offset=".99" stop-color="#F6FDFB"/><stop offset="1" stop-color="#fff"/></radialGradient><radialGradient id="e" cx="0" cy="0" r="1" gradientUnits="userSpaceOnUse" gradientTransform="matrix(67.6449 0 0 23.604 110.592 144.942)"><stop stop-color="#80E3C8"/><stop offset="1" stop-color="#fff"/></radialGradient><radialGradient id="f" cx="0" cy="0" r="1" gradientUnits="userSpaceOnUse" gradientTransform="matrix(35.0368 0 0 12.2257 110.59 119.72)"><stop stop-color="#80E3C8"/><stop offset="1" stop-color="#fff"/></radialGradient></defs></svg>