<svg width="221" height="251" fill="none" xmlns="http://www.w3.org/2000/svg"><path style="mix-blend-mode:multiply" d="M179.956 176.631c47.385 14.406 54.691 40.512 16.318 58.304-38.373 17.792-107.887 20.537-155.268 6.131-47.38-14.406-54.691-40.516-16.322-58.308 38.37-17.791 107.891-20.537 155.272-6.127Z" fill="url(#a)"/><path d="M110.427 210.472c-22.79 0-44.286-2.877-62.17-8.314-25.134-7.642-39.559-19.442-40.622-33.231-.52-6.791 2.098-19.801 25.514-30.659 19.172-8.893 47.38-13.994 77.389-13.994 22.786 0 44.285 2.877 62.149 8.314 25.13 7.642 39.555 19.446 40.618 33.235.524 6.787-2.093 19.801-25.51 30.659-19.156 8.889-47.36 13.99-77.368 13.99Z" fill="#029894" style="mix-blend-mode:multiply" opacity=".2"/><path d="M170.299 139.637c40.798 12.405 47.086 34.878 14.049 50.198s-92.889 17.684-133.703 5.279C9.83 182.709 3.558 160.232 36.592 144.912c33.033-15.32 92.893-17.68 133.707-5.275Z" fill="#029894" style="mix-blend-mode:multiply"/><g style="mix-blend-mode:multiply"><path d="M158.106 145.282c32.493 9.879 37.502 27.763 11.191 39.983-26.312 12.22-73.983 14.082-106.472 4.199-32.49-9.883-37.507-27.763-11.191-39.979 26.315-12.216 73.999-14.083 106.472-4.203Z" fill="url(#b)"/><path d="M158.106 145.282c32.493 9.879 37.502 27.763 11.191 39.983-26.312 12.22-73.983 14.082-106.472 4.199-32.49-9.883-37.507-27.763-11.191-39.979 26.315-12.216 73.999-14.083 106.472-4.203Z" fill="url(#c)"/><path d="M158.106 145.282c32.493 9.879 37.502 27.763 11.191 39.983-26.312 12.22-73.983 14.082-106.472 4.199-32.49-9.883-37.507-27.763-11.191-39.979 26.315-12.216 73.999-14.083 106.472-4.203Z" fill="url(#d)"/></g><path d="M110.427 225.141c-22.79 0-44.286-2.873-62.17-8.314-25.134-7.639-39.559-19.442-40.622-33.231-.52-6.787 2.098-19.801 25.514-30.66 19.172-8.892 47.381-13.989 77.389-13.989 22.786 0 44.285 2.872 62.149 8.313 25.13 7.639 39.555 19.442 40.618 33.232.524 6.79-2.093 19.8-25.51 30.659-19.156 8.892-47.36 13.99-77.368 13.99Z" fill="#029894" style="mix-blend-mode:multiply" opacity=".2"/><path d="M178.26 141.923h-13.42a73.995 73.995 0 0 0-11.706-4.57c-29.088-8.845-71.766-7.16-95.326 3.76-.572.266-1.112.536-1.635.81H42.855v13.697c-1.226 7.912 7.36 15.921 24.991 21.289 29.088 8.846 71.766 7.161 95.322-3.76 10.173-4.72 15.104-10.388 15.096-16.018l-.004-15.208Z" fill="#E6EBED"/><path d="M153.134 122.146c29.092 8.845 33.577 24.871 10.018 35.791-23.56 10.921-66.239 12.61-95.322 3.764-29.084-8.846-33.578-24.872-10.022-35.796 23.556-10.924 66.238-12.605 95.326-3.759Z" fill="#FAFDFF"/><path style="mix-blend-mode:multiply" d="M110.406 167.477c37.475 0 67.854-11.441 67.854-25.554 0-14.113-30.379-25.554-67.854-25.554-37.474 0-67.853 11.441-67.853 25.554 0 14.113 30.379 25.554 67.853 25.554Z" fill="url(#e)"/><path d="M178.26 116.736h-13.42a73.899 73.899 0 0 0-11.706-4.57c-29.088-8.845-71.766-7.164-95.326 3.76-.572.266-1.112.536-1.635.81H42.855v13.693c-1.226 7.912 7.36 15.921 24.991 21.289 29.088 8.846 71.766 7.161 95.322-3.764 10.173-4.716 15.104-10.384 15.096-16.014l-.004-15.204Z" fill="#E6EBED"/><path d="M153.134 96.954c29.092 8.846 33.577 24.872 10.018 35.796-23.56 10.924-66.239 12.609-95.322 3.763-29.084-8.845-33.578-24.871-10.022-35.795 23.556-10.925 66.238-12.606 95.326-3.764Z" fill="#FAFDFF"/><path style="mix-blend-mode:multiply" opacity=".25" d="M110.407 129.973c19.409 0 35.143-5.926 35.143-13.238 0-7.311-15.734-13.237-35.143-13.237-19.41 0-35.143 5.926-35.143 13.237 0 7.312 15.734 13.238 35.143 13.238Z" fill="url(#f)"/><path d="M108.304 22.514c0 4.691-1.155 8.235-3.467 10.63-2.311 2.397-5.423 3.593-9.335 3.59-3.95 0-7.084-1.196-9.404-3.59-2.32-2.392-3.475-5.936-3.467-10.63V15.21c0-4.694 1.147-8.236 3.443-10.627C88.369 2.193 91.489.994 95.433.99c3.933 0 7.059 1.202 9.375 3.606 2.317 2.403 3.477 5.942 3.48 10.615l.016 7.304Zm-8.525-7.851c0-2.656-.372-4.564-1.116-5.726a3.44 3.44 0 0 0-1.346-1.3 3.71 3.71 0 0 0-1.868-.443 3.643 3.643 0 0 0-1.864.437 3.373 3.373 0 0 0-1.333 1.306c-.72 1.162-1.078 3.07-1.075 5.726v8.352c0 2.702.362 4.63 1.087 5.784.33.527.8.963 1.364 1.267a3.908 3.908 0 0 0 1.85.463c.649 0 1.286-.16 1.85-.463a3.638 3.638 0 0 0 1.364-1.267c.722-1.157 1.085-3.085 1.087-5.784v-8.352ZM120.525 15.518h4.023c1.535 0 2.715-.385 3.541-1.157.826-.77 1.235-1.852 1.227-3.243a3.763 3.763 0 0 0-1.113-2.768c-.744-.748-1.819-1.122-3.238-1.122a4.934 4.934 0 0 0-2.936.906 2.882 2.882 0 0 0-.939 1.023c-.22.408-.331.86-.324 1.318h-8.3l-.049-.143c-.101-2.769 1.053-5.012 3.463-6.729 2.409-1.717 5.337-2.577 8.783-2.58 3.993 0 7.189.864 9.588 2.592 2.398 1.727 3.596 4.17 3.594 7.326a6.92 6.92 0 0 1-1.558 4.354 10.337 10.337 0 0 1-4.162 3.111 9.944 9.944 0 0 1 4.632 3.116 7.752 7.752 0 0 1 1.668 5.013c0 3.185-1.29 5.688-3.872 7.508-2.581 1.82-5.878 2.73-9.89 2.73-3.235.063-6.409-.834-9.073-2.565-2.587-1.712-3.84-4.19-3.758-7.434l.053-.143h8.349a3.389 3.389 0 0 0 .351 1.55c.238.485.589.914 1.027 1.254a5.09 5.09 0 0 0 3.353 1.133 5.222 5.222 0 0 0 3.594-1.191c.437-.383.783-.85 1.014-1.368a3.764 3.764 0 0 0 .327-1.64c0-1.684-.469-2.913-1.406-3.686-.938-.774-2.257-1.16-3.958-1.157h-4.024l.013-6.008ZM94.065 103.016l3.49-2.546 3.972 1.809-1.485-3.912 3.053-3-4.405.13-2.087-3.664-1.237 3.993-4.345.738 3.646 2.341-.602 4.111Zm16.184 3.824 1.669-3.85 4.396-.308-3.361-2.689 1.053-4.04-3.752 2.189-3.752-2.19 1.053 4.041-3.37 2.689 4.395.308 1.669 3.85ZM97.251 77.723c2.042-.72 4.649-1.64 6.525-2.736 2.151 1.882 3.549 4.024 3.66 6.625h5.646c.11-2.601 1.508-4.743 3.66-6.625 1.876 1.097 4.483 2.012 6.524 2.736 6.014 2.12 3.076 5.992-.432 9.253-3.219 2.988-7.665 4.835-12.58 4.835s-9.357-1.843-12.58-4.835c-3.457-3.213-6.478-7.12-.423-9.253Zm8.575-5.381c.092-.712-2.133-3.404-2.538-4.7-.873-1.302-1.181-3.383-.23-4.762.382-.546.216-1.526.216-2.277 0-7.505 13.946-7.514 13.946 0 0 .95-.23 1.674.317 2.42.915 1.249.442 3.465-.331 4.627-.492 1.357-2.828 3.928-2.662 4.7.138 3.846-8.75 3.72-8.718-.008Zm32.673 19.291-2.699-3.287 1.917-3.746-4.152 1.405-3.181-2.88.138 4.155-3.886 1.968 4.235 1.162.782 4.098 2.478-3.438 4.368.563Zm-12.065 11.383-.593-4.124 3.646-2.341-4.34-.742-1.233-3.994-2.087 3.664-4.409-.13 3.053 3.001-1.499 3.92 3.972-1.808 3.49 2.554ZM82 91.629l4.373-.56 2.483 3.44.786-4.094 4.234-1.162-3.885-1.969.138-4.154-3.186 2.88-4.161-1.41 1.917 3.746L82 91.63Z" fill="#029894"/><defs><radialGradient id="a" cx="0" cy="0" r="1" gradientUnits="userSpaceOnUse" gradientTransform="matrix(107.502 0 0 39.5395 110.479 197.425)"><stop stop-color="#7FD4F9"/><stop offset="1" stop-color="#fff"/></radialGradient><radialGradient id="b" cx="0" cy="0" r="1" gradientUnits="userSpaceOnUse" gradientTransform="matrix(53.75846 -19.99377 13.06491 35.12842 114.535 167.46)"><stop stop-color="#7FD4F9"/><stop offset=".43" stop-color="#81D5F9"/><stop offset=".58" stop-color="#88D7F9"/><stop offset=".69" stop-color="#93DBFA"/><stop offset=".78" stop-color="#A4E1FB"/><stop offset=".86" stop-color="#BAE8FC"/><stop offset=".92" stop-color="#D6F1FD"/><stop offset=".98" stop-color="#F5FCFF"/><stop offset="1" stop-color="#fff"/></radialGradient><radialGradient id="c" cx="0" cy="0" r="1" gradientUnits="userSpaceOnUse" gradientTransform="matrix(53.75846 -19.99377 13.06491 35.12842 114.535 167.46)"><stop stop-color="#80E3C8"/><stop offset=".43" stop-color="#82E3C9"/><stop offset=".58" stop-color="#89E5CC"/><stop offset=".69" stop-color="#94E8D1"/><stop offset=".78" stop-color="#A5EBD8"/><stop offset=".86" stop-color="#BBF0E2"/><stop offset=".93" stop-color="#D7F6ED"/><stop offset=".99" stop-color="#F6FDFB"/><stop offset="1" stop-color="#fff"/></radialGradient><radialGradient id="d" cx="0" cy="0" r="1" gradientUnits="userSpaceOnUse" gradientTransform="matrix(53.75846 -19.99377 13.06491 35.12842 114.535 167.46)"><stop stop-color="#7FD4F9"/><stop offset=".43" stop-color="#81D5F9"/><stop offset=".58" stop-color="#88D7F9"/><stop offset=".69" stop-color="#93DBFA"/><stop offset=".78" stop-color="#A4E1FB"/><stop offset=".86" stop-color="#BAE8FC"/><stop offset=".92" stop-color="#D6F1FD"/><stop offset=".98" stop-color="#F5FCFF"/><stop offset="1" stop-color="#fff"/></radialGradient><radialGradient id="e" cx="0" cy="0" r="1" gradientUnits="userSpaceOnUse" gradientTransform="matrix(67.6449 0 0 23.604 110.406 144.942)"><stop stop-color="#7FD4F9"/><stop offset="1" stop-color="#fff"/></radialGradient><radialGradient id="f" cx="0" cy="0" r="1" gradientUnits="userSpaceOnUse" gradientTransform="matrix(35.0368 0 0 12.2257 110.407 119.72)"><stop stop-color="#7FD4F9"/><stop offset="1" stop-color="#fff"/></radialGradient></defs></svg>