<svg width="222" height="245" fill="none" xmlns="http://www.w3.org/2000/svg"><path style="mix-blend-mode:multiply" d="M180.707 170.93c47.381 14.41 54.687 40.515 16.318 58.307s-107.887 20.538-155.272 6.127c-47.385-14.41-54.687-40.511-16.318-58.303 38.37-17.792 107.887-20.537 155.272-6.131Z" fill="url(#a)"/><path d="M108.619 204.771c-22.787 0-44.286-2.873-62.17-8.31-25.13-7.643-39.555-19.446-40.618-33.232-.523-6.79 2.098-19.8 25.51-30.663 19.176-8.892 47.385-13.99 77.388-13.99 22.791 0 44.29 2.877 62.175 8.314 25.129 7.639 39.555 19.442 40.618 33.232.523 6.79-2.098 19.8-25.514 30.659-19.173 8.892-47.381 13.99-77.389 13.99Z" fill="#001C63" style="mix-blend-mode:multiply" opacity=".2"/><path d="M168.494 133.935c40.793 12.405 47.086 34.882 14.049 50.202-33.038 15.32-92.89 17.68-133.704 5.275C8.025 177.007 1.753 154.53 34.79 139.214c33.038-15.316 92.906-17.684 133.704-5.279Z" fill="#001C63" style="mix-blend-mode:multiply"/><g style="mix-blend-mode:multiply"><path d="M156.318 139.58c32.49 9.883 37.503 27.783 11.191 39.984-26.311 12.2-73.994 14.082-106.476 4.222-32.481-9.86-37.502-27.764-11.19-39.983 26.31-12.22 73.982-14.102 106.475-4.223Z" fill="url(#b)"/><path d="M156.318 139.58c32.49 9.883 37.503 27.783 11.191 39.984-26.311 12.2-73.994 14.082-106.476 4.222-32.481-9.86-37.502-27.764-11.19-39.983 26.31-12.22 73.982-14.102 106.475-4.223Z" fill="url(#c)"/><path d="M156.318 139.58c32.49 9.883 37.503 27.783 11.191 39.984-26.311 12.2-73.994 14.082-106.476 4.222-32.481-9.86-37.502-27.764-11.19-39.983 26.31-12.22 73.982-14.102 106.475-4.223Z" fill="url(#d)"/></g><path d="M108.619 219.443c-22.787 0-44.286-2.876-62.17-8.313-25.13-7.643-39.555-19.442-40.618-33.232-.523-6.79 2.098-19.801 25.51-30.663 19.176-8.869 47.385-13.99 77.388-13.99 22.791 0 44.29 2.877 62.175 8.314 25.129 7.643 39.555 19.442 40.618 33.231.523 6.791-2.098 19.801-25.514 30.66-19.173 8.892-47.381 13.993-77.389 13.993Z" fill="#001C63" style="mix-blend-mode:multiply" opacity=".2"/><path d="M176.452 136.222h-13.427a74.621 74.621 0 0 0-11.703-4.57c-29.091-8.846-71.77-7.16-95.326 3.764-.572.266-1.116.536-1.656.806H41.023v13.7c-1.226 7.909 7.36 15.922 24.991 21.289 29.092 8.846 71.77 7.161 95.326-3.763 10.173-4.716 15.104-10.384 15.096-16.018l.016-15.208Z" fill="#E5E7EA"/><path d="M151.33 116.444c29.088 8.846 33.573 24.872 10.018 35.796-23.556 10.924-66.239 12.609-95.326 3.763-29.088-8.845-33.573-24.871-10.018-35.795 23.556-10.925 66.235-12.61 95.326-3.764Z" fill="#FDFEFF"/><path style="mix-blend-mode:multiply" d="M108.603 161.776c37.475 0 67.854-11.441 67.854-25.554 0-14.113-30.379-25.554-67.854-25.554-37.474 0-67.853 11.441-67.853 25.554 0 14.113 30.379 25.554 67.853 25.554Z" fill="url(#e)"/><path d="M176.452 111.034h-13.427a74.52 74.52 0 0 0-11.703-4.569c-29.091-8.846-71.77-7.161-95.326 3.763-.572.266-1.116.536-1.656.806H41.023v13.701c-1.226 7.908 7.36 15.921 24.991 21.289 29.092 8.846 71.77 7.161 95.326-3.764 10.173-4.715 15.104-10.384 15.096-16.018l.016-15.208Z" fill="#E5E7EA"/><path d="M151.33 91.241c29.088 8.846 33.573 24.871 10.018 35.796-23.556 10.924-66.239 12.605-95.326 3.759-29.088-8.845-33.573-24.871-10.018-35.791C79.56 84.084 122.24 82.41 151.33 91.24Z" fill="#FDFEFF"/><path style="mix-blend-mode:multiply" opacity=".25" d="M108.602 124.272c19.409 0 35.143-5.927 35.143-13.238s-15.734-13.238-35.143-13.238-35.143 5.927-35.143 13.238 15.734 13.238 35.143 13.238Z" fill="url(#f)"/><path d="M106.5 22.465c0 4.691-1.156 8.235-3.467 10.63-2.312 2.397-5.425 3.593-9.34 3.59-3.943 0-7.078-1.196-9.403-3.59-2.326-2.392-3.481-5.936-3.468-10.63V15.16c0-4.694 1.147-8.237 3.44-10.63C86.553 2.136 89.674.94 93.623.94c3.928 0 7.054 1.2 9.376 3.6 2.322 2.402 3.482 5.942 3.48 10.62l.02 7.304Zm-8.53-7.851c0-2.656-.37-4.565-1.111-5.726a3.448 3.448 0 0 0-1.347-1.3 3.72 3.72 0 0 0-1.867-.443 3.65 3.65 0 0 0-1.866.438 3.381 3.381 0 0 0-1.336 1.305c-.714 1.162-1.072 3.07-1.075 5.726v8.352c0 2.702.363 4.63 1.088 5.784.315.544.785.995 1.357 1.3a3.704 3.704 0 0 0 1.88.431 3.65 3.65 0 0 0 1.858-.436 3.383 3.383 0 0 0 1.332-1.295c.728-1.154 1.09-3.082 1.088-5.784v-8.352ZM133.471 22.654h3.721v6.204h-3.721v7.327h-8.55v-7.327h-14.274l-.502-4.924 14.776-22.42v-.072h8.55v21.212Zm-15.689 0h7.139V11.919l-.155-.05-.658.983-6.326 9.802ZM112.273 94.002l6.236 5.796c1.508.039 2.72 1.191 2.72 2.606 0 1.441-1.254 2.606-2.805 2.606-1.551 0-2.805-1.169-2.805-2.606 0-.158.015-.315.043-.469l-5.426-5.037v3.706h-3.884v-3.605l-5.51 5.125c.009.092.014.188.014.284 0 1.441-1.254 2.607-2.81 2.607-1.55 0-2.804-1.17-2.804-2.607 0-1.441 1.258-2.606 2.805-2.606.047 0 .094 0 .136.004l6.237-5.795-24.922-.009V57.194c0-.38.34-.688.759-.688h26.095V53.9h3.884v2.607h26.426c.419 0 .759.31.759.687v36.804h-25.148v.004Zm-20.1-12.633 10.964-9.96c2.716 2.522 5.402 5.02 8.146 7.538l7.264-6.833-3.371-3.132 9.484-.08v8.889l-3.238-3.01c-3.375 3.176-6.736 6.343-10.12 9.493l-8.221-7.543-8.032 7.31-2.876-2.672Zm40.963-17.95H83.703V89.98h49.433V63.42Z" fill="#001C63"/><defs><radialGradient id="a" cx="0" cy="0" r="1" gradientUnits="userSpaceOnUse" gradientTransform="matrix(107.502 0 0 39.5395 111.23 191.009)"><stop stop-color="#5A9BFB"/><stop offset="1" stop-color="#fff"/></radialGradient><radialGradient id="b" cx="0" cy="0" r="1" gradientUnits="userSpaceOnUse" gradientTransform="matrix(53.75846 -19.99377 13.06495 35.12852 113.704 161.013)"><stop stop-color="#7FD4F9"/><stop offset=".43" stop-color="#81D5F9"/><stop offset=".58" stop-color="#88D7F9"/><stop offset=".69" stop-color="#93DBFA"/><stop offset=".78" stop-color="#A4E1FB"/><stop offset=".86" stop-color="#BAE8FC"/><stop offset=".92" stop-color="#D6F1FD"/><stop offset=".98" stop-color="#F5FCFF"/><stop offset="1" stop-color="#fff"/></radialGradient><radialGradient id="c" cx="0" cy="0" r="1" gradientUnits="userSpaceOnUse" gradientTransform="matrix(53.75846 -19.99377 13.06495 35.12852 113.704 161.013)"><stop stop-color="#80E3C8"/><stop offset=".43" stop-color="#82E3C9"/><stop offset=".58" stop-color="#89E5CC"/><stop offset=".69" stop-color="#94E8D1"/><stop offset=".78" stop-color="#A5EBD8"/><stop offset=".86" stop-color="#BBF0E2"/><stop offset=".93" stop-color="#D7F6ED"/><stop offset=".99" stop-color="#F6FDFB"/><stop offset="1" stop-color="#fff"/></radialGradient><radialGradient id="d" cx="0" cy="0" r="1" gradientUnits="userSpaceOnUse" gradientTransform="matrix(53.75846 -19.99377 13.06495 35.12852 113.704 161.013)"><stop stop-color="#5A9BFB"/><stop offset=".41" stop-color="#5C9CFB"/><stop offset=".55" stop-color="#63A0FB"/><stop offset=".66" stop-color="#6EA7FB"/><stop offset=".74" stop-color="#7FB2FC"/><stop offset=".81" stop-color="#95BFFC"/><stop offset=".88" stop-color="#B1CFFD"/><stop offset=".94" stop-color="#D1E3FE"/><stop offset=".99" stop-color="#F5F9FF"/><stop offset="1" stop-color="#fff"/></radialGradient><radialGradient id="e" cx="0" cy="0" r="1" gradientUnits="userSpaceOnUse" gradientTransform="matrix(67.6449 0 0 23.604 108.603 139.432)"><stop stop-color="#5A9BFB"/><stop offset="1" stop-color="#fff"/></radialGradient><radialGradient id="f" cx="0" cy="0" r="1" gradientUnits="userSpaceOnUse" gradientTransform="matrix(35.0369 0 0 12.2257 108.602 114.21)"><stop stop-color="#5A9BFB"/><stop offset="1" stop-color="#fff"/></radialGradient></defs></svg>