<svg width="222" height="251" fill="none" xmlns="http://www.w3.org/2000/svg"><path style="mix-blend-mode:multiply" d="M180.456 177.214c47.385 14.41 54.691 40.516 16.318 58.307-38.373 17.792-107.887 20.538-155.268 6.128-47.38-14.41-54.691-40.512-16.322-58.304 38.37-17.792 107.891-20.526 155.272-6.131Z" fill="url(#a)"/><path d="M110.925 210.395c-22.787 0-44.29-2.873-62.174-8.31-25.13-7.642-39.555-19.446-40.618-33.231-.52-6.791 2.098-19.801 25.514-30.664 19.172-8.888 47.38-13.989 77.389-13.989 22.79 0 44.285 2.876 62.17 8.313 25.133 7.639 39.559 19.443 40.618 33.232.523 6.79-2.094 19.801-25.51 30.659-19.177 8.892-47.385 13.99-77.389 13.99Z" fill="#001C63" style="mix-blend-mode:multiply" opacity=".2"/><path d="M170.799 139.559c40.798 12.405 47.087 34.882 14.049 50.202-33.037 15.32-92.889 17.68-133.682 5.275-40.794-12.404-47.087-34.881-14.054-50.198 33.034-15.316 92.889-17.683 133.687-5.279Z" fill="#001C63" style="mix-blend-mode:multiply"/><g style="mix-blend-mode:multiply"><path d="M158.623 145.205c32.494 9.883 37.503 27.763 11.191 39.983-26.311 12.22-73.982 14.082-106.472 4.203-32.49-9.879-37.506-27.783-11.19-39.983 26.315-12.201 73.982-14.083 106.471-4.203Z" fill="url(#b)"/><path d="M158.623 145.205c32.494 9.883 37.503 27.763 11.191 39.983-26.311 12.22-73.982 14.082-106.472 4.203-32.49-9.879-37.506-27.783-11.19-39.983 26.315-12.201 73.982-14.083 106.471-4.203Z" fill="url(#c)"/><path d="M158.623 145.205c32.494 9.883 37.503 27.763 11.191 39.983-26.311 12.22-73.982 14.082-106.472 4.203-32.49-9.879-37.506-27.783-11.19-39.983 26.315-12.201 73.982-14.083 106.471-4.203Z" fill="url(#d)"/></g><path d="M110.925 225.067c-22.787 0-44.29-2.876-62.174-8.313-25.13-7.643-39.555-19.443-40.618-33.232-.52-6.79 2.098-19.801 25.514-30.659 19.172-8.892 47.38-13.994 77.389-13.994 22.79 0 44.285 2.877 62.17 8.314 25.133 7.642 39.559 19.442 40.618 33.231.523 6.791-2.094 19.801-25.51 30.664-19.177 8.888-47.385 13.989-77.389 13.989Z" fill="#001C63" style="mix-blend-mode:multiply" opacity=".2"/><path d="M178.758 141.846h-13.419a74.59 74.59 0 0 0-11.706-4.569c-29.088-8.846-71.767-7.161-95.326 3.763-.573.266-1.112.536-1.636.806H43.338v13.701c-1.227 7.909 7.36 15.921 24.99 21.289 29.088 8.846 71.767 7.161 95.322-3.763 10.173-4.716 15.104-10.385 15.096-16.015l.012-15.212Z" fill="#E6E6E8"/><path d="M153.634 122.069c29.092 8.845 33.577 24.871 10.018 35.795-23.56 10.925-66.239 12.61-95.322 3.764-29.084-8.846-33.578-24.872-10.022-35.796 23.556-10.924 66.238-12.609 95.326-3.763Z" fill="#FDFDFF"/><path style="mix-blend-mode:multiply" d="M110.979 167.373c37.434 0 67.78-11.429 67.78-25.527s-30.346-25.527-67.78-25.527-67.78 11.429-67.78 25.527 30.346 25.527 67.78 25.527Z" fill="url(#e)"/><path d="M178.758 116.658h-13.419a74.59 74.59 0 0 0-11.706-4.569c-29.088-8.846-71.767-7.161-95.326 3.763-.573.267-1.112.537-1.636.806H43.338v13.701c-1.227 7.909 7.36 15.922 24.99 21.289 29.088 8.846 71.767 7.161 95.322-3.763 10.173-4.716 15.104-10.385 15.096-16.018l.012-15.209Z" fill="#E6E6E8"/><path d="M153.634 96.88c29.092 8.847 33.577 24.872 10.018 35.797-23.56 10.924-66.239 12.605-95.322 3.759-29.084-8.846-33.578-24.871-10.022-35.792 23.556-10.92 66.238-12.609 95.326-3.763Z" fill="#FDFDFF"/><path style="mix-blend-mode:multiply" opacity=".25" d="M110.979 129.896c19.409 0 35.143-5.927 35.143-13.238s-15.734-13.238-35.143-13.238-35.143 5.927-35.143 13.238 15.734 13.238 35.143 13.238Z" fill="url(#f)"/><path d="M108.881 22.514c0 4.691-1.156 8.235-3.468 10.63-2.311 2.397-5.423 3.593-9.334 3.59-3.95 0-7.085-1.196-9.405-3.59-2.32-2.393-3.475-5.936-3.467-10.63V15.21c0-4.694 1.148-8.236 3.443-10.627 2.295-2.39 5.415-3.589 9.36-3.594 3.927 0 7.052 1.202 9.375 3.606 2.322 2.403 3.482 5.942 3.479 10.615l.017 7.304Zm-8.53-7.851c0-2.656-.37-4.565-1.112-5.726a3.44 3.44 0 0 0-1.345-1.3 3.71 3.71 0 0 0-1.869-.443 3.642 3.642 0 0 0-1.864.437 3.372 3.372 0 0 0-1.333 1.306c-.72 1.162-1.078 3.07-1.075 5.726v8.352c0 2.702.362 4.63 1.087 5.784.316.544.786.994 1.358 1.299a3.7 3.7 0 0 0 1.88.428c.65.021 1.291-.13 1.854-.435a3.384 3.384 0 0 0 1.332-1.292c.728-1.157 1.09-3.085 1.087-5.784v-8.352ZM113.984 20.963 116.11 1.49h21.605v6.205h-14.65l-.936 7.28a7.965 7.965 0 0 1 2.404-1.122 12.078 12.078 0 0 1 3.165-.478c3.609-.062 6.384.928 8.325 2.969 1.94 2.04 2.91 4.94 2.907 8.699.079 3.064-1.109 6.037-3.312 8.29-2.211 2.268-5.374 3.402-9.49 3.402-3.284.068-6.498-.898-9.134-2.746a8.493 8.493 0 0 1-2.865-3.171 7.94 7.94 0 0 1-.881-4.082l.053-.143 8.35-.478c0 1.383.408 2.465 1.226 3.247.429.392.939.697 1.498.896a4.612 4.612 0 0 0 1.753.26c1.554 0 2.655-.514 3.304-1.542a7.21 7.21 0 0 0 .973-3.902c0-1.908-.363-3.41-1.088-4.508-.725-1.098-1.873-1.646-3.443-1.646a4.98 4.98 0 0 0-2.768.69 3.626 3.626 0 0 0-1.455 1.743l-7.667-.39Z" fill="#001C63"/><path fill-rule="evenodd" clip-rule="evenodd" d="M83.52 82.874h3.597V63.325h9.273v19.549h3.42V67.978h7.127v14.896h9.248v-6.302l10.658 6.302h1.938v-6.302l10.657 6.302h.14c.837 0 1.524.639 1.524 1.417v28.732c0 .778-.687 1.417-1.524 1.417H83.52c-.837 0-1.52-.639-1.52-1.417V84.291c0-.778.683-1.417 1.52-1.417Zm34.954 13.863h-5.348c-.24 0-.437.184-.437.407v4.97c0 .223.197.407.437.407h5.348c.241 0 .438-.184.438-.407v-4.97c0-.223-.197-.407-.438-.407Zm.438-7.445h-5.348c-.241 0-.438.183-.438.406v4.97c0 .224.197.407.438.407h5.348c.24 0 .438-.183.438-.407v-4.97c0-.223-.198-.406-.438-.406Zm4.049.406h5.348c.241 0 .438.184.438.407v4.97c0 .223-.197.406-.438.406h-5.348c-.24 0-.437-.183-.437-.406v-4.97c0-.223.197-.407.437-.407Zm8.523.407h5.348c.24 0 .437.183.437.407v4.97c0 .223-.197.406-.437.406h-5.348c-.241 0-.438-.183-.438-.407v-4.97c0-.223.197-.406.438-.406Zm-.438 8.264h5.348c.24 0 .438.183.438.406v4.97c0 .224-.198.407-.438.407h-5.348c-.24 0-.438-.183-.438-.407v-4.97c0-.228.193-.406.438-.406Zm-9.402.406h5.348c.24 0 .437.184.437.407v4.97c0 .223-.197.407-.437.407h-5.348c-.241 0-.438-.184-.438-.407v-4.97c0-.228.197-.407.438-.407Z" fill="#001C63"/><defs><radialGradient id="a" cx="0" cy="0" r="1" gradientUnits="userSpaceOnUse" gradientTransform="matrix(107.502 0 0 39.5395 110.979 198.006)"><stop stop-color="#2A48D0"/><stop offset="1" stop-color="#fff"/></radialGradient><radialGradient id="b" cx="0" cy="0" r="1" gradientUnits="userSpaceOnUse" gradientTransform="matrix(53.75846 -19.99377 13.06495 35.12852 117.011 167.386)"><stop stop-color="#8EDBDC"/><stop offset=".44" stop-color="#90DCDD"/><stop offset=".6" stop-color="#97DEDF"/><stop offset=".71" stop-color="#A2E2E2"/><stop offset=".8" stop-color="#B3E7E8"/><stop offset=".88" stop-color="#C9EEEE"/><stop offset=".95" stop-color="#E4F6F7"/><stop offset="1" stop-color="#fff"/></radialGradient><radialGradient id="c" cx="0" cy="0" r="1" gradientUnits="userSpaceOnUse" gradientTransform="matrix(53.75846 -19.99377 13.06495 35.12852 117.011 167.386)"><stop stop-color="#80E3C8"/><stop offset=".43" stop-color="#82E3C9"/><stop offset=".58" stop-color="#89E5CC"/><stop offset=".69" stop-color="#94E8D1"/><stop offset=".78" stop-color="#A5EBD8"/><stop offset=".86" stop-color="#BBF0E2"/><stop offset=".93" stop-color="#D7F6ED"/><stop offset=".99" stop-color="#F6FDFB"/><stop offset="1" stop-color="#fff"/></radialGradient><radialGradient id="d" cx="0" cy="0" r="1" gradientUnits="userSpaceOnUse" gradientTransform="matrix(53.75846 -19.99377 13.06495 35.12852 117.011 167.386)"><stop stop-color="#2A48D0"/><stop offset=".39" stop-color="#2C4AD0"/><stop offset=".53" stop-color="#334FD2"/><stop offset=".62" stop-color="#3E5AD5"/><stop offset=".71" stop-color="#4F68D8"/><stop offset=".77" stop-color="#657BDD"/><stop offset=".83" stop-color="#8192E3"/><stop offset=".89" stop-color="#A1AEEA"/><stop offset=".94" stop-color="#C7CFF3"/><stop offset=".99" stop-color="#F0F2FC"/><stop offset="1" stop-color="#fff"/></radialGradient><radialGradient id="e" cx="0" cy="0" r="1" gradientUnits="userSpaceOnUse" gradientTransform="matrix(67.5713 0 0 23.5783 110.979 144.867)"><stop stop-color="#2A48D0"/><stop offset="1" stop-color="#fff"/></radialGradient><radialGradient id="f" cx="0" cy="0" r="1" gradientUnits="userSpaceOnUse" gradientTransform="matrix(35.0369 0 0 12.2257 110.979 119.645)"><stop stop-color="#2A48D0"/><stop offset="1" stop-color="#fff"/></radialGradient></defs></svg>