<svg width="222" height="244" fill="none" xmlns="http://www.w3.org/2000/svg"><path style="mix-blend-mode:multiply" d="M180.562 169.93c47.381 14.41 54.688 40.516 16.318 58.307-38.369 17.792-107.886 20.538-155.271 6.128-47.385-14.41-54.688-40.512-16.319-58.308 38.37-17.795 107.887-20.533 155.272-6.127Z" fill="url(#a)"/><path d="M108.485 203.771c-22.786 0-44.285-2.873-62.15-8.31-25.129-7.642-39.554-19.446-40.617-33.235-.524-6.791 2.097-19.801 25.51-30.66 19.176-8.892 47.385-13.989 77.388-13.989 22.791 0 44.29 2.876 62.174 8.313 25.13 7.639 39.555 19.443 40.618 33.232.52 6.786-2.097 19.801-25.514 30.659-19.205 8.892-47.413 13.99-77.409 13.99Z" fill="#001C63" style="mix-blend-mode:multiply" opacity=".2"/><path d="M108.485 218.443c-22.786 0-44.285-2.876-62.15-8.313-25.129-7.643-39.554-19.443-40.617-33.232-.524-6.79 2.097-19.801 25.51-30.663 19.176-8.869 47.385-13.99 77.388-13.99 22.791 0 44.29 2.877 62.174 8.314 25.13 7.642 39.555 19.442 40.618 33.231.52 6.791-2.097 19.801-25.514 30.66-19.205 8.892-47.413 13.993-77.409 13.993Z" fill="#001C63" style="mix-blend-mode:multiply" opacity=".2"/><path d="M168.345 132.935c40.798 12.405 47.091 34.882 14.053 50.202-33.037 15.32-92.889 17.68-133.703 5.275C7.88 176.007 1.608 153.53 34.645 138.21c33.038-15.32 92.906-17.68 133.7-5.275Z" fill="#001C63" style="mix-blend-mode:multiply"/><g style="mix-blend-mode:multiply"><path d="M156.172 138.58c32.489 9.884 37.502 27.783 11.191 39.984-26.311 12.2-73.983 14.082-106.476 4.203-32.494-9.879-37.503-27.764-11.191-39.983 26.311-12.22 73.982-14.083 106.476-4.204Z" fill="url(#b)"/><path d="M156.172 138.58c32.489 9.884 37.502 27.783 11.191 39.984-26.311 12.2-73.983 14.082-106.476 4.203-32.494-9.879-37.503-27.764-11.191-39.983 26.311-12.22 73.982-14.083 106.476-4.204Z" fill="url(#c)"/><path d="M156.172 138.58c32.489 9.884 37.502 27.783 11.191 39.984-26.311 12.2-73.983 14.082-106.476 4.203-32.494-9.879-37.503-27.764-11.191-39.983 26.311-12.22 73.982-14.083 106.476-4.204Z" fill="url(#d)"/></g><path d="M176.306 135.222h-13.42a74.459 74.459 0 0 0-11.706-4.57c-29.088-8.845-71.766-7.16-95.322 3.764-.572.266-1.116.536-1.656.806H40.885v13.7c-1.227 7.909 7.34 15.922 24.99 21.29 29.092 8.845 71.771 7.16 95.327-3.764 10.173-4.716 15.104-10.384 15.095-16.018l.009-15.208Z" fill="#E6E6ED"/><path d="M151.18 115.444c29.091 8.846 33.577 24.872 10.021 35.796-23.555 10.924-66.238 12.605-95.326 3.763-29.087-8.842-33.573-24.875-10.017-35.795 23.555-10.921 66.234-12.61 95.322-3.764Z" fill="#FAFAFF"/><path style="mix-blend-mode:multiply" d="M108.457 160.776c37.474 0 67.853-11.441 67.853-25.554 0-14.113-30.379-25.554-67.853-25.554-37.474 0-67.853 11.441-67.853 25.554 0 14.113 30.379 25.554 67.853 25.554Z" fill="url(#e)"/><path d="M176.306 110.034h-13.42a74.088 74.088 0 0 0-11.706-4.569c-29.088-8.846-71.766-7.161-95.322 3.763-.572.266-1.116.536-1.656.806H40.885v13.701c-1.227 7.908 7.34 15.921 24.99 21.289 29.092 8.846 71.771 7.161 95.327-3.764 10.173-4.716 15.104-10.384 15.095-16.018l.009-15.208Z" fill="#E6E6ED"/><path d="M151.18 90.241c29.091 8.846 33.577 24.871 10.021 35.796-23.555 10.924-66.238 12.605-95.326 3.759-29.087-8.845-33.573-24.871-10.017-35.791 23.555-10.92 66.234-12.594 95.322-3.764Z" fill="#FAFAFF"/><path style="mix-blend-mode:multiply" opacity=".25" d="M108.456 123.272c19.409 0 35.143-5.927 35.143-13.238s-15.734-13.238-35.143-13.238c-19.41 0-35.144 5.927-35.144 13.238s15.735 13.238 35.144 13.238Z" fill="url(#f)"/><path d="M106.349 21.95c0 4.692-1.154 8.236-3.463 10.632-2.309 2.395-5.422 3.593-9.339 3.593-3.944 0-7.072-1.197-9.384-3.593-2.311-2.396-3.472-5.94-3.483-10.631v-7.289c0-4.694 1.146-8.237 3.438-10.63 2.293-2.394 5.414-3.59 9.364-3.59 3.93 0 7.056 1.2 9.375 3.601 2.32 2.401 3.478 5.94 3.476 10.62l.016 7.288Zm-8.525-7.847c0-2.655-.37-4.565-1.112-5.73a3.445 3.445 0 0 0-1.347-1.297 3.715 3.715 0 0 0-1.867-.442 3.643 3.643 0 0 0-1.866.435c-.566.308-1.03.76-1.336 1.304-.714 1.165-1.072 3.075-1.075 5.73v8.349c0 2.707.363 4.635 1.088 5.784.316.543.786.993 1.358 1.3a3.713 3.713 0 0 0 1.88.431 3.66 3.66 0 0 0 1.856-.437 3.391 3.391 0 0 0 1.333-1.294c.725-1.154 1.088-3.082 1.088-5.784v-8.349ZM125.935.43c1.3-.013 2.598.102 3.872.343 1.278.276 2.531.647 3.746 1.11l-1.419 5.87a36.64 36.64 0 0 0-3.099-.748 16.339 16.339 0 0 0-3.051-.251 6.412 6.412 0 0 0-2.68.48 6.072 6.072 0 0 0-2.189 1.537c-1.222 1.341-1.808 3.302-1.758 5.88l.077.12a7.441 7.441 0 0 1 2.96-1.863 12.341 12.341 0 0 1 4.2-.667c3.287 0 5.847 1.117 7.678 3.351 1.832 2.234 2.747 5.094 2.744 8.58 0 3.434-1.21 6.294-3.631 8.58-2.42 2.285-5.51 3.426-9.269 3.424-4.034 0-7.29-1.25-9.768-3.748-2.478-2.5-3.718-5.92-3.721-10.261v-6.992c0-4.58 1.43-8.18 4.289-10.796 2.86-2.617 6.533-3.934 11.019-3.949Zm-1.696 18.015a9.178 9.178 0 0 0-3.047.452 4.81 4.81 0 0 0-2.011 1.257v2.043c0 2.507.435 4.435 1.304 5.785.352.616.877 1.13 1.517 1.483.64.355 1.372.536 2.114.526 1.281 0 2.326-.571 3.136-1.713a6.841 6.841 0 0 0 1.227-4.064c0-1.758-.393-3.157-1.178-4.195a3.516 3.516 0 0 0-1.315-1.161 3.761 3.761 0 0 0-1.747-.413ZM115.637 57.713l-30.04 12.106 30.168 11.394 30.197-11.357-30.325-12.143Zm30.325 26.075-13.47-5.391-16.078 6.048c-.433.165-.899.151-1.302 0l-16.118-6.09-13.396 5.401 30.167 11.39 30.197-11.358Zm-13.136 8.418-16.412 6.172c-.433.164-.899.15-1.302 0L98.66 92.165l-13.062 5.268 30.167 11.394 30.197-11.358-13.136-5.263Z" fill="#001C63"/><defs><radialGradient id="a" cx="0" cy="0" r="1" gradientUnits="userSpaceOnUse" gradientTransform="matrix(107.502 0 0 39.5395 111.085 190.009)"><stop stop-color="#1628B1"/><stop offset="1" stop-color="#fff"/></radialGradient><radialGradient id="b" cx="0" cy="0" r="1" gradientUnits="userSpaceOnUse" gradientTransform="matrix(53.75846 -19.99377 13.06495 35.12852 115.532 160.013)"><stop stop-color="#80E3C8"/><stop offset=".43" stop-color="#82E3C9"/><stop offset=".58" stop-color="#89E5CC"/><stop offset=".69" stop-color="#94E8D1"/><stop offset=".78" stop-color="#A5EBD8"/><stop offset=".86" stop-color="#BBF0E2"/><stop offset=".93" stop-color="#D7F6ED"/><stop offset=".99" stop-color="#F6FDFB"/><stop offset="1" stop-color="#fff"/></radialGradient><radialGradient id="c" cx="0" cy="0" r="1" gradientUnits="userSpaceOnUse" gradientTransform="matrix(53.75846 -19.99377 13.06495 35.12852 115.532 160.013)"><stop stop-color="#80E3C8"/><stop offset=".43" stop-color="#82E3C9"/><stop offset=".58" stop-color="#89E5CC"/><stop offset=".69" stop-color="#94E8D1"/><stop offset=".78" stop-color="#A5EBD8"/><stop offset=".86" stop-color="#BBF0E2"/><stop offset=".93" stop-color="#D7F6ED"/><stop offset=".99" stop-color="#F6FDFB"/><stop offset="1" stop-color="#fff"/></radialGradient><radialGradient id="d" cx="0" cy="0" r="1" gradientUnits="userSpaceOnUse" gradientTransform="matrix(53.75846 -19.99377 13.06495 35.12852 115.532 160.013)"><stop stop-color="#1628B1"/><stop offset=".38" stop-color="#182AB2"/><stop offset=".52" stop-color="#1F30B4"/><stop offset=".61" stop-color="#2A3BB8"/><stop offset=".69" stop-color="#3B4BBE"/><stop offset=".76" stop-color="#515FC5"/><stop offset=".82" stop-color="#6D78CE"/><stop offset=".87" stop-color="#8D96D9"/><stop offset=".92" stop-color="#B3B9E5"/><stop offset=".97" stop-color="#DCDFF3"/><stop offset="1" stop-color="#fff"/></radialGradient><radialGradient id="e" cx="0" cy="0" r="1" gradientUnits="userSpaceOnUse" gradientTransform="matrix(67.6449 0 0 23.604 108.457 138.432)"><stop stop-color="#1628B1"/><stop offset="1" stop-color="#fff"/></radialGradient><radialGradient id="f" cx="0" cy="0" r="1" gradientUnits="userSpaceOnUse" gradientTransform="matrix(35.0368 0 0 12.2257 108.456 113.21)"><stop stop-color="#1628B1"/><stop offset="1" stop-color="#fff"/></radialGradient></defs></svg>