<svg width="221" height="246" fill="none" xmlns="http://www.w3.org/2000/svg"><path style="mix-blend-mode:multiply" d="M180.024 171.767c47.385 14.41 54.712 40.512 16.318 58.292-38.393 17.78-107.886 20.533-155.267 6.127-47.381-14.406-54.692-40.512-16.323-58.307 38.37-17.796 107.891-20.518 155.272-6.112Z" fill="url(#a)"/><path d="M110.478 204.948c-22.787 0-44.286-2.876-62.15-8.313-25.13-7.639-39.555-19.443-40.618-33.232-.523-6.786 2.098-19.801 25.514-30.659 19.172-8.892 47.38-13.99 77.389-13.99 22.786 0 44.285 2.873 62.149 8.31 25.13 7.642 39.555 19.446 40.618 33.235.523 6.791-2.097 19.801-25.514 30.659-19.172 8.893-47.381 13.99-77.388 13.99Z" fill="#8EDBDC" style="mix-blend-mode:multiply" opacity=".2"/><path d="M170.353 134.113c40.794 12.405 47.087 34.882 14.05 50.198-33.038 15.316-92.89 17.684-133.704 5.279-40.814-12.405-47.09-34.882-14.053-50.202 33.037-15.32 92.91-17.684 133.707-5.275Z" fill="#029894" style="mix-blend-mode:multiply"/><g style="mix-blend-mode:multiply"><path d="M158.178 139.758c32.493 9.879 37.502 27.763 11.191 39.983-26.312 12.22-73.983 14.083-106.476 4.203-32.494-9.879-37.503-27.783-11.191-39.983 26.311-12.201 73.982-14.082 106.476-4.203Z" fill="url(#b)"/><path d="M158.178 139.758c32.493 9.879 37.502 27.763 11.191 39.983-26.312 12.22-73.983 14.083-106.476 4.203-32.494-9.879-37.503-27.783-11.191-39.983 26.311-12.201 73.982-14.082 106.476-4.203Z" fill="url(#c)"/><path d="M158.178 139.758c32.493 9.879 37.502 27.763 11.191 39.983-26.312 12.22-73.983 14.083-106.476 4.203-32.494-9.879-37.503-27.783-11.191-39.983 26.311-12.201 73.982-14.082 106.476-4.203Z" fill="url(#d)"/></g><path d="M110.478 219.616c-22.787 0-44.286-2.872-62.15-8.309-25.13-7.643-39.555-19.446-40.618-33.232-.523-6.79 2.098-19.801 25.514-30.659 19.172-8.892 47.38-13.994 77.389-13.994 22.786 0 44.285 2.877 62.149 8.314 25.13 7.639 39.555 19.442 40.618 33.231.523 6.791-2.097 19.801-25.514 30.66-19.172 8.892-47.381 13.989-77.388 13.989Z" fill="#8EDBDC" style="mix-blend-mode:multiply" opacity=".2"/><path d="M178.311 136.399h-13.423a74.055 74.055 0 0 0-11.703-4.569c-29.091-8.846-71.77-7.161-95.326 3.763a39.6 39.6 0 0 0-1.635.806h-13.33V150.1c-1.226 7.909 7.36 15.922 24.987 21.289 29.092 8.842 71.771 7.161 95.326-3.763 10.173-4.716 15.104-10.385 15.096-16.018l.008-15.209Z" fill="#E6EDEB"/><path d="M153.19 116.621c29.087 8.846 33.573 24.872 10.017 35.796-23.555 10.924-66.238 12.605-95.326 3.76-29.087-8.846-33.573-24.872-10.017-35.796 23.555-10.924 66.234-12.606 95.326-3.76Z" fill="#FAFFFE"/><path style="mix-blend-mode:multiply" d="M110.536 161.926c37.433 0 67.78-11.429 67.78-25.527s-30.347-25.527-67.78-25.527c-37.434 0-67.78 11.429-67.78 25.527s30.346 25.527 67.78 25.527Z" fill="url(#e)"/><path d="M178.311 111.211h-13.423a73.633 73.633 0 0 0-11.703-4.569c-29.091-8.846-71.77-7.16-95.326 3.763a39.6 39.6 0 0 0-1.635.806h-13.33v13.701c-1.226 7.909 7.36 15.918 24.987 21.285 29.092 8.846 71.771 7.165 95.326-3.759 10.173-4.72 15.104-10.389 15.096-16.018l.008-15.209Z" fill="#E6EDEB"/><path d="M153.19 91.434c29.087 8.846 33.573 24.871 10.017 35.796-23.555 10.924-66.238 12.605-95.326 3.759-29.087-8.846-33.573-24.871-10.017-35.796 23.555-10.924 66.234-12.605 95.326-3.76Z" fill="#FAFFFE"/><path style="mix-blend-mode:multiply" opacity=".25" d="M110.536 124.449c19.409 0 35.143-5.926 35.143-13.238 0-7.311-15.734-13.237-35.143-13.237-19.41 0-35.143 5.926-35.143 13.237 0 7.312 15.734 13.238 35.143 13.238Z" fill="url(#f)"/><path d="M108.43 22.249c0 4.694-1.156 8.238-3.468 10.63-2.311 2.394-5.424 3.59-9.338 3.59-3.947 0-7.082-1.196-9.405-3.59-2.322-2.392-3.478-5.936-3.467-10.63v-7.304c0-4.694 1.148-8.237 3.443-10.63C88.49 1.92 91.61.724 95.554.724c3.928 0 7.053 1.201 9.376 3.605 2.322 2.403 3.482 5.942 3.479 10.615l.021 7.304Zm-8.53-7.851c0-2.658-.37-4.567-1.112-5.726a3.444 3.444 0 0 0-1.346-1.3 3.715 3.715 0 0 0-1.867-.443c-.654-.022-1.3.13-1.866.438a3.385 3.385 0 0 0-1.336 1.305c-.714 1.162-1.073 3.07-1.075 5.726v8.352c0 2.702.362 4.63 1.087 5.784.316.544.786.995 1.358 1.3a3.706 3.706 0 0 0 1.88.431c.65.021 1.294-.13 1.857-.436a3.381 3.381 0 0 0 1.333-1.295c.728-1.154 1.09-3.082 1.087-5.784v-8.352ZM138.65 35.969h-25.759v-5.248l11.857-11.742a23.572 23.572 0 0 0 3.312-4.342 7.043 7.043 0 0 0 1.063-3.316 4.587 4.587 0 0 0-1.075-3.2c-.714-.795-1.789-1.192-3.226-1.192a3.627 3.627 0 0 0-1.729.392c-.53.27-.975.667-1.293 1.15a6.578 6.578 0 0 0-1.1 3.926h-8.353l-.049-.143c-.076-1.506.182-3.01.757-4.417a10.812 10.812 0 0 1 2.584-3.754C117.95 1.847 121.011.73 124.822.73c4.048 0 7.207.938 9.478 2.814 2.27 1.877 3.404 4.448 3.402 7.713a9.774 9.774 0 0 1-1.808 5.822c-1.204 1.684-3.427 4.19-6.668 7.516l-4.985 5.036.074.142h14.335v6.197Z" fill="#029894"/><path fill-rule="evenodd" clip-rule="evenodd" d="m129.817 107.463-5.17-.861-2.564 4.268c-1.862 2.142-3.044-1.381-3.563-2.608l-4.991-8.747c1.15-.37 2.538-1.44 3.961-2.641 2.843.054 5.492-.404 7.439-2.708l5.734 10.294.497.99c.394 1.285.188 2.134-1.343 2.013Zm-19.148-47.025c.971-.038 1.737.274 2.511.732.98.578 2.086 1.722 3.451 2.445 1.92 1.02 5.474-.386 7.291 2.126 1.061 1.464 1.11 2.612 1.191 3.748.085 1.222.318 2.35 1.665 4.005 2.233 2.745 2.699 4.571 1.549 6.472-.784 1.298-2.435 2.017-2.816 2.84-.814 1.748.085 3.066-1.025 5.104-.774 1.414-1.965 2.346-3.554 2.82-1.338.4-2.681-.179-3.755.242-1.884.736-3.272 2.445-4.771 2.878a6.075 6.075 0 0 1-1.732.245 6.077 6.077 0 0 1-1.733-.245c-1.499-.433-2.887-2.142-4.771-2.878-1.074-.42-2.417.162-3.755-.242-1.59-.474-2.78-1.406-3.554-2.82-1.115-2.038-.215-3.356-1.025-5.103-.38-.824-2.032-1.543-2.815-2.841-1.16-1.9-.694-3.727 1.54-6.468 1.346-1.655 1.58-2.782 1.664-4.005.08-1.136.13-2.284 1.19-3.748 1.823-2.512 5.376-1.106 7.292-2.125 1.365-.724 2.471-1.868 3.451-2.446.77-.462 1.54-.778 2.511-.736Zm-3.155 14.882 2.336 2.067 4.019-3.797c.399-.375.649-.674 1.137-.208l1.594 1.514c.523.482.496.76.004 1.21l-5.845 5.34c-1.039.949-.86 1.007-1.916.034l-4.015-3.71c-.219-.22-.197-.445.045-.666l1.848-1.78c.282-.275.506-.258.793-.004Zm3.155-8.132c5.989 0 10.845 4.513 10.845 10.078 0 5.566-4.856 10.079-10.845 10.079-5.989 0-10.845-4.513-10.845-10.079 0-5.569 4.856-10.078 10.845-10.078Zm-19.152 40.275 5.174-.861 2.564 4.268c1.862 2.142 3.044-1.381 3.563-2.608l4.991-8.747c-1.15-.37-2.538-1.44-3.961-2.641-2.842.054-5.492-.404-7.44-2.708l-5.737 10.294-.497.99c-.394 1.285-.188 2.134 1.343 2.013Z" fill="#029894"/><defs><radialGradient id="a" cx="0" cy="0" r="1" gradientUnits="userSpaceOnUse" gradientTransform="matrix(107.502 0 0 39.5395 110.547 191.841)"><stop stop-color="#8EDBDC"/><stop offset="1" stop-color="#fff"/></radialGradient><radialGradient id="b" cx="0" cy="0" r="1" gradientUnits="userSpaceOnUse" gradientTransform="matrix(53.75846 -19.99377 13.06495 35.12852 113.601 161.19)"><stop stop-color="#8EDBDC"/><stop offset=".44" stop-color="#90DCDD"/><stop offset=".6" stop-color="#97DEDF"/><stop offset=".71" stop-color="#A2E2E2"/><stop offset=".8" stop-color="#B3E7E8"/><stop offset=".88" stop-color="#C9EEEE"/><stop offset=".95" stop-color="#E4F6F7"/><stop offset="1" stop-color="#fff"/></radialGradient><radialGradient id="c" cx="0" cy="0" r="1" gradientUnits="userSpaceOnUse" gradientTransform="matrix(53.75846 -19.99377 13.06495 35.12852 113.601 161.19)"><stop stop-color="#80E3C8"/><stop offset=".43" stop-color="#82E3C9"/><stop offset=".58" stop-color="#89E5CC"/><stop offset=".69" stop-color="#94E8D1"/><stop offset=".78" stop-color="#A5EBD8"/><stop offset=".86" stop-color="#BBF0E2"/><stop offset=".93" stop-color="#D7F6ED"/><stop offset=".99" stop-color="#F6FDFB"/><stop offset="1" stop-color="#fff"/></radialGradient><radialGradient id="d" cx="0" cy="0" r="1" gradientUnits="userSpaceOnUse" gradientTransform="matrix(53.75846 -19.99377 13.06495 35.12852 113.601 161.19)"><stop stop-color="#80E3C8"/><stop offset=".43" stop-color="#82E3C9"/><stop offset=".58" stop-color="#89E5CC"/><stop offset=".69" stop-color="#94E8D1"/><stop offset=".78" stop-color="#A5EBD8"/><stop offset=".86" stop-color="#BBF0E2"/><stop offset=".93" stop-color="#D7F6ED"/><stop offset=".99" stop-color="#F6FDFB"/><stop offset="1" stop-color="#fff"/></radialGradient><radialGradient id="e" cx="0" cy="0" r="1" gradientUnits="userSpaceOnUse" gradientTransform="matrix(67.5713 0 0 23.5783 110.536 139.608)"><stop stop-color="#8EDBDC"/><stop offset="1" stop-color="#fff"/></radialGradient><radialGradient id="f" cx="0" cy="0" r="1" gradientUnits="userSpaceOnUse" gradientTransform="matrix(35.0368 0 0 12.2257 110.536 114.387)"><stop stop-color="#8EDBDC"/><stop offset="1" stop-color="#fff"/></radialGradient></defs></svg>