<svg width="222" height="249" fill="none" xmlns="http://www.w3.org/2000/svg"><path style="mix-blend-mode:multiply" d="M180.142 175.412c47.405 14.382 54.691 40.443 16.33 58.196-38.361 17.754-107.887 20.503-155.272 6.121-47.384-14.381-54.687-40.446-16.318-58.207 38.37-17.762 107.875-20.495 155.26-6.11Z" fill="url(#a)"/><path d="M110.607 209.195c-22.786 0-44.285-2.871-62.15-8.299-25.129-7.63-39.554-19.409-40.617-33.175-.524-6.779 2.097-19.767 25.514-30.607 19.172-8.877 47.38-13.966 77.388-13.966 22.787 0 44.286 2.868 62.17 8.296 25.13 7.63 39.555 19.413 40.618 33.178.524 6.776-2.097 19.764-25.514 30.604-19.192 8.876-47.401 13.969-77.409 13.969Z" fill="#029894" style="mix-blend-mode:multiply" opacity=".2"/><path d="M170.484 138.481c40.794 12.384 47.087 34.818 14.049 50.112-33.037 15.294-92.889 17.654-133.703 5.27-40.815-12.384-47.087-34.822-14.05-50.116 33.038-15.294 92.906-17.65 133.704-5.266Z" fill="#029894" style="mix-blend-mode:multiply"/><path d="M158.307 144.116c32.494 9.862 37.503 27.716 11.191 39.915-26.311 12.199-73.982 14.058-106.476 4.192-32.493-9.866-37.502-27.716-11.19-39.911 26.31-12.195 73.982-14.058 106.475-4.196Z" fill="url(#b)"/><path d="M158.307 144.116c32.494 9.862 37.503 27.716 11.191 39.915-26.311 12.199-73.982 14.058-106.476 4.192-32.493-9.866-37.502-27.716-11.19-39.911 26.31-12.195 73.982-14.058 106.475-4.196Z" fill="url(#c)"/><path d="M158.307 144.116c32.494 9.862 37.503 27.716 11.191 39.915-26.311 12.199-73.982 14.058-106.476 4.192-32.493-9.866-37.502-27.716-11.19-39.911 26.31-12.195 73.982-14.058 106.475-4.196Z" fill="url(#d)"/><path d="M110.607 223.839c-22.786 0-44.285-2.868-62.15-8.3-25.129-7.625-39.554-19.409-40.617-33.174-.524-6.779 2.097-19.767 25.514-30.607 19.172-8.877 47.38-13.966 77.388-13.966 22.787 0 44.286 2.868 62.17 8.299 25.13 7.626 39.555 19.409 40.618 33.175.524 6.775-2.097 19.767-25.514 30.607-19.192 8.873-47.401 13.966-77.409 13.966Z" fill="#029894" style="mix-blend-mode:multiply" opacity=".2"/><path d="M178.445 140.764h-13.424a73.762 73.762 0 0 0-11.702-4.547c-29.092-8.83-71.77-7.148-95.326 3.754-.572.265-1.112.535-1.635.808H43.024v13.673c-1.227 7.899 7.36 15.895 24.987 21.253 29.091 8.831 71.77 7.148 95.326-3.753 10.173-4.712 15.104-10.371 15.096-15.991l.012-15.197Z" fill="#E6EFEC"/><path d="M153.319 121.02c29.087 8.83 33.573 24.829 10.017 35.73-23.555 10.902-66.238 12.588-95.326 3.757-29.088-8.83-33.573-24.829-10.017-35.734 23.555-10.906 66.234-12.584 95.326-3.753Z" fill="#F8FFFD"/><path style="mix-blend-mode:multiply" d="M110.592 166.274c37.474 0 67.853-11.422 67.853-25.511 0-14.089-30.379-25.51-67.853-25.51-37.475 0-67.854 11.421-67.854 25.51 0 14.089 30.38 25.511 67.854 25.511Z" fill="url(#e)"/><path d="M178.445 115.619h-13.424a73.785 73.785 0 0 0-11.702-4.562c-29.092-8.83-71.77-7.152-95.326 3.754-.572.265-1.112.535-1.635.808H43.024v13.669c-1.227 7.9 7.36 15.895 24.987 21.253 29.091 8.831 71.77 7.149 95.326-3.757 10.173-4.708 15.104-10.366 15.096-15.987l.012-15.178Z" fill="#E6EFEC"/><path d="M153.319 95.871c29.087 8.831 33.573 24.829 10.017 35.735-23.555 10.905-66.238 12.587-95.326 3.757-29.088-8.831-33.573-24.829-10.017-35.735 23.555-10.905 66.234-12.584 95.326-3.757Z" fill="#F8FFFD"/><path style="mix-blend-mode:multiply" opacity=".25" d="M110.591 128.834c19.409 0 35.143-5.917 35.143-13.215 0-7.299-15.734-13.215-35.143-13.215s-35.143 5.916-35.143 13.215c0 7.298 15.734 13.215 35.143 13.215Z" fill="url(#f)"/><path d="M108.489 21.558c0 4.684-1.156 8.222-3.467 10.613-2.312 2.392-5.423 3.584-9.335 3.577-3.95 0-7.084-1.195-9.404-3.584-2.32-2.39-3.476-5.927-3.468-10.613v-7.283c0-4.686 1.148-8.224 3.443-10.613C88.553 1.265 91.673.07 95.618.07c3.93 0 7.055 1.2 9.375 3.6 2.32 2.399 3.48 5.931 3.48 10.597l.016 7.29Zm-8.513-7.837c0-2.651-.37-4.556-1.112-5.716a3.438 3.438 0 0 0-1.346-1.298 3.716 3.716 0 0 0-1.868-.442 3.66 3.66 0 0 0-1.866.437 3.382 3.382 0 0 0-1.335 1.303c-.715 1.16-1.073 3.065-1.076 5.716v8.338c0 2.697.364 4.622 1.092 5.774.315.544.785.994 1.357 1.3a3.701 3.701 0 0 0 1.881.428c.65.021 1.292-.13 1.855-.435a3.376 3.376 0 0 0 1.33-1.293c.728-1.152 1.09-3.077 1.088-5.774V13.72ZM131.051 35.254h-8.521V8.647h-8.222v-5.67l16.764-2.43-.021 34.707Z" fill="#029894"/><g clip-path="url(#g)"><path d="M90.826 62.306v37.263h50.43v5.405h-53.34c-1.61 0-2.916-1.212-2.916-2.705V62.306h5.826Zm13.079-.69-.483 3.511c-.149 1.083-1.214 1.846-2.381 1.712-1.167-.138-1.99-1.125-1.846-2.208l1.233-8.894c.065-.626.451-1.212 1.083-1.54a2.276 2.276 0 0 1 1.804-.117l9.234 3.3c1.097.393 1.641 1.536 1.218 2.554-.423 1.018-1.655 1.522-2.752 1.13l-3.153-1.126a48.726 48.726 0 0 0 12.061 10.81c6.435 4.075 13.531 6.47 20.231 6.918 1.176.078 2.059 1.022 1.976 2.113-.084 1.092-1.102 1.911-2.279 1.834-7.434-.488-15.273-3.119-22.332-7.592a52.85 52.85 0 0 1-13.614-12.405Zm34.798 29.283v4.848h-6.607V90.9h6.607Zm-11.81-5.103v9.951h-6.602v-9.95h6.602Zm-11.805-3.51v13.461h-6.603V82.285h6.603Zm-11.806-5.35v18.811h-6.607v-18.81h6.607Z" fill="#029894"/></g><defs><radialGradient id="a" cx="0" cy="0" r="1" gradientUnits="userSpaceOnUse" gradientTransform="matrix(107.502 0 0 39.4718 110.665 196.171)"><stop stop-color="#80E3C8"/><stop offset="1" stop-color="#fff"/></radialGradient><radialGradient id="b" cx="0" cy="0" r="1" gradientUnits="userSpaceOnUse" gradientTransform="matrix(53.7585 -19.9595 13.02563 35.08296 112.743 166.257)"><stop stop-color="#80E3C8"/><stop offset=".43" stop-color="#82E3C9"/><stop offset=".58" stop-color="#89E5CC"/><stop offset=".69" stop-color="#94E8D1"/><stop offset=".78" stop-color="#A5EBD8"/><stop offset=".86" stop-color="#BBF0E2"/><stop offset=".93" stop-color="#D7F6ED"/><stop offset=".99" stop-color="#F6FDFB"/><stop offset="1" stop-color="#fff"/></radialGradient><radialGradient id="c" cx="0" cy="0" r="1" gradientUnits="userSpaceOnUse" gradientTransform="matrix(53.7585 -19.9595 13.02563 35.08296 112.743 166.257)"><stop stop-color="#80E3C8"/><stop offset=".43" stop-color="#82E3C9"/><stop offset=".58" stop-color="#89E5CC"/><stop offset=".69" stop-color="#94E8D1"/><stop offset=".78" stop-color="#A5EBD8"/><stop offset=".86" stop-color="#BBF0E2"/><stop offset=".93" stop-color="#D7F6ED"/><stop offset=".99" stop-color="#F6FDFB"/><stop offset="1" stop-color="#fff"/></radialGradient><radialGradient id="d" cx="0" cy="0" r="1" gradientUnits="userSpaceOnUse" gradientTransform="matrix(53.7585 -19.9595 13.02563 35.08296 112.743 166.257)"><stop stop-color="#80E3C8"/><stop offset=".43" stop-color="#82E3C9"/><stop offset=".58" stop-color="#89E5CC"/><stop offset=".69" stop-color="#94E8D1"/><stop offset=".78" stop-color="#A5EBD8"/><stop offset=".86" stop-color="#BBF0E2"/><stop offset=".93" stop-color="#D7F6ED"/><stop offset=".99" stop-color="#F6FDFB"/><stop offset="1" stop-color="#fff"/></radialGradient><radialGradient id="e" cx="0" cy="0" r="1" gradientUnits="userSpaceOnUse" gradientTransform="matrix(67.6449 0 0 23.5636 110.592 143.777)"><stop stop-color="#80E3C8"/><stop offset="1" stop-color="#fff"/></radialGradient><radialGradient id="f" cx="0" cy="0" r="1" gradientUnits="userSpaceOnUse" gradientTransform="matrix(35.0368 0 0 12.2048 110.591 118.599)"><stop stop-color="#80E3C8"/><stop offset="1" stop-color="#fff"/></radialGradient><clipPath id="g"><path fill="#fff" transform="translate(85 53.951)" d="M0 0h57.134v51.023H0z"/></clipPath></defs></svg>