<svg width="222" height="245" fill="none" xmlns="http://www.w3.org/2000/svg"><path style="mix-blend-mode:multiply" d="M180.708 170.471c47.38 14.385 54.687 40.446 16.318 58.207-38.369 17.761-107.887 20.502-155.272 6.117-47.385-14.386-54.687-40.442-16.318-58.204 38.37-17.761 107.887-20.502 155.272-6.12Z" fill="url(#a)"/><path d="M108.619 204.254c-22.787 0-44.286-2.868-62.17-8.296-25.13-7.63-39.555-19.413-40.618-33.175-.523-6.778 2.098-19.766 25.51-30.61 19.176-8.877 47.385-13.966 77.388-13.966 22.791 0 44.29 2.871 62.175 8.299 25.129 7.626 39.555 19.409 40.618 33.175.523 6.779-2.098 19.767-25.514 30.607-19.173 8.877-47.381 13.966-77.389 13.966Z" fill="#001C63" style="mix-blend-mode:multiply" opacity=".2"/><path d="M168.494 133.539c40.794 12.384 47.087 34.822 14.05 50.116-33.038 15.294-92.89 17.65-133.704 5.266-40.814-12.383-47.086-34.822-14.049-50.112 33.038-15.29 92.906-17.653 133.703-5.27Z" fill="#001C63" style="mix-blend-mode:multiply"/><g style="mix-blend-mode:multiply"><path d="M156.318 139.175c32.49 9.866 37.503 27.735 11.191 39.915-26.311 12.179-73.994 14.058-106.476 4.215-32.481-9.843-37.502-27.716-11.19-39.915 26.31-12.199 73.982-14.078 106.475-4.215Z" fill="url(#b)"/><path d="M156.318 139.175c32.49 9.866 37.503 27.735 11.191 39.915-26.311 12.179-73.994 14.058-106.476 4.215-32.481-9.843-37.502-27.716-11.19-39.915 26.31-12.199 73.982-14.078 106.475-4.215Z" fill="url(#c)"/><path d="M156.318 139.175c32.49 9.866 37.503 27.735 11.191 39.915-26.311 12.179-73.994 14.058-106.476 4.215-32.481-9.843-37.502-27.716-11.19-39.915 26.31-12.199 73.982-14.078 106.475-4.215Z" fill="url(#d)"/></g><path d="M108.619 218.901c-22.787 0-44.286-2.872-62.17-8.299-25.13-7.63-39.555-19.409-40.618-33.175-.523-6.779 2.098-19.767 25.51-30.611 19.176-8.854 47.385-13.966 77.388-13.966 22.791 0 44.29 2.872 62.175 8.3 25.129 7.629 39.555 19.409 40.618 33.174.523 6.779-2.098 19.767-25.514 30.607-19.173 8.877-47.381 13.97-77.389 13.97Z" fill="#001C63" style="mix-blend-mode:multiply" opacity=".2"/><path d="M176.452 135.822h-13.427a74.589 74.589 0 0 0-11.703-4.562c-29.091-8.831-71.77-7.148-95.326 3.757-.572.266-1.116.535-1.656.805H41.023v13.677c-1.226 7.895 7.36 15.894 24.991 21.253 29.092 8.83 71.77 7.148 95.326-3.757 10.173-4.708 15.104-10.367 15.096-15.991l.016-15.182Z" fill="#E5E7EA"/><path d="M151.33 116.078c29.088 8.831 33.573 24.829 10.018 35.734-23.556 10.906-66.239 12.588-95.326 3.758-29.088-8.831-33.573-24.829-10.018-35.735 23.556-10.905 66.235-12.588 95.326-3.757Z" fill="#FDFEFF"/><path style="mix-blend-mode:multiply" d="M108.602 161.332c37.475 0 67.854-11.421 67.854-25.51 0-14.089-30.379-25.51-67.854-25.51-37.474 0-67.853 11.421-67.853 25.51 0 14.089 30.379 25.51 67.853 25.51Z" fill="url(#e)"/><path d="M176.452 110.677h-13.427a74.584 74.584 0 0 0-11.703-4.561c-29.091-8.83-71.77-7.149-95.326 3.757-.572.265-1.116.535-1.656.804H41.023v13.677c-1.226 7.896 7.36 15.895 24.991 21.253 29.092 8.831 71.77 7.149 95.326-3.757 10.173-4.708 15.104-10.366 15.096-15.99l.016-15.183Z" fill="#E5E7EA"/><path d="M151.33 90.918c29.088 8.83 33.573 24.829 10.018 35.735-23.556 10.905-66.239 12.583-95.326 3.753-29.088-8.831-33.573-24.829-10.018-35.73 23.556-10.903 66.235-12.573 95.326-3.758Z" fill="#FDFEFF"/><path style="mix-blend-mode:multiply" opacity=".25" d="M108.602 123.893c19.409 0 35.144-5.917 35.144-13.216 0-7.298-15.735-13.215-35.144-13.215s-35.143 5.917-35.143 13.215c0 7.299 15.734 13.216 35.143 13.216Z" fill="url(#f)"/><path d="M106.5 22.26c0 4.683-1.156 8.22-3.467 10.612-2.312 2.392-5.425 3.587-9.34 3.584-3.943 0-7.078-1.194-9.403-3.584-2.326-2.389-3.481-5.926-3.468-10.613v-7.29c0-4.686 1.147-8.224 3.44-10.613 2.292-2.39 5.413-3.584 9.362-3.584 3.928 0 7.054 1.198 9.376 3.595 2.322 2.397 3.482 5.931 3.48 10.602l.02 7.29Zm-8.53-7.838c0-2.651-.37-4.556-1.111-5.716-.314-.541-.78-.99-1.347-1.297a3.724 3.724 0 0 0-1.867-.443c-.653-.022-1.3.13-1.866.437a3.378 3.378 0 0 0-1.336 1.303c-.714 1.16-1.072 3.065-1.075 5.716v8.338c0 2.697.363 4.622 1.088 5.774.315.543.785.993 1.357 1.298a3.708 3.708 0 0 0 1.88.43c.65.021 1.294-.13 1.858-.435a3.38 3.38 0 0 0 1.332-1.293c.728-1.152 1.09-3.077 1.088-5.774v-8.338ZM133.47 22.448h3.721v6.194h-3.721v7.314h-8.55v-7.314h-14.274l-.502-4.916 14.776-22.38v-.074h8.55v21.176Zm-15.689 0h7.139V11.731l-.155-.05-.658.982-6.326 9.785Z" fill="#001C63"/><g clip-path="url(#g)"><path d="m112.273 93.675 6.236 5.785c1.509.04 2.72 1.189 2.72 2.602 0 1.439-1.254 2.602-2.805 2.602-1.55 0-2.804-1.168-2.804-2.602 0-.158.014-.315.042-.468l-5.425-5.029v3.7h-3.884v-3.6l-5.511 5.117c.01.092.014.188.014.284 0 1.439-1.254 2.602-2.81 2.602-1.55 0-2.804-1.167-2.804-2.602 0-1.438 1.259-2.602 2.805-2.602.047 0 .094 0 .137.005l6.236-5.786-24.922-.008V56.93c0-.38.34-.687.76-.687h26.095v-2.602h3.884v2.602h26.425c.419 0 .759.31.759.686V93.67h-25.148v.005Zm-20.1-12.612 10.965-9.944a1837.66 1837.66 0 0 0 8.145 7.526l7.264-6.822-3.37-3.126 9.484-.079v8.873l-3.239-3.004c-3.375 3.17-6.736 6.332-10.12 9.476l-8.221-7.53-8.032 7.298-2.875-2.668Zm40.963-17.92H83.703V89.66h49.433V63.143Z" fill="#001C63"/></g><defs><radialGradient id="a" cx="0" cy="0" r="1" gradientUnits="userSpaceOnUse" gradientTransform="matrix(107.502 0 0 39.4718 111.231 190.515)"><stop stop-color="#5A9BFB"/><stop offset="1" stop-color="#fff"/></radialGradient><radialGradient id="b" cx="0" cy="0" r="1" gradientUnits="userSpaceOnUse" gradientTransform="matrix(53.75846 -19.9596 13.0257 35.08293 113.704 160.571)"><stop stop-color="#7FD4F9"/><stop offset=".43" stop-color="#81D5F9"/><stop offset=".58" stop-color="#88D7F9"/><stop offset=".69" stop-color="#93DBFA"/><stop offset=".78" stop-color="#A4E1FB"/><stop offset=".86" stop-color="#BAE8FC"/><stop offset=".92" stop-color="#D6F1FD"/><stop offset=".98" stop-color="#F5FCFF"/><stop offset="1" stop-color="#fff"/></radialGradient><radialGradient id="c" cx="0" cy="0" r="1" gradientUnits="userSpaceOnUse" gradientTransform="matrix(53.75846 -19.9596 13.0257 35.08293 113.704 160.571)"><stop stop-color="#80E3C8"/><stop offset=".43" stop-color="#82E3C9"/><stop offset=".58" stop-color="#89E5CC"/><stop offset=".69" stop-color="#94E8D1"/><stop offset=".78" stop-color="#A5EBD8"/><stop offset=".86" stop-color="#BBF0E2"/><stop offset=".93" stop-color="#D7F6ED"/><stop offset=".99" stop-color="#F6FDFB"/><stop offset="1" stop-color="#fff"/></radialGradient><radialGradient id="d" cx="0" cy="0" r="1" gradientUnits="userSpaceOnUse" gradientTransform="matrix(53.75846 -19.9596 13.0257 35.08293 113.704 160.571)"><stop stop-color="#5A9BFB"/><stop offset=".41" stop-color="#5C9CFB"/><stop offset=".55" stop-color="#63A0FB"/><stop offset=".66" stop-color="#6EA7FB"/><stop offset=".74" stop-color="#7FB2FC"/><stop offset=".81" stop-color="#95BFFC"/><stop offset=".88" stop-color="#B1CFFD"/><stop offset=".94" stop-color="#D1E3FE"/><stop offset=".99" stop-color="#F5F9FF"/><stop offset="1" stop-color="#fff"/></radialGradient><radialGradient id="e" cx="0" cy="0" r="1" gradientUnits="userSpaceOnUse" gradientTransform="matrix(67.6449 0 0 23.5636 108.602 139.026)"><stop stop-color="#5A9BFB"/><stop offset="1" stop-color="#fff"/></radialGradient><radialGradient id="f" cx="0" cy="0" r="1" gradientUnits="userSpaceOnUse" gradientTransform="matrix(35.0369 0 0 12.2048 108.602 113.848)"><stop stop-color="#5A9BFB"/><stop offset="1" stop-color="#fff"/></radialGradient><clipPath id="g"><path fill="#fff" transform="translate(79.498 53.641)" d="M0 0h57.922v51.023H0z"/></clipPath></defs></svg>