<svg width="222" height="244" fill="none" xmlns="http://www.w3.org/2000/svg"><path style="mix-blend-mode:multiply" d="M180.562 169.471c47.381 14.385 54.687 40.446 16.318 58.207-38.369 17.762-107.887 20.502-155.272 6.117-47.384-14.385-54.687-40.442-16.318-58.207 38.37-17.766 107.887-20.499 155.272-6.117Z" fill="url(#a)"/><path d="M108.485 203.254c-22.787 0-44.286-2.868-62.15-8.296-25.13-7.629-39.555-19.413-40.618-33.178-.523-6.779 2.098-19.767 25.51-30.607 19.177-8.877 47.385-13.966 77.389-13.966 22.79 0 44.289 2.872 62.174 8.299 25.129 7.626 39.555 19.409 40.618 33.175.519 6.775-2.098 19.767-25.514 30.607-19.205 8.877-47.414 13.966-77.409 13.966Z" fill="#001C63" style="mix-blend-mode:multiply" opacity=".2"/><path d="M108.485 217.901c-22.787 0-44.286-2.872-62.15-8.299-25.13-7.63-39.555-19.409-40.618-33.175-.523-6.779 2.098-19.767 25.51-30.611 19.177-8.854 47.385-13.966 77.389-13.966 22.79 0 44.289 2.872 62.174 8.3 25.129 7.629 39.555 19.409 40.618 33.174.519 6.779-2.098 19.767-25.514 30.607-19.205 8.877-47.414 13.97-77.409 13.97Z" fill="#001C63" style="mix-blend-mode:multiply" opacity=".2"/><path d="M168.345 132.539c40.798 12.384 47.091 34.822 14.053 50.116-33.037 15.294-92.889 17.65-133.703 5.266-40.815-12.383-47.087-34.822-14.05-50.116 33.038-15.294 92.906-17.649 133.7-5.266Z" fill="#001C63" style="mix-blend-mode:multiply"/><g style="mix-blend-mode:multiply"><path d="M156.172 138.175c32.489 9.866 37.502 27.735 11.191 39.915s-73.983 14.058-106.476 4.196c-32.494-9.863-37.503-27.716-11.191-39.915 26.311-12.199 73.982-14.058 106.476-4.196Z" fill="url(#b)"/><path d="M156.172 138.175c32.489 9.866 37.502 27.735 11.191 39.915s-73.983 14.058-106.476 4.196c-32.494-9.863-37.503-27.716-11.191-39.915 26.311-12.199 73.982-14.058 106.476-4.196Z" fill="url(#c)"/><path d="M156.172 138.175c32.489 9.866 37.502 27.735 11.191 39.915s-73.983 14.058-106.476 4.196c-32.494-9.863-37.503-27.716-11.191-39.915 26.311-12.199 73.982-14.058 106.476-4.196Z" fill="url(#d)"/></g><path d="M176.305 134.822h-13.419a74.524 74.524 0 0 0-11.706-4.562c-29.088-8.83-71.767-7.148-95.322 3.757-.572.266-1.116.535-1.656.805H40.885v13.677c-1.227 7.895 7.34 15.894 24.99 21.253 29.092 8.83 71.771 7.148 95.326-3.757 10.173-4.708 15.104-10.367 15.096-15.991l.008-15.182Z" fill="#E6E6ED"/><path d="M151.18 115.078c29.091 8.831 33.577 24.829 10.021 35.734-23.555 10.906-66.238 12.584-95.326 3.757-29.087-8.826-33.573-24.832-10.017-35.734 23.555-10.902 66.234-12.588 95.322-3.757Z" fill="#FAFAFF"/><path style="mix-blend-mode:multiply" d="M108.456 160.332c37.474 0 67.853-11.421 67.853-25.51 0-14.089-30.379-25.51-67.853-25.51-37.475 0-67.853 11.421-67.853 25.51 0 14.089 30.378 25.51 67.853 25.51Z" fill="url(#e)"/><path d="M176.305 109.677h-13.419a74.19 74.19 0 0 0-11.706-4.561c-29.088-8.831-71.767-7.149-95.322 3.757a63.17 63.17 0 0 0-1.656.804H40.885v13.677c-1.227 7.896 7.34 15.895 24.99 21.253 29.092 8.831 71.771 7.149 95.326-3.757 10.173-4.708 15.104-10.366 15.096-15.991l.008-15.182Z" fill="#E6E6ED"/><path d="M151.18 89.918c29.091 8.83 33.577 24.829 10.021 35.735-23.555 10.905-66.238 12.583-95.326 3.753-29.087-8.831-33.573-24.829-10.017-35.73 23.555-10.903 66.234-12.573 95.322-3.758Z" fill="#FAFAFF"/><path style="mix-blend-mode:multiply" opacity=".25" d="M108.456 122.893c19.409 0 35.143-5.917 35.143-13.216 0-7.298-15.734-13.215-35.143-13.215s-35.143 5.917-35.143 13.215c0 7.299 15.734 13.216 35.143 13.216Z" fill="url(#f)"/><path d="M106.35 21.744c0 4.684-1.155 8.222-3.463 10.613-2.309 2.392-5.422 3.588-9.34 3.588-3.944 0-7.071-1.196-9.383-3.588-2.311-2.391-3.473-5.929-3.484-10.613V14.47c0-4.686 1.147-8.224 3.44-10.613C86.41 1.466 89.532.272 93.481.272c3.931 0 7.056 1.199 9.376 3.596 2.32 2.397 3.478 5.93 3.475 10.601l.017 7.275Zm-8.525-7.833c0-2.651-.371-4.558-1.112-5.72a3.442 3.442 0 0 0-1.347-1.295 3.72 3.72 0 0 0-1.867-.442 3.648 3.648 0 0 0-1.866.435 3.37 3.37 0 0 0-1.336 1.302c-.714 1.162-1.072 3.069-1.075 5.72v8.334c0 2.702.363 4.627 1.088 5.774a3.44 3.44 0 0 0 1.358 1.297 3.717 3.717 0 0 0 1.88.431c.65.02 1.293-.13 1.856-.436a3.388 3.388 0 0 0 1.333-1.292c.725-1.152 1.088-3.077 1.088-5.774V13.91ZM125.935.26a19.78 19.78 0 0 1 3.872.343 25.72 25.72 0 0 1 3.746 1.109l-1.419 5.859a36.696 36.696 0 0 0-3.099-.747 16.366 16.366 0 0 0-3.051-.25 6.422 6.422 0 0 0-2.68.48 6.072 6.072 0 0 0-2.189 1.533c-1.222 1.34-1.808 3.296-1.758 5.87l.077.12a7.442 7.442 0 0 1 2.96-1.86 12.36 12.36 0 0 1 4.2-.665c3.287 0 5.847 1.115 7.678 3.345 1.832 2.23 2.747 5.085 2.744 8.565 0 3.428-1.21 6.284-3.631 8.565-2.42 2.281-5.51 3.42-9.269 3.418-4.034 0-7.29-1.247-9.768-3.742-2.478-2.494-3.718-5.908-3.721-10.243v-6.979c0-4.573 1.43-8.166 4.289-10.778 2.86-2.613 6.533-3.927 11.019-3.942Zm-1.696 17.985a9.195 9.195 0 0 0-3.047.45 4.812 4.812 0 0 0-2.011 1.256v2.04c0 2.502.435 4.427 1.304 5.774a3.93 3.93 0 0 0 1.517 1.482 4.25 4.25 0 0 0 2.114.524c1.281 0 2.326-.57 3.136-1.71a6.821 6.821 0 0 0 1.227-4.057c0-1.755-.393-3.151-1.178-4.188a3.515 3.515 0 0 0-1.315-1.159 3.768 3.768 0 0 0-1.747-.412Z" fill="#001C63"/><g clip-path="url(#g)" fill="#001C63"><path d="M113.204 65.235c.627-.737 1.015-1.666 1.015-2.675 0-2.385-2.085-4.324-4.655-4.324-2.571 0-4.659 1.94-4.659 4.324 0 1.01.333 1.938.96 2.675-1.919 1.128-3.24 3.115-3.24 5.374v5.262c0 .8.788 1.495 1.652 1.495h10.586c.863 0 1.513-.695 1.513-1.495v-5.262c0-2.26-1.253-4.246-3.172-5.374ZM99.083 82.307v-5.261c0-2.26-1.2-4.246-3.119-5.375.627-.736 1.042-1.665 1.042-2.674 0-2.385-2.071-4.325-4.642-4.325-2.57 0-4.651 1.94-4.651 4.325 0 1.01.386 1.938 1.013 2.674-1.92 1.13-3.186 3.116-3.186 5.375v5.261c0 .801.687 1.438 1.55 1.438h10.587c.863 0 1.406-.637 1.406-1.438ZM130.345 71.671c.627-.736 1.043-1.665 1.043-2.674 0-2.385-2.071-4.324-4.641-4.324-2.571 0-4.652 1.94-4.652 4.324 0 1.01.384 1.938 1.011 2.674-1.919 1.13-3.188 3.116-3.188 5.375v5.261c0 .801.693 1.438 1.556 1.438h10.586c.864 0 1.401-.637 1.401-1.438v-5.26c0-2.26-1.197-4.247-3.116-5.376ZM113.204 97.176c.627-.737 1.015-1.666 1.015-2.675 0-2.384-2.085-4.324-4.655-4.324-2.571 0-4.659 1.94-4.659 4.324 0 1.01.333 1.938.96 2.675-1.919 1.128-3.24 3.115-3.24 5.375v5.261c0 .801.788 1.446 1.652 1.446h10.586c.863 0 1.513-.646 1.513-1.446v-5.261c0-2.26-1.253-4.247-3.172-5.375Zm-3.634-4.1c.847 0 1.536.64 1.536 1.425 0 .786-.689 1.425-1.536 1.425-.847 0-1.536-.639-1.536-1.425 0-.785.689-1.425 1.536-1.425Zm3.681 13.283h-7.501v-3.808c0-1.909 1.693-3.461 3.751-3.461 2.056 0 3.75 1.552 3.75 3.461v3.808ZM110.959 85.016v-4.804c0-.8-.7-1.45-1.563-1.45s-1.563.65-1.563 1.45v4.804c0 .801.7 1.45 1.563 1.45s1.563-.65 1.563-1.45ZM94.362 85.33a1.65 1.65 0 0 0-2.21.056 1.377 1.377 0 0 0 .06 2.05l7.858 6.9c.302.266.688.398 1.074.398.414 0 .827-.152 1.135-.453a1.377 1.377 0 0 0-.061-2.05l-7.856-6.901ZM124.763 85.31l-7.836 6.917a1.377 1.377 0 0 0-.054 2.05c.307.299.719.45 1.132.45.387 0 .774-.133 1.077-.4l7.835-6.918c.625-.551.65-1.469.055-2.049-.595-.58-1.584-.602-2.209-.05Z"/></g><defs><radialGradient id="a" cx="0" cy="0" r="1" gradientUnits="userSpaceOnUse" gradientTransform="matrix(107.502 0 0 39.4718 111.085 189.516)"><stop stop-color="#1628B1"/><stop offset="1" stop-color="#fff"/></radialGradient><radialGradient id="b" cx="0" cy="0" r="1" gradientUnits="userSpaceOnUse" gradientTransform="matrix(53.75846 -19.9596 13.0257 35.08293 115.532 159.571)"><stop stop-color="#80E3C8"/><stop offset=".43" stop-color="#82E3C9"/><stop offset=".58" stop-color="#89E5CC"/><stop offset=".69" stop-color="#94E8D1"/><stop offset=".78" stop-color="#A5EBD8"/><stop offset=".86" stop-color="#BBF0E2"/><stop offset=".93" stop-color="#D7F6ED"/><stop offset=".99" stop-color="#F6FDFB"/><stop offset="1" stop-color="#fff"/></radialGradient><radialGradient id="c" cx="0" cy="0" r="1" gradientUnits="userSpaceOnUse" gradientTransform="matrix(53.75846 -19.9596 13.0257 35.08293 115.532 159.571)"><stop stop-color="#80E3C8"/><stop offset=".43" stop-color="#82E3C9"/><stop offset=".58" stop-color="#89E5CC"/><stop offset=".69" stop-color="#94E8D1"/><stop offset=".78" stop-color="#A5EBD8"/><stop offset=".86" stop-color="#BBF0E2"/><stop offset=".93" stop-color="#D7F6ED"/><stop offset=".99" stop-color="#F6FDFB"/><stop offset="1" stop-color="#fff"/></radialGradient><radialGradient id="d" cx="0" cy="0" r="1" gradientUnits="userSpaceOnUse" gradientTransform="matrix(53.75846 -19.9596 13.0257 35.08293 115.532 159.571)"><stop stop-color="#1628B1"/><stop offset=".38" stop-color="#182AB2"/><stop offset=".52" stop-color="#1F30B4"/><stop offset=".61" stop-color="#2A3BB8"/><stop offset=".69" stop-color="#3B4BBE"/><stop offset=".76" stop-color="#515FC5"/><stop offset=".82" stop-color="#6D78CE"/><stop offset=".87" stop-color="#8D96D9"/><stop offset=".92" stop-color="#B3B9E5"/><stop offset=".97" stop-color="#DCDFF3"/><stop offset="1" stop-color="#fff"/></radialGradient><radialGradient id="e" cx="0" cy="0" r="1" gradientUnits="userSpaceOnUse" gradientTransform="matrix(67.6449 0 0 23.5636 108.456 138.026)"><stop stop-color="#1628B1"/><stop offset="1" stop-color="#fff"/></radialGradient><radialGradient id="f" cx="0" cy="0" r="1" gradientUnits="userSpaceOnUse" gradientTransform="matrix(35.0368 0 0 12.2048 108.456 112.848)"><stop stop-color="#1628B1"/><stop offset="1" stop-color="#fff"/></radialGradient><clipPath id="g"><path fill="#fff" transform="translate(82 58.236)" d="M0 0h55v51.023H0z"/></clipPath></defs></svg>