<svg width="221" height="249" fill="none" xmlns="http://www.w3.org/2000/svg"><path style="mix-blend-mode:multiply" d="M179.956 175.412c47.385 14.382 54.691 40.443 16.318 58.204-38.373 17.761-107.887 20.502-155.268 6.121-47.38-14.382-54.691-40.447-16.322-58.208 38.37-17.761 107.891-20.502 155.272-6.117Z" fill="url(#a)"/><path d="M110.426 209.195c-22.79 0-44.285-2.872-62.17-8.299-25.134-7.63-39.559-19.409-40.622-33.175-.52-6.779 2.098-19.767 25.514-30.607 19.172-8.877 47.381-13.97 77.389-13.97 22.786 0 44.285 2.872 62.149 8.3 25.13 7.629 39.555 19.413 40.618 33.178.524 6.775-2.093 19.767-25.51 30.607-19.156 8.873-47.36 13.966-77.368 13.966Z" fill="#029894" style="mix-blend-mode:multiply" opacity=".2"/><path d="M170.299 138.481c40.798 12.384 47.086 34.818 14.049 50.112-33.037 15.294-92.889 17.654-133.703 5.27-40.815-12.384-47.087-34.822-14.053-50.116 33.033-15.294 92.893-17.65 133.707-5.266Z" fill="#029894" style="mix-blend-mode:multiply"/><g style="mix-blend-mode:multiply"><path d="M158.106 144.116c32.493 9.862 37.502 27.716 11.191 39.915-26.312 12.199-73.983 14.058-106.472 4.192-32.49-9.866-37.507-27.716-11.191-39.911 26.315-12.195 73.999-14.058 106.472-4.196Z" fill="url(#b)"/><path d="M158.106 144.116c32.493 9.862 37.502 27.716 11.191 39.915-26.312 12.199-73.983 14.058-106.472 4.192-32.49-9.866-37.507-27.716-11.191-39.911 26.315-12.195 73.999-14.058 106.472-4.196Z" fill="url(#c)"/><path d="M158.106 144.116c32.493 9.862 37.502 27.716 11.191 39.915-26.312 12.199-73.983 14.058-106.472 4.192-32.49-9.866-37.507-27.716-11.191-39.911 26.315-12.195 73.999-14.058 106.472-4.196Z" fill="url(#d)"/></g><path d="M110.426 223.839c-22.79 0-44.285-2.868-62.17-8.3-25.134-7.625-39.559-19.409-40.622-33.174-.52-6.775 2.098-19.767 25.514-30.607 19.172-8.877 47.381-13.966 77.389-13.966 22.786 0 44.285 2.868 62.149 8.299 25.13 7.626 39.555 19.409 40.618 33.175.524 6.779-2.093 19.767-25.51 30.607-19.156 8.877-47.36 13.966-77.368 13.966Z" fill="#029894" style="mix-blend-mode:multiply" opacity=".2"/><path d="M178.26 140.763h-13.42a73.959 73.959 0 0 0-11.706-4.561c-29.088-8.831-71.766-7.149-95.326 3.753a38.35 38.35 0 0 0-1.635.808H42.855v13.673c-1.226 7.9 7.36 15.895 24.991 21.253 29.088 8.831 71.766 7.149 95.322-3.753 10.173-4.712 15.104-10.37 15.096-15.991l-.004-15.182Z" fill="#E6EBED"/><path d="M153.134 121.02c29.092 8.83 33.577 24.829 10.018 35.73-23.56 10.902-66.239 12.588-95.322 3.757-29.084-8.83-33.578-24.829-10.022-35.734 23.556-10.906 66.238-12.584 95.326-3.753Z" fill="#FAFDFF"/><path style="mix-blend-mode:multiply" d="M110.406 166.274c37.475 0 67.854-11.422 67.854-25.511 0-14.089-30.379-25.51-67.854-25.51-37.474 0-67.853 11.421-67.853 25.51 0 14.089 30.379 25.511 67.853 25.511Z" fill="url(#e)"/><path d="M178.26 115.619h-13.42a74.06 74.06 0 0 0-11.706-4.562c-29.088-8.83-71.766-7.152-95.326 3.754a38.35 38.35 0 0 0-1.635.808H42.855v13.669c-1.226 7.9 7.36 15.895 24.991 21.253 29.088 8.831 71.766 7.149 95.322-3.757 10.173-4.708 15.104-10.366 15.096-15.987l-.004-15.178Z" fill="#E6EBED"/><path d="M153.134 95.871c29.092 8.831 33.577 24.829 10.018 35.735-23.56 10.905-66.239 12.587-95.322 3.757-29.084-8.831-33.578-24.829-10.022-35.735 23.556-10.905 66.238-12.584 95.326-3.757Z" fill="#FAFDFF"/><path style="mix-blend-mode:multiply" opacity=".25" d="M110.406 128.834c19.409 0 35.143-5.917 35.143-13.215 0-7.299-15.734-13.215-35.143-13.215-19.41 0-35.143 5.916-35.143 13.215 0 7.298 15.734 13.215 35.143 13.215Z" fill="url(#f)"/><path d="M108.304 21.558c0 4.684-1.155 8.222-3.467 10.613-2.311 2.392-5.423 3.587-9.335 3.584-3.95 0-7.084-1.194-9.404-3.584-2.32-2.389-3.475-5.927-3.467-10.613v-7.29c0-4.686 1.147-8.223 3.443-10.61C88.369 1.273 91.489.077 95.433.072c3.933 0 7.059 1.2 9.375 3.6 2.317 2.399 3.477 5.931 3.48 10.597l.016 7.29Zm-8.525-7.837c0-2.651-.372-4.556-1.116-5.716a3.437 3.437 0 0 0-1.346-1.298 3.716 3.716 0 0 0-1.868-.442 3.648 3.648 0 0 0-1.864.437 3.37 3.37 0 0 0-1.333 1.303c-.72 1.16-1.078 3.065-1.075 5.716v8.338c0 2.697.362 4.622 1.087 5.774.33.526.8.962 1.364 1.265a3.914 3.914 0 0 0 1.85.462c.649 0 1.286-.16 1.85-.462a3.636 3.636 0 0 0 1.364-1.265c.722-1.155 1.085-3.08 1.087-5.774V13.72ZM120.526 14.575h4.023c1.535 0 2.715-.385 3.541-1.155.826-.77 1.235-1.85 1.227-3.237a3.754 3.754 0 0 0-1.113-2.764c-.744-.747-1.819-1.12-3.238-1.12a4.94 4.94 0 0 0-2.936.904 2.88 2.88 0 0 0-.939 1.021c-.22.407-.331.859-.324 1.316h-8.3l-.049-.143c-.101-2.764 1.053-5.003 3.463-6.717C118.29.966 121.218.107 124.663.105c3.994 0 7.19.862 9.589 2.587 2.398 1.724 3.596 4.162 3.594 7.313 0 1.57-.547 3.097-1.558 4.347a10.335 10.335 0 0 1-4.162 3.106 9.946 9.946 0 0 1 4.632 3.11 7.73 7.73 0 0 1 1.668 5.005c0 3.18-1.29 5.678-3.872 7.495-2.581 1.817-5.878 2.725-9.891 2.725-3.234.063-6.408-.832-9.073-2.56-2.586-1.71-3.839-4.183-3.757-7.422l.053-.142h8.349a3.379 3.379 0 0 0 .351 1.547c.238.484.589.912 1.027 1.252a5.095 5.095 0 0 0 3.353 1.131 5.228 5.228 0 0 0 3.594-1.19 3.962 3.962 0 0 0 1.014-1.365 3.752 3.752 0 0 0 .327-1.637c0-1.68-.469-2.907-1.406-3.68-.938-.772-2.257-1.157-3.958-1.155h-4.024l.013-5.997Z" fill="#029894"/><g clip-path="url(#g)"><path d="m142.564 102.229-.729-.783-3.468 3.218a1.057 1.057 0 0 1-1.408.01l-3.534-3.187-3.458 3.085a1.055 1.055 0 0 1-1.402.036l-3.671-3.147-3.332 3.182a1.06 1.06 0 0 1-1.484.061l-3.496-3.243-3.605 3.187a1.066 1.066 0 0 1-1.403-.015l-3.43-3.212-.712.762a1.038 1.038 0 0 1-.811.376c-.554 0-1.008-.422-1.008-.935V89.156c.23.035.465.05.695.055.444.005.894-.045 1.321-.162v10.166c.356-.173.8-.138 1.123.122.022.015.038.03.055.05l3.496 3.274 3.599-3.177c.4-.35 1.02-.34 1.403.015l3.468 3.213 3.354-3.208a1.066 1.066 0 0 1 1.402-.035l3.699 3.167 3.506-3.121a1.061 1.061 0 0 1 1.403.01l3.512 3.166 3.529-3.273c.301-.285.767-.346 1.14-.183V73.876h-18.597a4.086 4.086 0 0 0-.044-1.87h19.638c.553 0 1.008.416 1.008.935v28.678a.916.916 0 0 1-.351.706 1.048 1.048 0 0 1-1.408-.096Zm-17.122-17.308c-.439 0-.789-.325-.789-.732 0-.406.35-.731.789-.731h11.522c.439 0 .789.325.789.731 0 .407-.35.732-.789.732h-11.522Zm-3.671 1.002-2.926.427c-.148-.34-.28-.58-.395-.712-.12-.132-.307-.264-.581-.396v2.104c1.584.391 2.647.808 3.184 1.245.707.59 1.057 1.332 1.057 2.237 0 .528-.126 1.011-.378 1.454a3.71 3.71 0 0 1-.97 1.108 4.13 4.13 0 0 1-1.26.645c-.444.132-.986.214-1.633.234v.991h-1.145v-.991c-.767-.061-1.391-.173-1.874-.34a3.861 3.861 0 0 1-1.238-.692 3.427 3.427 0 0 1-.8-.95 4.246 4.246 0 0 1-.422-1.236l3.167-.34c.093.478.225.823.384 1.032.159.213.422.401.789.564v-2.572c-1.058-.275-1.808-.508-2.252-.707-.438-.198-.822-.518-1.151-.955-.323-.442-.487-.971-.487-1.606 0-.864.328-1.586.975-2.166.652-.58 1.622-.9 2.909-.965v-.717h1.145v.717c1.173.066 2.066.325 2.691.772.619.432 1.024 1.042 1.211 1.815Zm-5.047-.722c-.334.102-.57.229-.701.381a.768.768 0 0 0-.197.529c0 .213.065.396.202.554.132.157.368.29.696.396v-1.86Zm1.145 7.172c.444-.092.768-.249.97-.457.208-.214.313-.448.313-.712a.919.919 0 0 0-.263-.63c-.176-.194-.515-.371-1.025-.534v2.333h.005Zm-6.514-29.725c1.09 1.011 1.112 2.643.049 3.63l-.575.533 4.613 4.209-11.676 10.44-4.493-4.32L81.745 93.4c-1.063.986-2.827.966-3.912-.046-1.09-1.011-1.112-2.638-.05-3.63l17.594-16.32-3.517-3.396 11.04-10.44 3.951 3.593.603-.559c1.052-.98 2.81-.965 3.901.046Zm-8.942-8.082c.865.803.882 2.1.038 2.887l-12.87 11.945c-.85.783-2.247.768-3.113-.035-.865-.803-.882-2.105-.038-2.888L99.3 54.531c.844-.788 2.247-.768 3.113.035Zm18.3 16.977c.866.803.888 2.104.039 2.887l-12.877 11.95c-.849.783-2.241.768-3.112-.035-.865-.803-.887-2.105-.038-2.887l12.876-11.945c.849-.788 2.246-.778 3.112.03Zm12.005 21.084c.411 0 .74.305.74.686 0 .382-.329.692-.74.692h-7.172c-.411 0-.74-.31-.74-.692 0-.38.329-.686.74-.686h7.172Zm4.208-4.59c.411 0 .745.31.745.692 0 .38-.334.686-.745.686h-11.38c-.411 0-.74-.305-.74-.686 0-.382.329-.692.74-.692h11.38Z" fill="#029894"/></g><defs><radialGradient id="a" cx="0" cy="0" r="1" gradientUnits="userSpaceOnUse" gradientTransform="matrix(107.502 0 0 39.4718 110.479 196.171)"><stop stop-color="#7FD4F9"/><stop offset="1" stop-color="#fff"/></radialGradient><radialGradient id="b" cx="0" cy="0" r="1" gradientUnits="userSpaceOnUse" gradientTransform="matrix(53.7585 -19.9595 13.02563 35.08296 114.535 166.257)"><stop stop-color="#7FD4F9"/><stop offset=".43" stop-color="#81D5F9"/><stop offset=".58" stop-color="#88D7F9"/><stop offset=".69" stop-color="#93DBFA"/><stop offset=".78" stop-color="#A4E1FB"/><stop offset=".86" stop-color="#BAE8FC"/><stop offset=".92" stop-color="#D6F1FD"/><stop offset=".98" stop-color="#F5FCFF"/><stop offset="1" stop-color="#fff"/></radialGradient><radialGradient id="c" cx="0" cy="0" r="1" gradientUnits="userSpaceOnUse" gradientTransform="matrix(53.7585 -19.9595 13.02563 35.08296 114.535 166.257)"><stop stop-color="#80E3C8"/><stop offset=".43" stop-color="#82E3C9"/><stop offset=".58" stop-color="#89E5CC"/><stop offset=".69" stop-color="#94E8D1"/><stop offset=".78" stop-color="#A5EBD8"/><stop offset=".86" stop-color="#BBF0E2"/><stop offset=".93" stop-color="#D7F6ED"/><stop offset=".99" stop-color="#F6FDFB"/><stop offset="1" stop-color="#fff"/></radialGradient><radialGradient id="d" cx="0" cy="0" r="1" gradientUnits="userSpaceOnUse" gradientTransform="matrix(53.7585 -19.9595 13.02563 35.08296 114.535 166.257)"><stop stop-color="#7FD4F9"/><stop offset=".43" stop-color="#81D5F9"/><stop offset=".58" stop-color="#88D7F9"/><stop offset=".69" stop-color="#93DBFA"/><stop offset=".78" stop-color="#A4E1FB"/><stop offset=".86" stop-color="#BAE8FC"/><stop offset=".92" stop-color="#D6F1FD"/><stop offset=".98" stop-color="#F5FCFF"/><stop offset="1" stop-color="#fff"/></radialGradient><radialGradient id="e" cx="0" cy="0" r="1" gradientUnits="userSpaceOnUse" gradientTransform="matrix(67.6449 0 0 23.5636 110.406 143.777)"><stop stop-color="#7FD4F9"/><stop offset="1" stop-color="#fff"/></radialGradient><radialGradient id="f" cx="0" cy="0" r="1" gradientUnits="userSpaceOnUse" gradientTransform="matrix(35.0368 0 0 12.2048 110.406 118.599)"><stop stop-color="#7FD4F9"/><stop offset="1" stop-color="#fff"/></radialGradient><clipPath id="g"><path fill="#fff" transform="translate(77 53.951)" d="M0 0h67.328v51.023H0z"/></clipPath></defs></svg>