<svg width="221" height="245" fill="none" xmlns="http://www.w3.org/2000/svg"><path style="mix-blend-mode:multiply" d="M180.024 171.306c47.385 14.386 54.712 40.442 16.318 58.192-38.393 17.75-107.886 20.499-155.267 6.117-47.381-14.382-54.692-40.442-16.323-58.207 38.37-17.766 107.891-20.483 155.272-6.102Z" fill="url(#a)"/><path d="M110.479 204.431c-22.787 0-44.286-2.872-62.15-8.3-25.13-7.625-39.555-19.409-40.618-33.174-.523-6.775 2.097-19.767 25.514-30.607 19.172-8.877 47.38-13.966 77.388-13.966 22.787 0 44.286 2.868 62.15 8.295 25.13 7.63 39.555 19.413 40.618 33.179.523 6.779-2.097 19.767-25.514 30.607-19.172 8.877-47.381 13.966-77.388 13.966Z" fill="#8EDBDC" style="mix-blend-mode:multiply" opacity=".2"/><path d="M170.354 133.716c40.794 12.384 47.087 34.823 14.049 50.113-33.037 15.29-92.889 17.653-133.703 5.27-40.814-12.384-47.09-34.823-14.053-50.117 33.037-15.293 92.909-17.653 133.707-5.266Z" fill="#029894" style="mix-blend-mode:multiply"/><g style="mix-blend-mode:multiply"><path d="M158.178 139.352c32.493 9.862 37.502 27.716 11.191 39.915-26.312 12.199-73.983 14.058-106.476 4.196-32.494-9.862-37.503-27.735-11.191-39.915 26.311-12.18 73.982-14.058 106.476-4.196Z" fill="url(#b)"/><path d="M158.178 139.352c32.493 9.862 37.502 27.716 11.191 39.915-26.312 12.199-73.983 14.058-106.476 4.196-32.494-9.862-37.503-27.735-11.191-39.915 26.311-12.18 73.982-14.058 106.476-4.196Z" fill="url(#c)"/><path d="M158.178 139.352c32.493 9.862 37.502 27.716 11.191 39.915-26.312 12.199-73.983 14.058-106.476 4.196-32.494-9.862-37.503-27.735-11.191-39.915 26.311-12.18 73.982-14.058 106.476-4.196Z" fill="url(#d)"/></g><path d="M110.479 219.074c-22.787 0-44.286-2.868-62.15-8.296-25.13-7.629-39.555-19.412-40.618-33.174-.523-6.779 2.097-19.767 25.514-30.607 19.172-8.877 47.38-13.97 77.388-13.97 22.787 0 44.286 2.872 62.15 8.299 25.13 7.626 39.555 19.409 40.618 33.175.523 6.779-2.097 19.767-25.514 30.607-19.172 8.877-47.381 13.966-77.388 13.966Z" fill="#8EDBDC" style="mix-blend-mode:multiply" opacity=".2"/><path d="M178.311 135.999h-13.423a74.049 74.049 0 0 0-11.702-4.561c-29.092-8.831-71.77-7.149-95.326 3.757-.573.261-1.112.535-1.636.804h-13.33v13.677c-1.226 7.896 7.36 15.895 24.987 21.253 29.092 8.827 71.771 7.149 95.326-3.757 10.173-4.708 15.104-10.367 15.096-15.991l.008-15.182Z" fill="#E6EDEB"/><path d="M153.19 116.255c29.087 8.831 33.573 24.829 10.017 35.734-23.555 10.906-66.238 12.584-95.326 3.754-29.087-8.831-33.573-24.829-10.017-35.735 23.555-10.905 66.234-12.584 95.326-3.753Z" fill="#FAFFFE"/><path style="mix-blend-mode:multiply" d="M110.536 161.482c37.433 0 67.78-11.409 67.78-25.483s-30.347-25.484-67.78-25.484c-37.434 0-67.78 11.41-67.78 25.484 0 14.074 30.346 25.483 67.78 25.483Z" fill="url(#e)"/><path d="M178.311 110.854h-13.423a73.685 73.685 0 0 0-11.702-4.561c-29.092-8.831-71.77-7.149-95.326 3.757-.573.261-1.112.535-1.636.804h-13.33v13.677c-1.226 7.896 7.36 15.891 24.987 21.249 29.092 8.831 71.771 7.153 95.326-3.753 10.173-4.712 15.104-10.37 15.096-15.991l.008-15.182Z" fill="#E6EDEB"/><path d="M153.19 91.11c29.087 8.831 33.573 24.83 10.017 35.735-23.555 10.906-66.238 12.584-95.326 3.753-29.087-8.83-33.573-24.829-10.017-35.734 23.555-10.906 66.234-12.584 95.326-3.753Z" fill="#FAFFFE"/><path style="mix-blend-mode:multiply" opacity=".25" d="M110.536 124.07c19.409 0 35.143-5.917 35.143-13.216 0-7.298-15.734-13.215-35.143-13.215-19.41 0-35.143 5.917-35.143 13.215 0 7.299 15.734 13.216 35.143 13.216Z" fill="url(#f)"/><path d="M108.43 22.044c0 4.686-1.156 8.224-3.468 10.613-2.311 2.389-5.424 3.584-9.338 3.584-3.947 0-7.082-1.195-9.405-3.584-2.322-2.39-3.478-5.927-3.467-10.613v-7.291c0-4.686 1.148-8.224 3.443-10.613C88.49 1.75 91.61.556 95.554.556c3.928 0 7.053 1.2 9.376 3.6 2.322 2.399 3.482 5.932 3.479 10.597l.021 7.29Zm-8.53-7.838c0-2.653-.37-4.559-1.112-5.716a3.441 3.441 0 0 0-1.346-1.297 3.72 3.72 0 0 0-1.867-.443 3.66 3.66 0 0 0-1.866.438 3.383 3.383 0 0 0-1.336 1.302c-.714 1.16-1.073 3.065-1.075 5.716v8.338c0 2.697.362 4.622 1.087 5.774.316.544.786.993 1.358 1.299a3.71 3.71 0 0 0 1.88.43c.65.02 1.294-.13 1.857-.436a3.38 3.38 0 0 0 1.333-1.293c.728-1.152 1.09-3.077 1.087-5.774v-8.338ZM138.65 35.74h-25.76v-5.239l11.858-11.721a23.625 23.625 0 0 0 3.312-4.335 7.046 7.046 0 0 0 1.063-3.31 4.58 4.58 0 0 0-1.076-3.195c-.714-.793-1.789-1.19-3.226-1.19a3.629 3.629 0 0 0-1.728.392c-.53.27-.976.666-1.293 1.148a6.545 6.545 0 0 0-1.1 3.919h-8.354l-.049-.143a10.275 10.275 0 0 1 .758-4.41 10.79 10.79 0 0 1 2.583-3.747c2.311-2.232 5.373-3.349 9.183-3.349 4.048 0 7.207.937 9.478 2.81 2.271 1.874 3.405 4.44 3.402 7.7a9.75 9.75 0 0 1-1.807 5.812c-1.205 1.681-3.428 4.182-6.669 7.503l-4.984 5.027.073.143h14.336v6.186Z" fill="#029894"/><g clip-path="url(#g)"><path d="M88.977 96.505c.518-.376 1.268-.287 1.672.193.404.48.309 1.176-.209 1.551l-6.01 4.332-.045 5.836 7.381-.383 4.007-5.908c.35-.514 1.086-.67 1.64-.346.554.325.722 1.008.372 1.522l-4.315 6.359a1.21 1.21 0 0 1-.963.543l-9.253.485h-.068c-.654-.004-1.186-.498-1.181-1.109l.059-7.462a1.077 1.077 0 0 1 .459-.957l6.454-4.656Zm11.234-13.616c2.998-8.314 7.041-14.21 12.728-17.922 5.9-3.855 13.486-5.313 23.425-4.648.686.047 1.213.57 1.222 1.193.963 9.983-1.126 17.062-5.578 22.427-4.284 5.157-10.711 8.647-18.688 11.575v9.747c0 .476-.295.894-.726 1.092l-8.122 4.656c-.618.354-1.427.177-1.808-.396a1.175 1.175 0 0 1-.187-.481c-1.798-12.75-3.71-13.362-14.949-16.97-1.344-.429-2.793-.897-3.775-1.217-.685-.223-1.044-.923-.803-1.555.05-.135.127-.257.218-.367l5.355-7.079c.268-.354.704-.54 1.136-.518l10.552.463Zm22.994-9.393a4.15 4.15 0 0 0-2.835-1.087 4.177 4.177 0 0 0-2.834 1.087c-.727.675-1.172 1.602-1.172 2.63 0 1.024.449 1.955 1.172 2.63a4.15 4.15 0 0 0 2.834 1.087 4.18 4.18 0 0 0 2.835-1.088c.726-.674 1.172-1.6 1.172-2.63 0-1.027-.45-1.954-1.172-2.629Z" fill="#029894"/></g><defs><radialGradient id="a" cx="0" cy="0" r="1" gradientUnits="userSpaceOnUse" gradientTransform="matrix(107.502 0 0 39.4718 110.547 191.346)"><stop stop-color="#8EDBDC"/><stop offset="1" stop-color="#fff"/></radialGradient><radialGradient id="b" cx="0" cy="0" r="1" gradientUnits="userSpaceOnUse" gradientTransform="matrix(53.75846 -19.9596 13.0257 35.08293 113.601 160.748)"><stop stop-color="#8EDBDC"/><stop offset=".44" stop-color="#90DCDD"/><stop offset=".6" stop-color="#97DEDF"/><stop offset=".71" stop-color="#A2E2E2"/><stop offset=".8" stop-color="#B3E7E8"/><stop offset=".88" stop-color="#C9EEEE"/><stop offset=".95" stop-color="#E4F6F7"/><stop offset="1" stop-color="#fff"/></radialGradient><radialGradient id="c" cx="0" cy="0" r="1" gradientUnits="userSpaceOnUse" gradientTransform="matrix(53.75846 -19.9596 13.0257 35.08293 113.601 160.748)"><stop stop-color="#80E3C8"/><stop offset=".43" stop-color="#82E3C9"/><stop offset=".58" stop-color="#89E5CC"/><stop offset=".69" stop-color="#94E8D1"/><stop offset=".78" stop-color="#A5EBD8"/><stop offset=".86" stop-color="#BBF0E2"/><stop offset=".93" stop-color="#D7F6ED"/><stop offset=".99" stop-color="#F6FDFB"/><stop offset="1" stop-color="#fff"/></radialGradient><radialGradient id="d" cx="0" cy="0" r="1" gradientUnits="userSpaceOnUse" gradientTransform="matrix(53.75846 -19.9596 13.0257 35.08293 113.601 160.748)"><stop stop-color="#80E3C8"/><stop offset=".43" stop-color="#82E3C9"/><stop offset=".58" stop-color="#89E5CC"/><stop offset=".69" stop-color="#94E8D1"/><stop offset=".78" stop-color="#A5EBD8"/><stop offset=".86" stop-color="#BBF0E2"/><stop offset=".93" stop-color="#D7F6ED"/><stop offset=".99" stop-color="#F6FDFB"/><stop offset="1" stop-color="#fff"/></radialGradient><radialGradient id="e" cx="0" cy="0" r="1" gradientUnits="userSpaceOnUse" gradientTransform="matrix(67.5713 0 0 23.5379 110.536 139.203)"><stop stop-color="#8EDBDC"/><stop offset="1" stop-color="#fff"/></radialGradient><radialGradient id="f" cx="0" cy="0" r="1" gradientUnits="userSpaceOnUse" gradientTransform="matrix(35.0368 0 0 12.2048 110.536 114.024)"><stop stop-color="#8EDBDC"/><stop offset="1" stop-color="#fff"/></radialGradient><clipPath id="g"><path fill="#fff" transform="translate(82 60.163)" d="M0 0h55.818v51.023H0z"/></clipPath></defs></svg>