<svg width="222" height="270" fill="none" xmlns="http://www.w3.org/2000/svg"><path style="mix-blend-mode:multiply" d="M180.142 189.93c47.405 15.502 54.691 43.595 16.33 62.732C158.111 271.8 88.585 274.763 41.2 259.26c-47.384-15.503-54.687-43.599-16.318-62.745 38.37-19.146 107.875-22.092 155.26-6.585Z" fill="url(#a)"/><path d="M110.607 226.346c-22.786 0-44.285-3.095-62.15-8.946-25.129-8.224-39.554-20.922-40.617-35.761-.524-7.307 2.097-21.308 25.514-32.993 19.172-9.569 47.38-15.054 77.388-15.054 22.787 0 44.286 3.091 62.17 8.942 25.13 8.224 39.555 20.926 40.618 35.765.524 7.303-2.097 21.304-25.514 32.989-19.192 9.568-47.401 15.058-77.409 15.058Z" fill="#029894" style="mix-blend-mode:multiply" opacity=".2"/><path d="M170.484 150.118c40.794 13.349 47.086 37.533 14.049 54.019-33.038 16.486-92.89 19.029-133.703 5.68-40.815-13.349-47.087-37.536-14.05-54.022 33.038-16.486 92.906-19.026 133.704-5.677Z" fill="#029894" style="mix-blend-mode:multiply"/><path d="M158.308 156.194c32.493 10.631 37.502 29.876 11.191 43.026-26.312 13.15-73.983 15.154-106.476 4.519-32.494-10.635-37.503-29.877-11.192-43.022 26.312-13.146 73.983-15.154 106.477-4.523Z" fill="url(#b)"/><path d="M158.308 156.194c32.493 10.631 37.502 29.876 11.191 43.026-26.312 13.15-73.983 15.154-106.476 4.519-32.494-10.635-37.503-29.877-11.192-43.022 26.312-13.146 73.983-15.154 106.477-4.523Z" fill="url(#c)"/><path d="M158.308 156.194c32.493 10.631 37.502 29.876 11.191 43.026-26.312 13.15-73.983 15.154-106.476 4.519-32.494-10.635-37.503-29.877-11.192-43.022 26.312-13.146 73.983-15.154 106.477-4.523Z" fill="url(#d)"/><path d="M110.607 242.13c-22.786 0-44.285-3.092-62.15-8.947-25.129-8.22-39.554-20.922-40.617-35.761-.524-7.307 2.097-21.307 25.514-32.992 19.172-9.569 47.38-15.055 77.388-15.055 22.787 0 44.286 3.091 62.17 8.946 25.13 8.221 39.555 20.922 40.618 35.761.524 7.303-2.097 21.308-25.514 32.993-19.192 9.565-47.401 15.055-77.409 15.055Z" fill="#029894" style="mix-blend-mode:multiply" opacity=".2"/><path d="M178.445 152.579h-13.424a70.542 70.542 0 0 0-11.702-4.9c-29.092-9.519-71.77-7.706-95.326 4.045-.572.287-1.112.577-1.635.872H43.024v14.739c-1.227 8.515 7.36 17.133 24.987 22.909 29.091 9.52 71.77 7.706 95.326-4.045 10.173-5.079 15.104-11.179 15.096-17.237l.012-16.383Z" fill="#E6EFEC"/><path d="M153.319 131.295c29.087 9.519 33.573 26.765 10.017 38.516-23.555 11.752-66.238 13.569-95.326 4.05-29.088-9.519-33.573-26.764-10.017-38.52 23.555-11.756 66.234-13.565 95.326-4.046Z" fill="#F8FFFD"/><path style="mix-blend-mode:multiply" d="M110.592 180.078c37.474 0 67.853-12.312 67.853-27.499s-30.379-27.499-67.853-27.499c-37.475 0-67.854 12.312-67.854 27.499s30.38 27.499 67.854 27.499Z" fill="url(#e)"/><path d="M178.445 125.474h-13.423a70.712 70.712 0 0 0-11.703-4.917c-29.091-9.519-71.77-7.71-95.326 4.046-.572.286-1.112.576-1.635.871H43.024v14.735c-1.226 8.515 7.36 17.133 24.987 22.91 29.092 9.519 71.77 7.705 95.326-4.05 10.173-5.075 15.104-11.175 15.096-17.233l.012-16.362Z" fill="#E6EFEC"/><path d="M153.319 104.186c29.087 9.519 33.573 26.765 10.017 38.52-23.555 11.756-66.238 13.569-95.326 4.05-29.088-9.519-33.573-26.764-10.017-38.52 23.555-11.755 66.234-13.565 95.326-4.05Z" fill="#F8FFFD"/><path style="mix-blend-mode:multiply" opacity=".25" d="M110.591 139.719c19.409 0 35.143-6.378 35.143-14.245 0-7.868-15.734-14.245-35.143-14.245s-35.143 6.377-35.143 14.245c0 7.867 15.734 14.245 35.143 14.245Z" fill="url(#f)"/><path d="M108.489 24.083c0 5.048-1.156 8.862-3.467 11.44-2.312 2.578-5.423 3.863-9.335 3.855-3.95 0-7.084-1.288-9.404-3.863-2.32-2.576-3.476-6.39-3.468-11.44v-7.852c0-5.051 1.148-8.864 3.443-11.44C88.553 2.208 91.673.92 95.618.92c3.93 0 7.055 1.293 9.375 3.88 2.32 2.586 3.48 6.394 3.48 11.423l.016 7.86Zm-8.513-8.449c0-2.857-.37-4.912-1.112-6.162a3.57 3.57 0 0 0-1.346-1.399 3.5 3.5 0 0 0-1.868-.476c-.653-.024-1.3.14-1.866.471a3.517 3.517 0 0 0-1.335 1.404c-.715 1.25-1.073 3.305-1.076 6.162v8.988c0 2.907.364 4.982 1.092 6.224a3.552 3.552 0 0 0 1.357 1.401c.572.33 1.224.49 1.881.462.65.023 1.292-.14 1.855-.47a3.509 3.509 0 0 0 1.33-1.393c.728-1.242 1.09-3.317 1.088-6.224v-8.988ZM131.051 38.846h-8.521V10.164h-8.222V4.052l16.764-2.619-.021 37.413Z" fill="#029894"/><path fill-rule="evenodd" clip-rule="evenodd" d="M119.856 71.085a15.836 15.836 0 0 1 3.84 3.165 14.556 14.556 0 0 1 2.587 4.149c.349.86.626 1.748.828 2.654.458 2.06.494 4.192.108 6.266a17.147 17.147 0 0 1-.967 3.268l-.049.112c-.895 2.238-2.498 4.404-4.029 6.544-.778 1.083-1.553 2.152-2.202 3.191a2.103 2.103 0 0 1-1.938.976l-12.318 1.83a2.104 2.104 0 0 1-2.332-1.526 17.29 17.29 0 0 0-1.132-2.596 10.803 10.803 0 0 0-1.343-2.005c-.635-.725-1.284-1.468-1.929-2.305a18.156 18.156 0 0 1-1.853-3.098 18.434 18.434 0 0 1-1.253-3.58 15.932 15.932 0 0 1-.425-3.77c.013-1.318.189-2.63.523-3.907.358-1.37.87-2.694 1.527-3.947l.09-.162a15.702 15.702 0 0 1 3.182-3.876 14.984 14.984 0 0 1 4.22-2.6l.13-.05a15.731 15.731 0 0 1 3.581-.953 16.832 16.832 0 0 1 3.916-.09c1.274.116 2.53.373 3.747.766 1.218.381 2.389.9 3.491 1.544Zm-1.737 39.097a7.761 7.761 0 0 1-2.802 2.811 7.316 7.316 0 0 1-3.218.98 6.65 6.65 0 0 1-3.308-.644 6.765 6.765 0 0 1-1.96-1.459l11.288-1.688Zm1.074-6.315v.993c.034.485.034.971 0 1.455l-.223 1.065-13.679 2.032-.237-.546-.533-2.184v-.635l14.637-2.18h.035Zm-8.056-43.197a1.722 1.722 0 0 1 1.75-1.67h.116a1.727 1.727 0 0 1 1.58 1.737c.003.03.003.06 0 .09l-.094 3.665a1.13 1.13 0 0 1 0 .117 1.705 1.705 0 0 1-1.727 1.575h-.121a1.686 1.686 0 0 1-1.101-.523 1.72 1.72 0 0 1-.475-1.209.67.67 0 0 1 0-.09l.09-3.679-.018-.013Zm-18.87 6.432a1.745 1.745 0 0 1-.444-1.86 1.714 1.714 0 0 1 1.549-1.126c.453-.019.896.142 1.23.448l2.749 2.565a1.723 1.723 0 0 1 .094 2.425 1.75 1.75 0 0 1-1.2.547 1.71 1.71 0 0 1-1.226-.448l-2.753-2.551ZM87.79 85.999A1.729 1.729 0 0 1 86 84.334a1.691 1.691 0 0 1 .448-1.23 1.706 1.706 0 0 1 1.2-.538l3.75-.125a1.717 1.717 0 0 1 1.79 1.66v.09a1.728 1.728 0 0 1-.447 1.141 1.705 1.705 0 0 1-1.218.524h-.067l-3.706.125.04.018Zm47.266-5.322h.058c.429-.026.852.11 1.186.38.352.29.577.706.627 1.16v.054a1.717 1.717 0 0 1-1.54 1.79l-3.733.452a1.718 1.718 0 0 1-1.507-2.79 1.72 1.72 0 0 1 1.158-.625c1.245-.134 2.498-.278 3.747-.398l.004-.023Zm-7.394-14.94a1.701 1.701 0 0 1 1.759-.73 1.711 1.711 0 0 1 1.338 1.352c.087.446-.004.91-.255 1.289l-2.09 3.133a1.721 1.721 0 0 1-2.847-1.934l2.095-3.133v.023Zm-14.243 17.84h2.637a.695.695 0 0 1 .637.426.702.702 0 0 1-.064.649l-6.267 10.71a.674.674 0 0 1-.423.314.686.686 0 0 1-.521-.08.69.69 0 0 1-.322-.73l.926-6.57-3.133.053a.688.688 0 0 1-.604-1.039l6.172-10.706a.694.694 0 0 1 .945-.242.677.677 0 0 1 .349.69l-.314 6.525h-.018Z" fill="#029894"/><defs><radialGradient id="a" cx="0" cy="0" r="1" gradientUnits="userSpaceOnUse" gradientTransform="matrix(107.502 0 0 42.5488 110.665 212.306)"><stop stop-color="#80E3C8"/><stop offset="1" stop-color="#fff"/></radialGradient><radialGradient id="b" cx="0" cy="0" r="1" gradientUnits="userSpaceOnUse" gradientTransform="rotate(-21.812 523.616 -202.531) scale(57.9042 39.9502)"><stop stop-color="#80E3C8"/><stop offset=".43" stop-color="#82E3C9"/><stop offset=".58" stop-color="#89E5CC"/><stop offset=".69" stop-color="#94E8D1"/><stop offset=".78" stop-color="#A5EBD8"/><stop offset=".86" stop-color="#BBF0E2"/><stop offset=".93" stop-color="#D7F6ED"/><stop offset=".99" stop-color="#F6FDFB"/><stop offset="1" stop-color="#fff"/></radialGradient><radialGradient id="c" cx="0" cy="0" r="1" gradientUnits="userSpaceOnUse" gradientTransform="rotate(-21.812 523.616 -202.531) scale(57.9042 39.9502)"><stop stop-color="#80E3C8"/><stop offset=".43" stop-color="#82E3C9"/><stop offset=".58" stop-color="#89E5CC"/><stop offset=".69" stop-color="#94E8D1"/><stop offset=".78" stop-color="#A5EBD8"/><stop offset=".86" stop-color="#BBF0E2"/><stop offset=".93" stop-color="#D7F6ED"/><stop offset=".99" stop-color="#F6FDFB"/><stop offset="1" stop-color="#fff"/></radialGradient><radialGradient id="d" cx="0" cy="0" r="1" gradientUnits="userSpaceOnUse" gradientTransform="rotate(-21.812 523.616 -202.531) scale(57.9042 39.9502)"><stop stop-color="#80E3C8"/><stop offset=".43" stop-color="#82E3C9"/><stop offset=".58" stop-color="#89E5CC"/><stop offset=".69" stop-color="#94E8D1"/><stop offset=".78" stop-color="#A5EBD8"/><stop offset=".86" stop-color="#BBF0E2"/><stop offset=".93" stop-color="#D7F6ED"/><stop offset=".99" stop-color="#F6FDFB"/><stop offset="1" stop-color="#fff"/></radialGradient><radialGradient id="e" cx="0" cy="0" r="1" gradientUnits="userSpaceOnUse" gradientTransform="matrix(67.6449 0 0 25.4004 110.592 155.828)"><stop stop-color="#80E3C8"/><stop offset="1" stop-color="#fff"/></radialGradient><radialGradient id="f" cx="0" cy="0" r="1" gradientUnits="userSpaceOnUse" gradientTransform="matrix(35.0368 0 0 13.1562 110.591 128.686)"><stop stop-color="#80E3C8"/><stop offset="1" stop-color="#fff"/></radialGradient></defs></svg>