<svg width="222" height="264" fill="none" xmlns="http://www.w3.org/2000/svg"><path style="mix-blend-mode:multiply" d="M180.708 183.905c47.38 15.507 54.687 43.6 16.318 62.745-38.369 19.146-107.887 22.101-155.272 6.594-47.385-15.507-54.687-43.595-16.318-62.741 38.37-19.146 107.887-22.1 155.272-6.598Z" fill="url(#a)"/><path d="M108.619 220.323c-22.787 0-44.286-3.092-62.17-8.942-25.13-8.225-39.555-20.926-40.618-35.761-.523-7.307 2.098-21.308 25.51-32.997 19.176-9.569 47.385-15.055 77.388-15.055 22.791 0 44.29 3.096 62.175 8.947 25.129 8.22 39.555 20.922 40.618 35.76.523 7.308-2.098 21.308-25.514 32.993-19.173 9.569-47.381 15.055-77.389 15.055Z" fill="#001C63" style="mix-blend-mode:multiply" opacity=".2"/><path d="M168.494 144.096c40.794 13.349 47.087 37.536 14.05 54.022-33.038 16.486-92.89 19.026-133.704 5.677-40.814-13.349-47.086-37.537-14.049-54.019 33.038-16.482 92.906-19.03 133.703-5.68Z" fill="#001C63" style="mix-blend-mode:multiply"/><path d="M156.318 150.169c32.49 10.635 37.503 29.898 11.191 43.027-26.311 13.129-73.994 15.154-106.476 4.543-32.481-10.61-37.502-29.876-11.19-43.026 26.31-13.15 73.982-15.175 106.475-4.544Z" fill="url(#b)"/><path d="M156.318 150.169c32.49 10.635 37.503 29.898 11.191 43.027-26.311 13.129-73.994 15.154-106.476 4.543-32.481-10.61-37.502-29.876-11.19-43.026 26.31-13.15 73.982-15.175 106.475-4.544Z" fill="url(#c)"/><path d="M156.318 150.169c32.49 10.635 37.503 29.898 11.191 43.027-26.311 13.129-73.994 15.154-106.476 4.543-32.481-10.61-37.502-29.876-11.19-43.026 26.31-13.15 73.982-15.175 106.475-4.544Z" fill="url(#d)"/><path d="M108.619 236.112c-22.787 0-44.286-3.095-62.17-8.946-25.13-8.225-39.555-20.922-40.618-35.761-.523-7.307 2.098-21.308 25.51-32.997 19.176-9.544 47.385-15.054 77.388-15.054 22.791 0 44.29 3.095 62.175 8.946 25.129 8.224 39.555 20.922 40.618 35.761.523 7.307-2.098 21.307-25.514 32.993-19.173 9.568-47.381 15.058-77.389 15.058Z" fill="#001C63" style="mix-blend-mode:multiply" opacity=".2"/><path d="M176.452 146.554h-13.427a71.561 71.561 0 0 0-11.703-4.917c-29.091-9.519-71.77-7.705-95.326 4.05-.572.287-1.116.577-1.656.867H41.023v14.744c-1.226 8.51 7.36 17.133 24.991 22.909 29.092 9.519 71.77 7.706 95.326-4.05 10.173-5.075 15.104-11.174 15.096-17.237l.016-16.366Z" fill="#E5E7EA"/><path d="M151.33 125.272c29.088 9.519 33.573 26.765 10.018 38.52-23.556 11.756-66.239 13.569-95.326 4.05-29.088-9.519-33.573-26.764-10.018-38.52 23.556-11.756 66.235-13.569 95.326-4.05Z" fill="#FDFEFF"/><path style="mix-blend-mode:multiply" d="M108.602 174.055c37.475 0 67.854-12.312 67.854-27.499 0-15.188-30.379-27.499-67.854-27.499-37.474 0-67.853 12.311-67.853 27.499 0 15.187 30.379 27.499 67.853 27.499Z" fill="url(#e)"/><path d="M176.452 119.451h-13.427a71.474 71.474 0 0 0-11.703-4.917c-29.091-9.519-71.77-7.706-95.326 4.05-.572.286-1.116.576-1.656.867H41.023v14.743c-1.226 8.511 7.36 17.134 24.991 22.91 29.092 9.519 71.77 7.706 95.326-4.05 10.173-5.075 15.104-11.175 15.096-17.237l.016-16.366Z" fill="#E5E7EA"/><path d="M151.33 98.15c29.088 9.52 33.573 26.765 10.018 38.521-23.556 11.755-66.239 13.564-95.326 4.045-29.088-9.519-33.573-26.764-10.018-38.516 23.556-11.751 66.235-13.552 95.326-4.05Z" fill="#FDFEFF"/><path style="mix-blend-mode:multiply" opacity=".25" d="M108.602 133.696c19.409 0 35.144-6.378 35.144-14.246 0-7.867-15.735-14.245-35.144-14.245s-35.143 6.378-35.143 14.245c0 7.868 15.734 14.246 35.143 14.246Z" fill="url(#f)"/><path d="M106.5 24.141c0 5.049-1.156 8.862-3.467 11.44-2.312 2.579-5.425 3.867-9.34 3.864-3.943 0-7.078-1.288-9.403-3.863-2.326-2.576-3.481-6.39-3.468-11.44v-7.86c0-5.051 1.147-8.865 3.44-11.44C86.553 2.266 89.674.979 93.623.979c3.928 0 7.054 1.292 9.376 3.875 2.322 2.584 3.482 6.393 3.48 11.428l.02 7.86Zm-8.53-8.448c0-2.858-.37-4.912-1.111-6.162a3.578 3.578 0 0 0-1.347-1.398 3.508 3.508 0 0 0-1.867-.478c-.653-.023-1.3.14-1.866.472a3.513 3.513 0 0 0-1.336 1.404c-.714 1.25-1.072 3.304-1.075 6.162v8.988c0 2.907.363 4.982 1.088 6.224a3.56 3.56 0 0 0 1.357 1.4c.572.329 1.224.49 1.88.463.65.023 1.294-.14 1.858-.47a3.513 3.513 0 0 0 1.332-1.393c.728-1.242 1.09-3.317 1.088-6.224v-8.988ZM133.47 24.344h3.721v6.677h-3.721v7.884h-8.55V31.02h-14.274l-.502-5.3L124.92 1.597v-.078h8.55v22.826Zm-15.689 0h7.139V12.792l-.155-.054-.658 1.058-6.326 10.548Z" fill="#001C63"/><path fill-rule="evenodd" clip-rule="evenodd" d="M72.409 82.19h14.196v25.634H72.409V82.19Zm48.802-13.014c5.151 0 9.331 4.235 9.331 9.469 0 5.228-4.174 9.47-9.331 9.47-5.151 0-9.33-4.236-9.33-9.47 0-5.228 4.173-9.47 9.33-9.47Zm-16.374-11.889c4.442 0 8.05 3.656 8.05 8.17 0 4.508-3.602 8.17-8.05 8.17-4.442 0-8.05-3.656-8.05-8.17 0-4.509 3.602-8.17 8.05-8.17Zm.818 9.905c0-.267-.063-.47-.195-.621-.131-.151-.354-.29-.674-.424a14.74 14.74 0 0 1-.887-.4 3.23 3.23 0 0 1-.703-.476 1.82 1.82 0 0 1-.452-.62c-.108-.239-.154-.523-.154-.86 0-.562.189-1.027.56-1.386.372-.36.869-.58 1.493-.639v-.754h.783v.772c.6.087 1.075.336 1.418.748.343.412.514.934.514 1.561h-1.675c0-.348-.068-.615-.2-.8a.647.647 0 0 0-.56-.28c-.218 0-.389.07-.503.204-.12.14-.178.33-.178.569 0 .243.069.44.206.586.143.145.36.284.663.417.303.134.595.267.864.406.268.146.503.302.697.482.2.18.355.395.463.632.109.238.172.523.172.865 0 .569-.177 1.033-.538 1.393-.36.36-.84.568-1.452.626v.708h-.777v-.708c-.715-.081-1.264-.325-1.647-.742-.383-.424-.577-.975-.577-1.666h1.663c0 .383.08.668.246.87.166.198.4.302.703.302a.7.7 0 0 0 .526-.203c.126-.139.195-.325.201-.563Zm16.5 13.46c0-.307-.075-.545-.223-.719-.149-.174-.406-.337-.784-.493a18.43 18.43 0 0 1-1.029-.464 3.554 3.554 0 0 1-.817-.552 2.2 2.2 0 0 1-.526-.719c-.126-.273-.178-.603-.178-.992 0-.656.218-1.19.652-1.607.429-.418 1.006-.668 1.727-.737v-.876h.909v.899c.692.104 1.24.395 1.641.87.4.476.6 1.08.6 1.81h-1.932c0-.406-.08-.707-.229-.928a.753.753 0 0 0-.652-.325c-.251 0-.446.081-.583.238-.137.157-.206.383-.206.662 0 .284.08.51.24.678.16.169.412.331.766.482.355.151.686.313 1.001.47.314.162.583.354.812.557.228.209.406.453.537.731.132.279.195.61.195.998 0 .662-.206 1.201-.624 1.613-.411.412-.972.662-1.686.725v.819h-.909v-.824c-.829-.093-1.464-.377-1.91-.865-.44-.487-.663-1.131-.663-1.932h1.927c0 .44.097.772.286 1.004.188.226.463.348.817.348a.838.838 0 0 0 .612-.232c.148-.151.223-.366.229-.638Zm-.944-9.614c4.134 0 7.49 3.4 7.49 7.601 0 4.195-3.351 7.601-7.49 7.601-4.133 0-7.489-3.4-7.489-7.6 0-4.202 3.356-7.602 7.489-7.602Zm-31.748 34.634V84.25h9.497c4.025.731 8.05 2.947 12.074 5.518h7.376c3.339.203 5.088 3.638 1.841 5.895-2.585 1.926-5.998 1.816-9.497 1.497-2.412-.122-2.515 3.168 0 3.179.875.07 1.824-.139 2.653-.139 4.368-.006 7.959-.853 10.16-4.352l1.103-2.616 10.972-5.518c5.488-1.834 9.387 3.992 5.345 8.047-7.947 5.866-16.094 10.694-24.43 14.593-6.054 3.737-12.109 3.609-18.158 0l-8.936-4.682Z" fill="#001C63"/><defs><radialGradient id="a" cx="0" cy="0" r="1" gradientUnits="userSpaceOnUse" gradientTransform="matrix(107.502 0 0 42.5488 111.231 205.513)"><stop stop-color="#5A9BFB"/><stop offset="1" stop-color="#fff"/></radialGradient><radialGradient id="b" cx="0" cy="0" r="1" gradientUnits="userSpaceOnUse" gradientTransform="rotate(-21.812 506.381 -208.438) scale(57.9042 39.9502)"><stop stop-color="#7FD4F9"/><stop offset=".43" stop-color="#81D5F9"/><stop offset=".58" stop-color="#88D7F9"/><stop offset=".69" stop-color="#93DBFA"/><stop offset=".78" stop-color="#A4E1FB"/><stop offset=".86" stop-color="#BAE8FC"/><stop offset=".92" stop-color="#D6F1FD"/><stop offset=".98" stop-color="#F5FCFF"/><stop offset="1" stop-color="#fff"/></radialGradient><radialGradient id="c" cx="0" cy="0" r="1" gradientUnits="userSpaceOnUse" gradientTransform="rotate(-21.812 506.381 -208.438) scale(57.9042 39.9502)"><stop stop-color="#80E3C8"/><stop offset=".43" stop-color="#82E3C9"/><stop offset=".58" stop-color="#89E5CC"/><stop offset=".69" stop-color="#94E8D1"/><stop offset=".78" stop-color="#A5EBD8"/><stop offset=".86" stop-color="#BBF0E2"/><stop offset=".93" stop-color="#D7F6ED"/><stop offset=".99" stop-color="#F6FDFB"/><stop offset="1" stop-color="#fff"/></radialGradient><radialGradient id="d" cx="0" cy="0" r="1" gradientUnits="userSpaceOnUse" gradientTransform="rotate(-21.812 506.381 -208.438) scale(57.9042 39.9502)"><stop stop-color="#5A9BFB"/><stop offset=".41" stop-color="#5C9CFB"/><stop offset=".55" stop-color="#63A0FB"/><stop offset=".66" stop-color="#6EA7FB"/><stop offset=".74" stop-color="#7FB2FC"/><stop offset=".81" stop-color="#95BFFC"/><stop offset=".88" stop-color="#B1CFFD"/><stop offset=".94" stop-color="#D1E3FE"/><stop offset=".99" stop-color="#F5F9FF"/><stop offset="1" stop-color="#fff"/></radialGradient><radialGradient id="e" cx="0" cy="0" r="1" gradientUnits="userSpaceOnUse" gradientTransform="matrix(67.6449 0 0 25.4005 108.602 150.01)"><stop stop-color="#5A9BFB"/><stop offset="1" stop-color="#fff"/></radialGradient><radialGradient id="f" cx="0" cy="0" r="1" gradientUnits="userSpaceOnUse" gradientTransform="matrix(35.0369 0 0 13.1562 108.602 122.868)"><stop stop-color="#5A9BFB"/><stop offset="1" stop-color="#fff"/></radialGradient></defs></svg>