<svg width="222" height="263" fill="none" xmlns="http://www.w3.org/2000/svg"><path style="mix-blend-mode:multiply" d="M180.562 182.906c47.381 15.507 54.687 43.6 16.318 62.745-38.369 19.146-107.887 22.101-155.272 6.594C-5.776 236.738-13.079 208.65 25.29 189.5c38.37-19.15 107.887-22.096 155.272-6.594Z" fill="url(#a)"/><path d="M108.485 219.323c-22.787 0-44.286-3.092-62.15-8.942-25.13-8.225-39.555-20.926-40.618-35.765-.523-7.308 2.098-21.308 25.51-32.993 19.177-9.569 47.385-15.055 77.389-15.055 22.79 0 44.289 3.096 62.174 8.947 25.129 8.22 39.555 20.922 40.618 35.76.519 7.304-2.098 21.308-25.514 32.993-19.205 9.569-47.414 15.055-77.409 15.055Z" fill="#001C63" style="mix-blend-mode:multiply" opacity=".2"/><path d="M108.485 235.11c-22.787 0-44.286-3.095-62.15-8.946-25.13-8.225-39.555-20.922-40.618-35.761-.523-7.307 2.098-21.308 25.51-32.997 19.177-9.544 47.385-15.054 77.389-15.054 22.79 0 44.289 3.095 62.174 8.946 25.129 8.224 39.555 20.922 40.618 35.761.519 7.307-2.098 21.307-25.514 32.993-19.205 9.568-47.414 15.058-77.409 15.058Z" fill="#001C63" style="mix-blend-mode:multiply" opacity=".2"/><path d="M168.345 143.095c40.798 13.349 47.091 37.536 14.053 54.022-33.037 16.486-92.889 19.026-133.703 5.677-40.815-13.349-47.087-37.537-14.05-54.023 33.038-16.486 92.906-19.025 133.7-5.676Z" fill="#001C63" style="mix-blend-mode:multiply"/><path d="M156.172 149.17c32.489 10.635 37.502 29.897 11.191 43.026-26.311 13.129-73.983 15.154-106.476 4.523-32.494-10.631-37.503-29.877-11.191-43.026 26.311-13.15 73.982-15.155 106.476-4.523Z" fill="url(#b)"/><path d="M156.172 149.17c32.489 10.635 37.502 29.897 11.191 43.026-26.311 13.129-73.983 15.154-106.476 4.523-32.494-10.631-37.503-29.877-11.191-43.026 26.311-13.15 73.982-15.155 106.476-4.523Z" fill="url(#c)"/><path d="M156.172 149.17c32.489 10.635 37.502 29.897 11.191 43.026-26.311 13.129-73.983 15.154-106.476 4.523-32.494-10.631-37.503-29.877-11.191-43.026 26.311-13.15 73.982-15.155 106.476-4.523Z" fill="url(#d)"/><path d="M176.305 145.556h-13.419a71.418 71.418 0 0 0-11.706-4.917c-29.088-9.519-71.767-7.705-95.322 4.05-.572.286-1.116.577-1.656.867H40.885V160.3c-1.227 8.51 7.34 17.133 24.99 22.909 29.092 9.519 71.771 7.706 95.326-4.05 10.173-5.075 15.104-11.174 15.096-17.237l.008-16.366Z" fill="#E6E6ED"/><path d="M151.18 124.273c29.091 9.519 33.577 26.764 10.021 38.52-23.555 11.755-66.238 13.565-95.326 4.05-29.087-9.515-33.573-26.769-10.017-38.52 23.555-11.752 66.234-13.569 95.322-4.05Z" fill="#FAFAFF"/><path style="mix-blend-mode:multiply" d="M108.456 173.055c37.474 0 67.853-12.312 67.853-27.499 0-15.188-30.379-27.499-67.853-27.499-37.474 0-67.853 12.311-67.853 27.499 0 15.187 30.379 27.499 67.853 27.499Z" fill="url(#e)"/><path d="M176.305 118.451h-13.419a71.036 71.036 0 0 0-11.706-4.917c-29.088-9.519-71.767-7.706-95.322 4.05-.572.286-1.116.576-1.656.867H40.885v14.743c-1.227 8.511 7.34 17.134 24.99 22.91 29.092 9.519 71.771 7.705 95.326-4.05 10.173-5.075 15.104-11.175 15.096-17.237l.008-16.366Z" fill="#E6E6ED"/><path d="M151.18 97.15c29.091 9.52 33.577 26.765 10.021 38.521-23.555 11.755-66.238 13.564-95.326 4.045-29.087-9.519-33.573-26.764-10.017-38.516 23.555-11.751 66.234-13.552 95.322-4.05Z" fill="#FAFAFF"/><path style="mix-blend-mode:multiply" opacity=".25" d="M108.456 132.696c19.409 0 35.143-6.378 35.143-14.246 0-7.867-15.734-14.245-35.143-14.245s-35.143 6.378-35.143 14.245c0 7.868 15.734 14.246 35.143 14.246Z" fill="url(#f)"/><path d="M106.35 23.664c0 5.048-1.155 8.862-3.463 11.44-2.309 2.578-5.422 3.867-9.34 3.867-3.944 0-7.071-1.289-9.383-3.867-2.311-2.578-3.473-6.392-3.484-11.44V15.82c0-5.051 1.147-8.865 3.44-11.44C86.41 1.805 89.532.518 93.481.518c3.931 0 7.056 1.291 9.376 3.875 2.32 2.584 3.478 6.393 3.475 11.428l.017 7.843Zm-8.525-8.445c0-2.857-.371-4.913-1.112-6.166a3.573 3.573 0 0 0-1.347-1.396 3.504 3.504 0 0 0-1.867-.475 3.435 3.435 0 0 0-1.866.468 3.504 3.504 0 0 0-1.336 1.403c-.714 1.253-1.072 3.309-1.075 6.166v8.984c0 2.913.363 4.988 1.088 6.224a3.57 3.57 0 0 0 1.358 1.399 3.5 3.5 0 0 0 1.88.465 3.452 3.452 0 0 0 1.856-.471 3.52 3.52 0 0 0 1.333-1.393c.725-1.242 1.088-3.317 1.088-6.224V15.22ZM125.935.505c1.3-.014 2.598.11 3.872.37 1.278.296 2.531.695 3.746 1.194l-1.419 6.316c-1.182-.357-2.212-.627-3.099-.805a15.213 15.213 0 0 0-3.051-.27 6.013 6.013 0 0 0-2.68.518 6.093 6.093 0 0 0-2.189 1.652c-1.222 1.444-1.808 3.554-1.758 6.329l.077.128a7.39 7.39 0 0 1 2.96-2.004 11.548 11.548 0 0 1 4.2-.718c3.287 0 5.847 1.202 7.678 3.606 1.832 2.404 2.747 5.481 2.744 9.233 0 3.696-1.21 6.773-3.631 9.232-2.42 2.46-5.51 3.688-9.269 3.685-4.034 0-7.29-1.344-9.768-4.033-2.478-2.69-3.718-6.37-3.721-11.042v-7.523c0-4.93 1.43-8.803 4.289-11.619 2.86-2.816 6.533-4.232 11.019-4.249Zm-1.696 19.387a8.582 8.582 0 0 0-3.047.485 4.776 4.776 0 0 0-2.011 1.353v2.2c0 2.696.435 4.771 1.304 6.223a4.087 4.087 0 0 0 1.517 1.597c.64.382 1.372.577 2.114.565 1.281 0 2.326-.614 3.136-1.842a7.765 7.765 0 0 0 1.227-4.374c0-1.892-.393-3.397-1.178-4.514a3.614 3.614 0 0 0-1.315-1.25 3.547 3.547 0 0 0-1.747-.443Z" fill="#001C63"/><path fill-rule="evenodd" clip-rule="evenodd" d="M89.145 117c.597-7.813-.935-7.46 5.61-9.929 3.269-1.221 7.461-2.774 10.445-4.646L110.809 117H89.146Zm50.578-28.236 8.818 2.456.936-3.358a1.461 1.461 0 0 1 .895-1.037c1.105-.36 1.797.752 2.286 1.526 1.356 2.19 3.655 6.918 4.395 8.024a1.434 1.434 0 0 1-.082 1.778 1.414 1.414 0 0 1-.515.372c-1.241.576-5.894 3.601-8.139 4.693-.773.38-1.818.834-2.523 0a1.472 1.472 0 0 1-.224-1.356l.929-3.35-8.817-2.463 2.034-7.305.007.02Zm-3.601-11.218 8.566-3.29 1.255 3.256a1.422 1.422 0 0 0 .983.943c1.14.258 1.723-.916 2.13-1.73 1.16-2.313 2.984-7.264 3.622-8.403a1.424 1.424 0 0 0 .109-1.234 1.418 1.418 0 0 0-.903-.848c-1.288-.462-6.212-3.025-8.539-3.907-.814-.305-1.892-.678-2.516.224a1.448 1.448 0 0 0-.095 1.356l1.241 3.249-8.573 3.296 2.713 7.088h.007ZM91.357 88.52 82.6 91.233l-1.044-3.323a1.464 1.464 0 0 0-.923-1.01c-1.126-.326-1.777.806-2.238 1.593-1.302 2.238-3.432 7.034-4.137 8.14a1.418 1.418 0 0 0 .678 2.129c1.255.536 6.003 3.391 8.275 4.436.793.359 1.845.773 2.523-.068a1.468 1.468 0 0 0 .183-1.357l-1.065-3.269 8.756-2.713-2.265-7.27h.014Zm3.811-10.974-8.58-3.29-1.247 3.256a1.438 1.438 0 0 1-.984.943c-1.146.258-1.723-.916-2.136-1.73-1.16-2.313-2.978-7.264-3.616-8.403a1.417 1.417 0 0 1 .821-2.082c1.289-.462 6.206-3.025 8.54-3.907.806-.305 1.885-.678 2.509.224a1.464 1.464 0 0 1 .102 1.356l-1.269 3.256 8.567 3.29-2.713 7.087h.006Zm22.044 31.044h.78a1.296 1.296 0 0 0 1.289-1.289v-2.082a1.291 1.291 0 0 0-1.289-1.282h-4.653c-.34 0-.666.135-.906.376-.241.24-.376.566-.376.906v2.082a1.288 1.288 0 0 0 1.282 1.289h.794l-1.472 7.746h6.063l-1.512-7.746Zm-8.126-11.32c.143-1.2-3.391-5.772-4.069-7.97-1.384-2.204-1.852-5.724-.36-8.064.604-.936.346-2.591.346-3.866 0-12.738 22.315-12.745 22.315 0 0 1.607-.366 2.835.509 4.07 1.465 2.122.678 5.873-.529 7.84-.787 2.306-4.524 6.667-4.267 7.976.231 6.539-13.985 6.322-13.945 0v.014Zm17.323 4.476c2.713 1.757 6.627 3.195 9.733 4.233 6.104 2.034 6.104 2.319 6.05 11.015H120.61l5.799-15.248Z" fill="#001C63"/><defs><radialGradient id="a" cx="0" cy="0" r="1" gradientUnits="userSpaceOnUse" gradientTransform="matrix(107.502 0 0 42.5488 111.085 204.514)"><stop stop-color="#1628B1"/><stop offset="1" stop-color="#fff"/></radialGradient><radialGradient id="b" cx="0" cy="0" r="1" gradientUnits="userSpaceOnUse" gradientTransform="matrix(53.75844 -21.51545 14.84431 37.08996 115.532 172.233)"><stop stop-color="#80E3C8"/><stop offset=".43" stop-color="#82E3C9"/><stop offset=".58" stop-color="#89E5CC"/><stop offset=".69" stop-color="#94E8D1"/><stop offset=".78" stop-color="#A5EBD8"/><stop offset=".86" stop-color="#BBF0E2"/><stop offset=".93" stop-color="#D7F6ED"/><stop offset=".99" stop-color="#F6FDFB"/><stop offset="1" stop-color="#fff"/></radialGradient><radialGradient id="c" cx="0" cy="0" r="1" gradientUnits="userSpaceOnUse" gradientTransform="matrix(53.75844 -21.51545 14.84431 37.08996 115.532 172.233)"><stop stop-color="#80E3C8"/><stop offset=".43" stop-color="#82E3C9"/><stop offset=".58" stop-color="#89E5CC"/><stop offset=".69" stop-color="#94E8D1"/><stop offset=".78" stop-color="#A5EBD8"/><stop offset=".86" stop-color="#BBF0E2"/><stop offset=".93" stop-color="#D7F6ED"/><stop offset=".99" stop-color="#F6FDFB"/><stop offset="1" stop-color="#fff"/></radialGradient><radialGradient id="d" cx="0" cy="0" r="1" gradientUnits="userSpaceOnUse" gradientTransform="matrix(53.75844 -21.51545 14.84431 37.08996 115.532 172.233)"><stop stop-color="#1628B1"/><stop offset=".38" stop-color="#182AB2"/><stop offset=".52" stop-color="#1F30B4"/><stop offset=".61" stop-color="#2A3BB8"/><stop offset=".69" stop-color="#3B4BBE"/><stop offset=".76" stop-color="#515FC5"/><stop offset=".82" stop-color="#6D78CE"/><stop offset=".87" stop-color="#8D96D9"/><stop offset=".92" stop-color="#B3B9E5"/><stop offset=".97" stop-color="#DCDFF3"/><stop offset="1" stop-color="#fff"/></radialGradient><radialGradient id="e" cx="0" cy="0" r="1" gradientUnits="userSpaceOnUse" gradientTransform="matrix(67.6449 0 0 25.4005 108.456 149.01)"><stop stop-color="#1628B1"/><stop offset="1" stop-color="#fff"/></radialGradient><radialGradient id="f" cx="0" cy="0" r="1" gradientUnits="userSpaceOnUse" gradientTransform="matrix(35.0368 0 0 13.1562 108.456 121.868)"><stop stop-color="#1628B1"/><stop offset="1" stop-color="#fff"/></radialGradient></defs></svg>