<svg width="221" height="265" fill="none" xmlns="http://www.w3.org/2000/svg"><path style="mix-blend-mode:multiply" d="M180.024 184.806c47.385 15.506 54.712 43.595 16.318 62.728-38.393 19.134-107.886 22.096-155.267 6.594-47.381-15.503-54.692-43.595-16.323-62.745 38.37-19.151 107.891-22.08 155.272-6.577Z" fill="url(#a)"/><path d="M110.479 220.512c-22.787 0-44.286-3.095-62.15-8.946-25.13-8.22-39.555-20.922-40.618-35.761-.523-7.303 2.097-21.308 25.514-32.993 19.172-9.568 47.38-15.054 77.388-15.054 22.787 0 44.286 3.091 62.15 8.942 25.13 8.224 39.555 20.926 40.618 35.765.523 7.307-2.097 21.308-25.514 32.993-19.172 9.569-47.381 15.054-77.388 15.054Z" fill="#8EDBDC" style="mix-blend-mode:multiply" opacity=".2"/><path d="M170.354 144.286c40.794 13.349 47.087 37.536 14.049 54.018-33.037 16.482-92.889 19.03-133.703 5.681-40.814-13.349-47.09-37.537-14.053-54.023 33.037-16.486 92.909-19.029 133.707-5.676Z" fill="#029894" style="mix-blend-mode:multiply"/><path d="M158.178 150.36c32.493 10.631 37.502 29.877 11.191 43.027-26.312 13.15-73.983 15.154-106.476 4.523-32.494-10.631-37.503-29.898-11.191-43.027 26.311-13.129 73.982-15.154 106.476-4.523Z" fill="url(#b)"/><path d="M158.178 150.36c32.493 10.631 37.502 29.877 11.191 43.027-26.312 13.15-73.983 15.154-106.476 4.523-32.494-10.631-37.503-29.898-11.191-43.027 26.311-13.129 73.982-15.154 106.476-4.523Z" fill="url(#c)"/><path d="M158.178 150.36c32.493 10.631 37.502 29.877 11.191 43.027-26.312 13.15-73.983 15.154-106.476 4.523-32.494-10.631-37.503-29.898-11.191-43.027 26.311-13.129 73.982-15.154 106.476-4.523Z" fill="url(#d)"/><path d="M110.479 236.297c-22.787 0-44.286-3.091-62.15-8.942-25.13-8.224-39.555-20.926-40.618-35.76-.523-7.308 2.097-21.308 25.514-32.993 19.172-9.569 47.38-15.059 77.388-15.059 22.787 0 44.286 3.095 62.15 8.946 25.13 8.221 39.555 20.922 40.618 35.761.523 7.307-2.097 21.308-25.514 32.993-19.172 9.569-47.381 15.054-77.388 15.054Z" fill="#8EDBDC" style="mix-blend-mode:multiply" opacity=".2"/><path d="M178.311 146.746h-13.423a70.883 70.883 0 0 0-11.703-4.917c-29.091-9.519-71.77-7.706-95.326 4.05-.572.282-1.112.576-1.635.867h-13.33v14.743c-1.226 8.511 7.36 17.134 24.987 22.91 29.092 9.515 71.771 7.705 95.326-4.05 10.173-5.075 15.104-11.175 15.096-17.237l.008-16.366Z" fill="#E6EDEB"/><path d="M153.19 125.463c29.087 9.519 33.573 26.765 10.017 38.52-23.555 11.756-66.238 13.565-95.326 4.046-29.087-9.519-33.573-26.764-10.017-38.52 23.555-11.756 66.234-13.565 95.326-4.046Z" fill="#FAFFFE"/><path style="mix-blend-mode:multiply" d="M110.536 174.215c37.433 0 67.78-12.299 67.78-27.47s-30.347-27.47-67.78-27.47c-37.434 0-67.78 12.299-67.78 27.47s30.346 27.47 67.78 27.47Z" fill="url(#e)"/><path d="M178.311 119.642h-13.423a70.676 70.676 0 0 0-11.703-4.917c-29.091-9.519-71.77-7.706-95.326 4.05a37.99 37.99 0 0 0-1.635.867h-13.33v14.744c-1.226 8.51 7.36 17.129 24.987 22.905 29.092 9.519 71.771 7.71 95.326-4.046 10.173-5.079 15.104-11.179 15.096-17.237l.008-16.366Z" fill="#E6EDEB"/><path d="M153.19 98.36c29.087 9.519 33.573 26.764 10.017 38.52-23.555 11.755-66.238 13.565-95.326 4.046-29.087-9.52-33.573-26.765-10.017-38.521 23.555-11.755 66.234-13.564 95.326-4.045Z" fill="#FAFFFE"/><path style="mix-blend-mode:multiply" opacity=".25" d="M110.536 133.887c19.409 0 35.143-6.378 35.143-14.245 0-7.868-15.734-14.246-35.143-14.246-19.41 0-35.143 6.378-35.143 14.246 0 7.867 15.734 14.245 35.143 14.245Z" fill="url(#f)"/><path d="M108.43 23.909c0 5.051-1.156 8.865-3.468 11.44-2.311 2.576-5.424 3.863-9.338 3.863-3.947 0-7.082-1.287-9.405-3.863-2.322-2.575-3.478-6.389-3.467-11.44v-7.86c0-5.05 1.148-8.864 3.443-11.44C88.49 2.034 91.61.746 95.554.746c3.928 0 7.053 1.293 9.376 3.88 2.322 2.587 3.482 6.394 3.479 11.424l.021 7.859ZM99.9 15.46c0-2.86-.37-4.914-1.112-6.162A3.573 3.573 0 0 0 97.442 7.9a3.504 3.504 0 0 0-1.867-.477c-.654-.023-1.3.14-1.866.472a3.517 3.517 0 0 0-1.336 1.403c-.714 1.25-1.073 3.305-1.075 6.162v8.988c0 2.908.362 4.983 1.087 6.225.316.585.786 1.07 1.358 1.4.572.328 1.223.489 1.88.463.65.022 1.294-.14 1.857-.47a3.512 3.512 0 0 0 1.333-1.393c.728-1.242 1.09-3.317 1.087-6.225V15.46ZM138.649 38.673H112.89v-5.648l11.857-12.635a25.264 25.264 0 0 0 3.312-4.673 7.987 7.987 0 0 0 1.063-3.568 5.182 5.182 0 0 0-1.075-3.444c-.714-.855-1.789-1.283-3.226-1.283a3.417 3.417 0 0 0-1.729.422c-.53.291-.975.718-1.293 1.238a7.474 7.474 0 0 0-1.099 4.224h-8.354l-.049-.153c-.076-1.62.182-3.24.757-4.754a11.7 11.7 0 0 1 2.584-4.039c2.311-2.407 5.372-3.61 9.183-3.61 4.048 0 7.207 1.01 9.478 3.03 2.27 2.019 3.404 4.785 3.402 8.298a11.083 11.083 0 0 1-1.808 6.266c-1.204 1.812-3.427 4.508-6.668 8.087l-4.985 5.42.074.153h14.335v6.669Z" fill="#029894"/><path fill-rule="evenodd" clip-rule="evenodd" d="M92.955 113.148V93.399h8.882c3.766.676 7.532 2.717 11.299 5.088h6.898c3.124.189 4.759 3.354 1.725 5.434-2.42 1.773-5.611 1.673-8.882 1.38-2.256-.112-2.355 2.922 0 2.931.816.063 1.705-.128 2.482-.129 4.084-.003 7.448-.784 9.505-4.01l1.036-2.415 10.263-5.088c5.136-1.692 8.785 3.681 5.002 7.416-7.434 5.408-15.058 9.86-22.855 13.453-5.663 3.445-11.326 3.328-16.989 0l-8.366-4.311Zm38.635-31.647a.619.619 0 0 0-.884.154l-.564.795a3.767 3.767 0 0 0-.63-.21c-.22-.054-.43-.099-.651-.132l-.177-1.038a.64.64 0 0 0-.254-.409.6.6 0 0 0-.475-.1l-1.304.233a.65.65 0 0 0-.408.254.605.605 0 0 0-.111.475l.166.95c-.21.088-.408.188-.596.31-.188.11-.375.242-.541.375l-.884-.608a.59.59 0 0 0-.464-.11.635.635 0 0 0-.408.265l-.751 1.072a.614.614 0 0 0-.111.475c.034.177.122.309.265.408l.795.564a3.843 3.843 0 0 0-.21.63c-.056.22-.1.43-.133.65l-1.037.178a.643.643 0 0 0-.41.254.607.607 0 0 0-.099.475l.232 1.303a.654.654 0 0 0 .255.409c.143.1.298.143.475.11l.949-.166c.089.21.188.409.309.597.111.187.243.375.376.552l-.608.872a.588.588 0 0 0-.11.464.64.64 0 0 0 .265.408l1.082.763c.144.099.31.132.475.099a.675.675 0 0 0 .42-.254l.563-.806c.199.088.409.154.63.21.221.055.431.099.651.132l.178 1.038c.032.177.121.309.254.409.143.1.298.132.474.1l1.304-.233a.65.65 0 0 0 .409-.254.614.614 0 0 0 .111-.475l-.167-.95c.211-.088.409-.187.597-.309.188-.11.375-.243.552-.375l.873.607c.143.1.298.144.474.11a.616.616 0 0 0 .41-.264l.761-1.083c.1-.143.133-.309.1-.475a.673.673 0 0 0-.254-.42l-.807-.552c.089-.2.155-.409.21-.63.056-.22.1-.43.133-.651l1.038-.177a.64.64 0 0 0 .409-.254.599.599 0 0 0 .099-.475l-.232-1.304a.647.647 0 0 0-.254-.408.605.605 0 0 0-.475-.111l-.95.166a4.948 4.948 0 0 0-.309-.597 3.97 3.97 0 0 0-.375-.54l.607-.884a.586.586 0 0 0 .111-.464.641.641 0 0 0-.265-.408l-1.071-.751-.033.01Zm-3.788 3.07a2.657 2.657 0 0 1 1.027.023c.331.077.63.21.905.397.266.188.497.431.684.718.188.286.31.607.365.95a2.65 2.65 0 0 1-.022 1.027c-.077.33-.21.63-.398.905-.187.265-.43.497-.718.685-.287.188-.607.309-.949.365a2.676 2.676 0 0 1-1.027-.023 2.664 2.664 0 0 1-.905-.397 2.658 2.658 0 0 1-.686-.718 2.44 2.44 0 0 1-.364-.95 2.67 2.67 0 0 1 .023-1.027c.077-.331.21-.63.397-.905a2.67 2.67 0 0 1 .717-.685c.287-.189.608-.31.951-.365Zm-10.029-15.485a.468.468 0 0 0-.155-.11.37.37 0 0 0-.166-.033.369.369 0 0 0-.165.033.605.605 0 0 0-.145.1l-.01.01-1.249 1.248a.704.704 0 0 1-.905.078c-.144-.088-.288-.177-.453-.265-.176-.089-.343-.178-.497-.255a7.437 7.437 0 0 0-.52-.22c-.154-.055-.331-.122-.541-.188a.71.71 0 0 1-.486-.674V66.9a.424.424 0 0 0-.033-.177.394.394 0 0 0-.1-.133.526.526 0 0 0-.132-.1.416.416 0 0 0-.177-.033h-2.406a.652.652 0 0 0-.166.023.568.568 0 0 0-.155.11.323.323 0 0 0-.089.133.44.44 0 0 0-.033.177v1.756c0 .353-.254.64-.585.706a11.68 11.68 0 0 0-.519.133c-.177.056-.342.11-.519.177-.166.066-.342.132-.508.22-.177.078-.332.166-.486.244a.7.7 0 0 1-.84-.122l-1.38-1.37c-.01-.01-.01-.01-.01-.021a.53.53 0 0 0-.133-.1c-.044-.022-.088-.022-.154-.022a.37.37 0 0 0-.166.033.441.441 0 0 0-.155.111l-1.679 1.69a.453.453 0 0 0-.111.154.371.371 0 0 0-.033.166c0 .067.012.122.033.166.022.044.056.1.1.144v.011l1.248 1.248c.243.243.276.63.077.905-.088.144-.176.288-.264.454-.089.176-.177.342-.254.496a6.497 6.497 0 0 0-.221.52c-.055.154-.122.33-.188.541a.71.71 0 0 1-.674.486h-1.91a.42.42 0 0 0-.177.033.906.906 0 0 0-.133.089.302.302 0 0 0-.088.132.424.424 0 0 0-.033.177v2.407c0 .067.011.122.022.166.022.045.055.1.111.155a.304.304 0 0 0 .133.088c.044.022.11.033.177.033h1.756c.353 0 .64.254.707.586.044.188.088.364.132.508.056.177.111.354.177.53.066.166.133.342.221.52.089.187.166.353.243.508a.7.7 0 0 1-.132.828l-1.37 1.359-.012.01a.52.52 0 0 0-.099.133c-.022.045-.022.09-.022.155 0 .066.011.121.033.166.022.055.055.11.11.154l1.668 1.69a.47.47 0 0 0 .332.133.525.525 0 0 0 .188-.033c.043-.022.099-.055.143-.088l1.238-1.26a.705.705 0 0 1 .905-.087c.144.088.287.177.453.265.177.088.342.176.497.254.165.078.342.154.519.22.154.056.331.122.541.189.299.1.486.375.486.674v1.91a.423.423 0 0 0 .122.31.416.416 0 0 0 .32.121h2.408a.643.643 0 0 0 .165-.022.579.579 0 0 0 .155-.11.316.316 0 0 0 .089-.133.423.423 0 0 0 .034-.177v-1.756c0-.354.254-.64.585-.707.187-.045.364-.088.519-.133.177-.056.342-.11.519-.177.166-.066.342-.133.519-.22.188-.09.354-.167.508-.244a.7.7 0 0 1 .829.133l1.358 1.37.011.011a.508.508 0 0 0 .132.1c.045.022.1.022.166.022a.372.372 0 0 0 .166-.033.554.554 0 0 0 .133-.1c.011-.01.022-.022.033-.022l1.679-1.657a.452.452 0 0 0 .099-.154.497.497 0 0 0 0-.364.932.932 0 0 0-.088-.144l-1.259-1.238a.703.703 0 0 1-.088-.905c.088-.144.176-.287.265-.453.088-.177.176-.342.254-.497.077-.166.154-.342.22-.52.056-.154.123-.33.189-.54a.707.707 0 0 1 .673-.486h1.911a.412.412 0 0 0 .309-.122.414.414 0 0 0 .122-.32v-2.408a.673.673 0 0 0-.022-.166.592.592 0 0 0-.111-.154.307.307 0 0 0-.132-.089.422.422 0 0 0-.176-.033h-1.757a.723.723 0 0 1-.706-.596c-.044-.155-.089-.32-.133-.486-.055-.166-.111-.343-.188-.53 0-.011-.011-.022-.011-.034a11.053 11.053 0 0 0-.199-.485c-.078-.166-.155-.332-.243-.487a.701.701 0 0 1 .122-.839l1.37-1.38c0-.011.011-.011.022-.011a.535.535 0 0 0 .099-.133c.022-.045.022-.088.022-.155a.368.368 0 0 0-.033-.166.444.444 0 0 0-.11-.154l-1.691-1.68.008.01Zm.398-1.424c.232.1.43.232.607.409l1.69 1.679h.011c.176.177.309.375.408.596.101.232.145.464.145.718 0 .255-.056.497-.145.718-.099.221-.232.42-.418.585l-.995 1.005c.012.034.034.067.044.1.089.188.167.387.244.574 0 .011.011.022.011.033.077.188.143.398.21.619l.022.077h1.215a1.815 1.815 0 0 1 1.314.552l.011.012c.176.177.309.376.397.597.088.22.144.463.144.707v2.407c0 .52-.177.96-.541 1.326-.177.176-.387.32-.608.408a1.926 1.926 0 0 1-.717.133h-1.415c-.011.033-.033.077-.044.11-.078.2-.166.398-.254.597-.1.21-.188.409-.287.585l-.034.066.862.85.033.034c.177.177.298.387.387.608.088.22.133.453.133.707a1.897 1.897 0 0 1-.52 1.303l-.022.022-1.69 1.68c-.176.187-.376.32-.596.419-.22.1-.464.143-.729.143-.254 0-.497-.055-.729-.143a1.742 1.742 0 0 1-.595-.42l-.984-.994a.338.338 0 0 1-.11.045c-.189.077-.387.166-.597.243-.198.077-.408.143-.618.21-.034.01-.056.022-.089.022v1.204a1.803 1.803 0 0 1-.552 1.314l-.011.011c-.177.177-.375.31-.596.397a1.914 1.914 0 0 1-.706.144h-2.408a1.8 1.8 0 0 1-1.326-.54 1.85 1.85 0 0 1-.408-.609 1.916 1.916 0 0 1-.133-.717V86.79c-.033-.011-.078-.033-.111-.045-.199-.077-.397-.165-.596-.254-.21-.1-.409-.187-.586-.287l-.066-.033-.851.862-.033.033a1.782 1.782 0 0 1-.607.387 1.876 1.876 0 0 1-.707.132 1.904 1.904 0 0 1-1.304-.52l-.022-.021-1.69-1.712a1.988 1.988 0 0 1-.408-.597 1.764 1.764 0 0 1-.144-.718c0-.254.055-.496.144-.717.099-.221.243-.42.42-.597l.993-.983a.33.33 0 0 1-.044-.11c-.077-.188-.165-.387-.243-.597-.077-.21-.154-.408-.21-.618l-.022-.089h-1.204a1.805 1.805 0 0 1-1.315-.552l-.01-.011a1.763 1.763 0 0 1-.398-.597 1.924 1.924 0 0 1-.144-.706v-2.408c0-.254.045-.486.133-.717.088-.221.232-.42.409-.608.177-.177.386-.32.607-.409a1.92 1.92 0 0 1 .718-.132h1.414c.011-.034.033-.078.045-.11.077-.2.165-.398.254-.597.099-.21.187-.408.287-.586l.033-.066-.85-.861a1.724 1.724 0 0 1-.409-.608 1.802 1.802 0 0 1-.144-.718c0-.254.044-.486.144-.717.099-.232.232-.431.409-.608l1.679-1.69v-.01c.177-.177.375-.31.596-.409.232-.1.464-.144.718-.144.254 0 .497.055.718.144.22.1.419.232.585.42l1.005.993c.033-.011.067-.033.089-.044.187-.088.386-.165.596-.254.199-.077.409-.144.618-.21.033-.01.055-.022.088-.022v-1.203a1.809 1.809 0 0 1 .553-1.314l.011-.012a1.77 1.77 0 0 1 .597-.397 1.92 1.92 0 0 1 .706-.144h2.407c.254 0 .486.044.718.133.232.088.432.232.608.408.177.177.32.387.409.608.087.22.132.464.132.718v1.413c.033.012.078.034.11.045.2.077.398.166.596.254.211.1.409.188.587.287l.065.033.862-.85a1.73 1.73 0 0 1 .607-.409c.232-.1.476-.144.718-.144.255 0 .487.045.719.144v.022Zm-7.633 4.473c.365 0 .729.033 1.082.11a5.2 5.2 0 0 1 1.027.32c.321.145.63.31.918.498.287.187.552.408.794.651.244.243.464.508.652.807.199.287.365.596.498.916.01.023.01.044.022.055.132.32.232.652.298.972.066.353.11.718.11 1.082 0 .364-.033.729-.11 1.083a5.258 5.258 0 0 1-.32 1.026c-.145.32-.309.63-.498.917a6.343 6.343 0 0 1-.652.806 4.55 4.55 0 0 1-.806.652 4.905 4.905 0 0 1-.916.497c-.022.011-.044.011-.056.022a5.49 5.49 0 0 1-.971.299 5.92 5.92 0 0 1-1.083.11c-.364 0-.729-.033-1.082-.11a5.298 5.298 0 0 1-1.028-.32 6.739 6.739 0 0 1-.916-.498 4.945 4.945 0 0 1-.795-.652 4.646 4.646 0 0 1-.652-.806 4.923 4.923 0 0 1-.497-.916c-.011-.022-.011-.045-.023-.056a5.38 5.38 0 0 1-.408-2.054c0-.365.033-.729.111-1.082.066-.342.176-.685.32-1.027a5.64 5.64 0 0 1 1.149-1.723c.243-.243.508-.464.795-.651a4.87 4.87 0 0 1 .916-.497c.023-.011.045-.011.056-.023.32-.132.652-.231.972-.298.353-.066.718-.11 1.082-.11h.011Zm.807 1.502a3.857 3.857 0 0 0-.807-.078 3.92 3.92 0 0 0-.806.078 4.312 4.312 0 0 0-.706.21c-.012.011-.023.011-.045.022a4.135 4.135 0 0 0-1.281.85 3.451 3.451 0 0 0-.475.586 4.091 4.091 0 0 0-.607 1.447 3.79 3.79 0 0 0-.078.806c0 .276.022.54.078.806.055.254.122.486.209.706.011.012.011.022.023.045a4.192 4.192 0 0 0 .85 1.28c.177.178.376.343.585.476a4 4 0 0 0 1.447.608c.255.055.531.077.806.077.276 0 .541-.022.807-.078.254-.055.485-.121.707-.21.011-.01.022-.01.044-.022a4.26 4.26 0 0 0 .696-.375c.21-.144.408-.298.585-.475a3.47 3.47 0 0 0 .475-.585 4.05 4.05 0 0 0 .607-1.447c.056-.254.078-.53.078-.806s-.022-.542-.078-.806a4.32 4.32 0 0 0-.21-.707c-.011-.012-.011-.022-.022-.045a4.092 4.092 0 0 0-.85-1.281 3.454 3.454 0 0 0-.585-.475 4.037 4.037 0 0 0-1.447-.607ZM77 91.5h13.281v23.631H77v-23.63Z" fill="#029894"/><defs><radialGradient id="a" cx="0" cy="0" r="1" gradientUnits="userSpaceOnUse" gradientTransform="matrix(107.502 0 0 42.5488 110.547 206.407)"><stop stop-color="#8EDBDC"/><stop offset="1" stop-color="#fff"/></radialGradient><radialGradient id="b" cx="0" cy="0" r="1" gradientUnits="userSpaceOnUse" gradientTransform="rotate(-21.812 506.825 -208.076) scale(57.9042 39.9502)"><stop stop-color="#8EDBDC"/><stop offset=".44" stop-color="#90DCDD"/><stop offset=".6" stop-color="#97DEDF"/><stop offset=".71" stop-color="#A2E2E2"/><stop offset=".8" stop-color="#B3E7E8"/><stop offset=".88" stop-color="#C9EEEE"/><stop offset=".95" stop-color="#E4F6F7"/><stop offset="1" stop-color="#fff"/></radialGradient><radialGradient id="c" cx="0" cy="0" r="1" gradientUnits="userSpaceOnUse" gradientTransform="rotate(-21.812 506.825 -208.076) scale(57.9042 39.9502)"><stop stop-color="#80E3C8"/><stop offset=".43" stop-color="#82E3C9"/><stop offset=".58" stop-color="#89E5CC"/><stop offset=".69" stop-color="#94E8D1"/><stop offset=".78" stop-color="#A5EBD8"/><stop offset=".86" stop-color="#BBF0E2"/><stop offset=".93" stop-color="#D7F6ED"/><stop offset=".99" stop-color="#F6FDFB"/><stop offset="1" stop-color="#fff"/></radialGradient><radialGradient id="d" cx="0" cy="0" r="1" gradientUnits="userSpaceOnUse" gradientTransform="rotate(-21.812 506.825 -208.076) scale(57.9042 39.9502)"><stop stop-color="#80E3C8"/><stop offset=".43" stop-color="#82E3C9"/><stop offset=".58" stop-color="#89E5CC"/><stop offset=".69" stop-color="#94E8D1"/><stop offset=".78" stop-color="#A5EBD8"/><stop offset=".86" stop-color="#BBF0E2"/><stop offset=".93" stop-color="#D7F6ED"/><stop offset=".99" stop-color="#F6FDFB"/><stop offset="1" stop-color="#fff"/></radialGradient><radialGradient id="e" cx="0" cy="0" r="1" gradientUnits="userSpaceOnUse" gradientTransform="matrix(67.5713 0 0 25.3728 110.536 150.199)"><stop stop-color="#8EDBDC"/><stop offset="1" stop-color="#fff"/></radialGradient><radialGradient id="f" cx="0" cy="0" r="1" gradientUnits="userSpaceOnUse" gradientTransform="matrix(35.0368 0 0 13.1562 110.536 123.059)"><stop stop-color="#8EDBDC"/><stop offset="1" stop-color="#fff"/></radialGradient></defs></svg>