<svg width="222" height="270" fill="none" xmlns="http://www.w3.org/2000/svg"><path style="mix-blend-mode:multiply" d="M180.456 190.556c47.385 15.507 54.691 43.6 16.318 62.745-38.373 19.146-107.887 22.101-155.268 6.594-47.38-15.507-54.691-43.595-16.322-62.741 38.37-19.146 107.891-22.088 155.272-6.598Z" fill="url(#a)"/><path d="M110.926 226.262c-22.787 0-44.29-3.091-62.174-8.942-25.13-8.224-39.555-20.926-40.618-35.761-.52-7.307 2.097-21.308 25.514-32.997 19.172-9.564 47.38-15.054 77.388-15.054 22.791 0 44.286 3.095 62.17 8.946 25.134 8.22 39.559 20.922 40.618 35.761.524 7.307-2.093 21.308-25.509 32.993-19.177 9.569-47.385 15.054-77.389 15.054Z" fill="#001C63" style="mix-blend-mode:multiply" opacity=".2"/><path d="M170.798 150.035c40.798 13.349 47.087 37.537 14.05 54.023-33.038 16.486-92.89 19.025-133.683 5.676-40.794-13.349-47.087-37.536-14.054-54.018 33.034-16.482 92.889-19.03 133.687-5.681Z" fill="#001C63" style="mix-blend-mode:multiply"/><path d="M158.622 156.11c32.494 10.635 37.503 29.877 11.191 43.027-26.311 13.15-73.982 15.154-106.472 4.523-32.49-10.631-37.506-29.898-11.19-43.027 26.315-13.129 73.982-15.154 106.471-4.523Z" fill="url(#b)"/><path d="M158.622 156.11c32.494 10.635 37.503 29.877 11.191 43.027-26.311 13.15-73.982 15.154-106.472 4.523-32.49-10.631-37.506-29.898-11.19-43.027 26.315-13.129 73.982-15.154 106.471-4.523Z" fill="url(#c)"/><path d="M158.622 156.11c32.494 10.635 37.503 29.877 11.191 43.027-26.311 13.15-73.982 15.154-106.472 4.523-32.49-10.631-37.506-29.898-11.19-43.027 26.315-13.129 73.982-15.154 106.471-4.523Z" fill="url(#d)"/><path d="M110.926 242.052c-22.787 0-44.29-3.096-62.174-8.947-25.13-8.224-39.555-20.922-40.618-35.76-.52-7.308 2.098-21.308 25.514-32.993 19.172-9.569 47.38-15.059 77.389-15.059 22.79 0 44.285 3.095 62.17 8.946 25.133 8.225 39.559 20.922 40.618 35.761.523 7.307-2.094 21.308-25.51 32.997-19.177 9.565-47.385 15.055-77.389 15.055Z" fill="#001C63" style="mix-blend-mode:multiply" opacity=".2"/><path d="M178.758 152.496h-13.419a71.542 71.542 0 0 0-11.706-4.917c-29.088-9.519-71.767-7.706-95.326 4.05-.573.286-1.112.576-1.636.867H43.338v14.743c-1.227 8.511 7.36 17.134 24.99 22.91 29.088 9.519 71.767 7.705 95.322-4.05 10.173-5.075 15.104-11.175 15.096-17.233l.012-16.37Z" fill="#E6E6E8"/><path d="M153.634 131.213c29.092 9.519 33.577 26.765 10.018 38.521-23.56 11.755-66.239 13.569-95.322 4.05-29.084-9.519-33.578-26.765-10.022-38.521 23.556-11.755 66.238-13.569 95.326-4.05Z" fill="#FDFDFF"/><path style="mix-blend-mode:multiply" d="M110.979 179.965c37.434 0 67.78-12.299 67.78-27.47s-30.346-27.47-67.78-27.47-67.78 12.299-67.78 27.47 30.346 27.47 67.78 27.47Z" fill="url(#e)"/><path d="M178.758 125.39h-13.419a71.63 71.63 0 0 0-11.706-4.917c-29.088-9.519-71.767-7.705-95.326 4.05a43.12 43.12 0 0 0-1.636.867H43.338v14.744c-1.227 8.51 7.36 17.133 24.99 22.909 29.088 9.519 71.767 7.706 95.322-4.05 10.173-5.075 15.104-11.174 15.096-17.237l.012-16.366Z" fill="#E6E6E8"/><path d="M153.634 104.109c29.092 9.519 33.577 26.764 10.018 38.52-23.56 11.755-66.239 13.565-95.322 4.045-29.084-9.519-33.578-26.764-10.022-38.515 23.556-11.752 66.238-13.57 95.326-4.05Z" fill="#FDFDFF"/><path style="mix-blend-mode:multiply" opacity=".25" d="M110.979 139.637c19.409 0 35.143-6.378 35.143-14.245 0-7.868-15.734-14.246-35.143-14.246s-35.143 6.378-35.143 14.246c0 7.867 15.734 14.245 35.143 14.245Z" fill="url(#f)"/><path d="M108.881 24.083c0 5.048-1.155 8.862-3.467 11.44-2.311 2.578-5.423 3.866-9.335 3.863-3.95 0-7.084-1.288-9.404-3.863-2.32-2.576-3.475-6.389-3.467-11.44v-7.86c0-5.051 1.147-8.863 3.442-11.436C88.947 2.215 92.066.925 96.01.92c3.928 0 7.053 1.293 9.375 3.88 2.323 2.586 3.483 6.394 3.48 11.423l.016 7.86Zm-8.529-8.449c0-2.857-.37-4.912-1.112-6.162a3.57 3.57 0 0 0-1.346-1.399 3.5 3.5 0 0 0-1.868-.476 3.435 3.435 0 0 0-1.864.47 3.506 3.506 0 0 0-1.333 1.405c-.72 1.25-1.078 3.305-1.076 6.162v8.988c0 2.907.363 4.982 1.088 6.224.316.586.786 1.07 1.358 1.398a3.488 3.488 0 0 0 1.88.461c.65.023 1.291-.14 1.854-.468a3.512 3.512 0 0 0 1.331-1.39c.728-1.245 1.091-3.32 1.088-6.225v-8.988ZM113.984 22.414 116.11 1.46h21.605v6.677h-14.65l-.936 7.834a7.722 7.722 0 0 1 2.404-1.208 11.294 11.294 0 0 1 3.165-.514c3.609-.067 6.384.998 8.325 3.195 1.94 2.197 2.91 5.317 2.907 9.361a12.815 12.815 0 0 1-3.312 8.922c-2.211 2.44-5.374 3.66-9.49 3.66a14.613 14.613 0 0 1-9.134-2.955 8.942 8.942 0 0 1-2.865-3.412 9.091 9.091 0 0 1-.881-4.393l.053-.154 8.35-.514c0 1.488.408 2.653 1.226 3.494.429.422.939.75 1.498.964.559.214 1.156.31 1.753.28 1.554 0 2.655-.553 3.304-1.66a8.23 8.23 0 0 0 .973-4.199c0-2.052-.363-3.67-1.088-4.85-.725-1.181-1.873-1.772-3.443-1.772a4.706 4.706 0 0 0-2.768.743 3.848 3.848 0 0 0-1.455 1.875l-7.667-.419ZM105.023 99.581c.445.409.687.955.725 1.517a2.303 2.303 0 0 1-.533 1.627c.38-.303.84-.459 1.307-.472a2.308 2.308 0 0 1 1.575.561l.058.055-.374.402.377-.403c.016.015.03.032.044.048.424.419.642.962.66 1.516a2.362 2.362 0 0 1-.436 1.444c.266-.138.559-.216.854-.23a2.142 2.142 0 0 1 1.476.492l.058.05c.432.387.661.907.69 1.441a2.2 2.2 0 0 1-.513 1.53l-.995 1.195c.193.117.387.236.583.357 2.029 1.251 4.301 2.65 6 .62l-4.092-3.083.994-1.319 4.4 3.316.395-.092.078-.013c.558-.075.984-.287 1.292-.621.25-.275.439-.643.57-1.099l-5.563-3.75.924-1.371 5.814 3.92c.686-.176 1.222-.43 1.611-.761a2.19 2.19 0 0 0 .638-.896l-6.991-5.001.956-1.344 7.291 5.216a2.064 2.064 0 0 0 1.162-.363c.281-.196.508-.462.672-.768.168-.31.268-.658.293-1.012a2.21 2.21 0 0 0-.358-1.398.843.843 0 0 1-.276-.169c-2.36-1.955-4.67-3.712-7.08-5.233-2.374-1.496-4.857-2.775-7.604-3.804a25.33 25.33 0 0 1-1.12.008c-1.058-.01-1.305-.013-2.093 1.531-.586 1.148-1.355 2.008-2.336 2.48-.931.448-2.014.532-3.267.168-1.856-.54-2.29-.983-1.964-2.107.09-.308.258-.61.48-1.006.057-.103.119-.216.273-.503.961-1.81 1.8-3.267 2.621-4.435a12.14 12.14 0 0 1-2.221-.443c-.749-.228-1.441-.524-2.297-.931l-5.888 10.6 2.326 2.406.885-1.022a2.31 2.31 0 0 1 1.526-.788 2.215 2.215 0 0 1 1.631.498l.038.035c.452.391.715.932.77 1.49.038.389-.024.787-.192 1.149l.899-1.054h-.001l.016-.02a.51.51 0 0 1 .04-.04 2.23 2.23 0 0 1 1.505-.715 2.275 2.275 0 0 1 1.625.539l.001-.001.019.017a.317.317 0 0 1 .042.04Zm3.905 12.054-1.029 1.234-.047.054a2.03 2.03 0 0 1-1.419.669 2.146 2.146 0 0 1-1.533-.542 2.08 2.08 0 0 1-.691-1.442 2.184 2.184 0 0 1 .28-1.191l-.109.125-.053.056c-.413.44-.97.666-1.535.682a2.304 2.304 0 0 1-1.575-.562l-.034-.031-.026-.025-.001.001a.478.478 0 0 1-.044-.046 2.224 2.224 0 0 1-.661-1.517c-.012-.382.071-.77.246-1.123a2.24 2.24 0 0 1-1.317.533 2.286 2.286 0 0 1-1.625-.54l-.001.001a2.253 2.253 0 0 1-.785-1.573 2.294 2.294 0 0 1 .548-1.646l.314-.368a2.305 2.305 0 0 1-1.193.474 2.22 2.22 0 0 1-1.63-.499h-.001a.96.96 0 0 1-.037-.032l-.002-.002a2.272 2.272 0 0 1-.768-1.491 2.18 2.18 0 0 1 .517-1.648v-.001l.417-.48-2.495-2.582-1.015 1.744-.003.006-.014.023-.007.007a2.331 2.331 0 0 1-1.45 1.056c-.58.14-1.215.065-1.763-.255l-.006-.006-.025-.014-.007-.004-3.21-1.947a2.355 2.355 0 0 1-1.07-1.462 2.411 2.411 0 0 1 .259-1.79l10.174-17.474.004-.007.014-.023.006-.006a2.324 2.324 0 0 1 1.45-1.056 2.388 2.388 0 0 1 1.763.255l.006.003.025.014.006.006 3.211 1.948c.56.339.926.872 1.07 1.46.143.588.066 1.23-.26 1.791l-1.451 2.494c.872.418 1.543.714 2.21.916.801.245 1.663.381 2.951.472l-.003.033c3.077-3.34 6.592-3.079 15.858-2.39l.444.033-.603-1.036a2.416 2.416 0 0 1-.26-1.79 2.356 2.356 0 0 1 1.07-1.461l3.211-1.947.006-.007.025-.014.006-.003a2.388 2.388 0 0 1 1.763-.255 2.328 2.328 0 0 1 1.45 1.055l.006.007.015.024.003.006 10.174 17.475c.326.56.403 1.202.259 1.789a2.354 2.354 0 0 1-1.07 1.462l-3.21 1.947-.008.004-.024.014-.006.006a2.386 2.386 0 0 1-1.763.255 2.331 2.331 0 0 1-1.451-1.056l-.006-.006-.014-.023-.003-.008-1.045-1.795-2.147 1.624c.386.678.538 1.44.486 2.183a4.154 4.154 0 0 1-.486 1.684 3.858 3.858 0 0 1-1.182 1.336 3.664 3.664 0 0 1-1.792.649c-.23.643-.61 1.19-1.141 1.643-.581.494-1.331.862-2.251 1.101-.201.727-.518 1.336-.959 1.817-.562.614-1.3 1-2.228 1.137l-.387.09c-2.565 3.931-5.725 1.985-8.53.256a49.252 49.252 0 0 0-.786-.478ZM90.2 99.033l10.169-17.468a.774.774 0 0 0 .085-.576.706.706 0 0 0-.319-.44l-3.205-1.943v.002l-.025-.014h.001a.744.744 0 0 0-.543-.076.685.685 0 0 0-.424.298l.002.001-.014.024-10.171 17.467a.778.778 0 0 0-.085.575.707.707 0 0 0 .32.441l3.212 1.948h-.001l.011.006.001-.002c.17.1.369.124.548.08a.685.685 0 0 0 .424-.298v-.001l.013-.024Zm33.729-14.715a.8.8 0 0 1 .152.222l.81 1.429 7.909 13.586h.001l.013.023-.001.001a.687.687 0 0 0 .425.299c.179.043.377.02.548-.08l.001.003.011-.007h-.001l3.211-1.948a.701.701 0 0 0 .321-.44.773.773 0 0 0-.085-.575l-10.171-17.469-.014-.023.002-.001a.683.683 0 0 0-.424-.299.748.748 0 0 0-.543.076h.001l-.024.016-.001-.002-3.205 1.942a.713.713 0 0 0-.32.441.78.78 0 0 0 .086.576l1.298 2.23Z" fill="#001C63"/><defs><radialGradient id="a" cx="0" cy="0" r="1" gradientUnits="userSpaceOnUse" gradientTransform="matrix(107.502 0 0 42.5488 110.979 212.931)"><stop stop-color="#2A48D0"/><stop offset="1" stop-color="#fff"/></radialGradient><radialGradient id="b" cx="0" cy="0" r="1" gradientUnits="userSpaceOnUse" gradientTransform="matrix(53.75844 -21.51545 14.84431 37.08996 117.01 179.98)"><stop stop-color="#8EDBDC"/><stop offset=".44" stop-color="#90DCDD"/><stop offset=".6" stop-color="#97DEDF"/><stop offset=".71" stop-color="#A2E2E2"/><stop offset=".8" stop-color="#B3E7E8"/><stop offset=".88" stop-color="#C9EEEE"/><stop offset=".95" stop-color="#E4F6F7"/><stop offset="1" stop-color="#fff"/></radialGradient><radialGradient id="c" cx="0" cy="0" r="1" gradientUnits="userSpaceOnUse" gradientTransform="matrix(53.75844 -21.51545 14.84431 37.08996 117.01 179.98)"><stop stop-color="#80E3C8"/><stop offset=".43" stop-color="#82E3C9"/><stop offset=".58" stop-color="#89E5CC"/><stop offset=".69" stop-color="#94E8D1"/><stop offset=".78" stop-color="#A5EBD8"/><stop offset=".86" stop-color="#BBF0E2"/><stop offset=".93" stop-color="#D7F6ED"/><stop offset=".99" stop-color="#F6FDFB"/><stop offset="1" stop-color="#fff"/></radialGradient><radialGradient id="d" cx="0" cy="0" r="1" gradientUnits="userSpaceOnUse" gradientTransform="matrix(53.75844 -21.51545 14.84431 37.08996 117.01 179.98)"><stop stop-color="#2A48D0"/><stop offset=".39" stop-color="#2C4AD0"/><stop offset=".53" stop-color="#334FD2"/><stop offset=".62" stop-color="#3E5AD5"/><stop offset=".71" stop-color="#4F68D8"/><stop offset=".77" stop-color="#657BDD"/><stop offset=".83" stop-color="#8192E3"/><stop offset=".89" stop-color="#A1AEEA"/><stop offset=".94" stop-color="#C7CFF3"/><stop offset=".99" stop-color="#F0F2FC"/><stop offset="1" stop-color="#fff"/></radialGradient><radialGradient id="e" cx="0" cy="0" r="1" gradientUnits="userSpaceOnUse" gradientTransform="matrix(67.5713 0 0 25.3728 110.979 155.746)"><stop stop-color="#2A48D0"/><stop offset="1" stop-color="#fff"/></radialGradient><radialGradient id="f" cx="0" cy="0" r="1" gradientUnits="userSpaceOnUse" gradientTransform="matrix(35.0369 0 0 13.1562 110.979 128.605)"><stop stop-color="#2A48D0"/><stop offset="1" stop-color="#fff"/></radialGradient></defs></svg>