<svg width="222" height="250" fill="none" xmlns="http://www.w3.org/2000/svg"><path style="mix-blend-mode:multiply" d="M180.456 176.181c47.385 14.386 54.691 40.447 16.318 58.208-38.373 17.761-107.887 20.502-155.268 6.117-47.38-14.386-54.691-40.443-16.322-58.204 38.37-17.761 107.891-20.491 155.272-6.121Z" fill="url(#a)"/><path d="M110.926 209.306c-22.787 0-44.29-2.868-62.174-8.296-25.13-7.63-39.555-19.413-40.618-33.175-.52-6.778 2.097-19.766 25.514-30.61 19.172-8.873 47.38-13.966 77.388-13.966 22.791 0 44.286 2.872 62.17 8.299 25.134 7.626 39.559 19.409 40.618 33.175.524 6.779-2.093 19.767-25.509 30.607-19.177 8.877-47.385 13.966-77.389 13.966Z" fill="#001C63" style="mix-blend-mode:multiply" opacity=".2"/><path d="M170.798 138.591c40.798 12.384 47.087 34.822 14.05 50.116-33.038 15.294-92.89 17.65-133.683 5.266C10.37 181.59 4.078 159.151 37.11 143.861c33.034-15.29 92.889-17.653 133.687-5.27Z" fill="#001C63" style="mix-blend-mode:multiply"/><g style="mix-blend-mode:multiply"><path d="M158.622 144.227c32.494 9.866 37.503 27.716 11.191 39.915-26.311 12.199-73.982 14.058-106.472 4.196-32.49-9.863-37.506-27.736-11.19-39.915 26.315-12.18 73.982-14.059 106.471-4.196Z" fill="url(#b)"/><path d="M158.622 144.227c32.494 9.866 37.503 27.716 11.191 39.915-26.311 12.199-73.982 14.058-106.472 4.196-32.49-9.863-37.506-27.736-11.19-39.915 26.315-12.18 73.982-14.059 106.471-4.196Z" fill="url(#c)"/><path d="M158.622 144.227c32.494 9.866 37.503 27.716 11.191 39.915-26.311 12.199-73.982 14.058-106.472 4.196-32.49-9.863-37.506-27.736-11.19-39.915 26.315-12.18 73.982-14.059 106.471-4.196Z" fill="url(#d)"/></g><path d="M110.926 223.953c-22.787 0-44.29-2.872-62.174-8.3-25.13-7.629-39.555-19.409-40.618-33.174-.52-6.779 2.097-19.767 25.514-30.607 19.172-8.877 47.38-13.97 77.388-13.97 22.791 0 44.286 2.872 62.17 8.3 25.134 7.629 39.559 19.409 40.618 33.174.524 6.779-2.093 19.767-25.509 30.611-19.177 8.873-47.385 13.966-77.389 13.966Z" fill="#001C63" style="mix-blend-mode:multiply" opacity=".2"/><path d="M178.758 140.874h-13.419a74.656 74.656 0 0 0-11.706-4.561c-29.088-8.831-71.767-7.149-95.326 3.757-.573.265-1.112.535-1.636.804H43.338v13.677c-1.227 7.896 7.36 15.895 24.99 21.253 29.088 8.831 71.767 7.149 95.322-3.757 10.173-4.708 15.104-10.366 15.096-15.987l.012-15.186Z" fill="#E6E6E8"/><path d="M153.634 121.13c29.092 8.831 33.577 24.829 10.018 35.735-23.56 10.905-66.239 12.588-95.322 3.757-29.084-8.831-33.578-24.829-10.022-35.735 23.556-10.905 66.238-12.587 95.326-3.757Z" fill="#FDFDFF"/><path style="mix-blend-mode:multiply" d="M110.979 166.357c37.434 0 67.78-11.409 67.78-25.483s-30.346-25.483-67.78-25.483-67.78 11.409-67.78 25.483 30.346 25.483 67.78 25.483Z" fill="url(#e)"/><path d="M178.758 115.729h-13.419a74.754 74.754 0 0 0-11.706-4.561c-29.088-8.831-71.767-7.149-95.326 3.757-.573.265-1.112.535-1.636.804H43.338v13.677c-1.227 7.896 7.36 15.895 24.99 21.253 29.088 8.831 71.767 7.149 95.322-3.757 10.173-4.708 15.104-10.366 15.096-15.99l.012-15.183Z" fill="#E6E6E8"/><path d="M153.634 95.986c29.092 8.83 33.577 24.829 10.018 35.734-23.56 10.906-66.239 12.584-95.322 3.753-29.084-8.83-33.578-24.829-10.022-35.73 23.556-10.902 66.238-12.588 95.326-3.757Z" fill="#FDFDFF"/><path style="mix-blend-mode:multiply" opacity=".25" d="M110.979 128.944c19.409 0 35.143-5.916 35.143-13.215 0-7.298-15.734-13.215-35.143-13.215s-35.143 5.917-35.143 13.215c0 7.299 15.734 13.215 35.143 13.215Z" fill="url(#f)"/><path d="M108.881 21.746c0 4.683-1.155 8.22-3.467 10.613-2.311 2.391-5.423 3.586-9.335 3.584-3.95 0-7.084-1.195-9.404-3.584-2.32-2.39-3.475-5.927-3.467-10.613v-7.291c0-4.686 1.147-8.223 3.442-10.61C88.947 1.46 92.066.264 96.01.259c3.928 0 7.053 1.2 9.375 3.6 2.323 2.399 3.483 5.931 3.48 10.597l.016 7.29Zm-8.529-7.838c0-2.65-.37-4.556-1.112-5.716a3.437 3.437 0 0 0-1.346-1.298 3.716 3.716 0 0 0-1.868-.442 3.647 3.647 0 0 0-1.864.437 3.37 3.37 0 0 0-1.333 1.303c-.72 1.16-1.078 3.065-1.076 5.716v8.338c0 2.697.363 4.622 1.088 5.774.316.543.786.992 1.358 1.297a3.705 3.705 0 0 0 1.88.428c.65.02 1.291-.13 1.854-.435a3.38 3.38 0 0 0 1.331-1.29c.728-1.154 1.091-3.08 1.088-5.774v-8.338ZM113.984 20.198 116.11.758h21.605v6.194h-14.65l-.936 7.268a7.97 7.97 0 0 1 2.404-1.12 12.098 12.098 0 0 1 3.165-.478c3.609-.061 6.384.927 8.325 2.964 1.94 2.038 2.91 4.933 2.907 8.685.079 3.059-1.109 6.027-3.312 8.276-2.211 2.264-5.374 3.395-9.49 3.395-3.284.069-6.498-.895-9.134-2.74a8.483 8.483 0 0 1-2.865-3.166 7.916 7.916 0 0 1-.881-4.075l.053-.143 8.35-.477c0 1.38.408 2.461 1.226 3.241.429.392.939.696 1.498.895a4.622 4.622 0 0 0 1.753.26c1.554 0 2.655-.513 3.304-1.54a7.188 7.188 0 0 0 .973-3.895c0-1.905-.363-3.405-1.088-4.5-.725-1.096-1.873-1.644-3.443-1.644a4.987 4.987 0 0 0-2.768.689 3.62 3.62 0 0 0-1.455 1.74l-7.667-.389Z" fill="#001C63"/><path fill-rule="evenodd" clip-rule="evenodd" d="M102.644 62.46h33.56c.64 0 1.222.244 1.647.634v.005c.421.394.685.934.685 1.528V94.44c0 .598-.264 1.137-.685 1.532a2.417 2.417 0 0 1-1.651.635h-11.777a20.442 20.442 0 0 0-.12-1.96h11.905a.235.235 0 0 0 .157-.062.205.205 0 0 0 .067-.145V70.232a1.305 1.305 0 0 1-.224.017h-33.564c-.076 0-.153-.008-.224-.017v6.212c-.712 0-1.419.033-2.113.095V64.627c0-.598.264-1.142.685-1.532.027-.025.049-.046.076-.067a2.435 2.435 0 0 1 1.576-.569Zm13.674 41.646c.058-.095.116-.199.179-.303l.004-.004c.072-.125.139-.249.206-.37.076-.137.148-.278.219-.423.076-.15.143-.291.211-.432l.026-.046a15.24 15.24 0 0 0 .524-1.328v-.005c.076-.224.143-.452.206-.685.063-.232.121-.469.17-.706.04-.19.076-.373.108-.556.031-.183.058-.37.085-.56v-.005c.022-.166.04-.336.058-.51.013-.138.022-.275.031-.407h-4.4a12.61 12.61 0 0 1-.617 3.259 15.994 15.994 0 0 1-.64 1.628c-.224.486-.479.971-.766 1.457l4.396-.004Zm-1.334 1.885h-4.315c-.363.482-.756.963-1.173 1.437-.434.49-.899.984-1.396 1.474a32.08 32.08 0 0 1-1.464 1.358c-.421.369-.859.739-1.311 1.104l.362-.062c.251-.046.502-.1.757-.162a14.769 14.769 0 0 0 2.215-.698c.246-.099.488-.199.721-.303.233-.104.465-.216.698-.332.228-.116.457-.232.672-.357.219-.125.438-.249.644-.382.21-.133.421-.266.622-.407.202-.141.403-.282.595-.432.193-.145.385-.299.573-.461.188-.157.372-.319.551-.49.139-.132.277-.261.412-.394.134-.133.264-.266.389-.403.103-.108.202-.22.3-.332l.148-.158Zm-15.402 5.373a37.719 37.719 0 0 1-1.316-1.104 34.09 34.09 0 0 1-1.459-1.358c-.497-.49-.962-.98-1.396-1.474-.421-.478-.81-.955-1.173-1.437h-4.306l.143.166c.099.112.202.224.3.332.255.27.524.536.801.794l.005.008a15.126 15.126 0 0 0 1.123.942c.193.15.394.291.596.432.206.141.411.274.622.407a16.441 16.441 0 0 0 2.735 1.37c.022.009.03.017.053.029a17.067 17.067 0 0 0 1.432.486h.005a15.924 15.924 0 0 0 1.5.349l.335.058Zm-11.006-7.25h4.395c-.286-.49-.541-.975-.77-1.465a14.47 14.47 0 0 1-.64-1.632 13.315 13.315 0 0 1-.425-1.673 11.694 11.694 0 0 1-.188-1.574h-4.395c.009.133.022.27.031.407a15.435 15.435 0 0 0 .25 1.632l.005.016c.05.233.108.465.17.702.063.237.135.469.21.697.077.229.162.457.251.686.09.228.188.452.291.672l.005.009c.062.137.13.278.201.419l.005.004.21.411c.072.133.139.258.21.382.063.1.121.204.184.307Zm-2.023-8.221h4.44c.05-.52.134-1.038.25-1.561.126-.557.287-1.113.484-1.67l.004-.008c.193-.544.426-1.088.69-1.627.241-.495.51-.989.81-1.483h-4.655c-.063.104-.125.212-.184.312-.071.12-.138.249-.21.382l-.005.004c-.076.137-.143.274-.214.41a9.073 9.073 0 0 0-.202.424l-.013.025-.018.025c-.099.216-.188.436-.278.656-.085.225-.17.449-.246.673a12.566 12.566 0 0 0-.38 1.4c-.04.19-.076.377-.108.556-.031.182-.062.37-.085.56-.022.17-.04.34-.058.515-.004.137-.018.274-.022.407Zm3.361-8.221h4.588c.363-.478.747-.951 1.16-1.429.424-.49.881-.98 1.36-1.474a41.953 41.953 0 0 1 2.721-2.512l-.188.03-.322.057c-.25.046-.506.1-.76.162a15.38 15.38 0 0 0-1.496.428c-.246.083-.488.174-.725.27a18.86 18.86 0 0 0-2.09.992 17.109 17.109 0 0 0-1.262.785 12.38 12.38 0 0 0-.596.432c-.192.145-.385.299-.573.46-.183.158-.367.32-.55.49l-.01.005a16.67 16.67 0 0 0-.402.386c-.134.133-.264.266-.39.403-.102.108-.205.22-.304.336l-.16.179Zm15.254-5.398a41.311 41.311 0 0 1 2.708 2.5c.483.49.935.98 1.361 1.473.411.478.796.951 1.154 1.429h4.579l-.143-.17c-.098-.113-.197-.22-.3-.333a16.145 16.145 0 0 0-.801-.797c-.184-.17-.367-.336-.555-.49a11.12 11.12 0 0 0-.573-.457c-.192-.15-.394-.29-.595-.431a20.16 20.16 0 0 0-.622-.407 16.669 16.669 0 0 0-2.735-1.37c-.023-.009-.031-.017-.054-.03a18.35 18.35 0 0 0-1.432-.486h-.005c-.241-.07-.492-.132-.738-.195a14.415 14.415 0 0 0-.761-.157l-.322-.059-.166-.02Zm11.15 7.27h-4.646c.299.494.568.988.805 1.478.264.544.497 1.092.69 1.636.196.557.362 1.113.483 1.67.116.523.201 1.042.251 1.56h4.435c-.009-.132-.022-.27-.031-.406a20.185 20.185 0 0 0-.058-.515 16.62 16.62 0 0 0-.085-.56 19.497 19.497 0 0 0-.108-.557l-.004-.016a11.25 11.25 0 0 0-.175-.702c-.062-.237-.134-.47-.21-.698a13.505 13.505 0 0 0-.251-.685c-.089-.228-.188-.448-.286-.668l-.005-.013c-.062-.137-.13-.278-.201-.42l-.005-.004c-.062-.128-.134-.265-.21-.41a10.948 10.948 0 0 0-.21-.378 5.047 5.047 0 0 0-.179-.312Zm-17.47-9.035a19.287 19.287 0 0 1 3.608-.332 20.5 20.5 0 0 1 1.826.083c.304.029.6.062.895.104.291.041.586.087.886.145.287.05.573.112.855.178a18.81 18.81 0 0 1 1.674.478c.269.091.542.191.81.299a.334.334 0 0 1 .081.033c.255.104.51.212.77.328.264.117.519.241.765.366l.005.004c.255.129.505.261.751.398l.005.004c.251.142.497.283.734.432.233.146.466.295.694.449.228.158.452.32.676.486.223.17.438.344.653.523.219.183.43.37.631.556l.009.008c.202.183.399.374.587.57a14.9 14.9 0 0 1 1.083 1.228c.17.216.335.436.497.656l.004.005a15.953 15.953 0 0 1 1.289 2.089 15.323 15.323 0 0 1 .985 2.296c.089.265.17.527.241.792a16.8 16.8 0 0 1 .354 1.624 15.07 15.07 0 0 1 .179 1.678 17.402 17.402 0 0 1 0 1.706 15.06 15.06 0 0 1-.179 1.673v.005c-.045.265-.094.54-.157.813a11.3 11.3 0 0 1-.192.793 14.961 14.961 0 0 1-.515 1.553c-.098.25-.206.503-.322.748-.009.033-.022.05-.04.079a16.267 16.267 0 0 1-.757 1.44c-.143.241-.286.474-.429.698-.148.228-.3.453-.461.673-.157.216-.318.432-.488.647-.17.212-.345.42-.524.623l-.005.004c-.183.208-.371.412-.563.607l-.005.004c-.197.199-.394.39-.591.577l-.013.012c-.202.187-.403.37-.609.544-.21.175-.425.349-.644.519-.22.167-.444.328-.676.49a17.92 17.92 0 0 1-.703.457c-.237.15-.479.295-.725.432s-.501.274-.761.403c-.255.128-.515.249-.774.369a20.564 20.564 0 0 1-1.625.644c-.278.095-.56.183-.846.266-.282.083-.564.153-.85.22a22.82 22.82 0 0 1-1.755.328c-.291.041-.591.074-.895.104-.609.053-1.218.083-1.835.083-.305 0-.609-.009-.918-.021a17.412 17.412 0 0 1-.909-.062 21.7 21.7 0 0 1-.895-.104c-.29-.042-.586-.087-.881-.146a14.495 14.495 0 0 1-.855-.178 18.06 18.06 0 0 1-2.484-.777c-.027-.012-.05-.016-.077-.033a21.143 21.143 0 0 1-1.53-.689 21.408 21.408 0 0 1-1.5-.835 18.267 18.267 0 0 1-.694-.452c-.228-.158-.452-.32-.67-.486a15.87 15.87 0 0 1-.659-.527c-.22-.187-.43-.37-.627-.553l-.008-.008a14.764 14.764 0 0 1-.587-.569 14.883 14.883 0 0 1-1.088-1.229c-.17-.212-.335-.432-.492-.652-.16-.22-.313-.444-.465-.672a17.163 17.163 0 0 1-.833-1.425 16.903 16.903 0 0 1-.694-1.507 14.853 14.853 0 0 1-.72-2.383 15.6 15.6 0 0 1-.336-2.496 9.665 9.665 0 0 1-.036-.868c0-.569.032-1.133.09-1.694a16.16 16.16 0 0 1 .268-1.652c.054-.266.121-.528.193-.793a15.744 15.744 0 0 1 .515-1.553c.098-.25.205-.499.317-.748.01-.025.014-.033.027-.058l.014-.02a15.907 15.907 0 0 1 .756-1.446c.139-.24.287-.473.43-.697a16.376 16.376 0 0 1 2.636-3.13l.009-.01a15.584 15.584 0 0 1 1.938-1.553l.009-.003c.233-.158.465-.312.698-.453.237-.15.48-.295.725-.432a18.1 18.1 0 0 1 1.536-.768c.264-.12.532-.233.796-.336l.01-.004a18.046 18.046 0 0 1 3.393-.976l-.01.004Zm4.61 2.853v4.305h4.431a30.134 30.134 0 0 0-1.987-2.126 45.035 45.035 0 0 0-1.258-1.17c-.38-.328-.774-.669-1.186-1.01Zm0 6.182v6.349h8.424a10.69 10.69 0 0 0-.269-1.474 12.444 12.444 0 0 0-.519-1.599c-.219-.548-.479-1.1-.779-1.652-.291-.54-.626-1.08-.998-1.62h-5.859v-.004Zm0 8.226v6.349h6.128c.358-.532.676-1.059.953-1.591.287-.548.528-1.092.725-1.64.193-.536.345-1.075.457-1.611.103-.502.17-1 .201-1.503h-8.464v-.004Zm0 8.221v4.385a39.15 39.15 0 0 0 2.596-2.209c.421-.395.815-.785 1.191-1.175.318-.332.622-.669.908-1.001h-4.695Zm-2.023 4.385v-4.389h-4.69a26.785 26.785 0 0 0 2.09 2.172c.42.394.864.784 1.329 1.179a28.5 28.5 0 0 0 1.271 1.038Zm0-6.262V97.77h-8.464c.031.502.103 1 .206 1.503.112.54.264 1.075.461 1.615.197.548.439 1.096.725 1.64.278.532.591 1.063.95 1.591h6.122v-.005Zm0-8.221v-6.349h-5.863c-.372.54-.703 1.08-.998 1.62-.3.552-.56 1.104-.78 1.652-.21.536-.384 1.067-.518 1.599-.126.494-.21.984-.269 1.474h8.428v.004Zm0-8.221v-4.31c-.412.34-.806.676-1.181 1.013-.444.39-.864.784-1.263 1.17a29.892 29.892 0 0 0-1.987 2.127h4.431Zm21.382 1.499h8.92c.492 0 .891.402.891.896a.895.895 0 0 1-.891.897h-8.236a18.403 18.403 0 0 0-.684-1.793Zm-2.265-3.9a.808.808 0 0 1 .228-.028h10.957c.492 0 .891.402.891.896a.895.895 0 0 1-.891.897h-10.008a20.733 20.733 0 0 0-1.177-1.764Zm-14.771-12.776h26.744v9.712h-14.762c-3.204-2.89-7.354-4.879-11.982-5.535v-4.177Zm10.12-7.233c.837 0 1.518.631 1.518 1.408 0 .776-.681 1.407-1.518 1.407s-1.517-.63-1.517-1.407.68-1.408 1.517-1.408Zm-5.308 0c.837 0 1.517.631 1.517 1.408 0 .776-.68 1.407-1.517 1.407-.837 0-1.517-.63-1.517-1.407-.005-.777.675-1.408 1.517-1.408Zm-5.313 0c.837 0 1.517.631 1.517 1.408 0 .776-.68 1.407-1.517 1.407-.837 0-1.517-.63-1.517-1.407s.68-1.408 1.517-1.408Z" fill="#001C63"/><defs><radialGradient id="a" cx="0" cy="0" r="1" gradientUnits="userSpaceOnUse" gradientTransform="matrix(107.502 0 0 39.4718 110.979 196.938)"><stop stop-color="#2A48D0"/><stop offset="1" stop-color="#fff"/></radialGradient><radialGradient id="b" cx="0" cy="0" r="1" gradientUnits="userSpaceOnUse" gradientTransform="matrix(53.75846 -19.9596 13.0257 35.08293 117.01 166.37)"><stop stop-color="#8EDBDC"/><stop offset=".44" stop-color="#90DCDD"/><stop offset=".6" stop-color="#97DEDF"/><stop offset=".71" stop-color="#A2E2E2"/><stop offset=".8" stop-color="#B3E7E8"/><stop offset=".88" stop-color="#C9EEEE"/><stop offset=".95" stop-color="#E4F6F7"/><stop offset="1" stop-color="#fff"/></radialGradient><radialGradient id="c" cx="0" cy="0" r="1" gradientUnits="userSpaceOnUse" gradientTransform="matrix(53.75846 -19.9596 13.0257 35.08293 117.01 166.37)"><stop stop-color="#80E3C8"/><stop offset=".43" stop-color="#82E3C9"/><stop offset=".58" stop-color="#89E5CC"/><stop offset=".69" stop-color="#94E8D1"/><stop offset=".78" stop-color="#A5EBD8"/><stop offset=".86" stop-color="#BBF0E2"/><stop offset=".93" stop-color="#D7F6ED"/><stop offset=".99" stop-color="#F6FDFB"/><stop offset="1" stop-color="#fff"/></radialGradient><radialGradient id="d" cx="0" cy="0" r="1" gradientUnits="userSpaceOnUse" gradientTransform="matrix(53.75846 -19.9596 13.0257 35.08293 117.01 166.37)"><stop stop-color="#2A48D0"/><stop offset=".39" stop-color="#2C4AD0"/><stop offset=".53" stop-color="#334FD2"/><stop offset=".62" stop-color="#3E5AD5"/><stop offset=".71" stop-color="#4F68D8"/><stop offset=".77" stop-color="#657BDD"/><stop offset=".83" stop-color="#8192E3"/><stop offset=".89" stop-color="#A1AEEA"/><stop offset=".94" stop-color="#C7CFF3"/><stop offset=".99" stop-color="#F0F2FC"/><stop offset="1" stop-color="#fff"/></radialGradient><radialGradient id="e" cx="0" cy="0" r="1" gradientUnits="userSpaceOnUse" gradientTransform="matrix(67.5713 0 0 23.5379 110.979 143.889)"><stop stop-color="#2A48D0"/><stop offset="1" stop-color="#fff"/></radialGradient><radialGradient id="f" cx="0" cy="0" r="1" gradientUnits="userSpaceOnUse" gradientTransform="matrix(35.0369 0 0 12.2048 110.979 118.71)"><stop stop-color="#2A48D0"/><stop offset="1" stop-color="#fff"/></radialGradient></defs></svg>