<svg width="222" height="250" fill="none" xmlns="http://www.w3.org/2000/svg"><path style="mix-blend-mode:multiply" d="M180.142 175.6c47.405 14.381 54.691 40.442 16.33 58.196-38.361 17.754-107.887 20.502-155.272 6.121-47.384-14.382-54.687-40.447-16.318-58.208 38.37-17.761 107.875-20.494 155.26-6.109Z" fill="url(#a)"/><path d="M110.607 209.383c-22.786 0-44.285-2.872-62.15-8.3-25.129-7.629-39.554-19.409-40.617-33.174-.524-6.779 2.097-19.767 25.514-30.607 19.172-8.877 47.38-13.966 77.388-13.966 22.787 0 44.286 2.868 62.17 8.296 25.13 7.629 39.555 19.412 40.618 33.178.524 6.775-2.097 19.763-25.514 30.603-19.192 8.877-47.401 13.97-77.409 13.97Z" fill="#029894" style="mix-blend-mode:multiply" opacity=".2"/><path d="M170.484 138.669c40.794 12.383 47.087 34.818 14.049 50.112-33.037 15.294-92.889 17.653-133.703 5.27-40.815-12.384-47.087-34.822-14.05-50.116 33.038-15.294 92.906-17.65 133.704-5.266Z" fill="#029894" style="mix-blend-mode:multiply"/><g style="mix-blend-mode:multiply"><path d="M158.307 144.304c32.494 9.862 37.503 27.716 11.191 39.915-26.311 12.199-73.982 14.058-106.476 4.192-32.493-9.866-37.502-27.716-11.19-39.911 26.31-12.195 73.982-14.059 106.475-4.196Z" fill="url(#b)"/><path d="M158.307 144.304c32.494 9.862 37.503 27.716 11.191 39.915-26.311 12.199-73.982 14.058-106.476 4.192-32.493-9.866-37.502-27.716-11.19-39.911 26.31-12.195 73.982-14.059 106.475-4.196Z" fill="url(#c)"/><path d="M158.307 144.304c32.494 9.862 37.503 27.716 11.191 39.915-26.311 12.199-73.982 14.058-106.476 4.192-32.493-9.866-37.502-27.716-11.19-39.911 26.31-12.195 73.982-14.059 106.475-4.196Z" fill="url(#d)"/></g><path d="M110.607 224.026c-22.786 0-44.285-2.868-62.15-8.299-25.129-7.626-39.554-19.409-40.617-33.175-.524-6.779 2.097-19.767 25.514-30.607 19.172-8.877 47.38-13.966 77.388-13.966 22.787 0 44.286 2.868 62.17 8.3 25.13 7.626 39.555 19.409 40.618 33.174.524 6.775-2.097 19.767-25.514 30.607-19.192 8.873-47.401 13.966-77.409 13.966Z" fill="#029894" style="mix-blend-mode:multiply" opacity=".2"/><path d="M178.445 140.951h-13.424a73.758 73.758 0 0 0-11.702-4.546c-29.092-8.831-71.77-7.149-95.326 3.753-.572.266-1.112.535-1.635.808H43.024v13.674c-1.227 7.899 7.36 15.894 24.987 21.253 29.091 8.83 71.77 7.148 95.326-3.754 10.173-4.711 15.104-10.37 15.096-15.99l.012-15.198Z" fill="#E6EFEC"/><path d="M153.319 121.207c29.087 8.831 33.573 24.829 10.017 35.731-23.555 10.901-66.238 12.587-95.326 3.757-29.088-8.831-33.573-24.829-10.017-35.735 23.555-10.905 66.234-12.584 95.326-3.753Z" fill="#F8FFFD"/><path style="mix-blend-mode:multiply" d="M110.592 166.461c37.474 0 67.853-11.421 67.853-25.51 0-14.089-30.379-25.51-67.853-25.51-37.475 0-67.854 11.421-67.854 25.51 0 14.089 30.38 25.51 67.854 25.51Z" fill="url(#e)"/><path d="M178.445 115.807h-13.424a73.69 73.69 0 0 0-11.702-4.562c-29.092-8.831-71.77-7.152-95.326 3.753-.572.266-1.112.535-1.635.809H43.024v13.669c-1.227 7.899 7.36 15.894 24.987 21.253 29.091 8.83 71.77 7.148 95.326-3.757 10.173-4.708 15.104-10.367 15.096-15.987l.012-15.178Z" fill="#E6EFEC"/><path d="M153.319 96.059c29.087 8.83 33.573 24.829 10.017 35.734-23.555 10.906-66.238 12.588-95.326 3.757-29.088-8.83-33.573-24.829-10.017-35.734 23.555-10.906 66.234-12.584 95.326-3.757Z" fill="#F8FFFD"/><path style="mix-blend-mode:multiply" opacity=".25" d="M110.591 129.022c19.409 0 35.143-5.917 35.143-13.216 0-7.298-15.734-13.215-35.143-13.215s-35.143 5.917-35.143 13.215c0 7.299 15.734 13.216 35.143 13.216Z" fill="url(#f)"/><path d="M108.489 21.746c0 4.684-1.156 8.221-3.467 10.613-2.312 2.392-5.423 3.584-9.335 3.576-3.95 0-7.084-1.195-9.404-3.584-2.32-2.39-3.476-5.927-3.468-10.613v-7.283c0-4.686 1.148-8.224 3.443-10.613 2.295-2.39 5.415-3.584 9.36-3.584 3.93 0 7.055 1.2 9.375 3.6 2.32 2.4 3.48 5.932 3.48 10.597l.016 7.291Zm-8.513-7.837c0-2.652-.37-4.557-1.112-5.717a3.438 3.438 0 0 0-1.346-1.298 3.716 3.716 0 0 0-1.868-.442 3.66 3.66 0 0 0-1.866.438 3.382 3.382 0 0 0-1.335 1.302c-.715 1.16-1.073 3.066-1.076 5.716v8.338c0 2.698.364 4.622 1.092 5.774.315.544.785.995 1.357 1.3a3.701 3.701 0 0 0 1.881.429c.65.02 1.292-.13 1.855-.436a3.376 3.376 0 0 0 1.33-1.293c.728-1.152 1.09-3.076 1.088-5.774V13.91ZM131.051 35.442h-8.521V8.834h-8.222v-5.67L131.072.735l-.021 34.707Z" fill="#029894"/><path fill-rule="evenodd" clip-rule="evenodd" d="M108.117 97.574c2.07 5.655 10.725 5.859 12.67 0 2.289 1.914 9.069 2.292 11.59 3.601.797.414 1.518.937 2.095 1.647.389.477.91 1.356 1.299 2.339H93.127c.395-.983.909-1.862 1.298-2.339.577-.71 1.298-1.233 2.095-1.647 2.528-1.303 9.308-1.687 11.597-3.601Zm-1.436-43.435h15.548c.671 0 1.217.506 1.217 1.128v10.13c0 .623-.546 1.13-1.217 1.13h-15.548c-.672 0-1.217-.507-1.217-1.13v-10.13c0-.622.545-1.129 1.217-1.129Zm16.044 3.159h-16.49v8.21c0 .087.038.163.101.221a.343.343 0 0 0 .238.093h15.812a.343.343 0 0 0 .238-.093.297.297 0 0 0 .101-.221v-8.21Zm-1.656-1.891c.332 0 .602.25.602.559 0 .308-.27.558-.602.558-.333 0-.602-.25-.602-.558 0-.309.269-.559.602-.559Zm-4.077 0c.332 0 .602.25.602.559 0 .308-.27.558-.602.558-.333 0-.602-.25-.602-.558 0-.309.269-.559.602-.559Zm2.038 0c.333 0 .602.25.602.559 0 .308-.269.558-.602.558-.332 0-.602-.25-.602-.558 0-.309.27-.559.602-.559Zm-6.799 5.353-1.982.692 1.982.699v1.617l-3.079-1.617V60.76l3.079-1.617v1.617Zm7.527 0v1.39l-3.08 1.618v-1.617l1.982-.699-1.982-.692v-1.623l3.08 1.623Zm-5.338 3.462h-1.311l1.619-5.853h1.311l-1.619 5.853Zm35.776 22.29c.025 0 .051 0 .076.007a9.63 9.63 0 0 0 .439-.815c.006-.006.006-.012.012-.012.195-.436.351-.884.446-1.35.075-.36.131-.733.144-1.11h-2.358c-.044 1.11-.402 2.204-1.067 3.28h2.308Zm-.407.699h-2.371c-.721.972-1.694 1.926-2.904 2.868.188-.023.382-.052.564-.087a7.569 7.569 0 0 0 1.474-.425 8.315 8.315 0 0 0 1.343-.674 7.202 7.202 0 0 0 1.894-1.681Zm-7.301 2.868c-1.217-.942-2.189-1.896-2.904-2.868h-2.371c.226.285.477.553.753.809a7.15 7.15 0 0 0 1.154.878c.414.256.859.483 1.342.675.006.006.013.006.013.012.47.18.953.326 1.455.413.182.03.37.052.558.081Zm-5.77-3.566h2.389c-.665-1.077-1.022-2.176-1.066-3.282h-2.358c.019.384.069.75.144 1.112.1.47.251.925.458 1.367.125.28.27.547.433.803Zm-1.035-3.98h2.371c.087-1.088.476-2.182 1.172-3.282h-2.508a7.846 7.846 0 0 0-.433.809c-.006.006-.006.012-.013.012a6.49 6.49 0 0 0-.445 1.35c-.082.36-.132.727-.144 1.11Zm1.524-3.98h2.502c.715-.954 1.656-1.914 2.829-2.88a6.755 6.755 0 0 0-.615.093 7.56 7.56 0 0 0-1.473.425 8.315 8.315 0 0 0-1.343.675 7.465 7.465 0 0 0-1.154.878c-.269.25-.52.518-.746.809Zm7.244-2.88c1.179.966 2.12 1.926 2.829 2.88h2.502a7.121 7.121 0 0 0-.752-.809 7.19 7.19 0 0 0-1.154-.878 8.556 8.556 0 0 0-1.343-.675c-.006-.006-.012-.006-.012-.012a7.776 7.776 0 0 0-1.455-.413c-.201-.035-.408-.064-.615-.093Zm5.827 3.578h-2.509c.696 1.1 1.085 2.194 1.173 3.282h2.371a7.162 7.162 0 0 0-.144-1.111 6.336 6.336 0 0 0-.458-1.368 8.395 8.395 0 0 0-.433-.803Zm-8.505-4.172a9.304 9.304 0 0 1 1.725-.157c.589 0 1.16.053 1.725.157.552.1 1.078.25 1.599.46.006 0 .013.006.019.012a9.617 9.617 0 0 1 1.461.733c.458.28.878.605 1.267.966a7.934 7.934 0 0 1 1.832 2.53 7.371 7.371 0 0 1 .671 3.102c0 .547-.057 1.076-.17 1.6a6.65 6.65 0 0 1-.495 1.484c0 .006-.006.012-.013.017a8.213 8.213 0 0 1-.79 1.356 7.602 7.602 0 0 1-1.041 1.175c-.389.361-.809.681-1.267.966a9.11 9.11 0 0 1-1.461.733 8.81 8.81 0 0 1-1.619.466 9.292 9.292 0 0 1-1.724.157 9.39 9.39 0 0 1-1.725-.157 8.07 8.07 0 0 1-1.6-.46c-.006 0-.012-.006-.019-.011a9.617 9.617 0 0 1-1.461-.734 7.954 7.954 0 0 1-1.267-.966 7.934 7.934 0 0 1-1.831-2.53 7.314 7.314 0 0 1-.671-3.102c0-.547.056-1.076.169-1.6.107-.512.27-1 .495-1.484 0-.005.007-.011.013-.017.219-.483.489-.931.79-1.356a7.66 7.66 0 0 1 1.041-1.175c.389-.36.81-.68 1.267-.966.458-.285.947-.53 1.462-.733a9.46 9.46 0 0 1 1.618-.466Zm2.101 1.048v2.426h2.49c-.658-.803-1.486-1.612-2.49-2.426Zm0 3.124v3.282h4.315c-.1-1.076-.533-2.17-1.304-3.282h-3.011Zm0 3.98v3.282h3.142c.747-1.088 1.142-2.182 1.186-3.282h-4.328Zm0 3.98v2.455c1.066-.808 1.938-1.629 2.616-2.455h-2.616Zm-.753 2.45v-2.456h-2.615c.671.826 1.543 1.647 2.615 2.456Zm0-3.148V83.23h-4.334c.044 1.1.446 2.194 1.186 3.282h3.148Zm0-3.98V79.25h-3.016c-.772 1.112-1.205 2.206-1.299 3.282h4.315Zm0-3.98v-2.426c-1.009.814-1.837 1.623-2.49 2.426h2.49Zm-62.206 4.329-2.779-3.741c.49-.547.916-1.13 1.286-1.74.383-.634.703-1.298.978-1.99l4.893.436-4.378 7.035Zm.916.512 4.396-7.07 7.583 4.062-.602.966-6.034-3.23c-.326-.174-.752-.07-.94.233a.618.618 0 0 0 .25.873l6.034 3.23-.564.901-6.034-3.23c-.326-.174-.753-.069-.94.234a.618.618 0 0 0 .25.872l6.034 3.23-.565.901-6.034-3.229c-.326-.174-.752-.07-.94.233a.618.618 0 0 0 .25.873l6.034 3.229-.602.966-7.576-4.044Zm-4.648-5.528L75 74.928l3.745.338c-.214.488-.452.96-.722 1.408a8.904 8.904 0 0 1-.84 1.192Zm8.712 25.241c.32.663 0 1.443-.721 1.74-.715.297-1.556 0-1.876-.669a29.448 29.448 0 0 1-1.925-5.144 29.442 29.442 0 0 1-.929-5.388c-.056-.727.534-1.361 1.324-1.414.784-.052 1.468.495 1.524 1.228.132 1.688.42 3.334.847 4.928a26.853 26.853 0 0 0 1.756 4.719Zm5.983-31.513a1.505 1.505 0 0 1-2.007-.105c-.52-.54-.47-1.373.113-1.862a38.356 38.356 0 0 1 4.491-3.2c1.443-.873 2.93-1.623 4.347-2.135.733-.262 1.555.076 1.837.756.283.681-.081 1.443-.815 1.705-1.223.436-2.534 1.106-3.826 1.885a35.52 35.52 0 0 0-4.14 2.956Zm36.874-5.591c-.677-.367-.903-1.176-.508-1.804.395-.629 1.267-.838 1.944-.471a33.42 33.42 0 0 1 4.516 2.938 32.846 32.846 0 0 1 3.952 3.584c.514.553.451 1.385-.145 1.862-.595.477-1.492.419-2.007-.134a30.597 30.597 0 0 0-3.612-3.287 32.13 32.13 0 0 0-4.14-2.689ZM144.533 95.2c.1-.722.815-1.234 1.593-1.135.778.1 1.329.757 1.223 1.478a28.723 28.723 0 0 1-.96 4.335 29.765 29.765 0 0 1-1.612 4.16c-.32.669-1.16.972-1.875.675-.721-.297-1.048-1.076-.728-1.74a26.992 26.992 0 0 0 1.481-3.805c.388-1.297.69-2.624.878-3.968Zm-38.003-9.345c-.433.018-.765.1-.985.239a.793.793 0 0 0-.282.302.987.987 0 0 0-.094.49c.019.552.332 1.273.935 2.106l.006.011 1.957 2.892c.784 1.158 1.612 2.339 2.634 3.206.985.832 2.176 1.402 3.757 1.402 1.712.006 2.96-.582 3.976-1.466 1.054-.92 1.888-2.176 2.71-3.427l2.208-3.375c.414-.873.558-1.455.464-1.798-.056-.203-.301-.302-.709-.32a2.08 2.08 0 0 0-.269 0c-.101 0-.201.012-.308.018a.551.551 0 0 1-.169-.012c-.195.012-.402 0-.602-.03l.759-2.815c-5.608.82-9.804-3.043-15.731-.774l.427 3.369a2.92 2.92 0 0 1-.684-.018Zm17.33-.651c.546.15.89.47 1.035.989.157.57-.013 1.379-.54 2.484-.012.018-.018.041-.031.058l-2.233 3.41c-.859 1.315-1.737 2.63-2.898 3.648-1.21 1.048-2.697 1.746-4.729 1.74-1.9-.006-3.33-.68-4.503-1.676-1.135-.96-2.001-2.205-2.823-3.415l-1.956-2.892c-.715-.99-1.092-1.897-1.111-2.642-.012-.349.051-.669.195-.948.144-.29.37-.535.671-.727.144-.088.301-.163.477-.227a38.303 38.303 0 0 1-.094-4.905c.043-.39.125-.786.244-1.176.502-1.658 1.756-2.42 3.312-3.334.859-.506 1.794-.89 2.778-1.146.621-.163-.526-2.007.113-2.071 3.111-.297 8.141 2.339 10.318 4.515 1.085 1.094 1.769 1.96 1.919 3.875l-.144 4.44Z" fill="#029894"/><defs><radialGradient id="a" cx="0" cy="0" r="1" gradientUnits="userSpaceOnUse" gradientTransform="matrix(107.502 0 0 39.4718 110.665 196.358)"><stop stop-color="#80E3C8"/><stop offset="1" stop-color="#fff"/></radialGradient><radialGradient id="b" cx="0" cy="0" r="1" gradientUnits="userSpaceOnUse" gradientTransform="matrix(53.7585 -19.9595 13.02563 35.08296 112.743 166.444)"><stop stop-color="#80E3C8"/><stop offset=".43" stop-color="#82E3C9"/><stop offset=".58" stop-color="#89E5CC"/><stop offset=".69" stop-color="#94E8D1"/><stop offset=".78" stop-color="#A5EBD8"/><stop offset=".86" stop-color="#BBF0E2"/><stop offset=".93" stop-color="#D7F6ED"/><stop offset=".99" stop-color="#F6FDFB"/><stop offset="1" stop-color="#fff"/></radialGradient><radialGradient id="c" cx="0" cy="0" r="1" gradientUnits="userSpaceOnUse" gradientTransform="matrix(53.7585 -19.9595 13.02563 35.08296 112.743 166.444)"><stop stop-color="#80E3C8"/><stop offset=".43" stop-color="#82E3C9"/><stop offset=".58" stop-color="#89E5CC"/><stop offset=".69" stop-color="#94E8D1"/><stop offset=".78" stop-color="#A5EBD8"/><stop offset=".86" stop-color="#BBF0E2"/><stop offset=".93" stop-color="#D7F6ED"/><stop offset=".99" stop-color="#F6FDFB"/><stop offset="1" stop-color="#fff"/></radialGradient><radialGradient id="d" cx="0" cy="0" r="1" gradientUnits="userSpaceOnUse" gradientTransform="matrix(53.7585 -19.9595 13.02563 35.08296 112.743 166.444)"><stop stop-color="#80E3C8"/><stop offset=".43" stop-color="#82E3C9"/><stop offset=".58" stop-color="#89E5CC"/><stop offset=".69" stop-color="#94E8D1"/><stop offset=".78" stop-color="#A5EBD8"/><stop offset=".86" stop-color="#BBF0E2"/><stop offset=".93" stop-color="#D7F6ED"/><stop offset=".99" stop-color="#F6FDFB"/><stop offset="1" stop-color="#fff"/></radialGradient><radialGradient id="e" cx="0" cy="0" r="1" gradientUnits="userSpaceOnUse" gradientTransform="matrix(67.6449 0 0 23.5636 110.592 143.965)"><stop stop-color="#80E3C8"/><stop offset="1" stop-color="#fff"/></radialGradient><radialGradient id="f" cx="0" cy="0" r="1" gradientUnits="userSpaceOnUse" gradientTransform="matrix(35.0368 0 0 12.2048 110.591 118.786)"><stop stop-color="#80E3C8"/><stop offset="1" stop-color="#fff"/></radialGradient></defs></svg>