<svg width="48" height="47" viewBox="0 0 48 47" fill="none" xmlns="http://www.w3.org/2000/svg">
<path d="M24.098 10.6413C21.1003 10.6414 18.17 11.5301 15.6771 13.1949C13.1843 14.8597 11.2408 17.226 10.0921 19.9949C8.9435 22.7637 8.64128 25.8109 9.22364 28.7514C9.80601 31.692 11.2468 34.3939 13.3641 36.516C13.692 36.8445 13.876 37.2899 13.8756 37.7541C13.8751 38.2183 13.6903 38.6633 13.3618 38.9913C13.0332 39.3192 12.5879 39.5032 12.1237 39.5027C11.6595 39.5023 11.2144 39.3175 10.8865 38.9889C8.76837 36.8661 7.19294 34.2642 6.29362 31.4034C5.39429 28.5426 5.19755 25.5073 5.72006 22.5543C6.24258 19.6014 7.46895 16.8179 9.29534 14.4394C11.1217 12.0609 13.4944 10.1576 16.2123 8.89052C18.9303 7.62346 21.9136 7.02998 24.9095 7.16035C27.9055 7.29071 30.8259 8.14109 33.4236 9.63946C36.0212 11.1378 38.2195 13.2401 39.8324 15.7682C41.4453 18.2963 42.4252 21.1759 42.6893 24.163C41.7149 22.7527 40.2574 21.7484 38.5926 21.3402C37.6369 18.2421 35.7138 15.5317 33.1053 13.6063C30.4968 11.6809 27.3401 10.6418 24.098 10.6413ZM34.9159 21.4335C33.8986 18.9263 32.0417 16.8505 29.6629 15.5613C27.284 14.2721 24.5311 13.8496 21.8752 14.366C19.2192 14.8825 16.8252 16.3059 15.1029 18.3926C13.3805 20.4793 12.4368 23.0997 12.4333 25.8054C12.4333 29.0179 13.735 31.9318 15.8347 34.0407C16.1626 34.3696 16.6078 34.5547 17.0722 34.5554C17.5366 34.556 17.9823 34.3722 18.3111 34.0442C18.64 33.7163 18.8251 33.2712 18.8258 32.8067C18.8264 32.3423 18.6425 31.8967 18.3146 31.5678C17.4435 30.6931 16.782 29.6323 16.38 28.4651C15.9779 27.298 15.8458 26.0548 15.9934 24.8292C16.1411 23.6036 16.5647 22.4274 17.2324 21.3891C17.9002 20.3508 18.7946 19.4775 19.8486 18.8347C20.9025 18.1919 22.0885 17.7965 23.3173 17.6781C24.546 17.5598 25.7857 17.7216 26.9429 18.1514C28.1002 18.5812 29.1449 19.2677 29.9985 20.1595C30.8522 21.0512 31.4925 22.1249 31.8714 23.2998C32.7078 22.4249 33.7567 21.7819 34.9159 21.4335ZM19.4321 25.8054C19.4321 24.568 19.9237 23.3812 20.7987 22.5061C21.6737 21.6311 22.8605 21.1395 24.098 21.1395C25.3355 21.1395 26.5223 21.6311 27.3973 22.5061C28.2723 23.3812 28.7639 24.568 28.7639 25.8054C28.7639 27.0429 28.2723 28.2297 27.3973 29.1047C26.5223 29.9797 25.3355 30.4713 24.098 30.4713C22.8605 30.4713 21.6737 29.9797 20.7987 29.1047C19.9237 28.2297 19.4321 27.0429 19.4321 25.8054ZM41.5951 28.1384C41.5951 29.3759 41.1035 30.5626 40.2285 31.4377C39.3535 32.3127 38.1667 32.8043 36.9292 32.8043C35.6917 32.8043 34.5049 32.3127 33.6299 31.4377C32.7549 30.5626 32.2633 29.3759 32.2633 28.1384C32.2633 26.9009 32.7549 25.7141 33.6299 24.8391C34.5049 23.9641 35.6917 23.4725 36.9292 23.4725C38.1667 23.4725 39.3535 23.9641 40.2285 24.8391C41.1035 25.7141 41.5951 26.9009 41.5951 28.1384ZM45.0945 38.6366C45.0945 41.5412 42.7616 44.469 36.9292 44.469C31.0968 44.469 28.7639 41.5528 28.7639 38.6366C28.7639 37.7085 29.1326 36.8184 29.7888 36.1622C30.4451 35.5059 31.3352 35.1372 32.2633 35.1372H41.5951C42.5232 35.1372 43.4133 35.5059 44.0696 36.1622C44.7258 36.8184 45.0945 37.7085 45.0945 38.6366Z" fill="#029894"/>
</svg>
