<svg width="44" height="41" viewBox="0 0 44 41" fill="none" xmlns="http://www.w3.org/2000/svg">
<path d="M-0.000976562 38.697H4.79462V25.3258H-0.000976562V38.697ZM22.6822 40.9255L15.6567 39.4992L8.6311 37.9616C8.22447 37.8879 7.85913 37.6826 7.60005 37.3821C7.33207 37.0905 7.18722 36.7182 7.19242 36.3347V27.4206C7.19921 27.0391 7.34264 26.6705 7.60005 26.3732C7.86786 26.0822 8.22938 25.879 8.6311 25.7938L20.0926 24.479L31.578 23.1418L31.9377 24.3898L32.2974 25.6155C32.3038 26.0264 32.1786 26.4297 31.9377 26.7743C31.7174 27.1347 31.3823 27.4228 30.9786 27.5989L26.183 28.7132L21.3874 29.8274L25.2718 31.2983L29.1802 32.7468L34.6233 31.3205L39.9224 29.7829C40.3933 29.6722 40.892 29.7361 41.3131 29.9611C41.5252 30.0676 41.7113 30.2136 41.8598 30.39C42.0084 30.5664 42.1161 30.7694 42.1763 30.9863L42.6319 32.7022L43.1115 34.3959C43.2202 34.8195 43.1516 35.2656 42.9196 35.6439C42.673 36.0256 42.2782 36.3047 41.8167 36.4239L33.1126 38.6524L24.4086 40.8809C24.1221 40.915 23.832 40.915 23.5454 40.8809C23.2623 40.9398 22.9706 40.9549 22.6822 40.9255ZM14.3858 0.812012L9.59022 5.26906L4.79462 9.72612L9.59022 14.1832L14.3858 18.6402L16.0643 17.0803L17.7427 15.5203L14.6256 12.6232L11.5085 9.72612L14.6256 6.82903L17.7427 3.93195L16.0643 2.37198L14.3858 0.812012ZM28.7726 0.812012L27.0942 2.37198L25.4157 3.93195L28.5328 6.82903L31.65 9.72612L28.5328 12.6232L25.4157 15.5203L27.0942 17.0803L28.7726 18.6402L33.5682 14.1832L38.3638 9.72612L33.5682 5.26906L28.7726 0.812012Z" fill="#029894"/>
</svg>
