<svg width="47" height="47" viewBox="0 0 47 47" fill="none" xmlns="http://www.w3.org/2000/svg">
<g clip-path="url(#clip0_96_4835)">
<path d="M28.4943 36.871H7.06071V6.12999H28.4884V8.4297H31.3685V5.50222C31.3704 2.74458 29.1062 0.486328 26.3505 0.486328H9.20247C6.44282 0.486328 4.18457 2.74458 4.18457 5.50222V41.4684C4.18457 44.2301 6.44282 46.4863 9.20247 46.4863H26.3505C29.1062 46.4863 31.3704 44.2301 31.3704 41.4684V36.8177H28.4943V36.871ZM17.7735 43.9754C16.5022 43.9754 15.4758 42.947 15.4758 41.6777C15.4758 40.4045 16.5023 39.378 17.7735 39.378C19.0467 39.378 20.0752 40.4064 20.0752 41.6777C20.0752 42.947 19.0468 43.9754 17.7735 43.9754Z" fill="#029894"/>
<path d="M15.9459 9.21533H9.5166V13.1357H15.9459V9.21533Z" fill="#029894"/>
<path d="M15.9459 19.2531H9.5166V23.1734H15.9459V19.2531Z" fill="#029894"/>
<path d="M15.9459 29.7587H9.5166V33.677H15.9459V29.7587Z" fill="#029894"/>
<path d="M38.7651 20.9764C38.5381 19.788 38.0781 18.6885 37.4268 17.7272L39.7324 15.4196L37.3774 13.0725L35.0757 15.3761C34.1183 14.7208 33.0129 14.2667 31.8285 14.0377V10.7708H28.4964V14.0377C27.3101 14.2667 26.2145 14.7227 25.2473 15.3761L22.9496 13.0725L20.5946 15.4215L22.8963 17.7291C22.2469 18.6904 21.7889 19.7899 21.5619 20.9763H18.2988V24.3064H21.5618C21.7888 25.4889 22.2488 26.5884 22.8982 27.5537L20.5945 29.8573L22.9495 32.2024L25.2531 29.9007C26.2165 30.556 27.3159 31.012 28.5023 31.243V34.504H31.8343V31.2411C33.0187 31.014 34.1163 30.5541 35.0816 29.9027L37.3833 32.2044L39.7383 29.8573L37.4326 27.5537C38.084 26.5923 38.542 25.4909 38.771 24.3045H42.036V20.9764H38.7651ZM30.1664 26.2647C28.1629 26.2647 26.5362 24.646 26.5362 22.6405C26.5362 20.6369 28.1628 19.0083 30.1664 19.0083C32.172 19.0083 33.7907 20.6349 33.7907 22.6405C33.7907 24.648 32.168 26.2647 30.1664 26.2647Z" fill="#029894"/>
</g>
<defs>
<clipPath id="clip0_96_4835">
<rect width="46" height="46" fill="white" transform="translate(0.110352 0.486328)"/>
</clipPath>
</defs>
</svg>
