<svg width="43" height="41" viewBox="0 0 43 41" fill="none" xmlns="http://www.w3.org/2000/svg">
<path d="M21.3094 0.811523C9.54002 0.811523 0 9.67806 0 20.6159C0 31.5544 9.54002 40.4209 21.3094 40.4209C33.078 40.4209 42.618 31.5544 42.618 20.6159C42.618 9.67806 33.078 0.811523 21.3094 0.811523ZM15.571 16.5247C15.571 16.553 15.558 16.578 15.5348 16.5955L9.53719 20.7407L15.5348 24.888C15.558 24.9028 15.571 24.9298 15.571 24.9568V27.5152C15.571 27.5469 15.5543 27.5752 15.5268 27.5901C15.5144 27.5962 15.5021 27.6001 15.4876 27.6001C15.4716 27.6001 15.4549 27.5947 15.4411 27.5847L6.80339 21.6137C6.78092 21.5982 6.76635 21.5718 6.76635 21.5442V19.9378C6.76635 19.9095 6.78084 19.8832 6.80339 19.8676L15.4411 13.8968C15.4549 13.8867 15.4716 13.882 15.4876 13.882C15.502 13.882 15.5144 13.8854 15.5268 13.892C15.5544 13.9062 15.571 13.9346 15.571 13.9669V16.5247ZM19.8539 28.6931C19.8416 28.7275 19.8111 28.7504 19.7747 28.7504H17.3603C17.3328 28.7504 17.3081 28.7369 17.2921 28.7139C17.2768 28.6924 17.2724 28.664 17.2812 28.6384L22.7641 12.538C22.775 12.5042 22.8069 12.482 22.8425 12.482H25.2576C25.2837 12.482 25.3098 12.4948 25.3251 12.5171C25.3403 12.5394 25.3447 12.5677 25.336 12.594L19.8539 28.6931ZM35.8502 21.5442C35.8502 21.5718 35.8372 21.5982 35.8139 21.6137L27.1762 27.5846C27.1624 27.5946 27.1465 27.6001 27.1298 27.6001C27.1159 27.6001 27.103 27.596 27.0905 27.59C27.063 27.5751 27.0463 27.5468 27.0463 27.5151V24.9574C27.0463 24.9297 27.0593 24.9028 27.0826 24.8879L33.0801 20.7407L27.0826 16.5955C27.0594 16.5793 27.0463 16.5537 27.0463 16.5254V13.9669C27.0463 13.9346 27.063 13.9062 27.0905 13.892C27.1029 13.8854 27.1159 13.882 27.1298 13.882C27.1465 13.882 27.1624 13.8867 27.1762 13.8968L35.8139 19.8676C35.8372 19.8832 35.8502 19.9095 35.8502 19.9378V21.5442Z" fill="#029894"/>
</svg>
