<svg width="48" height="45" viewBox="0 0 48 45" fill="none" xmlns="http://www.w3.org/2000/svg">
<path fill-rule="evenodd" clip-rule="evenodd" d="M24.6112 0.96228C24.3942 0.863572 24.1585 0.8125 23.9201 0.8125C23.6817 0.8125 23.446 0.863572 23.229 0.96228L14.4715 4.9487L23.9134 9.24895L33.3619 4.94536L24.6112 0.96228ZM12.9024 18.0965V7.90011L22.2507 12.157V23.4251L13.8739 19.6156C13.5823 19.483 13.335 19.2692 13.1615 18.9999C12.988 18.7305 12.8958 18.4169 12.8957 18.0965H12.9024ZM25.5894 40.5059V29.3546L34.4437 33.3878V44.6559L26.0769 40.8465C25.8941 40.7634 25.7312 40.648 25.5894 40.5059ZM37.7824 44.6626V33.3878L47.1408 29.1276V39.3274C47.1407 39.6477 47.0484 39.9613 46.875 40.2307C46.7015 40.5001 46.4542 40.7138 46.1625 40.8465L37.7824 44.6626ZM22.2441 29.3546V40.5193C22.1052 40.6553 21.9436 40.766 21.7666 40.8465L13.3865 44.6626V33.3878L22.2441 29.3546ZM10.0478 33.3878V44.6559L1.6843 40.8465C1.39266 40.7138 1.14535 40.5001 0.971886 40.2307C0.798426 39.9613 0.706143 39.6477 0.706055 39.3274V29.1309L10.0544 33.3878H10.0478ZM25.5828 23.4318V12.1536L34.9412 7.89343V18.0965C34.9411 18.4169 34.8488 18.7305 34.6753 18.9999C34.5019 19.2692 34.2546 19.483 33.9629 19.6156L25.5828 23.4318ZM35.4253 22.1965C35.6423 22.0977 35.878 22.0467 36.1164 22.0467C36.3548 22.0467 36.5905 22.0977 36.8075 22.1965L45.5549 26.1762L36.1064 30.4798L26.6745 26.1762L35.4286 22.1898L35.4253 22.1965ZM11.0327 22.1965C11.2497 22.0977 11.4854 22.0467 11.7238 22.0467C11.9622 22.0467 12.1979 22.0977 12.4149 22.1965L21.1623 26.1762L11.7171 30.4831L2.27859 26.1762L11.0327 22.1965Z" fill="#029894"/>
</svg>
