<svg width="44" height="44" viewBox="0 0 44 44" fill="none" xmlns="http://www.w3.org/2000/svg">
<g clip-path="url(#clip0_155_74962)">
<path d="M21.58 0.3125L2.51953 11.3164C2.51953 15.3184 2.89937 18.8134 3.5359 21.8925C7.46944 40.9201 21.58 43.4725 21.58 43.4725C21.58 43.4725 35.6903 40.9201 39.624 21.8925C40.2605 18.8134 40.6403 15.3185 40.6403 11.3164L21.58 0.3125ZM21.5898 39.6558C21.5869 39.6548 21.5829 39.6534 21.58 39.6525V35.6339V21.8925H11.8664H7.6812C7.11894 19.3857 6.74474 16.5391 6.63642 13.3001L21.5798 4.67301H21.58V9.03369V21.8925H31.2969H35.4801C32.5078 35.1612 24.2207 38.8171 21.5898 39.6558Z" fill="#029894"/>
</g>
<defs>
<clipPath id="clip0_155_74962">
<rect width="43.16" height="43.16" fill="white" transform="translate(0 0.3125)"/>
</clipPath>
</defs>
</svg>
