<svg width="53" height="44" viewBox="0 0 53 44" fill="none" xmlns="http://www.w3.org/2000/svg">
<g clip-path="url(#clip0_155_74863)">
<path fill-rule="evenodd" clip-rule="evenodd" d="M1.48498 0.4375H50.7018C51.0766 0.438617 51.4358 0.588021 51.7009 0.85308C51.9659 1.11814 52.1153 1.47732 52.1165 1.85217V34.4657C52.1153 34.8406 51.9659 35.1997 51.7009 35.4648C51.4358 35.7299 51.0766 35.8793 50.7018 35.8804H1.48498C1.29865 35.8798 1.11425 35.8426 0.942316 35.7707C0.770379 35.6989 0.614272 35.5939 0.482908 35.4618C0.351544 35.3296 0.247496 35.1729 0.176704 35.0005C0.105911 34.8282 0.0697618 34.6436 0.0703188 34.4572V1.84369C0.073661 1.47032 0.224046 1.11331 0.488866 0.850072C0.753686 0.586838 1.11159 0.4386 1.48498 0.4375ZM5.78404 27.5067C5.63453 27.516 5.4847 27.4946 5.34379 27.4438C5.20287 27.393 5.07385 27.3139 4.96469 27.2113C4.85552 27.1087 4.76853 26.9848 4.70906 26.8474C4.64959 26.7099 4.61891 26.5617 4.61891 26.4119C4.61891 26.2621 4.64959 26.1138 4.70906 25.9764C4.76853 25.8389 4.85552 25.715 4.96469 25.6124C5.07385 25.5099 5.20287 25.4307 5.34379 25.3799C5.4847 25.3291 5.63453 25.3077 5.78404 25.317H22.4932C22.6427 25.3077 22.7925 25.3291 22.9334 25.3799C23.0744 25.4307 23.2034 25.5099 23.3125 25.6124C23.4217 25.715 23.5087 25.8389 23.5682 25.9764C23.6276 26.1138 23.6583 26.2621 23.6583 26.4119C23.6583 26.5617 23.6276 26.7099 23.5682 26.8474C23.5087 26.9848 23.4217 27.1087 23.3125 27.2113C23.2034 27.3139 23.0744 27.393 22.9334 27.4438C22.7925 27.4946 22.6427 27.516 22.4932 27.5067H5.78404ZM5.84758 21.882C5.56897 21.8646 5.30744 21.7417 5.11628 21.5383C4.92512 21.3349 4.81871 21.0662 4.81871 20.7871C4.81871 20.5079 4.92512 20.2393 5.11628 20.0359C5.30744 19.8324 5.56897 19.7095 5.84758 19.6922H18.0289C18.3076 19.7095 18.5691 19.8324 18.7602 20.0359C18.9514 20.2393 19.0578 20.5079 19.0578 20.7871C19.0578 21.0662 18.9514 21.3349 18.7602 21.5383C18.5691 21.7417 18.3076 21.8646 18.0289 21.882H5.84758ZM5.78404 16.2784C5.63453 16.2877 5.4847 16.2663 5.34379 16.2154C5.20287 16.1646 5.07385 16.0855 4.96469 15.9829C4.85552 15.8803 4.76853 15.7565 4.70906 15.619C4.64959 15.4815 4.61891 15.3333 4.61891 15.1835C4.61891 15.0337 4.64959 14.8855 4.70906 14.748C4.76853 14.6105 4.85552 14.4866 4.96469 14.3841C5.07385 14.2815 5.20287 14.2023 5.34379 14.1515C5.4847 14.1007 5.63453 14.0793 5.78404 14.0886H14.4076C14.6862 14.1059 14.9477 14.2288 15.1389 14.4323C15.33 14.6357 15.4364 14.9043 15.4364 15.1835C15.4364 15.4626 15.33 15.7313 15.1389 15.9347C14.9477 16.1381 14.6862 16.261 14.4076 16.2784H5.78404ZM5.78404 10.6621C5.63453 10.6714 5.4847 10.6499 5.34379 10.5991C5.20287 10.5483 5.07385 10.4692 4.96469 10.3666C4.85552 10.264 4.76853 10.1402 4.70906 10.0027C4.64959 9.86518 4.61891 9.71697 4.61891 9.56717C4.61891 9.41737 4.64959 9.26916 4.70906 9.13167C4.76853 8.99419 4.85552 8.87033 4.96469 8.76775C5.07385 8.66517 5.20287 8.58603 5.34379 8.53522C5.4847 8.4844 5.63453 8.46299 5.78404 8.47229H10.7862C11.0648 8.48963 11.3263 8.61253 11.5175 8.81595C11.7086 9.01938 11.8151 9.28802 11.8151 9.56717C11.8151 9.84632 11.7086 10.115 11.5175 10.3184C11.3263 10.5218 11.0648 10.6447 10.7862 10.6621H5.78404ZM46.8686 21.7549V24.4826L41.265 27.6592V24.4826L44.8737 23.1103L41.265 21.7549V18.5783L46.8686 21.7549ZM37.1608 28.5317H34.8016L37.7665 17.0492H40.1511L37.1862 28.5317H37.1608ZM33.1752 21.7549L29.5623 23.1103L33.1752 24.4826V27.6592L27.6012 24.4826V21.7549L33.2091 18.5783V21.7549H33.1752ZM35.5767 5.37189V6.92632C35.5767 7.13189 35.4951 7.32904 35.3497 7.4744C35.2043 7.61976 35.0072 7.70143 34.8016 7.70143H33.531C33.3723 8.22361 33.1444 8.72219 32.8533 9.18386L33.7004 10.031C33.8447 10.1762 33.9257 10.3726 33.9257 10.5773C33.9257 10.7821 33.8447 10.9785 33.7004 11.1237L32.5526 12.2716C32.4073 12.4159 32.2109 12.4969 32.0062 12.4969C31.8014 12.4969 31.605 12.4159 31.4598 12.2716L30.5365 11.3482C30.056 11.606 29.5432 11.7983 29.0117 11.92V13.1144C29.0106 13.3197 28.9285 13.5162 28.7834 13.6613C28.6383 13.8064 28.4418 13.8884 28.2366 13.8895H26.5974C26.3922 13.8884 26.1957 13.8064 26.0506 13.6613C25.9054 13.5162 25.8234 13.3197 25.8223 13.1144V11.8099C25.2999 11.6536 24.8012 11.4271 24.3399 11.1364L23.4928 11.9835C23.4211 12.0562 23.3357 12.1138 23.2415 12.1531C23.1474 12.1925 23.0463 12.2128 22.9443 12.2128C22.8422 12.2128 22.7412 12.1925 22.647 12.1531C22.5529 12.1138 22.4675 12.0562 22.3958 11.9835L21.2479 10.8357C21.1084 10.6905 21.0305 10.497 21.0305 10.2957C21.0305 10.0943 21.1084 9.90082 21.2479 9.75565L22.1713 8.83655C21.9135 8.35459 21.7212 7.84037 21.5995 7.30752H20.4008C20.1953 7.30752 19.9981 7.22586 19.8528 7.0805C19.7074 6.93514 19.6257 6.73799 19.6257 6.53242V5.38883H1.3791V30.442C1.3791 30.779 1.51297 31.1022 1.75126 31.3404C1.98956 31.5787 2.31275 31.7126 2.64975 31.7126H49.5624C49.8994 31.7126 50.2226 31.5787 50.4609 31.3404C50.6992 31.1022 50.8331 30.779 50.8331 30.442V5.37189H35.5767ZM30.7398 5.37189H24.4754C24.4448 5.55099 24.4292 5.73234 24.4288 5.91403C24.4875 6.71645 24.8476 7.46695 25.4369 8.01474C26.0262 8.56252 26.8009 8.867 27.6055 8.867C28.41 8.867 29.1848 8.56252 29.7741 8.01474C30.3633 7.46695 30.7235 6.71645 30.7821 5.91403C30.7831 5.73245 30.7689 5.55111 30.7398 5.37189ZM48.44 2.52138C48.6076 2.52138 48.7713 2.57106 48.9106 2.66414C49.0499 2.75722 49.1585 2.88952 49.2226 3.04431C49.2868 3.1991 49.3035 3.36942 49.2708 3.53375C49.2382 3.69807 49.1575 3.84901 49.039 3.96748C48.9205 4.08595 48.7696 4.16663 48.6053 4.19931C48.441 4.232 48.2706 4.21522 48.1158 4.15111C47.9611 4.08699 47.8288 3.97842 47.7357 3.83911C47.6426 3.6998 47.5929 3.53602 47.5929 3.36848C47.5929 3.14382 47.6822 2.92835 47.841 2.76949C47.9999 2.61063 48.2153 2.52138 48.44 2.52138ZM42.7475 2.52138C42.915 2.52138 43.0788 2.57106 43.2181 2.66414C43.3574 2.75722 43.466 2.88952 43.5301 3.04431C43.5942 3.1991 43.611 3.36942 43.5783 3.53375C43.5456 3.69807 43.4649 3.84901 43.3465 3.96748C43.228 4.08595 43.0771 4.16663 42.9127 4.19931C42.7484 4.232 42.5781 4.21522 42.4233 4.15111C42.2685 4.08699 42.1362 3.97842 42.0431 3.83911C41.95 3.6998 41.9004 3.53602 41.9004 3.36848C41.9004 3.14382 41.9896 2.92835 42.1485 2.76949C42.3073 2.61063 42.5228 2.52138 42.7475 2.52138ZM45.5937 2.52138C45.7613 2.52138 45.9251 2.57106 46.0644 2.66414C46.2037 2.75722 46.3123 2.88952 46.3764 3.04431C46.4405 3.1991 46.4573 3.36942 46.4246 3.53375C46.3919 3.69807 46.3112 3.84901 46.1927 3.96748C46.0743 4.08595 45.9233 4.16663 45.759 4.19931C45.5947 4.232 45.4244 4.21522 45.2696 4.15111C45.1148 4.08699 44.9825 3.97842 44.8894 3.83911C44.7963 3.6998 44.7466 3.53602 44.7466 3.36848C44.7466 3.14382 44.8359 2.92835 44.9948 2.76949C45.1536 2.61063 45.3691 2.52138 45.5937 2.52138ZM19.6766 37.8245H32.5102C32.5441 40.0439 33.459 42.0346 35.9367 43.5975H16.25C18.245 42.1532 19.685 40.4039 19.6766 37.8245Z" fill="#029894"/>
</g>
<defs>
<clipPath id="clip0_155_74863">
<rect width="52.0461" height="43.16" fill="white" transform="translate(0.0703125 0.4375)"/>
</clipPath>
</defs>
</svg>
