<svg width="45" height="44" viewBox="0 0 45 44" fill="none" xmlns="http://www.w3.org/2000/svg">
<g clip-path="url(#clip0_155_74899)">
<path d="M23.3646 0.425781H21.5664V4.02221H23.3646V0.425781Z" fill="#029894"/>
<path d="M13.3543 2.62649L11.7969 3.52539L13.5947 6.64026L15.1521 5.74136L13.3543 2.62649Z" fill="#029894"/>
<path d="M5.7858 9.53654L4.88672 11.0938L8.00123 12.892L8.90031 11.3348L5.7858 9.53654Z" fill="#029894"/>
<path d="M6.28393 19.3069H2.6875V21.1051H6.28393V19.3069Z" fill="#029894"/>
<path d="M8.00159 27.5205L4.88672 29.3184L5.78562 30.8758L8.90049 29.0779L8.00159 27.5205Z" fill="#029894"/>
<path d="M36.9303 27.5151L36.0312 29.0723L39.1458 30.8705L40.0448 29.3133L36.9303 27.5151Z" fill="#029894"/>
<path d="M42.2468 19.3069H38.6504V21.1051H42.2468V19.3069Z" fill="#029894"/>
<path d="M39.1481 9.54004L36.0332 11.3379L36.9321 12.8953L40.047 11.0974L39.1481 9.54004Z" fill="#029894"/>
<path d="M31.5772 2.62537L29.7793 5.74023L31.3367 6.63914L33.1345 3.52427L31.5772 2.62537Z" fill="#029894"/>
<path d="M14.8086 36.3906C14.911 36.9835 14.9981 37.5822 15.0656 38.1888H29.866C29.9381 37.5887 30.0314 36.9894 30.1441 36.3906H14.8086Z" fill="#029894"/>
<path d="M15.2168 39.9865C15.2479 40.5651 15.273 41.1457 15.273 41.7337V43.5858H29.6585V41.356C29.6585 40.8993 29.6846 40.4428 29.7083 39.9865H15.2168Z" fill="#029894"/>
<path d="M29.865 38.1875C29.7931 38.7865 29.74 39.3858 29.709 39.9857H32.3565V38.1875H29.865Z" fill="#029894"/>
<path d="M15.0644 38.1875H12.5762V39.9857H15.2173C15.1847 39.3799 15.1307 38.7817 15.0644 38.1875Z" fill="#029894"/>
<path d="M30.5432 34.5918C30.3894 35.1905 30.2555 35.7897 30.1426 36.39H33.2551V34.5918H30.5432Z" fill="#029894"/>
<path d="M14.4389 34.5918H11.6777V36.39H14.808C14.7031 35.7824 14.5797 35.1834 14.4389 34.5918Z" fill="#029894"/>
<path d="M31.4573 9.25804C28.5622 6.65977 24.8219 5.48181 20.9289 5.90442C14.779 6.58773 9.78906 11.5417 9.07882 17.6916C8.71018 20.8385 9.40253 23.9044 11.0928 26.5386C12.6292 28.9494 13.7432 31.6719 14.4384 34.5917H30.5436C31.2747 31.7465 32.4484 28.9219 34.0917 26.1431C35.3054 24.0751 35.9528 21.7106 35.9528 19.31C35.9528 15.4708 34.3165 11.8115 31.4573 9.25804ZM18.7865 22.8973L17.5152 24.1686L13.1031 19.7565L17.5152 15.3444L18.7865 16.6158L15.6458 19.7565L18.7865 22.8973ZM21.1046 26.0714L19.4152 25.4567L23.7799 13.4418L25.4692 14.0564L21.1046 26.0714ZM27.4175 24.1686L26.1462 22.8974L29.2869 19.7566L26.1462 16.6159L27.4175 15.3445L31.8296 19.7566L27.4175 24.1686Z" fill="#029894"/>
</g>
<defs>
<clipPath id="clip0_155_74899">
<rect width="43.16" height="43.16" fill="white" transform="translate(0.886719 0.425781)"/>
</clipPath>
</defs>
</svg>
