<svg width="48" height="44" viewBox="0 0 48 44" fill="none" xmlns="http://www.w3.org/2000/svg">
<g clip-path="url(#clip0_155_74846)">
<path fill-rule="evenodd" clip-rule="evenodd" d="M8.77596 4.86309H44.668C47.0147 4.86309 46.8877 5.73064 46.6838 7.94344L45.3489 23.4786C45.122 25.9549 45.3143 25.3543 42.4406 25.7301L16.0429 28.7964L17.4393 32.4949C28.8917 32.4949 34.4274 32.4949 45.8721 32.4949C46.2568 33.8085 46.78 35.9476 47.1647 37.4122H42.4406L41.9867 35.916C32.4463 35.916 28.8109 35.916 19.2666 35.916C14.054 35.8352 14.5772 37.1242 13.3269 33.0112L4.3712 3.28603H0.0703125V0.4375H7.61418C7.96426 1.63522 8.44897 3.65132 8.77596 4.86309ZM24.4946 8.78289H31.3268V15.1122H37.4742L27.9184 23.6016L18.3472 15.1122H24.4946V8.78289ZM20.7246 36.938C22.7365 36.938 24.3715 38.4308 24.3715 40.2678C24.3715 42.1083 22.7404 43.5975 20.7246 43.5975C18.7088 43.5975 17.0777 42.1083 17.0777 40.2678C17.0777 38.4308 18.7088 36.938 20.7246 36.938ZM35.7662 36.938C37.7781 36.938 39.4131 38.4308 39.4131 40.2678C39.4131 42.1083 37.7781 43.5975 35.7662 43.5975C33.7504 43.5975 32.1193 42.1083 32.1193 40.2678C32.1193 38.4308 33.7504 36.938 35.7662 36.938Z" fill="#029894"/>
</g>
<defs>
<clipPath id="clip0_155_74846">
<rect width="47.0982" height="43.16" fill="white" transform="translate(0.0703125 0.4375)"/>
</clipPath>
</defs>
</svg>
