<svg width="49" height="41" viewBox="0 0 49 41" fill="none" xmlns="http://www.w3.org/2000/svg">
<path d="M39.2 22.8625V17.9625H49V22.8625H39.2ZM42.14 40.0125L34.3 34.1325L37.24 30.2125L45.08 36.0925L42.14 40.0125ZM37.24 10.6125L34.3 6.6925L42.14 0.8125L45.08 4.7325L37.24 10.6125ZM7.35 37.5625V27.7625H4.9C3.5525 27.7625 2.39937 27.2831 1.4406 26.3244C0.481833 25.3656 0.00163333 24.2116 0 22.8625V17.9625C0 16.615 0.4802 15.4619 1.4406 14.5031C2.401 13.5443 3.55413 13.0641 4.9 13.0625H14.7L26.95 5.7125V35.1125L14.7 27.7625H12.25V37.5625H7.35ZM29.4 28.62V12.205C30.5025 13.185 31.391 14.3798 32.0656 15.7894C32.7402 17.1989 33.0766 18.74 33.075 20.4125C33.075 22.0867 32.7377 23.6285 32.0631 25.0381C31.3886 26.4477 30.5009 27.6416 29.4 28.62Z" fill="#029894"/>
</svg>
