<svg width="42" height="44" viewBox="0 0 42 44" fill="none" xmlns="http://www.w3.org/2000/svg">
<g clip-path="url(#clip0_96_21884)">
<path fill-rule="evenodd" clip-rule="evenodd" d="M2.87188 0.326904H38.6067C39.6183 0.326904 40.4437 1.15582 40.4437 2.16387V12.1425C40.4437 13.1541 39.6148 13.9795 38.6067 13.9795H33.2433V15.8586H38.6067C39.6183 15.8586 40.4437 16.6875 40.4437 17.6956V27.6742C40.4437 28.6858 39.6148 29.5112 38.6067 29.5112H33.2433V34.843H36.0005V37.5932H41.4482V40.7543H36.0005V43.4799H27.3285V40.7543H14.7191V43.4799H6.04706V40.7543H0.0268555V37.5932H6.04706V34.843H8.80076V29.5182H2.87188C1.86031 29.5182 1.03491 28.6893 1.03491 27.6812V17.6991C1.03491 16.6875 1.86031 15.8621 2.87188 15.8621H8.80076V13.983H2.87188C1.86031 13.983 1.03491 13.1541 1.03491 12.146V2.16739C1.03139 1.15231 1.86031 0.326904 2.87188 0.326904ZM5.59396 19.9716H7.69436V25.4052H5.59396V19.9716ZM34.4446 5.49009C35.3648 5.49009 36.1094 6.23471 36.1094 7.15495C36.1094 8.07519 35.3648 8.81981 34.4446 8.81981C33.5243 8.81981 32.7797 8.07519 32.7797 7.15495C32.7797 6.23471 33.5243 5.49009 34.4446 5.49009ZM28.1047 5.49009C29.025 5.49009 29.7696 6.23471 29.7696 7.15495C29.7696 8.07519 29.025 8.81981 28.1047 8.81981C27.1845 8.81981 26.4399 8.07519 26.4399 7.15495C26.4399 6.23471 27.188 5.49009 28.1047 5.49009ZM17.1988 4.43638H19.2992V9.87001H17.1988V4.43638ZM11.3964 4.43638H13.4968V9.87001H11.3964V4.43638ZM5.59396 4.43638H7.69436V9.87001H5.59396V4.43638ZM34.4446 21.0253C35.3648 21.0253 36.1094 21.7699 36.1094 22.6902C36.1094 23.6104 35.3648 24.355 34.4446 24.355C33.5243 24.355 32.7797 23.6104 32.7797 22.6902C32.7797 21.7699 33.5243 21.0253 34.4446 21.0253ZM28.1047 21.0253C29.025 21.0253 29.7696 21.7699 29.7696 22.6902C29.7696 23.6104 29.025 24.355 28.1047 24.355C27.1845 24.355 26.4399 23.6104 26.4399 22.6902C26.4399 21.7699 27.188 21.0253 28.1047 21.0253ZM17.1988 19.9716H19.2992V25.4052H17.1988V19.9716ZM11.3964 19.9716H13.4968V25.4052H11.3964V19.9716ZM31.6628 37.1998C32.7516 37.1998 33.6332 38.0814 33.6332 39.1702C33.6332 40.259 32.7516 41.1406 31.6628 41.1406C30.5739 41.1406 29.6923 40.259 29.6923 39.1702C29.6923 38.0814 30.5774 37.1998 31.6628 37.1998ZM10.3813 37.1998C11.4702 37.1998 12.3518 38.0814 12.3518 39.1702C12.3518 40.259 11.4702 41.1406 10.3813 41.1406C9.29249 41.1406 8.41088 40.259 8.41088 39.1702C8.41088 38.0814 9.296 37.1998 10.3813 37.1998ZM14.7191 37.6002H27.3285V34.85H30.0822V29.5182H11.9619V34.85H14.7191V37.6002ZM11.9619 15.8621H30.0822V13.983H11.9619V15.8621Z" fill="#029894"/>
</g>
<defs>
<clipPath id="clip0_96_21884">
<rect width="41.4214" height="43.16" fill="white" transform="translate(0.0268555 0.326904)"/>
</clipPath>
</defs>
</svg>
