<svg width="49" height="24" viewBox="0 0 49 24" fill="none" xmlns="http://www.w3.org/2000/svg">
<path d="M40.0909 0.8125C37.6409 0.8125 35.6364 2.81705 35.6364 5.26705V9.72159C35.6364 12.1716 37.6409 14.1761 40.0909 14.1761H44.5455V18.6307H35.6364V23.0852H44.5455C46.9955 23.0852 49 21.0807 49 18.6307V14.1761C49 11.7261 46.9955 9.72159 44.5455 9.72159H40.0909V5.26705H49V0.8125H40.0909ZM17.8182 0.8125V23.0852H26.7273C29.1773 23.0852 31.1818 21.0807 31.1818 18.6307V5.26705C31.1818 2.81705 29.1773 0.8125 26.7273 0.8125H17.8182ZM22.2727 5.26705H26.7273V18.6307H22.2727V5.26705ZM4.45455 0.8125C2.00455 0.8125 0 2.81705 0 5.26705V23.0852H4.45455V14.1761H8.90909V23.0852H13.3636V5.26705C13.3636 2.81705 11.3591 0.8125 8.90909 0.8125H4.45455ZM4.45455 5.26705H8.90909V9.72159H4.45455V5.26705Z" fill="#029894"/>
</svg>
