<svg width="44" height="45" viewBox="0 0 44 45" fill="none" xmlns="http://www.w3.org/2000/svg">
<g clip-path="url(#clip0_96_21903)">
<path d="M27.9749 38.5987H23.4188V34.6396H20.1249V38.5987H15.5689C14.6593 38.5987 13.9219 39.3361 13.9219 40.2456C13.9219 41.1552 14.6593 41.8926 15.5689 41.8926H27.9748C28.8844 41.8926 29.6218 41.1552 29.6218 40.2456C29.6218 39.3361 28.8845 38.5987 27.9749 38.5987Z" fill="#029894"/>
<path d="M24.8457 29.1779H18.697H0.191406V31.1453C0.191406 31.8614 0.773982 32.444 1.49008 32.444H42.0527C42.7688 32.444 43.3514 31.8614 43.3514 31.1453V29.1779H24.8457Z" fill="#029894"/>
<path d="M42.0526 3.11621H1.49008C0.773982 3.11621 0.191406 3.69879 0.191406 4.41489V26.9816H3.22854C3.42267 16.9214 11.6656 8.79715 21.7713 8.79715C25.2603 8.79715 28.527 9.76614 31.3175 11.4482L32.4068 9.96011C32.765 9.47093 33.452 9.36455 33.9413 9.72273C34.4307 10.081 34.537 10.768 34.1787 11.2574L33.1287 12.6917C37.4112 16.0185 40.2022 21.1777 40.3141 26.9816H43.3512V4.41489C43.3513 3.69879 42.7687 3.11621 42.0526 3.11621Z" fill="#029894"/>
<path d="M31.067 25.802C30.6799 23.4618 29.4625 21.4523 27.7452 20.0479L24.4746 24.5158C25.0144 24.9758 25.4362 25.5701 25.6868 26.2471H31.2469C31.1574 26.118 31.0944 25.9673 31.067 25.802Z" fill="#029894"/>
<path d="M21.7716 17.9238C19.0732 17.9238 16.6213 19.0503 14.8941 20.8924C14.8861 20.9044 14.8792 20.9167 14.8706 20.9284C14.8137 21.0066 14.7482 21.0743 14.6767 21.1328C13.5564 22.4137 12.773 24.0106 12.4767 25.8015C12.4494 25.9668 12.3863 26.1175 12.2969 26.2467H17.857C18.4458 24.6555 19.9783 23.5181 21.7715 23.5181C21.9999 23.5181 22.2238 23.5373 22.4423 23.5728L25.8899 18.863C24.642 18.2598 23.2436 17.9238 21.7716 17.9238Z" fill="#029894"/>
<path d="M38.0861 26.2474C37.768 21.4699 35.3886 17.2477 31.8319 14.4639L29.0332 18.2871C29.1296 18.3645 29.2262 18.4416 29.3203 18.5222C31.3992 20.3033 32.7885 22.7614 33.2323 25.4437C33.2807 25.7366 33.2086 26.0214 33.0521 26.2474H38.0861Z" fill="#029894"/>
<path d="M10.3108 25.4435C10.6081 23.6462 11.3318 21.9505 12.4014 20.4908L8.58343 17.7144C8.57939 17.7115 8.57585 17.708 8.57188 17.7051C6.79406 20.1328 5.6687 23.0669 5.45703 26.2473H10.4909C10.3344 26.0211 10.2624 25.7364 10.3108 25.4435Z" fill="#029894"/>
<path d="M9.98828 16.0206L13.8666 18.8408C13.9831 18.7324 14.1015 18.6257 14.2228 18.5219C16.0458 16.9602 18.3037 16.008 20.6741 15.7819V11.0312C16.4877 11.3102 12.7278 13.1711 9.98828 16.0206Z" fill="#029894"/>
<path d="M22.8691 11.0311V15.7818C24.3862 15.9262 25.8572 16.3676 27.1974 17.0769L30.0146 13.2282C27.8903 11.9831 25.4614 11.2039 22.8691 11.0311Z" fill="#029894"/>
</g>
<defs>
<clipPath id="clip0_96_21903">
<rect width="43.16" height="43.16" fill="white" transform="translate(0.191406 0.924805)"/>
</clipPath>
</defs>
</svg>
