<svg width="49" height="42" viewBox="0 0 49 42" fill="none" xmlns="http://www.w3.org/2000/svg">
<path fill-rule="evenodd" clip-rule="evenodd" d="M0 6.83031C0 3.5075 2.695 0.8125 6.01781 0.8125H14.6142C17.9371 0.8125 20.6321 3.5075 20.6321 6.83031V8.54838C20.6321 11.8743 17.9371 14.5662 14.6142 14.5662H6.01781C4.42179 14.5662 2.89114 13.9322 1.76258 12.8036C0.634018 11.6751 0 10.1444 0 8.54838L0 6.83031ZM6.01781 5.97281C5.9052 5.97281 5.7937 5.99499 5.68966 6.03809C5.58562 6.08118 5.49109 6.14434 5.41147 6.22397C5.33184 6.3036 5.26868 6.39812 5.22559 6.50216C5.18249 6.6062 5.16031 6.7177 5.16031 6.83031V8.54838C5.15991 8.66124 5.18179 8.77308 5.2247 8.87747C5.26762 8.98186 5.33072 9.07675 5.41038 9.1567C5.49005 9.23665 5.58472 9.30009 5.68895 9.34337C5.79319 9.38666 5.90495 9.40894 6.01781 9.40894H14.6142C14.7269 9.40894 14.8384 9.38676 14.9424 9.34366C15.0464 9.30057 15.141 9.23741 15.2206 9.15778C15.3002 9.07816 15.3634 8.98363 15.4065 8.87959C15.4496 8.77555 15.4718 8.66405 15.4718 8.55144V6.83031C15.4718 6.7177 15.4496 6.6062 15.4065 6.50216C15.3634 6.39812 15.3002 6.3036 15.2206 6.22397C15.141 6.14434 15.0464 6.08118 14.9424 6.03809C14.8384 5.99499 14.7269 5.97281 14.6142 5.97281H6.01781ZM24.9288 7.69088C24.9288 6.26681 26.0833 5.11225 27.5074 5.11225H46.4214C47.1053 5.11225 47.7612 5.38393 48.2447 5.86751C48.7283 6.3511 49 7.00698 49 7.69088C49 8.37477 48.7283 9.03065 48.2447 9.51424C47.7612 9.99782 47.1053 10.2695 46.4214 10.2695H27.5074C26.8235 10.2695 26.1676 9.99782 25.684 9.51424C25.2004 9.03065 24.9288 8.37477 24.9288 7.69088ZM0.8575 23.1626C0.8575 21.7386 2.01513 20.584 3.43919 20.584H36.1069C36.4455 20.584 36.7808 20.6507 37.0937 20.7803C37.4065 20.9099 37.6908 21.0998 37.9302 21.3393C38.1697 21.5787 38.3596 21.863 38.4892 22.1758C38.6188 22.4887 38.6855 22.824 38.6855 23.1626C38.6855 23.5013 38.6188 23.8366 38.4892 24.1494C38.3596 24.4623 38.1697 24.7465 37.9302 24.986C37.6908 25.2254 37.4065 25.4154 37.0937 25.545C36.7808 25.6746 36.4455 25.7413 36.1069 25.7413H3.43919C3.10056 25.7413 2.76524 25.6746 2.45239 25.545C2.13954 25.4154 1.85527 25.2254 1.61582 24.986C1.37638 24.7465 1.18644 24.4623 1.05685 24.1494C0.927261 23.8366 0.8575 23.5013 0.8575 23.1626ZM0.8575 38.6344C0.8575 37.2134 2.01513 36.0588 3.43919 36.0588H44.7033C45.0419 36.0588 45.3773 36.1255 45.6901 36.2551C46.003 36.3847 46.2872 36.5746 46.5267 36.8141C46.7661 37.0535 46.9561 37.3378 47.0857 37.6506C47.2152 37.9635 47.2819 38.2988 47.2819 38.6374C47.2819 38.9761 47.2152 39.3114 47.0857 39.6242C46.9561 39.9371 46.7661 40.2214 46.5267 40.4608C46.2872 40.7002 46.003 40.8902 45.6901 41.0198C45.3773 41.1494 45.0419 41.2161 44.7033 41.2161H3.43919C2.75529 41.2161 2.09941 40.9444 1.61582 40.4608C1.13224 39.9772 0.860562 39.3213 0.860562 38.6374" fill="#029894"/>
</svg>
