<svg width="83" height="83" viewBox="0 0 83 83" fill="none" xmlns="http://www.w3.org/2000/svg">
<circle cx="41.2382" cy="41.2382" r="41.2382" fill="#D8EDEB" fill-opacity="0.88"/>
<path fill-rule="evenodd" clip-rule="evenodd" d="M24.4608 53.6616C23.8437 54.2787 23.0067 54.6254 22.1339 54.6254C21.2612 54.6254 20.4242 54.2787 19.8071 53.6616C19.19 53.0444 18.8433 52.2075 18.8433 51.3347C18.8433 50.462 19.19 49.625 19.8071 49.0079L30.7687 38.0496L30.7917 38.0266C31.6873 37.1494 32.891 36.6581 34.1446 36.6581C35.3983 36.6581 36.602 37.1494 37.4976 38.0266L37.5206 38.0496L43.1148 43.6439L50.8336 35.4811L47.4133 32.0607C47.0688 31.7158 46.8342 31.2765 46.7392 30.7983C46.6442 30.3201 46.6931 29.8245 46.8796 29.374C47.0661 28.9236 47.3819 28.5385 47.7871 28.2675C48.1924 27.9964 48.6688 27.8515 49.1564 27.8511H61.167C61.8212 27.8511 62.4486 28.1109 62.9112 28.5735C63.3738 29.0361 63.6336 29.6635 63.6336 30.3177V42.3284C63.6332 42.8159 63.4883 43.2924 63.2173 43.6976C62.9462 44.1028 62.5611 44.4186 62.1107 44.6052C61.6602 44.7917 61.1646 44.8405 60.6864 44.7455C60.2082 44.6505 59.7689 44.4159 59.424 44.0714L55.4873 40.1314L46.5944 49.5407C46.155 49.9942 45.6303 50.3564 45.0504 50.6065C44.4705 50.8566 43.847 50.9895 43.2155 50.9978C42.5841 51.006 41.9572 50.8894 41.371 50.6546C40.7848 50.4198 40.2508 50.0714 39.7997 49.6295L39.7767 49.6065L34.143 43.976L24.4608 53.6616Z" fill="#001C63"/>
</svg>
