<svg width="83" height="83" viewBox="0 0 83 83" fill="none" xmlns="http://www.w3.org/2000/svg">
<circle cx="41.2382" cy="41.2382" r="41.2382" fill="#D8EDEB" fill-opacity="0.88"/>
<path fill-rule="evenodd" clip-rule="evenodd" d="M24.6852 30.138V32.4749H22.3483C21.4187 32.4749 20.5271 32.8442 19.8697 33.5016C19.2123 34.159 18.843 35.0506 18.843 35.9802V52.3384C18.843 53.2681 19.2123 54.1597 19.8697 54.8171C20.5271 55.4745 21.4187 55.8438 22.3483 55.8438H54.2858C54.7461 55.8438 55.2019 55.7531 55.6272 55.5769C56.0525 55.4008 56.4389 55.1426 56.7644 54.8171C57.0899 54.4916 57.3481 54.1052 57.5243 53.6799C57.7005 53.2546 57.7911 52.7988 57.7911 52.3384V50.0016H60.128C62.0598 50.0016 63.6333 48.428 63.6333 46.4962V30.138C63.6333 28.2062 62.0598 26.6327 60.128 26.6327H28.1906C26.2587 26.6327 24.6852 28.2062 24.6852 30.138ZM28.58 30.5275V32.4749H54.2858C54.7461 32.4749 55.2019 32.5656 55.6272 32.7417C56.0525 32.9179 56.4389 33.1761 56.7644 33.5016C57.0899 33.8271 57.3481 34.2135 57.5243 34.6388C57.7005 35.0641 57.7911 35.5199 57.7911 35.9802V46.1067H59.7385V30.5275H28.58ZM34.4223 44.1593C34.4223 43.1264 34.8326 42.1357 35.563 41.4053C36.2934 40.6749 37.2841 40.2645 38.3171 40.2645C39.35 40.2645 40.3407 40.6749 41.0711 41.4053C41.8015 42.1357 42.2119 43.1264 42.2119 44.1593C42.2119 45.1923 41.8015 46.183 41.0711 46.9134C40.3407 47.6438 39.35 48.0541 38.3171 48.0541C37.2841 48.0541 36.2934 47.6438 35.563 46.9134C34.8326 46.183 34.4223 45.1923 34.4223 44.1593Z" fill="#001C63"/>
</svg>
