<svg width="83" height="83" viewBox="0 0 83 83" fill="none" xmlns="http://www.w3.org/2000/svg">
<circle cx="41.2382" cy="41.2382" r="41.2382" fill="#D8EDEB" fill-opacity="0.88"/>
<path d="M32.2946 46.5531L28.9563 49.8914L25.7127 46.6478C23.6241 49.323 22.2988 52.5138 21.8772 55.8814H26.4704V60.6166H17V58.249C17 46.7899 25.1445 37.2485 35.9407 35.0466V30.3115L17 22.7352V18H64.3518V22.7352L45.4111 30.3115V35.0466C56.2073 37.2485 64.3518 46.7899 64.3518 58.249V60.6166H54.8814V55.8814H59.4746C59.053 52.5138 57.7277 49.323 55.6391 46.6478L52.3955 49.8914L49.0572 46.5531L52.3008 43.2859C49.6153 41.1995 46.4176 39.8746 43.0435 39.4504V44.0435H38.3083V39.4504C34.8516 39.8765 31.6791 41.2497 29.051 43.2859L32.2946 46.5531ZM40.6759 53.5138C41.9317 53.5138 43.1362 54.0127 44.0242 54.9008C44.9122 55.7888 45.4111 56.9932 45.4111 58.249C45.4111 59.5049 44.9122 60.7093 44.0242 61.5973C43.1362 62.4853 41.9317 62.9842 40.6759 62.9842C39.9183 62.9842 39.208 62.8185 38.5924 62.487L29.4772 58.249L38.5924 54.011C39.208 53.6796 39.9183 53.5138 40.6759 53.5138Z" fill="#001C63"/>
</svg>
