<svg xmlns="http://www.w3.org/2000/svg" width="22" height="23" viewBox="0 0 22 23" fill="none">
  <g clip-path="url(#clip0_187_1999)">
    <path d="M5.86575 11.4146L10.2658 15.0813L16.1324 7.74795M10.9991 21.6813C9.65085 21.6813 8.31581 21.4157 7.07021 20.8998C5.8246 20.3838 4.69281 19.6276 3.73946 18.6742C2.78611 17.7209 2.02987 16.5891 1.51393 15.3435C0.997977 14.0979 0.732422 12.7629 0.732422 11.4146C0.732422 10.0664 0.997977 8.73134 1.51393 7.48573C2.02987 6.24012 2.78611 5.10833 3.73946 4.15499C4.69281 3.20164 5.8246 2.4454 7.07021 1.92945C8.31581 1.4135 9.65085 1.14795 10.9991 1.14795C13.722 1.14795 16.3333 2.22961 18.2587 4.15499C20.1841 6.08036 21.2658 8.69173 21.2658 11.4146C21.2658 14.1375 20.1841 16.7489 18.2587 18.6742C16.3333 20.5996 13.722 21.6813 10.9991 21.6813Z" stroke="black"/>
  </g>
  <defs>
    <clipPath id="clip0_187_1999">
      <rect width="22" height="22" fill="white" transform="translate(0 0.414551)"/>
    </clipPath>
  </defs>
</svg>