<svg width="60" height="39" viewBox="0 0 60 45" fill="none" xmlns="http://www.w3.org/2000/svg">
<path d="M33.3875 0.703861C30.8656 0.647738 28.3583 1.10096 26.0156 2.03642C24.5114 2.62605 23.0896 3.40761 21.7857 4.36167C20.3142 5.44747 19.0052 6.73759 17.8981 8.19308C17.2783 8.117 16.6545 8.07862 16.03 8.07816C7.64102 8.07816 0.843757 14.8901 0.843757 23.3011C0.840678 26.4477 1.81415 29.5177 3.62988 32.0876C5.44561 34.6575 8.01409 36.6005 10.981 37.6487C11.6475 39.8588 13.1213 41.7372 15.1094 42.9104C17.0975 44.0836 19.4542 44.4657 21.7111 43.9808C23.968 43.4959 25.9598 42.1795 27.2906 40.2932C28.6213 38.407 29.1935 36.089 28.8935 33.8002L41.8523 27.2646L41.7545 27.0738L42.9746 26.4455L40.4782 21.4893L39.2581 22.1006L39.1432 21.8903L26.2064 28.3893C24.4962 26.6993 22.1875 25.7537 19.7832 25.7584C18.0215 25.7615 16.2976 26.2693 14.8157 27.2218C13.3337 28.1742 12.1557 29.5314 11.4211 31.1326C9.72159 30.1233 8.3968 28.5882 7.64691 26.7594C6.89702 24.9305 6.76278 22.9073 7.26448 20.9954C7.62333 19.6199 8.30043 18.348 9.24116 17.2823C10.1819 16.2165 11.3599 15.3868 12.6803 14.86C14.0006 14.3332 15.4262 14.1241 16.8422 14.2495C18.2582 14.3749 19.625 14.8314 20.8321 15.5821C21.3553 13.9912 22.187 12.519 23.2796 11.2499C24.3722 9.98068 25.7042 8.93934 27.1996 8.1854C28.695 7.43147 30.3243 6.97972 31.9945 6.85602C33.6646 6.73231 35.3427 6.93906 36.9328 7.46445C39.242 8.23995 41.2823 9.65767 42.8145 11.5514C44.3466 13.4452 45.3072 15.7365 45.5835 18.1567C46.5709 18.0631 47.5669 18.1767 48.5079 18.4903C49.4488 18.8039 50.3139 19.3106 51.0477 19.9778C51.7815 20.6451 52.3678 21.4583 52.7692 22.3653C53.1705 23.2723 53.378 24.2531 53.3783 25.2449C53.3793 27.0224 52.7147 28.7357 51.5155 30.0476C50.3162 31.3595 48.6693 32.1749 46.8989 32.3332H41.6787V38.4874H47.1654L47.4344 38.4483C49.1647 38.2999 50.8489 37.812 52.3907 37.0125C53.9324 36.2131 55.3015 35.1176 56.4198 33.7889C57.5381 32.4601 58.3836 30.924 58.908 29.2684C59.4325 27.6128 59.6256 25.87 59.4763 24.1398C59.2003 21.023 57.8382 18.1023 55.6278 15.8877C54.1851 14.4335 52.4214 13.3381 50.4785 12.6895C49.1226 9.2336 46.7784 6.25383 43.7387 4.12257C40.699 1.99131 37.0987 0.800623 33.3875 0.703861ZM19.7881 30.6779C20.9268 30.6824 22.0174 31.1381 22.8208 31.9452C23.6242 32.7522 24.0749 33.8448 24.0743 34.9836C24.0759 35.5469 23.9661 36.105 23.7513 36.6258C23.5365 37.1465 23.2208 37.6197 22.8225 38.018C22.4241 38.4163 21.951 38.732 21.4302 38.9468C20.9095 39.1616 20.3514 39.2714 19.7881 39.2698C19.2246 39.2717 18.6662 39.1622 18.1452 38.9475C17.6241 38.7328 17.1507 38.4172 16.7521 38.0189C16.3535 37.6205 16.0376 37.1472 15.8227 36.6263C15.6077 36.1054 15.4978 35.5471 15.4994 34.9836C15.5014 33.847 15.9539 32.7576 16.7579 31.9541C17.5618 31.1506 18.6515 30.6987 19.7881 30.6974V30.6779Z" fill="#029894"/>
</svg>