<svg width="382" height="357" viewBox="0 0 382 357" fill="none" xmlns="http://www.w3.org/2000/svg">
<g clip-path="url(#clip0_304_11164)">
<path d="M122.251 351.51C123.203 354.132 125.957 355.754 130.546 356.367L209.919 309.374L218.427 300.625C218.911 300.125 218.41 299.297 217.747 299.521L202.091 304.784L122.251 351.51Z" fill="#E0E0E0"/>
<g filter="url(#filter0_f_304_11164)">
<path d="M331.728 179.894L291.119 156.057L82.237 278.453L115.902 298.219L65.7998 327.586L94.0508 344.142L261.619 245.937L240.32 233.453L331.728 179.894Z" fill="#4D4C4C" fill-opacity="0.69"/>
</g>
<path d="M311.143 273.484C294.978 264.011 268.766 264.011 252.601 273.484C247.901 276.236 244.57 279.488 242.606 282.948C241.187 285.441 240.481 288.038 240.481 290.635V301.695C240.481 307.907 244.518 314.119 252.601 318.855C268.766 328.328 294.978 328.328 311.143 318.855C319.225 314.119 323.263 307.907 323.271 301.704V290.618C323.263 284.415 319.217 278.212 311.143 273.484ZM308.814 288.633C312.647 290.877 315.401 293.456 316.99 296.165C315.367 298.909 312.545 301.514 308.814 303.697C301.692 307.873 292.122 310.167 281.864 310.167C271.614 310.167 262.044 307.873 254.921 303.697C251.088 301.445 248.326 298.874 246.745 296.157C248.369 293.413 251.19 290.816 254.921 288.625C262.044 284.449 271.614 282.154 281.872 282.154C292.122 282.163 301.692 284.458 308.814 288.633Z" fill="#73C7D2"/>
<path opacity="0.1" d="M291.315 325.317V309.494C288.272 309.934 285.11 310.167 281.872 310.167C281.243 310.167 280.614 310.159 279.985 310.141V325.93C283.784 326.033 287.592 325.826 291.315 325.317ZM301.65 306.984C299.916 307.596 298.097 308.123 296.219 308.563V324.454C298.071 324.057 299.89 323.574 301.65 323.014V306.984Z" fill="#73C7D2"/>
<path opacity="0.25" d="M240.481 290.678V301.695C240.481 307.907 244.518 314.119 252.601 318.855C252.907 319.036 253.23 319.209 253.545 319.381V308.321C253.23 308.148 252.916 307.967 252.601 307.786C244.544 303.067 240.498 296.872 240.481 290.678Z" fill="#73C7D2"/>
<path d="M308.814 277.564C301.692 273.389 292.122 271.085 281.864 271.085C271.614 271.085 262.044 273.389 254.922 277.564C251.097 279.807 248.224 282.482 246.626 285.303C244.587 288.892 244.68 292.645 246.745 296.165C248.369 293.421 251.19 290.825 254.922 288.633C262.044 284.458 271.614 282.163 281.872 282.163C292.122 282.163 301.692 284.458 308.814 288.633C312.647 290.876 315.401 293.456 316.99 296.165C317.033 296.096 317.075 296.027 317.109 295.967C320.73 289.608 317.628 282.732 308.814 277.564Z" fill="#73C7D2"/>
<path opacity="0.25" d="M308.814 277.564C301.692 273.389 292.122 271.085 281.864 271.085C271.614 271.085 262.044 273.389 254.922 277.564C251.097 279.807 248.224 282.482 246.626 285.303C244.587 288.892 244.68 292.645 246.745 296.165C248.369 293.421 251.19 290.825 254.922 288.633C262.044 284.458 271.614 282.163 281.872 282.163C292.122 282.163 301.692 284.458 308.814 288.633C312.647 290.876 315.401 293.456 316.99 296.165C317.033 296.096 317.075 296.027 317.109 295.967C320.73 289.608 317.628 282.732 308.814 277.564Z" fill="#73C7D2"/>
<path opacity="0.3" d="M308.806 282.706C301.683 278.531 292.113 276.227 281.855 276.227C271.605 276.227 262.035 278.531 254.913 282.706C251.088 284.949 248.216 287.624 246.618 290.445C246.108 291.342 245.734 292.248 245.487 293.163C245.751 294.172 246.176 295.173 246.754 296.156C248.334 298.874 251.097 301.445 254.93 303.697C262.052 307.872 271.622 310.167 281.872 310.167C292.122 310.167 301.692 307.864 308.822 303.697C312.554 301.514 315.375 298.908 316.999 296.165C317.041 296.096 317.084 296.027 317.118 295.966C317.628 295.061 318.01 294.155 318.248 293.232C317.245 289.436 314.032 285.769 308.806 282.706Z" fill="#73C7D2"/>
<path d="M311.143 273.475C294.978 264.002 268.767 264.002 252.601 273.475C236.436 282.948 236.436 298.313 252.601 307.786C268.767 317.259 294.978 317.259 311.143 307.786C327.308 298.313 327.308 282.956 311.143 273.475ZM281.872 271.094C292.122 271.094 301.701 273.397 308.823 277.573C317.628 282.732 320.739 289.608 317.118 295.975C317.084 296.044 317.042 296.113 316.999 296.174C315.376 298.917 312.554 301.523 308.823 303.705C301.701 307.881 292.131 310.176 281.872 310.176C271.622 310.176 262.052 307.881 254.93 303.705C251.097 301.454 248.335 298.883 246.754 296.165C244.689 292.645 244.595 288.892 246.635 285.303C248.241 282.482 251.106 279.808 254.93 277.564C262.044 273.389 271.614 271.094 281.872 271.094Z" fill="#73C7D2"/>
<path opacity="0.3" d="M311.143 273.475C294.978 264.002 268.767 264.002 252.601 273.475C236.436 282.948 236.436 298.313 252.601 307.786C268.767 317.259 294.978 317.259 311.143 307.786C327.308 298.313 327.308 282.956 311.143 273.475ZM281.872 271.094C292.122 271.094 301.701 273.397 308.823 277.573C317.628 282.732 320.739 289.608 317.118 295.975C317.084 296.044 317.042 296.113 316.999 296.174C315.376 298.917 312.554 301.523 308.823 303.705C301.701 307.881 292.131 310.176 281.872 310.176C271.622 310.176 262.052 307.881 254.93 303.705C251.097 301.454 248.335 298.883 246.754 296.165C244.689 292.645 244.595 288.892 246.635 285.303C248.241 282.482 251.106 279.808 254.93 277.564C262.044 273.389 271.614 271.094 281.872 271.094Z" fill="#73C7D2"/>
<path opacity="0.3" d="M278.813 314.826C272.914 314.489 267.041 313.48 261.44 311.608C258.644 310.65 255.916 309.494 253.349 308.028C250.774 306.587 248.36 304.835 246.261 302.748C244.187 300.651 242.403 298.192 241.442 295.371C240.456 292.567 240.354 289.461 241.187 286.606C241.995 283.733 243.643 281.153 245.666 278.996C247.672 276.796 250.077 275.011 252.61 273.466C250.052 274.959 247.604 276.702 245.547 278.876C243.49 281.033 241.808 283.629 240.966 286.537C240.099 289.436 240.184 292.602 241.17 295.466C242.131 298.348 243.932 300.858 246.023 302.998C248.165 305.103 250.613 306.846 253.213 308.286C255.814 309.744 258.568 310.892 261.372 311.832C264.194 312.755 267.075 313.454 269.991 313.963C272.906 314.438 275.855 314.722 278.813 314.826Z" fill="#73C7D2"/>
<path opacity="0.3" d="M317.118 295.967C317.857 294.69 318.384 293.275 318.579 291.791C318.775 290.307 318.613 288.789 318.163 287.357C317.712 285.924 316.939 284.622 316.055 283.422C315.18 282.215 314.109 281.171 312.987 280.196C310.709 278.289 308.159 276.745 305.491 275.511C302.822 274.252 300.026 273.294 297.179 272.552C294.331 271.801 291.425 271.301 288.501 271.008C285.577 270.714 282.637 270.602 279.696 270.688C273.823 270.87 267.95 271.784 262.349 273.682C259.562 274.648 256.842 275.874 254.301 277.409C251.768 278.953 249.38 280.826 247.519 283.215C246.584 284.406 245.819 285.743 245.309 287.201C244.824 288.659 244.62 290.229 244.816 291.765C244.901 292.533 245.079 293.292 245.326 294.008C245.572 294.733 245.887 295.44 246.269 296.096C247.017 297.425 247.969 298.607 249.031 299.668C251.156 301.782 253.663 303.429 256.281 304.784C258.907 306.121 261.669 307.2 264.491 308.002C267.321 308.804 270.203 309.365 273.109 309.71C276.016 310.064 278.94 310.21 281.863 310.167C276.024 310.038 270.186 309.287 264.619 307.553C261.831 306.716 259.12 305.612 256.553 304.258C253.995 302.886 251.556 301.229 249.541 299.159C248.53 298.124 247.637 296.976 246.958 295.716C246.269 294.465 245.776 293.094 245.623 291.679C245.453 290.264 245.64 288.832 246.099 287.477C246.575 286.131 247.298 284.88 248.19 283.75C249.975 281.49 252.295 279.678 254.76 278.186C257.241 276.693 259.91 275.52 262.647 274.579C268.129 272.69 273.925 271.758 279.722 271.551C285.526 271.353 291.357 271.896 297.009 273.259C299.83 273.95 302.601 274.855 305.253 276.055C307.913 277.237 310.437 278.729 312.706 280.558C313.828 281.481 314.899 282.482 315.783 283.647C316.676 284.794 317.457 286.054 317.933 287.443C318.409 288.823 318.605 290.316 318.443 291.774C318.299 293.24 317.814 294.664 317.118 295.967Z" fill="#73C7D2"/>
<path d="M252.763 313.549C252.771 311.643 251.463 309.33 249.848 308.373C249.04 307.898 248.309 307.847 247.782 308.148H247.774L233.657 316.327C233.657 316.327 233.648 316.327 233.648 316.336C233.122 316.646 232.79 317.311 232.79 318.26C232.782 320.166 234.09 322.479 235.705 323.436C236.513 323.919 237.252 323.962 237.779 323.652L251.896 315.473C252.423 315.171 252.754 314.507 252.763 313.549Z" fill="#263238"/>
<path d="M251.888 315.482C252.423 315.171 252.763 314.507 252.763 313.549C252.763 312.833 252.585 312.057 252.262 311.315L234.057 321.883C234.524 322.53 235.085 323.082 235.689 323.436C236.496 323.919 237.235 323.962 233.113 322.306L247.23 314.127L251.888 315.482Z" fill="#37474F"/>
<path d="M238.076 323.402C238.085 320.926 236.385 317.906 234.277 316.664C233.24 316.051 232.306 315.991 231.617 316.362V316.353L231.575 316.37L194.893 335.886L201.879 348.421L236.938 325.904C237.634 325.507 238.068 324.635 238.076 323.402Z" fill="#73C7D2"/>
<path opacity="0.1" d="M201.878 348.421L236.937 325.904C237.634 325.498 238.067 324.635 238.076 323.393C238.084 322.064 237.583 320.589 236.81 319.304L198.283 341.959L201.878 348.421Z" fill="#73C7D2"/>
<path d="M198.343 348.05C195.581 346.42 193.345 342.46 193.362 339.207C193.379 335.955 195.623 334.652 198.394 336.282C201.156 337.922 203.391 341.873 203.374 345.125C203.357 348.369 201.105 349.681 198.343 348.05Z" fill="#73C7D2"/>
<g opacity="0.2">
<path d="M198.343 348.05C195.581 346.42 193.345 342.46 193.362 339.207C193.379 335.955 195.623 334.652 198.394 336.282C201.156 337.922 203.391 341.873 203.374 345.125C203.357 348.369 201.105 349.681 198.343 348.05Z" fill="#73C7D2"/>
</g>
<path d="M202.687 298.874L216.625 296.105C217.033 296.027 217.305 296.51 217.033 296.829L207.582 307.7L202.687 298.874Z" fill="#FFA8A7"/>
<path d="M217.033 296.821C217.305 296.51 217.033 296.018 216.625 296.096L213.905 296.64C214.67 297.123 215.104 297.994 215.027 298.9L215.01 299.15L217.033 296.821Z" fill="#263238"/>
<path d="M141.655 346.057L142.793 345.393L144.17 344.599L207.573 307.7C208.092 306.164 207.837 304.482 207.183 303.007C206.197 300.764 204.276 298.986 202.687 298.883L139.309 335.773L136.683 337.301C138.442 336.403 143.405 345.134 141.655 346.057Z" fill="#455A64"/>
<path d="M145.997 343.547L148.538 342.063C149.286 341.657 148.861 339.785 147.977 337.844C146.813 335.264 144.527 332.771 143.532 333.314L141.654 334.41L140.991 334.816C141.986 334.281 144.28 336.774 145.436 339.345C146.278 341.2 146.703 343.012 146.065 343.503H146.057C146.048 343.521 146.031 343.529 145.997 343.547Z" fill="#EBEBEB"/>
<path d="M146.635 343.167C148.386 342.226 143.38 333.487 141.638 334.427L139.088 335.911C140.839 334.971 145.836 343.71 144.085 344.651L146.635 343.167Z" fill="#BA68C8"/>
<path d="M141.655 346.057L144.171 344.599C145.896 343.684 141.136 335.212 139.318 335.773C139.284 335.782 139.25 335.799 139.216 335.816L136.691 337.309C138.442 336.403 143.406 345.134 141.655 346.057Z" fill="#EBEBEB"/>
<path opacity="0.15" d="M217.093 296.346L216.626 296.105L206.512 301.721L140.27 340.294C140.176 340.139 140.091 340.122 140.023 340.234C141.511 342.589 142.633 345.548 141.655 346.066L142.794 345.402L144.171 344.608L207.574 307.709L217.025 296.838C217.161 296.674 217.161 296.493 217.093 296.346Z" fill="black"/>
<path d="M130.971 352.26L141.654 346.057C142.402 345.66 141.986 343.805 141.127 341.881C139.972 339.302 137.694 336.783 136.691 337.3C136.691 337.3 136.682 337.3 136.674 337.3L125.957 343.529C123.832 344.78 125.787 349.465 128.158 351.561C129.042 352.355 130.028 352.709 130.971 352.26Z" fill="#F28F8F"/>
<path opacity="0.1" d="M131.608 348.896C130.996 346.454 129.042 344.056 127.248 343.547C126.594 343.357 126.05 343.452 125.65 343.762C124.044 345.281 125.914 349.586 128.158 351.561C129.025 352.338 129.993 352.683 130.911 352.278C131.71 351.803 132.025 350.552 131.608 348.896Z" fill="black"/>
<path d="M322.863 148.654L173.228 236.395C160.165 244.073 149.405 241.39 143.608 230.597C147.399 230.286 151.555 228.88 155.975 226.283L305.601 138.543L322.863 148.654Z" fill="#BA68C8"/>
<path d="M322.863 148.654L173.228 236.395C160.165 244.073 149.405 241.39 143.608 230.597C147.399 230.286 151.555 228.88 155.975 226.283L305.601 138.543L322.863 148.654Z" fill="#73C7D2"/>
<path d="M328.778 160.284L322.863 178.867L180.376 262.424C163.93 272.069 148.87 272.707 137.319 265.961H137.311C137.294 265.944 137.285 265.935 137.268 265.935C137.251 265.926 137.234 265.918 137.217 265.909C137.132 265.857 137.047 265.806 136.962 265.754C125.777 259.024 117.933 245.29 115.392 226.042L130.707 228.777L139.996 219.908C140.039 220.141 140.081 220.382 140.132 220.615C140.923 224.454 142.096 227.793 143.6 230.589C143.609 230.589 143.609 230.589 143.609 230.589C149.405 241.381 160.165 244.065 173.228 236.386L322.863 148.646L328.778 160.284Z" fill="#BA68C8"/>
<path d="M328.778 160.284L322.863 178.867L180.376 262.424C163.93 272.069 148.87 272.707 137.319 265.961H137.311C137.294 265.944 137.285 265.935 137.268 265.935C137.251 265.926 137.234 265.918 137.217 265.909C137.132 265.857 137.047 265.806 136.962 265.754C125.777 259.024 117.933 245.29 115.392 226.042L130.707 228.777L139.996 219.908C140.039 220.141 140.081 220.382 140.132 220.615C140.923 224.454 142.096 227.793 143.6 230.589C143.609 230.589 143.609 230.589 143.609 230.589C149.405 241.381 160.165 244.065 173.228 236.386L322.863 148.646L328.778 160.284Z" fill="#61B1BB"/>
<path d="M136.962 265.754C134.727 264.451 122.446 257.238 120.066 255.849C108.686 249.198 100.697 235.377 98.1387 215.922L115.392 226.042C117.933 245.289 125.778 259.024 136.962 265.754Z" fill="#BA68C8"/>
<path d="M136.962 265.754C134.727 264.451 122.446 257.238 120.066 255.849C108.686 249.198 100.697 235.377 98.1387 215.922L115.392 226.042C117.933 245.289 125.778 259.024 136.962 265.754Z" fill="#73C7D2"/>
<path d="M139.997 219.908L122.744 209.788L113.454 218.657L98.1387 215.922L115.392 226.042L130.707 228.777L139.997 219.908Z" fill="#BA68C8"/>
<path opacity="0.2" d="M139.997 219.908L122.744 209.788L113.454 218.657L98.1387 215.922L115.392 226.042L130.707 228.777L139.997 219.908Z" fill="white"/>
<path d="M113.454 218.657L130.707 228.777L115.392 226.042L98.1387 215.922L113.454 218.657Z" fill="#BA68C8"/>
<path d="M114.509 211.936C114.509 216.923 114.815 221.642 115.393 226.068L98.1395 215.948C97.553 211.522 97.2471 206.803 97.2471 201.816C97.2471 182.37 105.211 158.981 118.665 137.827L135.926 147.947C122.472 169.11 114.509 192.481 114.509 211.936Z" fill="#BA68C8"/>
<path d="M114.509 211.936C114.509 216.923 114.815 221.642 115.393 226.068L98.1395 215.948C97.553 211.522 97.2471 206.803 97.2471 201.816C97.2471 182.37 105.211 158.981 118.665 137.827L135.926 147.947C122.472 169.11 114.509 192.481 114.509 211.936Z" fill="#73C7D2"/>
<path d="M139.998 219.908L130.708 228.777L115.393 226.042C114.815 221.616 114.509 216.897 114.509 211.91C114.509 192.455 122.472 169.084 135.926 147.921L142.173 162.527L155.891 163.416C147.783 175.917 142.046 189.453 139.938 201.868C138.927 207.838 138.859 213.963 139.998 219.908Z" fill="#BA68C8"/>
<path d="M139.998 219.908L130.708 228.777L115.393 226.042C114.815 221.616 114.509 216.897 114.509 211.91C114.509 192.455 122.472 169.084 135.926 147.921L142.173 162.527L155.891 163.416C147.783 175.917 142.046 189.453 139.938 201.868C138.927 207.838 138.859 213.963 139.998 219.908Z" fill="#61B1BB"/>
<path d="M138.629 153.296L155.89 163.416L142.173 162.527L138.221 153.296H138.629Z" fill="#BA68C8"/>
<path d="M139.998 219.908C137.414 222.669 133.547 226.473 130.836 229.182L130.649 229.148L122.983 227.854C120.756 227.483 117.586 226.844 115.333 226.439C109.503 223.048 103.758 219.451 98.0293 215.862C103.715 218.959 110.344 222.608 115.469 225.645C117.739 226.033 120.909 226.551 123.136 226.965L130.776 228.406L130.453 228.501C133.224 225.947 137.185 222.349 139.998 219.908Z" fill="#263238"/>
<path d="M198.53 123.73C182.076 131.52 166.828 146.523 155.89 163.416L142.173 162.527L135.926 147.921C151.012 124.17 173.024 103.214 198.462 93.741L192.623 112.091L198.53 123.73Z" fill="#61B1BB"/>
<path d="M198.462 93.7324V93.741C173.024 103.214 151.012 124.17 135.926 147.921L135.917 147.912L118.664 137.801C133.758 114.05 155.771 93.094 181.217 83.6211L198.462 93.7324Z" fill="#BA68C8"/>
<path d="M198.462 93.7324V93.741C173.024 103.214 151.012 124.17 135.926 147.921L135.917 147.912L118.664 137.801C133.758 114.05 155.771 93.094 181.217 83.6211L198.462 93.7324Z" fill="#73C7D2"/>
<path d="M155.89 163.416C151.929 163.364 146.167 163.079 142.147 162.907L141.926 162.898L141.833 162.682C139.963 158.472 137.277 152.286 135.56 148.076C130.852 145.548 124.01 141.097 118.664 137.801C124.528 140.967 130.342 144.237 136.121 147.567C136.249 147.636 136.232 147.628 136.291 147.757C138.144 151.89 140.779 158.144 142.521 162.38L142.207 162.156C146.218 162.467 151.929 162.976 155.89 163.416Z" fill="#263238"/>
<path d="M242.309 155.461L225.047 145.35C225.642 133.712 223.934 124.472 220.483 118.087C220.9 118.07 221.325 118.07 221.75 118.07C235.068 117.82 243.516 131.624 242.309 155.461Z" fill="#BA68C8"/>
<path d="M242.309 155.461L225.047 145.35C225.642 133.712 223.934 124.472 220.483 118.087C220.9 118.07 221.325 118.07 221.75 118.07C235.068 117.82 243.516 131.624 242.309 155.461Z" fill="#73C7D2"/>
<path d="M243.55 92.4901C238.706 89.7811 233.258 88.3662 227.359 88.3662C217.39 88.3662 207.701 90.2901 198.462 93.7324L181.218 83.6211C190.448 80.1788 200.128 78.2549 210.098 78.2549C216.395 78.2549 222.132 79.9372 227.257 82.9395C229.943 84.5097 240.329 90.6007 243.55 92.4901Z" fill="#BA68C8"/>
<path d="M243.55 92.4901C238.706 89.7811 233.258 88.3662 227.359 88.3662C217.39 88.3662 207.701 90.2901 198.462 93.7324L181.218 83.6211C190.448 80.1788 200.128 78.2549 210.098 78.2549C216.395 78.2549 222.132 79.9372 227.257 82.9395C229.943 84.5097 240.329 90.6007 243.55 92.4901Z" fill="#73C7D2"/>
<path d="M244.511 93.0509C244.494 93.0422 244.468 93.025 244.451 93.0164C244.443 93.0077 244.434 93.0077 244.417 92.9991C244.4 92.9819 244.375 92.9732 244.358 92.9646C244.358 92.9646 244.358 92.956 244.349 92.956C244.247 92.8956 244.145 92.8266 244.035 92.7748C244.027 92.7662 244.01 92.7575 244.001 92.7489C243.857 92.6626 243.704 92.5764 243.551 92.4901C238.706 89.7811 233.258 88.3662 227.36 88.3662C217.39 88.3662 207.701 90.2901 198.463 93.7324V93.7411L192.624 112.091L198.531 123.73C205.704 120.322 213.107 118.295 220.484 118.088C220.9 118.07 221.325 118.07 221.75 118.07C235.068 117.82 243.517 131.624 242.31 155.461H242.318L255.067 142.201L266.711 141.14C265.555 117.518 257.2 100.729 244.511 93.0509Z" fill="#BA68C8"/>
<path d="M244.511 93.0509C244.494 93.0422 244.468 93.025 244.451 93.0164C244.443 93.0077 244.434 93.0077 244.417 92.9991C244.4 92.9819 244.375 92.9732 244.358 92.9646C244.358 92.9646 244.358 92.956 244.349 92.956C244.247 92.8956 244.145 92.8266 244.035 92.7748C244.027 92.7662 244.01 92.7575 244.001 92.7489C243.857 92.6626 243.704 92.5764 243.551 92.4901C238.706 89.7811 233.258 88.3662 227.36 88.3662C217.39 88.3662 207.701 90.2901 198.463 93.7324V93.7411L192.624 112.091L198.531 123.73C205.704 120.322 213.107 118.295 220.484 118.088C220.9 118.07 221.325 118.07 221.75 118.07C235.068 117.82 243.517 131.624 242.31 155.461H242.318L255.067 142.201L266.711 141.14C265.555 117.518 257.2 100.729 244.511 93.0509Z" fill="#61B1BB"/>
<path d="M198.53 123.721C196.626 120.417 194.051 115.542 192.224 112.126C193.873 106.734 196.329 98.9002 198.088 93.6116L198.267 94.0861C192.538 90.6697 186.844 87.1928 181.209 83.6211C187.073 86.796 192.887 90.0571 198.666 93.3873L198.947 93.5512L198.853 93.8618C197.264 99.1072 194.723 106.941 192.989 112.204L192.963 111.91C194.629 115.353 196.983 120.279 198.53 123.721Z" fill="#263238"/>
<path d="M228.761 207.243L241.841 208.416L247.697 220.952L230.444 210.841L228.761 207.243Z" fill="#BA68C8"/>
<path opacity="0.4" d="M228.761 207.243L241.841 208.416L247.697 220.952L230.444 210.841L228.761 207.243Z" fill="black"/>
<path d="M242.309 155.461C242.3 155.763 242.283 156.065 242.266 156.367C241.272 172.906 235.883 191.075 227.962 207.165L210.709 197.054C218.63 180.964 224.019 162.795 225.004 146.256C225.021 145.954 225.038 145.652 225.047 145.35L242.309 155.461Z" fill="#73C7D2"/>
<path d="M266.854 146.894C266.854 171.413 259.536 197.908 247.697 220.952L241.841 208.416L227.962 207.165C235.883 191.075 241.271 172.906 242.266 156.367C242.283 156.065 242.3 155.763 242.308 155.461H242.317L255.065 142.201L266.709 141.14C266.803 143.012 266.854 144.936 266.854 146.894Z" fill="#BA68C8"/>
<path d="M266.854 146.894C266.854 171.413 259.536 197.908 247.697 220.952L241.841 208.416L227.962 207.165C235.883 191.075 241.271 172.906 242.266 156.367C242.283 156.065 242.3 155.763 242.308 155.461H242.317L255.065 142.201L266.709 141.14C266.803 143.012 266.854 144.936 266.854 146.894Z" fill="#61B1BB"/>
<path d="M225.005 145.324C230.912 148.456 236.742 151.743 242.522 155.099L242.012 155.168L245.173 151.829C248.165 148.767 251.811 144.971 254.837 141.986L254.922 141.899L255.032 141.891C258.925 141.606 262.809 141.338 266.71 141.149C263.191 141.546 258.032 142.365 255.287 142.434C252.423 145.575 248.76 149.379 245.819 152.476L242.607 155.772L242.377 156.014C236.538 152.545 230.725 149.008 225.005 145.324Z" fill="#263238"/>
<path d="M227.963 207.165C219.804 223.73 208.942 238.094 197.392 246.247C196.261 247.041 195.148 247.765 194.043 248.421L176.79 238.301C177.886 237.654 179.008 236.929 180.139 236.127C191.689 227.983 202.542 213.618 210.71 197.054L227.963 207.165Z" fill="#BA68C8"/>
<path d="M227.963 207.165C219.804 223.73 208.942 238.094 197.392 246.247C196.261 247.041 195.148 247.765 194.043 248.421L176.79 238.301C177.886 237.654 179.008 236.929 180.139 236.127C191.689 227.983 202.542 213.618 210.71 197.054L227.963 207.165Z" fill="#73C7D2"/>
<path d="M247.698 220.952C235.773 244.151 219.268 263.856 201.038 274.545L194.043 278.643L199.958 260.059L194.043 248.421C195.148 247.765 196.261 247.041 197.392 246.247C208.942 238.094 219.804 223.73 227.963 207.165L241.842 208.416L247.698 220.952Z" fill="#BA68C8"/>
<path d="M247.698 220.952C235.773 244.151 219.268 263.856 201.038 274.545L194.043 278.643L199.958 260.059L194.043 248.421C195.148 247.765 196.261 247.041 197.392 246.247C208.942 238.094 219.804 223.73 227.963 207.165L241.842 208.416L247.698 220.952Z" fill="#61B1BB"/>
<path d="M176.79 238.301L194.043 248.421L199.959 260.06L194.043 278.643L176.79 268.523L182.705 249.94L176.79 238.301Z" fill="#BA68C8"/>
<path opacity="0.4" d="M176.79 238.301L194.043 248.421L199.959 260.06L194.043 278.643L176.79 268.523L182.705 249.94L176.79 238.301Z" fill="black"/>
<path opacity="0.2" d="M176.79 238.301L194.043 248.421L199.959 260.06L182.705 249.94L176.79 238.301Z" fill="black"/>
<path d="M210.71 197.054C216.319 200.056 223.153 203.783 228.006 206.742C232.502 207.096 237.593 207.596 242.055 208.123L242.123 208.287L244.936 214.602C245.854 216.715 246.789 218.821 247.681 220.952C246.627 218.898 245.616 216.836 244.579 214.774L241.545 208.563L241.8 208.744C237.389 208.468 232.323 208.045 227.912 207.596C222.099 204.283 216.379 200.669 210.71 197.054Z" fill="#263238"/>
<path d="M194.042 248.421L94.0165 307.044L76.7549 296.924L176.789 238.301L194.042 248.421Z" fill="#BA68C8"/>
<path d="M194.042 248.421L94.0165 307.044L76.7549 296.924L176.789 238.301L194.042 248.421Z" fill="#73C7D2"/>
<path d="M199.958 260.059L194.042 278.643L94.0166 337.257L99.932 318.682L94.0166 307.044L194.042 248.421L199.958 260.059Z" fill="#BA68C8"/>
<path d="M199.958 260.059L194.042 278.643L94.0166 337.257L99.932 318.682L94.0166 307.044L194.042 248.421L199.958 260.059Z" fill="#61B1BB"/>
<path d="M76.7634 296.933L82.6702 308.571L76.7549 327.155L94.0165 337.266L99.9319 318.691L94.0165 307.044L76.7634 296.933Z" fill="#BA68C8"/>
<path d="M76.7634 296.933L82.6702 308.571L76.7549 327.155L94.0165 337.266L99.9319 318.691L94.0165 307.044L76.7634 296.933Z" fill="#73C7D2"/>
<path opacity="0.2" d="M76.7637 296.933L94.0168 307.044L99.9322 318.691L82.6705 308.571L76.7637 296.933Z" fill="black"/>
<path d="M194.042 278.643C195.785 272.371 197.646 266.142 199.592 259.939L199.618 260.241C198.113 257.359 195.147 251.518 193.702 248.602L193.855 248.766L189.555 246.212C185.416 243.693 180.852 240.915 176.789 238.31C181.039 240.562 185.696 243.21 189.912 245.583L194.238 248.085L194.331 248.145L194.382 248.249L197.365 254.055L200.289 259.895L200.366 260.042C198.36 266.263 196.26 272.474 194.042 278.643Z" fill="#263238"/>
<path d="M212.112 114.24C212.112 114.24 207.948 122.185 207.327 125.429C206.681 128.803 205.695 129.821 205.763 133.599C205.78 134.419 205.984 136.093 205.993 136.757C206.01 137.352 205.721 137.792 204.947 137.844C203.418 137.956 201.335 134.859 200.579 131.684C199.822 128.509 199.1 121.487 199.108 120.658C199.117 119.856 199.516 118.916 199.907 118.338C200.596 117.328 200.757 117.199 200.757 117.199C201.454 115.784 202.075 112.997 202.763 111.108L212.112 114.24Z" fill="#FFBDA7"/>
<path d="M195.776 123.376C195.776 123.376 195.309 124.006 195.224 124.437C195.097 125.11 196.329 127.552 196.822 128.44C197.315 129.338 197.765 130.433 197.4 132.452C197.009 134.609 197.689 136.826 198.853 138.811C200.018 140.786 202.193 143.073 205.644 144.651C209.095 146.23 210.616 144.608 210.616 144.608C210.616 144.608 211.976 143.029 211.398 142.227C210.82 141.433 195.776 123.376 195.776 123.376Z" fill="#263238"/>
<path d="M200.757 117.208C200.646 117.19 200.459 117.13 200.128 117.432C200 117.544 199.125 119.071 198.462 119.839C197.757 120.667 196.15 122.03 195.776 123.376C196.244 126.146 198.496 128.32 198.522 130.882C198.556 133.436 198.19 136.352 201.641 139.932C205.091 143.512 209.035 144.358 210.582 143.737C212.129 143.116 212.205 141.571 210.607 138.405C208.916 135.04 208.406 128.173 208.406 128.173C208.338 127.224 208.372 126.232 208.423 125.283C208.474 124.36 208.882 123.419 209.077 122.505C209.171 122.073 209.256 121.608 209.069 121.211C208.89 120.805 208.483 120.564 208.1 120.339C207.488 119.977 206.876 119.623 206.205 119.408C205.533 119.192 204.785 119.131 204.122 119.382C203.647 119.563 203.222 119.891 202.729 120.029C202.066 120.201 201.309 119.96 200.876 119.442C200.23 118.666 200.425 118.07 200.604 117.639C200.604 117.604 200.757 117.208 200.757 117.208Z" fill="#37474F"/>
<path d="M199.72 137.171C199.72 137.171 201.641 134.333 205.754 134.894C209.868 135.454 211.007 137.723 211.465 139.035C212.009 140.588 212.417 143.34 210.616 143.866C208.669 144.444 206.578 143.909 203.468 141.796C200.357 139.699 199.72 137.171 199.72 137.171Z" fill="#FAFAFA"/>
<path d="M202.176 124.955C202.286 125.024 202.422 125.05 202.55 125.007C203.23 124.765 206.689 124.515 208.397 126.586C208.678 126.413 208.678 126.042 208.423 125.473C206.332 123.721 203.06 123.946 202.235 124.23C202.023 124.308 201.913 124.541 201.998 124.757C202.04 124.834 202.1 124.903 202.176 124.955Z" fill="#FAFAFA"/>
<path d="M208.49 129.019C208.677 128.673 208.584 128.095 208.405 127.862C206.315 126.344 203.272 126.56 202.482 126.836C202.269 126.913 202.159 127.146 202.244 127.362C202.278 127.448 202.337 127.517 202.414 127.569C202.524 127.638 202.66 127.664 202.788 127.621C203.459 127.379 206.74 127.138 208.49 129.019Z" fill="#FAFAFA"/>
<path d="M209.409 134.764C209.494 134.264 209.383 133.746 209.086 133.211C206.987 131.538 203.791 131.762 202.984 132.047C202.771 132.124 202.661 132.357 202.746 132.573C202.78 132.659 202.839 132.728 202.916 132.78C203.026 132.849 203.162 132.875 203.289 132.832C204.012 132.573 207.828 132.305 209.409 134.764Z" fill="#FAFAFA"/>
<path d="M202.669 130.166C202.78 130.235 202.916 130.261 203.043 130.218C203.715 129.985 207.106 129.735 208.831 131.728C208.975 131.357 208.924 130.942 208.653 130.468C206.562 128.949 203.519 129.165 202.729 129.441C202.516 129.519 202.406 129.752 202.491 129.968C202.533 130.054 202.593 130.123 202.669 130.166Z" fill="#FAFAFA"/>
<path d="M212.766 122.401C212.766 122.401 213.072 130.925 213.727 136.904C214.202 141.252 217.551 143.046 220.39 145.781C221.01 146.377 222.396 147.464 222.897 147.938C223.348 148.37 223.458 148.904 222.923 149.508C221.86 150.716 217.007 151.441 214.101 149.655C211.194 147.878 208.338 143.763 206.579 142.27C205.916 141.709 205.287 141.131 204.684 140.519C204.097 139.923 204.191 139.294 204.089 138.577C204.038 138.232 203.715 136.472 203.715 136.472C203.196 134.799 201.862 130.494 201.275 128.561L212.766 122.401Z" fill="#FFBDA7"/>
<path d="M203.366 144.582C203.366 144.582 203.358 145.385 203.545 145.79C203.842 146.429 206.332 147.697 207.276 148.145C208.219 148.585 209.256 149.224 210.166 151.113C211.134 153.132 213.03 154.556 215.189 155.496C217.347 156.436 220.526 157.014 224.351 156.255C228.175 155.496 228.09 153.218 228.09 153.218C228.09 153.218 228.218 151.087 227.257 150.777C226.305 150.458 203.366 144.582 203.366 144.582Z" fill="#263238"/>
<path d="M203.706 136.49C203.604 136.542 203.527 136.611 203.425 137.059C203.391 137.232 203.57 139.018 203.485 140.053C203.391 141.166 202.873 143.254 203.366 144.591C205.414 146.592 208.601 147.05 210.157 149.146C211.712 151.243 213.165 153.865 218.188 154.754C223.211 155.643 226.619 154.288 227.529 152.847C228.447 151.406 227.112 150.035 224.444 148.197C221.265 146.006 216.769 140.976 216.76 140.967C216.378 140.51 216.021 140.027 215.681 139.535C215.069 138.647 214.831 137.491 214.84 136.412C214.84 135.912 214.763 135.489 214.253 135.282C214.015 135.187 213.743 135.17 213.488 135.161C212.307 135.135 211.126 135.316 209.995 135.67C209.443 135.843 208.899 136.067 208.38 136.334C207.972 136.542 207.369 136.766 207.157 137.197C207.063 137.387 207.072 137.611 207.089 137.827C207.148 138.517 207.259 139.207 207.437 139.872C207.462 139.967 207.488 140.079 207.437 140.165C207.267 140.493 206.222 139.087 206.077 138.914C205.763 138.534 205.38 138.163 204.896 138.025C204.462 137.896 204.122 137.654 203.952 137.189C203.952 137.18 203.706 136.49 203.706 136.49Z" fill="#37474F"/>
<path d="M214.933 153.624C214.933 153.624 214.831 150.13 218.596 148.128C222.361 146.126 223.95 147.567 225.115 148.37C226.5 149.327 228.897 151.286 227.716 152.804C226.441 154.452 224.69 155.082 220.831 155.202C216.973 155.332 214.933 153.624 214.933 153.624Z" fill="#FAFAFA"/>
<path d="M209.638 142.054C209.774 142.046 209.902 141.985 209.978 141.865C210.403 141.261 213.131 138.974 215.8 139.656C215.936 139.345 215.706 139.035 215.154 138.724C212.358 138.534 209.766 140.683 209.256 141.407C209.12 141.597 209.171 141.856 209.375 141.977C209.46 142.037 209.553 142.054 209.638 142.054Z" fill="#FAFAFA"/>
<path d="M217.347 141.623C217.304 141.226 216.871 140.803 216.582 140.717C213.93 140.717 211.525 142.719 211.032 143.417C210.896 143.607 210.947 143.866 211.151 143.987C211.227 144.039 211.321 144.056 211.414 144.056C211.55 144.047 211.678 143.987 211.754 143.866C212.162 143.288 214.755 141.123 217.347 141.623Z" fill="#FAFAFA"/>
<path d="M221.553 145.824C221.324 145.359 220.924 144.996 220.355 144.737C217.61 144.617 215.077 146.713 214.567 147.429C214.431 147.619 214.482 147.878 214.686 147.999C214.763 148.05 214.856 148.068 214.95 148.068C215.086 148.059 215.213 147.999 215.29 147.878C215.74 147.248 218.757 144.737 221.553 145.824Z" fill="#FAFAFA"/>
<path d="M213.182 146.066C213.318 146.058 213.445 145.997 213.522 145.876C213.938 145.281 216.616 143.047 219.25 143.651C219.148 143.262 218.851 142.943 218.349 142.719C215.689 142.719 213.292 144.72 212.8 145.419C212.664 145.609 212.715 145.868 212.919 145.989C213.004 146.049 213.088 146.066 213.182 146.066Z" fill="#FAFAFA"/>
<path d="M197.076 68.2988C197.076 68.2988 212.298 77.6682 219.327 85.9073C221.843 88.8579 223.372 91.4029 220.185 98.5119C217.729 103.982 214.04 111.349 210.216 118.398L179.075 75.7442L197.076 68.2988Z" fill="#455A64"/>
<path d="M210.216 118.398L190.881 83.207C190.881 83.207 191.612 83.1294 191.62 83.1294C195.691 81.5851 197.612 76.2102 197.612 76.2102C197.978 78.4188 196.924 81.4815 195.504 83.0776C197.655 84.8721 202.525 88.9356 209.987 95.294C211.287 96.3983 213.735 98.4947 213.539 102.343C213.267 107.795 212.732 113.679 212.732 113.679L210.216 118.398Z" fill="#37474F"/>
<path d="M197.102 68.2988L164.355 71.4392C164.143 75.3992 164.899 82.025 167.602 86.6493C169.556 90.0053 171.809 92.1018 179.866 96.9848C187.371 101.54 194.102 105.362 195.819 106.432C197.111 107.234 196.89 110.858 197.399 114.421C198.428 121.651 202.116 132.573 202.116 132.573C202.116 132.573 208.04 134.229 213.301 130.45C213.301 130.45 212.834 114.343 212.468 109.02C212.035 102.636 212.162 101.057 209.222 97.8131C206.706 95.0264 191.612 83.1293 191.612 83.1293C191.612 83.1293 199.482 75.8305 197.102 68.2988Z" fill="#455A64"/>
<path d="M168.664 71.025C168.545 76.4602 169.064 80.6186 172.693 84.8288C175.234 83.2845 174.818 81.697 174.053 78.8672C173.823 78.0131 173.56 77.0469 173.356 75.9512C172.939 73.734 172.795 71.9826 172.803 70.6281L172.931 70.6195L173.262 70.585C173.254 71.9136 173.39 73.6477 173.806 75.8649C174.01 76.9347 174.265 77.8923 174.495 78.7465C175.259 81.5762 175.761 83.4743 173.007 85.1825C173.84 86.1056 174.826 87.0287 175.99 87.9778C181.506 92.4554 189.351 97.7871 194.042 100.971C195.683 102.084 196.975 102.964 197.638 103.447C200.349 105.414 200.502 107.001 200.306 111.789C200.06 117.785 203.094 126.818 204.496 132.926C204.335 132.918 204.182 132.909 204.029 132.892C202.593 126.68 199.473 117.518 199.856 111.755C200.17 106.915 199.813 105.586 197.374 103.818C196.711 103.334 195.419 102.463 193.787 101.35C189.096 98.1581 181.243 92.8263 175.71 88.3401C168.928 82.8445 168.078 77.97 168.222 71.0854L168.664 71.025Z" fill="#37474F"/>
<path d="M222.234 46.394C221.053 47.3085 219.829 48.7406 217.823 50.3625C215.817 51.9845 212.766 54.8315 209.851 56.5225C206.927 58.2221 205.508 58.895 201.964 55.0645C197.476 50.1986 193.091 43.4089 193.091 43.4089L193.354 29.4412C196.371 30.4161 198.08 32.0811 199.916 35.0144C203.366 40.5446 205.703 44.1077 207.701 47.2998C207.701 47.2998 216.259 42.3563 217.373 41.5713C218.486 40.7862 218.979 39.7164 219.141 39.1383C219.336 38.405 219.71 37.4819 220.033 36.7054C220.381 35.8599 220.517 35.5407 220.934 34.4795C221.342 33.4184 221.665 31.6325 221.792 31.2443C222.039 30.7957 222.702 30.8474 223.246 31.9431C223.586 32.6247 223.509 33.5133 223.475 34.0999C223.433 34.7556 223.237 35.5407 223.424 35.6529C223.62 35.765 224.537 35.2905 225.455 35.0835C226.373 34.8678 227.189 34.4796 228.209 34.7988C229.22 35.118 229.161 36.0842 229.025 36.4207C228.88 36.7831 228.473 37.0419 228.473 37.0419C228.473 37.0419 229.008 36.9642 229.45 37.3611C229.892 37.758 229.866 38.7932 229.458 39.1728C229.458 39.1728 230.113 39.1642 230.232 39.8889C230.334 40.5015 230.266 41.1054 229.662 41.3383C229.662 41.3383 230.155 41.4591 230.189 41.7611C230.223 42.063 230.215 42.7618 229.713 43.1069C229.212 43.4434 227.988 43.5038 227.988 43.5038C227.988 43.5038 227.895 43.7195 227.317 44.0214C227.113 44.125 226.254 44.7116 225.387 45.0567C224.631 45.3414 223.178 45.6693 222.234 46.394Z" fill="#FFBDA7"/>
<path d="M207.701 47.3C206.435 48.0764 205.143 49.6811 204.752 51.7603C204.514 49.129 205.993 47.5243 207.319 46.696L207.701 47.3Z" fill="#F0997A"/>
<path d="M186.538 29.2255C193.592 27.8279 196.567 30.7784 197.825 32.0984C199.074 33.4098 201.301 37.1368 202.635 39.2074C203.97 41.2779 205.389 43.4607 205.389 43.4607C205.389 43.4607 205.381 48.7579 198.751 51.4928L192.87 43.5642L186.538 29.2255Z" fill="#776DEF"/>
<path d="M226.637 42.0803C226.934 42.0631 227.172 41.9164 227.402 41.8387C227.64 41.7611 227.895 41.7093 228.141 41.6576C228.651 41.554 229.161 41.4591 229.671 41.3384C229.153 41.3642 228.634 41.416 228.116 41.485C227.861 41.5195 227.597 41.5627 227.342 41.6403C227.079 41.7266 226.858 41.8474 226.628 41.856C226.408 41.8733 226.161 41.7697 225.932 41.6662C225.702 41.554 225.456 41.4505 225.32 41.278C225.26 41.1917 225.209 41.0537 225.184 40.9501C225.158 40.838 225.184 40.7258 225.252 40.6309C225.354 40.4843 225.524 40.398 225.702 40.3462C225.881 40.398 226.059 40.4411 226.246 40.4584C226.561 40.4584 226.841 40.3548 227.113 40.2513C227.385 40.1392 227.648 40.0356 227.912 39.9148C228.439 39.6819 228.957 39.4403 229.476 39.1729C228.923 39.3454 228.388 39.5439 227.844 39.7423C227.308 39.9321 226.773 40.2168 226.246 40.2254C225.991 40.2341 225.711 40.1305 225.456 40.0356C225.201 39.9321 224.971 39.7768 224.733 39.6129C224.512 39.4662 224.351 39.216 224.393 38.94C224.41 38.7847 224.495 38.6466 224.614 38.5517C224.682 38.5431 224.742 38.5258 224.81 38.5172C225.133 38.4654 225.464 38.4568 225.804 38.4137C226.144 38.3705 226.475 38.267 226.781 38.129C227.393 37.827 227.971 37.4992 228.49 37.0592C228.218 37.2576 227.92 37.4043 227.623 37.5509C227.325 37.6976 227.028 37.8529 226.722 37.9737C226.416 38.0945 226.102 38.1807 225.779 38.2153C225.456 38.2498 225.124 38.2584 224.784 38.3015C224.614 38.3274 224.444 38.3619 224.3 38.3792C224.138 38.4051 224.087 38.3619 224.011 38.2153C223.892 37.9651 224.028 37.6372 224.215 37.387C224.597 36.8694 225.209 36.5502 225.838 36.3604L225.864 36.3517L225.872 36.3259C225.915 36.1878 226 36.0584 226.093 35.9376C226.187 35.8168 226.289 35.7047 226.408 35.5925C226.28 35.6874 226.161 35.7823 226.059 35.9031C225.957 36.0153 225.872 36.1274 225.804 36.2741C225.158 36.4208 224.495 36.7055 224.07 37.2662C223.96 37.4043 223.875 37.5596 223.815 37.7407C223.756 37.9133 223.747 38.129 223.832 38.3188C223.875 38.4051 223.926 38.4913 224.028 38.5603C224.045 38.569 224.053 38.569 224.07 38.5776C224.334 39.3109 224.444 40.7344 223.807 41.718C223.059 42.8654 222.294 43.1674 222.294 43.1674C222.294 43.1674 223.28 42.8654 224.019 42.0372C224.759 41.209 224.886 40.5792 224.886 40.5792L225.073 40.8552C225.065 40.8984 225.065 40.9501 225.073 40.9933C225.099 41.1399 225.133 41.2607 225.209 41.3988C225.388 41.6662 225.651 41.7525 225.881 41.8819C226.034 41.9509 226.187 42.0286 226.365 42.0717C226.323 42.1321 226.297 42.2011 226.289 42.2787C226.289 42.3995 226.323 42.5203 226.374 42.6238C226.493 42.8309 226.637 42.9689 226.798 43.1329C226.883 43.2019 226.968 43.2709 227.062 43.3313C227.155 43.4003 227.283 43.4521 227.385 43.4607C227.597 43.5038 227.81 43.5297 228.031 43.5211L227.436 43.2968C227.334 43.2536 227.257 43.2278 227.181 43.1587C227.104 43.0983 227.028 43.0293 226.951 42.9603C226.798 42.8309 226.645 42.667 226.527 42.5203C226.433 42.3995 226.374 42.2356 226.408 42.0717C226.45 42.0717 226.544 42.0889 226.637 42.0803ZM224.504 38.5603C224.504 38.5517 224.504 38.5517 224.504 38.5603V38.5603Z" fill="#F0997A"/>
<path d="M163.642 51.8292C163.599 52.4849 163.582 53.1837 163.574 53.9084C163.574 53.1751 163.599 52.4762 163.642 51.8292C163.599 52.5711 163.582 53.3735 163.582 54.2103C163.582 54.1586 163.582 54.1068 163.582 54.055C163.582 53.6323 163.591 53.2096 163.608 52.7868C163.608 52.7092 163.616 52.6402 163.616 52.5625C163.625 52.3123 163.625 52.0707 163.642 51.8292C163.65 51.5617 163.676 51.2943 163.693 51.0182C163.693 50.9923 163.693 50.9664 163.701 50.9492C163.718 50.7249 163.727 50.5006 163.744 50.2676C163.744 50.2072 163.752 50.1468 163.752 50.0865C163.752 50.0433 163.761 50.0002 163.761 49.9657C163.769 49.888 163.778 49.8018 163.786 49.7241C163.88 48.6284 163.99 47.55 164.16 46.5233C164.695 42.1234 164.61 36.9383 168.52 34.2897C171.605 32.9956 174.359 32.0035 178.719 30.3211C183.079 28.6388 186.079 29.0961 188.833 29.5792C190.728 29.6827 192.632 30.3902 194.094 31.6584C198.411 35.6183 198.989 42.063 199.023 47.619L199.185 58.9726C199.329 62.691 198.989 66.5992 200.511 70.0588C200.536 70.1796 200.604 70.3004 200.494 70.4471C200.511 70.5247 200.528 70.5937 200.528 70.5937C199.006 73.9411 195.955 76.4948 192.785 78.1772C186.445 81.6454 171.886 84.1214 165.188 81.3003C164.33 76.469 164.305 71.4565 164.033 66.5475C163.871 62.2338 163.336 56.0825 163.642 51.8292Z" fill="#FAFAFA"/>
<path d="M184.974 30.2089C186.258 30.2348 187.448 30.4246 188.655 30.6317L188.714 30.6403H188.774C190.516 30.7352 192.156 31.3822 193.38 32.4434C197.349 36.0842 197.919 42.1492 197.961 47.619L198.123 58.9985C198.157 59.7577 198.165 60.5341 198.174 61.302C198.208 64.2439 198.242 67.2721 199.389 70.1192L199.346 70.1709L199.406 70.447C198.114 73.0525 195.598 75.4422 192.275 77.2109C187.745 79.6869 179.017 81.5418 172.404 81.4296C169.897 81.3865 167.747 81.0673 166.14 80.4979C165.58 77.0469 165.418 73.4407 165.265 69.938C165.214 68.7819 165.163 67.6258 165.095 66.4957C165.053 65.2792 164.976 63.9074 164.9 62.4839C164.755 59.7491 164.594 56.7381 164.619 54.1413H164.653V54.0636V54.055C164.653 53.6409 164.662 53.2268 164.679 52.8126V52.7005V52.5883L164.687 52.3468C164.696 52.1915 164.696 52.0276 164.704 51.8723C164.713 51.7083 164.721 51.5444 164.73 51.3805L164.755 51.0095C164.772 50.7852 164.781 50.5609 164.798 50.328L164.806 50.1727L164.815 50.0519L164.823 49.9397L164.84 49.8017C164.942 48.5593 165.061 47.5672 165.206 46.6441C165.282 46.0143 165.35 45.3758 165.41 44.7202C165.775 41.0449 166.149 37.2489 169.022 35.2301C171.07 34.3759 172.965 33.6512 175.345 32.7454C176.475 32.314 177.699 31.8481 179.093 31.3132C181.158 30.5281 183.028 30.1744 184.974 30.2089ZM184.991 29.1305C183.198 29.096 181.175 29.3721 178.719 30.3211C174.359 32.0034 171.605 32.9869 168.52 34.2897C164.602 36.9469 164.687 42.1233 164.16 46.5233C163.999 47.5499 163.88 48.637 163.786 49.724C163.778 49.8017 163.769 49.888 163.761 49.9656C163.761 50.0087 163.752 50.0519 163.752 50.0864C163.744 50.1468 163.744 50.2072 163.744 50.2676C163.727 50.4919 163.71 50.7162 163.701 50.9491C163.701 50.975 163.701 51.0009 163.693 51.0182C163.676 51.2856 163.65 51.553 163.642 51.8291C163.633 52.0707 163.625 52.3123 163.616 52.5625C163.616 52.6401 163.608 52.7091 163.608 52.7868C163.599 53.2095 163.591 53.6322 163.582 54.055C163.582 54.1068 163.582 54.1585 163.582 54.2103C163.582 53.3821 163.599 52.5711 163.642 51.8291C163.336 56.0824 163.88 62.2337 164.024 66.5474C164.305 71.4564 164.33 76.4689 165.18 81.3002C167.075 82.094 169.591 82.4736 172.379 82.5167C179.45 82.6375 188.23 80.6618 192.777 78.1685C195.947 76.4775 198.998 73.9325 200.519 70.585C200.519 70.585 200.502 70.516 200.485 70.4384C200.596 70.2917 200.528 70.1709 200.502 70.0501C198.981 66.5819 199.321 62.6824 199.176 58.964L199.015 47.6103C198.981 42.0457 198.403 35.601 194.085 31.6497C192.624 30.3815 190.728 29.674 188.825 29.5705C187.626 29.3548 186.377 29.1478 184.991 29.1305Z" fill="#E0E0E0"/>
<path d="M175.812 27.8711C175.413 25.2829 172.48 21.9355 171.367 19.6751C170.296 17.4924 169.659 15.8014 169.812 13.7653C169.897 12.5575 170.67 10.9269 171.554 10.5991C170.585 6.0956 173.934 4.05953 175.701 3.65405C176.381 3.49876 177.495 3.25719 178.149 2.99837C179.11 2.60151 179.339 1.82504 180.121 1.16936C181.464 0.0391785 183.708 0.0391784 184.541 1.79054C185.441 0.643095 186.64 0.686232 188.025 1.05721C189.343 1.41093 189.954 2.55837 189.81 3.80071C191.68 2.77406 193.363 4.11993 193.524 5.23286C193.643 6.05246 193.456 6.73402 193.975 7.47598C194.561 8.3042 195.674 8.3042 196.023 7.64852C196.201 8.81322 195.742 9.69321 194.501 9.60694C194.918 10.2367 195.02 11.065 194.799 11.8242C194.493 12.8508 193.465 13.4461 192.64 13.4547C192.504 14.0932 192.47 14.6712 192.071 15.2147C191.688 15.741 191.187 16.2586 190.592 16.5347C188.705 17.4233 186.623 17.6908 184.6 18.0876C183.801 18.2429 182.994 18.4069 182.195 18.5622C182.059 18.588 181.328 18.6225 181.243 18.752C181.226 18.7347 175.812 27.8711 175.812 27.8711Z" fill="#263238"/>
<path d="M172.327 23.8679C174.103 24.9722 175.667 23.1864 175.667 23.1864L175.191 32.5384C176.679 35.8168 182.603 38.0772 186.206 36.7572C188.518 35.9117 187.575 34.0396 186.189 32.3141L186.274 29.8812C186.274 29.8812 187.362 29.933 188.56 29.7777C190.558 29.5275 192.079 27.9055 192.674 25.7228C193.294 23.4452 193.481 19.7958 193.022 17.0437C192.903 16.3449 192.861 15.6288 192.937 14.9213C193.15 13.0406 192.835 11.9449 192.377 10.3575C190.209 8.53709 185.144 7.86415 180.376 10.7198C180.886 13.5841 179.764 15.8358 177.707 16.897C177.792 17.6735 177.86 19.6233 176.619 19.5715C175.718 19.537 175.676 18.3896 174.766 17.3629C173.84 16.319 171.698 16.0429 170.848 17.5182C169.641 19.5801 170.389 22.6601 172.327 23.8679Z" fill="#FFBDA7"/>
<path d="M180.376 15.4216L174.367 17.0091C174.367 17.0091 174.75 17.1902 175.217 18.0012L180.453 16.8365L180.376 15.4216Z" fill="#263238"/>
<path d="M194.162 14.5503C192.802 14.4295 190.966 14.4468 189.878 14.8609C188.654 15.3354 188.238 15.8185 187.549 15.8617C186.81 15.8962 186.317 15.4562 184.974 15.1197C183.903 14.8522 182.135 14.9817 180.793 15.206C180.317 15.2405 179.909 15.4044 179.917 16.0601C179.985 16.6813 180.368 16.7675 180.478 17.2679C180.75 19.1659 181.243 21.5471 183.733 21.3228C187.702 21.1244 186.138 16.8883 187.745 16.9918C188.34 17.1126 188.331 18.3205 188.748 19.1832C188.935 19.5714 189.181 19.9597 189.513 20.2616C191.059 21.6592 193.677 20.6412 193.915 19.0279C194.128 18.3463 194.145 17.1644 194.23 16.5346C194.332 16.0773 194.655 15.9134 194.646 15.2922C194.646 14.904 194.383 14.5675 194.162 14.5503ZM186.096 18.4326C186.036 18.795 185.9 19.3299 185.544 19.7785C184.626 21.064 181.957 20.9 181.506 19.2091C181.472 19.1142 181.438 19.0279 181.413 18.9416C181.192 18.2169 180.878 16.664 181.226 16.1981C181.863 15.4217 185.034 15.3871 185.985 16.4656C186.249 16.8538 186.206 17.6993 186.096 18.4326ZM193.618 17.751C193.635 20.02 191.017 21.1847 189.581 19.3126C189.071 18.5448 188.773 16.9918 189.071 16.3016C189.292 15.8962 190.21 15.413 191.11 15.2405C191.892 15.1111 192.81 15.0507 193.465 15.5424C193.754 15.8185 193.694 17.0954 193.618 17.751Z" fill="#37474F"/>
<path d="M186.784 18.5708L187.422 22.643L190.524 21.5473C190.413 21.3489 188.756 17.6908 187.575 16.9834C186.988 17.0265 186.946 17.7944 186.784 18.5708Z" fill="#F0997A"/>
<path d="M186.274 29.8812C183.155 29.7 179.976 29.0788 178.361 26.7322C177.35 25.2569 176.5 22.9016 176.5 22.9016C176.5 22.9016 176.678 25.809 177.8 27.6898C178.99 29.6827 181.276 30.8043 186.223 31.3047L186.274 29.8812Z" fill="#F0997A"/>
<path d="M184.515 17.5353C184.532 18.053 184.15 18.4843 183.657 18.5016C183.164 18.5188 182.756 18.1133 182.739 17.5957C182.722 17.0781 183.104 16.6467 183.597 16.6294C184.09 16.6122 184.498 17.0177 184.515 17.5353Z" fill="#263238"/>
<path d="M184.133 13.1267L182.204 14.1361C181.94 13.5753 182.153 12.8937 182.688 12.609C183.224 12.3416 183.87 12.5659 184.133 13.1267Z" fill="#263238"/>
<path d="M184.235 22.8152L187.15 23.7901C186.852 24.6183 185.96 25.0669 185.161 24.7995C184.354 24.532 183.937 23.6348 184.235 22.8152Z" fill="#B16668"/>
<path d="M185.909 24.8426C185.645 24.0489 184.974 23.445 184.15 23.2983C184.124 23.9626 184.515 24.5752 185.161 24.7909C185.407 24.8771 185.662 24.8858 185.909 24.8426Z" fill="#F28F8F"/>
<path d="M191.697 13.3769L189.648 12.5918C189.844 12.0052 190.456 11.7032 191.025 11.9275C191.595 12.1346 191.892 12.7902 191.697 13.3769Z" fill="#263238"/>
<path d="M191.561 17.3626C191.535 17.8803 191.119 18.2771 190.626 18.2513C190.133 18.2254 189.759 17.7854 189.784 17.2677C189.81 16.7501 190.226 16.3532 190.719 16.3791C191.212 16.405 191.595 16.845 191.561 17.3626Z" fill="#263238"/>
<path d="M226.331 82.8877L226.322 83.3191C226.314 83.9489 225.974 84.5269 225.43 84.8375L194.748 102.325C194.476 102.48 194.17 102.549 193.881 102.549C193.575 102.549 193.278 102.463 193.006 102.299L176.509 92.3951C175.982 92.0759 175.651 91.4806 175.659 90.8508L175.668 90.2555V90.2641C175.668 90.3417 175.702 90.4108 175.778 90.4625L193.898 101.376L226.331 82.8877Z" fill="#E0E0E0"/>
<path d="M193.89 101.376L193.873 102.549C194.171 102.549 194.476 102.48 194.748 102.325L225.43 84.8375C225.974 84.5269 226.314 83.9489 226.323 83.3191L226.331 82.8877L193.89 101.376Z" fill="#263238"/>
<path d="M175.813 90.4023C175.762 90.3678 175.736 90.316 175.736 90.2556C175.736 90.1952 175.77 90.1434 175.821 90.1176L207.378 72.1209C207.54 72.026 207.718 71.9915 207.897 71.9915C208.058 72.0001 208.211 72.0432 208.347 72.1295L226.187 82.8792L193.882 101.29L175.813 90.4023Z" fill="#F0F0F0"/>
<path d="M207.897 72.069C208.041 72.0777 208.186 72.1208 208.313 72.1985L226.051 82.8878L193.89 101.221L175.847 90.3504C175.804 90.3246 175.804 90.2814 175.804 90.2642C175.804 90.2469 175.813 90.2038 175.855 90.1779L207.421 72.1812C207.565 72.1036 207.727 72.0604 207.897 72.069ZM207.905 71.931C207.718 71.9224 207.523 71.9655 207.353 72.069L175.787 90.0657C175.634 90.152 175.626 90.3763 175.779 90.4712L193.89 101.385L226.331 82.8964L208.39 72.0863C208.237 71.9828 208.075 71.9396 207.905 71.931Z" fill="#E0E0E0"/>
<path d="M193.746 99.8148L184.065 93.9913L212.758 77.6338L222.49 83.4314L193.746 99.8148Z" fill="#E0E0E0"/>
<path d="M222.49 83.4314L222.116 83.6384L212.758 78.0652L184.439 94.2156L184.065 93.9913L212.758 77.6338L222.49 83.4314Z" fill="#E0E0E0"/>
<path opacity="0.1" d="M222.49 83.4314L222.116 83.6384L212.758 78.0652L184.439 94.2156L184.065 93.9913L212.758 77.6338L222.49 83.4314Z" fill="black"/>
<path d="M189.139 83.88L189.317 83.9922L194.06 86.8478L202.618 81.9734L202.797 81.8698L197.876 78.9106L189.139 83.88Z" fill="#E0E0E0"/>
<path opacity="0.1" d="M189.139 83.88L189.317 83.9922L194.06 86.8478L202.618 81.9734L202.797 81.8698L197.876 78.9106L189.139 83.88Z" fill="black"/>
<path d="M189.317 83.9921L194.06 86.8478L202.618 81.9733L197.867 79.1177L189.317 83.9921Z" fill="#E0E0E0"/>
<path d="M155.219 64.8048C157.216 57.3163 158.363 50.561 160.284 44.9101C161.423 41.554 161.839 36.9211 168.452 34.9023C172.489 38.1807 171.673 47.0324 170.959 49.2324L166.327 66.4095C166.327 66.4095 167.474 67.8934 171.316 71.8706C174.588 75.2526 176.177 76.4863 179.976 77.1679C183.776 77.8408 184.133 77.5992 186.079 78.5914C187.116 79.1176 189.478 80.3427 190.286 80.8172C191.093 81.2917 192.487 82.8878 193.804 83.9921C195.037 85.105 193.397 85.5968 192.411 85.2431C191.127 84.7858 190.354 84.156 189.487 83.5952C188.671 83.0603 187.83 82.836 186.963 82.4478C187.133 83.1207 187.379 84.8376 187.345 85.5364C187.32 86.0972 187.405 86.7787 186.903 87.1583C186.623 87.374 186.053 87.4776 185.722 87.5725C185.722 87.5725 185.705 87.8831 185.467 88.0987C185.22 88.3144 184.778 88.3317 184.472 88.2972C184.235 88.2713 183.92 88.1764 183.92 88.1764C183.895 88.5474 183.512 88.8579 183.257 88.9442C182.373 89.2462 181.098 88.9874 180.903 88.8925C180.792 88.8407 179.942 88.3144 179.696 88.1591C179.339 87.9434 179.008 87.814 178.863 87.5552C178.685 87.2533 179.263 86.6148 179.713 86.5631C180.197 86.4854 180.903 86.6752 181.2 86.7442C181.03 86.2956 180.894 85.916 180.835 85.4156C180.461 84.7341 177.486 85.2431 174.903 84.6305C172.948 84.1733 171.579 82.2839 170.763 81.7404C165.783 78.4274 164.5 77.6596 159.256 73.4322C154.309 69.4636 154.139 68.8338 155.219 64.8048Z" fill="#FFBDA7"/>
<path d="M186.215 80.7051C186.53 81.0933 186.87 82.1631 186.946 82.4392C187.116 82.5168 187.277 82.5772 187.447 82.6462C187.184 81.8698 186.768 80.9466 186.215 80.7051ZM184.473 81.2831C184.66 81.4815 184.779 81.7317 184.881 81.9733C184.991 82.2149 185.076 82.4737 185.144 82.7325C185.289 83.2415 185.348 83.7764 185.416 84.32C185.493 84.8548 185.544 85.3984 185.612 85.9419C185.663 86.4854 185.722 87.0203 185.714 87.5725C185.85 87.0376 185.858 86.4768 185.85 85.9246C185.841 85.3725 185.799 84.829 185.731 84.2768C185.654 83.7333 185.586 83.1811 185.382 82.6549C185.17 82.1372 184.923 81.611 184.473 81.2831ZM183.487 83.3623C183.317 82.8619 183.164 82.2925 182.747 81.9302C182.917 82.1372 182.985 82.4047 183.062 82.6549C183.138 82.9051 183.198 83.1639 183.249 83.4313C183.351 83.949 183.444 84.4752 183.521 85.0015C183.682 86.054 183.827 87.1066 183.895 88.185C183.997 87.6501 183.997 87.1066 183.98 86.5631C183.963 86.0195 183.903 85.4846 183.827 84.9497C183.75 84.4062 183.648 83.88 183.487 83.3623ZM179.696 86.5717C179.934 86.5976 180.155 86.6235 180.351 86.7011C180.529 86.7529 180.665 86.8478 180.861 86.934C180.861 87.0031 180.878 87.0635 180.895 87.1238C180.92 87.2187 180.971 87.305 181.031 87.3827C181.141 87.538 181.294 87.6415 181.464 87.7019C181.362 87.5552 181.277 87.4172 181.218 87.2705C181.192 87.2015 181.175 87.1238 181.167 87.0548C181.158 86.9858 181.158 86.9082 181.167 86.8737L181.192 86.7529L181.073 86.6925C180.912 86.6148 180.708 86.5544 180.461 86.5286C180.198 86.5027 179.909 86.4595 179.696 86.5717Z" fill="#F0997A"/>
<path d="M168.587 34.2812C164.27 35.955 162.587 36.8608 160.93 41.7353C158.924 47.6451 156.578 56.652 156.578 56.652C156.578 56.652 158.031 58.8434 162.264 60.0081C166.497 61.1814 168.426 60.1116 168.426 60.1116C168.426 60.1116 170.695 52.6058 171.571 49.4827C172.463 46.3596 173.151 37.0765 168.587 34.2812Z" fill="#776DEF"/>
<path d="M194.383 101.644C194.961 101.877 195.615 101.842 196.159 101.523L226.713 84.1129C227.249 83.8023 227.623 83.2761 227.733 82.6635L231.294 62.5963C231.311 62.4841 231.328 62.3633 231.328 62.2512C231.337 61.6904 231.124 61.1555 230.733 60.75L198.989 78.8502C198.59 79.0745 198.318 79.4714 198.233 79.9286L194.383 101.644Z" fill="#263238"/>
<path d="M193.89 101.376L194.094 101.497C194.187 101.549 194.281 101.601 194.374 101.644L198.224 79.9286C198.309 79.4714 198.581 79.0831 198.981 78.8502L230.725 60.75C230.606 60.6206 230.461 60.517 230.308 60.4221L198.496 78.5569C198.097 78.7812 197.825 79.178 197.74 79.6353L193.89 101.376Z" fill="#455A64"/>
<path d="M198.53 79.2557L198.046 78.9624C197.902 79.1522 197.791 79.3851 197.749 79.6267L193.898 101.376L194.102 101.497C194.196 101.549 194.289 101.601 194.383 101.644L198.233 79.9287C198.275 79.6785 198.377 79.4455 198.53 79.2557Z" fill="#37474F"/>
<path d="M211.686 83.2848C211.924 81.9389 213.318 80.1703 214.788 79.3248C216.267 78.4793 217.27 78.8934 217.032 80.2307C216.794 81.5765 215.4 83.3452 213.93 84.1906C212.451 85.0361 211.448 84.6306 211.686 83.2848Z" fill="#BA68C8"/>
<path d="M344.256 253.27L342.31 252.2L344.29 251.717L344.256 253.27Z" fill="#263238"/>
<path d="M324.394 256.272C324.394 256.272 348.259 246.333 348.488 247.964C348.539 248.326 348.514 248.645 348.437 248.939C348.454 248.913 348.488 248.878 348.505 248.853L347.961 251.846C347.961 251.846 346.228 253.244 344.247 253.27C344.247 253.123 344.273 252.226 344.281 251.717C343.635 251.967 342.964 252.26 342.174 252.761C340.635 253.718 339.598 255.461 337.924 257.471C336.709 258.929 334.609 259.559 331.516 259.887C328.193 260.241 325.303 259.49 324.513 258.55C323.892 257.799 324.266 256.479 324.394 256.272Z" fill="#263238"/>
<path d="M325.065 255.737C325.303 255.504 326.17 254.59 327.342 253.606C328.362 252.743 329.561 251.656 330.836 250.785C331.346 250.44 332.127 249.879 332.569 249.431C332.994 248.999 333.402 248.551 333.785 248.076C334.839 246.765 335.74 245.324 336.513 243.823C337.184 242.537 337.363 241.614 337.354 240.156C337.337 236.584 337.184 233.013 336.725 229.467L348.038 229.657C347.647 231.468 347.417 234.566 347.171 236.636C346.797 239.777 346.686 240.475 347.774 243.667C348.097 244.608 348.59 245.514 348.599 246.514C348.616 248.128 347.324 249.474 345.904 250.216C344.732 250.828 343.397 251.061 342.258 251.717C341.06 252.407 340.108 253.477 339.233 254.538C338.408 255.539 337.728 256.738 336.59 257.419C335.332 258.179 334.15 258.386 332.714 258.627C331.065 258.903 328.966 258.86 327.572 258.696C325.141 258.412 323.356 257.437 325.065 255.737Z" fill="#B16668"/>
<path d="M334.405 251.147C332.731 250.164 331.167 250.483 330.776 250.673C328.992 252.01 327.513 253.201 326.476 254.029C325.209 255.038 324.096 255.961 324.105 257.169C324.105 259.067 331.295 259.904 335.391 258.256C337.516 257.583 338.332 255.823 338.332 255.823C338.332 255.823 337.822 253.149 334.405 251.147ZM348.352 244.849C347.783 243.607 347.571 242.977 347.571 242.977C346.143 243.702 343.576 247.187 344.562 250.82C345.845 250.526 347.112 250.078 348.182 248.499C348.998 247.317 348.93 246.092 348.352 244.849Z" fill="#37474F"/>
<path d="M365.8 247.274C365.138 248.361 365.996 252.45 365.843 255.358C365.707 258.006 365.01 262.613 365.809 265.227C366.761 268.325 368.69 271.922 372.277 269.015C374.504 267.22 375.77 264.891 376.076 261.086C376.288 258.438 375.243 254.78 374.351 251.536C373.305 247.74 372.906 245.712 372.906 245.712L365.8 247.274Z" fill="#263238"/>
<path d="M373.161 227.759C373.416 233.927 372.711 238.267 372.668 242.218C372.711 244.056 372.83 245.609 373.221 247.558C373.731 250.078 374.597 253.589 374.963 255.219C375.473 257.506 375.855 258.938 375.082 261.5C375.022 261.699 374.929 261.888 374.827 262.078C373.739 264.192 370.985 265.779 370.093 265.529C369.846 265.943 369.217 266.194 368.538 266.081C368.444 266.064 368.342 266.038 368.24 266.012C368.138 265.978 368.045 265.943 367.943 265.892C367.356 265.598 366.795 264.994 366.472 263.95C366.421 263.778 366.37 263.588 366.328 263.39C365.682 260.206 366.149 258.153 366.209 256.91C366.277 255.478 366.2 253.649 366.073 251.337C365.945 249.025 365.401 241.752 364.611 238.275C364.025 235.851 363.285 232.806 362.512 229.562L373.161 227.759Z" fill="#B16668"/>
<path d="M375.507 258.187C373.331 257.212 367.016 257.074 366.013 260.197C365.988 263.131 365.971 265.124 367.798 267.677C370.229 271.076 373.391 267.47 374.606 265.184C375.821 262.906 375.804 259.766 375.507 258.187Z" fill="#37474F"/>
<path d="M364.934 147.162C368.011 152.752 370.493 157.471 371.291 172.25C372.192 188.927 372.056 195.285 372.141 197.295C372.218 199.305 373.501 202.998 374.581 212.911C375.669 222.824 374.521 246.86 374.521 246.86C374.521 246.86 373.756 248.482 370.017 248.844C366.574 249.18 364.552 247.955 364.552 247.955C364.552 247.955 357.897 217.889 356.58 211.91C354.718 203.472 351.973 186.735 351.973 186.735L350.29 200.798C350.29 200.798 351.378 206.268 350.392 214.973C349.406 223.678 347.571 240.337 347.571 240.337C347.571 240.337 345.403 241.882 342.471 242.218C339.139 242.598 336.896 241.002 336.896 241.002C336.896 241.002 333.556 206.492 333.488 196.631C333.42 186.77 334.167 162.165 337.117 147.541L364.934 147.162Z" fill="#37474F"/>
<path d="M339.089 161.69C340.585 165.753 345.931 168.566 348.276 169.118L350.682 186.545L350.299 200.815L351.982 186.753L349.228 165.926C349.22 165.917 342.726 165.495 339.089 161.69ZM361.288 159.533C361.688 161.129 362.045 162.743 362.427 164.347C362.801 165.952 363.175 167.565 363.583 169.179C363.609 167.505 363.447 165.84 363.226 164.192C363.005 162.544 362.682 160.905 362.3 159.283C361.9 157.67 361.441 156.056 360.864 154.495C360.286 152.933 359.614 151.389 358.722 149.983C359.223 151.57 359.674 153.158 360.099 154.745C360.507 156.341 360.915 157.937 361.288 159.533ZM364.025 156.436C364.561 157.394 365.071 158.368 365.581 159.343L367.093 162.32C366.991 161.181 366.694 160.077 366.32 159.016C365.946 157.946 365.462 156.919 364.926 155.927C364.374 154.943 363.779 153.986 363.099 153.089C362.427 152.191 361.696 151.337 360.855 150.578C361.348 151.605 361.883 152.571 362.419 153.537C362.963 154.512 363.507 155.461 364.025 156.436ZM361.909 201.479C360.932 196.381 360.235 191.222 359.538 186.054C358.858 180.886 358.186 175.718 357.438 170.55C357.787 175.761 358.195 180.955 358.739 186.149C359.274 191.342 359.937 196.527 360.898 201.669C361.926 206.803 362.954 211.893 364.051 216.991C365.13 222.09 366.277 227.172 367.484 232.253C366.668 227.103 365.785 221.961 364.841 216.836C363.906 211.712 362.912 206.578 361.909 201.479ZM338.409 184.294L339.148 170.688C338.494 175.183 337.984 179.704 337.602 184.242C337.236 188.78 336.879 193.301 336.905 197.899C337.092 202.472 337.466 206.984 337.865 211.522C338.264 216.051 338.74 220.572 339.301 225.084C339.148 220.537 338.936 215.999 338.672 211.461L338.281 204.663C338.154 202.403 338.001 200.125 337.941 197.882C337.891 195.647 338.001 193.37 338.094 191.109C338.171 188.832 338.298 186.563 338.409 184.294Z" fill="#263238"/>
<path d="M304.14 123.695C304.514 123.704 304.795 123.928 305.526 124.196C304.761 123.669 303.673 122.876 303.137 121.84C303.061 121.685 302.976 121.435 302.993 121.262C303.01 121.098 303.129 120.633 303.392 120.555C303.392 120.555 303.018 120.08 302.687 119.684C302.415 119.356 301.854 118.553 302.449 118.295C302.916 118.087 303.545 118.346 304.225 118.786C303.894 118.398 303.681 118.053 303.69 117.82C303.724 117.147 304.183 116.819 305.432 117.553C306.682 118.286 309.775 120.27 312.376 120.52C312.843 120.564 313.761 120.779 314.178 120.495C314.747 120.106 314.033 119.313 313.736 118.967C313.455 118.64 313.192 118.295 312.945 117.941C312.673 117.535 312.435 117.104 312.342 116.629C312.248 116.155 312.316 115.62 312.622 115.249C312.784 115.051 313.039 114.904 313.251 115.094C314.093 115.879 314.968 116.629 315.818 117.406C316.625 118.139 317.492 118.873 318.155 119.744C318.92 120.745 319.49 122.091 320.612 123.488C321.725 124.886 322.949 126.154 325.83 128.535C327.419 129.847 330.063 132.236 330.063 132.236C330.063 132.236 334.338 124.161 336.029 120.952C339.123 115.094 341.808 113.584 347.086 112.842L345.692 126.171C345.692 126.171 339.998 138.5 337.78 142.512C335.561 146.523 333.573 147.17 332.06 146.989C327.309 146.351 323.85 140.13 317.246 131.02C316.71 130.278 315.393 128.829 313.141 128.604C312.257 128.518 311.271 128.354 310.693 128.268C309.988 128.164 308.747 127.776 308.084 127.526C306.681 126.982 306.665 127.094 304.71 125.464C304.472 125.265 303.503 124.36 303.596 124.058C303.656 123.799 303.877 123.687 304.14 123.695Z" fill="#B16668"/>
<path d="M305.525 124.196C306.163 124.523 306.792 124.817 307.455 125.032C308.109 125.283 308.789 125.447 309.46 125.697C308.747 125.662 308.05 125.507 307.37 125.283C306.698 125.032 306.035 124.705 305.525 124.196Z" fill="#9A4A4D"/>
<path d="M317.985 125.904C317.977 125.766 317.959 125.628 317.917 125.49C317.841 125.231 317.705 124.989 317.552 124.765C317.254 124.325 316.838 123.963 316.379 123.712C315.384 123.169 314.016 123.152 313.056 123.781C313.03 123.799 312.996 123.902 313.056 123.894C314.118 123.704 315.189 123.566 316.192 124.109C317.016 124.558 317.526 125.446 317.79 126.344C317.815 126.43 317.9 126.404 317.917 126.326C317.951 126.171 317.994 126.068 317.985 125.904Z" fill="#9A4A4D"/>
<path d="M310.498 121.987C309.41 121.625 308.348 121.072 307.319 120.555C306.333 120.054 305.381 119.476 304.429 118.924C304.421 118.916 304.404 118.95 304.412 118.95C305.322 119.744 306.333 120.365 307.413 120.9C308.407 121.392 309.435 121.685 310.489 122.013C310.498 122.013 310.506 121.987 310.498 121.987Z" fill="#9A4A4D"/>
<path d="M310.413 123.963C309.325 123.6 308.262 123.048 307.234 122.53C306.843 122.332 306.452 122.116 306.07 121.901C305.696 121.685 305.305 121.487 304.948 121.228C304.837 121.15 304.727 121.072 304.625 120.995C304.489 120.891 304.361 120.788 304.2 120.71C304.038 120.632 303.868 120.589 303.69 120.572C303.673 120.572 303.647 120.581 303.656 120.598C303.877 120.65 304.072 120.753 304.259 120.883C304.378 120.969 304.497 121.064 304.608 121.167C304.71 121.254 304.812 121.331 304.922 121.409C305.254 121.659 305.602 121.901 305.959 122.116C306.41 122.392 306.869 122.643 307.336 122.876C308.33 123.367 309.359 123.661 310.413 123.988C310.413 123.988 310.421 123.971 310.413 123.963Z" fill="#9A4A4D"/>
<path d="M347.57 112.54C342.063 113.204 339.666 114.274 337.456 117.751C335.374 121.029 329.943 131.909 329.943 131.909L325.303 128.104C325.303 128.104 325.609 129.51 324.036 132.107C322.464 134.704 319.889 135.04 319.889 135.04C319.889 135.04 322.719 139.544 325.379 142.606C328.031 145.669 330.716 147.938 333.606 146.989C336.496 146.04 337.83 143.21 339.513 139.88C341.196 136.55 346.006 126.102 346.006 126.102L347.57 112.54Z" fill="#37474F"/>
<path d="M334.881 140.432C334.303 137.292 332.323 133.436 329.943 131.909C329.943 131.909 330.164 131.469 330.53 130.744C334.159 133.254 334.915 137.577 334.881 140.432Z" fill="#263238"/>
<path d="M357.999 109.339C358.365 109.115 358.739 108.908 359.138 108.77C361.169 108.045 363.447 108.986 365.308 107.717C366.43 106.958 367.178 105.647 367.263 104.284C368.003 105.026 369.337 105.052 370.093 104.327C369.413 104.525 368.495 104.318 368.334 103.619C368.164 102.903 368.861 102.325 369.337 101.764C370.127 100.824 370.297 99.461 369.923 98.3049C369.524 97.0798 368.342 96.5449 368.156 95.2336C368.045 94.4485 368.283 93.6548 368.368 92.8697C368.529 91.3685 368.096 89.8156 367.221 88.5905C366.813 88.0211 366.311 87.5121 365.725 87.1411C365.563 87.0376 363.498 86.1835 363.49 86.4337C363.574 84.0439 361.688 81.7317 359.359 81.3866C358.645 81.2831 357.914 81.3349 357.192 81.2486C355.653 81.0502 354.395 80.0149 352.917 79.7474C351.582 79.5059 350.086 79.6439 348.854 80.2306C347.673 80.8 347.103 81.8525 346.092 82.5858C344.995 83.3882 343.534 83.3364 342.225 83.6901C340.491 84.156 338.902 85.5709 338.681 87.3827C338.519 88.7372 339.097 90.247 338.383 91.4116C338.111 91.8516 337.695 92.1622 337.372 92.5591C336.751 93.3269 336.607 94.345 336.819 95.2853C337.057 96.3379 337.805 97.0281 338.145 98.0202C338.349 98.6241 338.298 99.3747 337.805 99.7716C337.312 100.168 336.394 99.8751 336.394 99.2367C336.02 99.7975 336.309 100.617 336.853 100.997C337.516 101.463 338.264 101.497 339.055 101.445C338.723 102.722 338.434 104.223 339.25 105.25C340.041 106.242 341.502 106.32 342.531 107.053C343.202 107.536 343.653 108.27 344.248 108.839C345.361 109.891 347.018 110.314 348.48 109.909C349.967 109.503 350.902 108.675 352.415 109.357C353.478 109.84 354.557 110.495 355.713 110.366C356.546 110.28 357.26 109.788 357.999 109.339Z" fill="#263238"/>
<path d="M348.837 113.852C348.837 113.852 349.415 113.256 350.129 113.127C350.63 113.032 350.664 112.471 350.707 111.574L350.724 110.168C348.939 110.323 347.435 109.969 346.151 108.934C344.214 107.364 343.066 104.128 343.083 100.591C343.1 98.236 343.644 97.1144 343.585 96.5881C343.245 93.4564 343.466 92.887 344.112 91.2219C345.293 88.5733 348.523 87.4776 350.052 90.1953C353.945 86.8133 358.603 90.8078 358.645 95.665C358.28 99.694 359.503 99.832 360.268 99.8234C361.288 97.2783 363.838 97.2007 364.985 98.7622C366.022 100.177 366.09 102.429 364.314 104.56C362.58 106.639 360.498 105.448 360.455 105.043C360.455 105.043 360.396 110.452 360.404 111.531C360.413 112.609 360.676 113.791 362.011 114.171C363.379 114.559 363.702 114.835 363.702 114.835C363.702 114.835 363.413 115.068 363.218 115.301C362.767 115.888 362.087 116.414 360.413 118.605C356.002 120.52 350.749 123.143 347.664 125.205C346.483 122.582 345.31 118.26 345.31 118.26C346.891 115.741 348.837 113.852 348.837 113.852Z" fill="#B16668"/>
<path d="M352.917 103.257L349.942 104.215C350.189 105.077 351.047 105.569 351.872 105.302C352.696 105.034 353.164 104.12 352.917 103.257Z" fill="#9A4A4D"/>
<path d="M352.73 103.956C351.898 103.93 351.192 104.517 351.014 105.31C351.286 105.388 351.583 105.397 351.881 105.302C352.467 105.112 352.875 104.586 352.968 103.99C352.883 103.973 352.807 103.956 352.73 103.956Z" fill="#F28F8F"/>
<path d="M344.511 95.2855L346.797 94.5435C346.619 93.8879 345.964 93.5255 345.327 93.7326C344.698 93.931 344.333 94.6298 344.511 95.2855Z" fill="#263238"/>
<path d="M355.364 95.3286L353.095 94.44C353.316 93.7929 354.004 93.4651 354.625 93.7066C355.262 93.9482 355.585 94.6815 355.364 95.3286Z" fill="#263238"/>
<path d="M347.359 97.5889C347.401 98.1325 346.993 98.6156 346.458 98.6674C345.922 98.7191 345.446 98.3309 345.412 97.7874C345.37 97.2439 345.778 96.7607 346.313 96.709C346.849 96.6486 347.325 97.0454 347.359 97.5889Z" fill="#263238"/>
<path d="M354.463 97.3905C354.506 97.9427 354.089 98.4344 353.537 98.4948C352.984 98.5552 352.508 98.1497 352.466 97.5976C352.423 97.0454 352.84 96.5537 353.392 96.4933C353.945 96.4329 354.421 96.8384 354.463 97.3905Z" fill="#263238"/>
<path d="M350.724 110.168C354.523 109.788 358.178 108.735 359.113 106.38C359.113 106.38 359.13 108.477 356.937 109.667C353.784 111.393 350.707 111.306 350.707 111.306L350.724 110.168Z" fill="#9A4A4D"/>
<path d="M346.764 100.522L350.265 101.834L350.724 95.1646L346.764 100.522Z" fill="#9A4A4D"/>
<path d="M337.814 140.208C337.899 138.552 337.95 136.196 337.772 134.083C337.772 134.083 335.282 131.469 335.282 128.087C335.282 124.549 336.812 122.125 340.466 118.614C344.214 115.016 347.342 113.135 347.342 113.135L350.121 113.118C350.121 113.118 348.294 116.63 349.373 118.838C355.093 118.398 359.997 115.905 362.011 114.162L366.771 115.111C366.771 115.111 369.677 121.306 368.505 126.422C367.876 129.191 366.618 133.893 365.598 137.611C364.612 141.218 364.961 145.065 366.575 148.43C366.72 148.741 366.873 149.043 367.017 149.353C368.394 152.235 370.213 157.541 370.213 157.541C370.213 157.541 362.215 161.173 349.084 159.559C335.953 157.946 334.865 155.591 334.865 155.591L337.313 143.987C337.585 142.753 337.746 141.485 337.814 140.208Z" fill="white"/>
<path d="M359.657 134.195C359.657 134.195 358.288 138.465 353.155 138.879C348.463 139.268 346.16 135.463 346.16 135.463C346.16 135.463 346.951 140.89 353.299 140.182C359.64 139.483 359.657 134.195 359.657 134.195Z" fill="#E0E0E0"/>
<path d="M360.753 113.187C360.753 113.187 355.679 122.979 353.895 128.277C352.11 133.574 352.773 137.887 353.002 147.61C353.181 155.099 353.563 166.392 353.563 166.392C353.563 166.392 367.527 166.729 372.049 160.586C371.046 156.833 367.799 148.033 366.966 145.635C366.133 143.228 366.66 141.157 368.36 135.739C370.06 130.321 372.567 127.414 372.652 123.359C372.737 119.304 370.077 115.931 369.082 115.189L360.753 113.187Z" fill="#455A64"/>
<path d="M350.597 112.687C350.554 112.877 350.418 113.032 350.265 113.118C350.265 113.118 340.449 121.996 339.429 131.538C338.409 141.079 337.032 162.027 337.032 162.027C337.032 162.027 336.021 161.5 334.108 159.206C334.695 154.875 336.82 137.767 336.497 135.782C336.174 133.798 331.72 129.148 336.191 122.919C340.661 116.69 347.571 112.54 347.571 112.54L350.665 112.204C350.665 112.273 350.648 112.506 350.597 112.687Z" fill="#455A64"/>
<path d="M346.135 114.749C345.515 115.275 344.894 115.81 344.291 116.362C343.084 117.458 341.885 118.571 340.73 119.718C340.152 120.296 339.582 120.874 339.021 121.478C338.741 121.78 338.46 122.082 338.197 122.401C337.933 122.712 337.636 123.048 337.491 123.514C337.347 123.963 337.347 124.403 337.364 124.834C337.381 125.266 337.466 125.68 337.551 126.094C337.721 126.862 337.959 127.604 338.248 128.337C337.593 129.131 336.964 129.924 336.548 130.934C336.497 131.063 336.455 131.21 336.429 131.365C336.421 131.52 336.412 131.676 336.421 131.805C336.429 132.081 336.472 132.349 336.497 132.616C336.565 133.151 336.65 133.677 336.743 134.204C337.1 136.309 337.559 138.388 338.052 140.458C337.729 138.353 337.389 136.248 337.1 134.143C337.032 133.617 336.964 133.091 336.913 132.564C336.896 132.306 336.871 132.038 336.871 131.788C336.862 131.529 336.888 131.331 336.981 131.098C337.364 130.183 338.052 129.338 338.715 128.561L338.817 128.44L338.758 128.294C338.469 127.552 338.231 126.767 338.069 125.982C337.993 125.593 337.925 125.197 337.908 124.808C337.882 124.42 337.891 124.023 337.993 123.687C338.086 123.359 338.333 123.066 338.588 122.746C338.843 122.436 339.115 122.134 339.387 121.832C339.931 121.228 340.5 120.65 341.061 120.063C342.191 118.899 343.33 117.734 344.495 116.595C345.659 115.456 346.806 114.3 348.047 113.239C347.376 113.696 346.755 114.223 346.135 114.749Z" fill="#37474F"/>
<path d="M362.283 128.087L362.334 126.784L362.427 124.178C362.529 120.702 362.614 117.225 362.631 113.739C362.351 117.207 362.155 120.693 361.96 124.17L361.832 126.784L361.773 128.087L361.756 128.406C361.756 128.483 361.739 128.57 361.713 128.647C361.662 128.811 361.56 128.958 361.433 129.105C360.906 129.674 360.116 130.036 359.342 130.356C358.56 130.666 357.744 130.916 356.928 131.115L356.648 131.184L356.741 131.46C357.107 132.53 357.447 133.625 357.693 134.721C357.753 134.997 357.804 135.273 357.838 135.541C357.88 135.808 357.889 136.101 357.846 136.3L357.829 136.369L357.778 136.464L357.073 137.784C356.537 138.793 355.985 139.794 355.467 140.803L353.886 143.849L355.654 140.915C356.248 139.941 356.809 138.948 357.387 137.965L357.821 137.223L358.033 136.852L358.195 136.576L358.246 136.447C358.348 136.093 358.314 135.799 358.288 135.497C358.263 135.196 358.212 134.911 358.152 134.626C357.931 133.582 357.634 132.564 357.311 131.555C358.067 131.374 358.815 131.158 359.546 130.873C360.354 130.545 361.178 130.174 361.832 129.467C361.985 129.286 362.13 129.07 362.215 128.811C362.249 128.682 362.274 128.552 362.274 128.414L362.283 128.087Z" fill="#37474F"/>
<path d="M369.073 115.189C373.612 116.181 375.312 119.08 377.097 125.179C379.527 133.513 381.635 141.701 382.001 145.842L371.343 142.434L366.022 130.442C366.022 130.433 364.212 120.9 369.073 115.189Z" fill="#37474F"/>
<path d="M345.497 160.629L368.938 157.903L373.621 127.707L350.18 130.442L345.497 160.629Z" fill="#BA68C8"/>
<path opacity="0.2" d="M345.497 160.629L368.938 157.903L373.621 127.707L350.18 130.442L345.497 160.629Z" fill="black"/>
<path d="M346.406 159.335L368.869 156.712L373.238 128.552L350.775 131.184L346.406 159.335Z" fill="#FAFAFA"/>
<path d="M349.602 150.88L352.552 131.866L373.629 127.698L368.938 157.903L346.653 162.312C346.211 162.398 345.897 162.079 345.973 161.621L347.469 151.993C347.529 151.588 347.877 151.217 348.268 151.139L349.602 150.88Z" fill="#776DEF"/>
<path d="M381.848 145.833C381.746 148.939 381.253 149.439 377.828 151.061C374.403 152.675 365.819 155.039 359.079 155.435C354.685 155.694 352.441 155.401 350.767 154.65C348.463 153.624 345.863 150.751 346.679 146.67C346.033 144.496 347.146 144.246 348.072 144.047L347.851 145.445C347.851 145.445 349.764 146.877 351.574 146.972C353.384 147.067 351.787 144.85 351.506 143.538C351.234 142.227 351.328 141.485 352.398 140.907C352.985 140.924 353.146 141.752 354.906 143.668C356.24 145.126 357.226 147.722 359.385 147.507C361.076 147.343 371.249 143.021 371.249 143.021L371.844 139.156L381.848 145.833Z" fill="#B16668"/>
<path d="M382.001 145.842C382.06 147.783 381.686 148.784 380.768 149.586C379.859 150.388 376.162 151.984 373.901 152.683C371.64 153.391 365.725 154.762 364.603 154.935C365.835 153.141 365.682 149.491 364.765 147.826C363.838 146.152 362.529 146.506 362.529 146.506L371.275 142.908L372.099 137.62L382.001 145.842Z" fill="#37474F"/>
<path d="M9.17019 309.727C9.17019 309.727 9.1362 310.331 9.1532 310.806C9.1702 311.125 9.36567 311.608 10.0541 312.212C11.244 313.273 13.9977 313.98 16.1734 313.635C18.0857 313.333 18.8167 312.876 19.8111 311.953C20.9499 310.9 21.8678 309.727 22.3268 309.348C23.0237 308.778 24.3496 308.079 26.0919 307.519C27.9277 306.932 31.4463 305.759 32.9421 303.093C34.438 300.427 33.8176 298.348 33.8176 298.348L9.17019 309.727Z" fill="#263238"/>
<path d="M21.8933 296.743C17.9582 297.796 14.1761 304.378 9.6971 302.247C9.45912 304.818 8.58372 306.518 9.16165 309.727C10.8955 312.324 15.57 313.057 18.2472 311.591C19.6155 310.668 20.1 309.701 21.4343 308.718C22.4882 307.941 23.6696 307.501 24.987 307.061C26.1938 306.656 28.2591 305.81 29.262 305.276C33.7495 302.687 34.9139 298.348 32.8741 296.113C31.2338 294.327 28.1231 295.069 21.8933 296.743Z" fill="#455A64"/>
<path d="M23.8058 296.234L24.3667 296.087C26.3045 296.062 28.2168 296.898 29.5767 298.339C31.0215 299.875 31.3275 302.989 31.319 303.766L31.183 303.895C31.183 303.895 31.2935 304.551 32.2539 303.274C33.2143 301.997 34.0897 300.418 34.0387 298.443C33.9877 296.467 32.8403 295.018 30.3841 294.966C28.5483 294.923 23.7208 295.837 23.8058 296.234Z" fill="#FAFAFA"/>
<path d="M30.7659 320.451C30.7064 320.451 30.7999 321.806 30.8764 321.952C31.0719 322.323 31.5648 322.513 31.9218 322.625C34.0126 323.272 36.2223 323.324 38.2961 323.954C39.6645 324.368 41.0073 324.86 42.3162 325.455C43.659 326.068 44.8914 326.723 46.3108 327.112C49.3874 327.948 53.0335 327.974 55.3113 327.094C59.5778 325.446 59.3569 324.049 59.3399 322.479C59.3229 320.908 30.7659 320.451 30.7659 320.451Z" fill="#263238"/>
<path d="M31.6927 310.003C30.9023 313.196 30.0184 317.984 30.7663 320.451C31.6077 321.409 34.5229 322.039 37.0557 322.487C39.4439 322.91 41.5942 323.652 43.7359 324.946C48.6229 327.31 56.884 326.861 59.1958 323.315C60.7766 318.208 51.2576 317.837 45.7502 313.834C44.3734 312.833 44.1524 311.901 43.7529 310.34C43.7529 310.331 34.9394 310.858 31.6927 310.003Z" fill="#455A64"/>
<path d="M46.8045 325.981C46.3455 324.955 45.9121 321.875 47.8499 319.718C49.7962 317.57 52.4989 317.13 53.6633 317.397C55.0316 317.716 57.5813 318.941 58.6097 320.097C59.6381 321.253 60.0971 323.126 58.2868 324.523C56.4765 325.912 52.9323 327.362 46.8045 325.981Z" fill="#FAFAFA"/>
<path d="M9.89267 269.731C10.2751 263.019 12.7654 257.471 12.7059 253.77C12.5954 246.644 12.9608 241.925 12.3914 236.006C11.788 229.708 11.5755 224.48 11.856 220.02C12.1364 215.559 12.9098 211.858 13.5048 206.259C13.5048 206.259 47.6456 204.068 48.3425 217.164C49.0395 230.252 48.1471 263.614 47.7136 269.36C47.4586 275.192 44.484 307.398 44.4075 311.513C38.5261 315.853 31.1659 312.255 31.1659 312.255C30.3245 297.649 27.5963 288.469 30.163 275.571L28.6757 256.522C28.6757 256.522 23.2362 291.351 21.171 302.325C18.1963 306.449 10.9466 304.879 9.6377 302.316C9.83317 288.84 9.42522 277.884 9.89267 269.731Z" fill="#37474F"/>
<path d="M28.6668 256.522L27.222 234.652C27.222 234.652 21.4426 233.513 17.2695 228.181C18.3489 232.4 22.9299 236.144 25.8536 237.231L26.7885 252.062L26.1426 272.552L28.6668 256.522Z" fill="#263238"/>
<path d="M34.1834 166.815L32.9935 175.658L21.1543 175.045L22.4292 165.469L34.1834 166.815Z" fill="#FFA8A7"/>
<path d="M38.8916 150.268C39.801 151.441 42.6312 154.987 42.7417 155.668L40.4299 157.109L38.8916 150.268Z" fill="#F28F8F"/>
<path d="M32.3128 141.373C35.9674 140.976 38.3472 143.607 39.4096 151.51C39.4521 151.82 39.9025 152.304 40.2425 153.485C41.7043 158.558 40.8884 163.39 40.047 164.675C37.9307 166.401 35.568 167.048 32.1599 166.754C29.5591 166.53 22.9213 165.728 19.5557 162.165C15.5951 157.972 13.5978 151.648 16.411 148.369C20.3631 143.745 30.2986 141.588 32.3128 141.373Z" fill="#FFA8A7"/>
<path d="M40.0386 164.675C39.5711 165.383 36.265 167.134 34.1572 167.264V165.598C34.1572 165.598 37.1574 165.59 40.0386 164.675Z" fill="#F28F8F"/>
<path d="M33.0357 155.22C32.7807 155.824 32.1772 155.875 31.8118 155.427C31.3783 154.883 31.0299 154.297 30.4774 153.857C29.84 153.348 29.0241 153.02 28.2167 153.08C25.1485 153.322 25.8964 157.42 27.4008 158.852C29.8655 161.19 31.1829 159.171 31.1829 159.171C31.1829 159.171 32.9507 163.14 30.3754 165.46C30.3754 165.46 25.9219 167.419 22.4203 166.314C19.8026 163.45 18.0518 161.647 16.2925 159.18C12.1194 153.339 12.1194 147.567 14.7881 145.919C14.6351 143.849 15.74 140.734 19.9301 138.94C23.9246 137.223 26.5933 137.395 29.483 137.559C32.3727 137.723 35.9168 139.061 38.6026 136.783C39.2655 138.414 39.0955 140.381 38.1521 141.864C39.002 141.476 40.1239 141.89 40.5319 142.744C40.9398 143.599 40.5489 144.746 39.7244 145.177C40.3109 145.471 40.5913 146.256 40.3789 146.894C40.1664 147.524 39.5375 147.973 38.8745 148.016C38.1776 148.068 37.7442 147.999 37.0642 147.895C36.2228 150.293 33.5626 151.13 31.9818 151.027C32.0243 151.018 32.2282 151.355 32.2622 151.398C32.3557 151.527 32.4322 151.674 32.5172 151.812C32.6702 152.097 32.7977 152.399 32.8912 152.709C33.0867 153.33 33.1631 153.986 33.1122 154.633C33.0782 154.84 33.1122 155.03 33.0357 155.22Z" fill="#263238"/>
<path d="M19.497 170.395C15.0944 170.188 10.7344 171.508 8.06569 177.72C5.54146 183.604 1.98884 192.084 0.679978 196.355C0.0425459 198.434 -1.12183 200.306 2.70276 203.973C7.9382 208.994 14.44 212.462 14.44 212.462L18.2901 204.102L12.2812 198.244L14.9329 192.654L19.497 170.395Z" fill="#776DEF"/>
<path d="M12.273 198.244C11.6441 199.297 10.1908 200.772 8.71191 201.298C10.4032 201.713 12.256 199.866 12.8255 198.779L12.273 198.244Z" fill="#263238"/>
<path d="M16.3272 171.724C13.2591 173.467 10.9218 179.29 11.1513 184.156C11.2958 187.236 12.3582 195.182 13.2676 202.204C13.5565 204.422 12.6896 208.149 12.2817 212.643C11.9842 215.974 11.6102 219.494 11.6102 219.494C11.6102 219.494 16.0553 224.687 27.3506 225.369C41.7735 226.232 48.7598 222.427 48.7598 222.427C48.7598 222.427 48.2498 210.763 47.9014 201.316C47.3829 187.305 47.3574 183.207 45.1986 178.445C44.4847 177.038 43.7368 173.898 41.3911 173.277C39.5298 172.785 35.2377 171.741 33.5379 171.482C30.7502 172.207 23.5175 172.276 21.7327 170.723L21.7582 170.318C18.656 170.257 18.2225 170.645 16.3272 171.724Z" fill="#BA68C8"/>
<path d="M16.3272 171.724C13.2591 173.467 10.9218 179.29 11.1513 184.156C11.2958 187.236 12.3582 195.182 13.2676 202.204C13.5565 204.422 12.6896 208.149 12.2817 212.643C11.9842 215.974 11.6102 219.494 11.6102 219.494C11.6102 219.494 16.0553 224.687 27.3506 225.369C41.7735 226.232 48.7598 222.427 48.7598 222.427C48.7598 222.427 48.2498 210.763 47.9014 201.316C47.3829 187.305 47.3574 183.207 45.1986 178.445C44.4847 177.038 43.7368 173.898 41.3911 173.277C39.5298 172.785 35.2377 171.741 33.5379 171.482C30.7502 172.207 23.5175 172.276 21.7327 170.723L21.7582 170.318C18.656 170.257 18.2225 170.645 16.3272 171.724Z" fill="#776DEF"/>
<path d="M87.541 161.699C89.1303 159.68 89.9718 158.843 90.8217 158.334C91.6716 157.825 94.5443 155.608 95.7001 154.961C96.4311 154.555 97.077 155.737 96.3036 156.868C95.7086 157.748 93.9323 159.154 93.1844 159.878C92.4365 160.603 91.2636 163.183 91.2636 163.183L87.541 161.699Z" fill="#F28F8F"/>
<path d="M70.67 188.565C69.0126 189.514 67.3638 189.263 61.7119 188.961C57.6749 188.746 52.091 188.573 42.5975 187.676C39.0449 184.07 38.1949 177.772 41.7221 173.907C45.4192 173.044 56.5955 177.591 68.5367 177.323C68.5367 177.323 80.3079 171.862 81.5998 170.887C82.9002 169.912 85.2799 164.805 86.1723 163.321C87.3962 161.293 88.2631 161.293 89.1215 161.199C91.9432 160.888 92.6061 160.966 93.2775 161.181C93.949 161.397 94.0849 162.113 94.0849 162.113C94.8329 162.01 95.9038 161.699 96.3542 162.872C96.6517 163.64 96.6432 163.821 96.6432 163.821C96.6432 163.821 96.9066 163.778 97.1871 163.968C97.969 164.511 97.5696 167.238 97.0766 168.006C96.7282 168.549 96.0822 168.773 95.1898 168.886C94.4334 168.98 94.5779 168.135 94.5779 168.135L93.5665 168.471C91.7647 170.654 92.4701 173.846 89.7334 175.322C89.1555 175.632 87.8806 175.951 86.3423 176.978C79.6365 182.405 72.8202 187.331 70.67 188.565Z" fill="#FFA8A7"/>
<path d="M94.0852 162.113L90.6855 162.312L93.8982 161.673C93.9917 161.82 94.0597 161.966 94.0852 162.113Z" fill="#F28F8F"/>
<path d="M96.6521 163.821L92.8105 164.322L96.5416 163.381C96.5926 163.519 96.6266 163.666 96.6521 163.821Z" fill="#F28F8F"/>
<path d="M96.5921 165.616C96.5326 165.84 96.3797 166.038 96.2097 166.185C96.0397 166.349 95.8442 166.47 95.6317 166.573L95.6742 166.522C95.6232 166.746 95.5722 166.97 95.5128 167.186L95.4108 167.108C95.6147 167.013 95.8442 167.013 96.0397 167.1C96.2352 167.186 96.3797 167.341 96.4901 167.505C96.3542 167.358 96.1842 167.255 96.0057 167.195C95.8272 167.143 95.6317 167.16 95.4788 167.238L95.3428 167.307L95.3768 167.16C95.4278 166.936 95.4788 166.711 95.5383 166.496L95.5467 166.461L95.5807 166.444C95.7762 166.349 95.9717 166.237 96.1502 166.107C96.3202 165.969 96.4902 165.823 96.5921 165.616Z" fill="#F28F8F"/>
<path d="M95.7343 166.366C95.3858 166.539 94.4169 166.824 94.4169 166.824C94.4169 166.824 94.4594 167.1 94.1449 167.669C93.9749 167.971 93.584 168.472 93.584 168.472L94.5954 168.135C94.5954 168.135 94.7229 167.609 95.5983 167.177L95.7343 166.366Z" fill="#F28F8F"/>
<path d="M41.0507 173.165C43.0054 173.259 45.2322 173.346 48.2919 174.2C50.4931 174.812 58.5333 176.348 60.8365 176.572C63.1398 176.797 68.5537 177.081 68.5537 177.081L75.6674 173.967C75.6674 173.967 76.9253 174.398 78.2002 177.081C79.475 179.764 78.6336 183.31 78.6336 183.31C78.6336 183.31 72.3443 187.719 70.9759 188.616C69.6076 189.513 68.8257 189.72 66.7264 189.565C64.6271 189.41 50.5781 188.53 48.9718 188.711C47.374 188.892 46.932 189.47 46.0311 189.997C45.1387 190.523 42.742 189.626 41.2036 187.262C39.6738 184.898 36.5121 176.616 41.0507 173.165Z" fill="#776DEF"/>
</g>
<defs>
<filter id="filter0_f_304_11164" x="56.4998" y="146.757" width="284.528" height="206.685" filterUnits="userSpaceOnUse" color-interpolation-filters="sRGB">
<feFlood flood-opacity="0" result="BackgroundImageFix"/>
<feBlend mode="normal" in="SourceGraphic" in2="BackgroundImageFix" result="shape"/>
<feGaussianBlur stdDeviation="4.65" result="effect1_foregroundBlur_304_11164"/>
</filter>
<clipPath id="clip0_304_11164">
<rect width="382" height="356" fill="white" transform="translate(0 0.375488)"/>
</clipPath>
</defs>
</svg>
