<svg width="60" height="45" viewBox="0 0 60 45" fill="none" xmlns="http://www.w3.org/2000/svg">
<path d="M29.5634 33.8322C30.6618 33.8322 31.7153 33.3958 32.492 32.6191C33.2687 31.8424 33.705 30.789 33.705 29.6906C33.705 28.5922 33.2687 27.5387 32.492 26.762C31.7153 25.9853 30.6618 25.549 29.5634 25.549C28.465 25.549 27.4116 25.9853 26.6349 26.762C25.8582 27.5387 25.4218 28.5922 25.4218 29.6906C25.4218 30.789 25.8582 31.8424 26.6349 32.6191C27.4116 33.3958 28.465 33.8322 29.5634 33.8322ZM41.9882 15.195C43.0866 15.195 44.14 15.6314 44.9167 16.4081C45.6934 17.1848 46.1298 18.2382 46.1298 19.3366V40.0446C46.1298 41.143 45.6934 42.1964 44.9167 42.9731C44.14 43.7498 43.0866 44.1861 41.9882 44.1861H17.1387C16.0402 44.1861 14.9868 43.7498 14.2101 42.9731C13.4334 42.1964 12.9971 41.143 12.9971 40.0446V19.3366C12.9971 18.2382 13.4334 17.1848 14.2101 16.4081C14.9868 15.6314 16.0402 15.195 17.1387 15.195H19.2095V11.0534C19.2095 8.30739 20.3003 5.67382 22.2421 3.73207C24.1838 1.79032 26.8174 0.699463 29.5634 0.699463C30.9231 0.699463 32.2695 0.967276 33.5257 1.48761C34.7819 2.00795 35.9233 2.77062 36.8848 3.73207C37.8462 4.69353 38.6089 5.83494 39.1292 7.09114C39.6496 8.34734 39.9174 9.69373 39.9174 11.0534V15.195H41.9882ZM29.5634 4.84105C27.9158 4.84105 26.3357 5.49557 25.1706 6.66062C24.0056 7.82566 23.351 9.40581 23.351 11.0534V15.195H35.7758V11.0534C35.7758 9.40581 35.1213 7.82566 33.9562 6.66062C32.7912 5.49557 31.211 4.84105 29.5634 4.84105Z" fill="#029894"/>
</svg>
