<svg width="60" height="45" viewBox="0 0 60 45" fill="none" xmlns="http://www.w3.org/2000/svg">
<path d="M29.8703 0.699707C41.8791 0.699707 51.6136 10.4342 51.6136 22.443C51.6136 34.4519 41.8791 44.1864 29.8703 44.1864C17.8614 44.1864 8.12695 34.4519 8.12695 22.443C8.12695 10.4342 17.8614 0.699707 29.8703 0.699707ZM29.8703 9.39704C29.2936 9.39704 28.7406 9.62612 28.3328 10.0339C27.925 10.4417 27.696 10.9947 27.696 11.5714V22.443C27.6961 23.0197 27.9252 23.5726 28.333 23.9803L34.856 30.5033C35.2661 30.8994 35.8154 31.1185 36.3855 31.1136C36.9556 31.1086 37.5009 30.88 37.9041 30.4768C38.3072 30.0737 38.5359 29.5283 38.5408 28.9582C38.5458 28.3881 38.3266 27.8389 37.9305 27.4288L32.0446 21.5429V11.5714C32.0446 10.9947 31.8155 10.4417 31.4078 10.0339C31 9.62612 30.447 9.39704 29.8703 9.39704Z" fill="#029894"/>
</svg>
