<svg width="53" height="46" viewBox="0 0 53 46" fill="none" xmlns="http://www.w3.org/2000/svg">
<path d="M22.8254 4.76245H10.5754C9.60072 4.76245 8.66597 5.14964 7.97677 5.83883C7.28758 6.52803 6.90039 7.46278 6.90039 8.43745V34.1625H46.1004V25.5875" stroke="#029894" stroke-width="4" stroke-linecap="round" stroke-linejoin="round"/>
<path d="M2 34.1625H51V36.6125C51 38.5618 50.2256 40.4313 48.8472 41.8097C47.4688 43.1881 45.5993 43.9625 43.65 43.9625H9.35C7.40066 43.9625 5.53116 43.1881 4.15277 41.8097C2.77437 40.4313 2 38.5618 2 36.6125V34.1625Z" stroke="#029894" stroke-width="4" stroke-linejoin="round"/>
<path d="M39.9758 14.5625C42.0054 14.5625 43.6508 12.9172 43.6508 10.8875C43.6508 8.85788 42.0054 7.21252 39.9758 7.21252C37.9461 7.21252 36.3008 8.85788 36.3008 10.8875C36.3008 12.9172 37.9461 14.5625 39.9758 14.5625Z" stroke="#029894" stroke-width="4"/>
<path d="M39.9748 19.4625V14.5625M39.9748 7.2125V2.3125M32.5488 15.175L36.7922 12.725M43.1573 9.05L47.4007 6.6M32.5488 6.6L36.7922 9.05M43.1573 12.725L47.4007 15.175" stroke="#029894" stroke-width="4" stroke-linecap="round" stroke-linejoin="round"/>
</svg>
