<svg width="52" height="44" viewBox="0 0 52 44" fill="none" xmlns="http://www.w3.org/2000/svg">
<path fill-rule="evenodd" clip-rule="evenodd" d="M12.5205 38.0958V22.5981H19.4906C22.4459 23.1282 25.4012 24.7299 28.3565 26.591H33.7702C36.2214 26.7387 37.5041 29.2227 35.1238 30.8546C33.2246 32.2464 30.7209 32.1679 28.1534 31.9375C26.3834 31.8502 26.3057 34.2305 28.1534 34.238C28.7943 34.2875 29.4919 34.1377 30.1014 34.1369C33.306 34.1339 35.9457 33.5211 37.5604 30.9897L38.373 29.0946L46.4268 25.1018C50.457 23.7746 53.3204 27.9908 50.3521 30.9217C44.5187 35.1656 38.5358 38.6586 32.4174 41.4788C27.9733 44.1818 23.5296 44.0903 19.0855 41.4788L12.5205 38.0958ZM42.8381 13.2612C42.7247 13.1831 42.5955 13.1483 42.4649 13.1743C42.3352 13.2003 42.2223 13.2696 42.1443 13.3825L41.7023 14.0062C41.5466 13.9369 41.3816 13.8849 41.2078 13.8417C41.0349 13.7984 40.87 13.7636 40.697 13.7376L40.5577 12.9229C40.5321 12.7839 40.4624 12.6798 40.3583 12.6022C40.2458 12.5241 40.1245 12.4981 39.986 12.5241L38.9627 12.7063C38.833 12.7323 38.7289 12.7932 38.642 12.9057C38.564 13.0186 38.5295 13.1399 38.5551 13.2784L38.6857 14.0238C38.5207 14.0935 38.365 14.1711 38.2177 14.2668C38.0699 14.3533 37.9234 14.4574 37.7929 14.5615L37.0995 14.0847C36.987 14.0066 36.8657 13.9722 36.7356 13.9982C36.6051 14.0242 36.493 14.0935 36.4149 14.2064L35.8256 15.0471C35.7476 15.1596 35.7132 15.2897 35.7388 15.4198C35.7652 15.5588 35.8349 15.6624 35.9469 15.7405L36.5707 16.1825C36.5018 16.3386 36.4494 16.5032 36.4057 16.6765C36.3621 16.8499 36.3276 17.0144 36.3016 17.1877L35.4878 17.3267C35.3484 17.3527 35.2452 17.422 35.1662 17.526C35.0882 17.639 35.063 17.7603 35.0882 17.8988L35.2703 18.9216C35.2968 19.0518 35.3572 19.1554 35.4705 19.2423C35.583 19.3204 35.7043 19.3548 35.8428 19.3288L36.5879 19.1987C36.6575 19.3632 36.7356 19.5193 36.8305 19.6667C36.9174 19.814 37.0214 19.9613 37.1255 20.0998L36.6483 20.7844C36.5702 20.8969 36.5358 21.0186 36.5623 21.1483C36.5879 21.2784 36.6575 21.3909 36.7696 21.469L37.6187 22.0671C37.7321 22.1452 37.8622 22.1708 37.9919 22.1452C38.1224 22.1192 38.2345 22.0587 38.3214 21.9458L38.7633 21.3133C38.919 21.3825 39.084 21.4346 39.2578 21.4778C39.4307 21.521 39.5957 21.5559 39.7686 21.5819L39.9079 22.3962C39.9335 22.5351 40.0032 22.6388 40.1073 22.7168C40.2198 22.7953 40.3411 22.8209 40.4796 22.7953L41.5029 22.6132C41.6326 22.5872 41.7367 22.5267 41.8236 22.4138C41.9016 22.3009 41.9361 22.1796 41.9105 22.0407L41.7799 21.2956C41.9449 21.2264 42.1006 21.1483 42.2479 21.053C42.3957 20.9662 42.5422 20.8621 42.6815 20.7584L43.3661 21.2352C43.4786 21.3133 43.5999 21.3481 43.7384 21.3217C43.8777 21.2956 43.981 21.2264 44.0599 21.1139L44.6576 20.2644C44.7357 20.1519 44.7617 20.0218 44.7357 19.8916C44.7101 19.7615 44.6496 19.649 44.5363 19.5622L43.9033 19.1286C43.973 18.9724 44.0246 18.8079 44.0683 18.6346C44.1119 18.4612 44.1464 18.2967 44.1724 18.1233L44.9871 17.9844C45.1256 17.9584 45.2297 17.8891 45.3078 17.785C45.3858 17.6721 45.4118 17.5508 45.3858 17.4123L45.2037 16.3894C45.1772 16.2593 45.1168 16.1552 45.0043 16.0687C44.8918 15.9907 44.7705 15.9558 44.6312 15.9819L43.8861 16.112C43.8173 15.9558 43.7384 15.7997 43.6435 15.644C43.5566 15.4878 43.4526 15.3493 43.3493 15.2196L43.8257 14.5262C43.9038 14.4133 43.939 14.292 43.9126 14.1623C43.8861 14.0326 43.8173 13.9197 43.7044 13.8417L42.8641 13.2524L42.8381 13.2612ZM39.8655 15.6704C40.1337 15.6268 40.4024 15.6268 40.6714 15.688C40.9312 15.7489 41.1659 15.8526 41.382 15.9999C41.5902 16.1472 41.7715 16.3382 41.9189 16.5632C42.0662 16.7882 42.1615 17.04 42.2051 17.3086C42.2488 17.5773 42.2488 17.8459 42.1879 18.1145C42.127 18.3743 42.0229 18.6085 41.8756 18.8251C41.7287 19.0333 41.5377 19.215 41.3124 19.3624C41.087 19.5097 40.836 19.605 40.5673 19.6486C40.2983 19.6919 40.0305 19.6919 39.7614 19.631C39.5016 19.5701 39.267 19.4665 39.0508 19.3191C38.8427 19.1718 38.6605 18.9808 38.5132 18.7559C38.3663 18.5305 38.2706 18.279 38.2269 18.0104C38.1841 17.7418 38.1841 17.4732 38.245 17.2045C38.3058 16.9447 38.4099 16.7105 38.5564 16.4939C38.7041 16.2857 38.8951 16.104 39.1197 15.9567C39.3447 15.8089 39.5965 15.7137 39.8655 15.6704ZM31.9956 3.51924C31.9519 3.47601 31.9175 3.44998 31.8743 3.43235C31.8399 3.41514 31.7962 3.40633 31.7438 3.40633C31.6921 3.40633 31.6485 3.41514 31.6141 3.43235C31.5796 3.44998 31.536 3.47601 31.5007 3.51042L31.4923 3.51924L30.5127 4.49847C30.3226 4.68902 30.0191 4.71505 29.8021 4.55933C29.6896 4.49007 29.5767 4.4204 29.447 4.35114C29.3085 4.28189 29.178 4.21221 29.0567 4.15177C28.9261 4.09091 28.7876 4.03047 28.6491 3.97842C28.5278 3.93519 28.3893 3.88314 28.2243 3.8311C27.9905 3.75303 27.8432 3.53645 27.8432 3.30224V1.80338C27.8432 1.75133 27.8344 1.69929 27.8168 1.66445C27.7991 1.62961 27.7731 1.58638 27.7387 1.56036C27.7043 1.52552 27.669 1.4995 27.6346 1.48229C27.6002 1.46466 27.5477 1.45584 27.4961 1.45584H25.6077C25.5557 1.45584 25.5125 1.46466 25.4776 1.47347C25.4428 1.4911 25.3995 1.51671 25.3563 1.56036C25.3215 1.59519 25.2955 1.62961 25.2866 1.66445C25.2694 1.69929 25.2606 1.75133 25.2606 1.80338V3.18135C25.2606 3.4588 25.0612 3.68377 24.8014 3.73582C24.6541 3.77066 24.5156 3.80507 24.3943 3.83991C24.2554 3.88356 24.1257 3.9268 23.9867 3.97842C23.8566 4.03047 23.7181 4.08252 23.588 4.15177C23.4491 4.21263 23.3278 4.28189 23.2065 4.34275C22.9811 4.46405 22.7212 4.42082 22.5479 4.24705L21.4646 3.17254C21.4566 3.16373 21.4566 3.16373 21.4566 3.15533C21.4218 3.12049 21.3869 3.09447 21.3525 3.07726C21.3177 3.06005 21.2833 3.06005 21.2312 3.06005C21.1792 3.06005 21.1359 3.06887 21.1011 3.08608C21.0574 3.1037 21.023 3.12931 20.9798 3.17296L19.6623 4.49889C19.6186 4.54212 19.5926 4.57696 19.5754 4.62019C19.5577 4.65503 19.5493 4.69826 19.5493 4.75031C19.5493 4.80235 19.5582 4.84558 19.5754 4.88042C19.5926 4.91526 19.6186 4.95849 19.6534 4.99333V5.00214L20.6327 5.98137C20.8236 6.17235 20.8497 6.4754 20.6935 6.69198C20.6243 6.80488 20.555 6.91737 20.4858 7.04749C20.4161 7.186 20.3468 7.31611 20.2864 7.43742C20.2255 7.56753 20.1647 7.70604 20.113 7.84497C20.0698 7.96628 20.0178 8.10479 19.9657 8.26974C19.8876 8.50353 19.6711 8.65086 19.4369 8.65086H17.9376C17.8855 8.65086 17.8335 8.65967 17.7991 8.67688C17.7642 8.69451 17.7298 8.72011 17.695 8.74655C17.6601 8.78097 17.6341 8.81581 17.6257 8.85023C17.6085 8.88507 17.5997 8.93711 17.5997 8.98916V10.8784C17.5997 10.9304 17.6085 10.9736 17.6173 11.0085C17.6345 11.0433 17.6606 11.0865 17.7042 11.1298C17.739 11.1646 17.7735 11.1906 17.8083 11.199C17.8431 11.2167 17.8952 11.2251 17.9472 11.2251H19.3252C19.6027 11.2251 19.828 11.4244 19.8801 11.6847C19.9145 11.832 19.9493 11.9705 19.9842 12.0834C20.0274 12.2219 20.0711 12.3608 20.1227 12.4994C20.1747 12.6295 20.2268 12.768 20.296 12.9069C20.3657 13.0542 20.4262 13.1844 20.487 13.3057C20.5999 13.5311 20.5563 13.7909 20.3829 13.9558L19.308 15.0219L19.2992 15.0308C19.2643 15.0656 19.2383 15.1 19.2211 15.1348C19.2039 15.1697 19.2039 15.2045 19.2039 15.2561C19.2039 15.3082 19.2127 15.3514 19.2299 15.3863C19.2471 15.4295 19.2732 15.4731 19.3164 15.5076L20.6251 16.8339C20.66 16.8687 20.7032 16.8948 20.7464 16.912C20.7901 16.9296 20.8333 16.938 20.8853 16.938C20.9374 16.938 20.9894 16.9292 21.0327 16.912C21.0671 16.8948 21.1107 16.8687 21.1456 16.8427L22.1164 15.8547C22.307 15.6553 22.6104 15.6381 22.827 15.7854C22.9399 15.8547 23.052 15.9244 23.1821 15.9936C23.321 16.0629 23.4507 16.1321 23.572 16.193C23.7022 16.2538 23.8407 16.3143 23.9796 16.3663C24.1009 16.4096 24.2398 16.4616 24.4044 16.5137C24.6386 16.5917 24.7859 16.8083 24.7859 17.0425V18.5418C24.7859 18.5938 24.7947 18.6459 24.8119 18.6807C24.8291 18.7156 24.8552 18.7588 24.8812 18.7848C24.9504 18.8541 25.0285 18.8801 25.1326 18.8801H27.0222C27.0738 18.8801 27.1175 18.8713 27.1519 18.8625C27.1863 18.8453 27.23 18.8192 27.2732 18.776C27.3076 18.7412 27.3341 18.7063 27.3429 18.6719C27.3601 18.6371 27.3693 18.585 27.3693 18.533V17.155C27.3693 16.8776 27.5687 16.6522 27.8285 16.6001C27.9754 16.5653 28.1148 16.5309 28.2361 16.496C28.3746 16.4524 28.5043 16.4091 28.6436 16.3571C28.7733 16.3051 28.9118 16.253 29.0504 16.1838C29.1981 16.1145 29.3282 16.0536 29.4495 15.9932C29.6749 15.8803 29.9347 15.9239 30.0997 16.0973L31.1654 17.1722L31.1742 17.181C31.2086 17.2159 31.243 17.2419 31.2774 17.2591C31.3127 17.2767 31.3564 17.2767 31.408 17.2767C31.4604 17.2767 31.5033 17.2679 31.5385 17.2507C31.5729 17.2331 31.6074 17.2071 31.6426 17.1726C31.651 17.1638 31.6598 17.1554 31.6682 17.1554L32.9857 15.8551C33.021 15.8203 33.0466 15.777 33.0638 15.7338C33.0819 15.6906 33.0903 15.6469 33.0903 15.5953C33.0903 15.5432 33.0819 15.4912 33.0638 15.448C33.0466 15.4131 33.021 15.3699 32.995 15.3351L32.0069 14.3642C31.8067 14.1737 31.7895 13.8702 31.9373 13.6536C32.0069 13.5407 32.0758 13.4282 32.1454 13.2981C32.2143 13.1596 32.284 13.0295 32.3448 12.9082C32.4057 12.7781 32.4661 12.6396 32.5177 12.5006C32.5614 12.3793 32.6139 12.2408 32.6655 12.0759C32.7436 11.8416 32.9597 11.6947 33.1944 11.6947H34.6936C34.7461 11.6947 34.7977 11.6859 34.8321 11.6683C34.8666 11.6511 34.9102 11.6251 34.9362 11.599C35.0059 11.5298 35.0315 11.4517 35.0315 11.3476V9.45842C35.0315 9.40637 35.0231 9.36314 35.0143 9.3283C34.9971 9.29388 34.9706 9.25023 34.9274 9.207C34.893 9.17258 34.8586 9.14614 34.8242 9.13774C34.7889 9.12053 34.7373 9.11172 34.6856 9.11172H33.3068C33.0298 9.11172 32.796 8.90353 32.7528 8.64372C32.7184 8.52242 32.6831 8.3923 32.6487 8.26261C32.605 8.13249 32.5618 7.99356 32.501 7.84665C32.501 7.83784 32.4926 7.82902 32.4926 7.82021C32.4401 7.6817 32.3885 7.5604 32.336 7.4391C32.2751 7.30898 32.2147 7.17886 32.1459 7.05756C32.0246 6.83217 32.0678 6.57235 32.2411 6.399L33.3161 5.31568C33.3161 5.30687 33.3249 5.30687 33.3333 5.30687C33.3677 5.27245 33.3941 5.23761 33.4114 5.20277C33.4286 5.16794 33.4286 5.13352 33.4286 5.08147C33.4286 5.02901 33.4202 4.98577 33.403 4.95136C33.3857 4.9077 33.3593 4.87329 33.3161 4.83005L31.9897 3.51252L31.9956 3.51924ZM32.3079 2.4015C32.49 2.47957 32.6458 2.58366 32.7843 2.72217L34.1106 4.0397H34.119C34.2575 4.17863 34.3616 4.33435 34.4397 4.5077C34.5186 4.68986 34.553 4.87161 34.553 5.07098C34.553 5.27077 34.5094 5.46133 34.4397 5.63468C34.3616 5.80802 34.2575 5.96375 34.111 6.09386L33.3308 6.88253C33.3396 6.90856 33.3572 6.93458 33.3652 6.9606C33.4349 7.10793 33.4957 7.26407 33.5562 7.41097C33.5562 7.41979 33.565 7.4286 33.565 7.43742C33.6258 7.58474 33.6775 7.74928 33.7299 7.92263L33.7471 7.98349H34.7003C34.8997 7.98349 35.0899 8.01832 35.2636 8.09639C35.4365 8.16565 35.5923 8.27856 35.7316 8.41707L35.74 8.42588C35.8785 8.56439 35.9826 8.72053 36.0523 8.89388C36.1211 9.06723 36.1648 9.25779 36.1648 9.44876V11.338C36.1648 11.7455 36.0263 12.0918 35.74 12.3781C35.6015 12.517 35.4365 12.6295 35.2636 12.6987C35.0899 12.768 34.8997 12.8028 34.7003 12.8028H33.5902C33.5818 12.8288 33.5646 12.8637 33.5557 12.8897C33.4949 13.0458 33.4252 13.2016 33.3564 13.3577C33.2783 13.5222 33.2086 13.6784 33.131 13.8169L33.1045 13.8689L33.7807 14.5363L33.8072 14.5623C33.9457 14.7013 34.0409 14.8658 34.1106 15.0391C34.1795 15.2125 34.2147 15.3947 34.2147 15.594C34.2147 15.7846 34.1795 15.9668 34.1106 16.1401C34.0409 16.3134 33.9457 16.4696 33.8072 16.6169L33.7899 16.6341L32.4636 17.9517C32.3251 18.099 32.1685 18.2031 31.9956 18.2811C31.8227 18.3592 31.6317 18.3936 31.4235 18.3936C31.2241 18.3936 31.034 18.3504 30.8514 18.2811C30.6693 18.2031 30.5135 18.0906 30.3843 17.9517L29.6128 17.1718C29.5864 17.189 29.5603 17.1978 29.5259 17.2066C29.3782 17.2675 29.2224 17.3367 29.0579 17.3972C28.9022 17.458 28.7372 17.5101 28.5727 17.5621C28.5463 17.571 28.529 17.5798 28.503 17.5798V18.5242C28.503 18.7235 28.4686 18.9141 28.3905 19.0874C28.3209 19.2608 28.2084 19.4169 28.0699 19.5554L28.0611 19.5643C27.9225 19.7028 27.7668 19.8069 27.5931 19.8761C27.4201 19.9458 27.2291 19.989 27.039 19.989H25.1494C24.7418 19.989 24.3955 19.8505 24.1093 19.5643C23.9708 19.4253 23.8579 19.2608 23.7886 19.0874C23.7194 18.9141 23.6845 18.7235 23.6845 18.5242V17.4123C23.6585 17.4035 23.6237 17.3863 23.5976 17.3775C23.4415 17.3166 23.2858 17.2473 23.1296 17.1781C22.9647 17.1 22.809 17.0308 22.67 16.9527L22.618 16.9267L21.9506 17.6029L21.9246 17.6289C21.7857 17.7678 21.6211 17.8631 21.4478 17.9323C21.2744 18.0016 21.0927 18.0364 20.8933 18.0364C20.7028 18.0364 20.5206 18.0016 20.3473 17.9323C20.1739 17.8627 20.0178 17.7674 19.8704 17.6289L19.8528 17.6117L18.5269 16.2681C18.3884 16.1292 18.2843 15.9735 18.2062 15.8001C18.1281 15.618 18.0937 15.4362 18.0937 15.2368C18.0937 15.0375 18.137 14.8469 18.2062 14.6736C18.2843 14.5002 18.3972 14.3441 18.5357 14.2056L19.3156 13.4341C19.2983 13.4081 19.2895 13.3821 19.2811 13.3472C19.2203 13.1999 19.151 13.0438 19.0902 12.8792C19.0293 12.7143 18.9689 12.5585 18.9256 12.394L18.908 12.3243H17.9636C17.7638 12.3243 17.5733 12.2899 17.3999 12.2118C17.2266 12.1426 17.0708 12.0297 16.9319 11.8912L16.9231 11.8824C16.7846 11.7438 16.6805 11.5877 16.6112 11.4144C16.542 11.241 16.4983 11.0505 16.4983 10.8599V8.97069C16.4983 8.77132 16.5332 8.58916 16.6024 8.40741C16.6717 8.23406 16.7846 8.07834 16.9231 7.9306C17.062 7.79209 17.2266 7.67918 17.3999 7.60993C17.5733 7.54025 17.7638 7.50583 17.9636 7.50583H19.073C19.0818 7.47981 19.099 7.44497 19.1078 7.41937C19.1686 7.26323 19.2379 7.10709 19.3072 6.95137C19.3852 6.78642 19.4545 6.6307 19.5326 6.49177L19.5586 6.43972L18.8912 5.76395C18.7523 5.62544 18.6398 5.4693 18.5705 5.28714C18.4925 5.10498 18.4576 4.91442 18.4576 4.72386C18.4576 4.52407 18.4925 4.34233 18.5705 4.16058C18.6486 3.97842 18.7523 3.82228 18.8912 3.68377L20.2087 2.35784V2.34945C20.3477 2.21094 20.5034 2.10685 20.6767 2.02878C20.8589 1.95071 21.0406 1.91587 21.24 1.91587C21.4398 1.91587 21.6304 1.9591 21.8033 2.02878C21.9766 2.10685 22.1328 2.21094 22.2629 2.35784L23.0512 3.1377C23.0776 3.12889 23.1036 3.11168 23.1208 3.10328C23.2682 3.03361 23.4243 2.97317 23.5888 2.90391C23.745 2.84305 23.9095 2.79101 24.074 2.73938C24.1001 2.73056 24.1173 2.72175 24.1433 2.72175V1.77736C24.1433 1.57799 24.1781 1.38743 24.2562 1.21408C24.3259 1.04073 24.4384 0.885012 24.5769 0.746081L24.5857 0.737267C24.7246 0.598756 24.8803 0.494663 25.0537 0.425407C25.227 0.356152 25.4172 0.3125 25.6077 0.3125H27.4969C27.6963 0.3125 27.878 0.347338 28.0602 0.416593C28.2424 0.485849 28.3989 0.598756 28.5374 0.737267C28.676 0.875778 28.7884 1.04073 28.8581 1.21408C28.927 1.38743 28.9622 1.57799 28.9622 1.77736V2.8867C28.9878 2.89552 29.0231 2.91273 29.0483 2.92154C29.2048 2.9824 29.3605 3.05166 29.5163 3.12091C29.6812 3.19898 29.8369 3.26824 29.9763 3.34631L30.0279 3.37233L30.7041 2.70496C30.8426 2.56603 30.9983 2.45354 31.1805 2.38429C31.3626 2.30622 31.5536 2.27138 31.7438 2.27138C31.944 2.27138 32.1257 2.30622 32.3079 2.38429V2.4015ZM26.3183 5.91128C26.6046 5.91128 26.8904 5.93772 27.1674 5.99816C27.4365 6.05021 27.7051 6.13667 27.9733 6.24958C28.2252 6.36249 28.4678 6.49219 28.6932 6.63951C28.9186 6.78684 29.1267 6.96018 29.3169 7.15074C29.5079 7.34172 29.6808 7.54948 29.8285 7.78369C29.9843 8.00909 30.1148 8.25127 30.2189 8.50269C30.2273 8.52032 30.2273 8.53753 30.2361 8.54592C30.3402 8.79734 30.4183 9.05758 30.4699 9.30857C30.5223 9.58601 30.5568 9.87185 30.5568 10.1577C30.5568 10.4435 30.5303 10.7298 30.4699 11.0072C30.4183 11.2758 30.3314 11.5445 30.2189 11.8131C30.1056 12.0645 29.9763 12.3071 29.8285 12.5325C29.6728 12.7579 29.5079 12.9657 29.3169 13.1651C29.1267 13.356 28.9186 13.5294 28.6839 13.6767C28.4594 13.8328 28.2159 13.9625 27.9649 14.0666C27.9477 14.0754 27.9305 14.0754 27.9213 14.0838C27.6694 14.1879 27.4096 14.266 27.1591 14.3181C26.8812 14.3701 26.5949 14.4049 26.3099 14.4049C26.0237 14.4049 25.7378 14.3789 25.4604 14.3181C25.1918 14.266 24.9227 14.1791 24.6541 14.0666C24.4027 13.9537 24.1601 13.8236 23.9347 13.6767C23.7093 13.5294 23.5015 13.356 23.311 13.1651C23.1204 12.9745 22.9471 12.7663 22.7993 12.5325C22.6436 12.3071 22.5135 12.0645 22.4094 11.8131C22.4006 11.7959 22.4006 11.7783 22.3918 11.7699C22.2877 11.5185 22.2096 11.2586 22.158 11.0072C22.1059 10.7298 22.0711 10.4439 22.0711 10.1577C22.0711 9.87143 22.0971 9.5856 22.158 9.30857C22.21 9.03995 22.2965 8.77132 22.4094 8.50269C22.5219 8.25127 22.652 8.00867 22.7993 7.78369C22.9471 7.5583 23.1204 7.35011 23.311 7.15074C23.5015 6.96018 23.7097 6.78684 23.9347 6.63951C24.1601 6.48337 24.4027 6.35325 24.6541 6.24958C24.6717 6.24077 24.6889 6.24077 24.6978 6.23195C24.9492 6.12786 25.209 6.05021 25.4604 5.99816C25.7378 5.94612 26.0237 5.91128 26.3099 5.91128H26.3183ZM26.9513 7.08988C26.7519 7.04665 26.5349 7.02902 26.3183 7.02902C26.1018 7.02902 25.894 7.04665 25.6858 7.08988C25.4864 7.13311 25.3047 7.18516 25.1313 7.25483C25.1225 7.26365 25.1137 7.26365 25.0965 7.27204C24.8971 7.35893 24.715 7.45421 24.5504 7.56669C24.3859 7.67918 24.2298 7.8009 24.0912 7.93941C23.9523 8.07834 23.8226 8.23406 23.7185 8.39902C23.6056 8.56355 23.5103 8.74572 23.4239 8.94509C23.3454 9.12725 23.2849 9.3262 23.2417 9.53439C23.1985 9.73376 23.1809 9.95034 23.1809 10.1669C23.1809 10.3835 23.1985 10.5913 23.2417 10.7995C23.2854 10.9988 23.3374 11.1806 23.4062 11.3539C23.4151 11.3627 23.4151 11.3711 23.4239 11.3888C23.5103 11.5881 23.606 11.7699 23.7185 11.9348C23.831 12.0998 23.9523 12.2555 24.0912 12.394C24.2298 12.5329 24.3859 12.6626 24.5504 12.7667C24.715 12.8796 24.8971 12.9749 25.0965 13.0614C25.2787 13.1394 25.478 13.1999 25.6858 13.2435C25.8856 13.2872 26.1022 13.3044 26.3183 13.3044C26.5345 13.3044 26.7431 13.2872 26.9513 13.2435C27.1507 13.1999 27.3324 13.1483 27.5062 13.079C27.5146 13.0702 27.5234 13.0702 27.5406 13.0614C27.74 12.9745 27.9217 12.8792 28.0867 12.7667C28.2516 12.6542 28.4073 12.5329 28.5458 12.394C28.6844 12.2551 28.8149 12.0994 28.919 11.9348C29.0315 11.7699 29.1272 11.5881 29.2132 11.3888C29.2913 11.2066 29.3517 11.0072 29.3954 10.7995C29.439 10.6001 29.4562 10.3835 29.4562 10.1669C29.4562 9.95034 29.439 9.74216 29.3954 9.53439C29.3517 9.33502 29.3001 9.15285 29.2304 8.9795C29.222 8.97069 29.222 8.9623 29.2132 8.94467C29.1272 8.7453 29.031 8.56313 28.919 8.3986C28.8057 8.23364 28.6844 8.07792 28.5458 7.93899C28.4073 7.80048 28.2516 7.67037 28.0867 7.56627C27.9217 7.45337 27.74 7.35809 27.5406 7.27162C27.3588 7.19439 27.1595 7.13311 26.9513 7.08988ZM0 21.1089H10.4223V39.6521H0V21.1089Z" fill="#029894"/>
</svg>
