<svg width="47" height="34" viewBox="0 0 47 34" fill="none" xmlns="http://www.w3.org/2000/svg">
<path d="M13.2569 0.499023C13.1404 0.499023 13.0142 0.499023 12.8977 0.508594C9.6063 0.585156 5.56735 1.53262 0.538086 3.73379V27.0279C6.44117 24.2717 10.8976 23.4773 14.5385 23.8602C15.8686 23.9941 17.092 24.2908 18.2182 24.6832L13.8394 17.1418C13.0045 17.4768 12.1015 17.6682 11.15 17.6682C7.24604 17.6682 4.06246 14.5291 4.06246 10.6818C4.06246 6.83457 7.24604 3.69551 11.15 3.69551C15.0531 3.69551 18.2376 6.83457 18.2376 10.6818C18.2376 12.9787 17.1017 15.0172 15.354 16.2996L20.9173 25.8699C21.5193 26.1762 22.0921 26.5111 22.6552 26.8461V3.59023C20.4027 1.89629 17.7813 0.719141 14.3055 0.527735C13.9657 0.508594 13.6161 0.499023 13.2569 0.499023ZM33.84 0.499023C33.4808 0.499023 33.1215 0.508594 32.7817 0.527735C29.3059 0.719141 26.6942 1.89629 24.432 3.59023V26.8461C26.7524 25.4488 29.2962 24.1951 32.5487 23.8602C36.1896 23.4773 40.6557 24.2717 46.5491 27.0279V3.73379C41.5295 1.53262 37.4906 0.585156 34.1992 0.508594C34.073 0.508594 33.9565 0.499023 33.84 0.499023ZM11.15 5.41816C8.19073 5.41816 5.81008 7.76289 5.81008 10.6818C5.81008 13.6008 8.19073 15.9455 11.15 15.9455C14.1113 15.9455 16.49 13.6008 16.49 10.6818C16.49 7.76289 14.1113 5.41816 11.15 5.41816ZM11.3733 6.74844H11.6452C9.30533 8.49023 8.2684 10.7775 8.4053 13.4668C5.87513 9.75352 8.5286 6.825 11.3733 6.74844ZM12.6452 25.5541C9.53834 25.5828 5.67415 26.492 0.538086 28.9994V33.0668C6.44117 30.3105 10.8976 29.5162 14.5385 29.899C16.3444 30.0904 17.9269 30.5594 19.3736 31.1719C18.9172 31.7557 18.4706 32.4447 18.024 33.2486H23.1989L19.7037 27.248C18.092 26.4537 16.3735 25.8508 14.354 25.6402C13.8103 25.5828 13.2375 25.5541 12.6452 25.5541ZM34.0924 25.5541C33.6264 25.5637 33.1798 25.5924 32.7429 25.6402C29.4418 25.9848 26.9563 27.3629 24.432 28.9324V28.9611C23.8397 28.7793 23.2378 28.741 22.6552 28.8463L25.2087 33.2486H29.403C28.8204 32.4639 28.2573 31.7748 27.6845 31.1814C29.1408 30.5594 30.7331 30.0904 32.5487 29.899C36.1896 29.5162 40.6557 30.3105 46.5491 33.0668V28.9994C41.3936 26.4824 37.51 25.5637 34.3934 25.5541H34.0924Z" fill="#029894"/>
</svg>
