<svg width="51" height="50" viewBox="0 0 51 50" fill="none" xmlns="http://www.w3.org/2000/svg">
<path d="M15.2569 8.49902C15.1404 8.49902 15.0142 8.49902 14.8977 8.50859C11.6063 8.58516 7.56735 9.53262 2.53809 11.7338V35.0279C8.44117 32.2717 12.8976 31.4773 16.5385 31.8602C17.8686 31.9941 19.092 32.2908 20.2182 32.6832L15.8394 25.1418C15.0045 25.4768 14.1015 25.6682 13.15 25.6682C9.24604 25.6682 6.06246 22.5291 6.06246 18.6818C6.06246 14.8346 9.24604 11.6955 13.15 11.6955C17.0531 11.6955 20.2376 14.8346 20.2376 18.6818C20.2376 20.9787 19.1017 23.0172 17.354 24.2996L22.9173 33.8699C23.5193 34.1762 24.0921 34.5111 24.6552 34.8461V11.5902C22.4027 9.89629 19.7813 8.71914 16.3055 8.52773C15.9657 8.50859 15.6161 8.49902 15.2569 8.49902ZM35.84 8.49902C35.4808 8.49902 35.1215 8.50859 34.7817 8.52773C31.3059 8.71914 28.6942 9.89629 26.432 11.5902V34.8461C28.7524 33.4488 31.2962 32.1951 34.5487 31.8602C38.1896 31.4773 42.6557 32.2717 48.5491 35.0279V11.7338C43.5295 9.53262 39.4906 8.58516 36.1992 8.50859C36.073 8.50859 35.9565 8.49902 35.84 8.49902ZM13.15 13.4182C10.1907 13.4182 7.81008 15.7629 7.81008 18.6818C7.81008 21.6008 10.1907 23.9455 13.15 23.9455C16.1113 23.9455 18.49 21.6008 18.49 18.6818C18.49 15.7629 16.1113 13.4182 13.15 13.4182ZM13.3733 14.7484H13.6452C11.3053 16.4902 10.2684 18.7775 10.4053 21.4668C7.87513 17.7535 10.5286 14.825 13.3733 14.7484ZM14.6452 33.5541C11.5383 33.5828 7.67415 34.492 2.53809 36.9994V41.0668C8.44117 38.3105 12.8976 37.5162 16.5385 37.899C18.3444 38.0904 19.9269 38.5594 21.3736 39.1719C20.9172 39.7557 20.4706 40.4447 20.024 41.2486H25.1989L21.7037 35.248C20.092 34.4537 18.3735 33.8508 16.354 33.6402C15.8103 33.5828 15.2375 33.5541 14.6452 33.5541ZM36.0924 33.5541C35.6264 33.5637 35.1798 33.5924 34.7429 33.6402C31.4418 33.9848 28.9563 35.3629 26.432 36.9324V36.9611C25.8397 36.7793 25.2378 36.741 24.6552 36.8463L27.2087 41.2486H31.403C30.8204 40.4639 30.2573 39.7748 29.6845 39.1814C31.1408 38.5594 32.7331 38.0904 34.5487 37.899C38.1896 37.5162 42.6557 38.3105 48.5491 41.0668V36.9994C43.3936 34.4824 39.51 33.5637 36.3934 33.5541H36.0924Z" fill="#029894"/>
</svg>
