<svg width="62" height="50" viewBox="0 0 62 50" fill="none" xmlns="http://www.w3.org/2000/svg">
<path d="M20.2052 33.8442C19.9765 33.8442 19.7478 33.8777 19.5296 33.9486C18.2893 34.3515 16.9848 34.6099 15.6115 34.6099C14.2381 34.6099 12.9337 34.3515 11.6924 33.9486C11.4742 33.8777 11.2465 33.8442 11.0177 33.8442C5.0784 33.8442 0.267401 38.6753 0.298983 44.6223C0.312381 47.1355 2.37861 49.1567 4.89273 49.1567H26.3302C28.8444 49.1567 30.9106 47.1355 30.924 44.6223C30.9556 38.6753 26.1446 33.8442 20.2052 33.8442ZM15.6115 30.7817C20.6857 30.7817 24.799 26.6684 24.799 21.5942C24.799 16.5201 20.6857 12.4067 15.6115 12.4067C10.5373 12.4067 6.42398 16.5201 6.42398 21.5942C6.42398 26.6684 10.5373 30.7817 15.6115 30.7817ZM56.9552 0.156738H20.2052C17.672 0.156738 15.6115 2.28613 15.6115 4.90266V9.34424C17.8529 9.34424 19.9277 9.99311 21.7365 11.0478V6.28174H55.424V33.8442H49.299V27.7192H37.049V33.8442H29.7526C31.5805 35.4415 32.9223 37.5508 33.551 39.9692H56.9552C59.4885 39.9692 61.549 37.8398 61.549 35.2233V4.90266C61.549 2.28613 59.4885 0.156738 56.9552 0.156738Z" fill="#029894"/>
</svg>
