<svg width="43" height="41" viewBox="0 0 43 41" fill="none" xmlns="http://www.w3.org/2000/svg">
<path d="M21.4336 13.0994C23.058 13.0994 24.616 12.4541 25.7646 11.3054C26.9133 10.1567 27.5586 8.59882 27.5586 6.97437C27.5586 5.34991 26.9133 3.792 25.7646 2.64334C24.616 1.49468 23.058 0.849365 21.4336 0.849365C19.8091 0.849365 18.2512 1.49468 17.1026 2.64334C15.9539 3.792 15.3086 5.34991 15.3086 6.97437C15.3086 8.59882 15.9539 10.1567 17.1026 11.3054C18.2512 12.4541 19.8091 13.0994 21.4336 13.0994ZM12.2461 7.73999C12.2461 8.44379 12.1075 9.1407 11.8381 9.79093C11.5688 10.4412 11.174 11.032 10.6764 11.5296C10.1787 12.0273 9.58789 12.4221 8.93766 12.6914C8.28743 12.9607 7.59052 13.0994 6.88672 13.0994C6.18292 13.0994 5.486 12.9607 4.83577 12.6914C4.18555 12.4221 3.59473 12.0273 3.09707 11.5296C2.59941 11.032 2.20464 10.4412 1.9353 9.79093C1.66597 9.1407 1.52734 8.44379 1.52734 7.73999C1.52734 6.3186 2.09199 4.95542 3.09707 3.95034C4.10215 2.94526 5.46532 2.38062 6.88672 2.38062C8.30811 2.38062 9.67129 2.94526 10.6764 3.95034C11.6814 4.95542 12.2461 6.3186 12.2461 7.73999ZM41.3398 7.73999C41.3398 8.44379 41.2012 9.1407 40.9319 9.79093C40.6626 10.4412 40.2678 11.032 39.7701 11.5296C39.2725 12.0273 38.6816 12.4221 38.0314 12.6914C37.3812 12.9607 36.6843 13.0994 35.9805 13.0994C35.2767 13.0994 34.5798 12.9607 33.9295 12.6914C33.2793 12.4221 32.6885 12.0273 32.1908 11.5296C31.6932 11.032 31.2984 10.4412 31.0291 9.79093C30.7597 9.1407 30.6211 8.44379 30.6211 7.73999C30.6211 6.3186 31.1857 4.95542 32.1908 3.95034C33.1959 2.94526 34.5591 2.38062 35.9805 2.38062C37.4019 2.38062 38.765 2.94526 39.7701 3.95034C40.7752 4.95542 41.3398 6.3186 41.3398 7.73999ZM11.2921 16.1619C10.4208 17.2473 9.94692 18.5981 9.94922 19.99V31.4744C9.94922 33.3655 10.4055 35.1494 11.2156 36.722C10.0485 37.3356 8.74284 37.6374 7.42492 37.5983C6.10699 37.5591 4.82151 37.1803 3.693 36.4984C2.56449 35.8166 1.63119 34.8548 0.983501 33.7064C0.335816 32.5579 -0.00430087 31.2616 -0.00390591 29.9431V19.99C-0.00390591 18.9747 0.399413 18.001 1.11733 17.2831C1.83524 16.5652 2.80894 16.1619 3.82422 16.1619H11.2921ZM31.6516 36.722C32.4865 35.0989 32.9207 33.2996 32.918 31.4744V19.99C32.918 18.5414 32.4157 17.2108 31.5751 16.1619H39.043C40.0583 16.1619 41.0319 16.5652 41.7499 17.2831C42.4678 18.001 42.8711 18.9747 42.8711 19.99V29.9431C42.8715 31.2616 42.5314 32.5579 41.8837 33.7064C41.236 34.8548 40.3027 35.8166 39.1742 36.4984C38.0457 37.1803 36.7602 37.5591 35.4423 37.5983C34.1243 37.6374 32.8186 37.3356 31.6516 36.722ZM16.0742 16.1619C15.0589 16.1619 14.0852 16.5652 13.3673 17.2831C12.6494 18.001 12.2461 18.9747 12.2461 19.99V31.4744C12.2461 33.911 13.2141 36.2479 14.9371 37.9709C16.66 39.6939 18.9969 40.6619 21.4336 40.6619C23.8703 40.6619 26.2071 39.6939 27.9301 37.9709C29.6531 36.2479 30.6211 33.911 30.6211 31.4744V19.99C30.6211 18.9747 30.2178 18.001 29.4999 17.2831C28.7819 16.5652 27.8083 16.1619 26.793 16.1619H16.0742Z" fill="#029894"/>
</svg>
