<svg xmlns="http://www.w3.org/2000/svg" width="222" height="269" fill="none"><path fill="url(#a)" d="M180.633 189.551c47.385 15.503 54.692 43.595 16.319 62.741-38.374 19.146-107.887 22.101-155.268 6.598-47.38-15.503-54.691-43.599-16.322-62.745s107.891-22.101 155.271-6.594Z" style="mix-blend-mode:multiply"/><path fill="#029894" d="M111.103 225.968c-22.791 0-44.286-3.096-62.17-8.947-25.134-8.224-39.56-20.922-40.622-35.76-.52-7.308 2.097-21.308 25.514-32.993 19.172-9.569 47.38-15.059 77.388-15.059 22.787 0 44.286 3.096 62.15 8.946 25.13 8.225 39.555 20.926 40.618 35.765.523 7.303-2.094 21.308-25.51 32.993-19.156 9.565-47.36 15.055-77.368 15.055Z" opacity=".2" style="mix-blend-mode:multiply"/><path fill="#029894" d="M170.977 149.741c40.798 13.349 47.086 37.533 14.049 54.019-33.038 16.486-92.89 19.029-133.704 5.68-40.814-13.349-47.086-37.536-14.053-54.022 33.034-16.486 92.893-19.026 133.708-5.677Z" style="mix-blend-mode:multiply"/><g style="mix-blend-mode:multiply"><path fill="url(#b)" d="M158.783 155.817c32.494 10.631 37.503 29.876 11.191 43.026-26.311 13.15-73.982 15.154-106.472 4.519-32.49-10.635-37.506-29.877-11.19-43.022 26.315-13.146 73.998-15.154 106.471-4.523Z"/><path fill="url(#c)" d="M158.783 155.817c32.494 10.631 37.503 29.876 11.191 43.026-26.311 13.15-73.982 15.154-106.472 4.519-32.49-10.635-37.506-29.877-11.19-43.022 26.315-13.146 73.998-15.154 106.471-4.523Z"/><path fill="url(#d)" d="M158.783 155.817c32.494 10.631 37.503 29.876 11.191 43.026-26.311 13.15-73.982 15.154-106.472 4.519-32.49-10.635-37.506-29.877-11.19-43.022 26.315-13.146 73.998-15.154 106.471-4.523Z"/></g><path fill="#029894" d="M111.103 241.753c-22.791 0-44.286-3.092-62.17-8.947-25.134-8.22-39.56-20.922-40.622-35.76-.52-7.304 2.097-21.308 25.514-32.993 19.172-9.569 47.38-15.055 77.388-15.055 22.787 0 44.286 3.091 62.15 8.946 25.13 8.221 39.555 20.922 40.618 35.761.523 7.307-2.094 21.308-25.51 32.993-19.156 9.569-47.36 15.055-77.368 15.055Z" opacity=".2" style="mix-blend-mode:multiply"/><path fill="#E6EBED" d="M178.937 152.201h-13.419a70.914 70.914 0 0 0-11.706-4.917c-29.088-9.519-71.767-7.706-95.326 4.046-.573.286-1.112.577-1.636.871H43.533v14.739c-1.227 8.515 7.36 17.134 24.99 22.91 29.089 9.519 71.767 7.706 95.323-4.046 10.173-5.079 15.104-11.179 15.096-17.237l-.005-16.366Z"/><path fill="#FAFDFF" d="M153.812 130.918c29.091 9.519 33.577 26.765 10.017 38.516-23.559 11.752-66.238 13.569-95.322 4.05-29.083-9.519-33.577-26.764-10.021-38.52 23.555-11.756 66.238-13.565 95.326-4.046Z"/><path fill="url(#e)" d="M111.084 179.701c37.474 0 67.853-12.312 67.853-27.499s-30.379-27.499-67.853-27.499c-37.475 0-67.853 12.312-67.853 27.499s30.378 27.499 67.853 27.499Z" style="mix-blend-mode:multiply"/><path fill="#E6EBED" d="M178.937 125.097h-13.419a70.828 70.828 0 0 0-11.706-4.917c-29.088-9.519-71.767-7.71-95.326 4.046-.573.286-1.112.577-1.636.871H43.533v14.735c-1.227 8.515 7.36 17.134 24.99 22.91 29.089 9.519 71.767 7.705 95.323-4.05 10.173-5.075 15.104-11.175 15.096-17.233l-.005-16.362Z"/><path fill="#FAFDFF" d="M153.812 103.809c29.091 9.519 33.577 26.765 10.017 38.521-23.559 11.755-66.238 13.568-95.322 4.049-29.083-9.519-33.577-26.764-10.021-38.52 23.555-11.755 66.238-13.564 95.326-4.05Z"/><path fill="url(#f)" d="M111.085 139.342c19.409 0 35.143-6.378 35.143-14.245 0-7.868-15.734-14.245-35.143-14.245-19.41 0-35.144 6.377-35.144 14.245 0 7.867 15.734 14.245 35.144 14.245Z" opacity=".25" style="mix-blend-mode:multiply"/><path fill="#029894" d="M108.982 23.706c0 5.048-1.156 8.862-3.467 11.44-2.312 2.578-5.423 3.866-9.335 3.863-3.95 0-7.084-1.288-9.404-3.863-2.32-2.575-3.475-6.389-3.467-11.44v-7.86c0-5.05 1.147-8.863 3.442-11.436C89.046 1.838 92.166.55 96.111.543c3.933 0 7.058 1.293 9.375 3.88 2.317 2.586 3.477 6.394 3.48 11.423l.016 7.86Zm-8.525-8.449c0-2.857-.372-4.911-1.116-6.162a3.57 3.57 0 0 0-1.346-1.399 3.5 3.5 0 0 0-1.868-.476 3.435 3.435 0 0 0-1.864.47 3.504 3.504 0 0 0-1.334 1.405c-.72 1.25-1.078 3.305-1.075 6.162v8.988c0 2.907.363 4.982 1.088 6.224.33.567.8 1.037 1.364 1.363a3.69 3.69 0 0 0 3.7 0 3.76 3.76 0 0 0 1.363-1.363c.723-1.245 1.085-3.32 1.088-6.224v-8.988ZM121.204 16.178h4.024c1.534 0 2.715-.415 3.541-1.245.826-.83 1.234-1.993 1.226-3.49a4.216 4.216 0 0 0-1.112-2.979c-.744-.805-1.819-1.207-3.238-1.207a4.693 4.693 0 0 0-2.936.975 3.02 3.02 0 0 0-.939 1.1c-.22.44-.331.926-.324 1.419h-8.301l-.049-.154c-.101-2.98 1.054-5.393 3.463-7.24 2.41-1.849 5.338-2.774 8.783-2.777 3.994 0 7.19.93 9.588 2.789 2.399 1.859 3.597 4.487 3.594 7.884a7.803 7.803 0 0 1-1.557 4.684 10.437 10.437 0 0 1-4.163 3.35 9.945 9.945 0 0 1 4.633 3.352 8.765 8.765 0 0 1 1.668 5.394c0 3.428-1.291 6.121-3.872 8.08-2.581 1.958-5.878 2.937-9.891 2.937a15.276 15.276 0 0 1-9.073-2.76c-2.587-1.841-3.839-4.508-3.757-8l.053-.153h8.349a3.893 3.893 0 0 0 .35 1.668c.239.522.59.983 1.028 1.349a4.864 4.864 0 0 0 3.353 1.22 4.989 4.989 0 0 0 3.594-1.282 4.28 4.28 0 0 0 1.014-1.472c.231-.558.343-1.16.327-1.765 0-1.812-.469-3.134-1.407-3.967-.937-.833-2.257-1.248-3.958-1.245h-4.023l.012-6.465Z"/><path fill="#029894" fill-rule="evenodd" d="m103.857 68.671 15.505-6.467 13.369 13.772-6.239 15.456c-10.581 2.931-20.437 7.21-29.743 12.514l-1.889-2.345 18.455-18.298c.371.17.774.255 1.181.255h.005a2.883 2.883 0 1 0-2.883-2.882c0 .515.135.998.372 1.414l-18.262 18.146-2.533-2.314c5.572-9.122 9.833-18.849 12.662-29.25Zm19.922-10.048 12.949 13.267-1.182 1.15-1.181 1.15-12.949-13.27 1.182-1.151 1.181-1.146Zm-30.602 48.053c6.07 5.586 9.642 3.151 14.695-.304 4.18-2.856 9.234-6.306 16.896-7.448a4.446 4.446 0 0 1 4.257-3.173 4.44 4.44 0 0 1 4.44 4.44 4.439 4.439 0 0 1-8.392 2.023c-6.857 1.088-11.499 4.257-15.344 6.879-6.476 4.423-11.001 7.511-18.933-.107a4.474 4.474 0 0 1-1.674.327h-.004a4.44 4.44 0 1 1 4.44-4.44v.004c0 .622-.13 1.231-.38 1.799Z" clip-rule="evenodd"/><defs><radialGradient id="a" cx="0" cy="0" r="1" gradientTransform="matrix(107.502 0 0 42.5488 111.157 211.928)" gradientUnits="userSpaceOnUse"><stop stop-color="#7FD4F9"/><stop offset="1" stop-color="#fff"/></radialGradient><radialGradient id="b" cx="0" cy="0" r="1" gradientTransform="rotate(-21.812 523.872 -209.127) scale(57.9042 39.9502)" gradientUnits="userSpaceOnUse"><stop stop-color="#7FD4F9"/><stop offset=".43" stop-color="#81D5F9"/><stop offset=".58" stop-color="#88D7F9"/><stop offset=".69" stop-color="#93DBFA"/><stop offset=".78" stop-color="#A4E1FB"/><stop offset=".86" stop-color="#BAE8FC"/><stop offset=".92" stop-color="#D6F1FD"/><stop offset=".98" stop-color="#F5FCFF"/><stop offset="1" stop-color="#fff"/></radialGradient><radialGradient id="c" cx="0" cy="0" r="1" gradientTransform="rotate(-21.812 523.872 -209.127) scale(57.9042 39.9502)" gradientUnits="userSpaceOnUse"><stop stop-color="#80E3C8"/><stop offset=".43" stop-color="#82E3C9"/><stop offset=".58" stop-color="#89E5CC"/><stop offset=".69" stop-color="#94E8D1"/><stop offset=".78" stop-color="#A5EBD8"/><stop offset=".86" stop-color="#BBF0E2"/><stop offset=".93" stop-color="#D7F6ED"/><stop offset=".99" stop-color="#F6FDFB"/><stop offset="1" stop-color="#fff"/></radialGradient><radialGradient id="d" cx="0" cy="0" r="1" gradientTransform="rotate(-21.812 523.872 -209.127) scale(57.9042 39.9502)" gradientUnits="userSpaceOnUse"><stop stop-color="#7FD4F9"/><stop offset=".43" stop-color="#81D5F9"/><stop offset=".58" stop-color="#88D7F9"/><stop offset=".69" stop-color="#93DBFA"/><stop offset=".78" stop-color="#A4E1FB"/><stop offset=".86" stop-color="#BAE8FC"/><stop offset=".92" stop-color="#D6F1FD"/><stop offset=".98" stop-color="#F5FCFF"/><stop offset="1" stop-color="#fff"/></radialGradient><radialGradient id="e" cx="0" cy="0" r="1" gradientTransform="matrix(67.6449 0 0 25.4004 111.084 155.451)" gradientUnits="userSpaceOnUse"><stop stop-color="#7FD4F9"/><stop offset="1" stop-color="#fff"/></radialGradient><radialGradient id="f" cx="0" cy="0" r="1" gradientTransform="matrix(35.0368 0 0 13.1562 111.085 128.309)" gradientUnits="userSpaceOnUse"><stop stop-color="#7FD4F9"/><stop offset="1" stop-color="#fff"/></radialGradient></defs></svg>