<svg xmlns="http://www.w3.org/2000/svg" width="222" height="270" fill="none"><path fill="url(#a)" d="M180.133 190.179c47.385 15.507 54.692 43.6 16.319 62.746-38.374 19.145-107.887 22.1-155.268 6.593-47.38-15.507-54.691-43.595-16.322-62.741s107.891-22.088 155.271-6.598Z" style="mix-blend-mode:multiply"/><path fill="#001C63" d="M110.603 225.885c-22.787 0-44.29-3.091-62.174-8.942-25.13-8.224-39.555-20.926-40.618-35.761-.52-7.307 2.097-21.308 25.514-32.997 19.172-9.564 47.38-15.054 77.388-15.054 22.791 0 44.286 3.095 62.17 8.946 25.134 8.22 39.559 20.922 40.618 35.761.524 7.307-2.093 21.308-25.51 32.993-19.176 9.569-47.385 15.054-77.388 15.054Z" opacity=".2" style="mix-blend-mode:multiply"/><path fill="#001C63" d="M170.475 149.658c40.798 13.349 47.087 37.537 14.049 54.023-33.037 16.486-92.889 19.025-133.683 5.676-40.794-13.349-47.086-37.536-14.053-54.018 33.034-16.482 92.889-19.03 133.687-5.681Z" style="mix-blend-mode:multiply"/><g style="mix-blend-mode:multiply"><path fill="url(#b)" d="M158.299 155.733c32.494 10.636 37.502 29.877 11.191 43.027-26.311 13.15-73.982 15.154-106.472 4.523-32.49-10.631-37.506-29.898-11.191-43.027 26.315-13.129 73.982-15.154 106.472-4.523Z"/><path fill="url(#c)" d="M158.299 155.733c32.494 10.636 37.502 29.877 11.191 43.027-26.311 13.15-73.982 15.154-106.472 4.523-32.49-10.631-37.506-29.898-11.191-43.027 26.315-13.129 73.982-15.154 106.472-4.523Z"/><path fill="url(#d)" d="M158.299 155.733c32.494 10.636 37.502 29.877 11.191 43.027-26.311 13.15-73.982 15.154-106.472 4.523-32.49-10.631-37.506-29.898-11.191-43.027 26.315-13.129 73.982-15.154 106.472-4.523Z"/></g><path fill="#001C63" d="M110.603 241.675c-22.787 0-44.29-3.096-62.174-8.947-25.13-8.224-39.555-20.922-40.618-35.76-.52-7.308 2.097-21.308 25.514-32.993 19.172-9.569 47.38-15.059 77.388-15.059 22.791 0 44.286 3.096 62.17 8.946 25.134 8.225 39.559 20.922 40.618 35.761.524 7.307-2.093 21.308-25.51 32.997-19.176 9.565-47.385 15.055-77.388 15.055Z" opacity=".2" style="mix-blend-mode:multiply"/><path fill="#E6E6E8" d="M178.436 152.119h-13.419a71.578 71.578 0 0 0-11.706-4.917c-29.088-9.519-71.767-7.706-95.326 4.05-.573.286-1.112.576-1.636.867H43.016v14.743c-1.227 8.511 7.36 17.134 24.99 22.91 29.088 9.519 71.767 7.705 95.322-4.05 10.173-5.075 15.104-11.175 15.096-17.233l.012-16.37Z"/><path fill="#FDFDFF" d="M153.312 130.836c29.091 9.52 33.577 26.765 10.017 38.521-23.559 11.755-66.238 13.569-95.322 4.05-29.083-9.519-33.577-26.765-10.021-38.521 23.555-11.755 66.238-13.569 95.326-4.05Z"/><path fill="url(#e)" d="M110.657 179.588c37.433 0 67.78-12.298 67.78-27.47 0-15.171-30.347-27.47-67.78-27.47-37.434 0-67.78 12.299-67.78 27.47 0 15.172 30.346 27.47 67.78 27.47Z" style="mix-blend-mode:multiply"/><path fill="#E6E6E8" d="M178.436 125.013h-13.419a71.666 71.666 0 0 0-11.706-4.917c-29.088-9.519-71.767-7.705-95.326 4.05-.573.287-1.112.577-1.636.867H43.016v14.744c-1.227 8.51 7.36 17.133 24.99 22.909 29.088 9.519 71.767 7.706 95.322-4.05 10.173-5.074 15.104-11.174 15.096-17.237l.012-16.366Z"/><path fill="#FDFDFF" d="M153.312 103.732c29.091 9.519 33.577 26.764 10.017 38.52-23.559 11.755-66.238 13.565-95.322 4.046-29.083-9.519-33.577-26.765-10.021-38.516 23.555-11.752 66.238-13.57 95.326-4.05Z"/><path fill="url(#f)" d="M110.657 139.26c19.409 0 35.143-6.378 35.143-14.245 0-7.868-15.734-14.245-35.143-14.245-19.41 0-35.143 6.377-35.143 14.245 0 7.867 15.734 14.245 35.143 14.245Z" opacity=".25" style="mix-blend-mode:multiply"/><path fill="#001C63" d="M108.56 23.706c0 5.048-1.155 8.862-3.467 11.44-2.312 2.578-5.423 3.866-9.335 3.863-3.95 0-7.084-1.288-9.404-3.863-2.32-2.575-3.475-6.389-3.467-11.44v-7.86c0-5.05 1.147-8.863 3.442-11.436C88.626 1.838 91.745.55 95.69.543c3.928 0 7.053 1.293 9.375 3.88 2.323 2.586 3.483 6.394 3.48 11.423l.016 7.86Zm-8.529-8.449c0-2.857-.37-4.911-1.112-6.162a3.57 3.57 0 0 0-1.346-1.399 3.5 3.5 0 0 0-1.868-.476 3.436 3.436 0 0 0-1.864.47 3.505 3.505 0 0 0-1.333 1.405c-.72 1.25-1.078 3.305-1.076 6.162v8.988c0 2.907.363 4.982 1.088 6.224.316.586.786 1.07 1.358 1.398a3.487 3.487 0 0 0 1.88.461c.65.023 1.291-.14 1.854-.468a3.51 3.51 0 0 0 1.331-1.39c.728-1.245 1.091-3.32 1.088-6.225v-8.988ZM113.662 22.037l2.126-20.955h21.605v6.677h-14.65l-.936 7.834c.726-.541 1.54-.95 2.404-1.207a11.29 11.29 0 0 1 3.165-.515c3.609-.066 6.384.999 8.324 3.195 1.941 2.197 2.91 5.317 2.908 9.361a12.82 12.82 0 0 1-3.312 8.922c-2.211 2.44-5.374 3.66-9.49 3.66a14.616 14.616 0 0 1-9.135-2.955 8.94 8.94 0 0 1-2.864-3.412 9.092 9.092 0 0 1-.881-4.393l.053-.153 8.349-.515c0 1.488.409 2.653 1.227 3.494.429.422.939.75 1.498.964.559.214 1.156.31 1.753.28 1.553 0 2.655-.553 3.303-1.66a8.21 8.21 0 0 0 .973-4.198c0-2.053-.362-3.67-1.087-4.851s-1.873-1.772-3.443-1.772a4.706 4.706 0 0 0-2.768.743 3.855 3.855 0 0 0-1.456 1.875l-7.666-.419Z"/><path fill="#001C63" fill-rule="evenodd" d="M85.807 69.263h41.76c2.73 0 2.583 1.105 2.345 3.925l-1.553 19.797c-.264 3.156-.04 2.39-3.384 2.87l-30.713 3.907 1.624 4.713h33.082c.448 1.674 1.056 4.4 1.504 6.266h-5.497l-.528-1.907H98.013c-6.065-.103-5.457 1.54-6.911-3.701l-10.42-37.88h-5.004v-3.63h8.777c.407 1.526.971 4.096 1.352 5.64Zm18.288 4.995h7.95v8.065h7.152l-11.118 10.819-11.136-10.819h7.152v-8.065Zm-4.386 35.879a4.246 4.246 0 0 1 4.243 4.243 4.24 4.24 0 0 1-4.243 4.243 4.243 4.243 0 0 1 0-8.486Zm17.501 0a4.243 4.243 0 1 1 0 8.485 4.243 4.243 0 0 1 0-8.485Z" clip-rule="evenodd"/><defs><radialGradient id="a" cx="0" cy="0" r="1" gradientTransform="matrix(107.502 0 0 42.5488 110.657 212.554)" gradientUnits="userSpaceOnUse"><stop stop-color="#2A48D0"/><stop offset="1" stop-color="#fff"/></radialGradient><radialGradient id="b" cx="0" cy="0" r="1" gradientTransform="matrix(53.75844 -21.51545 14.84431 37.08996 116.687 179.603)" gradientUnits="userSpaceOnUse"><stop stop-color="#8EDBDC"/><stop offset=".44" stop-color="#90DCDD"/><stop offset=".6" stop-color="#97DEDF"/><stop offset=".71" stop-color="#A2E2E2"/><stop offset=".8" stop-color="#B3E7E8"/><stop offset=".88" stop-color="#C9EEEE"/><stop offset=".95" stop-color="#E4F6F7"/><stop offset="1" stop-color="#fff"/></radialGradient><radialGradient id="c" cx="0" cy="0" r="1" gradientTransform="matrix(53.75844 -21.51545 14.84431 37.08996 116.687 179.603)" gradientUnits="userSpaceOnUse"><stop stop-color="#80E3C8"/><stop offset=".43" stop-color="#82E3C9"/><stop offset=".58" stop-color="#89E5CC"/><stop offset=".69" stop-color="#94E8D1"/><stop offset=".78" stop-color="#A5EBD8"/><stop offset=".86" stop-color="#BBF0E2"/><stop offset=".93" stop-color="#D7F6ED"/><stop offset=".99" stop-color="#F6FDFB"/><stop offset="1" stop-color="#fff"/></radialGradient><radialGradient id="d" cx="0" cy="0" r="1" gradientTransform="matrix(53.75844 -21.51545 14.84431 37.08996 116.687 179.603)" gradientUnits="userSpaceOnUse"><stop stop-color="#2A48D0"/><stop offset=".39" stop-color="#2C4AD0"/><stop offset=".53" stop-color="#334FD2"/><stop offset=".62" stop-color="#3E5AD5"/><stop offset=".71" stop-color="#4F68D8"/><stop offset=".77" stop-color="#657BDD"/><stop offset=".83" stop-color="#8192E3"/><stop offset=".89" stop-color="#A1AEEA"/><stop offset=".94" stop-color="#C7CFF3"/><stop offset=".99" stop-color="#F0F2FC"/><stop offset="1" stop-color="#fff"/></radialGradient><radialGradient id="e" cx="0" cy="0" r="1" gradientTransform="matrix(67.5713 0 0 25.3728 110.657 155.369)" gradientUnits="userSpaceOnUse"><stop stop-color="#2A48D0"/><stop offset="1" stop-color="#fff"/></radialGradient><radialGradient id="f" cx="0" cy="0" r="1" gradientTransform="matrix(35.0369 0 0 13.1562 110.657 128.228)" gradientUnits="userSpaceOnUse"><stop stop-color="#2A48D0"/><stop offset="1" stop-color="#fff"/></radialGradient></defs></svg>