<svg xmlns="http://www.w3.org/2000/svg" width="222" height="263" fill="none"><path fill="url(#a)" d="M180.386 183.528c47.381 15.507 54.688 43.6 16.319 62.746-38.37 19.145-107.887 22.1-155.272 6.593-47.385-15.507-54.688-43.595-16.318-62.741 38.369-19.146 107.886-22.1 155.271-6.598Z" style="mix-blend-mode:multiply"/><path fill="#001C63" d="M108.297 219.946c-22.787 0-44.286-3.091-62.17-8.942-25.13-8.225-39.555-20.926-40.618-35.761-.524-7.307 2.097-21.308 25.51-32.997 19.176-9.569 47.385-15.055 77.388-15.055 22.791 0 44.29 3.096 62.174 8.947 25.13 8.22 39.555 20.922 40.618 35.76.524 7.308-2.097 21.308-25.514 32.993-19.172 9.569-47.381 15.055-77.388 15.055Z" opacity=".2" style="mix-blend-mode:multiply"/><path fill="#001C63" d="M168.173 143.719c40.794 13.349 47.087 37.536 14.049 54.022-33.037 16.486-92.889 19.026-133.703 5.677-40.814-13.349-47.087-37.537-14.05-54.019 33.038-16.482 92.906-19.029 133.704-5.68Z" style="mix-blend-mode:multiply"/><g style="mix-blend-mode:multiply"><path fill="url(#b)" d="M155.996 149.792c32.49 10.635 37.502 29.898 11.191 43.027-26.311 13.129-73.995 15.154-106.476 4.543-32.481-10.61-37.502-29.876-11.191-43.026 26.311-13.15 73.983-15.175 106.476-4.544Z"/><path fill="url(#c)" d="M155.996 149.792c32.49 10.635 37.502 29.898 11.191 43.027-26.311 13.129-73.995 15.154-106.476 4.543-32.481-10.61-37.502-29.876-11.191-43.026 26.311-13.15 73.983-15.175 106.476-4.544Z"/><path fill="url(#d)" d="M155.996 149.792c32.49 10.635 37.502 29.898 11.191 43.027-26.311 13.129-73.995 15.154-106.476 4.543-32.481-10.61-37.502-29.876-11.191-43.026 26.311-13.15 73.983-15.175 106.476-4.544Z"/></g><path fill="#001C63" d="M108.297 235.735c-22.787 0-44.286-3.095-62.17-8.946-25.13-8.225-39.555-20.922-40.618-35.761-.524-7.307 2.097-21.308 25.51-32.997 19.176-9.544 47.385-15.054 77.388-15.054 22.791 0 44.29 3.095 62.174 8.946 25.13 8.224 39.555 20.922 40.618 35.761.524 7.307-2.097 21.307-25.514 32.993-19.172 9.568-47.381 15.058-77.388 15.058Z" opacity=".2" style="mix-blend-mode:multiply"/><path fill="#E5E7EA" d="M176.13 146.177h-13.428A71.588 71.588 0 0 0 151 141.26c-29.092-9.519-71.77-7.705-95.326 4.05-.572.287-1.116.577-1.656.867H40.701v14.744c-1.227 8.51 7.36 17.133 24.99 22.909 29.093 9.519 71.771 7.706 95.327-4.05 10.173-5.074 15.104-11.174 15.096-17.237l.016-16.366Z"/><path fill="#FDFEFF" d="M151.008 124.895c29.088 9.519 33.573 26.765 10.018 38.52-23.556 11.756-66.239 13.569-95.326 4.05-29.088-9.519-33.574-26.764-10.018-38.52 23.556-11.756 66.234-13.569 95.326-4.05Z"/><path fill="url(#e)" d="M108.279 173.678c37.475 0 67.854-12.312 67.854-27.499 0-15.188-30.379-27.499-67.854-27.499-37.474 0-67.853 12.311-67.853 27.499 0 15.187 30.379 27.499 67.853 27.499Z" style="mix-blend-mode:multiply"/><path fill="#E5E7EA" d="M176.13 119.074h-13.428A71.5 71.5 0 0 0 151 114.157c-29.092-9.519-71.77-7.706-95.326 4.05-.572.286-1.116.577-1.656.867H40.701v14.743c-1.227 8.511 7.36 17.134 24.99 22.91 29.093 9.519 71.771 7.706 95.327-4.05 10.173-5.075 15.104-11.175 15.096-17.237l.016-16.366Z"/><path fill="#FDFEFF" d="M151.008 97.773c29.088 9.52 33.573 26.765 10.018 38.521-23.556 11.755-66.239 13.564-95.326 4.045-29.088-9.519-33.574-26.764-10.018-38.516 23.556-11.751 66.234-13.552 95.326-4.05Z"/><path fill="url(#f)" d="M108.28 133.319c19.409 0 35.143-6.378 35.143-14.246 0-7.867-15.734-14.245-35.143-14.245-19.41 0-35.143 6.378-35.143 14.245 0 7.868 15.734 14.246 35.143 14.246Z" opacity=".25" style="mix-blend-mode:multiply"/><path fill="#001C63" d="M106.178 23.764c0 5.049-1.156 8.862-3.468 11.44-2.311 2.579-5.424 3.867-9.338 3.864-3.945 0-7.08-1.288-9.405-3.863-2.325-2.576-3.48-6.39-3.467-11.44v-7.86c0-5.051 1.146-8.865 3.439-11.44C86.23 1.889 89.352.602 93.302.602c3.928 0 7.053 1.292 9.376 3.875 2.322 2.584 3.482 6.393 3.479 11.428l.021 7.86Zm-8.53-8.448c0-2.858-.37-4.912-1.112-6.162a3.577 3.577 0 0 0-1.346-1.398 3.508 3.508 0 0 0-1.867-.478c-.654-.023-1.3.14-1.866.472a3.513 3.513 0 0 0-1.336 1.404c-.714 1.25-1.072 3.304-1.075 6.162v8.988c0 2.907.362 4.982 1.087 6.224.316.586.786 1.07 1.358 1.4.572.329 1.224.49 1.88.463.65.023 1.294-.14 1.857-.47a3.512 3.512 0 0 0 1.333-1.393c.728-1.242 1.09-3.317 1.087-6.224v-8.988ZM133.147 23.967h3.721v6.677h-3.721v7.884h-8.55v-7.884h-14.274l-.503-5.3L124.597 1.22v-.078h8.55v22.826Zm-15.689 0h7.139V12.415l-.155-.054-.658 1.058-6.326 10.548ZM116.145 106.706h-.778c-.287 0-.569-.078-.816-.227l-1.45-.875a10.485 10.485 0 0 1-4.721-6.317h-6.404a10.477 10.477 0 0 1-4.722 6.317l-1.45.875a1.576 1.576 0 0 1-.816.227h-.778c-.87 0-1.577.707-1.577 1.578h25.09a1.576 1.576 0 0 0-1.578-1.578ZM82.563 95.713a1.95 1.95 0 0 0 1.95 1.95h41.328a1.95 1.95 0 0 0 1.95-1.95v-2.525H82.563v2.525ZM115.886 83.411h-.867v-7.408a.943.943 0 0 0-1.885 0v7.408h-.868c-.011 0-.024 0-.036.021-.013.022-.006.033 0 .043l1.809 3.134c.006.01.013.022.037.022.025 0 .031-.012.037-.022l1.81-3.134c.005-.01.012-.021 0-.043-.013-.021-.026-.021-.037-.021ZM121.537 75.082c-.006-.01-.013-.021-.037-.021-.025 0-.031.01-.037.02l-1.81 3.135c-.005.01-.012.022 0 .043.013.021.026.021.037.021h.867v7.408a.943.943 0 0 0 1.885 0V78.28h.868c.011 0 .024 0 .036-.021.013-.021.006-.033 0-.043l-1.809-3.134Z"/><path fill="#001C63" d="M125.841 65.96H84.513a1.95 1.95 0 0 0-1.95 1.95v23.651h45.228v-23.65a1.95 1.95 0 0 0-1.95-1.95Zm-4.132 3.307h1.82c.447 0 .813.366.813.813a.815.815 0 0 1-.813.812h-1.82a.815.815 0 0 1-.812-.812c0-.447.366-.813.812-.813Zm-5.427 0h1.82c.447 0 .812.366.812.813a.814.814 0 0 1-.812.812h-1.82a.815.815 0 0 1-.813-.812c0-.447.366-.813.813-.813Zm-30.096 5.89h6.5a.813.813 0 0 1 0 1.626h-6.5a.813.813 0 0 1 0-1.625Zm0 3.25h2.21a.812.812 0 1 1 0 1.626h-2.21a.813.813 0 0 1 0-1.625Zm0 3.25h2.21a.812.812 0 1 1 0 1.626h-2.21a.813.813 0 0 1 0-1.625Zm6.5 4.876h-6.5a.813.813 0 0 1 0-1.625h6.5a.813.813 0 0 1 0 1.625Zm1.322-3.25h-2.21a.813.813 0 0 1 0-1.625h2.21a.812.812 0 1 1 0 1.625Zm12.936 3.25H96.369a.812.812 0 1 1 0-1.625h10.575a.813.813 0 0 1 0 1.625Zm0-3.25h-9.209a.813.813 0 0 1 0-1.625h9.209a.813.813 0 0 1 0 1.625Zm0-3.25H91.798a.813.813 0 0 1 0-1.625h15.146a.812.812 0 0 1 0 1.625Zm0-3.25H96.369a.812.812 0 1 1 0-1.625h10.575a.813.813 0 0 1 0 1.625Zm3.098-6.703c0-.447.366-.813.812-.813h1.82c.447 0 .813.366.813.813a.815.815 0 0 1-.813.812h-1.82a.815.815 0 0 1-.812-.812Zm7.287 14.207-1.81 3.134a1.65 1.65 0 0 1-1.444.834 1.65 1.65 0 0 1-1.444-.834l-1.81-3.134a1.652 1.652 0 0 1 0-1.668c.166-.287.405-.511.687-.654v-5.962a2.57 2.57 0 0 1 2.567-2.568 2.57 2.57 0 0 1 2.568 2.568v5.962c.281.143.52.367.686.654a1.652 1.652 0 0 1 0 1.668Zm7.425-5.216a1.662 1.662 0 0 1-.686.654v5.963a2.57 2.57 0 0 1-2.568 2.567 2.57 2.57 0 0 1-2.567-2.567v-5.963a1.665 1.665 0 0 1-.687-.654 1.652 1.652 0 0 1 0-1.668l1.81-3.134a1.65 1.65 0 0 1 1.444-.834 1.65 1.65 0 0 1 1.444.834l1.81 3.134a1.652 1.652 0 0 1 0 1.668Z"/><defs><radialGradient id="a" cx="0" cy="0" r="1" gradientTransform="matrix(107.502 0 0 42.5488 110.91 205.136)" gradientUnits="userSpaceOnUse"><stop stop-color="#5A9BFB"/><stop offset="1" stop-color="#fff"/></radialGradient><radialGradient id="b" cx="0" cy="0" r="1" gradientTransform="rotate(-21.812 505.242 -207.791) scale(57.9042 39.9502)" gradientUnits="userSpaceOnUse"><stop stop-color="#7FD4F9"/><stop offset=".43" stop-color="#81D5F9"/><stop offset=".58" stop-color="#88D7F9"/><stop offset=".69" stop-color="#93DBFA"/><stop offset=".78" stop-color="#A4E1FB"/><stop offset=".86" stop-color="#BAE8FC"/><stop offset=".92" stop-color="#D6F1FD"/><stop offset=".98" stop-color="#F5FCFF"/><stop offset="1" stop-color="#fff"/></radialGradient><radialGradient id="c" cx="0" cy="0" r="1" gradientTransform="rotate(-21.812 505.242 -207.791) scale(57.9042 39.9502)" gradientUnits="userSpaceOnUse"><stop stop-color="#80E3C8"/><stop offset=".43" stop-color="#82E3C9"/><stop offset=".58" stop-color="#89E5CC"/><stop offset=".69" stop-color="#94E8D1"/><stop offset=".78" stop-color="#A5EBD8"/><stop offset=".86" stop-color="#BBF0E2"/><stop offset=".93" stop-color="#D7F6ED"/><stop offset=".99" stop-color="#F6FDFB"/><stop offset="1" stop-color="#fff"/></radialGradient><radialGradient id="d" cx="0" cy="0" r="1" gradientTransform="rotate(-21.812 505.242 -207.791) scale(57.9042 39.9502)" gradientUnits="userSpaceOnUse"><stop stop-color="#5A9BFB"/><stop offset=".41" stop-color="#5C9CFB"/><stop offset=".55" stop-color="#63A0FB"/><stop offset=".66" stop-color="#6EA7FB"/><stop offset=".74" stop-color="#7FB2FC"/><stop offset=".81" stop-color="#95BFFC"/><stop offset=".88" stop-color="#B1CFFD"/><stop offset=".94" stop-color="#D1E3FE"/><stop offset=".99" stop-color="#F5F9FF"/><stop offset="1" stop-color="#fff"/></radialGradient><radialGradient id="e" cx="0" cy="0" r="1" gradientTransform="matrix(67.6449 0 0 25.4005 108.279 149.633)" gradientUnits="userSpaceOnUse"><stop stop-color="#5A9BFB"/><stop offset="1" stop-color="#fff"/></radialGradient><radialGradient id="f" cx="0" cy="0" r="1" gradientTransform="matrix(35.0369 0 0 13.1562 108.28 122.491)" gradientUnits="userSpaceOnUse"><stop stop-color="#5A9BFB"/><stop offset="1" stop-color="#fff"/></radialGradient></defs></svg>