<svg xmlns="http://www.w3.org/2000/svg" width="222" height="264" fill="none"><path fill="url(#a)" d="M180.702 184.429c47.385 15.506 54.712 43.595 16.318 62.728-38.394 19.134-107.887 22.096-155.268 6.594-47.38-15.503-54.691-43.595-16.322-62.745 38.37-19.15 107.891-22.08 155.272-6.577Z" style="mix-blend-mode:multiply"/><path fill="#8EDBDC" d="M111.157 220.135c-22.787 0-44.285-3.095-62.15-8.946-25.129-8.22-39.554-20.922-40.617-35.761-.524-7.303 2.097-21.308 25.514-32.993 19.172-9.568 47.38-15.054 77.388-15.054 22.787 0 44.286 3.091 62.15 8.942 25.129 8.224 39.555 20.926 40.618 35.765.523 7.307-2.098 21.308-25.514 32.993-19.173 9.569-47.381 15.054-77.389 15.054Z" opacity=".2" style="mix-blend-mode:multiply"/><path fill="#029894" d="M171.031 143.909c40.794 13.349 47.087 37.536 14.049 54.018-33.037 16.482-92.889 19.03-133.703 5.681-40.814-13.349-47.09-37.537-14.053-54.023 33.037-16.486 92.909-19.029 133.707-5.676Z" style="mix-blend-mode:multiply"/><g style="mix-blend-mode:multiply"><path fill="url(#b)" d="M158.855 149.983c32.494 10.631 37.503 29.877 11.191 43.027-26.311 13.15-73.982 15.154-106.476 4.523-32.493-10.631-37.502-29.898-11.19-43.027 26.31-13.129 73.982-15.154 106.475-4.523Z"/><path fill="url(#c)" d="M158.855 149.983c32.494 10.631 37.503 29.877 11.191 43.027-26.311 13.15-73.982 15.154-106.476 4.523-32.493-10.631-37.502-29.898-11.19-43.027 26.31-13.129 73.982-15.154 106.475-4.523Z"/><path fill="url(#d)" d="M158.855 149.983c32.494 10.631 37.503 29.877 11.191 43.027-26.311 13.15-73.982 15.154-106.476 4.523-32.493-10.631-37.502-29.898-11.19-43.027 26.31-13.129 73.982-15.154 106.475-4.523Z"/></g><path fill="#8EDBDC" d="M111.157 235.92c-22.787 0-44.285-3.091-62.15-8.942-25.129-8.224-39.554-20.926-40.617-35.76-.524-7.308 2.097-21.308 25.514-32.993 19.172-9.569 47.38-15.059 77.388-15.059 22.787 0 44.286 3.096 62.15 8.946 25.129 8.221 39.555 20.922 40.618 35.761.523 7.307-2.098 21.308-25.514 32.993-19.173 9.569-47.381 15.054-77.389 15.054Z" opacity=".2" style="mix-blend-mode:multiply"/><path fill="#E6EDEB" d="M178.989 146.369h-13.424a70.994 70.994 0 0 0-11.702-4.917c-29.092-9.519-71.77-7.706-95.326 4.05-.572.282-1.112.576-1.635.867h-13.33v14.743c-1.226 8.511 7.36 17.134 24.987 22.91 29.091 9.515 71.77 7.705 95.326-4.05 10.173-5.075 15.104-11.175 15.096-17.237l.008-16.366Z"/><path fill="#FAFFFE" d="M153.867 125.086c29.088 9.519 33.573 26.765 10.018 38.52-23.556 11.756-66.238 13.565-95.326 4.046-29.088-9.519-33.573-26.764-10.018-38.52 23.556-11.756 66.235-13.565 95.326-4.046Z"/><path fill="url(#e)" d="M111.213 173.838c37.434 0 67.78-12.298 67.78-27.47 0-15.171-30.346-27.47-67.78-27.47-37.433 0-67.78 12.299-67.78 27.47 0 15.172 30.347 27.47 67.78 27.47Z" style="mix-blend-mode:multiply"/><path fill="#E6EDEB" d="M178.989 119.265h-13.424a70.666 70.666 0 0 0-11.702-4.917c-29.092-9.519-71.77-7.705-95.326 4.05-.572.282-1.112.577-1.635.867h-13.33v14.744c-1.226 8.51 7.36 17.129 24.987 22.905 29.091 9.519 71.77 7.71 95.326-4.046 10.173-5.079 15.104-11.179 15.096-17.237l.008-16.366Z"/><path fill="#FAFFFE" d="M153.867 97.983c29.088 9.519 33.573 26.764 10.018 38.52-23.556 11.755-66.238 13.565-95.326 4.046-29.088-9.519-33.573-26.765-10.018-38.521 23.556-11.755 66.235-13.564 95.326-4.045Z"/><path fill="url(#f)" d="M111.213 133.51c19.409 0 35.144-6.378 35.144-14.245 0-7.868-15.735-14.245-35.144-14.245s-35.143 6.377-35.143 14.245c0 7.867 15.734 14.245 35.143 14.245Z" opacity=".25" style="mix-blend-mode:multiply"/><path fill="#029894" d="M109.107 23.532c0 5.051-1.155 8.865-3.467 11.44-2.311 2.576-5.424 3.863-9.339 3.863-3.947 0-7.082-1.287-9.404-3.863-2.322-2.575-3.478-6.389-3.467-11.44v-7.86c0-5.05 1.147-8.864 3.442-11.44C89.169 1.657 92.288.37 96.233.37c3.928 0 7.053 1.294 9.375 3.88 2.323 2.587 3.483 6.394 3.48 11.424l.02 7.859Zm-8.529-8.448c0-2.86-.371-4.915-1.112-6.163a3.574 3.574 0 0 0-1.346-1.398 3.504 3.504 0 0 0-1.868-.477c-.653-.023-1.3.14-1.866.472a3.517 3.517 0 0 0-1.335 1.403c-.715 1.25-1.073 3.305-1.076 6.163v8.987c0 2.908.363 4.983 1.088 6.225a3.56 3.56 0 0 0 1.358 1.4 3.49 3.49 0 0 0 1.88.463c.65.022 1.293-.14 1.857-.47a3.512 3.512 0 0 0 1.332-1.393c.728-1.242 1.091-3.317 1.088-6.225v-8.988ZM139.326 38.296h-25.759v-5.648l11.857-12.635a25.264 25.264 0 0 0 3.312-4.673 8 8 0 0 0 1.063-3.568 5.182 5.182 0 0 0-1.075-3.444c-.714-.855-1.79-1.283-3.226-1.283a3.415 3.415 0 0 0-1.729.422c-.53.291-.976.718-1.293 1.238a7.475 7.475 0 0 0-1.1 4.225h-8.353l-.049-.154c-.076-1.62.182-3.24.757-4.754a11.696 11.696 0 0 1 2.583-4.039c2.312-2.407 5.373-3.61 9.184-3.61 4.048 0 7.207 1.01 9.478 3.03 2.27 2.019 3.404 4.785 3.401 8.298a11.082 11.082 0 0 1-1.807 6.266c-1.205 1.812-3.428 4.508-6.669 8.088l-4.984 5.419.074.153h14.335v6.669ZM89.331 101.704h41.694a2.882 2.882 0 0 0 2.881-2.882V74.288c0-1.59-1.29-2.88-2.881-2.88H89.331a2.88 2.88 0 0 0-2.88 2.88v24.534a2.881 2.881 0 0 0 2.88 2.882Zm1.525-26.425H129.5v21.876H90.856V75.28ZM137.251 109.698l-5.139-4.562c-.331-.292-.806-.458-1.308-.458H89.551c-.501 0-.977.166-1.307.458l-5.14 4.562c-.275.243-.426.557-.426.881v1.59c0 .371.387.669.866.669h53.268c.48 0 .866-.298.866-.669v-1.59c0-.324-.152-.638-.427-.881Zm-32.967.538 1.488-2.011h9.424l1.486 2.011h-12.398Z"/><path fill="#029894" d="m102.997 86.212-.477-.068c-1.222-.17-1.66-.597-1.66-1.22 0-.703.504-1.208 1.421-1.208.756 0 1.433.226 2.163.704l.186-.04.637-.983-.027-.185c-.717-.544-1.792-.901-2.919-.901-1.858 0-3.053 1.086-3.053 2.72 0 1.499.982 2.335 2.72 2.574l.479.066c1.247.172 1.644.596 1.644 1.247 0 .756-.623 1.3-1.698 1.3-1.009 0-1.871-.49-2.455-.954l-.186.013-.823.956.027.2c.703.662 1.991 1.192 3.317 1.192 2.245 0 3.399-1.193 3.399-2.799 0-1.554-.956-2.377-2.695-2.614ZM107.377 82.455l-.133.133v8.76l.133.133h5.653l.133-.132v-1.142l-.133-.133h-4.14l-.079-.08V87.71l.079-.08h3.491l.133-.132v-1.141l-.133-.133h-3.491l-.079-.081v-2.202l.079-.08h4.14l.133-.133v-1.141l-.133-.133h-5.653ZM117.97 82.31c-1.553 0-2.721.742-3.186 2.175-.185.558-.239 1.062-.239 2.483 0 1.42.054 1.924.239 2.482.465 1.433 1.633 2.175 3.186 2.175 1.566 0 2.733-.742 3.198-2.175.186-.558.24-1.062.24-2.482 0-1.42-.054-1.925-.24-2.483-.465-1.433-1.632-2.174-3.198-2.174Zm1.685 6.727c-.252.732-.782 1.182-1.685 1.182-.89 0-1.42-.45-1.673-1.182-.105-.332-.159-.796-.159-2.07 0-1.287.054-1.737.159-2.07.253-.73.783-1.18 1.673-1.18.903 0 1.433.45 1.685 1.18.105.333.16.783.16 2.07 0 1.274-.055 1.738-.16 2.07Z"/><defs><radialGradient id="a" cx="0" cy="0" r="1" gradientTransform="matrix(107.502 0 0 42.5488 111.225 206.03)" gradientUnits="userSpaceOnUse"><stop stop-color="#8EDBDC"/><stop offset="1" stop-color="#fff"/></radialGradient><radialGradient id="b" cx="0" cy="0" r="1" gradientTransform="rotate(-21.812 506.186 -210.024) scale(57.9042 39.9502)" gradientUnits="userSpaceOnUse"><stop stop-color="#8EDBDC"/><stop offset=".44" stop-color="#90DCDD"/><stop offset=".6" stop-color="#97DEDF"/><stop offset=".71" stop-color="#A2E2E2"/><stop offset=".8" stop-color="#B3E7E8"/><stop offset=".88" stop-color="#C9EEEE"/><stop offset=".95" stop-color="#E4F6F7"/><stop offset="1" stop-color="#fff"/></radialGradient><radialGradient id="c" cx="0" cy="0" r="1" gradientTransform="rotate(-21.812 506.186 -210.024) scale(57.9042 39.9502)" gradientUnits="userSpaceOnUse"><stop stop-color="#80E3C8"/><stop offset=".43" stop-color="#82E3C9"/><stop offset=".58" stop-color="#89E5CC"/><stop offset=".69" stop-color="#94E8D1"/><stop offset=".78" stop-color="#A5EBD8"/><stop offset=".86" stop-color="#BBF0E2"/><stop offset=".93" stop-color="#D7F6ED"/><stop offset=".99" stop-color="#F6FDFB"/><stop offset="1" stop-color="#fff"/></radialGradient><radialGradient id="d" cx="0" cy="0" r="1" gradientTransform="rotate(-21.812 506.186 -210.024) scale(57.9042 39.9502)" gradientUnits="userSpaceOnUse"><stop stop-color="#80E3C8"/><stop offset=".43" stop-color="#82E3C9"/><stop offset=".58" stop-color="#89E5CC"/><stop offset=".69" stop-color="#94E8D1"/><stop offset=".78" stop-color="#A5EBD8"/><stop offset=".86" stop-color="#BBF0E2"/><stop offset=".93" stop-color="#D7F6ED"/><stop offset=".99" stop-color="#F6FDFB"/><stop offset="1" stop-color="#fff"/></radialGradient><radialGradient id="e" cx="0" cy="0" r="1" gradientTransform="matrix(67.5713 0 0 25.3728 111.213 149.822)" gradientUnits="userSpaceOnUse"><stop stop-color="#8EDBDC"/><stop offset="1" stop-color="#fff"/></radialGradient><radialGradient id="f" cx="0" cy="0" r="1" gradientTransform="matrix(35.0368 0 0 13.1562 111.213 122.682)" gradientUnits="userSpaceOnUse"><stop stop-color="#8EDBDC"/><stop offset="1" stop-color="#fff"/></radialGradient></defs></svg>