<svg xmlns="http://www.w3.org/2000/svg" width="222" height="269" fill="none"><path fill="url(#a)" d="M180.819 189.553c47.406 15.502 54.692 43.595 16.331 62.732-38.361 19.138-107.887 22.101-155.272 6.598-47.385-15.503-54.687-43.599-16.318-62.745 38.37-19.146 107.874-22.092 155.259-6.585Z" style="mix-blend-mode:multiply"/><path fill="#029894" d="M111.286 225.969c-22.787 0-44.285-3.095-62.15-8.946-25.13-8.224-39.554-20.922-40.617-35.761-.524-7.307 2.097-21.308 25.514-32.993 19.172-9.569 47.38-15.054 77.388-15.054 22.787 0 44.286 3.091 62.17 8.942 25.13 8.224 39.555 20.926 40.618 35.765.523 7.303-2.097 21.304-25.514 32.989-19.193 9.569-47.401 15.058-77.409 15.058Z" opacity=".2" style="mix-blend-mode:multiply"/><path fill="#029894" d="M171.162 149.741c40.793 13.349 47.086 37.533 14.049 54.019-33.038 16.486-92.89 19.029-133.704 5.68-40.814-13.349-47.086-37.536-14.049-54.022 33.038-16.486 92.906-19.026 133.704-5.677Z" style="mix-blend-mode:multiply"/><g style="mix-blend-mode:multiply"><path fill="url(#b)" d="M158.986 155.817c32.494 10.631 37.503 29.876 11.191 43.026-26.311 13.15-73.982 15.154-106.476 4.519-32.493-10.635-37.502-29.877-11.19-43.022 26.31-13.146 73.982-15.154 106.475-4.523Z"/><path fill="url(#c)" d="M158.986 155.817c32.494 10.631 37.503 29.876 11.191 43.026-26.311 13.15-73.982 15.154-106.476 4.519-32.493-10.635-37.502-29.877-11.19-43.022 26.31-13.146 73.982-15.154 106.475-4.523Z"/><path fill="url(#d)" d="M158.986 155.817c32.494 10.631 37.503 29.876 11.191 43.026-26.311 13.15-73.982 15.154-106.476 4.519-32.493-10.635-37.502-29.877-11.19-43.022 26.31-13.146 73.982-15.154 106.475-4.523Z"/></g><path fill="#029894" d="M111.286 241.753c-22.787 0-44.285-3.092-62.15-8.947-25.13-8.22-39.554-20.922-40.617-35.76-.524-7.308 2.097-21.308 25.514-32.993 19.172-9.569 47.38-15.055 77.388-15.055 22.787 0 44.286 3.091 62.17 8.946 25.13 8.221 39.555 20.922 40.618 35.761.523 7.303-2.097 21.308-25.514 32.993-19.193 9.565-47.401 15.055-77.409 15.055Z" opacity=".2" style="mix-blend-mode:multiply"/><path fill="#E6EFEC" d="M179.122 152.202h-13.424a70.507 70.507 0 0 0-11.702-4.9c-29.092-9.519-71.77-7.706-95.326 4.045-.572.287-1.112.577-1.635.872H43.7v14.739c-1.227 8.515 7.36 17.133 24.987 22.91 29.091 9.519 71.77 7.705 95.326-4.046 10.173-5.079 15.104-11.179 15.096-17.237l.012-16.383Z"/><path fill="#F8FFFD" d="M153.996 130.918c29.088 9.519 33.573 26.765 10.018 38.516-23.556 11.752-66.239 13.569-95.326 4.05-29.088-9.519-33.573-26.764-10.018-38.52 23.556-11.756 66.235-13.565 95.326-4.046Z"/><path fill="url(#e)" d="M111.269 179.701c37.475 0 67.854-12.312 67.854-27.499s-30.379-27.499-67.854-27.499c-37.474 0-67.853 12.312-67.853 27.499s30.379 27.499 67.853 27.499Z" style="mix-blend-mode:multiply"/><path fill="#E6EFEC" d="M179.122 125.097h-13.424a70.666 70.666 0 0 0-11.702-4.917c-29.092-9.519-71.77-7.71-95.326 4.046-.572.286-1.112.577-1.635.871H43.7v14.735c-1.227 8.515 7.36 17.134 24.987 22.91 29.091 9.519 71.77 7.705 95.326-4.05 10.173-5.075 15.104-11.175 15.096-17.233l.012-16.362Z"/><path fill="#F8FFFD" d="M153.996 103.809c29.088 9.519 33.573 26.765 10.018 38.521-23.556 11.755-66.239 13.568-95.326 4.049-29.088-9.519-33.573-26.764-10.018-38.52 23.556-11.755 66.235-13.564 95.326-4.05Z"/><path fill="url(#f)" d="M111.268 139.342c19.409 0 35.143-6.378 35.143-14.245 0-7.868-15.734-14.245-35.143-14.245s-35.143 6.377-35.143 14.245c0 7.867 15.734 14.245 35.143 14.245Z" opacity=".25" style="mix-blend-mode:multiply"/><path fill="#029894" d="M109.166 23.706c0 5.048-1.156 8.862-3.468 11.44-2.311 2.578-5.423 3.863-9.334 3.855-3.95 0-7.085-1.288-9.404-3.863-2.32-2.576-3.476-6.39-3.468-11.44v-7.852c0-5.05 1.148-8.864 3.443-11.44C89.23 1.831 92.35.543 96.295.543c3.93 0 7.055 1.293 9.375 3.88 2.32 2.586 3.479 6.394 3.479 11.423l.017 7.86Zm-8.513-8.449c0-2.857-.371-4.911-1.112-6.162a3.57 3.57 0 0 0-1.346-1.399 3.5 3.5 0 0 0-1.868-.476c-.653-.024-1.3.14-1.866.472a3.517 3.517 0 0 0-1.336 1.403c-.714 1.25-1.072 3.305-1.075 6.162v8.988c0 2.907.364 4.982 1.092 6.224a3.553 3.553 0 0 0 1.357 1.401c.572.33 1.224.49 1.881.463a3.44 3.44 0 0 0 1.855-.47 3.508 3.508 0 0 0 1.33-1.394c.728-1.242 1.091-3.317 1.088-6.224v-8.988ZM131.728 38.469h-8.521V9.787h-8.223V3.675l16.764-2.618-.02 37.412ZM95.743 110.334l3.49-2.739 3.972 1.946-1.485-4.209 3.053-3.229-4.405.14-2.087-3.943-1.237 4.298-4.345.793 3.646 2.52-.602 4.423Zm16.184 4.116 1.669-4.144 4.396-.331-3.361-2.893 1.053-4.349-3.752 2.357-3.752-2.357 1.053 4.349-3.37 2.893 4.395.331 1.669 4.144ZM98.929 83.116c2.041-.774 4.648-1.763 6.524-2.944 2.152 2.025 3.55 4.33 3.66 7.13h5.646c.111-2.8 1.509-5.105 3.66-7.13 1.876 1.18 4.483 2.165 6.525 2.944 6.014 2.282 3.076 6.45-.432 9.958a17.742 17.742 0 0 1-12.58 5.203 17.73 17.73 0 0 1-12.58-5.203c-3.458-3.458-6.478-7.662-.423-9.958Zm8.575-5.79c.092-.766-2.133-3.663-2.538-5.058-.874-1.4-1.182-3.64-.23-5.124.382-.588.216-1.643.216-2.45 0-8.077 13.946-8.086 13.946 0 0 1.022-.23 1.801.317 2.604.915 1.344.441 3.728-.331 4.979-.492 1.46-2.828 4.227-2.662 5.058.138 4.139-8.75 4.004-8.718-.01Zm32.673 20.76-2.699-3.537 1.917-4.032-4.152 1.512-3.182-3.099.138 4.47-3.885 2.12 4.235 1.25.781 4.409 2.479-3.7 4.368.606Zm-12.065 12.248-.593-4.437 3.646-2.52-4.341-.798-1.232-4.297-2.087 3.942-4.41-.14 3.053 3.229-1.499 4.219 3.973-1.946 3.49 2.748ZM83.678 98.081l4.372-.602 2.483 3.7.786-4.405 4.235-1.25-3.885-2.119.138-4.47-3.186 3.099-4.162-1.517 1.918 4.032-2.7 3.532Z"/><defs><radialGradient id="a" cx="0" cy="0" r="1" gradientTransform="matrix(107.502 0 0 42.5488 111.343 211.929)" gradientUnits="userSpaceOnUse"><stop stop-color="#80E3C8"/><stop offset="1" stop-color="#fff"/></radialGradient><radialGradient id="b" cx="0" cy="0" r="1" gradientTransform="rotate(-21.812 522.977 -204.482) scale(57.9042 39.9502)" gradientUnits="userSpaceOnUse"><stop stop-color="#80E3C8"/><stop offset=".43" stop-color="#82E3C9"/><stop offset=".58" stop-color="#89E5CC"/><stop offset=".69" stop-color="#94E8D1"/><stop offset=".78" stop-color="#A5EBD8"/><stop offset=".86" stop-color="#BBF0E2"/><stop offset=".93" stop-color="#D7F6ED"/><stop offset=".99" stop-color="#F6FDFB"/><stop offset="1" stop-color="#fff"/></radialGradient><radialGradient id="c" cx="0" cy="0" r="1" gradientTransform="rotate(-21.812 522.977 -204.482) scale(57.9042 39.9502)" gradientUnits="userSpaceOnUse"><stop stop-color="#80E3C8"/><stop offset=".43" stop-color="#82E3C9"/><stop offset=".58" stop-color="#89E5CC"/><stop offset=".69" stop-color="#94E8D1"/><stop offset=".78" stop-color="#A5EBD8"/><stop offset=".86" stop-color="#BBF0E2"/><stop offset=".93" stop-color="#D7F6ED"/><stop offset=".99" stop-color="#F6FDFB"/><stop offset="1" stop-color="#fff"/></radialGradient><radialGradient id="d" cx="0" cy="0" r="1" gradientTransform="rotate(-21.812 522.977 -204.482) scale(57.9042 39.9502)" gradientUnits="userSpaceOnUse"><stop stop-color="#80E3C8"/><stop offset=".43" stop-color="#82E3C9"/><stop offset=".58" stop-color="#89E5CC"/><stop offset=".69" stop-color="#94E8D1"/><stop offset=".78" stop-color="#A5EBD8"/><stop offset=".86" stop-color="#BBF0E2"/><stop offset=".93" stop-color="#D7F6ED"/><stop offset=".99" stop-color="#F6FDFB"/><stop offset="1" stop-color="#fff"/></radialGradient><radialGradient id="e" cx="0" cy="0" r="1" gradientTransform="matrix(67.6449 0 0 25.4004 111.269 155.451)" gradientUnits="userSpaceOnUse"><stop stop-color="#80E3C8"/><stop offset="1" stop-color="#fff"/></radialGradient><radialGradient id="f" cx="0" cy="0" r="1" gradientTransform="matrix(35.0368 0 0 13.1562 111.268 128.309)" gradientUnits="userSpaceOnUse"><stop stop-color="#80E3C8"/><stop offset="1" stop-color="#fff"/></radialGradient></defs></svg>