<svg xmlns="http://www.w3.org/2000/svg" width="222" height="262" fill="none"><path fill="url(#a)" d="M180.24 182.529c47.381 15.507 54.687 43.6 16.318 62.746-38.369 19.145-107.887 22.1-155.272 6.593-47.385-15.507-54.687-43.595-16.318-62.745 38.37-19.15 107.887-22.096 155.272-6.594Z" style="mix-blend-mode:multiply"/><path fill="#001C63" d="M108.161 218.946c-22.787 0-44.285-3.091-62.15-8.942-25.13-8.225-39.554-20.926-40.617-35.765-.524-7.307 2.097-21.308 25.51-32.993 19.176-9.569 47.385-15.055 77.388-15.055 22.791 0 44.29 3.096 62.174 8.947 25.13 8.22 39.555 20.922 40.618 35.76.519 7.304-2.097 21.308-25.514 32.993-19.205 9.569-47.413 15.055-77.409 15.055Z" opacity=".2" style="mix-blend-mode:multiply"/><path fill="#001C63" d="M108.161 234.733c-22.787 0-44.285-3.095-62.15-8.946-25.13-8.225-39.554-20.922-40.617-35.761-.524-7.307 2.097-21.308 25.51-32.997 19.176-9.544 47.385-15.054 77.388-15.054 22.791 0 44.29 3.095 62.174 8.946 25.13 8.224 39.555 20.922 40.618 35.761.519 7.307-2.097 21.308-25.514 32.993-19.205 9.568-47.413 15.058-77.409 15.058Z" opacity=".2" style="mix-blend-mode:multiply"/><path fill="#001C63" d="M168.023 142.718c40.798 13.349 47.09 37.536 14.053 54.022-33.038 16.487-92.89 19.026-133.703 5.677-40.815-13.349-47.087-37.537-14.05-54.023 33.038-16.486 92.906-19.025 133.7-5.676Z" style="mix-blend-mode:multiply"/><g style="mix-blend-mode:multiply"><path fill="url(#b)" d="M155.85 148.793c32.489 10.635 37.502 29.897 11.191 43.026-26.312 13.129-73.983 15.154-106.476 4.523-32.494-10.631-37.503-29.877-11.191-43.026 26.31-13.15 73.982-15.155 106.476-4.523Z"/><path fill="url(#c)" d="M155.85 148.793c32.489 10.635 37.502 29.897 11.191 43.026-26.312 13.129-73.983 15.154-106.476 4.523-32.494-10.631-37.503-29.877-11.191-43.026 26.31-13.15 73.982-15.155 106.476-4.523Z"/><path fill="url(#d)" d="M155.85 148.793c32.489 10.635 37.502 29.897 11.191 43.026-26.312 13.129-73.983 15.154-106.476 4.523-32.494-10.631-37.503-29.877-11.191-43.026 26.31-13.15 73.982-15.155 106.476-4.523Z"/></g><path fill="#E6E6ED" d="M175.983 145.179h-13.419a71.418 71.418 0 0 0-11.706-4.917c-29.088-9.519-71.767-7.705-95.322 4.05-.573.287-1.116.577-1.656.867H40.563v14.744c-1.227 8.51 7.34 17.133 24.99 22.909 29.092 9.519 71.771 7.706 95.326-4.05 10.173-5.075 15.104-11.174 15.096-17.237l.008-16.366Z"/><path fill="#FAFAFF" d="M150.857 123.896c29.092 9.519 33.578 26.764 10.022 38.52-23.555 11.755-66.238 13.565-95.326 4.05-29.087-9.515-33.573-26.769-10.017-38.52 23.555-11.752 66.234-13.569 95.321-4.05Z"/><path fill="url(#e)" d="M108.135 172.678c37.474 0 67.853-12.312 67.853-27.499s-30.379-27.499-67.853-27.499c-37.475 0-67.854 12.312-67.854 27.499s30.38 27.499 67.854 27.499Z" style="mix-blend-mode:multiply"/><path fill="#E6E6ED" d="M175.983 118.074h-13.419a71.036 71.036 0 0 0-11.706-4.917c-29.088-9.519-71.767-7.706-95.322 4.05-.573.286-1.116.576-1.656.867H40.563v14.743c-1.227 8.511 7.34 17.134 24.99 22.91 29.092 9.519 71.771 7.705 95.326-4.05 10.173-5.075 15.104-11.175 15.096-17.237l.008-16.366Z"/><path fill="#FAFAFF" d="M150.857 96.773c29.092 9.52 33.578 26.765 10.022 38.521-23.555 11.755-66.238 13.564-95.326 4.045-29.087-9.519-33.573-26.764-10.017-38.516 23.555-11.751 66.234-13.552 95.321-4.05Z"/><path fill="url(#f)" d="M108.133 132.319c19.409 0 35.143-6.378 35.143-14.246 0-7.867-15.734-14.245-35.143-14.245s-35.143 6.378-35.143 14.245c0 7.868 15.734 14.246 35.143 14.246Z" opacity=".25" style="mix-blend-mode:multiply"/><path fill="#001C63" d="M106.347 23.783c0 5.048-1.154 8.862-3.463 11.44-2.309 2.578-5.422 3.867-9.339 3.867-3.944 0-7.072-1.289-9.384-3.867-2.311-2.578-3.472-6.392-3.483-11.44V15.94c0-5.051 1.146-8.865 3.438-11.44C86.41 1.924 89.53.637 93.48.637c3.93 0 7.056 1.292 9.375 3.875 2.32 2.584 3.479 6.393 3.476 11.428l.016 7.843Zm-8.525-8.445c0-2.857-.37-4.913-1.112-6.166a3.574 3.574 0 0 0-1.347-1.395 3.504 3.504 0 0 0-1.867-.476 3.435 3.435 0 0 0-1.866.468 3.504 3.504 0 0 0-1.335 1.403c-.715 1.253-1.073 3.309-1.076 6.166v8.984c0 2.913.363 4.988 1.088 6.225.316.585.786 1.069 1.358 1.398a3.5 3.5 0 0 0 1.88.465 3.452 3.452 0 0 0 1.856-.47 3.521 3.521 0 0 0 1.333-1.393c.726-1.243 1.088-3.317 1.088-6.225V15.34ZM125.933.624c1.3-.014 2.598.11 3.872.37 1.278.296 2.531.696 3.746 1.195l-1.419 6.315c-1.182-.357-2.212-.626-3.099-.805a15.21 15.21 0 0 0-3.05-.27 6.014 6.014 0 0 0-2.681.518 6.093 6.093 0 0 0-2.189 1.653c-1.221 1.444-1.807 3.553-1.758 6.328l.077.128a7.386 7.386 0 0 1 2.961-2.004 11.54 11.54 0 0 1 4.199-.718c3.287 0 5.847 1.202 7.678 3.606 1.832 2.404 2.747 5.482 2.744 9.233 0 3.696-1.21 6.773-3.631 9.233-2.42 2.459-5.51 3.687-9.269 3.684-4.034 0-7.29-1.344-9.768-4.033-2.478-2.689-3.718-6.37-3.721-11.042v-7.523c0-4.93 1.43-8.803 4.289-11.619 2.86-2.816 6.533-4.232 11.019-4.249Zm-1.696 19.387a8.582 8.582 0 0 0-3.047.485 4.776 4.776 0 0 0-2.011 1.353v2.2c0 2.697.435 4.771 1.304 6.224A4.088 4.088 0 0 0 122 31.87c.64.38 1.372.576 2.114.564 1.281 0 2.326-.614 3.136-1.842a7.765 7.765 0 0 0 1.227-4.373c0-1.893-.393-3.398-1.178-4.515a3.613 3.613 0 0 0-1.315-1.25 3.548 3.548 0 0 0-1.747-.443ZM111.178 78.092c-2.922 0-5.157 2.234-5.157 5.156v1.719h10.313v-1.719c0-2.922-2.234-5.156-5.156-5.156Z"/><path fill="#001C63" d="M134.553 71.56c-.516-.343-1.032-.515-1.547-.171-7.391 2.406-14.953.515-20.625-4.813-.688-.687-1.719-.687-2.406 0-5.672 5.328-13.235 7.219-20.625 4.813-.516-.344-1.032-.172-1.547.172-.344.343-.688.859-.688 1.374 0 26.985 11.86 35.922 23.375 41.079.172.172.516.172.688.172.172 0 .515 0 .687-.172 11.516-5.157 23.375-14.094 23.375-41.078 0-.516-.344-1.032-.687-1.376ZM121.49 96.999c0 2.922-2.234 5.156-5.156 5.156h-10.313c-2.921 0-5.156-2.234-5.156-5.156v-6.875c0-1.547.688-2.922 1.719-3.781v-3.094c0-4.813 3.781-8.594 8.594-8.594 4.812 0 8.593 3.782 8.593 8.594v3.094c1.032.86 1.719 2.234 1.719 3.781v6.875Z"/><path fill="#001C63" d="M111.178 90.123c-1.032 0-1.719.688-1.719 1.719v3.437c0 1.032.687 1.719 1.719 1.719 1.031 0 1.718-.688 1.718-1.719v-3.437c0-1.031-.687-1.719-1.718-1.719Z"/><defs><radialGradient id="a" cx="0" cy="0" r="1" gradientTransform="matrix(107.502 0 0 42.5488 110.763 204.137)" gradientUnits="userSpaceOnUse"><stop stop-color="#1628B1"/><stop offset="1" stop-color="#fff"/></radialGradient><radialGradient id="b" cx="0" cy="0" r="1" gradientTransform="matrix(53.75844 -21.51545 14.84431 37.08996 115.21 171.856)" gradientUnits="userSpaceOnUse"><stop stop-color="#80E3C8"/><stop offset=".43" stop-color="#82E3C9"/><stop offset=".58" stop-color="#89E5CC"/><stop offset=".69" stop-color="#94E8D1"/><stop offset=".78" stop-color="#A5EBD8"/><stop offset=".86" stop-color="#BBF0E2"/><stop offset=".93" stop-color="#D7F6ED"/><stop offset=".99" stop-color="#F6FDFB"/><stop offset="1" stop-color="#fff"/></radialGradient><radialGradient id="c" cx="0" cy="0" r="1" gradientTransform="matrix(53.75844 -21.51545 14.84431 37.08996 115.21 171.856)" gradientUnits="userSpaceOnUse"><stop stop-color="#80E3C8"/><stop offset=".43" stop-color="#82E3C9"/><stop offset=".58" stop-color="#89E5CC"/><stop offset=".69" stop-color="#94E8D1"/><stop offset=".78" stop-color="#A5EBD8"/><stop offset=".86" stop-color="#BBF0E2"/><stop offset=".93" stop-color="#D7F6ED"/><stop offset=".99" stop-color="#F6FDFB"/><stop offset="1" stop-color="#fff"/></radialGradient><radialGradient id="d" cx="0" cy="0" r="1" gradientTransform="matrix(53.75844 -21.51545 14.84431 37.08996 115.21 171.856)" gradientUnits="userSpaceOnUse"><stop stop-color="#1628B1"/><stop offset=".38" stop-color="#182AB2"/><stop offset=".52" stop-color="#1F30B4"/><stop offset=".61" stop-color="#2A3BB8"/><stop offset=".69" stop-color="#3B4BBE"/><stop offset=".76" stop-color="#515FC5"/><stop offset=".82" stop-color="#6D78CE"/><stop offset=".87" stop-color="#8D96D9"/><stop offset=".92" stop-color="#B3B9E5"/><stop offset=".97" stop-color="#DCDFF3"/><stop offset="1" stop-color="#fff"/></radialGradient><radialGradient id="e" cx="0" cy="0" r="1" gradientTransform="matrix(67.6449 0 0 25.4005 108.135 148.633)" gradientUnits="userSpaceOnUse"><stop stop-color="#1628B1"/><stop offset="1" stop-color="#fff"/></radialGradient><radialGradient id="f" cx="0" cy="0" r="1" gradientTransform="matrix(35.0368 0 0 13.1562 108.133 121.491)" gradientUnits="userSpaceOnUse"><stop stop-color="#1628B1"/><stop offset="1" stop-color="#fff"/></radialGradient></defs></svg>