<svg width="517" height="518" viewBox="0 0 517 518" fill="none" xmlns="http://www.w3.org/2000/svg">
<path d="M258.498 504.322C385.562 504.322 488.566 444.852 488.566 371.492C488.566 298.132 385.562 238.663 258.498 238.663C131.435 238.663 28.4303 298.132 28.4303 371.492C28.4303 444.852 131.435 504.322 258.498 504.322Z" fill="#F5F5F5"/>
<path d="M98.8281 397.844C112.894 397.844 124.297 391.261 124.297 383.14C124.297 375.02 112.894 368.437 98.8281 368.437C84.7622 368.437 73.3596 375.02 73.3596 383.14C73.3596 391.261 84.7622 397.844 98.8281 397.844Z" fill="#E6E6E6"/>
<path d="M294.957 304.324L127.578 400.961C124.802 402.563 124.802 406.57 127.578 408.173L225.948 464.967C230.981 467.873 237.182 467.873 242.215 464.967L409.594 368.331C412.371 366.728 412.371 362.721 409.594 361.118L311.225 304.324C306.191 301.417 299.99 301.417 294.957 304.324Z" fill="#E6E6E6"/>
<path d="M244.701 305.265L177.688 343.954C171.792 347.359 171.792 355.871 177.688 359.275L211.433 378.757C215.975 381.38 221.571 381.38 226.114 378.757L293.126 340.067C299.023 336.662 299.023 328.15 293.126 324.746L259.382 305.264C254.84 302.643 249.243 302.643 244.701 305.265Z" fill="#E6E6E6"/>
<path d="M100.17 345.089C100.17 345.089 84.4311 329.721 93.3887 303.976C98.4087 289.547 115.041 278.952 124.514 277.956C124.514 277.956 119.375 283.877 117.113 290.437L105.184 298.368L116.149 294.934L113.814 304.321C113.814 304.321 103.615 310.488 102.104 311.834L113.099 308.96C113.097 308.96 112.254 335.535 100.17 345.089Z" fill="#229894"/>
<path d="M100.17 345.089C100.17 345.089 92.0215 312.928 104.078 294.173C104.078 294.173 89.9442 310.722 100.17 345.089Z" fill="white"/>
<path d="M118.182 349.443L98.9258 349.201V349.199L98.8275 349.2L98.7293 349.199V349.201L79.4731 349.443C79.4731 349.443 79.2591 373.165 86.5653 382.817C88.5827 385.384 93.3132 387.185 98.8275 387.185C104.351 387.185 109.087 385.378 111.099 382.804C118.395 373.143 118.182 349.443 118.182 349.443Z" fill="#37474F"/>
<path d="M98.8279 359.834C109.518 359.834 118.183 355.182 118.183 349.443C118.183 343.705 109.518 339.052 98.8279 339.052C88.1382 339.052 79.4725 343.705 79.4725 349.443C79.4725 355.182 88.1382 359.834 98.8279 359.834Z" fill="#455A64"/>
<path d="M98.8288 346.687C105.488 346.687 111.127 348.823 113.114 351.78C113.608 351.044 113.885 350.26 113.885 349.442C113.885 345.338 107.144 342.011 98.8288 342.011C90.5134 342.011 83.7728 345.338 83.7728 349.442C83.7728 350.26 84.0499 351.044 84.5441 351.78C86.5304 348.823 92.1699 346.687 98.8288 346.687Z" fill="#263238"/>
<path d="M98.8295 346.687C92.1706 346.687 86.5311 348.823 84.5448 351.78C86.5311 354.738 92.1706 356.873 98.8295 356.873C105.488 356.873 111.128 354.737 113.114 351.78C111.128 348.823 105.488 346.687 98.8295 346.687Z" fill="#E0E0E0"/>
<path d="M99.0647 353.064C99.0647 353.064 91.6054 352.775 85.208 342.868C82.5693 338.783 81.2975 336.636 81.2975 336.636L91.6902 335.862L80.0474 332.951L74.5454 324.534L84.2144 323.817C84.2144 323.817 77.0126 321.294 71.8705 321.262C71.8705 321.262 62.9543 305.51 60.3455 303.265C60.3455 303.265 80.9107 303.434 95.5687 320.766C110.227 338.098 101.239 353.508 99.0647 353.064Z" fill="#229894"/>
<path d="M99.0636 353.064C99.0636 353.064 103.729 324.966 73.9571 308.063C73.9571 308.063 104.856 322.905 99.0636 353.064Z" fill="white"/>
<path d="M99.0647 353.064C99.0647 353.064 105.822 353.505 112.526 345.169C115.292 341.731 116.642 339.916 116.642 339.916L107.338 338.239L118.116 336.709L123.872 329.634L115.216 328.075C115.216 328.075 121.951 326.478 126.593 326.932C126.593 326.932 136.121 313.56 138.685 311.781C138.685 311.781 120.115 309.998 105.258 324.254C90.4018 338.509 97.0608 353.259 99.0647 353.064Z" fill="#229894"/>
<path d="M99.0639 353.064C99.0639 353.064 97.5005 327.273 125.953 314.827C125.953 314.827 96.6774 325.309 99.0639 353.064Z" fill="white"/>
<path d="M133.29 124.27V175.639L88.8027 201.323V149.954L133.29 124.27Z" fill="#FAFAFA"/>
<path d="M128.474 127.05V172.857L88.8036 195.761V149.954L128.474 127.05ZM130.882 122.879L86.3954 148.563V199.933L88.8036 201.323L133.29 175.639V124.27L130.882 122.879Z" fill="#E0E0E0"/>
<path d="M130.881 128.441V174.248L91.2109 197.152V151.345L130.881 128.441ZM133.29 124.27L88.8027 149.954V201.323L133.29 175.639V124.27Z" fill="#EBEBEB"/>
<path d="M126.762 163.887L93.1072 183.318L103.05 157.449L109.935 165.625L116.974 155.601L126.762 163.887Z" fill="#E0E0E0"/>
<path d="M115.086 147.749C115.086 149.707 113.712 152.088 112.016 153.066C110.321 154.045 108.946 153.251 108.946 151.294C108.946 149.337 110.321 146.955 112.016 145.977C113.712 144.998 115.086 145.791 115.086 147.749Z" fill="#E0E0E0"/>
<path d="M148.131 60.3145V101.237L112.691 121.699V80.7763L148.131 60.3145Z" fill="#FAFAFA"/>
<path d="M144.295 62.5293V99.0222L112.691 117.268V80.7763L144.295 62.5293ZM146.213 59.207L110.772 79.6678V120.59L112.69 121.698L148.131 101.236V60.3144L146.213 59.207Z" fill="#E0E0E0"/>
<path d="M146.212 63.6367V100.13L114.609 118.376V81.8837L146.212 63.6367ZM148.131 60.3145L112.691 80.7763V121.699L148.131 101.237V60.3145Z" fill="#EBEBEB"/>
<path d="M142.93 91.8755L116.12 107.354L124.041 86.7458L129.525 93.261L135.134 85.2744L142.93 91.8755Z" fill="#E0E0E0"/>
<path d="M133.631 79.0198C133.631 80.5791 132.536 82.4755 131.185 83.2561C129.835 84.0358 128.74 83.404 128.74 81.8437C128.74 80.2834 129.835 78.3881 131.185 77.6074C132.536 76.8278 133.631 77.4595 133.631 79.0198Z" fill="#E0E0E0"/>
<path d="M223.505 296.876L237.89 384.651C238.107 385.975 239.251 386.947 240.592 386.947C242.225 386.947 243.494 385.527 243.313 383.906L233.222 293.352L223.505 296.876Z" fill="#263238"/>
<path d="M273.157 267.355L287.542 355.13C287.759 356.453 288.903 357.425 290.244 357.425C291.877 357.425 293.147 356.007 292.966 354.384L282.874 263.831L273.157 267.355Z" fill="#263238"/>
<path d="M201.423 276.349L187.229 351.991C187.028 353.085 186.081 353.871 184.961 353.871C183.56 353.871 182.48 352.617 182.68 351.23L193.166 281.124L201.423 276.349Z" fill="#263238"/>
<path d="M251.637 248.134L237.523 323.307C237.323 324.401 236.375 325.188 235.255 325.188C233.854 325.188 232.774 323.934 232.974 322.547L243.38 252.896L251.637 248.134Z" fill="#263238"/>
<path d="M247.543 242.411C240.919 239.458 236.38 233.214 235.662 225.997C233.373 202.965 225.262 155.503 197.773 171.302C163.845 190.803 175.992 247.433 180.925 265.592C182.038 269.688 184.17 273.424 187.16 276.437C193.29 282.612 205.98 293.245 227.562 302.298C230.209 303.408 233.159 303.583 235.92 302.796C246.642 299.742 274.655 290.361 288.622 272.502C290.273 270.39 289.914 267.342 287.816 265.674C282.158 261.176 269.376 252.144 247.543 242.411Z" fill="#229894"/>
<path d="M289.631 269.25C289.688 270.382 289.374 271.539 288.621 272.502C287.875 273.455 287.082 274.379 286.261 275.284L286.26 275.285C285.812 275.781 285.351 276.268 284.883 276.749C284.874 276.758 284.864 276.768 284.855 276.778C284.39 277.253 283.916 277.722 283.433 278.183C283.419 278.196 283.405 278.21 283.391 278.223C282.908 278.684 282.416 279.138 281.916 279.585C281.904 279.596 281.892 279.608 281.879 279.618C281.376 280.069 280.864 280.511 280.345 280.949C280.339 280.954 280.331 280.96 280.325 280.965C272.405 287.617 262.793 292.677 254.198 296.33C254.187 296.336 254.176 296.34 254.165 296.345C253.629 296.572 253.1 296.794 252.574 297.01C252.519 297.033 252.463 297.055 252.408 297.078C251.915 297.28 251.427 297.477 250.943 297.67C250.858 297.704 250.772 297.738 250.688 297.771C250.227 297.953 249.772 298.131 249.322 298.304C249.217 298.345 249.113 298.385 249.008 298.424C248.579 298.589 248.154 298.749 247.734 298.905C247.61 298.951 247.488 298.997 247.365 299.042C246.969 299.188 246.577 299.331 246.191 299.471C246.048 299.522 245.906 299.573 245.765 299.624C245.399 299.755 245.036 299.883 244.679 300.008C244.527 300.061 244.379 300.113 244.229 300.165C243.89 300.282 243.554 300.398 243.224 300.51C243.062 300.565 242.904 300.617 242.743 300.671C242.435 300.775 242.129 300.877 241.83 300.975C241.655 301.033 241.485 301.088 241.312 301.144C241.037 301.233 240.763 301.323 240.497 301.407C240.309 301.467 240.128 301.524 239.945 301.582C239.708 301.658 239.468 301.733 239.237 301.804C239.033 301.868 238.839 301.926 238.641 301.987C238.442 302.048 238.238 302.112 238.046 302.169C237.795 302.245 237.557 302.315 237.318 302.387C237.196 302.423 237.067 302.462 236.948 302.497C236.59 302.603 236.245 302.702 235.918 302.795C233.157 303.582 230.207 303.407 227.56 302.297C205.978 293.244 193.288 282.611 187.159 276.436C184.168 273.423 182.036 269.687 180.924 265.591C175.99 247.432 163.843 190.803 197.772 171.301C198.373 170.956 198.962 170.651 199.545 170.364C199.672 170.302 199.799 170.239 199.925 170.179C200.499 169.908 201.066 169.66 201.622 169.446C201.677 169.426 201.731 169.408 201.785 169.388C202.318 169.187 202.842 169.014 203.36 168.863C203.44 168.84 203.521 168.814 203.599 168.793C204.157 168.638 204.705 168.512 205.242 168.413C205.289 168.405 205.334 168.399 205.38 168.391C206.504 168.196 207.587 168.122 208.632 168.162C208.652 168.163 208.672 168.164 208.693 168.165C209.761 168.211 210.789 168.372 211.776 168.643C206.356 166.248 199.739 166.357 193.179 170.128C159.25 189.629 171.398 246.258 176.331 264.417L177.165 267.537C178.849 273.837 182.573 279.402 187.754 283.362L196.558 290.091V290.087C203.686 295.569 213.799 301.964 227.524 307.724C230.179 308.839 233.137 309.027 235.908 308.238C246.624 305.186 274.647 295.805 288.618 277.942C289.24 277.146 289.561 276.218 289.622 275.282H289.644V269.235L289.631 269.25Z" fill="#176B68"/>
<path d="M308.354 334.048C306.033 319.279 303.069 295.66 301.369 281.695C301.258 280.777 301.104 279.869 300.907 278.974C299.204 271.178 294.098 264.55 287.242 260.469L252.441 239.751L228.813 227.324C228.813 227.324 222.524 245.544 229.83 256.684C235.911 265.954 262.753 277.453 270.729 281.325C278.705 285.196 278.878 286.252 278.711 291.429C278.545 296.606 278.54 303.202 288.345 323.867C291.163 329.804 293.126 334.246 294.496 337.649C297.913 337.946 302.985 337.524 308.354 334.048Z" fill="#37474F"/>
<path d="M297.59 349.691C297.574 350.308 297.716 350.91 298.01 351.453C298.66 352.646 300.144 354.883 303.246 357.682C307.934 361.91 323.476 378.459 328.94 368.186C328.94 368.186 312.885 352.807 310.757 346.482C310.152 344.685 309.307 340.107 308.355 334.048C302.985 337.525 297.913 337.946 294.498 337.65C297.509 345.127 297.642 347.565 297.59 349.691Z" fill="#FFA8A7"/>
<path d="M314.297 348.685L313.852 347.351C313.505 346.314 312.395 345.744 311.352 346.066L304.846 348.072C304.007 348.33 303.435 349.106 303.435 349.984V350.634C303.435 351.276 302.915 351.796 302.273 351.796C300.896 351.796 299.561 351.317 298.498 350.441L297.589 349.691V347.417C296.394 348.195 295.701 349.55 295.775 350.973C295.856 352.516 295.932 354.4 295.875 355.149C295.77 356.507 294.492 362.198 296.014 363.881C297.537 365.563 300.943 365.763 305.162 365.308C309.381 364.853 313.998 369.004 317.907 370.541C321.817 372.077 338.007 375.393 337.967 365.042C337.956 362.406 335.349 361.331 332.788 360.395C330.229 359.459 320.987 356.205 318.619 354.251C317.534 353.356 316.635 352.411 315.981 351.649C315.23 350.777 314.662 349.776 314.297 348.685Z" fill="#455A64"/>
<path d="M317.908 370.54C313.998 369.003 309.382 364.852 305.163 365.307C300.944 365.762 297.537 365.562 296.015 363.88C295.557 363.373 295.354 362.499 295.296 361.493C295.218 363.086 295.342 364.616 296.015 365.361C297.538 367.043 300.944 367.242 305.163 366.787C309.382 366.333 313.998 370.484 317.908 372.021C321.817 373.557 338.009 376.873 337.968 366.522C337.966 366.361 337.928 366.224 337.909 366.074C336.885 375.159 321.681 372.023 317.908 370.54Z" fill="#263238"/>
<path d="M276.739 351.98C274.418 337.212 271.455 313.594 269.755 299.628C268.86 292.286 265.236 285.558 259.602 280.768L217.835 245.257L195.516 244.872C195.516 244.872 190.911 263.477 198.218 274.616C204.298 283.887 231.14 295.386 239.116 299.258C247.093 303.129 247.266 304.185 247.099 309.362C246.932 314.539 246.927 321.135 256.733 341.799C259.55 347.737 261.514 352.179 262.884 355.582C266.298 355.878 271.37 355.457 276.739 351.98Z" fill="#37474F"/>
<path d="M265.964 366.295C265.948 366.912 265.536 368.746 266.396 369.385C267.487 370.195 268.529 372.816 271.631 375.615C276.319 379.843 281.27 370.74 279.142 364.415C278.537 362.618 277.692 358.039 276.74 351.981C271.371 355.458 266.299 355.879 262.883 355.583C265.894 363.059 266.016 364.169 265.964 366.295Z" fill="#FFA8A7"/>
<path d="M238.356 167.826C244.954 166.796 251.372 170.648 253.466 176.988C254.723 180.797 255.851 185.446 256.289 190.65C257.493 204.972 257.828 212.134 257.828 212.134L272.216 218.659C272.216 218.659 264.446 219.033 264.972 230.003L247.053 225.486L238.356 167.826Z" fill="#FFA8A7"/>
<path d="M258.36 203.477C256.24 187.961 255.399 179.851 253.579 175.999C250.727 169.961 244.954 166.796 238.356 167.825L243.773 210.427L244.471 210.358C249.27 209.889 253.792 207.89 257.369 204.657L258.36 203.477Z" fill="#176B68"/>
<path d="M257.829 212.134C257.829 212.134 255.085 212.938 253.579 214.744C253.579 214.744 255.314 211.445 257.741 210.427L257.829 212.134Z" fill="#F28F8F"/>
<path d="M203.803 180.384L219.895 172.591L233.153 168.015C233.153 168.015 243.774 164.627 246.493 178.782C248.727 190.418 249.02 234.626 249.02 234.626L248.783 239.464C248.783 239.464 242.649 256.644 220.738 258.066C198.826 259.488 194.562 250.249 194.562 250.249C194.562 250.249 192.343 191.757 203.803 180.384Z" fill="#229894"/>
<path d="M254.5 133.124C254.5 133.124 259.475 145.871 252.605 151.483C245.735 157.096 248.116 134.544 248.116 134.544L254.5 133.124Z" fill="#263238"/>
<path d="M242.384 461.368C240.825 462.269 238.296 462.269 236.737 461.368C235.178 460.468 235.178 459.009 236.737 458.108C238.296 457.207 240.825 457.207 242.384 458.108C243.943 459.009 243.943 460.469 242.384 461.368Z" fill="#455A64"/>
<path d="M243.562 363.53H235.576V459.648H243.562V363.53Z" fill="#37474F"/>
<path d="M148.761 408.726C150.967 408.726 152.755 407.694 152.755 406.42C152.755 405.147 150.967 404.114 148.761 404.114C146.556 404.114 144.768 405.147 144.768 406.42C144.768 407.694 146.556 408.726 148.761 408.726Z" fill="#455A64"/>
<path d="M152.763 310.213H144.776V406.331H152.763V310.213Z" fill="#263238"/>
<path d="M391.231 375.131C389.672 376.031 387.144 376.031 385.584 375.131C384.025 374.23 384.025 372.771 385.584 371.87C387.144 370.97 389.672 370.97 391.231 371.87C392.79 372.771 392.79 374.23 391.231 375.131Z" fill="#455A64"/>
<path d="M392.41 277.292H384.423V373.411H392.41V277.292Z" fill="#37474F"/>
<path d="M293.62 302.394C292.221 303.202 289.953 303.202 288.554 302.394C287.155 301.587 287.155 300.277 288.554 299.47C289.953 298.662 292.221 298.662 293.62 299.47C295.018 300.276 295.018 301.587 293.62 302.394Z" fill="#455A64"/>
<path d="M294.674 220.638H287.511V300.851H294.674V220.638Z" fill="#455A64"/>
<path d="M144.768 294.29V313.413L239.576 368.15V349.026L144.768 294.29Z" fill="#263238"/>
<path d="M392.409 260.789L239.575 349.026V368.15L392.409 279.912V260.789Z" fill="#37474F"/>
<path d="M297.602 206.052L144.768 294.29L239.576 349.026L392.409 260.789L297.602 206.052Z" fill="#455A64"/>
<path d="M220.926 265.596L255.689 285.666L313.484 252.243L278.726 231.763L220.926 265.596Z" fill="#EBEBEB"/>
<path d="M251.949 259.885L264.99 252.355L256.816 247.636L243.775 255.166L251.949 259.885Z" fill="#E0E0E0"/>
<path d="M257.167 280.653L239.598 270.313L273.932 249.533L257.167 280.653Z" fill="#E0E0E0"/>
<path d="M267 216.176L280.907 222.698C286.48 224.005 293.188 226.493 293.188 226.493C293.188 226.493 302.863 230.448 303.304 233.042C303.746 235.636 296.044 241.887 289.276 238.846C287.911 238.233 285.448 236.994 283.633 236.802C281.816 236.608 276.423 235.759 272.518 232.036L256.287 227.814C256.287 227.814 255.478 217.79 267 216.176Z" fill="#FFA8A7"/>
<path d="M276.004 235.576C277.615 237.3 282.207 241.653 283.209 242.91C284.211 244.168 286.578 240.934 282.428 236.116C282.428 236.116 276.904 234.206 272.409 230.662C272.409 230.662 274.393 233.853 276.004 235.576Z" fill="#FFA8A7"/>
<path d="M236.401 152.614H219.893V172.591H236.401V152.614Z" fill="#FFA8A7"/>
<path d="M236.401 172.591C230.567 170.339 224.471 165.819 221.236 158.169V152.614H236.401V172.591Z" fill="#F28F8F"/>
<path d="M241.955 126.241C241.955 126.241 256.97 128.047 253.527 153.696C251.934 165.558 248.765 171.556 239.619 170.54C229.255 169.39 214.94 161.342 217.159 141.017C219.378 120.693 241.955 126.241 241.955 126.241Z" fill="#FFA8A7"/>
<path d="M242.796 149.113L242.252 157.969L247.536 156.695L242.796 149.113Z" fill="#F28F8F"/>
<path d="M234.935 148.313C234.874 149.31 235.632 150.167 236.629 150.228C237.625 150.289 238.483 149.531 238.544 148.534C238.605 147.537 237.847 146.68 236.85 146.619C235.854 146.558 234.996 147.317 234.935 148.313Z" fill="#263238"/>
<path d="M246.883 147.783C246.822 148.78 247.579 149.637 248.576 149.698C249.573 149.759 250.43 149.001 250.491 148.005C250.552 147.008 249.794 146.151 248.798 146.09C247.801 146.029 246.944 146.787 246.883 147.783Z" fill="#263238"/>
<path d="M251.115 144.271L247.715 141.959C247.715 141.959 249.157 140.634 250.452 141.563C251.749 142.491 251.115 144.271 251.115 144.271Z" fill="#263238"/>
<path d="M236.19 143.867L232.516 145.712C232.516 145.712 232.06 143.81 233.501 143.128C234.943 142.448 236.19 143.867 236.19 143.867Z" fill="#263238"/>
<path d="M242.513 161.569C242.513 161.569 239.069 161.671 236.799 159.657C236.799 159.657 236.215 162.692 238.742 163.434C241.269 164.177 242.513 161.569 242.513 161.569Z" fill="#F28F8F"/>
<path d="M219.714 148.906C219.714 148.906 222.025 153.707 223.446 153.54C224.868 153.374 223.446 135.134 226.408 135.016C229.369 134.897 243.321 141.831 255.663 132.884C260.4 129.449 261.348 120.685 258.505 121.514C255.663 122.344 251.825 124.83 246.638 124.476C241.449 124.12 223.328 115.711 218.827 127.555C218.827 127.555 208.791 126.737 212.561 146.654C213.497 151.599 216.458 163.869 219.893 165.077L219.714 148.906Z" fill="#263238"/>
<path d="M220.527 153.286C220.569 151.786 220.328 150.276 219.714 148.906C219.025 147.37 217.808 145.819 215.696 145.761C211.06 145.634 210.434 150.098 210.496 151.687C210.661 155.861 214.039 160.369 220.328 160.541L220.527 153.286Z" fill="#FFA8A7"/>
<path d="M221.964 242.675L233.79 252.044C233.79 252.044 237.531 252.405 239.791 253.083C242.052 253.761 247.99 255.945 249.562 256.284C251.132 256.625 249.101 259.329 244.993 258.346C244.993 258.346 253.615 264.254 253.499 266.884C253.383 269.513 244.534 273.997 238.562 269.594C237.357 268.706 235.212 266.976 233.477 266.404C231.742 265.832 226.649 263.863 223.619 259.399L213.277 254.007C213.277 254.007 210.362 241.82 221.964 242.675Z" fill="#FFA8A7"/>
<path d="M209.054 177.842C209.054 177.842 215.958 183.193 211.717 199.806C207.474 216.419 205.209 230.744 205.209 230.744L221.965 242.674C221.965 242.674 214.881 245.192 213.277 254.007C213.277 254.007 186.865 243.624 186.333 236.961C185.8 230.297 191.841 201.438 192.76 196.134C193.679 190.83 198.373 180.353 209.054 177.842Z" fill="#FFA8A7"/>
<path d="M205.209 230.745C205.209 230.745 201.812 230.02 198.892 230.805C198.892 230.805 201.481 229.205 205.352 229.202L205.209 230.745Z" fill="#F28F8F"/>
<path d="M321.542 213.947L315.498 253.505C315.494 253.533 315.478 253.557 315.454 253.57L255.424 288.388C255.358 288.426 255.275 288.372 255.287 288.295L261.149 249.936C261.403 248.28 262.371 246.82 263.799 245.945L318.87 212.173C320.152 211.385 321.77 212.459 321.542 213.947Z" fill="#FAFAFA"/>
<path d="M255.423 288.387L223.356 269.813C221.851 268.942 220.924 267.334 220.924 265.594L255.688 285.664L255.423 288.387Z" fill="#E0E0E0"/>
<path d="M286.799 252.069C286.799 254.894 288.782 256.039 291.23 254.627C293.676 253.214 295.66 249.778 295.66 246.953C295.66 244.128 293.677 242.982 291.23 244.394C288.782 245.808 286.799 249.244 286.799 252.069Z" fill="#E0E0E0"/>
<path d="M220.418 133.38C220.418 133.38 217.695 129.353 219.352 128.05C221.011 126.747 222.314 130.892 220.418 133.38Z" fill="#263238"/>
<path d="M220.88 134.221C220.88 134.221 216.055 133.62 216.166 131.515C216.276 129.409 220.254 131.157 220.88 134.221Z" fill="#263238"/>
<path d="M219.894 172.591C219.894 172.591 223.435 181.921 231.607 180.736C239.78 179.551 236.401 172.591 236.401 172.591H219.894Z" fill="#FFA8A7"/>
<path d="M209.053 177.841C209.053 177.841 214.433 180.416 213.604 191.236C212.775 202.056 208.512 223.849 208.512 223.849C208.512 223.849 189.261 231.638 187.43 220.651C186.956 217.808 191.812 191.515 195.957 185.948C200.102 180.382 204.786 178.604 209.053 177.841Z" fill="#176B68"/>
<path d="M266.394 366.824C266.394 366.824 267.593 368.712 269.539 369.02C270.702 369.204 268.342 366.174 271.159 364.96C273.976 363.746 280.415 362.07 280.988 364.494L281.702 367.513C282.377 370.368 283.74 373.011 285.673 375.216C287.606 377.42 290.108 380.047 292.048 381.3C295.725 383.676 301.773 389.412 294.009 394.297C286.247 399.181 276.704 395.06 274.837 389.501C272.968 383.943 270.993 382.336 269.997 381.414C269.001 380.492 266.676 379.042 265.801 375.293C265.233 372.86 264.908 369.74 264.751 367.852C264.665 366.822 265.157 365.835 266.029 365.28L266.394 366.824Z" fill="#455A64"/>
<path d="M294.011 394.298C286.249 399.183 276.706 395.061 274.839 389.503C272.97 383.945 270.994 382.338 269.998 381.416C269.106 380.59 267.155 379.325 266.127 376.378C266.141 376.531 266.158 376.689 266.168 376.839C266.464 381.65 269.412 382.777 270.408 383.699C271.404 384.621 273.034 386.146 274.902 391.703C276.77 397.261 286.614 400.726 294.376 395.841C298.144 393.47 298.654 390.9 297.766 388.61C297.908 390.475 296.952 392.448 294.011 394.298Z" fill="#263238"/>
<path d="M256.701 320.489L231.965 334.77L200.744 316.746L225.531 302.435C226.188 302.056 226.996 302.056 227.653 302.435L256.701 319.207C257.194 319.491 257.194 320.203 256.701 320.489Z" fill="#BA68C8"/>
<path opacity="0.7" d="M256.701 320.489L231.965 334.77L200.744 316.746L225.531 302.435C226.188 302.056 226.996 302.056 227.653 302.435L256.701 319.207C257.194 319.491 257.194 320.203 256.701 320.489Z" fill="black"/>
<path d="M254.988 319.965L231.963 333.258L202.905 316.481L225.976 303.161C226.587 302.809 227.339 302.809 227.951 303.161L254.987 318.77C255.447 319.035 255.447 319.699 254.988 319.965Z" fill="white"/>
<path d="M231.964 333.257V330.664L255.332 317.173V319.381L231.964 333.257Z" fill="white"/>
<path d="M231.964 333.257V330.664L202.907 313.888V316.48L231.964 333.257Z" fill="#E0E0E0"/>
<path d="M256.701 316.383L231.965 330.664L200.744 312.64L225.531 298.329C226.188 297.951 226.996 297.951 227.653 298.329L256.701 315.101C257.194 315.385 257.194 316.097 256.701 316.383Z" fill="#229894"/>
<path d="M228.737 332.907C228.588 332.966 228.421 332.96 228.273 332.881C228.088 332.782 227.977 332.598 227.977 332.387V330.042C227.977 328.966 228.553 327.955 229.479 327.407L229.567 327.355C229.692 327.281 229.803 327.329 229.845 327.353C229.887 327.376 229.984 327.448 229.984 327.593C229.984 327.862 230.203 328.079 230.47 328.079C230.739 328.079 230.956 327.861 230.956 327.593C230.956 327.14 230.721 326.733 230.326 326.509C229.931 326.283 229.461 326.288 229.07 326.519L228.982 326.571C227.761 327.294 227.003 328.623 227.003 330.042V332.387C227.003 332.954 227.314 333.472 227.813 333.739C228.039 333.859 228.288 333.919 228.536 333.919C228.834 333.919 229.13 333.833 229.388 333.661C229.486 333.596 229.546 333.499 229.577 333.393L228.737 332.907Z" fill="white"/>
<path d="M224.117 330.239C223.967 330.298 223.8 330.292 223.653 330.213C223.467 330.114 223.357 329.93 223.357 329.72V327.375C223.357 326.299 223.933 325.29 224.858 324.741L224.946 324.689C225.071 324.615 225.183 324.663 225.224 324.687C225.267 324.711 225.364 324.782 225.364 324.928C225.364 325.197 225.582 325.414 225.85 325.414C226.119 325.414 226.336 325.195 226.336 324.928C226.336 324.474 226.1 324.067 225.705 323.843C225.31 323.618 224.842 323.622 224.45 323.853L224.362 323.906C223.141 324.629 222.383 325.959 222.383 327.377V329.722C222.383 330.289 222.693 330.806 223.192 331.074C223.419 331.195 223.667 331.255 223.915 331.255C224.213 331.255 224.51 331.168 224.767 330.996C224.865 330.931 224.925 330.834 224.956 330.728L224.117 330.239Z" fill="white"/>
<path d="M219.493 327.572C219.343 327.631 219.177 327.625 219.029 327.546C218.844 327.447 218.733 327.263 218.733 327.053V324.708C218.733 323.631 219.309 322.622 220.234 322.073L220.322 322.02C220.447 321.947 220.559 321.995 220.6 322.018C220.643 322.042 220.74 322.113 220.74 322.259C220.74 322.528 220.957 322.745 221.226 322.745C221.495 322.745 221.712 322.527 221.712 322.259C221.712 321.804 221.476 321.399 221.081 321.175C220.686 320.949 220.218 320.953 219.827 321.185L219.739 321.238C218.518 321.96 217.76 323.29 217.76 324.709V327.054C217.76 327.621 218.07 328.138 218.57 328.405C218.796 328.526 219.044 328.586 219.292 328.586C219.59 328.586 219.887 328.499 220.144 328.328C220.243 328.263 220.303 328.165 220.334 328.06L219.493 327.572Z" fill="white"/>
<path d="M214.872 324.904C214.722 324.963 214.556 324.957 214.408 324.878C214.223 324.779 214.112 324.595 214.112 324.385V322.04C214.112 320.964 214.688 319.953 215.615 319.405L215.703 319.353C215.828 319.279 215.939 319.327 215.981 319.351C216.023 319.374 216.12 319.446 216.12 319.592C216.12 319.86 216.338 320.078 216.606 320.078C216.875 320.078 217.092 319.86 217.092 319.592C217.092 319.137 216.857 318.731 216.462 318.507C216.067 318.283 215.597 318.286 215.206 318.517L215.118 318.57C213.897 319.293 213.139 320.624 213.139 322.041V324.386C213.139 324.953 213.45 325.471 213.949 325.738C214.175 325.859 214.424 325.919 214.672 325.919C214.97 325.919 215.266 325.832 215.524 325.66C215.622 325.595 215.682 325.497 215.713 325.392L214.872 324.904Z" fill="white"/>
<path d="M210.251 322.236C210.101 322.295 209.934 322.289 209.786 322.209C209.601 322.11 209.491 321.926 209.491 321.715V319.37C209.491 318.294 210.067 317.283 210.993 316.735L211.081 316.684C211.206 316.61 211.318 316.657 211.359 316.682C211.401 316.705 211.499 316.777 211.499 316.923C211.499 317.19 211.717 317.409 211.985 317.409C212.252 317.409 212.471 317.19 212.471 316.923C212.471 316.468 212.235 316.062 211.84 315.837C211.445 315.612 210.975 315.616 210.585 315.847L210.496 315.9C209.275 316.623 208.517 317.954 208.517 319.371V321.716C208.517 322.283 208.827 322.801 209.326 323.068C209.553 323.189 209.801 323.249 210.049 323.249C210.347 323.249 210.644 323.162 210.901 322.99C210.999 322.924 211.059 322.827 211.09 322.722L210.251 322.236Z" fill="white"/>
<path d="M205.628 319.569C205.478 319.628 205.312 319.621 205.164 319.542C204.979 319.442 204.868 319.258 204.868 319.049V316.703C204.868 315.627 205.444 314.617 206.369 314.069L206.457 314.016C206.582 313.943 206.694 313.989 206.735 314.014C206.778 314.038 206.875 314.109 206.875 314.255C206.875 314.523 207.093 314.741 207.361 314.741C207.63 314.741 207.847 314.523 207.847 314.255C207.847 313.8 207.611 313.395 207.216 313.169C206.821 312.944 206.352 312.948 205.961 313.18L205.873 313.231C204.652 313.954 203.894 315.284 203.894 316.702V319.047C203.894 319.614 204.204 320.132 204.704 320.399C204.93 320.52 205.178 320.58 205.426 320.58C205.724 320.58 206.021 320.493 206.278 320.321C206.377 320.255 206.437 320.158 206.468 320.054L205.628 319.569Z" fill="white"/>
<path d="M259.893 309.927L233.15 325.368L198.348 305.275L225.091 289.834L259.893 309.927Z" fill="#E6E6E6"/>
<path d="M261.43 309.423L233.487 322.569L200.489 299.632L228.432 286.485L261.43 309.423Z" fill="#FAFAFA"/>
<path d="M199.046 268.36H187.742H176.352L178.387 292.383H178.396C178.516 293.662 179.411 294.923 181.104 295.9C184.747 298.003 190.653 298.003 194.296 295.9C195.988 294.923 196.884 293.663 197.004 292.383H197.01L199.046 268.36Z" fill="#229894"/>
<path d="M200.496 267.049V265.145H200.049C199.486 263.934 198.394 262.788 196.749 261.838C191.751 258.952 183.647 258.952 178.649 261.838C177.004 262.788 175.911 263.934 175.349 265.145H174.901V267.063C174.901 268.954 176.15 270.845 178.649 272.288C183.647 275.174 191.751 275.174 196.749 272.288C199.254 270.842 200.502 268.945 200.496 267.049Z" fill="#E0E0E0"/>
<path d="M196.75 270.482C191.751 273.368 183.648 273.368 178.649 270.482C173.651 267.596 173.651 262.918 178.649 260.033C183.648 257.147 191.751 257.147 196.75 260.033C201.747 262.917 201.748 267.596 196.75 270.482Z" fill="#EBEBEB"/>
<path d="M197.953 264.465V262.94H197.594C197.143 261.97 196.268 261.052 194.95 260.291C190.945 257.979 184.452 257.979 180.447 260.291C179.129 261.052 178.254 261.97 177.803 262.94H177.443V264.478C177.443 265.992 178.444 267.508 180.447 268.664C184.452 270.976 190.944 270.976 194.949 268.664C196.958 267.504 197.958 265.984 197.953 264.465Z" fill="#E0E0E0"/>
<path d="M194.951 267.216C190.946 269.528 184.453 269.528 180.449 267.216C176.444 264.904 176.444 261.154 180.449 258.842C184.453 256.53 190.946 256.53 194.952 258.842C198.955 261.155 198.955 264.904 194.951 267.216Z" fill="#F5F5F5"/>
<path d="M193.278 265.996C190.203 267.774 185.2 267.774 182.114 265.996C179.131 264.275 179.027 261.521 181.803 259.742C181.907 259.673 182.01 259.605 182.114 259.547C182.756 259.18 183.491 258.881 184.271 258.664C187.208 257.849 190.845 258.136 193.278 259.547C196.364 261.326 196.364 264.217 193.278 265.996Z" fill="#F0F0F0"/>
<path d="M182.117 260.467C185.201 258.686 190.199 258.686 193.282 260.467C194.622 261.24 195.378 262.222 195.554 263.232C195.783 261.917 195.027 260.558 193.282 259.55C190.199 257.77 185.2 257.77 182.117 259.55C180.374 260.557 179.618 261.917 179.846 263.232C180.021 262.222 180.778 261.24 182.117 260.467Z" fill="#E0E0E0"/>
<path d="M186.335 260.775L184.041 262.232L181.803 260.626V259.743C181.907 259.674 182.01 259.605 182.114 259.548C182.756 259.181 183.491 258.882 184.271 258.665V259.329L186.335 260.775Z" fill="#E0E0E0"/>
<path d="M455.856 119.669L327.142 45.3567C325.666 44.5047 324.337 44.5677 323.396 45.3494L318.941 48.4308L321.979 52.1873V155.985C321.979 159.787 324.292 164.205 327.142 165.851L454.576 239.424L454.812 243.472L459.507 240.254C460.441 239.548 461.018 238.16 461.018 236.26V129.536C461.018 125.733 458.707 121.316 455.856 119.669Z" fill="#176B68"/>
<path d="M451.471 243.182L322.757 168.869C319.906 167.223 317.594 162.806 317.594 159.004V52.2782C317.594 48.4762 319.906 46.7287 322.757 48.3749L451.471 122.687C454.322 124.334 456.634 128.751 456.634 132.553V239.278C456.633 243.08 454.322 244.828 451.471 243.182Z" fill="#BA68C8"/>
<path d="M451.471 243.182L322.757 168.869C319.906 167.223 317.594 162.806 317.594 159.004V52.2782C317.594 48.4762 319.906 46.7287 322.757 48.3749L451.471 122.687C454.322 124.334 456.634 128.751 456.634 132.553V239.278C456.633 243.08 454.322 244.828 451.471 243.182Z" fill="#229894"/>
<path d="M451.471 122.687L322.757 48.3749C319.906 46.7287 317.594 48.4762 317.594 52.2782V57.4958L456.633 137.77V132.553C456.633 128.751 454.322 124.334 451.471 122.687Z" fill="#455A64"/>
<path d="M320.709 48.7884C321.167 48.7884 321.696 48.9549 322.241 49.2692L450.955 123.582C453.474 125.036 455.6 129.144 455.6 132.552V239.277C455.6 241.397 454.785 242.766 453.521 242.766C453.057 242.766 452.541 242.603 451.989 242.285L323.275 167.972C320.757 166.519 318.629 162.411 318.629 159.002V52.2781C318.629 50.1584 319.445 48.7884 320.709 48.7884ZM320.709 47.7544C318.877 47.7544 317.596 49.446 317.596 52.2771V159.002C317.596 162.804 319.908 167.222 322.759 168.868L451.473 243.18C452.201 243.601 452.894 243.8 453.522 243.8C455.354 243.8 456.635 242.108 456.635 239.277V132.553C456.635 128.751 454.323 124.333 451.473 122.687L322.758 48.3748C322.03 47.954 321.337 47.7544 320.709 47.7544Z" fill="#229894"/>
<path d="M377.262 104.258C377.076 104.258 376.888 104.211 376.715 104.111L327.72 75.8237C327.197 75.5217 327.017 74.8517 327.32 74.3275C327.622 73.8053 328.291 73.6243 328.816 73.9263L377.811 102.213C378.334 102.516 378.514 103.185 378.212 103.71C378.01 104.061 377.641 104.258 377.262 104.258Z" fill="white"/>
<path d="M446.2 144.058C446.014 144.058 445.826 144.011 445.653 143.911L409.36 122.957C408.837 122.655 408.657 121.985 408.96 121.461C409.26 120.938 409.932 120.757 410.456 121.061L446.749 142.015C447.272 142.317 447.452 142.987 447.149 143.511C446.947 143.862 446.58 144.058 446.2 144.058Z" fill="white"/>
<path d="M402.04 118.562C401.854 118.562 401.666 118.515 401.493 118.415L386.751 109.904C386.228 109.601 386.048 108.932 386.35 108.408C386.653 107.885 387.323 107.704 387.846 108.007L402.588 116.518C403.111 116.821 403.291 117.49 402.989 118.014C402.787 118.366 402.419 118.562 402.04 118.562Z" fill="white"/>
<path d="M377.262 172.881C377.076 172.881 376.888 172.833 376.715 172.734L327.72 144.447C327.197 144.145 327.017 143.475 327.32 142.951C327.622 142.428 328.291 142.249 328.816 142.55L377.811 170.837C378.334 171.14 378.514 171.809 378.212 172.333C378.01 172.684 377.642 172.881 377.262 172.881Z" fill="white"/>
<path d="M446.2 212.683C446.014 212.683 445.826 212.636 445.653 212.536L409.36 191.581C408.837 191.278 408.657 190.609 408.96 190.085C409.26 189.561 409.932 189.379 410.456 189.684L446.749 210.638C447.272 210.94 447.452 211.61 447.149 212.135C446.947 212.486 446.58 212.683 446.2 212.683Z" fill="white"/>
<path d="M402.04 187.185C401.854 187.185 401.666 187.139 401.493 187.038L386.751 178.528C386.228 178.226 386.048 177.556 386.35 177.031C386.653 176.508 387.323 176.328 387.846 176.63L402.588 185.141C403.111 185.444 403.291 186.113 402.989 186.637C402.787 186.989 402.419 187.185 402.04 187.185Z" fill="white"/>
<path d="M377.263 189.015C377.076 189.015 376.888 188.969 376.716 188.869L327.721 160.581C327.197 160.28 327.017 159.609 327.319 159.085C327.622 158.562 328.29 158.382 328.816 158.684L377.811 186.971C378.334 187.273 378.514 187.943 378.212 188.467C378.01 188.819 377.642 189.015 377.263 189.015Z" fill="white"/>
<path d="M430.754 219.899C430.567 219.899 430.379 219.853 430.206 219.752L409.36 207.718C408.837 207.416 408.657 206.746 408.959 206.221C409.262 205.698 409.932 205.517 410.455 205.821L431.302 217.856C431.825 218.158 432.005 218.828 431.703 219.352C431.5 219.703 431.133 219.899 430.754 219.899Z" fill="white"/>
<path d="M402.04 203.321C401.854 203.321 401.666 203.274 401.493 203.174L386.751 194.663C386.228 194.36 386.048 193.69 386.35 193.167C386.653 192.644 387.323 192.464 387.846 192.766L402.588 201.276C403.111 201.578 403.291 202.248 402.989 202.773C402.787 203.124 402.419 203.321 402.04 203.321Z" fill="white"/>
<path d="M352.829 98.6773C352.643 98.6773 352.455 98.6308 352.282 98.5305L327.72 84.3502C327.197 84.0483 327.017 83.3782 327.32 82.854C327.622 82.3318 328.291 82.1498 328.816 82.4538L353.377 96.6341C353.9 96.936 354.08 97.6061 353.778 98.1303C353.575 98.4808 353.207 98.6773 352.829 98.6773Z" fill="white"/>
<path d="M423.592 139.531C423.406 139.531 423.217 139.485 423.045 139.384L386.751 118.43C386.228 118.128 386.048 117.458 386.35 116.934C386.653 116.411 387.323 116.232 387.846 116.533L424.14 137.487C424.663 137.789 424.843 138.459 424.541 138.983C424.338 139.335 423.97 139.531 423.592 139.531Z" fill="white"/>
<path d="M377.605 112.981C377.419 112.981 377.23 112.935 377.058 112.834L362.317 104.324C361.794 104.022 361.614 103.352 361.916 102.827C362.219 102.304 362.887 102.123 363.412 102.427L378.153 110.938C378.676 111.24 378.856 111.91 378.553 112.434C378.351 112.785 377.983 112.981 377.605 112.981Z" fill="white"/>
<path d="M377.263 121.311C377.076 121.311 376.888 121.265 376.716 121.164L327.721 92.8771C327.197 92.5742 327.017 91.9052 327.319 91.3809C327.622 90.8577 328.29 90.6789 328.816 90.9798L377.811 119.267C378.334 119.57 378.514 120.239 378.212 120.763C378.01 121.115 377.642 121.311 377.263 121.311Z" fill="white"/>
<path d="M419.575 145.741C419.389 145.741 419.2 145.694 419.028 145.594L409.36 140.012C408.837 139.71 408.657 139.039 408.96 138.516C409.26 137.994 409.932 137.813 410.456 138.115L420.124 143.697C420.647 143.998 420.827 144.668 420.524 145.193C420.321 145.544 419.954 145.741 419.575 145.741Z" fill="white"/>
<path d="M357.662 118.521C357.476 118.521 357.288 118.475 357.115 118.375L347.447 112.793C346.924 112.491 346.744 111.821 347.046 111.297C347.349 110.773 348.017 110.593 348.542 110.896L358.21 116.477C358.733 116.779 358.913 117.449 358.611 117.973C358.409 118.325 358.041 118.521 357.662 118.521Z" fill="white"/>
<path d="M402.04 135.616C401.854 135.616 401.666 135.569 401.493 135.469L386.751 126.958C386.228 126.656 386.048 125.986 386.35 125.462C386.653 124.939 387.323 124.759 387.846 125.061L402.588 133.571C403.111 133.873 403.291 134.543 402.989 135.068C402.787 135.419 402.419 135.616 402.04 135.616Z" fill="white"/>
<path d="M343.972 110.617C343.786 110.617 343.598 110.57 343.425 110.47L327.721 101.404C327.197 101.102 327.017 100.432 327.319 99.9075C327.622 99.3843 328.29 99.2044 328.816 99.5063L344.52 108.572C345.043 108.875 345.223 109.544 344.921 110.069C344.718 110.42 344.35 110.617 343.972 110.617Z" fill="white"/>
<path d="M377.605 130.036C377.419 130.036 377.23 129.99 377.058 129.889L362.317 121.378C361.794 121.077 361.614 120.407 361.916 119.882C362.219 119.359 362.887 119.178 363.412 119.482L378.153 127.993C378.676 128.295 378.856 128.965 378.553 129.489C378.351 129.84 377.983 130.036 377.605 130.036Z" fill="white"/>
<path d="M377.263 138.986C377.076 138.986 376.888 138.94 376.716 138.84L327.721 110.552C327.197 110.25 327.017 109.58 327.319 109.056C327.622 108.534 328.29 108.352 328.816 108.655L377.811 136.942C378.334 137.245 378.514 137.914 378.212 138.438C378.01 138.79 377.642 138.986 377.263 138.986Z" fill="white"/>
<path d="M446.2 178.788C446.014 178.788 445.826 178.742 445.653 178.641L409.36 157.687C408.837 157.385 408.657 156.715 408.96 156.191C409.26 155.669 409.932 155.486 410.456 155.791L446.749 176.745C447.272 177.047 447.452 177.717 447.149 178.241C446.947 178.592 446.58 178.788 446.2 178.788Z" fill="white"/>
<path d="M402.04 153.292C401.854 153.292 401.666 153.245 401.493 153.145L386.751 144.634C386.228 144.332 386.048 143.662 386.35 143.138C386.653 142.615 387.323 142.436 387.846 142.737L402.588 151.248C403.111 151.551 403.291 152.22 402.989 152.744C402.787 153.095 402.419 153.292 402.04 153.292Z" fill="white"/>
<path d="M352.83 133.407C352.644 133.407 352.456 133.36 352.283 133.26L327.723 119.08C327.199 118.777 327.019 118.108 327.321 117.584C327.624 117.06 328.292 116.881 328.818 117.182L353.378 131.363C353.901 131.665 354.081 132.335 353.779 132.859C353.577 133.21 353.209 133.407 352.83 133.407Z" fill="white"/>
<path d="M423.592 174.262C423.406 174.262 423.217 174.215 423.045 174.115L386.751 153.161C386.228 152.859 386.048 152.189 386.35 151.665C386.653 151.141 387.323 150.961 387.846 151.263L424.14 172.217C424.663 172.519 424.843 173.189 424.541 173.714C424.338 174.065 423.97 174.262 423.592 174.262Z" fill="white"/>
<path d="M377.605 147.712C377.419 147.712 377.23 147.665 377.058 147.565L362.317 139.054C361.794 138.752 361.614 138.082 361.916 137.558C362.219 137.034 362.887 136.853 363.412 137.156L378.153 145.667C378.676 145.969 378.856 146.639 378.553 147.163C378.351 147.515 377.983 147.712 377.605 147.712Z" fill="white"/>
<path d="M377.263 156.041C377.076 156.041 376.888 155.995 376.716 155.894L327.721 127.607C327.197 127.304 327.017 126.635 327.319 126.111C327.622 125.588 328.29 125.408 328.816 125.71L377.811 153.997C378.334 154.299 378.514 154.969 378.212 155.493C378.01 155.845 377.642 156.041 377.263 156.041Z" fill="white"/>
<path d="M419.575 180.469C419.389 180.469 419.2 180.423 419.028 180.323L409.36 174.741C408.837 174.438 408.657 173.768 408.96 173.245C409.26 172.723 409.932 172.541 410.456 172.844L420.124 178.425C420.647 178.727 420.827 179.397 420.524 179.921C420.321 180.274 419.954 180.469 419.575 180.469Z" fill="white"/>
<path d="M357.664 153.251C357.478 153.251 357.29 153.205 357.117 153.105L347.449 147.523C346.926 147.221 346.746 146.551 347.049 146.027C347.351 145.505 348.02 145.322 348.545 145.627L358.213 151.208C358.736 151.511 358.916 152.18 358.613 152.704C358.411 153.055 358.042 153.251 357.664 153.251Z" fill="white"/>
<path d="M402.04 170.345C401.854 170.345 401.666 170.299 401.493 170.199L386.751 161.688C386.228 161.385 386.048 160.715 386.35 160.191C386.653 159.668 387.323 159.489 387.846 159.79L402.588 168.301C403.111 168.603 403.291 169.273 402.989 169.797C402.787 170.149 402.419 170.345 402.04 170.345Z" fill="white"/>
<path d="M343.972 145.346C343.786 145.346 343.598 145.299 343.425 145.2L327.721 136.133C327.197 135.832 327.017 135.162 327.319 134.637C327.622 134.114 328.29 133.934 328.816 134.236L344.52 143.302C345.043 143.604 345.223 144.274 344.921 144.798C344.718 145.15 344.35 145.346 343.972 145.346Z" fill="white"/>
<path d="M377.605 164.765C377.419 164.765 377.23 164.719 377.058 164.618L362.317 156.107C361.794 155.805 361.614 155.135 361.916 154.611C362.219 154.088 362.887 153.908 363.412 154.21L378.153 162.722C378.676 163.024 378.856 163.694 378.553 164.218C378.351 164.569 377.983 164.765 377.605 164.765Z" fill="white"/>
<path d="M357.662 169.596C357.476 169.596 357.288 169.549 357.115 169.449L347.447 163.868C346.924 163.566 346.744 162.896 347.046 162.371C347.349 161.849 348.017 161.668 348.542 161.97L358.21 167.552C358.733 167.854 358.913 168.524 358.611 169.048C358.409 169.401 358.041 169.596 357.662 169.596Z" fill="white"/>
<path d="M343.972 161.692C343.786 161.692 343.598 161.646 343.425 161.545L327.721 152.479C327.197 152.177 327.017 151.507 327.319 150.983C327.622 150.46 328.29 150.279 328.816 150.583L344.52 159.649C345.043 159.951 345.223 160.621 344.921 161.145C344.718 161.496 344.35 161.692 343.972 161.692Z" fill="white"/>
<path d="M377.605 181.11C377.419 181.11 377.23 181.063 377.058 180.964L362.317 172.453C361.794 172.151 361.614 171.481 361.916 170.957C362.219 170.433 362.887 170.253 363.412 170.555L378.153 179.066C378.676 179.368 378.856 180.038 378.553 180.562C378.351 180.914 377.983 181.11 377.605 181.11Z" fill="white"/>
<path d="M337.966 86.4579V126.106C337.966 126.741 337.732 127.17 337.375 127.309L337.364 127.312L337.362 127.314L335.844 128.146L335.852 126.794L335.637 86.0318L337.625 85.0278C337.838 85.4838 337.966 85.9884 337.966 86.4579Z" fill="#263238"/>
<path d="M337.627 85.0295L335.64 86.0336L287.567 57.8529L286.422 57.186L288.005 56.2947L288.05 56.2678C288.302 56.1158 288.633 56.1251 288.997 56.335L336.537 83.7267C336.974 83.979 337.365 84.465 337.627 85.0295Z" fill="#37474F"/>
<path d="M336.243 87.3219V126.707C336.243 127.255 336.068 127.648 335.79 127.832L335.699 127.882C335.457 127.996 335.153 127.972 334.822 127.78L287.568 100.553C286.783 100.1 286.145 98.8831 286.145 97.8377V58.4537C286.145 57.9243 286.307 57.5406 286.57 57.3483C286.614 57.3152 286.663 57.2873 286.715 57.2666C286.952 57.1653 287.247 57.1953 287.568 57.3793L334.822 84.6077C335.24 84.8486 335.615 85.3066 335.875 85.8392C336.104 86.3055 336.243 86.8318 336.243 87.3219Z" fill="#455A64"/>
<path d="M325.397 104.002V102.486L314.83 90.1705V92.5957L322.936 101.785L322.87 101.595V101.974L322.936 101.861L314.83 101.69V104.115L325.397 104.002ZM304.787 78.6118L310.201 104.967L311.973 105.99L306.559 79.6349L304.787 78.6118ZM291.367 84.3538L301.934 96.6692V94.244L293.828 85.0549L293.894 85.2443V84.8654L293.828 84.9791L301.934 85.1496V82.7244L291.367 82.8381V84.3538Z" fill="#FAFAFA"/>
<path d="M286.814 57.311C286.946 57.311 287.093 57.3565 287.25 57.4475L334.79 84.8392C335.148 85.045 335.495 85.4555 335.744 85.9663C335.965 86.4171 336.088 86.9062 336.088 87.3415V126.964C336.088 127.403 335.965 127.735 335.769 127.865L335.691 127.908C335.629 127.937 335.56 127.952 335.487 127.952C335.356 127.952 335.21 127.906 335.054 127.816L287.514 100.425C286.809 100.018 286.214 98.8716 286.214 97.9214V58.2985C286.214 57.8756 286.331 57.5478 286.534 57.3979C286.563 57.3762 286.591 57.3607 286.626 57.3472C286.683 57.3234 286.746 57.311 286.814 57.311ZM286.814 57.0474C286.71 57.0474 286.612 57.067 286.523 57.1053C286.471 57.1249 286.423 57.1539 286.377 57.187C286.114 57.3803 285.95 57.766 285.95 58.2995V97.9203C285.95 98.973 286.591 100.196 287.381 100.652L334.921 128.044C335.122 128.16 335.313 128.216 335.487 128.216C335.601 128.216 335.707 128.192 335.803 128.146L335.896 128.096C336.176 127.91 336.351 127.514 336.351 126.963V87.3405C336.351 86.8472 336.211 86.3189 335.98 85.8494C335.72 85.3138 335.342 84.8527 334.921 84.6107L287.381 57.218C287.179 57.1022 286.987 57.0474 286.814 57.0474Z" fill="#37474F"/>
<path d="M330.318 58.3309C330.318 59.459 329.526 59.9161 328.549 59.3525C327.572 58.788 326.78 57.4169 326.78 56.2888C326.78 55.1607 327.572 54.7037 328.549 55.2672C329.526 55.8318 330.318 57.2028 330.318 58.3309Z" fill="white"/>
<path d="M336.892 62.3903C336.892 63.5184 336.1 63.9754 335.123 63.4118C334.146 62.8483 333.354 61.4762 333.354 60.3481C333.354 59.22 334.146 58.763 335.123 59.3265C336.101 59.8911 336.892 61.2622 336.892 62.3903Z" fill="white"/>
<path d="M343.467 66.4501C343.467 67.5782 342.675 68.0352 341.698 67.4717C340.721 66.9081 339.929 65.536 339.929 64.4079C339.929 63.2798 340.721 62.8228 341.698 63.3863C342.675 63.9499 343.467 65.322 343.467 66.4501Z" fill="white"/>
</svg>
