<svg width="43" height="44" viewBox="0 0 43 44" fill="none" xmlns="http://www.w3.org/2000/svg">
<g clip-path="url(#clip0_155_62829)">
<path fill-rule="evenodd" clip-rule="evenodd" d="M14.2391 0.8125H40.5749C41.0772 0.8125 41.5338 1.01973 41.8675 1.34989V1.3534C42.1976 1.68708 42.4048 2.14369 42.4048 2.64596V27.8648C42.4048 28.3706 42.1976 28.8272 41.8675 29.1608C41.5338 29.4945 41.0772 29.6982 40.5714 29.6982H31.3303C31.3233 29.1398 31.2917 28.5848 31.2355 28.0404H40.5784C40.6241 28.0404 40.6697 28.0193 40.7013 27.9877C40.733 27.9561 40.754 27.9104 40.754 27.8648V7.38766C40.6978 7.39819 40.6381 7.40171 40.5784 7.40171H14.2391C14.1794 7.40171 14.1197 7.39468 14.0635 7.38766V12.6422C13.5051 12.6422 12.9501 12.6703 12.4057 12.7229V2.64596C12.4057 2.14018 12.6129 1.68006 12.9431 1.34989C12.9642 1.32882 12.9817 1.31126 13.0028 1.29369C13.3294 0.995143 13.765 0.8125 14.2391 0.8125ZM24.9694 36.0416C25.0151 35.9608 25.0608 35.873 25.1099 35.7852L25.1134 35.7817C25.1696 35.6763 25.2223 35.5709 25.275 35.4691C25.3347 35.3531 25.3909 35.2337 25.4471 35.1108C25.5068 34.9843 25.5595 34.8649 25.6122 34.7455L25.6333 34.7069C25.7106 34.5207 25.7843 34.3381 25.851 34.1519C25.9178 33.9658 25.9845 33.7761 26.0442 33.5829V33.5794C26.1039 33.3897 26.1566 33.1966 26.2058 32.9999C26.255 32.8032 26.3006 32.603 26.3393 32.4028C26.3709 32.2412 26.399 32.0866 26.4236 31.9321C26.4481 31.7776 26.4692 31.6195 26.4903 31.4579V31.4544C26.5079 31.3139 26.5219 31.1699 26.536 31.0224C26.5465 30.9065 26.5535 30.7906 26.5605 30.6782H23.1079C23.0868 31.1278 23.0341 31.5773 22.9604 32.0199C22.8796 32.4941 22.7672 32.9682 22.6232 33.4354C22.4827 33.8955 22.3141 34.3556 22.1209 34.8122C21.9453 35.2232 21.7451 35.6341 21.5203 36.0451L24.9694 36.0416ZM23.9228 37.6362H20.5368C20.2523 38.0436 19.9432 38.4511 19.6166 38.8515C19.2759 39.2659 18.9106 39.6839 18.5207 40.0984C18.1625 40.4812 17.7796 40.8641 17.3722 41.2469C17.042 41.5595 16.6978 41.8721 16.3431 42.1812L16.6276 42.1285C16.8243 42.0899 17.0209 42.0442 17.2211 41.9915C17.4214 41.9424 17.618 41.8862 17.8112 41.8264C18.0044 41.7667 18.1976 41.7 18.3908 41.6298C18.584 41.5595 18.7736 41.4822 18.9598 41.4014C19.153 41.3172 19.3426 41.2329 19.5253 41.145C19.7079 41.0572 19.8906 40.9624 20.0732 40.8641C20.2523 40.7657 20.4315 40.6674 20.6 40.562C20.7722 40.4566 20.9443 40.3512 21.1058 40.2389C21.2709 40.1265 21.436 40.0141 21.5941 39.8946C21.7521 39.7752 21.9102 39.6558 22.0612 39.5294C22.2122 39.4064 22.3633 39.2765 22.5108 39.1395C22.6583 39.006 22.8023 38.869 22.9428 38.725C23.0517 38.6126 23.1606 38.5037 23.2659 38.3913C23.3713 38.2789 23.4732 38.1666 23.5715 38.0506C23.6523 37.9593 23.7296 37.8645 23.8068 37.7697L23.9228 37.6362ZM11.8367 42.1812C11.4784 41.8721 11.1342 41.5595 10.8041 41.2469C10.4001 40.8641 10.0173 40.4812 9.65902 40.0984C9.26914 39.6839 8.90386 39.2694 8.56316 38.8515C8.233 38.4475 7.92742 38.0436 7.64292 37.6362H4.26402L4.37641 37.7767C4.45369 37.8715 4.53447 37.9664 4.61174 38.0577C4.81195 38.286 5.02269 38.5108 5.24046 38.7285L5.24397 38.7356C5.38446 38.8761 5.52847 39.013 5.67599 39.1465C5.82351 39.28 5.97454 39.4099 6.12557 39.5329C6.27661 39.6593 6.43466 39.7787 6.59272 39.8982C6.75429 40.0176 6.91586 40.13 7.08094 40.2424C7.24251 40.3512 7.41461 40.4601 7.59023 40.5655C7.76234 40.6709 7.93796 40.7692 8.11006 40.8641C8.29271 40.9624 8.47535 41.0572 8.6615 41.145C8.84415 41.2329 9.03382 41.3172 9.227 41.4014C9.24456 41.4085 9.25158 41.4155 9.26914 41.426C9.4553 41.5033 9.63794 41.5736 9.8241 41.6438C10.0103 41.7105 10.1999 41.7773 10.3931 41.837H10.3966C10.5863 41.8967 10.7795 41.9494 10.9762 41.9986C11.1728 42.0477 11.3731 42.0934 11.5733 42.132L11.8367 42.1812ZM3.19977 36.0486H6.64892C6.42412 35.6341 6.22392 35.2232 6.04479 34.8087C5.8481 34.3486 5.6795 33.8885 5.54252 33.4284C5.40202 32.9577 5.28963 32.4871 5.20884 32.0129C5.13157 31.5703 5.0824 31.1278 5.06133 30.6817H1.61218C1.6192 30.7941 1.62974 30.91 1.63676 31.0259C1.65081 31.1734 1.66486 31.3209 1.68243 31.4614C1.7035 31.6265 1.72457 31.7846 1.74916 31.9356C1.77375 32.0866 1.80185 32.2447 1.83346 32.4063L1.83697 32.4203C1.87561 32.617 1.92127 32.8137 1.97044 33.0139C2.01961 33.2141 2.07581 33.4108 2.13552 33.604C2.19523 33.7972 2.26197 33.9903 2.33221 34.1835C2.40246 34.3767 2.47973 34.5664 2.56052 34.7525L2.56403 34.7596C2.6132 34.8755 2.66589 34.9949 2.72209 35.1143L2.7256 35.1178C2.77828 35.2302 2.83448 35.3461 2.89068 35.4655C2.94688 35.5779 2.99956 35.6833 3.05576 35.7887C3.10493 35.873 3.1506 35.9608 3.19977 36.0486ZM1.61218 29.0941H5.09645C5.13509 28.6551 5.20182 28.216 5.29314 27.7735C5.39149 27.3028 5.51793 26.8321 5.67248 26.3615L5.67599 26.3545C5.82702 25.8943 6.00967 25.4342 6.2169 24.9776C6.40656 24.5596 6.61731 24.1417 6.85263 23.7237H3.19977C3.1506 23.8115 3.10142 23.9028 3.05576 23.9871C2.99956 24.089 2.94688 24.1979 2.89068 24.3103L2.88717 24.3138C2.82746 24.4297 2.77477 24.5456 2.71857 24.6615C2.66238 24.7809 2.60969 24.9003 2.56052 25.0198L2.54998 25.0408L2.53593 25.0619C2.45866 25.2445 2.38841 25.4307 2.31816 25.6169C2.25143 25.8065 2.18469 25.9962 2.12498 26.1859C2.06527 26.379 2.00908 26.5722 1.9599 26.7724C1.91073 26.9691 1.86507 27.1693 1.82643 27.3695C1.79482 27.5311 1.76672 27.6892 1.74214 27.8402C1.71755 27.9947 1.69296 28.1528 1.6754 28.3144C1.65784 28.4584 1.64379 28.6024 1.62974 28.7499C1.62623 28.8658 1.61569 28.9817 1.61218 29.0941ZM4.24997 22.1396H7.85015C8.13465 21.7357 8.43671 21.3353 8.75985 20.9314C9.09353 20.5169 9.45179 20.1024 9.82761 19.6845C10.1788 19.2981 10.5547 18.9117 10.9481 18.5219C11.2712 18.2022 11.6119 17.8791 11.9631 17.5595L11.8156 17.5841L11.5627 17.6332C11.366 17.6719 11.1658 17.7175 10.9656 17.7702C10.7654 17.8194 10.5687 17.8756 10.372 17.9353C10.1788 17.995 9.98567 18.0618 9.79249 18.132C9.59931 18.2022 9.40964 18.2795 9.22348 18.3603C9.02679 18.4446 8.84064 18.5324 8.65799 18.6202C8.47535 18.708 8.29271 18.8029 8.11357 18.8977C7.93093 18.996 7.75531 19.0979 7.58321 19.1998C7.4111 19.3016 7.24251 19.4105 7.08094 19.5194C6.91234 19.6318 6.75078 19.7477 6.59272 19.8636C6.43115 19.983 6.27661 20.1024 6.12557 20.2289C5.97454 20.3518 5.82351 20.4818 5.67599 20.6188C5.53198 20.7522 5.38798 20.8892 5.24397 21.0332L5.23694 21.0367C5.12806 21.1456 5.02269 21.2545 4.92083 21.3634C4.81546 21.4758 4.7136 21.5882 4.61525 21.7041C4.53447 21.7954 4.45369 21.8902 4.37641 21.9886L4.24997 22.1396ZM16.2201 17.5735C16.5714 17.8932 16.9086 18.2128 17.2317 18.5324C17.6251 18.9188 17.9939 19.3051 18.3451 19.688C18.7244 20.1024 19.0792 20.5169 19.4129 20.9349C19.736 21.3388 20.0381 21.7392 20.3191 22.1431H23.9122L23.7998 21.9991C23.7225 21.9043 23.6453 21.813 23.5645 21.7181C23.4661 21.6057 23.3643 21.4898 23.2589 21.3774C23.1571 21.2685 23.0517 21.1597 22.9358 21.0438C22.7918 20.8997 22.6478 20.7592 22.5002 20.6293C22.3527 20.4923 22.2017 20.3659 22.0507 20.2429C21.8996 20.1165 21.7416 19.9971 21.5835 19.8776C21.4219 19.7582 21.2604 19.6458 21.0953 19.5334C20.9302 19.4245 20.7616 19.3157 20.5895 19.2103C20.4174 19.1049 20.2418 19.0066 20.0627 18.9082C19.8835 18.8099 19.7009 18.7186 19.5182 18.6308C19.3356 18.5429 19.1459 18.4586 18.9492 18.3743C18.9317 18.3673 18.9247 18.3603 18.9071 18.3498C18.7209 18.2725 18.5348 18.1987 18.3521 18.132C18.166 18.0653 17.9763 17.9985 17.7831 17.9388H17.7796C17.5899 17.8791 17.3933 17.8264 17.2001 17.7737C17.0034 17.7246 16.8067 17.6789 16.603 17.6403L16.3501 17.5911L16.2201 17.5735ZM24.9694 23.7237H21.3236C21.5589 24.1417 21.7697 24.5596 21.9558 24.9741C22.1631 25.4342 22.3457 25.8978 22.4967 26.358C22.6513 26.8286 22.7812 27.2993 22.8761 27.7699C22.9674 28.2125 23.0341 28.6515 23.0728 29.0906H26.5535C26.5465 28.9782 26.536 28.8623 26.5289 28.7464C26.5149 28.5989 26.5008 28.4549 26.4833 28.3108C26.4622 28.1458 26.4411 27.9877 26.4165 27.8367C26.3919 27.6856 26.3638 27.5276 26.3322 27.366L26.3287 27.352C26.2901 27.1553 26.2444 26.9586 26.1917 26.7584C26.1426 26.5582 26.0864 26.3615 26.0267 26.1683C25.967 25.9751 25.9002 25.7819 25.83 25.5888C25.7597 25.3956 25.6824 25.2094 25.6052 25.0233L25.6017 25.0127C25.5525 24.8968 25.4998 24.7774 25.4436 24.658L25.4401 24.6545C25.3909 24.5456 25.3347 24.4297 25.275 24.3067C25.2188 24.1908 25.1626 24.0855 25.1099 23.9871C25.0713 23.9063 25.0221 23.815 24.9694 23.7237ZM11.2607 16.0808C11.4925 16.0351 11.7243 15.993 11.9526 15.9578C12.1809 15.9227 12.4127 15.8946 12.6516 15.87C12.8904 15.8454 13.1292 15.8279 13.3681 15.8173C13.6104 15.8068 13.8528 15.7998 14.0916 15.7998C14.5728 15.7998 15.0505 15.8244 15.5247 15.87C15.7635 15.8946 15.9953 15.9227 16.2271 15.9578C16.4555 15.993 16.6873 16.0316 16.9226 16.0808C17.1474 16.1229 17.3722 16.1756 17.5935 16.2318C17.8147 16.288 18.036 16.3512 18.2573 16.418C18.4751 16.4847 18.6928 16.5585 18.9071 16.6357C19.1178 16.713 19.3321 16.7973 19.5428 16.8886C19.5674 16.8956 19.5815 16.9027 19.606 16.9167C19.8063 17.0045 20.0065 17.0958 20.2102 17.1942C20.4174 17.2925 20.6176 17.3979 20.8108 17.5033L20.8143 17.5068C21.0145 17.6157 21.2112 17.7281 21.4044 17.844L21.4079 17.8475C21.6046 17.9669 21.7978 18.0863 21.9839 18.2128C22.1666 18.3357 22.3492 18.4622 22.5283 18.5921C22.7075 18.7256 22.8831 18.8626 23.0587 19.0031C23.2343 19.1471 23.4029 19.2946 23.5715 19.4456C23.7436 19.6002 23.9087 19.7582 24.0668 19.9163L24.0738 19.9233C24.2318 20.0778 24.3864 20.2394 24.5339 20.4045C24.6849 20.5696 24.8289 20.7382 24.9729 20.9138C25.1134 21.0859 25.2504 21.2615 25.3839 21.4442C25.5174 21.6268 25.6473 21.813 25.7738 21.9991L25.7773 22.0026C25.9037 22.1923 26.0231 22.382 26.1391 22.5681C26.255 22.7613 26.3709 22.958 26.4798 23.1617C26.5886 23.3584 26.6905 23.5621 26.7888 23.7694C26.8907 23.9801 26.9855 24.1873 27.0769 24.3981C27.1682 24.6123 27.256 24.8266 27.3368 25.0479C27.4176 25.2656 27.4913 25.4869 27.5616 25.7117C27.6318 25.9365 27.695 26.1578 27.7512 26.3826C27.8074 26.6038 27.8601 26.8321 27.9058 27.064C27.9514 27.2958 27.9936 27.5241 28.0287 27.7559C28.0638 27.9842 28.0919 28.2195 28.1165 28.4584C28.1411 28.6972 28.1587 28.936 28.1692 29.1749C28.1797 29.4172 28.1868 29.6596 28.1868 29.8984C28.1868 30.1373 28.1797 30.3761 28.1692 30.6185C28.1587 30.8573 28.1411 31.0926 28.1165 31.3315C28.0919 31.5703 28.0638 31.8057 28.0287 32.034V32.0375C27.9936 32.2623 27.955 32.4941 27.9058 32.7259C27.8636 32.9507 27.8109 33.1755 27.7547 33.3968C27.6985 33.618 27.6353 33.8393 27.5686 34.0606C27.5019 34.2784 27.4281 34.4961 27.3508 34.7104C27.2736 34.9211 27.1893 35.1354 27.0979 35.3426C27.0909 35.3707 27.0804 35.3848 27.0663 35.4093C26.9785 35.6166 26.8837 35.8203 26.7853 36.024C26.687 36.2277 26.5816 36.4279 26.4727 36.6281C26.3603 36.8319 26.2479 37.0285 26.1355 37.2182C26.0196 37.4114 25.9002 37.6011 25.7738 37.7872C25.6508 37.9699 25.5244 38.1525 25.3909 38.3351C25.2575 38.5143 25.1205 38.6899 24.98 38.862L24.9765 38.8655C24.8325 39.0411 24.6849 39.2132 24.5339 39.3783L24.5304 39.3818C24.3758 39.5504 24.2213 39.712 24.0668 39.8701L24.0562 39.8806C23.8982 40.0387 23.7401 40.1932 23.5785 40.3407C23.4135 40.4882 23.2449 40.6357 23.0728 40.7798C22.9007 40.9203 22.725 41.0572 22.5424 41.1942C22.3597 41.3277 22.1771 41.4576 21.9909 41.5806C21.8048 41.707 21.6151 41.83 21.4219 41.9459C21.2288 42.0618 21.0286 42.1777 20.8248 42.2866C20.6246 42.3955 20.4209 42.4973 20.2172 42.5992C20.01 42.701 19.7992 42.7959 19.592 42.8837C19.3777 42.975 19.16 43.0628 18.9422 43.1436C18.7244 43.2244 18.5032 43.2981 18.2784 43.3684C18.0571 43.4386 17.8358 43.4983 17.611 43.5545C17.3897 43.6107 17.1614 43.6634 16.9261 43.7091C16.6943 43.7547 16.466 43.7969 16.2342 43.832C16.0059 43.8671 15.7705 43.8952 15.5317 43.9198C15.054 43.9655 14.5763 43.9901 14.0916 43.9901C13.8528 43.9901 13.6139 43.983 13.3716 43.9725C13.1328 43.962 12.8974 43.9444 12.6586 43.9198C12.4197 43.8952 12.1844 43.8671 11.9561 43.832C11.7278 43.7969 11.496 43.7582 11.2642 43.7091C11.0394 43.6669 10.8146 43.6142 10.5933 43.558C10.372 43.5018 10.1507 43.4386 9.93298 43.3719C9.71522 43.3052 9.50096 43.2314 9.28671 43.1541C9.07245 43.0769 8.8582 42.989 8.64394 42.9012C8.62287 42.8907 8.60531 42.8872 8.58423 42.8731C8.38403 42.7853 8.18031 42.694 7.9801 42.5957C7.77639 42.4973 7.57618 42.3954 7.383 42.2901C7.1828 42.1812 6.9861 42.0688 6.79292 41.9529C6.59272 41.8335 6.39603 41.7105 6.20636 41.5841C6.02371 41.4612 5.84107 41.3347 5.66194 41.2012C5.48281 41.0678 5.30719 40.9308 5.13509 40.7903C4.95947 40.6463 4.78736 40.4988 4.61877 40.3442C4.44666 40.1862 4.28158 40.0316 4.12703 39.8771L4.12001 39.8701C3.96195 39.712 3.80741 39.5539 3.65989 39.3889C3.51237 39.2273 3.36485 39.0552 3.22084 38.8831C3.08035 38.711 2.93985 38.5318 2.80638 38.3492C2.67291 38.1701 2.54296 37.9839 2.42002 37.7978C2.29358 37.6116 2.17416 37.4219 2.05474 37.2288C1.93883 37.0356 1.82292 36.8354 1.71404 36.6316C1.60515 36.4314 1.50329 36.2312 1.40144 36.024C1.29958 35.8168 1.20474 35.606 1.11693 35.3988C1.02561 35.1846 0.937803 34.9668 0.857018 34.749C0.776234 34.5313 0.702474 34.31 0.632227 34.0852C0.561979 33.8639 0.502269 33.6426 0.446071 33.4178C0.389873 33.1966 0.337187 32.9682 0.291527 32.7329C0.242354 32.5011 0.203717 32.2693 0.168594 32.0375C0.13347 31.8092 0.105371 31.5774 0.0807845 31.3385C0.0561979 31.0997 0.0386361 30.8608 0.028099 30.622C0.00702474 30.3656 0 30.1267 0 29.8879C0 29.4067 0.0245866 28.929 0.0702474 28.4549C0.094834 28.216 0.122933 27.9842 0.158057 27.7524C0.19318 27.5241 0.231816 27.2923 0.28099 27.0569C0.323138 26.8321 0.375824 26.6109 0.432022 26.3861C0.488219 26.1648 0.551442 25.9435 0.618177 25.7222C0.684912 25.5045 0.758672 25.2867 0.835944 25.0724C0.913216 24.8617 0.997513 24.651 1.08532 24.4402C1.09235 24.4191 1.09586 24.4121 1.1064 24.391L1.11693 24.3735C1.20474 24.1662 1.29958 23.959 1.39792 23.7553C1.49627 23.5516 1.60164 23.3514 1.71052 23.1512C1.81941 22.9475 1.93532 22.7508 2.04771 22.5611C2.16362 22.3679 2.28304 22.1782 2.40949 21.9921C2.53242 21.8094 2.65886 21.6268 2.79233 21.4477C2.9258 21.2685 3.06279 21.0929 3.20328 20.9208C3.34729 20.7452 3.49481 20.5766 3.64584 20.408C3.80038 20.2359 3.95844 20.0708 4.1165 19.9128L4.12352 19.9057C4.28158 19.7477 4.44315 19.5931 4.60472 19.4421C4.7698 19.2911 4.93839 19.1471 5.11401 19.0031C5.28963 18.8591 5.46525 18.7221 5.64438 18.5921L5.6514 18.5886C5.83405 18.4551 6.01669 18.3252 6.19933 18.2058C6.38549 18.0793 6.57516 17.9564 6.76834 17.8405C6.96152 17.7246 7.16172 17.6087 7.36544 17.4998C7.56213 17.3909 7.76585 17.289 7.97308 17.1907C8.18031 17.0888 8.39105 16.994 8.59828 16.9062L8.60531 16.9027C8.82307 16.8078 9.03733 16.7235 9.25158 16.6463C9.46935 16.5655 9.69063 16.4917 9.91542 16.4215C10.1367 16.3512 10.3615 16.288 10.5863 16.2318C10.8076 16.1756 11.0359 16.1229 11.2677 16.0773L11.2607 16.0808ZM14.8784 18.4938V22.1361H18.3556C18.1414 21.8621 17.9131 21.5882 17.6778 21.3107C17.4003 20.9876 17.1052 20.6609 16.7962 20.3378C16.4836 20.0111 16.1534 19.681 15.8092 19.3473C15.5106 19.0698 15.2015 18.7818 14.8784 18.4938ZM14.8784 23.7237V29.0941H21.4887C21.4465 28.6796 21.3763 28.2652 21.2779 27.8472C21.1726 27.3976 21.0391 26.948 20.8705 26.495C20.6984 26.0313 20.4947 25.5642 20.2593 25.097C20.031 24.6404 19.7676 24.1838 19.4761 23.7272H14.8784V23.7237ZM14.8784 30.6817V36.0521H19.6868C19.9678 35.6025 20.2172 35.1565 20.435 34.7069C20.6598 34.2432 20.8494 33.7831 21.004 33.3195C21.155 32.8664 21.2744 32.4098 21.3622 31.9567C21.443 31.5317 21.4957 31.1102 21.5203 30.6852H14.8784V30.6817ZM14.8784 37.6362V41.3452C15.2226 41.0572 15.5528 40.7657 15.8724 40.4742C16.2377 40.1405 16.5854 39.8068 16.9156 39.4767C17.2457 39.143 17.5548 38.8128 17.8499 38.4827C18.0992 38.2017 18.3381 37.9172 18.5629 37.6362H14.8784ZM13.2908 41.3452V37.6327H9.60984C9.83464 37.9172 10.0735 38.1982 10.3193 38.4792C10.6109 38.8093 10.92 39.1395 11.2501 39.4696C11.5803 39.8033 11.928 40.1335 12.2933 40.4672C12.6094 40.7657 12.9431 41.0537 13.2908 41.3452ZM13.2908 36.0486V30.6817H6.64892C6.6735 31.1067 6.7297 31.5282 6.81049 31.9532C6.89829 32.4098 7.01772 32.8629 7.17226 33.3195C7.3268 33.7831 7.51647 34.2467 7.74126 34.7069C7.95903 35.1565 8.2049 35.606 8.48589 36.0521H13.2908V36.0486ZM13.2908 29.0941V23.7237H8.6896C8.39808 24.1803 8.13816 24.6369 7.90634 25.0935C7.67102 25.5607 7.4673 26.0278 7.29519 26.4914C7.13011 26.9445 6.99313 27.3941 6.88776 27.8437C6.78941 28.2617 6.72268 28.6761 6.67702 29.0906H13.2908V29.0941ZM13.2908 22.1396V18.4938C12.9677 18.7818 12.6586 19.0663 12.3635 19.3508C12.0158 19.681 11.6857 20.0146 11.3731 20.3413C11.064 20.6644 10.7689 20.9911 10.4914 21.3142C10.2561 21.5882 10.0278 21.8656 9.81356 22.1396H13.2908ZM30.0694 23.4076H37.0696C37.4559 23.4076 37.7685 23.7483 37.7685 24.1662C37.7685 24.5842 37.4559 24.9249 37.0696 24.9249H30.6068C30.4522 24.4086 30.2731 23.9028 30.0694 23.4076ZM28.2921 20.1095C28.3483 20.0919 28.408 20.0849 28.4713 20.0849H37.0696C37.4559 20.0849 37.7685 20.4256 37.7685 20.8435C37.7685 21.2615 37.4559 21.6022 37.0696 21.6022H29.2159C28.9314 21.0894 28.6258 20.5907 28.2921 20.1095ZM16.7013 9.3019H37.6877V17.5173H26.1039C23.5891 15.0727 20.3331 13.3903 16.7013 12.8353V9.3019ZM24.6428 3.18335C25.2996 3.18335 25.8335 3.71723 25.8335 4.37404C25.8335 5.03086 25.2996 5.56474 24.6428 5.56474C23.986 5.56474 23.4521 5.03086 23.4521 4.37404C23.4521 3.71723 23.986 3.18335 24.6428 3.18335ZM20.4771 3.18335C21.1339 3.18335 21.6678 3.71723 21.6678 4.37404C21.6678 5.03086 21.1339 5.56474 20.4771 5.56474C19.8203 5.56474 19.2864 5.03086 19.2864 4.37404C19.2829 3.71723 19.8168 3.18335 20.4771 3.18335ZM16.3079 3.18335C16.9647 3.18335 17.4986 3.71723 17.4986 4.37404C17.4986 5.03086 16.9647 5.56474 16.3079 5.56474C15.6511 5.56474 15.1172 5.03086 15.1172 4.37404C15.1172 3.71723 15.6511 3.18335 16.3079 3.18335Z" fill="#029894"/>
</g>
<defs>
<clipPath id="clip0_155_62829">
<rect width="42.4084" height="43.16" fill="white" transform="translate(0 0.8125)"/>
</clipPath>
</defs>
</svg>
