<svg width="56" height="41" viewBox="0 0 56 41" fill="none" xmlns="http://www.w3.org/2000/svg">
<g clip-path="url(#clip0_155_62772)">
<path fill-rule="evenodd" clip-rule="evenodd" d="M3.75972 0.812378H51.7685C53.8382 0.812378 55.5282 2.38023 55.5282 4.30021V37.3633C55.5282 39.2791 53.8382 40.8512 51.7685 40.8512H3.75972C1.69007 40.8512 0 39.2833 0 37.3633V4.30021C0 2.38023 1.69007 0.812378 3.75972 0.812378ZM5.69381 11.8879H49.4232V30.22H5.69381V11.8879ZM19.9103 18.2012H21.3518L24.8765 14.5373C25.1883 14.2103 25.7306 14.181 26.0831 14.4744C26.4356 14.7637 26.4627 15.2709 26.1509 15.5937L23.6429 18.2012H31.3295L28.8215 15.5937C28.5097 15.2668 28.5368 14.7637 28.8893 14.4744C29.2418 14.1852 29.7841 14.2103 30.0959 14.5373L33.6206 18.2012H34.9989H35.0169H36.3093C36.5986 18.2012 36.8381 18.4192 36.8381 18.6917V20.0709C36.8381 20.3392 36.6031 20.5614 36.3093 20.5614H35.1887L34.6148 27.2981C34.6012 27.4825 34.4476 27.6377 34.2487 27.6377H20.6604C20.4616 27.6377 20.3124 27.4825 20.2944 27.2981L19.716 20.5614H18.5953C18.3061 20.5614 18.0666 20.3434 18.0666 20.0709V18.6917C18.0666 18.4234 18.3015 18.2012 18.5953 18.2012H19.8877H19.9103ZM29.9377 20.8255H31.6052V25.2943H29.9377V20.8255ZM26.6931 20.8255H28.3606V25.2943H26.6931V20.8255ZM23.4531 20.8255H25.1206V25.2943H23.4531V20.8255ZM30.2179 36.3363C29.4135 36.3363 28.7628 35.6781 28.7628 34.869C28.7628 34.0558 29.4135 33.4018 30.2179 33.4018H48.1353C48.9397 33.4018 49.5904 34.06 49.5904 34.869C49.5904 35.6781 48.9397 36.3363 48.1353 36.3363H30.2179ZM6.76027 36.3363C5.96495 36.3363 5.31874 35.6781 5.31874 34.869C5.31874 34.0558 5.96495 33.4018 6.76027 33.4018H23.3717C24.1671 33.4018 24.8133 34.06 24.8133 34.869C24.8133 35.6781 24.1671 36.3363 23.3717 36.3363H6.76027ZM53.3094 9.23851H2.3905V37.7029C2.3905 38.2395 2.85142 38.6671 3.42984 38.6671H52.252C52.8304 38.6671 53.2914 38.2353 53.2914 37.7029V9.23851H53.3094ZM48.1895 3.83908C49.2153 3.83908 50.0468 4.61042 50.0468 5.56203C50.0468 6.51364 49.2153 7.28499 48.1895 7.28499C47.1637 7.28499 46.3323 6.51364 46.3323 5.56203C46.3323 4.61042 47.1683 3.83908 48.1895 3.83908ZM35.6089 3.83908C36.6347 3.83908 37.4662 4.61042 37.4662 5.56203C37.4662 6.51364 36.6347 7.28499 35.6089 7.28499C34.5831 7.28499 33.7517 6.51364 33.7517 5.56203C33.7517 4.61042 34.5831 3.83908 35.6089 3.83908ZM41.8992 3.83908C42.925 3.83908 43.7565 4.61042 43.7565 5.56203C43.7565 6.51364 42.925 7.28499 41.8992 7.28499C40.8734 7.28499 40.042 6.51364 40.042 5.56203C40.042 4.61042 40.8734 3.83908 41.8992 3.83908Z" fill="#029894"/>
</g>
<defs>
<clipPath id="clip0_155_62772">
<rect width="55.5282" height="40.0388" fill="white" transform="translate(0 0.812378)"/>
</clipPath>
</defs>
</svg>
