<svg width="47" height="47" viewBox="0 0 47 47" fill="none" xmlns="http://www.w3.org/2000/svg">
<g clip-path="url(#clip0_155_62806)">
<path d="M28.4933 36.871H7.05974V6.12999H28.4875V8.4297H31.3675V5.50222C31.3695 2.74458 29.1053 0.486328 26.3495 0.486328H9.20149C6.44185 0.486328 4.18359 2.74458 4.18359 5.50222V41.4684C4.18359 44.2301 6.44185 46.4863 9.20149 46.4863H26.3495C29.1053 46.4863 31.3695 44.2301 31.3695 41.4684V36.8177H28.4933V36.871ZM17.7725 43.9754C16.5013 43.9754 15.4749 42.947 15.4749 41.6777C15.4749 40.4045 16.5013 39.378 17.7725 39.378C19.0458 39.378 20.0743 40.4064 20.0743 41.6777C20.0743 42.947 19.0459 43.9754 17.7725 43.9754Z" fill="#029894"/>
<path d="M15.9449 9.21533H9.51562V13.1357H15.9449V9.21533Z" fill="#029894"/>
<path d="M15.9449 19.2531H9.51562V23.1734H15.9449V19.2531Z" fill="#029894"/>
<path d="M15.9449 29.7587H9.51562V33.677H15.9449V29.7587Z" fill="#029894"/>
<path d="M38.7632 20.9764C38.5361 19.788 38.0762 18.6885 37.4248 17.7272L39.7305 15.4196L37.3755 13.0725L35.0738 15.3761C34.1164 14.7208 33.011 14.2667 31.8265 14.0377V10.7708H28.4945V14.0377C27.3081 14.2667 26.2125 14.7227 25.2453 15.3761L22.9476 13.0725L20.5926 15.4215L22.8944 17.7291C22.2449 18.6904 21.787 19.7899 21.5599 20.9763H18.2969V24.3064H21.5598C21.7869 25.4889 22.2468 26.5884 22.8962 27.5537L20.5926 29.8573L22.9475 32.2024L25.2512 29.9007C26.2145 30.556 27.314 31.012 28.5003 31.243V34.504H31.8324V31.2411C33.0167 31.014 34.1143 30.5541 35.0796 29.9027L37.3813 32.2044L39.7363 29.8573L37.4307 27.5537C38.082 26.5923 38.5401 25.4909 38.769 24.3045H42.034V20.9764H38.7632ZM30.1645 26.2647C28.1609 26.2647 26.5343 24.646 26.5343 22.6405C26.5343 20.6369 28.1608 19.0083 30.1645 19.0083C32.1701 19.0083 33.7887 20.6349 33.7887 22.6405C33.7887 24.648 32.166 26.2647 30.1645 26.2647Z" fill="#029894"/>
</g>
<defs>
<clipPath id="clip0_155_62806">
<rect width="46" height="46" fill="white" transform="translate(0.109375 0.486328)"/>
</clipPath>
</defs>
</svg>
