<svg width="43" height="40" viewBox="0 0 43 40" fill="none" xmlns="http://www.w3.org/2000/svg">
<path d="M21.4735 0C9.70408 0 0.164062 8.85136 0.164062 19.7705C0.164062 30.6903 9.70408 39.5415 21.4735 39.5415C33.2421 39.5415 42.782 30.6903 42.782 19.7705C42.782 8.85136 33.2421 0 21.4735 0ZM15.7351 15.6863C15.7351 15.7145 15.722 15.7395 15.6988 15.757L9.70125 19.8951L15.6988 24.0352C15.722 24.0501 15.7351 24.077 15.7351 24.104V26.6579C15.7351 26.6896 15.7184 26.7179 15.6908 26.7327C15.6785 26.7388 15.6662 26.7427 15.6516 26.7427C15.6356 26.7427 15.619 26.7373 15.6052 26.7273L6.96746 20.7666C6.94498 20.751 6.93042 20.7248 6.93042 20.6972V19.0935C6.93042 19.0653 6.9449 19.039 6.96746 19.0235L15.6052 13.0629C15.619 13.0528 15.6356 13.0481 15.6516 13.0481C15.6661 13.0481 15.6785 13.0515 15.6908 13.0581C15.7185 13.0723 15.7351 13.1006 15.7351 13.1329V15.6863ZM20.018 27.8338C20.0056 27.8682 19.9752 27.8911 19.9388 27.8911H17.5244C17.4968 27.8911 17.4721 27.8776 17.4561 27.8546C17.4409 27.8331 17.4365 27.8048 17.4452 27.7792L22.9281 11.7064C22.939 11.6726 22.9709 11.6505 23.0065 11.6505H25.4216C25.4478 11.6505 25.4739 11.6633 25.4891 11.6855C25.5044 11.7078 25.5088 11.736 25.5 11.7623L20.018 27.8338ZM36.0143 20.6972C36.0143 20.7248 36.0013 20.7511 35.978 20.7666L27.3403 26.7272C27.3264 26.7373 27.3105 26.7427 27.2938 26.7427C27.28 26.7427 27.267 26.7386 27.2546 26.7326C27.2271 26.7178 27.2103 26.6895 27.2103 26.6579V24.1045C27.2103 24.0769 27.2234 24.05 27.2466 24.0352L33.2442 19.895L27.2466 15.7569C27.2235 15.7408 27.2103 15.7152 27.2103 15.6869V13.1329C27.2103 13.1006 27.2271 13.0723 27.2546 13.0581C27.2669 13.0515 27.28 13.0481 27.2938 13.0481C27.3105 13.0481 27.3264 13.0528 27.3403 13.0629L35.978 19.0235C36.0013 19.039 36.0143 19.0653 36.0143 19.0935V20.6972Z" fill="#029894"/>
</svg>
