<svg width="47" height="47" viewBox="0 0 47 47" fill="none" xmlns="http://www.w3.org/2000/svg">
<g clip-path="url(#clip0_155_62750)">
<path d="M46.509 36.1343L42.3531 30.9691V9.2469C42.3531 8.19614 41.4909 7.34387 40.4276 7.34387H6.2484C5.18523 7.34387 4.32381 8.19605 4.32381 9.2469V30.9691L0.167198 36.1343C0.058346 36.269 0 36.4356 0 36.6086V38.8948C0 39.7337 0.687298 40.4129 1.53532 40.4129H45.1408C45.9888 40.4129 46.6768 39.7337 46.6768 38.8948V36.6086C46.6768 36.4356 46.6177 36.269 46.509 36.1343ZM7.03972 10.029H39.6364V28.2841H7.03972V10.029ZM27.7252 38.6074H18.9516V36.3118H27.7252V38.6074Z" fill="#029894"/>
<path d="M15.2672 22.9158H12.0391V26.1063H15.2672V22.9158Z" fill="#029894"/>
<path d="M20.111 19.7251H16.8828V26.1062H20.111V19.7251Z" fill="#029894"/>
<path d="M24.9528 18.1299H21.7246V26.1062H24.9528V18.1299Z" fill="#029894"/>
<path d="M29.7946 13.3441H26.5664V26.1062H29.7946V13.3441Z" fill="#029894"/>
<path d="M34.6364 16.5347H31.4082V26.1062H34.6364V16.5347Z" fill="#029894"/>
</g>
<defs>
<clipPath id="clip0_155_62750">
<rect width="46.6768" height="46.1318" fill="white" transform="translate(0 0.8125)"/>
</clipPath>
</defs>
</svg>
