<svg width="44" height="44" viewBox="0 0 44 44" fill="none" xmlns="http://www.w3.org/2000/svg">
<g clip-path="url(#clip0_155_62799)">
<path d="M41.2803 2.79919H2.41876C1.23372 2.79919 0.269531 3.76338 0.269531 4.94843V39.5115C0.269531 40.6966 1.23372 41.6607 2.41876 41.6607H41.2803C42.4653 41.6607 43.4295 40.6966 43.4295 39.5115V4.94843C43.4295 3.76338 42.4653 2.79919 41.2803 2.79919ZM36.0607 7.1415C37.3931 7.1415 38.4731 8.22159 38.4731 9.5539C38.4731 10.8863 37.3931 11.9663 36.0607 11.9663C34.7284 11.9663 33.6483 10.8863 33.6483 9.5539C33.6484 8.22159 34.7284 7.1415 36.0607 7.1415ZM28.4288 7.1415C29.7611 7.1415 30.8412 8.22159 30.8412 9.5539C30.8412 10.8863 29.7611 11.9663 28.4288 11.9663C27.0965 11.9663 26.0164 10.8863 26.0164 9.5539C26.0164 8.22159 27.0965 7.1415 28.4288 7.1415ZM20.7968 7.1415C22.1292 7.1415 23.2092 8.22159 23.2092 9.5539C23.2092 10.8863 22.1292 11.9663 20.7968 11.9663C19.4645 11.9663 18.3844 10.8863 18.3844 9.5539C18.3844 8.22159 19.4645 7.1415 20.7968 7.1415ZM39.8328 38.0641H3.86623V15.3875H39.8328V38.0641Z" fill="#029894"/>
<path d="M26.7185 19.1747H7.63867V23.0195H26.7185V19.1747Z" fill="#029894"/>
<path d="M36.061 26.8944H7.63867V30.7392H36.061V26.8944Z" fill="#029894"/>
</g>
<defs>
<clipPath id="clip0_155_62799">
<rect width="43.16" height="43.16" fill="white" transform="translate(0.269531 0.649902)"/>
</clipPath>
</defs>
</svg>
