<svg width="222" height="244" fill="none" xmlns="http://www.w3.org/2000/svg"><path style="mix-blend-mode:multiply" d="M180.562 169.743c47.381 14.41 54.687 40.515 16.318 58.307s-107.887 20.537-155.272 6.127c-47.384-14.41-54.687-40.511-16.318-58.307 38.37-17.796 107.887-20.534 155.272-6.127Z" fill="url(#a)"/><path d="M108.485 203.584c-22.787 0-44.286-2.873-62.15-8.31-25.13-7.643-39.555-19.446-40.618-33.235-.523-6.791 2.098-19.801 25.51-30.66 19.177-8.892 47.385-13.99 77.389-13.99 22.79 0 44.289 2.877 62.174 8.314 25.129 7.639 39.555 19.442 40.618 33.231.519 6.787-2.098 19.801-25.514 30.66-19.205 8.892-47.414 13.99-77.409 13.99Z" fill="#001C63" style="mix-blend-mode:multiply" opacity=".2"/><path d="M108.485 218.256c-22.787 0-44.286-2.877-62.15-8.314C21.205 202.3 6.78 190.5 5.717 176.711c-.523-6.791 2.098-19.801 25.51-30.664 19.177-8.868 47.385-13.989 77.389-13.989 22.79 0 44.289 2.876 62.174 8.313 25.129 7.643 39.555 19.443 40.618 33.232.519 6.79-2.098 19.801-25.514 30.659-19.205 8.892-47.414 13.994-77.409 13.994Z" fill="#001C63" style="mix-blend-mode:multiply" opacity=".2"/><path d="M168.345 132.748c40.798 12.405 47.091 34.882 14.053 50.202-33.037 15.32-92.889 17.68-133.703 5.275-40.815-12.405-47.087-34.882-14.05-50.202 33.038-15.32 92.906-17.68 133.7-5.275Z" fill="#001C63" style="mix-blend-mode:multiply"/><path d="M156.172 138.393c32.489 9.883 37.502 27.783 11.191 39.984-26.311 12.2-73.983 14.082-106.476 4.203-32.494-9.88-37.503-27.764-11.191-39.984 26.311-12.22 73.982-14.082 106.476-4.203Z" fill="url(#b)"/><path d="M156.172 138.393c32.489 9.883 37.502 27.783 11.191 39.984-26.311 12.2-73.983 14.082-106.476 4.203-32.494-9.88-37.503-27.764-11.191-39.984 26.311-12.22 73.982-14.082 106.476-4.203Z" fill="url(#c)"/><path d="M156.172 138.393c32.489 9.883 37.502 27.783 11.191 39.984-26.311 12.2-73.983 14.082-106.476 4.203-32.494-9.88-37.503-27.764-11.191-39.984 26.311-12.22 73.982-14.082 106.476-4.203Z" fill="url(#d)"/><path d="M176.305 135.034h-13.419a74.553 74.553 0 0 0-11.706-4.569c-29.088-8.846-71.767-7.161-95.322 3.763-.572.267-1.116.536-1.656.806H40.885v13.701c-1.227 7.909 7.34 15.922 24.99 21.289 29.092 8.846 71.771 7.161 95.326-3.763 10.173-4.716 15.104-10.385 15.096-16.018l.008-15.209Z" fill="#E6E6ED"/><path d="M151.18 115.257c29.091 8.845 33.577 24.871 10.021 35.795-23.555 10.925-66.238 12.606-95.326 3.764-29.087-8.842-33.573-24.876-10.017-35.796 23.555-10.92 66.234-12.609 95.322-3.763Z" fill="#FAFAFF"/><path style="mix-blend-mode:multiply" d="M108.456 160.589c37.474 0 67.853-11.441 67.853-25.555 0-14.113-30.379-25.554-67.853-25.554-37.475 0-67.853 11.441-67.853 25.554 0 14.114 30.378 25.555 67.853 25.555Z" fill="url(#e)"/><path d="M176.305 109.847h-13.419a74.033 74.033 0 0 0-11.706-4.57c-29.088-8.846-71.767-7.16-95.322 3.764-.572.266-1.116.536-1.656.806H40.885v13.7c-1.227 7.909 7.34 15.922 24.99 21.289 29.092 8.846 71.771 7.161 95.326-3.763 10.173-4.716 15.104-10.384 15.096-16.018l.008-15.208Z" fill="#E6E6ED"/><path d="M151.18 90.054c29.091 8.845 33.577 24.871 10.021 35.795-23.555 10.925-66.238 12.606-95.326 3.76-29.087-8.846-33.573-24.872-10.017-35.792 23.555-10.92 66.234-12.594 95.322-3.763Z" fill="#FAFAFF"/><path style="mix-blend-mode:multiply" opacity=".25" d="M108.456 123.085c19.409 0 35.143-5.927 35.143-13.238s-15.734-13.238-35.143-13.238-35.143 5.927-35.143 13.238 15.734 13.238 35.143 13.238Z" fill="url(#f)"/><path d="M106.35 21.763c0 4.691-1.155 8.235-3.463 10.631-2.309 2.396-5.422 3.594-9.34 3.594-3.944 0-7.071-1.198-9.383-3.594-2.311-2.396-3.473-5.94-3.484-10.631v-7.288c0-4.694 1.147-8.238 3.44-10.631C86.41 1.45 89.532.254 93.481.254c3.931 0 7.056 1.2 9.376 3.601 2.32 2.401 3.478 5.941 3.475 10.62l.017 7.288Zm-8.525-7.847c0-2.656-.371-4.566-1.112-5.73a3.444 3.444 0 0 0-1.347-1.297 3.715 3.715 0 0 0-1.867-.442 3.643 3.643 0 0 0-1.866.435c-.567.307-1.03.76-1.336 1.304-.714 1.164-1.072 3.074-1.075 5.73v8.348c0 2.707.363 4.635 1.088 5.784.316.544.786.994 1.358 1.3a3.713 3.713 0 0 0 1.88.432 3.66 3.66 0 0 0 1.856-.438 3.391 3.391 0 0 0 1.333-1.294c.725-1.154 1.088-3.082 1.088-5.784v-8.348ZM125.935.242c1.3-.013 2.598.102 3.872.344 1.278.275 2.531.646 3.746 1.11l-1.419 5.87a36.64 36.64 0 0 0-3.099-.749 16.339 16.339 0 0 0-3.051-.25 6.412 6.412 0 0 0-2.68.48 6.072 6.072 0 0 0-2.189 1.536c-1.222 1.342-1.808 3.302-1.758 5.88l.077.12a7.441 7.441 0 0 1 2.96-1.862 12.341 12.341 0 0 1 4.2-.667c3.287 0 5.847 1.117 7.678 3.35 1.832 2.234 2.747 5.094 2.744 8.58 0 3.435-1.21 6.295-3.631 8.58-2.42 2.285-5.51 3.427-9.269 3.424-4.034 0-7.29-1.25-9.768-3.748-2.478-2.499-3.718-5.92-3.721-10.261v-6.991c0-4.581 1.43-8.18 4.289-10.797 2.86-2.617 6.533-3.933 11.019-3.949Zm-1.696 18.016a9.178 9.178 0 0 0-3.047.451 4.81 4.81 0 0 0-2.011 1.257v2.044c0 2.506.435 4.434 1.304 5.784.352.616.877 1.13 1.517 1.484.64.354 1.372.536 2.114.525 1.281 0 2.326-.57 3.136-1.712a6.841 6.841 0 0 0 1.227-4.064c0-1.759-.393-3.157-1.178-4.196a3.516 3.516 0 0 0-1.315-1.16 3.761 3.761 0 0 0-1.747-.413Z" fill="#001C63"/><path fill-rule="evenodd" clip-rule="evenodd" d="M80.409 79.868h14.196v23.821H80.409v-23.82Zm48.802-12.094c5.151 0 9.331 3.936 9.331 8.8 0 4.858-4.174 8.8-9.331 8.8-5.151 0-9.33-3.937-9.33-8.8 0-4.858 4.173-8.8 9.33-8.8Zm-16.374-11.048c4.442 0 8.05 3.397 8.05 7.592 0 4.19-3.602 7.592-8.05 7.592-4.442 0-8.05-3.397-8.05-7.592 0-4.19 3.602-7.592 8.05-7.592Zm.818 9.204c0-.248-.063-.437-.195-.577-.131-.14-.354-.27-.674-.393a15.244 15.244 0 0 1-.887-.372 3.253 3.253 0 0 1-.703-.442 1.703 1.703 0 0 1-.452-.577c-.108-.222-.154-.486-.154-.798 0-.523.189-.955.56-1.289.372-.334.869-.54 1.493-.593v-.701h.783v.717c.6.08 1.075.313 1.418.696.343.382.514.868.514 1.45h-1.675c0-.324-.068-.572-.2-.744-.131-.173-.32-.259-.56-.259-.218 0-.389.065-.503.189-.12.13-.178.307-.178.528 0 .227.069.41.206.545.143.135.36.264.663.388.303.124.595.248.864.377.268.135.503.28.697.448.2.167.355.367.463.588.109.22.172.485.172.803 0 .528-.177.96-.538 1.294-.36.334-.84.529-1.452.582v.658h-.777v-.658c-.715-.075-1.264-.302-1.647-.69-.383-.393-.577-.906-.577-1.547h1.663c0 .356.08.62.246.809.166.183.4.28.703.28.223 0 .395-.065.526-.189a.747.747 0 0 0 .201-.523Zm16.5 12.51c0-.287-.075-.508-.223-.67-.149-.161-.406-.312-.784-.458-.371-.14-.714-.29-1.029-.431a3.583 3.583 0 0 1-.817-.512 2.06 2.06 0 0 1-.526-.669c-.126-.253-.178-.56-.178-.922 0-.61.218-1.105.652-1.493.429-.388 1.006-.62 1.727-.685v-.814h.909v.835c.692.098 1.24.367 1.641.81.4.441.6 1.002.6 1.681h-1.932c0-.377-.08-.657-.229-.862-.149-.2-.372-.302-.652-.302-.251 0-.446.075-.583.22-.137.146-.206.357-.206.616 0 .264.08.474.24.63.16.157.412.308.766.448.355.14.686.291 1.001.437.314.15.583.329.812.517.228.194.406.42.537.68.132.258.195.566.195.927 0 .615-.206 1.116-.624 1.499-.411.383-.972.615-1.686.674v.76h-.909v-.765c-.829-.087-1.464-.35-1.91-.804-.44-.453-.663-1.051-.663-1.795h1.927c0 .41.097.717.286.932.188.21.463.324.817.324a.874.874 0 0 0 .612-.216c.148-.14.223-.34.229-.593Zm-.944-8.935c4.134 0 7.49 3.16 7.49 7.063 0 3.899-3.351 7.064-7.49 7.064-4.133 0-7.489-3.16-7.489-7.064 0-3.903 3.356-7.063 7.489-7.063Zm-31.748 32.184V81.782h9.497c4.025.68 8.05 2.74 12.074 5.128h7.376c3.339.189 5.088 3.38 1.841 5.478-2.585 1.79-5.998 1.688-9.497 1.391-2.412-.113-2.515 2.944 0 2.955.875.064 1.824-.13 2.653-.13 4.368-.005 7.959-.792 10.16-4.043l1.103-2.432L143.642 85c5.488-1.704 9.387 3.71 5.345 7.479-7.947 5.45-16.094 9.937-24.43 13.56-6.054 3.472-12.109 3.354-18.158 0l-8.936-4.351Z" fill="#001C63"/><defs><radialGradient id="a" cx="0" cy="0" r="1" gradientUnits="userSpaceOnUse" gradientTransform="matrix(107.502 0 0 39.5395 111.085 189.822)"><stop stop-color="#1628B1"/><stop offset="1" stop-color="#fff"/></radialGradient><radialGradient id="b" cx="0" cy="0" r="1" gradientUnits="userSpaceOnUse" gradientTransform="matrix(53.75846 -19.99377 13.06495 35.12852 115.532 159.826)"><stop stop-color="#80E3C8"/><stop offset=".43" stop-color="#82E3C9"/><stop offset=".58" stop-color="#89E5CC"/><stop offset=".69" stop-color="#94E8D1"/><stop offset=".78" stop-color="#A5EBD8"/><stop offset=".86" stop-color="#BBF0E2"/><stop offset=".93" stop-color="#D7F6ED"/><stop offset=".99" stop-color="#F6FDFB"/><stop offset="1" stop-color="#fff"/></radialGradient><radialGradient id="c" cx="0" cy="0" r="1" gradientUnits="userSpaceOnUse" gradientTransform="matrix(53.75846 -19.99377 13.06495 35.12852 115.532 159.826)"><stop stop-color="#80E3C8"/><stop offset=".43" stop-color="#82E3C9"/><stop offset=".58" stop-color="#89E5CC"/><stop offset=".69" stop-color="#94E8D1"/><stop offset=".78" stop-color="#A5EBD8"/><stop offset=".86" stop-color="#BBF0E2"/><stop offset=".93" stop-color="#D7F6ED"/><stop offset=".99" stop-color="#F6FDFB"/><stop offset="1" stop-color="#fff"/></radialGradient><radialGradient id="d" cx="0" cy="0" r="1" gradientUnits="userSpaceOnUse" gradientTransform="matrix(53.75846 -19.99377 13.06495 35.12852 115.532 159.826)"><stop stop-color="#1628B1"/><stop offset=".38" stop-color="#182AB2"/><stop offset=".52" stop-color="#1F30B4"/><stop offset=".61" stop-color="#2A3BB8"/><stop offset=".69" stop-color="#3B4BBE"/><stop offset=".76" stop-color="#515FC5"/><stop offset=".82" stop-color="#6D78CE"/><stop offset=".87" stop-color="#8D96D9"/><stop offset=".92" stop-color="#B3B9E5"/><stop offset=".97" stop-color="#DCDFF3"/><stop offset="1" stop-color="#fff"/></radialGradient><radialGradient id="e" cx="0" cy="0" r="1" gradientUnits="userSpaceOnUse" gradientTransform="matrix(67.6449 0 0 23.604 108.456 138.244)"><stop stop-color="#1628B1"/><stop offset="1" stop-color="#fff"/></radialGradient><radialGradient id="f" cx="0" cy="0" r="1" gradientUnits="userSpaceOnUse" gradientTransform="matrix(35.0368 0 0 12.2257 108.456 113.023)"><stop stop-color="#1628B1"/><stop offset="1" stop-color="#fff"/></radialGradient></defs></svg>