<svg width="221" height="251" fill="none" xmlns="http://www.w3.org/2000/svg"><path style="mix-blend-mode:multiply" d="M179.956 176.444c47.385 14.406 54.691 40.512 16.318 58.303-38.373 17.792-107.887 20.538-155.268 6.132-47.38-14.407-54.691-40.516-16.322-58.308 38.37-17.792 107.891-20.537 155.272-6.127Z" fill="url(#a)"/><path d="M110.426 210.285c-22.79 0-44.285-2.877-62.17-8.314-25.134-7.643-39.559-19.442-40.622-33.231-.52-6.791 2.098-19.801 25.514-30.66 19.172-8.892 47.381-13.993 77.389-13.993 22.786 0 44.285 2.876 62.149 8.313 25.13 7.643 39.555 19.446 40.618 33.236.524 6.786-2.093 19.8-25.51 30.659-19.156 8.888-47.36 13.99-77.368 13.99Z" fill="#029894" style="mix-blend-mode:multiply" opacity=".2"/><path d="M170.299 139.449c40.798 12.405 47.086 34.878 14.049 50.198s-92.889 17.684-133.703 5.279C9.83 182.521 3.558 160.044 36.592 144.724c33.033-15.32 92.893-17.68 133.707-5.275Z" fill="#029894" style="mix-blend-mode:multiply"/><path d="M158.106 145.094c32.493 9.879 37.502 27.764 11.191 39.984-26.312 12.219-73.983 14.082-106.472 4.199-32.49-9.883-37.507-27.764-11.191-39.98 26.315-12.216 73.999-14.082 106.472-4.203Z" fill="url(#b)"/><path d="M158.106 145.094c32.493 9.879 37.502 27.764 11.191 39.984-26.312 12.219-73.983 14.082-106.472 4.199-32.49-9.883-37.507-27.764-11.191-39.98 26.315-12.216 73.999-14.082 106.472-4.203Z" fill="url(#c)"/><path d="M158.106 145.094c32.493 9.879 37.502 27.764 11.191 39.984-26.312 12.219-73.983 14.082-106.472 4.199-32.49-9.883-37.507-27.764-11.191-39.98 26.315-12.216 73.999-14.082 106.472-4.203Z" fill="url(#d)"/><path d="M110.426 224.953c-22.79 0-44.285-2.872-62.17-8.313-25.134-7.639-39.559-19.442-40.622-33.232-.52-6.786 2.098-19.8 25.514-30.659 19.172-8.892 47.381-13.99 77.389-13.99 22.786 0 44.285 2.873 62.149 8.314 25.13 7.639 39.555 19.442 40.618 33.231.524 6.791-2.093 19.801-25.51 30.66-19.156 8.892-47.36 13.989-77.368 13.989Z" fill="#029894" style="mix-blend-mode:multiply" opacity=".2"/><path d="M178.26 141.736h-13.42a73.803 73.803 0 0 0-11.706-4.57c-29.088-8.846-71.766-7.161-95.326 3.76-.572.266-1.112.536-1.635.81H42.855v13.696c-1.226 7.913 7.36 15.922 24.991 21.289 29.088 8.846 71.766 7.161 95.322-3.759 10.173-4.72 15.104-10.388 15.096-16.018l-.004-15.208Z" fill="#E6EBED"/><path d="M153.134 121.958c29.092 8.846 33.577 24.872 10.018 35.792-23.56 10.92-66.239 12.609-95.322 3.763-29.084-8.845-33.578-24.871-10.022-35.795 23.556-10.924 66.238-12.606 95.326-3.76Z" fill="#FAFDFF"/><path style="mix-blend-mode:multiply" d="M110.406 167.29c37.475 0 67.854-11.441 67.854-25.554 0-14.113-30.379-25.554-67.854-25.554-37.474 0-67.853 11.441-67.853 25.554 0 14.113 30.379 25.554 67.853 25.554Z" fill="url(#e)"/><path d="M178.26 116.548h-13.42a73.895 73.895 0 0 0-11.706-4.569c-29.088-8.846-71.766-7.165-95.326 3.76-.572.266-1.112.536-1.635.809H42.855v13.693c-1.226 7.913 7.36 15.922 24.991 21.289 29.088 8.846 71.766 7.161 95.322-3.763 10.173-4.716 15.104-10.384 15.096-16.014l-.004-15.205Z" fill="#E6EBED"/><path d="M153.134 96.767c29.092 8.845 33.577 24.871 10.018 35.795-23.56 10.925-66.239 12.61-95.322 3.764-29.084-8.846-33.578-24.872-10.022-35.796 23.556-10.924 66.238-12.605 95.326-3.763Z" fill="#FAFDFF"/><path style="mix-blend-mode:multiply" opacity=".25" d="M110.406 129.786c19.409 0 35.143-5.927 35.143-13.238s-15.734-13.238-35.143-13.238c-19.41 0-35.143 5.927-35.143 13.238s15.734 13.238 35.143 13.238Z" fill="url(#f)"/><path d="M108.304 22.326c0 4.692-1.155 8.235-3.467 10.631-2.311 2.396-5.423 3.593-9.335 3.59-3.95 0-7.084-1.196-9.404-3.59-2.32-2.393-3.475-5.937-3.467-10.63v-7.304c0-4.694 1.147-8.237 3.443-10.627 2.295-2.391 5.415-3.59 9.359-3.594 3.933 0 7.059 1.202 9.375 3.605 2.317 2.404 3.477 5.942 3.48 10.616l.016 7.303Zm-8.525-7.85c0-2.656-.372-4.565-1.116-5.727a3.44 3.44 0 0 0-1.346-1.3 3.71 3.71 0 0 0-1.868-.443 3.643 3.643 0 0 0-1.864.438 3.373 3.373 0 0 0-1.333 1.305c-.72 1.162-1.078 3.07-1.075 5.726v8.353c0 2.701.362 4.63 1.087 5.784.33.526.8.963 1.364 1.266a3.908 3.908 0 0 0 1.85.463c.649 0 1.286-.16 1.85-.463a3.638 3.638 0 0 0 1.364-1.266c.722-1.157 1.085-3.085 1.087-5.784v-8.353ZM120.526 15.33h4.023c1.535 0 2.715-.385 3.541-1.156.826-.771 1.235-1.852 1.227-3.243a3.763 3.763 0 0 0-1.113-2.769c-.744-.748-1.819-1.122-3.238-1.122a4.934 4.934 0 0 0-2.936.906 2.882 2.882 0 0 0-.939 1.023c-.22.408-.331.86-.324 1.318h-8.3l-.049-.143c-.101-2.768 1.053-5.011 3.463-6.729 2.409-1.717 5.337-2.577 8.782-2.58 3.994 0 7.19.865 9.589 2.592 2.398 1.728 3.596 4.17 3.594 7.327a6.92 6.92 0 0 1-1.558 4.353 10.337 10.337 0 0 1-4.162 3.112 9.944 9.944 0 0 1 4.632 3.116 7.752 7.752 0 0 1 1.668 5.012c0 3.185-1.29 5.688-3.872 7.508-2.581 1.82-5.878 2.73-9.891 2.73-3.234.063-6.408-.834-9.073-2.564-2.586-1.712-3.839-4.19-3.757-7.434l.053-.143h8.349a3.389 3.389 0 0 0 .351 1.55c.238.485.589.913 1.027 1.253a5.09 5.09 0 0 0 3.353 1.134 5.222 5.222 0 0 0 3.594-1.192c.437-.383.783-.849 1.014-1.367a3.764 3.764 0 0 0 .327-1.64c0-1.684-.469-2.913-1.406-3.687-.938-.774-2.257-1.16-3.958-1.157h-4.024l.013-6.007ZM94.065 102.828l3.49-2.545 3.972 1.808-1.485-3.911 3.053-3.001-4.405.13-2.087-3.664-1.237 3.994-4.345.737 3.646 2.341-.602 4.111Zm16.184 3.825 1.669-3.851 4.396-.308-3.361-2.688 1.053-4.042-3.752 2.19-3.752-2.19 1.053 4.042-3.37 2.688 4.395.308 1.669 3.851ZM97.251 77.535c2.042-.72 4.649-1.639 6.525-2.736 2.151 1.882 3.549 4.024 3.66 6.626h5.646c.11-2.602 1.508-4.744 3.66-6.626 1.876 1.097 4.483 2.012 6.524 2.736 6.014 2.12 3.076 5.993-.432 9.254-3.219 2.987-7.665 4.834-12.58 4.834s-9.357-1.843-12.58-4.835c-3.457-3.213-6.478-7.12-.423-9.253Zm8.575-5.381c.092-.711-2.133-3.404-2.538-4.7-.873-1.301-1.181-3.383-.23-4.762.382-.546.216-1.526.216-2.276 0-7.506 13.946-7.515 13.946 0 0 .95-.23 1.674.317 2.42.915 1.248.442 3.464-.331 4.626-.492 1.357-2.828 3.929-2.662 4.7.138 3.847-8.75 3.721-8.718-.008Zm32.673 19.292-2.699-3.287 1.917-3.747-4.152 1.405-3.181-2.879.138 4.154-3.886 1.969 4.235 1.162.782 4.097 2.478-3.438 4.368.564Zm-12.065 11.382-.593-4.124 3.646-2.341-4.34-.742-1.233-3.993-2.087 3.664-4.409-.13 3.053 3-1.499 3.92 3.972-1.808 3.49 2.554ZM82 91.441l4.373-.56 2.483 3.44.786-4.094 4.234-1.162-3.885-1.969.138-4.154-3.186 2.88-4.161-1.41 1.917 3.747L82 91.44Z" fill="#029894"/><defs><radialGradient id="a" cx="0" cy="0" r="1" gradientUnits="userSpaceOnUse" gradientTransform="matrix(107.502 0 0 39.5395 110.479 197.238)"><stop stop-color="#7FD4F9"/><stop offset="1" stop-color="#fff"/></radialGradient><radialGradient id="b" cx="0" cy="0" r="1" gradientUnits="userSpaceOnUse" gradientTransform="matrix(53.75846 -19.99377 13.06491 35.12842 114.535 167.273)"><stop stop-color="#7FD4F9"/><stop offset=".43" stop-color="#81D5F9"/><stop offset=".58" stop-color="#88D7F9"/><stop offset=".69" stop-color="#93DBFA"/><stop offset=".78" stop-color="#A4E1FB"/><stop offset=".86" stop-color="#BAE8FC"/><stop offset=".92" stop-color="#D6F1FD"/><stop offset=".98" stop-color="#F5FCFF"/><stop offset="1" stop-color="#fff"/></radialGradient><radialGradient id="c" cx="0" cy="0" r="1" gradientUnits="userSpaceOnUse" gradientTransform="matrix(53.75846 -19.99377 13.06491 35.12842 114.535 167.273)"><stop stop-color="#80E3C8"/><stop offset=".43" stop-color="#82E3C9"/><stop offset=".58" stop-color="#89E5CC"/><stop offset=".69" stop-color="#94E8D1"/><stop offset=".78" stop-color="#A5EBD8"/><stop offset=".86" stop-color="#BBF0E2"/><stop offset=".93" stop-color="#D7F6ED"/><stop offset=".99" stop-color="#F6FDFB"/><stop offset="1" stop-color="#fff"/></radialGradient><radialGradient id="d" cx="0" cy="0" r="1" gradientUnits="userSpaceOnUse" gradientTransform="matrix(53.75846 -19.99377 13.06491 35.12842 114.535 167.273)"><stop stop-color="#7FD4F9"/><stop offset=".43" stop-color="#81D5F9"/><stop offset=".58" stop-color="#88D7F9"/><stop offset=".69" stop-color="#93DBFA"/><stop offset=".78" stop-color="#A4E1FB"/><stop offset=".86" stop-color="#BAE8FC"/><stop offset=".92" stop-color="#D6F1FD"/><stop offset=".98" stop-color="#F5FCFF"/><stop offset="1" stop-color="#fff"/></radialGradient><radialGradient id="e" cx="0" cy="0" r="1" gradientUnits="userSpaceOnUse" gradientTransform="matrix(67.6449 0 0 23.604 110.406 144.755)"><stop stop-color="#7FD4F9"/><stop offset="1" stop-color="#fff"/></radialGradient><radialGradient id="f" cx="0" cy="0" r="1" gradientUnits="userSpaceOnUse" gradientTransform="matrix(35.0368 0 0 12.2257 110.406 119.533)"><stop stop-color="#7FD4F9"/><stop offset="1" stop-color="#fff"/></radialGradient></defs></svg>