<svg width="221" height="246" fill="none" xmlns="http://www.w3.org/2000/svg"><path style="mix-blend-mode:multiply" d="M180.024 171.579c47.385 14.411 54.712 40.512 16.318 58.292-38.393 17.781-107.886 20.534-155.267 6.128-47.381-14.407-54.692-40.512-16.323-58.308 38.37-17.795 107.891-20.518 155.272-6.112Z" fill="url(#a)"/><path d="M110.479 204.761c-22.787 0-44.286-2.877-62.15-8.314-25.13-7.639-39.555-19.442-40.618-33.231-.523-6.787 2.097-19.801 25.514-30.66 19.172-8.892 47.38-13.989 77.388-13.989 22.787 0 44.286 2.872 62.15 8.309 25.13 7.643 39.555 19.446 40.618 33.236.523 6.79-2.097 19.8-25.514 30.659-19.172 8.892-47.381 13.99-77.388 13.99Z" fill="#8EDBDC" style="mix-blend-mode:multiply" opacity=".2"/><path d="M170.354 133.925c40.794 12.405 47.087 34.882 14.049 50.198-33.037 15.317-92.889 17.684-133.703 5.279C9.886 176.997 3.61 154.52 36.647 139.2c33.037-15.32 92.909-17.683 133.707-5.275Z" fill="#029894" style="mix-blend-mode:multiply"/><path d="M158.178 139.57c32.493 9.88 37.502 27.764 11.191 39.984-26.312 12.22-73.983 14.082-106.476 4.203-32.494-9.879-37.503-27.783-11.191-39.983 26.311-12.201 73.982-14.083 106.476-4.204Z" fill="url(#b)"/><path d="M158.178 139.57c32.493 9.88 37.502 27.764 11.191 39.984-26.312 12.22-73.983 14.082-106.476 4.203-32.494-9.879-37.503-27.783-11.191-39.983 26.311-12.201 73.982-14.083 106.476-4.204Z" fill="url(#c)"/><path d="M158.178 139.57c32.493 9.88 37.502 27.764 11.191 39.984-26.312 12.22-73.983 14.082-106.476 4.203-32.494-9.879-37.503-27.783-11.191-39.983 26.311-12.201 73.982-14.083 106.476-4.204Z" fill="url(#d)"/><path d="M110.479 219.429c-22.787 0-44.286-2.873-62.15-8.31-25.13-7.642-39.555-19.446-40.618-33.231-.523-6.791 2.097-19.801 25.514-30.66 19.172-8.892 47.38-13.993 77.388-13.993 22.787 0 44.286 2.876 62.15 8.313 25.13 7.639 39.555 19.443 40.618 33.232.523 6.79-2.097 19.801-25.514 30.659-19.172 8.892-47.381 13.99-77.388 13.99Z" fill="#8EDBDC" style="mix-blend-mode:multiply" opacity=".2"/><path d="M178.311 136.212h-13.423a74.081 74.081 0 0 0-11.702-4.569c-29.092-8.846-71.77-7.161-95.326 3.763-.573.262-1.112.536-1.636.806h-13.33v13.701c-1.226 7.908 7.36 15.921 24.987 21.289 29.092 8.842 71.771 7.161 95.326-3.764 10.173-4.716 15.104-10.384 15.096-16.018l.008-15.208Z" fill="#E6EDEB"/><path d="M153.19 116.434c29.087 8.846 33.573 24.871 10.017 35.796-23.555 10.924-66.238 12.605-95.326 3.759-29.087-8.846-33.573-24.871-10.017-35.796 23.555-10.924 66.234-12.605 95.326-3.759Z" fill="#FAFFFE"/><path style="mix-blend-mode:multiply" d="M110.536 161.739c37.433 0 67.78-11.429 67.78-25.527 0-14.099-30.347-25.528-67.78-25.528-37.434 0-67.78 11.429-67.78 25.528 0 14.098 30.346 25.527 67.78 25.527Z" fill="url(#e)"/><path d="M178.311 111.024h-13.423a73.722 73.722 0 0 0-11.702-4.57c-29.092-8.845-71.77-7.16-95.326 3.764-.573.262-1.112.536-1.636.806h-13.33v13.7c-1.226 7.909 7.36 15.918 24.987 21.286 29.092 8.846 71.771 7.164 95.326-3.76 10.173-4.72 15.104-10.388 15.096-16.018l.008-15.208Z" fill="#E6EDEB"/><path d="M153.19 91.246c29.087 8.846 33.573 24.872 10.017 35.796-23.555 10.924-66.238 12.606-95.326 3.76-29.087-8.846-33.573-24.872-10.017-35.796 23.555-10.924 66.234-12.605 95.326-3.76Z" fill="#FAFFFE"/><path style="mix-blend-mode:multiply" opacity=".25" d="M110.536 124.262c19.409 0 35.143-5.927 35.143-13.238s-15.734-13.238-35.143-13.238c-19.41 0-35.143 5.927-35.143 13.238s15.734 13.238 35.143 13.238Z" fill="url(#f)"/><path d="M108.43 22.061c0 4.694-1.156 8.238-3.468 10.631-2.311 2.394-5.424 3.59-9.338 3.59-3.947 0-7.082-1.196-9.405-3.59-2.322-2.393-3.478-5.937-3.467-10.63v-7.304c0-4.694 1.148-8.238 3.443-10.631C88.49 1.733 91.61.537 95.554.537c3.928 0 7.053 1.202 9.376 3.605 2.322 2.404 3.482 5.942 3.479 10.616l.021 7.303Zm-8.53-7.85c0-2.659-.37-4.568-1.112-5.727a3.444 3.444 0 0 0-1.346-1.3 3.715 3.715 0 0 0-1.867-.443c-.654-.021-1.3.13-1.866.439a3.385 3.385 0 0 0-1.336 1.304c-.714 1.162-1.073 3.07-1.075 5.726v8.352c0 2.702.362 4.63 1.087 5.785.316.544.786.994 1.358 1.3a3.706 3.706 0 0 0 1.88.431c.65.02 1.294-.13 1.857-.436a3.381 3.381 0 0 0 1.333-1.295c.728-1.155 1.09-3.083 1.087-5.785V14.21ZM138.65 35.782h-25.76v-5.249l11.858-11.741a23.66 23.66 0 0 0 3.312-4.342 7.066 7.066 0 0 0 1.063-3.316 4.593 4.593 0 0 0-1.076-3.201c-.714-.794-1.789-1.191-3.226-1.191a3.623 3.623 0 0 0-1.728.391c-.53.271-.976.668-1.293 1.151a6.565 6.565 0 0 0-1.1 3.925h-8.354l-.049-.142c-.075-1.506.183-3.01.758-4.418a10.81 10.81 0 0 1 2.583-3.753c2.311-2.237 5.373-3.355 9.183-3.355 4.048 0 7.207.938 9.478 2.815s3.405 4.447 3.402 7.712a9.78 9.78 0 0 1-1.807 5.823c-1.205 1.684-3.428 4.189-6.669 7.515l-4.984 5.036.073.143h14.336v6.197ZM110.75 80.123c2.917 0 5.715-1.093 7.778-3.039 2.063-1.945 3.222-4.584 3.222-7.335 0-2.751-1.159-5.39-3.222-7.336-2.063-1.945-4.861-3.038-7.778-3.038s-5.715 1.093-7.778 3.038c-2.063 1.946-3.222 4.585-3.222 7.336 0 2.751 1.159 5.39 3.222 7.335 2.063 1.946 4.861 3.039 7.778 3.039Zm-17.875 7.78c1.823 0 3.572-.683 4.861-1.899 1.29-1.216 2.014-2.865 2.014-4.585 0-1.72-.724-3.368-2.014-4.584-1.289-1.216-3.038-1.9-4.861-1.9s-3.572.684-4.861 1.9C86.724 78.05 86 79.7 86 81.42c0 1.719.724 3.368 2.014 4.584 1.289 1.216 3.038 1.9 4.861 1.9ZM135.5 81.42c0 1.72-.724 3.37-2.014 4.585-1.289 1.216-3.038 1.9-4.861 1.9s-3.572-.684-4.861-1.9c-1.29-1.216-2.014-2.865-2.014-4.585 0-1.72.724-3.368 2.014-4.584 1.289-1.216 3.038-1.9 4.861-1.9s3.572.684 4.861 1.9c1.29 1.216 2.014 2.865 2.014 4.585Zm-24.75 1.297c3.647 0 7.144 1.366 9.723 3.798 2.578 2.432 4.027 5.73 4.027 9.17v15.56H97v-15.56c0-3.44 1.449-6.738 4.027-9.17 2.579-2.432 6.076-3.798 9.723-3.798ZM91.5 95.684c0-1.798.275-3.533.792-5.172l-.468.037c-2.357.244-4.535 1.3-6.117 2.965-1.583 1.666-2.458 3.824-2.457 6.06v11.67h8.25v-15.56Zm46.75 15.56v-11.67c0-2.313-.935-4.538-2.616-6.222-1.68-1.684-3.979-2.7-6.426-2.84.514 1.64.792 3.374.792 5.172v15.56h8.25Z" fill="#029894"/><defs><radialGradient id="a" cx="0" cy="0" r="1" gradientUnits="userSpaceOnUse" gradientTransform="matrix(107.502 0 0 39.5395 110.547 191.653)"><stop stop-color="#8EDBDC"/><stop offset="1" stop-color="#fff"/></radialGradient><radialGradient id="b" cx="0" cy="0" r="1" gradientUnits="userSpaceOnUse" gradientTransform="matrix(53.75846 -19.99377 13.06495 35.12852 113.601 161.003)"><stop stop-color="#8EDBDC"/><stop offset=".44" stop-color="#90DCDD"/><stop offset=".6" stop-color="#97DEDF"/><stop offset=".71" stop-color="#A2E2E2"/><stop offset=".8" stop-color="#B3E7E8"/><stop offset=".88" stop-color="#C9EEEE"/><stop offset=".95" stop-color="#E4F6F7"/><stop offset="1" stop-color="#fff"/></radialGradient><radialGradient id="c" cx="0" cy="0" r="1" gradientUnits="userSpaceOnUse" gradientTransform="matrix(53.75846 -19.99377 13.06495 35.12852 113.601 161.003)"><stop stop-color="#80E3C8"/><stop offset=".43" stop-color="#82E3C9"/><stop offset=".58" stop-color="#89E5CC"/><stop offset=".69" stop-color="#94E8D1"/><stop offset=".78" stop-color="#A5EBD8"/><stop offset=".86" stop-color="#BBF0E2"/><stop offset=".93" stop-color="#D7F6ED"/><stop offset=".99" stop-color="#F6FDFB"/><stop offset="1" stop-color="#fff"/></radialGradient><radialGradient id="d" cx="0" cy="0" r="1" gradientUnits="userSpaceOnUse" gradientTransform="matrix(53.75846 -19.99377 13.06495 35.12852 113.601 161.003)"><stop stop-color="#80E3C8"/><stop offset=".43" stop-color="#82E3C9"/><stop offset=".58" stop-color="#89E5CC"/><stop offset=".69" stop-color="#94E8D1"/><stop offset=".78" stop-color="#A5EBD8"/><stop offset=".86" stop-color="#BBF0E2"/><stop offset=".93" stop-color="#D7F6ED"/><stop offset=".99" stop-color="#F6FDFB"/><stop offset="1" stop-color="#fff"/></radialGradient><radialGradient id="e" cx="0" cy="0" r="1" gradientUnits="userSpaceOnUse" gradientTransform="matrix(67.5713 0 0 23.5783 110.536 139.421)"><stop stop-color="#8EDBDC"/><stop offset="1" stop-color="#fff"/></radialGradient><radialGradient id="f" cx="0" cy="0" r="1" gradientUnits="userSpaceOnUse" gradientTransform="matrix(35.0368 0 0 12.2257 110.536 114.199)"><stop stop-color="#8EDBDC"/><stop offset="1" stop-color="#fff"/></radialGradient></defs></svg>