<svg width="222" height="251" fill="none" xmlns="http://www.w3.org/2000/svg"><path style="mix-blend-mode:multiply" d="M180.142 176.444c47.405 14.406 54.691 40.512 16.33 58.296-38.361 17.784-107.887 20.537-155.272 6.131-47.384-14.406-54.687-40.515-16.318-58.307 38.37-17.792 107.875-20.53 155.26-6.12Z" fill="url(#a)"/><path d="M110.607 210.285c-22.786 0-44.285-2.877-62.15-8.314-25.129-7.642-39.554-19.442-40.617-33.231-.524-6.791 2.097-19.801 25.514-30.66 19.172-8.892 47.38-13.989 77.388-13.989 22.787 0 44.286 2.872 62.17 8.309 25.13 7.643 39.555 19.446 40.618 33.236.524 6.786-2.097 19.797-25.514 30.655-19.192 8.892-47.401 13.994-77.409 13.994Z" fill="#029894" style="mix-blend-mode:multiply" opacity=".2"/><path d="M170.484 139.449c40.794 12.405 47.087 34.878 14.049 50.199-33.037 15.32-92.889 17.683-133.703 5.278-40.815-12.404-47.087-34.881-14.05-50.201 33.038-15.321 92.906-17.68 133.704-5.276Z" fill="#029894" style="mix-blend-mode:multiply"/><path d="M158.307 145.094c32.494 9.879 37.503 27.764 11.191 39.984-26.311 12.219-73.982 14.082-106.476 4.199-32.493-9.883-37.502-27.764-11.19-39.98 26.31-12.216 73.982-14.082 106.475-4.203Z" fill="url(#b)"/><path d="M158.307 145.094c32.494 9.879 37.503 27.764 11.191 39.984-26.311 12.219-73.982 14.082-106.476 4.199-32.493-9.883-37.502-27.764-11.19-39.98 26.31-12.216 73.982-14.082 106.475-4.203Z" fill="url(#c)"/><path d="M158.307 145.094c32.494 9.879 37.503 27.764 11.191 39.984-26.311 12.219-73.982 14.082-106.476 4.199-32.493-9.883-37.502-27.764-11.19-39.98 26.31-12.216 73.982-14.082 106.475-4.203Z" fill="url(#d)"/><path d="M110.607 224.953c-22.786 0-44.285-2.872-62.15-8.313-25.129-7.639-39.554-19.442-40.617-33.232-.524-6.79 2.097-19.8 25.514-30.659 19.172-8.892 47.38-13.99 77.388-13.99 22.787 0 44.286 2.873 62.17 8.314 25.13 7.639 39.555 19.442 40.618 33.231.524 6.787-2.097 19.801-25.514 30.66-19.192 8.888-47.401 13.989-77.409 13.989Z" fill="#029894" style="mix-blend-mode:multiply" opacity=".2"/><path d="M178.445 141.736h-13.424a73.599 73.599 0 0 0-11.702-4.554c-29.092-8.846-71.77-7.161-95.326 3.76-.572.266-1.112.536-1.635.809H43.024v13.697c-1.227 7.913 7.36 15.922 24.987 21.289 29.091 8.846 71.77 7.161 95.326-3.759 10.173-4.72 15.104-10.389 15.096-16.018l.012-15.224Z" fill="#E6EFEC"/><path d="M153.319 121.958c29.087 8.846 33.573 24.872 10.017 35.792-23.555 10.92-66.238 12.609-95.326 3.763-29.088-8.845-33.573-24.871-10.017-35.795 23.555-10.924 66.234-12.606 95.326-3.76Z" fill="#F8FFFD"/><path style="mix-blend-mode:multiply" d="M110.592 167.29c37.474 0 67.853-11.441 67.853-25.554 0-14.113-30.379-25.554-67.853-25.554-37.475 0-67.854 11.441-67.854 25.554 0 14.113 30.38 25.554 67.854 25.554Z" fill="url(#e)"/><path d="M178.445 116.548h-13.424a73.622 73.622 0 0 0-11.702-4.569c-29.092-8.846-71.77-7.165-95.326 3.76-.572.266-1.112.536-1.635.809H43.024v13.693c-1.227 7.913 7.36 15.922 24.987 21.289 29.091 8.846 71.77 7.161 95.326-3.763 10.173-4.716 15.104-10.384 15.096-16.014l.012-15.205Z" fill="#E6EFEC"/><path d="M153.319 96.767c29.087 8.845 33.573 24.871 10.017 35.795-23.555 10.925-66.238 12.61-95.326 3.764-29.088-8.846-33.573-24.872-10.017-35.796 23.555-10.924 66.234-12.605 95.326-3.763Z" fill="#F8FFFD"/><path style="mix-blend-mode:multiply" opacity=".25" d="M110.591 129.786c19.409 0 35.143-5.927 35.143-13.238S130 103.31 110.591 103.31s-35.143 5.927-35.143 13.238 15.734 13.238 35.143 13.238Z" fill="url(#f)"/><path d="M108.489 22.326c0 4.692-1.156 8.235-3.467 10.631-2.312 2.396-5.423 3.59-9.335 3.583-3.95 0-7.084-1.197-9.404-3.59-2.32-2.394-3.476-5.937-3.468-10.632v-7.295c0-4.694 1.148-8.238 3.443-10.631 2.295-2.394 5.415-3.59 9.36-3.59 3.93 0 7.055 1.202 9.375 3.605 2.32 2.404 3.48 5.942 3.48 10.616l.016 7.303Zm-8.513-7.85c0-2.656-.37-4.565-1.112-5.727a3.44 3.44 0 0 0-1.346-1.3 3.71 3.71 0 0 0-1.868-.443c-.653-.021-1.3.13-1.866.439a3.385 3.385 0 0 0-1.335 1.304c-.715 1.162-1.073 3.07-1.076 5.726v8.353c0 2.701.364 4.63 1.092 5.784.315.545.785.995 1.357 1.301a3.696 3.696 0 0 0 1.881.43c.65.02 1.292-.13 1.855-.437a3.378 3.378 0 0 0 1.33-1.294c.728-1.155 1.09-3.083 1.088-5.784v-8.353ZM131.051 36.045h-8.521V9.392h-8.222v-5.68l16.764-2.433-.021 34.766ZM119.938 55.09H97.594v3.242h22.344V55.09ZM124.403 74.538c-3.919-3.08-6.184-7.64-6.184-12.452v-2.133H99.313v2.133c0 4.811-2.266 9.372-6.185 12.452L89 77.783l18.906 25.935V85.807c-1.961-.376-3.437-2.01-3.437-3.971 0-2.239 1.923-4.053 4.297-4.053 2.373 0 4.296 1.814 4.296 4.053 0 1.96-1.476 3.595-3.437 3.97v17.912l18.906-25.935-4.128-3.245Z" fill="#029894"/><defs><radialGradient id="a" cx="0" cy="0" r="1" gradientUnits="userSpaceOnUse" gradientTransform="matrix(107.502 0 0 39.5395 110.665 197.238)"><stop stop-color="#80E3C8"/><stop offset="1" stop-color="#fff"/></radialGradient><radialGradient id="b" cx="0" cy="0" r="1" gradientUnits="userSpaceOnUse" gradientTransform="matrix(53.75846 -19.99377 13.06491 35.12842 112.743 167.273)"><stop stop-color="#80E3C8"/><stop offset=".43" stop-color="#82E3C9"/><stop offset=".58" stop-color="#89E5CC"/><stop offset=".69" stop-color="#94E8D1"/><stop offset=".78" stop-color="#A5EBD8"/><stop offset=".86" stop-color="#BBF0E2"/><stop offset=".93" stop-color="#D7F6ED"/><stop offset=".99" stop-color="#F6FDFB"/><stop offset="1" stop-color="#fff"/></radialGradient><radialGradient id="c" cx="0" cy="0" r="1" gradientUnits="userSpaceOnUse" gradientTransform="matrix(53.75846 -19.99377 13.06491 35.12842 112.743 167.273)"><stop stop-color="#80E3C8"/><stop offset=".43" stop-color="#82E3C9"/><stop offset=".58" stop-color="#89E5CC"/><stop offset=".69" stop-color="#94E8D1"/><stop offset=".78" stop-color="#A5EBD8"/><stop offset=".86" stop-color="#BBF0E2"/><stop offset=".93" stop-color="#D7F6ED"/><stop offset=".99" stop-color="#F6FDFB"/><stop offset="1" stop-color="#fff"/></radialGradient><radialGradient id="d" cx="0" cy="0" r="1" gradientUnits="userSpaceOnUse" gradientTransform="matrix(53.75846 -19.99377 13.06491 35.12842 112.743 167.273)"><stop stop-color="#80E3C8"/><stop offset=".43" stop-color="#82E3C9"/><stop offset=".58" stop-color="#89E5CC"/><stop offset=".69" stop-color="#94E8D1"/><stop offset=".78" stop-color="#A5EBD8"/><stop offset=".86" stop-color="#BBF0E2"/><stop offset=".93" stop-color="#D7F6ED"/><stop offset=".99" stop-color="#F6FDFB"/><stop offset="1" stop-color="#fff"/></radialGradient><radialGradient id="e" cx="0" cy="0" r="1" gradientUnits="userSpaceOnUse" gradientTransform="matrix(67.6449 0 0 23.604 110.592 144.755)"><stop stop-color="#80E3C8"/><stop offset="1" stop-color="#fff"/></radialGradient><radialGradient id="f" cx="0" cy="0" r="1" gradientUnits="userSpaceOnUse" gradientTransform="matrix(35.0368 0 0 12.2257 110.591 119.533)"><stop stop-color="#80E3C8"/><stop offset="1" stop-color="#fff"/></radialGradient></defs></svg>