<svg width="222" height="245" fill="none" xmlns="http://www.w3.org/2000/svg"><path style="mix-blend-mode:multiply" d="M180.708 170.742c47.38 14.411 54.687 40.516 16.318 58.308s-107.887 20.537-155.272 6.127c-47.385-14.41-54.687-40.512-16.318-58.303 38.37-17.792 107.887-20.538 155.272-6.132Z" fill="url(#a)"/><path d="M108.619 204.583c-22.787 0-44.286-2.872-62.17-8.309-25.13-7.643-39.555-19.446-40.618-33.232-.523-6.79 2.098-19.801 25.51-30.663 19.176-8.892 47.385-13.99 77.388-13.99 22.791 0 44.29 2.877 62.175 8.314 25.129 7.639 39.555 19.442 40.618 33.231.523 6.791-2.098 19.801-25.514 30.66-19.173 8.892-47.381 13.989-77.389 13.989Z" fill="#001C63" style="mix-blend-mode:multiply" opacity=".2"/><path d="M168.494 133.748c40.794 12.405 47.087 34.882 14.05 50.202-33.038 15.32-92.89 17.68-133.704 5.275-40.814-12.405-47.086-34.882-14.049-50.198 33.038-15.316 92.906-17.684 133.703-5.279Z" fill="#001C63" style="mix-blend-mode:multiply"/><path d="M156.318 139.393c32.49 9.883 37.503 27.783 11.191 39.983-26.311 12.201-73.994 14.083-106.476 4.223-32.481-9.86-37.502-27.764-11.19-39.984 26.31-12.22 73.982-14.101 106.475-4.222Z" fill="url(#b)"/><path d="M156.318 139.393c32.49 9.883 37.503 27.783 11.191 39.983-26.311 12.201-73.994 14.083-106.476 4.223-32.481-9.86-37.502-27.764-11.19-39.984 26.31-12.22 73.982-14.101 106.475-4.222Z" fill="url(#c)"/><path d="M156.318 139.393c32.49 9.883 37.503 27.783 11.191 39.983-26.311 12.201-73.994 14.083-106.476 4.223-32.481-9.86-37.502-27.764-11.19-39.984 26.31-12.22 73.982-14.101 106.475-4.222Z" fill="url(#d)"/><path d="M108.619 219.256c-22.787 0-44.286-2.877-62.17-8.314C21.319 203.3 6.894 191.5 5.831 177.711c-.523-6.791 2.098-19.801 25.51-30.663 19.176-8.869 47.385-13.99 77.388-13.99 22.791 0 44.29 2.876 62.175 8.313 25.129 7.643 39.555 19.443 40.618 33.232.523 6.79-2.098 19.801-25.514 30.659-19.173 8.892-47.381 13.994-77.389 13.994Z" fill="#001C63" style="mix-blend-mode:multiply" opacity=".2"/><path d="M176.452 136.034h-13.427a74.52 74.52 0 0 0-11.703-4.569c-29.091-8.846-71.77-7.161-95.326 3.763-.572.266-1.116.536-1.656.806H41.023v13.701c-1.226 7.909 7.36 15.921 24.991 21.289 29.092 8.846 71.77 7.161 95.326-3.763 10.173-4.716 15.104-10.385 15.096-16.019l.016-15.208Z" fill="#E5E7EA"/><path d="M151.33 116.257c29.088 8.845 33.573 24.871 10.018 35.795-23.556 10.925-66.239 12.61-95.326 3.764-29.088-8.846-33.573-24.872-10.018-35.796 23.556-10.924 66.235-12.609 95.326-3.763Z" fill="#FDFEFF"/><path style="mix-blend-mode:multiply" d="M108.602 161.588c37.475 0 67.854-11.441 67.854-25.554 0-14.113-30.379-25.554-67.854-25.554-37.474 0-67.853 11.441-67.853 25.554 0 14.113 30.379 25.554 67.853 25.554Z" fill="url(#e)"/><path d="M176.452 110.847h-13.427a74.621 74.621 0 0 0-11.703-4.57c-29.091-8.846-71.77-7.16-95.326 3.764-.572.266-1.116.536-1.656.806H41.023v13.7c-1.226 7.909 7.36 15.922 24.991 21.29 29.092 8.845 71.77 7.16 95.326-3.764 10.173-4.716 15.104-10.384 15.096-16.018l.016-15.208Z" fill="#E5E7EA"/><path d="M151.33 91.054c29.088 8.845 33.573 24.871 10.018 35.795-23.556 10.925-66.239 12.606-95.326 3.76-29.088-8.846-33.573-24.872-10.018-35.792 23.556-10.92 66.235-12.594 95.326-3.763Z" fill="#FDFEFF"/><path style="mix-blend-mode:multiply" opacity=".25" d="M108.602 124.085c19.409 0 35.144-5.927 35.144-13.238s-15.735-13.238-35.144-13.238-35.143 5.927-35.143 13.238 15.734 13.238 35.143 13.238Z" fill="url(#f)"/><path d="M106.5 22.277c0 4.692-1.156 8.235-3.467 10.631-2.312 2.396-5.425 3.593-9.34 3.59-3.943 0-7.078-1.196-9.403-3.59-2.326-2.393-3.481-5.937-3.468-10.63v-7.304c0-4.694 1.147-8.238 3.44-10.631 2.292-2.394 5.413-3.59 9.362-3.59 3.928 0 7.054 1.2 9.376 3.601 2.322 2.401 3.482 5.941 3.48 10.62l.02 7.303Zm-8.53-7.85c0-2.656-.37-4.565-1.111-5.727a3.448 3.448 0 0 0-1.347-1.299 3.72 3.72 0 0 0-1.867-.444 3.65 3.65 0 0 0-1.866.438A3.381 3.381 0 0 0 90.443 8.7c-.714 1.162-1.072 3.07-1.075 5.726v8.353c0 2.701.363 4.63 1.088 5.784.315.544.785.994 1.357 1.3a3.704 3.704 0 0 0 1.88.43 3.65 3.65 0 0 0 1.858-.435 3.383 3.383 0 0 0 1.332-1.296c.728-1.154 1.09-3.082 1.088-5.784v-8.352ZM133.47 22.466h3.721v6.205h-3.721v7.326h-8.55v-7.326h-14.274l-.502-4.925L124.92 1.327v-.073h8.55v21.212Zm-15.689 0h7.139V11.731l-.155-.05-.658.983-6.326 9.802ZM81 102.045h6.109V84.761H81v17.284Zm28.895 2.88-8.949-1.843-8.95-1.988a2.257 2.257 0 0 1-1.313-.749 1.976 1.976 0 0 1-.52-1.354V87.47c.009-.493.192-.97.52-1.354a2.473 2.473 0 0 1 1.313-.749l14.6-1.7 14.631-1.728.458 1.613.458 1.585a2.568 2.568 0 0 1-.458 1.498c-.28.465-.707.838-1.222 1.065l-6.108 1.44-6.109 1.44 4.948 1.902 4.979 1.873 6.933-1.844 6.751-1.988a2.507 2.507 0 0 1 1.771.23c.27.138.507.327.697.555.189.228.326.49.403.77l.58 2.219.611 2.19a2.113 2.113 0 0 1-.244 1.612 2.376 2.376 0 0 1-1.405 1.008l-11.088 2.881-11.088 2.881a4.592 4.592 0 0 1-1.099 0 3.564 3.564 0 0 1-1.1.057Zm-10.568-51.85-6.11 5.76-6.108 5.762 6.109 5.761 6.109 5.761 2.138-2.016 2.138-2.016-3.97-3.745-3.972-3.745 3.971-3.745 3.971-3.744-2.138-2.017-2.138-2.016Zm18.326 0-2.138 2.016-2.138 2.017 3.971 3.744 3.971 3.745-3.971 3.745-3.971 3.745 2.138 2.016 2.138 2.016 6.109-5.76 6.109-5.762-6.109-5.761-6.109-5.761Z" fill="#001C63"/><defs><radialGradient id="a" cx="0" cy="0" r="1" gradientUnits="userSpaceOnUse" gradientTransform="matrix(107.502 0 0 39.5395 111.231 190.822)"><stop stop-color="#5A9BFB"/><stop offset="1" stop-color="#fff"/></radialGradient><radialGradient id="b" cx="0" cy="0" r="1" gradientUnits="userSpaceOnUse" gradientTransform="matrix(53.75846 -19.99377 13.06495 35.12852 113.704 160.825)"><stop stop-color="#7FD4F9"/><stop offset=".43" stop-color="#81D5F9"/><stop offset=".58" stop-color="#88D7F9"/><stop offset=".69" stop-color="#93DBFA"/><stop offset=".78" stop-color="#A4E1FB"/><stop offset=".86" stop-color="#BAE8FC"/><stop offset=".92" stop-color="#D6F1FD"/><stop offset=".98" stop-color="#F5FCFF"/><stop offset="1" stop-color="#fff"/></radialGradient><radialGradient id="c" cx="0" cy="0" r="1" gradientUnits="userSpaceOnUse" gradientTransform="matrix(53.75846 -19.99377 13.06495 35.12852 113.704 160.825)"><stop stop-color="#80E3C8"/><stop offset=".43" stop-color="#82E3C9"/><stop offset=".58" stop-color="#89E5CC"/><stop offset=".69" stop-color="#94E8D1"/><stop offset=".78" stop-color="#A5EBD8"/><stop offset=".86" stop-color="#BBF0E2"/><stop offset=".93" stop-color="#D7F6ED"/><stop offset=".99" stop-color="#F6FDFB"/><stop offset="1" stop-color="#fff"/></radialGradient><radialGradient id="d" cx="0" cy="0" r="1" gradientUnits="userSpaceOnUse" gradientTransform="matrix(53.75846 -19.99377 13.06495 35.12852 113.704 160.825)"><stop stop-color="#5A9BFB"/><stop offset=".41" stop-color="#5C9CFB"/><stop offset=".55" stop-color="#63A0FB"/><stop offset=".66" stop-color="#6EA7FB"/><stop offset=".74" stop-color="#7FB2FC"/><stop offset=".81" stop-color="#95BFFC"/><stop offset=".88" stop-color="#B1CFFD"/><stop offset=".94" stop-color="#D1E3FE"/><stop offset=".99" stop-color="#F5F9FF"/><stop offset="1" stop-color="#fff"/></radialGradient><radialGradient id="e" cx="0" cy="0" r="1" gradientUnits="userSpaceOnUse" gradientTransform="matrix(67.6449 0 0 23.604 108.602 139.244)"><stop stop-color="#5A9BFB"/><stop offset="1" stop-color="#fff"/></radialGradient><radialGradient id="f" cx="0" cy="0" r="1" gradientUnits="userSpaceOnUse" gradientTransform="matrix(35.0369 0 0 12.2257 108.602 114.023)"><stop stop-color="#5A9BFB"/><stop offset="1" stop-color="#fff"/></radialGradient></defs></svg>