<svg width="222" height="251" fill="none" xmlns="http://www.w3.org/2000/svg"><path style="mix-blend-mode:multiply" d="M180.456 177.027c47.385 14.41 54.691 40.515 16.318 58.307-38.373 17.792-107.887 20.537-155.268 6.127-47.38-14.41-54.691-40.511-16.322-58.303 38.37-17.792 107.891-20.526 155.272-6.131Z" fill="url(#a)"/><path d="M110.926 210.208c-22.787 0-44.29-2.873-62.174-8.31-25.13-7.643-39.555-19.446-40.618-33.232-.52-6.79 2.098-19.8 25.514-30.663 19.172-8.888 47.38-13.99 77.389-13.99 22.79 0 44.285 2.877 62.17 8.314 25.133 7.639 39.559 19.442 40.618 33.231.523 6.791-2.094 19.801-25.51 30.66-19.177 8.892-47.385 13.99-77.389 13.99Z" fill="#001C63" style="mix-blend-mode:multiply" opacity=".2"/><path d="M170.798 139.372c40.798 12.405 47.087 34.882 14.05 50.202-33.038 15.32-92.89 17.68-133.683 5.275-40.794-12.405-47.087-34.882-14.054-50.198 33.034-15.316 92.889-17.684 133.687-5.279Z" fill="#001C63" style="mix-blend-mode:multiply"/><path d="M158.622 145.017c32.494 9.883 37.503 27.764 11.191 39.984-26.311 12.219-73.982 14.082-106.472 4.203-32.49-9.879-37.506-27.783-11.19-39.984 26.315-12.2 73.982-14.082 106.471-4.203Z" fill="url(#b)"/><path d="M158.622 145.017c32.494 9.883 37.503 27.764 11.191 39.984-26.311 12.219-73.982 14.082-106.472 4.203-32.49-9.879-37.506-27.783-11.19-39.984 26.315-12.2 73.982-14.082 106.471-4.203Z" fill="url(#c)"/><path d="M158.622 145.017c32.494 9.883 37.503 27.764 11.191 39.984-26.311 12.219-73.982 14.082-106.472 4.203-32.49-9.879-37.506-27.783-11.19-39.984 26.315-12.2 73.982-14.082 106.471-4.203Z" fill="url(#d)"/><path d="M110.926 224.88c-22.787 0-44.29-2.877-62.174-8.314-25.13-7.642-39.555-19.442-40.618-33.231-.52-6.791 2.098-19.801 25.514-30.66 19.172-8.892 47.38-13.993 77.389-13.993 22.79 0 44.285 2.876 62.17 8.313 25.133 7.643 39.559 19.443 40.618 33.232.523 6.79-2.094 19.801-25.51 30.663-19.177 8.888-47.385 13.99-77.389 13.99Z" fill="#001C63" style="mix-blend-mode:multiply" opacity=".2"/><path d="M178.758 141.659h-13.419a74.59 74.59 0 0 0-11.706-4.569c-29.088-8.846-71.767-7.161-95.326 3.763-.573.266-1.112.536-1.636.806H43.338v13.701c-1.227 7.908 7.36 15.921 24.99 21.289 29.088 8.846 71.767 7.16 95.322-3.764 10.173-4.716 15.104-10.384 15.096-16.014l.012-15.212Z" fill="#E6E6E8"/><path d="M153.634 121.881c29.092 8.846 33.577 24.872 10.018 35.796-23.56 10.924-66.239 12.609-95.322 3.764-29.084-8.846-33.578-24.872-10.022-35.796 23.556-10.924 66.238-12.61 95.326-3.764Z" fill="#FDFDFF"/><path style="mix-blend-mode:multiply" d="M110.979 167.186c37.434 0 67.78-11.429 67.78-25.527s-30.346-25.527-67.78-25.527-67.78 11.429-67.78 25.527 30.346 25.527 67.78 25.527Z" fill="url(#e)"/><path d="M178.758 116.471h-13.419a74.59 74.59 0 0 0-11.706-4.569c-29.088-8.846-71.767-7.161-95.326 3.763-.573.266-1.112.536-1.636.806H43.338v13.701c-1.227 7.908 7.36 15.921 24.99 21.289 29.088 8.846 71.767 7.161 95.322-3.764 10.173-4.716 15.104-10.384 15.096-16.018l.012-15.208Z" fill="#E6E6E8"/><path d="M153.634 96.694c29.092 8.845 33.577 24.871 10.018 35.795-23.56 10.924-66.239 12.606-95.322 3.76-29.084-8.846-33.578-24.872-10.022-35.792 23.556-10.92 66.238-12.61 95.326-3.763Z" fill="#FDFDFF"/><path style="mix-blend-mode:multiply" opacity=".25" d="M110.979 129.709c19.409 0 35.143-5.927 35.143-13.238s-15.734-13.238-35.143-13.238-35.143 5.927-35.143 13.238 15.734 13.238 35.143 13.238Z" fill="url(#f)"/><path d="M108.881 22.326c0 4.692-1.155 8.235-3.467 10.631-2.311 2.396-5.423 3.593-9.335 3.59-3.95 0-7.084-1.197-9.404-3.59-2.32-2.393-3.475-5.937-3.467-10.631v-7.303c0-4.694 1.147-8.237 3.442-10.628 2.296-2.39 5.415-3.588 9.36-3.593 3.928 0 7.053 1.201 9.375 3.605 2.323 2.404 3.483 5.942 3.48 10.616l.016 7.303Zm-8.529-7.85c0-2.656-.37-4.565-1.112-5.727a3.44 3.44 0 0 0-1.346-1.3 3.71 3.71 0 0 0-1.868-.443 3.642 3.642 0 0 0-1.864.438 3.373 3.373 0 0 0-1.333 1.305c-.72 1.162-1.078 3.07-1.076 5.726v8.352c0 2.702.363 4.63 1.088 5.784.316.544.786.994 1.358 1.3a3.7 3.7 0 0 0 1.88.428c.65.02 1.291-.13 1.854-.436a3.384 3.384 0 0 0 1.331-1.292c.728-1.157 1.091-3.085 1.088-5.784v-8.352ZM113.984 20.776l2.126-19.473h21.605v6.204h-14.65l-.936 7.28a7.965 7.965 0 0 1 2.404-1.122 12.078 12.078 0 0 1 3.165-.478c3.609-.062 6.384.928 8.325 2.97 1.94 2.04 2.91 4.94 2.907 8.698.079 3.065-1.109 6.038-3.312 8.291-2.211 2.267-5.374 3.401-9.49 3.401-3.284.069-6.498-.897-9.134-2.745a8.493 8.493 0 0 1-2.865-3.172 7.94 7.94 0 0 1-.881-4.082l.053-.142 8.35-.479c0 1.384.408 2.466 1.226 3.247.429.392.939.697 1.498.896a4.612 4.612 0 0 0 1.753.261c1.554 0 2.655-.514 3.304-1.542a7.21 7.21 0 0 0 .973-3.903c0-1.907-.363-3.41-1.088-4.507-.725-1.098-1.873-1.647-3.443-1.647a4.98 4.98 0 0 0-2.768.69 3.626 3.626 0 0 0-1.455 1.743l-7.667-.39Z" fill="#001C63"/><path fill-rule="evenodd" clip-rule="evenodd" d="M101.111 62.328h16.84a4.169 4.169 0 0 1 2.849 1.117 3.707 3.707 0 0 1 1.184 2.687v9.962a3.707 3.707 0 0 1-1.184 2.687 4.17 4.17 0 0 1-2.849 1.116h-9.87l-6.119 4.968a.707.707 0 0 1-.957-.07.629.629 0 0 1-.162-.436l.328-4.44h-.055a4.169 4.169 0 0 1-2.85-1.117 3.706 3.706 0 0 1-1.183-2.687v-9.983a3.706 3.706 0 0 1 1.182-2.686 4.168 4.168 0 0 1 2.846-1.118Zm5.712 38.88c.953-1.443 1.295-3.72.259-5.234-.416-.606-.25-1.587-.25-2.42 0-8.288-15.373-8.288-15.373 0 0 1.038.25 1.744-.342 2.577-1.013 1.379-.49 3.821.36 5.09.865 2.373 4.163 3.751 1.342 6.22s-8.667-.624-9.819 6.756h56.831c-1.049-5.962-6.012-2.926-8.075-5.569-1.743-2.207.463-2.657 1.147-4.585.685-1.016 1.106-2.979.292-4.087-.463-.658-.278-1.343-.278-2.18 0-6.67-12.048-6.67-12.048 0 0 .663.134 1.566-.199 2.05-.832 1.221-.555 3.053.208 4.209.565 1.871 2.836 2.756 1.388 4.641-1.448 1.884-4.805 1.522-6.887 2.66-2.201-2.543-7.376-1.596-9.684-4.013-2.563-2.682.393-3.62 1.147-6.106l-.019-.009Zm17.14-31.134c.777.143 1.491.501 2.049 1.03.365.318.656.704.856 1.133.2.43.304.893.305 1.362v8.54a3.634 3.634 0 0 1-1.149 2.637 4.089 4.089 0 0 1-2.787 1.105h-.143l.421 5.182-7.215-5.343h-11.012l3.991-3.825h11.34a3.47 3.47 0 0 0 2.369-.93 3.086 3.086 0 0 0 .985-2.233v-8.658h-.01ZM103.1 73.411a.7.7 0 0 1-.447-.206.623.623 0 0 1-.181-.437c0-.162.064-.318.181-.438a.7.7 0 0 1 .447-.206h10.008a.702.702 0 0 1 .448.207c.116.119.181.275.181.437a.627.627 0 0 1-.181.437.703.703 0 0 1-.448.206H103.1Zm0-4.261a.714.714 0 0 1-.49-.192.633.633 0 0 1-.204-.462c0-.174.073-.34.204-.463a.714.714 0 0 1 .49-.192h12.982c.184 0 .361.07.491.192.13.123.203.289.203.463 0 .173-.073.34-.203.462a.717.717 0 0 1-.491.192H103.1Zm14.846-5.54h-16.835a2.766 2.766 0 0 0-1.887.741 2.46 2.46 0 0 0-.786 1.78v9.963a2.46 2.46 0 0 0 .786 1.78c.5.472 1.179.738 1.887.74h.782a.714.714 0 0 1 .497.207c.063.064.111.14.142.224a.603.603 0 0 1 .036.259l-.263 3.594 5.05-4.096a.711.711 0 0 1 .463-.187h10.128a2.768 2.768 0 0 0 1.888-.741 2.456 2.456 0 0 0 .785-1.78v-9.962a2.456 2.456 0 0 0-.785-1.78 2.769 2.769 0 0 0-1.888-.742Z" fill="#001C63"/><defs><radialGradient id="a" cx="0" cy="0" r="1" gradientUnits="userSpaceOnUse" gradientTransform="matrix(107.502 0 0 39.5395 110.979 197.819)"><stop stop-color="#2A48D0"/><stop offset="1" stop-color="#fff"/></radialGradient><radialGradient id="b" cx="0" cy="0" r="1" gradientUnits="userSpaceOnUse" gradientTransform="matrix(53.75846 -19.99377 13.06495 35.12852 117.01 167.198)"><stop stop-color="#8EDBDC"/><stop offset=".44" stop-color="#90DCDD"/><stop offset=".6" stop-color="#97DEDF"/><stop offset=".71" stop-color="#A2E2E2"/><stop offset=".8" stop-color="#B3E7E8"/><stop offset=".88" stop-color="#C9EEEE"/><stop offset=".95" stop-color="#E4F6F7"/><stop offset="1" stop-color="#fff"/></radialGradient><radialGradient id="c" cx="0" cy="0" r="1" gradientUnits="userSpaceOnUse" gradientTransform="matrix(53.75846 -19.99377 13.06495 35.12852 117.01 167.198)"><stop stop-color="#80E3C8"/><stop offset=".43" stop-color="#82E3C9"/><stop offset=".58" stop-color="#89E5CC"/><stop offset=".69" stop-color="#94E8D1"/><stop offset=".78" stop-color="#A5EBD8"/><stop offset=".86" stop-color="#BBF0E2"/><stop offset=".93" stop-color="#D7F6ED"/><stop offset=".99" stop-color="#F6FDFB"/><stop offset="1" stop-color="#fff"/></radialGradient><radialGradient id="d" cx="0" cy="0" r="1" gradientUnits="userSpaceOnUse" gradientTransform="matrix(53.75846 -19.99377 13.06495 35.12852 117.01 167.198)"><stop stop-color="#2A48D0"/><stop offset=".39" stop-color="#2C4AD0"/><stop offset=".53" stop-color="#334FD2"/><stop offset=".62" stop-color="#3E5AD5"/><stop offset=".71" stop-color="#4F68D8"/><stop offset=".77" stop-color="#657BDD"/><stop offset=".83" stop-color="#8192E3"/><stop offset=".89" stop-color="#A1AEEA"/><stop offset=".94" stop-color="#C7CFF3"/><stop offset=".99" stop-color="#F0F2FC"/><stop offset="1" stop-color="#fff"/></radialGradient><radialGradient id="e" cx="0" cy="0" r="1" gradientUnits="userSpaceOnUse" gradientTransform="matrix(67.5713 0 0 23.5783 110.979 144.679)"><stop stop-color="#2A48D0"/><stop offset="1" stop-color="#fff"/></radialGradient><radialGradient id="f" cx="0" cy="0" r="1" gradientUnits="userSpaceOnUse" gradientTransform="matrix(35.0369 0 0 12.2257 110.979 119.457)"><stop stop-color="#2A48D0"/><stop offset="1" stop-color="#fff"/></radialGradient></defs></svg>