<svg xmlns="http://www.w3.org/2000/svg" width="221" height="270" fill="none"><path fill="url(#a)" d="M179.956 189.93c47.385 15.503 54.691 43.595 16.318 62.741-38.373 19.146-107.887 22.101-155.268 6.598-47.38-15.503-54.691-43.599-16.322-62.745 38.37-19.146 107.891-22.101 155.272-6.594Z" style="mix-blend-mode:multiply"/><path fill="#029894" d="M110.426 226.347c-22.79 0-44.285-3.096-62.17-8.947-25.134-8.224-39.559-20.922-40.622-35.761-.52-7.307 2.098-21.307 25.514-32.992 19.172-9.569 47.381-15.059 77.389-15.059 22.786 0 44.285 3.095 62.149 8.946 25.13 8.225 39.555 20.926 40.618 35.765.524 7.303-2.093 21.308-25.51 32.993-19.156 9.565-47.36 15.055-77.368 15.055Z" opacity=".2" style="mix-blend-mode:multiply"/><path fill="#029894" d="M170.299 150.12c40.798 13.349 47.086 37.533 14.049 54.019-33.037 16.486-92.889 19.029-133.703 5.68C9.83 196.47 3.558 172.283 36.592 155.797c33.033-16.487 92.893-19.026 133.707-5.677Z" style="mix-blend-mode:multiply"/><g style="mix-blend-mode:multiply"><path fill="url(#b)" d="M158.106 156.196c32.493 10.631 37.502 29.876 11.191 43.026-26.312 13.15-73.983 15.154-106.472 4.519-32.49-10.635-37.507-29.877-11.191-43.022 26.315-13.146 73.999-15.155 106.472-4.523Z"/><path fill="url(#c)" d="M158.106 156.196c32.493 10.631 37.502 29.876 11.191 43.026-26.312 13.15-73.983 15.154-106.472 4.519-32.49-10.635-37.507-29.877-11.191-43.022 26.315-13.146 73.999-15.155 106.472-4.523Z"/><path fill="url(#d)" d="M158.106 156.196c32.493 10.631 37.502 29.876 11.191 43.026-26.312 13.15-73.983 15.154-106.472 4.519-32.49-10.635-37.507-29.877-11.191-43.022 26.315-13.146 73.999-15.155 106.472-4.523Z"/></g><path fill="#029894" d="M110.426 242.131c-22.79 0-44.285-3.091-62.17-8.946-25.134-8.22-39.559-20.922-40.622-35.761-.52-7.303 2.098-21.307 25.514-32.993 19.172-9.568 47.381-15.054 77.389-15.054 22.786 0 44.285 3.091 62.149 8.946 25.13 8.221 39.555 20.922 40.618 35.761.524 7.307-2.093 21.308-25.51 32.993-19.156 9.569-47.36 15.054-77.368 15.054Z" opacity=".2" style="mix-blend-mode:multiply"/><path fill="#E6EBED" d="M178.26 152.58h-13.42a70.828 70.828 0 0 0-11.706-4.917c-29.088-9.519-71.766-7.706-95.326 4.046-.572.286-1.112.577-1.635.871H42.855v14.739c-1.226 8.515 7.36 17.134 24.991 22.91 29.088 9.519 71.766 7.706 95.322-4.046 10.173-5.079 15.104-11.179 15.096-17.237l-.004-16.366Z"/><path fill="#FAFDFF" d="M153.134 131.299c29.092 9.519 33.577 26.765 10.018 38.516-23.56 11.751-66.239 13.569-95.322 4.05-29.084-9.519-33.578-26.765-10.022-38.52 23.556-11.756 66.238-13.565 95.326-4.046Z"/><path fill="url(#e)" d="M110.406 180.08c37.475 0 67.854-12.312 67.854-27.499s-30.379-27.499-67.854-27.499c-37.474 0-67.853 12.312-67.853 27.499s30.379 27.499 67.853 27.499Z" style="mix-blend-mode:multiply"/><path fill="#E6EBED" d="M178.26 125.476h-13.42a70.828 70.828 0 0 0-11.706-4.917c-29.088-9.519-71.766-7.71-95.326 4.046-.572.286-1.112.576-1.635.871H42.855v14.735c-1.226 8.515 7.36 17.133 24.991 22.91 29.088 9.519 71.766 7.705 95.322-4.05 10.173-5.075 15.104-11.175 15.096-17.233l-.004-16.362Z"/><path fill="#FAFDFF" d="M153.134 104.19c29.092 9.519 33.577 26.765 10.018 38.52-23.56 11.756-66.239 13.569-95.322 4.05-29.084-9.519-33.578-26.764-10.022-38.52 23.556-11.755 66.238-13.565 95.326-4.05Z"/><path fill="url(#f)" d="M110.406 139.721c19.409 0 35.143-6.378 35.143-14.245 0-7.868-15.734-14.246-35.143-14.246-19.41 0-35.143 6.378-35.143 14.246 0 7.867 15.734 14.245 35.143 14.245Z" opacity=".25" style="mix-blend-mode:multiply"/><path fill="#029894" d="M108.304 24.085c0 5.048-1.155 8.862-3.467 11.44-2.311 2.578-5.423 3.866-9.335 3.863-3.95 0-7.084-1.288-9.404-3.863-2.32-2.576-3.475-6.389-3.467-11.44v-7.86c0-5.051 1.147-8.863 3.443-11.436C88.369 2.217 91.489.927 95.433.922c3.933 0 7.059 1.293 9.375 3.88 2.317 2.586 3.477 6.394 3.48 11.423l.016 7.86Zm-8.525-8.449c0-2.857-.372-4.911-1.116-6.162a3.57 3.57 0 0 0-1.346-1.399A3.5 3.5 0 0 0 95.45 7.6a3.436 3.436 0 0 0-1.864.47 3.505 3.505 0 0 0-1.333 1.405c-.72 1.25-1.078 3.304-1.075 6.162v8.988c0 2.907.362 4.982 1.087 6.224.33.567.8 1.037 1.364 1.363a3.69 3.69 0 0 0 3.7 0 3.76 3.76 0 0 0 1.364-1.363c.722-1.245 1.085-3.32 1.087-6.224v-8.988ZM120.526 16.557h4.023c1.535 0 2.715-.415 3.541-1.245.826-.83 1.235-1.993 1.227-3.49a4.217 4.217 0 0 0-1.113-2.979c-.744-.805-1.819-1.207-3.238-1.207a4.695 4.695 0 0 0-2.936.975 3.03 3.03 0 0 0-.939 1.1c-.22.44-.331.926-.324 1.418h-8.3l-.049-.153c-.101-2.98 1.053-5.393 3.463-7.241 2.409-1.848 5.337-2.773 8.782-2.776 3.994 0 7.19.93 9.589 2.788 2.398 1.86 3.596 4.487 3.594 7.885a7.804 7.804 0 0 1-1.558 4.684 10.44 10.44 0 0 1-4.162 3.35 9.942 9.942 0 0 1 4.632 3.352 8.765 8.765 0 0 1 1.668 5.394c0 3.428-1.29 6.12-3.872 8.08-2.581 1.958-5.878 2.937-9.891 2.937a15.276 15.276 0 0 1-9.073-2.76c-2.586-1.842-3.839-4.508-3.757-8l.053-.153h8.349a3.879 3.879 0 0 0 1.378 3.017 4.864 4.864 0 0 0 3.353 1.22 4.989 4.989 0 0 0 3.594-1.282 4.266 4.266 0 0 0 1.014-1.472c.231-.558.343-1.16.327-1.765 0-1.812-.469-3.134-1.406-3.967-.938-.833-2.257-1.248-3.958-1.245h-4.024l.013-6.465Z"/><path fill="#029894" fill-rule="evenodd" d="M111.937 56.002c9.331 5.915 17.761 8.713 24.996 8.052 1.263 25.556-8.175 40.649-24.9 46.948-16.151-5.896-25.704-20.339-24.996-47.336 8.493.445 16.825-1.391 24.9-7.664Zm-9.816 29.888a1.26 1.26 0 0 1 1.638-1.914l5.144 4.42 11.271-12.391a1.261 1.261 0 0 1 1.864 1.696l-12.094 13.297h-.001a1.259 1.259 0 0 1-1.75.108l-6.072-5.216Z" clip-rule="evenodd"/><defs><radialGradient id="a" cx="0" cy="0" r="1" gradientTransform="matrix(107.502 0 0 42.5488 110.479 212.307)" gradientUnits="userSpaceOnUse"><stop stop-color="#7FD4F9"/><stop offset="1" stop-color="#fff"/></radialGradient><radialGradient id="b" cx="0" cy="0" r="1" gradientTransform="rotate(-21.812 524.517 -207.18) scale(57.9042 39.9502)" gradientUnits="userSpaceOnUse"><stop stop-color="#7FD4F9"/><stop offset=".43" stop-color="#81D5F9"/><stop offset=".58" stop-color="#88D7F9"/><stop offset=".69" stop-color="#93DBFA"/><stop offset=".78" stop-color="#A4E1FB"/><stop offset=".86" stop-color="#BAE8FC"/><stop offset=".92" stop-color="#D6F1FD"/><stop offset=".98" stop-color="#F5FCFF"/><stop offset="1" stop-color="#fff"/></radialGradient><radialGradient id="c" cx="0" cy="0" r="1" gradientTransform="rotate(-21.812 524.517 -207.18) scale(57.9042 39.9502)" gradientUnits="userSpaceOnUse"><stop stop-color="#80E3C8"/><stop offset=".43" stop-color="#82E3C9"/><stop offset=".58" stop-color="#89E5CC"/><stop offset=".69" stop-color="#94E8D1"/><stop offset=".78" stop-color="#A5EBD8"/><stop offset=".86" stop-color="#BBF0E2"/><stop offset=".93" stop-color="#D7F6ED"/><stop offset=".99" stop-color="#F6FDFB"/><stop offset="1" stop-color="#fff"/></radialGradient><radialGradient id="d" cx="0" cy="0" r="1" gradientTransform="rotate(-21.812 524.517 -207.18) scale(57.9042 39.9502)" gradientUnits="userSpaceOnUse"><stop stop-color="#7FD4F9"/><stop offset=".43" stop-color="#81D5F9"/><stop offset=".58" stop-color="#88D7F9"/><stop offset=".69" stop-color="#93DBFA"/><stop offset=".78" stop-color="#A4E1FB"/><stop offset=".86" stop-color="#BAE8FC"/><stop offset=".92" stop-color="#D6F1FD"/><stop offset=".98" stop-color="#F5FCFF"/><stop offset="1" stop-color="#fff"/></radialGradient><radialGradient id="e" cx="0" cy="0" r="1" gradientTransform="matrix(67.6449 0 0 25.4004 110.406 155.83)" gradientUnits="userSpaceOnUse"><stop stop-color="#7FD4F9"/><stop offset="1" stop-color="#fff"/></radialGradient><radialGradient id="f" cx="0" cy="0" r="1" gradientTransform="matrix(35.0368 0 0 13.1562 110.406 128.688)" gradientUnits="userSpaceOnUse"><stop stop-color="#7FD4F9"/><stop offset="1" stop-color="#fff"/></radialGradient></defs></svg>