<svg xmlns="http://www.w3.org/2000/svg" width="222" height="263" fill="none"><path fill="url(#a)" d="M180.562 182.908c47.381 15.507 54.688 43.599 16.318 62.745-38.369 19.146-107.886 22.101-155.271 6.594-47.385-15.507-54.688-43.595-16.319-62.745 38.37-19.15 107.887-22.096 155.272-6.594Z" style="mix-blend-mode:multiply"/><path fill="#001C63" d="M108.484 219.325c-22.786 0-44.285-3.092-62.15-8.942-25.129-8.225-39.554-20.927-40.617-35.765-.524-7.308 2.097-21.308 25.51-32.993 19.176-9.569 47.385-15.055 77.388-15.055 22.791 0 44.29 3.096 62.174 8.947 25.13 8.22 39.555 20.922 40.618 35.76.52 7.304-2.097 21.308-25.514 32.993-19.205 9.569-47.413 15.055-77.409 15.055Z" opacity=".2" style="mix-blend-mode:multiply"/><path fill="#001C63" d="M108.484 235.112c-22.786 0-44.285-3.095-62.15-8.946-25.129-8.225-39.554-20.922-40.617-35.761-.524-7.307 2.097-21.308 25.51-32.997 19.176-9.544 47.385-15.054 77.388-15.054 22.791 0 44.29 3.095 62.174 8.946 25.13 8.224 39.555 20.922 40.618 35.761.52 7.307-2.097 21.307-25.514 32.993-19.205 9.568-47.413 15.058-77.409 15.058Z" opacity=".2" style="mix-blend-mode:multiply"/><path fill="#001C63" d="M168.345 143.097c40.798 13.349 47.091 37.536 14.053 54.022-33.037 16.486-92.889 19.026-133.703 5.677-40.815-13.349-47.087-37.537-14.05-54.023 33.038-16.486 92.906-19.026 133.7-5.676Z" style="mix-blend-mode:multiply"/><g style="mix-blend-mode:multiply"><path fill="url(#b)" d="M156.172 149.172c32.489 10.635 37.502 29.897 11.191 43.026-26.311 13.129-73.983 15.154-106.476 4.523-32.494-10.631-37.503-29.877-11.191-43.026 26.311-13.15 73.982-15.155 106.476-4.523Z"/><path fill="url(#c)" d="M156.172 149.172c32.489 10.635 37.502 29.897 11.191 43.026-26.311 13.129-73.983 15.154-106.476 4.523-32.494-10.631-37.503-29.877-11.191-43.026 26.311-13.15 73.982-15.155 106.476-4.523Z"/><path fill="url(#d)" d="M156.172 149.172c32.489 10.635 37.502 29.897 11.191 43.026-26.311 13.129-73.983 15.154-106.476 4.523-32.494-10.631-37.503-29.877-11.191-43.026 26.311-13.15 73.982-15.155 106.476-4.523Z"/></g><path fill="#E6E6ED" d="M176.306 145.558h-13.42a71.418 71.418 0 0 0-11.706-4.917c-29.088-9.519-71.766-7.706-95.322 4.05-.572.286-1.116.577-1.656.867H40.885v14.744c-1.227 8.51 7.34 17.133 24.99 22.909 29.092 9.519 71.771 7.706 95.327-4.05 10.173-5.075 15.104-11.174 15.095-17.237l.009-16.366Z"/><path fill="#FAFAFF" d="M151.18 124.275c29.091 9.519 33.577 26.764 10.021 38.52-23.555 11.755-66.238 13.565-95.326 4.05-29.087-9.515-33.573-26.769-10.017-38.52 23.555-11.752 66.234-13.569 95.322-4.05Z"/><path fill="url(#e)" d="M108.456 173.057c37.474 0 67.853-12.312 67.853-27.499 0-15.188-30.379-27.499-67.853-27.499-37.475 0-67.853 12.311-67.853 27.499 0 15.187 30.378 27.499 67.853 27.499Z" style="mix-blend-mode:multiply"/><path fill="#E6E6ED" d="M176.305 118.453h-13.419a71.036 71.036 0 0 0-11.706-4.917c-29.088-9.519-71.767-7.706-95.322 4.05-.572.286-1.116.576-1.656.867H40.885v14.743c-1.227 8.511 7.34 17.134 24.99 22.91 29.092 9.519 71.771 7.705 95.326-4.05 10.173-5.075 15.104-11.175 15.096-17.237l.008-16.366Z"/><path fill="#FAFAFF" d="M151.18 97.152c29.091 9.519 33.577 26.765 10.021 38.521-23.555 11.755-66.238 13.564-95.326 4.045-29.087-9.519-33.573-26.764-10.017-38.516 23.555-11.751 66.234-13.552 95.322-4.05Z"/><path fill="url(#f)" d="M108.456 132.698c19.409 0 35.143-6.378 35.143-14.246 0-7.867-15.734-14.245-35.143-14.245-19.41 0-35.144 6.378-35.144 14.245 0 7.868 15.735 14.246 35.144 14.246Z" opacity=".25" style="mix-blend-mode:multiply"/><path fill="#001C63" d="M106.35 23.666c0 5.048-1.154 8.862-3.463 11.44-2.309 2.578-5.422 3.867-9.339 3.867-3.944 0-7.072-1.289-9.384-3.867-2.311-2.578-3.472-6.392-3.483-11.44v-7.843c0-5.051 1.146-8.865 3.438-11.44C86.412 1.807 89.533.52 93.483.52c3.93 0 7.056 1.291 9.375 3.875 2.32 2.584 3.478 6.393 3.476 11.428l.016 7.843Zm-8.525-8.445c0-2.857-.37-4.913-1.112-6.166a3.574 3.574 0 0 0-1.347-1.396 3.504 3.504 0 0 0-1.867-.475 3.435 3.435 0 0 0-1.866.468 3.505 3.505 0 0 0-1.335 1.403c-.715 1.253-1.073 3.309-1.076 6.166v8.984c0 2.913.363 4.988 1.088 6.224.316.585.786 1.07 1.358 1.399a3.5 3.5 0 0 0 1.88.464 3.452 3.452 0 0 0 1.856-.47 3.52 3.52 0 0 0 1.333-1.393c.725-1.242 1.088-3.316 1.088-6.224v-8.984ZM125.935.507c1.3-.014 2.598.11 3.872.37 1.278.296 2.531.695 3.746 1.194l-1.419 6.316c-1.182-.357-2.212-.627-3.099-.805a15.212 15.212 0 0 0-3.051-.27 6.012 6.012 0 0 0-2.68.518 6.093 6.093 0 0 0-2.189 1.652c-1.222 1.444-1.808 3.554-1.758 6.328l.077.13a7.39 7.39 0 0 1 2.96-2.005 11.546 11.546 0 0 1 4.2-.718c3.287 0 5.847 1.202 7.678 3.606 1.832 2.404 2.747 5.482 2.744 9.233 0 3.695-1.21 6.773-3.631 9.232-2.42 2.46-5.51 3.688-9.269 3.685-4.034 0-7.29-1.344-9.768-4.033-2.478-2.69-3.718-6.37-3.721-11.042v-7.523c0-4.93 1.43-8.803 4.289-11.619 2.86-2.816 6.533-4.232 11.019-4.25Zm-1.696 19.387a8.58 8.58 0 0 0-3.047.485 4.775 4.775 0 0 0-2.011 1.353v2.2c0 2.696.435 4.771 1.304 6.223a4.088 4.088 0 0 0 1.517 1.597c.64.382 1.372.577 2.114.565 1.281 0 2.326-.614 3.136-1.842a7.765 7.765 0 0 0 1.227-4.374c0-1.892-.393-3.397-1.178-4.514a3.613 3.613 0 0 0-1.315-1.25 3.548 3.548 0 0 0-1.747-.443Z"/><path fill="#001C63" fill-rule="evenodd" d="m115.881 65.88 8.97-3.878 4.918 8.367 9.539 2.137-.941 9.662 6.461 7.332-6.438 7.266.942 9.732-9.507 2.094-4.974 8.41-8.904-3.883-8.97 3.883-4.918-8.372-9.539-2.132.942-9.666L87 89.5l6.438-7.262-.918-9.732 9.483-2.094 4.974-8.41 8.904 3.878Zm-11.261 26.5c-2.857-3.073 1.529-7.652 4.706-4.753 1.12 1.02 2.748 2.513 3.877 3.524l8.707-10.71c3.03-3.13 7.817 1.468 4.823 4.62l-10.932 13.046a3.353 3.353 0 0 1-4.663.207c-1.855-1.765-4.575-4.31-6.518-5.934Z" clip-rule="evenodd"/><defs><radialGradient id="a" cx="0" cy="0" r="1" gradientTransform="matrix(107.502 0 0 42.5488 111.085 204.516)" gradientUnits="userSpaceOnUse"><stop stop-color="#1628B1"/><stop offset="1" stop-color="#fff"/></radialGradient><radialGradient id="b" cx="0" cy="0" r="1" gradientTransform="matrix(53.75844 -21.51545 14.84431 37.08996 115.532 172.235)" gradientUnits="userSpaceOnUse"><stop stop-color="#80E3C8"/><stop offset=".43" stop-color="#82E3C9"/><stop offset=".58" stop-color="#89E5CC"/><stop offset=".69" stop-color="#94E8D1"/><stop offset=".78" stop-color="#A5EBD8"/><stop offset=".86" stop-color="#BBF0E2"/><stop offset=".93" stop-color="#D7F6ED"/><stop offset=".99" stop-color="#F6FDFB"/><stop offset="1" stop-color="#fff"/></radialGradient><radialGradient id="c" cx="0" cy="0" r="1" gradientTransform="matrix(53.75844 -21.51545 14.84431 37.08996 115.532 172.235)" gradientUnits="userSpaceOnUse"><stop stop-color="#80E3C8"/><stop offset=".43" stop-color="#82E3C9"/><stop offset=".58" stop-color="#89E5CC"/><stop offset=".69" stop-color="#94E8D1"/><stop offset=".78" stop-color="#A5EBD8"/><stop offset=".86" stop-color="#BBF0E2"/><stop offset=".93" stop-color="#D7F6ED"/><stop offset=".99" stop-color="#F6FDFB"/><stop offset="1" stop-color="#fff"/></radialGradient><radialGradient id="d" cx="0" cy="0" r="1" gradientTransform="matrix(53.75844 -21.51545 14.84431 37.08996 115.532 172.235)" gradientUnits="userSpaceOnUse"><stop stop-color="#1628B1"/><stop offset=".38" stop-color="#182AB2"/><stop offset=".52" stop-color="#1F30B4"/><stop offset=".61" stop-color="#2A3BB8"/><stop offset=".69" stop-color="#3B4BBE"/><stop offset=".76" stop-color="#515FC5"/><stop offset=".82" stop-color="#6D78CE"/><stop offset=".87" stop-color="#8D96D9"/><stop offset=".92" stop-color="#B3B9E5"/><stop offset=".97" stop-color="#DCDFF3"/><stop offset="1" stop-color="#fff"/></radialGradient><radialGradient id="e" cx="0" cy="0" r="1" gradientTransform="matrix(67.6449 0 0 25.4005 108.456 149.012)" gradientUnits="userSpaceOnUse"><stop stop-color="#1628B1"/><stop offset="1" stop-color="#fff"/></radialGradient><radialGradient id="f" cx="0" cy="0" r="1" gradientTransform="matrix(35.0368 0 0 13.1562 108.456 121.87)" gradientUnits="userSpaceOnUse"><stop stop-color="#1628B1"/><stop offset="1" stop-color="#fff"/></radialGradient></defs></svg>