<svg xmlns="http://www.w3.org/2000/svg" width="222" height="270" fill="none"><path fill="url(#a)" d="M180.142 189.932c47.405 15.502 54.691 43.595 16.33 62.732-38.361 19.138-107.887 22.101-155.272 6.598-47.384-15.503-54.687-43.599-16.318-62.745 38.37-19.146 107.875-22.092 155.26-6.585Z" style="mix-blend-mode:multiply"/><path fill="#029894" d="M110.607 226.348c-22.786 0-44.285-3.095-62.15-8.946-25.129-8.225-39.554-20.922-40.617-35.761-.524-7.307 2.097-21.308 25.514-32.993 19.172-9.569 47.38-15.054 77.388-15.054 22.787 0 44.286 3.091 62.17 8.942 25.13 8.224 39.555 20.926 40.618 35.765.524 7.303-2.097 21.304-25.514 32.989-19.192 9.568-47.401 15.058-77.409 15.058Z" opacity=".2" style="mix-blend-mode:multiply"/><path fill="#029894" d="M170.484 150.12c40.794 13.349 47.086 37.533 14.049 54.019-33.038 16.486-92.89 19.029-133.703 5.68-40.815-13.349-47.087-37.536-14.05-54.022 33.038-16.487 92.906-19.026 133.704-5.677Z" style="mix-blend-mode:multiply"/><g style="mix-blend-mode:multiply"><path fill="url(#b)" d="M158.308 156.196c32.493 10.631 37.502 29.876 11.191 43.026-26.312 13.15-73.983 15.154-106.476 4.519-32.494-10.635-37.503-29.877-11.192-43.022 26.312-13.146 73.983-15.155 106.477-4.523Z"/><path fill="url(#c)" d="M158.308 156.196c32.493 10.631 37.502 29.876 11.191 43.026-26.312 13.15-73.983 15.154-106.476 4.519-32.494-10.635-37.503-29.877-11.192-43.022 26.312-13.146 73.983-15.155 106.477-4.523Z"/><path fill="url(#d)" d="M158.308 156.196c32.493 10.631 37.502 29.876 11.191 43.026-26.312 13.15-73.983 15.154-106.476 4.519-32.494-10.635-37.503-29.877-11.192-43.022 26.312-13.146 73.983-15.155 106.477-4.523Z"/></g><path fill="#029894" d="M110.607 242.131c-22.786 0-44.285-3.091-62.15-8.946-25.129-8.22-39.554-20.922-40.617-35.761-.524-7.307 2.097-21.307 25.514-32.993 19.172-9.568 47.38-15.054 77.388-15.054 22.787 0 44.286 3.091 62.17 8.946 25.13 8.221 39.555 20.922 40.618 35.761.524 7.303-2.097 21.308-25.514 32.993-19.192 9.565-47.401 15.054-77.409 15.054Z" opacity=".2" style="mix-blend-mode:multiply"/><path fill="#E6EFEC" d="M178.445 152.581h-13.424a70.542 70.542 0 0 0-11.702-4.9c-29.092-9.519-71.77-7.706-95.326 4.045-.572.287-1.112.577-1.635.872H43.024v14.739c-1.227 8.515 7.36 17.133 24.987 22.909 29.091 9.519 71.77 7.706 95.326-4.045 10.173-5.079 15.104-11.179 15.096-17.237l.012-16.383Z"/><path fill="#F8FFFD" d="M153.319 131.299c29.087 9.519 33.573 26.765 10.017 38.516-23.555 11.751-66.238 13.569-95.326 4.05-29.088-9.519-33.573-26.765-10.017-38.52 23.555-11.756 66.234-13.565 95.326-4.046Z"/><path fill="url(#e)" d="M110.592 180.08c37.474 0 67.853-12.312 67.853-27.499s-30.379-27.499-67.853-27.499c-37.475 0-67.854 12.312-67.854 27.499s30.38 27.499 67.854 27.499Z" style="mix-blend-mode:multiply"/><path fill="#E6EFEC" d="M178.445 125.476h-13.423a70.627 70.627 0 0 0-11.703-4.917c-29.091-9.519-71.77-7.71-95.326 4.046-.572.286-1.112.576-1.635.871H43.024v14.735c-1.226 8.515 7.36 17.133 24.987 22.91 29.092 9.519 71.77 7.705 95.326-4.05 10.173-5.075 15.104-11.175 15.096-17.233l.012-16.362Z"/><path fill="#F8FFFD" d="M153.319 104.19c29.087 9.519 33.573 26.765 10.017 38.52-23.555 11.756-66.238 13.569-95.326 4.05-29.088-9.519-33.573-26.764-10.017-38.52 23.555-11.755 66.234-13.565 95.326-4.05Z"/><path fill="url(#f)" d="M110.591 139.721c19.409 0 35.143-6.378 35.143-14.245 0-7.868-15.734-14.246-35.143-14.246s-35.143 6.378-35.143 14.246c0 7.867 15.734 14.245 35.143 14.245Z" opacity=".25" style="mix-blend-mode:multiply"/><path fill="#029894" d="M108.489 24.085c0 5.048-1.156 8.862-3.467 11.44-2.312 2.578-5.423 3.863-9.335 3.855-3.95 0-7.084-1.288-9.404-3.864-2.32-2.575-3.476-6.388-3.468-11.44v-7.85c0-5.052 1.148-8.865 3.443-11.44C88.553 2.21 91.673.921 95.618.921c3.93 0 7.055 1.293 9.375 3.88 2.32 2.586 3.48 6.394 3.48 11.423l.016 7.86Zm-8.513-8.449c0-2.857-.37-4.911-1.112-6.162a3.57 3.57 0 0 0-1.346-1.399A3.5 3.5 0 0 0 95.65 7.6c-.653-.024-1.3.14-1.866.471a3.516 3.516 0 0 0-1.335 1.404c-.715 1.25-1.073 3.304-1.076 6.162v8.988c0 2.907.364 4.982 1.092 6.224a3.553 3.553 0 0 0 1.357 1.401c.572.33 1.224.49 1.881.462a3.44 3.44 0 0 0 1.855-.47 3.509 3.509 0 0 0 1.33-1.393c.728-1.242 1.09-3.317 1.088-6.224v-8.988ZM131.051 38.848h-8.521V10.166h-8.222V4.054l16.764-2.619-.021 37.413Z"/><path fill="#029894" fill-rule="evenodd" d="m130.993 104.47-3.946 3.946a2.685 2.685 0 0 1-3.778 0l-3.179-3.18a21.493 21.493 0 0 1-5.257 1.976v4.12a2.681 2.681 0 0 1-2.671 2.67h-5.58a2.68 2.68 0 0 1-2.67-2.67v-4.497a20.935 20.935 0 0 1-5.113-2.329l-2.916 2.916a2.685 2.685 0 0 1-3.778 0l-1.785-1.778.048-.054 7.826-8.957a15.587 15.587 0 0 0 11.879 5.484c8.622 0 15.615-6.993 15.615-15.61 0-8.62-6.993-15.614-15.615-15.614a15.57 15.57 0 0 0-11.053 4.586l-2.88-.108-7.286-6.49c.09-.126.185-.24.293-.353l3.946-3.946a2.685 2.685 0 0 1 3.778 0l3.179 3.18a21.051 21.051 0 0 1 5.257-1.976v-4.12a2.697 2.697 0 0 1 2.682-2.664h5.574a2.681 2.681 0 0 1 2.671 2.67v4.497a21.17 21.17 0 0 1 5.113 2.329l2.916-2.916a2.685 2.685 0 0 1 3.778 0l3.946 3.946a2.687 2.687 0 0 1 0 3.778l-3.18 3.18c.88 1.64 1.551 3.4 1.976 5.256h4.119a2.685 2.685 0 0 1 2.671 2.67v5.58a2.681 2.681 0 0 1-2.671 2.671h-4.49a20.937 20.937 0 0 1-2.329 5.113l2.916 2.916a2.68 2.68 0 0 1-.006 3.778Zm-20.872-23.04a5.07 5.07 0 0 1 5.071 5.072 5.07 5.07 0 0 1-5.071 5.071 5.07 5.07 0 1 1 0-10.142Zm-10.113 4.76-13.777 15.777-.46-7.4C76.35 93.22 69.136 95.807 64 103.23c.06-14.61 9.556-22.25 20.848-23.423l-.473-7.55 15.633 13.933Z" clip-rule="evenodd"/><defs><radialGradient id="a" cx="0" cy="0" r="1" gradientTransform="matrix(107.502 0 0 42.5488 110.665 212.308)" gradientUnits="userSpaceOnUse"><stop stop-color="#80E3C8"/><stop offset="1" stop-color="#fff"/></radialGradient><radialGradient id="b" cx="0" cy="0" r="1" gradientTransform="rotate(-21.812 523.621 -202.53) scale(57.9042 39.9502)" gradientUnits="userSpaceOnUse"><stop stop-color="#80E3C8"/><stop offset=".43" stop-color="#82E3C9"/><stop offset=".58" stop-color="#89E5CC"/><stop offset=".69" stop-color="#94E8D1"/><stop offset=".78" stop-color="#A5EBD8"/><stop offset=".86" stop-color="#BBF0E2"/><stop offset=".93" stop-color="#D7F6ED"/><stop offset=".99" stop-color="#F6FDFB"/><stop offset="1" stop-color="#fff"/></radialGradient><radialGradient id="c" cx="0" cy="0" r="1" gradientTransform="rotate(-21.812 523.621 -202.53) scale(57.9042 39.9502)" gradientUnits="userSpaceOnUse"><stop stop-color="#80E3C8"/><stop offset=".43" stop-color="#82E3C9"/><stop offset=".58" stop-color="#89E5CC"/><stop offset=".69" stop-color="#94E8D1"/><stop offset=".78" stop-color="#A5EBD8"/><stop offset=".86" stop-color="#BBF0E2"/><stop offset=".93" stop-color="#D7F6ED"/><stop offset=".99" stop-color="#F6FDFB"/><stop offset="1" stop-color="#fff"/></radialGradient><radialGradient id="d" cx="0" cy="0" r="1" gradientTransform="rotate(-21.812 523.621 -202.53) scale(57.9042 39.9502)" gradientUnits="userSpaceOnUse"><stop stop-color="#80E3C8"/><stop offset=".43" stop-color="#82E3C9"/><stop offset=".58" stop-color="#89E5CC"/><stop offset=".69" stop-color="#94E8D1"/><stop offset=".78" stop-color="#A5EBD8"/><stop offset=".86" stop-color="#BBF0E2"/><stop offset=".93" stop-color="#D7F6ED"/><stop offset=".99" stop-color="#F6FDFB"/><stop offset="1" stop-color="#fff"/></radialGradient><radialGradient id="e" cx="0" cy="0" r="1" gradientTransform="matrix(67.6449 0 0 25.4004 110.592 155.83)" gradientUnits="userSpaceOnUse"><stop stop-color="#80E3C8"/><stop offset="1" stop-color="#fff"/></radialGradient><radialGradient id="f" cx="0" cy="0" r="1" gradientTransform="matrix(35.0368 0 0 13.1562 110.591 128.688)" gradientUnits="userSpaceOnUse"><stop stop-color="#80E3C8"/><stop offset="1" stop-color="#fff"/></radialGradient></defs></svg>