<svg xmlns="http://www.w3.org/2000/svg" width="221" height="265" fill="none"><path fill="url(#a)" d="M180.024 184.807c47.385 15.507 54.712 43.595 16.318 62.729-38.393 19.133-107.886 22.096-155.267 6.594-47.381-15.503-54.692-43.595-16.323-62.745 38.37-19.151 107.891-22.08 155.272-6.578Z" style="mix-blend-mode:multiply"/><path fill="#8EDBDC" d="M110.479 220.514c-22.787 0-44.286-3.095-62.15-8.946-25.13-8.22-39.555-20.922-40.618-35.761-.523-7.303 2.097-21.308 25.514-32.993 19.172-9.569 47.38-15.054 77.388-15.054 22.787 0 44.286 3.091 62.15 8.942 25.13 8.224 39.555 20.926 40.618 35.765.523 7.307-2.097 21.308-25.514 32.993-19.172 9.569-47.381 15.054-77.388 15.054Z" opacity=".2" style="mix-blend-mode:multiply"/><path fill="#029894" d="M170.354 144.288c40.794 13.349 47.087 37.536 14.049 54.018-33.037 16.482-92.889 19.03-133.703 5.681-40.814-13.349-47.09-37.537-14.053-54.023 33.037-16.486 92.909-19.029 133.707-5.676Z" style="mix-blend-mode:multiply"/><g style="mix-blend-mode:multiply"><path fill="url(#b)" d="M158.178 150.362c32.493 10.631 37.502 29.877 11.191 43.027-26.312 13.15-73.983 15.154-106.476 4.523-32.494-10.631-37.503-29.898-11.191-43.027 26.311-13.129 73.982-15.154 106.476-4.523Z"/><path fill="url(#c)" d="M158.178 150.362c32.493 10.631 37.502 29.877 11.191 43.027-26.312 13.15-73.983 15.154-106.476 4.523-32.494-10.631-37.503-29.898-11.191-43.027 26.311-13.129 73.982-15.154 106.476-4.523Z"/><path fill="url(#d)" d="M158.178 150.362c32.493 10.631 37.502 29.877 11.191 43.027-26.312 13.15-73.983 15.154-106.476 4.523-32.494-10.631-37.503-29.898-11.191-43.027 26.311-13.129 73.982-15.154 106.476-4.523Z"/></g><path fill="#8EDBDC" d="M110.479 236.299c-22.787 0-44.286-3.091-62.15-8.942-25.13-8.224-39.555-20.926-40.618-35.761-.523-7.307 2.097-21.307 25.514-32.992 19.172-9.569 47.38-15.059 77.388-15.059 22.787 0 44.286 3.095 62.15 8.946 25.13 8.221 39.555 20.922 40.618 35.761.523 7.307-2.097 21.308-25.514 32.993-19.172 9.569-47.381 15.054-77.388 15.054Z" opacity=".2" style="mix-blend-mode:multiply"/><path fill="#E6EDEB" d="M178.311 146.748h-13.423a70.883 70.883 0 0 0-11.703-4.917c-29.091-9.519-71.77-7.706-95.326 4.05-.572.282-1.112.576-1.635.867h-13.33v14.743c-1.226 8.511 7.36 17.134 24.987 22.91 29.092 9.515 71.771 7.705 95.326-4.05 10.173-5.075 15.104-11.175 15.096-17.237l.008-16.366Z"/><path fill="#FAFFFE" d="M153.19 125.465c29.087 9.519 33.573 26.765 10.017 38.52-23.555 11.756-66.238 13.565-95.326 4.046-29.087-9.519-33.573-26.764-10.017-38.52 23.555-11.755 66.234-13.565 95.326-4.046Z"/><path fill="url(#e)" d="M110.536 174.219c37.433 0 67.78-12.299 67.78-27.47s-30.347-27.47-67.78-27.47c-37.434 0-67.78 12.299-67.78 27.47s30.346 27.47 67.78 27.47Z" style="mix-blend-mode:multiply"/><path fill="#E6EDEB" d="M178.311 119.644h-13.423a70.676 70.676 0 0 0-11.703-4.917c-29.091-9.519-71.77-7.706-95.326 4.05a37.99 37.99 0 0 0-1.635.867h-13.33v14.744c-1.226 8.51 7.36 17.129 24.987 22.905 29.092 9.519 71.771 7.71 95.326-4.046 10.173-5.079 15.104-11.179 15.096-17.237l.008-16.366Z"/><path fill="#FAFFFE" d="M153.19 98.362c29.087 9.519 33.573 26.764 10.017 38.52-23.555 11.755-66.238 13.564-95.326 4.045-29.087-9.519-33.573-26.764-10.017-38.52 23.555-11.755 66.234-13.564 95.326-4.045Z"/><path fill="url(#f)" d="M110.536 133.889c19.409 0 35.143-6.378 35.143-14.245 0-7.868-15.734-14.246-35.143-14.246-19.41 0-35.143 6.378-35.143 14.246 0 7.867 15.734 14.245 35.143 14.245Z" opacity=".25" style="mix-blend-mode:multiply"/><path fill="#029894" d="M108.43 23.91c0 5.052-1.156 8.866-3.468 11.441-2.311 2.575-5.424 3.863-9.338 3.863-3.947 0-7.082-1.288-9.405-3.863-2.322-2.575-3.478-6.389-3.467-11.44v-7.86c0-5.05 1.148-8.864 3.443-11.44C88.49 2.036 91.61.748 95.554.748c3.928 0 7.053 1.293 9.376 3.88 2.322 2.586 3.482 6.394 3.479 11.424l.021 7.859Zm-8.53-8.448c0-2.86-.37-4.914-1.112-6.162a3.573 3.573 0 0 0-1.346-1.398 3.504 3.504 0 0 0-1.867-.477c-.654-.024-1.3.14-1.866.472A3.517 3.517 0 0 0 92.373 9.3c-.714 1.25-1.073 3.305-1.075 6.162v8.988c0 2.908.362 4.982 1.087 6.224a3.56 3.56 0 0 0 1.358 1.4c.572.33 1.223.49 1.88.464.65.022 1.294-.14 1.857-.47a3.512 3.512 0 0 0 1.333-1.393c.728-1.243 1.09-3.317 1.087-6.225v-8.988ZM138.649 38.675H112.89v-5.648l11.857-12.635a25.264 25.264 0 0 0 3.312-4.673 7.987 7.987 0 0 0 1.063-3.568 5.182 5.182 0 0 0-1.075-3.444c-.714-.855-1.789-1.283-3.226-1.283a3.417 3.417 0 0 0-1.729.422c-.53.291-.975.718-1.293 1.238a7.474 7.474 0 0 0-1.099 4.224h-8.354l-.049-.153c-.076-1.62.182-3.24.757-4.754a11.699 11.699 0 0 1 2.584-4.039c2.311-2.407 5.372-3.61 9.183-3.61 4.048 0 7.207 1.01 9.478 3.03 2.27 2.019 3.404 4.785 3.402 8.298a11.083 11.083 0 0 1-1.808 6.266c-1.204 1.812-3.427 4.508-6.668 8.087l-4.985 5.42.074.153h14.335v6.669Z"/><path fill="#029894" fill-rule="evenodd" d="M74.408 89.194h14.196v25.634H74.408V89.194Zm48.803-13.014c5.151 0 9.33 4.235 9.33 9.469 0 5.228-4.173 9.47-9.33 9.47-5.152 0-9.331-4.237-9.331-9.47 0-5.228 4.174-9.47 9.331-9.47ZM106.836 64.29c4.443 0 8.05 3.655 8.05 8.17 0 4.508-3.601 8.169-8.05 8.169-4.442 0-8.05-3.655-8.05-8.17 0-4.508 3.602-8.169 8.05-8.169Zm.818 9.904c0-.266-.063-.47-.194-.62-.132-.151-.355-.29-.675-.424-.32-.133-.617-.267-.886-.4a3.182 3.182 0 0 1-.703-.476 1.82 1.82 0 0 1-.452-.621c-.109-.238-.154-.522-.154-.859 0-.563.188-1.027.56-1.386.372-.36.869-.58 1.492-.639v-.754h.783v.772c.601.087 1.075.336 1.418.748.343.412.515.934.515 1.561h-1.675c0-.348-.069-.615-.2-.8a.65.65 0 0 0-.561-.28c-.217 0-.389.07-.503.204-.12.14-.177.33-.177.569 0 .243.068.44.206.585.143.145.36.285.663.418.303.134.595.267.863.406a3.4 3.4 0 0 1 .698.482c.2.18.354.395.463.632.108.238.171.523.171.865 0 .569-.177 1.033-.537 1.392-.36.36-.841.57-1.452.627v.708h-.778v-.708c-.714-.081-1.263-.325-1.646-.743-.383-.423-.578-.974-.578-1.665h1.664c0 .383.08.668.246.87.166.198.4.302.703.302.223 0 .394-.07.526-.203.126-.14.194-.325.2-.563Zm16.5 13.462c0-.308-.074-.546-.223-.72-.149-.174-.406-.337-.783-.493-.372-.151-.715-.314-1.029-.464a3.56 3.56 0 0 1-.818-.552 2.214 2.214 0 0 1-.526-.72c-.126-.272-.177-.602-.177-.991 0-.656.217-1.19.652-1.607.428-.418 1.006-.668 1.726-.737v-.877h.909v.9c.692.104 1.241.394 1.641.87.4.476.601 1.08.601 1.81h-1.933c0-.406-.08-.707-.229-.928-.148-.215-.371-.325-.651-.325-.252 0-.446.082-.584.238-.137.157-.205.383-.205.662 0 .284.08.51.24.678.16.169.411.331.766.482.354.15.686.313 1 .47.315.162.584.354.812.557.229.209.406.453.538.731.131.279.194.61.194.998 0 .662-.206 1.201-.623 1.613-.412.412-.972.662-1.687.725v.818h-.909v-.823c-.829-.093-1.463-.378-1.909-.865-.441-.487-.664-1.131-.664-1.932h1.927c0 .44.097.772.286 1.004.189.226.463.348.818.348a.833.833 0 0 0 .611-.232c.149-.151.223-.366.229-.639Zm-.943-9.615c4.133 0 7.489 3.4 7.489 7.601 0 4.195-3.35 7.601-7.489 7.601-4.134 0-7.49-3.4-7.49-7.6 0-4.202 3.356-7.602 7.49-7.602Zm-31.748 34.634V91.254h9.496c4.025.73 8.05 2.947 12.075 5.518h7.375c3.339.203 5.089 3.638 1.841 5.895-2.584 1.926-5.997 1.816-9.496 1.497-2.413-.122-2.516 3.168 0 3.179.875.07 1.824-.139 2.653-.139 4.368-.006 7.958-.853 10.159-4.352l1.104-2.616 10.971-5.518c5.489-1.834 9.388 3.992 5.346 8.047-7.947 5.866-16.094 10.694-24.43 14.593-6.055 3.736-12.109 3.609-18.158 0l-8.936-4.682Z" clip-rule="evenodd"/><defs><radialGradient id="a" cx="0" cy="0" r="1" gradientTransform="matrix(107.502 0 0 42.5488 110.547 206.409)" gradientUnits="userSpaceOnUse"><stop stop-color="#8EDBDC"/><stop offset="1" stop-color="#fff"/></radialGradient><radialGradient id="b" cx="0" cy="0" r="1" gradientTransform="rotate(-21.812 506.83 -208.075) scale(57.9042 39.9502)" gradientUnits="userSpaceOnUse"><stop stop-color="#8EDBDC"/><stop offset=".44" stop-color="#90DCDD"/><stop offset=".6" stop-color="#97DEDF"/><stop offset=".71" stop-color="#A2E2E2"/><stop offset=".8" stop-color="#B3E7E8"/><stop offset=".88" stop-color="#C9EEEE"/><stop offset=".95" stop-color="#E4F6F7"/><stop offset="1" stop-color="#fff"/></radialGradient><radialGradient id="c" cx="0" cy="0" r="1" gradientTransform="rotate(-21.812 506.83 -208.075) scale(57.9042 39.9502)" gradientUnits="userSpaceOnUse"><stop stop-color="#80E3C8"/><stop offset=".43" stop-color="#82E3C9"/><stop offset=".58" stop-color="#89E5CC"/><stop offset=".69" stop-color="#94E8D1"/><stop offset=".78" stop-color="#A5EBD8"/><stop offset=".86" stop-color="#BBF0E2"/><stop offset=".93" stop-color="#D7F6ED"/><stop offset=".99" stop-color="#F6FDFB"/><stop offset="1" stop-color="#fff"/></radialGradient><radialGradient id="d" cx="0" cy="0" r="1" gradientTransform="rotate(-21.812 506.83 -208.075) scale(57.9042 39.9502)" gradientUnits="userSpaceOnUse"><stop stop-color="#80E3C8"/><stop offset=".43" stop-color="#82E3C9"/><stop offset=".58" stop-color="#89E5CC"/><stop offset=".69" stop-color="#94E8D1"/><stop offset=".78" stop-color="#A5EBD8"/><stop offset=".86" stop-color="#BBF0E2"/><stop offset=".93" stop-color="#D7F6ED"/><stop offset=".99" stop-color="#F6FDFB"/><stop offset="1" stop-color="#fff"/></radialGradient><radialGradient id="e" cx="0" cy="0" r="1" gradientTransform="matrix(67.5713 0 0 25.3728 110.536 150.203)" gradientUnits="userSpaceOnUse"><stop stop-color="#8EDBDC"/><stop offset="1" stop-color="#fff"/></radialGradient><radialGradient id="f" cx="0" cy="0" r="1" gradientTransform="matrix(35.0368 0 0 13.1562 110.536 123.061)" gradientUnits="userSpaceOnUse"><stop stop-color="#8EDBDC"/><stop offset="1" stop-color="#fff"/></radialGradient></defs></svg>