<svg xmlns="http://www.w3.org/2000/svg" width="221" height="270" fill="none"><path fill="url(#a)" d="M179.956 189.93c47.385 15.503 54.691 43.595 16.318 62.741-38.373 19.146-107.887 22.101-155.268 6.598-47.38-15.503-54.691-43.599-16.322-62.745 38.37-19.146 107.891-22.101 155.272-6.594Z" style="mix-blend-mode:multiply"/><path fill="#029894" d="M110.427 226.347c-22.79 0-44.286-3.096-62.17-8.947-25.134-8.224-39.559-20.922-40.622-35.761-.52-7.307 2.098-21.307 25.514-32.992 19.172-9.569 47.38-15.059 77.389-15.059 22.786 0 44.285 3.095 62.149 8.946 25.13 8.225 39.555 20.926 40.618 35.765.524 7.303-2.093 21.308-25.51 32.993-19.156 9.565-47.36 15.055-77.368 15.055Z" opacity=".2" style="mix-blend-mode:multiply"/><path fill="#029894" d="M170.299 150.12c40.798 13.349 47.086 37.533 14.049 54.019-33.037 16.486-92.889 19.029-133.703 5.68C9.83 196.47 3.558 172.283 36.592 155.797c33.033-16.487 92.893-19.026 133.707-5.677Z" style="mix-blend-mode:multiply"/><g style="mix-blend-mode:multiply"><path fill="url(#b)" d="M158.106 156.196c32.493 10.631 37.502 29.876 11.191 43.026-26.312 13.15-73.983 15.154-106.472 4.519-32.49-10.635-37.507-29.877-11.191-43.022 26.315-13.146 73.999-15.155 106.472-4.523Z"/><path fill="url(#c)" d="M158.106 156.196c32.493 10.631 37.502 29.876 11.191 43.026-26.312 13.15-73.983 15.154-106.472 4.519-32.49-10.635-37.507-29.877-11.191-43.022 26.315-13.146 73.999-15.155 106.472-4.523Z"/><path fill="url(#d)" d="M158.106 156.196c32.493 10.631 37.502 29.876 11.191 43.026-26.312 13.15-73.983 15.154-106.472 4.519-32.49-10.635-37.507-29.877-11.191-43.022 26.315-13.146 73.999-15.155 106.472-4.523Z"/></g><path fill="#029894" d="M110.427 242.131c-22.79 0-44.286-3.091-62.17-8.946-25.134-8.22-39.559-20.922-40.622-35.761-.52-7.303 2.098-21.307 25.514-32.993 19.172-9.568 47.381-15.054 77.389-15.054 22.786 0 44.285 3.091 62.149 8.946 25.13 8.221 39.555 20.922 40.618 35.761.524 7.307-2.093 21.308-25.51 32.993-19.156 9.569-47.36 15.054-77.368 15.054Z" opacity=".2" style="mix-blend-mode:multiply"/><path fill="#E6EBED" d="M178.26 152.58h-13.42a70.828 70.828 0 0 0-11.706-4.917c-29.088-9.519-71.766-7.706-95.326 4.046-.572.286-1.112.577-1.635.871H42.855v14.739c-1.226 8.515 7.36 17.134 24.991 22.91 29.088 9.519 71.766 7.706 95.322-4.046 10.173-5.079 15.104-11.179 15.096-17.237l-.004-16.366Z"/><path fill="#FAFDFF" d="M153.134 131.297c29.092 9.519 33.577 26.765 10.018 38.516-23.56 11.752-66.239 13.569-95.322 4.05-29.084-9.519-33.578-26.764-10.022-38.52 23.556-11.756 66.238-13.565 95.326-4.046Z"/><path fill="url(#e)" d="M110.406 180.08c37.475 0 67.854-12.312 67.854-27.499s-30.379-27.499-67.854-27.499c-37.474 0-67.853 12.312-67.853 27.499s30.379 27.499 67.853 27.499Z" style="mix-blend-mode:multiply"/><path fill="#E6EBED" d="M178.26 125.476h-13.42a70.828 70.828 0 0 0-11.706-4.917c-29.088-9.519-71.766-7.71-95.326 4.046-.572.286-1.112.576-1.635.871H42.855v14.735c-1.226 8.515 7.36 17.133 24.991 22.91 29.088 9.519 71.766 7.705 95.322-4.05 10.173-5.075 15.104-11.175 15.096-17.233l-.004-16.362Z"/><path fill="#FAFDFF" d="M153.134 104.188c29.092 9.519 33.577 26.765 10.018 38.52-23.56 11.756-66.239 13.569-95.322 4.05-29.084-9.519-33.578-26.764-10.022-38.52 23.556-11.755 66.238-13.565 95.326-4.05Z"/><path fill="url(#f)" d="M110.405 139.721c19.409 0 35.143-6.378 35.143-14.245 0-7.868-15.734-14.246-35.143-14.246-19.41 0-35.143 6.378-35.143 14.246 0 7.867 15.734 14.245 35.143 14.245Z" opacity=".25" style="mix-blend-mode:multiply"/><path fill="#029894" d="M108.304 24.085c0 5.048-1.155 8.862-3.467 11.44-2.311 2.578-5.423 3.866-9.335 3.863-3.95 0-7.084-1.288-9.404-3.863-2.32-2.576-3.475-6.389-3.467-11.44v-7.86c0-5.051 1.147-8.863 3.443-11.436C88.369 2.217 91.489.927 95.433.922c3.933 0 7.059 1.293 9.375 3.88 2.317 2.586 3.477 6.394 3.48 11.423l.016 7.86Zm-8.525-8.449c0-2.857-.372-4.911-1.116-6.162a3.57 3.57 0 0 0-1.346-1.399A3.5 3.5 0 0 0 95.45 7.6a3.436 3.436 0 0 0-1.864.47 3.505 3.505 0 0 0-1.333 1.405c-.72 1.25-1.078 3.304-1.075 6.162v8.988c0 2.907.362 4.982 1.087 6.224.33.567.8 1.037 1.364 1.363a3.69 3.69 0 0 0 3.7 0 3.76 3.76 0 0 0 1.364-1.363c.722-1.245 1.085-3.32 1.087-6.224v-8.988ZM120.525 16.557h4.023c1.535 0 2.715-.415 3.541-1.245.826-.83 1.235-1.993 1.227-3.49a4.217 4.217 0 0 0-1.113-2.979c-.744-.805-1.819-1.207-3.238-1.207a4.695 4.695 0 0 0-2.936.975 3.03 3.03 0 0 0-.939 1.1c-.22.44-.331.926-.324 1.418h-8.3l-.049-.153c-.101-2.98 1.053-5.393 3.463-7.241 2.409-1.848 5.337-2.773 8.783-2.776 3.993 0 7.189.93 9.588 2.788 2.398 1.86 3.596 4.487 3.594 7.885a7.804 7.804 0 0 1-1.558 4.684 10.44 10.44 0 0 1-4.162 3.35 9.942 9.942 0 0 1 4.632 3.352 8.765 8.765 0 0 1 1.668 5.394c0 3.428-1.29 6.12-3.872 8.08-2.581 1.958-5.878 2.937-9.89 2.937a15.272 15.272 0 0 1-9.073-2.76c-2.587-1.842-3.84-4.508-3.758-8l.053-.153h8.349a3.879 3.879 0 0 0 1.378 3.017 4.864 4.864 0 0 0 3.353 1.22 4.989 4.989 0 0 0 3.594-1.282 4.266 4.266 0 0 0 1.014-1.472c.231-.558.343-1.16.327-1.765 0-1.812-.469-3.134-1.406-3.967-.938-.833-2.257-1.248-3.958-1.245h-4.024l.013-6.465Z"/><g clip-path="url(#g)"><path fill="#029894" d="m142.563 111.043-.728-.844-3.469 3.468a1 1 0 0 1-1.408.011l-3.534-3.435-3.457 3.326a1 1 0 0 1-1.403.038l-3.671-3.392-3.331 3.43c-.017.022-.039.044-.061.066a1.004 1.004 0 0 1-1.424 0l-3.496-3.496-3.605 3.436a1.01 1.01 0 0 1-1.403-.017l-3.43-3.462-.712.821a1.009 1.009 0 0 1-1.819-.602v-13.44c.23.038.466.054.696.06.443.005.893-.05 1.32-.176v10.959a1 1 0 0 1 1.178.186l3.496 3.528 3.6-3.424a1.004 1.004 0 0 1 1.402.016l3.469 3.463 3.353-3.457a1.01 1.01 0 0 1 1.403-.038l3.698 3.413 3.507-3.364a1.003 1.003 0 0 1 1.402.011l3.513 3.413 3.528-3.528a1.008 1.008 0 0 1 1.14-.198V80.48H123.72a4.726 4.726 0 0 0-.043-2.016h19.637c.553 0 1.008.449 1.008 1.008v30.913c0 .28-.12.559-.35.762a.995.995 0 0 1-1.409-.104Zm-17.122-18.657a.786.786 0 0 1-.789-.789c0-.438.351-.789.789-.789h11.523c.438 0 .789.35.789.79a.786.786 0 0 1-.789.788h-11.523Zm-3.671 1.08-2.926.46c-.148-.367-.279-.625-.394-.767-.121-.143-.307-.285-.581-.428V95c1.583.422 2.646.87 3.183 1.342.707.636 1.058 1.436 1.058 2.41 0 .57-.126 1.091-.378 1.568a3.915 3.915 0 0 1-.97 1.194 4.046 4.046 0 0 1-1.26.696c-.444.143-.987.23-1.633.252v1.069h-1.145v-1.069c-.768-.065-1.392-.186-1.874-.367a3.8 3.8 0 0 1-1.239-.745 3.653 3.653 0 0 1-.8-1.025 4.816 4.816 0 0 1-.421-1.331l3.167-.367c.093.515.224.888.383 1.112.159.23.422.433.789.608v-2.772c-1.057-.296-1.808-.548-2.252-.762-.438-.213-.822-.559-1.151-1.03-.323-.477-.487-1.046-.487-1.731 0-.932.329-1.71.975-2.334.652-.625 1.622-.97 2.91-1.041v-.773h1.145v.773c1.172.07 2.065.35 2.69.832.619.466 1.025 1.124 1.211 1.957Zm-5.046-.778c-.335.109-.57.246-.702.41a.871.871 0 0 0-.197.57c0 .23.066.428.203.597.131.17.367.313.696.428v-2.005Zm1.145 7.731c.444-.099.767-.269.97-.493.208-.23.312-.483.312-.768 0-.246-.088-.47-.263-.679-.175-.208-.515-.4-1.025-.575v2.515h.006Zm-6.515-32.043c1.09 1.09 1.112 2.85.049 3.912l-.575.576 4.613 4.537-11.676 11.254-4.493-4.657-17.528 17.527c-1.063 1.063-2.827 1.041-3.912-.049-1.09-1.09-1.112-2.844-.049-3.912L95.377 79.97l-3.518-3.66L102.9 65.056l3.95 3.874.603-.603c1.052-1.058 2.811-1.041 3.901.05Zm-8.942-8.712c.866.866.882 2.263.038 3.113L89.58 75.653c-.85.843-2.247.827-3.112-.039-.866-.865-.883-2.268-.039-3.112L99.3 59.626c.845-.85 2.247-.827 3.113.038Zm18.3 18.3c.866.867.888 2.27.039 3.113L107.875 93.96c-.85.843-2.241.827-3.112-.039-.866-.865-.888-2.268-.039-3.112L117.6 77.932c.85-.85 2.247-.838 3.112.033Zm12.005 22.729c.411 0 .74.328.74.739a.741.741 0 0 1-.74.745h-7.172a.741.741 0 0 1-.74-.745c0-.411.329-.739.74-.739h7.172Zm4.208-4.948c.411 0 .745.334.745.745s-.334.74-.745.74h-11.38a.737.737 0 0 1-.74-.74c0-.41.329-.745.74-.745h11.38Z"/></g><defs><radialGradient id="a" cx="0" cy="0" r="1" gradientTransform="matrix(107.502 0 0 42.5488 110.479 212.307)" gradientUnits="userSpaceOnUse"><stop stop-color="#7FD4F9"/><stop offset="1" stop-color="#fff"/></radialGradient><radialGradient id="b" cx="0" cy="0" r="1" gradientTransform="rotate(-21.812 524.517 -207.18) scale(57.9042 39.9502)" gradientUnits="userSpaceOnUse"><stop stop-color="#7FD4F9"/><stop offset=".43" stop-color="#81D5F9"/><stop offset=".58" stop-color="#88D7F9"/><stop offset=".69" stop-color="#93DBFA"/><stop offset=".78" stop-color="#A4E1FB"/><stop offset=".86" stop-color="#BAE8FC"/><stop offset=".92" stop-color="#D6F1FD"/><stop offset=".98" stop-color="#F5FCFF"/><stop offset="1" stop-color="#fff"/></radialGradient><radialGradient id="c" cx="0" cy="0" r="1" gradientTransform="rotate(-21.812 524.517 -207.18) scale(57.9042 39.9502)" gradientUnits="userSpaceOnUse"><stop stop-color="#80E3C8"/><stop offset=".43" stop-color="#82E3C9"/><stop offset=".58" stop-color="#89E5CC"/><stop offset=".69" stop-color="#94E8D1"/><stop offset=".78" stop-color="#A5EBD8"/><stop offset=".86" stop-color="#BBF0E2"/><stop offset=".93" stop-color="#D7F6ED"/><stop offset=".99" stop-color="#F6FDFB"/><stop offset="1" stop-color="#fff"/></radialGradient><radialGradient id="d" cx="0" cy="0" r="1" gradientTransform="rotate(-21.812 524.517 -207.18) scale(57.9042 39.9502)" gradientUnits="userSpaceOnUse"><stop stop-color="#7FD4F9"/><stop offset=".43" stop-color="#81D5F9"/><stop offset=".58" stop-color="#88D7F9"/><stop offset=".69" stop-color="#93DBFA"/><stop offset=".78" stop-color="#A4E1FB"/><stop offset=".86" stop-color="#BAE8FC"/><stop offset=".92" stop-color="#D6F1FD"/><stop offset=".98" stop-color="#F5FCFF"/><stop offset="1" stop-color="#fff"/></radialGradient><radialGradient id="e" cx="0" cy="0" r="1" gradientTransform="matrix(67.6449 0 0 25.4004 110.406 155.83)" gradientUnits="userSpaceOnUse"><stop stop-color="#7FD4F9"/><stop offset="1" stop-color="#fff"/></radialGradient><radialGradient id="f" cx="0" cy="0" r="1" gradientTransform="matrix(35.0368 0 0 13.1562 110.405 128.688)" gradientUnits="userSpaceOnUse"><stop stop-color="#7FD4F9"/><stop offset="1" stop-color="#fff"/></radialGradient><clipPath id="g"><path fill="#fff" d="M77 59.002h67.328v55H77z"/></clipPath></defs></svg>