<svg xmlns="http://www.w3.org/2000/svg" width="222" height="270" fill="none"><path fill="url(#a)" d="M180.456 190.558c47.385 15.507 54.691 43.6 16.318 62.745-38.373 19.146-107.887 22.101-155.268 6.594-47.38-15.507-54.691-43.595-16.322-62.741 38.37-19.146 107.891-22.088 155.272-6.598Z" style="mix-blend-mode:multiply"/><path fill="#001C63" d="M110.925 226.264c-22.787 0-44.29-3.091-62.174-8.942-25.13-8.224-39.555-20.926-40.618-35.761-.52-7.307 2.098-21.308 25.514-32.997 19.172-9.565 47.38-15.054 77.389-15.054 22.79 0 44.285 3.095 62.17 8.946 25.133 8.22 39.559 20.922 40.618 35.761.523 7.307-2.094 21.308-25.51 32.993-19.177 9.568-47.385 15.054-77.389 15.054Z" opacity=".2" style="mix-blend-mode:multiply"/><path fill="#001C63" d="M170.799 150.037c40.798 13.349 47.087 37.537 14.049 54.023-33.037 16.486-92.889 19.025-133.682 5.676-40.794-13.349-47.087-37.536-14.054-54.018 33.034-16.482 92.889-19.03 133.687-5.681Z" style="mix-blend-mode:multiply"/><g style="mix-blend-mode:multiply"><path fill="url(#b)" d="M158.623 156.112c32.494 10.635 37.503 29.877 11.191 43.027-26.311 13.15-73.982 15.154-106.472 4.523-32.49-10.631-37.506-29.898-11.19-43.027 26.315-13.129 73.982-15.154 106.471-4.523Z"/><path fill="url(#c)" d="M158.623 156.112c32.494 10.635 37.503 29.877 11.191 43.027-26.311 13.15-73.982 15.154-106.472 4.523-32.49-10.631-37.506-29.898-11.19-43.027 26.315-13.129 73.982-15.154 106.471-4.523Z"/><path fill="url(#d)" d="M158.623 156.112c32.494 10.635 37.503 29.877 11.191 43.027-26.311 13.15-73.982 15.154-106.472 4.523-32.49-10.631-37.506-29.898-11.19-43.027 26.315-13.129 73.982-15.154 106.471-4.523Z"/></g><path fill="#001C63" d="M110.927 242.054c-22.787 0-44.29-3.096-62.174-8.947-25.13-8.224-39.555-20.922-40.618-35.761-.52-7.307 2.098-21.307 25.514-32.992 19.172-9.569 47.38-15.059 77.389-15.059 22.79 0 44.285 3.095 62.17 8.946 25.133 8.225 39.559 20.922 40.618 35.761.523 7.307-2.094 21.308-25.51 32.997-19.177 9.565-47.385 15.055-77.389 15.055Z" opacity=".2" style="mix-blend-mode:multiply"/><path fill="#E6E6E8" d="M178.758 152.498h-13.419a71.542 71.542 0 0 0-11.706-4.917c-29.088-9.519-71.767-7.706-95.326 4.05-.573.286-1.112.576-1.636.867H43.338v14.743c-1.227 8.511 7.36 17.134 24.99 22.91 29.088 9.519 71.767 7.705 95.322-4.05 10.173-5.075 15.104-11.175 15.096-17.233l.012-16.37Z"/><path fill="#FDFDFF" d="M153.634 131.215c29.092 9.519 33.577 26.765 10.018 38.521-23.56 11.755-66.239 13.569-95.322 4.049-29.084-9.519-33.578-26.764-10.022-38.52 23.556-11.755 66.238-13.569 95.326-4.05Z"/><path fill="url(#e)" d="M110.979 179.967c37.434 0 67.78-12.299 67.78-27.47s-30.346-27.47-67.78-27.47-67.78 12.299-67.78 27.47 30.346 27.47 67.78 27.47Z" style="mix-blend-mode:multiply"/><path fill="#E6E6E8" d="M178.758 125.392h-13.419a71.63 71.63 0 0 0-11.706-4.917c-29.088-9.519-71.767-7.706-95.326 4.05a43.12 43.12 0 0 0-1.636.867H43.338v14.744c-1.227 8.51 7.36 17.133 24.99 22.909 29.088 9.519 71.767 7.706 95.322-4.05 10.173-5.075 15.104-11.174 15.096-17.237l.012-16.366Z"/><path fill="#FDFDFF" d="M153.634 104.111c29.092 9.519 33.577 26.764 10.018 38.52-23.56 11.755-66.239 13.564-95.322 4.045-29.084-9.519-33.578-26.764-10.022-38.515 23.556-11.752 66.238-13.57 95.326-4.05Z"/><path fill="url(#f)" d="M110.979 139.639c19.409 0 35.143-6.378 35.143-14.245 0-7.868-15.734-14.246-35.143-14.246s-35.143 6.378-35.143 14.246c0 7.867 15.734 14.245 35.143 14.245Z" opacity=".25" style="mix-blend-mode:multiply"/><path fill="#001C63" d="M108.881 24.085c0 5.048-1.156 8.862-3.468 11.44-2.311 2.578-5.423 3.866-9.334 3.863-3.95 0-7.085-1.288-9.405-3.863-2.32-2.576-3.475-6.389-3.467-11.44v-7.86c0-5.051 1.148-8.863 3.443-11.436C88.945 2.217 92.065.927 96.01.922c3.927 0 7.052 1.293 9.375 3.88 2.322 2.586 3.482 6.394 3.479 11.423l.017 7.86Zm-8.53-8.449c0-2.857-.37-4.911-1.112-6.162a3.57 3.57 0 0 0-1.345-1.399 3.5 3.5 0 0 0-1.869-.476 3.435 3.435 0 0 0-1.864.47 3.504 3.504 0 0 0-1.333 1.405c-.72 1.25-1.078 3.304-1.075 6.162v8.988c0 2.907.362 4.982 1.087 6.224.316.585.786 1.07 1.358 1.398a3.486 3.486 0 0 0 1.88.461c.65.023 1.291-.14 1.854-.468a3.512 3.512 0 0 0 1.332-1.39c.728-1.246 1.09-3.32 1.087-6.225v-8.988ZM113.984 22.416l2.126-20.955h21.605v6.677h-14.65l-.936 7.834c.726-.541 1.54-.95 2.404-1.208a11.29 11.29 0 0 1 3.165-.514c3.609-.067 6.384.998 8.325 3.195 1.94 2.196 2.91 5.317 2.907 9.361a12.815 12.815 0 0 1-3.312 8.922c-2.211 2.44-5.374 3.66-9.49 3.66a14.614 14.614 0 0 1-9.134-2.955 8.941 8.941 0 0 1-2.865-3.412 9.092 9.092 0 0 1-.881-4.393l.053-.154 8.35-.514c0 1.488.408 2.653 1.226 3.494.429.422.939.75 1.498.964.559.214 1.156.31 1.753.28 1.554 0 2.655-.553 3.304-1.66a8.23 8.23 0 0 0 .973-4.198c0-2.053-.363-3.67-1.088-4.851-.725-1.182-1.873-1.772-3.443-1.772a4.706 4.706 0 0 0-2.768.743 3.848 3.848 0 0 0-1.455 1.875l-7.667-.419Z"/><g clip-path="url(#g)"><path fill="#001C63" fill-rule="evenodd" d="M95.656 122.733c2.906 0 5.269-2.113 5.269-4.716 0-.929-.303-1.795-.827-2.529h.142c-2.314-2.529-2.07-4.598.382-5.322h8.105a1.67 1.67 0 0 0 1.664-1.664v-7.196c.567-4.911 2.666-3.453 5.136-1.932 5.968 3.674 9.936-5.029 5.112-8.008-3.786-2.338-5.425 1.683-8.199 1.267-1.071-.162-1.814-1.321-2.049-3.082v-7.113c0-.915-.749-1.663-1.664-1.663h-7.098c-3.36-.426-3.996-2.686-1.394-5.528h-.142c.524-.734.827-1.6.827-2.53.005-2.602-2.353-4.715-5.264-4.715-2.906 0-5.264 2.113-5.264 4.716 0 .93.304 1.795.827 2.529h-.034c2.602 2.842 1.971 5.107-1.394 5.528h-7.128c-.914 0-1.663.748-1.663 1.663v7.416c.533 3.053 2.735 3.552 5.474 1.042v.034a4.331 4.331 0 0 1 2.53-.826c2.602 0 4.715 2.358 4.715 5.263 0 2.906-2.113 5.264-4.716 5.264a4.33 4.33 0 0 1-2.529-.827v.142c-2.74-2.51-4.94-2.005-5.474 1.047v7.514c0 .915.749 1.663 1.663 1.663H90.8c2.45.724 2.7 2.794.381 5.323h.034c-.518.734-.826 1.599-.826 2.529.004 2.602 2.362 4.716 5.268 4.711Zm30.8.269h-.01c-2.906 0-5.269-2.113-5.269-4.716 0-.929.304-1.795.827-2.529h-.034c2.314-2.529 2.069-4.598-.382-5.322h-8.135a1.668 1.668 0 0 1-1.663-1.664v-7.499c.391-1.135.89-1.536 1.477-1.55.269-.006.553.068.856.195.851.352 1.849 1.091 2.935 1.512 4.188 1.614 7.783-2.461 7.544-6.649-.054-.934-.431-1.854-.988-2.705-2.138-3.268-5.303-3.576-8.356-1.712-1.555.954-2.793 1.673-3.502-.572l.039-7.089a1.671 1.671 0 0 1 1.663-1.663h7.123c3.36-.426 3.996-2.686 1.394-5.528h.034a4.335 4.335 0 0 1-.827-2.53c0-2.602 2.358-4.715 5.269-4.715h.01c2.906 0 5.268 2.113 5.268 4.716 0 .93-.303 1.795-.826 2.53h.034c-2.603 2.841-1.972 5.106 1.394 5.527h7.123c.914 0 1.663.748 1.663 1.663v7.416c-.533 3.053-2.735 3.552-5.474 1.042v.035a4.333 4.333 0 0 0-2.529-.827c-2.603 0-4.716 2.358-4.716 5.264 0 2.905 2.113 5.268 4.716 5.268.929 0 1.795-.303 2.529-.827v.142c2.744-2.51 4.941-2.005 5.474 1.047v7.5c0 .914-.749 1.663-1.663 1.663h-8.136c-2.45.724-2.695 2.793-.381 5.322h-.039c.523.734.826 1.6.826 2.529-.004 2.613-2.362 4.726-5.268 4.726Z" clip-rule="evenodd"/></g><defs><radialGradient id="a" cx="0" cy="0" r="1" gradientTransform="matrix(107.502 0 0 42.5488 110.979 212.933)" gradientUnits="userSpaceOnUse"><stop stop-color="#2A48D0"/><stop offset="1" stop-color="#fff"/></radialGradient><radialGradient id="b" cx="0" cy="0" r="1" gradientTransform="matrix(53.75844 -21.51545 14.84431 37.08996 117.011 179.981)" gradientUnits="userSpaceOnUse"><stop stop-color="#8EDBDC"/><stop offset=".44" stop-color="#90DCDD"/><stop offset=".6" stop-color="#97DEDF"/><stop offset=".71" stop-color="#A2E2E2"/><stop offset=".8" stop-color="#B3E7E8"/><stop offset=".88" stop-color="#C9EEEE"/><stop offset=".95" stop-color="#E4F6F7"/><stop offset="1" stop-color="#fff"/></radialGradient><radialGradient id="c" cx="0" cy="0" r="1" gradientTransform="matrix(53.75844 -21.51545 14.84431 37.08996 117.011 179.981)" gradientUnits="userSpaceOnUse"><stop stop-color="#80E3C8"/><stop offset=".43" stop-color="#82E3C9"/><stop offset=".58" stop-color="#89E5CC"/><stop offset=".69" stop-color="#94E8D1"/><stop offset=".78" stop-color="#A5EBD8"/><stop offset=".86" stop-color="#BBF0E2"/><stop offset=".93" stop-color="#D7F6ED"/><stop offset=".99" stop-color="#F6FDFB"/><stop offset="1" stop-color="#fff"/></radialGradient><radialGradient id="d" cx="0" cy="0" r="1" gradientTransform="matrix(53.75844 -21.51545 14.84431 37.08996 117.011 179.981)" gradientUnits="userSpaceOnUse"><stop stop-color="#2A48D0"/><stop offset=".39" stop-color="#2C4AD0"/><stop offset=".53" stop-color="#334FD2"/><stop offset=".62" stop-color="#3E5AD5"/><stop offset=".71" stop-color="#4F68D8"/><stop offset=".77" stop-color="#657BDD"/><stop offset=".83" stop-color="#8192E3"/><stop offset=".89" stop-color="#A1AEEA"/><stop offset=".94" stop-color="#C7CFF3"/><stop offset=".99" stop-color="#F0F2FC"/><stop offset="1" stop-color="#fff"/></radialGradient><radialGradient id="e" cx="0" cy="0" r="1" gradientTransform="matrix(67.5713 0 0 25.3728 110.979 155.748)" gradientUnits="userSpaceOnUse"><stop stop-color="#2A48D0"/><stop offset="1" stop-color="#fff"/></radialGradient><radialGradient id="f" cx="0" cy="0" r="1" gradientTransform="matrix(35.0369 0 0 13.1562 110.979 128.607)" gradientUnits="userSpaceOnUse"><stop stop-color="#2A48D0"/><stop offset="1" stop-color="#fff"/></radialGradient><clipPath id="g"><path fill="#fff" d="M81 68.002h60.112v55H81z"/></clipPath></defs></svg>