<svg xmlns="http://www.w3.org/2000/svg" width="222" height="263" fill="none"><path fill="url(#a)" d="M180.562 182.908c47.381 15.507 54.688 43.599 16.318 62.745-38.369 19.146-107.886 22.101-155.271 6.594-47.385-15.507-54.688-43.595-16.319-62.745 38.37-19.15 107.887-22.096 155.272-6.594Z" style="mix-blend-mode:multiply"/><path fill="#001C63" d="M108.485 219.325c-22.786 0-44.285-3.092-62.15-8.942-25.129-8.225-39.554-20.927-40.617-35.765-.524-7.308 2.097-21.308 25.51-32.993 19.176-9.569 47.385-15.055 77.388-15.055 22.791 0 44.29 3.096 62.174 8.947 25.13 8.22 39.555 20.922 40.618 35.76.52 7.304-2.097 21.308-25.514 32.993-19.205 9.569-47.413 15.055-77.409 15.055Z" opacity=".2" style="mix-blend-mode:multiply"/><path fill="#001C63" d="M108.485 235.112c-22.786 0-44.285-3.095-62.15-8.946-25.129-8.225-39.554-20.922-40.617-35.761-.524-7.307 2.097-21.308 25.51-32.997 19.176-9.544 47.385-15.054 77.388-15.054 22.791 0 44.29 3.095 62.174 8.946 25.13 8.224 39.555 20.922 40.618 35.761.52 7.307-2.097 21.307-25.514 32.993-19.205 9.568-47.413 15.058-77.409 15.058Z" opacity=".2" style="mix-blend-mode:multiply"/><path fill="#001C63" d="M168.345 143.097c40.798 13.349 47.091 37.536 14.053 54.022-33.037 16.486-92.889 19.026-133.703 5.677-40.815-13.349-47.087-37.537-14.05-54.023 33.038-16.486 92.906-19.026 133.7-5.676Z" style="mix-blend-mode:multiply"/><g style="mix-blend-mode:multiply"><path fill="url(#b)" d="M156.172 149.172c32.489 10.635 37.502 29.897 11.191 43.026-26.311 13.129-73.983 15.154-106.476 4.523-32.494-10.631-37.503-29.877-11.191-43.026 26.311-13.15 73.982-15.155 106.476-4.523Z"/><path fill="url(#c)" d="M156.172 149.172c32.489 10.635 37.502 29.897 11.191 43.026-26.311 13.129-73.983 15.154-106.476 4.523-32.494-10.631-37.503-29.877-11.191-43.026 26.311-13.15 73.982-15.155 106.476-4.523Z"/><path fill="url(#d)" d="M156.172 149.172c32.489 10.635 37.502 29.897 11.191 43.026-26.311 13.129-73.983 15.154-106.476 4.523-32.494-10.631-37.503-29.877-11.191-43.026 26.311-13.15 73.982-15.155 106.476-4.523Z"/></g><path fill="#E6E6ED" d="M176.306 145.558h-13.42a71.418 71.418 0 0 0-11.706-4.917c-29.088-9.519-71.766-7.706-95.322 4.05-.572.286-1.116.577-1.656.867H40.885v14.744c-1.227 8.51 7.34 17.133 24.99 22.909 29.092 9.519 71.771 7.706 95.327-4.05 10.173-5.075 15.104-11.174 15.095-17.237l.009-16.366Z"/><path fill="#FAFAFF" d="M151.18 124.275c29.091 9.519 33.577 26.764 10.021 38.52-23.555 11.755-66.238 13.565-95.326 4.05-29.087-9.515-33.573-26.769-10.017-38.52 23.555-11.752 66.234-13.569 95.322-4.05Z"/><path fill="url(#e)" d="M108.457 173.057c37.474 0 67.853-12.312 67.853-27.499 0-15.188-30.379-27.499-67.853-27.499-37.474 0-67.853 12.311-67.853 27.499 0 15.187 30.379 27.499 67.853 27.499Z" style="mix-blend-mode:multiply"/><path fill="#E6E6ED" d="M176.306 118.453h-13.42a71 71 0 0 0-11.706-4.917c-29.088-9.519-71.766-7.706-95.322 4.05-.572.286-1.116.576-1.656.867H40.885v14.743c-1.227 8.511 7.34 17.133 24.99 22.91 29.092 9.519 71.771 7.705 95.327-4.05 10.173-5.075 15.104-11.175 15.095-17.237l.009-16.366Z"/><path fill="#FAFAFF" d="M151.18 97.152c29.091 9.519 33.577 26.765 10.021 38.521-23.555 11.755-66.238 13.564-95.326 4.045-29.087-9.519-33.573-26.764-10.017-38.516 23.555-11.751 66.234-13.552 95.322-4.05Z"/><path fill="url(#f)" d="M108.456 132.698c19.409 0 35.143-6.378 35.143-14.246 0-7.867-15.734-14.245-35.143-14.245-19.41 0-35.144 6.378-35.144 14.245 0 7.868 15.735 14.246 35.144 14.246Z" opacity=".25" style="mix-blend-mode:multiply"/><path fill="#001C63" d="M106.349 23.666c0 5.048-1.154 8.862-3.463 11.44-2.309 2.578-5.422 3.867-9.339 3.867-3.944 0-7.072-1.289-9.384-3.867-2.311-2.578-3.472-6.392-3.483-11.44v-7.843c0-5.051 1.146-8.865 3.438-11.44C86.411 1.807 89.532.52 93.482.52c3.93 0 7.056 1.291 9.375 3.875 2.32 2.584 3.478 6.393 3.476 11.428l.016 7.843Zm-8.525-8.445c0-2.857-.37-4.913-1.112-6.166a3.573 3.573 0 0 0-1.347-1.396 3.504 3.504 0 0 0-1.867-.475 3.435 3.435 0 0 0-1.866.468 3.504 3.504 0 0 0-1.336 1.403c-.714 1.253-1.072 3.309-1.075 6.166v8.984c0 2.913.363 4.988 1.088 6.224.316.585.786 1.07 1.358 1.399a3.5 3.5 0 0 0 1.88.464 3.452 3.452 0 0 0 1.856-.47 3.52 3.52 0 0 0 1.333-1.393c.725-1.242 1.088-3.316 1.088-6.224v-8.984ZM125.935.507c1.3-.014 2.598.11 3.872.37 1.278.296 2.531.695 3.746 1.194l-1.419 6.316c-1.182-.357-2.212-.627-3.099-.805a15.212 15.212 0 0 0-3.051-.27 6.012 6.012 0 0 0-2.68.518 6.093 6.093 0 0 0-2.189 1.652c-1.222 1.444-1.808 3.554-1.758 6.328l.077.13a7.39 7.39 0 0 1 2.96-2.005 11.546 11.546 0 0 1 4.2-.718c3.287 0 5.847 1.202 7.678 3.606 1.832 2.404 2.747 5.482 2.744 9.233 0 3.695-1.21 6.773-3.631 9.232-2.42 2.46-5.51 3.688-9.269 3.685-4.034 0-7.29-1.344-9.768-4.033-2.478-2.69-3.718-6.37-3.721-11.042v-7.523c0-4.93 1.43-8.803 4.289-11.619 2.86-2.816 6.533-4.232 11.019-4.25Zm-1.696 19.387a8.58 8.58 0 0 0-3.047.485 4.775 4.775 0 0 0-2.011 1.353v2.2c0 2.696.435 4.771 1.304 6.223a4.088 4.088 0 0 0 1.517 1.597c.64.382 1.372.577 2.114.565 1.281 0 2.326-.614 3.136-1.842a7.765 7.765 0 0 0 1.227-4.374c0-1.892-.393-3.397-1.178-4.514a3.613 3.613 0 0 0-1.315-1.25 3.548 3.548 0 0 0-1.747-.443Z"/><g clip-path="url(#g)"><path fill="#001C63" fill-rule="evenodd" d="M123.856 74.087a15.836 15.836 0 0 1 3.84 3.165 14.556 14.556 0 0 1 2.587 4.149c.349.86.626 1.748.828 2.654.458 2.06.494 4.192.108 6.266a17.146 17.146 0 0 1-.967 3.268l-.049.112c-.895 2.238-2.498 4.404-4.029 6.543-.778 1.084-1.553 2.153-2.202 3.192a2.103 2.103 0 0 1-1.938.976l-12.318 1.83a2.104 2.104 0 0 1-2.332-1.526 17.284 17.284 0 0 0-1.132-2.596 10.802 10.802 0 0 0-1.343-2.005c-.635-.725-1.284-1.468-1.929-2.305a18.14 18.14 0 0 1-1.853-3.098 18.393 18.393 0 0 1-1.253-3.58 15.932 15.932 0 0 1-.425-3.77c.013-1.318.189-2.63.523-3.907.358-1.37.87-2.694 1.527-3.948l.089-.16a15.716 15.716 0 0 1 3.183-3.877 14.982 14.982 0 0 1 4.22-2.6l.13-.05a15.736 15.736 0 0 1 3.581-.953 16.832 16.832 0 0 1 3.916-.09c1.274.117 2.53.373 3.747.766 1.218.381 2.389.9 3.491 1.544Zm-1.737 39.097a7.761 7.761 0 0 1-2.802 2.811 7.316 7.316 0 0 1-3.218.98 6.65 6.65 0 0 1-3.308-.644 6.765 6.765 0 0 1-1.96-1.459l11.288-1.688Zm1.074-6.315v.993c.034.485.034.971 0 1.455l-.223 1.065-13.679 2.032-.237-.546-.533-2.184v-.635l14.637-2.18h.035Zm-8.056-43.197a1.721 1.721 0 0 1 1.75-1.67h.116a1.727 1.727 0 0 1 1.58 1.737c.003.03.003.06 0 .09l-.094 3.665a1.13 1.13 0 0 1 0 .117 1.705 1.705 0 0 1-1.727 1.575h-.121a1.686 1.686 0 0 1-1.101-.524 1.72 1.72 0 0 1-.475-1.208.668.668 0 0 1 0-.09l.09-3.679-.018-.013Zm-18.87 6.432a1.746 1.746 0 0 1-.444-1.86 1.715 1.715 0 0 1 1.549-1.126c.453-.019.896.142 1.23.448l2.749 2.564a1.723 1.723 0 0 1 .094 2.427 1.75 1.75 0 0 1-1.2.546 1.71 1.71 0 0 1-1.226-.448l-2.753-2.551ZM91.79 89A1.729 1.729 0 0 1 90 87.336a1.692 1.692 0 0 1 .448-1.231 1.706 1.706 0 0 1 1.2-.537l3.75-.125a1.713 1.713 0 0 1 1.79 1.66v.09a1.728 1.728 0 0 1-.447 1.141 1.705 1.705 0 0 1-1.218.524h-.067l-3.706.125.04.018Zm47.266-5.322h.058c.429-.026.852.11 1.186.38.352.29.577.707.627 1.16v.053a1.718 1.718 0 0 1-1.54 1.79l-3.733.453a1.718 1.718 0 0 1-1.507-2.79 1.72 1.72 0 0 1 1.158-.625c1.245-.134 2.498-.278 3.747-.398l.004-.023Zm-7.394-14.94a1.701 1.701 0 0 1 1.759-.73 1.711 1.711 0 0 1 1.338 1.352c.087.446-.004.909-.255 1.289l-2.09 3.133a1.721 1.721 0 0 1-2.847-1.934l2.095-3.133v.023Zm-14.243 17.84h2.637a.693.693 0 0 1 .637.426.701.701 0 0 1-.064.649l-6.267 10.71a.673.673 0 0 1-.423.314.686.686 0 0 1-.797-.394.69.69 0 0 1-.046-.416l.926-6.57-3.133.053a.684.684 0 0 1-.698-.676.67.67 0 0 1 .094-.363l6.172-10.706a.694.694 0 0 1 .945-.242.678.678 0 0 1 .349.69l-.314 6.525h-.018Z" clip-rule="evenodd"/></g><defs><radialGradient id="a" cx="0" cy="0" r="1" gradientTransform="matrix(107.502 0 0 42.5488 111.085 204.516)" gradientUnits="userSpaceOnUse"><stop stop-color="#1628B1"/><stop offset="1" stop-color="#fff"/></radialGradient><radialGradient id="b" cx="0" cy="0" r="1" gradientTransform="matrix(53.75844 -21.51545 14.84431 37.08996 115.532 172.235)" gradientUnits="userSpaceOnUse"><stop stop-color="#80E3C8"/><stop offset=".43" stop-color="#82E3C9"/><stop offset=".58" stop-color="#89E5CC"/><stop offset=".69" stop-color="#94E8D1"/><stop offset=".78" stop-color="#A5EBD8"/><stop offset=".86" stop-color="#BBF0E2"/><stop offset=".93" stop-color="#D7F6ED"/><stop offset=".99" stop-color="#F6FDFB"/><stop offset="1" stop-color="#fff"/></radialGradient><radialGradient id="c" cx="0" cy="0" r="1" gradientTransform="matrix(53.75844 -21.51545 14.84431 37.08996 115.532 172.235)" gradientUnits="userSpaceOnUse"><stop stop-color="#80E3C8"/><stop offset=".43" stop-color="#82E3C9"/><stop offset=".58" stop-color="#89E5CC"/><stop offset=".69" stop-color="#94E8D1"/><stop offset=".78" stop-color="#A5EBD8"/><stop offset=".86" stop-color="#BBF0E2"/><stop offset=".93" stop-color="#D7F6ED"/><stop offset=".99" stop-color="#F6FDFB"/><stop offset="1" stop-color="#fff"/></radialGradient><radialGradient id="d" cx="0" cy="0" r="1" gradientTransform="matrix(53.75844 -21.51545 14.84431 37.08996 115.532 172.235)" gradientUnits="userSpaceOnUse"><stop stop-color="#1628B1"/><stop offset=".38" stop-color="#182AB2"/><stop offset=".52" stop-color="#1F30B4"/><stop offset=".61" stop-color="#2A3BB8"/><stop offset=".69" stop-color="#3B4BBE"/><stop offset=".76" stop-color="#515FC5"/><stop offset=".82" stop-color="#6D78CE"/><stop offset=".87" stop-color="#8D96D9"/><stop offset=".92" stop-color="#B3B9E5"/><stop offset=".97" stop-color="#DCDFF3"/><stop offset="1" stop-color="#fff"/></radialGradient><radialGradient id="e" cx="0" cy="0" r="1" gradientTransform="matrix(67.6449 0 0 25.4005 108.457 149.012)" gradientUnits="userSpaceOnUse"><stop stop-color="#1628B1"/><stop offset="1" stop-color="#fff"/></radialGradient><radialGradient id="f" cx="0" cy="0" r="1" gradientTransform="matrix(35.0368 0 0 13.1562 108.456 121.87)" gradientUnits="userSpaceOnUse"><stop stop-color="#1628B1"/><stop offset="1" stop-color="#fff"/></radialGradient><clipPath id="g"><path fill="#fff" d="M90 62.002h50.931v55H90z"/></clipPath></defs></svg>