<svg width="95" height="95" viewBox="0 0 95 95" fill="none" xmlns="http://www.w3.org/2000/svg">
<g filter="url(#filter0_di_37_640)">
<circle cx="47.3086" cy="42.1084" r="41.5264" fill="white"/>
</g>
<path d="M42.4364 53.3873C40.4015 56.1853 37.547 57.5843 33.8729 57.5843C30.1988 57.5843 27.3301 56.1853 25.267 53.3873C23.2321 50.5894 22.2146 46.8587 22.2146 42.1954C22.2146 37.5321 23.2321 33.8015 25.267 31.0035C27.3301 28.2055 30.1988 26.8065 33.8729 26.8065C37.547 26.8065 40.4015 28.2055 42.4364 31.0035C44.4995 33.8015 45.5311 37.5321 45.5311 42.1954C45.5311 46.8587 44.4995 50.5894 42.4364 53.3873ZM33.8729 52.8362C36.0773 52.8362 37.759 51.9177 38.9177 50.0806C40.0765 48.2436 40.6559 45.6152 40.6559 42.1954C40.6559 38.7757 40.0765 36.1473 38.9177 34.3102C37.759 32.4732 36.0773 31.5546 33.8729 31.5546C31.6967 31.5546 30.015 32.4732 28.828 34.3102C27.6693 36.1473 27.0899 38.7757 27.0899 42.1954C27.0899 45.6152 27.6693 48.2436 28.828 50.0806C30.015 51.9177 31.6967 52.8362 33.8729 52.8362ZM60.305 39.4822C62.4529 39.991 64.1911 40.9943 65.5194 42.4922C66.876 43.9618 67.5543 45.813 67.5543 48.0457C67.5543 51.0133 66.551 53.345 64.5443 55.0407C62.5377 56.7364 60.0789 57.5843 57.1678 57.5843C54.9069 57.5843 52.872 57.0615 51.0632 56.0158C49.2826 54.97 47.9967 53.4439 47.2053 51.4372L51.3599 49.0208C52.2361 51.5644 54.172 52.8362 57.1678 52.8362C58.8636 52.8362 60.2061 52.4123 61.1952 51.5644C62.1844 50.6883 62.679 49.5154 62.679 48.0457C62.679 46.5761 62.1844 45.4173 61.1952 44.5695C60.2061 43.7216 58.8636 43.2977 57.1678 43.2977H56.0656L54.1155 40.3725L60.5169 31.9362H48.0956V27.3576H66.3249V31.5122L60.305 39.4822Z" fill="#04102C"/>
<defs>
<filter id="filter0_di_37_640" x="0.510784" y="0.582031" width="93.5956" height="93.5956" filterUnits="userSpaceOnUse" color-interpolation-filters="sRGB">
<feFlood flood-opacity="0" result="BackgroundImageFix"/>
<feColorMatrix in="SourceAlpha" type="matrix" values="0 0 0 0 0 0 0 0 0 0 0 0 0 0 0 0 0 0 127 0" result="hardAlpha"/>
<feOffset dy="5.27144"/>
<feGaussianBlur stdDeviation="2.63572"/>
<feComposite in2="hardAlpha" operator="out"/>
<feColorMatrix type="matrix" values="0 0 0 0 0 0 0 0 0 0 0 0 0 0 0 0 0 0 0.25 0"/>
<feBlend mode="normal" in2="BackgroundImageFix" result="effect1_dropShadow_37_640"/>
<feBlend mode="normal" in="SourceGraphic" in2="effect1_dropShadow_37_640" result="shape"/>
<feColorMatrix in="SourceAlpha" type="matrix" values="0 0 0 0 0 0 0 0 0 0 0 0 0 0 0 0 0 0 127 0" result="hardAlpha"/>
<feOffset dy="5.27144"/>
<feGaussianBlur stdDeviation="2.63572"/>
<feComposite in2="hardAlpha" operator="arithmetic" k2="-1" k3="1"/>
<feColorMatrix type="matrix" values="0 0 0 0 0.0924556 0 0 0 0 0.329758 0 0 0 0 0.600962 0 0 0 0.21 0"/>
<feBlend mode="normal" in2="shape" result="effect2_innerShadow_37_640"/>
</filter>
</defs>
</svg>
