<svg width="95" height="95" viewBox="0 0 95 95" fill="none" xmlns="http://www.w3.org/2000/svg">
<g filter="url(#filter0_di_37_641)">
<circle cx="47.6231" cy="42.1084" r="41.5264" fill="white"/>
</g>
<path d="M41.5456 53.3854C39.5107 56.1834 36.6562 57.5824 32.9821 57.5824C29.3079 57.5824 26.4393 56.1834 24.3762 53.3854C22.3413 50.5874 21.3238 46.8568 21.3238 42.1935C21.3238 37.5302 22.3413 33.7995 24.3762 31.0016C26.4393 28.2036 29.3079 26.8046 32.9821 26.8046C36.6562 26.8046 39.5107 28.2036 41.5456 31.0016C43.6087 33.7995 44.6403 37.5302 44.6403 42.1935C44.6403 46.8568 43.6087 50.5874 41.5456 53.3854ZM32.9821 52.8343C35.1865 52.8343 36.8681 51.9157 38.0269 50.0787C39.1857 48.2416 39.765 45.6132 39.765 42.1935C39.765 38.7737 39.1857 36.1453 38.0269 34.3083C36.8681 32.4712 35.1865 31.5527 32.9821 31.5527C30.8059 31.5527 29.1242 32.4712 27.9372 34.3083C26.7785 36.1453 26.1991 38.7737 26.1991 42.1935C26.1991 45.6132 26.7785 48.2416 27.9372 50.0787C29.1242 51.9157 30.8059 52.8343 32.9821 52.8343ZM70.1987 47.1535V51.6897H66.8072V57.0312H61.8896V51.6897H47.3061V47.1535L57.523 27.3557H62.8222L52.6054 47.1535H61.8896V39.4379H66.8072V47.1535H70.1987Z" fill="#04102C"/>
<defs>
<filter id="filter0_di_37_641" x="0.825237" y="0.582031" width="93.5956" height="93.5956" filterUnits="userSpaceOnUse" color-interpolation-filters="sRGB">
<feFlood flood-opacity="0" result="BackgroundImageFix"/>
<feColorMatrix in="SourceAlpha" type="matrix" values="0 0 0 0 0 0 0 0 0 0 0 0 0 0 0 0 0 0 127 0" result="hardAlpha"/>
<feOffset dy="5.27144"/>
<feGaussianBlur stdDeviation="2.63572"/>
<feComposite in2="hardAlpha" operator="out"/>
<feColorMatrix type="matrix" values="0 0 0 0 0 0 0 0 0 0 0 0 0 0 0 0 0 0 0.25 0"/>
<feBlend mode="normal" in2="BackgroundImageFix" result="effect1_dropShadow_37_641"/>
<feBlend mode="normal" in="SourceGraphic" in2="effect1_dropShadow_37_641" result="shape"/>
<feColorMatrix in="SourceAlpha" type="matrix" values="0 0 0 0 0 0 0 0 0 0 0 0 0 0 0 0 0 0 127 0" result="hardAlpha"/>
<feOffset dy="5.27144"/>
<feGaussianBlur stdDeviation="2.63572"/>
<feComposite in2="hardAlpha" operator="arithmetic" k2="-1" k3="1"/>
<feColorMatrix type="matrix" values="0 0 0 0 0.0924556 0 0 0 0 0.329758 0 0 0 0 0.600962 0 0 0 0.21 0"/>
<feBlend mode="normal" in2="shape" result="effect2_innerShadow_37_641"/>
</filter>
</defs>
</svg>
