<svg width="94" height="95" viewBox="0 0 94 95" fill="none" xmlns="http://www.w3.org/2000/svg">
<g filter="url(#filter0_di_37_642)">
<circle cx="47.1865" cy="42.1084" r="41.5264" fill="white"/>
</g>
<path d="M40.9568 53.3854C38.9219 56.1834 36.0674 57.5824 32.3933 57.5824C28.7191 57.5824 25.8505 56.1834 23.7874 53.3854C21.7525 50.5874 20.735 46.8568 20.735 42.1935C20.735 37.5302 21.7525 33.7995 23.7874 31.0016C25.8505 28.2036 28.7191 26.8046 32.3933 26.8046C36.0674 26.8046 38.9219 28.2036 40.9568 31.0016C43.0199 33.7995 44.0515 37.5302 44.0515 42.1935C44.0515 46.8568 43.0199 50.5874 40.9568 53.3854ZM32.3933 52.8343C34.5977 52.8343 36.2793 51.9157 37.4381 50.0787C38.5969 48.2416 39.1762 45.6132 39.1762 42.1935C39.1762 38.7737 38.5969 36.1453 37.4381 34.3083C36.2793 32.4712 34.5977 31.5527 32.3933 31.5527C30.2171 31.5527 28.5354 32.4712 27.3484 34.3083C26.1897 36.1453 25.6103 38.7737 25.6103 42.1935C25.6103 45.6132 26.1897 48.2416 27.3484 50.0787C28.5354 51.9157 30.2171 52.8343 32.3933 52.8343ZM57.1935 38.5476C60.0198 38.5476 62.408 39.3955 64.3581 41.0912C66.3082 42.7587 67.2832 45.0762 67.2832 48.0438C67.2832 51.0114 66.2799 53.343 64.2733 55.0387C62.2667 56.7345 59.8078 57.5824 56.8968 57.5824C54.551 57.5824 52.4737 57.0454 50.6649 55.9714C48.8561 54.8692 47.5702 53.2865 46.8071 51.2233L51.0041 48.8069C51.7954 51.4918 53.7597 52.8343 56.8968 52.8343C58.5643 52.8343 59.8926 52.4103 60.8818 51.5625C61.8992 50.6863 62.408 49.5134 62.408 48.0438C62.408 46.5742 61.9134 45.4154 60.9242 44.5675C59.935 43.7196 58.6208 43.2957 56.9816 43.2957H48.3333L49.4779 27.3557H66.0114V31.9342H53.9716L53.4629 38.5476H57.1935Z" fill="#04102C"/>
<defs>
<filter id="filter0_di_37_642" x="0.388713" y="0.582031" width="93.5956" height="93.5956" filterUnits="userSpaceOnUse" color-interpolation-filters="sRGB">
<feFlood flood-opacity="0" result="BackgroundImageFix"/>
<feColorMatrix in="SourceAlpha" type="matrix" values="0 0 0 0 0 0 0 0 0 0 0 0 0 0 0 0 0 0 127 0" result="hardAlpha"/>
<feOffset dy="5.27144"/>
<feGaussianBlur stdDeviation="2.63572"/>
<feComposite in2="hardAlpha" operator="out"/>
<feColorMatrix type="matrix" values="0 0 0 0 0 0 0 0 0 0 0 0 0 0 0 0 0 0 0.25 0"/>
<feBlend mode="normal" in2="BackgroundImageFix" result="effect1_dropShadow_37_642"/>
<feBlend mode="normal" in="SourceGraphic" in2="effect1_dropShadow_37_642" result="shape"/>
<feColorMatrix in="SourceAlpha" type="matrix" values="0 0 0 0 0 0 0 0 0 0 0 0 0 0 0 0 0 0 127 0" result="hardAlpha"/>
<feOffset dy="5.27144"/>
<feGaussianBlur stdDeviation="2.63572"/>
<feComposite in2="hardAlpha" operator="arithmetic" k2="-1" k3="1"/>
<feColorMatrix type="matrix" values="0 0 0 0 0.0924556 0 0 0 0 0.329758 0 0 0 0 0.600962 0 0 0 0.21 0"/>
<feBlend mode="normal" in2="shape" result="effect2_innerShadow_37_642"/>
</filter>
</defs>
</svg>
