<svg width="95" height="95" viewBox="0 0 95 95" fill="none" xmlns="http://www.w3.org/2000/svg">
<g filter="url(#filter0_di_37_643)">
<circle cx="47.7471" cy="42.1084" r="41.5264" fill="white"/>
</g>
<path d="M41.4148 53.3854C39.3799 56.1834 36.5254 57.5824 32.8513 57.5824C29.1772 57.5824 26.3085 56.1834 24.2454 53.3854C22.2105 50.5874 21.193 46.8568 21.193 42.1935C21.193 37.5302 22.2105 33.7995 24.2454 31.0016C26.3085 28.2036 29.1772 26.8046 32.8513 26.8046C36.5254 26.8046 39.3799 28.2036 41.4148 31.0016C43.478 33.7995 44.5095 37.5302 44.5095 42.1935C44.5095 46.8568 43.478 50.5874 41.4148 53.3854ZM32.8513 52.8343C35.0558 52.8343 36.7374 51.9157 37.8961 50.0787C39.0549 48.2416 39.6343 45.6132 39.6343 42.1935C39.6343 38.7737 39.0549 36.1453 37.8961 34.3083C36.7374 32.4712 35.0558 31.5527 32.8513 31.5527C30.6751 31.5527 28.9935 32.4712 27.8064 34.3083C26.6477 36.1453 26.0683 38.7737 26.0683 42.1935C26.0683 45.6132 26.6477 48.2416 27.8064 50.0787C28.9935 51.9157 30.6751 52.8343 32.8513 52.8343ZM57.7738 37.3182C60.8544 37.3182 63.3697 38.265 65.3199 40.1586C67.27 42.0239 68.245 44.4545 68.245 47.4503C68.245 50.4461 67.27 52.8908 65.3199 54.7844C63.3697 56.6497 60.8544 57.5824 57.7738 57.5824C54.6649 57.5824 52.1354 56.6497 50.1853 54.7844C48.2352 52.8908 47.2602 50.4461 47.2602 47.4503C47.2602 45.1893 47.8537 43.1968 49.0407 41.4728L58.4521 27.3557H64.0056L57.2227 37.3182H57.7738ZM57.7738 52.9615C59.413 52.9615 60.7555 52.4669 61.8012 51.4777C62.8469 50.4602 63.3697 49.1178 63.3697 47.4503C63.3697 45.7828 62.8469 44.4545 61.8012 43.4653C60.7555 42.4478 59.413 41.9391 57.7738 41.9391C56.1063 41.9391 54.7497 42.4478 53.704 43.4653C52.6583 44.4545 52.1354 45.7828 52.1354 47.4503C52.1354 49.1178 52.6583 50.4602 53.704 51.4777C54.7497 52.4669 56.1063 52.9615 57.7738 52.9615Z" fill="#04102C"/>
<defs>
<filter id="filter0_di_37_643" x="0.94926" y="0.582031" width="93.5956" height="93.5956" filterUnits="userSpaceOnUse" color-interpolation-filters="sRGB">
<feFlood flood-opacity="0" result="BackgroundImageFix"/>
<feColorMatrix in="SourceAlpha" type="matrix" values="0 0 0 0 0 0 0 0 0 0 0 0 0 0 0 0 0 0 127 0" result="hardAlpha"/>
<feOffset dy="5.27144"/>
<feGaussianBlur stdDeviation="2.63572"/>
<feComposite in2="hardAlpha" operator="out"/>
<feColorMatrix type="matrix" values="0 0 0 0 0 0 0 0 0 0 0 0 0 0 0 0 0 0 0.25 0"/>
<feBlend mode="normal" in2="BackgroundImageFix" result="effect1_dropShadow_37_643"/>
<feBlend mode="normal" in="SourceGraphic" in2="effect1_dropShadow_37_643" result="shape"/>
<feColorMatrix in="SourceAlpha" type="matrix" values="0 0 0 0 0 0 0 0 0 0 0 0 0 0 0 0 0 0 127 0" result="hardAlpha"/>
<feOffset dy="5.27144"/>
<feGaussianBlur stdDeviation="2.63572"/>
<feComposite in2="hardAlpha" operator="arithmetic" k2="-1" k3="1"/>
<feColorMatrix type="matrix" values="0 0 0 0 0.0924556 0 0 0 0 0.329758 0 0 0 0 0.600962 0 0 0 0.21 0"/>
<feBlend mode="normal" in2="shape" result="effect2_innerShadow_37_643"/>
</filter>
</defs>
</svg>
