<svg width="40" height="41" viewBox="0 0 40 41" fill="none" xmlns="http://www.w3.org/2000/svg">
<path fill-rule="evenodd" clip-rule="evenodd" d="M19.5682 0.812622C26.8908 5.11855 33.506 7.15568 39.1834 6.6741C40.1749 25.2787 32.7688 36.2659 19.6441 40.8514C6.96971 36.5595 -0.527096 26.0451 0.0289117 6.39192C6.69363 6.71548 13.2323 5.3789 19.5682 0.812622ZM11.8659 22.5704C11.4515 22.2413 11.403 21.6626 11.7574 21.2778C12.1125 20.893 12.7363 20.8483 13.1508 21.1771L17.1879 24.3947L26.032 15.3743C26.3998 14.9995 27.0253 14.9722 27.4296 15.313C27.8332 15.6538 27.8627 16.2341 27.4953 16.6092L18.0049 26.2891L18.0042 26.2885C17.6459 26.6537 17.0379 26.6912 16.6308 26.368L11.8659 22.5704Z" fill="#029894"/>
</svg>
