<svg width="52" height="41" viewBox="0 0 52 41" fill="none" xmlns="http://www.w3.org/2000/svg">
<path fill-rule="evenodd" clip-rule="evenodd" d="M12.5207 35.8636V21.4865H19.4909C22.4462 21.9783 25.4016 23.4641 28.3569 25.1907H33.7707C36.2219 25.3277 37.5047 27.6321 35.1243 29.146C33.225 30.4372 30.7213 30.3644 28.1538 30.1506C26.3837 30.0696 26.3061 32.2778 28.1538 32.2848C28.7947 32.3308 29.4923 32.1917 30.1018 32.191C33.3065 32.1882 35.9462 31.6197 37.5609 29.2714L38.3735 27.5133L46.4274 23.8091C50.4577 22.5779 53.3211 26.4893 50.3528 29.2083C44.5193 33.1453 38.5364 36.3858 32.4179 39.002C27.9737 41.5097 23.53 41.4248 19.0858 39.002L12.5207 35.8636ZM42.8386 12.8247C42.7253 12.7523 42.596 12.7199 42.4655 12.7441C42.3358 12.7682 42.2229 12.8325 42.1448 12.9372L41.7028 13.5158C41.5471 13.4516 41.3822 13.4033 41.2084 13.3632C41.0355 13.3231 40.8705 13.2908 40.6976 13.2666L40.5582 12.5108C40.5326 12.382 40.4629 12.2854 40.3589 12.2134C40.2464 12.1409 40.1251 12.1168 39.9865 12.1409L38.9632 12.3099C38.8335 12.3341 38.7294 12.3905 38.6426 12.4949C38.5645 12.5996 38.5301 12.7121 38.5557 12.8406L38.6862 13.5322C38.5212 13.5968 38.3655 13.6689 38.2182 13.7576C38.0705 13.8379 37.924 13.9344 37.7934 14.031L37.1 13.5886C36.9875 13.5162 36.8662 13.4843 36.7361 13.5084C36.6056 13.5326 36.4935 13.5968 36.4154 13.7016L35.8261 14.4815C35.7481 14.5859 35.7136 14.7066 35.7392 14.8273C35.7657 14.9562 35.8354 15.0523 35.9474 15.1248L36.5712 15.5348C36.5023 15.6796 36.4499 15.8323 36.4062 15.9931C36.3625 16.1539 36.3281 16.3065 36.3021 16.4673L35.4882 16.5962C35.3489 16.6204 35.2456 16.6846 35.1667 16.7812C35.0886 16.8859 35.0635 16.9985 35.0886 17.127L35.2708 18.0759C35.2973 18.1966 35.3577 18.2928 35.471 18.3734C35.5835 18.4458 35.7048 18.4777 35.8433 18.4536L36.5884 18.3329C36.658 18.4855 36.7361 18.6304 36.831 18.767C36.9179 18.9037 37.022 19.0404 37.126 19.1689L36.6488 19.804C36.5707 19.9083 36.5363 20.0212 36.5628 20.1416C36.5884 20.2623 36.658 20.3666 36.7701 20.439L37.6192 20.9939C37.7326 21.0663 37.8627 21.0901 37.9924 21.0663C38.1229 21.0422 38.235 20.9861 38.3219 20.8814L38.7639 20.2946C38.9196 20.3588 39.0845 20.4071 39.2583 20.4472C39.4312 20.4873 39.5962 20.5196 39.7691 20.5438L39.9085 21.2992C39.9341 21.4281 40.0038 21.5242 40.1078 21.5967C40.2203 21.6695 40.3416 21.6932 40.4802 21.6695L41.5035 21.5005C41.6332 21.4764 41.7373 21.4203 41.8242 21.3155C41.9022 21.2108 41.9366 21.0983 41.911 20.9694L41.7805 20.2782C41.9455 20.214 42.1012 20.1416 42.2485 20.0532C42.3962 19.9726 42.5427 19.876 42.6821 19.7798L43.3667 20.2222C43.4792 20.2946 43.6005 20.3269 43.739 20.3024C43.8783 20.2782 43.9816 20.214 44.0605 20.1096L44.6582 19.3215C44.7363 19.2172 44.7623 19.0965 44.7363 18.9757C44.7107 18.855 44.6502 18.7507 44.5369 18.6701L43.9039 18.2678C43.9736 18.123 44.0252 17.9704 44.0689 17.8095C44.1125 17.6487 44.147 17.4961 44.173 17.3353L44.9877 17.2064C45.1262 17.1823 45.2303 17.118 45.3084 17.0214C45.3864 16.9167 45.4125 16.8042 45.3864 16.6757L45.2043 15.7267C45.1778 15.606 45.1174 15.5095 45.0049 15.4293C44.8924 15.3568 44.7711 15.3245 44.6318 15.3487L43.8867 15.4694C43.8179 15.3245 43.739 15.1797 43.6441 15.0352C43.5572 14.8904 43.4531 14.7619 43.3499 14.6415L43.8263 13.9983C43.9044 13.8935 43.9396 13.781 43.9132 13.6607C43.8867 13.5404 43.8179 13.4356 43.705 13.3632L42.8647 12.8165L42.8386 12.8247ZM39.8661 15.0597C40.1343 15.0192 40.4029 15.0192 40.672 15.0761C40.9318 15.1325 41.1664 15.2287 41.3826 15.3654C41.5908 15.5021 41.7721 15.6792 41.9194 15.8879C42.0668 16.0967 42.162 16.3303 42.2057 16.5795C42.2493 16.8287 42.2493 17.0779 42.1885 17.3271C42.1276 17.5681 42.0235 17.7854 41.8762 17.9863C41.7293 18.1795 41.5383 18.3481 41.3129 18.4847C41.0875 18.6214 40.8365 18.7098 40.5679 18.7503C40.2988 18.7904 40.031 18.7904 39.762 18.7339C39.5022 18.6775 39.2675 18.5813 39.0514 18.4446C38.8432 18.308 38.661 18.1308 38.5137 17.9221C38.3668 17.713 38.2711 17.4797 38.2274 17.2305C38.1846 16.9813 38.1846 16.7321 38.2455 16.4829C38.3063 16.2419 38.4104 16.0246 38.5569 15.8237C38.7047 15.6306 38.8957 15.462 39.1202 15.3253C39.3452 15.1882 39.597 15.0998 39.8661 15.0597ZM31.996 3.78713C31.9524 3.74703 31.918 3.72288 31.8747 3.70653C31.8403 3.69057 31.7967 3.68239 31.7442 3.68239C31.6926 3.68239 31.6489 3.69057 31.6145 3.70653C31.5801 3.72288 31.5364 3.74703 31.5012 3.77895L31.4928 3.78713L30.5131 4.69556C30.323 4.87234 30.0195 4.89648 29.8025 4.75202C29.69 4.68777 29.5771 4.62313 29.4474 4.55889C29.3089 4.49464 29.1784 4.43 29.057 4.37393C28.9265 4.31747 28.788 4.2614 28.6495 4.21312C28.5282 4.17301 28.3897 4.12473 28.2247 4.07644C27.9909 4.00402 27.8436 3.8031 27.8436 3.58582V2.19534C27.8436 2.14706 27.8348 2.09877 27.8171 2.06645C27.7995 2.03414 27.7735 1.99403 27.7391 1.96989C27.7047 1.93757 27.6694 1.91343 27.635 1.89746C27.6006 1.88111 27.5481 1.87293 27.4965 1.87293H25.6081C25.556 1.87293 25.5128 1.88111 25.478 1.88929C25.4431 1.90564 25.3999 1.92939 25.3567 1.96989C25.3218 2.00221 25.2958 2.03414 25.287 2.06645C25.2698 2.09877 25.261 2.14706 25.261 2.19534V3.47368C25.261 3.73106 25.0616 3.93977 24.8018 3.98805C24.6544 4.02037 24.5159 4.0523 24.3946 4.08462C24.2557 4.12512 24.126 4.16522 23.9871 4.21312C23.8569 4.2614 23.7184 4.30968 23.5883 4.37393C23.4494 4.43039 23.3281 4.49464 23.2068 4.5511C22.9814 4.66363 22.7216 4.62352 22.5482 4.46232L21.4649 3.4655C21.4569 3.45733 21.4569 3.45733 21.4569 3.44954C21.4221 3.41722 21.3872 3.39308 21.3528 3.37711C21.318 3.36115 21.2835 3.36115 21.2315 3.36115C21.1794 3.36115 21.1362 3.36933 21.1014 3.38529C21.0577 3.40164 21.0233 3.4254 20.9801 3.46589L19.6625 4.69595C19.6189 4.73605 19.5928 4.76837 19.5756 4.80848C19.558 4.8408 19.5496 4.88091 19.5496 4.92919C19.5496 4.97747 19.5584 5.01758 19.5756 5.0499C19.5928 5.08222 19.6189 5.12232 19.6537 5.15464V5.16282L20.633 6.07124C20.8239 6.24841 20.85 6.52955 20.6938 6.73047C20.6246 6.83521 20.5553 6.93957 20.486 7.06027C20.4164 7.18877 20.3471 7.30948 20.2867 7.42201C20.2258 7.54272 20.1649 7.67121 20.1133 7.8001C20.0701 7.91263 20.018 8.04113 19.966 8.19415C19.8879 8.41104 19.6713 8.54771 19.4371 8.54771H17.9378C17.8858 8.54771 17.8337 8.55589 17.7993 8.57185C17.7645 8.58821 17.7301 8.61196 17.6952 8.63649C17.6604 8.66842 17.6344 8.70074 17.626 8.73267C17.6088 8.76499 17.5999 8.81327 17.5999 8.86155V10.6142C17.5999 10.6624 17.6088 10.7025 17.6176 10.7349C17.6348 10.7672 17.6608 10.8073 17.7045 10.8474C17.7393 10.8797 17.7737 10.9039 17.8085 10.9116C17.8434 10.928 17.8954 10.9358 17.9475 10.9358H19.3255C19.6029 10.9358 19.8283 11.1207 19.8804 11.3622C19.9148 11.4988 19.9496 11.6273 19.9845 11.7321C20.0277 11.8606 20.0713 11.9895 20.123 12.118C20.175 12.2387 20.2271 12.3672 20.2963 12.496C20.366 12.6327 20.4264 12.7534 20.4873 12.866C20.6002 13.0751 20.5566 13.3161 20.3832 13.4691L19.3083 14.4581L19.2994 14.4663C19.2646 14.4986 19.2386 14.5306 19.2214 14.5629C19.2042 14.5952 19.2042 14.6275 19.2042 14.6754C19.2042 14.7237 19.213 14.7638 19.2302 14.7961C19.2474 14.8362 19.2734 14.8767 19.3167 14.9087L20.6254 16.1391C20.6602 16.1714 20.7035 16.1956 20.7467 16.2115C20.7904 16.2279 20.8336 16.2357 20.8856 16.2357C20.9377 16.2357 20.9897 16.2275 21.033 16.2115C21.0674 16.1956 21.111 16.1714 21.1459 16.1473L22.1167 15.2307C22.3073 15.0457 22.6107 15.0297 22.8273 15.1664C22.9402 15.2307 23.0523 15.2953 23.1824 15.3596C23.3214 15.4238 23.4511 15.4881 23.5724 15.5445C23.7025 15.601 23.841 15.657 23.9799 15.7053C24.1012 15.7454 24.2402 15.7937 24.4047 15.842C24.6389 15.9144 24.7862 16.1153 24.7862 16.3326V17.7235C24.7862 17.7718 24.795 17.8201 24.8123 17.8524C24.8295 17.8847 24.8555 17.9248 24.8815 17.9489C24.9508 18.0132 25.0288 18.0373 25.1329 18.0373H27.0226C27.0742 18.0373 27.1179 18.0292 27.1523 18.021C27.1867 18.005 27.2304 17.9809 27.2736 17.9408C27.308 17.9084 27.3344 17.8761 27.3433 17.8442C27.3605 17.8119 27.3697 17.7636 27.3697 17.7153V16.437C27.3697 16.1796 27.5691 15.9705 27.8289 15.9222C27.9758 15.8899 28.1152 15.858 28.2365 15.8256C28.375 15.7851 28.5047 15.745 28.644 15.6968C28.7737 15.6485 28.9122 15.6002 29.0508 15.5359C29.1985 15.4717 29.3286 15.4152 29.4499 15.3592C29.6753 15.2544 29.9351 15.2949 30.1001 15.4557L31.1658 16.4529L31.1746 16.4611C31.209 16.4934 31.2435 16.5176 31.2779 16.5335C31.3131 16.5499 31.3568 16.5499 31.4084 16.5499C31.4609 16.5499 31.5037 16.5417 31.5389 16.5258C31.5734 16.5094 31.6078 16.4853 31.643 16.4533C31.6514 16.4452 31.6602 16.4374 31.6686 16.4374L32.9862 15.2311C33.0215 15.1987 33.0471 15.1586 33.0643 15.1185C33.0823 15.0784 33.0907 15.0379 33.0907 14.99C33.0907 14.9417 33.0823 14.8935 33.0643 14.8534C33.0471 14.821 33.0215 14.7809 32.9954 14.7486L32.0074 13.848C31.8072 13.6712 31.7899 13.3897 31.9377 13.1888C32.0074 13.084 32.0762 12.9797 32.1459 12.8589C32.2147 12.7304 32.2844 12.6097 32.3453 12.4972C32.4061 12.3765 32.4666 12.248 32.5182 12.1191C32.5618 12.0066 32.6143 11.8781 32.6659 11.7251C32.744 11.5078 32.9602 11.3715 33.1948 11.3715H34.6941C34.7466 11.3715 34.7982 11.3633 34.8326 11.347C34.867 11.331 34.9107 11.3069 34.9367 11.2827C35.0064 11.2185 35.032 11.1461 35.032 11.0495V9.29688C35.032 9.2486 35.0236 9.20849 35.0148 9.17617C34.9976 9.14425 34.9711 9.10375 34.9279 9.06364C34.8935 9.03171 34.8591 9.00718 34.8246 8.99939C34.7894 8.98343 34.7378 8.97525 34.6861 8.97525H33.3073C33.0303 8.97525 32.7965 8.78212 32.7532 8.54109C32.7188 8.42856 32.6836 8.30785 32.6491 8.18753C32.6055 8.06683 32.5623 7.93794 32.5014 7.80166C32.5014 7.79348 32.493 7.7853 32.493 7.77713C32.4405 7.64863 32.3889 7.5361 32.3364 7.42357C32.2756 7.30286 32.2151 7.18215 32.1463 7.06962C32.025 6.86052 32.0682 6.61949 32.2416 6.45868L33.3165 5.45369C33.3165 5.44551 33.3253 5.44551 33.3337 5.44551C33.3682 5.41358 33.3946 5.38126 33.4118 5.34894C33.429 5.31662 33.429 5.28469 33.429 5.23641C33.429 5.18774 33.4206 5.14763 33.4034 5.1157C33.3862 5.07521 33.3598 5.04328 33.3165 5.00317L31.9902 3.7809L31.996 3.78713ZM32.3083 2.75021C32.4905 2.82263 32.6462 2.9192 32.7847 3.0477L34.1111 4.26997H34.1195C34.258 4.39885 34.3621 4.54331 34.4402 4.70413C34.5191 4.87312 34.5535 5.04172 34.5535 5.22668C34.5535 5.41202 34.5098 5.5888 34.4402 5.74962C34.3621 5.91043 34.258 6.05489 34.1115 6.1756L33.3312 6.90725C33.34 6.93139 33.3577 6.95553 33.3656 6.97967C33.4353 7.11634 33.4962 7.2612 33.5566 7.39748C33.5566 7.40566 33.5654 7.41383 33.5654 7.42201C33.6263 7.55868 33.6779 7.71132 33.7304 7.87214L33.7476 7.9286H34.7008C34.9002 7.9286 35.0903 7.96091 35.2641 8.03334C35.437 8.09759 35.5928 8.20233 35.7321 8.33083L35.7405 8.339C35.879 8.4675 35.9831 8.61235 36.0528 8.77316C36.1216 8.93398 36.1653 9.11076 36.1653 9.28793V11.0405C36.1653 11.4186 36.0268 11.7399 35.7405 12.0054C35.602 12.1343 35.437 12.2387 35.2641 12.3029C35.0903 12.3672 34.9002 12.3995 34.7008 12.3995H33.5906C33.5822 12.4236 33.565 12.4559 33.5562 12.4801C33.4953 12.6249 33.4257 12.7694 33.3568 12.9142C33.2788 13.0669 33.2091 13.2117 33.1314 13.3402L33.105 13.3885L33.7812 14.0076L33.8076 14.0318C33.9461 14.1606 34.0414 14.3133 34.1111 14.4741C34.1799 14.6349 34.2152 14.8039 34.2152 14.9889C34.2152 15.1656 34.1799 15.3346 34.1111 15.4954C34.0414 15.6563 33.9461 15.8011 33.8076 15.9378L33.7904 15.9538L32.464 17.176C32.3255 17.3127 32.169 17.4093 31.996 17.4817C31.8231 17.5541 31.6321 17.586 31.4239 17.586C31.2246 17.586 31.0344 17.5459 30.8518 17.4817C30.6697 17.4093 30.514 17.3049 30.3847 17.176L29.6132 16.4525C29.5868 16.4685 29.5607 16.4767 29.5263 16.4849C29.3786 16.5413 29.2228 16.6056 29.0583 16.6616C28.9026 16.7181 28.7376 16.7664 28.5731 16.8147C28.5466 16.8229 28.5294 16.831 28.5034 16.831V17.7071C28.5034 17.8921 28.469 18.0689 28.3909 18.2297C28.3213 18.3905 28.2088 18.5354 28.0702 18.6638L28.0614 18.672C27.9229 18.8005 27.7672 18.8971 27.5934 18.9613C27.4205 19.026 27.2295 19.0661 27.0394 19.0661H25.1497C24.7422 19.0661 24.3959 18.9376 24.1096 18.672C23.9711 18.5431 23.8582 18.3905 23.7889 18.2297C23.7197 18.0689 23.6849 17.8921 23.6849 17.7071V16.6757C23.6588 16.6675 23.624 16.6515 23.598 16.6433C23.4418 16.5869 23.2861 16.5226 23.13 16.4584C22.965 16.386 22.8093 16.3217 22.6703 16.2493L22.6183 16.2252L21.9509 16.8524L21.9249 16.8766C21.786 17.0055 21.6214 17.0939 21.4481 17.1581C21.2747 17.2224 21.093 17.2547 20.8936 17.2547C20.703 17.2547 20.5209 17.2224 20.3475 17.1581C20.1742 17.0935 20.018 17.0051 19.8707 16.8766L19.8531 16.8606L18.5271 15.6142C18.3886 15.4853 18.2845 15.3409 18.2065 15.18C18.1284 15.0111 18.094 14.8425 18.094 14.6575C18.094 14.4725 18.1372 14.2958 18.2065 14.1349C18.2845 13.9741 18.3974 13.8293 18.5359 13.7008L19.3158 12.9851C19.2986 12.961 19.2898 12.9368 19.2814 12.9045C19.2205 12.7678 19.1513 12.623 19.0904 12.4703C19.0296 12.3173 18.9691 12.1729 18.9259 12.0202L18.9083 11.9556H17.9639C17.7641 11.9556 17.5735 11.9237 17.4001 11.8512C17.2268 11.787 17.0711 11.6822 16.9321 11.5537L16.9233 11.5456C16.7848 11.4171 16.6807 11.2722 16.6115 11.1114C16.5422 10.9506 16.4986 10.7738 16.4986 10.597V8.84442C16.4986 8.65946 16.5334 8.49047 16.6026 8.32187C16.6719 8.16106 16.7848 8.0166 16.9233 7.87953C17.0623 7.75104 17.2268 7.64629 17.4001 7.58205C17.5735 7.51741 17.7641 7.48548 17.9639 7.48548H19.0732C19.082 7.46134 19.0992 7.42902 19.108 7.40527C19.1689 7.26042 19.2382 7.11557 19.3074 6.97111C19.3855 6.81808 19.4548 6.67362 19.5328 6.54473L19.5588 6.49645L18.8915 5.86954C18.7525 5.74105 18.64 5.5962 18.5708 5.42721C18.4927 5.25822 18.4579 5.08144 18.4579 4.90466C18.4579 4.71931 18.4927 4.55071 18.5708 4.38211C18.6489 4.21312 18.7525 4.06827 18.8915 3.93977L20.209 2.70971V2.70193C20.3479 2.57343 20.5037 2.47686 20.677 2.40444C20.8592 2.33201 21.0409 2.29969 21.2403 2.29969C21.4401 2.29969 21.6307 2.3398 21.8036 2.40444C21.9769 2.47686 22.1331 2.57343 22.2632 2.70971L23.0515 3.43318C23.0779 3.42501 23.1039 3.40904 23.1211 3.40125C23.2685 3.33662 23.4246 3.28055 23.5891 3.2163C23.7453 3.15984 23.9098 3.11155 24.0744 3.06366C24.1004 3.05548 24.1176 3.04731 24.1436 3.04731V2.1712C24.1436 1.98624 24.1785 1.80946 24.2565 1.64865C24.3262 1.48783 24.4387 1.34337 24.5772 1.21449L24.586 1.20631C24.725 1.07781 24.8807 0.981248 25.054 0.917C25.2274 0.852752 25.4175 0.812256 25.6081 0.812256H27.4973C27.6967 0.812256 27.8784 0.844575 28.0606 0.908823C28.2428 0.97307 28.3993 1.07781 28.5378 1.20631C28.6763 1.33481 28.7888 1.48783 28.8585 1.64865C28.9273 1.80946 28.9626 1.98624 28.9626 2.1712V3.20033C28.9882 3.20851 29.0235 3.22448 29.0487 3.23265C29.2052 3.28911 29.3609 3.35336 29.5167 3.41761C29.6816 3.49003 29.8373 3.55428 29.9767 3.62671L30.0283 3.65085L30.7045 3.03173C30.843 2.90285 30.9987 2.79849 31.1809 2.73424C31.3631 2.66182 31.5541 2.6295 31.7442 2.6295C31.9444 2.6295 32.1262 2.66182 32.3083 2.73424V2.75021ZM26.3187 6.00622C26.6049 6.00622 26.8908 6.03075 27.1678 6.08682C27.4369 6.1351 27.7055 6.21532 27.9737 6.32006C28.2256 6.4248 28.4682 6.54512 28.6936 6.6818C28.919 6.81847 29.1271 6.97928 29.3173 7.15606C29.5083 7.33323 29.6812 7.52597 29.8289 7.74325C29.9847 7.95235 30.1152 8.17702 30.2193 8.41026C30.2277 8.42661 30.2277 8.44258 30.2365 8.45037C30.3406 8.68361 30.4187 8.92502 30.4703 9.15787C30.5228 9.41525 30.5572 9.68042 30.5572 9.94559C30.5572 10.2108 30.5307 10.4763 30.4703 10.7337C30.4187 10.9829 30.3318 11.2321 30.2193 11.4813C30.106 11.7146 29.9767 11.9396 29.8289 12.1487C29.6732 12.3578 29.5083 12.5506 29.3173 12.7355C29.1271 12.9127 28.919 13.0735 28.6843 13.2102C28.4598 13.355 28.2163 13.4753 27.9653 13.5719C27.9481 13.5801 27.9309 13.5801 27.9217 13.5879C27.6698 13.6844 27.41 13.7569 27.1594 13.8051C26.8816 13.8534 26.5953 13.8857 26.3103 13.8857C26.024 13.8857 25.7382 13.8616 25.4608 13.8051C25.1921 13.7569 24.9231 13.6763 24.6544 13.5719C24.403 13.4672 24.1604 13.3465 23.935 13.2102C23.7096 13.0735 23.5018 12.9127 23.3113 12.7355C23.1207 12.5587 22.9474 12.3656 22.7996 12.1487C22.6439 11.9396 22.5138 11.7146 22.4097 11.4813C22.4009 11.4653 22.4009 11.449 22.3921 11.4412C22.288 11.208 22.2099 10.9669 22.1583 10.7337C22.1062 10.4763 22.0714 10.2112 22.0714 9.94559C22.0714 9.68003 22.0974 9.41487 22.1583 9.15787C22.2103 8.90867 22.2968 8.65946 22.4097 8.41026C22.5222 8.17702 22.6523 7.95196 22.7996 7.74325C22.9474 7.53415 23.1207 7.34102 23.3113 7.15606C23.5018 6.97928 23.71 6.81847 23.935 6.6818C24.1604 6.53695 24.403 6.41624 24.6544 6.32006C24.6721 6.31188 24.6893 6.31188 24.6981 6.30371C24.9495 6.20714 25.2093 6.1351 25.4608 6.08682C25.7382 6.03854 26.024 6.00622 26.3103 6.00622H26.3187ZM26.9517 7.0996C26.7523 7.0595 26.5353 7.04314 26.3187 7.04314C26.1021 7.04314 25.8943 7.0595 25.6861 7.0996C25.4868 7.13971 25.305 7.18799 25.1317 7.25263C25.1229 7.26081 25.114 7.26081 25.0968 7.26859C24.8975 7.3492 24.7153 7.43759 24.5508 7.54194C24.3862 7.64629 24.2301 7.75921 24.0916 7.88771C23.9526 8.0166 23.8229 8.16106 23.7188 8.31408C23.6059 8.46672 23.5107 8.63571 23.4242 8.82067C23.3457 8.98966 23.2853 9.17423 23.242 9.36736C23.1988 9.55232 23.1812 9.75324 23.1812 9.95416C23.1812 10.1551 23.1988 10.3478 23.242 10.541C23.2857 10.7259 23.3377 10.8945 23.4066 11.0553C23.4154 11.0635 23.4154 11.0713 23.4242 11.0876C23.5107 11.2726 23.6064 11.4412 23.7188 11.5942C23.8313 11.7473 23.9526 11.8917 24.0916 12.0202C24.2301 12.1491 24.3862 12.2694 24.5508 12.366C24.7153 12.4707 24.8975 12.5591 25.0968 12.6393C25.279 12.7118 25.4784 12.7678 25.6861 12.8083C25.8859 12.8488 26.1025 12.8648 26.3187 12.8648C26.5349 12.8648 26.7435 12.8488 26.9517 12.8083C27.151 12.7678 27.3328 12.7199 27.5065 12.6557C27.5149 12.6475 27.5238 12.6475 27.541 12.6393C27.7403 12.5587 27.9221 12.4703 28.087 12.366C28.252 12.2616 28.4077 12.1491 28.5462 12.0202C28.6847 11.8913 28.8153 11.7469 28.9194 11.5942C29.0319 11.4412 29.1276 11.2726 29.2136 11.0876C29.2917 10.9187 29.3521 10.7337 29.3958 10.541C29.4394 10.356 29.4566 10.1551 29.4566 9.95416C29.4566 9.75324 29.4394 9.56011 29.3958 9.36736C29.3521 9.1824 29.3005 9.01341 29.2308 8.8526C29.2224 8.84442 29.2224 8.83663 29.2136 8.82028C29.1276 8.63532 29.0314 8.46633 28.9194 8.31369C28.806 8.16067 28.6847 8.01621 28.5462 7.88732C28.4077 7.75882 28.252 7.63812 28.087 7.54155C27.9221 7.43681 27.7403 7.34842 27.541 7.2682C27.3592 7.19656 27.1598 7.13971 26.9517 7.0996ZM0 20.1049H10.4225V37.3074H0V20.1049Z" fill="#029894"/>
</svg>
