<svg width="38" height="44" viewBox="0 0 38 44" fill="none" xmlns="http://www.w3.org/2000/svg">
<path d="M24.3097 34.566H2.87614V6.04803H24.3039V8.18143H27.1839V5.46565C27.1859 2.90744 24.9217 0.8125 22.166 0.8125H5.0179C2.25825 0.8125 0 2.90744 0 5.46565V38.8309C0 41.3928 2.25825 43.4859 5.0179 43.4859H22.166C24.9217 43.4859 27.1859 41.3928 27.1859 38.8309V34.5165H24.3097V34.566ZM13.589 41.1566C12.3177 41.1566 11.2913 40.2025 11.2913 39.0251C11.2913 37.8439 12.3178 36.8917 13.589 36.8917C14.8622 36.8917 15.8907 37.8457 15.8907 39.0251C15.8907 40.2025 14.8623 41.1566 13.589 41.1566Z" fill="#029894"/>
<path d="M11.7613 8.91028H5.33203V12.5472H11.7613V8.91028Z" fill="#029894"/>
<path d="M11.7613 18.222H5.33203V21.8589H11.7613V18.222Z" fill="#029894"/>
<path d="M11.7613 27.968H5.33203V31.603H11.7613V27.968Z" fill="#029894"/>
<path d="M34.5796 19.8208C34.3525 18.7183 33.8926 17.6983 33.2412 16.8065L35.5469 14.6658L33.1919 12.4884L30.8902 14.6255C29.9328 14.0175 28.8274 13.5963 27.6429 13.3839V10.3531H24.3109V13.3839C23.1245 13.5963 22.0289 14.0193 21.0617 14.6255L18.764 12.4884L16.4091 14.6676L18.7108 16.8083C18.0613 17.7001 17.6034 18.7201 17.3763 19.8207H14.1133V22.91H17.3762C17.6033 24.0069 18.0632 25.0269 18.7126 25.9224L16.409 28.0594L18.7639 30.2349L21.0676 28.0997C22.0309 28.7076 23.1304 29.1306 24.3167 29.3449V32.3701H27.6488V29.3431C28.8331 29.1325 29.9307 28.7058 30.896 28.1015L33.1977 30.2368L35.5527 28.0594L33.2471 25.9224C33.8985 25.0306 34.3565 24.0088 34.5854 22.9082H37.8504V19.8208H34.5796ZM25.9809 24.7266C23.9773 24.7266 22.3507 23.225 22.3507 21.3645C22.3507 19.5058 23.9772 17.995 25.9809 17.995C27.9865 17.995 29.6051 19.5039 29.6051 21.3645C29.6051 23.2268 27.9824 24.7266 25.9809 24.7266Z" fill="#029894"/>
</svg>
