<svg width="56" height="41" viewBox="0 0 56 41" fill="none" xmlns="http://www.w3.org/2000/svg">
<path fill-rule="evenodd" clip-rule="evenodd" d="M3.75972 0.812378H51.7685C53.8382 0.812378 55.5282 2.38023 55.5282 4.30021V37.3633C55.5282 39.2791 53.8382 40.8512 51.7685 40.8512H3.75972C1.69007 40.8512 0 39.2833 0 37.3633V4.30021C0 2.38023 1.69007 0.812378 3.75972 0.812378ZM5.69381 12.1101H49.4232V29.3313H5.69381V12.1101ZM14.5554 17.0232H17.2577V22.2382C17.2577 22.7539 17.1763 23.2443 17.0137 23.7013C16.851 24.1624 16.5979 24.5648 16.2545 24.9086C15.911 25.2523 15.5495 25.4955 15.1699 25.6338C14.6458 25.8267 14.0131 25.9273 13.2765 25.9273C12.8517 25.9273 12.3863 25.8979 11.8802 25.8392C11.3786 25.7806 10.9538 25.6632 10.6149 25.4829C10.276 25.3068 9.96869 25.0553 9.68852 24.7283C9.40835 24.4014 9.21403 24.066 9.1101 23.718C8.9429 23.1605 8.85704 22.67 8.85704 22.2382V17.0232H11.5593V22.364C11.5593 22.8419 11.6904 23.215 11.957 23.4791C12.2236 23.7474 12.5897 23.8815 13.0596 23.8815C13.5205 23.8815 13.8866 23.7474 14.1532 23.4833C14.4153 23.2192 14.5509 22.8461 14.5509 22.3598V17.0232H14.5554ZM19.1556 17.0232H21.8715V25.7806H19.1556V17.0232ZM25.1206 16.8765H26.3497L24.14 25.9273H22.9108L25.1206 16.8765ZM32.9066 17.0232H35.6089V22.2382C35.6089 22.7539 35.5276 23.2443 35.3649 23.7013C35.2022 24.1624 34.9492 24.5648 34.6057 24.9086C34.2623 25.2523 33.9008 25.4955 33.5212 25.6338C32.997 25.8267 32.3643 25.9273 31.6278 25.9273C31.203 25.9273 30.7375 25.8979 30.2314 25.8392C29.7298 25.7806 29.3051 25.6632 28.9661 25.4829C28.6272 25.3068 28.3199 25.0553 28.0398 24.7283C27.7596 24.4014 27.5653 24.066 27.4613 23.718C27.2941 23.1605 27.2128 22.67 27.2128 22.2382V17.0232H29.9151V22.364C29.9151 22.8419 30.0462 23.215 30.3128 23.4791C30.5794 23.7474 30.9454 23.8815 31.4154 23.8815C31.8763 23.8815 32.2423 23.7474 32.509 23.4833C32.7711 23.2192 32.9066 22.8461 32.9066 22.3598V17.0232ZM36.7974 17.0232H39.7844L41.3344 19.7188L42.8392 17.0232H45.7855L43.0651 21.2657L46.0431 25.7806H42.9973L41.2801 22.9677L39.5494 25.7806H36.5263L39.5449 21.2154L36.7974 17.0232ZM30.2179 35.8919C29.4135 35.8919 28.7628 35.2338 28.7628 34.4247C28.7628 33.6114 29.4135 32.9574 30.2179 32.9574H48.1353C48.9397 32.9574 49.5904 33.6156 49.5904 34.4247C49.5904 35.2379 48.9397 35.8919 48.1353 35.8919H30.2179ZM6.76027 35.8919C5.96495 35.8919 5.31874 35.2338 5.31874 34.4247C5.31874 33.6114 5.96495 32.9574 6.76027 32.9574H23.3717C24.1671 32.9574 24.8133 33.6156 24.8133 34.4247C24.8133 35.2379 24.1671 35.8919 23.3717 35.8919H6.76027ZM53.3094 9.23851H2.3905V37.7029C2.3905 37.9712 2.50347 38.206 2.69326 38.3862C2.88758 38.5623 3.14063 38.6671 3.42984 38.6671H52.252C52.5412 38.6671 52.7943 38.5623 52.9886 38.3862C53.1829 38.206 53.2914 37.9712 53.2914 37.7029V9.23851H53.3094ZM48.1895 3.39471C49.2153 3.39471 50.0468 4.16606 50.0468 5.11767C50.0468 6.06928 49.2153 6.84062 48.1895 6.84062C47.1637 6.84062 46.3323 6.06928 46.3323 5.11767C46.3368 4.16606 47.1683 3.39471 48.1895 3.39471ZM35.6089 3.39471C36.6347 3.39471 37.4662 4.16606 37.4662 5.11767C37.4662 6.06928 36.6347 6.84062 35.6089 6.84062C34.5831 6.84062 33.7517 6.06928 33.7517 5.11767C33.7517 4.16606 34.5831 3.39471 35.6089 3.39471ZM41.8992 3.39471C42.925 3.39471 43.7565 4.16606 43.7565 5.11767C43.7565 6.06928 42.925 6.84062 41.8992 6.84062C40.8734 6.84062 40.042 6.06928 40.042 5.11767C40.042 4.16606 40.8734 3.39471 41.8992 3.39471Z" fill="#029894"/>
</svg>
