<svg width="384" height="383" viewBox="0 0 384 383" fill="none" xmlns="http://www.w3.org/2000/svg">
<g clip-path="url(#clip0_36_1533)">
<path d="M171.212 245.455L5.01453 334.29C3.11657 335.39 3.11657 337.162 5.01453 338.262L17.7124 345.594C19.6104 346.694 22.6924 346.694 24.5904 345.594L190.788 256.759C192.686 255.659 192.686 253.887 190.788 252.787L178.09 245.455C176.192 244.355 173.11 244.355 171.212 245.455Z" fill="#EBEBEB"/>
<path d="M225.942 53.3584L227.37 54.215L256.73 37.2593L255.302 36.4111L225.942 53.3584Z" fill="#FAFAFA"/>
<path d="M255.302 36.4114L227.37 52.5272V23.2852L255.302 7.17773V36.4114Z" fill="white"/>
<path d="M259.425 1.65991L224.666 21.7229V58.8843L259.425 38.8213V1.65991ZM256.73 37.2593L227.37 54.2065V23.2765L256.73 6.33763V37.2593Z" fill="#F0F0F0"/>
<path d="M256.73 37.2593L255.302 36.4111V7.17745L256.73 6.33765V37.2593Z" fill="#E0E0E0"/>
<path d="M259.425 1.66002L257.972 0.828613L223.221 20.8916L224.674 21.723L259.425 1.66002Z" fill="#FAFAFA"/>
<path d="M223.221 20.8916L224.674 21.723V58.8844L223.221 58.053V20.8916Z" fill="#E0E0E0"/>
<path d="M254.21 35.5378L228.462 50.4024V42.9701L234.903 28.1055L238.909 31.8175L237.464 38.0488L246.358 19.0356L254.21 28.1055V35.5378Z" fill="#F0F0F0"/>
<path d="M238.665 20.9249C237.615 21.5296 236.759 23.0077 236.759 24.2254C236.759 25.4431 237.615 25.9302 238.665 25.3255C239.715 24.7209 240.572 23.2428 240.572 22.0251C240.572 20.8074 239.715 20.3203 238.665 20.9249Z" fill="#F0F0F0"/>
<path d="M225.942 99.0357L227.37 99.8839L256.73 82.9366L255.302 82.0884L225.942 99.0357Z" fill="#FAFAFA"/>
<path d="M255.302 82.0884L227.37 98.2042V68.9622L255.302 52.8547V82.0884Z" fill="white"/>
<path d="M259.425 47.3369L224.666 67.3999V104.561L259.425 84.4983V47.3369ZM256.73 82.9363L227.37 99.8835V68.9535L256.73 52.0062V82.9363Z" fill="#F0F0F0"/>
<path d="M256.73 82.9365L255.302 82.0883V52.8547L256.73 52.0149V82.9365Z" fill="#E0E0E0"/>
<path d="M259.425 47.337L257.972 46.5056L223.221 66.5686L224.674 67.4L259.425 47.337Z" fill="#FAFAFA"/>
<path d="M223.221 66.5686L224.674 67.4V104.561L223.221 103.73V66.5686Z" fill="#E0E0E0"/>
<path d="M254.21 81.2148L228.462 96.071V88.6387L234.903 73.7825L238.909 77.4945L237.464 83.7258L246.358 64.7126L254.21 73.7825V81.2148Z" fill="#F0F0F0"/>
<path d="M238.665 66.6022C237.615 67.2068 236.759 68.6849 236.759 69.9026C236.759 71.1203 237.615 71.6074 238.665 71.0028C239.715 70.3981 240.572 68.9201 240.572 67.7023C240.572 66.4846 239.715 65.9975 238.665 66.6022Z" fill="#F0F0F0"/>
<path d="M226.455 278.846C226.455 278.846 222.239 260.656 231.468 242.911C236.625 232.993 246.45 227.601 251.506 227.257C257.175 226.871 262.642 231.985 257.225 238.493C252.085 244.674 242.738 247.051 236.347 263.301C232.132 274.017 232.19 282.029 232.19 282.029L226.455 278.846Z" fill="#029894"/>
<path opacity="0.5" d="M226.455 278.846C226.455 278.846 222.239 260.656 231.468 242.911C236.625 232.993 246.45 227.601 251.506 227.257C257.175 226.871 262.642 231.985 257.225 238.493C252.085 244.674 242.738 247.051 236.347 263.301C232.132 274.017 232.19 282.029 232.19 282.029L226.455 278.846Z" fill="white"/>
<path d="M230.141 274.286C230.334 274.278 230.486 274.143 230.477 273.984C229.285 253.938 242.377 237.435 252.06 232.119C252.22 232.027 252.27 231.851 252.161 231.725C252.052 231.599 251.833 231.565 251.674 231.657C241.857 237.049 228.571 253.761 229.78 274.026C229.78 274.185 229.948 274.303 230.141 274.286Z" fill="white"/>
<path d="M232.199 282.021C233.316 277.435 236.843 271.893 243.981 267.013C251.12 262.134 260.794 257.742 259.719 253.257C258.636 248.781 251.178 248.655 245.804 250.99C240.429 253.316 227.983 264.015 229.217 280.366L232.199 282.021Z" fill="#029894"/>
<path opacity="0.65" d="M232.199 282.021C233.316 277.435 236.843 271.893 243.981 267.013C251.12 262.134 260.794 257.742 259.719 253.257C258.636 248.781 251.178 248.655 245.804 250.99C240.429 253.316 227.983 264.015 229.217 280.366L232.199 282.021Z" fill="white"/>
<path d="M231.141 275.974C231.309 275.966 231.451 275.856 231.477 275.722C233.097 266.022 247.937 254.147 254.529 252.426C254.714 252.375 254.823 252.216 254.764 252.073C254.706 251.922 254.512 251.846 254.328 251.897C247.408 253.702 232.459 265.577 230.771 275.663C230.746 275.814 230.88 275.957 231.073 275.974C231.099 275.974 231.124 275.974 231.141 275.974Z" fill="white"/>
<path d="M13.245 336.877C13.245 336.138 13.7237 335.374 14.681 334.777L156.549 245.59V115.067L174.143 93.2996C176.898 89.89 179.14 83.5663 179.14 79.1741V5.62396C179.14 1.23177 176.117 -0.439439 172.388 1.87003L14.6726 99.9089C13.7153 100.505 13.2366 101.269 13.2366 102.008V336.877H13.245Z" fill="#3B5998"/>
<path opacity="0.3" d="M169.44 25.2336C169.44 20.8414 166.325 19.0106 162.487 21.1353L17.9982 101.076C16.6797 101.807 14.8657 102.034 13.2785 101.782C13.2701 101.857 13.2449 101.933 13.2449 102V336.642C13.2533 336.642 13.2701 336.642 13.2785 336.65C13.3624 335.987 13.8159 335.315 14.6725 334.769L156.541 245.582V115.068L169.432 99.1197V25.2336H169.44Z" fill="black"/>
<path d="M14.5382 338.749C16.3186 339.782 19.3251 339.749 21.2398 338.691L165.728 258.75C169.566 256.625 172.682 251.342 172.682 246.959V27.9794C172.682 23.5873 169.566 21.7565 165.728 23.8812L21.2482 103.822C19.3251 104.88 16.327 104.914 14.5466 103.881C13.6816 103.377 13.2449 102.697 13.2449 102V336.868C13.2449 337.574 13.6732 338.254 14.5382 338.749Z" fill="#3B5998"/>
<path opacity="0.3" d="M17.7714 104.637C16.5873 104.637 15.42 104.394 14.5466 103.89C13.6816 103.386 13.2449 102.706 13.2449 102.009V336.877C13.2449 337.574 13.6732 338.254 14.5466 338.758C15.42 339.262 16.5873 339.506 17.7714 339.506V104.637Z" fill="white"/>
<path d="M37.1373 101.958C36.919 101.958 36.7426 102.134 36.7426 102.353V322.231C36.7426 322.449 36.919 322.625 37.1373 322.625C37.3557 322.625 37.532 322.449 37.532 322.231V102.353C37.532 102.134 37.3557 101.958 37.1373 101.958ZM24.2211 109.415C24.0028 109.415 23.8264 109.592 23.8264 109.81V329.688C23.8264 329.906 24.0028 330.083 24.2211 330.083C24.4395 330.083 24.6158 329.906 24.6158 329.688V109.81C24.6158 109.592 24.4395 109.415 24.2211 109.415ZM30.6792 105.687C30.4609 105.687 30.2845 105.863 30.2845 106.081V325.959C30.2845 326.178 30.4609 326.354 30.6792 326.354C30.8976 326.354 31.0739 326.178 31.0739 325.959V106.081C31.0739 105.863 30.8976 105.687 30.6792 105.687Z" fill="#293E6A"/>
<path d="M50.507 114.58L47.1814 112.665L196.272 26.5938L199.598 28.5085L50.507 114.58Z" fill="#F0F0F0"/>
<path d="M50.9017 114.815L199.203 29.1887V257.263L50.8345 342.915L50.9017 114.815Z" fill="#FAFAFA"/>
<path d="M198.8 29.8774V257.028L51.2375 342.226L51.2963 115.042L198.8 29.8774ZM199.598 28.5085L50.5069 114.58L50.4397 343.595L199.598 257.481V28.5085Z" fill="#EBEBEB"/>
<path d="M50.507 114.58L50.4398 343.604L47.215 341.739L47.1814 112.666L50.4398 114.547L50.507 114.58Z" fill="#E0E0E0"/>
<path d="M241.344 277.914V281.744L92.2368 367.824L90.574 366.875C70.1332 355.075 57.4353 333.073 57.4353 309.466V131.796L206.526 45.7163L209.852 47.6311V223.386C209.852 245.876 221.852 266.669 241.344 277.914Z" fill="#F0F0F0"/>
<path d="M209.852 223.385V47.6309L60.761 133.711V309.465C60.761 331.955 72.7702 352.741 92.2369 363.994L241.336 277.914C221.852 266.669 209.852 245.875 209.852 223.385ZM61.4916 309.465V134.131L209.113 48.899V223.385C209.113 245.649 220.87 266.417 239.883 277.905L92.2369 363.146C73.2657 352.01 61.4916 331.485 61.4916 309.465Z" fill="#E0E0E0"/>
<path d="M239.883 277.905L92.237 363.146C73.2658 352.018 61.4917 331.485 61.4917 309.465V134.131L209.113 48.8989V223.385C209.113 245.649 220.87 266.417 239.883 277.905Z" fill="#FAFAFA"/>
<path d="M60.7609 309.465V133.711L57.4353 131.796V309.465C57.4353 333.072 70.1332 355.075 90.574 366.874L92.2368 367.823V363.994C72.7618 352.749 60.7609 331.964 60.7609 309.465Z" fill="#E0E0E0"/>
<path opacity="0.15" d="M92.2368 363.994V367.824L241.344 281.744V277.914L92.2368 363.994Z" fill="black"/>
<path d="M163.393 94.0385L198.976 73.4885C199.858 72.9846 200.563 73.3457 200.563 74.2947C200.563 75.2437 199.849 76.4278 198.976 76.9317L163.393 97.4734C162.512 97.9772 161.806 97.6245 161.806 96.6671C161.798 95.7266 162.512 94.5424 163.393 94.0385Z" fill="#E0E0E0"/>
<path d="M163.393 107.811L198.976 87.2698C199.858 86.7659 200.563 87.127 200.563 88.076C200.563 89.0249 199.849 90.2091 198.976 90.713L163.393 111.255C162.512 111.758 161.806 111.406 161.806 110.448C161.806 109.491 162.512 108.315 163.393 107.811Z" fill="#E0E0E0"/>
<path d="M176.713 93.2324L198.976 80.375C199.858 79.8711 200.563 80.2322 200.563 81.1812C200.563 82.1302 199.849 83.3143 198.976 83.8182L176.713 96.6756C175.831 97.1795 175.126 96.8184 175.126 95.8694C175.117 94.9204 175.831 93.7363 176.713 93.2324Z" fill="#E0E0E0"/>
<path d="M78.3129 183.881L194.609 116.739C195.491 116.235 196.196 116.596 196.196 117.545C196.196 118.494 195.483 119.678 194.609 120.182L78.3129 187.324C77.4311 187.828 76.7257 187.467 76.7257 186.518C76.7173 185.569 77.4311 184.385 78.3129 183.881Z" fill="#E0E0E0"/>
<path d="M78.3128 190.767L194.609 123.625C195.491 123.121 196.196 123.482 196.196 124.431C196.196 125.38 195.482 126.564 194.609 127.068L78.3128 194.211C77.431 194.715 76.7256 194.353 76.7256 193.404C76.7256 192.455 77.431 191.271 78.3128 190.767Z" fill="#E0E0E0"/>
<path d="M78.3129 197.654L194.609 130.511C195.491 130.008 196.196 130.369 196.196 131.318C196.196 132.267 195.483 133.451 194.609 133.955L78.3129 201.097C77.4311 201.601 76.7257 201.24 76.7257 200.291C76.7173 199.342 77.4311 198.158 78.3129 197.654Z" fill="#E0E0E0"/>
<path d="M78.3128 204.54L194.609 137.398C195.491 136.894 196.196 137.255 196.196 138.204C196.196 139.153 195.482 140.337 194.609 140.841L78.3128 207.983C77.431 208.487 76.7256 208.126 76.7256 207.177C76.7256 206.228 77.431 205.044 78.3128 204.54Z" fill="#E0E0E0"/>
<path d="M78.3128 218.439L194.609 151.297C195.491 150.793 196.196 151.154 196.196 152.103C196.196 153.052 195.482 154.236 194.609 154.74L78.3128 221.882C77.431 222.386 76.7256 222.025 76.7256 221.076C76.7256 220.127 77.431 218.951 78.3128 218.439Z" fill="#E0E0E0"/>
<path d="M78.3128 225.325L194.609 158.183C195.491 157.679 196.196 158.04 196.196 158.989C196.196 159.938 195.482 161.122 194.609 161.626L78.3128 228.769C77.431 229.272 76.7256 228.911 76.7256 227.962C76.7256 227.013 77.431 225.838 78.3128 225.325Z" fill="#E0E0E0"/>
<path d="M78.3129 232.212L194.609 165.069C195.491 164.565 196.196 164.927 196.196 165.876C196.196 166.825 195.483 168.009 194.609 168.513L78.3129 235.655C77.4311 236.159 76.7257 235.798 76.7257 234.849C76.7173 233.9 77.4311 232.724 78.3129 232.212Z" fill="#E0E0E0"/>
<path d="M78.3129 239.098L194.609 171.956C195.491 171.452 196.196 171.813 196.196 172.762C196.196 173.711 195.483 174.895 194.609 175.399L78.3129 242.541C77.4311 243.045 76.7257 242.684 76.7257 241.735C76.7173 240.786 77.4311 239.611 78.3129 239.098Z" fill="#E0E0E0"/>
<path d="M78.3128 253.005L194.609 185.863C195.491 185.359 196.196 185.72 196.196 186.669C196.196 187.618 195.482 188.802 194.609 189.306L78.3128 256.449C77.431 256.953 76.7256 256.591 76.7256 255.642C76.7256 254.693 77.431 253.509 78.3128 253.005Z" fill="#E0E0E0"/>
<path d="M78.3129 259.892L194.609 192.749C195.491 192.245 196.196 192.607 196.196 193.556C196.196 194.505 195.483 195.689 194.609 196.193L78.3129 263.335C77.4311 263.839 76.7257 263.478 76.7257 262.529C76.7173 261.58 77.4311 260.396 78.3129 259.892Z" fill="#E0E0E0"/>
<path d="M78.3128 266.778L140.635 230.767C141.517 230.264 142.222 230.625 142.222 231.574C142.222 232.523 141.508 233.707 140.635 234.211L78.3128 270.222C77.431 270.725 76.7256 270.364 76.7256 269.415C76.7256 268.466 77.431 267.282 78.3128 266.778Z" fill="#E0E0E0"/>
<path d="M78.3129 279.014L119.724 255.071C120.605 254.567 121.311 254.929 121.311 255.877C121.311 256.826 120.597 258.011 119.724 258.514L78.3129 282.457C77.4311 282.961 76.7257 282.6 76.7257 281.651C76.7173 280.702 77.4311 279.518 78.3129 279.014Z" fill="#001C63"/>
<path opacity="0.2" d="M181.399 233.178V229.583C173.446 234.177 166.98 246.539 166.98 257.137L169.675 255.584C169.667 246.959 174.932 236.906 181.399 233.178ZM191.787 242.81C191.787 235.168 187.126 231.641 181.391 234.95C175.663 238.259 170.994 247.169 170.994 254.811C170.994 262.453 175.655 265.981 181.391 262.672C187.126 259.363 191.787 250.453 191.787 242.81ZM172.346 254.03C172.346 247.379 176.402 239.627 181.391 236.747C181.743 236.545 182.079 236.377 182.424 236.235L172.413 255.374C172.371 254.945 172.346 254.5 172.346 254.03ZM172.741 257.297L184.011 235.764C186.925 235.26 189.218 237.016 190.074 240.417L178.854 261.849C175.932 262.395 173.614 260.673 172.741 257.297ZM190.393 242.348C190.427 242.743 190.444 243.163 190.444 243.591C190.444 250.243 186.387 257.994 181.399 260.874C181.08 261.059 180.761 261.219 180.45 261.353L190.393 242.348ZM181.399 226.014C171.968 231.456 164.301 246.111 164.301 258.683C164.301 271.255 171.968 277.058 181.399 271.607C190.83 266.165 198.497 251.511 198.497 238.939C198.497 226.367 190.822 220.564 181.399 226.014ZM181.399 269.81C172.715 274.824 165.644 269.482 165.644 257.902C165.644 246.321 172.707 232.817 181.399 227.803C190.083 222.789 197.154 228.13 197.154 239.711C197.145 251.301 190.083 264.796 181.399 269.81ZM193.123 242.038C193.123 250.654 187.865 260.707 181.399 264.444V268.038C189.352 263.444 195.818 251.082 195.818 240.484L193.123 242.038Z" fill="#BA68C8"/>
<path d="M152.417 292.426L88.2815 329.478C87.576 329.881 86.7866 329.596 86.5347 328.823C86.5263 328.79 86.5095 328.756 86.5011 328.714C86.2491 327.941 86.6354 326.984 87.3409 326.581L151.477 289.52C152.182 289.117 152.93 289.419 153.182 290.192C153.19 290.226 153.207 290.268 153.215 290.301C153.467 291.074 153.123 292.023 152.417 292.426Z" fill="#E0E0E0"/>
<path d="M136.99 310.037L92.0773 336.071C91.3718 336.474 90.5236 336.213 90.2045 335.466C90.1961 335.449 90.1877 335.424 90.1793 335.407C89.8518 334.66 90.1793 333.728 90.8847 333.316L135.798 307.282C136.503 306.879 137.309 307.156 137.637 307.904C137.645 307.92 137.653 307.946 137.662 307.962C137.981 308.71 137.695 309.634 136.99 310.037Z" fill="#E0E0E0"/>
<path d="M210.7 267.769L165.787 293.803C165.082 294.206 164.233 293.946 163.914 293.199C163.906 293.182 163.897 293.157 163.889 293.14C163.561 292.392 163.889 291.46 164.594 291.049L209.507 265.015C210.213 264.612 211.019 264.889 211.346 265.636C211.355 265.653 211.363 265.678 211.372 265.695C211.682 266.442 211.397 267.358 210.7 267.769Z" fill="#E0E0E0"/>
<path d="M126.056 288.462C125.208 290.452 123.923 292.224 122.453 293.45C122.302 293.576 122.117 293.753 121.932 293.786C121.622 293.845 121.521 293.576 121.479 293.224C121.412 292.661 121.521 292.048 121.588 291.485C121.722 290.335 121.89 289.184 122.084 288.051C122.386 286.211 122.73 284.381 123.091 282.55C123.419 281.777 123.73 280.996 124.024 280.198C124.872 277.922 125.586 275.563 126.165 273.144C126.728 270.793 127.248 268.24 126.82 265.804C126.778 265.569 126.467 265.384 126.35 265.645C125.35 267.878 124.989 270.574 124.485 273.043C123.898 275.899 123.31 278.754 122.722 281.609C122.68 281.802 122.646 281.987 122.604 282.18C122.042 283.532 121.428 284.859 120.773 286.136C120.387 286.892 119.984 287.631 119.564 288.361C119.169 289.042 118.783 289.814 118.304 290.385C117.658 291.149 116.818 290.906 116.432 289.932C116.348 289.722 116.297 289.503 116.264 289.277C116.86 288.739 117.33 287.958 117.75 287.202C118.212 286.363 118.615 285.456 118.951 284.515C119.295 283.541 119.556 282.516 119.732 281.475C119.85 280.795 120.093 279.753 119.682 279.182C119.22 278.544 118.682 279.132 118.372 279.669C117.868 280.534 117.431 281.466 117.07 282.441C116.373 284.297 115.693 286.581 115.76 288.672C115.76 288.756 115.768 288.832 115.777 288.916C115.709 288.974 115.651 289.025 115.575 289.075C114.861 289.587 113.677 289.419 113.652 288.101C113.644 287.765 113.249 287.631 113.123 287.925C112.669 288.932 112.636 290.192 112.09 291.124C111.846 291.544 111.376 292.065 110.965 291.762C110.763 291.611 110.629 291.317 110.645 291.023C110.696 290.872 110.746 290.721 110.797 290.57C110.897 290.251 110.477 290.024 110.318 290.251C110.175 290.461 110.108 290.679 110.091 290.897C109.839 291.653 109.554 292.384 109.243 293.106C109.109 292.35 109.117 291.569 109.235 290.797C109.277 290.494 108.773 290.293 108.705 290.62C108.495 291.653 108.218 292.661 107.866 293.627C107.681 294.122 107.488 294.609 107.269 295.088C107.026 295.609 106.765 296.247 106.388 296.625C106.22 296.793 105.976 296.952 105.766 296.835C105.506 296.684 105.523 296.188 105.523 295.861C105.514 295.306 105.523 294.752 105.556 294.206C105.632 293.123 105.817 292.048 106.068 291.007C106.152 290.646 105.64 290.41 105.531 290.771C105.036 292.468 104.431 294.106 103.725 295.668C103.381 296.432 103.02 297.188 102.617 297.901C102.432 298.229 101.953 298.985 101.542 298.968C101.626 298.817 101.701 298.674 101.777 298.523C102.659 296.835 103.465 295.071 104.103 293.207C104.716 291.418 105.262 289.453 105.405 287.496C105.447 286.883 105.304 286.304 104.935 286.052C105.111 285.036 105.17 284.003 105.002 283.062C104.674 281.307 103.373 280.66 102.096 281.063C100.568 281.542 99.3584 283.079 98.3003 284.532C96.2763 287.32 94.6135 290.545 93.4042 294.038C92.7911 295.794 92.2957 297.616 91.9177 299.472C91.565 301.219 91.0863 303.343 91.691 305.065C93.1187 309.163 97.0825 305.384 98.695 303.394C99.6439 302.218 100.484 300.883 101.248 299.497C101.685 299.699 102.163 299.447 102.524 299.077C103.07 298.515 103.44 297.666 103.801 296.91C104.246 295.987 104.658 295.038 105.027 294.064C105.002 294.425 104.994 294.786 104.985 295.147C104.977 295.718 104.918 296.474 105.187 296.952C105.388 297.314 105.749 297.465 106.085 297.44C106.992 297.356 107.513 295.928 107.908 295.021C108.21 294.332 108.47 293.618 108.689 292.888C108.747 293.266 108.831 293.635 108.941 293.996C109.016 294.231 109.319 294.273 109.419 294.055C109.764 293.325 110.066 292.577 110.351 291.813C110.637 292.224 111.099 292.493 111.502 292.392C112.737 292.098 112.963 290.335 113.35 288.966C113.526 289.293 113.778 289.545 114.08 289.713C114.668 290.041 115.298 289.957 115.861 289.587C115.995 290.158 116.247 290.671 116.642 291.032C117.171 291.502 117.826 291.594 118.397 291.133C119.069 290.587 119.556 289.562 120.018 288.748C120.538 287.841 121.042 286.908 121.521 285.951C121.706 285.582 121.882 285.212 122.058 284.834C121.756 286.388 121.462 287.95 121.227 289.52C121.126 290.184 121.034 290.847 120.958 291.519C120.891 292.082 120.799 292.669 120.857 293.232C120.958 294.156 121.546 294.668 122.243 294.383C122.671 294.206 123.066 293.803 123.427 293.459C123.872 293.039 124.284 292.569 124.67 292.065C125.443 291.065 126.047 289.94 126.577 288.706C126.728 288.378 126.199 288.135 126.056 288.462ZM124.897 273.665C125.174 272.279 125.451 270.893 125.737 269.516C125.93 268.609 126.14 267.719 126.442 266.862C126.518 268.365 126.291 269.869 125.972 271.33C125.602 273.043 125.174 274.74 124.67 276.402C124.393 277.335 124.091 278.25 123.763 279.157C124.141 277.326 124.519 275.495 124.897 273.665ZM99.5516 301.026C98.6614 302.394 97.6704 303.671 96.5199 304.67C95.974 305.149 95.3861 305.569 94.7731 305.888C94.1684 306.207 93.505 306.434 92.9339 305.93C91.8422 304.964 91.9597 302.965 92.1865 301.471C92.4216 299.909 92.7575 298.372 93.1774 296.868C94.0089 293.845 95.1762 290.973 96.6206 288.353C97.3597 287.009 98.1743 285.741 99.0645 284.557C100.022 283.28 101.156 281.861 102.55 281.584C104.548 281.181 104.674 283.541 104.288 285.901C103.709 285.976 103.138 286.413 102.718 286.9C101.626 288.151 100.979 290.091 100.568 291.863C100.433 292.434 100.333 293.022 100.265 293.61C99.7447 293.929 99.1653 294.164 98.6026 294.181C97.7208 294.206 97.8468 292.703 97.9391 291.922C98.0399 291.04 98.2667 290.2 98.5774 289.403C98.6614 289.201 98.3171 288.907 98.2247 289.117C97.8468 289.999 97.578 290.939 97.4437 291.93C97.3429 292.72 97.2673 293.711 97.7292 294.324C98.1911 294.929 98.9301 294.786 99.5096 294.609C99.7363 294.542 99.9631 294.45 100.19 294.341C100.114 295.382 100.148 296.44 100.324 297.456C100.408 297.969 100.509 298.582 100.769 299.018C100.375 299.707 99.9631 300.379 99.5516 301.026ZM104.145 286.614C103.877 287.908 103.49 289.117 103.23 289.755C102.676 291.091 101.911 292.283 100.937 293.115C101.147 291.821 101.508 290.562 101.995 289.403C102.306 288.655 102.684 287.916 103.18 287.353C103.44 287.06 103.725 286.816 104.045 286.665C104.078 286.648 104.112 286.631 104.145 286.614ZM101.088 298.405C101.021 298.153 100.979 297.868 100.937 297.675C100.862 297.272 100.803 296.852 100.769 296.432C100.711 295.626 100.719 294.803 100.811 293.996C100.811 293.988 100.811 293.971 100.811 293.963C101.08 293.786 101.34 293.585 101.584 293.358C102.827 292.191 103.7 290.494 104.263 288.655C104.439 288.084 104.616 287.463 104.758 286.816C104.767 286.858 104.775 286.908 104.784 286.984C104.8 287.177 104.775 287.387 104.75 287.58C104.557 289.235 104.171 290.864 103.675 292.409C102.995 294.509 102.105 296.524 101.088 298.405ZM116.364 286.824C116.633 285.103 117.12 283.457 117.792 281.928C118.111 281.215 118.472 280.299 118.943 279.736C118.993 279.678 119.228 279.417 119.312 279.485C119.354 279.518 119.363 279.745 119.363 279.795C119.379 279.997 119.346 280.198 119.321 280.392C119.262 280.853 119.186 281.307 119.102 281.752C118.733 283.591 118.103 285.346 117.238 286.883C116.936 287.429 116.6 287.992 116.205 288.454C116.205 287.908 116.28 287.345 116.364 286.824ZM143.423 278.72C143.339 278.695 143.247 278.687 143.163 278.67C143.23 277.351 143.238 276.033 143.213 274.748C143.171 272.262 143.003 269.785 142.734 267.333C142.709 267.081 142.676 266.829 142.634 266.577C142.76 265.821 142.869 265.065 142.944 264.301C143.095 262.814 143.196 260.958 142.113 260.06C141.97 259.942 141.743 259.951 141.701 260.203C141.441 261.933 141.735 263.654 141.962 265.342C142.004 265.628 142.037 265.922 142.071 266.207C141.878 267.425 141.626 268.626 141.315 269.81C140.92 271.347 140.425 272.833 139.854 274.269C139.56 274.992 139.258 275.714 138.922 276.402C138.561 277.158 138.124 277.956 137.469 278.275C137.334 277.99 137.276 277.687 137.284 277.335C137.292 277.024 136.881 276.814 136.805 277.167C136.789 277.251 136.763 277.335 136.73 277.41C136.805 276.579 136.889 275.747 137.015 274.924C137.057 274.647 136.612 274.412 136.537 274.706C136.293 275.672 135.982 276.612 135.571 277.486C135.352 277.956 135.117 278.41 134.857 278.838C134.706 279.09 134.37 279.644 134.093 279.602C133.463 279.518 133.933 277.116 134.051 276.579C134.084 276.428 134.126 276.285 134.168 276.134C134.487 275.403 134.781 274.647 135.05 273.875C135.151 273.572 134.739 273.295 134.605 273.572C134.361 274.068 134.16 274.58 133.984 275.101C133.228 276.89 132.363 278.586 131.355 280.156C130.742 281.114 129.936 282.6 128.92 282.751C128.332 282.844 128.147 282.323 128.122 281.643C129.121 280.568 130.02 279.325 130.792 277.939C131.347 276.948 134.017 271.473 131.548 271.716C130.465 271.817 129.801 273.22 129.323 274.336C128.743 275.697 128.298 277.141 127.987 278.636C127.845 279.342 127.719 280.064 127.635 280.786C127.609 280.988 127.593 281.206 127.593 281.416C126.795 282.264 125.938 283.012 125.031 283.642C124.838 283.776 125.132 284.171 125.308 284.053C126.131 283.507 126.912 282.861 127.651 282.13C127.685 282.323 127.744 282.508 127.836 282.667C128.432 283.81 129.667 283.247 130.347 282.533C131.372 281.458 132.228 279.938 132.984 278.544C133.127 278.275 133.261 278.006 133.404 277.738C133.287 278.611 133.236 279.728 133.841 280.039C134.555 280.417 135.185 279.35 135.546 278.703C135.806 278.25 136.024 277.771 136.234 277.276C136.209 277.57 136.192 277.864 136.184 278.149C136.175 278.368 136.402 278.594 136.562 278.477C136.705 278.376 136.822 278.25 136.923 278.116C136.99 278.334 137.074 278.536 137.2 278.729C137.267 278.838 137.393 278.897 137.502 278.863C138.922 278.452 139.686 276.293 140.316 274.756C140.979 273.136 141.533 271.439 141.97 269.701C142.088 269.222 142.205 268.735 142.306 268.248C142.407 269.289 142.491 270.339 142.55 271.397C142.676 273.749 142.751 276.167 142.6 278.561C141.458 278.51 140.341 279.014 139.308 279.703C138.023 280.559 136.688 281.609 135.663 282.961C134.739 284.187 134.135 285.758 134.244 287.496C134.345 289.05 135.101 290.385 136.276 290.738C138.821 291.511 140.954 288.26 141.92 285.573C142.642 283.574 142.978 281.399 143.121 279.207C143.213 279.216 143.305 279.224 143.389 279.241C143.759 279.35 143.725 278.804 143.423 278.72ZM128.441 279.291C128.668 278.099 128.978 276.94 129.381 275.831C129.776 274.723 130.246 273.362 131.044 272.64C131.204 272.497 131.632 272.17 131.825 272.296C132.144 272.497 132.077 272.917 132.027 273.278C131.934 273.925 131.75 274.546 131.531 275.134C131.111 276.268 130.574 277.335 129.978 278.317C129.44 279.216 128.836 280.039 128.189 280.803C128.256 280.198 128.382 279.61 128.441 279.291ZM142.331 264.502C142.163 263.301 142.046 262.084 142.163 260.891C142.676 261.798 142.499 263.327 142.331 264.502ZM142.18 282.273C141.651 285.204 140.458 288.554 138.208 289.831C137.141 290.436 135.848 290.352 135.227 288.932C134.613 287.53 134.874 285.724 135.554 284.423C136.419 282.76 137.847 281.651 139.157 280.685C140.207 279.904 141.365 279.258 142.566 279.207C142.482 280.24 142.365 281.265 142.18 282.273Z" fill="#455A64"/>
<path d="M57.8721 313.203C57.998 317.905 58.6615 322.524 59.8036 326.992L77.8594 316.604L82.6799 302.604L77.8594 301.697L57.8721 313.203Z" fill="#E0E0E0"/>
<path d="M76.2301 298.884L40.7231 319.375V334.29L76.2301 313.791L82.6798 302.613L76.2301 298.884Z" fill="#029894"/>
<path d="M54.3364 314.991C54.3868 314.958 54.4372 314.966 54.4708 315C54.5128 315.033 54.5295 315.092 54.5295 315.176V322.289C54.5295 322.373 54.5128 322.449 54.4708 322.533C54.4288 322.617 54.3868 322.667 54.3364 322.701L53.7569 323.037C53.7065 323.07 53.6562 323.062 53.6226 323.028C53.5806 322.995 53.5638 322.936 53.5638 322.852V319.946L51.4055 321.189V324.095C51.4055 324.179 51.3887 324.254 51.3467 324.338C51.3047 324.422 51.2627 324.473 51.2123 324.506L50.6329 324.842C50.5825 324.876 50.5321 324.876 50.4985 324.842C50.4565 324.809 50.4397 324.75 50.4397 324.658V317.544C50.4397 317.46 50.4565 317.385 50.4985 317.301C50.5405 317.217 50.5825 317.166 50.6329 317.133L51.2123 316.797C51.2627 316.763 51.3131 316.772 51.3467 316.805C51.3803 316.839 51.4055 316.898 51.4055 316.982V319.812L53.5638 318.569V315.739C53.5638 315.655 53.5806 315.579 53.6226 315.495C53.6646 315.42 53.7065 315.361 53.7569 315.327L54.3364 314.991Z" fill="white"/>
<path d="M58.9808 318.636C59.0311 318.603 59.0815 318.611 59.1151 318.645C59.1571 318.678 59.1739 318.737 59.1739 318.821V319.602C59.1739 319.686 59.1571 319.762 59.1151 319.846C59.0731 319.93 59.0311 319.98 58.9808 320.013L55.8399 321.827C55.7895 321.861 55.7391 321.853 55.7055 321.819C55.6635 321.785 55.6467 321.727 55.6467 321.643V314.53C55.6467 314.446 55.6635 314.37 55.7055 314.286C55.7475 314.202 55.7895 314.152 55.8399 314.118L58.922 312.338C58.9724 312.304 59.0227 312.312 59.0563 312.346C59.0983 312.38 59.1151 312.438 59.1151 312.522V313.303C59.1151 313.387 59.0983 313.463 59.0563 313.547C59.0143 313.631 58.9724 313.681 58.922 313.715L56.6125 315.05V316.797L58.7624 315.554C58.8128 315.521 58.8632 315.529 58.8968 315.563C58.9388 315.596 58.9556 315.655 58.9556 315.739V316.52C58.9556 316.604 58.9388 316.679 58.8968 316.763C58.8548 316.847 58.8128 316.898 58.7624 316.931L56.6125 318.174V320.005L58.9808 318.636Z" fill="white"/>
<path d="M62.0962 310.507C62.6925 310.162 63.146 310.112 63.4567 310.364C63.7675 310.608 63.9186 311.111 63.9186 311.867C63.9186 312.405 63.8346 312.909 63.6751 313.379C63.5155 313.849 63.2804 314.269 62.9696 314.63L63.9522 316.78C63.969 316.814 63.9774 316.856 63.9774 316.889C63.9774 316.956 63.9606 317.024 63.927 317.082C63.8934 317.15 63.8598 317.192 63.8179 317.217L63.2132 317.57C63.1208 317.628 63.0452 317.628 63.0032 317.586C62.9612 317.544 62.9277 317.494 62.9025 317.452L61.9619 315.428L61.0129 315.974V318.535C61.0129 318.619 60.9961 318.695 60.9541 318.779C60.9121 318.863 60.8701 318.913 60.8197 318.947L60.2403 319.283C60.1899 319.316 60.1395 319.308 60.1059 319.274C60.0639 319.241 60.0471 319.182 60.0471 319.098V311.985C60.0471 311.901 60.0639 311.825 60.1059 311.741C60.1479 311.657 60.1899 311.607 60.2403 311.573L62.0962 310.507ZM61.0213 314.597L62.0543 314C62.323 313.841 62.5413 313.648 62.7009 313.404C62.8605 313.161 62.9445 312.841 62.9445 312.43C62.9445 312.018 62.8605 311.792 62.7009 311.741C62.5413 311.691 62.323 311.75 62.0543 311.909L61.0213 312.506V314.597Z" fill="white"/>
<path d="M68.1849 313.32C68.2352 313.287 68.2856 313.295 68.3192 313.329C68.3612 313.362 68.378 313.421 68.378 313.505V314.286C68.378 314.37 68.3612 314.446 68.3192 314.529C68.2772 314.613 68.2352 314.664 68.1849 314.697L65.044 316.511C64.9936 316.545 64.9432 316.537 64.9096 316.503C64.8676 316.469 64.8508 316.411 64.8508 316.327V309.214C64.8508 309.13 64.8676 309.054 64.9096 308.97C64.9516 308.886 64.9936 308.836 65.044 308.802L68.1261 307.022C68.1765 306.988 68.2269 306.996 68.2604 307.03C68.3024 307.064 68.3192 307.122 68.3192 307.206V307.987C68.3192 308.071 68.3024 308.147 68.2604 308.231C68.2185 308.315 68.1765 308.365 68.1261 308.399L65.8166 309.734V311.481L67.9665 310.238C68.0169 310.204 68.0673 310.213 68.1009 310.246C68.1429 310.28 68.1597 310.339 68.1597 310.423V311.204C68.1597 311.288 68.1429 311.363 68.1009 311.447C68.0589 311.531 68.0169 311.582 67.9665 311.615L65.8166 312.858V314.689L68.1849 313.32Z" fill="white"/>
<path d="M305.959 315.185L300.979 313.287L302.625 309.919L305.682 312.791L305.959 315.185Z" fill="black"/>
<path d="M311.158 306.207C311.158 306.207 311.342 309.457 311.376 310.482C311.418 311.506 307.034 314.664 305.951 315.185L305.674 312.783C304.733 313.715 304.17 314.899 303.154 316.646C302.306 318.099 301.223 320.853 298.905 322.726C295.462 325.506 290.121 326.891 284.67 327.068C279.22 327.244 276.104 325.884 274.567 324.7C273.022 323.507 272.543 322.13 272.93 320.744C273.333 319.367 311.158 306.207 311.158 306.207Z" fill="#263238"/>
<path d="M296.637 295.054L296.579 293.165C295.571 293.131 295.445 295.861 293.967 298.246C291.985 301.454 289.062 305.476 286.249 308.013C280.698 313.018 275.751 316.159 273.282 318.418C269.965 321.433 275.743 326.287 284.637 325.825C289.054 325.598 296.906 323.415 299.115 320.82C301.332 318.225 302.701 314.16 304.473 312.279C306.245 310.389 310.041 308.5 311.149 306.207C311.762 304.947 311.452 301.991 311.107 299.489C310.788 297.188 310.738 293.66 309.436 293.937L309.335 295.122C308.798 296.129 307.563 297.784 304.002 298.363C302.239 298.657 296.931 298.792 296.637 295.054Z" fill="#37474F"/>
<path opacity="0.15" d="M301.155 298.447C299.459 298.296 297.628 297.725 296.931 296.188C296.923 296.171 296.906 296.154 296.898 296.138C296.898 296.138 297.334 297.901 295.73 299.757C294.135 301.613 284.023 314.681 284.023 314.681C284.023 314.681 293.421 303.897 295.226 301.874C297.889 298.875 298.737 298.523 301.164 298.456C301.164 298.447 301.164 298.447 301.155 298.447Z" fill="black"/>
<path opacity="0.15" d="M298.922 301.916C298.955 302.218 299.224 302.428 299.518 302.403C299.82 302.369 300.03 302.1 300.005 301.806C299.971 301.504 299.703 301.294 299.409 301.319C299.106 301.345 298.888 301.613 298.922 301.916Z" fill="black"/>
<path opacity="0.15" d="M296.284 304.805C296.318 305.107 296.587 305.317 296.881 305.292C297.183 305.258 297.393 304.989 297.368 304.695C297.334 304.393 297.065 304.183 296.771 304.208C296.469 304.234 296.251 304.502 296.284 304.805Z" fill="black"/>
<path opacity="0.15" d="M293.647 307.693C293.681 307.996 293.95 308.206 294.244 308.18C294.546 308.147 294.756 307.878 294.731 307.584C294.697 307.282 294.428 307.072 294.135 307.097C293.832 307.122 293.614 307.391 293.647 307.693Z" fill="black"/>
<path opacity="0.15" d="M291.002 310.582C291.036 310.885 291.304 311.095 291.598 311.069C291.901 311.036 292.111 310.767 292.085 310.473C292.052 310.171 291.783 309.961 291.489 309.986C291.187 310.011 290.977 310.28 291.002 310.582Z" fill="black"/>
<path opacity="0.15" d="M288.365 313.471C288.399 313.774 288.668 313.984 288.961 313.958C289.264 313.925 289.474 313.656 289.449 313.362C289.415 313.06 289.146 312.85 288.852 312.875C288.55 312.9 288.332 313.169 288.365 313.471Z" fill="black"/>
<path d="M299.476 302.075C299.526 302.075 299.577 302.05 299.619 302.008C299.703 301.924 299.703 301.781 299.619 301.697C299.51 301.588 296.906 299.052 293.48 299.237C293.48 299.237 293.48 299.237 293.471 299.237C293.354 299.245 293.261 299.346 293.27 299.463C293.278 299.581 293.379 299.673 293.497 299.673C296.73 299.505 299.274 301.983 299.3 302.008C299.358 302.058 299.417 302.075 299.476 302.075Z" fill="#263238"/>
<path d="M296.839 304.956C296.889 304.956 296.939 304.931 296.981 304.889C297.065 304.805 297.065 304.662 296.981 304.578C296.872 304.469 294.269 301.932 290.842 302.117C290.725 302.126 290.633 302.226 290.641 302.344C290.649 302.461 290.75 302.554 290.868 302.554C294.093 302.386 296.646 304.863 296.671 304.889C296.713 304.939 296.78 304.956 296.839 304.956Z" fill="#263238"/>
<path d="M294.202 307.853C294.252 307.853 294.303 307.828 294.345 307.786C294.429 307.702 294.429 307.559 294.345 307.475C294.235 307.366 291.632 304.83 288.206 305.015C288.206 305.015 288.206 305.015 288.197 305.015C288.08 305.023 287.987 305.124 287.996 305.241C288.004 305.359 288.105 305.451 288.222 305.451C291.447 305.283 294 307.761 294.025 307.786C294.076 307.836 294.143 307.853 294.202 307.853Z" fill="#263238"/>
<path d="M291.565 310.742C291.615 310.742 291.666 310.717 291.708 310.675C291.791 310.591 291.791 310.448 291.708 310.364C291.598 310.255 288.995 307.719 285.569 307.903C285.451 307.912 285.359 308.013 285.367 308.13C285.375 308.248 285.476 308.34 285.594 308.34C288.819 308.172 291.372 310.65 291.397 310.675C291.439 310.725 291.506 310.742 291.565 310.742Z" fill="#263238"/>
<path d="M288.928 313.631C288.978 313.631 289.029 313.606 289.071 313.564C289.155 313.48 289.155 313.337 289.071 313.253C288.961 313.144 286.358 310.608 282.932 310.792C282.932 310.792 282.932 310.792 282.923 310.792C282.806 310.801 282.713 310.902 282.722 311.019C282.73 311.137 282.831 311.229 282.948 311.229C286.173 311.061 288.726 313.539 288.752 313.564C288.802 313.614 288.861 313.631 288.928 313.631Z" fill="#263238"/>
<path d="M346.723 330.881C347.479 335.13 348.487 337.893 350.301 340.219C352.115 342.545 355.382 342.814 357.809 342.302C361.218 341.588 364.569 339.22 365.871 334.341C366.652 331.41 366.114 328.05 364.981 324.154L346.723 330.881Z" fill="#263238"/>
<path d="M356.188 298.229C357.397 298.178 358.43 303.889 359.807 309.558C361.277 315.638 363.578 318.863 364.687 322.953C366.224 328.613 366.131 331.258 364.527 334.996C362.923 338.733 354.55 343.284 350.427 338.707C347.059 334.97 346.404 330.461 345.984 324.658C345.548 318.661 345.287 314.437 344.506 309.944C343.759 305.644 342.961 301.487 343.943 300.883C344.103 301.512 344.271 302.302 344.431 302.915C344.557 303.385 344.951 305.712 345.623 305.661C345.623 305.098 345.548 304.586 345.447 304.032C345.354 303.545 345.338 303.007 345.606 302.596C345.883 302.184 346.387 302 346.866 301.848C348.017 301.479 349.175 301.126 350.36 300.874C350.947 300.748 351.544 300.647 352.14 300.589C352.627 300.538 354.811 300.228 355.289 300.345C355.583 300.412 355.869 300.589 356.003 300.857C356.104 301.059 356.121 301.286 356.146 301.512C356.196 301.916 356.289 302.302 356.44 302.68C356.507 302.848 356.65 303.041 356.809 302.974C356.944 302.923 356.977 302.747 356.96 302.604C356.885 301.907 356.734 301.412 356.608 300.605C356.549 300.236 356.423 299.732 356.373 299.354C356.305 298.968 356.255 298.598 356.188 298.229Z" fill="#37474F"/>
<path opacity="0.15" d="M360.471 324.901C360.521 325.128 360.378 325.354 360.152 325.405C359.925 325.455 359.698 325.313 359.648 325.086C359.597 324.859 359.74 324.632 359.967 324.582C360.194 324.532 360.42 324.674 360.471 324.901Z" fill="black"/>
<path opacity="0.15" d="M359.598 320.962C359.648 321.189 359.505 321.416 359.278 321.466C359.052 321.517 358.825 321.374 358.775 321.147C358.724 320.92 358.867 320.694 359.094 320.643C359.32 320.593 359.547 320.736 359.598 320.962Z" fill="black"/>
<path opacity="0.15" d="M358.766 317.242C358.816 317.469 358.674 317.695 358.447 317.746C358.22 317.796 357.993 317.653 357.943 317.427C357.893 317.2 358.035 316.973 358.262 316.923C358.497 316.872 358.716 317.015 358.766 317.242Z" fill="black"/>
<path opacity="0.15" d="M357.951 313.58C358.002 313.807 357.859 314.034 357.632 314.084C357.405 314.135 357.179 313.992 357.128 313.765C357.078 313.538 357.221 313.312 357.447 313.261C357.683 313.202 357.901 313.354 357.951 313.58Z" fill="black"/>
<path opacity="0.15" d="M348.562 315.294C348.613 315.52 348.47 315.747 348.243 315.797C348.017 315.848 347.79 315.705 347.739 315.478C347.689 315.252 347.832 315.025 348.058 314.974C348.285 314.924 348.512 315.067 348.562 315.294Z" fill="black"/>
<path opacity="0.15" d="M349.385 318.98C349.436 319.207 349.293 319.434 349.066 319.484C348.84 319.535 348.613 319.392 348.562 319.165C348.512 318.938 348.655 318.712 348.881 318.661C349.108 318.611 349.335 318.754 349.385 318.98Z" fill="black"/>
<path opacity="0.15" d="M350.209 322.701C350.259 322.927 350.116 323.154 349.889 323.205C349.663 323.255 349.436 323.112 349.386 322.885C349.335 322.659 349.478 322.432 349.705 322.382C349.931 322.331 350.158 322.474 350.209 322.701Z" fill="black"/>
<path opacity="0.15" d="M351.082 326.648C351.132 326.874 350.99 327.101 350.763 327.152C350.536 327.202 350.309 327.059 350.259 326.832C350.209 326.606 350.351 326.379 350.578 326.329C350.813 326.278 351.032 326.421 351.082 326.648Z" fill="black"/>
<path opacity="0.15" d="M354.827 328.109L348.302 300.664L349.839 300.446L354.827 328.109Z" fill="black"/>
<path d="M360.101 325.203C360.084 325.212 360.059 325.212 360.034 325.203C357.195 324.918 352.518 325.766 350.779 326.883C350.679 326.95 350.553 326.917 350.485 326.816C350.418 326.715 350.452 326.581 350.553 326.522C352.392 325.329 357.111 324.473 360.084 324.775C360.202 324.783 360.286 324.893 360.278 325.01C360.261 325.111 360.194 325.186 360.101 325.203Z" fill="#263238"/>
<path d="M359.228 321.265C359.194 321.273 359.152 321.273 359.119 321.256C356.893 320.509 351.896 321.668 349.906 322.953C349.805 323.02 349.679 322.986 349.612 322.885C349.545 322.785 349.579 322.65 349.679 322.592C351.754 321.256 356.91 320.064 359.253 320.853C359.362 320.887 359.429 321.013 359.387 321.122C359.362 321.198 359.303 321.248 359.228 321.265Z" fill="#263238"/>
<path d="M358.405 317.544C358.371 317.553 358.329 317.553 358.296 317.536C356.07 316.788 351.073 317.947 349.091 319.232C348.991 319.299 348.865 319.266 348.797 319.165C348.73 319.064 348.764 318.93 348.865 318.871C350.931 317.536 356.087 316.343 358.438 317.133C358.548 317.166 358.615 317.292 358.573 317.401C358.539 317.477 358.472 317.527 358.405 317.544Z" fill="#263238"/>
<path d="M357.59 313.874C357.557 313.883 357.515 313.883 357.481 313.866C355.256 313.118 350.259 314.277 348.268 315.562C348.168 315.629 348.042 315.596 347.974 315.495C347.907 315.394 347.941 315.26 348.042 315.201C350.116 313.866 355.264 312.673 357.615 313.463C357.725 313.496 357.792 313.622 357.75 313.732C357.725 313.807 357.657 313.866 357.59 313.874Z" fill="#263238"/>
<path d="M349.704 158.317C352.493 193.681 354.206 241.836 354.206 241.836C354.458 244.523 357.036 255.987 358.338 269.23C359.707 283.205 360.815 309.381 360.815 309.381C360.815 309.381 351.04 314.639 343.12 312.002C343.12 312.002 334.63 267.92 330.565 251.443C326.719 235.856 320.714 206.312 320.714 206.312L316.616 235.546C316.616 235.546 317.162 245.623 316.86 252.678C316.515 260.883 311.275 300.303 311.275 300.303C311.275 300.303 300.643 306.568 292.421 300.27C292.421 300.27 291.002 245.901 290.767 236.033C290.313 216.675 292.573 179.161 293.278 154.177L349.704 158.317Z" fill="#263238"/>
<path d="M335.327 199.023C336.066 207.496 336.897 215.97 337.796 224.427C338.241 228.659 338.703 232.884 339.182 237.116L339.904 243.457L340.273 246.623C340.391 247.681 340.609 248.722 340.769 249.772C342.163 258.162 344.313 273.404 345.833 281.769C347.345 290.142 348.974 298.489 350.704 306.82C349.604 298.38 348.394 289.965 347.076 281.567C345.766 273.169 343.717 257.918 342.28 249.545C342.113 248.496 341.894 247.454 341.768 246.396L341.382 243.23L340.584 236.906C340.055 232.69 339.501 228.475 338.938 224.267C337.813 215.844 336.62 207.429 335.327 199.023Z" fill="black"/>
<path d="M296.167 196.621C295.277 204.532 294.806 212.476 294.471 220.421C294.16 228.357 293.816 236.344 294.118 244.28C294.311 252.224 294.513 265.552 294.815 273.497C295.092 281.441 295.47 289.386 295.949 297.33C296.075 289.377 296.1 281.424 296.024 273.48C295.974 265.535 295.831 252.216 295.663 244.271L295.512 238.309L295.478 236.822L295.495 235.344L295.529 232.363L295.671 220.446L295.865 208.529C295.907 204.565 296.033 200.593 296.167 196.621Z" fill="black"/>
<path d="M320.723 206.312L317.271 186.946C317.271 186.946 307.672 185.552 302.751 181.126C302.751 181.126 305.925 186.963 314.979 189.256L318.413 206.371L316.633 235.546L320.723 206.312Z" fill="black"/>
<path d="M279.01 97.8261C279.077 96.1213 279.875 94.8112 281.882 93.4507C283.889 92.0902 284.88 91.3428 285.989 89.8479C287.106 88.3531 289.004 85.5649 290.146 84.6327C291.296 83.7005 289.919 82.382 287.903 82.6088C285.896 82.8355 281.353 85.1366 280.261 87.5468C279.186 89.9655 278.43 95.1219 279.01 97.8261Z" fill="#F28F8F"/>
<path d="M305.094 89.8564C300.475 90.2091 294.949 90.2091 290.162 99.0438C285.224 108.164 281.109 115.37 281.109 115.37C281.109 115.37 279.573 108.878 279.178 102.546C278.783 96.2137 278.951 93.4423 280.95 89.806C283.595 86.4216 288.432 78.0991 288.651 77.3853C285.56 77.4272 279.228 78.4602 278.103 78.8297C277.574 79.0061 277.02 79.258 276.768 79.7535C276.591 80.1062 276.591 80.5345 276.432 80.8956C276.205 81.4079 275.684 81.7186 275.172 81.9538C274.114 82.4577 272.879 82.9028 272.375 83.9609C272.098 84.5488 272.098 85.2374 271.863 85.8505C271.468 86.8667 270.503 87.4881 269.747 88.2187C268.806 89.1341 268.504 90.3434 268.193 91.5864C266.581 98.1116 266.144 104.729 266.144 114.832C266.144 121.845 266.564 131.444 268.966 136.751C271.368 142.059 276.197 148.055 283.284 140.967C290.372 133.879 302.743 114.169 302.743 114.169L305.094 89.8564Z" fill="#FFA8A7"/>
<path d="M281.739 88.563C279.413 89.5708 278.447 90.4945 278.447 90.4945C278.447 90.4945 279.346 91.897 278.489 94.0553C277.624 96.2136 276.037 97.0366 276.448 99.1025C276.381 97.4481 277.355 96.4824 278.33 95.8861C280.689 94.4416 282.016 89.8479 281.739 88.563Z" fill="#F28F8F"/>
<path d="M304.607 89.5623C300.215 90.0325 295.714 90.2677 291.389 96.2135C287.055 102.159 280.958 114.664 280.958 114.664L281.118 115.378C281.118 115.378 284.687 119.913 285.418 128.865C286.14 137.817 280.572 143.15 280.572 143.15C280.572 143.15 279.976 143.595 278.481 144.04C278.481 144.04 280.244 145.342 282.806 143.528C285.367 141.723 305.094 113.421 305.094 113.421L304.607 89.5623Z" fill="#F0F0F0"/>
<path d="M280.841 114.11L281.118 115.37C281.118 115.37 283.444 123.507 280.488 129.697C277.523 135.878 273.24 136.507 271.023 136.314C268.579 136.104 267.773 133.123 267.773 133.123L267.32 131.032C267.32 131.032 266.32 131.721 266.774 133.123C267.227 134.526 268.773 138.195 270.125 140.639C271.477 143.083 276.037 146.619 279.908 144.469C283.78 142.319 286.224 137.037 286.224 130.016C286.224 122.995 284.611 118.51 283.52 117.024C282.428 115.529 280.496 112.338 280.496 112.338L280.841 114.11Z" fill="#E0E0E0"/>
<path d="M350.569 93.2574C350.569 93.2574 356.759 98.3802 353.828 110.969C351.535 120.845 350.208 131.578 349.914 135.911C349.461 142.554 350.2 164.926 350.2 164.926C340.173 176.919 298.199 173.845 292.992 162.936C292.992 162.936 292.396 120.484 296.192 105.451C298.342 96.9357 301.365 91.9809 304.598 89.5706L318.858 86.203L331.817 86.0435L350.569 93.2574Z" fill="#029894"/>
<path d="M344.8 21.4878C346.102 19.3715 345.447 16.5917 343.322 15.29C341.206 13.9883 338.426 14.6434 337.124 16.7597L334.748 20.6228C334.395 21.1855 334.42 21.9833 334.907 22.8819C335.873 24.6707 338.3 26.1655 340.332 26.2243C341.348 26.2495 342.071 25.9136 342.423 25.3509L344.8 21.4878Z" fill="#455A64"/>
<path d="M340.332 26.2244C341.348 26.2496 342.071 25.9137 342.423 25.351L344.8 21.4879C345.648 20.1107 345.665 18.4646 344.993 17.1125C345.396 18.3219 344.254 20.1526 342.936 22.2941C341.617 24.4357 340.005 25.4602 336.755 23.6462C334.395 22.3277 334.68 20.8833 335.016 20.1946L334.756 20.6229C334.403 21.1856 334.428 21.9834 334.915 22.882C335.873 24.6624 338.3 26.1657 340.332 26.2244Z" fill="#37474F"/>
<path d="M344.548 39.9719C348.596 33.3962 346.555 24.7798 339.971 20.7236C333.396 16.6757 324.779 18.7164 320.723 25.3005C319.64 27.0641 319.715 29.5331 321.218 32.3129C324.216 37.864 331.758 42.5081 338.065 42.6845C341.214 42.7769 343.465 41.7355 344.548 39.9719Z" fill="#3B5998"/>
<path d="M344.053 32.9595C341.055 27.4084 333.513 22.7643 327.206 22.5879C324.057 22.4955 321.806 23.5453 320.723 25.3005L268.361 110.297C267.278 112.061 267.353 114.53 268.857 117.31C271.855 122.861 279.396 127.505 285.703 127.681C288.852 127.774 291.103 126.724 292.186 124.969L344.548 39.9719C345.632 38.2167 345.548 35.7393 344.053 32.9595Z" fill="#3B5998"/>
<path d="M282.747 133.014C276.263 132.829 268.512 128.051 265.43 122.349C263.893 119.493 263.809 116.949 264.926 115.143L268.949 108.609C270.066 106.804 272.375 105.729 275.617 105.821C282.1 106.006 289.851 110.784 292.933 116.487C294.47 119.342 294.554 121.887 293.437 123.692L289.415 130.226C288.298 132.032 285.988 133.106 282.747 133.014Z" fill="#293E6A"/>
<path d="M271.586 112.346C278.069 112.531 285.82 117.31 288.902 123.012C290.439 125.867 290.523 128.412 289.406 130.217C288.289 132.023 285.98 133.098 282.738 133.006C276.255 132.821 268.504 128.042 265.421 122.34C263.885 119.485 263.801 116.94 264.918 115.134C266.035 113.329 268.344 112.254 271.586 112.346Z" fill="#121E37"/>
<path d="M218.409 194.311C219.375 192.741 221.374 191.817 224.187 191.893C229.806 192.052 236.516 196.192 239.186 201.13C240.521 203.599 240.589 205.808 239.623 207.37L236.406 210.528L236.398 210.52C235.399 211.544 233.769 212.124 231.628 212.065C226.455 211.914 220.274 208.109 217.813 203.558C216.797 201.668 216.587 199.963 217.049 198.603L217.041 198.594L218.409 194.311Z" fill="#293E6A"/>
<path d="M224.187 191.901C229.806 192.06 236.516 196.201 239.186 201.139C240.522 203.608 240.589 205.816 239.623 207.379L286.845 130.713C287.811 129.142 287.744 126.942 286.408 124.465C283.738 119.518 277.019 115.386 271.41 115.227C268.605 115.143 266.597 116.075 265.632 117.645L218.409 194.311C219.375 192.749 221.374 191.817 224.187 191.901Z" fill="#3B5998"/>
<path d="M235.995 210.813C236.894 209.411 236.843 207.437 235.617 205.187C233.232 200.753 227.177 197.074 222.121 196.94C219.619 196.881 217.83 197.696 216.973 199.09C216.965 199.107 216.957 199.123 216.948 199.132L216.94 199.14C216.94 199.14 216.94 199.149 216.931 199.149C213.925 204.07 208.021 218.934 208.718 226.341L208.852 226.425C208.869 226.778 208.97 227.164 209.197 227.576C210.095 229.214 212.321 230.574 214.202 230.624C214.647 230.633 215.025 230.557 215.344 230.423L215.361 230.431C222.323 227.727 233.005 215.668 235.995 210.813Z" fill="#3B5998"/>
<path opacity="0.2" d="M286.408 124.473C285.93 123.591 285.317 122.726 284.611 121.912L237.389 198.578C238.094 199.392 238.708 200.249 239.186 201.139C239.27 201.299 239.337 201.458 239.421 201.618L286.644 124.952C286.568 124.792 286.501 124.633 286.408 124.473ZM294.067 119.569C294.025 119.308 293.958 119.048 293.883 118.788C293.883 118.788 334.764 52.4264 340.467 43.1717C346.58 33.2536 346.555 29.0714 344.338 24.9731C345.657 29.0294 340.055 38.0573 339.325 39.2414C333.429 48.8152 292.346 115.504 292.346 115.504C292.556 115.832 292.749 116.159 292.934 116.487L288.911 123.02C289.449 124.02 289.835 125.044 290.045 126.111L294.067 119.569ZM211.993 230.062L214.446 228.962C214.446 228.962 216.234 229.147 221.533 224.309C226.841 219.472 230.041 214.24 235.625 205.187C235.071 204.162 234.315 203.18 233.434 202.273C233.375 202.382 227.152 214.442 219.358 222.974C216.478 226.123 213.816 228.315 211.582 229.844C211.716 229.919 211.851 229.995 211.993 230.062Z" fill="white"/>
<path d="M210.734 226.677L208.777 229.852C207.92 231.238 206.551 235.151 207.643 235.831C208.743 236.512 211.624 233.522 212.48 232.136L212.489 232.128L214.437 228.962C214.437 228.962 214.395 228.147 212.934 227.249C211.481 226.35 210.734 226.677 210.734 226.677Z" fill="#455A64"/>
<path d="M209.071 235.563C208.995 235.176 208.777 234.824 208.416 234.597C208.055 234.379 207.635 234.337 207.257 234.446C207.19 235.101 207.316 235.621 207.652 235.831C207.988 236.033 208.5 235.907 209.071 235.563Z" fill="#263238"/>
<path d="M288.634 77.3853C289.835 77.4272 292.052 78.6786 293.79 79.8123C295.529 80.946 297.141 81.0384 296.579 82.2981C296.301 82.9196 295.352 83.3647 294.269 83.3563C293.127 83.3479 291.96 82.9952 291.439 82.8272C293.496 84.5992 293.933 85.2962 293.345 85.9261C292.506 86.8247 290.969 86.7071 289.726 86.1024C290.423 86.8079 291.212 87.1858 290.851 87.866C290.49 88.5547 289.23 88.7478 287.744 88.4875C286.266 88.2271 285.829 87.8828 285.04 87.5385C283.478 87.9584 281.722 88.5547 281.722 88.5547C283.293 84.616 285.56 80.8872 288.634 77.3853Z" fill="#FFA8A7"/>
<path d="M289.734 86.1023C288.877 85.6236 288.071 85.019 287.248 84.5235C286.434 83.9776 285.451 84.0784 284.485 84.2296C283.511 84.3471 282.545 84.5319 281.588 84.7083C280.622 84.8762 279.656 85.0442 278.674 85.1701C279.623 84.9014 280.58 84.6663 281.538 84.4311C282.495 84.196 283.461 84.0112 284.443 83.8684C284.939 83.8097 285.434 83.7509 285.947 83.7845C286.459 83.8097 286.988 83.9944 287.391 84.2884C288.214 84.8594 288.953 85.4977 289.734 86.1023Z" fill="#F28F8F"/>
<path d="M291.439 82.8271C290.691 82.3484 289.944 81.8697 289.18 81.4246C288.802 81.2147 288.407 80.9711 288.029 80.8116C287.651 80.6772 287.206 80.6772 286.778 80.7024C285.905 80.7276 285.023 80.862 284.149 80.9627C283.268 81.0719 282.386 81.1895 281.496 81.2651C282.361 81.0383 283.226 80.8536 284.107 80.694C284.981 80.5344 285.863 80.4001 286.77 80.3413C287.223 80.3329 287.685 80.3413 288.155 80.5092C288.592 80.7192 288.953 80.9459 289.331 81.1979C290.07 81.685 290.784 82.2308 291.439 82.8271Z" fill="#F28F8F"/>
<path d="M335.193 48.2104C335.193 48.2104 337.989 48.244 340.038 51.6369C341.071 53.3417 341.936 56.5161 340.013 65.8716C338.779 71.893 337.007 74.5971 336.242 76.3019C335.487 78.0068 333.74 78.5778 333.74 78.5778L333.471 71.4983L333.421 66.5602C333.421 66.5602 329.986 62.4452 329.423 58.9264C328.693 54.3998 329.532 52.4767 329.532 52.4767L335.193 48.2104Z" fill="#37474F"/>
<path d="M336.175 48.3869C335.235 44.4566 329.893 40.0476 320.135 40.1484C312.148 40.2324 307.664 43.2725 305.195 48.093C302.726 52.9135 304.934 58.8089 304.934 58.8089L329.843 55.5673L336.175 48.3869Z" fill="#37474F"/>
<path d="M340.063 73.1443C337.393 74.7483 334.664 72.3716 334.664 72.3716L335.05 86.9759C335.05 86.9759 334.941 89.806 330.624 92.5522C324.493 96.4573 321.806 97.4734 319.32 101.387C316.876 95.2395 314.349 91.8635 318.111 86.8499L317.909 83.5243C317.909 83.5243 315.466 83.8518 313.509 83.667C310.234 83.3647 308.033 80.9209 306.841 77.4693C305.086 72.3716 303.985 64.0912 305.379 55.122C305.648 53.392 306.471 51.7628 307.781 50.6039C313.862 45.2207 321.285 48.4036 326.837 50.1672C329.138 50.8978 332.262 50.4695 333.656 49.7053C331.901 51.914 331.111 53.9883 331.682 64.0324C332.228 64.931 332.774 65.4348 333.194 65.7624C334.445 66.7197 335.243 63.9904 336.175 62.8902C337.116 61.7901 340.794 60.6228 342.616 63.94C344.464 67.3412 343.305 71.2043 340.063 73.1443Z" fill="#FFA8A7"/>
<path d="M321.42 58.2463L325.098 59.5732C325.443 58.5234 324.897 57.3729 323.881 57.0118C322.864 56.6422 321.764 57.1965 321.42 58.2463Z" fill="#37474F"/>
<path d="M307.848 59.3044L311.552 57.9692C311.216 56.9278 310.116 56.3735 309.1 56.743C308.075 57.1126 307.513 58.2631 307.848 59.3044Z" fill="#37474F"/>
<path d="M323.721 62.0169C323.746 62.8987 323.057 63.6293 322.176 63.6545C321.294 63.6797 320.563 62.991 320.538 62.1092C320.513 61.2274 321.201 60.4968 322.083 60.4716C322.965 60.4464 323.696 61.1351 323.721 62.0169Z" fill="#263238"/>
<path d="M311.863 62.185C311.888 63.0668 311.199 63.7974 310.317 63.8226C309.436 63.8478 308.705 63.1591 308.68 62.2773C308.655 61.3955 309.343 60.6649 310.225 60.6397C311.233 60.6145 311.838 61.1772 311.863 62.185Z" fill="#263238"/>
<path d="M317.674 58.8594L317.011 69.063L311.544 67.4338C313.215 63.7386 315.256 60.8833 317.674 58.8594Z" fill="#F28F8F"/>
<path d="M331.716 63.2012C331.472 70.1464 329.087 70.6586 326.627 71.0953C323.368 71.6748 321.731 69.928 315.885 69.9952C312.341 70.0372 311.241 71.1037 309.234 71.9603C307.756 72.5902 306.538 72.4222 305.951 71.0953C305.279 69.5753 304.716 66.0313 304.741 63.6043C304.447 65.8298 304.649 71.7336 305.17 74.9836C305.69 78.2421 306.916 81.0218 308.739 82.5251C311.267 84.6078 316.49 85.4056 323.007 83.8856C329.432 82.3823 331.959 79.6194 332.715 77.3015C335.176 69.7768 334.126 66.2497 334.966 64.822C335.814 63.4027 331.716 63.2012 331.716 63.2012Z" fill="#37474F"/>
<path d="M316.708 72.0776C320.043 71.9684 321.143 72.5563 321.327 74.8405C321.596 78.1074 321.445 79.2159 320.202 79.4007C318.732 79.619 317.649 79.7198 317.59 78.796C317.523 77.8554 317.489 77.0492 317.775 76.6965C318.287 76.0666 318.103 75.9743 316.641 76.0247C315.121 76.075 315.197 76.3354 315.642 76.7805C315.961 77.108 315.953 78.2333 315.953 78.88C315.961 79.5854 315.801 79.8626 313.694 79.6862C311.854 79.535 312.148 78.057 312.148 75.2436C312.148 73.3457 312.929 72.2035 316.708 72.0776Z" fill="#FFA8A7"/>
<path d="M319.874 72.5396L314.449 73.3542C314.642 74.8994 316.011 75.966 317.506 75.7476C319.001 75.5209 320.059 74.0848 319.874 72.5396Z" fill="#B16668"/>
<path d="M319.169 73.3795C319.396 73.3711 319.614 73.3879 319.833 73.4299C319.614 74.6057 318.707 75.5714 317.506 75.7562C317.204 75.7982 316.91 75.7814 316.625 75.731C316.625 74.4881 317.733 73.4383 319.169 73.3795Z" fill="#F28F8F"/>
<path d="M316.667 100.891C316.667 100.891 314.248 96.3313 314.24 94.5425L317.137 91.5276L318.077 98.9767L316.667 100.891Z" fill="#001C63"/>
<path opacity="0.2" d="M316.667 100.891C316.667 100.891 314.248 96.3313 314.24 94.5425L317.137 91.5276L318.077 98.9767L316.667 100.891Z" fill="black"/>
<path d="M320.631 99.2703L325.569 95.8774L329.717 98.6404L322.125 102.554L320.631 99.2703Z" fill="#001C63"/>
<path opacity="0.2" d="M320.631 99.2703L325.569 95.8774L329.717 98.6404L322.125 102.554L320.631 99.2703Z" fill="black"/>
<path d="M324.116 145.14C323.645 129.184 320.085 108.92 320.362 105.04L317.649 104.788C315.793 109.449 311.653 135.315 311.846 146.341C311.729 150.188 315.482 157.292 318.069 157.376C320.664 157.444 324.183 147.475 324.116 145.14Z" fill="#001C63"/>
<path opacity="0.1" d="M324.116 145.14C323.645 129.184 320.085 108.92 320.362 105.04L317.649 104.788C315.793 109.449 311.653 135.315 311.846 146.341C311.729 150.188 315.482 157.292 318.069 157.376C320.664 157.444 324.183 147.475 324.116 145.14Z" fill="white"/>
<path opacity="0.5" d="M317.439 105.376C317.523 105.132 317.574 104.973 317.649 104.788C317.649 104.788 317.649 104.788 317.649 104.78L320.362 105.031C320.337 105.359 320.345 105.687 320.362 106.224C319.388 106.384 317.977 105.779 317.439 105.376Z" fill="black"/>
<path d="M320.698 98.8925C319.522 98.6826 318.136 98.8002 318.136 98.8002C318.136 98.8002 317.196 99.6064 316.667 100.9C316.667 100.9 316.725 103.285 317.649 104.788C317.649 104.788 318.707 105.535 320.362 105.04C320.362 105.04 321.882 103.94 322.302 102.42C322.369 101.118 321.302 99.262 320.698 98.8925Z" fill="#001C63"/>
<path opacity="0.1" d="M320.698 98.8925C319.522 98.6826 318.136 98.8002 318.136 98.8002C318.136 98.8002 317.196 99.6064 316.667 100.9C316.667 100.9 316.725 103.285 317.649 104.788C317.649 104.788 318.707 105.535 320.362 105.04C320.362 105.04 321.882 103.94 322.302 102.42C322.369 101.118 321.302 99.262 320.698 98.8925Z" fill="white"/>
<path d="M320.647 98.8842C320.731 98.8842 320.849 99.0857 320.941 99.1025C322.822 98.0612 323.116 97.7168 323.62 97.8512C324.569 98.1115 326.853 102.042 327.424 103.31C328.004 104.57 327.895 104.57 329.625 103.386C332.976 101.093 335.797 98.1032 337.435 95.6761C339.728 92.2833 340.5 89.3692 340.5 89.3692C340.5 89.3692 338.485 86.6482 337.888 85.6068C336.738 83.5913 336.1 82.7851 334.949 82.9783V84.2967C334.773 86.0687 332.95 87.7735 330.498 89.9318C328.054 92.1069 324.082 94.1645 323.15 95.0882C322.461 95.7517 321.487 97.3137 320.647 98.8842Z" fill="#1B7471"/>
<path d="M311.695 100.488C311.98 101.202 314.206 95.5416 315.331 95.6424C315.877 95.676 317.112 97.1961 318.145 98.8001C318.145 98.8001 318.791 98.7749 318.909 98.7665C318.203 97.0785 317.842 95.6172 317.7 94.4835C317.448 92.5687 318.145 86.8497 318.145 86.8497L317.977 84.6326C317.683 84.6494 317.364 84.6578 316.986 84.6746C316.709 84.9685 316.305 85.5228 316.02 86.0014C314.937 87.8154 312.123 92.0061 311.787 94.1644C311.241 97.6244 311.577 100.219 311.695 100.488Z" fill="#1B7471"/>
<path d="M328.626 132.056C327.24 130.452 326.459 129.495 325.35 127.412C324.217 125.271 323.805 123.826 322.965 122.071C322.688 121.5 322.419 120.929 322.142 120.358C322.075 120.215 322.008 120.072 321.882 119.972C321.613 119.745 321.202 119.846 320.891 120.014C319.883 120.576 319.396 121.802 319.362 122.953C319.329 124.112 319.656 125.237 319.9 126.371C320.06 127.118 320.782 129.848 320.782 129.848L328.626 132.056Z" fill="#F28F8F"/>
<path d="M363.813 103.083C361.05 96.5748 357.582 95.5923 348.378 92.9385C343.389 101.463 347.118 118.032 347.118 118.032L351.334 137.608C351.334 137.608 336.965 137.163 334.428 135.995C331.892 134.828 324.72 128.983 322.352 127.261C319.119 124.918 317.758 125.481 316.339 125.901C311.695 127.27 310.704 127.816 309.789 128.588C308.873 129.369 309.125 130.562 309.125 130.562C307.891 130.898 305.993 131.116 306.043 133.216C306.068 134.601 306.194 134.887 306.194 134.887C306.194 134.887 305.749 134.996 305.438 135.466C304.557 136.827 306.933 140.782 308.218 141.647C309.117 142.252 310.276 142.185 311.745 141.773C312.997 141.42 312.224 140.203 312.224 140.203L314.021 140.06C318.262 142.269 319.203 147.316 324.468 147.803C325.577 147.904 327.794 147.929 330.868 148.508C342.365 150.675 353.66 157.36 363.561 156.848C373.227 156.344 372.245 151.297 371.59 145.426C371.01 140.203 366.963 110.524 363.813 103.083Z" fill="#FFA8A7"/>
<path d="M350.914 135.659L351.334 137.608C355.835 138.128 360.966 140.606 362.344 142.84C361.008 139.178 358.85 136.642 350.914 135.659Z" fill="#F28F8F"/>
<path d="M348.168 92.2917C351.561 93.2911 357.464 94.2821 360.043 96.8687C362.621 99.4469 364.368 100.959 366.4 109.491C368.432 118.023 370.918 138.246 371.993 141.84C373.076 145.435 373.967 147.836 371.985 150.028C369.558 143.528 362.688 137.994 351.334 137.599C349.461 137.599 349.906 135.281 349.234 133.115C348.563 130.948 346.102 118.225 345.019 114.001C343.935 109.776 342.424 96.7847 348.168 92.2917Z" fill="#029894"/>
<path d="M349.973 136.642L349.705 137.465C349.705 137.465 355.726 139.002 360.169 143.251C364.611 147.492 365.611 150.986 365.846 153.211C366.072 155.445 365.812 156.772 364.158 156.831L362.621 156.898C362.621 156.898 362.94 157.721 365.846 157.494C368.39 157.301 370.801 156.587 371.985 153.992C373.169 151.397 373.152 149.625 372.295 147.257C371.456 144.922 369.23 140.799 362.335 137.943C356.675 135.592 349.973 136.642 349.973 136.642Z" fill="#1B7471"/>
<path d="M309.125 130.561L314.601 128.647L309.134 129.764C309.083 130.041 309.075 130.301 309.125 130.561Z" fill="#F28F8F"/>
<path d="M306.194 134.887L312.56 133.148L306.077 134.139C306.085 134.366 306.127 134.626 306.194 134.887Z" fill="#F28F8F"/>
<path d="M307.446 137.624C307.689 137.927 308.05 138.137 308.42 138.263C308.798 138.397 309.184 138.456 309.579 138.489L309.486 138.439C309.705 138.758 309.94 139.06 310.175 139.363L310.284 139.17C309.898 139.153 309.545 139.312 309.285 139.564C309.033 139.816 308.898 140.16 308.84 140.488C308.966 140.169 309.159 139.892 309.402 139.69C309.646 139.497 309.973 139.388 310.259 139.405L310.519 139.421L310.376 139.211C310.158 138.901 309.931 138.59 309.696 138.279L309.663 138.229H309.604C309.234 138.221 308.856 138.162 308.487 138.078C308.109 137.994 307.739 137.876 307.446 137.624Z" fill="#F28F8F"/>
<path d="M309.285 138.221C309.948 138.263 311.653 138.061 311.653 138.061C311.653 138.061 311.771 138.515 312.636 139.195C313.098 139.556 314.038 140.068 314.038 140.068L312.241 140.211C312.241 140.211 311.695 139.472 310.049 139.388L309.285 138.221Z" fill="#F28F8F"/>
</g>
<defs>
<clipPath id="clip0_36_1533">
<rect width="382.767" height="381.776" fill="white" transform="translate(0.25293 0.828613)"/>
</clipPath>
</defs>
</svg>
