<svg width="500" height="501" viewBox="0 0 500 501" fill="none" xmlns="http://www.w3.org/2000/svg">
<path d="M449.901 398.805H416.779V399.055H449.901V398.805Z" fill="#EBEBEB"/>
<path d="M331.22 401.52H322.527V401.77H331.22V401.52Z" fill="#EBEBEB"/>
<path d="M415.778 389.52H396.586V389.77H415.778V389.52Z" fill="#EBEBEB"/>
<path d="M95.652 391.199H52.459V391.449H95.652V391.199Z" fill="#EBEBEB"/>
<path d="M110.889 391.199H104.556V391.449H110.889V391.199Z" fill="#EBEBEB"/>
<path d="M225.147 395.422H131.471V395.672H225.147V395.422Z" fill="#EBEBEB"/>
<path d="M237.014 338.112H43.915C40.768 338.112 38.207 335.551 38.207 332.404V60.9717C38.207 57.8247 40.768 55.2637 43.915 55.2637H237.014C240.16 55.2637 242.721 57.8247 242.721 60.9717V332.404C242.721 335.551 240.16 338.112 237.014 338.112ZM43.915 55.5147C40.905 55.5147 38.457 57.9627 38.457 60.9727V332.405C38.457 335.415 40.905 337.863 43.915 337.863H237.014C240.023 337.863 242.471 335.415 242.471 332.405V60.9717C242.471 57.9627 240.023 55.5137 237.014 55.5137L43.915 55.5147Z" fill="#EBEBEB"/>
<path d="M453.31 338.112H260.212C257.065 338.112 254.505 335.551 254.505 332.404V60.9717C254.505 57.8247 257.066 55.2637 260.212 55.2637H453.31C456.458 55.2637 459.018 57.8247 459.018 60.9717V332.404C459.019 335.551 456.458 338.112 453.31 338.112ZM260.212 55.5147C257.203 55.5147 254.755 57.9627 254.755 60.9727V332.405C254.755 335.415 257.203 337.863 260.212 337.863H453.31C456.32 337.863 458.768 335.415 458.768 332.405V60.9717C458.768 57.9627 456.32 55.5137 453.31 55.5137L260.212 55.5147Z" fill="#EBEBEB"/>
<path d="M500 382.709H0V382.959H500V382.709Z" fill="#EBEBEB"/>
<path d="M259.519 275.32C259.519 277.705 257.586 279.638 255.201 279.638C252.816 279.638 250.883 277.705 250.883 275.32C250.883 272.935 252.816 271.002 255.201 271.002C257.586 271.002 259.519 272.935 259.519 275.32Z" stroke="#263238" stroke-width="3" stroke-miterlimit="10"/>
<path d="M258.175 278.441L265.066 285.341" stroke="#263238" stroke-width="3" stroke-miterlimit="10"/>
<path d="M445.622 109.195C448.274 92.8496 437.174 77.4489 420.829 74.7963C404.484 72.1436 389.084 83.2434 386.431 99.5884C383.778 115.933 394.878 131.334 411.223 133.987C427.568 136.639 442.969 125.54 445.622 109.195Z" fill="#E0E0E0"/>
<path d="M416.102 135.043C399.199 135.043 385.446 121.29 385.446 104.387C385.446 87.4835 399.199 73.7305 416.102 73.7305V75.0795C399.942 75.0795 386.795 88.2265 386.795 104.387C386.795 120.547 399.942 133.694 416.102 133.694V135.043Z" fill="white"/>
<path d="M416.103 135.043V133.694C432.263 133.694 445.411 120.547 445.411 104.387C445.411 88.2275 432.263 75.0795 416.103 75.0795V73.7305C433.007 73.7305 446.76 87.4835 446.76 104.387C446.76 121.29 433.008 135.043 416.103 135.043Z" fill="white"/>
<path d="M431.768 104.394H430.419C430.419 94.4578 425.377 81.1628 415.739 74.9798L416.466 73.8438C426.512 80.2898 431.768 94.0918 431.768 104.394Z" fill="white"/>
<path d="M416.466 134.029L415.739 132.893C425.377 126.71 430.419 113.416 430.419 103.479H431.768C431.768 113.782 426.512 127.584 416.466 134.029Z" fill="white"/>
<path d="M401.787 104.388H400.438C400.438 94.0849 405.694 80.2839 415.737 73.8379L416.467 74.9739C406.829 81.1569 401.787 94.4519 401.787 104.388Z" fill="white"/>
<path d="M415.737 134.023C405.693 127.577 400.438 113.775 400.438 103.473H401.787C401.787 113.409 406.829 126.703 416.467 132.887L415.737 134.023Z" fill="white"/>
<path d="M416.778 74.4043H415.429V134.368H416.778V74.4043Z" fill="white"/>
<path d="M441.482 87.7422H390.726V89.0912H441.482V87.7422Z" fill="white"/>
<path d="M446.072 104.225H386.135V105.574H446.072V104.225Z" fill="white"/>
<path d="M440.811 120.691H391.396V122.04H440.811V120.691Z" fill="white"/>
<path d="M95.5938 93.3201C95.5938 91.2511 95.2888 89.2501 94.7138 87.3691L99.9348 82.7761L96.6478 77.0811L90.0588 79.3101C87.3318 76.4001 83.7688 74.2871 79.7518 73.3541L78.3838 66.5371H71.8088L70.4458 73.3541C66.4288 74.2871 62.8608 76.4001 60.1338 79.3101L53.5448 77.0811L50.2578 82.7761L55.4788 87.3691C54.9088 89.2501 54.5988 91.2511 54.5988 93.3201C54.5988 95.3941 54.9078 97.3911 55.4788 99.2761L50.2578 103.864L53.5448 109.559L60.1338 107.33C62.8608 110.24 66.4278 112.353 70.4458 113.291L71.8088 120.107H78.3838L79.7518 113.291C83.7688 112.353 87.3318 110.241 90.0588 107.33L96.6478 109.559L99.9348 103.864L94.7138 99.2761C95.2888 97.3911 95.5938 95.3941 95.5938 93.3201ZM75.0958 104.386C69.2128 104.386 64.4458 99.6151 64.4458 93.7311C64.4458 87.8481 69.2128 83.0761 75.0958 83.0761C80.9788 83.0761 85.7508 87.8471 85.7508 93.7311C85.7508 99.6151 80.9798 104.386 75.0958 104.386Z" fill="#E0E0E0"/>
<path d="M123.785 121.656C123.785 120.08 123.553 118.556 123.115 117.124L127.091 113.627L124.588 109.291L119.57 110.988C117.494 108.772 114.781 107.163 111.721 106.453L110.679 101.262H105.672L104.634 106.453C101.575 107.163 98.8577 108.772 96.7817 110.988L91.7637 109.291L89.2607 113.627L93.2367 117.124C92.8027 118.556 92.5667 120.08 92.5667 121.656C92.5667 123.235 92.8027 124.756 93.2367 126.191L89.2607 129.685L91.7637 134.022L96.7817 132.325C98.8577 134.541 101.575 136.15 104.634 136.864L105.672 142.055H110.679L111.721 136.864C114.78 136.15 117.493 134.541 119.57 132.325L124.588 134.022L127.091 129.685L123.115 126.191C123.553 124.755 123.785 123.235 123.785 121.656ZM108.177 130.082C103.697 130.082 100.067 126.449 100.067 121.968C100.067 117.488 103.697 113.854 108.177 113.854C112.657 113.854 116.291 117.487 116.291 121.968C116.29 126.449 112.657 130.082 108.177 130.082Z" fill="#E0E0E0"/>
<path d="M198.613 95.8661L201.262 90.4861L203.921 95.8611L209.856 96.7191L205.565 100.909L206.584 106.818L201.273 104.032L195.967 106.827L196.976 100.916L192.678 96.7331L198.613 95.8661Z" fill="#EBEBEB"/>
<path d="M222.779 95.8661L225.429 90.4861L228.087 95.8611L234.022 96.7191L229.732 100.909L230.75 106.818L225.44 104.032L220.134 106.827L221.143 100.916L216.845 96.7331L222.779 95.8661Z" fill="#EBEBEB"/>
<path d="M246.945 95.8661L249.595 90.4861L252.253 95.8611L258.189 96.7191L253.898 100.909L254.917 106.818L249.606 104.032L244.3 106.827L245.309 100.916L241.011 96.7331L246.945 95.8661Z" fill="#EBEBEB"/>
<path d="M271.112 95.8661L273.761 90.4861L276.42 95.8611L282.355 96.7191L278.064 100.909L279.083 106.818L273.772 104.032L268.467 106.827L269.475 100.916L265.178 96.7331L271.112 95.8661Z" fill="#EBEBEB"/>
<path d="M295.278 95.8661L297.928 90.4861L300.586 95.8611L306.522 96.7191L302.231 100.909L303.25 106.818L297.939 104.032L292.633 106.827L293.642 100.916L289.344 96.7331L295.278 95.8661Z" fill="#EBEBEB"/>
<path d="M245.178 424.027C352.26 424.027 439.067 418.957 439.067 412.704C439.067 406.45 352.26 401.381 245.178 401.381C138.096 401.381 51.2891 406.45 51.2891 412.704C51.2891 418.957 138.096 424.027 245.178 424.027Z" fill="#F5F5F5"/>
<path d="M179.664 402.744L179.463 405.041C179.437 405.335 179.473 405.62 179.554 405.879C179.554 405.879 179.554 405.879 179.562 405.888C179.603 406.009 179.653 406.13 179.721 406.242C179.789 406.354 179.866 406.458 179.961 406.561C180.039 406.656 180.143 406.751 180.257 406.829C180.573 407.062 180.976 407.2 181.425 407.2H263.817C264.016 407.2 264.208 407.174 264.403 407.114C264.536 407.071 264.653 407.019 264.779 406.959C265.068 406.812 265.33 406.588 265.534 406.329C265.612 406.225 265.682 406.113 265.745 405.992C265.87 405.75 265.944 405.491 265.968 405.215L266.161 403.004C266.185 402.728 266.156 402.469 266.074 402.227C266.033 402.106 265.982 401.994 265.922 401.89C265.763 401.631 265.541 401.406 265.278 401.26C265.162 401.199 265.054 401.148 264.929 401.105C264.744 401.044 264.557 401.019 264.358 401.019H243.866C243.598 401.019 243.341 400.993 243.104 400.941H243.095C242.994 400.915 242.892 400.898 242.8 400.863C242.783 400.863 242.766 400.854 242.758 400.846C242.75 400.846 242.741 400.846 242.733 400.837C242.624 400.802 242.523 400.768 242.415 400.716C242.315 400.681 242.215 400.63 242.126 400.569C241.985 400.5 241.847 400.405 241.725 400.31C241.572 400.189 241.42 400.051 241.294 399.904C241.224 399.818 241.145 399.731 241.084 399.636C241.03 399.567 240.984 399.498 240.938 399.429C240.923 399.403 240.908 399.377 240.893 399.351C240.884 399.351 240.885 399.342 240.886 399.334C240.825 399.239 240.782 399.144 240.739 399.04C240.695 398.954 240.659 398.867 240.624 398.772C240.617 398.755 240.611 398.729 240.603 398.711C240.597 398.685 240.59 398.659 240.583 398.642C240.576 398.625 240.569 398.608 240.569 398.599C240.541 398.521 240.522 398.443 240.512 398.366C240.487 398.254 240.463 398.142 240.456 398.021C240.448 398.012 240.449 398.004 240.449 397.995C240.441 397.891 240.433 397.779 240.425 397.675C240.426 397.563 240.427 397.459 240.436 397.355L240.443 397.277C240.444 397.173 240.462 397.061 240.48 396.958C240.498 396.846 240.524 396.742 240.552 396.63L240.553 396.621L248.613 365.697L250.16 359.764L251.37 355.109H204.574L202.06 359.764L198.864 365.697L180.661 399.445C180.599 399.566 180.537 399.678 180.474 399.799C180.473 399.816 180.472 399.825 180.463 399.834C180.399 399.972 180.345 400.102 180.28 400.24C180.225 400.378 180.17 400.516 180.122 400.663C180.088 400.758 180.054 400.844 180.029 400.939C179.84 401.527 179.718 402.131 179.664 402.744Z" fill="#263238"/>
<path opacity="0.2" d="M266.162 402.998L265.968 405.218C265.872 406.317 264.913 407.198 263.815 407.198H181.432C180.242 407.198 179.354 406.225 179.457 405.046L179.658 402.745C179.711 402.138 179.832 401.532 180.022 400.937C180.193 400.422 180.397 399.919 180.657 399.438L204.576 355.111H251.376L240.556 396.623C240.488 396.875 240.445 397.115 240.435 397.355C240.317 399.095 241.445 400.594 243.097 400.937C243.344 400.994 243.594 401.017 243.868 401.017H264.355C265.454 401.018 266.257 401.91 266.162 402.998Z" fill="white"/>
<path d="M178.015 399.442L201.929 355.107H204.578L180.664 399.442C180.104 400.48 179.762 401.607 179.663 402.747L179.462 405.044C179.358 406.234 180.238 407.198 181.428 407.198H178.779C177.589 407.198 176.709 406.234 176.813 405.044L177.014 402.747C177.113 401.607 177.455 400.48 178.015 399.442Z" fill="#263238"/>
<path opacity="0.3" d="M204.578 355.107H251.371L248.61 365.702H198.863L204.578 355.107Z" fill="black"/>
<path d="M125.184 208.193L125.188 336.863V352.459C125.189 356.492 128.452 359.765 132.485 359.765H332.138C336.162 359.765 339.436 356.492 339.435 352.459V336.863L339.431 208.193C339.439 204.16 336.166 200.896 332.133 200.896H132.489C130.822 200.896 129.279 201.457 128.048 202.399C127.872 202.537 127.696 202.675 127.544 202.831C127.056 203.28 126.623 203.79 126.279 204.359C126.039 204.73 125.841 205.128 125.683 205.551C125.361 206.371 125.188 207.261 125.184 208.193Z" fill="#263238"/>
<path d="M339.434 336.861V352.462C339.434 356.493 336.166 359.761 332.135 359.761H132.486C128.455 359.761 125.187 356.493 125.187 352.462V336.861H339.434Z" fill="#1C7572"/>
<path d="M132.618 332.454H332.002C334.188 332.454 335.96 330.682 335.96 328.496V209.26C335.96 207.074 334.188 205.302 332.002 205.302H132.618C130.432 205.302 128.66 207.074 128.66 209.26V328.496C128.66 330.682 130.432 332.454 132.618 332.454Z" fill="#229894"/>
<path d="M128.071 200.896H132.486C128.455 200.896 125.187 204.164 125.187 208.195V352.462C125.187 356.493 128.455 359.761 132.486 359.761H128.072C124.041 359.761 120.773 356.493 120.773 352.462V208.195C120.772 204.164 124.039 200.896 128.071 200.896Z" fill="#263238"/>
<g opacity="0.2">
<path d="M128.071 200.896H132.486C128.455 200.896 125.187 204.164 125.187 208.195V352.462C125.187 356.493 128.455 359.761 132.486 359.761H128.072C124.041 359.761 120.773 356.493 120.773 352.462V208.195C120.772 204.164 124.039 200.896 128.071 200.896Z" fill="white"/>
</g>
<path opacity="0.5" d="M337.176 281.234C332.044 280.248 323.898 283.568 322.377 288.568C322.76 285.532 321.176 282.339 318.527 280.807C315.878 279.275 312.412 278.191 309.972 280.038C312.416 270.277 308.731 259.252 300.908 252.923C293.086 246.594 281.683 245.907 272.646 250.334C275.336 245.248 275.559 238.926 273.232 233.664C270.905 228.402 266.745 224.82 261.313 222.922C248.817 218.557 235.257 217.271 222.163 219.21C214.554 220.337 206.793 222.715 201.26 228.058C195.728 233.401 194.295 243.027 197.975 249.781C189.461 246.9 179.398 249.284 173.081 255.679C166.764 262.074 164.668 272.022 167.652 280.5C165.315 279.081 162.241 278.966 159.804 280.207C157.368 281.448 155.673 283.909 155.447 286.633C152.263 282.438 146.977 279.926 141.713 280.107C136.449 280.287 131.348 283.155 128.458 287.558V332.456H335.958L337.176 281.234Z" fill="white"/>
<path d="M290.927 281.223H184.007C178.567 281.223 174.157 276.813 174.157 271.373C174.157 265.933 178.567 261.523 184.007 261.523H290.927C296.367 261.523 300.777 265.933 300.777 271.373C300.777 276.813 296.367 281.223 290.927 281.223Z" fill="white"/>
<path d="M187.719 269.322C187.719 271.707 185.786 273.64 183.401 273.64C181.016 273.64 179.083 271.707 179.083 269.322C179.083 266.937 181.016 265.004 183.401 265.004C185.786 265.004 187.719 266.937 187.719 269.322Z" stroke="#263238" stroke-width="3" stroke-miterlimit="10"/>
<path d="M186.375 272.443L193.266 279.343" stroke="#263238" stroke-width="3" stroke-miterlimit="10"/>
<g opacity="0.1">
<path d="M268.467 205.302H276.136L292.039 332.454H284.369L268.467 205.302Z" fill="white"/>
<path d="M299.789 332.454L283.887 205.302H312.7L328.603 332.454H299.789Z" fill="white"/>
</g>
<path opacity="0.2" d="M193.875 403.011L193.69 405.12C193.59 406.266 194.438 407.196 195.584 407.196H263.814C264.91 407.196 265.875 406.308 265.971 405.212L266.164 403C266.26 401.905 265.45 401.017 264.354 401.017H243.862C243.597 401.017 243.344 400.99 243.102 400.935H196.132C194.986 400.935 193.976 401.864 193.875 403.011Z" fill="white"/>
<path opacity="0.2" d="M180.027 400.936H243.102C241.441 400.598 240.32 399.099 240.436 397.353H181.95L180.027 400.936Z" fill="black"/>
<path d="M212.27 249.704L213.652 246.639C215.135 247.719 217.346 248.473 219.457 248.473C221.87 248.473 222.85 247.669 222.85 246.588C222.85 243.296 212.622 245.558 212.622 239.024C212.622 236.034 215.035 233.545 220.036 233.545C222.247 233.545 224.509 234.073 226.143 235.104L224.886 238.195C223.253 237.265 221.569 236.813 220.011 236.813C217.598 236.813 216.668 237.717 216.668 238.823C216.668 242.065 226.897 239.829 226.897 246.287C226.897 249.227 224.459 251.741 219.433 251.741C216.643 251.74 213.828 250.911 212.27 249.704Z" fill="#263238"/>
<path d="M243.309 248.171V251.438H229.688V233.846H242.982V237.113H233.732V240.933H241.9V244.1H233.732V248.171H243.309Z" fill="#263238"/>
<path d="M245.397 242.641C245.397 237.414 249.468 233.543 255.023 233.543C260.552 233.543 264.648 237.388 264.648 242.641C264.648 247.893 260.552 251.739 255.023 251.739C249.468 251.739 245.397 247.869 245.397 242.641ZM260.526 242.641C260.526 239.298 258.164 237.011 255.023 237.011C251.881 237.011 249.519 239.298 249.519 242.641C249.519 245.984 251.881 248.27 255.023 248.27C258.164 248.27 260.526 245.984 260.526 242.641Z" fill="#263238"/>
<path opacity="0.8" d="M232.224 310.771H190.027C187.9 310.771 186.176 309.047 186.176 306.92V298.001C186.176 295.874 187.9 294.15 190.027 294.15H232.224C234.351 294.15 236.075 295.874 236.075 298.001V306.92C236.075 309.047 234.351 310.771 232.224 310.771Z" fill="white"/>
<path opacity="0.8" d="M293.416 310.771H251.219C249.092 310.771 247.368 309.047 247.368 306.92V298.001C247.368 295.874 249.092 294.15 251.219 294.15H293.416C295.543 294.15 297.267 295.874 297.267 298.001V306.92C297.267 309.047 295.543 310.771 293.416 310.771Z" fill="white"/>
<path d="M209.926 210.967L234.711 166.919C235.093 166.24 236.071 166.24 236.453 166.919L261.238 210.967C261.613 211.633 261.131 212.456 260.367 212.456H210.797C210.032 212.456 209.551 211.633 209.926 210.967Z" fill="#1B726F"/>
<path d="M223.796 219.039L222.592 214.098H218.253L217.049 219.039C219.134 219.903 221.547 219.971 223.796 219.039Z" fill="#263238"/>
<path opacity="0.2" d="M218.253 214.1C218.253 214.1 218.072 214.842 217.971 215.257C219.533 215.71 221.229 215.737 222.874 215.258L222.592 214.1H218.253Z" fill="white"/>
<path opacity="0.4" d="M217.668 216.497C217.592 216.81 217.515 217.126 217.442 217.425C219.333 218.01 221.403 218.044 223.402 217.424L223.176 216.496C221.323 216.862 219.457 216.849 217.668 216.497Z" fill="white"/>
<path d="M225.004 213.749C221.949 215.014 218.671 214.922 215.84 213.749V177.054C215.84 172.734 217.591 168.823 220.422 165.992C223.253 168.823 225.004 172.734 225.004 177.054V213.749Z" fill="#1A7A77"/>
<path d="M215.841 177.054C215.841 177.054 215.841 207.907 215.841 211.646C218.723 212.642 221.937 212.709 225.005 211.647C225.005 207.91 225.005 177.054 225.005 177.054C225.005 172.734 223.254 168.823 220.423 165.992C217.592 168.823 215.841 172.734 215.841 177.054Z" fill="#229894"/>
<path d="M215.841 177.055C215.841 177.055 215.841 192.675 215.841 203.034C218.764 203.868 221.929 203.914 225.005 203.036C225.005 192.677 225.005 177.056 225.005 177.056C225.005 172.736 223.254 168.825 220.423 165.994C217.592 168.824 215.841 172.735 215.841 177.055Z" fill="#229894"/>
<path d="M215.841 177.054C215.841 177.054 215.841 183.385 215.841 190.658C218.764 191.492 221.929 191.539 225.005 190.66C225.005 183.386 225.005 177.054 225.005 177.054C225.005 172.734 223.254 168.823 220.423 165.992C217.592 168.823 215.841 172.734 215.841 177.054Z" fill="#1A7A77"/>
<path d="M215.841 177.054C215.841 177.054 215.841 177.635 215.841 178.641C218.764 179.475 221.929 179.522 225.005 178.643C225.005 177.636 225.005 177.054 225.005 177.054C225.005 172.734 223.254 168.823 220.423 165.992C217.592 168.823 215.841 172.734 215.841 177.054Z" fill="#229894"/>
<path d="M253.271 219.039L252.067 214.098H247.728L246.524 219.039C248.609 219.903 251.022 219.971 253.271 219.039Z" fill="#263238"/>
<path opacity="0.2" d="M247.728 214.1C247.728 214.1 247.547 214.842 247.446 215.257C249.008 215.71 250.703 215.737 252.349 215.258L252.067 214.1H247.728Z" fill="white"/>
<path opacity="0.4" d="M247.144 216.497C247.068 216.81 246.991 217.126 246.918 217.425C248.809 218.01 250.879 218.044 252.878 217.424L252.652 216.496C250.8 216.862 248.933 216.849 247.144 216.497Z" fill="white"/>
<path d="M254.48 213.749C251.425 215.014 248.147 214.922 245.316 213.749V177.054C245.316 172.734 247.067 168.823 249.898 165.992C252.729 168.823 254.48 172.734 254.48 177.054V213.749Z" fill="#1A7A77"/>
<path d="M245.316 177.054C245.316 177.054 245.316 207.907 245.316 211.646C248.198 212.642 251.412 212.709 254.48 211.647C254.48 207.91 254.48 177.054 254.48 177.054C254.48 172.734 252.729 168.823 249.898 165.992C247.067 168.823 245.316 172.734 245.316 177.054Z" fill="#229894"/>
<path d="M245.316 177.055C245.316 177.055 245.316 192.675 245.316 203.034C248.239 203.868 251.404 203.914 254.48 203.036C254.48 192.677 254.48 177.056 254.48 177.056C254.48 172.736 252.729 168.825 249.898 165.994C247.067 168.824 245.316 172.735 245.316 177.055Z" fill="#229894"/>
<path d="M245.316 177.054C245.316 177.054 245.316 183.385 245.316 190.658C248.239 191.492 251.404 191.539 254.48 190.66C254.48 183.386 254.48 177.054 254.48 177.054C254.48 172.734 252.729 168.823 249.898 165.992C247.067 168.823 245.316 172.734 245.316 177.054Z" fill="#1A7A77"/>
<path d="M245.316 177.054C245.316 177.054 245.316 177.635 245.316 178.641C248.239 179.475 251.404 179.522 254.48 178.643C254.48 177.636 254.48 177.054 254.48 177.054C254.48 172.734 252.729 168.823 249.898 165.992C247.067 168.823 245.316 172.734 245.316 177.054Z" fill="#229894"/>
<path d="M240.607 221.876L238.663 213.9H231.658L229.714 221.876C233.08 223.27 236.976 223.38 240.607 221.876Z" fill="#263238"/>
<path opacity="0.2" d="M231.658 213.9C231.658 213.9 231.366 215.098 231.203 215.767C233.725 216.499 236.462 216.541 239.118 215.769L238.663 213.9H231.658Z" fill="white"/>
<path opacity="0.4" d="M230.715 217.771C230.592 218.277 230.468 218.787 230.35 219.27C233.402 220.215 236.745 220.27 239.972 219.269L239.607 217.771C236.617 218.361 233.603 218.341 230.715 217.771Z" fill="white"/>
<path d="M242.558 213.337C237.627 215.38 232.335 215.23 227.764 213.337V154.097C227.764 147.123 230.591 140.81 235.161 136.24C239.731 140.81 242.558 147.124 242.558 154.097V213.337Z" fill="#1A7A77"/>
<path d="M227.764 154.096C227.764 154.096 227.764 203.905 227.764 209.94C232.417 211.548 237.605 211.656 242.558 209.941C242.558 203.908 242.558 154.095 242.558 154.095C242.558 147.121 239.731 140.808 235.161 136.238C230.591 140.808 227.764 147.122 227.764 154.096Z" fill="#229894"/>
<path d="M227.764 154.096C227.764 154.096 227.764 179.313 227.764 196.036C232.483 197.382 237.592 197.457 242.558 196.039C242.558 179.316 242.558 154.097 242.558 154.097C242.558 147.123 239.731 140.81 235.161 136.24C230.591 140.808 227.764 147.122 227.764 154.096Z" fill="#1A7A77"/>
<path d="M227.764 154.097C227.764 154.097 227.764 164.317 227.764 176.059C232.483 177.405 237.592 177.481 242.558 176.062C242.558 164.319 242.558 154.097 242.558 154.097C242.558 147.123 239.731 140.81 235.161 136.24C230.591 140.809 227.764 147.123 227.764 154.097Z" fill="#F5F5F5"/>
<path d="M227.764 154.096C227.764 154.096 227.764 155.033 227.764 156.658C232.483 158.004 237.592 158.08 242.558 156.661C242.558 155.035 242.558 154.097 242.558 154.097C242.558 147.123 239.731 140.81 235.161 136.24C230.591 140.808 227.764 147.122 227.764 154.096Z" fill="#229894"/>
<path d="M239.469 165.947C239.469 168.326 237.54 170.255 235.161 170.255C232.782 170.255 230.853 168.326 230.853 165.947C230.853 163.568 232.782 161.639 235.161 161.639C237.54 161.638 239.469 163.567 239.469 165.947Z" fill="#1A7A77"/>
<path d="M235.161 170.255C232.891 170.255 231.036 168.499 230.869 166.272C230.861 166.38 230.853 166.487 230.853 166.597C230.853 168.976 232.782 170.905 235.161 170.905C237.54 170.905 239.469 168.976 239.469 166.597C239.469 166.487 239.461 166.38 239.453 166.272C239.286 168.499 237.43 170.255 235.161 170.255Z" fill="#229894"/>
<path d="M235.16 168.992C236.843 168.992 238.206 167.629 238.206 165.946C238.206 164.264 236.843 162.9 235.16 162.9C233.478 162.9 232.114 164.264 232.114 165.946C232.114 167.629 233.478 168.992 235.16 168.992Z" fill="white"/>
<path d="M235 168.977L236.247 163.109C235.931 162.988 235.591 162.917 235.235 162.908L233.991 168.759C234.304 168.889 234.645 168.958 235 168.977Z" fill="#407BFF"/>
<path d="M236.136 168.819L237.221 163.716C237.081 163.587 236.93 163.471 236.768 163.369L235.581 168.951C235.773 168.925 235.957 168.88 236.136 168.819Z" fill="#407BFF"/>
<g opacity="0.7">
<path d="M235 168.977L236.247 163.109C235.931 162.988 235.591 162.917 235.235 162.908L233.991 168.759C234.304 168.889 234.645 168.958 235 168.977Z" fill="white"/>
<path d="M236.136 168.819L237.221 163.716C237.081 163.587 236.93 163.471 236.768 163.369L235.581 168.951C235.773 168.925 235.957 168.88 236.136 168.819Z" fill="white"/>
</g>
<path d="M345.573 281.571L344.422 281.818C343.376 282.042 342.587 282.902 342.453 283.963L342.351 284.773C342.248 285.593 342.547 286.418 343.17 286.962C345.061 288.615 349.517 291.673 354.917 289.698L359.232 286.454L358.522 280.63L349.559 279.33C349.014 279.351 348.491 279.549 348.069 279.894L345.573 281.571Z" fill="#FAB27B"/>
<path d="M359.232 286.456L371.197 285.853L369.348 279.344L358.522 280.631L359.232 286.456Z" fill="#FAB27B"/>
<path d="M366.361 279.391C365.954 280.174 365.665 281.205 365.876 282.431C366.073 283.577 366.553 285.596 367.813 286.977C365.793 287.001 363.806 287.49 362.007 288.407L361.91 288.457C355.669 284.192 359.274 279.141 359.274 279.141L359.684 279.2C361.898 279.493 364.138 279.561 366.361 279.391Z" fill="#229894"/>
<path d="M390.868 284.764C379.751 287.322 365.918 287.074 365.918 287.074C365.43 286.246 365.274 285.376 365.327 284.529C365.432 282.663 365.679 280.334 366.361 279.392C367.09 278.384 371.823 277.954 371.823 277.954C371.823 277.954 381.107 273.643 382.868 272.234C384.609 270.831 384.562 264.256 384.231 259.9C382.462 236.63 386.555 234.881 390.266 233.837C397.973 231.668 400.711 282.496 390.868 284.764Z" fill="#407BFF"/>
<path d="M314.684 289.753H345.76C346.772 289.753 347.227 288.933 346.777 287.921L338.979 270.389C338.529 269.377 337.344 268.557 336.332 268.557H305.256C304.244 268.557 303.789 269.377 304.239 270.389L312.037 287.921C312.487 288.933 313.672 289.753 314.684 289.753Z" fill="#229894"/>
<path d="M303.914 268.557H305.257C304.245 268.557 303.79 269.377 304.24 270.389L312.038 287.921C312.488 288.933 313.673 289.753 314.685 289.753H313.343C312.331 289.753 311.146 288.933 310.696 287.921L302.898 270.389C302.447 269.377 302.902 268.557 303.914 268.557Z" fill="#1B5E5B"/>
<path d="M315.26 287.737H343.39L335.756 270.573H307.626L315.26 287.737Z" fill="#263238"/>
<path opacity="0.8" d="M315.26 287.737H343.39L335.756 270.573H307.626L315.26 287.737Z" fill="white"/>
<path d="M407.82 288.387C407.82 288.387 408.594 298.639 408.705 302.246C409.448 326.291 389.819 328.127 375.377 325.475L323.086 310.854C321.01 317.805 296.833 356.076 296.833 356.076L284.123 348.778C284.123 348.778 297.301 317.183 305.807 295.198C310.664 282.646 350.192 291.327 364.749 293.909C369.174 295.102 368.321 288.192 368.321 288.192L407.82 288.387Z" fill="#263238"/>
<path d="M293.587 355.357L288.734 363.448L279.679 358.943L284.389 349.731L293.587 355.357Z" fill="#FAB27B"/>
<path d="M274.862 357.282C273.667 356.736 272.533 355.952 272.372 355.258C272.304 354.864 272.493 354.47 272.842 354.276C273.123 354.086 273.468 354.012 273.803 354.071C275.609 354.364 278.086 357.812 278.194 357.964C278.255 358.05 278.256 358.165 278.196 358.251C278.135 358.336 278.029 358.376 277.927 358.353C276.876 358.087 275.851 357.729 274.862 357.282ZM274.19 354.714C274.044 354.644 273.889 354.596 273.729 354.571C273.524 354.516 273.307 354.559 273.137 354.685C272.839 354.891 272.835 355.055 272.864 355.162C273.024 355.991 275.44 357.115 277.33 357.712C276.481 356.523 275.416 355.506 274.19 354.714Z" fill="#229894"/>
<path d="M277.893 358.334C277.857 358.329 277.825 358.31 277.802 358.282C276.886 357.247 275.53 354.107 276.229 353.12C276.372 352.87 276.713 352.643 277.368 352.867C277.848 353.028 278.241 353.378 278.457 353.836C279.221 355.402 278.292 358.111 278.249 358.237C278.217 358.322 278.142 358.383 278.053 358.396C277.994 358.397 277.937 358.375 277.893 358.334ZM277.323 353.368L277.198 353.297C276.773 353.145 276.671 353.297 276.627 353.348C276.27 353.973 277.039 356.295 277.907 357.544C278.291 356.403 278.317 355.17 277.979 354.014C277.845 353.727 277.612 353.497 277.323 353.368Z" fill="#229894"/>
<path d="M279.523 357.457L290.013 362.255C290.408 362.436 290.626 362.866 290.536 363.292L288.529 372.693C288.357 373.528 287.541 374.066 286.705 373.894C286.598 373.872 286.493 373.838 286.393 373.794C282.642 371.999 279.374 370.254 274.663 368.107C269.107 365.568 270.212 366.877 263.638 363.983C259.679 362.235 261.005 357.432 262.774 357.975C270.851 360.507 272.699 358.564 276.895 357.178C277.776 356.945 278.711 357.044 279.523 357.457Z" fill="#263238"/>
<path opacity="0.2" d="M291.121 359.468L293.587 355.357L284.389 349.731L282.113 354.183L291.121 359.468Z" fill="black"/>
<path d="M298.847 355.311L283.089 345.479C283.089 345.479 280.552 346.879 281.11 349.608L296.245 359.277C296.245 359.277 298.283 359.185 298.847 355.311Z" fill="#229894"/>
<path d="M320.409 395.6L318.505 404.57L308.76 403.291L310.177 393.336L320.409 395.6Z" fill="#FAB27B"/>
<path d="M303.809 403.286C302.539 403.162 301.248 402.8 300.881 402.212C300.695 401.871 300.743 401.45 301.003 401.161C301.201 400.897 301.495 400.721 301.821 400.669C303.574 400.367 306.939 402.753 307.087 402.859C307.17 402.919 307.208 403.024 307.179 403.123C307.15 403.22 307.065 403.291 306.964 403.302C305.914 403.39 304.858 403.384 303.809 403.286ZM302.379 401.139C302.223 401.121 302.065 401.126 301.91 401.153C301.705 401.167 301.518 401.275 301.402 401.445C301.192 401.729 301.242 401.88 301.302 401.969C301.711 402.681 304.287 402.95 306.212 402.901C305.056 402.077 303.756 401.479 302.379 401.139Z" fill="#229894"/>
<path d="M306.926 403.297C306.891 403.304 306.856 403.297 306.826 403.278C305.657 402.616 303.418 400.159 303.749 399.031C303.801 398.756 304.043 398.439 304.716 398.438C305.208 398.434 305.68 398.631 306.023 398.984C307.22 400.182 307.222 402.965 307.223 403.095C307.221 403.183 307.171 403.263 307.093 403.303C307.039 403.322 306.979 403.32 306.926 403.297ZM304.833 398.913L304.696 398.887C304.257 398.881 304.211 399.054 304.187 399.114C304.057 399.801 305.497 401.692 306.69 402.566C306.683 401.395 306.316 400.255 305.64 399.299C305.427 399.077 305.14 398.94 304.833 398.913Z" fill="#229894"/>
<path d="M308.148 401.976L319.304 403.071C319.725 403.112 320.06 403.439 320.112 403.859L321.238 413.133C321.344 413.955 320.763 414.707 319.941 414.813C319.836 414.826 319.729 414.829 319.623 414.82C315.608 414.355 312.054 413.784 307.046 413.3C301.137 412.722 302.567 413.576 295.611 412.993C291.42 412.638 291.121 407.805 292.918 407.745C301.141 407.52 302.225 405.15 305.644 402.55C306.38 402.058 307.271 401.854 308.148 401.976Z" fill="#263238"/>
<path opacity="0.2" d="M309.432 398.568L319.609 399.366L320.409 395.6L310.177 393.336L309.432 398.568Z" fill="black"/>
<path d="M323.296 392.05L323.012 393.184L308.081 392.005L308.24 390.871L323.296 392.05Z" fill="#263238"/>
<path d="M323.908 396.734L320.235 396.405L309.873 395.475L306.528 395.169C304.827 393.06 306.381 390.725 306.381 390.725L308.24 390.872L323.296 392.051L324.384 392.142C325.631 395.736 323.908 396.734 323.908 396.734Z" fill="#229894"/>
<path d="M384.529 334.39C371.015 335.58 339.86 336.079 335.642 335.466L323.295 392.051L308.239 390.872C308.239 390.872 309.834 341.942 316.47 321.713C321.805 305.451 407.227 308.823 407.227 308.823L407.533 313.403C408.123 329.186 399.994 333.018 384.529 334.39Z" fill="#263238"/>
<path opacity="0.1" d="M384.529 334.39C371.015 335.58 339.86 336.079 335.642 335.466L323.295 392.051L308.239 390.872C308.239 390.872 309.834 341.942 316.47 321.713C321.805 305.451 407.227 308.823 407.227 308.823L407.533 313.403C408.123 329.186 399.994 333.018 384.529 334.39Z" fill="black"/>
<path d="M316.231 327.622C316.231 327.622 316.242 327.52 316.276 327.35L316.242 327.622C316.231 327.622 316.231 327.622 316.231 327.622Z" fill="#263238"/>
<path d="M317.242 320.264L317.094 321.375C317.094 321.375 317.105 320.978 317.242 320.264Z" fill="#263238"/>
<path d="M365.058 231.906L369.21 237.966L378.545 229.987L372.713 222.821L365.058 231.906Z" fill="#FAB27B"/>
<path opacity="0.2" d="M367.137 234.769C368.944 232.126 368.121 228.012 368.121 228.012L366.479 230.099L365.058 231.905L367.137 234.769Z" fill="black"/>
<path d="M349.1 218.552C349.302 219.143 349.776 219.513 350.169 219.372C350.562 219.231 350.734 218.604 350.521 218.035C350.309 217.466 349.845 217.074 349.453 217.221C349.062 217.368 348.905 217.959 349.1 218.552Z" fill="#263238"/>
<path d="M351.263 218.737L349.937 224.397C349.937 224.397 351.865 224.943 353.741 223.383L351.263 218.737Z" fill="#ED893E"/>
<path d="M348.512 214.424C348.604 214.36 348.719 214.344 348.823 214.382C349.581 214.707 350.453 214.638 351.167 214.198C351.314 214.091 351.516 214.123 351.62 214.269C351.721 214.419 351.684 214.625 351.538 214.735C350.645 215.313 349.538 215.415 348.577 215.007C348.409 214.942 348.327 214.749 348.394 214.577V214.576C348.42 214.516 348.461 214.463 348.512 214.424Z" fill="#263238"/>
<path d="M371.269 208.303C374.302 216.033 375.757 219.242 373.704 224.949C369.651 231.707 360.316 235.804 355.002 229.183C350.218 223.228 346.073 211.615 352.128 204.984C356.446 200.26 363.705 199.824 368.341 204.01C369.644 205.187 370.646 206.657 371.269 208.303Z" fill="#FAB27B"/>
<path d="M378.591 210.611C378.136 213.204 377.937 215.825 377.823 218.455C377.754 220.054 377.393 221.641 376.746 223.105C375.451 226.033 372.832 228.251 369.893 229.521C369.893 229.521 358.994 229.392 354.357 215.678C351.809 215.918 349.172 214.816 347.553 212.835C345.934 210.853 345.379 208.05 346.123 205.601C347.008 202.683 350.7 200.86 353.747 200.752C355.672 198.078 359.017 196.745 362.309 196.87C365.601 196.995 368.736 198.32 371.597 199.955C374.042 201.352 376.428 203.075 377.797 205.535C378.613 207 378.894 208.884 378.591 210.611Z" fill="#263238"/>
<path d="M356.631 217.34C355.934 218.92 355.891 220.696 356.511 222.275C357.35 224.363 359.59 224.008 360.88 222.261C362.049 220.678 363.002 217.695 361.423 216.157C359.844 214.619 357.505 215.418 356.631 217.34Z" fill="#FAB27B"/>
<path d="M378.619 225.476C375.655 225.599 371.186 227.632 365.271 231.716C364.615 232.169 364.391 233.122 364.467 233.916C364.543 234.71 365.34 235.466 366.096 235.212C366.493 236.177 366.754 237.308 367.151 238.273C368.862 237.215 371.038 236.656 372.891 235.874C375.85 234.625 378.95 233.745 382.04 232.869C381.21 231.601 380.1 230.366 379.772 228.886C380.489 228.688 380.841 227.736 380.701 227.005C380.563 226.274 379.362 225.445 378.619 225.476Z" fill="#407BFF"/>
<path d="M378.619 225.476C375.655 225.599 371.186 227.632 365.271 231.716C364.615 232.169 364.391 233.122 364.467 233.916C364.543 234.71 365.34 235.466 366.096 235.212C366.493 236.177 366.754 237.308 367.151 238.273C368.862 237.215 371.038 236.656 372.891 235.874C375.85 234.625 378.95 233.745 382.04 232.869C381.21 231.601 380.1 230.366 379.772 228.886C380.489 228.688 380.841 227.736 380.701 227.005C380.563 226.274 379.362 225.445 378.619 225.476Z" fill="#229894"/>
<path d="M369.844 302.07C369.844 302.07 359.951 278.927 353.667 255.458C349.032 238.147 362.284 237.847 378.269 233.543C390.945 230.13 396.366 233.185 399.988 239.614C403.61 246.043 409.447 300.461 409.447 300.461L369.844 302.07Z" fill="#407BFF"/>
<path d="M369.844 302.07C369.844 302.07 359.951 278.927 353.667 255.458C349.032 238.147 362.284 237.847 378.269 233.543C390.945 230.13 396.366 233.185 399.988 239.614C403.61 246.043 409.447 300.461 409.447 300.461L369.844 302.07Z" fill="#229894"/>
<path d="M312.022 277.117L310.898 277.158C309.877 277.195 308.99 277.873 308.688 278.849L308.457 279.594C308.223 280.349 308.368 281.175 308.863 281.791C310.368 283.661 314.053 287.282 319.464 286.321L324.065 283.986L324.366 278.386L316.146 275.671C315.63 275.6 315.104 275.7 314.649 275.953L312.022 277.117Z" fill="#FAB27B"/>
<path d="M324.065 283.985L335.426 285.409L334.77 278.975L324.365 278.385L324.065 283.985Z" fill="#FAB27B"/>
<path d="M331.951 278.522C331.437 279.191 330.994 280.114 330.988 281.303C330.982 282.415 331.099 284.395 332.055 285.904C330.15 285.59 328.199 285.72 326.352 286.284L326.252 286.315C321.088 281.262 325.321 277.108 325.321 277.108L325.697 277.231C327.734 277.876 329.83 278.312 331.951 278.522Z" fill="#229894"/>
<path d="M354.122 287.657C343.233 288.215 330.254 285.68 330.254 285.68C329.932 284.819 329.93 283.975 330.121 283.186C330.53 281.447 331.151 279.296 331.949 278.523C332.803 277.695 337.329 278.079 337.329 278.079C337.329 278.079 346.785 275.566 348.676 274.533C350.548 273.502 351.598 267.306 352.011 263.151C354.218 240.954 358.362 239.989 362.029 239.624C369.645 238.864 363.764 287.161 354.122 287.657Z" fill="#26A9A4"/>
<path d="M321.238 413.133L331.404 350.33C332.478 343.695 338.207 338.819 344.928 338.819H369.881C376.818 338.819 382.66 344.004 383.484 350.892L391.034 413.993" stroke="#263238" stroke-width="2" stroke-miterlimit="10"/>
<path d="M356.138 413.133L366.304 350.33C367.378 343.695 373.107 338.819 379.828 338.819H404.781C411.718 338.819 417.56 344.004 418.384 350.892L425.934 413.993" stroke="#263238" stroke-width="2" stroke-miterlimit="10"/>
<path d="M323.908 396.735H358.254" stroke="#263238" stroke-width="2" stroke-miterlimit="10"/>
<path d="M383.485 350.891H418.998" stroke="#263238" stroke-width="2" stroke-miterlimit="10"/>
<path d="M389.981 340.249H416.111C426.185 340.249 434.566 332.504 435.361 322.462L439.079 275.523C439.682 267.914 433.67 261.406 426.037 261.406H411.603C394.756 261.406 379.908 272.467 375.086 288.609L365.074 322.126C363.396 327.745 358.228 331.596 352.364 331.596H334.101C329.322 331.596 325.447 335.471 325.447 340.25H374.587H389.981V340.249Z" fill="#26A9A4"/>
<path d="M364.09 178.252H364.094L364.103 178.146C364.1 178.182 364.097 178.215 364.09 178.252Z" fill="#407BFF"/>
<path d="M317.001 165.589C313.624 168.725 311.057 172.741 309.751 177.23L307.919 177.208C308.551 172.121 310.499 167.379 313.391 163.33L317.001 165.589Z" fill="#229894"/>
<path d="M327.6 159.606C323.634 160.714 319.996 162.804 317.002 165.588L313.393 163.329C316.327 159.218 320.23 155.821 324.709 153.5L327.6 159.606Z" fill="#229894"/>
<path d="M338.832 150.111L337.944 159.042C336.698 158.822 335.402 158.712 334.074 158.712C331.855 158.712 329.682 159.024 327.599 159.607L324.708 153.5C328.88 151.336 333.558 150.107 338.41 150.107C338.55 150.107 338.693 150.107 338.832 150.111Z" fill="#229894"/>
<path d="M352.206 153.908L346.382 162.457C343.934 160.762 341.077 159.578 337.944 159.042L338.832 150.111C343.818 150.185 348.374 151.557 352.206 153.908Z" fill="#229894"/>
<path d="M361.462 163.982L352.358 168.853C350.849 166.315 348.817 164.136 346.382 162.457L352.206 153.908C356.175 156.338 359.369 159.815 361.462 163.982Z" fill="#229894"/>
<path d="M364.119 177.886L355.216 177.78C354.922 174.516 353.922 171.49 352.359 168.853L361.463 163.982C363.511 168.068 364.5 172.814 364.119 177.886Z" fill="#229894"/>
<path d="M364.103 178.147C364.1 178.184 364.097 178.217 364.09 178.253C363.852 180.762 362.854 184.925 361.717 187.353L354.512 185.724L355.092 182.97C355.145 182.614 355.188 182.255 355.223 181.892H355.227L355.246 181.672H355.242C355.347 180.344 355.336 179.046 355.216 177.781L364.119 177.887C364.118 177.938 364.114 177.986 364.11 178.037C364.11 178.074 364.107 178.111 364.103 178.147Z" fill="#229894"/>
<path d="M309.015 186.78L308.477 186.897C308.31 186.211 308.169 185.514 308.055 184.806C307.722 182.704 307.631 180.511 307.81 178.252H307.806L307.815 178.146C307.818 178.109 307.821 178.073 307.828 178.036C307.856 177.757 307.884 177.482 307.919 177.207L309.751 177.229C309.332 178.663 309.04 180.152 308.893 181.671C308.886 181.708 308.883 181.744 308.88 181.781C308.877 181.818 308.874 181.854 308.874 181.891C308.802 182.793 308.787 183.681 308.82 184.557C308.846 185.309 308.91 186.05 309.015 186.78Z" fill="#229894"/>
<path d="M363.517 185.327L362.765 187.215L361.221 186.867L346.868 183.618L340.687 182.216C341.125 181.659 341.481 181.049 341.746 180.41C342.063 179.651 342.256 178.851 342.308 178.043L356.01 182.746V182.75L363.517 185.327Z" fill="#263238"/>
<path d="M342.308 178.045C342.212 179.529 341.642 180.995 340.687 182.218L335.136 180.962L336.893 176.184L342.308 178.045Z" fill="#263238"/>
<path d="M342.308 178.045C342.212 179.529 341.642 180.995 340.687 182.218C340.021 183.074 339.168 183.814 338.152 184.357C334.583 186.268 330.374 185.06 328.757 181.654C327.144 178.252 328.729 173.937 332.303 172.023C335.873 170.109 340.081 171.32 341.698 174.726C342.196 175.779 342.388 176.919 342.308 178.045Z" fill="#1D8C88"/>
<path d="M114.485 173.809H120.208V178.607H113.913L113.033 185.651H108.058L108.938 178.607H102.467L101.587 185.651H96.6555L97.5365 178.607H91.7695V173.809H98.1085L99.0325 166.678H93.2655V161.88H99.6045L100.485 154.836H105.416L104.535 161.88H111.006L111.887 154.836H116.817L115.937 161.88H121.66L121.704 166.678H115.365L114.485 173.809ZM109.51 173.809L110.434 166.678H103.963L103.039 173.809H109.51Z" fill="#229894"/>
<path d="M136.185 154.836V185.651H129.054V160.559H122.891V154.836H136.185Z" fill="#229894"/>
<path d="M109.461 283.006H60.1504V316.954H109.461V283.006Z" fill="#263238"/>
<path d="M109.461 283.006H60.1504V286.116H109.461V283.006Z" fill="#229894"/>
<path d="M69.1854 301.782L77.2475 306.25C77.6515 306.477 77.9215 306.68 78.0545 306.857C78.1875 307.035 78.2544 307.262 78.2544 307.537C78.2544 307.885 78.1294 308.187 77.8784 308.442C77.6274 308.697 77.3354 308.824 77.0044 308.824C76.7854 308.824 76.4585 308.703 76.0215 308.46L65.6215 302.676C64.9205 302.286 64.9205 301.278 65.6215 300.888L76.0215 295.104C76.4585 294.869 76.7814 294.752 76.9924 294.752C77.3324 294.752 77.6274 294.878 77.8794 295.128C78.1304 295.379 78.2554 295.679 78.2554 296.026C78.2554 296.301 78.1885 296.528 78.0555 296.706C77.9215 296.884 77.6525 297.086 77.2485 297.313L69.1854 301.782Z" fill="white"/>
<path d="M89.9287 293.453L81.9517 310.645C81.7487 311.074 81.5667 311.353 81.4047 311.483C81.1937 311.653 80.9397 311.738 80.6397 311.738C80.2997 311.738 80.0067 311.617 79.7587 311.373C79.5117 311.13 79.3887 310.855 79.3887 310.548C79.3887 310.33 79.4857 310.01 79.6797 309.589L87.6807 292.409C87.8827 291.98 88.0617 291.701 88.2147 291.571C88.4337 291.401 88.6887 291.316 88.9797 291.316C89.3197 291.316 89.6107 291.435 89.8537 291.674C90.0967 291.913 90.2187 292.186 90.2187 292.494C90.2197 292.712 90.1227 293.032 89.9287 293.453Z" fill="white"/>
<path d="M99.9586 301.783L91.8967 297.315C91.4917 297.089 91.2226 296.886 91.0896 296.708C90.9556 296.53 90.8896 296.303 90.8896 296.028C90.8896 295.68 91.0146 295.381 91.2656 295.13C91.5166 294.879 91.8116 294.754 92.1516 294.754C92.3626 294.754 92.6866 294.871 93.1236 295.106L103.524 300.89C104.225 301.28 104.225 302.288 103.524 302.678L93.1236 308.462C92.6866 308.705 92.3626 308.826 92.1516 308.826C91.8076 308.826 91.5086 308.697 91.2566 308.441C91.0186 308.199 90.8896 307.879 90.8896 307.539C90.8896 307.264 90.9566 307.038 91.0896 306.86C91.2226 306.682 91.4917 306.48 91.8967 306.253L99.9586 301.783Z" fill="white"/>
</svg>
