<svg width="222" height="262" fill="none" xmlns="http://www.w3.org/2000/svg"><path style="mix-blend-mode:multiply" d="M180.562 182.475c47.381 15.507 54.688 43.599 16.318 62.745-38.369 19.146-107.886 22.1-155.271 6.593-47.385-15.506-54.688-43.595-16.319-62.745 38.37-19.15 107.887-22.096 155.272-6.593Z" fill="url(#a)"/><path d="M108.484 218.891c-22.786 0-44.285-3.091-62.15-8.942-25.129-8.224-39.554-20.926-40.617-35.765-.524-7.307 2.097-21.308 25.51-32.993 19.176-9.569 47.385-15.054 77.388-15.054 22.791 0 44.29 3.095 62.174 8.946 25.13 8.22 39.555 20.922 40.618 35.761.52 7.303-2.097 21.308-25.514 32.993-19.205 9.569-47.413 15.054-77.409 15.054Z" fill="#001C63" style="mix-blend-mode:multiply" opacity=".2"/><path d="M108.484 234.679c-22.786 0-44.285-3.096-62.15-8.947-25.129-8.224-39.554-20.922-40.617-35.761-.524-7.307 2.097-21.307 25.51-32.997 19.176-9.544 47.385-15.054 77.388-15.054 22.791 0 44.29 3.095 62.174 8.946 25.13 8.225 39.555 20.922 40.618 35.761.52 7.307-2.097 21.308-25.514 32.993-19.205 9.569-47.413 15.059-77.409 15.059Z" fill="#001C63" style="mix-blend-mode:multiply" opacity=".2"/><path d="M168.345 142.663c40.798 13.349 47.091 37.537 14.053 54.023-33.037 16.486-92.889 19.025-133.703 5.676-40.815-13.349-47.087-37.536-14.05-54.022 33.038-16.487 92.906-19.026 133.7-5.677Z" fill="#001C63" style="mix-blend-mode:multiply"/><g style="mix-blend-mode:multiply"><path d="M156.172 148.738c32.489 10.635 37.502 29.897 11.191 43.026-26.311 13.13-73.983 15.154-106.476 4.523-32.494-10.631-37.503-29.876-11.191-43.026 26.311-13.15 73.982-15.154 106.476-4.523Z" fill="url(#b)"/><path d="M156.172 148.738c32.489 10.635 37.502 29.897 11.191 43.026-26.311 13.13-73.983 15.154-106.476 4.523-32.494-10.631-37.503-29.876-11.191-43.026 26.311-13.15 73.982-15.154 106.476-4.523Z" fill="url(#c)"/><path d="M156.172 148.738c32.489 10.635 37.502 29.897 11.191 43.026-26.311 13.13-73.983 15.154-106.476 4.523-32.494-10.631-37.503-29.876-11.191-43.026 26.311-13.15 73.982-15.154 106.476-4.523Z" fill="url(#d)"/></g><path d="M176.306 145.125h-13.42a71.331 71.331 0 0 0-11.706-4.917c-29.088-9.519-71.766-7.706-95.322 4.05-.572.286-1.116.576-1.656.867H40.885v14.743c-1.227 8.511 7.34 17.133 24.99 22.91 29.092 9.519 71.771 7.705 95.327-4.05 10.173-5.075 15.104-11.175 15.095-17.238l.009-16.365Z" fill="#E6E6ED"/><path d="M151.18 123.841c29.091 9.519 33.577 26.764 10.021 38.52-23.555 11.756-66.238 13.565-95.326 4.05-29.087-9.515-33.573-26.769-10.017-38.52 23.555-11.752 66.234-13.569 95.322-4.05Z" fill="#FAFAFF"/><path style="mix-blend-mode:multiply" d="M108.456 172.623c37.474 0 67.853-12.312 67.853-27.499s-30.379-27.499-67.853-27.499c-37.475 0-67.853 12.312-67.853 27.499s30.378 27.499 67.853 27.499Z" fill="url(#e)"/><path d="M176.306 118.019h-13.42a71.085 71.085 0 0 0-11.706-4.917c-29.088-9.519-71.766-7.706-95.322 4.05-.572.286-1.116.577-1.656.867H40.885v14.744c-1.227 8.51 7.34 17.133 24.99 22.909 29.092 9.519 71.771 7.706 95.327-4.05 10.173-5.075 15.104-11.174 15.095-17.237l.009-16.366Z" fill="#E6E6ED"/><path d="M151.18 96.719c29.091 9.519 33.577 26.764 10.021 38.52-23.555 11.756-66.238 13.565-95.326 4.046-29.087-9.519-33.573-26.765-10.017-38.516 23.555-11.752 66.234-13.553 95.322-4.05Z" fill="#FAFAFF"/><path style="mix-blend-mode:multiply" opacity=".25" d="M108.456 132.264c19.409 0 35.143-6.378 35.143-14.245 0-7.868-15.734-14.246-35.143-14.246s-35.143 6.378-35.143 14.246c0 7.867 15.734 14.245 35.143 14.245Z" fill="url(#f)"/><path d="M106.35 23.232c0 5.049-1.154 8.862-3.463 11.44-2.309 2.579-5.422 3.868-9.339 3.868-3.944 0-7.072-1.29-9.384-3.868-2.311-2.578-3.472-6.391-3.483-11.44v-7.843c0-5.05 1.146-8.864 3.438-11.44C86.412 1.374 89.533.086 93.483.086c3.93 0 7.056 1.292 9.375 3.876 2.32 2.583 3.478 6.393 3.476 11.427l.016 7.843Zm-8.525-8.444c0-2.858-.37-4.913-1.112-6.167a3.574 3.574 0 0 0-1.347-1.395 3.504 3.504 0 0 0-1.867-.476 3.435 3.435 0 0 0-1.866.468 3.505 3.505 0 0 0-1.335 1.403c-.715 1.254-1.073 3.31-1.076 6.167v8.983c0 2.913.363 4.988 1.088 6.225.316.585.786 1.069 1.358 1.398a3.5 3.5 0 0 0 1.88.465 3.452 3.452 0 0 0 1.856-.47 3.52 3.52 0 0 0 1.333-1.393c.725-1.242 1.088-3.317 1.088-6.224v-8.984ZM125.935.073c1.3-.014 2.598.11 3.872.37 1.278.296 2.531.696 3.746 1.195l-1.419 6.315c-1.182-.357-2.212-.626-3.099-.805a15.213 15.213 0 0 0-3.051-.27 6.013 6.013 0 0 0-2.68.518 6.093 6.093 0 0 0-2.189 1.653c-1.222 1.444-1.808 3.553-1.758 6.328l.077.128a7.39 7.39 0 0 1 2.96-2.004 11.546 11.546 0 0 1 4.2-.718c3.287 0 5.847 1.202 7.678 3.606 1.832 2.404 2.747 5.482 2.744 9.233 0 3.696-1.21 6.773-3.631 9.233-2.42 2.46-5.51 3.687-9.269 3.684-4.034 0-7.29-1.344-9.768-4.033-2.478-2.689-3.718-6.37-3.721-11.042v-7.523c0-4.93 1.43-8.802 4.289-11.619 2.86-2.816 6.533-4.232 11.019-4.249Zm-1.696 19.387a8.58 8.58 0 0 0-3.047.485 4.775 4.775 0 0 0-2.011 1.353v2.2c0 2.697.435 4.771 1.304 6.224a4.088 4.088 0 0 0 1.517 1.597c.64.381 1.372.576 2.114.565 1.281 0 2.326-.614 3.136-1.843a7.765 7.765 0 0 0 1.227-4.373c0-1.892-.393-3.397-1.178-4.515a3.614 3.614 0 0 0-1.315-1.25 3.548 3.548 0 0 0-1.747-.443ZM119.203 69.11a4.647 4.647 0 0 0 1.015-2.882 4.661 4.661 0 0 0-4.655-4.662 4.664 4.664 0 0 0-4.659 4.662c0 1.088.333 2.089.96 2.883-1.919 1.216-3.24 3.358-3.24 5.793v5.672c0 .863.789 1.612 1.652 1.612h10.586c.864 0 1.513-.75 1.513-1.612v-5.671a6.832 6.832 0 0 0-3.172-5.794ZM105.082 87.515v-5.671c0-2.435-1.199-4.577-3.118-5.794.627-.794 1.042-1.795 1.042-2.883 0-2.57-2.072-4.661-4.642-4.661a4.658 4.658 0 0 0-4.652 4.662c0 1.087.386 2.088 1.013 2.882a6.846 6.846 0 0 0-3.186 5.794v5.672c0 .863.688 1.549 1.55 1.549h10.587c.864 0 1.406-.686 1.406-1.55ZM136.344 76.05c.627-.794 1.043-1.795 1.043-2.883 0-2.57-2.07-4.661-4.641-4.661a4.658 4.658 0 0 0-4.651 4.661c0 1.088.384 2.09 1.011 2.883a6.847 6.847 0 0 0-3.189 5.794v5.671c0 .864.693 1.55 1.556 1.55h10.587c.863 0 1.4-.686 1.4-1.55v-5.671c0-2.436-1.196-4.577-3.116-5.794ZM119.203 103.542a4.647 4.647 0 0 0 1.015-2.882 4.662 4.662 0 0 0-4.655-4.662 4.664 4.664 0 0 0-4.659 4.662c0 1.087.333 2.088.96 2.882-1.919 1.217-3.24 3.358-3.24 5.794v5.671c0 .864.789 1.56 1.652 1.56h10.586c.864 0 1.513-.697 1.513-1.56v-5.671a6.832 6.832 0 0 0-3.172-5.794Zm-3.634-4.419a1.538 1.538 0 0 1 0 3.073c-.847 0-1.536-.69-1.536-1.536 0-.847.689-1.537 1.536-1.537Zm3.681 14.319h-7.501v-4.106c0-2.057 1.694-3.731 3.751-3.731s3.75 1.674 3.75 3.731v4.106ZM116.958 90.434v-5.178a1.562 1.562 0 1 0-3.125 0v5.178a1.562 1.562 0 1 0 3.125 0ZM100.361 90.774a1.563 1.563 0 0 0-2.149 2.27l7.857 7.439a1.56 1.56 0 0 0 2.209-.06 1.564 1.564 0 0 0-.06-2.21l-7.857-7.44ZM130.762 90.75l-7.835 7.458a1.563 1.563 0 0 0 2.154 2.264l7.835-7.457a1.562 1.562 0 1 0-2.154-2.264Z" fill="#001C63"/><defs><radialGradient id="a" cx="0" cy="0" r="1" gradientUnits="userSpaceOnUse" gradientTransform="matrix(107.502 0 0 42.5488 111.085 204.082)"><stop stop-color="#1628B1"/><stop offset="1" stop-color="#fff"/></radialGradient><radialGradient id="b" cx="0" cy="0" r="1" gradientUnits="userSpaceOnUse" gradientTransform="matrix(53.75844 -21.51545 14.84431 37.08996 115.532 171.802)"><stop stop-color="#80E3C8"/><stop offset=".43" stop-color="#82E3C9"/><stop offset=".58" stop-color="#89E5CC"/><stop offset=".69" stop-color="#94E8D1"/><stop offset=".78" stop-color="#A5EBD8"/><stop offset=".86" stop-color="#BBF0E2"/><stop offset=".93" stop-color="#D7F6ED"/><stop offset=".99" stop-color="#F6FDFB"/><stop offset="1" stop-color="#fff"/></radialGradient><radialGradient id="c" cx="0" cy="0" r="1" gradientUnits="userSpaceOnUse" gradientTransform="matrix(53.75844 -21.51545 14.84431 37.08996 115.532 171.802)"><stop stop-color="#80E3C8"/><stop offset=".43" stop-color="#82E3C9"/><stop offset=".58" stop-color="#89E5CC"/><stop offset=".69" stop-color="#94E8D1"/><stop offset=".78" stop-color="#A5EBD8"/><stop offset=".86" stop-color="#BBF0E2"/><stop offset=".93" stop-color="#D7F6ED"/><stop offset=".99" stop-color="#F6FDFB"/><stop offset="1" stop-color="#fff"/></radialGradient><radialGradient id="d" cx="0" cy="0" r="1" gradientUnits="userSpaceOnUse" gradientTransform="matrix(53.75844 -21.51545 14.84431 37.08996 115.532 171.802)"><stop stop-color="#1628B1"/><stop offset=".38" stop-color="#182AB2"/><stop offset=".52" stop-color="#1F30B4"/><stop offset=".61" stop-color="#2A3BB8"/><stop offset=".69" stop-color="#3B4BBE"/><stop offset=".76" stop-color="#515FC5"/><stop offset=".82" stop-color="#6D78CE"/><stop offset=".87" stop-color="#8D96D9"/><stop offset=".92" stop-color="#B3B9E5"/><stop offset=".97" stop-color="#DCDFF3"/><stop offset="1" stop-color="#fff"/></radialGradient><radialGradient id="e" cx="0" cy="0" r="1" gradientUnits="userSpaceOnUse" gradientTransform="matrix(67.6449 0 0 25.4005 108.456 148.578)"><stop stop-color="#1628B1"/><stop offset="1" stop-color="#fff"/></radialGradient><radialGradient id="f" cx="0" cy="0" r="1" gradientUnits="userSpaceOnUse" gradientTransform="matrix(35.0368 0 0 13.1562 108.456 121.436)"><stop stop-color="#1628B1"/><stop offset="1" stop-color="#fff"/></radialGradient></defs></svg>