<svg width="222" height="269" fill="none" xmlns="http://www.w3.org/2000/svg"><path style="mix-blend-mode:multiply" d="M180.142 189.498c47.405 15.503 54.691 43.595 16.33 62.733-38.361 19.137-107.887 22.1-155.272 6.597-47.384-15.502-54.687-43.599-16.318-62.745 38.37-19.146 107.875-22.092 155.26-6.585Z" fill="url(#a)"/><path d="M110.607 225.915c-22.786 0-44.285-3.096-62.15-8.947-25.129-8.224-39.554-20.922-40.617-35.76-.524-7.308 2.097-21.308 25.514-32.993 19.172-9.569 47.38-15.055 77.388-15.055 22.787 0 44.286 3.092 62.17 8.942 25.13 8.225 39.555 20.927 40.618 35.765.524 7.304-2.097 21.304-25.514 32.989-19.192 9.569-47.401 15.059-77.409 15.059Z" fill="#029894" style="mix-blend-mode:multiply" opacity=".2"/><path d="M170.484 149.686c40.794 13.35 47.086 37.533 14.049 54.019-33.038 16.486-92.89 19.03-133.703 5.681-40.815-13.349-47.087-37.537-14.05-54.023 33.038-16.486 92.906-19.026 133.704-5.677Z" fill="#029894" style="mix-blend-mode:multiply"/><g style="mix-blend-mode:multiply"><path d="M158.308 155.762c32.493 10.631 37.502 29.877 11.191 43.026-26.312 13.15-73.983 15.155-106.476 4.519-32.494-10.635-37.503-29.876-11.192-43.022 26.312-13.146 73.983-15.154 106.477-4.523Z" fill="url(#b)"/><path d="M158.308 155.762c32.493 10.631 37.502 29.877 11.191 43.026-26.312 13.15-73.983 15.155-106.476 4.519-32.494-10.635-37.503-29.876-11.192-43.022 26.312-13.146 73.983-15.154 106.477-4.523Z" fill="url(#c)"/><path d="M158.308 155.762c32.493 10.631 37.502 29.877 11.191 43.026-26.312 13.15-73.983 15.155-106.476 4.519-32.494-10.635-37.503-29.876-11.192-43.022 26.312-13.146 73.983-15.154 106.477-4.523Z" fill="url(#d)"/></g><path d="M110.607 241.698c-22.786 0-44.285-3.091-62.15-8.946-25.129-8.221-39.554-20.922-40.617-35.761-.524-7.308 2.097-21.308 25.514-32.993 19.172-9.569 47.38-15.055 77.388-15.055 22.787 0 44.286 3.092 62.17 8.947 25.13 8.22 39.555 20.922 40.618 35.76.524 7.304-2.097 21.308-25.514 32.993-19.192 9.565-47.401 15.055-77.409 15.055Z" fill="#029894" style="mix-blend-mode:multiply" opacity=".2"/><path d="M178.445 152.148h-13.423a70.642 70.642 0 0 0-11.703-4.901c-29.091-9.519-71.77-7.706-95.326 4.046-.572.286-1.112.577-1.635.871H43.024v14.739c-1.226 8.515 7.36 17.134 24.987 22.91 29.092 9.519 71.77 7.706 95.326-4.046 10.173-5.079 15.104-11.179 15.096-17.237l.012-16.382Z" fill="#E6EFEC"/><path d="M153.319 130.864c29.087 9.519 33.573 26.764 10.017 38.516-23.555 11.751-66.238 13.569-95.326 4.05-29.088-9.519-33.573-26.765-10.017-38.521 23.555-11.755 66.234-13.564 95.326-4.045Z" fill="#F8FFFD"/><path style="mix-blend-mode:multiply" d="M110.592 179.646c37.474 0 67.853-12.311 67.853-27.498 0-15.188-30.379-27.499-67.853-27.499-37.475 0-67.854 12.311-67.854 27.499 0 15.187 30.38 27.498 67.854 27.498Z" fill="url(#e)"/><path d="M178.445 125.043h-13.423a70.63 70.63 0 0 0-11.703-4.918c-29.091-9.519-71.77-7.709-95.326 4.046a36.94 36.94 0 0 0-1.635.872H43.024v14.735c-1.226 8.514 7.36 17.133 24.987 22.909 29.092 9.519 71.77 7.706 95.326-4.05 10.173-5.075 15.104-11.174 15.096-17.233l.012-16.361Z" fill="#E6EFEC"/><path d="M153.319 103.755c29.087 9.519 33.573 26.764 10.017 38.52-23.555 11.756-66.238 13.569-95.326 4.05-29.088-9.519-33.573-26.765-10.017-38.52 23.555-11.756 66.234-13.565 95.326-4.05Z" fill="#F8FFFD"/><path style="mix-blend-mode:multiply" opacity=".25" d="M110.591 139.288c19.409 0 35.143-6.378 35.143-14.246 0-7.867-15.734-14.245-35.143-14.245s-35.143 6.378-35.143 14.245c0 7.868 15.734 14.246 35.143 14.246Z" fill="url(#f)"/><path d="M108.489 23.65c0 5.048-1.156 8.861-3.467 11.44-2.312 2.578-5.423 3.863-9.335 3.854-3.95 0-7.084-1.287-9.404-3.863-2.32-2.575-3.476-6.389-3.468-11.44V15.79c0-5.051 1.148-8.865 3.443-11.44 2.295-2.576 5.415-3.864 9.36-3.864 3.93 0 7.055 1.294 9.375 3.88 2.32 2.587 3.48 6.395 3.48 11.424l.016 7.86Zm-8.513-8.45c0-2.857-.37-4.91-1.112-6.161a3.57 3.57 0 0 0-1.346-1.4 3.5 3.5 0 0 0-1.868-.476c-.653-.023-1.3.14-1.866.472a3.517 3.517 0 0 0-1.335 1.404c-.715 1.25-1.073 3.304-1.076 6.162v8.988c0 2.907.364 4.982 1.092 6.224a3.552 3.552 0 0 0 1.357 1.4c.572.33 1.224.49 1.881.463a3.44 3.44 0 0 0 1.855-.47 3.509 3.509 0 0 0 1.33-1.393c.728-1.242 1.09-3.317 1.088-6.224V15.2ZM131.051 38.412h-8.521V9.731h-8.222V3.618L131.072 1l-.021 37.412Z" fill="#029894"/><path fill-rule="evenodd" clip-rule="evenodd" d="M92.641 57.537h33.561c.64 0 1.222.264 1.647.685v.005c.421.425.685 1.007.685 1.647V92.01a2.342 2.342 0 0 1-2.337 2.336h-11.776a23.364 23.364 0 0 0-.121-2.112h11.906a.229.229 0 0 0 .224-.224V65.916a1.224 1.224 0 0 1-.224.018H92.641c-.076 0-.152-.009-.223-.018v6.696c-.712 0-1.42.036-2.113.103V59.874c0-.645.264-1.231.685-1.652.027-.027.05-.05.076-.072.416-.38.971-.613 1.575-.613Zm13.674 44.894c.059-.103.117-.215.179-.327l.005-.005c.071-.134.139-.268.206-.398.076-.148.147-.3.219-.456.076-.162.143-.314.21-.466l.027-.049c.099-.237.193-.47.278-.707.085-.238.17-.48.246-.725v-.005c.076-.242.143-.488.206-.739a16.996 16.996 0 0 0 .362-1.965v-.004c.023-.179.041-.362.059-.55.013-.148.022-.296.031-.44h-4.4a14.608 14.608 0 0 1-.188 1.71 14.187 14.187 0 0 1-.43 1.804 17.8 17.8 0 0 1-.64 1.755 17.976 17.976 0 0 1-.765 1.571l4.395-.004Zm-1.333 2.032h-4.315a26.29 26.29 0 0 1-1.173 1.548 32.267 32.267 0 0 1-2.86 3.053c-.42.398-.86.797-1.311 1.191l.362-.068c.25-.049.501-.107.757-.174.255-.063.505-.134.751-.211.247-.076.493-.161.739-.25.246-.09.488-.188.725-.291.246-.108.488-.215.72-.327.233-.112.466-.233.699-.358.228-.125.456-.251.671-.385.22-.134.439-.268.645-.412.21-.143.421-.286.622-.438a15.071 15.071 0 0 0 1.719-1.491c.139-.143.277-.282.412-.425.134-.143.264-.286.389-.434.103-.117.201-.237.3-.358l.148-.17Zm-15.402 5.792a38.907 38.907 0 0 1-1.316-1.191 34.546 34.546 0 0 1-1.46-1.464 29.56 29.56 0 0 1-1.396-1.589c-.42-.514-.81-1.029-1.172-1.548H79.93l.143.179c.099.121.202.241.3.358.255.291.524.577.801.855l.005.009a15.193 15.193 0 0 0 1.123 1.016c.192.161.394.313.595.465a15.187 15.187 0 0 0 1.271.851 15.217 15.217 0 0 0 1.365.738c.233.112.475.219.721.327.023.009.032.018.054.031a17.123 17.123 0 0 0 1.432.524h.005a14.85 14.85 0 0 0 1.5.376l.335.063Zm-11.006-7.815h4.395a19.855 19.855 0 0 1-.77-1.58 16.397 16.397 0 0 1-.64-1.76c-.179-.6-.322-1.199-.425-1.803a13.547 13.547 0 0 1-.188-1.697H76.55c.008.144.022.291.03.439.019.188.037.376.06.555a17.856 17.856 0 0 0 .191 1.204l.005.018c.05.25.107.501.17.756.063.255.134.506.21.752.076.246.162.493.251.739.09.246.188.488.291.725l.004.009c.063.148.13.3.202.452l.004.004c.068.144.14.291.21.444.072.143.14.277.211.411.063.108.121.22.184.332Zm-2.023-8.863h4.44a14.7 14.7 0 0 1 .25-1.683c.126-.6.287-1.2.484-1.799l.004-.009c.193-.586.425-1.173.69-1.754.241-.533.51-1.066.81-1.598h-4.655c-.063.112-.126.228-.184.335-.072.13-.139.269-.21.412l-.005.005c-.076.147-.143.295-.215.443-.071.152-.138.304-.201.456l-.013.027-.018.027c-.099.233-.188.47-.278.707-.085.242-.17.483-.246.725a14.316 14.316 0 0 0-.38 1.508c-.04.206-.076.408-.108.6-.031.197-.063.399-.085.605-.022.183-.04.367-.058.555-.005.147-.018.295-.022.438Zm3.36-8.862H84.5c.362-.515.747-1.025 1.159-1.54.425-.528.882-1.056 1.36-1.589a43.116 43.116 0 0 1 2.721-2.708l-.187.032-.322.062c-.25.05-.506.108-.761.175a14.559 14.559 0 0 0-1.495.461c-.246.09-.488.188-.725.29a18.194 18.194 0 0 0-2.09 1.07 17.067 17.067 0 0 0-1.262.846c-.206.153-.403.305-.596.466-.192.157-.385.322-.573.497-.183.17-.367.344-.55.528l-.01.004a17.3 17.3 0 0 0-.402.417c-.134.143-.264.286-.39.434a8.088 8.088 0 0 0-.304.362l-.161.193Zm15.255-5.819a42.813 42.813 0 0 1 2.708 2.695 31.003 31.003 0 0 1 2.515 3.128h4.579l-.143-.183a16.733 16.733 0 0 0-1.101-1.217 12.446 12.446 0 0 0-.555-.529 11.756 11.756 0 0 0-.573-.492c-.193-.161-.394-.313-.595-.466a19.058 19.058 0 0 0-.623-.438 16.356 16.356 0 0 0-2.01-1.15c-.232-.112-.474-.22-.724-.327-.023-.01-.032-.018-.054-.032a17.554 17.554 0 0 0-1.432-.523h-.005c-.242-.076-.492-.143-.738-.21-.251-.063-.502-.121-.761-.17l-.322-.063-.166-.023Zm11.149 7.838h-4.646c.3.532.569 1.065.806 1.593.264.586.497 1.177.689 1.764.197.6.363 1.2.484 1.799.116.564.201 1.123.25 1.683h4.436c-.009-.143-.022-.291-.031-.439a19.105 19.105 0 0 0-.144-1.16 19.011 19.011 0 0 0-.107-.599l-.004-.018c-.05-.25-.108-.501-.175-.756a13.627 13.627 0 0 0-.461-1.49c-.09-.247-.188-.484-.287-.721l-.004-.014c-.063-.147-.13-.3-.201-.452l-.005-.004a19.824 19.824 0 0 0-.21-.443 10.376 10.376 0 0 0-.211-.408 5.055 5.055 0 0 0-.179-.335Zm-17.47-9.74a17.847 17.847 0 0 1 3.608-.358c.614 0 1.222.031 1.827.09a18.697 18.697 0 0 1 1.781.268c.286.054.573.12.855.192a17.866 17.866 0 0 1 1.674.515c.269.099.541.206.81.322.031.01.05.018.08.036.256.112.51.229.77.354.265.125.52.26.766.394l.004.004c.255.139.506.282.752.43l.005.004c.25.153.497.305.734.466.233.157.465.318.694.483.228.17.452.345.675.524.224.183.439.371.654.564.219.197.43.398.631.6l.009.009c.201.197.398.402.586.613a15.67 15.67 0 0 1 1.084 1.325c.17.233.335.47.496.707l.005.004a17.519 17.519 0 0 1 1.289 2.251 17.2 17.2 0 0 1 .985 2.475c.089.287.17.57.241.856.072.282.139.573.197.868.058.296.112.587.157.882a18.647 18.647 0 0 1 .179 1.808c.013.31.022.618.022.922 0 .305-.009.609-.022.918a18.615 18.615 0 0 1-.179 1.804v.004c-.045.287-.094.582-.157.877-.054.287-.121.573-.192.855-.072.282-.152.564-.237.846a19.7 19.7 0 0 1-.278.828c-.098.269-.206.542-.322.806-.009.036-.023.054-.041.085a17.001 17.001 0 0 1-.756 1.553c-.143.26-.286.51-.43.752a18.793 18.793 0 0 1-.949 1.423c-.17.229-.344.452-.523.672l-.005.004a15.48 15.48 0 0 1-.564.654l-.004.004c-.197.215-.394.421-.591.622l-.013.014c-.202.201-.403.398-.609.586-.21.188-.425.376-.645.56-.219.179-.443.353-.676.528-.232.17-.465.335-.702.492a15.671 15.671 0 0 1-1.486.9c-.255.139-.515.268-.775.398a19.29 19.29 0 0 1-1.624.694 16.469 16.469 0 0 1-1.697.524c-.282.071-.573.138-.873.197a17.457 17.457 0 0 1-1.777.268 19.29 19.29 0 0 1-2.752.067 17.429 17.429 0 0 1-2.686-.335 13.823 13.823 0 0 1-.855-.193 17.132 17.132 0 0 1-2.484-.837c-.026-.013-.049-.018-.076-.036a20.233 20.233 0 0 1-1.53-.743 20.353 20.353 0 0 1-1.5-.899 18.138 18.138 0 0 1-1.365-1.012 15.348 15.348 0 0 1-.658-.568c-.22-.202-.43-.399-.627-.596l-.009-.009a14.455 14.455 0 0 1-.586-.613 20.348 20.348 0 0 1-.56-.644c-.178-.22-.358-.448-.528-.681a20.077 20.077 0 0 1-.958-1.428 18.016 18.016 0 0 1-.434-.76 21.872 21.872 0 0 1-.398-.775 18.702 18.702 0 0 1-.694-1.625 16.88 16.88 0 0 1-.72-2.569 18.07 18.07 0 0 1-.336-2.69 11.226 11.226 0 0 1-.036-.935c0-.613.031-1.222.09-1.826a18.826 18.826 0 0 1 .268-1.782c.054-.286.121-.568.193-.855a17.866 17.866 0 0 1 .515-1.674c.098-.268.205-.537.317-.805.01-.027.014-.036.027-.063l.013-.022a17.804 17.804 0 0 1 1.187-2.31 17.697 17.697 0 0 1 1.473-2.09c.183-.224.37-.439.563-.654.197-.219.398-.43.6-.63l.009-.01a15.726 15.726 0 0 1 1.938-1.674l.009-.004c.233-.17.465-.336.698-.488a17.591 17.591 0 0 1 2.26-1.293c.265-.13.533-.251.797-.363l.01-.005a17.107 17.107 0 0 1 3.393-1.052l-.01.005Zm4.611 3.075v4.641h4.431a31.25 31.25 0 0 0-1.987-2.292 47.83 47.83 0 0 0-1.258-1.261c-.38-.354-.774-.721-1.186-1.088Zm0 6.665v6.843h8.424a12.514 12.514 0 0 0-.269-1.589 14.169 14.169 0 0 0-.519-1.723 17.412 17.412 0 0 0-.779-1.781 19.28 19.28 0 0 0-.998-1.746h-5.859v-.004Zm0 8.866v6.844h6.128c.358-.573.675-1.141.953-1.714a14.81 14.81 0 0 0 .725-1.768c.193-.578.345-1.16.457-1.737.103-.541.17-1.079.201-1.62h-8.464V95.6Zm0 8.863v4.726a40.27 40.27 0 0 0 2.596-2.381c.42-.425.815-.846 1.19-1.267.319-.358.623-.72.91-1.078h-4.696Zm-2.023 4.726v-4.731h-4.69a27.722 27.722 0 0 0 2.09 2.341c.42.425.863.846 1.329 1.271.403.381.828.748 1.27 1.119Zm0-6.749V95.6h-8.464c.031.542.103 1.08.206 1.62.112.582.264 1.16.46 1.742.198.59.44 1.181.726 1.768.277.573.59 1.146.949 1.714h6.123v-.004Zm0-8.863v-6.843h-5.864a20.41 20.41 0 0 0-.998 1.745c-.3.596-.56 1.19-.778 1.782-.21.577-.385 1.15-.52 1.723-.125.532-.21 1.06-.268 1.589h8.428v.004Zm0-8.862v-4.646c-.412.367-.806.73-1.182 1.092-.443.42-.864.846-1.262 1.262a31.248 31.248 0 0 0-1.987 2.292h4.43Zm21.381 1.616h8.921c.492 0 .891.434.891.967 0 .532-.399.966-.891.966h-8.236a20.53 20.53 0 0 0-.685-1.933Zm-2.264-4.203a.754.754 0 0 1 .228-.031h10.957c.492 0 .891.434.891.966 0 .533-.399.967-.891.967h-10.008a22.577 22.577 0 0 0-1.177-1.902ZM95.78 68.356h26.743v10.469h-14.762a21.927 21.927 0 0 0-11.982-5.967v-4.502Zm10.119-7.797a1.518 1.518 0 0 1 0 3.034 1.518 1.518 0 0 1 0-3.035Zm-5.308 0a1.518 1.518 0 0 1 0 3.034c-.837 0-1.518-.68-1.518-1.517a1.513 1.513 0 0 1 1.518-1.517Zm-5.313 0c.837 0 1.517.68 1.517 1.517 0 .837-.68 1.517-1.517 1.517-.837 0-1.518-.68-1.518-1.517 0-.837.68-1.517 1.518-1.517Z" fill="#029894"/><defs><radialGradient id="a" cx="0" cy="0" r="1" gradientUnits="userSpaceOnUse" gradientTransform="matrix(107.502 0 0 42.5488 110.665 211.875)"><stop stop-color="#80E3C8"/><stop offset="1" stop-color="#fff"/></radialGradient><radialGradient id="b" cx="0" cy="0" r="1" gradientUnits="userSpaceOnUse" gradientTransform="rotate(-21.812 522.495 -202.747) scale(57.9042 39.9502)"><stop stop-color="#80E3C8"/><stop offset=".43" stop-color="#82E3C9"/><stop offset=".58" stop-color="#89E5CC"/><stop offset=".69" stop-color="#94E8D1"/><stop offset=".78" stop-color="#A5EBD8"/><stop offset=".86" stop-color="#BBF0E2"/><stop offset=".93" stop-color="#D7F6ED"/><stop offset=".99" stop-color="#F6FDFB"/><stop offset="1" stop-color="#fff"/></radialGradient><radialGradient id="c" cx="0" cy="0" r="1" gradientUnits="userSpaceOnUse" gradientTransform="rotate(-21.812 522.495 -202.747) scale(57.9042 39.9502)"><stop stop-color="#80E3C8"/><stop offset=".43" stop-color="#82E3C9"/><stop offset=".58" stop-color="#89E5CC"/><stop offset=".69" stop-color="#94E8D1"/><stop offset=".78" stop-color="#A5EBD8"/><stop offset=".86" stop-color="#BBF0E2"/><stop offset=".93" stop-color="#D7F6ED"/><stop offset=".99" stop-color="#F6FDFB"/><stop offset="1" stop-color="#fff"/></radialGradient><radialGradient id="d" cx="0" cy="0" r="1" gradientUnits="userSpaceOnUse" gradientTransform="rotate(-21.812 522.495 -202.747) scale(57.9042 39.9502)"><stop stop-color="#80E3C8"/><stop offset=".43" stop-color="#82E3C9"/><stop offset=".58" stop-color="#89E5CC"/><stop offset=".69" stop-color="#94E8D1"/><stop offset=".78" stop-color="#A5EBD8"/><stop offset=".86" stop-color="#BBF0E2"/><stop offset=".93" stop-color="#D7F6ED"/><stop offset=".99" stop-color="#F6FDFB"/><stop offset="1" stop-color="#fff"/></radialGradient><radialGradient id="e" cx="0" cy="0" r="1" gradientUnits="userSpaceOnUse" gradientTransform="matrix(67.6449 0 0 25.4004 110.592 155.396)"><stop stop-color="#80E3C8"/><stop offset="1" stop-color="#fff"/></radialGradient><radialGradient id="f" cx="0" cy="0" r="1" gradientUnits="userSpaceOnUse" gradientTransform="matrix(35.0368 0 0 13.1562 110.591 128.254)"><stop stop-color="#80E3C8"/><stop offset="1" stop-color="#fff"/></radialGradient></defs></svg>