<svg width="221" height="269" fill="none" xmlns="http://www.w3.org/2000/svg"><path style="mix-blend-mode:multiply" d="M179.956 189.497c47.385 15.502 54.691 43.595 16.318 62.741-38.373 19.146-107.887 22.1-155.268 6.597-47.38-15.502-54.691-43.599-16.322-62.745 38.37-19.146 107.891-22.1 155.272-6.593Z" fill="url(#a)"/><path d="M110.426 225.913c-22.79 0-44.285-3.095-62.17-8.946-25.134-8.225-39.559-20.922-40.622-35.761-.52-7.307 2.098-21.308 25.514-32.993 19.172-9.569 47.381-15.059 77.389-15.059 22.786 0 44.285 3.096 62.149 8.947 25.13 8.224 39.555 20.926 40.618 35.765.524 7.303-2.093 21.307-25.51 32.993-19.156 9.564-47.36 15.054-77.368 15.054Z" fill="#029894" style="mix-blend-mode:multiply" opacity=".2"/><path d="M170.299 149.686c40.798 13.35 47.086 37.533 14.049 54.019-33.037 16.486-92.889 19.03-133.703 5.681-40.815-13.349-47.087-37.537-14.053-54.023 33.033-16.486 92.893-19.026 133.707-5.677Z" fill="#029894" style="mix-blend-mode:multiply"/><g style="mix-blend-mode:multiply"><path d="M158.106 155.762c32.493 10.631 37.502 29.877 11.191 43.026-26.312 13.15-73.983 15.155-106.472 4.519-32.49-10.635-37.507-29.876-11.191-43.022 26.315-13.146 73.999-15.154 106.472-4.523Z" fill="url(#b)"/><path d="M158.106 155.762c32.493 10.631 37.502 29.877 11.191 43.026-26.312 13.15-73.983 15.155-106.472 4.519-32.49-10.635-37.507-29.876-11.191-43.022 26.315-13.146 73.999-15.154 106.472-4.523Z" fill="url(#c)"/><path d="M158.106 155.762c32.493 10.631 37.502 29.877 11.191 43.026-26.312 13.15-73.983 15.155-106.472 4.519-32.49-10.635-37.507-29.876-11.191-43.022 26.315-13.146 73.999-15.154 106.472-4.523Z" fill="url(#d)"/></g><path d="M110.426 241.698c-22.79 0-44.285-3.091-62.17-8.946-25.134-8.221-39.559-20.922-40.622-35.761-.52-7.303 2.098-21.308 25.514-32.993 19.172-9.569 47.381-15.055 77.389-15.055 22.786 0 44.285 3.092 62.149 8.947 25.13 8.22 39.555 20.922 40.618 35.76.524 7.308-2.093 21.308-25.51 32.993-19.156 9.569-47.36 15.055-77.368 15.055Z" fill="#029894" style="mix-blend-mode:multiply" opacity=".2"/><path d="M178.26 152.147h-13.42a70.742 70.742 0 0 0-11.706-4.917c-29.088-9.52-71.766-7.706-95.326 4.045-.572.287-1.112.577-1.635.872H42.855v14.739c-1.226 8.515 7.36 17.133 24.991 22.909 29.088 9.519 71.766 7.706 95.322-4.045 10.173-5.079 15.104-11.179 15.096-17.238l-.004-16.365Z" fill="#E6EBED"/><path d="M153.134 130.864c29.092 9.519 33.577 26.764 10.018 38.516-23.56 11.751-66.239 13.569-95.322 4.05-29.084-9.519-33.578-26.765-10.022-38.521 23.556-11.755 66.238-13.564 95.326-4.045Z" fill="#FAFDFF"/><path style="mix-blend-mode:multiply" d="M110.406 179.646c37.475 0 67.854-12.311 67.854-27.498 0-15.188-30.379-27.499-67.854-27.499-37.474 0-67.853 12.311-67.853 27.499 0 15.187 30.379 27.498 67.853 27.498Z" fill="url(#e)"/><path d="M178.26 125.043h-13.42a70.832 70.832 0 0 0-11.706-4.918c-29.088-9.519-71.766-7.709-95.326 4.046-.572.286-1.112.577-1.635.872H42.855v14.735c-1.226 8.514 7.36 17.133 24.991 22.909 29.088 9.519 71.766 7.706 95.322-4.05 10.173-5.075 15.104-11.174 15.096-17.233l-.004-16.361Z" fill="#E6EBED"/><path d="M153.134 103.755c29.092 9.519 33.577 26.764 10.018 38.52-23.56 11.756-66.239 13.569-95.322 4.05-29.084-9.519-33.578-26.765-10.022-38.52 23.556-11.756 66.238-13.565 95.326-4.05Z" fill="#FAFDFF"/><path style="mix-blend-mode:multiply" opacity=".25" d="M110.406 139.288c19.409 0 35.143-6.378 35.143-14.246 0-7.867-15.734-14.245-35.143-14.245-19.41 0-35.143 6.378-35.143 14.245 0 7.868 15.734 14.246 35.143 14.246Z" fill="url(#f)"/><path d="M108.304 23.65c0 5.048-1.155 8.861-3.467 11.44-2.311 2.578-5.423 3.865-9.335 3.863-3.95 0-7.084-1.288-9.404-3.864-2.32-2.575-3.475-6.388-3.467-11.44v-7.86c0-5.05 1.147-8.862 3.443-11.435C88.369 1.78 91.489.492 95.433.486c3.933 0 7.059 1.294 9.375 3.88 2.317 2.587 3.477 6.395 3.48 11.424l.016 7.86Zm-8.525-8.45c0-2.857-.372-4.91-1.116-6.161a3.57 3.57 0 0 0-1.346-1.4 3.5 3.5 0 0 0-1.868-.476 3.436 3.436 0 0 0-1.864.471 3.505 3.505 0 0 0-1.333 1.405c-.72 1.25-1.078 3.304-1.075 6.162v8.988c0 2.907.362 4.982 1.087 6.224.33.567.8 1.037 1.364 1.363a3.69 3.69 0 0 0 3.7 0 3.76 3.76 0 0 0 1.364-1.363c.722-1.245 1.085-3.32 1.087-6.224V15.2ZM120.526 16.122h4.023c1.535 0 2.715-.415 3.541-1.245.826-.83 1.235-1.993 1.227-3.49a4.217 4.217 0 0 0-1.113-2.98c-.744-.804-1.819-1.207-3.238-1.207a4.695 4.695 0 0 0-2.936.975 3.03 3.03 0 0 0-.939 1.101c-.22.439-.331.926-.324 1.418h-8.3l-.049-.154c-.101-2.979 1.053-5.392 3.463-7.24 2.409-1.848 5.337-2.774 8.782-2.776 3.994 0 7.19.929 9.589 2.788 2.398 1.859 3.596 4.487 3.594 7.884a7.804 7.804 0 0 1-1.558 4.685 10.44 10.44 0 0 1-4.162 3.349 9.943 9.943 0 0 1 4.632 3.352 8.765 8.765 0 0 1 1.668 5.395c0 3.427-1.29 6.12-3.872 8.079-2.581 1.959-5.878 2.938-9.891 2.938a15.276 15.276 0 0 1-9.073-2.76c-2.586-1.842-3.839-4.509-3.757-8l.053-.153h8.349a3.878 3.878 0 0 0 1.378 3.016 4.864 4.864 0 0 0 3.353 1.22 4.988 4.988 0 0 0 3.594-1.282 4.264 4.264 0 0 0 1.014-1.472c.231-.558.343-1.16.327-1.765 0-1.811-.469-3.134-1.406-3.966-.938-.833-2.257-1.248-3.958-1.245h-4.024l.013-6.465Z" fill="#029894"/><path fill-rule="evenodd" clip-rule="evenodd" d="M100.26 58.996h20.647c1.567 0 3.003.645 4.028 1.67a5.66 5.66 0 0 1 1.666 4.028v43.609a5.72 5.72 0 0 1-1.666 4.028 5.662 5.662 0 0 1-4.028 1.67H100.26a5.707 5.707 0 0 1-4.029-1.67 5.66 5.66 0 0 1-1.665-4.028V64.694c0-1.567.645-3.003 1.67-4.028a5.645 5.645 0 0 1 4.024-1.67Zm13.513 33.83h.076c.577 0 1.056.478 1.056 1.056v6.78h.685V97.82c0-.537.443-.98.98-.98h.076c.577 0 1.056.479 1.056 1.056v2.838l.036-.013h.739v-2.158c0-.537.443-.98.98-.98h.072c.577 0 1.056.479 1.056 1.056v1.974h.004l.734-.009v-1.396c0-.537.444-.98.981-.98h.076c.577 0 1.056.479 1.056 1.056v2.958c0 .032 0 .072-.009.108l.036.027c.031.85.018 1.866-.139 2.846h1.656V67.827H96.182v37.387h15.872l-3.465-5.487c-.214-.506-.188-.846.027-1.07.927-.604 2.449.68 4.127 2.493l.063-.013v-7.345c0-.537.443-.98.98-.98l-.013.013Zm.635-2.834a.52.52 0 0 1-1.038 0v-2.09a.52.52 0 0 1 1.038 0v2.09Zm-4.717 4.283a.52.52 0 0 1 0 1.039H107.6a.52.52 0 0 1 0-1.039h2.091Zm1.481-3.097a.522.522 0 0 1 0 .734.521.521 0 0 1-.734 0l-1.473-1.477a.522.522 0 0 1 0-.734.521.521 0 0 1 .734 0l1.473 1.477Zm6.812 4.131a.52.52 0 0 1 0-1.038h2.091a.52.52 0 0 1 0 1.038h-2.091Zm-.743-3.513a.521.521 0 0 1-.734 0 .522.522 0 0 1 0-.734l1.473-1.477a.521.521 0 0 1 .734 0 .522.522 0 0 1 0 .734l-1.473 1.477Zm-17.429-3.478h3.191c.802 0 1.455.653 1.455 1.455v3.19c0 .802-.653 1.456-1.455 1.456h-3.19a1.458 1.458 0 0 1-1.456-1.455v-3.191a1.458 1.458 0 0 1 1.455-1.455Zm18.356-9.126h3.191c.801 0 1.455.653 1.455 1.454v3.192c0 .8-.654 1.454-1.455 1.454h-3.191a1.458 1.458 0 0 1-1.455-1.454v-3.192a1.46 1.46 0 0 1 1.455-1.454Zm-9.18 0h3.191c.801 0 1.455.653 1.455 1.454v3.192c0 .8-.654 1.454-1.455 1.454h-3.191a1.458 1.458 0 0 1-1.455-1.454v-3.192a1.46 1.46 0 0 1 1.455-1.454Zm-9.176 0h3.191c.802 0 1.455.653 1.455 1.454v3.192c0 .8-.653 1.454-1.455 1.454h-3.19a1.458 1.458 0 0 1-1.456-1.454v-3.192a1.455 1.455 0 0 1 1.455-1.454Zm18.356-9.127h3.191c.801 0 1.455.654 1.455 1.455v3.191c0 .801-.654 1.455-1.455 1.455h-3.191a1.458 1.458 0 0 1-1.455-1.455V71.52a1.46 1.46 0 0 1 1.455-1.455Zm-9.18 0h3.191c.801 0 1.455.654 1.455 1.455v3.191c0 .801-.654 1.455-1.455 1.455h-3.191a1.458 1.458 0 0 1-1.455-1.455V71.52a1.46 1.46 0 0 1 1.455-1.455Zm-9.176 0h3.191c.802 0 1.455.654 1.455 1.455v3.191c0 .801-.653 1.455-1.455 1.455h-3.19a1.458 1.458 0 0 1-1.456-1.455V71.52a1.455 1.455 0 0 1 1.455-1.455Zm10.765 36.931a2.341 2.341 0 0 1 2.345 2.345 2.342 2.342 0 0 1-2.345 2.346 2.343 2.343 0 0 1-2.346-2.346 2.348 2.348 0 0 1 2.346-2.345Z" fill="#029894"/><defs><radialGradient id="a" cx="0" cy="0" r="1" gradientUnits="userSpaceOnUse" gradientTransform="matrix(107.502 0 0 42.5488 110.479 211.873)"><stop stop-color="#7FD4F9"/><stop offset="1" stop-color="#fff"/></radialGradient><radialGradient id="b" cx="0" cy="0" r="1" gradientUnits="userSpaceOnUse" gradientTransform="rotate(-21.812 523.391 -207.397) scale(57.9042 39.9502)"><stop stop-color="#7FD4F9"/><stop offset=".43" stop-color="#81D5F9"/><stop offset=".58" stop-color="#88D7F9"/><stop offset=".69" stop-color="#93DBFA"/><stop offset=".78" stop-color="#A4E1FB"/><stop offset=".86" stop-color="#BAE8FC"/><stop offset=".92" stop-color="#D6F1FD"/><stop offset=".98" stop-color="#F5FCFF"/><stop offset="1" stop-color="#fff"/></radialGradient><radialGradient id="c" cx="0" cy="0" r="1" gradientUnits="userSpaceOnUse" gradientTransform="rotate(-21.812 523.391 -207.397) scale(57.9042 39.9502)"><stop stop-color="#80E3C8"/><stop offset=".43" stop-color="#82E3C9"/><stop offset=".58" stop-color="#89E5CC"/><stop offset=".69" stop-color="#94E8D1"/><stop offset=".78" stop-color="#A5EBD8"/><stop offset=".86" stop-color="#BBF0E2"/><stop offset=".93" stop-color="#D7F6ED"/><stop offset=".99" stop-color="#F6FDFB"/><stop offset="1" stop-color="#fff"/></radialGradient><radialGradient id="d" cx="0" cy="0" r="1" gradientUnits="userSpaceOnUse" gradientTransform="rotate(-21.812 523.391 -207.397) scale(57.9042 39.9502)"><stop stop-color="#7FD4F9"/><stop offset=".43" stop-color="#81D5F9"/><stop offset=".58" stop-color="#88D7F9"/><stop offset=".69" stop-color="#93DBFA"/><stop offset=".78" stop-color="#A4E1FB"/><stop offset=".86" stop-color="#BAE8FC"/><stop offset=".92" stop-color="#D6F1FD"/><stop offset=".98" stop-color="#F5FCFF"/><stop offset="1" stop-color="#fff"/></radialGradient><radialGradient id="e" cx="0" cy="0" r="1" gradientUnits="userSpaceOnUse" gradientTransform="matrix(67.6449 0 0 25.4004 110.406 155.396)"><stop stop-color="#7FD4F9"/><stop offset="1" stop-color="#fff"/></radialGradient><radialGradient id="f" cx="0" cy="0" r="1" gradientUnits="userSpaceOnUse" gradientTransform="matrix(35.0368 0 0 13.1562 110.406 128.254)"><stop stop-color="#7FD4F9"/><stop offset="1" stop-color="#fff"/></radialGradient></defs></svg>