<svg width="221" height="264" fill="none" xmlns="http://www.w3.org/2000/svg"><path style="mix-blend-mode:multiply" d="M180.024 184.374c47.385 15.507 54.712 43.595 16.318 62.728-38.393 19.134-107.886 22.097-155.267 6.594s-54.692-43.595-16.323-62.745c38.37-19.15 107.891-22.08 155.272-6.577Z" fill="url(#a)"/><path d="M110.479 220.081c-22.787 0-44.286-3.096-62.15-8.947-25.13-8.22-39.555-20.922-40.618-35.76-.523-7.304 2.097-21.308 25.514-32.993 19.172-9.569 47.38-15.055 77.388-15.055 22.787 0 44.286 3.092 62.15 8.942 25.13 8.225 39.555 20.927 40.618 35.765.523 7.308-2.097 21.308-25.514 32.993-19.172 9.569-47.381 15.055-77.388 15.055Z" fill="#8EDBDC" style="mix-blend-mode:multiply" opacity=".2"/><path d="M170.354 143.854c40.794 13.349 47.087 37.537 14.049 54.019-33.037 16.482-92.889 19.03-133.703 5.68-40.814-13.349-47.09-37.536-14.053-54.022 33.037-16.486 92.909-19.03 133.707-5.677Z" fill="#029894" style="mix-blend-mode:multiply"/><g style="mix-blend-mode:multiply"><path d="M158.178 149.929c32.493 10.631 37.502 29.876 11.191 43.026-26.312 13.15-73.983 15.154-106.476 4.523-32.494-10.631-37.503-29.897-11.191-43.026 26.311-13.13 73.982-15.155 106.476-4.523Z" fill="url(#b)"/><path d="M158.178 149.929c32.493 10.631 37.502 29.876 11.191 43.026-26.312 13.15-73.983 15.154-106.476 4.523-32.494-10.631-37.503-29.897-11.191-43.026 26.311-13.13 73.982-15.155 106.476-4.523Z" fill="url(#c)"/><path d="M158.178 149.929c32.493 10.631 37.502 29.876 11.191 43.026-26.312 13.15-73.983 15.154-106.476 4.523-32.494-10.631-37.503-29.897-11.191-43.026 26.311-13.13 73.982-15.155 106.476-4.523Z" fill="url(#d)"/></g><path d="M110.479 235.866c-22.787 0-44.286-3.092-62.15-8.942-25.13-8.225-39.555-20.927-40.618-35.761-.523-7.307 2.097-21.308 25.514-32.993 19.172-9.569 47.38-15.059 77.388-15.059 22.787 0 44.286 3.096 62.15 8.947 25.13 8.22 39.555 20.922 40.618 35.76.523 7.308-2.097 21.308-25.514 32.993-19.172 9.569-47.381 15.055-77.388 15.055Z" fill="#8EDBDC" style="mix-blend-mode:multiply" opacity=".2"/><path d="M178.311 146.314h-13.423a70.969 70.969 0 0 0-11.703-4.917c-29.091-9.519-71.77-7.706-95.326 4.05a37.99 37.99 0 0 0-1.635.867h-13.33v14.744c-1.226 8.51 7.36 17.133 24.987 22.909 29.092 9.515 71.771 7.706 95.326-4.05 10.173-5.075 15.104-11.175 15.096-17.237l.008-16.366Z" fill="#E6EDEB"/><path d="M153.19 125.032c29.087 9.519 33.573 26.764 10.017 38.52-23.555 11.756-66.238 13.565-95.326 4.046-29.087-9.519-33.573-26.765-10.017-38.52 23.555-11.756 66.234-13.565 95.326-4.046Z" fill="#FAFFFE"/><path style="mix-blend-mode:multiply" d="M110.536 173.784c37.433 0 67.78-12.299 67.78-27.47 0-15.172-30.347-27.47-67.78-27.47-37.434 0-67.78 12.298-67.78 27.47 0 15.171 30.346 27.47 67.78 27.47Z" fill="url(#e)"/><path d="M178.311 119.211h-13.423a70.59 70.59 0 0 0-11.703-4.917c-29.091-9.52-71.77-7.706-95.326 4.049-.572.283-1.112.577-1.635.868h-13.33v14.743c-1.226 8.511 7.36 17.129 24.987 22.905 29.092 9.519 71.771 7.71 95.326-4.045 10.173-5.079 15.104-11.179 15.096-17.238l.008-16.365Z" fill="#E6EDEB"/><path d="M153.19 97.928c29.087 9.519 33.573 26.764 10.017 38.52-23.555 11.756-66.238 13.565-95.326 4.046-29.087-9.519-33.573-26.765-10.017-38.52 23.555-11.756 66.234-13.565 95.326-4.046Z" fill="#FAFFFE"/><path style="mix-blend-mode:multiply" opacity=".25" d="M110.536 133.456c19.409 0 35.143-6.378 35.143-14.246 0-7.867-15.734-14.245-35.143-14.245-19.41 0-35.143 6.378-35.143 14.245 0 7.868 15.734 14.246 35.143 14.246Z" fill="url(#f)"/><path d="M108.43 23.475c0 5.051-1.156 8.865-3.468 11.44-2.311 2.576-5.424 3.864-9.338 3.864-3.947 0-7.082-1.288-9.405-3.864-2.322-2.575-3.478-6.389-3.467-11.44v-7.859c0-5.051 1.148-8.865 3.443-11.44C88.49 1.6 91.61.312 95.554.312c3.928 0 7.053 1.294 9.376 3.88 2.322 2.587 3.482 6.395 3.479 11.424l.021 7.86Zm-8.53-8.448c0-2.86-.37-4.915-1.112-6.162a3.573 3.573 0 0 0-1.346-1.398 3.504 3.504 0 0 0-1.867-.478c-.654-.023-1.3.14-1.866.472a3.517 3.517 0 0 0-1.336 1.404c-.714 1.25-1.073 3.304-1.075 6.162v8.988c0 2.907.362 4.982 1.087 6.224.316.586.786 1.07 1.358 1.4.572.329 1.223.49 1.88.463.65.023 1.294-.14 1.857-.47a3.512 3.512 0 0 0 1.333-1.393c.728-1.242 1.09-3.317 1.087-6.224v-8.988ZM138.649 38.24H112.89v-5.647l11.857-12.635a25.264 25.264 0 0 0 3.312-4.672 7.987 7.987 0 0 0 1.063-3.569 5.182 5.182 0 0 0-1.075-3.444c-.714-.855-1.789-1.282-3.226-1.282a3.417 3.417 0 0 0-1.729.421c-.53.292-.975.718-1.293 1.239a7.474 7.474 0 0 0-1.099 4.224h-8.354l-.049-.154c-.076-1.62.182-3.24.757-4.753a11.7 11.7 0 0 1 2.584-4.04c2.311-2.406 5.372-3.61 9.183-3.61 4.048 0 7.207 1.01 9.478 3.03 2.27 2.019 3.404 4.785 3.402 8.299a11.083 11.083 0 0 1-1.808 6.265c-1.204 1.812-3.427 4.508-6.668 8.088l-4.985 5.42.074.153h14.335v6.668Z" fill="#029894"/><path fill-rule="evenodd" clip-rule="evenodd" d="M95.656 118.297c2.906 0 5.269-2.113 5.269-4.715a4.33 4.33 0 0 0-.827-2.53h.142c-2.314-2.529-2.07-4.598.382-5.322h8.105c.915 0 1.664-.748 1.664-1.663v-7.196c.567-4.912 2.666-3.454 5.136-1.933 5.968 3.674 9.936-5.029 5.112-8.008-3.786-2.338-5.425 1.683-8.199 1.267-1.071-.161-1.814-1.32-2.049-3.082v-7.112c0-.915-.749-1.664-1.664-1.664h-7.098c-3.36-.425-3.996-2.685-1.394-5.528h-.142c.524-.733.827-1.6.827-2.529.005-2.602-2.353-4.716-5.264-4.716-2.906 0-5.264 2.114-5.264 4.716 0 .93.304 1.796.827 2.53h-.034c2.602 2.842 1.971 5.106-1.394 5.527h-7.128c-.914 0-1.663.749-1.663 1.663v7.417c.533 3.052 2.735 3.551 5.474 1.042v.034a4.331 4.331 0 0 1 2.53-.827c2.602 0 4.715 2.358 4.715 5.264s-2.113 5.264-4.716 5.264c-.93 0-1.795-.304-2.529-.827v.142c-2.74-2.51-4.94-2.006-5.474 1.047v7.514c0 .914.749 1.663 1.663 1.663H90.8c2.45.724 2.7 2.793.381 5.322h.034c-.518.734-.826 1.6-.826 2.529.004 2.603 2.362 4.716 5.268 4.711Zm30.8.269h-.01c-2.906 0-5.269-2.113-5.269-4.715 0-.93.304-1.796.827-2.53h-.034c2.314-2.529 2.069-4.598-.382-5.322h-8.135a1.667 1.667 0 0 1-1.663-1.663v-7.5c.391-1.135.89-1.536 1.477-1.55.269-.005.553.068.856.195.851.353 1.849 1.091 2.935 1.512 4.188 1.614 7.783-2.46 7.544-6.648-.054-.934-.431-1.854-.988-2.705-2.138-3.268-5.303-3.576-8.356-1.713-1.555.954-2.793 1.673-3.502-.572l.039-7.088a1.671 1.671 0 0 1 1.663-1.664h7.123c3.36-.425 3.996-2.685 1.394-5.527h.034a4.335 4.335 0 0 1-.827-2.53c0-2.602 2.358-4.715 5.269-4.715h.01c2.906 0 5.268 2.113 5.268 4.715 0 .93-.303 1.796-.826 2.53h.034c-2.603 2.842-1.972 5.107 1.394 5.527h7.123c.914 0 1.663.749 1.663 1.664v7.416c-.533 3.052-2.735 3.551-5.474 1.042v.034a4.332 4.332 0 0 0-2.529-.827c-2.603 0-4.716 2.358-4.716 5.264s2.113 5.269 4.716 5.269c.929 0 1.795-.304 2.529-.827v.142c2.744-2.51 4.941-2.006 5.474 1.047v7.499c0 .915-.749 1.663-1.663 1.663h-8.136c-2.45.724-2.695 2.794-.381 5.323h-.039a4.33 4.33 0 0 1 .826 2.529c-.004 2.612-2.362 4.725-5.268 4.725Z" fill="#029894"/><defs><radialGradient id="a" cx="0" cy="0" r="1" gradientUnits="userSpaceOnUse" gradientTransform="matrix(107.502 0 0 42.5488 110.547 205.976)"><stop stop-color="#8EDBDC"/><stop offset="1" stop-color="#fff"/></radialGradient><radialGradient id="b" cx="0" cy="0" r="1" gradientUnits="userSpaceOnUse" gradientTransform="rotate(-21.812 505.704 -208.292) scale(57.9042 39.9502)"><stop stop-color="#8EDBDC"/><stop offset=".44" stop-color="#90DCDD"/><stop offset=".6" stop-color="#97DEDF"/><stop offset=".71" stop-color="#A2E2E2"/><stop offset=".8" stop-color="#B3E7E8"/><stop offset=".88" stop-color="#C9EEEE"/><stop offset=".95" stop-color="#E4F6F7"/><stop offset="1" stop-color="#fff"/></radialGradient><radialGradient id="c" cx="0" cy="0" r="1" gradientUnits="userSpaceOnUse" gradientTransform="rotate(-21.812 505.704 -208.292) scale(57.9042 39.9502)"><stop stop-color="#80E3C8"/><stop offset=".43" stop-color="#82E3C9"/><stop offset=".58" stop-color="#89E5CC"/><stop offset=".69" stop-color="#94E8D1"/><stop offset=".78" stop-color="#A5EBD8"/><stop offset=".86" stop-color="#BBF0E2"/><stop offset=".93" stop-color="#D7F6ED"/><stop offset=".99" stop-color="#F6FDFB"/><stop offset="1" stop-color="#fff"/></radialGradient><radialGradient id="d" cx="0" cy="0" r="1" gradientUnits="userSpaceOnUse" gradientTransform="rotate(-21.812 505.704 -208.292) scale(57.9042 39.9502)"><stop stop-color="#80E3C8"/><stop offset=".43" stop-color="#82E3C9"/><stop offset=".58" stop-color="#89E5CC"/><stop offset=".69" stop-color="#94E8D1"/><stop offset=".78" stop-color="#A5EBD8"/><stop offset=".86" stop-color="#BBF0E2"/><stop offset=".93" stop-color="#D7F6ED"/><stop offset=".99" stop-color="#F6FDFB"/><stop offset="1" stop-color="#fff"/></radialGradient><radialGradient id="e" cx="0" cy="0" r="1" gradientUnits="userSpaceOnUse" gradientTransform="matrix(67.5713 0 0 25.3728 110.536 149.767)"><stop stop-color="#8EDBDC"/><stop offset="1" stop-color="#fff"/></radialGradient><radialGradient id="f" cx="0" cy="0" r="1" gradientUnits="userSpaceOnUse" gradientTransform="matrix(35.0368 0 0 13.1562 110.536 122.627)"><stop stop-color="#8EDBDC"/><stop offset="1" stop-color="#fff"/></radialGradient></defs></svg>