<svg width="44" height="44" viewBox="0 0 44 44" fill="none" xmlns="http://www.w3.org/2000/svg">
<path fill-rule="evenodd" clip-rule="evenodd" d="M10.0805 43.9725H13.9546V39.2659H10.0805V43.9725ZM7.96254 7.66513H34.221C35.1202 7.66513 35.8578 8.39922 35.8578 9.3019V35.6482C35.8578 36.5474 35.1202 37.285 34.221 37.285H7.96254C7.06338 37.285 6.32578 36.5474 6.32578 35.6482V9.29839C6.32578 8.39922 7.05986 7.66513 7.96254 7.66513ZM14.8749 15.3151H27.3017C27.8461 15.3151 28.2886 15.7611 28.2886 16.3021V28.6375C28.2886 29.1819 27.8426 29.6245 27.3017 29.6245H14.8749C14.3305 29.6245 13.8879 29.1784 13.8879 28.6375V16.3021C13.8879 15.7611 14.3305 15.3151 14.8749 15.3151ZM43.16 23.8607V27.078H38.4534V23.8607H43.16ZM43.16 17.707V20.9243H38.4534V17.707H43.16ZM43.16 30.0179V33.892H38.4534V30.0179H43.16ZM43.16 10.893V14.7671H38.4534V10.893H43.16ZM0 23.8607V27.078H4.70658V23.8607H0ZM0 17.707V20.9243H4.70658V17.707H0ZM0 30.0179V33.892H4.70658V30.0179H0ZM0 10.893V14.7671H4.70658V10.893H0ZM23.0482 0.8125H26.2655V5.51908H23.0482V0.8125ZM16.8945 0.8125H20.1118V5.51908H16.8945V0.8125ZM29.2054 0.8125H33.0795V5.51908H29.2054V0.8125ZM10.0805 0.8125H13.9546V5.51908H10.0805V0.8125ZM23.0482 43.9725H26.2655V39.2659H23.0482V43.9725ZM16.8945 43.9725H20.1118V39.2659H16.8945V43.9725ZM29.2054 43.9725H33.0795V39.2659H29.2054V43.9725Z" fill="#029894"/>
</svg>
