<svg width="41" height="41" viewBox="0 0 41 41" fill="none" xmlns="http://www.w3.org/2000/svg">
<path fill-rule="evenodd" clip-rule="evenodd" d="M15.0505 8.13947L27.2174 3.42305L37.7088 13.4662L32.8126 24.7367C24.5093 26.8746 16.7751 29.9949 9.47286 33.8627L7.99064 32.1524L22.4721 18.8093C22.7637 18.9334 23.0798 18.9954 23.3994 18.9954H23.4029C24.6533 18.9954 25.6649 18.0554 25.6649 16.8934C25.6649 15.7347 24.6533 14.7914 23.4029 14.7914C22.156 14.7914 21.141 15.7314 21.141 16.8934C21.141 17.2687 21.2463 17.6213 21.4325 17.9248L7.10201 31.1569L5.11401 29.4694C9.48691 22.8175 12.8307 15.7249 15.0505 8.13947ZM30.6841 0.81189L40.8453 10.4862L39.9181 11.3251L38.9908 12.1639L28.8295 2.4863L29.7568 1.64746L30.6841 0.81189ZM6.66999 35.8537C11.4328 39.9271 14.2356 38.1515 18.2011 35.6318C21.4817 33.5493 25.4471 31.0328 31.4603 30.2005C31.8888 28.8623 33.2235 27.8864 34.8006 27.8864C36.7253 27.8864 38.2848 29.3356 38.2848 31.1242C38.2848 32.9129 36.7253 34.3621 34.8006 34.3621C33.4483 34.3621 32.2752 33.6473 31.6991 32.5995C26.3182 33.3927 22.6759 35.7036 19.6587 37.6162C14.5763 40.841 11.0253 43.0931 4.80141 37.5379C4.38344 37.6946 3.93737 37.7762 3.48778 37.7762H3.48427C1.55949 37.7762 0 36.327 0 34.5383C0 32.7497 1.55949 31.3005 3.48427 31.3005C5.40905 31.3005 6.96854 32.7497 6.96854 34.5383V34.5416C6.96854 34.9953 6.86668 35.4392 6.66999 35.8537Z" fill="#029894"/>
</svg>
