<svg width="44" height="44" viewBox="0 0 44 44" fill="none" xmlns="http://www.w3.org/2000/svg">
<path fill-rule="evenodd" clip-rule="evenodd" d="M31.6692 31.6675L28.2961 40.2889L15.8609 40.1233L12.4208 31.664C15.3781 26.3769 18.3811 19.9267 19.9249 14.2837L21.5639 14.4599L21.5005 29.6655C21.1489 29.7978 20.8561 30.051 20.6745 30.3798C20.4928 30.7086 20.4343 31.0913 20.5095 31.4593C20.5847 31.8273 20.7885 32.1565 21.0845 32.3877C21.3805 32.619 21.7492 32.7371 22.1245 32.721C22.4997 32.7048 22.857 32.5555 23.132 32.2997C23.407 32.0439 23.5819 31.6984 23.6252 31.3253C23.6685 30.9522 23.5773 30.5759 23.3682 30.264C23.159 29.952 22.8455 29.7248 22.4839 29.6232L22.5367 14.5586L24.4119 14.474C25.7865 20.1629 28.7614 26.5919 31.6692 31.6746V31.6675ZM18.8287 0.812256H25.3283C25.4425 0.812255 25.5555 0.834799 25.6609 0.878594C25.7664 0.922389 25.8621 0.986573 25.9427 1.06746C26.0232 1.14835 26.087 1.24435 26.1304 1.34996C26.1738 1.45556 26.1958 1.5687 26.1954 1.68286V3.79768H36.4452C36.6207 3.29885 36.9062 2.8459 37.2806 2.47239C37.6079 2.14468 37.9967 1.8847 38.4245 1.70732C38.8524 1.52994 39.3111 1.43864 39.7743 1.43864C40.2375 1.43864 40.6962 1.52994 41.124 1.70732C41.5519 1.8847 41.9407 2.14468 42.268 2.47239C42.5957 2.79974 42.8557 3.18848 43.0331 3.61637C43.2105 4.04426 43.3018 4.50292 43.3018 4.96612C43.3018 5.42932 43.2105 5.88798 43.0331 6.31587C42.8557 6.74376 42.5957 7.1325 42.268 7.45985C41.9405 7.78862 41.5514 8.04949 41.1228 8.2275C40.6943 8.4055 40.2348 8.49713 39.7708 8.49713C39.3067 8.49713 38.8473 8.4055 38.4187 8.2275C37.9902 8.04949 37.601 7.78862 37.2735 7.45985L37.2101 7.38935C36.8658 7.0299 36.6026 6.60082 36.4382 6.13103H31.1511C32.8589 7.12425 34.4043 8.37361 35.7332 9.8355C38.3813 12.7545 40.1335 16.3739 40.7806 20.2616H42.1905C42.4709 20.2616 42.7399 20.373 42.9382 20.5713C43.1365 20.7696 43.2479 21.0385 43.2479 21.319V26.0809C43.2479 26.3613 43.1365 26.6303 42.9382 26.8286C42.7399 27.0269 42.4709 27.1383 42.1905 27.1383H37.5132C37.2328 27.1383 36.9638 27.0269 36.7655 26.8286C36.5672 26.6303 36.4558 26.3613 36.4558 26.0809V21.319C36.4558 21.0385 36.5672 20.7696 36.7655 20.5713C36.9638 20.373 37.2328 20.2616 37.5132 20.2616H38.6023C37.9745 16.9211 36.4336 13.8198 34.1506 11.3018C32.0206 8.94239 29.2604 7.24124 26.1954 6.39891V8.25995C26.1954 8.49024 26.1041 8.71115 25.9416 8.87432C25.7791 9.03749 25.5586 9.12963 25.3283 9.13056H18.8287C18.6012 9.12505 18.3848 9.03101 18.2255 8.86843C18.0662 8.70586 17.9766 8.48756 17.9758 8.25995V6.40244C14.831 7.27091 12.0116 9.04596 9.86895 11.5062C7.68391 13.994 6.20302 17.0203 5.57938 20.2721H6.63679C6.91724 20.2721 7.18619 20.3836 7.3845 20.5819C7.5828 20.7802 7.6942 21.0491 7.6942 21.3296V26.0809C7.6942 26.3613 7.5828 26.6303 7.3845 26.8286C7.18619 27.0269 6.91724 27.1383 6.63679 27.1383H1.93484C1.65439 27.1383 1.38544 27.0269 1.18713 26.8286C0.988832 26.6303 0.877426 26.3613 0.877426 26.0809V21.319C0.877426 21.0385 0.988832 20.7696 1.18713 20.5713C1.38544 20.373 1.65439 20.2616 1.93484 20.2616H3.37997C4.02952 16.4817 5.7117 12.9551 8.24053 10.0717C9.61749 8.51044 11.2388 7.18316 13.0412 6.14161H6.8659C6.68992 6.63918 6.40444 7.09088 6.03054 7.46337C5.37093 8.12186 4.47736 8.49229 3.54532 8.49361C2.61328 8.49493 1.71866 8.12704 1.05719 7.47042C0.729472 7.14307 0.469493 6.75434 0.292115 6.32645C0.114737 5.89855 0.0234375 5.43989 0.0234375 4.97669C0.0234375 4.51349 0.114737 4.05483 0.292115 3.62694C0.469493 3.19905 0.729472 2.81032 1.05719 2.48297C1.38454 2.15525 1.77327 1.89527 2.20116 1.71789C2.62906 1.54052 3.08771 1.44922 3.55091 1.44922C4.01411 1.44922 4.47277 1.54052 4.90067 1.71789C5.32856 1.89527 5.71729 2.15525 6.04464 2.48297C6.42215 2.85597 6.70913 3.31055 6.88352 3.81178H17.9758V1.69696C17.972 1.46665 18.0596 1.24423 18.2195 1.07841C18.3794 0.912593 18.5985 0.816888 18.8287 0.812256ZM27.993 43.9723H15.9314V41.5684H28V43.9723H27.993Z" fill="#029894"/>
</svg>
