<svg width="47" height="41" viewBox="0 0 47 41" fill="none" xmlns="http://www.w3.org/2000/svg">
<path fill-rule="evenodd" clip-rule="evenodd" d="M1.1926 16.1525H4.01559V0.812378H11.2919V16.1525H13.9753V4.46329H19.5684V16.1525H26.8259V11.2075L35.1892 16.1525H36.7102V11.2075L45.0734 16.1525H45.1829C45.8396 16.1525 46.3793 16.6541 46.3793 17.2643V39.8116C46.3793 40.4218 45.8396 40.9233 45.1829 40.9233H1.1926C0.535915 40.9233 0 40.4218 0 39.8116V17.2643C0 16.6541 0.535915 16.1525 1.1926 16.1525ZM28.6224 27.0316H24.4256C24.2369 27.0316 24.0822 27.1754 24.0822 27.3508V31.2507C24.0822 31.4261 24.2369 31.5698 24.4256 31.5698H28.6224C28.8111 31.5698 28.9658 31.4261 28.9658 31.2507V27.3508C28.9658 27.1754 28.8111 27.0316 28.6224 27.0316ZM28.9658 21.1888H24.7691C24.5804 21.1888 24.4256 21.3326 24.4256 21.5079V25.4078C24.4256 25.5832 24.5804 25.727 24.7691 25.727H28.9658C29.1545 25.727 29.3093 25.5832 29.3093 25.4078V21.5079C29.3093 21.3326 29.1545 21.1888 28.9658 21.1888ZM32.1436 21.5079H36.3403C36.529 21.5079 36.6837 21.6517 36.6837 21.8271V25.727C36.6837 25.9023 36.529 26.0461 36.3403 26.0461H32.1436C31.9549 26.0461 31.8001 25.9023 31.8001 25.727V21.8271C31.8001 21.6517 31.9549 21.5079 32.1436 21.5079ZM38.8312 21.8271H43.0279C43.2166 21.8271 43.3713 21.9709 43.3713 22.1462V26.0461C43.3713 26.2215 43.2166 26.3653 43.0279 26.3653H38.8312C38.6425 26.3653 38.4877 26.2215 38.4877 26.0461V22.1462C38.4877 21.9709 38.6425 21.8271 38.8312 21.8271ZM38.4877 28.3117H42.6845C42.8732 28.3117 43.0279 28.4555 43.0279 28.6309V32.5308C43.0279 32.7062 42.8732 32.8499 42.6845 32.8499H38.4877C38.299 32.8499 38.1443 32.7062 38.1443 32.5308V28.6309C38.1443 28.452 38.2953 28.3117 38.4877 28.3117ZM31.1095 28.6309H35.3062C35.4949 28.6309 35.6497 28.7747 35.6497 28.95V32.8499C35.6497 33.0253 35.4949 33.1691 35.3062 33.1691H31.1095C30.9208 33.1691 30.766 33.0253 30.766 32.8499V28.95C30.766 28.7712 30.9208 28.6309 31.1095 28.6309Z" fill="#029894"/>
</svg>
