<svg width="44" height="32" viewBox="0 0 44 32" fill="none" xmlns="http://www.w3.org/2000/svg">
<path d="M21.5818 31.8589C24.3172 31.8589 26.5347 29.6414 26.5347 26.906C26.5347 24.1706 24.3172 21.9531 21.5818 21.9531C18.8464 21.9531 16.6289 24.1706 16.6289 26.906C16.6289 29.6414 18.8464 31.8589 21.5818 31.8589Z" fill="#029894"/>
<path d="M21.579 11.012C15.512 11.012 10.0401 14.6131 7.63906 20.1866C7.04882 21.557 7.68106 23.1461 9.05124 23.7365C10.4216 24.3268 12.0109 23.6948 12.6011 22.3244C14.1477 18.7348 17.6718 16.4151 21.579 16.4151C25.4862 16.4151 29.0103 18.7348 30.5569 22.3244C30.9971 23.3462 31.9929 23.9579 33.0392 23.9579C33.396 23.9579 33.7586 23.8869 34.1069 23.7365C35.4774 23.1463 36.1093 21.557 35.5192 20.1866C33.1179 14.6131 27.646 11.012 21.579 11.012Z" fill="#029894"/>
<path d="M42.7176 12.355C38.0266 5.19869 30.1247 0.92627 21.58 0.92627C13.0354 0.92627 5.13344 5.19869 0.442473 12.355C-0.375567 13.6029 -0.0269187 15.2774 1.22083 16.0954C1.67748 16.3948 2.19129 16.5379 2.69932 16.5379C3.57957 16.5379 4.44267 16.1083 4.96122 15.317C8.65024 9.68922 14.8628 6.32916 21.58 6.32916C28.2973 6.32916 34.5098 9.68912 38.1988 15.3169C39.0168 16.5646 40.6914 16.9134 41.9393 16.0953C43.187 15.2774 43.5355 13.6029 42.7176 12.355Z" fill="#029894"/>
</svg>
