<svg width="66" height="41" viewBox="0 0 66 41" fill="none" xmlns="http://www.w3.org/2000/svg">
<path fill-rule="evenodd" clip-rule="evenodd" d="M50.1606 19.0064H56.3888V9.5155C56.3888 8.7184 56.0371 7.99556 55.4724 7.47077C54.9077 6.94597 54.1298 6.61921 53.272 6.61921C52.4143 6.61921 51.6364 6.94597 51.0717 7.47077C50.507 7.99556 50.1553 8.7184 50.1553 9.5155V19.0064H50.1606ZM5.6474 0.811768C7.20843 0.811768 8.62028 1.40093 9.6432 2.34656C10.6661 3.29713 11.3001 4.60913 11.3001 6.05975C11.3001 7.51037 10.6661 8.82237 9.6432 9.77295C8.62028 10.7235 7.20843 11.3127 5.6474 11.3127C4.08637 11.3127 2.67452 10.7235 1.6516 9.77295C0.634001 8.82237 0 7.51037 0 6.05975C0 4.60913 0.634001 3.29713 1.65693 2.34656C2.67452 1.40093 4.08637 0.811768 5.6474 0.811768ZM7.7412 4.11404C7.20843 3.61894 6.46787 3.30703 5.6474 3.30703C4.83226 3.30703 4.0917 3.61399 3.5536 4.11404C3.02083 4.60913 2.68518 5.29731 2.68518 6.05975C2.68518 6.81724 3.0155 7.50542 3.5536 8.00547C4.08637 8.50056 4.82693 8.81247 5.6474 8.81247C6.46255 8.81247 7.2031 8.50551 7.7412 8.00547C8.27398 7.51037 8.60962 6.82219 8.60962 6.05975C8.60962 5.30226 8.27398 4.61408 7.7412 4.11404ZM25.5891 35.4286C27.7469 35.4286 29.6275 34.8296 31.2259 33.6216C32.8402 32.4135 33.7299 30.9035 33.8951 29.0865H39.6011C39.4892 30.9679 38.8019 32.7552 37.5233 34.4484C36.2339 36.1416 34.5237 37.4981 32.3873 38.5081C30.2509 39.5082 27.9866 40.0182 25.5944 40.0182C20.8048 40.0182 16.9795 38.5329 14.1451 35.5574C11.3214 32.5819 9.89894 28.5023 9.89894 23.3335V22.3929C9.89894 19.2094 10.5329 16.3676 11.7903 13.8921C13.0476 11.4117 14.8591 9.48084 17.2139 8.10448C19.5688 6.72813 22.3499 6.04985 25.5625 6.04985C29.521 6.04985 32.8029 7.144 35.4241 9.34717C38.0347 11.5503 39.4253 14.412 39.6064 17.9123H33.8951C33.7299 15.7933 32.8615 14.0505 31.3058 12.6841C29.7607 11.3226 27.8374 10.6394 25.5572 10.6394C22.499 10.6394 20.1335 11.6642 18.4393 13.7089C16.7611 15.7636 15.914 18.7193 15.914 22.6058V23.6603C15.914 27.4329 16.7504 30.344 18.4286 32.3789C20.0962 34.4038 22.4884 35.4286 25.5891 35.4286ZM60.2354 9.19369C59.7932 9.19369 59.4362 8.86198 59.4362 8.45105C59.4362 8.04012 59.7932 7.70841 60.2354 7.70841H64.6681C65.1103 7.70841 65.4672 8.04012 65.4672 8.45105C65.4672 8.86198 65.1103 9.19369 64.6681 9.19369H60.2354ZM60.2354 13.3772C59.7932 13.3772 59.4362 13.0455 59.4362 12.6346C59.4362 12.2237 59.7932 11.8919 60.2354 11.8919H64.6681C65.1103 11.8919 65.4672 12.2237 65.4672 12.6346C65.4672 13.0455 65.1103 13.3772 64.6681 13.3772H60.2354ZM60.2354 17.5657C59.7932 17.5657 59.4362 17.234 59.4362 16.8231C59.4362 16.4121 59.7932 16.0804 60.2354 16.0804H64.6681C65.1103 16.0804 65.4672 16.4121 65.4672 16.8231C65.4672 17.234 65.1103 17.5657 64.6681 17.5657H60.2354ZM60.2354 21.7492C59.7932 21.7492 59.4362 21.4175 59.4362 21.0066C59.4362 20.5957 59.7932 20.264 60.2354 20.264H64.6681C65.1103 20.264 65.4672 20.5957 65.4672 21.0066C65.4672 21.4175 65.1103 21.7492 64.6681 21.7492H60.2354ZM60.2354 25.9328C59.7932 25.9328 59.4362 25.6011 59.4362 25.1901C59.4362 24.7792 59.7932 24.4475 60.2354 24.4475H64.6681C65.1103 24.4475 65.4672 24.7792 65.4672 25.1901C65.4672 25.6011 65.1103 25.9328 64.6681 25.9328H60.2354ZM57.9871 26.819C60.1395 28.2201 61.546 30.5421 61.546 33.171C61.546 37.4536 57.8113 40.9192 53.2081 40.9192C48.5996 40.9192 44.8702 37.4486 44.8702 33.171C44.8702 30.4876 46.3407 28.1211 48.573 26.7299V9.5155C48.573 8.31242 49.1004 7.21827 49.9582 6.42612C50.8106 5.63397 51.9881 5.13888 53.2827 5.13888C54.5773 5.13888 55.7548 5.62902 56.6125 6.42612C57.465 7.21827 57.9977 8.31242 57.9977 9.5155V26.819H57.9871Z" fill="#029894"/>
</svg>
