<svg width="221" height="270" fill="none" xmlns="http://www.w3.org/2000/svg"><path style="mix-blend-mode:multiply" d="M179.954 189.743c47.385 15.502 54.691 43.595 16.318 62.741-38.373 19.146-107.887 22.1-155.268 6.597-47.38-15.502-54.691-43.599-16.322-62.745 38.37-19.146 107.891-22.1 155.272-6.593Z" fill="url(#a)"/><path d="M110.427 226.159c-22.79 0-44.286-3.096-62.17-8.946-25.134-8.225-39.559-20.922-40.622-35.761-.52-7.307 2.098-21.308 25.514-32.993 19.172-9.569 47.38-15.059 77.389-15.059 22.786 0 44.285 3.096 62.149 8.947 25.13 8.224 39.555 20.926 40.618 35.765.524 7.303-2.093 21.307-25.51 32.993-19.156 9.564-47.36 15.054-77.368 15.054Z" fill="#029894" style="mix-blend-mode:multiply" opacity=".2"/><path d="M170.295 149.932c40.798 13.35 47.087 37.533 14.049 54.019-33.037 16.486-92.889 19.03-133.703 5.681-40.815-13.349-47.087-37.537-14.053-54.023 33.033-16.486 92.893-19.026 133.707-5.677Z" fill="#029894" style="mix-blend-mode:multiply"/><g style="mix-blend-mode:multiply"><path d="M158.104 156.007c32.493 10.631 37.502 29.877 11.191 43.027-26.312 13.149-73.983 15.154-106.472 4.518-32.49-10.635-37.507-29.876-11.191-43.022 26.315-13.146 73.999-15.154 106.472-4.523Z" fill="url(#b)"/><path d="M158.104 156.007c32.493 10.631 37.502 29.877 11.191 43.027-26.312 13.149-73.983 15.154-106.472 4.518-32.49-10.635-37.507-29.876-11.191-43.022 26.315-13.146 73.999-15.154 106.472-4.523Z" fill="url(#c)"/><path d="M158.104 156.007c32.493 10.631 37.502 29.877 11.191 43.027-26.312 13.149-73.983 15.154-106.472 4.518-32.49-10.635-37.507-29.876-11.191-43.022 26.315-13.146 73.999-15.154 106.472-4.523Z" fill="url(#d)"/></g><path d="M110.427 241.944c-22.79 0-44.286-3.091-62.17-8.946-25.134-8.221-39.559-20.922-40.622-35.761-.52-7.303 2.098-21.308 25.514-32.993 19.172-9.569 47.381-15.055 77.389-15.055 22.786 0 44.285 3.092 62.149 8.947 25.13 8.22 39.555 20.922 40.618 35.761.524 7.307-2.093 21.307-25.51 32.992-19.156 9.569-47.36 15.055-77.368 15.055Z" fill="#029894" style="mix-blend-mode:multiply" opacity=".2"/><path d="M178.258 152.393h-13.42a70.796 70.796 0 0 0-11.706-4.918c-29.087-9.519-71.766-7.705-95.326 4.046-.572.287-1.112.577-1.635.872H42.853v14.739c-1.226 8.515 7.36 17.133 24.991 22.909 29.088 9.519 71.767 7.706 95.322-4.045 10.173-5.079 15.104-11.179 15.096-17.238l-.004-16.365Z" fill="#E6EBED"/><path d="M153.132 131.11c29.092 9.519 33.577 26.764 10.018 38.516-23.56 11.751-66.239 13.569-95.322 4.05-29.084-9.52-33.577-26.765-10.022-38.521 23.556-11.755 66.238-13.564 95.326-4.045Z" fill="#FAFDFF"/><path style="mix-blend-mode:multiply" d="M110.404 179.891c37.475 0 67.854-12.311 67.854-27.498 0-15.188-30.379-27.499-67.854-27.499-37.474 0-67.853 12.311-67.853 27.499 0 15.187 30.379 27.498 67.853 27.498Z" fill="url(#e)"/><path d="M178.258 125.289h-13.42a70.796 70.796 0 0 0-11.706-4.918c-29.087-9.519-71.766-7.709-95.326 4.046a36.94 36.94 0 0 0-1.635.872H42.853v14.735c-1.226 8.514 7.36 17.133 24.991 22.909 29.088 9.519 71.767 7.706 95.322-4.05 10.173-5.075 15.104-11.175 15.096-17.233l-.004-16.361Z" fill="#E6EBED"/><path d="M153.132 104.001c29.092 9.519 33.577 26.764 10.018 38.52-23.56 11.756-66.239 13.569-95.322 4.05-29.084-9.519-33.577-26.765-10.022-38.52 23.556-11.756 66.238-13.565 95.326-4.05Z" fill="#FAFDFF"/><path style="mix-blend-mode:multiply" opacity=".25" d="M110.405 139.534c19.409 0 35.143-6.378 35.143-14.246 0-7.867-15.734-14.245-35.143-14.245-19.41 0-35.143 6.378-35.143 14.245 0 7.868 15.734 14.246 35.143 14.246Z" fill="url(#f)"/><path d="M108.306 23.895c0 5.049-1.155 8.862-3.467 11.44-2.311 2.579-5.423 3.866-9.335 3.864-3.95 0-7.084-1.288-9.404-3.864-2.32-2.575-3.475-6.389-3.467-11.44v-7.86c0-5.05 1.147-8.862 3.443-11.435C88.37 2.027 91.49.738 95.435.732c3.933 0 7.058 1.294 9.375 3.88 2.317 2.587 3.477 6.395 3.48 11.424l.016 7.86Zm-8.525-8.448c0-2.858-.372-4.912-1.116-6.162a3.57 3.57 0 0 0-1.346-1.4 3.5 3.5 0 0 0-1.868-.476 3.435 3.435 0 0 0-1.864.471 3.506 3.506 0 0 0-1.333 1.405c-.72 1.25-1.078 3.304-1.076 6.162v8.988c0 2.907.363 4.982 1.088 6.224.33.567.8 1.037 1.364 1.363a3.69 3.69 0 0 0 3.7 0 3.76 3.76 0 0 0 1.364-1.363c.722-1.245 1.084-3.32 1.087-6.224v-8.988ZM120.525 16.367h4.023c1.535 0 2.715-.415 3.541-1.245.826-.83 1.235-1.993 1.227-3.49a4.217 4.217 0 0 0-1.113-2.98c-.744-.804-1.819-1.207-3.238-1.207a4.695 4.695 0 0 0-2.936.975 3.03 3.03 0 0 0-.939 1.101c-.22.439-.331.926-.324 1.418h-8.3l-.049-.153c-.101-2.98 1.053-5.394 3.463-7.241 2.409-1.848 5.337-2.774 8.783-2.776 3.993 0 7.189.929 9.588 2.788 2.398 1.859 3.596 4.487 3.594 7.884a7.804 7.804 0 0 1-1.558 4.685 10.44 10.44 0 0 1-4.162 3.349 9.943 9.943 0 0 1 4.632 3.352 8.765 8.765 0 0 1 1.668 5.395c0 3.427-1.29 6.12-3.872 8.079-2.581 1.959-5.878 2.938-9.89 2.938a15.272 15.272 0 0 1-9.073-2.76c-2.587-1.842-3.84-4.509-3.758-8l.053-.153h8.349a3.878 3.878 0 0 0 1.378 3.016 4.864 4.864 0 0 0 3.353 1.22 4.988 4.988 0 0 0 3.594-1.282 4.264 4.264 0 0 0 1.014-1.472c.231-.558.343-1.16.327-1.765 0-1.811-.469-3.134-1.406-3.967-.938-.832-2.257-1.247-3.958-1.244h-4.024l.013-6.465Z" fill="#029894"/><path fill-rule="evenodd" clip-rule="evenodd" d="M102.117 104.634c2.069 6.096 10.725 6.316 12.669 0 2.29 2.063 9.07 2.471 11.591 3.882.797.445 1.518 1.01 2.095 1.775.389.514.909 1.462 1.298 2.522H87.126c.395-1.06.91-2.008 1.299-2.522.577-.765 1.298-1.33 2.095-1.775 2.527-1.405 9.307-1.819 11.597-3.882Zm-1.437-46.822h15.549c.671 0 1.217.546 1.217 1.217v10.92c0 .671-.546 1.217-1.217 1.217H100.68a1.218 1.218 0 0 1-1.216-1.217v-10.92c0-.67.545-1.217 1.216-1.217Zm16.044 3.406h-16.489v8.85c0 .094.038.176.1.239.063.062.145.1.239.1h15.812a.332.332 0 0 0 .238-.1.33.33 0 0 0 .1-.239v-8.85Zm-1.655-2.038a.602.602 0 1 1 0 1.205.602.602 0 0 1 0-1.205Zm-4.077 0a.602.602 0 1 1 0 1.205.602.602 0 0 1 0-1.205Zm2.038 0a.602.602 0 1 1 0 1.203.602.602 0 0 1 0-1.203Zm-6.799 5.77-1.982.746 1.982.753v1.744l-3.079-1.744V64.95l3.079-1.744v1.744Zm7.527 0v1.5l-3.08 1.743v-1.744l1.982-.752-1.982-.747V63.2l3.08 1.75Zm-5.338 3.732h-1.311l1.618-6.31h1.311l-1.618 6.31Zm35.776 24.028c.025 0 .05 0 .075.007.157-.276.301-.571.439-.878.007-.007.007-.013.013-.013.194-.47.351-.953.445-1.455a7.5 7.5 0 0 0 .145-1.198h-2.359c-.044 1.198-.401 2.377-1.066 3.537h2.308Zm-.408.753h-2.37c-.722 1.047-1.694 2.076-2.904 3.092.188-.025.382-.056.564-.094.508-.1.997-.25 1.474-.458a8.09 8.09 0 0 0 1.342-.727 7.505 7.505 0 0 0 1.894-1.813Zm-7.3 3.092c-1.217-1.016-2.189-2.045-2.904-3.092h-2.371c.226.307.477.596.753.872a7.19 7.19 0 0 0 1.154.947c.414.276.859.52 1.342.728.006.006.012.006.012.012a7.38 7.38 0 0 0 1.456.445c.181.032.37.057.558.088Zm-5.771-3.845h2.39c-.665-1.16-1.022-2.345-1.066-3.537h-2.358c.018.414.069.81.144 1.198.1.508.251.997.458 1.474.125.3.269.59.432.865Zm-1.034-4.29h2.37c.088-1.173.477-2.352 1.173-3.537h-2.509a8.678 8.678 0 0 0-.432.872c-.007.006-.007.012-.013.012-.194.47-.351.954-.445 1.455a6.706 6.706 0 0 0-.144 1.198Zm1.524-4.29h2.502c.715-1.028 1.656-2.063 2.829-3.105a6.32 6.32 0 0 0-.615.1c-.508.101-.997.252-1.474.459a8.138 8.138 0 0 0-1.342.727 7.559 7.559 0 0 0-1.9 1.82Zm7.244-3.105c1.179 1.042 2.12 2.077 2.829 3.105h2.502a7.688 7.688 0 0 0-1.907-1.819 8.278 8.278 0 0 0-1.342-.727c-.006-.007-.012-.007-.012-.013a7.392 7.392 0 0 0-1.455-.445c-.201-.038-.408-.07-.615-.1Zm5.827 3.858h-2.509c.696 1.185 1.085 2.364 1.173 3.537h2.371a8.153 8.153 0 0 0-.145-1.198 7.143 7.143 0 0 0-.458-1.474 9.295 9.295 0 0 0-.432-.865Zm-8.505-4.497a8.648 8.648 0 0 1 1.725-.17c.589 0 1.16.057 1.724.17.552.106 1.079.27 1.6.495.006 0 .012.007.019.013.514.22 1.003.489 1.461.79a8.05 8.05 0 0 1 1.267 1.041c.389.39.734.81 1.041 1.267.307.458.571.947.79 1.462.226.527.389 1.066.502 1.618.113.558.169 1.129.169 1.725 0 .59-.056 1.16-.169 1.725a7.624 7.624 0 0 1-.495 1.599c0 .006-.007.012-.013.019a9.042 9.042 0 0 1-.79 1.461 8.41 8.41 0 0 1-2.308 2.308c-.458.308-.947.571-1.462.79a8.322 8.322 0 0 1-1.618.502 8.648 8.648 0 0 1-1.725.17c-.589 0-1.16-.057-1.725-.17a7.621 7.621 0 0 1-1.599-.495c-.006 0-.012-.007-.019-.013a9.363 9.363 0 0 1-1.461-.79 8.05 8.05 0 0 1-1.267-1.041 8.384 8.384 0 0 1-1.041-1.267 8.85 8.85 0 0 1-.791-1.462 8.384 8.384 0 0 1-.501-1.618 8.642 8.642 0 0 1-.17-1.725c0-.59.057-1.16.17-1.725a7.564 7.564 0 0 1 .495-1.599c0-.006.006-.012.013-.019.219-.52.489-1.003.79-1.461a8.416 8.416 0 0 1 2.308-2.308 8.85 8.85 0 0 1 1.462-.79 8.923 8.923 0 0 1 1.618-.502Zm2.101 1.129v2.615h2.49c-.659-.865-1.487-1.737-2.49-2.615Zm0 3.368v3.537h4.315c-.1-1.16-.533-2.34-1.305-3.537h-3.01Zm0 4.29v3.537h3.142c.747-1.172 1.142-2.352 1.186-3.537h-4.328Zm0 4.29v2.647c1.066-.872 1.938-1.756 2.615-2.647h-2.615Zm-.753 2.64v-2.646h-2.615c.671.89 1.543 1.775 2.615 2.647Zm0-3.393v-3.537h-4.334c.044 1.185.446 2.365 1.186 3.537h3.148Zm0-4.29v-3.537h-3.017c-.771 1.198-1.204 2.377-1.298 3.537h4.315Zm0-4.29v-2.615c-1.01.878-1.838 1.75-2.49 2.615h2.49Zm-62.206 4.667-2.779-4.033c.49-.59.916-1.217 1.286-1.876a15.08 15.08 0 0 0 .978-2.145l4.892.47-4.377 7.584Zm.915.552 4.397-7.621 7.583 4.378-.602 1.041-6.034-3.48a.693.693 0 0 0-.94.25.693.693 0 0 0 .25.94l6.034 3.482-.564.972-6.034-3.481a.693.693 0 0 0-.941.25.693.693 0 0 0 .25.942l6.034 3.48-.564.973-6.034-3.481a.693.693 0 0 0-.94.25.693.693 0 0 0 .25.942l6.034 3.48-.602 1.042-7.577-4.36Zm-4.647-5.959L69 80.223l3.744.364a13.484 13.484 0 0 1-.72 1.517 9.633 9.633 0 0 1-.841 1.286Zm8.712 27.208c.32.715 0 1.556-.722 1.876-.715.32-1.555 0-1.875-.721a33.338 33.338 0 0 1-1.926-5.545 33.983 33.983 0 0 1-.928-5.808 1.426 1.426 0 0 1 1.324-1.524 1.426 1.426 0 0 1 1.524 1.323c.131 1.819.42 3.594.846 5.313a30.406 30.406 0 0 0 1.757 5.086Zm5.983-33.97c-.583.521-1.48.471-2.007-.112-.52-.583-.47-1.48.113-2.007a38.55 38.55 0 0 1 4.49-3.45c1.443-.94 2.93-1.75 4.347-2.302a1.42 1.42 0 0 1 1.838.816 1.42 1.42 0 0 1-.815 1.837c-1.223.47-2.534 1.192-3.826 2.033a35.678 35.678 0 0 0-4.14 3.186Zm36.874-6.027a1.421 1.421 0 0 1 1.436-2.452 33.336 33.336 0 0 1 4.516 3.167 33.792 33.792 0 0 1 3.951 3.864 1.42 1.42 0 0 1-.144 2.007 1.421 1.421 0 0 1-2.007-.144 31.585 31.585 0 0 0-3.613-3.544 31.99 31.99 0 0 0-4.139-2.898Zm15.78 31.474a1.416 1.416 0 0 1 1.594-1.223 1.42 1.42 0 0 1 1.223 1.593 33.33 33.33 0 0 1-.96 4.672 33.64 33.64 0 0 1-1.612 4.485 1.42 1.42 0 0 1-1.875.728 1.42 1.42 0 0 1-.728-1.876 30.337 30.337 0 0 0 2.358-8.379ZM100.53 92.002c-.433.019-.765.106-.985.257a.83.83 0 0 0-.282.326c-.07.144-.1.32-.094.527.019.596.332 1.373.934 2.27l.007.013 1.956 3.117c.784 1.248 1.612 2.522 2.635 3.456.984.897 2.176 1.512 3.757 1.512 1.712.006 2.96-.628 3.976-1.581 1.054-.991 1.888-2.346 2.71-3.694l2.208-3.638c.414-.94.558-1.568.464-1.938-.057-.22-.301-.326-.709-.345a1.961 1.961 0 0 0-.27 0c-.1 0-.2.012-.307.019a.512.512 0 0 1-.169-.013c-.195.013-.402 0-.603-.031l.759-3.036c-5.607.885-9.803-3.28-15.73-.834l.426 3.632c-.25.025-.476.012-.683-.02Zm17.33-.703c.545.163.89.508 1.035 1.066.156.615-.013 1.487-.54 2.679-.012.019-.019.044-.031.062l-2.233 3.676c-.859 1.417-1.737 2.835-2.898 3.932-1.21 1.129-2.697 1.882-4.729 1.876-1.9-.006-3.33-.734-4.503-1.807-1.136-1.034-2.001-2.377-2.823-3.681l-1.957-3.118c-.715-1.066-1.091-2.044-1.11-2.847-.012-.376.05-.721.195-1.022.144-.314.37-.577.67-.784.145-.094.302-.176.477-.245a44.71 44.71 0 0 1-.094-5.287c.044-.42.126-.847.245-1.267.502-1.788 1.756-2.61 3.312-3.594.859-.546 1.793-.96 2.778-1.236.621-.175-.527-2.164.113-2.233 3.111-.32 8.141 2.522 10.318 4.867 1.085 1.18 1.768 2.114 1.919 4.178l-.144 4.785Z" fill="#029894"/><defs><radialGradient id="a" cx="0" cy="0" r="1" gradientUnits="userSpaceOnUse" gradientTransform="matrix(107.502 0 0 42.5488 110.477 212.119)"><stop stop-color="#7FD4F9"/><stop offset="1" stop-color="#fff"/></radialGradient><radialGradient id="b" cx="0" cy="0" r="1" gradientUnits="userSpaceOnUse" gradientTransform="rotate(-21.812 524.029 -207.27) scale(57.9042 39.9502)"><stop stop-color="#7FD4F9"/><stop offset=".43" stop-color="#81D5F9"/><stop offset=".58" stop-color="#88D7F9"/><stop offset=".69" stop-color="#93DBFA"/><stop offset=".78" stop-color="#A4E1FB"/><stop offset=".86" stop-color="#BAE8FC"/><stop offset=".92" stop-color="#D6F1FD"/><stop offset=".98" stop-color="#F5FCFF"/><stop offset="1" stop-color="#fff"/></radialGradient><radialGradient id="c" cx="0" cy="0" r="1" gradientUnits="userSpaceOnUse" gradientTransform="rotate(-21.812 524.029 -207.27) scale(57.9042 39.9502)"><stop stop-color="#80E3C8"/><stop offset=".43" stop-color="#82E3C9"/><stop offset=".58" stop-color="#89E5CC"/><stop offset=".69" stop-color="#94E8D1"/><stop offset=".78" stop-color="#A5EBD8"/><stop offset=".86" stop-color="#BBF0E2"/><stop offset=".93" stop-color="#D7F6ED"/><stop offset=".99" stop-color="#F6FDFB"/><stop offset="1" stop-color="#fff"/></radialGradient><radialGradient id="d" cx="0" cy="0" r="1" gradientUnits="userSpaceOnUse" gradientTransform="rotate(-21.812 524.029 -207.27) scale(57.9042 39.9502)"><stop stop-color="#7FD4F9"/><stop offset=".43" stop-color="#81D5F9"/><stop offset=".58" stop-color="#88D7F9"/><stop offset=".69" stop-color="#93DBFA"/><stop offset=".78" stop-color="#A4E1FB"/><stop offset=".86" stop-color="#BAE8FC"/><stop offset=".92" stop-color="#D6F1FD"/><stop offset=".98" stop-color="#F5FCFF"/><stop offset="1" stop-color="#fff"/></radialGradient><radialGradient id="e" cx="0" cy="0" r="1" gradientUnits="userSpaceOnUse" gradientTransform="matrix(67.6449 0 0 25.4004 110.404 155.641)"><stop stop-color="#7FD4F9"/><stop offset="1" stop-color="#fff"/></radialGradient><radialGradient id="f" cx="0" cy="0" r="1" gradientUnits="userSpaceOnUse" gradientTransform="matrix(35.0368 0 0 13.1562 110.405 128.5)"><stop stop-color="#7FD4F9"/><stop offset="1" stop-color="#fff"/></radialGradient></defs></svg>