<svg width="222" height="262" fill="none" xmlns="http://www.w3.org/2000/svg"><path style="mix-blend-mode:multiply" d="M180.558 182.719c47.381 15.507 54.688 43.599 16.319 62.745-38.37 19.146-107.887 22.1-155.272 6.594-47.385-15.507-54.688-43.595-16.318-62.746 38.369-19.15 107.886-22.096 155.271-6.593Z" fill="url(#a)"/><path d="M108.482 219.135c-22.787 0-44.286-3.091-62.15-8.942-25.13-8.224-39.555-20.926-40.618-35.765-.523-7.307 2.097-21.308 25.51-32.993 19.176-9.568 47.385-15.054 77.388-15.054 22.791 0 44.29 3.095 62.174 8.946 25.13 8.22 39.555 20.922 40.618 35.761.52 7.303-2.097 21.308-25.514 32.993-19.205 9.569-47.413 15.054-77.408 15.054Z" fill="#001C63" style="mix-blend-mode:multiply" opacity=".2"/><path d="M108.482 234.925c-22.787 0-44.286-3.096-62.15-8.947-25.13-8.224-39.555-20.922-40.618-35.76-.523-7.308 2.097-21.308 25.51-32.998 19.176-9.543 47.385-15.054 77.388-15.054 22.791 0 44.29 3.096 62.174 8.946 25.13 8.225 39.555 20.922 40.618 35.761.52 7.307-2.097 21.308-25.514 32.993-19.205 9.569-47.413 15.059-77.408 15.059Z" fill="#001C63" style="mix-blend-mode:multiply" opacity=".2"/><path d="M168.345 142.909c40.798 13.349 47.091 37.537 14.053 54.023-33.037 16.486-92.889 19.025-133.703 5.676-40.815-13.349-47.087-37.536-14.05-54.022 33.038-16.486 92.906-19.026 133.7-5.677Z" fill="#001C63" style="mix-blend-mode:multiply"/><g style="mix-blend-mode:multiply"><path d="M156.17 148.984c32.489 10.635 37.502 29.897 11.191 43.027-26.311 13.129-73.983 15.154-106.476 4.522-32.494-10.631-37.503-29.876-11.191-43.026 26.311-13.15 73.982-15.154 106.476-4.523Z" fill="url(#b)"/><path d="M156.17 148.984c32.489 10.635 37.502 29.897 11.191 43.027-26.311 13.129-73.983 15.154-106.476 4.522-32.494-10.631-37.503-29.876-11.191-43.026 26.311-13.15 73.982-15.154 106.476-4.523Z" fill="url(#c)"/><path d="M156.17 148.984c32.489 10.635 37.502 29.897 11.191 43.027-26.311 13.129-73.983 15.154-106.476 4.522-32.494-10.631-37.503-29.876-11.191-43.026 26.311-13.15 73.982-15.154 106.476-4.523Z" fill="url(#d)"/></g><path d="M176.302 145.369h-13.42a71.331 71.331 0 0 0-11.706-4.917c-29.088-9.519-71.766-7.706-95.322 4.05a59.57 59.57 0 0 0-1.656.867H40.881v14.743c-1.227 8.511 7.34 17.134 24.99 22.91 29.093 9.519 71.771 7.705 95.327-4.05 10.173-5.075 15.104-11.175 15.096-17.237l.008-16.366Z" fill="#E6E6ED"/><path d="M151.178 124.086c29.091 9.519 33.577 26.765 10.021 38.52-23.555 11.756-66.238 13.565-95.326 4.05-29.087-9.515-33.573-26.768-10.017-38.52 23.555-11.751 66.234-13.569 95.322-4.05Z" fill="#FAFAFF"/><path style="mix-blend-mode:multiply" d="M108.455 172.868c37.474 0 67.853-12.312 67.853-27.499s-30.379-27.499-67.853-27.499c-37.474 0-67.853 12.312-67.853 27.499s30.379 27.499 67.853 27.499Z" fill="url(#e)"/><path d="M176.302 118.264h-13.42a71.085 71.085 0 0 0-11.706-4.917c-29.088-9.519-71.766-7.705-95.322 4.05-.572.286-1.116.577-1.656.867H40.881v14.744c-1.227 8.51 7.34 17.133 24.99 22.909 29.093 9.519 71.771 7.706 95.327-4.05 10.173-5.075 15.104-11.174 15.096-17.237l.008-16.366Z" fill="#E6E6ED"/><path d="M151.178 96.965c29.091 9.519 33.577 26.764 10.021 38.52-23.555 11.756-66.238 13.565-95.326 4.046-29.087-9.519-33.573-26.765-10.017-38.516 23.555-11.752 66.234-13.552 95.322-4.05Z" fill="#FAFAFF"/><path style="mix-blend-mode:multiply" opacity=".25" d="M108.456 132.51c19.409 0 35.143-6.378 35.143-14.245 0-7.868-15.734-14.245-35.143-14.245-19.41 0-35.144 6.377-35.144 14.245 0 7.867 15.735 14.245 35.144 14.245Z" fill="url(#f)"/><path d="M106.349 23.476c0 5.049-1.154 8.862-3.463 11.44-2.309 2.579-5.422 3.868-9.339 3.868-3.944 0-7.072-1.29-9.384-3.868-2.311-2.578-3.472-6.391-3.483-11.44v-7.842c0-5.052 1.146-8.865 3.438-11.44C86.411 1.617 89.532.33 93.482.33c3.93 0 7.056 1.292 9.375 3.876 2.32 2.583 3.478 6.393 3.476 11.428l.016 7.842Zm-8.525-8.444c0-2.858-.37-4.913-1.112-6.166a3.573 3.573 0 0 0-1.347-1.396 3.504 3.504 0 0 0-1.867-.476 3.435 3.435 0 0 0-1.866.468 3.504 3.504 0 0 0-1.336 1.404c-.714 1.253-1.072 3.308-1.075 6.166v8.984c0 2.913.363 4.987 1.088 6.224a3.57 3.57 0 0 0 1.358 1.398 3.5 3.5 0 0 0 1.88.465 3.452 3.452 0 0 0 1.856-.47 3.52 3.52 0 0 0 1.333-1.393c.725-1.242 1.088-3.317 1.088-6.224v-8.984ZM125.933.318c1.3-.014 2.598.11 3.872.37 1.278.296 2.531.696 3.746 1.195l-1.419 6.315c-1.182-.356-2.212-.626-3.099-.805a15.209 15.209 0 0 0-3.05-.27 6.014 6.014 0 0 0-2.681.518 6.093 6.093 0 0 0-2.189 1.653c-1.221 1.444-1.807 3.553-1.758 6.328l.077.129a7.387 7.387 0 0 1 2.961-2.005 11.54 11.54 0 0 1 4.199-.718c3.287 0 5.847 1.202 7.678 3.606 1.832 2.404 2.747 5.482 2.744 9.233 0 3.696-1.21 6.774-3.631 9.233-2.42 2.46-5.51 3.687-9.269 3.685-4.034 0-7.29-1.345-9.768-4.034-2.478-2.689-3.718-6.37-3.721-11.042v-7.523c0-4.93 1.43-8.802 4.289-11.618 2.86-2.817 6.533-4.233 11.019-4.25Zm-1.696 19.387a8.58 8.58 0 0 0-3.047.486 4.776 4.776 0 0 0-2.011 1.352v2.2c0 2.697.435 4.772 1.304 6.224A4.088 4.088 0 0 0 122 31.564c.64.381 1.372.577 2.114.565 1.281 0 2.326-.614 3.136-1.843a7.765 7.765 0 0 0 1.227-4.373c0-1.892-.393-3.397-1.178-4.515a3.614 3.614 0 0 0-1.315-1.25 3.548 3.548 0 0 0-1.747-.443Z" fill="#001C63"/><path fill-rule="evenodd" clip-rule="evenodd" d="M77 79.797h14.145v25.718H77V79.797Zm48.626-13.057c5.133 0 9.297 4.25 9.297 9.5 0 5.245-4.158 9.5-9.297 9.5-5.132 0-9.297-4.249-9.297-9.5 0-5.244 4.159-9.5 9.297-9.5Zm-16.315-11.927c4.426 0 8.021 3.667 8.021 8.196 0 4.523-3.589 8.196-8.021 8.196-4.426 0-8.021-3.667-8.021-8.196 0-4.523 3.589-8.197 8.021-8.197Zm.815 9.936c0-.267-.063-.471-.194-.623-.131-.15-.353-.29-.672-.425a14.838 14.838 0 0 1-.883-.401 3.195 3.195 0 0 1-.701-.477 1.834 1.834 0 0 1-.45-.623c-.108-.24-.154-.524-.154-.862 0-.565.188-1.03.559-1.391.37-.361.866-.582 1.487-.64v-.757h.78v.774c.598.087 1.071.338 1.413.75.342.414.512.938.512 1.567h-1.669c0-.35-.068-.617-.199-.804a.644.644 0 0 0-.558-.279c-.217 0-.388.07-.502.204-.119.14-.176.332-.176.57 0 .245.068.443.205.588.142.146.359.285.661.42.302.133.592.267.86.407.268.145.501.303.695.483.199.18.353.396.461.635.108.238.171.523.171.867 0 .57-.176 1.036-.535 1.397-.359.36-.838.57-1.447.629v.71h-.775v-.71c-.712-.082-1.259-.326-1.641-.745-.381-.425-.575-.979-.575-1.671h1.658c0 .384.079.67.245.873.165.198.398.303.7.303.223 0 .393-.07.524-.204.126-.14.194-.326.2-.565Zm16.44 13.505c0-.308-.074-.547-.222-.721-.148-.175-.404-.338-.78-.495a18.015 18.015 0 0 1-1.026-.466 3.538 3.538 0 0 1-.814-.553 2.216 2.216 0 0 1-.524-.722c-.126-.273-.177-.605-.177-.995 0-.658.216-1.193.649-1.613.428-.419 1.003-.669 1.721-.739v-.879h.906v.902c.689.105 1.236.396 1.634.874.399.477.599 1.082.599 1.816h-1.926c0-.408-.08-.71-.228-.932a.747.747 0 0 0-.649-.326c-.251 0-.444.082-.581.24-.137.156-.205.383-.205.663 0 .285.079.512.239.68.159.17.41.333.763.484.353.151.684.314.997.472.314.162.581.355.809.558.228.21.405.454.536.734.131.28.193.611.193 1.001 0 .664-.205 1.205-.621 1.618-.41.414-.968.664-1.68.728v.82h-.906v-.826c-.826-.093-1.458-.378-1.903-.867-.438-.49-.66-1.135-.66-1.939h1.919c0 .443.097.775.285 1.007.188.227.462.35.815.35a.827.827 0 0 0 .609-.233c.148-.151.223-.367.228-.64Zm-.94-9.645c4.119 0 7.463 3.411 7.463 7.626 0 4.208-3.338 7.625-7.463 7.625-4.118 0-7.462-3.41-7.462-7.626 0-4.214 3.344-7.625 7.462-7.625Zm-31.633 34.747V81.864h9.462c4.01.733 8.021 2.957 12.031 5.536h7.349c3.327.203 5.07 3.65 1.834 5.914-2.575 1.933-5.975 1.822-9.462 1.502-2.404-.122-2.506 3.178 0 3.19.872.07 1.817-.14 2.643-.14 4.353-.006 7.93-.856 10.123-4.366l1.1-2.625 10.932-5.536c5.468-1.84 9.353 4.005 5.326 8.074-7.918 5.885-16.036 10.728-24.342 14.64-6.032 3.749-12.065 3.621-18.092 0l-8.904-4.697Z" fill="#001C63"/><defs><radialGradient id="a" cx="0" cy="0" r="1" gradientUnits="userSpaceOnUse" gradientTransform="matrix(107.502 0 0 42.5488 111.082 204.326)"><stop stop-color="#1628B1"/><stop offset="1" stop-color="#fff"/></radialGradient><radialGradient id="b" cx="0" cy="0" r="1" gradientUnits="userSpaceOnUse" gradientTransform="matrix(53.75844 -21.51545 14.84431 37.08996 115.53 172.048)"><stop stop-color="#80E3C8"/><stop offset=".43" stop-color="#82E3C9"/><stop offset=".58" stop-color="#89E5CC"/><stop offset=".69" stop-color="#94E8D1"/><stop offset=".78" stop-color="#A5EBD8"/><stop offset=".86" stop-color="#BBF0E2"/><stop offset=".93" stop-color="#D7F6ED"/><stop offset=".99" stop-color="#F6FDFB"/><stop offset="1" stop-color="#fff"/></radialGradient><radialGradient id="c" cx="0" cy="0" r="1" gradientUnits="userSpaceOnUse" gradientTransform="matrix(53.75844 -21.51545 14.84431 37.08996 115.53 172.048)"><stop stop-color="#80E3C8"/><stop offset=".43" stop-color="#82E3C9"/><stop offset=".58" stop-color="#89E5CC"/><stop offset=".69" stop-color="#94E8D1"/><stop offset=".78" stop-color="#A5EBD8"/><stop offset=".86" stop-color="#BBF0E2"/><stop offset=".93" stop-color="#D7F6ED"/><stop offset=".99" stop-color="#F6FDFB"/><stop offset="1" stop-color="#fff"/></radialGradient><radialGradient id="d" cx="0" cy="0" r="1" gradientUnits="userSpaceOnUse" gradientTransform="matrix(53.75844 -21.51545 14.84431 37.08996 115.53 172.048)"><stop stop-color="#1628B1"/><stop offset=".38" stop-color="#182AB2"/><stop offset=".52" stop-color="#1F30B4"/><stop offset=".61" stop-color="#2A3BB8"/><stop offset=".69" stop-color="#3B4BBE"/><stop offset=".76" stop-color="#515FC5"/><stop offset=".82" stop-color="#6D78CE"/><stop offset=".87" stop-color="#8D96D9"/><stop offset=".92" stop-color="#B3B9E5"/><stop offset=".97" stop-color="#DCDFF3"/><stop offset="1" stop-color="#fff"/></radialGradient><radialGradient id="e" cx="0" cy="0" r="1" gradientUnits="userSpaceOnUse" gradientTransform="matrix(67.6449 0 0 25.4005 108.455 148.823)"><stop stop-color="#1628B1"/><stop offset="1" stop-color="#fff"/></radialGradient><radialGradient id="f" cx="0" cy="0" r="1" gradientUnits="userSpaceOnUse" gradientTransform="matrix(35.0368 0 0 13.1562 108.456 121.682)"><stop stop-color="#1628B1"/><stop offset="1" stop-color="#fff"/></radialGradient></defs></svg>