<svg width="221" height="264" fill="none" xmlns="http://www.w3.org/2000/svg"><path style="mix-blend-mode:multiply" d="M180.024 184.62c47.385 15.507 54.712 43.595 16.318 62.728-38.393 19.134-107.886 22.097-155.267 6.594s-54.692-43.595-16.323-62.745c38.37-19.15 107.891-22.08 155.272-6.577Z" fill="url(#a)"/><path d="M110.474 220.327c-22.787 0-44.286-3.096-62.15-8.947-25.13-8.22-39.555-20.922-40.618-35.76-.523-7.303 2.098-21.308 25.514-32.993 19.172-9.569 47.381-15.055 77.389-15.055 22.786 0 44.285 3.092 62.149 8.943 25.13 8.224 39.555 20.926 40.618 35.764.524 7.308-2.097 21.308-25.514 32.993-19.172 9.569-47.381 15.055-77.388 15.055Z" fill="#8EDBDC" style="mix-blend-mode:multiply" opacity=".2"/><path d="M170.351 144.099c40.794 13.349 47.087 37.537 14.05 54.019-33.038 16.482-92.89 19.03-133.704 5.681-40.814-13.349-47.09-37.537-14.053-54.023 33.037-16.486 92.91-19.03 133.707-5.677Z" fill="#029894" style="mix-blend-mode:multiply"/><g style="mix-blend-mode:multiply"><path d="M158.178 150.175c32.493 10.631 37.502 29.876 11.191 43.026-26.312 13.15-73.983 15.154-106.476 4.523-32.494-10.631-37.503-29.897-11.191-43.026 26.311-13.129 73.982-15.154 106.476-4.523Z" fill="url(#b)"/><path d="M158.178 150.175c32.493 10.631 37.502 29.876 11.191 43.026-26.312 13.15-73.983 15.154-106.476 4.523-32.494-10.631-37.503-29.897-11.191-43.026 26.311-13.129 73.982-15.154 106.476-4.523Z" fill="url(#c)"/><path d="M158.178 150.175c32.493 10.631 37.502 29.876 11.191 43.026-26.312 13.15-73.983 15.154-106.476 4.523-32.494-10.631-37.503-29.897-11.191-43.026 26.311-13.129 73.982-15.154 106.476-4.523Z" fill="url(#d)"/></g><path d="M110.474 236.111c-22.787 0-44.286-3.091-62.15-8.942-25.13-8.225-39.555-20.926-40.618-35.761-.523-7.307 2.098-21.308 25.514-32.993 19.172-9.569 47.381-15.059 77.389-15.059 22.786 0 44.285 3.096 62.149 8.947 25.13 8.22 39.555 20.922 40.618 35.761.524 7.307-2.097 21.307-25.514 32.992-19.172 9.569-47.381 15.055-77.388 15.055Z" fill="#8EDBDC" style="mix-blend-mode:multiply" opacity=".2"/><path d="M178.309 146.56h-13.423a70.994 70.994 0 0 0-11.702-4.917c-29.092-9.519-71.771-7.706-95.326 4.05-.573.282-1.113.577-1.636.867h-13.33v14.744c-1.226 8.51 7.36 17.133 24.987 22.909 29.092 9.515 71.771 7.706 95.326-4.05 10.173-5.075 15.104-11.174 15.096-17.237l.008-16.366Z" fill="#E6EDEB"/><path d="M153.19 125.277c29.087 9.519 33.573 26.764 10.017 38.52-23.555 11.755-66.238 13.565-95.326 4.046-29.087-9.519-33.573-26.765-10.017-38.521 23.555-11.755 66.234-13.564 95.326-4.045Z" fill="#FAFFFE"/><path style="mix-blend-mode:multiply" d="M110.534 174.03c37.434 0 67.78-12.299 67.78-27.47s-30.346-27.47-67.78-27.47-67.78 12.299-67.78 27.47 30.346 27.47 67.78 27.47Z" fill="url(#e)"/><path d="M178.309 119.455h-13.423a70.616 70.616 0 0 0-11.702-4.917c-29.092-9.519-71.771-7.706-95.326 4.05-.573.282-1.113.576-1.636.867h-13.33v14.743c-1.226 8.511 7.36 17.129 24.987 22.906 29.092 9.519 71.771 7.709 95.326-4.046 10.173-5.079 15.104-11.179 15.096-17.237l.008-16.366Z" fill="#E6EDEB"/><path d="M153.19 98.172c29.087 9.519 33.573 26.765 10.017 38.52-23.555 11.756-66.238 13.565-95.326 4.046-29.087-9.519-33.573-26.764-10.017-38.52 23.555-11.756 66.234-13.565 95.326-4.046Z" fill="#FAFFFE"/><path style="mix-blend-mode:multiply" opacity=".25" d="M110.534 133.701c19.409 0 35.143-6.378 35.143-14.246 0-7.867-15.734-14.245-35.143-14.245-19.41 0-35.143 6.378-35.143 14.245 0 7.868 15.734 14.246 35.143 14.246Z" fill="url(#f)"/><path d="M108.428 23.721c0 5.052-1.156 8.865-3.468 11.44-2.311 2.576-5.424 3.864-9.338 3.864-3.948 0-7.082-1.288-9.405-3.863-2.322-2.576-3.478-6.39-3.467-11.44v-7.86c0-5.051 1.148-8.865 3.443-11.44C88.488 1.846 91.608.559 95.552.559c3.928 0 7.053 1.293 9.376 3.88 2.322 2.586 3.482 6.394 3.479 11.423l.021 7.86Zm-8.53-8.448c0-2.86-.37-4.915-1.112-6.162a3.574 3.574 0 0 0-1.346-1.398 3.504 3.504 0 0 0-1.867-.478c-.654-.023-1.3.14-1.866.472a3.516 3.516 0 0 0-1.336 1.404c-.714 1.25-1.073 3.304-1.075 6.162v8.988c0 2.907.362 4.982 1.087 6.224.316.586.786 1.07 1.358 1.4.572.329 1.223.49 1.88.463.65.023 1.294-.14 1.857-.47a3.513 3.513 0 0 0 1.333-1.393c.728-1.242 1.09-3.317 1.087-6.224v-8.988ZM138.65 38.481h-25.759v-5.647l11.857-12.636a25.264 25.264 0 0 0 3.312-4.672 7.987 7.987 0 0 0 1.063-3.569 5.182 5.182 0 0 0-1.075-3.444c-.714-.855-1.789-1.282-3.226-1.282a3.417 3.417 0 0 0-1.729.422c-.53.29-.975.718-1.293 1.238a7.483 7.483 0 0 0-1.1 4.224h-8.353l-.049-.153c-.076-1.621.182-3.24.757-4.754a11.699 11.699 0 0 1 2.584-4.04c2.311-2.406 5.372-3.61 9.183-3.61 4.048 0 7.207 1.01 9.478 3.03 2.27 2.02 3.404 4.786 3.402 8.299a11.083 11.083 0 0 1-1.808 6.266c-1.204 1.812-3.427 4.507-6.668 8.087l-4.985 5.42.074.153h14.335v6.668ZM110.412 68.349a1.886 1.886 0 0 1-1.394-3.252 1.883 1.883 0 0 1 1.394-.519A27.523 27.523 0 1 1 86.918 77.79l-2.333.886a1.884 1.884 0 0 1-1.341-3.52l6.062-2.31a1.96 1.96 0 0 1 .596-.123 1.878 1.878 0 0 1 2.133 1.306l1.882 6.194a1.88 1.88 0 0 1-3.597 1.091l-.382-1.273a23.748 23.748 0 1 0 20.465-11.71l.009.017Zm0 13.042c4.511 0 8.186 1.715 8.186 3.825 0 2.11-3.638 3.825-8.186 3.825s-8.186-1.71-8.186-3.825 3.638-3.825 8.186-3.825Zm-8.186 14.44v2.937c1.451 5.166 15.817 4.166 16.345-.264v-2.933c-.705 4.862-15.167 5.212-16.331.26h-.014Zm-.041-8.737v2.865c1.455 5.044 15.894 4.361 16.426.037V87.13c-.704 4.734-15.266 4.797-16.412-.037h-.014Zm0 4.252v2.938c1.455 5.162 15.894 4.461 16.426.032v-2.933c-.718 4.866-15.28 4.916-16.426-.037Zm0-15.53a1.642 1.642 0 0 1 .903-2.135 1.638 1.638 0 0 1 2.135.902l1.223 2.975a1.631 1.631 0 0 1-.367 1.787 1.655 1.655 0 0 1-1.165.473 1.643 1.643 0 0 1-1.51-1.023l-1.223-2.98h.004Zm-9.746 15.14a1.642 1.642 0 0 1-1.396-1.852 1.64 1.64 0 0 1 1.851-1.396l3.184.428a1.638 1.638 0 1 1-.455 3.247l-3.184-.428Zm8.236 15.989a1.636 1.636 0 1 1-2.592-2.001l1.965-2.547a1.64 1.64 0 0 1 1.724-.58 1.635 1.635 0 0 1 .992.766 1.648 1.648 0 0 1 .16 1.243 1.633 1.633 0 0 1-.284.572l-1.965 2.547Zm17.955.882a1.639 1.639 0 0 1-.892 2.133 1.616 1.616 0 0 1-.626.122 1.619 1.619 0 0 1-1.154-.482 1.65 1.65 0 0 1-.353-.531l-1.223-2.975a1.64 1.64 0 0 1 2.143-2.101c.396.16.714.469.886.86l1.219 2.974Zm9.75-15.126a1.64 1.64 0 1 1-.418 3.257l-3.184-.455a1.64 1.64 0 0 1 .455-3.247l3.183.427-.036.018Zm-8.218-16.003a1.648 1.648 0 0 1 1.095-.676 1.64 1.64 0 0 1 1.872 1.447 1.633 1.633 0 0 1-.379 1.23l-1.965 2.547a1.636 1.636 0 1 1-2.587-2.001l1.964-2.547Z" fill="#029894"/><defs><radialGradient id="a" cx="0" cy="0" r="1" gradientUnits="userSpaceOnUse" gradientTransform="matrix(107.502 0 0 42.5488 110.547 206.222)"><stop stop-color="#8EDBDC"/><stop offset="1" stop-color="#fff"/></radialGradient><radialGradient id="b" cx="0" cy="0" r="1" gradientUnits="userSpaceOnUse" gradientTransform="rotate(-21.812 506.342 -208.169) scale(57.9042 39.9502)"><stop stop-color="#8EDBDC"/><stop offset=".44" stop-color="#90DCDD"/><stop offset=".6" stop-color="#97DEDF"/><stop offset=".71" stop-color="#A2E2E2"/><stop offset=".8" stop-color="#B3E7E8"/><stop offset=".88" stop-color="#C9EEEE"/><stop offset=".95" stop-color="#E4F6F7"/><stop offset="1" stop-color="#fff"/></radialGradient><radialGradient id="c" cx="0" cy="0" r="1" gradientUnits="userSpaceOnUse" gradientTransform="rotate(-21.812 506.342 -208.169) scale(57.9042 39.9502)"><stop stop-color="#80E3C8"/><stop offset=".43" stop-color="#82E3C9"/><stop offset=".58" stop-color="#89E5CC"/><stop offset=".69" stop-color="#94E8D1"/><stop offset=".78" stop-color="#A5EBD8"/><stop offset=".86" stop-color="#BBF0E2"/><stop offset=".93" stop-color="#D7F6ED"/><stop offset=".99" stop-color="#F6FDFB"/><stop offset="1" stop-color="#fff"/></radialGradient><radialGradient id="d" cx="0" cy="0" r="1" gradientUnits="userSpaceOnUse" gradientTransform="rotate(-21.812 506.342 -208.169) scale(57.9042 39.9502)"><stop stop-color="#80E3C8"/><stop offset=".43" stop-color="#82E3C9"/><stop offset=".58" stop-color="#89E5CC"/><stop offset=".69" stop-color="#94E8D1"/><stop offset=".78" stop-color="#A5EBD8"/><stop offset=".86" stop-color="#BBF0E2"/><stop offset=".93" stop-color="#D7F6ED"/><stop offset=".99" stop-color="#F6FDFB"/><stop offset="1" stop-color="#fff"/></radialGradient><radialGradient id="e" cx="0" cy="0" r="1" gradientUnits="userSpaceOnUse" gradientTransform="matrix(67.5713 0 0 25.3728 110.534 150.014)"><stop stop-color="#8EDBDC"/><stop offset="1" stop-color="#fff"/></radialGradient><radialGradient id="f" cx="0" cy="0" r="1" gradientUnits="userSpaceOnUse" gradientTransform="matrix(35.0368 0 0 13.1562 110.534 122.872)"><stop stop-color="#8EDBDC"/><stop offset="1" stop-color="#fff"/></radialGradient></defs></svg>