<svg width="222" height="270" fill="none" xmlns="http://www.w3.org/2000/svg"><path style="mix-blend-mode:multiply" d="M180.454 190.369c47.385 15.507 54.691 43.599 16.318 62.745-38.373 19.146-107.887 22.1-155.268 6.594-47.38-15.507-54.691-43.595-16.322-62.741 38.37-19.146 107.891-22.088 155.272-6.598Z" fill="url(#a)"/><path d="M110.923 226.076c-22.787 0-44.29-3.092-62.174-8.942-25.13-8.225-39.555-20.927-40.618-35.761-.52-7.307 2.098-21.308 25.514-32.997 19.172-9.565 47.381-15.055 77.389-15.055 22.791 0 44.285 3.096 62.17 8.947 25.133 8.22 39.559 20.922 40.618 35.76.523 7.308-2.094 21.308-25.51 32.993-19.177 9.569-47.385 15.055-77.389 15.055Z" fill="#001C63" style="mix-blend-mode:multiply" opacity=".2"/><path d="M170.799 149.849c40.798 13.349 47.087 37.537 14.049 54.023-33.037 16.486-92.889 19.026-133.682 5.677C10.372 196.2 4.079 172.012 37.112 155.53c33.034-16.482 92.889-19.03 133.687-5.681Z" fill="#001C63" style="mix-blend-mode:multiply"/><g style="mix-blend-mode:multiply"><path d="M158.619 155.924c32.494 10.635 37.503 29.876 11.191 43.026-26.311 13.15-73.982 15.154-106.472 4.523-32.49-10.631-37.506-29.897-11.19-43.026 26.315-13.129 73.982-15.154 106.471-4.523Z" fill="url(#b)"/><path d="M158.619 155.924c32.494 10.635 37.503 29.876 11.191 43.026-26.311 13.15-73.982 15.154-106.472 4.523-32.49-10.631-37.506-29.897-11.19-43.026 26.315-13.129 73.982-15.154 106.471-4.523Z" fill="url(#c)"/><path d="M158.619 155.924c32.494 10.635 37.503 29.876 11.191 43.026-26.311 13.15-73.982 15.154-106.472 4.523-32.49-10.631-37.506-29.897-11.19-43.026 26.315-13.129 73.982-15.154 106.471-4.523Z" fill="url(#d)"/></g><path d="M110.923 241.865c-22.787 0-44.29-3.095-62.174-8.946-25.13-8.225-39.555-20.922-40.618-35.761-.52-7.307 2.098-21.308 25.514-32.993 19.172-9.569 47.381-15.059 77.389-15.059 22.791 0 44.285 3.096 62.17 8.947 25.133 8.224 39.559 20.922 40.618 35.761.523 7.307-2.094 21.307-25.51 32.997-19.177 9.564-47.385 15.054-77.389 15.054Z" fill="#001C63" style="mix-blend-mode:multiply" opacity=".2"/><path d="M178.755 152.31h-13.42a71.592 71.592 0 0 0-11.706-4.917c-29.088-9.519-71.766-7.706-95.326 4.05a43.12 43.12 0 0 0-1.636.867H43.334v14.744c-1.227 8.51 7.36 17.133 24.99 22.909 29.088 9.519 71.767 7.706 95.323-4.05 10.172-5.075 15.104-11.174 15.095-17.233l.013-16.37Z" fill="#E6E6E8"/><path d="M153.632 131.027c29.092 9.519 33.577 26.764 10.018 38.52-23.56 11.756-66.239 13.569-95.322 4.05-29.084-9.519-33.577-26.765-10.022-38.52 23.556-11.756 66.238-13.569 95.326-4.05Z" fill="#FDFDFF"/><path style="mix-blend-mode:multiply" d="M110.975 179.78c37.434 0 67.78-12.299 67.78-27.47s-30.346-27.47-67.78-27.47-67.78 12.299-67.78 27.47 30.346 27.47 67.78 27.47Z" fill="url(#e)"/><path d="M178.755 125.205h-13.42a71.505 71.505 0 0 0-11.706-4.917c-29.088-9.519-71.766-7.706-95.326 4.05-.572.286-1.112.576-1.636.867H43.334v14.743c-1.227 8.511 7.36 17.134 24.99 22.91 29.088 9.519 71.767 7.705 95.323-4.05 10.172-5.075 15.104-11.175 15.095-17.237l.013-16.366Z" fill="#E6E6E8"/><path d="M153.632 103.922c29.092 9.519 33.577 26.765 10.018 38.52-23.56 11.756-66.239 13.565-95.322 4.046-29.084-9.519-33.577-26.764-10.022-38.516 23.556-11.751 66.238-13.569 95.326-4.05Z" fill="#FDFDFF"/><path style="mix-blend-mode:multiply" opacity=".25" d="M110.979 139.45c19.409 0 35.143-6.378 35.143-14.246 0-7.867-15.734-14.245-35.143-14.245s-35.143 6.378-35.143 14.245c0 7.868 15.734 14.246 35.143 14.246Z" fill="url(#f)"/><path d="M108.881 23.894c0 5.049-1.156 8.862-3.468 11.44-2.311 2.579-5.423 3.866-9.334 3.864-3.95 0-7.085-1.288-9.405-3.864-2.32-2.575-3.475-6.389-3.467-11.44v-7.86c0-5.05 1.148-8.862 3.443-11.435C88.945 2.026 92.065.737 96.01.73c3.927 0 7.052 1.294 9.375 3.88 2.322 2.587 3.482 6.395 3.479 11.424l.017 7.86Zm-8.53-8.448c0-2.858-.37-4.912-1.112-6.162a3.57 3.57 0 0 0-1.345-1.4 3.5 3.5 0 0 0-1.869-.476 3.435 3.435 0 0 0-1.864.471 3.504 3.504 0 0 0-1.333 1.405c-.72 1.25-1.078 3.304-1.075 6.162v8.988c0 2.907.362 4.982 1.087 6.224.316.585.786 1.07 1.358 1.398a3.487 3.487 0 0 0 1.88.46c.65.023 1.291-.14 1.854-.468a3.512 3.512 0 0 0 1.332-1.39c.728-1.245 1.09-3.32 1.087-6.224v-8.988ZM113.982 22.227l2.126-20.956h21.605v6.677h-14.65l-.936 7.834a7.722 7.722 0 0 1 2.404-1.207 11.3 11.3 0 0 1 3.165-.515c3.609-.066 6.384.999 8.325 3.196 1.94 2.196 2.91 5.316 2.907 9.36a12.815 12.815 0 0 1-3.312 8.922c-2.211 2.44-5.374 3.66-9.49 3.66a14.613 14.613 0 0 1-9.134-2.954 8.942 8.942 0 0 1-2.865-3.413 9.091 9.091 0 0 1-.881-4.393l.053-.153 8.35-.515c0 1.489.409 2.653 1.226 3.494a4.319 4.319 0 0 0 3.251 1.245c1.554 0 2.655-.553 3.304-1.66a8.22 8.22 0 0 0 .973-4.199c0-2.053-.363-3.67-1.088-4.85-.725-1.182-1.873-1.773-3.443-1.773a4.706 4.706 0 0 0-2.768.743 3.848 3.848 0 0 0-1.455 1.876l-7.667-.42ZM114.784 101.486h-4.557v-3.959h-3.294v3.959h-4.556a1.648 1.648 0 0 0 0 3.294h12.406a1.647 1.647 0 0 0 .001-3.294ZM111.654 92.065H87v1.968a1.3 1.3 0 0 0 1.299 1.299h40.562a1.3 1.3 0 0 0 1.299-1.3v-1.967h-18.506ZM128.861 66.004H88.299A1.3 1.3 0 0 0 87 67.303v22.566h3.037c.194-10.06 8.437-18.184 18.543-18.184 3.489 0 6.756.969 9.546 2.65l1.089-1.487a1.099 1.099 0 0 1 1.772 1.297l-1.05 1.434c4.283 3.327 7.074 8.486 7.186 14.29h3.037V67.303a1.3 1.3 0 0 0-1.299-1.3Z" fill="#001C63"/><path d="M117.874 88.69a9.387 9.387 0 0 0-3.322-5.754l-3.271 4.467a4.18 4.18 0 0 1 1.212 1.732h5.561a1.08 1.08 0 0 1-.18-.445ZM108.58 80.811a9.395 9.395 0 0 0-6.877 2.97l-.024.035a1.088 1.088 0 0 1-.194.204 9.403 9.403 0 0 0-2.2 4.67c-.027.165-.09.315-.18.444h5.561a4.178 4.178 0 0 1 4.585-2.674l3.448-4.71a9.443 9.443 0 0 0-4.119-.939ZM124.897 89.135c-.318-4.777-2.698-9-6.255-11.783l-2.798 3.823c.096.077.193.154.287.235a11.637 11.637 0 0 1 3.912 6.921c.048.293-.024.578-.18.804h5.034ZM97.12 88.331a11.589 11.589 0 0 1 2.09-4.953l-3.818-2.776-.011-.01a16.258 16.258 0 0 0-3.115 8.543h5.033a1.094 1.094 0 0 1-.18-.804ZM96.797 78.908l3.878 2.82a11.617 11.617 0 0 1 6.808-3.059v-4.75a16.31 16.31 0 0 0-10.686 4.99ZM109.68 73.919v4.75c1.517.145 2.988.586 4.328 1.296l2.817-3.849a16.237 16.237 0 0 0-7.145-2.197Z" fill="#001C63"/><defs><radialGradient id="a" cx="0" cy="0" r="1" gradientUnits="userSpaceOnUse" gradientTransform="matrix(107.502 0 0 42.5488 110.977 212.744)"><stop stop-color="#2A48D0"/><stop offset="1" stop-color="#fff"/></radialGradient><radialGradient id="b" cx="0" cy="0" r="1" gradientUnits="userSpaceOnUse" gradientTransform="matrix(53.75844 -21.51545 14.84431 37.08996 117.007 179.793)"><stop stop-color="#8EDBDC"/><stop offset=".44" stop-color="#90DCDD"/><stop offset=".6" stop-color="#97DEDF"/><stop offset=".71" stop-color="#A2E2E2"/><stop offset=".8" stop-color="#B3E7E8"/><stop offset=".88" stop-color="#C9EEEE"/><stop offset=".95" stop-color="#E4F6F7"/><stop offset="1" stop-color="#fff"/></radialGradient><radialGradient id="c" cx="0" cy="0" r="1" gradientUnits="userSpaceOnUse" gradientTransform="matrix(53.75844 -21.51545 14.84431 37.08996 117.007 179.793)"><stop stop-color="#80E3C8"/><stop offset=".43" stop-color="#82E3C9"/><stop offset=".58" stop-color="#89E5CC"/><stop offset=".69" stop-color="#94E8D1"/><stop offset=".78" stop-color="#A5EBD8"/><stop offset=".86" stop-color="#BBF0E2"/><stop offset=".93" stop-color="#D7F6ED"/><stop offset=".99" stop-color="#F6FDFB"/><stop offset="1" stop-color="#fff"/></radialGradient><radialGradient id="d" cx="0" cy="0" r="1" gradientUnits="userSpaceOnUse" gradientTransform="matrix(53.75844 -21.51545 14.84431 37.08996 117.007 179.793)"><stop stop-color="#2A48D0"/><stop offset=".39" stop-color="#2C4AD0"/><stop offset=".53" stop-color="#334FD2"/><stop offset=".62" stop-color="#3E5AD5"/><stop offset=".71" stop-color="#4F68D8"/><stop offset=".77" stop-color="#657BDD"/><stop offset=".83" stop-color="#8192E3"/><stop offset=".89" stop-color="#A1AEEA"/><stop offset=".94" stop-color="#C7CFF3"/><stop offset=".99" stop-color="#F0F2FC"/><stop offset="1" stop-color="#fff"/></radialGradient><radialGradient id="e" cx="0" cy="0" r="1" gradientUnits="userSpaceOnUse" gradientTransform="matrix(67.5713 0 0 25.3728 110.975 155.56)"><stop stop-color="#2A48D0"/><stop offset="1" stop-color="#fff"/></radialGradient><radialGradient id="f" cx="0" cy="0" r="1" gradientUnits="userSpaceOnUse" gradientTransform="matrix(35.0369 0 0 13.1562 110.979 128.418)"><stop stop-color="#2A48D0"/><stop offset="1" stop-color="#fff"/></radialGradient></defs></svg>