<svg width="222" height="270" viewBox="0 0 222 270" fill="none" xmlns="http://www.w3.org/2000/svg">
<path style="mix-blend-mode:multiply" d="M180.133 190.179C227.518 205.686 234.825 233.779 196.452 252.925C158.078 272.07 88.565 275.025 41.1841 259.518C-6.19677 244.011 -13.5075 215.923 24.8617 196.777C63.2309 177.631 132.753 174.689 180.133 190.179Z" fill="url(#paint0_radial_208_118258)"/>
<g style="mix-blend-mode:multiply" opacity="0.2">
<path d="M110.603 225.885C87.8161 225.885 66.3131 222.794 48.4288 216.943C23.2991 208.719 8.87389 196.017 7.8108 181.182C7.29153 173.875 9.90831 159.874 33.3248 148.185C52.4971 138.621 80.7057 133.131 110.713 133.131C133.504 133.131 154.999 136.226 172.883 142.077C198.017 150.297 212.442 162.999 213.501 177.838C214.025 185.145 211.408 199.146 187.991 210.831C168.815 220.4 140.606 225.885 110.603 225.885Z" fill="#001C63"/>
</g>
<g style="mix-blend-mode:multiply">
<path d="M170.475 149.658C211.273 163.007 217.562 187.195 184.524 203.681C151.487 220.167 91.6352 222.706 50.8414 209.357C10.0475 196.008 3.75482 171.821 36.7881 155.339C69.8215 138.857 129.677 136.309 170.475 149.658Z" fill="#001C63"/>
</g>
<g style="mix-blend-mode:multiply">
<path d="M158.299 155.733C190.793 166.369 195.801 185.61 169.49 198.76C143.179 211.91 95.5076 213.914 63.0181 203.283C30.5286 192.652 25.5116 173.385 51.827 160.256C78.1424 147.127 125.809 145.102 158.299 155.733Z" fill="url(#paint1_radial_208_118258)"/>
<path d="M158.299 155.733C190.793 166.369 195.801 185.61 169.49 198.76C143.179 211.91 95.5076 213.914 63.0181 203.283C30.5286 192.652 25.5116 173.385 51.827 160.256C78.1424 147.127 125.809 145.102 158.299 155.733Z" fill="url(#paint2_radial_208_118258)"/>
<path d="M158.299 155.733C190.793 166.369 195.801 185.61 169.49 198.76C143.179 211.91 95.5076 213.914 63.0181 203.283C30.5286 192.652 25.5116 173.385 51.827 160.256C78.1424 147.127 125.809 145.102 158.299 155.733Z" fill="url(#paint3_radial_208_118258)"/>
</g>
<g style="mix-blend-mode:multiply" opacity="0.2">
<path d="M110.603 241.675C87.8161 241.675 66.3131 238.579 48.4288 232.728C23.2991 224.504 8.87389 211.806 7.8108 196.968C7.29153 189.66 9.90831 175.66 33.3248 163.975C52.4971 154.406 80.7057 148.916 110.713 148.916C133.504 148.916 154.999 152.012 172.883 157.862C198.017 166.087 212.442 178.784 213.501 193.623C214.025 200.93 211.408 214.931 187.991 226.62C168.815 236.185 140.606 241.675 110.603 241.675Z" fill="#001C63"/>
</g>
<path d="M178.436 152.119H165.017C161.264 150.135 157.347 148.489 153.311 147.202C124.223 137.683 81.5443 139.496 57.9847 151.252C57.4122 151.538 56.8725 151.828 56.3492 152.119H43.0156V166.862C41.7889 175.373 50.3754 183.996 68.0063 189.772C97.0939 199.291 139.773 197.477 163.328 185.722C173.501 180.647 178.432 174.547 178.424 168.489L178.436 152.119Z" fill="#E6E6E8"/>
<path d="M153.312 130.836C182.403 140.356 186.889 157.601 163.329 169.357C139.77 181.112 97.0909 182.926 68.0074 173.407C38.9238 163.888 34.4303 146.642 57.9858 134.886C81.5413 123.131 124.224 121.317 153.312 130.836Z" fill="#FDFDFF"/>
<path style="mix-blend-mode:multiply" d="M110.657 179.588C148.09 179.588 178.437 167.29 178.437 152.118C178.437 136.947 148.09 124.648 110.657 124.648C73.2229 124.648 42.877 136.947 42.877 152.118C42.877 167.29 73.2229 179.588 110.657 179.588Z" fill="url(#paint4_radial_208_118258)"/>
<path d="M178.436 125.013H165.017C161.264 123.029 157.347 121.384 153.311 120.096C124.223 110.577 81.5443 112.391 57.9847 124.146C57.4122 124.433 56.8725 124.723 56.3492 125.013H43.0156V139.757C41.7889 148.267 50.3754 156.89 68.0063 162.666C97.0939 172.185 139.773 170.372 163.328 158.616C173.501 153.542 178.432 147.442 178.424 141.379L178.436 125.013Z" fill="#E6E6E8"/>
<path d="M153.312 103.732C182.403 113.251 186.889 130.496 163.329 142.252C139.77 154.007 97.0909 155.817 68.0074 146.298C38.9238 136.779 34.4303 119.533 57.9858 107.782C81.5413 96.0301 124.224 94.2126 153.312 103.732Z" fill="#FDFDFF"/>
<path style="mix-blend-mode:multiply" opacity="0.25" d="M110.657 139.26C130.066 139.26 145.8 132.882 145.8 125.015C145.8 117.147 130.066 110.77 110.657 110.77C91.2478 110.77 75.5137 117.147 75.5137 125.015C75.5137 132.882 91.2478 139.26 110.657 139.26Z" fill="url(#paint5_radial_208_118258)"/>
<path d="M108.56 23.7057C108.56 28.7543 107.405 32.5677 105.093 35.1459C102.781 37.7242 99.6699 39.0119 95.7583 39.0092C91.8085 39.0092 88.6738 37.7214 86.354 35.1459C84.0343 32.5705 82.8786 28.7571 82.8868 23.7057V15.8464C82.8868 10.7951 84.0343 6.98307 86.3295 4.41036C88.6247 1.83765 91.7445 0.548501 95.6888 0.542969C99.6167 0.542969 102.742 1.83628 105.064 4.42282C107.387 7.00937 108.547 10.8172 108.544 15.8464L108.56 23.7057ZM100.031 15.2572C100.031 12.3996 99.6603 10.3456 98.9189 9.0952C98.6063 8.51171 98.1406 8.02749 97.5733 7.69641C97.0059 7.36532 96.3593 7.2003 95.7052 7.2196C95.0524 7.19571 94.4062 7.35895 93.8406 7.69068C93.2751 8.02242 92.8131 8.50923 92.5077 9.0952C91.7881 10.3456 91.4297 12.3996 91.4324 15.2572V24.2451C91.4324 27.1525 91.7949 29.2273 92.52 30.4694C92.8355 31.0546 93.3059 31.5388 93.8781 31.8672C94.4502 32.1957 95.1014 32.3554 95.7583 32.3284C96.4071 32.3506 97.0492 32.1882 97.612 31.8597C98.1748 31.5313 98.636 31.0497 98.9434 30.4694C99.6712 29.2245 100.034 27.1498 100.031 24.2451V15.2572Z" fill="#001C63"/>
<path d="M113.662 22.0372L115.788 1.08203H137.393V7.75862H122.743L121.807 15.5929C122.533 15.052 123.347 14.6434 124.211 14.3855C125.237 14.0642 126.302 13.8909 127.376 13.8709C130.985 13.8045 133.76 14.8696 135.7 17.066C137.641 19.2625 138.61 22.3829 138.608 26.4274C138.686 29.7247 137.499 32.924 135.296 35.3489C133.085 37.7888 129.922 39.0088 125.806 39.0088C122.522 39.0828 119.307 38.0431 116.671 36.0543C115.447 35.181 114.462 34.0068 113.807 32.6418C113.152 31.2767 112.849 29.7653 112.926 28.249L112.979 28.0955L121.328 27.5809C121.328 29.0692 121.737 30.2339 122.555 31.0749C122.984 31.4968 123.494 31.825 124.053 32.0392C124.612 32.2533 125.209 32.3488 125.806 32.3197C127.359 32.3197 128.461 31.7665 129.109 30.6599C129.801 29.3748 130.137 27.9238 130.082 26.4606C130.082 24.408 129.72 22.791 128.995 21.6098C128.27 20.4285 127.122 19.8379 125.552 19.8379C124.576 19.7913 123.61 20.0506 122.784 20.5807C122.116 21.034 121.606 21.6907 121.328 22.4563L113.662 22.0372Z" fill="#001C63"/>
<path fill-rule="evenodd" clip-rule="evenodd" d="M85.8067 69.2627H127.567C130.297 69.2627 130.15 70.3682 129.912 73.1881L128.359 92.985C128.095 96.1405 128.319 95.3752 124.975 95.8541L94.2617 99.7616L95.8865 104.475C109.211 104.475 115.652 104.475 128.968 104.475C129.416 106.149 130.024 108.875 130.472 110.741H124.975L124.447 108.834C113.347 108.834 109.117 108.834 98.0125 108.834C91.9477 108.731 92.5564 110.374 91.1017 105.133L80.6818 67.253H75.6777V63.623H84.455C84.8623 65.1493 85.4263 67.7185 85.8067 69.2627ZM104.095 74.2578H112.045V82.3234H119.197L108.079 93.1417L96.9428 82.3234H104.095V74.2578ZM99.7089 110.137C102.05 110.137 103.952 112.039 103.952 114.38C103.952 116.725 102.054 118.623 99.7089 118.623C97.3635 118.623 95.4657 116.725 95.4657 114.38C95.4657 112.039 97.3635 110.137 99.7089 110.137ZM117.21 110.137C119.551 110.137 121.453 112.039 121.453 114.38C121.453 116.725 119.551 118.623 117.21 118.623C114.864 118.623 112.967 116.725 112.967 114.38C112.967 112.039 114.864 110.137 117.21 110.137Z" fill="#001C63"/>
<defs>
<radialGradient id="paint0_radial_208_118258" cx="0" cy="0" r="1" gradientUnits="userSpaceOnUse" gradientTransform="translate(110.657 212.554) scale(107.502 42.5488)">
<stop stop-color="#2A48D0"/>
<stop offset="1" stop-color="white"/>
</radialGradient>
<radialGradient id="paint1_radial_208_118258" cx="0" cy="0" r="1" gradientUnits="userSpaceOnUse" gradientTransform="translate(116.687 179.603) rotate(-21.8125) scale(57.9041 39.9502)">
<stop stop-color="#8EDBDC"/>
<stop offset="0.44" stop-color="#90DCDD"/>
<stop offset="0.6" stop-color="#97DEDF"/>
<stop offset="0.71" stop-color="#A2E2E2"/>
<stop offset="0.8" stop-color="#B3E7E8"/>
<stop offset="0.88" stop-color="#C9EEEE"/>
<stop offset="0.95" stop-color="#E4F6F7"/>
<stop offset="1" stop-color="white"/>
</radialGradient>
<radialGradient id="paint2_radial_208_118258" cx="0" cy="0" r="1" gradientUnits="userSpaceOnUse" gradientTransform="translate(116.687 179.603) rotate(-21.8125) scale(57.9041 39.9502)">
<stop stop-color="#80E3C8"/>
<stop offset="0.43" stop-color="#82E3C9"/>
<stop offset="0.58" stop-color="#89E5CC"/>
<stop offset="0.69" stop-color="#94E8D1"/>
<stop offset="0.78" stop-color="#A5EBD8"/>
<stop offset="0.86" stop-color="#BBF0E2"/>
<stop offset="0.93" stop-color="#D7F6ED"/>
<stop offset="0.99" stop-color="#F6FDFB"/>
<stop offset="1" stop-color="white"/>
</radialGradient>
<radialGradient id="paint3_radial_208_118258" cx="0" cy="0" r="1" gradientUnits="userSpaceOnUse" gradientTransform="translate(116.687 179.603) rotate(-21.8125) scale(57.9041 39.9502)">
<stop stop-color="#2A48D0"/>
<stop offset="0.39" stop-color="#2C4AD0"/>
<stop offset="0.53" stop-color="#334FD2"/>
<stop offset="0.62" stop-color="#3E5AD5"/>
<stop offset="0.71" stop-color="#4F68D8"/>
<stop offset="0.77" stop-color="#657BDD"/>
<stop offset="0.83" stop-color="#8192E3"/>
<stop offset="0.89" stop-color="#A1AEEA"/>
<stop offset="0.94" stop-color="#C7CFF3"/>
<stop offset="0.99" stop-color="#F0F2FC"/>
<stop offset="1" stop-color="white"/>
</radialGradient>
<radialGradient id="paint4_radial_208_118258" cx="0" cy="0" r="1" gradientUnits="userSpaceOnUse" gradientTransform="translate(110.657 155.369) scale(67.5713 25.3728)">
<stop stop-color="#2A48D0"/>
<stop offset="1" stop-color="white"/>
</radialGradient>
<radialGradient id="paint5_radial_208_118258" cx="0" cy="0" r="1" gradientUnits="userSpaceOnUse" gradientTransform="translate(110.657 128.228) scale(35.0369 13.1562)">
<stop stop-color="#2A48D0"/>
<stop offset="1" stop-color="white"/>
</radialGradient>
</defs>
</svg>
