<svg width="222" height="262" viewBox="0 0 222 262" fill="none" xmlns="http://www.w3.org/2000/svg">
<path style="mix-blend-mode:multiply" d="M180.24 182.529C227.621 198.036 234.927 226.129 196.558 245.275C158.189 264.42 88.6714 267.375 41.2864 251.868C-6.09852 236.361 -13.4011 208.273 24.9681 189.123C63.3373 169.973 132.855 167.027 180.24 182.529Z" fill="url(#paint0_radial_208_118252)"/>
<g style="mix-blend-mode:multiply" opacity="0.2">
<path d="M108.161 218.946C85.3744 218.946 63.8755 215.855 46.0116 210.004C20.8819 201.779 6.45666 189.078 5.39357 174.239C4.87021 166.932 7.49118 152.931 30.9036 141.246C50.08 131.677 78.2885 126.191 108.292 126.191C131.083 126.191 152.582 129.287 170.466 135.138C195.596 143.358 210.021 156.06 211.084 170.898C211.603 178.202 208.987 192.206 185.57 203.891C166.365 213.46 138.157 218.946 108.161 218.946Z" fill="#001C63"/>
</g>
<g style="mix-blend-mode:multiply" opacity="0.2">
<path d="M108.161 234.733C85.3744 234.733 63.8755 231.638 46.0116 225.787C20.8819 217.562 6.45666 204.865 5.39357 190.026C4.87021 182.719 7.49118 168.718 30.9036 157.029C50.08 147.485 78.2885 141.975 108.292 141.975C131.083 141.975 152.582 145.07 170.466 150.921C195.596 159.145 210.021 171.843 211.084 186.682C211.603 193.989 208.987 207.99 185.57 219.675C166.365 229.243 138.157 234.733 108.161 234.733Z" fill="#001C63"/>
</g>
<g style="mix-blend-mode:multiply">
<path d="M168.023 142.718C208.821 156.067 215.113 180.254 182.076 196.74C149.038 213.227 89.1868 215.766 48.3725 202.417C7.5582 189.068 1.28596 164.88 34.3234 148.394C67.3608 131.908 127.229 129.369 168.023 142.718Z" fill="#001C63"/>
</g>
<g style="mix-blend-mode:multiply">
<path d="M155.85 148.793C188.339 159.428 193.352 178.69 167.041 191.819C140.729 204.948 93.0581 206.973 60.5645 196.342C28.0709 185.711 23.0621 166.465 49.3735 153.316C75.6848 140.166 123.356 138.161 155.85 148.793Z" fill="url(#paint1_radial_208_118252)"/>
<path d="M155.85 148.793C188.339 159.428 193.352 178.69 167.041 191.819C140.729 204.948 93.0581 206.973 60.5645 196.342C28.0709 185.711 23.0621 166.465 49.3735 153.316C75.6848 140.166 123.356 138.161 155.85 148.793Z" fill="url(#paint2_radial_208_118252)"/>
<path d="M155.85 148.793C188.339 159.428 193.352 178.69 167.041 191.819C140.729 204.948 93.0581 206.973 60.5645 196.342C28.0709 185.711 23.0621 166.465 49.3735 153.316C75.6848 140.166 123.356 138.161 155.85 148.793Z" fill="url(#paint3_radial_208_118252)"/>
</g>
<path d="M175.983 145.179H162.564C158.812 143.194 154.895 141.549 150.858 140.262C121.77 130.743 79.0914 132.557 55.5359 144.312C54.9634 144.599 54.4196 144.889 53.8799 145.179H40.5627V159.923C39.336 168.433 47.9021 177.056 65.5534 182.832C94.6451 192.351 137.324 190.538 160.879 178.782C171.052 173.707 175.983 167.608 175.975 161.545L175.983 145.179Z" fill="#E6E6ED"/>
<path d="M150.857 123.896C179.949 133.415 184.435 150.66 160.879 162.416C137.324 174.171 94.6407 175.981 65.5531 166.466C36.4655 156.951 31.9801 139.697 55.5356 127.946C79.0911 116.194 121.77 114.377 150.857 123.896Z" fill="#FAFAFF"/>
<path style="mix-blend-mode:multiply" d="M108.135 172.678C145.609 172.678 175.988 160.366 175.988 145.179C175.988 129.992 145.609 117.68 108.135 117.68C70.6602 117.68 40.2812 129.992 40.2812 145.179C40.2812 160.366 70.6602 172.678 108.135 172.678Z" fill="url(#paint4_radial_208_118252)"/>
<path d="M175.983 118.074H162.564C158.813 116.087 154.895 114.442 150.858 113.157C121.77 103.638 79.0914 105.451 55.5359 117.207C54.9634 117.493 54.4196 117.783 53.8799 118.074H40.5627V132.817C39.336 141.328 47.9021 149.951 65.5534 155.727C94.6451 165.246 137.324 163.432 160.879 151.677C171.052 146.602 175.983 140.502 175.975 134.44L175.983 118.074Z" fill="#E6E6ED"/>
<path d="M150.857 96.7735C179.949 106.293 184.435 123.538 160.879 135.294C137.324 147.049 94.6407 148.858 65.5531 139.339C36.4655 129.82 31.9801 112.575 55.5356 100.823C79.0911 89.072 121.77 87.2711 150.857 96.7735Z" fill="#FAFAFF"/>
<path style="mix-blend-mode:multiply" opacity="0.25" d="M108.133 132.319C127.542 132.319 143.276 125.941 143.276 118.073C143.276 110.206 127.542 103.828 108.133 103.828C88.7243 103.828 72.9902 110.206 72.9902 118.073C72.9902 125.941 88.7243 132.319 108.133 132.319Z" fill="url(#paint5_radial_208_118252)"/>
<path d="M106.347 23.7828C106.347 28.8314 105.193 32.6448 102.884 35.2231C100.575 37.8013 97.4622 39.0905 93.5451 39.0905C89.6008 39.0905 86.4729 37.8013 84.1614 35.2231C81.8499 32.6448 80.6886 28.8314 80.6777 23.7828V15.9402C80.6777 10.8888 81.8239 7.07543 84.1164 4.49996C86.4088 1.92448 89.53 0.636719 93.4798 0.636719C97.4104 0.636719 100.536 1.92859 102.855 4.51237C105.175 7.09614 106.334 10.9054 106.331 15.9402L106.347 23.7828ZM97.822 15.3385C97.822 12.4809 97.4513 10.4254 96.7099 9.17229C96.3964 8.58988 95.9302 8.10686 95.363 7.77658C94.7958 7.4463 94.1498 7.28166 93.4961 7.30089C92.8431 7.27581 92.1963 7.43806 91.63 7.76908C91.0637 8.1001 90.6009 8.58643 90.2946 9.17229C89.5804 10.4254 89.2219 12.4809 89.2192 15.3385V24.3222C89.2192 27.2352 89.5818 29.31 90.3069 30.5465C90.623 31.1316 91.0933 31.6158 91.6653 31.9448C92.2372 32.2739 92.8881 32.4348 93.5451 32.4097C94.1949 32.4312 94.8378 32.2683 95.4013 31.9391C95.9647 31.6099 96.4264 31.1276 96.7344 30.5465C97.4595 29.3044 97.822 27.2297 97.822 24.3222V15.3385Z" fill="#001C63"/>
<path d="M125.933 0.624128C127.233 0.610029 128.531 0.73381 129.805 0.993443C131.083 1.28987 132.336 1.6895 133.551 2.18851L132.132 8.50409C130.95 8.14723 129.92 7.87753 129.033 7.6991C128.027 7.50677 127.006 7.41641 125.983 7.42937C125.062 7.39392 124.145 7.5708 123.302 7.9467C122.458 8.3226 121.71 8.88772 121.113 9.59957C119.892 11.0436 119.306 13.153 119.355 15.9276L119.432 16.0563C120.243 15.1535 121.26 14.4655 122.393 14.052C123.737 13.554 125.161 13.3107 126.592 13.3342C129.879 13.3342 132.439 14.5362 134.27 16.9401C136.102 19.3441 137.017 22.4217 137.014 26.1728C137.014 29.8687 135.804 32.9463 133.383 35.4055C130.963 37.8648 127.873 39.0931 124.114 39.0903C120.08 39.0903 116.824 37.7458 114.346 35.0569C111.868 32.368 110.628 28.6874 110.625 24.015V16.4919C110.625 11.5623 112.055 7.6894 114.914 4.87325C117.774 2.0571 121.447 0.640727 125.933 0.624128ZM124.237 20.0108C123.201 19.9871 122.169 20.1515 121.19 20.4962C120.417 20.7653 119.724 21.231 119.179 21.849V24.0483C119.179 26.7455 119.614 28.8202 120.483 30.2726C120.835 30.9359 121.36 31.4883 122 31.8696C122.64 32.2508 123.372 32.4462 124.114 32.4345C125.395 32.4345 126.44 31.8204 127.25 30.5921C128.085 29.2934 128.512 27.7686 128.477 26.2185C128.477 24.3263 128.084 22.8214 127.299 21.7038C126.972 21.1807 126.52 20.7507 125.984 20.4545C125.448 20.1583 124.847 20.0056 124.237 20.0108Z" fill="#001C63"/>
<path d="M111.178 78.0918C108.256 78.0918 106.021 80.3262 106.021 83.248V84.9668H116.334V83.248C116.334 80.3262 114.1 78.0918 111.178 78.0918Z" fill="#001C63"/>
<path d="M134.553 71.5605C134.037 71.2168 133.521 71.0449 133.006 71.3887C125.615 73.7949 118.053 71.9043 112.381 66.5762C111.693 65.8887 110.662 65.8887 109.975 66.5762C104.303 71.9043 96.7402 73.7949 89.3496 71.3887C88.834 71.0449 88.3184 71.2168 87.8027 71.5605C87.459 71.9043 87.1152 72.4199 87.1152 72.9355C87.1152 99.9199 98.9746 108.857 110.49 114.014C110.662 114.186 111.006 114.186 111.178 114.186C111.35 114.186 111.693 114.186 111.865 114.014C123.381 108.857 135.24 99.9199 135.24 72.9355C135.24 72.4199 134.896 71.9043 134.553 71.5605ZM121.49 96.998C121.49 99.9199 119.256 102.154 116.334 102.154H106.021C103.1 102.154 100.865 99.9199 100.865 96.998V90.123C100.865 88.5762 101.553 87.2012 102.584 86.3418V83.248C102.584 78.4355 106.365 74.6543 111.178 74.6543C115.99 74.6543 119.771 78.4355 119.771 83.248V86.3418C120.803 87.2012 121.49 88.5762 121.49 90.123V96.998Z" fill="#001C63"/>
<path d="M111.178 90.123C110.146 90.123 109.459 90.8105 109.459 91.8418V95.2793C109.459 96.3105 110.146 96.998 111.178 96.998C112.209 96.998 112.896 96.3105 112.896 95.2793V91.8418C112.896 90.8105 112.209 90.123 111.178 90.123Z" fill="#001C63"/>
<defs>
<radialGradient id="paint0_radial_208_118252" cx="0" cy="0" r="1" gradientUnits="userSpaceOnUse" gradientTransform="translate(110.763 204.137) scale(107.502 42.5488)">
<stop stop-color="#1628B1"/>
<stop offset="1" stop-color="white"/>
</radialGradient>
<radialGradient id="paint1_radial_208_118252" cx="0" cy="0" r="1" gradientUnits="userSpaceOnUse" gradientTransform="translate(115.21 171.856) rotate(-21.8125) scale(57.9041 39.9502)">
<stop stop-color="#80E3C8"/>
<stop offset="0.43" stop-color="#82E3C9"/>
<stop offset="0.58" stop-color="#89E5CC"/>
<stop offset="0.69" stop-color="#94E8D1"/>
<stop offset="0.78" stop-color="#A5EBD8"/>
<stop offset="0.86" stop-color="#BBF0E2"/>
<stop offset="0.93" stop-color="#D7F6ED"/>
<stop offset="0.99" stop-color="#F6FDFB"/>
<stop offset="1" stop-color="white"/>
</radialGradient>
<radialGradient id="paint2_radial_208_118252" cx="0" cy="0" r="1" gradientUnits="userSpaceOnUse" gradientTransform="translate(115.21 171.856) rotate(-21.8125) scale(57.9041 39.9502)">
<stop stop-color="#80E3C8"/>
<stop offset="0.43" stop-color="#82E3C9"/>
<stop offset="0.58" stop-color="#89E5CC"/>
<stop offset="0.69" stop-color="#94E8D1"/>
<stop offset="0.78" stop-color="#A5EBD8"/>
<stop offset="0.86" stop-color="#BBF0E2"/>
<stop offset="0.93" stop-color="#D7F6ED"/>
<stop offset="0.99" stop-color="#F6FDFB"/>
<stop offset="1" stop-color="white"/>
</radialGradient>
<radialGradient id="paint3_radial_208_118252" cx="0" cy="0" r="1" gradientUnits="userSpaceOnUse" gradientTransform="translate(115.21 171.856) rotate(-21.8125) scale(57.9041 39.9502)">
<stop stop-color="#1628B1"/>
<stop offset="0.38" stop-color="#182AB2"/>
<stop offset="0.52" stop-color="#1F30B4"/>
<stop offset="0.61" stop-color="#2A3BB8"/>
<stop offset="0.69" stop-color="#3B4BBE"/>
<stop offset="0.76" stop-color="#515FC5"/>
<stop offset="0.82" stop-color="#6D78CE"/>
<stop offset="0.87" stop-color="#8D96D9"/>
<stop offset="0.92" stop-color="#B3B9E5"/>
<stop offset="0.97" stop-color="#DCDFF3"/>
<stop offset="1" stop-color="white"/>
</radialGradient>
<radialGradient id="paint4_radial_208_118252" cx="0" cy="0" r="1" gradientUnits="userSpaceOnUse" gradientTransform="translate(108.135 148.633) scale(67.6449 25.4005)">
<stop stop-color="#1628B1"/>
<stop offset="1" stop-color="white"/>
</radialGradient>
<radialGradient id="paint5_radial_208_118252" cx="0" cy="0" r="1" gradientUnits="userSpaceOnUse" gradientTransform="translate(108.133 121.491) scale(35.0368 13.1562)">
<stop stop-color="#1628B1"/>
<stop offset="1" stop-color="white"/>
</radialGradient>
</defs>
</svg>
