<svg width="222" height="264" viewBox="0 0 222 264" fill="none" xmlns="http://www.w3.org/2000/svg">
<path style="mix-blend-mode:multiply" d="M180.702 184.429C228.087 199.935 235.414 228.024 197.02 247.157C158.626 266.291 89.1333 269.253 41.7525 253.751C-5.6284 238.248 -12.9391 210.156 25.43 191.006C63.7992 171.856 133.321 168.926 180.702 184.429Z" fill="url(#paint0_radial_208_118256)"/>
<g style="mix-blend-mode:multiply" opacity="0.2">
<path d="M111.157 220.135C88.3704 220.135 66.8716 217.04 49.0077 211.189C23.878 202.969 9.45275 190.267 8.38966 175.428C7.8663 168.125 10.4872 154.12 33.9037 142.435C53.076 132.867 81.2846 127.381 111.292 127.381C134.079 127.381 155.578 130.472 173.442 136.323C198.571 144.547 212.997 157.249 214.06 172.088C214.583 179.395 211.962 193.396 188.546 205.081C169.373 214.65 141.165 220.135 111.157 220.135Z" fill="#8EDBDC"/>
</g>
<g style="mix-blend-mode:multiply">
<path d="M171.031 143.909C211.825 157.258 218.118 181.445 185.08 197.927C152.043 214.409 92.1912 216.957 51.3769 203.608C10.5626 190.259 4.2863 166.071 37.3237 149.585C70.3611 133.099 130.233 130.556 171.031 143.909Z" fill="#029894"/>
</g>
<g style="mix-blend-mode:multiply">
<path d="M158.855 149.983C191.349 160.614 196.358 179.86 170.046 193.01C143.735 206.16 96.064 208.164 63.5704 197.533C31.0768 186.902 26.068 167.635 52.3793 154.506C78.6907 141.377 126.362 139.352 158.855 149.983Z" fill="url(#paint1_radial_208_118256)"/>
<path d="M158.855 149.983C191.349 160.614 196.358 179.86 170.046 193.01C143.735 206.16 96.064 208.164 63.5704 197.533C31.0768 186.902 26.068 167.635 52.3793 154.506C78.6907 141.377 126.362 139.352 158.855 149.983Z" fill="url(#paint2_radial_208_118256)"/>
<path d="M158.855 149.983C191.349 160.614 196.358 179.86 170.046 193.01C143.735 206.16 96.064 208.164 63.5704 197.533C31.0768 186.902 26.068 167.635 52.3793 154.506C78.6907 141.377 126.362 139.352 158.855 149.983Z" fill="url(#paint3_radial_208_118256)"/>
</g>
<g style="mix-blend-mode:multiply" opacity="0.2">
<path d="M111.157 235.92C88.3704 235.92 66.8716 232.829 49.0077 226.978C23.878 218.754 9.45275 206.052 8.38966 191.218C7.8663 183.91 10.4872 169.91 33.9037 158.225C53.076 148.656 81.2846 143.166 111.292 143.166C134.079 143.166 155.578 146.262 173.442 152.112C198.571 160.333 212.997 173.034 214.06 187.873C214.583 195.18 211.962 209.181 188.546 220.866C169.373 230.435 141.165 235.92 111.157 235.92Z" fill="#8EDBDC"/>
</g>
<path d="M178.989 146.369H165.565C161.815 144.382 157.899 142.737 153.863 141.452C124.771 131.933 82.0927 133.746 58.5372 145.502C57.9648 145.784 57.425 146.078 56.9017 146.369H43.5722V161.112C42.3456 169.623 50.9321 178.246 68.5588 184.022C97.6505 193.537 140.329 191.727 163.885 179.972C174.058 174.897 178.989 168.797 178.981 162.735L178.989 146.369Z" fill="#E6EDEB"/>
<path d="M153.867 125.086C182.955 134.605 187.44 151.851 163.885 163.606C140.329 175.362 97.6466 177.171 68.559 167.652C39.4713 158.133 34.9859 140.888 58.5414 129.132C82.0969 117.376 124.776 115.567 153.867 125.086Z" fill="#FAFFFE"/>
<path style="mix-blend-mode:multiply" d="M111.213 173.838C148.647 173.838 178.993 161.54 178.993 146.368C178.993 131.197 148.647 118.898 111.213 118.898C73.7797 118.898 43.4336 131.197 43.4336 146.368C43.4336 161.54 73.7797 173.838 111.213 173.838Z" fill="url(#paint4_radial_208_118256)"/>
<path d="M178.989 119.265H165.565C161.816 117.277 157.9 115.631 153.863 114.348C124.771 104.829 82.0927 106.643 58.5372 118.398C57.9648 118.68 57.425 118.975 56.9017 119.265H43.5722V134.009C42.3456 142.519 50.9321 151.138 68.5588 156.914C97.6505 166.433 140.329 164.624 163.885 152.868C174.058 147.789 178.989 141.689 178.981 135.631L178.989 119.265Z" fill="#E6EDEB"/>
<path d="M153.867 97.9827C182.955 107.502 187.44 124.747 163.885 136.503C140.329 148.258 97.6466 150.068 68.559 140.549C39.4713 131.03 34.9859 113.784 58.5414 102.028C82.0969 90.2728 124.776 88.4636 153.867 97.9827Z" fill="#FAFFFE"/>
<path style="mix-blend-mode:multiply" opacity="0.25" d="M111.213 133.51C130.622 133.51 146.357 127.132 146.357 119.265C146.357 111.397 130.622 105.02 111.213 105.02C91.8044 105.02 76.0703 111.397 76.0703 119.265C76.0703 127.132 91.8044 133.51 111.213 133.51Z" fill="url(#paint5_radial_208_118256)"/>
<path d="M109.107 23.5319C109.107 28.5833 107.952 32.3967 105.64 34.9722C103.329 37.5477 100.216 38.8354 96.3013 38.8354C92.3542 38.8354 89.2195 37.5477 86.897 34.9722C84.5746 32.3967 83.4189 28.5833 83.4298 23.5319V15.6727C83.4298 10.6214 84.5773 6.80793 86.8725 4.23245C89.1677 1.65697 92.2874 0.369263 96.2317 0.369263C100.16 0.369263 103.285 1.66252 105.607 4.24907C107.93 6.83561 109.09 10.6435 109.087 15.6727L109.107 23.5319ZM100.578 15.0835C100.578 12.2231 100.207 10.1691 99.466 8.92144C99.153 8.33826 98.6871 7.85435 98.1199 7.52331C97.5527 7.19227 96.9063 7.02702 96.2522 7.04585C95.599 7.02263 94.9525 7.18616 94.3864 7.51779C93.8204 7.84941 93.3575 8.33578 93.0506 8.92144C92.3365 10.1718 91.978 12.2258 91.9753 15.0835V24.0714C91.9753 26.9788 92.3378 29.0536 93.0629 30.2957C93.3783 30.8814 93.8486 31.3661 94.4207 31.6952C94.9928 32.0244 95.6441 32.185 96.3013 32.1588C96.9512 32.1814 97.5944 32.0188 98.1581 31.6895C98.7217 31.3603 99.1832 30.8774 99.4905 30.2957C100.218 29.0536 100.581 26.9788 100.578 24.0714V15.0835Z" fill="#029894"/>
<path d="M139.326 38.2956H113.567V32.6481L125.424 20.0128C126.7 18.5882 127.811 17.0206 128.736 15.3404C129.365 14.2538 129.73 13.0303 129.799 11.7718C129.864 10.5294 129.482 9.30552 128.724 8.32767C128.01 7.47287 126.934 7.04548 125.498 7.04548C124.895 7.03063 124.299 7.176 123.769 7.46717C123.239 7.75834 122.793 8.18519 122.476 8.70529C121.698 9.96868 121.315 11.4411 121.376 12.9295H113.023L112.974 12.776C112.898 11.1553 113.156 9.53631 113.731 8.02238C114.306 6.50845 115.186 5.13277 116.314 3.98312C118.626 1.57639 121.687 0.373047 125.498 0.373047C129.546 0.373047 132.705 1.38274 134.976 3.40218C137.246 5.42161 138.38 8.18797 138.377 11.7012C138.416 13.9276 137.785 16.1131 136.57 17.9671C135.365 19.779 133.142 22.4748 129.901 26.0545L124.917 31.4738L124.991 31.6273H139.326V38.2956Z" fill="#029894"/>
<path d="M89.3312 101.704H131.025C132.616 101.704 133.906 100.413 133.906 98.8224V74.2882C133.906 72.6987 132.616 71.4082 131.025 71.4082H89.3312C87.7402 71.4082 86.4512 72.6986 86.4512 74.2882V98.8223C86.4513 100.413 87.7402 101.704 89.3312 101.704ZM90.8555 75.2788H129.5V97.1552H90.8555V75.2788Z" fill="#029894"/>
<path d="M137.251 109.698L132.112 105.136C131.781 104.844 131.306 104.678 130.804 104.678H89.5506C89.0496 104.678 88.5736 104.844 88.2439 105.136L83.104 109.698C82.8287 109.941 82.6777 110.255 82.6777 110.579V112.169C82.6777 112.54 83.0653 112.838 83.544 112.838H136.812C137.292 112.838 137.678 112.54 137.678 112.169V110.579C137.678 110.255 137.526 109.941 137.251 109.698ZM104.284 110.236L105.772 108.225H115.196L116.682 110.236H104.284Z" fill="#029894"/>
<path d="M102.997 86.2117L102.52 86.1437C101.298 85.9731 100.86 85.5475 100.86 84.924C100.86 84.2209 101.364 83.7165 102.281 83.7165C103.037 83.7165 103.714 83.9415 104.444 84.4195L104.63 84.3794L105.267 83.3969L105.24 83.212C104.523 82.6675 103.448 82.3105 102.321 82.3105C100.463 82.3105 99.268 83.3969 99.268 85.0307C99.268 86.5299 100.25 87.366 101.988 87.6047L102.467 87.6713C103.714 87.8433 104.111 88.2675 104.111 88.9182C104.111 89.6736 103.488 90.2188 102.413 90.2188C101.404 90.2188 100.542 89.7279 99.9581 89.2643L99.7725 89.2765L98.9492 90.2325L98.9756 90.4324C99.6794 91.0952 100.967 91.6249 102.293 91.6249C104.538 91.6249 105.692 90.4324 105.692 88.8265C105.692 87.2723 104.736 86.4489 102.997 86.2117Z" fill="#029894"/>
<path d="M107.377 82.4551L107.244 82.5875V91.3485L107.377 91.4811H113.03L113.163 91.3485V90.207L113.03 90.0744H108.89L108.811 89.9935V87.7111L108.89 87.6316H112.381L112.514 87.499V86.3575L112.381 86.2249H108.89L108.811 86.1439V83.9419L108.89 83.8624H113.03L113.163 83.7291V82.5875L113.03 82.4551H107.377Z" fill="#029894"/>
<path d="M117.97 82.3105C116.417 82.3105 115.249 83.0523 114.784 84.4854C114.599 85.0429 114.545 85.5474 114.545 86.9676C114.545 88.3879 114.599 88.8924 114.784 89.4499C115.249 90.8831 116.417 91.6248 117.97 91.6248C119.536 91.6248 120.703 90.883 121.168 89.4499C121.354 88.8924 121.408 88.3879 121.408 86.9676C121.408 85.5474 121.354 85.0429 121.168 84.4854C120.703 83.0523 119.536 82.3105 117.97 82.3105ZM119.655 89.0372C119.403 89.7687 118.873 90.2188 117.97 90.2188C117.08 90.2188 116.55 89.7687 116.297 89.0372C116.192 88.7054 116.138 88.241 116.138 86.9676C116.138 85.6799 116.192 85.2298 116.297 84.8967C116.55 84.1666 117.08 83.7165 117.97 83.7165C118.873 83.7165 119.403 84.1666 119.655 84.8967C119.76 85.2298 119.815 85.6799 119.815 86.9676C119.815 88.2411 119.76 88.7054 119.655 89.0372Z" fill="#029894"/>
<defs>
<radialGradient id="paint0_radial_208_118256" cx="0" cy="0" r="1" gradientUnits="userSpaceOnUse" gradientTransform="translate(111.225 206.03) scale(107.502 42.5488)">
<stop stop-color="#8EDBDC"/>
<stop offset="1" stop-color="white"/>
</radialGradient>
<radialGradient id="paint1_radial_208_118256" cx="0" cy="0" r="1" gradientUnits="userSpaceOnUse" gradientTransform="translate(114.279 173.047) rotate(-21.8125) scale(57.9042 39.9502)">
<stop stop-color="#8EDBDC"/>
<stop offset="0.44" stop-color="#90DCDD"/>
<stop offset="0.6" stop-color="#97DEDF"/>
<stop offset="0.71" stop-color="#A2E2E2"/>
<stop offset="0.8" stop-color="#B3E7E8"/>
<stop offset="0.88" stop-color="#C9EEEE"/>
<stop offset="0.95" stop-color="#E4F6F7"/>
<stop offset="1" stop-color="white"/>
</radialGradient>
<radialGradient id="paint2_radial_208_118256" cx="0" cy="0" r="1" gradientUnits="userSpaceOnUse" gradientTransform="translate(114.279 173.047) rotate(-21.8125) scale(57.9042 39.9502)">
<stop stop-color="#80E3C8"/>
<stop offset="0.43" stop-color="#82E3C9"/>
<stop offset="0.58" stop-color="#89E5CC"/>
<stop offset="0.69" stop-color="#94E8D1"/>
<stop offset="0.78" stop-color="#A5EBD8"/>
<stop offset="0.86" stop-color="#BBF0E2"/>
<stop offset="0.93" stop-color="#D7F6ED"/>
<stop offset="0.99" stop-color="#F6FDFB"/>
<stop offset="1" stop-color="white"/>
</radialGradient>
<radialGradient id="paint3_radial_208_118256" cx="0" cy="0" r="1" gradientUnits="userSpaceOnUse" gradientTransform="translate(114.279 173.047) rotate(-21.8125) scale(57.9042 39.9502)">
<stop stop-color="#80E3C8"/>
<stop offset="0.43" stop-color="#82E3C9"/>
<stop offset="0.58" stop-color="#89E5CC"/>
<stop offset="0.69" stop-color="#94E8D1"/>
<stop offset="0.78" stop-color="#A5EBD8"/>
<stop offset="0.86" stop-color="#BBF0E2"/>
<stop offset="0.93" stop-color="#D7F6ED"/>
<stop offset="0.99" stop-color="#F6FDFB"/>
<stop offset="1" stop-color="white"/>
</radialGradient>
<radialGradient id="paint4_radial_208_118256" cx="0" cy="0" r="1" gradientUnits="userSpaceOnUse" gradientTransform="translate(111.213 149.822) scale(67.5713 25.3728)">
<stop stop-color="#8EDBDC"/>
<stop offset="1" stop-color="white"/>
</radialGradient>
<radialGradient id="paint5_radial_208_118256" cx="0" cy="0" r="1" gradientUnits="userSpaceOnUse" gradientTransform="translate(111.213 122.682) scale(35.0368 13.1562)">
<stop stop-color="#8EDBDC"/>
<stop offset="1" stop-color="white"/>
</radialGradient>
</defs>
</svg>
