<svg width="222" height="263" viewBox="0 0 222 263" fill="none" xmlns="http://www.w3.org/2000/svg">
<path style="mix-blend-mode:multiply" d="M180.386 183.528C227.767 199.035 235.074 227.128 196.705 246.274C158.335 265.419 88.8179 268.374 41.4329 252.867C-5.95203 237.36 -13.2546 209.272 25.1146 190.126C63.4838 170.98 133.001 168.026 180.386 183.528Z" fill="url(#paint0_radial_208_118254)"/>
<g style="mix-blend-mode:multiply" opacity="0.2">
<path d="M108.297 219.946C85.51 219.946 64.0111 216.855 46.1268 211.004C20.9971 202.779 6.57189 190.078 5.50881 175.243C4.98544 167.936 7.60631 153.935 31.0187 142.246C50.1951 132.677 78.4037 127.191 108.407 127.191C131.198 127.191 152.697 130.287 170.581 136.138C195.711 144.358 210.136 157.06 211.199 171.898C211.723 179.206 209.102 193.206 185.685 204.891C166.513 214.46 138.304 219.946 108.297 219.946Z" fill="#001C63"/>
</g>
<g style="mix-blend-mode:multiply">
<path d="M168.173 143.719C208.967 157.068 215.26 181.255 182.222 197.741C149.185 214.227 89.3332 216.767 48.519 203.418C7.70469 190.069 1.43244 165.881 34.4698 149.399C67.5073 132.917 127.375 130.37 168.173 143.719Z" fill="#001C63"/>
</g>
<g style="mix-blend-mode:multiply">
<path d="M155.996 149.792C188.486 160.427 193.498 179.69 167.187 192.819C140.876 205.948 93.1924 207.973 60.711 197.362C28.2297 186.752 23.2086 167.486 49.52 154.336C75.8313 141.186 123.503 139.161 155.996 149.792Z" fill="url(#paint1_radial_208_118254)"/>
<path d="M155.996 149.792C188.486 160.427 193.498 179.69 167.187 192.819C140.876 205.948 93.1924 207.973 60.711 197.362C28.2297 186.752 23.2086 167.486 49.52 154.336C75.8313 141.186 123.503 139.161 155.996 149.792Z" fill="url(#paint2_radial_208_118254)"/>
<path d="M155.996 149.792C188.486 160.427 193.498 179.69 167.187 192.819C140.876 205.948 93.1924 207.973 60.711 197.362C28.2297 186.752 23.2086 167.486 49.52 154.336C75.8313 141.186 123.503 139.161 155.996 149.792Z" fill="url(#paint3_radial_208_118254)"/>
</g>
<g style="mix-blend-mode:multiply" opacity="0.2">
<path d="M108.297 235.735C85.51 235.735 64.0111 232.64 46.1268 226.789C20.9971 218.564 6.57189 205.867 5.50881 191.028C4.98544 183.721 7.60631 169.72 31.0187 158.031C50.1951 148.487 78.4037 142.977 108.407 142.977C131.198 142.977 152.697 146.072 170.581 151.923C195.711 160.147 210.136 172.845 211.199 187.684C211.723 194.991 209.102 208.991 185.685 220.677C166.513 230.245 138.304 235.735 108.297 235.735Z" fill="#001C63"/>
</g>
<path d="M176.13 146.177H162.702C158.951 144.193 155.035 142.548 151 141.26C121.908 131.741 79.2297 133.555 55.6742 145.31C55.1018 145.597 54.558 145.887 54.0182 146.177H40.7011V160.921C39.4745 169.431 48.0609 178.054 65.6917 183.83C94.7835 193.349 137.462 191.536 161.018 179.78C171.191 174.706 176.122 168.606 176.114 162.543L176.13 146.177Z" fill="#E5E7EA"/>
<path d="M151.008 124.895C180.096 134.414 184.581 151.66 161.026 163.415C137.47 175.171 94.7872 176.984 65.6996 167.465C36.6119 157.946 32.1265 140.701 55.682 128.945C79.2376 117.189 121.916 115.376 151.008 124.895Z" fill="#FDFEFF"/>
<path style="mix-blend-mode:multiply" d="M108.279 173.678C145.754 173.678 176.133 161.366 176.133 146.179C176.133 130.991 145.754 118.68 108.279 118.68C70.8048 118.68 40.4258 130.991 40.4258 146.179C40.4258 161.366 70.8048 173.678 108.279 173.678Z" fill="url(#paint4_radial_208_118254)"/>
<path d="M176.13 119.074H162.702C158.951 117.09 155.035 115.444 151 114.157C121.908 104.638 79.2297 106.451 55.6742 118.207C55.1018 118.493 54.558 118.784 54.0182 119.074H40.7011V133.817C39.4745 142.328 48.0609 150.951 65.6917 156.727C94.7835 166.246 137.462 164.433 161.018 152.677C171.191 147.602 176.122 141.502 176.114 135.44L176.13 119.074Z" fill="#E5E7EA"/>
<path d="M151.008 97.7735C180.096 107.293 184.581 124.538 161.026 136.294C137.47 148.049 94.7872 149.858 65.6996 140.339C36.6119 130.82 32.1265 113.575 55.682 101.823C79.2376 90.072 121.916 88.2711 151.008 97.7735Z" fill="#FDFEFF"/>
<path style="mix-blend-mode:multiply" opacity="0.25" d="M108.28 133.319C127.689 133.319 143.423 126.941 143.423 119.073C143.423 111.206 127.689 104.828 108.28 104.828C88.8708 104.828 73.1367 111.206 73.1367 119.073C73.1367 126.941 88.8708 133.319 108.28 133.319Z" fill="url(#paint5_radial_208_118254)"/>
<path d="M106.178 23.7644C106.178 28.813 105.022 32.6264 102.71 35.2046C100.399 37.7829 97.2859 39.0707 93.3716 39.0679C89.4273 39.0679 86.2926 37.7801 83.9674 35.2046C81.6422 32.6292 80.4865 28.8158 80.5001 23.7644V15.9052C80.5001 10.8538 81.6464 7.0404 83.9389 4.46492C86.2313 1.88945 89.3524 0.601685 93.3021 0.601685C97.2301 0.601685 100.355 1.89361 102.678 4.47739C105 7.06116 106.16 10.8704 106.157 15.9052L106.178 23.7644ZM97.6485 15.316C97.6485 12.4583 97.2778 10.4043 96.5363 9.15392C96.223 8.57105 95.7572 8.08738 95.19 7.75639C94.6229 7.4254 93.9766 7.25996 93.3226 7.27832C92.6693 7.25461 92.0226 7.41793 91.4565 7.7496C90.8903 8.08127 90.4275 8.56793 90.121 9.15392C89.4069 10.4043 89.0485 12.4583 89.0457 15.316V24.3038C89.0457 27.2113 89.4082 29.286 90.1333 30.5281C90.4487 31.1138 90.9189 31.5985 91.491 31.9277C92.0632 32.2568 92.7145 32.4174 93.3716 32.3913C94.0216 32.4138 94.6648 32.2512 95.2284 31.9219C95.7921 31.5927 96.2536 31.1098 96.5609 30.5281C97.2887 29.286 97.6512 27.2113 97.6485 24.3038V15.316Z" fill="#001C63"/>
<path d="M133.147 23.9672H136.868V30.6438H133.147V38.5279H124.597V30.6438H110.323L109.82 25.3448L124.597 1.21949V1.14062H133.147V23.9672ZM117.458 23.9672H124.597V12.4149L124.442 12.361L123.784 13.4191L117.458 23.9672Z" fill="#001C63"/>
<path d="M116.145 106.706H115.367C115.08 106.706 114.798 106.628 114.551 106.479L113.101 105.604C110.736 104.175 109.063 101.894 108.38 99.2871H101.976C101.746 100.162 101.406 101.001 100.965 101.782C100.092 103.329 98.826 104.655 97.2543 105.604L95.8042 106.479C95.5578 106.628 95.2757 106.706 94.9884 106.706H94.2104C93.3394 106.706 92.6328 107.413 92.6328 108.284H117.723C117.723 107.848 117.546 107.454 117.261 107.168C116.975 106.883 116.581 106.706 116.145 106.706Z" fill="#001C63"/>
<path d="M82.5625 95.7131C82.5625 96.7901 83.4355 97.6631 84.5125 97.6631H125.841C126.918 97.6631 127.791 96.7901 127.791 95.7131V93.1875H82.5625V95.7131Z" fill="#001C63"/>
<path d="M115.886 83.411H115.019V76.003C115.019 75.4834 114.596 75.0605 114.076 75.0605C113.556 75.0605 113.134 75.4834 113.134 76.003V83.411H112.266C112.255 83.411 112.242 83.411 112.23 83.4323C112.217 83.4535 112.224 83.4649 112.23 83.4748L114.039 86.6093C114.045 86.6192 114.052 86.6305 114.076 86.6305C114.101 86.6305 114.107 86.6192 114.113 86.6093L115.923 83.4748C115.928 83.4649 115.935 83.4535 115.923 83.4323C115.91 83.411 115.897 83.411 115.886 83.411Z" fill="#001C63"/>
<path d="M121.537 75.0818C121.531 75.0719 121.524 75.0605 121.5 75.0605C121.475 75.0605 121.469 75.0719 121.463 75.0818L119.653 78.2163C119.648 78.2262 119.641 78.2376 119.653 78.2588C119.666 78.2801 119.679 78.2801 119.69 78.2801H120.557V85.688C120.557 86.2077 120.98 86.6305 121.5 86.6305C122.02 86.6305 122.442 86.2077 122.442 85.688V78.2801H123.31C123.321 78.2801 123.334 78.2801 123.346 78.2588C123.359 78.2376 123.352 78.2262 123.346 78.2163L121.537 75.0818Z" fill="#001C63"/>
<path d="M125.841 65.9609H84.5125C83.4355 65.9609 82.5625 66.834 82.5625 67.9109V91.5615H127.791V67.9109C127.791 66.834 126.918 65.9609 125.841 65.9609ZM121.709 69.2674H123.529C123.976 69.2674 124.342 69.633 124.342 70.0799C124.342 70.5267 123.976 70.8924 123.529 70.8924H121.709C121.263 70.8924 120.897 70.5267 120.897 70.0799C120.897 69.633 121.263 69.2674 121.709 69.2674ZM116.282 69.2674H118.102C118.549 69.2674 118.914 69.633 118.914 70.0799C118.914 70.5267 118.549 70.8924 118.102 70.8924H116.282C115.835 70.8924 115.469 70.5267 115.469 70.0799C115.469 69.633 115.835 69.2674 116.282 69.2674ZM86.1859 75.1577H92.6869C93.1356 75.1577 93.4994 75.5215 93.4994 75.9702C93.4994 76.4189 93.1356 76.7827 92.6869 76.7827H86.1859C85.7372 76.7827 85.3734 76.4189 85.3734 75.9702C85.3734 75.5215 85.7372 75.1577 86.1859 75.1577ZM86.1859 78.4077H88.3969C88.8456 78.4077 89.2094 78.7714 89.2094 79.2202C89.2094 79.6689 88.8456 80.0327 88.3969 80.0327H86.1859C85.7372 80.0327 85.3734 79.6689 85.3734 79.2202C85.3734 78.7714 85.7372 78.4077 86.1859 78.4077ZM86.1859 81.6577H88.3969C88.8456 81.6577 89.2094 82.0214 89.2094 82.4702C89.2094 82.9189 88.8456 83.2827 88.3969 83.2827H86.1859C85.7372 83.2827 85.3734 82.9189 85.3734 82.4702C85.3734 82.0214 85.7372 81.6577 86.1859 81.6577ZM92.6869 86.5327H86.1859C85.7372 86.5327 85.3734 86.1689 85.3734 85.7202C85.3734 85.2715 85.7372 84.9077 86.1859 84.9077H92.6869C93.1356 84.9077 93.4994 85.2715 93.4994 85.7202C93.4994 86.1689 93.1356 86.5327 92.6869 86.5327ZM94.0085 83.2827H91.7976C91.3489 83.2827 90.9851 82.9189 90.9851 82.4702C90.9851 82.0214 91.3489 81.6577 91.7976 81.6577H94.0085C94.4573 81.6577 94.821 82.0214 94.821 82.4702C94.821 82.9189 94.4573 83.2827 94.0085 83.2827ZM106.944 86.5327H96.3693C95.9205 86.5327 95.5568 86.1689 95.5568 85.7202C95.5568 85.2715 95.9205 84.9077 96.3693 84.9077H106.944C107.392 84.9077 107.756 85.2715 107.756 85.7202C107.756 86.1689 107.392 86.5327 106.944 86.5327ZM106.944 83.2827H97.7352C97.2865 83.2827 96.9227 82.9189 96.9227 82.4702C96.9227 82.0215 97.2865 81.6577 97.7352 81.6577H106.944C107.392 81.6577 107.756 82.0215 107.756 82.4702C107.756 82.9189 107.392 83.2827 106.944 83.2827ZM106.944 80.0327H91.7976C91.3489 80.0327 90.9851 79.6689 90.9851 79.2202C90.9851 78.7714 91.3489 78.4077 91.7976 78.4077H106.944C107.392 78.4077 107.756 78.7714 107.756 79.2202C107.756 79.6689 107.392 80.0327 106.944 80.0327ZM106.944 76.7827H96.3693C95.9205 76.7827 95.5568 76.4189 95.5568 75.9702C95.5568 75.5215 95.9205 75.1577 96.3693 75.1577H106.944C107.392 75.1577 107.756 75.5215 107.756 75.9702C107.756 76.4189 107.392 76.7827 106.944 76.7827ZM110.042 70.0799C110.042 69.633 110.408 69.2674 110.854 69.2674H112.674C113.121 69.2674 113.487 69.633 113.487 70.0799C113.487 70.5267 113.121 70.8924 112.674 70.8924H110.854C110.408 70.8924 110.042 70.5267 110.042 70.0799ZM117.329 84.2869L115.519 87.4214C115.218 87.9435 114.678 88.2552 114.075 88.2552C113.472 88.2552 112.932 87.9435 112.631 87.4214L110.821 84.2869C110.52 83.7648 110.52 83.1414 110.821 82.6194C110.987 82.3316 111.226 82.1078 111.508 81.9648V76.0027C111.508 74.587 112.659 73.4352 114.075 73.4352C115.491 73.4352 116.643 74.587 116.643 76.0027V81.9648C116.924 82.1078 117.163 82.3317 117.329 82.6194C117.63 83.1414 117.63 83.7648 117.329 84.2869ZM124.754 79.0709C124.588 79.3587 124.349 79.5825 124.068 79.7255V85.6876C124.068 87.1033 122.916 88.2551 121.5 88.2551C120.084 88.2551 118.933 87.1033 118.933 85.6876V79.7255C118.651 79.5825 118.413 79.3586 118.246 79.0709C117.945 78.5489 117.945 77.9255 118.246 77.4034L120.056 74.2689C120.358 73.7468 120.897 73.4352 121.5 73.4352C122.103 73.4352 122.643 73.7468 122.944 74.2689L124.754 77.4034C125.055 77.9255 125.055 78.5489 124.754 79.0709Z" fill="#001C63"/>
<defs>
<radialGradient id="paint0_radial_208_118254" cx="0" cy="0" r="1" gradientUnits="userSpaceOnUse" gradientTransform="translate(110.91 205.136) scale(107.502 42.5488)">
<stop stop-color="#5A9BFB"/>
<stop offset="1" stop-color="white"/>
</radialGradient>
<radialGradient id="paint1_radial_208_118254" cx="0" cy="0" r="1" gradientUnits="userSpaceOnUse" gradientTransform="translate(113.382 172.856) rotate(-21.8125) scale(57.9042 39.9502)">
<stop stop-color="#7FD4F9"/>
<stop offset="0.43" stop-color="#81D5F9"/>
<stop offset="0.58" stop-color="#88D7F9"/>
<stop offset="0.69" stop-color="#93DBFA"/>
<stop offset="0.78" stop-color="#A4E1FB"/>
<stop offset="0.86" stop-color="#BAE8FC"/>
<stop offset="0.92" stop-color="#D6F1FD"/>
<stop offset="0.98" stop-color="#F5FCFF"/>
<stop offset="1" stop-color="white"/>
</radialGradient>
<radialGradient id="paint2_radial_208_118254" cx="0" cy="0" r="1" gradientUnits="userSpaceOnUse" gradientTransform="translate(113.382 172.856) rotate(-21.8125) scale(57.9042 39.9502)">
<stop stop-color="#80E3C8"/>
<stop offset="0.43" stop-color="#82E3C9"/>
<stop offset="0.58" stop-color="#89E5CC"/>
<stop offset="0.69" stop-color="#94E8D1"/>
<stop offset="0.78" stop-color="#A5EBD8"/>
<stop offset="0.86" stop-color="#BBF0E2"/>
<stop offset="0.93" stop-color="#D7F6ED"/>
<stop offset="0.99" stop-color="#F6FDFB"/>
<stop offset="1" stop-color="white"/>
</radialGradient>
<radialGradient id="paint3_radial_208_118254" cx="0" cy="0" r="1" gradientUnits="userSpaceOnUse" gradientTransform="translate(113.382 172.856) rotate(-21.8125) scale(57.9042 39.9502)">
<stop stop-color="#5A9BFB"/>
<stop offset="0.41" stop-color="#5C9CFB"/>
<stop offset="0.55" stop-color="#63A0FB"/>
<stop offset="0.66" stop-color="#6EA7FB"/>
<stop offset="0.74" stop-color="#7FB2FC"/>
<stop offset="0.81" stop-color="#95BFFC"/>
<stop offset="0.88" stop-color="#B1CFFD"/>
<stop offset="0.94" stop-color="#D1E3FE"/>
<stop offset="0.99" stop-color="#F5F9FF"/>
<stop offset="1" stop-color="white"/>
</radialGradient>
<radialGradient id="paint4_radial_208_118254" cx="0" cy="0" r="1" gradientUnits="userSpaceOnUse" gradientTransform="translate(108.279 149.633) scale(67.6449 25.4005)">
<stop stop-color="#5A9BFB"/>
<stop offset="1" stop-color="white"/>
</radialGradient>
<radialGradient id="paint5_radial_208_118254" cx="0" cy="0" r="1" gradientUnits="userSpaceOnUse" gradientTransform="translate(108.28 122.491) scale(35.0369 13.1562)">
<stop stop-color="#5A9BFB"/>
<stop offset="1" stop-color="white"/>
</radialGradient>
</defs>
</svg>
