<svg width="222" height="269" viewBox="0 0 222 269" fill="none" xmlns="http://www.w3.org/2000/svg">
<path style="mix-blend-mode:multiply" d="M180.633 189.551C228.018 205.054 235.325 233.146 196.952 252.292C158.578 271.438 89.065 274.393 41.6841 258.89C-5.69675 243.387 -13.0075 215.291 25.3617 196.145C63.7309 176.999 133.253 174.044 180.633 189.551Z" fill="url(#paint0_radial_208_118255)"/>
<g style="mix-blend-mode:multiply" opacity="0.2">
<path d="M111.103 225.968C88.312 225.968 66.8173 222.872 48.9329 217.021C23.7991 208.797 9.37389 196.099 8.3108 181.261C7.79153 173.953 10.4084 159.953 33.8248 148.268C52.9972 138.699 81.2057 133.209 111.213 133.209C134 133.209 155.499 136.305 173.363 142.155C198.493 150.38 212.918 163.081 213.981 177.92C214.504 185.223 211.887 199.228 188.471 210.913C169.315 220.478 141.111 225.968 111.103 225.968Z" fill="#029894"/>
</g>
<g style="mix-blend-mode:multiply">
<path d="M170.977 149.741C211.775 163.09 218.063 187.274 185.026 203.76C151.988 220.246 92.1367 222.789 51.3224 209.44C10.5081 196.091 4.23595 171.904 37.2693 155.418C70.3026 138.932 130.162 136.392 170.977 149.741Z" fill="#029894"/>
</g>
<g style="mix-blend-mode:multiply">
<path d="M158.783 155.817C191.277 166.448 196.286 185.693 169.974 198.843C143.663 211.993 95.9919 213.997 63.5024 203.362C31.0129 192.727 25.996 173.485 52.3114 160.34C78.6268 147.194 126.31 145.186 158.783 155.817Z" fill="url(#paint1_radial_208_118255)"/>
<path d="M158.783 155.817C191.277 166.448 196.286 185.693 169.974 198.843C143.663 211.993 95.9919 213.997 63.5024 203.362C31.0129 192.727 25.996 173.485 52.3114 160.34C78.6268 147.194 126.31 145.186 158.783 155.817Z" fill="url(#paint2_radial_208_118255)"/>
<path d="M158.783 155.817C191.277 166.448 196.286 185.693 169.974 198.843C143.663 211.993 95.9919 213.997 63.5024 203.362C31.0129 192.727 25.996 173.485 52.3114 160.34C78.6268 147.194 126.31 145.186 158.783 155.817Z" fill="url(#paint3_radial_208_118255)"/>
</g>
<g style="mix-blend-mode:multiply" opacity="0.2">
<path d="M111.103 241.753C88.312 241.753 66.8173 238.661 48.9329 232.806C23.7991 224.586 9.37389 211.884 8.3108 197.046C7.79153 189.742 10.4084 175.738 33.8248 164.053C52.9972 154.484 81.2057 148.998 111.213 148.998C134 148.998 155.499 152.089 173.363 157.944C198.493 166.165 212.918 178.866 213.981 193.705C214.504 201.012 211.887 215.013 188.471 226.698C169.315 236.267 141.111 241.753 111.103 241.753Z" fill="#029894"/>
</g>
<path d="M178.937 152.201H165.518C161.767 150.214 157.85 148.568 153.812 147.284C124.724 137.765 82.0454 139.578 58.4858 151.33C57.9134 151.616 57.3737 151.907 56.8503 152.201H43.5332V166.94C42.3065 175.455 50.893 184.074 68.5238 189.85C97.6115 199.369 140.29 197.556 163.846 185.804C174.019 180.725 178.95 174.625 178.942 168.567L178.937 152.201Z" fill="#E6EBED"/>
<path d="M153.812 130.918C182.903 140.437 187.389 157.683 163.829 169.434C140.27 181.186 97.5909 183.003 68.5074 173.484C39.4238 163.965 34.9303 146.72 58.4858 134.964C82.0413 123.208 124.724 121.399 153.812 130.918Z" fill="#FAFDFF"/>
<path style="mix-blend-mode:multiply" d="M111.084 179.701C148.558 179.701 178.937 167.389 178.937 152.202C178.937 137.015 148.558 124.703 111.084 124.703C73.6095 124.703 43.2305 137.015 43.2305 152.202C43.2305 167.389 73.6095 179.701 111.084 179.701Z" fill="url(#paint4_radial_208_118255)"/>
<path d="M178.937 125.097H165.518C161.767 123.109 157.85 121.464 153.812 120.18C124.724 110.661 82.0454 112.47 58.4858 124.226C57.9134 124.512 57.3737 124.803 56.8503 125.097H43.5332V139.832C42.3065 148.347 50.893 156.966 68.5238 162.742C97.6115 172.261 140.29 170.447 163.846 158.692C174.019 153.617 178.95 147.517 178.942 141.459L178.937 125.097Z" fill="#E6EBED"/>
<path d="M153.812 103.809C182.903 113.328 187.389 130.574 163.829 142.33C140.27 154.085 97.5909 155.898 68.5074 146.379C39.4238 136.86 34.9303 119.615 58.4858 107.859C82.0413 96.1037 124.724 94.2945 153.812 103.809Z" fill="#FAFDFF"/>
<path style="mix-blend-mode:multiply" opacity="0.25" d="M111.085 139.342C130.494 139.342 146.228 132.964 146.228 125.097C146.228 117.229 130.494 110.852 111.085 110.852C91.6755 110.852 75.9414 117.229 75.9414 125.097C75.9414 132.964 91.6755 139.342 111.085 139.342Z" fill="url(#paint5_radial_208_118255)"/>
<path d="M108.982 23.7057C108.982 28.7543 107.826 32.5677 105.515 35.1459C103.203 37.7242 100.092 39.0119 96.1801 39.0092C92.2304 39.0092 89.0956 37.7214 86.7759 35.1459C84.4562 32.5705 83.3005 28.7571 83.3086 23.7057V15.8464C83.3086 10.7951 84.4562 6.98307 86.7514 4.41036C89.0465 1.83765 92.1663 0.548501 96.1106 0.542969C100.044 0.542969 103.169 1.83628 105.486 4.42282C107.803 7.00937 108.963 10.8172 108.966 15.8464L108.982 23.7057ZM100.457 15.2572C100.457 12.3996 100.085 10.3456 99.3408 9.0952C99.0282 8.51171 98.5624 8.02749 97.9951 7.69641C97.4278 7.36532 96.7811 7.2003 96.127 7.2196C95.4742 7.19571 94.828 7.35895 94.2625 7.69068C93.6969 8.02242 93.2349 8.50923 92.9295 9.0952C92.2099 10.3456 91.8515 12.3996 91.8542 15.2572V24.2451C91.8542 27.1525 92.2167 29.2273 92.9418 30.4694C93.2719 31.0363 93.742 31.5061 94.3055 31.8324C94.8691 32.1588 95.5067 32.3304 96.1556 32.3304C96.8044 32.3304 97.4421 32.1588 98.0057 31.8324C98.5692 31.5061 99.0392 31.0363 99.3694 30.4694C100.092 29.2245 100.454 27.1498 100.457 24.2451V15.2572Z" fill="#029894"/>
<path d="M121.204 16.1782H125.228C126.762 16.1782 127.943 15.7632 128.769 14.9333C129.595 14.1034 130.003 12.9401 129.995 11.4435C130.026 10.3404 129.627 9.26953 128.883 8.46419C128.139 7.65918 127.064 7.25666 125.645 7.25666C124.586 7.23982 123.553 7.58311 122.709 8.23179C122.313 8.51577 121.99 8.8936 121.77 9.33249C121.55 9.77139 121.439 10.2581 121.446 10.7506H113.145L113.096 10.5971C112.995 7.61769 114.15 5.20402 116.559 3.35609C118.969 1.50817 121.897 0.582844 125.342 0.580078C129.336 0.580078 132.532 1.50956 134.93 3.36855C137.329 5.22754 138.527 7.85558 138.524 11.2527C138.525 12.9452 137.977 14.5911 136.967 15.9375C135.888 17.4002 134.454 18.554 132.804 19.2862C134.637 19.9218 136.248 21.0871 137.437 22.639C138.571 24.1978 139.158 26.0967 139.105 28.0334C139.105 31.4609 137.814 34.154 135.233 36.1125C132.652 38.0711 129.355 39.0504 125.342 39.0504C122.108 39.1183 118.934 38.153 116.269 36.2909C113.682 34.4485 112.43 31.7818 112.512 28.2906L112.565 28.1371H120.914C120.906 28.7126 121.026 29.2826 121.264 29.8048C121.503 30.3269 121.854 30.788 122.292 31.1538C123.22 31.9723 124.416 32.4077 125.645 32.3738C126.962 32.4408 128.253 31.9803 129.239 31.0916C129.676 30.6795 130.021 30.1778 130.253 29.6198C130.484 29.0617 130.596 28.4601 130.58 27.8549C130.58 26.043 130.111 24.7206 129.173 23.888C128.236 23.0553 126.916 22.6403 125.215 22.6431H121.192L121.204 16.1782Z" fill="#029894"/>
<path fill-rule="evenodd" clip-rule="evenodd" d="M103.857 68.6715L119.362 62.2038L132.731 75.9762L126.492 91.4315C115.911 94.3632 106.055 98.6422 96.7493 103.946L94.8604 101.601L113.315 83.3032C113.686 83.4733 114.089 83.5583 114.496 83.5583H114.501C116.094 83.5583 117.383 82.2693 117.383 80.6759C117.383 79.0869 116.094 77.7934 114.501 77.7934C112.912 77.7934 111.618 79.0824 111.618 80.6759C111.618 81.1906 111.753 81.674 111.99 82.0903L93.728 100.236L91.1947 97.9216C96.7672 88.7996 101.028 79.0735 103.857 68.6715ZM123.779 58.623L136.728 71.8896L135.546 73.04L134.365 74.1903L121.416 60.9192L122.598 59.7689L123.779 58.623ZM93.1775 106.676C99.2468 112.262 102.819 109.827 107.872 106.372C112.052 103.516 117.106 100.066 124.768 98.9242C125.315 97.089 127.015 95.7507 129.025 95.7507C131.478 95.7507 133.465 97.738 133.465 100.191C133.465 102.644 131.478 104.631 129.025 104.631C127.302 104.631 125.807 103.651 125.073 102.214C118.216 103.302 113.574 106.471 109.729 109.093C103.253 113.516 98.7276 116.604 90.7963 108.986C90.2637 109.201 89.6952 109.313 89.1223 109.313H89.1178C86.665 109.313 84.6777 107.325 84.6777 104.873C84.6777 102.42 86.665 100.433 89.1178 100.433C91.5706 100.433 93.5579 102.42 93.5579 104.873V104.877C93.5579 105.499 93.4281 106.108 93.1775 106.676Z" fill="#029894"/>
<defs>
<radialGradient id="paint0_radial_208_118255" cx="0" cy="0" r="1" gradientUnits="userSpaceOnUse" gradientTransform="translate(111.157 211.928) scale(107.502 42.5488)">
<stop stop-color="#7FD4F9"/>
<stop offset="1" stop-color="white"/>
</radialGradient>
<radialGradient id="paint1_radial_208_118255" cx="0" cy="0" r="1" gradientUnits="userSpaceOnUse" gradientTransform="translate(115.212 179.683) rotate(-21.8125) scale(57.9042 39.9502)">
<stop stop-color="#7FD4F9"/>
<stop offset="0.43" stop-color="#81D5F9"/>
<stop offset="0.58" stop-color="#88D7F9"/>
<stop offset="0.69" stop-color="#93DBFA"/>
<stop offset="0.78" stop-color="#A4E1FB"/>
<stop offset="0.86" stop-color="#BAE8FC"/>
<stop offset="0.92" stop-color="#D6F1FD"/>
<stop offset="0.98" stop-color="#F5FCFF"/>
<stop offset="1" stop-color="white"/>
</radialGradient>
<radialGradient id="paint2_radial_208_118255" cx="0" cy="0" r="1" gradientUnits="userSpaceOnUse" gradientTransform="translate(115.212 179.683) rotate(-21.8125) scale(57.9042 39.9502)">
<stop stop-color="#80E3C8"/>
<stop offset="0.43" stop-color="#82E3C9"/>
<stop offset="0.58" stop-color="#89E5CC"/>
<stop offset="0.69" stop-color="#94E8D1"/>
<stop offset="0.78" stop-color="#A5EBD8"/>
<stop offset="0.86" stop-color="#BBF0E2"/>
<stop offset="0.93" stop-color="#D7F6ED"/>
<stop offset="0.99" stop-color="#F6FDFB"/>
<stop offset="1" stop-color="white"/>
</radialGradient>
<radialGradient id="paint3_radial_208_118255" cx="0" cy="0" r="1" gradientUnits="userSpaceOnUse" gradientTransform="translate(115.212 179.683) rotate(-21.8125) scale(57.9042 39.9502)">
<stop stop-color="#7FD4F9"/>
<stop offset="0.43" stop-color="#81D5F9"/>
<stop offset="0.58" stop-color="#88D7F9"/>
<stop offset="0.69" stop-color="#93DBFA"/>
<stop offset="0.78" stop-color="#A4E1FB"/>
<stop offset="0.86" stop-color="#BAE8FC"/>
<stop offset="0.92" stop-color="#D6F1FD"/>
<stop offset="0.98" stop-color="#F5FCFF"/>
<stop offset="1" stop-color="white"/>
</radialGradient>
<radialGradient id="paint4_radial_208_118255" cx="0" cy="0" r="1" gradientUnits="userSpaceOnUse" gradientTransform="translate(111.084 155.451) scale(67.6449 25.4004)">
<stop stop-color="#7FD4F9"/>
<stop offset="1" stop-color="white"/>
</radialGradient>
<radialGradient id="paint5_radial_208_118255" cx="0" cy="0" r="1" gradientUnits="userSpaceOnUse" gradientTransform="translate(111.085 128.309) scale(35.0368 13.1562)">
<stop stop-color="#7FD4F9"/>
<stop offset="1" stop-color="white"/>
</radialGradient>
</defs>
</svg>
