<svg width="222" height="269" viewBox="0 0 222 269" fill="none" xmlns="http://www.w3.org/2000/svg">
<path style="mix-blend-mode:multiply" d="M180.819 189.553C228.225 205.055 235.511 233.148 197.15 252.285C158.789 271.423 89.2632 274.386 41.8783 258.883C-5.5067 243.38 -12.8093 215.284 25.5599 196.138C63.9291 176.992 133.434 174.046 180.819 189.553Z" fill="url(#paint0_radial_208_118257)"/>
<g style="mix-blend-mode:multiply" opacity="0.2">
<path d="M111.286 225.969C88.4994 225.969 67.0005 222.874 49.1366 217.023C24.0069 208.799 9.58166 196.101 8.51857 181.262C7.99521 173.955 10.6161 159.954 34.0326 148.269C53.2049 138.7 81.4135 133.215 111.421 133.215C134.208 133.215 155.707 136.306 173.591 142.157C198.721 150.381 213.146 163.083 214.209 177.922C214.732 185.225 212.112 199.226 188.695 210.911C169.502 220.48 141.294 225.969 111.286 225.969Z" fill="#029894"/>
</g>
<g style="mix-blend-mode:multiply">
<path d="M171.162 149.741C211.955 163.09 218.248 187.274 185.211 203.76C152.173 220.246 92.3215 222.789 51.5072 209.44C10.6929 196.091 4.42074 171.904 37.4582 155.418C70.4956 138.932 130.364 136.392 171.162 149.741Z" fill="#029894"/>
</g>
<g style="mix-blend-mode:multiply">
<path d="M158.986 155.817C191.48 166.448 196.489 185.693 170.177 198.843C143.866 211.993 96.1948 213.997 63.7012 203.362C31.2076 192.727 26.1989 173.485 52.5102 160.34C78.8216 147.194 126.493 145.186 158.986 155.817Z" fill="url(#paint1_radial_208_118257)"/>
<path d="M158.986 155.817C191.48 166.448 196.489 185.693 170.177 198.843C143.866 211.993 96.1948 213.997 63.7012 203.362C31.2076 192.727 26.1989 173.485 52.5102 160.34C78.8216 147.194 126.493 145.186 158.986 155.817Z" fill="url(#paint2_radial_208_118257)"/>
<path d="M158.986 155.817C191.48 166.448 196.489 185.693 170.177 198.843C143.866 211.993 96.1948 213.997 63.7012 203.362C31.2076 192.727 26.1989 173.485 52.5102 160.34C78.8216 147.194 126.493 145.186 158.986 155.817Z" fill="url(#paint3_radial_208_118257)"/>
</g>
<g style="mix-blend-mode:multiply" opacity="0.2">
<path d="M111.286 241.753C88.4994 241.753 67.0005 238.661 49.1366 232.806C24.0069 224.586 9.58166 211.884 8.51857 197.046C7.99521 189.738 10.6161 175.738 34.0326 164.053C53.2049 154.484 81.4135 148.998 111.421 148.998C134.208 148.998 155.707 152.089 173.591 157.944C198.721 166.165 213.146 178.866 214.209 193.705C214.732 201.008 212.112 215.013 188.695 226.698C169.502 236.263 141.294 241.753 111.286 241.753Z" fill="#029894"/>
</g>
<path d="M179.122 152.202H165.698C161.949 150.219 158.033 148.579 153.996 147.302C124.904 137.783 82.2257 139.596 58.6702 151.347C58.0978 151.634 57.558 151.924 57.0347 152.219H43.7011V166.958C42.4745 175.473 51.0609 184.091 68.6877 189.868C97.7794 199.387 140.458 197.573 164.014 185.822C174.187 180.743 179.118 174.643 179.11 168.585L179.122 152.202Z" fill="#E6EFEC"/>
<path d="M153.996 130.918C183.084 140.437 187.569 157.683 164.014 169.434C140.458 181.186 97.7755 183.003 68.6879 173.484C39.6002 163.965 35.1148 146.72 58.6703 134.964C82.2258 123.208 124.905 121.399 153.996 130.918Z" fill="#F8FFFD"/>
<path style="mix-blend-mode:multiply" d="M111.269 179.701C148.744 179.701 179.123 167.389 179.123 152.202C179.123 137.015 148.744 124.703 111.269 124.703C73.795 124.703 43.416 137.015 43.416 152.202C43.416 167.389 73.795 179.701 111.269 179.701Z" fill="url(#paint4_radial_208_118257)"/>
<path d="M179.122 125.097H165.698C161.949 123.109 158.033 121.463 153.996 120.18C124.904 110.661 82.2257 112.47 58.6702 124.226C58.0978 124.512 57.558 124.803 57.0347 125.097H43.7011V139.832C42.4745 148.347 51.0609 156.966 68.6877 162.742C97.7794 172.261 140.458 170.447 164.014 158.692C174.187 153.617 179.118 147.517 179.11 141.459L179.122 125.097Z" fill="#E6EFEC"/>
<path d="M153.996 103.809C183.084 113.328 187.569 130.574 164.014 142.33C140.458 154.085 97.7755 155.898 68.6879 146.379C39.6002 136.86 35.1148 119.615 58.6703 107.859C82.2258 96.1037 124.905 94.2945 153.996 103.809Z" fill="#F8FFFD"/>
<path style="mix-blend-mode:multiply" opacity="0.25" d="M111.268 139.342C130.677 139.342 146.411 132.964 146.411 125.097C146.411 117.229 130.677 110.852 111.268 110.852C91.8591 110.852 76.125 117.229 76.125 125.097C76.125 132.964 91.8591 139.342 111.268 139.342Z" fill="url(#paint5_radial_208_118257)"/>
<path d="M109.166 23.7057C109.166 28.7543 108.01 32.5677 105.698 35.1459C103.387 37.7242 100.275 39.0092 96.3637 39.0009C92.414 39.0009 89.2792 37.7131 86.9595 35.1376C84.6398 32.5621 83.4841 28.7487 83.4922 23.6974V15.8464C83.4922 10.7951 84.6398 6.98168 86.935 4.40621C89.2302 1.83073 92.3499 0.542969 96.2942 0.542969C100.225 0.542969 103.35 1.83628 105.67 4.42282C107.99 7.00936 109.149 10.8172 109.149 15.8464L109.166 23.7057ZM100.653 15.2572C100.653 12.3996 100.282 10.3456 99.5407 9.0952C99.2282 8.51171 98.7623 8.02749 98.195 7.6964C97.6277 7.36532 96.9811 7.2003 96.3269 7.2196C95.6737 7.19639 95.0273 7.35992 94.4612 7.69154C93.8951 8.02316 93.4323 8.50954 93.1254 9.0952C92.4113 10.3456 92.0528 12.3996 92.0501 15.2572V24.2451C92.0501 27.1525 92.414 29.2273 93.1418 30.4694C93.4564 31.0557 93.9265 31.541 94.4988 31.8703C95.0711 32.1995 95.7228 32.3597 96.3801 32.3326C97.0295 32.3548 97.672 32.1921 98.2349 31.8628C98.7979 31.5335 99.2587 31.0508 99.5653 30.4694C100.293 29.2273 100.656 27.1525 100.653 24.2451V15.2572Z" fill="#029894"/>
<path d="M131.728 38.4687H123.207V9.7871H114.984V3.67485L131.748 1.05652L131.728 38.4687Z" fill="#029894"/>
<path d="M95.7426 110.334L99.2324 107.595L103.205 109.541L101.72 105.332L104.773 102.103L100.368 102.243L98.2806 98.3002L97.0438 102.598L92.6988 103.391L96.3449 105.911L95.7426 110.334ZM111.927 114.45L113.596 110.306L117.992 109.975L114.631 107.082L115.684 102.733L111.932 105.09L108.18 102.733L109.233 107.082L105.863 109.975L110.258 110.306L111.927 114.45ZM98.9289 83.1164C100.97 82.3418 103.577 81.3525 105.453 80.172C107.605 82.1971 109.003 84.5022 109.113 87.302H114.759C114.87 84.5022 116.268 82.1971 118.419 80.172C120.295 81.3525 122.902 82.3371 124.944 83.1164C130.958 85.3981 128.02 89.5651 124.512 93.074C121.293 96.2891 116.847 98.2769 111.932 98.2769C107.017 98.2769 102.575 96.2937 99.352 93.074C95.8943 89.6164 92.8735 85.4121 98.9289 83.1164ZM107.504 77.3256C107.596 76.5604 105.371 73.6626 104.966 72.2675C104.092 70.8676 103.784 68.6278 104.736 67.144C105.118 66.556 104.952 65.5015 104.952 64.6942C104.952 56.617 118.898 56.6077 118.898 64.6942C118.898 65.7161 118.668 66.4954 119.215 67.2979C120.13 68.6418 119.656 71.0262 118.884 72.2768C118.392 73.7373 116.056 76.5044 116.222 77.335C116.36 81.4739 107.472 81.3386 107.504 77.3256ZM140.177 98.0855L137.478 94.5486L139.395 90.517L135.243 92.0288L132.061 88.9305L132.199 93.4007L128.314 95.5191L132.549 96.7697L133.33 101.179L135.809 97.4789L140.177 98.0855ZM128.112 110.334L127.519 105.897L131.165 103.377L126.824 102.579L125.592 98.2815L123.505 102.224L119.095 102.084L122.148 105.313L120.649 109.532L124.622 107.586L128.112 110.334ZM83.6777 98.0809L88.0503 97.4789L90.5332 101.179L91.3194 96.7743L95.5541 95.5238L91.6689 93.4053L91.8068 88.9351L88.6205 92.0335L84.4594 90.517L86.3767 94.5486L83.6777 98.0809Z" fill="#029894"/>
<defs>
<radialGradient id="paint0_radial_208_118257" cx="0" cy="0" r="1" gradientUnits="userSpaceOnUse" gradientTransform="translate(111.343 211.929) scale(107.502 42.5488)">
<stop stop-color="#80E3C8"/>
<stop offset="1" stop-color="white"/>
</radialGradient>
<radialGradient id="paint1_radial_208_118257" cx="0" cy="0" r="1" gradientUnits="userSpaceOnUse" gradientTransform="translate(113.422 179.683) rotate(-21.8125) scale(57.9042 39.9502)">
<stop stop-color="#80E3C8"/>
<stop offset="0.43" stop-color="#82E3C9"/>
<stop offset="0.58" stop-color="#89E5CC"/>
<stop offset="0.69" stop-color="#94E8D1"/>
<stop offset="0.78" stop-color="#A5EBD8"/>
<stop offset="0.86" stop-color="#BBF0E2"/>
<stop offset="0.93" stop-color="#D7F6ED"/>
<stop offset="0.99" stop-color="#F6FDFB"/>
<stop offset="1" stop-color="white"/>
</radialGradient>
<radialGradient id="paint2_radial_208_118257" cx="0" cy="0" r="1" gradientUnits="userSpaceOnUse" gradientTransform="translate(113.422 179.683) rotate(-21.8125) scale(57.9042 39.9502)">
<stop stop-color="#80E3C8"/>
<stop offset="0.43" stop-color="#82E3C9"/>
<stop offset="0.58" stop-color="#89E5CC"/>
<stop offset="0.69" stop-color="#94E8D1"/>
<stop offset="0.78" stop-color="#A5EBD8"/>
<stop offset="0.86" stop-color="#BBF0E2"/>
<stop offset="0.93" stop-color="#D7F6ED"/>
<stop offset="0.99" stop-color="#F6FDFB"/>
<stop offset="1" stop-color="white"/>
</radialGradient>
<radialGradient id="paint3_radial_208_118257" cx="0" cy="0" r="1" gradientUnits="userSpaceOnUse" gradientTransform="translate(113.422 179.683) rotate(-21.8125) scale(57.9042 39.9502)">
<stop stop-color="#80E3C8"/>
<stop offset="0.43" stop-color="#82E3C9"/>
<stop offset="0.58" stop-color="#89E5CC"/>
<stop offset="0.69" stop-color="#94E8D1"/>
<stop offset="0.78" stop-color="#A5EBD8"/>
<stop offset="0.86" stop-color="#BBF0E2"/>
<stop offset="0.93" stop-color="#D7F6ED"/>
<stop offset="0.99" stop-color="#F6FDFB"/>
<stop offset="1" stop-color="white"/>
</radialGradient>
<radialGradient id="paint4_radial_208_118257" cx="0" cy="0" r="1" gradientUnits="userSpaceOnUse" gradientTransform="translate(111.269 155.451) scale(67.6449 25.4004)">
<stop stop-color="#80E3C8"/>
<stop offset="1" stop-color="white"/>
</radialGradient>
<radialGradient id="paint5_radial_208_118257" cx="0" cy="0" r="1" gradientUnits="userSpaceOnUse" gradientTransform="translate(111.268 128.309) scale(35.0368 13.1562)">
<stop stop-color="#80E3C8"/>
<stop offset="1" stop-color="white"/>
</radialGradient>
</defs>
</svg>
