<svg width="50" height="44" viewBox="0 0 50 44" fill="none" xmlns="http://www.w3.org/2000/svg">
<g clip-path="url(#clip0_0_10002)">
<path fill-rule="evenodd" clip-rule="evenodd" d="M3.80013 0.404297H46.1647C47.991 0.404297 49.4824 2.17307 49.4824 4.33911V39.6295C49.4824 41.7908 47.991 43.5643 46.1647 43.5643H3.80013C1.9738 43.5643 0.482422 41.7908 0.482422 39.6295V4.33911C0.482422 2.17307 1.9738 0.404297 3.80013 0.404297ZM17.9084 31.0221H13.5618L12.9358 33.453H9.01595L13.6934 18.7163H17.8964L22.554 33.453H18.5304L17.9084 31.0221ZM17.0989 27.8345L15.7431 22.5376L14.3793 27.8345H17.0989ZM24.0693 18.7163H30.4574C31.8491 18.7163 32.8899 19.1089 33.5837 19.8939C34.2736 20.679 34.6205 21.7999 34.6205 23.247C34.6205 24.7368 34.2417 25.9002 33.488 26.7373C32.7344 27.5791 31.578 27.9953 30.0268 27.9953H27.9213V33.4482H24.0693V18.7163ZM27.9213 25.0111H28.8664C29.6121 25.0111 30.1344 24.855 30.4375 24.5523C30.7366 24.2449 30.8881 23.8571 30.8881 23.3795C30.8881 22.916 30.7565 22.5234 30.4933 22.2018C30.2341 21.8803 29.7397 21.7195 29.0179 21.7195H27.9173V25.0111H27.9213ZM37.0968 18.7163H40.9489V33.453H37.0968V18.7163ZM47.5245 11.4189H2.59188V40.0126C2.59188 40.3152 2.69157 40.5801 2.85905 40.7834C3.02653 40.9821 3.25382 41.1003 3.50903 41.1003H46.5914C46.8466 41.1003 47.0699 40.9821 47.2414 40.7834C47.4128 40.5801 47.5085 40.3152 47.5085 40.0126V11.4189H47.5245ZM43.0065 4.82623C43.9117 4.82623 44.6454 5.69643 44.6454 6.76999C44.6454 7.84356 43.9117 8.71375 43.0065 8.71375C42.1013 8.71375 41.3676 7.84356 41.3676 6.76999C41.3716 5.69643 42.1053 4.82623 43.0065 4.82623ZM31.9049 4.82623C32.8101 4.82623 33.5439 5.69643 33.5439 6.76999C33.5439 7.84356 32.8101 8.71375 31.9049 8.71375C30.9998 8.71375 30.266 7.84356 30.266 6.76999C30.266 5.69643 30.9998 4.82623 31.9049 4.82623ZM37.4557 4.82623C38.3609 4.82623 39.0946 5.69643 39.0946 6.76999C39.0946 7.84356 38.3609 8.71375 37.4557 8.71375C36.5505 8.71375 35.8168 7.84356 35.8168 6.76999C35.8168 5.69643 36.5505 4.82623 37.4557 4.82623Z" fill="#029894"/>
</g>
<defs>
<clipPath id="clip0_0_10002">
<rect width="49" height="43.16" fill="white" transform="translate(0.482422 0.404297)"/>
</clipPath>
</defs>
</svg>
