<svg width="59" height="44" viewBox="0 0 59 44" fill="none" xmlns="http://www.w3.org/2000/svg">
<path fill-rule="evenodd" clip-rule="evenodd" d="M3.68596 0.513672H50.4144C52.4265 0.513672 54.073 2.16011 54.073 4.17229V15.172C53.3497 15.0465 52.6244 14.9329 51.8974 14.8312V10.7575H51.9131H2.35243V37.3488C2.35159 37.482 2.37733 37.6139 2.42816 37.737C2.47899 37.8601 2.55387 37.9718 2.64843 38.0655C2.74219 38.1601 2.85388 38.235 2.97695 38.2858C3.10002 38.3366 3.232 38.3624 3.36515 38.3615H33.0084C33.2215 39.1415 33.4885 39.9056 33.8195 40.651H3.68596C1.67378 40.651 0.0273438 39.0045 0.0273438 36.9923V4.17229C0.0273438 2.16011 1.67378 0.513672 3.68596 0.513672ZM41.4052 23.9207C43.1103 24.4901 45.4835 24.842 48.1199 24.842C50.7564 24.842 53.1294 24.4901 54.8347 23.9207C56.3314 23.4212 57.2571 22.8163 57.2571 22.2246C57.2571 21.6333 56.3314 21.0284 54.8347 20.5287C53.1294 19.9595 50.7564 19.6073 48.1199 19.6073C45.4835 19.6073 43.1103 19.9595 41.4052 20.5287C38.2296 21.5887 38.1424 22.8317 41.4052 23.9207ZM54.2065 26.6862C54.7706 26.6862 55.2281 27.1437 55.2281 27.7078C55.2281 28.2718 54.7706 28.729 54.2065 28.729C54.0724 28.7291 53.9396 28.7027 53.8157 28.6513C53.6917 28.6 53.5792 28.5248 53.4843 28.4299C53.3895 28.3351 53.3142 28.2225 53.2629 28.0986C53.2116 27.9747 53.1852 27.8419 53.1852 27.7078C53.1852 27.1437 53.6424 26.6862 54.2065 26.6862ZM54.2065 32.6997C54.7706 32.6997 55.2281 33.1572 55.2281 33.7212C55.2281 34.2853 54.7706 34.7425 54.2065 34.7425C54.0724 34.7425 53.9396 34.7161 53.8157 34.6648C53.6917 34.6134 53.5792 34.5382 53.4843 34.4434C53.3895 34.3485 53.3142 34.236 53.2629 34.112C53.2116 33.9881 53.1852 33.8553 53.1852 33.7212C53.1852 33.1572 53.6424 32.6997 54.2065 32.6997ZM54.2065 38.4736C54.4774 38.4736 54.7373 38.5813 54.9289 38.7729C55.1204 38.9645 55.2281 39.2243 55.2281 39.4952C55.2281 40.0593 54.7706 40.5165 54.2065 40.5165C54.0724 40.5165 53.9396 40.4901 53.8157 40.4388C53.6917 40.3875 53.5792 40.3122 53.4843 40.2174C53.3895 40.1226 53.3142 40.01 53.2629 39.8861C53.2116 39.7621 53.1852 39.6293 53.1852 39.4952C53.1852 38.9311 53.6424 38.4736 54.2065 38.4736ZM57.2606 35.976C56.7274 36.3408 56.0486 36.6623 55.2456 36.9303C53.4091 37.5435 50.8885 37.9227 48.1199 37.9227C45.3512 37.9227 42.8309 37.5435 40.9941 36.9303C40.2015 36.6656 39.5263 36.349 38.9963 35.9901V39.8806C39.1142 40.4324 40.0125 40.9884 41.4052 41.4533C43.1103 42.0223 45.4835 42.3744 48.1199 42.3744C50.7564 42.3744 53.1294 42.0225 54.8347 41.4533C55.8683 41.1081 56.6295 40.7129 57.0017 40.3067C57.3088 39.9714 57.2606 39.7504 57.2606 39.3497V35.976ZM37.6836 22.2246C37.6836 21.012 38.9487 19.9834 40.9941 19.3005C42.8309 18.6876 45.3516 18.308 48.1199 18.308C50.8885 18.308 53.4091 18.6876 55.2459 19.3005C57.1076 19.922 58.3229 20.8302 58.5259 21.9029C58.5502 21.971 58.5633 22.0444 58.5633 22.1211V40.0258C58.5633 41.2672 56.1919 42.3656 55.2456 42.6813C53.4091 43.2944 50.8885 43.6737 48.1199 43.6737C45.3512 43.6737 42.8309 43.2944 40.9941 42.6813C40.0256 42.3579 37.6972 41.2958 37.6972 40.0258V39.6098C37.6972 33.8149 37.6836 28.0188 37.6836 22.2246ZM38.9963 34.1296C39.1142 34.6811 40.0125 35.2372 41.4052 35.702C43.1103 36.2714 45.4835 36.6235 48.1199 36.6235C50.7564 36.6235 53.1294 36.2714 54.8347 35.702C56.3314 35.2025 57.2571 34.5976 57.2571 34.0062H57.2642V30.225C56.7311 30.5898 56.0486 30.911 55.2456 31.1791C53.4091 31.7924 50.8885 32.1715 48.1199 32.1715C45.3512 32.1715 42.8309 31.7924 40.9941 31.1791C40.2015 30.9147 39.5263 30.5981 38.9963 30.2392V34.1296ZM38.9963 28.3784C39.1142 28.9301 40.0125 29.4862 41.4052 29.9511C43.1103 30.5201 45.4835 30.8724 48.1199 30.8724C50.7564 30.8724 53.1294 30.5205 54.8347 29.9511C56.3314 29.4516 57.2571 28.8467 57.2571 28.2549H57.2642V24.1947C56.7311 24.5595 56.0486 24.881 55.2456 25.1487C53.4091 25.762 50.8885 26.1411 48.1199 26.1411C45.3516 26.1411 42.8309 25.762 40.9941 25.1487C40.2015 24.8843 39.5263 24.5677 38.9963 24.2089V28.3784ZM15.1614 26.7912C15.6574 27.2251 15.7073 27.9795 15.2735 28.4754C14.8396 28.9713 14.0852 29.0214 13.5893 28.5875L9.05149 24.6114C8.55565 24.1775 8.50557 23.4231 8.93945 22.9271C8.97707 22.8841 9.01772 22.8439 9.06109 22.8067L13.5893 18.8392C14.0852 18.4053 14.8396 18.4554 15.2735 18.9514C15.7073 19.4473 15.6574 20.2017 15.1614 20.6355L11.6487 23.7132L15.1614 26.7912ZM24.8433 28.5875C24.3474 29.0214 23.593 28.9713 23.1591 28.4754C22.7252 27.9795 22.7753 27.2251 23.2712 26.7912L26.7839 23.7132L23.2712 20.6355C22.7753 20.2017 22.7252 19.4473 23.1591 18.9514C23.593 18.4554 24.3474 18.4053 24.8433 18.8392L29.3715 22.8067C29.4142 22.8433 29.4551 22.8836 29.4931 22.9271C29.927 23.4231 29.8769 24.1775 29.3811 24.6114L24.8433 28.5875ZM19.6623 17.2128C19.8198 16.572 20.4671 16.1802 21.108 16.3377C21.7488 16.4951 22.1406 17.1425 21.983 17.7833L19.0589 29.5516C18.9014 30.1926 18.2541 30.5842 17.6133 30.4268C16.9725 30.2693 16.5807 29.6219 16.7381 28.9811L19.6623 17.2128ZM46.9323 4.6264C47.9302 4.6264 48.7393 5.4355 48.7393 6.43347C48.7393 7.43144 47.9302 8.24019 46.9323 8.24019C45.9343 8.24019 45.1252 7.43144 45.1252 6.43347C45.1252 5.4355 45.9343 4.6264 46.9323 4.6264ZM34.6845 4.6264C35.6825 4.6264 36.4916 5.4355 36.4916 6.43347C36.4916 7.43144 35.6825 8.24019 34.6845 8.24019C33.6867 8.24019 32.8776 7.43144 32.8776 6.43347C32.8776 5.4355 33.6867 4.6264 34.6845 4.6264ZM40.8086 4.6264C41.8065 4.6264 42.6154 5.4355 42.6154 6.43347C42.6154 7.43144 41.8065 8.24019 40.8086 8.24019C39.8107 8.24019 39.0016 7.43144 39.0016 6.43347C39.0016 5.4355 39.8107 4.6264 40.8086 4.6264Z" fill="#029894"/>
</svg>
