<svg width="42" height="44" viewBox="0 0 42 44" fill="none" xmlns="http://www.w3.org/2000/svg">
<g clip-path="url(#clip0_0_9997)">
<path fill-rule="evenodd" clip-rule="evenodd" d="M2.87236 0.514404H38.6072C39.6188 0.514404 40.4442 1.34332 40.4442 2.35137V12.33C40.4442 13.3416 39.6153 14.167 38.6072 14.167H33.2438V16.0461H38.6072C39.6188 16.0461 40.4442 16.875 40.4442 17.8831V27.8617C40.4442 28.8733 39.6153 29.6987 38.6072 29.6987H33.2438V35.0305H36.001V37.7807H41.4487V40.9418H36.001V43.6674H27.329V40.9418H14.7196V43.6674H6.04755V40.9418H0.0273438V37.7807H6.04755V35.0305H8.80124V29.7057H2.87236C1.8608 29.7057 1.03539 28.8768 1.03539 27.8687V17.8866C1.03539 16.875 1.8608 16.0496 2.87236 16.0496H8.80124V14.1705H2.87236C1.8608 14.1705 1.03539 13.3416 1.03539 12.3335V2.35489C1.03188 1.33981 1.8608 0.514404 2.87236 0.514404ZM5.59445 20.1591H7.69485V25.5927H5.59445V20.1591ZM34.4451 5.67759C35.3653 5.67759 36.1099 6.42221 36.1099 7.34245C36.1099 8.26269 35.3653 9.00731 34.4451 9.00731C33.5248 9.00731 32.7802 8.26269 32.7802 7.34245C32.7802 6.42221 33.5248 5.67759 34.4451 5.67759ZM28.1052 5.67759C29.0255 5.67759 29.7701 6.42221 29.7701 7.34245C29.7701 8.26269 29.0255 9.00731 28.1052 9.00731C27.185 9.00731 26.4404 8.26269 26.4404 7.34245C26.4404 6.42221 27.1885 5.67759 28.1052 5.67759ZM17.1993 4.62388H19.2997V10.0575H17.1993V4.62388ZM11.3969 4.62388H13.4973V10.0575H11.3969V4.62388ZM5.59445 4.62388H7.69485V10.0575H5.59445V4.62388ZM34.4451 21.2128C35.3653 21.2128 36.1099 21.9574 36.1099 22.8777C36.1099 23.7979 35.3653 24.5425 34.4451 24.5425C33.5248 24.5425 32.7802 23.7979 32.7802 22.8777C32.7802 21.9574 33.5248 21.2128 34.4451 21.2128ZM28.1052 21.2128C29.0255 21.2128 29.7701 21.9574 29.7701 22.8777C29.7701 23.7979 29.0255 24.5425 28.1052 24.5425C27.185 24.5425 26.4404 23.7979 26.4404 22.8777C26.4404 21.9574 27.1885 21.2128 28.1052 21.2128ZM17.1993 20.1591H19.2997V25.5927H17.1993V20.1591ZM11.3969 20.1591H13.4973V25.5927H11.3969V20.1591ZM31.6633 37.3873C32.7521 37.3873 33.6337 38.2689 33.6337 39.3577C33.6337 40.4465 32.7521 41.3281 31.6633 41.3281C30.5744 41.3281 29.6928 40.4465 29.6928 39.3577C29.6928 38.2689 30.5779 37.3873 31.6633 37.3873ZM10.3818 37.3873C11.4706 37.3873 12.3523 38.2689 12.3523 39.3577C12.3523 40.4465 11.4706 41.3281 10.3818 41.3281C9.29298 41.3281 8.41137 40.4465 8.41137 39.3577C8.41137 38.2689 9.29649 37.3873 10.3818 37.3873ZM14.7196 37.7877H27.329V35.0375H30.0827V29.7057H11.9624V35.0375H14.7196V37.7877ZM11.9624 16.0496H30.0827V14.1705H11.9624V16.0496Z" fill="#029894"/>
</g>
<defs>
<clipPath id="clip0_0_9997">
<rect width="41.4214" height="43.16" fill="white" transform="translate(0.0273438 0.514404)"/>
</clipPath>
</defs>
</svg>
