<svg width="53" height="44" viewBox="0 0 53 44" fill="none" xmlns="http://www.w3.org/2000/svg">
<g clip-path="url(#clip0_0_9990)">
<path fill-rule="evenodd" clip-rule="evenodd" d="M13.003 38.1878V22.6901H19.973C22.9283 23.2202 25.8836 24.8219 28.839 26.683H34.2526C36.7039 26.8307 37.9866 29.3147 35.6063 30.9466C33.707 32.3384 31.2033 32.26 28.6358 32.0295C26.8658 31.9422 26.7882 34.3225 28.6358 34.3301C29.2767 34.3796 29.9743 34.2297 30.5838 34.2289C33.7884 34.226 36.4281 33.6132 38.0428 31.0818L38.8554 29.1867L46.9092 25.1938C50.9394 23.8666 53.8028 28.0828 50.8345 31.0138C45.0011 35.2577 39.0183 38.7507 32.8999 41.5708C28.4557 44.2739 24.0121 44.1824 19.568 41.5708L13.003 38.1878ZM43.3205 13.3532C43.2072 13.2751 43.0779 13.2403 42.9473 13.2663C42.8176 13.2924 42.7047 13.3616 42.6267 13.4745L42.1847 14.0982C42.029 14.029 41.864 13.9769 41.6903 13.9337C41.5173 13.8905 41.3524 13.8556 41.1794 13.8296L41.0401 13.0149C41.0145 12.876 40.9448 12.7719 40.8407 12.6942C40.7282 12.6162 40.6069 12.5901 40.4684 12.6162L39.4451 12.7983C39.3154 12.8244 39.2113 12.8852 39.1245 12.9977C39.0464 13.1106 39.012 13.2319 39.0376 13.3704L39.1681 14.1159C39.0031 14.1855 38.8474 14.2632 38.7001 14.3589C38.5524 14.4453 38.4059 14.5494 38.2753 14.6535L37.5819 14.1767C37.4695 14.0987 37.3482 14.0642 37.218 14.0903C37.0875 14.1163 36.9754 14.1855 36.8974 14.2984L36.3081 15.1392C36.23 15.2517 36.1956 15.3818 36.2212 15.5119C36.2476 15.6508 36.3173 15.7545 36.4294 15.8326L37.0531 16.2745C36.9842 16.4307 36.9318 16.5952 36.8881 16.7686C36.8445 16.9419 36.8101 17.1064 36.784 17.2798L35.9702 17.4187C35.8308 17.4447 35.7276 17.514 35.6487 17.6181C35.5706 17.731 35.5454 17.8523 35.5706 17.9908L35.7528 19.0137C35.7792 19.1438 35.8396 19.2475 35.953 19.3344C36.0655 19.4124 36.1868 19.4469 36.3253 19.4208L37.0703 19.2907C37.14 19.4552 37.218 19.6114 37.3129 19.7587C37.3998 19.906 37.5039 20.0534 37.608 20.1919L37.1307 20.8765C37.0527 20.9889 37.0182 21.1107 37.0447 21.2404C37.0703 21.3705 37.14 21.483 37.252 21.561L38.1011 22.1591C38.2145 22.2372 38.3446 22.2628 38.4743 22.2372C38.6048 22.2112 38.7169 22.1508 38.8038 22.0378L39.2458 21.4053C39.4015 21.4746 39.5664 21.5266 39.7402 21.5698C39.9131 21.6131 40.0781 21.6479 40.251 21.6739L40.3904 22.4882C40.416 22.6271 40.4856 22.7308 40.5897 22.8089C40.7022 22.8874 40.8235 22.913 40.962 22.8874L41.9853 22.7052C42.115 22.6792 42.2191 22.6188 42.306 22.5058C42.3841 22.3929 42.4185 22.2716 42.3929 22.1327L42.2624 21.3877C42.4273 21.3184 42.583 21.2404 42.7303 21.1451C42.8781 21.0582 43.0246 20.9541 43.1639 20.8504L43.8485 21.3272C43.961 21.4053 44.0823 21.4401 44.2208 21.4137C44.3602 21.3877 44.4634 21.3184 44.5423 21.2059L45.14 20.3564C45.2181 20.2439 45.2441 20.1138 45.2181 19.9837C45.1925 19.8536 45.132 19.7411 45.0187 19.6542L44.3858 19.2206C44.4554 19.0645 44.5071 18.8999 44.5507 18.7266C44.5944 18.5532 44.6288 18.3887 44.6548 18.2154L45.4695 18.0764C45.608 18.0504 45.7121 17.9812 45.7902 17.8771C45.8683 17.7642 45.8943 17.6429 45.8682 17.5043L45.6861 16.4815C45.6596 16.3513 45.5992 16.2473 45.4867 16.1608C45.3742 16.0827 45.2529 16.0479 45.1136 16.0739L44.3686 16.204C44.2997 16.0479 44.2208 15.8917 44.126 15.736C44.0391 15.5799 43.935 15.4414 43.8317 15.3117L44.3081 14.6183C44.3862 14.5054 44.4214 14.3841 44.395 14.2544C44.3686 14.1247 44.2997 14.0118 44.1868 13.9337L43.3465 13.3444L43.3205 13.3532ZM40.348 15.7625C40.6162 15.7188 40.8848 15.7188 41.1538 15.7801C41.4137 15.841 41.6483 15.9446 41.8644 16.092C42.0726 16.2393 42.254 16.4303 42.4013 16.6552C42.5486 16.8802 42.6439 17.132 42.6875 17.4007C42.7312 17.6693 42.7312 17.9379 42.6703 18.2065C42.6095 18.4664 42.5054 18.7006 42.358 18.9172C42.2111 19.1253 42.0202 19.3071 41.7948 19.4544C41.5694 19.6017 41.3184 19.697 41.0498 19.7407C40.7807 19.7839 40.5129 19.7839 40.2439 19.723C39.9841 19.6622 39.7494 19.5585 39.5333 19.4112C39.3251 19.2638 39.1429 19.0729 38.9956 18.8479C38.8487 18.6225 38.753 18.3711 38.7093 18.1025C38.6665 17.8338 38.6665 17.5652 38.7274 17.2966C38.7882 17.0368 38.8923 16.8026 39.0388 16.586C39.1866 16.3778 39.3775 16.196 39.6021 16.0487C39.8271 15.901 40.0789 15.8057 40.348 15.7625ZM32.478 3.61128C32.4344 3.56805 32.4 3.54202 32.3567 3.52439C32.3223 3.50719 32.2787 3.49837 32.2262 3.49837C32.1746 3.49837 32.1309 3.50719 32.0965 3.52439C32.0621 3.54202 32.0184 3.56805 31.9832 3.60246L31.9748 3.61128L30.9951 4.59051C30.805 4.78107 30.5015 4.80709 30.2845 4.65137C30.172 4.58211 30.0591 4.51244 29.9294 4.44318C29.7909 4.37393 29.6604 4.30425 29.5391 4.24381C29.4085 4.18295 29.27 4.12251 29.1315 4.07046C29.0102 4.02723 28.8717 3.97518 28.7067 3.92314C28.473 3.84507 28.3256 3.62849 28.3256 3.39428V1.89542C28.3256 1.84338 28.3168 1.79133 28.2992 1.75649C28.2816 1.72165 28.2555 1.67842 28.2211 1.6524C28.1867 1.61756 28.1514 1.59154 28.117 1.57433C28.0826 1.5567 28.0301 1.54789 27.9785 1.54789H26.0902C26.0381 1.54789 25.9949 1.5567 25.96 1.56551C25.9252 1.58314 25.882 1.60875 25.8387 1.6524C25.8039 1.68724 25.7779 1.72165 25.7691 1.75649C25.7518 1.79133 25.743 1.84338 25.743 1.89542V3.2734C25.743 3.55084 25.5437 3.77581 25.2838 3.82786C25.1365 3.8627 24.998 3.89711 24.8767 3.93195C24.7378 3.9756 24.6081 4.01884 24.4692 4.07046C24.339 4.12251 24.2005 4.17456 24.0704 4.24381C23.9315 4.30467 23.8102 4.37393 23.6889 4.43479C23.4635 4.55609 23.2037 4.51286 23.0303 4.33909L21.947 3.26458C21.939 3.25577 21.939 3.25577 21.939 3.24737C21.9042 3.21253 21.8693 3.18651 21.8349 3.1693C21.8001 3.15209 21.7657 3.15209 21.7136 3.15209C21.6616 3.15209 21.6183 3.16091 21.5835 3.17812C21.5399 3.19575 21.5054 3.22135 21.4622 3.265L20.1447 4.59093C20.101 4.63416 20.075 4.669 20.0578 4.71223C20.0402 4.74707 20.0318 4.7903 20.0318 4.84235C20.0318 4.89439 20.0406 4.93763 20.0578 4.97246C20.075 5.0073 20.101 5.05053 20.1359 5.08537V5.09418L21.1151 6.07341C21.3061 6.26439 21.3321 6.56744 21.176 6.78402C21.1067 6.89692 21.0374 7.00941 20.9682 7.13953C20.8985 7.27804 20.8293 7.40816 20.7688 7.52946C20.708 7.65957 20.6471 7.79808 20.5955 7.93702C20.5522 8.05832 20.5002 8.19683 20.4481 8.36178C20.3701 8.59557 20.1535 8.7429 19.9193 8.7429H18.42C18.368 8.7429 18.3159 8.75171 18.2815 8.76892C18.2467 8.78655 18.2122 8.81215 18.1774 8.8386C18.1426 8.87301 18.1165 8.90785 18.1081 8.94227C18.0909 8.97711 18.0821 9.02915 18.0821 9.0812V10.9704C18.0821 11.0225 18.0909 11.0657 18.0998 11.1005C18.117 11.1354 18.143 11.1786 18.1866 11.2218C18.2215 11.2567 18.2559 11.2827 18.2907 11.2911C18.3256 11.3087 18.3776 11.3171 18.4297 11.3171H19.8076C20.0851 11.3171 20.3105 11.5165 20.3625 11.7767C20.3969 11.924 20.4318 12.0625 20.4666 12.1754C20.5098 12.314 20.5535 12.4529 20.6051 12.5914C20.6572 12.7215 20.7092 12.86 20.7785 12.999C20.8481 13.1463 20.9086 13.2764 20.9694 13.3977C21.0824 13.6231 21.0387 13.8829 20.8654 14.0479L19.7904 15.114L19.7816 15.1228C19.7468 15.1576 19.7207 15.192 19.7035 15.2269C19.6863 15.2617 19.6863 15.2966 19.6863 15.3482C19.6863 15.4002 19.6951 15.4435 19.7124 15.4783C19.7296 15.5215 19.7556 15.5652 19.7988 15.5996L21.1075 16.926C21.1424 16.9608 21.1856 16.9868 21.2288 17.004C21.2725 17.0217 21.3157 17.03 21.3678 17.03C21.4198 17.03 21.4719 17.0212 21.5151 17.004C21.5495 16.9868 21.5932 16.9608 21.628 16.9348L22.5988 15.9467C22.7894 15.7474 23.0929 15.7301 23.3094 15.8775C23.4223 15.9467 23.5344 16.0164 23.6645 16.0857C23.8035 16.1549 23.9332 16.2242 24.0545 16.285C24.1846 16.3459 24.3231 16.4063 24.462 16.4584C24.5833 16.5016 24.7223 16.5537 24.8868 16.6057C25.121 16.6838 25.2683 16.9004 25.2683 17.1346V18.6338C25.2683 18.6859 25.2771 18.7379 25.2943 18.7728C25.3116 18.8076 25.3376 18.8508 25.3636 18.8769C25.4329 18.9461 25.5109 18.9721 25.615 18.9721H27.5046C27.5563 18.9721 27.5999 18.9633 27.6343 18.9545C27.6688 18.9373 27.7124 18.9113 27.7556 18.868C27.7901 18.8332 27.8165 18.7984 27.8253 18.764C27.8425 18.7291 27.8518 18.6771 27.8518 18.625V17.247C27.8518 16.9696 28.0511 16.7442 28.3109 16.6922C28.4578 16.6573 28.5972 16.6229 28.7185 16.5881C28.857 16.5444 28.9867 16.5012 29.1261 16.4491C29.2558 16.3971 29.3943 16.345 29.5328 16.2758C29.6805 16.2065 29.8106 16.1457 29.9319 16.0852C30.1573 15.9723 30.4171 16.016 30.5821 16.1893L31.6478 17.2643L31.6566 17.2731C31.691 17.3079 31.7254 17.3339 31.7599 17.3511C31.7951 17.3688 31.8388 17.3688 31.8904 17.3688C31.9429 17.3688 31.9857 17.36 32.0209 17.3427C32.0554 17.3251 32.0898 17.2991 32.125 17.2647C32.1334 17.2559 32.1422 17.2475 32.1506 17.2475L33.4682 15.9471C33.5034 15.9123 33.529 15.8691 33.5462 15.8258C33.5643 15.7826 33.5727 15.739 33.5727 15.6873C33.5727 15.6353 33.5643 15.5832 33.5462 15.54C33.529 15.5052 33.5034 15.4619 33.4774 15.4271L32.4894 14.4563C32.2891 14.2657 32.2719 13.9622 32.4197 13.7457C32.4894 13.6328 32.5582 13.5203 32.6279 13.3901C32.6967 13.2516 32.7664 13.1215 32.8272 13.0002C32.8881 12.8701 32.9485 12.7316 33.0002 12.5927C33.0438 12.4714 33.0963 12.3328 33.1479 12.1679C33.226 11.9337 33.4421 11.7868 33.6768 11.7868H35.176C35.2285 11.7868 35.2801 11.778 35.3146 11.7603C35.349 11.7431 35.3926 11.7171 35.4187 11.6911C35.4883 11.6218 35.5139 11.5438 35.5139 11.4397V9.55046C35.5139 9.49841 35.5055 9.45518 35.4967 9.42034C35.4795 9.38592 35.4531 9.34227 35.4098 9.29904C35.3754 9.26462 35.341 9.23818 35.3066 9.22978C35.2713 9.21257 35.2197 9.20376 35.1681 9.20376H33.7893C33.5122 9.20376 33.2784 8.99557 33.2352 8.73576C33.2008 8.61446 33.1655 8.48434 33.1311 8.35465C33.0875 8.22453 33.0442 8.0856 32.9834 7.93869C32.9834 7.92988 32.975 7.92107 32.975 7.91225C32.9225 7.77374 32.8709 7.65244 32.8184 7.53114C32.7576 7.40102 32.6971 7.2709 32.6283 7.1496C32.507 6.92421 32.5502 6.66439 32.7236 6.49105L33.7985 5.40772C33.7985 5.39891 33.8073 5.39891 33.8157 5.39891C33.8501 5.36449 33.8766 5.32965 33.8938 5.29482C33.911 5.25998 33.911 5.22556 33.911 5.17351C33.911 5.12105 33.9026 5.07782 33.8854 5.0434C33.8682 4.99975 33.8417 4.96533 33.7985 4.92209L32.4721 3.60456L32.478 3.61128ZM32.7903 2.49354C32.9725 2.57161 33.1282 2.6757 33.2667 2.81421L34.593 4.13174H34.6014C34.7399 4.27067 34.844 4.42639 34.9221 4.59974C35.001 4.78191 35.0354 4.96365 35.0354 5.16302C35.0354 5.36281 34.9918 5.55337 34.9221 5.72672C34.844 5.90007 34.7399 6.05579 34.5935 6.1859L33.8132 6.97457C33.822 7.0006 33.8396 7.02662 33.8476 7.05264C33.9173 7.19997 33.9781 7.35611 34.0386 7.50302C34.0386 7.51183 34.0474 7.52064 34.0474 7.52946C34.1083 7.67678 34.1599 7.84132 34.2123 8.01467L34.2296 8.07553H35.1828C35.3821 8.07553 35.5723 8.11036 35.746 8.18843C35.919 8.25769 36.0747 8.3706 36.214 8.50911L36.2224 8.51792C36.3609 8.65643 36.465 8.81257 36.5347 8.98592C36.6035 9.15927 36.6472 9.34983 36.6472 9.5408V11.43C36.6472 11.8376 36.5087 12.1838 36.2224 12.4701C36.0839 12.609 35.919 12.7215 35.746 12.7908C35.5723 12.86 35.3821 12.8949 35.1828 12.8949H34.0726C34.0642 12.9209 34.047 12.9557 34.0382 12.9818C33.9773 13.1379 33.9076 13.2936 33.8388 13.4497C33.7607 13.6143 33.691 13.7704 33.6134 13.9089L33.587 13.961L34.2631 14.6284L34.2896 14.6544C34.4281 14.7933 34.5234 14.9578 34.593 15.1312C34.6619 15.3045 34.6971 15.4867 34.6971 15.6861C34.6971 15.8766 34.6619 16.0588 34.593 16.2321C34.5234 16.4055 34.4281 16.5616 34.2896 16.709L34.2724 16.7262L32.946 18.0437C32.8075 18.191 32.651 18.2951 32.478 18.3732C32.3051 18.4513 32.1141 18.4857 31.9059 18.4857C31.7066 18.4857 31.5164 18.4424 31.3338 18.3732C31.1517 18.2951 30.996 18.1826 30.8667 18.0437L30.0952 17.2638C30.0688 17.281 30.0427 17.2899 30.0083 17.2987C29.8606 17.3595 29.7049 17.4288 29.5403 17.4892C29.3846 17.5501 29.2197 17.6021 29.0551 17.6542C29.0287 17.663 29.0115 17.6718 28.9854 17.6718V18.6162C28.9854 18.8156 28.951 19.0061 28.873 19.1795C28.8033 19.3528 28.6908 19.509 28.5523 19.6475L28.5435 19.6563C28.405 19.7948 28.2492 19.8989 28.0755 19.9682C27.9025 20.0378 27.7116 20.0811 27.5214 20.0811H25.6318C25.2242 20.0811 24.878 19.9426 24.5917 19.6563C24.4532 19.5174 24.3403 19.3528 24.271 19.1795C24.2018 19.0061 24.1669 18.8156 24.1669 18.6162V17.5043C24.1409 17.4955 24.1061 17.4783 24.0801 17.4695C23.9239 17.4086 23.7682 17.3394 23.6121 17.2701C23.4471 17.1921 23.2914 17.1228 23.1525 17.0447L23.1004 17.0187L22.433 17.6949L22.407 17.7209C22.2681 17.8599 22.1036 17.9551 21.9302 18.0244C21.7569 18.0936 21.5751 18.1285 21.3757 18.1285C21.1852 18.1285 21.003 18.0936 20.8297 18.0244C20.6563 17.9547 20.5002 17.8594 20.3529 17.7209L20.3352 17.7037L19.0093 16.3602C18.8708 16.2212 18.7667 16.0655 18.6886 15.8922C18.6106 15.71 18.5761 15.5283 18.5761 15.3289C18.5761 15.1295 18.6194 14.939 18.6886 14.7656C18.7667 14.5923 18.8796 14.4361 19.0181 14.2976L19.798 13.5261C19.7808 13.5001 19.772 13.4741 19.7636 13.4393C19.7027 13.2919 19.6334 13.1358 19.5726 12.9713C19.5117 12.8063 19.4513 12.6506 19.408 12.486L19.3904 12.4164H18.446C18.2462 12.4164 18.0557 12.382 17.8823 12.3039C17.709 12.2346 17.5533 12.1217 17.4143 11.9832L17.4055 11.9744C17.267 11.8359 17.1629 11.6797 17.0937 11.5064C17.0244 11.3331 16.9808 11.1425 16.9808 10.9519V9.06273C16.9808 8.86336 17.0156 8.6812 17.0848 8.49945C17.1541 8.32611 17.267 8.17039 17.4055 8.02264C17.5444 7.88413 17.709 7.77122 17.8823 7.70197C18.0557 7.63229 18.2462 7.59787 18.446 7.59787H19.5554C19.5642 7.57185 19.5814 7.53701 19.5902 7.51141C19.6511 7.35527 19.7203 7.19913 19.7896 7.04341C19.8677 6.87846 19.9369 6.72274 20.015 6.58381L20.041 6.53176L19.3736 5.85599C19.2347 5.71748 19.1222 5.56134 19.053 5.37918C18.9749 5.19702 18.9401 5.00646 18.9401 4.8159C18.9401 4.61611 18.9749 4.43437 19.053 4.25263C19.131 4.07046 19.2347 3.91432 19.3736 3.77581L20.6912 2.44989V2.44149C20.8301 2.30298 20.9858 2.19889 21.1592 2.12082C21.3413 2.04275 21.5231 2.00791 21.7224 2.00791C21.9222 2.00791 22.1128 2.05114 22.2857 2.12082C22.4591 2.19889 22.6152 2.30298 22.7453 2.44989L23.5336 3.22974C23.56 3.22093 23.586 3.20372 23.6033 3.19533C23.7506 3.12565 23.9067 3.06521 24.0713 2.99595C24.2274 2.93509 24.3919 2.88305 24.5565 2.83142C24.5825 2.82261 24.5997 2.81379 24.6257 2.81379V1.8694C24.6257 1.67003 24.6606 1.47947 24.7386 1.30612C24.8083 1.13277 24.9208 0.977053 25.0593 0.838122L25.0681 0.829308C25.207 0.690797 25.3628 0.586704 25.5361 0.517448C25.7095 0.448193 25.8996 0.404541 26.0902 0.404541H27.9794C28.1787 0.404541 28.3605 0.439379 28.5426 0.508634C28.7248 0.57789 28.8814 0.690797 29.0199 0.829308C29.1584 0.967819 29.2709 1.13277 29.3405 1.30612C29.4094 1.47947 29.4446 1.67003 29.4446 1.8694V2.97875C29.4702 2.98756 29.5055 3.00477 29.5307 3.01358C29.6872 3.07444 29.843 3.1437 29.9987 3.21295C30.1636 3.29102 30.3194 3.36028 30.4587 3.43835L30.5103 3.46437L31.1865 2.797C31.325 2.65807 31.4807 2.54558 31.6629 2.47633C31.8451 2.39826 32.036 2.36342 32.2262 2.36342C32.4264 2.36342 32.6081 2.39826 32.7903 2.47633V2.49354ZM26.8008 6.00332C27.087 6.00332 27.3728 6.02976 27.6499 6.0902C27.9189 6.14225 28.1875 6.22871 28.4558 6.34162C28.7076 6.45453 28.9502 6.58423 29.1756 6.73155C29.401 6.87888 29.6092 7.05222 29.7993 7.24278C29.9903 7.43376 30.1632 7.64153 30.311 7.87573C30.4667 8.10113 30.5972 8.34331 30.7013 8.59473C30.7097 8.61236 30.7097 8.62957 30.7185 8.63796C30.8226 8.88938 30.9007 9.14962 30.9523 9.40061C31.0048 9.67806 31.0392 9.96389 31.0392 10.2497C31.0392 10.5356 31.0127 10.8218 30.9523 11.0993C30.9007 11.3679 30.8138 11.6365 30.7013 11.9051C30.588 12.1566 30.4587 12.3992 30.311 12.6246C30.1552 12.85 29.9903 13.0577 29.7993 13.2571C29.6092 13.4481 29.401 13.6214 29.1664 13.7687C28.9418 13.9249 28.6984 14.0546 28.4474 14.1587C28.4301 14.1675 28.4129 14.1675 28.4037 14.1759C28.1519 14.28 27.8921 14.358 27.6415 14.4101C27.3636 14.4621 27.0774 14.497 26.7924 14.497C26.5061 14.497 26.2203 14.471 25.9428 14.4101C25.6742 14.358 25.4052 14.2712 25.1365 14.1587C24.8851 14.0458 24.6425 13.9157 24.4171 13.7687C24.1917 13.6214 23.9839 13.4481 23.7934 13.2571C23.6028 13.0665 23.4295 12.8583 23.2817 12.6246C23.126 12.3992 22.9959 12.1566 22.8918 11.9051C22.883 11.8879 22.883 11.8703 22.8742 11.8619C22.7701 11.6105 22.692 11.3507 22.6404 11.0993C22.5883 10.8218 22.5535 10.536 22.5535 10.2497C22.5535 9.96347 22.5795 9.67764 22.6404 9.40061C22.6924 9.13199 22.7789 8.86336 22.8918 8.59473C23.0043 8.34331 23.1344 8.10071 23.2817 7.87573C23.4295 7.65034 23.6028 7.44215 23.7934 7.24278C23.9839 7.05222 24.1921 6.87888 24.4171 6.73155C24.6425 6.57541 24.8851 6.4453 25.1365 6.34162C25.1542 6.33281 25.1714 6.33281 25.1802 6.32399C25.4316 6.2199 25.6914 6.14225 25.9428 6.0902C26.2203 6.03816 26.5061 6.00332 26.7924 6.00332H26.8008ZM27.4337 7.18192C27.2343 7.13869 27.0173 7.12106 26.8008 7.12106C26.5842 7.12106 26.3764 7.13869 26.1682 7.18192C25.9688 7.22515 25.7871 7.2772 25.6138 7.34688C25.6049 7.35569 25.5961 7.35569 25.5789 7.36408C25.3795 7.45097 25.1974 7.54625 25.0329 7.65874C24.8683 7.77122 24.7122 7.89294 24.5737 8.03145C24.4347 8.17039 24.305 8.32611 24.2009 8.49106C24.088 8.65559 23.9928 8.83776 23.9063 9.03713C23.8278 9.21929 23.7674 9.41824 23.7241 9.62643C23.6809 9.8258 23.6633 10.0424 23.6633 10.259C23.6633 10.4755 23.6809 10.6833 23.7241 10.8915C23.7678 11.0909 23.8198 11.2726 23.8887 11.446C23.8975 11.4548 23.8975 11.4632 23.9063 11.4808C23.9928 11.6802 24.0885 11.8619 24.2009 12.0269C24.3134 12.1918 24.4347 12.3475 24.5737 12.486C24.7122 12.625 24.8683 12.7547 25.0329 12.8588C25.1974 12.9717 25.3795 13.067 25.5789 13.1534C25.7611 13.2315 25.9605 13.2919 26.1682 13.3356C26.368 13.3792 26.5846 13.3964 26.8008 13.3964C27.0169 13.3964 27.2255 13.3792 27.4337 13.3356C27.6331 13.2919 27.8148 13.2403 27.9886 13.171C27.997 13.1622 28.0058 13.1622 28.023 13.1534C28.2224 13.0665 28.4041 12.9713 28.5691 12.8588C28.734 12.7463 28.8898 12.625 29.0283 12.486C29.1668 12.3471 29.2973 12.1914 29.4014 12.0269C29.5139 11.8619 29.6096 11.6802 29.6956 11.4808C29.7737 11.2986 29.8341 11.0993 29.8778 10.8915C29.9214 10.6921 29.9387 10.4755 29.9387 10.259C29.9387 10.0424 29.9214 9.8342 29.8778 9.62643C29.8341 9.42706 29.7825 9.24489 29.7128 9.07155C29.7044 9.06273 29.7044 9.05434 29.6956 9.03671C29.6096 8.83734 29.5135 8.65517 29.4014 8.49064C29.2881 8.32569 29.1668 8.16997 29.0283 8.03104C28.8898 7.89252 28.734 7.76241 28.5691 7.65831C28.4041 7.54541 28.2224 7.45013 28.023 7.36366C27.8413 7.28643 27.6419 7.22515 27.4337 7.18192ZM0.482422 21.2009H10.9047V39.7442H0.482422V21.2009Z" fill="#029894"/>
</g>
<defs>
<clipPath id="clip0_0_9990">
<rect width="51.5764" height="43.16" fill="white" transform="translate(0.482422 0.404541)"/>
</clipPath>
</defs>
</svg>
