<svg width="50" height="44" viewBox="0 0 50 44" fill="none" xmlns="http://www.w3.org/2000/svg">
<g clip-path="url(#clip0_0_9952)">
<path fill-rule="evenodd" clip-rule="evenodd" d="M3.35574 0.00012207H46.2012C48.0489 0.00012207 49.5569 1.50812 49.5569 3.35586V39.8044C49.5569 41.6473 48.0489 43.1601 46.2012 43.1601H3.35574C1.50897 43.1601 0 41.6511 0 39.8044V3.35586C0 1.50812 1.50897 0.00012207 3.35574 0.00012207ZM6.74051 11.2046H42.8164C43.7291 11.2046 44.4744 11.9538 44.4744 12.8627V30.4805C44.4744 31.3894 43.7243 32.1385 42.8164 32.1385H6.74051C5.83165 32.1385 5.08152 31.3913 5.08152 30.4805V12.8627C5.08152 11.9519 5.82778 11.2046 6.74051 11.2046ZM24.7775 13.8625C29.0905 13.8625 32.5866 17.3586 32.5866 21.6716C32.5866 25.9846 29.0905 29.4807 24.7775 29.4807C20.4655 29.4807 16.9694 25.9846 16.9694 21.6716C16.9694 17.3586 20.4655 13.8625 24.7775 13.8625ZM24.339 17.3799V15.3618C23.646 15.9784 22.9849 16.6491 22.4119 17.3799H24.339ZM30.8076 25.0815C31.3254 24.1523 31.6293 23.1747 31.6874 22.1071H29.7767C29.7235 23.1612 29.4002 24.1572 28.8959 25.0806L30.8076 25.0815ZM30.2268 25.9633H28.351C27.6996 26.9002 26.8846 27.7346 26.0261 28.4828C27.6919 28.1779 29.1718 27.2884 30.2268 25.9633ZM23.5337 28.4808C22.6742 27.7365 21.8612 26.8973 21.2098 25.9633H19.3388C20.4064 27.3048 21.8728 28.174 23.5337 28.4808ZM18.7484 25.0854H20.66C20.1586 24.1659 19.8315 23.1622 19.7792 22.111H17.8695C17.9353 23.1941 18.2247 24.1417 18.7484 25.0854ZM17.8676 21.2331H19.7976C19.8905 20.1771 20.2525 19.1792 20.7684 18.2587H18.7484C18.2286 19.1918 17.9257 20.1723 17.8676 21.2331ZM19.3301 17.3799H21.325C21.9773 16.4507 22.7662 15.6096 23.6024 14.8449C21.8999 15.1411 20.4083 16.0306 19.3301 17.3799ZM25.9603 14.8507C26.7975 15.6135 27.5835 16.4507 28.231 17.3799H30.222C29.1524 16.0403 27.6522 15.1411 25.9603 14.8507ZM30.8066 18.2587H28.7875C29.3025 19.1763 29.6654 20.18 29.7583 21.2331H31.6864C31.6148 20.152 31.338 19.1996 30.8066 18.2587ZM25.2169 15.3618V17.3799H27.144C26.571 16.6491 25.9109 15.9784 25.2169 15.3618ZM25.2169 18.2587V21.2331H28.8785C28.7672 20.1626 28.3394 19.1608 27.7664 18.2587H25.2169ZM25.2169 22.111V25.0854H27.8816C28.4497 24.1775 28.833 23.1873 28.8979 22.111H25.2169ZM25.2169 25.9633V28.0191C25.9554 27.3968 26.6552 26.7192 27.2573 25.9633H25.2169ZM24.339 28.0191V25.9633H22.2977C22.8959 26.7192 23.6005 27.4006 24.339 28.0191ZM24.339 25.0854V22.111H20.6581C20.7239 23.1873 21.1081 24.1756 21.6744 25.0854H24.339ZM24.339 21.2331V18.2587H21.7886C21.2156 19.1608 20.7887 20.1626 20.6774 21.2331H24.339ZM47.5766 8.10635H2.13327V40.1315C2.13263 40.2535 2.15617 40.3744 2.20255 40.4871C2.24892 40.5999 2.31719 40.7024 2.40343 40.7886C2.48966 40.8749 2.59213 40.9431 2.70492 40.9895C2.81771 41.0359 2.93858 41.0594 3.06053 41.0588H46.6329C47.1488 41.0588 47.5611 40.6436 47.5611 40.1306V8.10635H47.5766ZM43.0071 2.91159C43.9227 2.91159 44.6651 3.65398 44.6651 4.56962C44.6651 5.48526 43.9227 6.22668 43.0071 6.22668C42.0924 6.22668 41.35 5.48526 41.35 4.56962C41.35 3.65398 42.0963 2.91159 43.0071 2.91159ZM31.7793 2.91159C32.695 2.91159 33.4374 3.65398 33.4374 4.56962C33.4374 5.48526 32.695 6.22668 31.7793 6.22668C30.8637 6.22668 30.1223 5.48526 30.1223 4.56962C30.1223 3.65398 30.8637 2.91159 31.7793 2.91159ZM37.3932 2.91159C38.3088 2.91159 39.0512 3.65398 39.0512 4.56962C39.0512 5.48526 38.3088 6.22668 37.3932 6.22668C36.4785 6.22668 35.7361 5.48526 35.7361 4.56962C35.7361 3.65398 36.4785 2.91159 37.3932 2.91159ZM26.9688 37.8395C26.2506 37.8395 25.6699 37.2065 25.6699 36.4283C25.6699 35.6462 26.2506 35.0171 26.9688 35.0171H42.9587C43.6769 35.0171 44.2576 35.6501 44.2576 36.4283C44.2576 37.2065 43.6769 37.8395 42.9587 37.8395H26.9688ZM6.03297 37.8395C5.3235 37.8395 4.74662 37.2065 4.74662 36.4283C4.74662 35.6462 5.3235 35.0171 6.03297 35.0171H20.8584C21.5679 35.0171 22.1448 35.6501 22.1448 36.4283C22.1448 37.2065 21.5679 37.8395 20.8584 37.8395H6.03297Z" fill="#029894"/>
</g>
<defs>
<clipPath id="clip0_0_9952">
<rect width="49.5569" height="43.16" fill="white"/>
</clipPath>
</defs>
</svg>
