<svg width="468" height="433" viewBox="0 0 468 433" fill="none" xmlns="http://www.w3.org/2000/svg">
<g clip-path="url(#clip0_187_2155)">
<path d="M15.6773 131.078C17.0759 130.23 18.5751 129.585 20.1146 129.141L21.0302 124.744L28.4458 124.613L29.5123 128.98C31.0619 129.363 32.5812 129.958 34.01 130.755L37.7631 128.294L43.0958 133.458L40.7715 137.301C41.6167 138.703 42.2607 140.205 42.7034 141.749L47.0904 142.666L47.2212 150.1L42.8644 151.169C42.4821 152.722 41.8884 154.245 41.0935 155.677L43.5486 159.439L38.3969 164.785L34.5634 162.455C33.1648 163.302 31.6656 163.948 30.1261 164.391L29.2105 168.789L21.7949 168.92L20.7284 164.553C19.1788 164.17 17.6595 163.574 16.2307 162.778L12.4777 165.239L7.14488 160.075L9.46917 156.232C8.62397 154.83 7.98002 153.327 7.5373 151.784L3.15034 150.866L3.01953 143.433L7.37631 142.364C7.75866 140.811 8.3523 139.288 9.14719 137.855L6.6921 134.093L11.8438 128.748L15.6773 131.078ZM19.6316 140.982C16.5829 144.149 16.6634 149.202 19.8329 152.258C22.9923 155.314 28.0333 155.233 31.082 152.056C34.1307 148.889 34.0502 143.836 30.8808 140.78C27.7213 137.724 22.6804 137.815 19.6316 140.982Z" fill="#F5F5F5"/>
<path d="M272.688 6.44604C273.885 5.71986 275.153 5.17522 276.461 4.80204L277.236 1.06016L283.555 0.949219L284.46 4.66084C285.778 4.98359 287.076 5.48788 288.294 6.17372L291.483 4.07585L296.021 8.47331L294.039 11.7411C294.763 12.9414 295.307 14.2122 295.679 15.5234L299.412 16.3L299.523 22.6239L295.82 23.5316C295.498 24.8528 294.995 26.1539 294.311 27.3743L296.403 30.5716L292.017 35.1304L288.757 33.1435C287.559 33.8697 286.291 34.4143 284.983 34.7875L284.209 38.5293L277.9 38.6403L276.994 34.9287C275.676 34.6059 274.378 34.1016 273.161 33.4158L269.971 35.5137L265.433 31.1162L267.415 27.8484C266.691 26.6481 266.148 25.3773 265.775 24.0661L262.042 23.2895L261.932 16.9657L265.634 16.0579C265.956 14.7367 266.459 13.4356 267.144 12.2152L265.041 9.01795L269.428 4.4692L272.688 6.44604ZM276.058 14.8779C273.463 17.5809 273.533 21.8775 276.23 24.4797C278.916 27.0818 283.212 27.0112 285.808 24.3082C288.404 21.6153 288.334 17.3086 285.637 14.7064C282.941 12.1042 278.654 12.1849 276.058 14.8779Z" fill="#F5F5F5"/>
<path d="M59.226 10.7528C61.168 9.58281 63.2307 8.68516 65.3537 8.08L66.6215 1.9982L76.8745 1.81665L78.3536 7.84803C80.5068 8.38258 82.5997 9.19954 84.5718 10.2989L89.7537 6.88987L97.129 14.0307L93.9193 19.346C95.0965 21.2926 95.9819 23.3602 96.5856 25.4984L102.653 26.7692L102.834 37.0468L96.8171 38.5294C96.2838 40.6878 95.4688 42.7856 94.372 44.7625L97.7729 49.9567L90.6492 57.3497L85.3466 54.1323C83.4046 55.3023 81.342 56.1999 79.2089 56.8051L77.9411 62.8869L67.6881 63.0684L66.209 57.037C64.0557 56.5025 61.9629 55.6855 59.9907 54.5862L54.8089 57.9952L47.4336 50.8544L50.6433 45.5391C49.4761 43.5925 48.5806 41.5249 47.9769 39.3867L41.9096 38.1159L41.7285 27.8383L47.7455 26.3557C48.2788 24.1973 49.0938 22.0994 50.1905 20.1226L46.7896 14.9283L53.9134 7.53537L59.226 10.7528ZM64.6896 24.4494C60.4637 28.8267 60.5945 35.8163 64.9613 40.0423C69.3281 44.2683 76.301 44.1472 80.5169 39.77C84.7328 35.3927 84.6121 28.4031 80.2452 24.1771C75.8784 19.941 68.9156 20.0621 64.6896 24.4494Z" fill="#F5F5F5"/>
<path d="M224.632 186.772C226.031 185.925 227.53 185.279 229.07 184.836L229.985 180.438L237.401 180.307L238.467 184.674C240.017 185.058 241.536 185.653 242.965 186.449L246.718 183.988L252.051 189.152L249.727 192.995C250.572 194.397 251.216 195.9 251.658 197.443L256.045 198.361L256.176 205.794L251.819 206.863C251.437 208.417 250.843 209.94 250.049 211.372L252.504 215.134L247.352 220.479L243.518 218.149C242.12 218.997 240.621 219.642 239.081 220.086L238.166 224.483L230.75 224.615L229.683 220.247C228.134 219.864 226.615 219.269 225.186 218.472L221.433 220.933L216.1 215.769L218.424 211.926C217.579 210.525 216.935 209.022 216.492 207.479L212.105 206.561L211.975 199.127L216.331 198.058C216.714 196.505 217.307 194.982 218.102 193.55L215.647 189.788L220.799 184.442L224.632 186.772ZM228.587 196.677C225.538 199.844 225.618 204.897 228.788 207.953C231.947 211.009 236.988 210.928 240.037 207.751C243.086 204.584 243.005 199.531 239.836 196.475C236.676 193.419 231.646 193.51 228.587 196.677Z" fill="#F5F5F5"/>
<path d="M245.531 319.846C246.929 318.998 248.429 318.353 249.968 317.909L250.884 313.512L258.299 313.381L259.366 317.748C260.915 318.131 262.435 318.726 263.863 319.523L267.617 317.062L272.949 322.226L270.625 326.069C271.47 327.471 272.114 328.973 272.557 330.517L276.944 331.434L277.075 338.868L272.718 339.937C272.336 341.49 271.742 343.013 270.947 344.445L273.402 348.207L268.25 353.553L264.417 351.223C263.018 352.07 261.519 352.716 259.98 353.159L259.064 357.557L251.648 357.688L250.582 353.321C249.032 352.938 247.513 352.343 246.084 351.546L242.331 354.007L236.998 348.843L239.323 345C238.477 343.598 237.834 342.095 237.391 340.552L233.004 339.634L232.873 332.201L237.23 331.132C237.612 329.579 238.206 328.056 239.001 326.623L236.546 322.861L241.697 317.516L245.531 319.846ZM249.485 329.75C246.436 332.917 246.517 337.97 249.686 341.026C252.846 344.082 257.887 344.001 260.935 340.824C263.984 337.657 263.904 332.604 260.734 329.548C257.575 326.492 252.534 326.573 249.485 329.75Z" fill="#F5F5F5"/>
<path d="M67.4465 236.576C68.3923 236.001 69.3985 235.568 70.4349 235.275L71.0486 232.31L76.0494 232.219L76.7738 235.164C77.8203 235.427 78.8466 235.82 79.8125 236.365L82.338 234.7L85.9402 238.18L84.3705 240.772C84.944 241.72 85.3767 242.729 85.6685 243.768L88.6267 244.383L88.7172 249.396L85.7792 250.122C85.5176 251.171 85.1251 252.199 84.5818 253.168L86.242 255.699L82.7707 259.31L80.1848 257.737C79.239 258.312 78.2328 258.745 77.1964 259.038L76.5826 262.003L71.5819 262.094L70.8575 259.149C69.811 258.886 68.7847 258.493 67.8188 257.948L65.2933 259.613L61.6911 256.123L63.2608 253.531C62.6873 252.583 62.2546 251.574 61.9628 250.535L59.0046 249.92L58.9141 244.907L61.8521 244.181C62.1137 243.132 62.5061 242.103 63.0495 241.135L61.3893 238.604L64.8606 234.993L67.4465 236.576ZM70.1129 243.253C68.0502 245.391 68.1106 248.8 70.2437 250.858C72.3768 252.926 75.7777 252.865 77.8303 250.727C79.893 248.589 79.8326 245.18 77.6995 243.122C75.5664 241.054 72.1655 241.115 70.1129 243.253Z" fill="#F5F5F5"/>
<path d="M74.8717 275.205C76.5923 274.157 78.4336 273.37 80.3252 272.835L81.4522 267.429L90.5682 267.268L91.8762 272.634C93.788 273.108 95.6494 273.834 97.4102 274.812L102.019 271.786L108.579 278.13L105.721 282.851C106.768 284.575 107.553 286.421 108.086 288.317L113.479 289.447L113.64 298.585L108.287 299.896C107.814 301.812 107.09 303.678 106.114 305.443L109.132 310.062L102.803 316.638L98.0944 313.774C96.3738 314.823 94.5325 315.61 92.6409 316.144L91.514 321.55L82.398 321.712L81.0899 316.346C79.1782 315.872 77.3167 315.146 75.5559 314.167L70.9476 317.193L64.3873 310.849L67.2448 306.129C66.1984 304.404 65.4136 302.558 64.8803 300.662L59.4872 299.533L59.3262 290.395L64.6791 289.084C65.152 287.167 65.8764 285.301 66.8524 283.536L63.8339 278.917L70.1628 272.341L74.8717 275.205ZM79.7316 287.379C75.9785 291.272 76.0892 297.485 79.9731 301.247C83.8569 305.009 90.055 304.898 93.8081 301.005C97.5611 297.112 97.4505 290.899 93.5666 287.137C89.6727 283.375 83.4846 283.486 79.7316 287.379Z" fill="#F5F5F5"/>
<path d="M466.428 15.4124H328.037V249.153H466.428V15.4124Z" fill="#E0E0E0"/>
<path d="M462.231 19.7998H331.77V245.301H462.231V19.7998Z" fill="#F5F5F5"/>
<path d="M449.01 31.8523H396.99V112.762H449.01V31.8523Z" fill="#029894"/>
<path d="M425.767 39.0032C425.767 40.0824 424.901 40.9498 423.825 40.9498C422.748 40.9498 421.883 40.0824 421.883 39.0032C421.883 37.924 422.748 37.0566 423.825 37.0566C424.901 37.0566 425.767 37.9341 425.767 39.0032Z" fill="#E0E0E0"/>
<path d="M396.588 135.283H344.568V216.193H396.588V135.283Z" fill="#029894"/>
<path d="M373.345 142.444C373.345 143.524 372.479 144.391 371.403 144.391C370.326 144.391 369.461 143.524 369.461 142.444C369.461 141.365 370.326 140.498 371.403 140.498C372.479 140.498 373.345 141.365 373.345 142.444Z" fill="#E0E0E0"/>
<path d="M388.288 31.8523H343.865V95.0406H388.288V31.8523Z" fill="#029894"/>
<path d="M367.692 37.5913C367.692 38.4889 366.968 39.205 366.083 39.205C365.187 39.205 364.473 38.4788 364.473 37.5913C364.473 36.6936 365.197 35.9775 366.083 35.9775C366.968 35.9775 367.692 36.6936 367.692 37.5913Z" fill="#E0E0E0"/>
<path d="M450.727 136.402L403.215 141.774L406.185 168.163L453.697 162.791L450.727 136.402Z" fill="#029894"/>
<path d="M427.529 145.743C428.44 145.743 429.179 145.002 429.179 144.088C429.179 143.175 428.44 142.434 427.529 142.434C426.618 142.434 425.879 143.175 425.879 144.088C425.879 145.002 426.618 145.743 427.529 145.743Z" fill="#E0E0E0"/>
<path d="M389.646 153.741C389.646 153.953 381.476 154.134 371.404 154.134C361.322 154.134 353.162 153.963 353.162 153.741C353.162 153.529 361.332 153.347 371.404 153.347C381.476 153.357 389.646 153.529 389.646 153.741Z" fill="#E0E0E0"/>
<path d="M389.646 159.53C389.646 159.742 381.476 159.923 371.404 159.923C361.322 159.923 353.162 159.752 353.162 159.53C353.162 159.318 361.332 159.137 371.404 159.137C381.476 159.147 389.646 159.318 389.646 159.53Z" fill="#E0E0E0"/>
<path d="M389.646 165.319C389.646 165.531 381.476 165.713 371.404 165.713C361.322 165.713 353.162 165.541 353.162 165.319C353.162 165.108 361.332 164.926 371.404 164.926C381.476 164.936 389.646 165.108 389.646 165.319Z" fill="#E0E0E0"/>
<path d="M389.646 171.109C389.646 171.32 381.476 171.502 371.404 171.502C361.322 171.502 353.162 171.331 353.162 171.109C353.162 170.897 361.332 170.715 371.404 170.715C381.476 170.725 389.646 170.897 389.646 171.109Z" fill="#E0E0E0"/>
<path d="M389.646 176.898C389.646 177.11 381.476 177.291 371.404 177.291C361.322 177.291 353.162 177.12 353.162 176.898C353.162 176.686 361.332 176.515 371.404 176.515C381.476 176.515 389.646 176.686 389.646 176.898Z" fill="#E0E0E0"/>
<path d="M389.646 182.687C389.646 182.899 381.476 183.081 371.404 183.081C361.322 183.081 353.162 182.909 353.162 182.687C353.162 182.465 361.332 182.294 371.404 182.294C381.476 182.294 389.646 182.475 389.646 182.687Z" fill="#E0E0E0"/>
<path d="M389.646 188.477C389.646 188.688 381.476 188.87 371.404 188.87C361.322 188.87 353.162 188.698 353.162 188.477C353.162 188.255 361.332 188.083 371.404 188.083C381.476 188.083 389.646 188.265 389.646 188.477Z" fill="#E0E0E0"/>
<path d="M446.273 147.538C446.303 147.75 438.233 149.071 428.262 150.473C418.281 151.885 410.171 152.853 410.141 152.641C410.111 152.43 418.17 151.108 428.151 149.696C438.133 148.304 446.243 147.326 446.273 147.538Z" fill="#E0E0E0"/>
<path d="M446.997 151.159C447.028 151.371 438.958 152.692 428.987 154.094C419.005 155.506 410.896 156.474 410.865 156.262C410.835 156.05 418.895 154.729 428.876 153.317C438.857 151.925 446.967 150.947 446.997 151.159Z" fill="#E0E0E0"/>
<path d="M447.661 154.507C447.692 154.719 439.632 156.04 429.651 157.452C419.669 158.864 411.56 159.833 411.529 159.621C411.499 159.409 419.559 158.088 429.54 156.676C439.521 155.264 447.631 154.296 447.661 154.507Z" fill="#E0E0E0"/>
<path d="M444.442 48.7767C444.442 48.9885 435.215 49.17 423.835 49.17C412.445 49.17 403.219 48.9985 403.219 48.7767C403.219 48.5648 412.445 48.3833 423.835 48.3833C435.215 48.3934 444.442 48.5648 444.442 48.7767Z" fill="#E0E0E0"/>
<path d="M444.442 52.2259C444.442 52.4377 435.215 52.6192 423.835 52.6192C412.445 52.6192 403.219 52.4478 403.219 52.2259C403.219 52.004 412.445 51.8325 423.835 51.8325C435.215 51.8325 444.442 52.004 444.442 52.2259Z" fill="#E0E0E0"/>
<path d="M444.442 55.6653C444.442 55.8771 435.215 56.0587 423.835 56.0587C412.445 56.0587 403.219 55.8872 403.219 55.6653C403.219 55.4535 412.445 55.272 423.835 55.272C435.215 55.272 444.442 55.4535 444.442 55.6653Z" fill="#E0E0E0"/>
<path d="M444.442 59.1045C444.442 59.3163 435.215 59.4979 423.835 59.4979C412.445 59.4979 403.219 59.3264 403.219 59.1045C403.219 58.8927 412.445 58.7112 423.835 58.7112C435.215 58.7213 444.442 58.8927 444.442 59.1045Z" fill="#E0E0E0"/>
<path d="M444.442 62.5437C444.442 62.7555 435.215 62.9371 423.835 62.9371C412.445 62.9371 403.219 62.7656 403.219 62.5437C403.219 62.3319 412.445 62.1504 423.835 62.1504C435.215 62.1605 444.442 62.3319 444.442 62.5437Z" fill="#E0E0E0"/>
<path d="M444.442 65.9932C444.442 66.205 435.215 66.3866 423.835 66.3866C412.445 66.3866 403.219 66.2151 403.219 65.9932C403.219 65.7713 412.445 65.5999 423.835 65.5999C435.215 65.5999 444.442 65.7713 444.442 65.9932Z" fill="#E0E0E0"/>
<path d="M444.442 69.4324C444.442 69.6442 435.215 69.8258 423.835 69.8258C412.445 69.8258 403.219 69.6543 403.219 69.4324C403.219 69.2206 412.445 69.0391 423.835 69.0391C435.215 69.0391 444.442 69.2206 444.442 69.4324Z" fill="#E0E0E0"/>
<path d="M444.442 79.6495C444.442 79.8613 435.215 80.0428 423.835 80.0428C412.445 80.0428 403.219 79.8713 403.219 79.6495C403.219 79.4376 412.445 79.2561 423.835 79.2561C435.215 79.2561 444.442 79.4376 444.442 79.6495Z" fill="#E0E0E0"/>
<path d="M444.735 83.2806C444.735 83.4924 435.508 83.6739 424.128 83.6739C412.738 83.6739 403.512 83.5024 403.512 83.2806C403.512 83.0688 412.738 82.8872 424.128 82.8872C435.508 82.8973 444.735 83.0688 444.735 83.2806Z" fill="#E0E0E0"/>
<path d="M445.026 86.9214C445.026 87.1332 435.799 87.3148 424.419 87.3148C413.029 87.3148 403.803 87.1433 403.803 86.9214C403.803 86.7096 413.029 86.5281 424.419 86.5281C435.789 86.5281 445.026 86.6995 445.026 86.9214Z" fill="#E0E0E0"/>
<path d="M445.307 90.5525C445.307 90.7643 436.081 90.9459 424.701 90.9459C413.311 90.9459 404.084 90.7744 404.084 90.5525C404.084 90.3306 413.311 90.1592 424.701 90.1592C436.081 90.1693 445.307 90.3407 445.307 90.5525Z" fill="#E0E0E0"/>
<path d="M445.6 94.1934C445.6 94.4052 436.374 94.5867 424.994 94.5867C413.604 94.5867 404.377 94.4153 404.377 94.1934C404.377 93.9816 413.604 93.8 424.994 93.8C436.374 93.8 445.6 93.9715 445.6 94.1934Z" fill="#E0E0E0"/>
<path d="M445.891 97.8245C445.891 98.0363 436.664 98.2179 425.284 98.2179C413.894 98.2179 404.678 98.0464 404.678 97.8245C404.678 97.6127 413.904 97.4312 425.284 97.4312C436.664 97.4412 445.891 97.6127 445.891 97.8245Z" fill="#E0E0E0"/>
<path d="M156.765 61.4848H126.942C124.879 61.4848 123.209 59.8106 123.209 57.743V16.3705C123.209 14.3029 124.879 12.6287 126.942 12.6287H145.858L160.498 27.7575V57.743C160.498 59.8106 158.828 61.4848 156.765 61.4848Z" fill="#F5F5F5"/>
<path d="M155.94 61.4849H127.767C125.252 61.4849 123.209 59.4375 123.209 56.916V46.6687H160.488V56.9261C160.498 59.4375 158.456 61.4849 155.94 61.4849Z" fill="#E0E0E0"/>
<path d="M136.43 56.23L137.365 55.1004C137.758 55.6349 138.201 55.9073 138.724 55.9073C139.398 55.9073 139.76 55.5038 139.76 54.697V51.2173H137.194V49.8557H141.44V54.5961C141.44 56.4015 140.535 57.289 138.814 57.289C137.828 57.289 136.963 56.9159 136.43 56.23Z" fill="#FAFAFA"/>
<path d="M142.438 56.6436L142.981 55.4737C143.484 55.7964 144.239 56.0183 144.933 56.0183C145.687 56.0183 145.969 55.8166 145.969 55.5039C145.969 54.5861 142.578 55.5241 142.578 53.2749C142.578 52.2058 143.534 51.4595 145.174 51.4595C145.949 51.4595 146.804 51.641 147.328 51.9537L146.784 53.1136C146.231 52.8009 145.677 52.7 145.164 52.7C144.43 52.7 144.118 52.932 144.118 53.2245C144.118 54.1827 147.509 53.2548 147.509 55.4737C147.509 56.5226 146.543 57.2589 144.862 57.2589C143.927 57.2488 142.961 56.9866 142.438 56.6436Z" fill="#FAFAFA"/>
<path d="M131.117 38.8823L132.284 37.5106C133.049 38.5999 134.035 39.1849 135.222 39.1849C136.812 39.1849 137.637 38.2166 137.637 36.3205V28.3829H132.536V26.6279H139.63V36.2297C139.63 39.3866 138.1 40.9398 135.212 40.9398C133.552 40.9197 132.023 40.1935 131.117 38.8823Z" fill="#FAFAFA"/>
<path d="M142.125 39.6287L142.93 38.0956C143.836 38.7411 145.284 39.2051 146.683 39.2051C148.474 39.2051 149.219 38.6604 149.219 37.7527C149.219 35.3523 142.467 37.43 142.467 33.1636C142.467 31.2473 144.178 29.9563 146.924 29.9563C148.313 29.9563 149.883 30.3194 150.818 30.9245L149.993 32.4576C149.027 31.8323 147.961 31.6104 146.914 31.6104C145.224 31.6104 144.399 32.2357 144.399 33.0829C144.399 35.6044 151.171 33.5469 151.171 37.7124C151.171 39.6489 149.4 40.8894 146.552 40.8894C144.761 40.8793 143.01 40.3347 142.125 39.6287Z" fill="#FAFAFA"/>
<path d="M145.857 12.6287V24.2779C145.857 26.1942 147.407 27.7575 149.329 27.7575H160.497L145.857 12.6287Z" fill="#EBEBEB"/>
<path d="M146.009 25.2966C146.009 25.2966 145.858 28.1207 149.068 29.0486C149.188 29.0789 149.309 29.1091 149.44 29.1293C150.899 29.3915 160.498 31.1061 160.498 30.8842C160.498 30.6422 160.498 27.7576 160.498 27.7576H149.329C149.329 27.7576 146.542 27.6668 146.009 25.2966Z" fill="#E0E0E0"/>
<path d="M0.755859 418.224L53.8622 382.278L311.194 381.037L322.966 418.758L0.755859 418.224Z" fill="#455A64"/>
<path d="M322.302 432.949L0.222656 432.717V417.518L322.443 418.526L322.302 432.949Z" fill="#455A64"/>
<path d="M314.393 418.446C314.393 418.587 244.846 418.678 159.069 418.637C73.2714 418.587 3.74414 418.436 3.74414 418.295C3.74414 418.153 73.2815 418.063 159.079 418.103C244.846 418.143 314.393 418.295 314.393 418.446Z" fill="#263238"/>
<path d="M234.28 84.9951H183.72C180.228 84.9951 177.391 82.1509 177.391 78.6511V8.49346C177.391 4.99364 180.228 2.14941 183.72 2.14941H215.787L240.609 27.7979V78.6511C240.609 82.1509 237.772 84.9951 234.28 84.9951Z" fill="#3B5998"/>
<g opacity="0.2">
<path d="M234.089 84.9952H183.911C180.309 84.9952 177.391 82.0703 177.391 78.4595V61.1117C177.391 60.4259 177.944 59.8611 178.638 59.8611H239.361C240.046 59.8611 240.609 60.4158 240.609 61.1117V78.4595C240.609 82.0703 237.691 84.9952 234.089 84.9952Z" fill="black"/>
</g>
<g opacity="0.2">
<path d="M215.787 2.14941V21.8976C215.787 25.1554 218.423 27.7979 221.673 27.7979H240.61L215.787 2.14941Z" fill="white"/>
</g>
<g opacity="0.2">
<path d="M216.039 23.6323C216.039 23.6323 215.787 28.4231 221.231 29.9965C221.432 30.0571 221.643 30.0974 221.855 30.1377C224.33 30.5815 240.61 33.4863 240.61 33.1131C240.61 32.7096 240.61 27.8079 240.61 27.8079H221.674C221.663 27.7978 216.934 27.6364 216.039 23.6323Z" fill="black"/>
</g>
<path d="M195.482 70.8043C195.482 67.829 197.756 65.7109 200.815 65.7109C202.516 65.7109 203.934 66.3262 204.86 67.4558L203.401 68.8073C202.737 68.0509 201.912 67.6474 200.926 67.6474C199.085 67.6474 197.777 68.9384 197.777 70.8043C197.777 72.6601 199.085 73.9612 200.926 73.9612C201.912 73.9612 202.737 73.5679 203.401 72.7913L204.86 74.1428C203.934 75.2825 202.516 75.9078 200.805 75.9078C197.756 75.9078 195.482 73.7797 195.482 70.8043Z" fill="#FAFAFA"/>
<path d="M205.535 74.768L206.31 73.0534C207.135 73.6586 208.373 74.0822 209.55 74.0822C210.898 74.0822 211.441 73.6283 211.441 73.0231C211.441 71.1774 205.726 72.4483 205.726 68.7871C205.726 67.1128 207.075 65.7209 209.872 65.7209C211.109 65.7209 212.367 66.0134 213.283 66.5984L212.578 68.3332C211.663 67.8087 210.727 67.5566 209.852 67.5566C208.503 67.5566 207.98 68.0609 207.98 68.6862C207.98 70.5017 213.695 69.251 213.695 72.8719C213.695 74.5159 212.337 75.9279 209.52 75.9279C207.98 75.9077 206.411 75.4438 205.535 74.768Z" fill="#FAFAFA"/>
<path d="M214.488 74.768L215.263 73.0534C216.088 73.6586 217.326 74.0822 218.513 74.0822C219.861 74.0822 220.405 73.6283 220.405 73.0231C220.405 71.1774 214.69 72.4483 214.69 68.7871C214.69 67.1128 216.038 65.7209 218.835 65.7209C220.073 65.7209 221.34 66.0134 222.246 66.5984L221.542 68.3332C220.626 67.8087 219.69 67.5566 218.815 67.5566C217.467 67.5566 216.943 68.0609 216.943 68.6862C216.943 70.5017 222.659 69.251 222.659 72.8719C222.659 74.5159 221.3 75.9279 218.483 75.9279C216.933 75.9077 215.364 75.4438 214.488 74.768Z" fill="#FAFAFA"/>
<path d="M198.691 38.9126C199.727 39.2253 200.2 39.891 200.2 41.4442V45.065C200.2 46.1241 200.743 46.7393 201.85 46.7393H202.252V49.5028H200.944C198.117 49.5028 196.678 48.0505 196.678 45.4483V41.3534C196.678 40.6272 196.296 40.2843 195.682 40.2843H194.938V37.5208H195.682C196.296 37.5208 196.678 37.1779 196.678 36.4517V32.3568C196.678 29.7546 198.127 28.3022 200.944 28.3022H202.252V31.0658H201.85C200.743 31.0658 200.2 31.681 200.2 32.74V36.3609C200.21 37.9444 199.737 38.6 198.691 38.9126Z" fill="#FAFAFA"/>
<path d="M223.04 37.5309V40.2944H222.295C221.681 40.2944 221.299 40.6373 221.299 41.3635V45.4584C221.299 48.0606 219.85 49.5129 217.033 49.5129H215.725V46.7494H216.127C217.234 46.7494 217.777 46.1342 217.777 45.0751V41.4543C217.777 39.891 218.25 39.2354 219.287 38.9227C218.25 38.6101 217.777 37.9444 217.777 36.3912V32.7703C217.777 31.7012 217.234 31.0961 216.127 31.0961H215.725V28.3325H217.033C219.86 28.3325 221.299 29.7849 221.299 32.3871V36.4819C221.299 37.2081 221.681 37.551 222.295 37.551H223.04V37.5309Z" fill="#FAFAFA"/>
<path d="M305.087 135.919H253.761C250.209 135.919 247.342 133.034 247.342 129.484V58.2676C247.342 54.7073 250.219 51.8328 253.761 51.8328H286.311L311.506 77.8645V129.484C311.506 133.045 308.638 135.919 305.087 135.919Z" fill="#3B5998"/>
<g opacity="0.2">
<path d="M304.574 135.919H254.275C250.441 135.919 247.332 132.802 247.332 128.96V110.402H311.506V128.96C311.506 132.813 308.407 135.919 304.574 135.919Z" fill="black"/>
</g>
<g opacity="0.2">
<path d="M286.312 51.8328V71.8735C286.312 75.1817 288.989 77.8645 292.289 77.8645H311.517L286.312 51.8328Z" fill="white"/>
</g>
<g opacity="0.2">
<path d="M286.574 73.6284C286.574 73.6284 286.322 78.4898 291.846 80.0834C292.058 80.1439 292.269 80.1843 292.48 80.2246C294.986 80.6785 311.517 83.6236 311.517 83.2403C311.517 82.8268 311.517 77.8544 311.517 77.8544H292.289C292.289 77.8645 287.49 77.7031 286.574 73.6284Z" fill="black"/>
</g>
<path d="M273.693 89.3425L265.986 92.1766L273.693 94.9805V97.8752L262.686 93.6794V90.6638L273.693 86.468V89.3425Z" fill="#FAFAFA"/>
<path d="M281.963 80.7593H285.183L277.546 102.605H274.326L281.963 80.7593Z" fill="#FAFAFA"/>
<path d="M296.613 90.6638V93.6794L285.605 97.8752V94.9805L293.313 92.1766L285.605 89.3425V86.468L296.613 90.6638Z" fill="#FAFAFA"/>
<path d="M271.068 119.903V128.546H269.076V125.006H265.162V128.546H263.17V119.903H265.162V123.312H269.076V119.903H271.068Z" fill="#FAFAFA"/>
<path d="M274.901 121.537H272.145V119.903H279.661V121.537H276.904V128.556H274.912V121.537H274.901Z" fill="#FAFAFA"/>
<path d="M288.576 128.546L288.566 123.362L286.031 127.638H285.135L282.61 123.473V128.546H280.738V119.903H282.388L285.618 125.278L288.798 119.903H290.438L290.458 128.546H288.576Z" fill="#FAFAFA"/>
<path d="M292.49 119.903H294.482V126.922H298.809V128.556H292.49V119.903Z" fill="#FAFAFA"/>
<path d="M124.346 238.755H31.1531C29.4527 238.755 28.0742 237.373 28.0742 235.669V81.3238C28.0742 79.6193 29.4527 78.2375 31.1531 78.2375H124.346C126.046 78.2375 127.425 79.6193 127.425 81.3238V235.669C127.425 237.373 126.046 238.755 124.346 238.755Z" fill="white"/>
<path d="M127.425 96.1704H28.0742V81.8686C28.0742 79.8615 29.6942 78.2275 31.7065 78.2275H123.933C125.865 78.2275 127.425 79.7908 127.425 81.7273V96.1704Z" fill="#E0E0E0"/>
<path d="M124.094 238.755C124.084 238.725 124.567 238.795 125.372 238.473C125.775 238.301 126.238 237.999 126.64 237.504C127.033 237 127.365 236.294 127.365 235.437C127.355 231.997 127.334 226.954 127.314 220.449C127.294 207.418 127.264 188.588 127.234 165.319C127.214 142.041 127.204 114.325 127.173 83.563V82.1207C127.173 81.6265 127.183 81.1827 127.053 80.749C126.821 79.8816 126.167 79.1353 125.352 78.7722C124.94 78.5805 124.497 78.4898 124.034 78.4999H122.575C121.599 78.4999 120.623 78.4999 119.637 78.4999C115.703 78.4999 111.729 78.4999 107.714 78.4999C99.6744 78.4999 91.474 78.4999 83.1227 78.5099C66.4201 78.5099 49.1238 78.5099 31.4149 78.52C30.3886 78.5099 29.3925 79.0546 28.829 79.9119C28.5574 80.3456 28.3763 80.8297 28.336 81.3441C28.3058 81.8585 28.326 82.4334 28.326 82.978C28.326 85.1868 28.326 87.3855 28.326 89.5742C28.326 93.9616 28.326 98.3187 28.326 102.635C28.326 111.289 28.326 119.802 28.326 128.183C28.3159 144.926 28.3159 161.083 28.3058 176.474C28.2958 191.866 28.2857 206.49 28.2857 220.167C28.2857 223.586 28.2857 226.954 28.2756 230.253C28.2756 231.907 28.2756 233.541 28.2756 235.154C28.1448 236.728 29.2718 238.19 30.7509 238.493C31.4652 238.624 32.3004 238.543 33.0651 238.563C33.8499 238.563 34.6247 238.563 35.4095 238.563C36.959 238.563 38.4985 238.563 40.0178 238.563C43.0565 238.563 46.0247 238.573 48.9326 238.573C72.1452 238.614 90.9307 238.634 103.931 238.654C110.42 238.674 115.451 238.694 118.882 238.705C120.583 238.715 121.881 238.725 122.766 238.735C123.642 238.735 124.094 238.755 124.094 238.755C124.094 238.755 123.642 238.775 122.766 238.785C121.881 238.795 120.583 238.795 118.882 238.815C115.451 238.826 110.42 238.846 103.931 238.866C90.9408 238.886 72.1553 238.916 48.9326 238.947C46.0348 238.947 43.0565 238.957 40.0178 238.957C38.4985 238.957 36.959 238.957 35.4095 238.957C34.6347 238.957 33.8499 238.957 33.0651 238.957C32.2702 238.926 31.5156 239.027 30.6603 238.876C29.8352 238.705 29.0806 238.22 28.5674 237.535C28.0543 236.869 27.8027 235.971 27.853 235.144C27.853 233.52 27.853 231.886 27.853 230.242C27.853 226.944 27.853 223.576 27.843 220.157C27.8329 206.47 27.8229 191.845 27.8229 176.464C27.8229 161.073 27.8128 144.926 27.8027 128.173C27.8027 119.802 27.8027 111.279 27.8027 102.625C27.8027 98.2985 27.8027 93.9414 27.8027 89.5641C27.8027 87.3755 27.8027 85.1767 27.8027 82.9679C27.8128 82.4031 27.7927 81.8887 27.8128 81.2937C27.853 80.6986 28.0643 80.1237 28.3863 79.6194C29.0303 78.6108 30.2075 77.9754 31.4049 77.9855C49.1137 77.9855 66.41 77.9855 83.1126 77.9956C91.464 77.9956 99.6644 77.9956 107.704 78.0056C111.718 78.0056 115.693 78.0056 119.627 78.0056C120.613 78.0056 121.589 78.0056 122.565 78.0056H124.024C124.537 77.9956 125.07 78.1065 125.543 78.3284C126.489 78.7621 127.244 79.6194 127.505 80.6179C127.656 81.1222 127.646 81.6567 127.636 82.1207V83.563C127.616 114.335 127.596 142.051 127.576 165.319C127.546 188.588 127.516 207.418 127.495 220.449C127.475 226.954 127.455 231.997 127.445 235.437C127.435 236.314 127.083 237.04 126.68 237.555C126.258 238.059 125.775 238.362 125.362 238.523C124.95 238.694 124.618 238.725 124.396 238.755C124.205 238.755 124.094 238.755 124.094 238.755Z" fill="#263238"/>
<path d="M42.7134 88.6059C42.7134 90.2297 41.4054 91.5409 39.7854 91.5409C38.1655 91.5409 36.8574 90.2297 36.8574 88.6059C36.8574 86.9821 38.1655 85.6709 39.7854 85.6709C41.4054 85.6709 42.7134 86.9821 42.7134 88.6059Z" fill="white"/>
<path d="M48.801 91.5409C50.4181 91.5409 51.729 90.2269 51.729 88.6059C51.729 86.9849 50.4181 85.6709 48.801 85.6709C47.184 85.6709 45.873 86.9849 45.873 88.6059C45.873 90.2269 47.184 91.5409 48.801 91.5409Z" fill="white"/>
<path d="M57.8264 91.5409C59.4435 91.5409 60.7544 90.2269 60.7544 88.6059C60.7544 86.9849 59.4435 85.6709 57.8264 85.6709C56.2093 85.6709 54.8984 86.9849 54.8984 88.6059C54.8984 90.2269 56.2093 91.5409 57.8264 91.5409Z" fill="white"/>
<path d="M71.3101 120.488H53.0076C51.9108 120.488 51.0254 119.6 51.0254 118.501C51.0254 117.401 51.9108 116.514 53.0076 116.514H71.3C72.3967 116.514 73.2822 117.401 73.2822 118.501C73.2922 119.6 72.3967 120.488 71.3101 120.488Z" fill="#263238"/>
<path d="M71.3101 130.906H53.0076C51.9108 130.906 51.0254 130.019 51.0254 128.919C51.0254 127.82 51.9108 126.932 53.0076 126.932H71.3C72.3967 126.932 73.2822 127.82 73.2822 128.919C73.2922 130.019 72.3967 130.906 71.3101 130.906Z" fill="#E0E0E0"/>
<path d="M71.8335 159.439H53.531C52.4343 159.439 51.5488 158.552 51.5488 157.453C51.5488 156.353 52.4343 155.466 53.531 155.466H71.8234C72.9202 155.466 73.8056 156.353 73.8056 157.453C73.8157 158.542 72.9302 159.439 71.8335 159.439Z" fill="#E0E0E0"/>
<path d="M71.3101 141.668H53.0076C51.9108 141.668 51.0254 140.78 51.0254 139.681C51.0254 138.582 51.9108 137.694 53.0076 137.694H71.3C72.3967 137.694 73.2822 138.582 73.2822 139.681C73.2922 140.78 72.3967 141.668 71.3101 141.668Z" fill="#029894"/>
<path d="M71.3101 201.689H53.0076C51.9108 201.689 51.0254 200.802 51.0254 199.702C51.0254 198.603 51.9108 197.715 53.0076 197.715H71.3C72.3967 197.715 73.2822 198.603 73.2822 199.702C73.2922 200.802 72.3967 201.689 71.3101 201.689Z" fill="#029894"/>
<path d="M100.621 120.488H82.3181C81.2214 120.488 80.3359 119.6 80.3359 118.501C80.3359 117.401 81.2214 116.514 82.3181 116.514H100.611C101.707 116.514 102.593 117.401 102.593 118.501C102.603 119.6 101.717 120.488 100.621 120.488Z" fill="#455A64"/>
<path d="M120.432 130.906H82.1471C81.1409 130.906 80.3359 130.019 80.3359 128.919C80.3359 127.82 81.1509 126.932 82.1471 126.932H120.422C121.428 126.932 122.233 127.82 122.233 128.919C122.243 130.019 121.428 130.906 120.432 130.906Z" fill="#263238"/>
<path d="M119.396 141.668H80.8595C79.8332 141.668 78.998 140.78 78.998 139.681C78.998 138.582 79.8332 137.694 80.8595 137.694H119.396C120.423 137.694 121.258 138.582 121.258 139.681C121.268 140.78 120.433 141.668 119.396 141.668Z" fill="#E0E0E0"/>
<path d="M91.5545 150.372H53.0177C51.9914 150.372 51.1562 149.484 51.1562 148.385C51.1562 147.286 51.9914 146.398 53.0177 146.398H91.5545C92.5808 146.398 93.416 147.286 93.416 148.385C93.426 149.484 92.5909 150.372 91.5545 150.372Z" fill="#E0E0E0"/>
<path d="M44.0423 118.501C44.0423 119.62 43.1367 120.518 42.0299 120.518C40.9131 120.518 40.0176 119.61 40.0176 118.501C40.0176 117.381 40.9231 116.483 42.0299 116.483C43.1367 116.483 44.0423 117.381 44.0423 118.501Z" fill="#455A64"/>
<path d="M44.0423 108.536C44.0423 109.655 43.1367 110.553 42.0299 110.553C40.9131 110.553 40.0176 109.645 40.0176 108.536C40.0176 107.416 40.9231 106.519 42.0299 106.519C43.1367 106.509 44.0423 107.416 44.0423 108.536Z" fill="#455A64"/>
<path d="M44.0423 128.889C44.0423 130.009 43.1367 130.906 42.0299 130.906C40.9131 130.906 40.0176 129.999 40.0176 128.889C40.0176 127.77 40.9231 126.872 42.0299 126.872C43.1367 126.862 44.0423 127.77 44.0423 128.889Z" fill="#455A64"/>
<path d="M44.0423 139.681C44.0423 140.801 43.1367 141.698 42.0299 141.698C40.9131 141.698 40.0176 140.79 40.0176 139.681C40.0176 138.572 40.9231 137.664 42.0299 137.664C43.1367 137.664 44.0423 138.561 44.0423 139.681Z" fill="#455A64"/>
<path d="M71.8335 188.567H53.531C52.4343 188.567 51.5488 187.68 51.5488 186.58C51.5488 185.481 52.4343 184.594 53.531 184.594H71.8234C72.9202 184.594 73.8056 185.481 73.8056 186.58C73.8157 187.68 72.9302 188.567 71.8335 188.567Z" fill="#E0E0E0"/>
<path d="M71.3101 170.796H53.0076C51.9108 170.796 51.0254 169.909 51.0254 168.809C51.0254 167.71 51.9108 166.822 53.0076 166.822H71.3C72.3967 166.822 73.2822 167.71 73.2822 168.809C73.2922 169.909 72.3967 170.796 71.3101 170.796Z" fill="#029894"/>
<path d="M119.396 170.796H80.8595C79.8332 170.796 78.998 169.909 78.998 168.809C78.998 167.71 79.8332 166.822 80.8595 166.822H119.396C120.423 166.822 121.258 167.71 121.258 168.809C121.268 169.909 120.433 170.796 119.396 170.796Z" fill="#E0E0E0"/>
<path d="M91.5545 179.5H53.0177C51.9914 179.5 51.1562 178.613 51.1562 177.513C51.1562 176.414 51.9914 175.526 53.0177 175.526H91.5545C92.5808 175.526 93.416 176.414 93.416 177.513C93.426 178.613 92.5909 179.5 91.5545 179.5Z" fill="#E0E0E0"/>
<path d="M44.0423 168.809C44.0423 169.929 43.1367 170.826 42.0299 170.826C40.9131 170.826 40.0176 169.919 40.0176 168.809C40.0176 167.7 40.9231 166.792 42.0299 166.792C43.1367 166.792 44.0423 167.69 44.0423 168.809Z" fill="#455A64"/>
<path d="M63.553 110.936H52.1027C51.5694 110.936 51.1367 110.503 51.1367 109.968V108.062C51.1367 107.527 51.5694 107.094 52.1027 107.094H63.553C64.0863 107.094 64.519 107.527 64.519 108.062V109.968C64.519 110.503 64.0863 110.936 63.553 110.936Z" fill="#455A64"/>
<path d="M71.3101 212.3H53.0076C51.9108 212.3 51.0254 211.412 51.0254 210.313C51.0254 209.213 51.9108 208.326 53.0076 208.326H71.3C72.3967 208.326 73.2822 209.213 73.2822 210.313C73.2922 211.412 72.3967 212.3 71.3101 212.3Z" fill="#263238"/>
<path d="M100.621 212.3H82.3181C81.2214 212.3 80.3359 211.412 80.3359 210.313C80.3359 209.213 81.2214 208.326 82.3181 208.326H100.611C101.707 208.326 102.593 209.213 102.593 210.313C102.603 211.412 101.717 212.3 100.621 212.3Z" fill="#455A64"/>
<path d="M44.0423 210.313C44.0423 211.432 43.1367 212.33 42.0299 212.33C40.9131 212.33 40.0176 211.422 40.0176 210.313C40.0176 209.193 40.9231 208.295 42.0299 208.295C43.1367 208.285 44.0423 209.193 44.0423 210.313Z" fill="#455A64"/>
<path d="M44.0423 219.894C44.0423 221.014 43.1367 221.912 42.0299 221.912C40.9131 221.912 40.0176 221.004 40.0176 219.894C40.0176 218.775 40.9231 217.877 42.0299 217.877C43.1367 217.877 44.0423 218.775 44.0423 219.894Z" fill="#455A64"/>
<path d="M63.553 222.295H52.1027C51.5694 222.295 51.1367 221.861 51.1367 221.327V219.42C51.1367 218.886 51.5694 218.452 52.1027 218.452H63.553C64.0863 218.452 64.519 218.886 64.519 219.42V221.327C64.519 221.861 64.0863 222.295 63.553 222.295Z" fill="#455A64"/>
<path d="M315.52 213.974H134.055V329.679H315.52V213.974Z" fill="white"/>
<path d="M166.736 213.974H134.055V329.679H166.736V213.974Z" fill="#EBEBEB"/>
<path d="M148.423 226.46C148.594 226.359 148.775 226.279 148.966 226.218L149.077 225.673L149.982 225.653L150.113 226.188C150.304 226.238 150.486 226.309 150.667 226.41L151.129 226.107L151.784 226.743L151.502 227.217C151.602 227.388 151.683 227.57 151.743 227.761L152.287 227.872L152.307 228.78L151.773 228.911C151.723 229.103 151.653 229.284 151.552 229.466L151.854 229.93L151.22 230.585L150.747 230.303C150.576 230.404 150.395 230.484 150.204 230.535L150.093 231.08L149.188 231.1L149.057 230.565C148.866 230.515 148.684 230.444 148.503 230.343L148.041 230.646L147.386 230.01L147.668 229.536C147.568 229.365 147.487 229.183 147.427 228.992L146.883 228.881L146.863 227.973L147.397 227.842C147.447 227.65 147.517 227.469 147.618 227.287L147.316 226.823L147.95 226.168L148.423 226.46ZM148.906 227.681C148.534 228.074 148.544 228.689 148.926 229.062C149.318 229.436 149.932 229.425 150.304 229.042C150.677 228.649 150.667 228.034 150.284 227.66C149.902 227.277 149.278 227.287 148.906 227.681Z" fill="#E0E0E0"/>
<path d="M155.969 252.028H141.721C140.916 252.028 140.252 251.373 140.252 250.556C140.252 249.749 140.906 249.083 141.721 249.083H155.969C156.773 249.083 157.438 249.739 157.438 250.556C157.438 251.373 156.773 252.028 155.969 252.028Z" fill="#E0E0E0"/>
<path d="M155.969 244.544H141.721C140.916 244.544 140.252 243.889 140.252 243.072C140.252 242.265 140.906 241.599 141.721 241.599H155.969C156.773 241.599 157.438 242.255 157.438 243.072C157.438 243.889 156.773 244.544 155.969 244.544Z" fill="#E0E0E0"/>
<path d="M155.969 237.706H141.721C140.916 237.706 140.252 237.05 140.252 236.234C140.252 235.427 140.906 234.761 141.721 234.761H155.969C156.773 234.761 157.438 235.417 157.438 236.234C157.438 237.05 156.773 237.706 155.969 237.706Z" fill="#E0E0E0"/>
<path d="M194.255 231.069H180.762C179.957 231.069 179.293 230.414 179.293 229.597C179.293 228.79 179.947 228.124 180.762 228.124H194.255C195.06 228.124 195.724 228.78 195.724 229.597C195.714 230.414 195.06 231.069 194.255 231.069Z" fill="#263238"/>
<path d="M194.255 238.755H180.762C179.957 238.755 179.293 238.099 179.293 237.282C179.293 236.475 179.947 235.81 180.762 235.81H194.255C195.06 235.81 195.724 236.465 195.724 237.282C195.714 238.099 195.06 238.755 194.255 238.755Z" fill="#E0E0E0"/>
<path d="M194.255 246.693H180.762C179.957 246.693 179.293 246.037 179.293 245.22C179.293 244.413 179.947 243.748 180.762 243.748H194.255C195.06 243.748 195.724 244.403 195.724 245.22C195.714 246.037 195.06 246.693 194.255 246.693Z" fill="#029894"/>
<path d="M188.49 262.043H180.752C179.947 262.043 179.283 261.388 179.283 260.571C179.283 259.764 179.937 259.098 180.752 259.098H188.49C189.295 259.098 189.959 259.754 189.959 260.571C189.959 261.388 189.305 262.043 188.49 262.043Z" fill="#263238"/>
<path d="M188.49 270.001H180.752C179.947 270.001 179.283 269.345 179.283 268.528C179.283 267.722 179.937 267.056 180.752 267.056H188.49C189.295 267.056 189.959 267.711 189.959 268.528C189.959 269.345 189.305 270.001 188.49 270.001Z" fill="#263238"/>
<path d="M211.49 270.001H197.303C196.498 270.001 195.834 269.345 195.834 268.528C195.834 267.722 196.488 267.056 197.303 267.056H211.49C212.295 267.056 212.959 267.711 212.959 268.528C212.959 269.345 212.295 270.001 211.49 270.001Z" fill="#E0E0E0"/>
<path d="M203.461 277.071H189.274C188.469 277.071 187.805 276.416 187.805 275.599C187.805 274.792 188.459 274.126 189.274 274.126H203.461C204.266 274.126 204.93 274.782 204.93 275.599C204.93 276.416 204.276 277.071 203.461 277.071Z" fill="#029894"/>
<path d="M206.611 285.14H196.861C196.308 285.14 195.865 284.696 195.865 284.142V283.214C195.865 282.659 196.308 282.215 196.861 282.215H206.611C207.165 282.215 207.607 282.659 207.607 283.214V284.142C207.607 284.696 207.165 285.14 206.611 285.14Z" fill="#029894"/>
<path d="M206.148 300.965H197.334C196.529 300.965 195.865 300.309 195.865 299.492C195.865 298.685 196.519 298.02 197.334 298.02H206.148C206.953 298.02 207.617 298.675 207.617 299.492C207.607 300.299 206.953 300.965 206.148 300.965Z" fill="#029894"/>
<path d="M206.148 317.667H197.334C196.529 317.667 195.865 317.012 195.865 316.195C195.865 315.388 196.519 314.722 197.334 314.722H206.148C206.953 314.722 207.617 315.378 207.617 316.195C207.607 317.012 206.953 317.667 206.148 317.667Z" fill="#029894"/>
<path d="M227.82 317.667H212.366C211.561 317.667 210.896 317.012 210.896 316.195C210.896 315.388 211.55 314.722 212.366 314.722H227.82C228.625 314.722 229.29 315.378 229.29 316.195C229.279 317.012 228.625 317.667 227.82 317.667Z" fill="#455A64"/>
<path d="M238.638 317.667H236.414C235.609 317.667 234.945 317.012 234.945 316.195C234.945 315.388 235.599 314.722 236.414 314.722H238.638C239.443 314.722 240.107 315.378 240.107 316.195C240.107 317.012 239.443 317.667 238.638 317.667Z" fill="#E0E0E0"/>
<path d="M226.895 300.965H213.834C213.029 300.965 212.365 300.309 212.365 299.492C212.365 298.685 213.019 298.02 213.834 298.02H226.895C227.699 298.02 228.364 298.675 228.364 299.492C228.354 300.299 227.699 300.965 226.895 300.965Z" fill="#E0E0E0"/>
<path d="M255.531 308.297H213.834C213.029 308.297 212.365 307.642 212.365 306.825C212.365 306.018 213.019 305.352 213.834 305.352H255.541C256.346 305.352 257.01 306.008 257.01 306.825C257 307.642 256.346 308.297 255.531 308.297Z" fill="#E0E0E0"/>
<path d="M260.35 300.965H233.727C232.922 300.965 232.258 300.309 232.258 299.492C232.258 298.685 232.912 298.02 233.727 298.02H260.35C261.155 298.02 261.819 298.675 261.819 299.492C261.819 300.299 261.165 300.965 260.35 300.965Z" fill="#455A64"/>
<path d="M224.399 285.14H212.436C211.882 285.14 211.439 284.696 211.439 284.142V283.214C211.439 282.659 211.882 282.215 212.436 282.215H224.399C224.953 282.215 225.395 282.659 225.395 283.214V284.142C225.405 284.696 224.953 285.14 224.399 285.14Z" fill="#455A64"/>
<path d="M233.948 285.14H230.275C229.722 285.14 229.279 284.696 229.279 284.142V283.214C229.279 282.659 229.722 282.215 230.275 282.215H233.948C234.501 282.215 234.944 282.659 234.944 283.214V284.142C234.954 284.696 234.501 285.14 233.948 285.14Z" fill="#E0E0E0"/>
<path d="M254.988 285.14H240.268C239.714 285.14 239.271 284.696 239.271 284.142V283.214C239.271 282.659 239.714 282.215 240.268 282.215H254.988C255.541 282.215 255.984 282.659 255.984 283.214V284.142C255.984 284.696 255.541 285.14 254.988 285.14Z" fill="#E0E0E0"/>
<path d="M213.08 277.071H209.92C209.115 277.071 208.451 276.416 208.451 275.599C208.451 274.792 209.105 274.126 209.92 274.126H213.08C213.885 274.126 214.549 274.782 214.549 275.599C214.539 276.416 213.885 277.071 213.08 277.071Z" fill="#263238"/>
<path d="M239.864 277.071H219.731C218.926 277.071 218.262 276.416 218.262 275.599C218.262 274.792 218.916 274.126 219.731 274.126H239.864C240.669 274.126 241.334 274.782 241.334 275.599C241.323 276.416 240.669 277.071 239.864 277.071Z" fill="#E0E0E0"/>
<path d="M215.868 231.069H202.375C201.57 231.069 200.906 230.414 200.906 229.597C200.906 228.79 201.56 228.124 202.375 228.124H215.868C216.673 228.124 217.337 228.78 217.337 229.597C217.337 230.414 216.683 231.069 215.868 231.069Z" fill="#455A64"/>
<path d="M233.255 238.755H202.375C201.57 238.755 200.906 238.099 200.906 237.282C200.906 236.475 201.56 235.81 202.375 235.81H233.255C234.06 235.81 234.724 236.465 234.724 237.282C234.724 238.099 234.07 238.755 233.255 238.755Z" fill="#263238"/>
<path d="M266.509 246.693H202.375C201.57 246.693 200.906 246.037 200.906 245.22C200.906 244.413 201.56 243.748 202.375 243.748H266.509C267.314 243.748 267.978 244.403 267.978 245.22C267.968 246.037 267.314 246.693 266.509 246.693Z" fill="#E0E0E0"/>
<path d="M232.611 252.28H202.375C201.57 252.28 200.906 251.624 200.906 250.807C200.906 250.001 201.56 249.335 202.375 249.335H232.611C233.416 249.335 234.08 249.991 234.08 250.807C234.08 251.624 233.426 252.28 232.611 252.28Z" fill="#E0E0E0"/>
<path d="M226.433 262.043H196.198C195.393 262.043 194.729 261.388 194.729 260.571C194.729 259.764 195.383 259.098 196.198 259.098H226.433C227.238 259.098 227.902 259.754 227.902 260.571C227.892 261.388 227.238 262.043 226.433 262.043Z" fill="#455A64"/>
<path d="M243.357 262.043H233.225C232.42 262.043 231.756 261.388 231.756 260.571C231.756 259.764 232.41 259.098 233.225 259.098H243.357C244.162 259.098 244.826 259.754 244.826 260.571C244.826 261.388 244.162 262.043 243.357 262.043Z" fill="#029894"/>
<path d="M269.275 261.993H250.127C249.322 261.993 248.658 261.337 248.658 260.52C248.658 259.714 249.312 259.048 250.127 259.048H269.275C270.08 259.048 270.744 259.703 270.744 260.52C270.734 261.337 270.08 261.993 269.275 261.993Z" fill="#263238"/>
<path d="M295.326 261.993H276.178C275.373 261.993 274.709 261.337 274.709 260.52C274.709 259.714 275.363 259.048 276.178 259.048H295.326C296.131 259.048 296.795 259.703 296.795 260.52C296.795 261.337 296.131 261.993 295.326 261.993Z" fill="#E0E0E0"/>
<path d="M149.801 259.935H141.721C140.916 259.935 140.252 259.28 140.252 258.463C140.252 257.656 140.906 256.99 141.721 256.99H149.801C150.606 256.99 151.27 257.646 151.27 258.463C151.26 259.28 150.606 259.935 149.801 259.935Z" fill="#E0E0E0"/>
<path d="M147.387 283.688H141.733C140.928 283.688 140.264 283.032 140.264 282.215C140.264 281.408 140.918 280.743 141.733 280.743H147.387C148.192 280.743 148.856 281.398 148.856 282.215C148.846 283.032 148.192 283.688 147.387 283.688Z" fill="#E0E0E0"/>
<path d="M157.439 267.853H141.733C140.928 267.853 140.264 267.197 140.264 266.38C140.264 265.573 140.918 264.908 141.733 264.908H157.439C158.244 264.908 158.908 265.563 158.908 266.38C158.898 267.197 158.244 267.853 157.439 267.853Z" fill="#E0E0E0"/>
<path d="M154.681 275.77H141.721C140.916 275.77 140.252 275.115 140.252 274.298C140.252 273.491 140.906 272.825 141.721 272.825H154.681C155.486 272.825 156.15 273.481 156.15 274.298C156.14 275.115 155.486 275.77 154.681 275.77Z" fill="#E0E0E0"/>
<path d="M174.14 229.607C174.14 230.434 173.476 231.1 172.651 231.1C171.826 231.1 171.162 230.434 171.162 229.607C171.162 228.78 171.826 228.114 172.651 228.114C173.476 228.114 174.14 228.78 174.14 229.607Z" fill="#455A64"/>
<path d="M172.651 223.263C173.474 223.263 174.14 222.595 174.14 221.77C174.14 220.946 173.474 220.278 172.651 220.278C171.829 220.278 171.162 220.946 171.162 221.77C171.162 222.595 171.829 223.263 172.651 223.263Z" fill="#455A64"/>
<path d="M172.651 238.755C173.474 238.755 174.14 238.087 174.14 237.262C174.14 236.438 173.474 235.77 172.651 235.77C171.829 235.77 171.162 236.438 171.162 237.262C171.162 238.087 171.829 238.755 172.651 238.755Z" fill="#455A64"/>
<path d="M172.651 246.713C173.474 246.713 174.14 246.044 174.14 245.22C174.14 244.396 173.474 243.727 172.651 243.727C171.829 243.727 171.162 244.396 171.162 245.22C171.162 246.044 171.829 246.713 172.651 246.713Z" fill="#455A64"/>
<path d="M172.651 254.681C173.474 254.681 174.14 254.012 174.14 253.188C174.14 252.363 173.474 251.695 172.651 251.695C171.829 251.695 171.162 252.363 171.162 253.188C171.162 254.012 171.829 254.681 172.651 254.681Z" fill="#455A64"/>
<path d="M174.14 261.146C174.14 261.973 173.476 262.638 172.651 262.638C171.826 262.638 171.162 261.973 171.162 261.146C171.162 260.319 171.826 259.653 172.651 259.653C173.476 259.663 174.14 260.329 174.14 261.146Z" fill="#455A64"/>
<path d="M172.651 270.606C173.474 270.606 174.14 269.938 174.14 269.114C174.14 268.289 173.474 267.621 172.651 267.621C171.829 267.621 171.162 268.289 171.162 269.114C171.162 269.938 171.829 270.606 172.651 270.606Z" fill="#455A64"/>
<path d="M172.651 278.564C173.474 278.564 174.14 277.896 174.14 277.071C174.14 276.247 173.474 275.579 172.651 275.579C171.829 275.579 171.162 276.247 171.162 277.071C171.162 277.896 171.829 278.564 172.651 278.564Z" fill="#455A64"/>
<path d="M174.14 285.039C174.14 285.866 173.476 286.532 172.651 286.532C171.826 286.532 171.162 285.866 171.162 285.039C171.162 284.212 171.826 283.546 172.651 283.546C173.476 283.546 174.14 284.212 174.14 285.039Z" fill="#455A64"/>
<path d="M174.14 292.997C174.14 293.824 173.476 294.49 172.651 294.49C171.826 294.49 171.162 293.824 171.162 292.997C171.162 292.17 171.826 291.504 172.651 291.504C173.476 291.504 174.14 292.18 174.14 292.997Z" fill="#455A64"/>
<path d="M172.651 302.458C173.474 302.458 174.14 301.789 174.14 300.965C174.14 300.14 173.474 299.472 172.651 299.472C171.829 299.472 171.162 300.14 171.162 300.965C171.162 301.789 171.829 302.458 172.651 302.458Z" fill="#455A64"/>
<path d="M174.14 308.923C174.14 309.75 173.476 310.415 172.651 310.415C171.826 310.415 171.162 309.75 171.162 308.923C171.162 308.096 171.826 307.43 172.651 307.43C173.476 307.43 174.14 308.096 174.14 308.923Z" fill="#455A64"/>
<path d="M172.651 318.383C173.474 318.383 174.14 317.715 174.14 316.89C174.14 316.066 173.474 315.398 172.651 315.398C171.829 315.398 171.162 316.066 171.162 316.89C171.162 317.715 171.829 318.383 172.651 318.383Z" fill="#455A64"/>
<path d="M311.666 198.199H139.488C136.49 198.199 134.055 200.64 134.055 203.646V213.974H315.52V202.062C315.52 199.934 313.789 198.199 311.666 198.199Z" fill="#E0E0E0"/>
<path d="M143.433 208.729C144.628 208.729 145.596 207.758 145.596 206.561C145.596 205.363 144.628 204.392 143.433 204.392C142.238 204.392 141.27 205.363 141.27 206.561C141.27 207.758 142.238 208.729 143.433 208.729Z" fill="white"/>
<path d="M152.247 206.561C152.247 207.761 151.281 208.729 150.083 208.729C148.886 208.729 147.92 207.761 147.92 206.561C147.92 205.361 148.886 204.392 150.083 204.392C151.281 204.402 152.247 205.371 152.247 206.561Z" fill="white"/>
<path d="M158.897 206.561C158.897 207.761 157.931 208.729 156.734 208.729C155.536 208.729 154.57 207.761 154.57 206.561C154.57 205.361 155.536 204.392 156.734 204.392C157.931 204.402 158.897 205.371 158.897 206.561Z" fill="white"/>
<path d="M172.652 327.874L187.987 344.496L201.912 327.874H172.652Z" fill="white"/>
<path d="M310.6 329.68C310.59 329.639 311.173 329.73 312.189 329.387C312.693 329.216 313.296 328.903 313.88 328.368C314.463 327.844 315.017 327.057 315.289 326.049C315.439 325.544 315.47 325 315.46 324.405C315.46 323.82 315.46 323.194 315.45 322.549C315.45 321.248 315.439 319.836 315.439 318.293C315.429 315.216 315.419 311.666 315.419 307.672C315.399 291.686 315.369 268.569 315.339 239.996C315.329 232.855 315.329 225.371 315.319 217.575C315.319 213.671 315.309 209.698 315.309 205.643C315.299 204.644 315.339 203.585 315.278 202.617C315.168 201.649 314.765 200.701 314.091 199.975C313.437 199.228 312.532 198.724 311.566 198.512C310.61 198.341 309.523 198.442 308.487 198.411C291.724 198.421 273.824 198.432 254.978 198.432C236.132 198.432 216.35 198.442 195.855 198.452C185.601 198.452 175.167 198.452 164.582 198.452C159.29 198.452 153.957 198.452 148.584 198.452C145.897 198.452 143.211 198.452 140.504 198.452C139.84 198.462 139.126 198.432 138.502 198.472C137.868 198.532 137.244 198.734 136.681 199.057C135.564 199.692 134.719 200.802 134.437 202.062C134.226 202.92 134.336 203.898 134.316 204.836V207.68C134.316 209.576 134.316 211.463 134.316 213.349C134.316 217.121 134.316 220.873 134.316 224.604C134.316 232.068 134.316 239.471 134.316 246.783C134.316 261.408 134.306 275.7 134.306 289.588C134.306 296.527 134.306 303.376 134.296 310.103C134.296 313.472 134.296 316.8 134.296 320.108C134.306 321.752 134.276 323.426 134.306 325.03C134.377 326.593 135.312 328.056 136.661 328.822C137.325 329.216 138.09 329.407 138.854 329.438C139.659 329.438 140.464 329.438 141.259 329.448C142.859 329.448 144.459 329.448 146.048 329.448C149.228 329.448 152.367 329.448 155.486 329.448C161.715 329.448 167.802 329.458 173.759 329.458H173.859L173.93 329.528C178.759 334.622 183.438 339.564 187.976 344.355L187.664 344.365C191.971 339.231 196.106 334.309 200.08 329.559L200.141 329.488H200.231C234.2 329.528 261.79 329.559 280.897 329.579C290.446 329.599 297.871 329.619 302.912 329.629C305.428 329.639 307.35 329.649 308.648 329.659C309.936 329.659 310.6 329.68 310.6 329.68C310.6 329.68 309.936 329.7 308.648 329.71C307.35 329.72 305.428 329.73 302.912 329.74C297.861 329.75 290.436 329.77 280.897 329.791C261.79 329.811 234.2 329.841 200.231 329.881L200.382 329.811C196.408 334.561 192.283 339.493 187.976 344.637L187.825 344.819L187.664 344.647C183.116 339.866 178.427 334.924 173.598 329.841L173.759 329.912C167.812 329.912 161.715 329.922 155.486 329.922C152.377 329.922 149.228 329.922 146.048 329.922C144.459 329.922 142.859 329.922 141.259 329.922C140.454 329.922 139.649 329.922 138.844 329.912C137.999 329.881 137.154 329.669 136.419 329.236C134.94 328.399 133.904 326.785 133.823 325.06C133.793 323.396 133.813 321.772 133.803 320.108C133.803 316.8 133.803 313.461 133.803 310.103C133.803 303.376 133.803 296.537 133.793 289.588C133.793 275.7 133.793 261.408 133.783 246.783C133.783 239.471 133.783 232.078 133.783 224.604C133.783 220.873 133.783 217.121 133.783 213.349C133.783 211.463 133.783 209.576 133.783 207.68V204.836V203.414C133.773 202.95 133.803 202.426 133.924 201.941C134.246 200.539 135.172 199.299 136.419 198.603C137.043 198.25 137.737 198.028 138.442 197.958C139.166 197.907 139.81 197.947 140.494 197.927C143.191 197.927 145.887 197.927 148.574 197.927C153.947 197.927 159.28 197.927 164.572 197.927C175.157 197.927 185.591 197.927 195.844 197.927C216.35 197.937 236.132 197.937 254.968 197.947C273.814 197.958 291.714 197.968 308.477 197.968C309.523 197.998 310.549 197.887 311.646 198.079C312.703 198.311 313.689 198.865 314.403 199.682C315.128 200.479 315.57 201.508 315.691 202.567C315.751 203.636 315.711 204.614 315.721 205.643C315.721 209.698 315.711 213.671 315.711 217.575C315.701 225.371 315.701 232.855 315.691 239.996C315.661 268.559 315.631 291.686 315.61 307.672C315.6 311.666 315.59 315.216 315.59 318.293C315.59 319.826 315.58 321.248 315.58 322.549C315.58 323.194 315.58 323.82 315.57 324.405C315.58 324.99 315.54 325.565 315.379 326.069C315.087 327.098 314.524 327.884 313.92 328.419C313.326 328.963 312.703 329.266 312.189 329.427C311.676 329.599 311.264 329.649 310.992 329.67C310.741 329.69 310.6 329.68 310.6 329.68Z" fill="#263238"/>
<path d="M284.772 174.659H148.303C146.542 174.659 145.113 173.227 145.113 171.462V101.728C145.113 99.9625 146.542 98.5303 148.303 98.5303H285.395C287.156 98.5303 288.585 99.9625 288.585 101.728V170.846C288.585 172.954 286.874 174.659 284.772 174.659Z" fill="white"/>
<path d="M288.585 114.88H145.123V102.03C145.123 100.094 146.683 98.5303 148.615 98.5303H285.093C287.025 98.5303 288.585 100.094 288.585 102.03V114.88Z" fill="#E0E0E0"/>
<path d="M284.549 174.659C284.549 174.639 284.932 174.669 285.646 174.477C286.33 174.276 287.407 173.741 288.081 172.46C288.423 171.825 288.574 171.028 288.524 170.14C288.524 169.253 288.514 168.274 288.514 167.215C288.504 165.108 288.504 162.667 288.493 159.923C288.473 148.94 288.443 133.075 288.413 113.468C288.413 111.017 288.403 108.505 288.403 105.944C288.403 104.663 288.403 103.362 288.403 102.05C288.514 100.78 287.819 99.5289 286.662 98.9943C286.089 98.7119 285.465 98.7018 284.781 98.7119C284.107 98.7119 283.432 98.7119 282.748 98.7119C281.39 98.7119 280.011 98.7119 278.623 98.7119C275.846 98.7119 273.018 98.7119 270.141 98.722C258.64 98.7321 246.344 98.7422 233.415 98.7422C207.526 98.7825 179.091 98.7825 149.238 98.7926C148.755 98.7926 148.322 98.7825 147.91 98.8834C147.487 98.9842 147.094 99.1658 146.742 99.4179C146.038 99.9222 145.555 100.709 145.424 101.566C145.354 101.98 145.384 102.454 145.374 102.918V104.31V107.083C145.374 110.775 145.374 114.446 145.374 118.097C145.374 125.389 145.374 132.57 145.374 139.62C145.374 146.681 145.374 153.61 145.364 160.397C145.364 163.796 145.364 167.145 145.364 170.473C145.293 172.057 146.28 173.59 147.728 174.144C148.443 174.457 149.218 174.427 150.043 174.427C150.858 174.427 151.663 174.427 152.478 174.427C178.347 174.447 201.64 174.467 221.21 174.487C240.77 174.518 256.597 174.548 267.545 174.568C273.008 174.588 277.254 174.608 280.142 174.619C281.571 174.629 282.668 174.639 283.422 174.649C284.167 174.649 284.549 174.659 284.549 174.659C284.549 174.659 284.167 174.679 283.432 174.689C282.688 174.699 281.591 174.699 280.152 174.719C277.264 174.729 273.018 174.75 267.555 174.77C256.608 174.79 240.77 174.82 221.22 174.851C201.65 174.871 178.357 174.881 152.488 174.911C151.683 174.911 150.868 174.911 150.053 174.911C149.268 174.921 148.362 174.951 147.547 174.598C145.907 173.973 144.79 172.218 144.871 170.473C144.871 167.155 144.871 163.796 144.871 160.397C144.871 153.61 144.871 146.681 144.861 139.62C144.861 132.56 144.861 125.379 144.861 118.097C144.861 114.456 144.861 110.785 144.861 107.083V104.31V102.918C144.871 102.454 144.831 101.99 144.911 101.486C145.062 100.497 145.625 99.5793 146.44 98.9943C146.843 98.7018 147.306 98.49 147.799 98.369C148.292 98.248 148.795 98.2681 149.248 98.2581C179.101 98.2681 207.536 98.2681 233.405 98.2782C246.334 98.2883 258.63 98.2984 270.131 98.2984C273.008 98.2984 275.836 98.2984 278.613 98.3085C280.001 98.3085 281.38 98.3085 282.738 98.3085C283.422 98.3085 284.096 98.3085 284.771 98.3085C285.425 98.2883 286.189 98.3085 286.823 98.6312C288.131 99.2162 288.926 100.699 288.795 102.05C288.795 103.362 288.795 104.663 288.795 105.944C288.795 108.505 288.785 111.017 288.785 113.468C288.755 133.075 288.725 148.94 288.705 159.923C288.695 162.667 288.685 165.097 288.685 167.215C288.685 168.274 288.675 169.243 288.675 170.14C288.675 170.584 288.675 171.018 288.584 171.421C288.493 171.825 288.363 172.188 288.192 172.511C287.477 173.812 286.381 174.336 285.676 174.528C284.932 174.709 284.549 174.659 284.549 174.659Z" fill="#263238"/>
<path d="M155.798 110.664C157.276 110.664 158.474 109.463 158.474 107.981C158.474 106.499 157.276 105.298 155.798 105.298C154.319 105.298 153.121 106.499 153.121 107.981C153.121 109.463 154.319 110.664 155.798 110.664Z" fill="white"/>
<path d="M166.685 107.981C166.685 109.464 165.488 110.664 164.008 110.664C162.529 110.664 161.332 109.464 161.332 107.981C161.332 106.498 162.529 105.298 164.008 105.298C165.488 105.298 166.685 106.498 166.685 107.981Z" fill="white"/>
<path d="M172.239 110.664C173.717 110.664 174.915 109.463 174.915 107.981C174.915 106.499 173.717 105.298 172.239 105.298C170.761 105.298 169.562 106.499 169.562 107.981C169.562 109.463 170.761 110.664 172.239 110.664Z" fill="white"/>
<path d="M186.457 137.916H169.774C168.778 137.916 167.963 137.099 167.963 136.1C167.963 135.102 168.778 134.285 169.774 134.285H186.457C187.453 134.285 188.268 135.102 188.268 136.1C188.268 137.109 187.453 137.916 186.457 137.916Z" fill="#263238"/>
<path d="M186.457 147.417H169.774C168.778 147.417 167.963 146.6 167.963 145.601C167.963 144.603 168.778 143.786 169.774 143.786H186.457C187.453 143.786 188.268 144.603 188.268 145.601C188.268 146.6 187.453 147.417 186.457 147.417Z" fill="#E0E0E0"/>
<path d="M274.499 137.916H226.122C225.126 137.916 224.311 137.099 224.311 136.1C224.311 135.102 225.126 134.285 226.122 134.285H274.499C275.495 134.285 276.31 135.102 276.31 136.1C276.3 137.109 275.495 137.916 274.499 137.916Z" fill="#E0E0E0"/>
<path d="M186.457 157.22H169.774C168.778 157.22 167.963 156.403 167.963 155.405C167.963 154.406 168.778 153.589 169.774 153.589H186.457C187.453 153.589 188.268 154.406 188.268 155.405C188.268 156.413 187.453 157.22 186.457 157.22Z" fill="#029894"/>
<path d="M262.957 147.417H246.274C245.278 147.417 244.463 146.6 244.463 145.601C244.463 144.603 245.278 143.786 246.274 143.786H262.957C263.953 143.786 264.768 144.603 264.768 145.601C264.768 146.6 263.953 147.417 262.957 147.417Z" fill="#029894"/>
<path d="M213.171 137.916H196.489C195.493 137.916 194.678 137.099 194.678 136.1C194.678 135.102 195.493 134.285 196.489 134.285H213.171C214.168 134.285 214.983 135.102 214.983 136.1C214.983 137.109 214.178 137.916 213.171 137.916Z" fill="#455A64"/>
<path d="M234.663 147.417H196.499C195.503 147.417 194.688 146.6 194.688 145.601C194.688 144.603 195.503 143.786 196.499 143.786H234.663C235.659 143.786 236.474 144.603 236.474 145.601C236.474 146.6 235.659 147.417 234.663 147.417Z" fill="#263238"/>
<path d="M272.103 157.22H196.418C195.462 157.22 194.688 156.403 194.688 155.405C194.688 154.406 195.462 153.589 196.418 153.589H272.103C273.059 153.589 273.834 154.406 273.834 155.405C273.824 156.413 273.049 157.22 272.103 157.22Z" fill="#E0E0E0"/>
<path d="M233.868 164.139H196.499C195.503 164.139 194.688 163.322 194.688 162.324C194.688 161.325 195.503 160.508 196.499 160.508H233.868C234.864 160.508 235.679 161.325 235.679 162.324C235.679 163.322 234.864 164.139 233.868 164.139Z" fill="#E0E0E0"/>
<path d="M161.605 136.1C161.605 137.119 160.779 137.946 159.763 137.946C158.747 137.946 157.922 137.119 157.922 136.1C157.922 135.082 158.747 134.255 159.763 134.255C160.779 134.265 161.605 135.092 161.605 136.1Z" fill="#455A64"/>
<path d="M161.605 127.023C161.605 128.042 160.779 128.869 159.763 128.869C158.747 128.869 157.922 128.042 157.922 127.023C157.922 126.004 158.747 125.177 159.763 125.177C160.779 125.177 161.605 126.004 161.605 127.023Z" fill="#455A64"/>
<path d="M159.763 147.417C160.78 147.417 161.605 146.59 161.605 145.571C161.605 144.552 160.78 143.725 159.763 143.725C158.746 143.725 157.922 144.552 157.922 145.571C157.922 146.59 158.746 147.417 159.763 147.417Z" fill="#455A64"/>
<path d="M159.763 157.261C160.78 157.261 161.605 156.434 161.605 155.415C161.605 154.395 160.78 153.569 159.763 153.569C158.746 153.569 157.922 154.395 157.922 155.415C157.922 156.434 158.746 157.261 159.763 157.261Z" fill="#455A64"/>
<path d="M179.585 128.334H169.312C168.778 128.334 168.346 127.901 168.346 127.366V125.803C168.346 125.268 168.778 124.834 169.312 124.834H179.585C180.118 124.834 180.551 125.268 180.551 125.803V127.366C180.551 127.911 180.118 128.334 179.585 128.334Z" fill="#455A64"/>
<path d="M95.8614 291.847C95.8614 291.847 90.1161 293.088 89.1199 297.173C88.1238 301.257 97.1191 399.04 97.4813 401.421C98.0448 405.162 101.194 409.913 108.288 409.661C114.466 409.439 198.693 409.63 219.904 409.681C222.721 409.691 224.411 407.28 224.784 404.416L120.503 398.243L95.8614 291.847Z" fill="#E0E0E0"/>
<path d="M93.2442 295.115L102.28 400.563C102.451 402.288 103.89 403.609 105.61 403.629L224.783 404.164L201.892 381.39L124.476 380.845L116.195 298.231C116.085 297.132 115.28 296.234 114.213 295.982L96.8664 291.928C94.8943 291.464 93.053 293.088 93.2442 295.115Z" fill="#E0E0E0"/>
<path d="M93.2448 295.115C93.2448 295.115 93.2146 294.944 93.2247 294.611C93.2348 294.278 93.3253 293.754 93.6876 293.189C94.0397 292.634 94.7239 292.019 95.71 291.847C96.203 291.746 96.7564 291.837 97.2897 291.978C97.8431 292.11 98.4267 292.241 99.0505 292.382C101.556 292.957 104.635 293.663 108.257 294.5C110.068 294.923 112.02 295.367 114.093 295.851C115.18 296.033 116.176 297.001 116.297 298.201C116.417 299.331 116.528 300.491 116.659 301.691C118.601 320.794 121.368 348.086 124.688 380.835L124.467 380.634C147.699 380.785 173.911 380.966 201.882 381.148H201.983L202.054 381.219C209.389 388.511 217.096 396.186 224.954 403.993L225.407 404.446H224.763C223.093 404.436 221.292 404.426 219.481 404.426C188.49 404.275 158.969 404.144 132.114 404.013C125.402 403.983 118.852 403.942 112.493 403.912C110.903 403.902 109.324 403.892 107.754 403.892C106.969 403.882 106.204 403.892 105.4 403.872C104.574 403.821 103.77 403.478 103.166 402.913C102.562 402.359 102.16 401.582 102.049 400.775C101.958 399.989 101.918 399.242 101.848 398.486C101.717 396.973 101.596 395.47 101.465 393.977C100.459 382.056 99.5134 370.941 98.6581 360.805C96.9577 340.532 95.5792 324.122 94.6233 312.765C94.1605 307.097 93.7982 302.7 93.5568 299.704C93.436 298.222 93.3555 297.082 93.2951 296.305C93.265 295.508 93.2448 295.115 93.2448 295.115C93.2448 295.115 93.2951 295.508 93.3756 296.265C93.4461 297.042 93.5567 298.171 93.6876 299.654C93.9592 302.649 94.3516 307.047 94.8547 312.705C95.8509 324.052 97.2796 340.461 99.0505 360.724C99.9259 370.86 100.892 381.965 101.928 393.897C102.059 395.389 102.19 396.892 102.321 398.405C102.391 399.161 102.441 399.938 102.522 400.674C102.622 401.38 102.975 402.056 103.508 402.55C104.041 403.045 104.735 403.347 105.46 403.387C106.215 403.408 107.009 403.398 107.784 403.408C109.354 403.418 110.934 403.418 112.523 403.428C118.882 403.448 125.433 403.478 132.144 403.508C158.999 403.619 188.52 403.751 219.511 403.882C221.322 403.892 223.123 403.902 224.793 403.902L224.612 404.356C216.764 396.549 209.057 388.874 201.721 381.582L201.903 381.652C173.921 381.44 147.72 381.249 124.487 381.067H124.286L124.265 380.866C121.026 348.107 118.319 320.814 116.427 301.701C116.307 300.511 116.196 299.351 116.085 298.222C115.975 297.132 115.089 296.245 114.073 296.073C112 295.579 110.058 295.125 108.247 294.692C104.635 293.834 101.556 293.108 99.0606 292.513C98.4367 292.362 97.8532 292.22 97.2998 292.089C96.7464 291.938 96.2433 291.857 95.7603 291.948C94.8044 292.099 94.1303 292.684 93.7781 293.219C93.4159 293.764 93.3153 294.278 93.2951 294.611C93.2348 294.934 93.265 295.115 93.2448 295.115Z" fill="#263238"/>
<path d="M180.481 401.421H191.559L177.553 383.216H170.982L180.481 401.421Z" fill="#263238"/>
<path d="M97.3414 299.876L105.803 391.496L121.57 378.929L114.789 301.742C114.738 301.126 114.265 300.622 113.652 300.531L98.8808 298.413C98.0055 298.292 97.2508 299.008 97.3414 299.876Z" fill="#263238"/>
<path d="M114.275 401.421H125.706L137.327 383.216H130.747L114.275 401.421Z" fill="#263238"/>
<path d="M128.301 401.421H139.379L145.456 383.216H138.876L128.301 401.421Z" fill="#263238"/>
<path d="M141.863 401.421H152.941L153.535 383.216H146.965L141.863 401.421Z" fill="#263238"/>
<path d="M154.441 401.421H165.519L161.424 383.216H154.854L154.441 401.421Z" fill="#263238"/>
<path d="M167.541 401.421H178.619L169.594 383.216H163.023L167.541 401.421Z" fill="#263238"/>
<path d="M191.006 397.87C191.006 397.961 174.113 398.032 153.285 398.032C132.447 398.032 115.553 397.961 115.553 397.87C115.553 397.78 132.447 397.709 153.285 397.709C174.113 397.719 191.006 397.79 191.006 397.87Z" fill="#E0E0E0"/>
<path d="M188.994 394.532C188.994 394.623 172.956 394.693 153.164 394.693C133.373 394.693 117.334 394.623 117.334 394.532C117.334 394.441 133.373 394.371 153.164 394.371C172.956 394.381 188.994 394.451 188.994 394.532Z" fill="#E0E0E0"/>
<path d="M188.993 391.506C188.993 391.678 173.9 391.819 155.276 391.819C136.651 391.819 121.559 391.678 121.559 391.506C121.559 391.335 136.651 391.194 155.276 391.194C173.9 391.194 188.993 391.335 188.993 391.506Z" fill="#E0E0E0"/>
<path d="M189.456 388.743C189.456 388.914 174.685 389.055 156.473 389.055C138.251 389.055 123.48 388.914 123.48 388.743C123.48 388.571 138.251 388.43 156.473 388.43C174.685 388.42 189.456 388.561 189.456 388.743Z" fill="#E0E0E0"/>
<path d="M191.006 386.715C191.006 386.887 176.134 387.028 157.802 387.028C139.459 387.028 124.598 386.887 124.598 386.715C124.598 386.544 139.459 386.403 157.802 386.403C176.134 386.403 191.006 386.544 191.006 386.715Z" fill="#E0E0E0"/>
<path d="M192.636 384.607C192.636 384.779 177.493 384.92 158.808 384.92C140.124 384.92 124.98 384.779 124.98 384.607C124.98 384.436 140.124 384.295 158.808 384.295C177.493 384.295 192.636 384.436 192.636 384.607Z" fill="#E0E0E0"/>
<path d="M103.951 400.553C110.833 394.098 117.716 387.643 124.598 381.188L103.951 400.553Z" fill="#E0E0E0"/>
<path d="M124.598 381.188C124.698 381.289 120.15 385.717 114.455 391.062C108.75 396.408 104.051 400.654 103.951 400.553C103.85 400.452 108.398 396.025 114.093 390.679C119.788 385.334 124.497 381.087 124.598 381.188Z" fill="#263238"/>
<path d="M466.246 309.074C466.246 309.074 465.23 298.373 438.616 291.514C425.767 288.206 395.089 286.613 391.617 306.603C391.507 307.248 376.354 432.949 376.354 432.949H433.062L466.246 309.074Z" fill="#455A64"/>
<path d="M457.26 432.949H431.1L439.833 309.79C440.477 303.799 446.665 299.472 453.658 300.138L456.003 300.36C462.996 301.025 467.423 307.773 467.222 315.468L457.26 432.949Z" fill="#455A64"/>
<path d="M433.062 428.521C432.921 428.511 434.763 404.255 437.188 374.34C439.613 344.425 441.695 320.189 441.836 320.199C441.977 320.209 440.136 344.465 437.711 374.38C435.286 404.285 433.203 428.532 433.062 428.521Z" fill="#263238"/>
<path d="M461.226 303.254C461.186 303.355 459.867 302.68 457.553 302.387C455.269 302.084 451.909 302.327 448.83 304.092C445.751 305.867 443.849 308.661 442.954 310.789C442.038 312.937 441.947 314.43 441.847 314.409C441.817 314.409 441.817 314.036 441.897 313.381C441.977 312.725 442.189 311.767 442.611 310.658C443.426 308.439 445.358 305.504 448.568 303.648C451.788 301.802 455.279 301.621 457.604 302.034C458.781 302.236 459.706 302.528 460.31 302.79C460.914 303.033 461.236 303.224 461.226 303.254Z" fill="#263238"/>
<path d="M378.608 149.283C378.87 142.071 374 141.103 370.247 141.93C365.689 138.572 358.766 138.945 354.6 142.788C351.179 140.922 346.792 140.992 343.442 142.969C340.091 144.946 337.898 148.768 337.868 152.662C333.954 152.178 329.858 154.437 328.168 158.007C326.478 161.578 327.333 166.187 330.18 168.92C325.995 170.453 323.389 175.395 324.485 179.722C325.582 184.049 330.231 187.145 334.638 186.49L378.769 157.029C381.405 154.245 378.467 153.136 378.608 149.283Z" fill="#263238"/>
<path d="M333.35 187.821C334.255 167.69 350.425 151.633 370.508 150.917L372.5 150.846C394.063 151.34 405.694 169.979 404.608 191.573L404.034 263.526L403.893 277.192L354.58 288.943L354.077 260.46C354.077 260.46 333.269 257.969 332.283 237.242C331.82 227.237 332.514 206.541 333.35 187.821Z" fill="#F2AF98"/>
<path d="M353.926 260.44C353.926 260.44 367.167 260.763 380.751 251.524C380.751 251.524 374.905 266.673 354.197 265.543L353.926 260.44Z" fill="#6F4439"/>
<path d="M339.367 208.739C339.367 210.303 340.695 211.594 342.325 211.624C343.955 211.654 345.273 210.414 345.273 208.85C345.273 207.287 343.955 205.996 342.325 205.966C340.695 205.925 339.367 207.166 339.367 208.739Z" fill="#263238"/>
<path d="M337.958 198.865C338.34 199.238 340.514 197.494 343.693 197.393C346.863 197.241 349.258 198.795 349.59 198.391C349.751 198.21 349.358 197.524 348.312 196.828C347.285 196.122 345.555 195.466 343.573 195.547C341.59 195.628 339.95 196.414 339.025 197.201C338.079 197.988 337.777 198.704 337.958 198.865Z" fill="#263238"/>
<path d="M364.924 208.074C364.924 209.637 366.252 210.928 367.882 210.958C369.512 210.989 370.83 209.748 370.83 208.175C370.83 206.611 369.502 205.32 367.882 205.29C366.252 205.27 364.924 206.51 364.924 208.074Z" fill="#263238"/>
<path d="M368.354 197.342C368.736 197.716 370.92 195.981 374.089 195.87C377.259 195.719 379.653 197.272 379.985 196.868C380.146 196.687 379.754 196.001 378.707 195.305C377.681 194.599 375.951 193.943 373.968 194.024C371.986 194.105 370.346 194.891 369.42 195.678C368.485 196.465 368.173 197.171 368.354 197.342Z" fill="#263238"/>
<path d="M358.726 221.337C358.736 221.155 356.743 220.883 353.534 220.59C352.719 220.54 351.944 220.399 351.793 219.854C351.582 219.269 351.894 218.382 352.246 217.424C352.94 215.427 353.665 213.339 354.429 211.14C357.448 202.204 359.601 194.861 359.249 194.74C358.887 194.619 356.15 201.77 353.131 210.716C352.407 212.915 351.713 215.023 351.048 217.03C350.777 217.968 350.284 219.037 350.736 220.237C350.978 220.843 351.592 221.256 352.115 221.377C352.638 221.518 353.101 221.508 353.503 221.518C356.723 221.569 358.716 221.508 358.726 221.337Z" fill="#263238"/>
<path d="M368.164 223.203C367.651 223.193 367.761 226.652 364.894 229.214C362.036 231.786 358.343 231.524 358.333 232.008C358.293 232.23 359.179 232.653 360.728 232.633C362.247 232.633 364.461 232.058 366.212 230.495C367.963 228.921 368.667 226.884 368.727 225.462C368.808 224.02 368.395 223.172 368.164 223.203Z" fill="#263238"/>
<path d="M367.993 188.245C368.396 189.062 371.112 188.215 374.443 188.154C377.773 188.013 380.57 188.689 380.882 187.852C381.013 187.458 380.43 186.722 379.242 186.056C378.055 185.391 376.254 184.866 374.262 184.927C372.269 184.987 370.529 185.623 369.432 186.359C368.315 187.085 367.812 187.852 367.993 188.245Z" fill="#263238"/>
<path d="M338.37 190.101C338.894 190.847 341.117 190.202 343.753 190.292C346.39 190.292 348.593 191.009 349.137 190.272C349.378 189.919 349.066 189.173 348.12 188.447C347.195 187.72 345.615 187.085 343.804 187.055C341.993 187.025 340.393 187.61 339.447 188.305C338.481 189.011 338.139 189.738 338.37 190.101Z" fill="#263238"/>
<path d="M335 178.24C335 178.24 339.991 165.057 346.138 161.81C353.574 157.876 357.126 166.076 364.26 163.797C371.393 161.517 378.487 157.745 386.054 163.06C394.334 168.89 390.702 173.308 391.527 182.496C394.868 219.723 402.042 230.031 403.35 212.391C403.491 210.454 408.773 208.739 409.266 200.58C409.92 190 409.87 177.181 407.254 169.778C405.05 163.544 401.307 159.308 394.707 154.729C384.283 147.508 370.327 147.841 360.879 149.132C351.441 150.433 333.561 162.011 335 178.24Z" fill="#263238"/>
<path d="M402.012 211.876C402.032 208.669 404.689 206.047 407.878 206.238C411.752 206.47 416.119 208.507 416.149 216.516C416.199 230.707 401.972 227.832 401.952 227.429C401.932 227.146 401.982 217.817 402.012 211.876Z" fill="#F2AF98"/>
<path d="M405.009 222.073C405.07 222.023 405.261 222.245 405.673 222.436C406.076 222.618 406.78 222.749 407.515 222.466C409.004 221.912 410.262 219.521 410.322 216.97C410.352 215.679 410.08 214.448 409.618 213.429C409.185 212.391 408.511 211.675 407.756 211.543C407.002 211.372 406.478 211.826 406.307 212.229C406.116 212.623 406.207 212.905 406.136 212.935C406.096 212.976 405.834 212.693 405.945 212.108C406.005 211.826 406.166 211.493 406.498 211.221C406.841 210.938 407.334 210.797 407.857 210.858C408.954 210.928 409.94 211.937 410.443 213.046C411.006 214.166 411.348 215.548 411.308 217C411.228 219.864 409.779 222.537 407.736 223.142C406.74 223.404 405.905 223.112 405.482 222.779C405.039 222.416 404.959 222.093 405.009 222.073Z" fill="#6F4439"/>
<path d="M400.764 184.422C398.973 185.744 397.082 187.105 394.868 187.408C392.664 187.71 390.089 186.52 389.636 184.342C389.435 183.363 389.636 182.203 388.962 181.467C388.157 180.59 386.738 180.922 385.561 181.084C381.466 181.669 377.149 178.905 375.962 174.931C374.966 176.545 372.521 176.565 370.891 175.597C369.271 174.629 368.184 172.985 366.896 171.603C365.608 170.221 363.817 169.011 361.956 169.344C360.919 169.525 359.963 170.191 358.907 170.131C357.046 170.03 356.059 167.881 355.717 166.046C355.375 164.21 355.073 162.062 353.464 161.114C351.974 160.236 350.103 160.841 348.402 161.154C346.702 161.467 344.478 161.144 343.985 159.48C343.724 158.612 344.066 157.674 344.529 156.888C346.611 153.337 351.351 151.623 355.214 153.025C356.432 148.295 360.678 144.492 365.497 143.806C370.327 143.12 375.449 145.591 377.934 149.797C380.832 146.973 385.128 145.672 389.092 146.439C393.057 147.195 396.578 149.989 398.239 153.69C401.65 152.662 405.614 153.852 407.898 156.595C410.182 159.339 410.635 163.464 409.015 166.641C411.611 168.002 413.875 170.463 414.036 173.388C414.197 176.323 411.44 179.349 408.592 178.673C409.81 180.912 408.995 184.049 406.831 185.411C404.668 186.762 401.499 186.127 400.02 184.049" fill="#263238"/>
<path d="M409.618 178.603C409.669 178.562 409.92 179.783 408.834 181.356C408.29 182.102 407.354 182.899 406.057 183.151C404.789 183.414 403.219 183.151 401.981 182.123L402.575 182.012C401.921 183.252 401.036 184.533 399.879 185.653C399.134 186.359 398.289 186.974 397.363 187.347C396.447 187.75 395.391 187.821 394.526 187.71C392.725 187.579 391.125 186.671 390.36 185.511C389.565 184.382 389.293 183.313 389.112 182.607C388.941 181.891 388.911 181.477 388.961 181.467C389.022 181.447 389.153 181.84 389.414 182.516C389.676 183.182 390.038 184.19 390.813 185.168C392.221 187.155 396.629 188.033 399.315 185.068C400.392 184.029 401.247 182.829 401.891 181.659L402.122 181.235L402.485 181.548C403.491 182.425 404.839 182.697 405.936 182.516C407.053 182.344 407.908 181.709 408.451 181.074C409.538 179.732 409.488 178.572 409.618 178.603Z" fill="#455A64"/>
<path d="M242.381 364.254C242.381 364.254 215.687 363.457 214.087 362.953C212.487 362.449 208.593 362.348 206.691 362.953C204.79 363.558 197.193 366.261 197.193 366.261L181.064 370.568C181.064 370.568 164.864 381.188 165.196 383.316C165.539 385.445 167.299 386.897 170.197 385.798C173.095 384.698 187.725 377.083 187.725 377.083L203.784 375.379C203.784 375.379 225.749 383.286 230.176 382.893C234.613 382.5 245.973 380.573 245.973 380.573C245.973 380.573 247.573 369.166 246.768 367.361C245.983 365.555 242.381 364.254 242.381 364.254Z" fill="#F2AF98"/>
<path d="M166.364 392.767C166.364 392.767 179.888 378.223 183.641 376.266C187.394 374.31 208.252 370.871 208.252 370.871C208.252 370.871 214.933 368.097 217.378 369.075C219.823 370.054 245.732 373.977 246.879 374.138C248.016 374.3 241.335 397.013 241.335 397.013C241.335 397.013 232.37 398.647 221.946 396.196C211.512 393.745 207.93 390.478 207.93 390.478L197.516 387.734L191.147 390.165C191.147 390.165 190 399.615 185.442 399.131L183.319 397.659L184.949 387.2L178.268 389.973C178.268 389.973 173.056 397.81 169.142 396.67C165.227 395.551 166.364 392.767 166.364 392.767Z" fill="#F2AF98"/>
<path d="M166.364 392.767C166.394 392.767 166.203 393.15 166.263 393.897C166.304 394.27 166.434 394.734 166.767 395.178C167.099 395.621 167.632 396.015 168.296 396.297C168.96 396.58 169.765 396.822 170.64 396.63C171.506 396.428 172.381 395.944 173.226 395.309C174.927 394.028 176.577 392.162 178.136 389.903L178.167 389.862L178.207 389.842C180.209 389.005 182.463 388.057 184.878 387.038L185.149 386.927L185.109 387.22C184.626 390.367 184.083 393.897 183.509 397.679L183.429 397.487C184.073 397.931 184.807 398.435 185.552 398.95L185.461 398.919C186.317 399 187.162 398.667 187.816 398.052C188.47 397.447 188.983 396.65 189.375 395.783C190.16 394.058 190.653 392.111 190.935 390.125L190.955 389.993L191.076 389.943C193.058 389.176 195.221 388.349 197.445 387.502L197.515 387.472L197.586 387.492C200.876 388.349 204.388 389.277 208 390.225L208.05 390.236L208.101 390.276C210.143 391.88 212.719 392.989 215.305 393.957C217.921 394.895 220.678 395.662 223.505 396.247C226.343 396.832 229.281 397.144 232.259 397.235C235.237 397.316 238.286 397.205 241.295 396.731L241.093 396.912C241.556 395.309 242.049 393.584 242.552 391.859C243.981 386.726 245.42 381.662 246.466 376.67C246.587 376.045 246.698 375.419 246.748 374.804C246.758 374.653 246.758 374.501 246.748 374.38C246.758 374.32 246.688 374.28 246.788 374.36C246.808 374.37 246.829 374.38 246.849 374.38H246.818L246.758 374.37L246.637 374.35L245.702 374.209C244.454 374.017 243.206 373.826 241.979 373.634C239.514 373.241 237.079 372.857 234.684 372.484C229.894 371.708 225.256 370.951 220.809 370.094C219.692 369.862 218.605 369.67 217.498 369.337C216.512 368.954 215.415 369.085 214.369 369.247C212.266 369.62 210.244 370.316 208.332 371.062L208.302 371.072H208.282C200.987 372.303 194.316 373.503 188.5 374.905C187.051 375.258 185.643 375.631 184.355 376.125C183.077 376.63 182.061 377.537 181.064 378.354C179.092 380.029 177.382 381.683 175.842 383.175C172.763 386.171 170.429 388.592 168.819 390.236C168.034 391.042 167.421 391.678 166.998 392.111C166.585 392.565 166.364 392.767 166.364 392.767C166.364 392.767 166.555 392.525 166.958 392.091C167.37 391.637 167.964 391.002 168.739 390.165C170.308 388.491 172.623 386.04 175.681 383.014C177.211 381.501 178.911 379.837 180.883 378.143C181.376 377.719 181.889 377.295 182.433 376.892C182.966 376.478 183.58 376.095 184.244 375.843C185.572 375.339 186.971 374.945 188.43 374.592C194.266 373.16 200.926 371.93 208.221 370.679L208.171 370.689C210.113 369.922 212.125 369.216 214.299 368.823C215.365 368.662 216.552 368.5 217.659 368.934C218.676 369.247 219.802 369.438 220.899 369.67C225.336 370.507 229.975 371.264 234.764 372.03C237.159 372.404 239.594 372.787 242.049 373.17C243.287 373.362 244.524 373.543 245.772 373.735L246.708 373.876L246.829 373.896L246.889 373.906L246.919 373.917C246.959 373.927 246.99 373.937 247.03 373.957C247.261 374.128 247.221 374.27 247.251 374.36C247.271 374.562 247.271 374.723 247.251 374.895C247.201 375.561 247.08 376.186 246.959 376.821C245.913 381.864 244.474 386.907 243.035 392.061C242.532 393.796 242.039 395.521 241.576 397.124L241.526 397.286L241.365 397.306C238.286 397.79 235.237 397.901 232.219 397.81C229.21 397.709 226.242 397.397 223.384 396.801C220.527 396.206 217.76 395.44 215.114 394.482C213.796 393.998 212.508 393.463 211.27 392.848C210.032 392.222 208.845 391.577 207.758 390.689L207.859 390.74C204.247 389.782 200.735 388.854 197.455 387.986L197.596 387.976C195.372 388.823 193.209 389.651 191.227 390.407L191.368 390.225C191.076 392.263 190.573 394.219 189.748 396.015C189.345 396.902 188.802 397.75 188.088 398.405C187.383 399.071 186.387 399.464 185.421 399.363L185.371 399.353L185.331 399.323C184.586 398.809 183.862 398.294 183.218 397.85L183.117 397.78L183.137 397.659C183.741 393.877 184.294 390.346 184.797 387.21L185.029 387.391C182.604 388.39 180.35 389.318 178.338 390.145L178.398 390.094C176.798 392.364 175.128 394.23 173.377 395.521C172.502 396.156 171.606 396.65 170.691 396.842C169.765 397.033 168.91 396.761 168.246 396.459C167.561 396.156 167.018 395.742 166.686 395.268C166.344 394.804 166.223 394.31 166.193 393.927C166.143 393.13 166.364 392.767 166.364 392.767Z" fill="#6F4439"/>
<path d="M207.325 380.462C207.325 380.503 206.952 380.482 206.298 380.432C205.644 380.382 204.688 380.291 203.521 380.17C202.304 380.039 200.925 379.877 199.416 379.716C199.024 379.665 198.631 379.625 198.229 379.575C197.826 379.514 197.474 379.544 197.052 379.595C196.237 379.706 195.381 379.908 194.516 380.119C191.125 381.108 187.724 381.763 186.416 383.781C185.722 384.698 185.4 385.596 185.209 386.221C185.028 386.847 184.977 387.21 184.937 387.21C184.907 387.21 184.887 386.837 185.008 386.171C185.138 385.515 185.42 384.567 186.114 383.559C186.467 383.064 186.919 382.56 187.493 382.137C188.066 381.723 188.781 381.37 189.515 381.108C190.984 380.573 192.624 380.059 194.375 379.605C195.25 379.383 196.116 379.191 196.971 379.08C197.384 379.02 197.867 379 198.269 379.07C198.672 379.121 199.064 379.181 199.456 379.232C200.966 379.444 202.344 379.635 203.552 379.807C204.719 379.978 205.664 380.119 206.308 380.24C206.973 380.351 207.335 380.432 207.325 380.462Z" fill="#6F4439"/>
<path d="M171.003 387.936C170.983 387.916 171.375 387.502 172.12 386.806C172.874 386.11 173.981 385.132 175.38 383.962C176.788 382.792 178.479 381.42 180.431 379.998C181.417 379.292 182.463 378.566 183.59 377.88C184.164 377.547 184.757 377.214 185.391 376.932C186.045 376.65 186.709 376.478 187.383 376.287C192.787 374.794 197.848 374.4 201.45 373.866C203.191 373.654 204.629 373.473 205.736 373.331C206.752 373.22 207.316 373.17 207.316 373.21C207.316 373.251 206.762 373.362 205.766 373.533C204.67 373.715 203.231 373.947 201.5 374.229C197.908 374.864 192.867 375.318 187.524 376.791C186.86 376.972 186.186 377.154 185.592 377.406C184.989 377.668 184.405 377.981 183.852 378.314C182.735 378.979 181.688 379.686 180.702 380.381C178.74 381.773 177.03 383.105 175.601 384.234C174.243 385.334 173.106 386.251 172.24 386.947C171.466 387.603 171.033 387.966 171.003 387.936Z" fill="#6F4439"/>
<path d="M339.567 293.199C339.567 293.199 332.453 302.992 326.809 314.762C321.979 324.848 306.333 359.191 306.333 359.191L242.611 362.539L243.547 387.22C243.547 387.22 305.085 409.197 318.87 404.961C332.645 400.725 347.325 384.799 347.325 384.799L353.915 280.712C353.925 280.702 348.452 279.674 339.567 293.199Z" fill="#3B5998"/>
<path d="M352.889 280.944C352.889 280.944 336.549 318.091 334.164 333.825C329.425 365.061 327.835 384.617 327.835 384.617L322.281 432.959H431.1C431.1 432.959 434.702 343.366 432.388 313.32C430.657 290.818 413.462 276.799 406.418 269.093C405.996 268.629 404.054 262.326 404.054 262.326L353.342 275.347L352.889 280.944Z" fill="#3B5998"/>
<path d="M347.627 286.582C347.637 286.582 347.597 286.703 347.506 286.935C347.405 287.187 347.265 287.52 347.094 287.944C346.711 288.862 346.168 290.163 345.464 291.827C344.065 295.206 342.043 300.097 340.02 306.3C337.978 312.503 335.975 320.027 334.396 328.52C332.776 337.002 331.468 346.412 330.371 356.326C328.369 376.175 326.547 394.138 325.229 407.169C324.555 413.655 324.012 418.909 323.629 422.571C323.428 424.366 323.277 425.768 323.167 426.756C323.106 427.21 323.066 427.573 323.036 427.846C323.006 428.088 322.985 428.219 322.975 428.219C322.965 428.219 322.965 428.088 322.985 427.846C323.006 427.573 323.036 427.21 323.066 426.756C323.156 425.768 323.277 424.356 323.428 422.561C323.77 418.889 324.263 413.624 324.867 407.139C326.125 394.118 327.785 376.135 329.848 356.276C330.944 346.351 332.272 336.931 333.923 328.439C335.533 319.936 337.575 312.392 339.668 306.189C341.751 299.986 343.823 295.105 345.282 291.746C346.007 290.062 346.601 288.781 347.003 287.904C347.194 287.49 347.355 287.157 347.466 286.915C347.556 286.693 347.617 286.582 347.627 286.582Z" fill="#263238"/>
<g opacity="0.3">
<path d="M404.165 345.06C403.159 335.166 398.732 325.232 390.602 319.523L324.254 414.502C335.966 420.836 348.976 427.372 361.986 424.578C368.989 423.075 375.207 418.94 380.258 413.846C390.753 403.266 396.448 388.854 400.442 374.491C403.109 364.91 405.161 354.955 404.165 345.06Z" fill="black"/>
</g>
<path d="M411.682 333.583C403.411 362.902 384.807 398.687 379.102 405.868C367.943 419.908 353.193 422.944 344.389 422.944C336.903 422.944 273.634 410.589 254.878 406.897C251.709 406.272 249.234 403.811 248.57 400.654L248.409 399.877L239.967 397.598L244.464 374.895L245.36 373.634L335.846 376.488L362.168 302.992C362.661 302.155 370.268 277.495 390.884 278.614" fill="#3B5998"/>
<path d="M390.883 278.624C390.883 278.624 390.652 278.634 390.199 278.634C389.746 278.645 389.072 278.594 388.187 278.685C386.416 278.786 383.76 279.149 380.58 280.5C377.431 281.872 373.859 284.343 370.649 288.176C367.409 291.988 364.562 297.021 362.298 303.083L362.308 303.063C355.657 321.681 346.631 346.967 336.056 376.579L335.996 376.74L335.825 376.73C308.9 375.893 278.13 374.935 245.339 373.906L245.56 373.795C245.279 374.188 244.977 374.622 244.665 375.056L244.705 374.955C243.407 381.521 242.019 388.51 240.63 395.571C240.489 396.287 240.348 397.003 240.217 397.658L240.026 397.356C242.954 398.143 245.792 398.909 248.468 399.635L248.629 399.676L248.649 399.827C248.941 401.713 249.756 403.458 251.135 404.719C251.809 405.344 252.594 405.858 253.449 406.201C254.294 406.564 255.21 406.705 256.155 406.897C259.878 407.623 263.571 408.349 267.233 409.066C274.569 410.478 281.783 411.869 288.866 413.241C303.044 415.934 316.708 418.496 329.728 420.705C332.988 421.249 336.207 421.764 339.387 422.218C340.977 422.419 342.566 422.641 344.126 422.712C345.696 422.732 347.265 422.651 348.815 422.48C355.003 421.814 360.849 419.857 365.92 416.983C371.011 414.108 375.257 410.266 378.678 406.07C380.369 403.962 381.727 401.662 383.065 399.434C384.383 397.184 385.631 394.965 386.808 392.767C396.176 375.187 402.314 360.29 406.208 349.912C408.119 344.707 409.488 340.623 410.353 337.839C410.776 336.457 411.108 335.398 411.329 334.672C411.55 333.956 411.681 333.593 411.681 333.593C411.681 333.593 411.591 333.966 411.379 334.682C411.168 335.408 410.856 336.477 410.454 337.869C409.619 340.663 408.29 344.758 406.399 349.982C402.555 360.391 396.468 375.318 387.13 392.938C385.953 395.137 384.715 397.366 383.397 399.625C382.049 401.864 380.701 404.174 378.99 406.322C375.549 410.558 371.263 414.441 366.131 417.356C361.01 420.271 355.124 422.258 348.865 422.934C347.306 423.115 345.716 423.196 344.126 423.176C342.516 423.105 340.936 422.883 339.337 422.682C336.147 422.238 332.927 421.713 329.657 421.179C316.617 418.98 302.953 416.428 288.776 413.745C281.692 412.384 274.468 410.992 267.143 409.58C263.48 408.864 259.788 408.138 256.065 407.411C255.149 407.23 254.173 407.079 253.268 406.695C252.352 406.322 251.517 405.778 250.803 405.112C249.333 403.791 248.448 401.854 248.156 399.948L248.347 400.15C245.671 399.423 242.834 398.667 239.906 397.87L239.664 397.81L239.714 397.568C239.845 396.912 239.986 396.196 240.127 395.48C241.525 388.42 242.904 381.43 244.212 374.874L244.222 374.824L244.252 374.773C244.564 374.34 244.866 373.906 245.148 373.513L245.228 373.402H245.369C278.161 374.451 308.93 375.429 335.855 376.286L335.634 376.438C346.269 346.846 355.345 321.58 362.036 302.972L362.046 302.942C364.29 296.951 367.208 291.837 370.478 288.035C373.728 284.192 377.34 281.711 380.52 280.359C383.729 279.028 386.406 278.695 388.177 278.614C389.072 278.544 389.746 278.604 390.199 278.604C390.652 278.604 390.883 278.624 390.883 278.624Z" fill="#263238"/>
<path d="M315.903 370.679C315.752 370.759 314.494 367.401 311.536 364.264C308.618 361.087 305.368 359.594 305.459 359.443C305.479 359.393 306.324 359.685 307.562 360.401C308.799 361.117 310.419 362.297 311.919 363.901C313.408 365.515 314.474 367.209 315.098 368.5C315.732 369.791 315.963 370.659 315.903 370.679Z" fill="#263238"/>
<path d="M346.792 394.28C346.701 394.29 346.53 393.12 345.997 391.284C345.474 389.459 344.528 386.988 343.029 384.506C341.52 382.035 339.759 380.059 338.37 378.757C336.982 377.456 336.026 376.76 336.076 376.69C336.096 376.66 336.358 376.811 336.811 377.103C337.263 377.396 337.887 377.86 338.622 378.485C340.091 379.736 341.932 381.703 343.482 384.234C345.021 386.766 345.927 389.307 346.359 391.193C346.581 392.131 346.711 392.908 346.762 393.443C346.812 393.977 346.822 394.27 346.792 394.28Z" fill="#263238"/>
<g opacity="0.3">
<path d="M322.654 375.923L327.917 376.115C328.762 355.398 333.028 334.743 336.67 314.329C327.383 333.351 324.948 354.874 322.654 375.923Z" fill="black"/>
</g>
<path d="M404.658 269.093C404.658 269.113 404.486 269.174 404.164 269.265C403.772 269.376 403.299 269.507 402.716 269.658C401.377 270.011 399.576 270.495 397.383 271.08C392.875 272.28 386.667 274.005 379.775 275.74C372.872 277.485 366.563 278.836 361.955 279.593C359.651 279.976 357.779 280.238 356.481 280.379C355.878 280.44 355.385 280.49 354.982 280.531C354.64 280.561 354.459 280.561 354.459 280.551C354.459 280.531 354.63 280.49 354.972 280.43C355.365 280.359 355.858 280.279 356.451 280.178C357.739 279.986 359.601 279.663 361.885 279.23C366.463 278.382 372.751 276.98 379.644 275.236C386.536 273.491 392.764 271.827 397.292 270.717C399.556 270.152 401.397 269.729 402.675 269.456C403.269 269.335 403.752 269.234 404.144 269.154C404.466 269.103 404.647 269.073 404.658 269.093Z" fill="#263238"/>
</g>
<defs>
<clipPath id="clip0_187_2155">
<rect width="467" height="432" fill="white" transform="translate(0.222656 0.949219)"/>
</clipPath>
</defs>
</svg>
