<svg xmlns="http://www.w3.org/2000/svg" width="40" height="41" viewBox="0 0 40 41" fill="none">
  <path d="M17.8078 19.3765C17.7093 19.381 17.6108 19.3901 17.5123 19.3901C14.5243 19.3916 11.5348 19.3916 8.54674 19.3901C8.05581 19.3901 8.02399 19.3553 8.02399 18.8628C8.02399 18.3628 8.02399 17.8628 8.02399 17.3219C8.174 17.3219 8.29673 17.3219 8.41795 17.3219C9.69528 17.3219 10.9726 17.3234 12.2515 17.3219C12.8288 17.3219 13.1924 17.0112 13.2 16.5188C13.2076 16.0188 12.8318 15.6869 12.2424 15.6839C11.4408 15.6809 10.6438 15.6839 9.84074 15.6839C9.22708 12.6216 7.40123 10.7912 4.33594 10.1624C4.32988 10.0927 4.31321 10.0048 4.31321 9.91544C4.31169 8.76387 4.31472 7.61079 4.30866 6.45922C4.30715 6.2683 4.32836 6.15163 4.56019 6.10617C7.35881 5.54705 9.1892 3.70757 9.76953 0.893801C9.78317 0.827131 9.80286 0.761977 9.82408 0.677124C14.9804 0.677124 20.1321 0.677124 25.2991 0.677124C25.9082 3.72878 27.7446 5.56675 30.8281 6.18799C30.8281 6.30618 30.8281 6.43043 30.8281 6.55468C30.8281 8.07141 30.8281 9.58967 30.8281 11.1064C30.8281 11.7701 31.1251 12.1383 31.6539 12.1337C32.1782 12.1292 32.4661 11.761 32.4661 11.0882C32.4661 9.00025 32.4661 6.91378 32.4661 4.82581C32.4661 4.69095 32.4661 4.5561 32.4661 4.37427C33.0873 4.37427 33.6858 4.36518 34.2843 4.38488C34.3661 4.38791 34.4722 4.53034 34.5131 4.63034C34.554 4.72883 34.5283 4.85459 34.5283 4.96824C34.5283 9.58815 34.5283 14.2081 34.5283 18.828C34.5283 19.3629 34.501 19.3901 33.9676 19.3901C32.4842 19.3901 31.0024 19.3901 29.519 19.3901C29.4083 19.3901 29.2977 19.3901 29.175 19.3901C29.6417 18.9053 30.0826 18.4371 30.5341 17.981C30.9524 17.5597 31.3842 17.1537 31.8069 16.737C32.3888 16.1642 32.5767 15.4763 32.3267 14.702C32.0751 13.9217 31.5039 13.4883 30.7039 13.3671C29.5538 13.1929 28.4037 13.0292 27.2522 12.8732C27.037 12.8444 26.9113 12.7641 26.8143 12.5641C26.293 11.4867 25.7733 10.4079 25.2233 9.34572C24.5808 8.10626 22.9429 7.90777 22.0322 8.94721C21.8989 9.09873 21.7943 9.28208 21.7034 9.4639C21.1883 10.4927 20.6746 11.5246 20.1761 12.561C20.0806 12.7595 19.9579 12.8459 19.7412 12.8747C18.5896 13.0307 17.4381 13.1959 16.2895 13.3686C15.488 13.4899 14.9198 13.9217 14.6622 14.7005C14.4061 15.4778 14.6107 16.1491 15.1758 16.7385C16.0274 17.6279 16.8623 18.5355 17.7032 19.4356C17.7396 19.4144 17.7729 19.3947 17.8078 19.3765ZM13.2 8.09414C13.1985 5.54705 15.8319 3.45756 18.5654 4.1091C19.8973 4.42579 20.8701 5.21673 21.4913 6.43346C21.6398 6.72438 21.8216 6.95469 22.1641 6.99864C22.4838 7.04106 22.7535 6.94257 22.9444 6.67741C23.1611 6.37588 23.1429 6.06071 22.9762 5.74252C21.8459 3.58484 20.0564 2.39236 17.629 2.3666C15.1834 2.34084 13.3439 3.50302 12.2121 5.67282C11.0605 7.87898 11.4772 10.6518 13.153 12.4171C13.5409 12.8247 14.0682 12.8398 14.4091 12.4519C14.7016 12.1201 14.6864 11.6852 14.3516 11.311C13.5955 10.4685 13.2106 9.4836 13.2 8.09414Z" fill="#029894"/>
  <path d="M17.7424 38.8729C15.712 38.8729 13.6816 38.8881 11.6512 38.8669C10.6527 38.8563 9.83444 39.1942 9.14501 39.9078C8.48892 40.5882 8.47831 40.5791 7.79949 39.9275C5.61757 37.8365 3.43565 35.744 1.25373 33.653C0.84765 33.2636 0.84462 33.1151 1.23252 32.7287C2.82956 31.1317 4.42509 29.5331 6.02365 27.9391C7.0237 26.9421 8.23588 26.4345 9.64958 26.4284C11.1209 26.4223 12.5921 26.4269 14.0634 26.4269C15.162 26.4284 16.112 26.7875 16.8984 27.5739C17.8833 28.5573 19.0849 29.0255 20.4743 29.024C22.0365 29.021 23.6002 29.0149 25.1624 29.0285C25.7943 29.0331 26.2852 29.3285 26.5761 29.8922C26.8534 30.4316 26.8186 30.9801 26.4852 31.4847C26.1595 31.9772 25.6837 32.1953 25.0882 32.1938C21.8259 32.1878 18.5636 32.1908 15.3014 32.1923C15.1544 32.1923 15.0029 32.1953 14.8589 32.2226C14.4028 32.309 14.1256 32.6651 14.1665 33.0939C14.2074 33.5227 14.5407 33.8242 15.0044 33.8272C16.0423 33.8333 17.0802 33.8288 18.1182 33.8288C20.4107 33.8288 22.7032 33.8015 24.9958 33.8378C26.7095 33.8636 28.6111 32.456 28.3717 30.2104C28.358 30.0755 28.4444 29.8786 28.5505 29.7892C31.1233 27.6209 33.7038 25.4632 36.2857 23.3055C37.0479 22.6691 38.0282 22.7116 38.6464 23.3964C39.2374 24.051 39.1843 25.0571 38.501 25.7435C35.7872 28.4649 33.0658 31.1817 30.3491 33.9C29.0096 35.2394 27.6656 36.5713 26.3352 37.9199C25.6882 38.576 24.9185 38.882 24.0033 38.8775C21.9168 38.8684 19.8289 38.8729 17.7424 38.8729Z" fill="#029894"/>
  <path d="M18.8622 23.4964C19.0062 22.6539 19.1471 21.8221 19.291 20.9917C19.388 20.4296 19.4834 19.8689 19.585 19.3083C19.6501 18.9462 19.5122 18.6704 19.2562 18.4234C18.3122 17.5128 17.3727 16.5991 16.4424 15.6748C16.3288 15.5612 16.2 15.3505 16.2348 15.2308C16.2681 15.1142 16.4954 15.0051 16.6515 14.9793C17.9561 14.7732 19.2637 14.5778 20.5744 14.399C20.9668 14.346 21.2138 14.155 21.382 13.8065C21.9487 12.6383 22.5215 11.4731 23.1094 10.3139C23.1867 10.1594 23.3776 9.93514 23.4806 9.95181C23.6352 9.97756 23.8079 10.1639 23.8882 10.3246C24.461 11.4519 25.0201 12.5853 25.5656 13.7262C25.761 14.1338 26.0353 14.355 26.4959 14.4141C27.7944 14.5838 29.09 14.7823 30.3855 14.9854C30.5218 15.0066 30.731 15.1081 30.7506 15.2051C30.7779 15.3339 30.69 15.5339 30.587 15.6369C29.6506 16.5703 28.7051 17.4961 27.749 18.4098C27.4459 18.6992 27.352 19.0144 27.4262 19.425C27.6626 20.725 27.8808 22.0281 28.0899 23.3327C28.1111 23.4691 28.0763 23.6994 27.9899 23.7479C27.8748 23.8116 27.6596 23.7873 27.5278 23.7191C26.3823 23.1327 25.2398 22.5388 24.1109 21.9206C23.6882 21.6902 23.32 21.6781 22.8927 21.913C21.7548 22.5373 20.6002 23.1312 19.4501 23.7328C19.1092 23.9146 18.8561 23.8009 18.8622 23.4964Z" fill="#029894"/>
  <path d="M30.8263 4.4728C29.0186 4.29249 27.1428 2.41058 27.0186 0.654441C27.3125 0.654441 27.6049 0.654441 27.8959 0.654441C28.7383 0.654441 29.5823 0.657471 30.4248 0.654441C30.6657 0.652925 30.8263 0.730202 30.8263 0.999912C30.8263 2.14997 30.8263 3.29851 30.8263 4.4728Z" fill="#029894"/>
  <path d="M4.31154 4.45153C4.31154 3.74695 4.31154 3.04237 4.31154 2.33779C4.31154 1.90444 4.31306 1.47109 4.31154 1.03773C4.31003 0.810449 4.39488 0.657412 4.64489 0.657412C5.79495 0.655896 6.945 0.657412 8.09354 0.657412C8.18748 2.20749 5.97829 4.4288 4.31154 4.45153Z" fill="#029894"/>
  <path d="M8.13755 15.6839C6.95264 15.6839 5.79198 15.6915 4.63284 15.6718C4.52677 15.6703 4.33434 15.4945 4.33282 15.3961C4.31161 14.2263 4.31919 13.055 4.31919 11.8807C5.84199 12.0232 7.79359 13.4778 8.13755 15.6839Z" fill="#029894"/>
</svg>