<svg xmlns="http://www.w3.org/2000/svg" width="39" height="41" viewBox="0 0 39 41" fill="none">
  <path fill-rule="evenodd" clip-rule="evenodd" d="M28.7961 1.34626C28.9448 1.10742 29.161 0.918021 29.4173 0.80201C29.6737 0.685999 29.9586 0.648579 30.2362 0.694479L37.5538 1.9155C37.9259 1.97756 38.2581 2.1848 38.4775 2.49167C38.6968 2.79854 38.7853 3.17994 38.7236 3.55207L37.5055 10.8725C37.459 11.15 37.3313 11.4075 37.1385 11.6124C36.9457 11.8174 36.6965 11.9606 36.4224 12.0239C36.1482 12.0873 35.8615 12.068 35.5983 11.9684C35.3351 11.8688 35.1074 11.6935 34.9439 11.4645L32.9686 8.7037L22.7963 15.2044C22.3625 15.482 21.843 15.5934 21.3335 15.5181C20.824 15.4428 20.359 15.1858 20.0241 14.7946L14.3516 8.16292L3.74379 13.6134C3.2403 13.8723 2.65457 13.9206 2.11547 13.7477C1.57636 13.5747 1.12804 13.1947 0.869122 12.6912C0.610205 12.1877 0.561904 11.602 0.734844 11.0629C0.907785 10.5238 1.2878 10.0755 1.79129 9.81656L13.9019 3.59191C14.3294 3.37226 14.8186 3.30334 15.2902 3.39632C15.7618 3.4893 16.1883 3.73873 16.5005 4.10423L22.062 10.6078L30.4867 5.22279L28.8445 2.9259C28.6812 2.69686 28.5894 2.42457 28.5808 2.14342C28.5722 1.86226 28.6471 1.58487 28.7961 1.34626ZM10.1648 15.3211L1.90514 20.0458C1.57884 20.2322 1.30753 20.5014 1.11862 20.8263C0.929707 21.1511 0.829898 21.5201 0.829275 21.8958V38.2615C0.829275 39.4398 1.7856 40.3962 2.96393 40.3962H10.1648V15.3211ZM13.7226 40.3962H24.1624V21.0078L19.4691 23.3531L14.7785 15.1447C14.5416 14.7272 14.1705 14.4022 13.7254 14.2225L13.7226 40.3962ZM35.6953 40.3962H27.7202V19.229L34.7418 15.7167C35.0672 15.5543 35.4288 15.4776 35.7922 15.4942C36.1555 15.5107 36.5087 15.6198 36.818 15.8111C37.1274 16.0024 37.3828 16.2696 37.5599 16.5874C37.7369 16.9051 37.8299 17.2628 37.8299 17.6265V38.2615C37.8299 38.8277 37.605 39.3706 37.2047 39.7709C36.8044 40.1713 36.2614 40.3962 35.6953 40.3962Z" fill="#029894"/>
</svg>