<svg xmlns="http://www.w3.org/2000/svg" width="39" height="33" viewBox="0 0 39 33" fill="none">
  <path d="M37.813 28.2888C37.0807 27.5678 28.2072 24.1354 26.597 23.488C24.9953 22.8518 24.3563 21.089 24.3563 21.089C24.3563 21.089 23.6354 21.4876 23.6354 20.368C23.6354 19.247 24.3563 21.089 25.0773 16.766C25.0773 16.766 27.0776 16.2048 26.6804 11.5637H26.1998C26.1998 11.5637 27.4014 6.60177 26.1998 4.92234C24.9939 3.24291 24.5217 2.12329 21.8739 1.32033C19.2304 0.518781 20.1917 0.678525 18.2719 0.760517C16.3494 0.841096 14.7491 1.88155 14.7491 2.43995C14.7491 2.43995 13.5475 2.52053 13.0697 3.00117C12.589 3.48182 11.7889 5.72106 11.7889 6.28087C11.7889 6.84068 12.1889 10.6067 12.589 11.404L12.1126 11.5595C11.7125 16.202 13.7129 16.7646 13.7129 16.7646C14.4338 21.0876 15.1548 19.2456 15.1548 20.3666C15.1548 21.4862 14.4338 21.0876 14.4338 21.0876C14.4338 21.0876 13.7934 22.849 12.1932 23.4866C10.5929 24.127 1.70946 27.5678 0.987073 28.2874C0.266105 29.0225 0.346684 32.3813 0.346684 32.3813H38.4506C38.4506 32.3813 38.5396 29.0196 37.8102 28.286L37.813 28.2888ZM28.8574 31.4695H22.4083V29.7024H28.8574V31.4695Z" fill="#029894"/>
</svg>